<?xml version='1.0' encoding='UTF-8'?>
<svg xmlns:inkscape="http://www.inkscape.org/namespaces/inkscape" xmlns:sodipodi="http://sodipodi.sourceforge.net/DTD/sodipodi-0.dtd" xmlns="http://www.w3.org/2000/svg" xmlns:svg="http://www.w3.org/2000/svg" xmlns:rdf="http://www.w3.org/1999/02/22-rdf-syntax-ns#" xmlns:cc="http://creativecommons.org/ns#" xmlns:dc="http://purl.org/dc/elements/1.1/" width="64" height="64" version="1.1" viewBox="0 0 16.933 16.933" id="svg7" sodipodi:docname="preferences-wired.svg" inkscape:version="1.4.2 (ebf0e940d0, 2025-05-08)">
  <sodipodi:namedview id="namedview7" pagecolor="#9c4444" bordercolor="#000000" borderopacity="0.25" inkscape:showpageshadow="2" inkscape:pageopacity="0.0" inkscape:pagecheckerboard="0" inkscape:deskcolor="#d1d1d1" inkscape:zoom="6.15625" inkscape:cx="35.654822" inkscape:cy="29.64467" inkscape:window-width="1183" inkscape:window-height="941" inkscape:window-x="0" inkscape:window-y="0" inkscape:window-maximized="0" inkscape:current-layer="svg7" showgrid="false"/>
  <defs id="defs2">
    <style id="current-color-scheme" type="text/css">.ColorScheme-Text {color:#d8dee9} .ColorScheme-Highlight {color:#3b4252}</style>
  </defs>
  <metadata id="metadata2">
    <rdf:RDF>
      <cc:Work rdf:about="">
        <dc:format>image/svg+xml</dc:format>
        <dc:type rdf:resource="http://purl.org/dc/dcmitype/StillImage"/>
      </cc:Work>
    </rdf:RDF>
  </metadata>
  <path d="m 3.9308751,3.9308744 c 0,0 -0.7559378,0 -0.7559378,0.7559377 v 6.8034369 c 0,0.75594 0.7559378,0.75594 0.7559378,0.75594 h 1.5118747 l 0.7559377,0.755937 h 4.5356255 l 0.755937,-0.755937 h 1.511876 c 0,0 0.755937,0.09828 0.755937,-0.75594 V 4.6868121 c 0,-0.7559377 -0.755937,-0.7559377 -0.755937,-0.7559377 z M 4.6868124,5.4427491 H 5.4427498 V 7.7105618 H 6.9546251 V 5.4427491 h 0.755937 V 7.7105618 H 9.222438 V 5.4427491 H 9.9783753 V 7.7105618 H 11.49025 V 5.4427491 h 0.755938 V 10.734311 H 10.734313 L 9.9783753,11.490249 H 6.9546251 L 6.1986875,10.734311 H 4.6868124 Z" id="path2" style="fill:currentColor;fill-opacity:1;stroke-width:0.075594" class="ColorScheme-Text"/>
  </svg>
