<?xml version='1.0' encoding='UTF-8'?>
<svg xmlns:inkscape="http://www.inkscape.org/namespaces/inkscape" xmlns:sodipodi="http://sodipodi.sourceforge.net/DTD/sodipodi-0.dtd" xmlns="http://www.w3.org/2000/svg" xmlns:svg="http://www.w3.org/2000/svg" xmlns:rdf="http://www.w3.org/1999/02/22-rdf-syntax-ns#" xmlns:cc="http://creativecommons.org/ns#" xmlns:dc="http://purl.org/dc/elements/1.1/" width="64" height="64" version="1.1" viewBox="0 0 16.933 16.933" id="svg7" sodipodi:docname="preferences-region-and-language.svg" inkscape:version="1.4.2 (ebf0e940d0, 2025-05-08)">
  <sodipodi:namedview id="namedview7" pagecolor="#9c4444" bordercolor="#000000" borderopacity="0.25" inkscape:showpageshadow="2" inkscape:pageopacity="0.0" inkscape:pagecheckerboard="0" inkscape:deskcolor="#d1d1d1" inkscape:zoom="6.15625" inkscape:cx="15.837563" inkscape:cy="29.64467" inkscape:window-width="1183" inkscape:window-height="941" inkscape:window-x="0" inkscape:window-y="0" inkscape:window-maximized="0" inkscape:current-layer="svg7" showgrid="false"/>
  <defs id="defs2">
    <style id="current-color-scheme" type="text/css">.ColorScheme-Text {color:#d8dee9} .ColorScheme-Highlight {color:#3b4252}</style>
  </defs>
  <metadata id="metadata2">
    <rdf:RDF>
      <cc:Work rdf:about="">
        <dc:format>image/svg+xml</dc:format>
        <dc:type rdf:resource="http://purl.org/dc/dcmitype/StillImage"/>
      </cc:Work>
    </rdf:RDF>
  </metadata>
  <path style="fill:currentColor;fill-opacity:1;stroke:none;stroke-width:0.30999;stroke-dasharray:none;stroke-dashoffset:2.2;stroke-opacity:0.3" d="m 4.4080077,12.881273 c -0.1143857,-0.0481 -0.1507562,-0.111905 -0.1507562,-0.264468 0,-0.104439 0.262551,-1.371562 0.3190476,-1.539792 C 4.6062419,10.987854 4.5892,10.961347 4.3591121,10.739216 3.2122027,9.6319678 2.8717436,8.1507924 3.4548545,6.8052194 3.9707823,5.614676 5.2257674,4.636431 6.7568988,4.231321 7.3862735,4.0647991 7.7229535,4.0226885 8.4408953,4.0206936 c 1.1049577,-0.0031 1.9121077,0.1737809 2.8128347,0.6163137 1.63626,0.8039081 2.575494,2.1761458 2.500116,3.652714 -0.09314,1.8246147 -1.681644,3.3695637 -3.9574671,3.8489807 -0.3425054,0.07212 -0.570681,0.09443 -1.124048,0.109707 -0.7608185,0.02103 -1.231683,-0.0249 -1.8336827,-0.17894 L 6.518199,11.987489 5.596612,12.440818 c -0.5068747,0.249329 -0.9581565,0.460316 -1.0028496,0.46886 -0.044698,0.0086 -0.1282822,-0.0043 -0.1857547,-0.02841 z m 7.1321813,-2.667238 c 0.125608,-0.125616 0.125664,-0.4306063 8.5e-5,-0.5661068 l -0.08731,-0.094213 H 8.5169714 5.5809839 l -0.092184,0.1095489 c -0.065318,0.077624 -0.092185,0.1507696 -0.092185,0.2510073 0,0.1505316 0.075697,0.3332066 0.1505743,0.3633296 0.024892,0.01 1.3638328,0.01947 2.9754255,0.02102 l 2.9301703,0.0028 z m -0.01667,-1.8325612 c 0.08809,-0.088107 0.104079,-0.1322342 0.104079,-0.2875822 0,-0.1553477 -0.01597,-0.1994752 -0.104079,-0.287583 L 11.419435,7.7022311 H 8.5121079 5.6047827 L 5.5007039,7.8063086 c -0.088107,0.088107 -0.104076,0.1322355 -0.104076,0.287583 0,0.1553477 0.015969,0.1994749 0.104076,0.2875822 l 0.1040788,0.1040774 h 2.9073252 2.9073241 z m 0.01677,-1.8416198 c 0.125567,-0.1355001 0.125539,-0.4404907 -7.9e-5,-0.5661063 l -0.08738,-0.087396 H 8.5344491 c -1.6050955,0 -2.9442932,0.00994 -2.9759934,0.022114 -0.1729485,0.066367 -0.2154925,0.4427135 -0.069643,0.6160486 l 0.092184,0.1095474 h 2.9359866 2.9359877 z" id="path52" class="ColorScheme-Text"/>
  </svg>
