<?xml version='1.0' encoding='UTF-8'?>
<svg xmlns:inkscape="http://www.inkscape.org/namespaces/inkscape" xmlns:sodipodi="http://sodipodi.sourceforge.net/DTD/sodipodi-0.dtd" xmlns="http://www.w3.org/2000/svg" xmlns:svg="http://www.w3.org/2000/svg" xmlns:rdf="http://www.w3.org/1999/02/22-rdf-syntax-ns#" xmlns:cc="http://creativecommons.org/ns#" xmlns:dc="http://purl.org/dc/elements/1.1/" width="64" height="64" version="1.1" id="svg7" sodipodi:docname="folder-steam.svg" inkscape:version="1.4.2 (ebf0e940d0, 2025-05-08)">
  <metadata id="metadata11">
    <rdf:RDF>
      <cc:Work rdf:about="">
        <dc:format>image/svg+xml</dc:format>
        <dc:type rdf:resource="http://purl.org/dc/dcmitype/StillImage"/>
      </cc:Work>
    </rdf:RDF>
  </metadata>
  <sodipodi:namedview pagecolor="#9c4444" bordercolor="#666666" borderopacity="1" objecttolerance="10" gridtolerance="10" guidetolerance="10" inkscape:pageopacity="0" inkscape:pageshadow="2" inkscape:window-width="2560" inkscape:window-height="1376" id="namedview9" showgrid="false" inkscape:zoom="12.890625" inkscape:cx="7.0593939" inkscape:cy="7.990303" inkscape:window-x="0" inkscape:window-y="0" inkscape:window-maximized="1" inkscape:current-layer="g1" inkscape:document-rotation="0" inkscape:showpageshadow="2" inkscape:pagecheckerboard="0" inkscape:deskcolor="#ffffff"/>
  <defs id="defs3">
    <style id="current-color-scheme" type="text/css">.ColorScheme-Text {color:#d8dee9} .ColorScheme-Highlight {color:#3b4252}</style>
  </defs>
  <g id="g1" transform="matrix(3.0614776,0,0,3.0614776,-18.199548,-27.507803)">
    <path id="path99" style="fill:currentColor;fill-opacity:1;stroke:none;stroke-width:0.985405;stroke-dasharray:none;stroke-dashoffset:2.2;stroke-opacity:0.3" d="m 19.97449,14.06688 c -0.215236,-9e-5 -0.445614,0.08657 -0.733949,0.255509 -0.686141,0.402021 -1.583475,0.591617 -2.815756,0.591617 -1.232163,0 -2.159432,-0.193618 -2.841483,-0.593333 -0.546913,-0.320514 -0.873427,-0.324751 -1.332422,-0.01543 -1.17839,0.79412 -2.066498,3.340198 -2.3270302,6.667275 -0.1562306,1.995106 -0.010468,3.046934 0.5058762,3.638877 0.248945,0.285388 0.860097,0.236999 1.411307,-0.11319 0.46725,-0.296852 1.023976,-0.951873 1.689111,-1.987492 0.601042,-0.935827 1.328042,-1.244049 2.935796,-1.246683 1.604554,-0.0026 2.23513,0.301076 2.975239,1.438747 1.241727,1.908708 2.389467,2.573214 3.062688,1.773134 0.372968,-0.443242 0.441232,-0.871482 0.423566,-2.654565 -0.03219,-3.239062 -0.878867,-6.185694 -2.098953,-7.310333 -0.324946,-0.299538 -0.577246,-0.44403 -0.85399,-0.444146 z m -6.970798,1.908608 h 0.744237 0.744237 v 0.637919 0.637918 h 0.637919 0.637918 v 0.797398 0.797395 h -0.637918 -0.637919 v 0.691081 0.691077 h -0.673928 c -0.37024,0 -0.70355,-0.03318 -0.742526,-0.07201 -0.03896,-0.03895 -0.07201,-0.348348 -0.07201,-0.689363 v -0.620785 h -0.63793 -0.637917 v -0.797395 -0.797398 h 0.637917 0.63792 v -0.637918 z m 6.067083,0 c 0.671403,0 0.958931,0.743895 0.475009,1.227822 -0.307755,0.307722 -0.58863,0.33191 -0.891714,0.07545 -0.525705,-0.444823 -0.251307,-1.30326 0.416705,-1.30326 z m -1.291271,1.363294 c 0.16765,1.15e-4 0.33645,0.06694 0.469863,0.214343 0.207968,0.229789 0.230434,0.755941 0.04287,1.001463 -0.367049,0.480511 -1.248399,0.171444 -1.248399,-0.437281 0,-0.461991 0.366831,-0.778788 0.735662,-0.778537 z m 2.635699,0.02594 c 0.193235,0.0036 0.380853,0.06752 0.490443,0.18861 0.207978,0.229789 0.230423,0.755938 0.04287,1.001463 -0.390408,0.511087 -1.248398,0.169001 -1.248398,-0.497303 0,-0.201974 0.0809,-0.420872 0.193765,-0.523024 0.128989,-0.11675 0.328097,-0.173284 0.521312,-0.169785 z m -1.298129,1.375295 c 0.595234,0 0.884857,0.631372 0.52474,1.145512 -0.123115,0.175758 -0.273243,0.236637 -0.583045,0.236637 -0.35668,0 -0.439446,-0.04643 -0.583043,-0.324115 -0.283132,-0.54753 0.02588,-1.058052 0.641348,-1.058052 z" class="ColorScheme-Text"/>
  </g>
</svg>
