<?xml version='1.0' encoding='UTF-8'?>
<svg xmlns:inkscape="http://www.inkscape.org/namespaces/inkscape" xmlns:sodipodi="http://sodipodi.sourceforge.net/DTD/sodipodi-0.dtd" xmlns="http://www.w3.org/2000/svg" xmlns:svg="http://www.w3.org/2000/svg" xmlns:rdf="http://www.w3.org/1999/02/22-rdf-syntax-ns#" xmlns:cc="http://creativecommons.org/ns#" xmlns:dc="http://purl.org/dc/elements/1.1/" width="64" height="64" version="1.1" id="svg7" sodipodi:docname="folder-remote.svg" inkscape:version="1.4.2 (ebf0e940d0, 2025-05-08)">
  <metadata id="metadata11">
    <rdf:RDF>
      <cc:Work rdf:about="">
        <dc:format>image/svg+xml</dc:format>
        <dc:type rdf:resource="http://purl.org/dc/dcmitype/StillImage"/>
      </cc:Work>
    </rdf:RDF>
  </metadata>
  <sodipodi:namedview pagecolor="#9c4444" bordercolor="#666666" borderopacity="1" objecttolerance="10" gridtolerance="10" guidetolerance="10" inkscape:pageopacity="0" inkscape:pageshadow="2" inkscape:window-width="2560" inkscape:window-height="1376" id="namedview9" showgrid="false" inkscape:zoom="18.230097" inkscape:cx="7.350482" inkscape:cy="8.0087341" inkscape:window-x="0" inkscape:window-y="0" inkscape:window-maximized="1" inkscape:current-layer="svg7" inkscape:document-rotation="0" inkscape:showpageshadow="2" inkscape:pagecheckerboard="0" inkscape:deskcolor="#ffffff"/>
  <defs id="defs3">
    <style id="current-color-scheme" type="text/css">.ColorScheme-Text {color:#d8dee9} .ColorScheme-Highlight {color:#3b4252}</style>
  </defs>
  <g id="g4" transform="matrix(8.6410659,0,0,8.6410659,-41.161102,-62.530538)" style="fill:currentColor;stroke:none;stroke-width:0.32664;stroke-dasharray:none" class="ColorScheme-Text">
    <g style="fill:currentColor;fill-opacity:0.971119;stroke:none;stroke-width:2.54026;stroke-linecap:butt;stroke-linejoin:miter;stroke-miterlimit:4;stroke-dasharray:none;stroke-dashoffset:0;stroke-opacity:0.3;marker:none" transform="matrix(0.12858496,0,0,0.12858496,1.2659179,-25.002576)" id="g68" class="ColorScheme-Text">
      <path d="m 59.064,265.043 c -3.41,0 -6.363,1.995 -7.827,4.892 a 6,6 0 0 0 -3.28,-0.978 c -3.384,0 -6.127,2.803 -6.127,6.26 0,0.55 0.085,1.082 0.216,1.59 -2.445,1.684 -4.046,4.55 -4.046,7.8 0,5.204 4.1,9.393 9.191,9.393 H 64.81 c 5.09,0 9.19,-4.189 9.19,-9.392 0,-4.155 -2.625,-7.657 -6.271,-8.902 0.099,-0.54 0.144,-1.093 0.144,-1.663 0,-4.97 -3.944,-9 -8.81,-9 z" overflow="visible" style="overflow:visible;fill:currentColor;fill-opacity:0.971119;stroke:none;stroke-width:2.54026;stroke-linecap:butt;stroke-linejoin:miter;stroke-miterlimit:4;stroke-dasharray:none;stroke-dashoffset:0;stroke-opacity:0.3;marker:none" id="path66" class="ColorScheme-Text"/>
    </g>
  </g>
</svg>
