<?xml version='1.0' encoding='UTF-8'?>
<svg xmlns:inkscape="http://www.inkscape.org/namespaces/inkscape" xmlns:sodipodi="http://sodipodi.sourceforge.net/DTD/sodipodi-0.dtd" xmlns="http://www.w3.org/2000/svg" xmlns:svg="http://www.w3.org/2000/svg" xmlns:rdf="http://www.w3.org/1999/02/22-rdf-syntax-ns#" xmlns:cc="http://creativecommons.org/ns#" xmlns:dc="http://purl.org/dc/elements/1.1/" width="64" height="64" version="1.1" id="svg9" sodipodi:docname="folder-open.svg" inkscape:version="1.4.2 (ebf0e940d0, 2025-05-08)">
  <metadata id="metadata13">
    <rdf:RDF>
      <cc:Work rdf:about="">
        <dc:format>image/svg+xml</dc:format>
        <dc:type rdf:resource="http://purl.org/dc/dcmitype/StillImage"/>
      </cc:Work>
    </rdf:RDF>
  </metadata>
  <sodipodi:namedview pagecolor="#9c4444" bordercolor="#666666" borderopacity="1" objecttolerance="10" gridtolerance="10" guidetolerance="10" inkscape:pageopacity="0" inkscape:pageshadow="2" inkscape:window-width="2560" inkscape:window-height="1376" id="namedview11" showgrid="false" inkscape:zoom="18.58365" inkscape:cx="7.8025576" inkscape:cy="20.986189" inkscape:window-x="0" inkscape:window-y="0" inkscape:window-maximized="1" inkscape:current-layer="svg9" inkscape:document-rotation="0" inkscape:showpageshadow="0" inkscape:pagecheckerboard="false" inkscape:deskcolor="#d1d1d1"/>
  <defs id="defs3">
    <style id="current-color-scheme" type="text/css">.ColorScheme-Text {color:#d8dee9} .ColorScheme-Highlight {color:#3b4252}</style>
  </defs>
  <path style="opacity:0.3;fill:currentColor;stroke-width:2.85714" class="ColorScheme-Text" d="m 14.857143,1.5664612 c 0,0 -2.857143,0 -2.857143,2.8571429 v 8.5714289 c 0,-2.857143 2.857143,-2.857143 2.857143,-2.857143 h 14.285714 l 5.714286,5.714285 h 14.285714 c 0,0 2.857143,0 2.857143,2.857143 V 10.13789 C 52,7.2807469 49.142857,7.2807469 49.142857,7.2807469 H 34.857143 L 29.142857,1.5664612 Z" id="path5" transform="translate(0,11.86211)"/>
  <path style="fill:currentColor;stroke:none;stroke-width:2.85714;stroke-dasharray:none;stroke-opacity:0.3" class="ColorScheme-Text" d="m 14.857143,12.995033 c 0,0 -2.857143,0 -2.857143,2.857142 v 20 c 0,0 0,2.857143 2.857143,2.857143 h 34.285714 c 0,0 2.857143,0 2.857143,-2.857143 V 21.566461 c 0,-2.857143 -2.857143,-2.857143 -2.857143,-2.857143 H 34.857143 l -5.714286,-5.714285 z" id="path7" transform="translate(0,11.86211)"/>
</svg>
