<?xml version='1.0' encoding='UTF-8'?>
<svg xmlns:inkscape="http://www.inkscape.org/namespaces/inkscape" xmlns:sodipodi="http://sodipodi.sourceforge.net/DTD/sodipodi-0.dtd" xmlns="http://www.w3.org/2000/svg" xmlns:svg="http://www.w3.org/2000/svg" xmlns:rdf="http://www.w3.org/1999/02/22-rdf-syntax-ns#" xmlns:cc="http://creativecommons.org/ns#" xmlns:dc="http://purl.org/dc/elements/1.1/" width="64" height="64" version="1.1" viewBox="0 0 16.933 16.933" id="svg7" sodipodi:docname="financial-schedule.svg" inkscape:version="1.4.2 (ebf0e940d0, 2025-05-08)">
  <sodipodi:namedview id="namedview7" pagecolor="#9c4444" bordercolor="#000000" borderopacity="0.25" inkscape:showpageshadow="2" inkscape:pageopacity="0.0" inkscape:pagecheckerboard="0" inkscape:deskcolor="#d1d1d1" inkscape:zoom="6.15625" inkscape:cx="15.756345" inkscape:cy="29.64467" inkscape:window-width="1226" inkscape:window-height="669" inkscape:window-x="0" inkscape:window-y="0" inkscape:window-maximized="0" inkscape:current-layer="svg7" showgrid="false"/>
  <defs id="defs2">
    <style id="current-color-scheme" type="text/css">.ColorScheme-Text {color:#d8dee9} .ColorScheme-Highlight {color:#3b4252}</style>
  </defs>
  <metadata id="metadata2">
    <rdf:RDF>
      <cc:Work rdf:about="">
        <dc:format>image/svg+xml</dc:format>
        <dc:type rdf:resource="http://purl.org/dc/dcmitype/StillImage"/>
      </cc:Work>
    </rdf:RDF>
  </metadata>
  <path id="path51393" style="fill:currentColor;fill-opacity:1;stroke:none;stroke-width:0.273744;stroke-dasharray:none;stroke-opacity:0.3" d="m 10.767072,5.8452917 c -1.0284474,-0.00173 -1.6484801,0.576698 -1.8985682,1.7707844 -0.1299651,0.620546 -0.1284393,1.7221914 0.00321,2.2108067 0.1863042,0.6914812 0.5831172,1.1355112 1.1062055,1.2388012 0.4256854,0.08406 0.9463564,-0.07895 1.2093944,-0.378537 C 11.51811,10.310394 11.676978,9.6479186 11.586169,9.0248975 11.524769,8.6036076 11.385165,8.3150082 11.126901,8.0769506 10.907227,7.874463 10.706877,7.8037698 10.356995,7.8048097 10.033273,7.805783 9.8064932,7.918014 9.5603547,8.1993869 L 9.355581,8.4330319 V 8.2309315 c 0,-0.3028975 0.1144698,-0.8420874 0.2325758,-1.095512 C 9.7187387,6.8552246 9.9286256,6.640849 10.182697,6.5275142 10.413919,6.4243716 10.919056,6.3816796 11.15096,6.4457108 l 0.163604,0.044911 V 6.1944229 c 0,-0.3495181 0.0015,-0.3482005 -0.547488,-0.3491312 z m -4.077296,0.00429 C 6.653289,5.8497615 6.615855,5.8509217 6.5774986,5.8527917 6.2553853,5.8683835 6.1613148,5.8915324 5.938583,6.0110449 5.7949442,6.0881152 5.6005512,6.2167401 5.5060452,6.2965491 L 5.3338858,6.441441 5.477708,6.6654625 c 0.079047,0.1231823 0.1567054,0.224021 0.1726948,0.224021 0.01599,0 0.1010086,-0.059217 0.188734,-0.1315254 C 6.0899588,6.551209 6.3409259,6.455875 6.6395184,6.4548074 7.1240558,6.4530719 7.360384,6.7217235 7.3586322,7.2722983 7.356656,7.9000275 7.2410551,8.0896104 5.7910177,9.849346 l -0.4833299,0.587053 v 0.294062 0.29406 H 6.7223899 8.1370927 V 10.697848 10.371706 H 7.0886303 c -0.6062129,0 -1.0424171,-0.01682 -1.0340267,-0.03957 0.00797,-0.02164 0.2694198,-0.3372747 0.5806377,-0.701471 C 7.7928006,8.2760605 7.9906057,7.8949392 7.954775,7.0899799 7.9398346,6.7543714 7.918082,6.657972 7.8109518,6.4617581 7.5776699,6.0344923 7.2370788,5.8468736 6.689776,5.8495755 Z M 3.493596,7.1519955 C 3.4256367,7.1514177 3.3531032,7.1860935 3.281872,7.2573227 L 3.1749403,7.3642543 V 8.448539 c 0,1.0310292 0.00405,1.0896458 0.089822,1.1987013 0.1388441,0.176511 0.3466636,0.1479659 0.4555281,-0.062554 0.092825,-0.1795082 0.092825,-2.0772802 0,-2.2567878 C 3.6603655,7.212017 3.5809736,7.1527255 3.493596,7.1519961 Z m 9.967613,0 c -0.06795,-5.778e-4 -0.14049,0.034096 -0.211726,0.1053272 L 13.142558,7.3642543 V 8.448539 c 0,1.031033 0.0046,1.0896458 0.09036,1.1987013 0.138846,0.1765123 0.346662,0.1479659 0.455527,-0.062554 0.09282,-0.1795088 0.09282,-2.0772793 0,-2.2567878 -0.05993,-0.115882 -0.13986,-0.1751735 -0.227239,-0.1759032 z M 10.256474,8.36941 c 0.316284,0 0.504182,0.108672 0.64052,0.3699827 0.07674,0.1470884 0.09089,0.2518577 0.09089,0.6747367 0,0.4670597 -0.0081,0.5140605 -0.119228,0.7030746 -0.0827,0.140674 -0.176543,0.230169 -0.307422,0.293528 -0.214597,0.103882 -0.428185,0.11433 -0.61806,0.02995 C 9.4623241,10.226959 9.208555,9.2879505 9.4983298,8.794996 9.6667657,8.5084586 9.9145479,8.3694088 10.256474,8.3694088 Z" class="ColorScheme-Text"/>
  </svg>
