<?xml version='1.0' encoding='UTF-8'?>
<svg xmlns:inkscape="http://www.inkscape.org/namespaces/inkscape" xmlns:sodipodi="http://sodipodi.sourceforge.net/DTD/sodipodi-0.dtd" xmlns="http://www.w3.org/2000/svg" xmlns:svg="http://www.w3.org/2000/svg" xmlns:rdf="http://www.w3.org/1999/02/22-rdf-syntax-ns#" xmlns:cc="http://creativecommons.org/ns#" xmlns:dc="http://purl.org/dc/elements/1.1/" width="64" height="64" version="1.1" viewBox="0 0 16.933 16.933" id="svg7" sodipodi:docname="kaccess.svg" inkscape:version="1.4.2 (ebf0e940d0, 2025-05-08)">
  <sodipodi:namedview id="namedview7" pagecolor="#9c4444" bordercolor="#000000" borderopacity="0.25" inkscape:showpageshadow="2" inkscape:pageopacity="0.0" inkscape:pagecheckerboard="0" inkscape:deskcolor="#d1d1d1" inkscape:zoom="6.15625" inkscape:cx="15.675127" inkscape:cy="27.208122" inkscape:window-width="1226" inkscape:window-height="669" inkscape:window-x="0" inkscape:window-y="0" inkscape:window-maximized="0" inkscape:current-layer="svg7" showgrid="false"/>
  <defs id="defs2">
    <style id="current-color-scheme" type="text/css">.ColorScheme-Text {color:#d8dee9} .ColorScheme-Highlight {color:#3b4252}</style>
  </defs>
  <metadata id="metadata2">
    <rdf:RDF>
      <cc:Work rdf:about="">
        <dc:format>image/svg+xml</dc:format>
        <dc:type rdf:resource="http://purl.org/dc/dcmitype/StillImage"/>
      </cc:Work>
    </rdf:RDF>
  </metadata>
  <path style="clip-rule:nonzero;display:inline;overflow:visible;visibility:visible;isolation:auto;mix-blend-mode:normal;color-interpolation:sRGB;color-interpolation-filters:linearRGB;solid-opacity:1;fill:currentColor;fill-opacity:1;fill-rule:evenodd;stroke:none;stroke-width:0.32585;stroke-linecap:butt;stroke-linejoin:miter;stroke-miterlimit:4;stroke-dasharray:none;stroke-dashoffset:0;stroke-opacity:0.3;color-rendering:auto;image-rendering:auto;shape-rendering:auto;text-rendering:auto;enable-background:accumulate" d="M 8.466382,3.1749377 A 1.2632613,1.3564843 0 0 0 7.2031204,4.5314218 1.2632613,1.3564843 0 0 0 8.466382,5.8879056 1.2632613,1.3564843 0 0 0 9.7296431,4.5314218 1.2632613,1.3564843 0 0 0 8.466382,3.1749377 Z M 4.4298669,6.1592025 C 4.1392758,6.1512103 4.0680402,6.5899413 4.3440045,6.6880194 l 2.8591159,1.023192 V 9.9165583 L 6.2038606,13.404206 c -0.089316,0.309842 0.3113017,0.496377 0.460893,0.2146 l 1.8016284,-3.385381 1.801628,3.385381 c 0.149419,0.283251 0.551847,0.09541 0.460894,-0.215129 L 9.7296431,9.9562987 V 7.7112114 L 12.588759,6.6880194 C 12.879214,6.5847504 12.78072,6.1195861 12.477239,6.1613222 L 8.466382,6.6996775 4.4555269,6.1613222 c -0.00851,-0.00113 -0.017077,-0.00189 -0.025663,-0.00214 z" id="path4184" class="ColorScheme-Text"/>
</svg>
