<?xml version='1.0' encoding='UTF-8'?>
<svg xmlns:inkscape="http://www.inkscape.org/namespaces/inkscape" xmlns:sodipodi="http://sodipodi.sourceforge.net/DTD/sodipodi-0.dtd" xmlns="http://www.w3.org/2000/svg" xmlns:svg="http://www.w3.org/2000/svg" xmlns:rdf="http://www.w3.org/1999/02/22-rdf-syntax-ns#" xmlns:cc="http://creativecommons.org/ns#" xmlns:dc="http://purl.org/dc/elements/1.1/" width="64" height="64" version="1.1" viewBox="0 0 16.933 16.933" id="svg7" sodipodi:docname="kde-gtk-config.svg" inkscape:version="1.4.2 (ebf0e940d0, 2025-05-08)">
  <sodipodi:namedview id="namedview7" pagecolor="#9c4444" bordercolor="#000000" borderopacity="0.25" inkscape:showpageshadow="2" inkscape:pageopacity="0.0" inkscape:pagecheckerboard="0" inkscape:deskcolor="#d1d1d1" inkscape:zoom="6.15625" inkscape:cx="15.675127" inkscape:cy="29.64467" inkscape:window-width="1226" inkscape:window-height="669" inkscape:window-x="0" inkscape:window-y="0" inkscape:window-maximized="0" inkscape:current-layer="svg7" showgrid="false"/>
  <defs id="defs2">
    <style id="current-color-scheme" type="text/css">.ColorScheme-Text {color:#d8dee9} .ColorScheme-Highlight {color:#3b4252}</style>
  </defs>
  <metadata id="metadata2">
    <rdf:RDF>
      <cc:Work rdf:about="">
        <dc:format>image/svg+xml</dc:format>
        <dc:type rdf:resource="http://purl.org/dc/dcmitype/StillImage"/>
      </cc:Work>
    </rdf:RDF>
  </metadata>
  <path id="path15571" style="fill:currentColor;stroke:none;stroke-width:0.325973;stroke-dasharray:none;stroke-opacity:0.3" d="m 11.902178,3.1752076 c -0.696533,0.012371 -1.368299,0.4452311 -1.698625,1.1326282 -0.3868191,0.8049567 -0.3246072,1.6485929 0.13943,1.8966281 0.131516,0.070298 0.197675,0.084103 0.328519,0.06685 0.641565,-0.084594 1.552925,-0.9187404 1.971118,-1.8043115 0.124131,-0.2628333 0.135595,-0.3149036 0.136246,-0.6105624 l 0.0012,-0.3234261 -0.149617,-0.1394297 C 12.523651,3.2938553 12.425665,3.2420302 12.289243,3.2127708 12.160541,3.1851673 12.031135,3.1729163 11.902148,3.1752079 Z M 8.6067952,3.67117 C 8.1136122,3.6828008 7.8165596,4.0462142 7.7848597,4.676466 7.7761906,4.8487877 7.787894,5.0803318 7.8109635,5.1915283 7.8695227,5.4736047 8.0384367,5.8136298 8.1783202,5.931334 8.418247,6.1332189 8.653204,6.0095989 8.891386,5.5563377 9.1666783,5.0324554 9.2565125,4.3094853 9.0874788,3.9786798 8.9694429,3.7476765 8.8410124,3.665645 8.6067962,3.67117 Z M 6.3752813,4.1518533 c -0.066358,-0.0013 -0.1377908,0.00986 -0.2139198,0.032473 -0.4159737,0.1235309 -0.633535,0.4970928 -0.5558094,0.9543621 0.074102,0.4359532 0.4187218,0.962411 0.7168857,1.0957019 0.064519,0.028842 0.1668163,0.044316 0.2272903,0.03438 C 6.9737556,6.1991058 7.1527865,5.1026466 6.8406839,4.4867416 6.7296093,4.2675472 6.574354,4.1557929 6.3752813,4.1518552 Z M 4.7887096,5.8485679 C 4.5792818,5.8477855 4.355341,5.9549989 4.2290802,6.1407972 c -0.072439,0.1066023 -0.084177,0.1625293 -0.071942,0.3374327 0.011892,0.1700148 0.041415,0.2488211 0.1572566,0.4170163 0.1583244,0.2298809 0.4424577,0.4632327 0.6621325,0.5437131 0.078935,0.028918 0.1731857,0.053955 0.209463,0.055391 C 5.3064618,7.4990676 5.4597812,7.3907921 5.501139,7.2721534 5.6441038,6.8620455 5.4030546,6.1321926 5.0548363,5.9198743 4.9761871,5.8719197 4.8839048,5.8489225 4.7887096,5.8485679 Z M 9.1237678,6.8073863 C 8.4110863,6.8185509 7.6114427,6.9938034 6.9310906,7.3300895 5.6942739,7.9414247 5.0389585,8.897494 5.1127728,9.9824361 c 0.031245,0.4592399 0.1430809,0.8436679 0.3902762,1.3440029 0.6092843,1.233225 1.7430921,2.170745 2.9000129,2.397683 0.2530531,0.04964 0.6926385,0.04399 0.9008827,-0.01145 0.9424534,-0.250932 1.8142964,-1.175271 2.0290544,-2.151294 0.03934,-0.178857 0.03708,-0.221705 -0.01783,-0.337433 C 11.134991,10.844249 10.200383,10.797658 9.5598787,11.136082 9.2773922,11.285339 9.226855,11.368669 9.2218093,11.691891 9.2148243,12.139569 9.050268,12.342756 8.6971962,12.340017 8.3370803,12.337166 7.9494664,12.120205 7.8173255,11.847238 7.6591797,11.520554 7.7505587,11.222647 8.1101917,10.889691 8.2301076,10.77867 8.7381684,10.416646 9.2390004,10.084945 10.348568,9.3500804 10.740887,9.0032205 10.956725,8.5664998 11.08133,8.3143783 11.094193,8.2612568 11.093608,7.9935008 11.092861,7.6535193 11.026657,7.4927834 10.795011,7.2696115 10.462441,6.9491954 9.8364494,6.7962205 9.1237672,6.8073883 Z" class="ColorScheme-Text"/>
  </svg>
