<?xml version='1.0' encoding='UTF-8'?>
<svg xmlns:inkscape="http://www.inkscape.org/namespaces/inkscape" xmlns:sodipodi="http://sodipodi.sourceforge.net/DTD/sodipodi-0.dtd" xmlns="http://www.w3.org/2000/svg" xmlns:svg="http://www.w3.org/2000/svg" xmlns:rdf="http://www.w3.org/1999/02/22-rdf-syntax-ns#" xmlns:cc="http://creativecommons.org/ns#" xmlns:dc="http://purl.org/dc/elements/1.1/" width="64" height="64" version="1.1" viewBox="0 0 16.933 16.933" id="svg7" sodipodi:docname="preferences-system-network-sharing.svg" inkscape:version="1.4.2 (ebf0e940d0, 2025-05-08)">
  <sodipodi:namedview id="namedview7" pagecolor="#9c4444" bordercolor="#000000" borderopacity="0.25" inkscape:showpageshadow="2" inkscape:pageopacity="0.0" inkscape:pagecheckerboard="0" inkscape:deskcolor="#d1d1d1" inkscape:zoom="6.15625" inkscape:cx="15.756345" inkscape:cy="29.64467" inkscape:window-width="1226" inkscape:window-height="669" inkscape:window-x="0" inkscape:window-y="0" inkscape:window-maximized="0" inkscape:current-layer="svg7" showgrid="false"/>
  <defs id="defs2">
    <style id="current-color-scheme" type="text/css">.ColorScheme-Text {color:#d8dee9} .ColorScheme-Highlight {color:#3b4252}</style>
  </defs>
  <metadata id="metadata2">
    <rdf:RDF>
      <cc:Work rdf:about="">
        <dc:format>image/svg+xml</dc:format>
        <dc:type rdf:resource="http://purl.org/dc/dcmitype/StillImage"/>
      </cc:Work>
    </rdf:RDF>
  </metadata>
  <path style="fill:currentColor;fill-opacity:1;stroke-width:0.968385" d="M 11.28003,3.1771647 A 1.9367793,1.9367792 0 0 0 9.6940967,4.1436659 1.9367793,1.9367792 0 0 0 9.506847,5.6293694 L 6.9430836,7.1103273 A 1.9367793,1.9367792 0 0 0 5.5611926,6.5297771 1.9367793,1.9367792 0 0 0 3.6244125,8.4665572 1.9367793,1.9367792 0 0 0 5.5611926,10.403333 1.9367793,1.9367792 0 0 0 6.9419227,9.8226889 l 2.5637637,1.4809581 a 1.9367793,1.9367792 0 0 0 0.1878687,1.48551 1.9367793,1.9367792 0 0 0 2.6461269,0.709346 1.9367793,1.9367792 0 0 0 0.709347,-2.646125 A 1.9367793,1.9367792 0 0 0 10.4029,10.144001 1.9367793,1.9367792 0 0 0 9.9893974,10.464537 L 7.4251007,8.9843557 A 1.9367793,1.9367792 0 0 0 7.4977281,8.4662665 1.9367793,1.9367792 0 0 0 7.4270355,7.9481782 l 2.5637646,-1.47999 A 1.9367793,1.9367792 0 0 0 10.402851,6.7887248 1.9367793,1.9367792 0 0 0 13.048975,6.0803486 1.9367793,1.9367792 0 0 0 12.339632,3.4342237 1.9367793,1.9367792 0 0 0 11.27973,3.1771164 Z" id="path4" class="ColorScheme-Text"/>
</svg>
