<?xml version='1.0' encoding='UTF-8'?>
<svg xmlns:inkscape="http://www.inkscape.org/namespaces/inkscape" xmlns:sodipodi="http://sodipodi.sourceforge.net/DTD/sodipodi-0.dtd" xmlns="http://www.w3.org/2000/svg" xmlns:svg="http://www.w3.org/2000/svg" xmlns:rdf="http://www.w3.org/1999/02/22-rdf-syntax-ns#" xmlns:cc="http://creativecommons.org/ns#" xmlns:dc="http://purl.org/dc/elements/1.1/" width="64" height="64" version="1.1" viewBox="0 0 16.933 16.933" id="svg7" sodipodi:docname="preferences-desktop-color.svg" inkscape:version="1.4.2 (ebf0e940d0, 2025-05-08)">
  <sodipodi:namedview id="namedview7" pagecolor="#9c4444" bordercolor="#000000" borderopacity="0.25" inkscape:showpageshadow="2" inkscape:pageopacity="0.0" inkscape:pagecheckerboard="0" inkscape:deskcolor="#d1d1d1" inkscape:zoom="6.15625" inkscape:cx="15.756345" inkscape:cy="27.208122" inkscape:window-width="1226" inkscape:window-height="669" inkscape:window-x="0" inkscape:window-y="0" inkscape:window-maximized="0" inkscape:current-layer="svg7" showgrid="false"/>
  <defs id="defs2">
    <style id="current-color-scheme" type="text/css">.ColorScheme-Text {color:#d8dee9} .ColorScheme-Highlight {color:#3b4252}</style>
  </defs>
  <metadata id="metadata2">
    <rdf:RDF>
      <cc:Work rdf:about="">
        <dc:format>image/svg+xml</dc:format>
        <dc:type rdf:resource="http://purl.org/dc/dcmitype/StillImage"/>
      </cc:Work>
    </rdf:RDF>
  </metadata>
  <path id="path8" style="fill:currentColor;stroke-width:0.0456305" d="m 11.431602,3.1784122 c -0.290889,0.00494 -0.582852,0.079226 -0.86962,0.222754 -0.121553,0.060838 -0.657707,0.5588532 -1.4358318,1.3332337 L 7.8845421,5.9699729 7.5948519,5.6923531 C 7.2807226,5.3907106 7.0720948,5.3003011 6.8201498,5.3571243 6.3485248,5.4634926 6.1120251,5.9409541 6.3269083,6.3534831 c 0.1241355,0.2383132 4.0898727,4.1863529 4.2921347,4.2729319 0.212106,0.09079 0.350058,0.08679 0.574991,-0.01536 0.243804,-0.110724 0.38351,-0.335478 0.38351,-0.6172384 0,-0.2719315 -0.0435,-0.3535881 -0.357723,-0.6759441 L 10.963598,9.0550644 12.203561,7.8118105 C 13.547723,6.4638483 13.622434,6.3642979 13.733213,5.7686162 13.802705,5.3949437 13.72409,4.9375906 13.526918,4.5659627 13.300748,4.1396782 12.713572,3.570751 12.294089,3.3715391 12.012198,3.2376697 11.72249,3.1734715 11.431602,3.1784122 Z M 6.7916195,7.8979492 6.5721572,8.096014 C 5.8850451,8.7155289 4.8018765,9.8279363 4.7270279,9.9910711 4.6736692,10.107368 4.6432091,10.281065 4.6425349,10.470047 l -0.0011,0.296824 -0.6627762,0.692952 c -0.3645276,0.381257 -0.6932803,0.765758 -0.7302578,0.854257 -0.2071764,0.495843 0.039211,1.096741 0.5459124,1.332685 0.1356233,0.06315 0.3171342,0.107825 0.4389246,0.108085 0.3721659,7.79e-4 0.5985637,-0.157307 1.315128,-0.920096 l 0.6518032,-0.694049 0.3045039,-0.005 c 0.2163709,-0.0033 0.3569057,-0.03282 0.4866577,-0.10205 0.1003867,-0.05356 0.5990587,-0.515344 1.1082849,-1.026535 L 9.0257462,10.077759 8.8298759,9.9049326 C 8.7221969,9.8099626 8.2195381,9.3196982 7.7128126,8.8153017 Z m -0.396678,2.0810514 c 0.2083837,-0.00347 0.3986876,0.1171564 0.4998254,0.3242564 0.1572357,0.321971 0.1180133,0.376769 -1.238316,1.729362 -1.196003,1.19271 -1.2281112,1.220842 -1.4045589,1.218017 -0.3617938,-0.0058 -0.5684075,-0.195311 -0.5684075,-0.521223 0,-0.268919 0.088028,-0.375102 1.3518879,-1.627862 0.9524299,-0.944066 1.1118715,-1.083716 1.2695897,-1.1132227 0.03031,-0.00566 0.06021,-0.00883 0.089979,-0.00933 z" class="ColorScheme-Text"/>
</svg>
