<?xml version='1.0' encoding='UTF-8'?>
<svg xmlns:inkscape="http://www.inkscape.org/namespaces/inkscape" xmlns:sodipodi="http://sodipodi.sourceforge.net/DTD/sodipodi-0.dtd" xmlns="http://www.w3.org/2000/svg" xmlns:svg="http://www.w3.org/2000/svg" xmlns:rdf="http://www.w3.org/1999/02/22-rdf-syntax-ns#" xmlns:cc="http://creativecommons.org/ns#" xmlns:dc="http://purl.org/dc/elements/1.1/" width="64" height="64" version="1.1" viewBox="0 0 16.933 16.933" id="svg7" sodipodi:docname="preferences-desktop-baloo.svg" inkscape:version="1.4.2 (ebf0e940d0, 2025-05-08)">
  <sodipodi:namedview id="namedview7" pagecolor="#9c4444" bordercolor="#000000" borderopacity="0.25" inkscape:showpageshadow="2" inkscape:pageopacity="0.0" inkscape:pagecheckerboard="0" inkscape:deskcolor="#d1d1d1" inkscape:zoom="6.15625" inkscape:cx="15.756345" inkscape:cy="27.28934" inkscape:window-width="2560" inkscape:window-height="1376" inkscape:window-x="0" inkscape:window-y="0" inkscape:window-maximized="1" inkscape:current-layer="svg7" showgrid="false"/>
  <defs id="defs2">
    <style id="current-color-scheme" type="text/css">.ColorScheme-Text {color:#d8dee9} .ColorScheme-Highlight {color:#3b4252}</style>
  </defs>
  <metadata id="metadata2">
    <rdf:RDF>
      <cc:Work rdf:about="">
        <dc:format>image/svg+xml</dc:format>
        <dc:type rdf:resource="http://purl.org/dc/dcmitype/StillImage"/>
      </cc:Work>
    </rdf:RDF>
  </metadata>
  <path id="path6" class="ColorScheme-Text" style="opacity:1;fill:currentColor;fill-opacity:1;stroke-width:0.91884" d="M 6.3857735,3.1836356 C 6.0498732,4.2616183 5.9864825,4.2102092 5.8829201,5.3624341 5.3479349,5.8410577 5.276587,6.3843125 5.3000174,6.9136192 5.3253866,7.4883626 5.7207265,7.8648847 6.1854664,7.8912554 6.7620199,7.8894177 7.0977731,7.3213083 7.1509739,6.7704916 7.2132989,6.1247035 7.1035159,5.7045089 6.6408434,5.3721371 6.6286871,4.4983206 6.5921449,4.2907455 6.3857735,3.1836356 Z M 10.591578,3.4574131 C 10.385207,4.564523 10.349013,4.7720981 10.336857,5.6459145 9.8741845,5.9782864 9.7644021,6.3988302 9.8267269,7.0446182 c 0.0532,0.5508168 0.3886051,1.118577 0.9651581,1.1204147 v 3.491e-4 c 0.46474,-0.026371 0.86043,-0.4028928 0.885799,-0.9776362 0.02343,-0.5293067 -0.04827,-1.0725615 -0.583252,-1.551185 C 10.990869,4.4843359 10.927479,4.5353958 10.591578,3.4574131 Z M 4.2648527,4.896316 C 3.9289525,5.9742987 3.8655618,5.9228895 3.7619994,7.0751144 3.2270141,7.553738 3.1553171,8.0969928 3.1787475,8.6262996 3.2041167,9.2010429 3.5998058,9.577565 4.0645457,9.6039357 4.6410992,9.6020981 4.9765032,9.0339887 5.029704,8.4831719 5.0920289,7.8373838 4.9822459,7.4171893 4.5195734,7.0848174 4.5074172,6.2110009 4.471224,6.0034259 4.2648527,4.896316 Z m 8.4032943,0.05129 c -0.206371,1.1071099 -0.242565,1.314685 -0.254721,2.1885015 -0.462673,0.3323718 -0.572455,0.7525663 -0.51013,1.3983544 0.05319,0.5507065 0.389174,1.1186965 0.965507,1.1207638 0.464593,-0.026536 0.86009,-0.4030306 0.88545,-0.9776361 C 13.777683,8.1482824 13.705985,7.6050277 13.171001,7.1264041 13.067438,5.9741792 13.004047,6.0255883 12.668147,4.947606 Z M 8.4779346,7.7488169 C 7.6772577,7.7097662 7.2380983,8.0816206 6.0000538,9.0830639 4.3973861,10.063649 3.9169157,10.606004 3.8940366,12.043344 c -0.02536,1.58906 2.0301762,2.101001 3.685282,1.396619 0.5045349,-0.214743 1.5930566,-0.232403 2.1742867,0.02288 h 3.496e-4 C 10.961678,13.853717 13.102951,13.600209 13.13704,11.860019 13.20568,10.401819 12.275711,9.9894718 10.865016,9.0830639 10.02152,8.2628341 9.6016755,7.8035797 8.4779346,7.7488169 Z"/>
</svg>
