<?xml version='1.0' encoding='UTF-8'?>
<svg xmlns:inkscape="http://www.inkscape.org/namespaces/inkscape" xmlns:sodipodi="http://sodipodi.sourceforge.net/DTD/sodipodi-0.dtd" xmlns="http://www.w3.org/2000/svg" xmlns:svg="http://www.w3.org/2000/svg" xmlns:rdf="http://www.w3.org/1999/02/22-rdf-syntax-ns#" xmlns:cc="http://creativecommons.org/ns#" xmlns:dc="http://purl.org/dc/elements/1.1/" width="64" height="64" version="1.1" viewBox="0 0 16.933 16.933" id="svg7" sodipodi:docname="preferences-web-browser-stylesheets.svg" inkscape:version="1.4.2 (ebf0e940d0, 2025-05-08)">
  <sodipodi:namedview id="namedview7" pagecolor="#9c4444" bordercolor="#000000" borderopacity="0.25" inkscape:showpageshadow="2" inkscape:pageopacity="0.0" inkscape:pagecheckerboard="0" inkscape:deskcolor="#d1d1d1" inkscape:zoom="4.3531261" inkscape:cx="36.410615" inkscape:cy="40.200995" inkscape:window-width="1543" inkscape:window-height="1372" inkscape:window-x="0" inkscape:window-y="0" inkscape:window-maximized="0" inkscape:current-layer="svg7" showgrid="false"/>
  <defs id="defs2">
    <style id="current-color-scheme" type="text/css">.ColorScheme-Text {color:#d8dee9} .ColorScheme-Highlight {color:#3b4252}</style>
  </defs>
  <metadata id="metadata2">
    <rdf:RDF>
      <cc:Work rdf:about="">
        <dc:format>image/svg+xml</dc:format>
        <dc:type rdf:resource="http://purl.org/dc/dcmitype/StillImage"/>
      </cc:Work>
    </rdf:RDF>
  </metadata>
  <path id="rect6" class="ColorScheme-Text" style="baseline-shift:baseline;display:inline;overflow:visible;vector-effect:none;fill:currentColor;stroke-width:0.364936;enable-background:accumulate;stop-color:#000000" d="m 8.4664997,3.1749377 c -2.9283698,0 -5.291563,2.3631932 -5.291563,5.2915623 0,2.92837 2.3631932,5.291562 5.291563,5.291562 2.9283693,0 5.2915633,-2.363192 5.2915633,-5.291562 0,-2.9283691 -2.363194,-5.2915623 -5.2915633,-5.2915623 z m 0.3649356,0.3777644 c 1.3116187,0.094882 2.4765237,0.6971831 3.3008117,1.6129865 v 7.111e-4 l -0.01639,0.016397 v 0.3649356 h 0.326445 c 0.05707,0.07782 0.112138,0.156814 0.164651,0.2380636 l -0.126166,0.1261652 -0.72987,0.7298704 -0.364935,0.3649356 -0.364936,1.0948052 v 0.3649356 l 0.364936,0.3649362 0.364935,0.3649356 0.72987,0.3649352 0.833222,-0.2052761 C 12.91435,11.57126 11.046453,13.25872 8.7444756,13.385296 l 0.086249,-0.173915 V 12.846446 L 9.560595,12.481509 9.9255312,12.116574 v -0.72987 L 10.290467,11.021768 V 10.656833 L 9.933371,10.299738 C 9.873795,10.939337 9.5041019,11.227757 8.8093423,11.227757 H 8.6026401 v -0.845338 h 0.2067022 c 0.094179,0 0.1505062,-0.012 0.1710629,-0.02068 0.010342,-0.0044 0.012688,-0.0071 0.014963,-0.0092 0.00221,-0.0022 0.00521,-0.0055 0.010756,-0.0171 0.010756,-0.02329 0.025805,-0.08237 0.032787,-0.176052 0.00342,-0.04589 0.00535,-0.09979 0.00649,-0.1610844 L 8.8308597,9.9269794 8.4659242,9.5620445 8.1009893,9.1971093 h -0.225948 c 0.00842,0.0772 0.011447,0.1500098 0.011447,0.214542 v 0.3706396 c 0,0.1576956 5.848e-4,0.2844211 0.00718,0.3784791 0.00649,0.09406 0.020869,0.153585 0.031368,0.176765 0.00521,0.01158 0.00883,0.01456 0.010763,0.01638 4.743e-4,4.75e-4 8.558e-4,9.27e-4 0.00136,0.0014 0.00178,0.0014 0.00521,0.0037 0.011447,0.0065 0.019557,0.0084 0.075463,0.02066 0.1696372,0.02066 H 8.324936 v 0.845335 H 8.1182338 c -0.7623337,0 -1.1268799,-0.347269 -1.1268799,-1.122605 V 9.5791042 c 0,-0.1206765 -0.00128,-0.242665 -0.011447,-0.3492541 C 6.9698359,9.1232573 6.9492029,9.032529 6.9250239,8.9803827 6.9089119,8.9456127 6.8937699,8.9296647 6.8829649,8.9219407 6.8722099,8.9142207 6.8626879,8.9084247 6.8273689,8.9084247 H 6.4353487 V 8.5199672 L 6.2764014,8.4672239 5.546531,8.8321588 H 4.8166777 V 8.1023049 H 4.4517422 V 7.3724337 L 4.0875177,7.3717226 3.7225822,7.7366574 H 3.592858 C 3.6522272,7.3323923 3.7602278,6.9445486 3.9107504,6.579128 L 4.8173881,6.2769167 5.182323,6.6418522 5.5472585,7.006787 V 6.2769167 L 6.2771289,5.9119811 V 5.5470448 L 7.0069993,5.1821093 7.7368711,4.4522389 V 4.8171744 L 8.101806,4.4522389 7.7368711,4.087304 H 8.4667415 V 4.4522389 L 9.1963708,4.0872748 8.8314353,3.72234 Z M 8.1179577,5.9119533 c -0.6484895,0 -0.920179,0.2575583 -0.920179,0.9159018 v 0.5260197 c 0,0.4065381 -0.012688,0.8774138 -0.3706371,0.8774138 H 6.6418227 v 0.4704235 h 0.1853189 c 0.3580008,0 0.3706371,0.4708757 0.3706371,0.8774135 v 0.5260194 c 0,0.658344 0.2716895,0.915902 0.920179,0.915902 v -0.431935 c -0.4324483,0 -0.4383503,-0.174781 -0.4383503,-0.8068482 V 9.411625 c 0,-0.3032606 -0.074855,-0.7547143 -0.4390621,-0.941561 C 7.6047512,8.2828529 7.6796074,7.8310511 7.6796074,7.5277892 V 7.1507366 c 0,-0.6320675 0.00621,-0.8068485 0.4383503,-0.8068485 z m 0.6913825,0 v 0.4319348 c 0.4324483,0 0.4440511,0.174781 0.4440511,0.8068485 v 0.3770526 c 0,0.3028967 0.074855,0.7554275 0.4390639,0.9422748 C 9.328249,8.6569107 9.2533913,9.1083644 9.2533913,9.411625 v 0.3706396 c 0,0.6320674 -0.011583,0.8068484 -0.4440511,0.8068484 v 0.431935 c 0.6484896,0 0.9258802,-0.257558 0.9258802,-0.915902 V 9.5798381 c 0,-0.4065385 0.024885,-0.8774127 0.3770516,-0.8774127 h 0.178904 V 8.2312886 h -0.178904 c -0.352162,0 -0.3770516,-0.4708757 -0.3770516,-0.8774138 V 6.8278551 c 0,-0.6583435 -0.2770262,-0.9159018 -0.9258802,-0.9159018 z M 3.5470003,8.1970751 4.0865627,8.4672125 4.4514983,8.8321481 5.1813687,9.1970829 5.5463042,9.5620181 5.1813687,9.9269544 v 0.7298706 l 0.3649355,0.729871 0.7298704,0.72987 v 0.769073 C 4.650544,12.083115 3.5398723,10.41107 3.5398723,8.4665 c 0,-0.090511 0.00235,-0.1801615 0.00717,-0.2694249 z"/>
</svg>
