<?xml version='1.0' encoding='UTF-8'?>
<svg xmlns:inkscape="http://www.inkscape.org/namespaces/inkscape" xmlns:sodipodi="http://sodipodi.sourceforge.net/DTD/sodipodi-0.dtd" xmlns="http://www.w3.org/2000/svg" xmlns:svg="http://www.w3.org/2000/svg" xmlns:rdf="http://www.w3.org/1999/02/22-rdf-syntax-ns#" xmlns:cc="http://creativecommons.org/ns#" xmlns:dc="http://purl.org/dc/elements/1.1/" width="64" height="64" version="1.1" viewBox="0 0 16.933 16.933" id="svg7" sodipodi:docname="preferences-web-browser-shortcuts.svg" inkscape:version="1.4.2 (ebf0e940d0, 2025-05-08)">
  <sodipodi:namedview id="namedview7" pagecolor="#9c4444" bordercolor="#000000" borderopacity="0.25" inkscape:showpageshadow="2" inkscape:pageopacity="0.0" inkscape:pagecheckerboard="0" inkscape:deskcolor="#d1d1d1" inkscape:zoom="4.3531261" inkscape:cx="36.410615" inkscape:cy="40.200995" inkscape:window-width="1543" inkscape:window-height="1372" inkscape:window-x="0" inkscape:window-y="0" inkscape:window-maximized="0" inkscape:current-layer="svg7" showgrid="false"/>
  <defs id="defs2">
    <style id="current-color-scheme" type="text/css">.ColorScheme-Text {color:#d8dee9} .ColorScheme-Highlight {color:#3b4252}</style>
  </defs>
  <metadata id="metadata2">
    <rdf:RDF>
      <cc:Work rdf:about="">
        <dc:format>image/svg+xml</dc:format>
        <dc:type rdf:resource="http://purl.org/dc/dcmitype/StillImage"/>
      </cc:Work>
    </rdf:RDF>
  </metadata>
  <path id="rect6" class="ColorScheme-Text" style="baseline-shift:baseline;display:inline;overflow:visible;vector-effect:none;fill:currentColor;stroke-width:0.364936;enable-background:accumulate;stop-color:#000000" d="m 8.4664997,3.1749377 c -2.9283698,0 -5.291563,2.3631932 -5.291563,5.291563 0,2.9283703 2.3631932,5.2915613 5.291563,5.2915613 2.9283693,0 5.2915633,-2.363191 5.2915633,-5.2915613 0,-2.9283698 -2.363194,-5.291563 -5.2915633,-5.291563 z m 0.3649356,0.3777652 c 1.3116187,0.09488 2.4765237,0.6971828 3.3008117,1.6129857 v 7.118e-4 l -0.01639,0.016397 v 0.3649349 h 0.326445 c 0.05707,0.077835 0.112138,0.156814 0.164651,0.2380636 l -0.126166,0.1261659 -0.72987,0.7298704 -0.364935,0.3649349 -0.364936,1.0948074 v 0.3649348 l 0.364936,0.3649355 0.364935,0.3649349 0.72987,0.3649359 0.833222,-0.2052761 C 12.91435,11.57126 11.046453,13.258723 8.7444756,13.385296 l 0.086249,-0.173914 V 12.846446 L 9.560595,12.481512 9.9255312,12.116576 v -0.72988 L 10.290461,11.02176 V 10.656825 L 9.9255291,10.29189 9.0452641,9.9982302 8.3859577,11.349632 8.139341,11.289764 V 9.2355766 L 8.1008624,9.1970908 H 7.7359204 L 7.5420484,9.0032138 H 6.879173 L 7.0195885,8.7152563 6.2761746,8.4672133 5.5463042,8.8321502 H 4.8164331 V 8.1022777 H 4.4514983 V 7.3724073 L 4.0872745,7.3716941 3.7223397,7.7366289 H 3.5926155 C 3.6519775,7.3323645 3.7599853,6.9445215 3.9105079,6.5791009 L 4.8171449,6.2768881 5.1820805,6.6418237 5.5470153,7.0067585 V 6.2768881 L 6.2768857,5.9119533 V 5.5470177 L 7.0067575,5.1820822 7.7366293,4.4522118 V 4.8171466 L 8.1015649,4.4522118 7.7366293,4.0872762 H 8.4664997 V 4.4522118 L 9.1963708,4.0872762 8.8314353,3.7223407 Z M 8.6489679,5.9119533 7.1892257,8.8314363 H 8.2840323 V 11.021049 L 9.7437735,8.1015659 H 8.6489679 Z m -5.1019676,2.2851232 0.5395624,0.270136 0.3649356,0.364937 0.7298704,0.3649349 0.3649355,0.3649359 -0.3649355,0.3649348 v 0.7298709 l 0.3649355,0.72987 0.7298704,0.729872 V 12.88564 C 4.650544,12.083116 3.5398723,10.41107 3.5398723,8.4665007 c 0,-0.09051 0.00235,-0.1801608 0.00717,-0.2694242 z"/>
</svg>
