<?xml version='1.0' encoding='UTF-8'?>
<svg xmlns:inkscape="http://www.inkscape.org/namespaces/inkscape" xmlns:sodipodi="http://sodipodi.sourceforge.net/DTD/sodipodi-0.dtd" xmlns="http://www.w3.org/2000/svg" xmlns:svg="http://www.w3.org/2000/svg" xmlns:rdf="http://www.w3.org/1999/02/22-rdf-syntax-ns#" xmlns:cc="http://creativecommons.org/ns#" xmlns:dc="http://purl.org/dc/elements/1.1/" width="64" height="64" version="1.1" viewBox="0 0 16.933 16.933" id="svg7" sodipodi:docname="preferences-system-network-vpn.svg" inkscape:version="1.4.2 (ebf0e940d0, 2025-05-08)">
  <sodipodi:namedview id="namedview7" pagecolor="#9c4444" bordercolor="#000000" borderopacity="0.25" inkscape:showpageshadow="2" inkscape:pageopacity="0.0" inkscape:pagecheckerboard="0" inkscape:deskcolor="#d1d1d1" inkscape:zoom="4.3531261" inkscape:cx="36.410615" inkscape:cy="40.200995" inkscape:window-width="1543" inkscape:window-height="1372" inkscape:window-x="0" inkscape:window-y="0" inkscape:window-maximized="0" inkscape:current-layer="svg7" showgrid="false"/>
  <defs id="defs2">
    <style id="current-color-scheme" type="text/css">.ColorScheme-Text {color:#d8dee9} .ColorScheme-Highlight {color:#3b4252}</style>
  </defs>
  <metadata id="metadata2">
    <rdf:RDF>
      <cc:Work rdf:about="">
        <dc:format>image/svg+xml</dc:format>
        <dc:type rdf:resource="http://purl.org/dc/dcmitype/StillImage"/>
      </cc:Work>
    </rdf:RDF>
  </metadata>
  <path id="rect6" class="ColorScheme-Text" style="baseline-shift:baseline;display:inline;overflow:visible;vector-effect:none;fill:currentColor;stroke-width:0.364935;enable-background:accumulate;stop-color:#000000" d="m 8.4665001,3.1749373 c -2.9283699,0 -5.2915631,2.363193 -5.2915631,5.2915629 0,2.9283688 2.3631932,5.2915628 5.2915631,5.2915628 2.9283699,0 5.2915629,-2.363194 5.2915629,-5.2915628 0,-2.9283699 -2.363193,-5.2915629 -5.2915629,-5.2915629 z m 0.3649348,0.3777651 c 1.3115591,0.094834 2.4765041,0.6972928 3.3008111,1.6129863 l -0.01638,0.016397 v 0.3649347 h 0.326446 c 0.05713,0.077876 0.112097,0.1574745 0.164649,0.2387768 l -0.126166,0.1261519 -0.72987,0.7298704 -0.364936,0.3649369 -0.235925,0.7070621 v 7.132e-4 7.133e-4 c -0.02993,0.1689667 -0.07163,0.3594037 -0.129009,0.5630497 v 0.1881697 l 0.364935,0.3649349 0.364936,0.3649348 0.72987,0.3649354 0.833222,-0.2052756 c -0.399604,2.2155601 -2.26716,3.9029711 -4.5695328,4.0292571 l 0.086952,-0.174626 V 12.845688 L 9.5613075,12.480753 9.926243,12.115817 v -0.72987 l 0.364936,-0.364935 v -0.364936 l -0.364936,-0.364935 -0.01639,-0.0056 c -0.3521224,0.365417 -0.7981478,0.69043 -1.3635184,0.926594 l -0.079834,0.0335 -0.079835,-0.0335 C 7.0079603,10.636392 6.3378692,9.5335801 6.0124472,8.5983954 L 5.5470128,8.8314685 H 4.8171424 V 8.1016131 H 4.4522075 V 7.3717427 H 4.0872705 L 3.7223357,7.7366775 H 3.5926115 C 3.6519736,7.332391 3.7599713,6.9445851 3.910504,6.5791481 L 4.8171409,6.2769353 5.1820765,6.6418709 5.5470113,7.0068071 V 6.2768875 L 6.2768817,5.911952 V 5.5470171 L 7.0067578,5.1820816 7.7366297,4.4522112 V 4.8171467 L 8.1015645,4.4522112 7.7366297,4.0872756 H 8.4665001 V 4.4522112 L 9.1963705,4.0872756 8.8314349,3.7223403 Z M 8.4665001,5.911952 c 0,0 -0.6386378,0.8478363 -2.5545475,1.0605931 0,0 0,2.9817961 2.5545475,4.0485019 C 11.021047,9.9539754 11.021047,6.9725451 11.021047,6.9725451 9.1051371,6.7597883 8.4665001,5.911952 8.4665001,5.911952 Z m 0,0.4397753 C 8.9730293,6.7812571 9.7048105,7.0675207 10.652548,7.2120351 10.601459,7.6733122 10.551265,8.0202808 10.432304,8.356021 10.181228,9.061442 9.8892514,9.4909989 9.6275935,9.7993688 9.2206901,10.277799 8.8518711,10.470553 8.4665001,10.663239 8.0811277,10.470919 7.7123093,10.277799 7.3054059,9.7993688 7.043748,9.4909989 6.7517715,9.061442 6.5006957,8.356021 6.3817299,8.0202808 6.331908,7.6736781 6.2804514,7.2120351 7.2285534,7.0675207 7.9599687,6.7812571 8.4665001,6.3517273 Z m 0,0.3827542 C 7.909609,7.1213139 7.2837673,7.3172613 6.6560776,7.4500987 6.9534996,9.1368295 7.5943042,9.8579177 8.4665001,10.309708 9.338696,9.8579177 9.9794984,9.1368295 10.276922,7.4500987 9.6492321,7.317257 9.0233911,7.1213139 8.4665001,6.7344815 Z M 3.5470006,8.196362 4.0872748,8.4665002 4.4522118,8.831435 5.1820822,9.1963698 5.547017,9.5613052 5.1820822,9.9262415 v 0.7298705 l 0.3649348,0.72987 0.7298704,0.729871 v 0.769786 C 4.6511455,12.083153 3.5398718,10.411149 3.5398718,8.4665002 c 0,-0.090607 0.00235,-0.1807785 0.00718,-0.2701382 z"/>
</svg>
