<?xml version='1.0' encoding='UTF-8'?>
<svg xmlns:inkscape="http://www.inkscape.org/namespaces/inkscape" xmlns:sodipodi="http://sodipodi.sourceforge.net/DTD/sodipodi-0.dtd" xmlns="http://www.w3.org/2000/svg" xmlns:svg="http://www.w3.org/2000/svg" xmlns:rdf="http://www.w3.org/1999/02/22-rdf-syntax-ns#" xmlns:cc="http://creativecommons.org/ns#" xmlns:dc="http://purl.org/dc/elements/1.1/" width="64" height="64" version="1.1" viewBox="0 0 16.933 16.933" id="svg7" sodipodi:docname="preferences-system-backup.svg" inkscape:version="1.4.2 (ebf0e940d0, 2025-05-08)">
  <sodipodi:namedview id="namedview7" pagecolor="#9c4444" bordercolor="#000000" borderopacity="0.25" inkscape:showpageshadow="2" inkscape:pageopacity="0.0" inkscape:pagecheckerboard="0" inkscape:deskcolor="#d1d1d1" inkscape:zoom="4.3531261" inkscape:cx="36.410615" inkscape:cy="40.200995" inkscape:window-width="1543" inkscape:window-height="1372" inkscape:window-x="0" inkscape:window-y="0" inkscape:window-maximized="0" inkscape:current-layer="svg7" showgrid="false"/>
  <defs id="defs2">
    <style id="current-color-scheme" type="text/css">.ColorScheme-Text {color:#d8dee9} .ColorScheme-Highlight {color:#3b4252}</style>
  </defs>
  <metadata id="metadata2">
    <rdf:RDF>
      <cc:Work rdf:about="">
        <dc:format>image/svg+xml</dc:format>
        <dc:type rdf:resource="http://purl.org/dc/dcmitype/StillImage"/>
      </cc:Work>
    </rdf:RDF>
  </metadata>
  <path id="path8" class="ColorScheme-Text" style="fill:currentColor;fill-opacity:1;stroke-width:0.377968" d="M 3.930875,3.1749373 V 13.758063 h 1.1339073 v -1.133908 h 6.8034367 v 1.133908 h 1.133906 V 3.1749373 Z m 2.6457815,0.7559376 h 3.7796885 a 1.8898437,1.8898437 0 0 1 1.889843,1.8898436 v 1.8027334 a 1.1339062,1.1339062 0 0 0 -0.374277,0.7655347 0.75593748,0.75593748 0 0 0 -0.0037,0.077513 0.75593748,0.75593748 0 0 0 0.0014,0.043557 1.1339062,1.1339062 0 0 0 0.376493,0.800231 v 1.4240274 l -1.133818,1.133906 H 5.8207226 L 4.6868175,10.734314 V 9.30955 a 1.1339062,1.1339062 0 0 0 0.3742767,-0.7655347 1.1339062,1.1339062 0 0 0 0,-0.00221 0.75593748,0.75593748 0 0 0 0.00371,-0.075283 0.75593748,0.75593748 0 0 0 -0.00143,-0.043557 1.1339062,1.1339062 0 0 0 -0.376489,-0.8002316 V 5.8207185 A 1.8898437,1.8898437 0 0 1 6.5767279,3.9308748 Z m 1.8898441,0.7559373 c -1.6751573,0 -3.0237499,1.3485926 -3.0237499,3.0237498 0,1.6751573 1.3485926,3.02375 3.0237499,3.02375 1.6751574,0 3.0237494,-1.3485926 3.0237494,-3.0237499 0,-1.6751572 -1.348592,-3.0237498 -3.0237494,-3.0237499 z m 0,0.3779688 c 1.4657626,0 2.6457814,1.1800183 2.6457814,2.645781 0,1.4657626 -1.1800188,2.645781 -2.6457814,2.645781 -1.4657626,0 -2.6457815,-1.1800184 -2.6457815,-2.645781 0,-1.4657627 1.1800189,-2.645781 2.6457815,-2.645781 z M 8.0885322,5.4427497 V 8.0885311 H 10.356345 V 7.710562 H 8.4665006 V 5.4427497 Z M 5.8207191,13.002124 v 0.377969 h 3.401719 v -0.377969 z m 3.7796874,0 v 0.377969 h 1.5118755 v -0.377969 z"/>
</svg>
