<?xml version='1.0' encoding='UTF-8'?>
<svg xmlns:inkscape="http://www.inkscape.org/namespaces/inkscape" xmlns:sodipodi="http://sodipodi.sourceforge.net/DTD/sodipodi-0.dtd" xmlns="http://www.w3.org/2000/svg" xmlns:svg="http://www.w3.org/2000/svg" xmlns:rdf="http://www.w3.org/1999/02/22-rdf-syntax-ns#" xmlns:cc="http://creativecommons.org/ns#" xmlns:dc="http://purl.org/dc/elements/1.1/" width="64" height="64" version="1.1" viewBox="0 0 16.933 16.933" id="svg7" sodipodi:docname="preferences-system-network-proxy.svg" inkscape:version="1.4.2 (ebf0e940d0, 2025-05-08)">
  <sodipodi:namedview id="namedview7" pagecolor="#9c4444" bordercolor="#000000" borderopacity="0.25" inkscape:showpageshadow="2" inkscape:pageopacity="0.0" inkscape:pagecheckerboard="0" inkscape:deskcolor="#d1d1d1" inkscape:zoom="6.15625" inkscape:cx="15.756345" inkscape:cy="29.64467" inkscape:window-width="1226" inkscape:window-height="669" inkscape:window-x="0" inkscape:window-y="0" inkscape:window-maximized="0" inkscape:current-layer="svg7" showgrid="false"/>
  <defs id="defs2">
    <style id="current-color-scheme" type="text/css">.ColorScheme-Text {color:#d8dee9} .ColorScheme-Highlight {color:#3b4252}</style>
  </defs>
  <metadata id="metadata2">
    <rdf:RDF>
      <cc:Work rdf:about="">
        <dc:format>image/svg+xml</dc:format>
        <dc:type rdf:resource="http://purl.org/dc/dcmitype/StillImage"/>
      </cc:Work>
    </rdf:RDF>
  </metadata>
  <path d="m 6.0976684,3.7464087 c -0.2433732,0 -0.4393234,0.1959503 -0.4393234,0.4393235 v 0.8927052 c 0,0.2433736 0.1959502,0.4393235 0.4393234,0.4393235 h 4.7376656 c 0.243371,0 0.439322,-0.1959499 0.439322,-0.4393235 V 4.1857322 c 0,-0.2433732 -0.195951,-0.4393235 -0.439322,-0.4393235 z m 0.400663,0.5307027 c 0.0096,-0.00189 0.017962,0 0.028116,0 h 1.0754638 c 0.081226,0 0.1476126,0.062874 0.1476126,0.1440982 v 0.4182359 c 0,0.081226 -0.066386,0.1476125 -0.1476126,0.1476125 H 6.5264477 c -0.081226,0 -0.1476126,-0.066386 -0.1476126,-0.1476125 V 4.4212096 c 0,-0.071072 0.052374,-0.1309535 0.1194963,-0.1440982 z m -0.400663,2.0244024 c -0.2433732,0 -0.4393234,0.1959502 -0.4393234,0.4393234 v 0.8927053 c 0,0.2433736 0.1959502,0.4393234 0.4393234,0.4393234 h 4.7376656 c 0.243371,0 0.439322,-0.1959498 0.439322,-0.4393234 V 6.7408372 c 0,-0.2433732 -0.195951,-0.4393234 -0.439322,-0.4393234 z m 0.400663,0.5307027 c 0.0096,-0.00189 0.017962,0 0.028116,0 h 1.0754638 c 0.081226,0 0.1476126,0.062874 0.1476126,0.1440981 v 0.4182359 c 0,0.081226 -0.066386,0.1476127 -0.1476126,0.1476127 H 6.5264477 c -0.081226,0 -0.1476126,-0.066386 -0.1476126,-0.1476127 V 6.9763146 c 0,-0.071073 0.052374,-0.1309533 0.1194963,-0.1440981 z M 4.0873246,7.4050944 1.8520468,8.4664997 4.0873246,9.5279053 V 8.9726002 H 4.969486 c 0.128221,0 0.2319627,-0.1037412 0.2319627,-0.2319627 V 8.1923621 c 0,-0.1282212 -0.1037412,-0.231963 -0.2319627,-0.231963 H 4.0873246 Z m 8.7583534,0 v 0.5553047 h -0.878649 c -0.128218,0 -0.231961,0.1037412 -0.231961,0.231963 v 0.5482754 c 0,0.128221 0.10375,0.2319627 0.231961,0.2319627 h 0.878649 V 9.5279053 L 15.080953,8.4664997 Z M 6.0976684,8.8601336 c -0.2433732,0 -0.4393234,0.1959497 -0.4393234,0.4393227 v 0.8927057 c 0,0.243374 0.1959502,0.439323 0.4393234,0.439323 h 4.7376656 c 0.243371,0 0.439322,-0.195949 0.439322,-0.439323 V 9.2994563 c 0,-0.243373 -0.195951,-0.4393227 -0.439322,-0.4393227 z m 0.400663,0.5307027 c 0.0096,-0.0019 0.017962,0 0.028116,0 h 1.0754638 c 0.081226,0 0.1476126,0.06287 0.1476126,0.144098 v 0.418236 c 0,0.08123 -0.066386,0.1476117 -0.1476126,0.1476117 H 6.5264477 c -0.081226,0 -0.1476126,-0.06639 -0.1476126,-0.1476117 v -0.418236 c 0,-0.07107 0.052374,-0.130953 0.1194963,-0.144098 z m -0.400663,2.0244017 c -0.2433732,0 -0.4393234,0.19595 -0.4393234,0.439323 v 0.892706 c 0,0.243373 0.1959502,0.439324 0.4393234,0.439324 h 4.7376656 c 0.243371,0 0.439322,-0.195951 0.439322,-0.439324 v -0.892706 c 0,-0.243373 -0.195951,-0.439323 -0.439322,-0.439323 z m 0.400663,0.530705 c 0.0096,-0.0019 0.017962,0 0.028116,0 h 1.0754638 c 0.081226,0 0.1476126,0.06286 0.1476126,0.144095 v 0.418238 c 0,0.08124 -0.066386,0.147612 -0.1476126,0.147612 H 6.5264477 c -0.081226,0 -0.1476126,-0.06638 -0.1476126,-0.147612 v -0.418238 c 0,-0.07108 0.052374,-0.130952 0.1194963,-0.144095 z" id="path2" style="fill:currentColor;fill-opacity:1;stroke-width:0.112466" class="ColorScheme-Text"/>
</svg>
