<?xml version='1.0' encoding='UTF-8'?>
<svg xmlns:inkscape="http://www.inkscape.org/namespaces/inkscape" xmlns:sodipodi="http://sodipodi.sourceforge.net/DTD/sodipodi-0.dtd" xmlns="http://www.w3.org/2000/svg" xmlns:svg="http://www.w3.org/2000/svg" xmlns:rdf="http://www.w3.org/1999/02/22-rdf-syntax-ns#" xmlns:cc="http://creativecommons.org/ns#" xmlns:dc="http://purl.org/dc/elements/1.1/" width="64" height="64" version="1.1" viewBox="0 0 16.933 16.933" id="svg7" sodipodi:docname="preferences-system-windows-behavior.svg" inkscape:version="1.4.2 (ebf0e940d0, 2025-05-08)">
  <sodipodi:namedview id="namedview7" pagecolor="#a9abb3" bordercolor="#000000" borderopacity="0.25" inkscape:showpageshadow="2" inkscape:pageopacity="0.0" inkscape:pagecheckerboard="0" inkscape:deskcolor="#d1d1d1" inkscape:zoom="4.3531261" inkscape:cx="36.066035" inkscape:cy="26.647517" inkscape:window-width="2560" inkscape:window-height="1376" inkscape:window-x="0" inkscape:window-y="0" inkscape:window-maximized="1" inkscape:current-layer="svg7" showgrid="false"/>
  <defs id="defs2">
    <style id="current-color-scheme" type="text/css">.ColorScheme-Text {color:#d8dee9} .ColorScheme-Highlight {color:#3b4252}</style>
  </defs>
  <metadata id="metadata2">
    <rdf:RDF>
      <cc:Work rdf:about="">
        <dc:format>image/svg+xml</dc:format>
        <dc:type rdf:resource="http://purl.org/dc/dcmitype/StillImage"/>
      </cc:Work>
    </rdf:RDF>
  </metadata>
  <path id="path24-7" style="fill:currentColor;stroke-width:0.662257" class="ColorScheme-Text" inkscape:label="path24" d="M 9.3306088,3.1749376 7.5891277,3.4365816 V 3.9727312 A 4.6235311,4.6348345 0 0 0 6.1981129,4.4775317 L 5.768872,3.9646929 4.4421633,5.0952689 4.8633663,5.5992657 A 4.6235311,4.6348345 0 0 0 4.4433691,6.2093664 C 4.3165243,6.4297286 4.2166044,6.6572068 4.1294764,6.8877928 L 3.4655194,6.7700329 3.1749375,8.4898104 3.8324638,8.6063649 c 0.00937,0.4960009 0.095886,0.9855435 0.2584289,1.4517031 L 3.5004856,10.4013 4.3802688,11.907261 4.964246,11.569254 c 0.3151965,0.3643 0.6907383,0.685916 1.1253509,0.945696 l -0.2339123,0.647479 1.6406014,0.585183 0.2310992,-0.637029 c 0.4904316,0.07887 0.9857275,0.0815 1.4677793,0.004 l 0.2339123,0.643479 1.6329652,-0.606082 -0.229893,-0.633412 c 0.418137,-0.248907 0.799645,-0.565792 1.127762,-0.946501 l 0.590408,0.340418 0.861697,-1.51641 -0.581565,-0.336802 C 12.994807,9.5844589 13.077456,9.0947213 13.083655,8.6075704 L 13.758062,8.488605 13.444169,6.7712383 12.781417,6.8877928 C 12.607792,6.4297034 12.358122,6.0004952 12.045116,5.6133327 l 0.4417,-0.5269058 -1.342382,-1.1136957 -0.42884,0.5128382 A 4.6169166,4.6282038 0 0 0 9.3306088,3.9763482 Z M 8.4560504,4.5542962 A 3.9686962,3.9783987 0 0 1 12.424923,8.5324131 3.9686962,3.9783987 0 0 1 8.4560504,12.510931 3.9686962,3.9783987 0 0 1 4.4875791,8.5324131 3.9686962,3.9783987 0 0 1 8.4560504,4.5542962 Z M 8.6156092,5.2218708 A 3.291372,3.2994187 0 0 0 8.2233439,5.2262922 3.2999709,3.3080385 0 0 0 5.5896199,6.8721179 3.3158457,3.3239521 0 0 0 6.804195,11.403667 3.3085697,3.3166584 0 0 0 11.321677,10.192708 3.3138613,3.3219629 0 0 0 10.107503,5.6627676 3.291372,3.2994187 0 0 0 8.6156092,5.2218708 Z M 8.4564519,5.8802017 A 2.6457975,2.6522658 0 0 1 11.102233,8.5324131 2.6457975,2.6522658 0 0 1 8.4564519,11.184625 2.6457975,2.6522658 0 0 1 5.810671,8.5324131 2.6457975,2.6522658 0 0 1 8.4564519,5.8802017 Z"/>
</svg>
