<?xml version="1.0" encoding="UTF-8" standalone="no"?>
<svg
   width="64"
   height="64"
   version="1.1"
   viewBox="0 0 16.933 16.933"
   id="svg7"
   sodipodi:docname="preferences-system-bluetooth-inactive-symbolic.svg"
   inkscape:version="1.4.2 (ebf0e940d0, 2025-05-08)"
   xmlns:inkscape="http://www.inkscape.org/namespaces/inkscape"
   xmlns:sodipodi="http://sodipodi.sourceforge.net/DTD/sodipodi-0.dtd"
   xmlns="http://www.w3.org/2000/svg"
   xmlns:svg="http://www.w3.org/2000/svg"
   xmlns:rdf="http://www.w3.org/1999/02/22-rdf-syntax-ns#"
   xmlns:cc="http://creativecommons.org/ns#"
   xmlns:dc="http://purl.org/dc/elements/1.1/">
  <sodipodi:namedview
     id="namedview7"
     pagecolor="#9c4444"
     bordercolor="#000000"
     borderopacity="0.25"
     inkscape:showpageshadow="2"
     inkscape:pageopacity="0.0"
     inkscape:pagecheckerboard="0"
     inkscape:deskcolor="#d1d1d1"
     inkscape:zoom="4.3531262"
     inkscape:cx="89.935366"
     inkscape:cy="34.457995"
     inkscape:window-width="2560"
     inkscape:window-height="1388"
     inkscape:window-x="0"
     inkscape:window-y="0"
     inkscape:window-maximized="1"
     inkscape:current-layer="svg7"
     showgrid="false" />
  <defs
     id="defs2">
    <style
       id="current-color-scheme"
       type="text/css">.ColorScheme-Text {color:#d8dee9} .ColorScheme-Highlight {color:#3b4252}</style>
  </defs>
  <metadata
     id="metadata2">
    <rdf:RDF>
      <cc:Work
         rdf:about="">
        <dc:format>image/svg+xml</dc:format>
        <dc:type
           rdf:resource="http://purl.org/dc/dcmitype/StillImage" />
      </cc:Work>
    </rdf:RDF>
  </metadata>
  <path
     style="opacity:0.35;fill:currentColor;stroke-width:0.661431"
     class="ColorScheme-Text"
     d="m 7.7559815,3.1768852 c -0.0825,0.00605 -0.163121,0.026802 -0.237695,0.062576 -0.228845,0.1101352 -0.374439,0.3415722 -0.374639,0.5955463 v 1.3422402 l 1.322861,1.0309024 V 5.212128 L 10.043867,6.4742729 9.4250685,6.9561361 10.501185,7.7945513 11.517878,7.0026426 c 0.33768,-0.2623341 0.34148,-0.771308 0.0077,-1.0386533 L 8.2184715,3.3182649 C 8.0877745,3.2141946 7.9225605,3.1641532 7.7559865,3.1768829 Z m -3.104336,1.4009422 -0.81516,1.0425292 3.307154,2.5798394 v 0.5296614 l -2.389936,1.8589836 c -0.288026,0.224156 -0.340055,0.639244 -0.116273,0.927554 0.224146,0.288025 0.639244,0.340056 0.927555,0.116267 l 1.578649,-1.227264 v 2.689647 c -2.3e-4,0.554854 0.641621,0.863437 1.074827,0.516744 l 2.8976365,-2.317593 1.165254,0.908176 0.815162,-1.042529 z m 3.909161,4.7243233 1.4817605,1.1549213 -1.5760655,1.260853 V 9.3757866 Z"
     id="path5" />
</svg>
