<?xml version='1.0' encoding='UTF-8'?>
<!-- Created with Inkscape (http://www.inkscape.org/) -->
<svg xmlns="http://www.w3.org/2000/svg" xmlns:xlink="http://www.w3.org/1999/xlink" xmlns:inkscape="http://www.inkscape.org/namespaces/inkscape" width="32" version="1.1" height="32">
 <defs id="defs5455">
  <style id="current-color-scheme" type="text/css">.ColorScheme-Text {color:#d8dee9} .ColorScheme-Highlight {color:#3b4252}</style></defs>
 <metadata id="metadata5458"/>
 <g inkscape:label="Capa 1" inkscape:groupmode="layer" id="layer1" transform="matrix(1 0 0 1 -384.57143 -515.798)" style="">
  <rect width="32" x="384.57144" y="517.79797" rx="0" height="28" style="fill:currentColor" id="rect4641-5" class="ColorScheme-Text"/>
  <path inkscape:connector-curvature="0" style="fill:currentColor;opacity:0.2;fill-rule:evenodd" id="path4167" d="m 385.57142,543.79803 30,-20 1.00001,1 -1e-5,20.99997 -29,3e-5 z" class="ColorScheme-Text"/>
  <rect width="32.00001" x="384.57141" y="517.79797" height="4" style="fill:#566069" id="rect4647-8"/>
  <rect width="31.999968" x="384.57141" y="521.79797" height="1" style="fill:#3daee9" id="rect4649-8"/>
  <rect width="30" x="385.57141" y="523.79797" height="20.00003" style="fill:#ffffff" id="rect4653-5"/>
  <path inkscape:connector-curvature="0" style="fill:currentColor;opacity:0.2;fill-rule:evenodd" id="path4182" d="m 393.57143,540.79797 14,-14 9.00003,9.00003 0,10 -17.00003,0 -1,0 z" class="ColorScheme-Text"/>
  <rect width="2" x="413.57141" y="518.79797" rx="1" height="2" style="fill:#eff0f1" id="rect4661-1"/>
  <rect width="14.00001" x="393.57144" y="526.79797" height="3.00003" style="fill:#566069;stroke-width:3.779527" id="rect4172"/>
  <rect width="13.999989" x="393.57144" y="529.79797" height="1" style="fill:#3daee9;stroke-width:3.779527" id="rect4174"/>
  <rect width="13.999989" x="393.57144" y="530.79797" height="9.999973" style="fill:#c6cdd1;stroke-width:3.779527" id="rect4176"/>
  <rect width="12" x="394.57144" y="531.79797" height="8" style="fill:#ffffff;stroke-width:3.779527" id="rect4178"/>
  <path inkscape:connector-curvature="0" style="fill:#3daee9;fill-rule:evenodd" id="path4180" d="m 399.57143,532.798 0,6 3,-3 z"/>
 </g>
</svg>
