<?xml version='1.0' encoding='UTF-8'?>
<!-- Created with Inkscape (http://www.inkscape.org/) -->
<svg xmlns="http://www.w3.org/2000/svg" xmlns:xlink="http://www.w3.org/1999/xlink" xmlns:inkscape="http://www.inkscape.org/namespaces/inkscape" width="32" version="1.1" height="32">
 <defs id="defs5455">
  <style id="current-color-scheme" type="text/css">.ColorScheme-Text {color:#d8dee9} .ColorScheme-Highlight {color:#3b4252}</style></defs>
 <metadata id="metadata5458"/>
 <g inkscape:label="Capa 1" inkscape:groupmode="layer" id="layer1" transform="matrix(1 0 0 1 -384.57143 -515.798)" style="">
  <rect width="32" x="384.57144" y="517.79797" rx="0" height="28" style="fill:currentColor" id="rect4641-5" class="ColorScheme-Highlight"/>
  <path inkscape:connector-curvature="0" style="fill:currentColor;opacity:0.2;fill-rule:evenodd" id="path4167" d="m 385.57143,543.798 30,-20 1.00001,1 -10e-6,20.99997 -29,3e-5 z" class="ColorScheme-Text"/>
  <rect width="32.00001" x="384.57141" y="517.79797" height="4" style="fill:#566069" id="rect4647-8"/>
  <rect width="31.999968" x="384.57141" y="521.79797" height="1" style="fill:#3daee9" id="rect4649-8"/>
  <rect width="30" x="385.57141" y="523.79797" height="20.00003" style="fill:#ffffff" id="rect4653-5"/>
  <rect width="2" x="413.57141" y="518.79797" rx="1" height="2" style="fill:#eff0f1" id="rect4661-1"/>
  <path style="fill:currentColor;stroke-width:2" id="rect3814" d="M 2 9 L 2 10 L 29 10 L 29 9 L 2 9 z M 2 12 L 2 13 L 24 13 L 24 12 L 2 12 z M 2 15 L 2 16 L 11 16 L 11 15 L 2 15 z M 18 15 L 18 27 L 30 27 L 30 15 L 18 15 z M 19 16 L 29 16 L 29 25 L 29 26 L 19 26 L 19 25 L 19 16 z M 19 25 L 21 25 L 23 23 L 22 22 L 19 25 z M 29 25 L 26 22 L 23 25 L 29 25 z M 21.5 17 C 20.669 17 20 17.669 20 18.5 C 20 19.331 20.669 20 21.5 20 C 22.331 20 23 19.331 23 18.5 C 23 17.669 22.331 17 21.5 17 z M 2 18 L 2 19 L 16 19 L 16 18 L 2 18 z M 2 21 L 2 22 L 13 22 L 13 21 L 2 21 z M 2 24 L 2 25 L 16 25 L 16 24 L 2 24 z " transform="matrix(1 0 0 1 384.57143 515.798)" class="ColorScheme-Text"/>
  <path inkscape:connector-curvature="0" style="fill:currentColor;opacity:0.2;fill-rule:evenodd" id="path4165" d="M 25.099609,15.181641 24,15.681641 24,16 22,16 c 0,0 -1,1 -2,1 -1,0 -1,2 -1,2 l 0,3 1,3 0.283203,-0.494141 0.117188,1.175782 L 25,30 l 7,0 0,-9 -3.599609,-4.019531 0.507812,1.529297 z" transform="matrix(1 0 0 1 384.57143 515.798)" class="ColorScheme-Text"/>
  <path style="fill:#da4453;stroke-width:2" id="path3806" d="M 24 15 C 20.68629 15 18 17.68629 18 21 C 18 24.31371 20.68629 27 24 27 C 27.31371 27 30 24.31371 30 21 C 30 17.68629 27.31371 15 24 15 z M 24 16 C 26.76142 16 29 18.23858 29 21 C 29 22.205108 28.555786 23.294852 27.845703 24.158203 L 20.841797 17.154297 C 21.705148 16.444214 22.794892 16 24 16 z M 20.154297 17.841797 L 27.158203 24.845703 C 26.294852 25.555786 25.205108 26 24 26 C 21.23858 26 19 23.76142 19 21 C 19 19.794892 19.444214 18.705148 20.154297 17.841797 z " transform="matrix(1 0 0 1 384.57143 515.798)"/>
  <path style="fill:#da4453;stroke-width:2" id="path4164" d="M 24 15 C 20.68629 15 18 17.68629 18 21 C 18 24.31371 20.68629 27 24 27 C 27.31371 27 30 24.31371 30 21 C 30 17.68629 27.31371 15 24 15 z M 24 16 C 26.76142 16 29 18.23858 29 21 C 29 22.205108 28.555786 23.294852 27.845703 24.158203 L 20.841797 17.154297 C 21.705148 16.444214 22.794892 16 24 16 z M 20.154297 17.841797 L 27.158203 24.845703 C 26.294852 25.555786 25.205108 26 24 26 C 21.23858 26 19 23.76142 19 21 C 19 19.794892 19.444214 18.705148 20.154297 17.841797 z " transform="matrix(1 0 0 1 384.57143 515.798)"/>
 </g>
</svg>
