<?xml version='1.0' encoding='UTF-8'?>
<svg xmlns:inkscape="http://www.inkscape.org/namespaces/inkscape" xmlns:sodipodi="http://sodipodi.sourceforge.net/DTD/sodipodi-0.dtd" xmlns="http://www.w3.org/2000/svg" xmlns:svg="http://www.w3.org/2000/svg" xmlns:rdf="http://www.w3.org/1999/02/22-rdf-syntax-ns#" xmlns:cc="http://creativecommons.org/ns#" xmlns:dc="http://purl.org/dc/elements/1.1/" width="64" height="64" version="1.1" viewBox="0 0 16.933 16.933" id="svg7" sodipodi:docname="preferences-desktop-display-randr.svg" inkscape:version="1.4.2 (ebf0e940d0, 2025-05-08)">
  <sodipodi:namedview id="namedview7" pagecolor="#9c4444" bordercolor="#000000" borderopacity="0.25" inkscape:showpageshadow="2" inkscape:pageopacity="0.0" inkscape:pagecheckerboard="0" inkscape:deskcolor="#d1d1d1" inkscape:zoom="6.15625" inkscape:cx="15.756345" inkscape:cy="27.208122" inkscape:window-width="1226" inkscape:window-height="669" inkscape:window-x="0" inkscape:window-y="0" inkscape:window-maximized="0" inkscape:current-layer="svg7" showgrid="false"/>
  <defs id="defs2">
    <style id="current-color-scheme" type="text/css">.ColorScheme-Text {color:#d8dee9} .ColorScheme-Highlight {color:#3b4252}</style>
  </defs>
  <metadata id="metadata2">
    <rdf:RDF>
      <cc:Work rdf:about="">
        <dc:format>image/svg+xml</dc:format>
        <dc:type rdf:resource="http://purl.org/dc/dcmitype/StillImage"/>
      </cc:Work>
    </rdf:RDF>
  </metadata>
  <g id="g36" style="fill:currentColor;fill-opacity:1" transform="matrix(1.2760935,0,0,1.2760935,8.6807826,3.5341175)" class="ColorScheme-Text">
    <path style="fill:currentColor;fill-opacity:1;stroke:none;stroke-width:1;stroke-dasharray:none;stroke-opacity:0.3" class="ColorScheme-Text" d="m 18.725857,19.593181 c -1.959104,0 -1.959104,1.959102 -1.959104,1.959102 v 19.59104 c 0,1.959104 1.959104,1.959104 1.959104,1.959104 h 9.79552 c 0,0 -1.959104,0 -1.959104,1.959104 v 1.959103 h 11.754624 v -1.959103 c 0,-1.959104 -1.959103,-1.959104 -1.959103,-1.959104 h 9.795518 c 1.959108,0 1.959108,-1.959104 1.959108,-1.959104 v -19.59104 c 0,0 0,-1.959102 -1.959108,-1.959102 z m 1.959104,3.918207 H 44.194212 V 39.184219 H 20.684961 Z" id="path5" transform="matrix(0.26457812,0,0,0.26457812,-8.7507256,-4.9470587)"/>
    <path id="rect3018-5" class="ColorScheme-Text" d="m -2.5685491,2.8192237 2.13052853,2.1305286 H -2.5685491 Z" fill="currentColor" style="fill:currentColor;fill-opacity:1;stroke-width:0.426106"/>
    <path id="path3028-3" class="ColorScheme-Text" d="M 2.0393924,4.0598076 -0.09113615,1.929279 H 2.0393924 Z" fill="currentColor" style="fill:currentColor;fill-opacity:1;stroke-width:0.426106"/>
  </g>
</svg>
