<?xml version='1.0' encoding='UTF-8'?>
<svg xmlns:inkscape="http://www.inkscape.org/namespaces/inkscape" xmlns:sodipodi="http://sodipodi.sourceforge.net/DTD/sodipodi-0.dtd" xmlns="http://www.w3.org/2000/svg" xmlns:svg="http://www.w3.org/2000/svg" xmlns:rdf="http://www.w3.org/1999/02/22-rdf-syntax-ns#" xmlns:cc="http://creativecommons.org/ns#" xmlns:dc="http://purl.org/dc/elements/1.1/" width="64" height="64" version="1.1" id="svg73" sodipodi:docname="folder-steam.svg" inkscape:version="1.4.2 (ebf0e940d0, 2025-05-08)">
  <metadata id="metadata77">
    <rdf:RDF>
      <cc:Work rdf:about="">
        <dc:format>image/svg+xml</dc:format>
        <dc:type rdf:resource="http://purl.org/dc/dcmitype/StillImage"/>
      </cc:Work>
    </rdf:RDF>
  </metadata>
  <sodipodi:namedview pagecolor="#f5f7fa" bordercolor="#666666" borderopacity="1" objecttolerance="10" gridtolerance="10" guidetolerance="10" inkscape:pageopacity="0" inkscape:pageshadow="2" inkscape:window-width="1337" inkscape:window-height="758" id="namedview75" showgrid="false" inkscape:zoom="6.2890628" inkscape:cx="11.845962" inkscape:cy="22.737887" inkscape:window-x="0" inkscape:window-y="0" inkscape:window-maximized="0" inkscape:current-layer="svg73" inkscape:document-rotation="0" inkscape:pagecheckerboard="0" inkscape:showpageshadow="2" inkscape:deskcolor="#d1d1d1"/>
  <defs id="defs29">
    <style id="current-color-scheme" type="text/css">.ColorScheme-Text {color:#d8dee9} .ColorScheme-Highlight {color:#3b4252}</style>
  </defs>
  <path id="path1575" style="opacity:1;fill:currentColor;fill-opacity:1;stroke:none;stroke-width:0.65048" class="ColorScheme-Text" d="M 17.726405 13.611064 C 9.0196075 13.611064 8.6529856 13.630862 8.1525417 14.131305 C 7.5130653 14.770782 7.500716 15.258714 7.612769 35.468308 C 7.6903681 49.463863 7.7096724 49.935021 8.2235645 50.784359 C 8.5290729 51.289286 9.2058244 51.865608 9.8198003 52.144445 C 10.830666 52.603533 11.974456 52.627875 32.090752 52.629175 L 53.296363 52.63095 L 54.336846 52.048564 C 55.022608 51.66494 55.577526 51.070976 55.963266 50.306732 C 56.548459 49.147329 56.549204 49.141276 56.549204 35.336916 C 56.549204 21.5295 56.548589 21.527102 55.963266 20.377754 C 55.547291 19.560941 55.045119 19.054659 54.230312 18.630595 C 53.089227 18.036679 53.031348 18.034004 42.442314 18.034004 L 31.801334 18.034004 L 29.290681 15.823422 L 26.780028 13.611064 L 17.726405 13.611064 z M 13.42953 19.827328 L 50.696931 19.827328 C 52.853188 19.827328 54.588976 21.412244 54.588976 23.38024 L 54.588976 47.204814 C 54.588976 49.17281 52.853188 50.75595 50.696931 50.75595 L 13.42953 50.75595 C 11.273273 50.75595 9.5374849 49.17281 9.5374849 47.204814 L 9.5374849 23.38024 C 9.5374849 21.412244 11.273273 19.827328 13.42953 19.827328 z M 46.742741 33.22399 C 46.473084 33.223877 46.18424 33.33193 45.822996 33.543592 C 44.963363 34.047262 43.838813 34.28578 42.294942 34.28578 C 40.751219 34.28578 39.589435 34.042602 38.734928 33.541817 C 38.049721 33.14026 37.640946 33.134688 37.065894 33.522286 C 35.589539 34.517199 34.47682 37.707988 34.150411 41.876334 C 33.954662 44.375912 34.13727 45.692597 34.784289 46.434217 C 35.096182 46.791768 35.862164 46.730916 36.552755 46.292172 C 37.138151 45.92026 37.834137 45.100304 38.667457 43.802825 C 39.420476 42.630368 40.33215 42.243624 42.346434 42.240325 C 44.356708 42.237025 45.146101 42.61719 46.073351 44.042527 C 47.629056 46.433863 49.066905 47.267923 49.910354 46.265538 C 50.377629 45.710218 50.46338 45.172068 50.441249 42.938124 C 50.400919 38.880041 49.340227 35.188756 47.811633 33.779743 C 47.404525 33.404466 47.089465 33.224134 46.742741 33.22399 z M 38.008721 35.61568 L 38.940894 35.61568 L 39.873067 35.61568 L 39.873067 36.414686 L 39.873067 37.213692 L 40.672073 37.213692 L 41.472854 37.213692 L 41.472854 38.211561 L 41.472854 39.211206 L 40.672073 39.211206 L 39.873067 39.211206 L 39.873067 40.077683 L 39.873067 40.942385 L 39.029672 40.942385 C 38.573063 40.942385 38.158607 40.901271 38.099275 40.853607 C 38.050475 40.804817 38.008721 40.416148 38.008721 39.988905 L 38.008721 39.211206 L 37.209715 39.211206 L 36.410709 39.211206 L 36.410709 38.211561 L 36.410709 37.213692 L 37.209715 37.213692 L 38.008721 37.213692 L 38.008721 36.414686 L 38.008721 35.61568 z M 45.609928 35.61568 C 46.451102 35.61568 46.811029 36.547034 46.204743 37.153323 C 45.819169 37.538855 45.467627 37.568745 45.087911 37.247428 C 44.429278 36.690129 44.773018 35.61568 45.609928 35.61568 z M 43.992385 37.322001 C 44.202428 37.322144 44.412952 37.407207 44.580099 37.591888 C 44.840651 37.87978 44.870124 38.537836 44.635141 38.845439 C 44.175284 39.447449 43.070866 39.061209 43.070866 38.298564 C 43.070866 37.719756 43.530296 37.321687 43.992385 37.322001 z M 47.294942 37.355737 C 47.537008 37.360237 47.77199 37.440177 47.909289 37.591888 C 48.169841 37.87978 48.197539 38.539608 47.962556 38.847215 C 47.473431 39.48753 46.39828 39.058771 46.39828 38.22399 C 46.39828 37.970946 46.500142 37.696785 46.641533 37.568805 C 46.803163 37.422534 47.052872 37.351353 47.294942 37.355737 z M 45.668522 39.078038 C 46.414264 39.078038 46.776656 39.868554 46.325482 40.512698 C 46.171239 40.732911 45.983869 40.809217 45.595724 40.809217 C 45.148858 40.809217 45.044094 40.752288 44.864189 40.404388 C 44.509473 39.718414 44.897646 39.078038 45.668522 39.078038 z " transform="matrix(1.1,0,0,1.1,-3.1845928,-3.2065454)"/>
</svg>
