<?xml version='1.0' encoding='UTF-8'?>
<svg xmlns:inkscape="http://www.inkscape.org/namespaces/inkscape" xmlns:sodipodi="http://sodipodi.sourceforge.net/DTD/sodipodi-0.dtd" xmlns="http://www.w3.org/2000/svg" xmlns:svg="http://www.w3.org/2000/svg" xmlns:rdf="http://www.w3.org/1999/02/22-rdf-syntax-ns#" xmlns:cc="http://creativecommons.org/ns#" xmlns:dc="http://purl.org/dc/elements/1.1/" width="64" height="64" version="1.1" id="svg73" sodipodi:docname="folder-wine.svg" inkscape:version="1.4.2 (ebf0e940d0, 2025-05-08)">
  <metadata id="metadata77">
    <rdf:RDF>
      <cc:Work rdf:about="">
        <dc:format>image/svg+xml</dc:format>
        <dc:type rdf:resource="http://purl.org/dc/dcmitype/StillImage"/>
      </cc:Work>
    </rdf:RDF>
  </metadata>
  <sodipodi:namedview pagecolor="#f5f7fa" bordercolor="#666666" borderopacity="1" objecttolerance="10" gridtolerance="10" guidetolerance="10" inkscape:pageopacity="0" inkscape:pageshadow="2" inkscape:window-width="1337" inkscape:window-height="758" id="namedview75" showgrid="false" inkscape:zoom="6.2890628" inkscape:cx="11.845962" inkscape:cy="22.737887" inkscape:window-x="0" inkscape:window-y="0" inkscape:window-maximized="0" inkscape:current-layer="svg73" inkscape:document-rotation="0" inkscape:pagecheckerboard="0" inkscape:showpageshadow="2" inkscape:deskcolor="#d1d1d1"/>
  <defs id="defs29">
    <style id="current-color-scheme" type="text/css">.ColorScheme-Text {color:#d8dee9} .ColorScheme-Highlight {color:#3b4252}</style>
  </defs>
  <path id="path1575" style="opacity:1;fill:currentColor;fill-opacity:1;stroke:none;stroke-width:0.65048" class="ColorScheme-Text" d="M 17.726405 13.611064 C 9.0196075 13.611064 8.6529856 13.630862 8.1525417 14.131305 C 7.5130653 14.770782 7.500716 15.258714 7.612769 35.468308 C 7.6903681 49.463863 7.7096724 49.935021 8.2235645 50.784359 C 8.5290729 51.289286 9.2058244 51.865608 9.8198003 52.144445 C 10.830666 52.603533 11.974456 52.627875 32.090752 52.629175 L 53.296363 52.63095 L 54.336846 52.048564 C 55.022608 51.66494 55.577526 51.070976 55.963266 50.306732 C 56.548459 49.147329 56.549204 49.141276 56.549204 35.336916 C 56.549204 21.5295 56.548589 21.527102 55.963266 20.377754 C 55.547291 19.560941 55.045119 19.054659 54.230312 18.630595 C 53.089227 18.036679 53.031348 18.034004 42.442314 18.034004 L 31.801334 18.034004 L 29.290681 15.823422 L 26.780028 13.611064 L 17.726405 13.611064 z M 13.42953 19.827328 L 50.696931 19.827328 C 52.853188 19.827328 54.588976 21.412244 54.588976 23.38024 L 54.588976 47.204814 C 54.588976 49.17281 52.853188 50.75595 50.696931 50.75595 L 13.42953 50.75595 C 11.273273 50.75595 9.5374849 49.17281 9.5374849 47.204814 L 9.5374849 23.38024 C 9.5374849 21.412244 11.273273 19.827328 13.42953 19.827328 z M 40.53713 32.343308 C 38.925881 32.341267 37.671363 33.023351 37.671363 33.023351 L 36.133721 38.346504 C 36.133721 38.346504 37.81622 37.733742 39.093593 37.606092 C 40.370965 37.478443 42.090752 38.664331 42.090752 38.664331 L 43.628394 33.382016 C 42.598378 32.592884 41.503879 32.344533 40.53713 32.343308 z M 44.441604 33.939544 L 42.900411 39.189899 C 42.900411 39.189899 44.152417 40.416129 45.915326 40.313834 C 47.678137 40.211734 48.636794 39.657159 48.869871 39.578749 L 50.398635 34.280453 C 50.398635 34.280453 48.36783 35.127997 47.03926 34.9747 C 45.710789 34.8216 44.88358 34.257492 44.441604 33.939544 z M 38.470368 38.577328 C 37.181957 38.662412 35.863834 39.276902 35.863834 39.276902 L 34.33507 44.59828 C 35.04272 44.231876 36.104082 44.043811 37.330454 43.94132 C 38.556727 43.839122 40.283224 44.964047 40.283224 44.964047 L 41.836846 39.626689 C 41.590455 39.449801 40.447912 38.679428 39.017243 38.577328 C 38.838385 38.564578 38.654427 38.565173 38.470368 38.577328 z M 42.641178 40.143379 L 41.112414 45.432797 C 41.393066 45.543903 42.312244 46.419714 43.845013 46.496362 C 45.378173 46.572815 47.069445 45.782584 47.069445 45.782584 C 47.069445 45.782584 48.5573 40.576395 48.605312 40.494942 C 48.598988 40.499457 48.582739 40.509693 48.575127 40.512698 C 47.140934 41.074882 46.40959 41.158607 45.352471 41.183862 C 44.279493 41.209412 42.641178 40.143379 42.641178 40.143379 z " transform="matrix(1.1,0,0,1.1,-3.1845928,-3.2065454)"/>
</svg>
