<?xml version='1.0' encoding='UTF-8'?>
<svg xmlns:inkscape="http://www.inkscape.org/namespaces/inkscape" xmlns:sodipodi="http://sodipodi.sourceforge.net/DTD/sodipodi-0.dtd" xmlns="http://www.w3.org/2000/svg" xmlns:svg="http://www.w3.org/2000/svg" xmlns:rdf="http://www.w3.org/1999/02/22-rdf-syntax-ns#" xmlns:cc="http://creativecommons.org/ns#" xmlns:dc="http://purl.org/dc/elements/1.1/" width="64" height="64" version="1.1" viewBox="0 0 16.933 16.933" id="svg7" sodipodi:docname="applications-development.backup.svg" inkscape:version="1.4.2 (ebf0e940d0, 2025-05-08)">
  <sodipodi:namedview id="namedview7" pagecolor="#9c4444" bordercolor="#000000" borderopacity="0.25" inkscape:showpageshadow="2" inkscape:pageopacity="0.0" inkscape:pagecheckerboard="0" inkscape:deskcolor="#d1d1d1" inkscape:zoom="6.15625" inkscape:cx="15.918782" inkscape:cy="29.725888" inkscape:window-width="2560" inkscape:window-height="1376" inkscape:window-x="0" inkscape:window-y="0" inkscape:window-maximized="1" inkscape:current-layer="svg7" showgrid="false"/>
  <defs id="defs2">
    <style id="current-color-scheme" type="text/css">.ColorScheme-Text {color:#d8dee9} .ColorScheme-Highlight {color:#3b4252}</style>
  </defs>
  <metadata id="metadata2">
    <rdf:RDF>
      <cc:Work rdf:about="">
        <dc:format>image/svg+xml</dc:format>
        <dc:type rdf:resource="http://purl.org/dc/dcmitype/StillImage"/>
      </cc:Work>
    </rdf:RDF>
  </metadata>
  <path style="clip-rule:nonzero;display:inline;overflow:visible;visibility:visible;isolation:auto;mix-blend-mode:normal;color-interpolation:sRGB;color-interpolation-filters:linearRGB;solid-opacity:1;fill:currentColor;fill-opacity:1;fill-rule:nonzero;stroke:none;stroke-width:0.349915;stroke-linecap:butt;stroke-linejoin:miter;stroke-miterlimit:4;stroke-dasharray:none;stroke-dashoffset:0;stroke-opacity:0.3;marker:none;color-rendering:auto;image-rendering:auto;shape-rendering:auto;text-rendering:auto;enable-background:accumulate" d="m 7.7105625,3.1749377 c -0.136044,0 -0.2494123,0.525446 -0.3159593,1.2763824 A 4.1576565,4.1576553 0 0 0 6.3898863,4.8735823 C 5.8094968,4.3871568 5.3561296,4.093532 5.259671,4.1899901 l -1.0696813,1.069681 c -0.096458,0.096458 0.1971674,0.549826 0.6835922,1.1302145 A 4.1576565,4.1576553 0 0 0 4.4550107,7.3946036 C 3.7019711,7.4610863 3.1749373,7.5742913 3.1749373,7.7105619 v 1.511875 c 0,0.1360423 0.5254461,0.2494117 1.2763829,0.3159584 a 4.1576565,4.1576553 0 0 0 0.4207854,1.0069307 c -0.4853194,0.579351 -0.7784576,1.03166 -0.6821159,1.128003 l 1.0696813,1.06968 c 0.096251,0.09626 0.5479907,-0.196185 1.1265242,-0.680638 a 4.1576565,4.1576553 0 0 0 1.008408,0.415616 c 0.066483,0.753041 0.1796885,1.280075 0.3159593,1.280075 h 1.5118746 c 0.136044,0 0.2494119,-0.525446 0.3159593,-1.276383 a 4.1576565,4.1576553 0 0 0 1.0047166,-0.422263 c 0.580388,0.486425 1.033758,0.780051 1.130215,0.683593 l 1.069683,-1.06968 c 0.09646,-0.09645 -0.197167,-0.549826 -0.683596,-1.130216 A 4.1576565,4.1576553 0 0 0 12.47799,9.5383953 c 0.753038,-0.066483 1.280073,-0.1796876 1.280073,-0.3159585 V 7.7105619 c 0,-0.1360422 -0.525447,-0.2494116 -1.276383,-0.3159583 A 4.1576565,4.1576553 0 0 0 12.060892,6.3876713 c 0.485322,-0.5793491 0.77846,-1.0316583 0.682119,-1.1280002 l -1.069683,-1.069681 c -0.09625,-0.096251 -0.547991,0.1961864 -1.126525,0.680639 A 4.1576565,4.1576553 0 0 0 9.5383964,4.4550113 C 9.4719128,3.7019716 9.358708,3.1749377 9.2224371,3.1749377 Z M 8.4664997,6.5766555 A 1.8898438,1.8898435 0 0 1 10.356343,8.4664996 1.8898438,1.8898435 0 0 1 8.4664997,10.356343 1.8898438,1.8898435 0 0 1 6.5766559,8.4664996 1.8898438,1.8898435 0 0 1 8.4664997,6.5766555 Z" id="path4690" inkscape:connector-curvature="0" class="ColorScheme-Text"/>
  <g id="g9" transform="matrix(0.34191239,0,0,0.33191717,3.7916727,2.956772)" style="fill:#999999;fill-opacity:1;stroke:none;stroke-width:0.58349;stroke-dasharray:none;stroke-opacity:0.3"/>
  </svg>
