<?xml version='1.0' encoding='UTF-8'?>
<svg xmlns:inkscape="http://www.inkscape.org/namespaces/inkscape" xmlns:sodipodi="http://sodipodi.sourceforge.net/DTD/sodipodi-0.dtd" xmlns="http://www.w3.org/2000/svg" xmlns:svg="http://www.w3.org/2000/svg" xmlns:rdf="http://www.w3.org/1999/02/22-rdf-syntax-ns#" xmlns:cc="http://creativecommons.org/ns#" xmlns:dc="http://purl.org/dc/elements/1.1/" width="64" height="64" version="1.1" viewBox="0 0 16.933 16.933" id="svg7" sodipodi:docname="applications-games.svg" inkscape:version="1.4.2 (ebf0e940d0, 2025-05-08)">
  <sodipodi:namedview id="namedview7" pagecolor="#9c4444" bordercolor="#000000" borderopacity="0.25" inkscape:showpageshadow="2" inkscape:pageopacity="0.0" inkscape:pagecheckerboard="0" inkscape:deskcolor="#d1d1d1" inkscape:zoom="4.3531261" inkscape:cx="16.769558" inkscape:cy="20.330217" inkscape:window-width="1183" inkscape:window-height="941" inkscape:window-x="0" inkscape:window-y="0" inkscape:window-maximized="0" inkscape:current-layer="svg7" showgrid="false"/>
  <defs id="defs2">
    <style id="current-color-scheme" type="text/css">.ColorScheme-Text {color:#d8dee9} .ColorScheme-Highlight {color:#3b4252}</style>
  </defs>
  <metadata id="metadata2">
    <rdf:RDF>
      <cc:Work rdf:about="">
        <dc:format>image/svg+xml</dc:format>
        <dc:type rdf:resource="http://purl.org/dc/dcmitype/StillImage"/>
      </cc:Work>
    </rdf:RDF>
  </metadata>
  <path id="path99" style="fill:currentColor;fill-opacity:1;stroke:none;stroke-width:0.331698;stroke-dasharray:none;stroke-dashoffset:2.2;stroke-opacity:0.3" d="m 11.364128,4.1161254 c -0.174337,-7.31e-5 -0.360949,0.070128 -0.5945,0.2069723 -0.55577,0.3256358 -1.2826134,0.4792109 -2.2807634,0.4792109 -0.9980531,0 -1.7491432,-0.1568425 -2.3016038,-0.4805998 C 5.7442601,4.0621046 5.4797832,4.0586639 5.1079972,4.3093407 4.153497,4.9525762 3.4341296,7.0149053 3.2230973,9.709845 c -0.1265499,1.616037 -0.00834,2.468021 0.409759,2.947494 0.2016518,0.231167 0.6966807,0.191976 1.1431617,-0.09167 0.3784746,-0.24045 0.8294244,-0.771031 1.368184,-1.609881 0.4868455,-0.758023 1.075716,-1.007683 2.3779996,-1.0098173 1.2996917,-0.00202 1.8104584,0.2438793 2.4099454,1.1653863 1.005799,1.546061 1.935473,2.084308 2.480787,1.436241 0.302099,-0.359021 0.357393,-0.705899 0.343085,-2.150195 C 13.729949,7.773753 13.044135,5.3869751 12.055862,4.4760156 11.792656,4.2333994 11.588295,4.1163532 11.364128,4.1162589 Z M 5.7177742,5.6621012 H 6.3206077 6.9234412 V 6.1788164 6.6955327 H 7.4401569 7.9568711 V 7.3414265 7.9873188 H 7.4401569 6.9234412 V 8.5470923 9.106867 H 6.3775591 c -0.2998956,0 -0.5698776,-0.026882 -0.6014474,-0.05833 C 5.7445569,9.0169826 5.7177805,8.7663743 5.7177805,8.4901538 V 7.9873188 H 5.201059 4.6843428 V 7.3414265 6.6955327 H 5.201059 5.7177742 V 6.1788164 Z m 4.9143458,0 c 0.543836,0 0.776736,0.6025578 0.384758,0.9945394 C 10.767594,6.9058951 10.540086,6.925488 10.29459,6.7177636 9.8687673,6.3574478 10.09103,5.6621106 10.63212,5.6621106 Z M 9.5861899,6.7663711 c 0.1357952,9.42e-5 0.2725245,0.054221 0.3805889,0.1736152 0.1684552,0.1861421 0.1866512,0.6123165 0.034733,0.8111882 -0.2973099,0.389216 -1.0112054,0.1388621 -1.0112054,-0.3541989 0,-0.3742129 0.297134,-0.6308193 0.5958881,-0.6306151 z m 2.1349211,0.020972 c 0.156535,0.00295 0.308481,0.054698 0.397258,0.1527834 0.168448,0.1861428 0.186643,0.6123141 0.03472,0.8111884 -0.316231,0.4139819 -1.011204,0.1368976 -1.011204,-0.4028166 0,-0.1635911 0.06556,-0.3409085 0.156953,-0.4236501 0.104484,-0.094565 0.265756,-0.1403662 0.422261,-0.137514 z m -1.051488,1.1139898 c 0.482139,0 0.716733,0.51141 0.425038,0.9278651 -0.09973,0.1423549 -0.221326,0.19168 -0.472266,0.19168 -0.288909,0 -0.35595,-0.037603 -0.472263,-0.2625348 C 9.9207937,8.3148443 10.171102,7.901319 10.669623,7.901319 Z" class="ColorScheme-Text"/>
</svg>
