<?xml version='1.0' encoding='UTF-8'?>
<svg xmlns:inkscape="http://www.inkscape.org/namespaces/inkscape" xmlns:sodipodi="http://sodipodi.sourceforge.net/DTD/sodipodi-0.dtd" xmlns="http://www.w3.org/2000/svg" xmlns:svg="http://www.w3.org/2000/svg" xmlns:rdf="http://www.w3.org/1999/02/22-rdf-syntax-ns#" xmlns:cc="http://creativecommons.org/ns#" xmlns:dc="http://purl.org/dc/elements/1.1/" width="64" height="64" version="1.1" viewBox="0 0 16.933 16.933" id="svg7" sodipodi:docname="applications-graphics.svg" inkscape:version="1.4.2 (ebf0e940d0, 2025-05-08)">
  <sodipodi:namedview id="namedview7" pagecolor="#9c4444" bordercolor="#000000" borderopacity="0.25" inkscape:showpageshadow="2" inkscape:pageopacity="0.0" inkscape:pagecheckerboard="0" inkscape:deskcolor="#d1d1d1" inkscape:zoom="6.15625" inkscape:cx="15.837563" inkscape:cy="27.208122" inkscape:window-width="1183" inkscape:window-height="941" inkscape:window-x="0" inkscape:window-y="0" inkscape:window-maximized="0" inkscape:current-layer="svg7" showgrid="false"/>
  <defs id="defs2">
    <style id="current-color-scheme" type="text/css">.ColorScheme-Text {color:#d8dee9} .ColorScheme-Highlight {color:#3b4252}</style>
  </defs>
  <metadata id="metadata2">
    <rdf:RDF>
      <cc:Work rdf:about="">
        <dc:format>image/svg+xml</dc:format>
        <dc:type rdf:resource="http://purl.org/dc/dcmitype/StillImage"/>
      </cc:Work>
    </rdf:RDF>
  </metadata>
  <path id="path4-3" style="fill:currentColor;fill-opacity:1;stroke:none;stroke-width:0.394934;stroke-dasharray:none;stroke-opacity:0.3" class="ColorScheme-Text" d="M 13.376588,3.1751662 C 12.855441,3.2002171 10.328067,5.2341541 9.7368484,5.8039992 8.9751748,6.5376745 7.2521477,8.6723931 7.2521477,8.6723931 l 1.2868967,1.5787259 c 0,0 1.6235986,-1.3566944 2.7579186,-2.8228582 C 12.313551,6.115243 13.704854,3.4723705 13.45301,3.1981324 13.43727,3.1809184 13.41133,3.1734964 13.37659,3.1751664 Z M 7.1488001,8.9285846 6.1865974,10.30101 6.926662,11.364581 8.3180941,10.404358 Z M 5.765683,10.667281 c -0.2619771,0.0052 -0.4901944,0.136058 -0.6284015,0.286681 -0.2221549,0.23981 -0.3698264,0.78948 -0.6216701,1.304715 -0.2518435,0.514048 -1.0655504,1.474586 -1.0655504,1.474586 0,0 0.8269125,0.0558 1.2722458,0 0.8138851,-0.103285 1.4210356,-0.515386 1.6575229,-0.892909 0.2364873,-0.377522 0.2660908,-0.892512 0.2660908,-0.892512 0,0 0.1331388,-0.794519 -0.3848811,-1.131677 C 6.0921198,10.706203 5.9228693,10.664137 5.765683,10.667281 Z"/>
</svg>
