<?xml version='1.0' encoding='UTF-8'?>
<svg xmlns:inkscape="http://www.inkscape.org/namespaces/inkscape" xmlns:sodipodi="http://sodipodi.sourceforge.net/DTD/sodipodi-0.dtd" xmlns="http://www.w3.org/2000/svg" xmlns:svg="http://www.w3.org/2000/svg" xmlns:rdf="http://www.w3.org/1999/02/22-rdf-syntax-ns#" xmlns:cc="http://creativecommons.org/ns#" xmlns:dc="http://purl.org/dc/elements/1.1/" width="64" height="64" version="1.1" viewBox="0 0 16.933 16.933" id="svg7" sodipodi:docname="applications-internet.svg" inkscape:version="1.4.2 (ebf0e940d0, 2025-05-08)">
  <sodipodi:namedview id="namedview7" pagecolor="#9c4444" bordercolor="#000000" borderopacity="0.25" inkscape:showpageshadow="2" inkscape:pageopacity="0.0" inkscape:pagecheckerboard="0" inkscape:deskcolor="#d1d1d1" inkscape:zoom="6.15625" inkscape:cx="15.837563" inkscape:cy="29.64467" inkscape:window-width="1183" inkscape:window-height="941" inkscape:window-x="0" inkscape:window-y="0" inkscape:window-maximized="0" inkscape:current-layer="svg7" showgrid="false"/>
  <defs id="defs2">
    <style id="current-color-scheme" type="text/css">.ColorScheme-Text {color:#d8dee9} .ColorScheme-Highlight {color:#3b4252}</style>
  </defs>
  <metadata id="metadata2">
    <rdf:RDF>
      <cc:Work rdf:about="">
        <dc:format>image/svg+xml</dc:format>
        <dc:type rdf:resource="http://purl.org/dc/dcmitype/StillImage"/>
      </cc:Work>
    </rdf:RDF>
  </metadata>
  <path style="fill:currentColor;fill-opacity:1;stroke:none;stroke-width:0.319338;stroke-dasharray:none;stroke-dashoffset:2.2;stroke-opacity:0.3" d="M 4.7185499,12.31214 C 4.2465411,12.201304 3.6742466,11.707526 3.430551,11.200861 3.2314827,10.786983 3.1747153,10.525562 3.1749373,10.023739 c 1.57e-4,-0.35628 0.016391,-0.4925691 0.0852,-0.7152436 0.2690797,-0.8707908 0.879885,-1.4592999 1.6410718,-1.5811675 0.2134684,-0.034177 0.309817,-0.03156 0.5318479,0.014447 0.149133,0.030902 0.300037,0.067708 0.3353407,0.081794 0.057705,0.023024 0.064186,-0.00221 0.064186,-0.2501814 0,-0.8288323 0.3342489,-1.6398342 0.9169993,-2.2249504 C 7.2409885,4.8550396 7.7126046,4.627207 8.3246194,4.5875565 9.761902,4.4944385 10.98538,5.7705943 11.101223,7.4837099 c 0.01328,0.1966915 0.02788,0.3576214 0.03239,0.3576214 0.0045,0 0.08045,-0.027083 0.168712,-0.060189 0.241006,-0.090378 0.762017,-0.080985 1.037838,0.018713 0.636879,0.2302016 1.155072,0.8359209 1.343973,1.5709786 0.09262,0.3604245 0.09909,0.9366231 0.01444,1.2863531 -0.187343,0.773965 -0.744504,1.419622 -1.399668,1.62198 -0.23247,0.07181 -0.331183,0.0736 -3.8384681,0.07002 -2.0172904,-0.0021 -3.6623046,-0.01836 -3.7418996,-0.03704 z" id="path99" class="ColorScheme-Text"/>
  </svg>
