<?xml version='1.0' encoding='UTF-8'?>
<svg xmlns:inkscape="http://www.inkscape.org/namespaces/inkscape" xmlns:sodipodi="http://sodipodi.sourceforge.net/DTD/sodipodi-0.dtd" xmlns="http://www.w3.org/2000/svg" xmlns:svg="http://www.w3.org/2000/svg" width="64" height="64" version="1" id="svg1" sodipodi:docname="applications-all-symbolic.svg" inkscape:version="1.4.2 (ebf0e940d0, 2025-05-08)">
  <sodipodi:namedview id="namedview1" pagecolor="#9c4444" bordercolor="#eeeeee" borderopacity="1" inkscape:showpageshadow="0" inkscape:pageopacity="0" inkscape:pagecheckerboard="0" inkscape:deskcolor="#ffffff" inkscape:zoom="12.125" inkscape:cx="43.381443" inkscape:cy="18.474227" inkscape:window-width="2560" inkscape:window-height="1376" inkscape:window-x="0" inkscape:window-y="0" inkscape:window-maximized="1" inkscape:current-layer="svg1"/>
  <defs id="defs1">
    <style id="current-color-scheme" type="text/css">.ColorScheme-Text {color:#d8dee9} .ColorScheme-Highlight {color:#3b4252}</style>
  </defs>
  <path d="M 15.750006,11.999996 C 13.6725,11.999996 12,13.672495 12,15.749996 v 10.000001 c 0,2.0775 1.6725,3.75 3.750006,3.75 h 9.999999 c 2.077505,0 3.75,-1.6725 3.75,-3.75 V 15.749996 c 0,-2.077501 -1.672495,-3.75 -3.75,-3.75 z m 22.500001,0 c -2.077505,0 -3.749995,1.672499 -3.749995,3.75 v 10.000001 c 0,2.0775 1.67249,3.75 3.749995,3.75 h 9.999998 c 2.077505,0 3.749995,-1.6725 3.749995,-3.75 V 15.749996 c 0,-2.077501 -1.67249,-3.75 -3.749995,-3.75 z m 1.250003,5 h 7.499992 v 7.5 H 39.50001 Z M 15.750006,34.499997 c -2.077506,0 -3.750006,1.6725 -3.750006,3.75 v 10.000005 c 0,2.0775 1.6725,3.750002 3.750006,3.750002 h 9.999999 c 2.077505,0 3.75,-1.672502 3.75,-3.750002 V 38.249997 c 0,-2.0775 -1.672495,-3.75 -3.75,-3.75 z m 22.500001,0 c -2.077505,0 -3.749995,1.6725 -3.749995,3.75 v 10.000005 c 0,2.0775 1.67249,3.750002 3.749995,3.750002 h 9.999998 C 50.32751,52.000004 52,50.327502 52,48.250002 V 38.249997 c 0,-2.0775 -1.67249,-3.75 -3.749995,-3.75 z m -21.249999,5.000002 h 7.499995 v 7.5 h -7.499995 z" style="fill:currentColor;fill-opacity:1;stroke-width:2.49999" class="ColorScheme-Text" id="path1-6-5"/>
</svg>
