<?xml version='1.0' encoding='UTF-8'?>
<svg xmlns:inkscape="http://www.inkscape.org/namespaces/inkscape" xmlns:sodipodi="http://sodipodi.sourceforge.net/DTD/sodipodi-0.dtd" xmlns="http://www.w3.org/2000/svg" xmlns:svg="http://www.w3.org/2000/svg" xmlns:rdf="http://www.w3.org/1999/02/22-rdf-syntax-ns#" xmlns:cc="http://creativecommons.org/ns#" xmlns:dc="http://purl.org/dc/elements/1.1/" width="64" height="64" version="1.1" viewBox="0 0 16.933 16.933" id="svg7" sodipodi:docname="applications-education.svg" inkscape:version="1.4.2 (ebf0e940d0, 2025-05-08)">
  <sodipodi:namedview id="namedview7" pagecolor="#9c4444" bordercolor="#000000" borderopacity="0.25" inkscape:showpageshadow="2" inkscape:pageopacity="0.0" inkscape:pagecheckerboard="0" inkscape:deskcolor="#d1d1d1" inkscape:zoom="6.15625" inkscape:cx="32.812183" inkscape:cy="29.563452" inkscape:window-width="2560" inkscape:window-height="1376" inkscape:window-x="0" inkscape:window-y="0" inkscape:window-maximized="1" inkscape:current-layer="svg7" showgrid="false"/>
  <defs id="defs2">
    <style id="current-color-scheme" type="text/css">.ColorScheme-Text {color:#d8dee9} .ColorScheme-Highlight {color:#3b4252}</style>
  </defs>
  <metadata id="metadata2">
    <rdf:RDF>
      <cc:Work rdf:about="">
        <dc:format>image/svg+xml</dc:format>
        <dc:type rdf:resource="http://purl.org/dc/dcmitype/StillImage"/>
      </cc:Work>
    </rdf:RDF>
  </metadata>
  <path style="fill:currentColor;stroke-width:0.0113925" d="M 8.0259931,11.553087 C 7.0229958,11.48091 6.0932635,11.196021 5.5528463,10.795268 5.4190749,10.696069 5.322155,10.59198 5.2773225,10.499369 c -0.030422,-0.06284 -0.031089,-0.08713 -0.031089,-1.1319451 0,-0.8478169 0.00393,-1.0662662 0.018986,-1.0606574 0.010438,0.00388 0.637598,0.2128557 1.3936776,0.4643786 0.897807,0.2986718 1.4214885,0.4654071 1.5095926,0.4806404 0.1723679,0.029802 0.423655,0.029802 0.5960237,0 0.088103,-0.01523 0.6117852,-0.1819686 1.509592,-0.4806404 0.756079,-0.2515229 1.383234,-0.4604938 1.393677,-0.4643786 0.01507,-0.00561 0.01897,0.2128406 0.01897,1.0606574 0,1.2299091 0.01298,1.1234561 -0.15825,1.2979001 -0.395991,0.403432 -1.371751,0.755729 -2.3959283,0.865052 -0.2709934,0.02891 -0.8539849,0.04088 -1.1065924,0.02272 z m 4.8078419,-0.662856 c -0.294306,-0.197435 -0.452521,-0.463977 -0.426502,-0.718517 0.01449,-0.141776 0.102526,-0.3934936 0.2192,-0.6267928 l 0.100752,-0.2014557 0.0076,-0.697405 0.0076,-0.697404 0.197022,-0.06589 c 0.108352,-0.03624 0.202351,-0.06589 0.208863,-0.06589 0.0066,0 0.01191,0.3408443 0.01191,0.7574321 v 0.757432 l 0.105426,0.2185225 c 0.05799,0.1201865 0.127783,0.2834592 0.155093,0.3628261 0.04407,0.1280818 0.04972,0.1631188 0.05025,0.3116608 5.26e-4,0.158507 -0.002,0.17263 -0.04849,0.26712 -0.05868,0.119261 -0.200512,0.278526 -0.32872,0.369129 -0.154512,0.109195 -0.142733,0.107863 -0.259947,0.02923 z M 8.337387,8.8399871 C 8.1243699,8.8177531 7.8743464,8.7396551 5.7095258,8.0191478 4.4396459,7.5964996 3.3698937,7.2351787 3.3322986,7.2162127 3.1198424,7.109034 3.1228054,6.9576729 3.3394328,6.851976 3.3814595,6.8314728 4.4648582,6.5002413 5.7469858,6.1159135 8.1027771,5.4097459 8.2432148,5.3712923 8.4665031,5.3712923 c 0.2240201,0 0.3633801,0.038155 2.7201559,0.7447405 1.281777,0.3842901 2.364888,0.7154753 2.406916,0.7359679 0.216622,0.1056237 0.219586,0.2570341 0.0071,0.364212 -0.112627,0.056831 -4.6757722,1.5693865 -4.8075947,1.5935927 -0.1352867,0.024843 -0.3626102,0.039897 -0.4556987,0.030182 z" id="path99" class="ColorScheme-Text"/>
  <g id="g9" transform="matrix(0.33046068,0,0,0.33046068,3.6284329,3.8888168)" style="fill:#999999;fill-opacity:1;stroke:none;stroke-width:0.58349;stroke-dasharray:none;stroke-opacity:0.3"/>
  </svg>
