<?xml version='1.0' encoding='UTF-8'?>
<svg xmlns:inkscape="http://www.inkscape.org/namespaces/inkscape" xmlns:sodipodi="http://sodipodi.sourceforge.net/DTD/sodipodi-0.dtd" xmlns="http://www.w3.org/2000/svg" xmlns:svg="http://www.w3.org/2000/svg" xmlns:rdf="http://www.w3.org/1999/02/22-rdf-syntax-ns#" xmlns:cc="http://creativecommons.org/ns#" xmlns:dc="http://purl.org/dc/elements/1.1/" width="64" height="64" version="1.1" viewBox="0 0 16.933 16.933" id="svg7" sodipodi:docname="preferences-desktop-accessibility.svg" inkscape:version="1.4.2 (ebf0e940d0, 2025-05-08)">
  <sodipodi:namedview id="namedview7" pagecolor="#9c4444" bordercolor="#000000" borderopacity="0.25" inkscape:showpageshadow="2" inkscape:pageopacity="0.0" inkscape:pagecheckerboard="0" inkscape:deskcolor="#d1d1d1" inkscape:zoom="6.15625" inkscape:cx="15.837563" inkscape:cy="29.64467" inkscape:window-width="1183" inkscape:window-height="941" inkscape:window-x="0" inkscape:window-y="0" inkscape:window-maximized="0" inkscape:current-layer="svg7" showgrid="false"/>
  <defs id="defs2">
    <style id="current-color-scheme" type="text/css">.ColorScheme-Text {color:#d8dee9} .ColorScheme-Highlight {color:#3b4252}</style>
  </defs>
  <metadata id="metadata2">
    <rdf:RDF>
      <cc:Work rdf:about="">
        <dc:format>image/svg+xml</dc:format>
        <dc:type rdf:resource="http://purl.org/dc/dcmitype/StillImage"/>
      </cc:Work>
    </rdf:RDF>
  </metadata>
  <path style="clip-rule:nonzero;display:inline;overflow:visible;visibility:visible;isolation:auto;mix-blend-mode:normal;color-interpolation:sRGB;color-interpolation-filters:linearRGB;solid-opacity:1;fill:currentColor;fill-opacity:1;fill-rule:evenodd;stroke:none;stroke-width:0.325849;stroke-linecap:butt;stroke-linejoin:miter;stroke-miterlimit:4;stroke-dasharray:none;stroke-dashoffset:0;stroke-opacity:0.3;color-rendering:auto;image-rendering:auto;shape-rendering:auto;text-rendering:auto;enable-background:accumulate" d="M 8.4663824,3.174937 A 1.2632612,1.3564842 0 0 0 7.203121,4.5314213 1.2632612,1.3564842 0 0 0 8.4663824,5.887905 1.2632612,1.3564842 0 0 0 9.7296436,4.5314213 1.2632612,1.3564842 0 0 0 8.4663824,3.174937 Z M 4.4298677,6.159202 C 4.1392765,6.1512091 4.0680412,6.5899408 4.3440056,6.6880189 L 7.2031208,7.7112108 V 9.9165577 L 6.2038613,13.404205 c -0.089315,0.309842 0.3113017,0.496377 0.460893,0.2146 l 1.8016279,-3.385382 1.8016278,3.385382 c 0.14942,0.283249 0.551847,0.09542 0.460894,-0.21513 L 9.7296436,9.956298 V 7.7112108 L 12.588759,6.6880189 C 12.879213,6.5847503 12.78072,6.1195858 12.477233,6.1613217 L 8.4663824,6.6996766 4.455528,6.1613217 c -0.00851,-0.00114 -0.017079,-0.00188 -0.02566,-0.00212 z" id="path4184" class="ColorScheme-Text"/>
  <g id="g9" transform="matrix(0.34162949,0,0,0.34162949,4.1636411,3.0781861)" style="fill:#999999;fill-opacity:1;stroke:none;stroke-width:0.58349;stroke-dasharray:none;stroke-opacity:0.3"/>
  </svg>
