<?xml version="1.0" encoding="UTF-8" standalone="no"?>
<svg
   width="64"
   height="64"
   version="1.1"
   id="svg73"
   sodipodi:docname="folder-recent.svg"
   inkscape:version="1.4.3 (0d15f75042, 2025-12-25)"
   xmlns:inkscape="http://www.inkscape.org/namespaces/inkscape"
   xmlns:sodipodi="http://sodipodi.sourceforge.net/DTD/sodipodi-0.dtd"
   xmlns="http://www.w3.org/2000/svg"
   xmlns:svg="http://www.w3.org/2000/svg"
   xmlns:rdf="http://www.w3.org/1999/02/22-rdf-syntax-ns#"
   xmlns:cc="http://creativecommons.org/ns#"
   xmlns:dc="http://purl.org/dc/elements/1.1/">
  <metadata
     id="metadata77">
    <rdf:RDF>
      <cc:Work
         rdf:about="">
        <dc:format>image/svg+xml</dc:format>
        <dc:type
           rdf:resource="http://purl.org/dc/dcmitype/StillImage" />
      </cc:Work>
    </rdf:RDF>
  </metadata>
  <sodipodi:namedview
     pagecolor="#9c4444"
     bordercolor="#666666"
     borderopacity="1"
     objecttolerance="10"
     gridtolerance="10"
     guidetolerance="10"
     inkscape:pageopacity="0"
     inkscape:pageshadow="2"
     inkscape:window-width="2560"
     inkscape:window-height="1388"
     id="namedview75"
     showgrid="true"
     inkscape:zoom="17.788156"
     inkscape:cx="31.987576"
     inkscape:cy="32.605965"
     inkscape:window-x="0"
     inkscape:window-y="0"
     inkscape:window-maximized="1"
     inkscape:current-layer="svg73"
     inkscape:document-rotation="0"
     inkscape:pagecheckerboard="0"
     inkscape:showpageshadow="2"
     inkscape:deskcolor="#d1d1d1">
    <inkscape:grid
       id="grid1"
       units="px"
       originx="0"
       originy="0"
       spacingx="1"
       spacingy="1"
       empcolor="#0099e5"
       empopacity="0.30196078"
       color="#0099e5"
       opacity="0.14902"
       empspacing="5"
       enabled="true"
       visible="true" />
  </sodipodi:namedview>
  <defs
     id="defs29">
    <style
       id="current-color-scheme"
       type="text/css">.ColorScheme-Text {color:#d8dee9} .ColorScheme-Highlight {color:#3b4252}</style>
  </defs>
  <path
     id="path5"
     style="fill:currentColor"
     class="ColorScheme-Text"
     d="M 7 10 C 5.892 10 5 10.892 5 12 L 5 13 L 5 20 L 5 49 C 5 51.77 7.23 54 10 54 L 54 54 C 56.77 54 59 51.77 59 49 L 59 20 C 59 17.23 56.77 15 54 15 L 32 15 L 26.185547 10.386719 C 25.854392 10.143686 25.44406 10 25 10 L 7 10 z M 10 17 L 54 17 C 55.662 17 57 18.338 57 20 L 57 24 C 57 22.338 55.662 21 54 21 L 10 21 C 8.338 21 7 22.338 7 24 L 7 20 C 7 18.338 8.338 17 10 17 z M 43.517578 29.306641 C 48.756428 29.306641 53.007812 33.488553 53.007812 38.642578 C 53.007813 43.796601 48.756428 47.980469 43.517578 47.980469 C 40.696846 47.980469 38.162672 46.771614 36.423828 44.847656 L 38.158203 43.267578 C 39.465343 44.73283 41.382153 45.660156 43.517578 45.660156 C 47.453502 45.660156 50.648437 42.516098 50.648438 38.642578 C 50.648438 34.769056 47.453501 31.625 43.517578 31.625 C 39.882096 31.625 36.87281 33.846558 36.435547 37.308594 L 38.748047 37.308594 L 35.207031 41.755859 L 31.666016 37.308594 L 34.064453 37.308594 C 34.508998 32.559998 38.575495 29.306641 43.517578 29.306641 z M 43.226562 32.863281 L 44.115234 32.863281 L 44.115234 38.197266 L 46.783203 41.755859 L 46.783203 42.644531 L 42.337891 39.087891 L 43.226562 32.863281 z " />
</svg>
