<?xml version="1.0" encoding="UTF-8" standalone="no"?>
<svg
   width="64"
   height="64"
   version="1.1"
   id="svg73"
   sodipodi:docname="user-desktop.svg"
   inkscape:version="1.4.3 (0d15f75042, 2025-12-25)"
   xmlns:inkscape="http://www.inkscape.org/namespaces/inkscape"
   xmlns:sodipodi="http://sodipodi.sourceforge.net/DTD/sodipodi-0.dtd"
   xmlns="http://www.w3.org/2000/svg"
   xmlns:svg="http://www.w3.org/2000/svg"
   xmlns:rdf="http://www.w3.org/1999/02/22-rdf-syntax-ns#"
   xmlns:cc="http://creativecommons.org/ns#"
   xmlns:dc="http://purl.org/dc/elements/1.1/">
  <metadata
     id="metadata77">
    <rdf:RDF>
      <cc:Work
         rdf:about="">
        <dc:format>image/svg+xml</dc:format>
        <dc:type
           rdf:resource="http://purl.org/dc/dcmitype/StillImage" />
      </cc:Work>
    </rdf:RDF>
  </metadata>
  <sodipodi:namedview
     pagecolor="#9c4444"
     bordercolor="#666666"
     borderopacity="1"
     objecttolerance="10"
     gridtolerance="10"
     guidetolerance="10"
     inkscape:pageopacity="0"
     inkscape:pageshadow="2"
     inkscape:window-width="2560"
     inkscape:window-height="1388"
     id="namedview75"
     showgrid="true"
     inkscape:zoom="17.788156"
     inkscape:cx="31.987576"
     inkscape:cy="27.546419"
     inkscape:window-x="0"
     inkscape:window-y="0"
     inkscape:window-maximized="1"
     inkscape:current-layer="svg73"
     inkscape:document-rotation="0"
     inkscape:pagecheckerboard="0"
     inkscape:showpageshadow="2"
     inkscape:deskcolor="#d1d1d1">
    <inkscape:grid
       id="grid1"
       units="px"
       originx="0"
       originy="0"
       spacingx="1"
       spacingy="1"
       empcolor="#0099e5"
       empopacity="0.30196078"
       color="#0099e5"
       opacity="0.14902"
       empspacing="5"
       enabled="true"
       visible="true" />
  </sodipodi:namedview>
  <defs
     id="defs29">
    <style
       id="current-color-scheme"
       type="text/css">.ColorScheme-Text {color:#d8dee9} .ColorScheme-Highlight {color:#3b4252}</style>
  </defs>
  <path
     id="path5"
     style="fill:currentColor"
     class="ColorScheme-Text"
     d="M 7 10 C 5.892 10 5 10.892 5 12 L 5 13 L 5 20 L 5 49 C 5 51.77 7.23 54 10 54 L 54 54 C 56.77 54 59 51.77 59 49 L 59 20 C 59 17.23 56.77 15 54 15 L 32 15 L 26.185547 10.386719 C 25.854392 10.143686 25.44406 10 25 10 L 7 10 z M 10 17 L 54 17 C 55.662 17 57 18.338 57 20 L 57 24 C 57 22.338 55.662 21 54 21 L 10 21 C 8.338 21 7 22.338 7 24 L 7 20 C 7 18.338 8.338 17 10 17 z M 37.603516 32.431641 L 39.796875 32.431641 C 40.030609 32.431641 40.21875 32.619785 40.21875 32.853516 L 40.21875 35.046875 C 40.21875 35.280608 40.030609 35.46875 39.796875 35.46875 L 37.603516 35.46875 C 37.369783 35.46875 37.181641 35.280608 37.181641 35.046875 L 37.181641 32.853516 C 37.181641 32.619785 37.369783 32.431641 37.603516 32.431641 z M 37.603516 37.746094 L 39.796875 37.746094 C 40.030609 37.746094 40.21875 37.934234 40.21875 38.167969 L 40.21875 40.363281 C 40.21875 40.597015 40.030609 40.785156 39.796875 40.785156 L 37.603516 40.785156 C 37.369783 40.785156 37.181641 40.597015 37.181641 40.363281 L 37.181641 38.167969 C 37.181641 37.934234 37.369783 37.746094 37.603516 37.746094 z M 37.916016 44.960938 L 51.746094 44.960938 C 52.447294 44.960938 53.011719 45.525363 53.011719 46.226562 L 53.011719 46.732422 C 53.011719 47.433622 52.447294 48 51.746094 48 L 37.916016 48 C 37.214817 48 36.650391 47.433622 36.650391 46.732422 L 36.650391 46.226562 C 36.650391 45.525363 37.214817 44.960938 37.916016 44.960938 z " />
</svg>
