<?xml version="1.0" encoding="UTF-8" standalone="no"?>
<svg
   width="64"
   height="64"
   version="1.1"
   viewBox="0 0 16.933 16.933"
   id="svg7"
   sodipodi:docname="document-open-recent.svg"
   inkscape:version="1.4.2 (ebf0e940d0, 2025-05-08)"
   xmlns:inkscape="http://www.inkscape.org/namespaces/inkscape"
   xmlns:sodipodi="http://sodipodi.sourceforge.net/DTD/sodipodi-0.dtd"
   xmlns="http://www.w3.org/2000/svg"
   xmlns:svg="http://www.w3.org/2000/svg"
   xmlns:rdf="http://www.w3.org/1999/02/22-rdf-syntax-ns#"
   xmlns:cc="http://creativecommons.org/ns#"
   xmlns:dc="http://purl.org/dc/elements/1.1/">
  <sodipodi:namedview
     id="namedview7"
     pagecolor="#9c4444"
     bordercolor="#000000"
     borderopacity="0.25"
     inkscape:showpageshadow="2"
     inkscape:pageopacity="0.0"
     inkscape:pagecheckerboard="0"
     inkscape:deskcolor="#d1d1d1"
     inkscape:zoom="6.15625"
     inkscape:cx="15.593909"
     inkscape:cy="29.725888"
     inkscape:window-width="2560"
     inkscape:window-height="1392"
     inkscape:window-x="0"
     inkscape:window-y="0"
     inkscape:window-maximized="1"
     inkscape:current-layer="svg7"
     showgrid="false" />
  <defs
     id="defs2">
    <style
       id="current-color-scheme"
       type="text/css">.ColorScheme-Text {color:#d8dee9} .ColorScheme-Highlight {color:#3b4252}</style>
  </defs>
  <metadata
     id="metadata2">
    <rdf:RDF>
      <cc:Work
         rdf:about="">
        <dc:format>image/svg+xml</dc:format>
        <dc:type
           rdf:resource="http://purl.org/dc/dcmitype/StillImage" />
      </cc:Work>
    </rdf:RDF>
  </metadata>
  <path
     id="path102"
     style="fill:currentColor;fill-opacity:1;stroke:none;stroke-width:0.343789;stroke-dasharray:none;stroke-dashoffset:2.2;stroke-opacity:0.3"
     class="ColorScheme-Text"
     d="M 6.942592 3.1749375 C 4.4447091 3.1749375 4.5307951 3.1666213 4.3851757 3.4131612 C 4.3263267 3.5127962 4.3205815 3.9593401 4.3205815 8.4447963 C 4.3205815 13.879889 4.303252 13.518423 4.5691402 13.680549 C 4.6921796 13.755529 4.7960515 13.757903 8.4587487 13.758062 C 12.559062 13.758221 12.347276 13.769648 12.530771 13.536375 C 12.612951 13.431888 12.612419 13.419905 12.612419 10.00126 L 12.612419 6.5710458 L 11.1221 6.5710458 C 9.4507695 6.5709771 9.421916 6.5665097 9.2860721 6.2945823 C 9.2240014 6.1703377 9.2168917 6.0058416 9.216827 4.6657732 L 9.216827 3.1749375 L 6.942592 3.1749375 z M 9.6912073 3.2353977 L 9.6912073 4.510747 C 9.6912073 5.9025678 9.6982274 5.9557277 9.9180624 6.0749618 C 10.007062 6.1232478 10.248396 6.134112 11.28436 6.135422 L 12.542657 6.1369723 L 11.869843 5.4357369 C 11.49956 5.0502303 10.857711 4.3971223 10.443601 3.9846913 L 9.6912073 3.2353977 z M 8.7589828 7.7389102 C 10.057928 7.7389102 11.112281 8.7760563 11.112281 10.053969 C 11.112281 11.331881 10.057928 12.369027 8.7589828 12.369027 C 8.0595968 12.369027 7.4316055 12.069381 7.0004685 11.592346 L 7.4298912 11.200646 C 7.7539892 11.563948 8.2295158 11.79388 8.7589828 11.79388 C 9.7348738 11.79388 10.526799 11.014388 10.526799 10.053969 C 10.526799 9.0935504 9.7348738 8.3140575 8.7589828 8.3140575 C 7.8575848 8.3140575 7.111986 8.8648535 7.003569 9.7232461 L 7.5766494 9.7232461 L 6.6986841 10.825483 L 5.8207187 9.7232461 L 6.414986 9.7232461 C 6.5252084 8.5458579 7.5336208 7.7389102 8.7589828 7.7389102 z M 8.687154 8.6210095 L 8.9072913 8.6210095 L 8.9072913 9.9439001 L 9.5687366 10.825483 L 9.5687366 11.046137 L 8.4665 10.164037 L 8.687154 8.6210095 z " />
</svg>
