<?xml version="1.0" encoding="UTF-8" standalone="no"?>
<svg
   width="64"
   height="64"
   version="1.1"
   viewBox="0 0 16.933 16.933"
   id="svg7"
   sodipodi:docname="lighttable.svg"
   inkscape:version="1.4.2 (ebf0e940d0, 2025-05-08)"
   xmlns:inkscape="http://www.inkscape.org/namespaces/inkscape"
   xmlns:sodipodi="http://sodipodi.sourceforge.net/DTD/sodipodi-0.dtd"
   xmlns="http://www.w3.org/2000/svg"
   xmlns:svg="http://www.w3.org/2000/svg"
   xmlns:rdf="http://www.w3.org/1999/02/22-rdf-syntax-ns#"
   xmlns:cc="http://creativecommons.org/ns#"
   xmlns:dc="http://purl.org/dc/elements/1.1/">
  <sodipodi:namedview
     id="namedview7"
     pagecolor="#9c4444"
     bordercolor="#000000"
     borderopacity="0.25"
     inkscape:showpageshadow="2"
     inkscape:pageopacity="0.0"
     inkscape:pagecheckerboard="0"
     inkscape:deskcolor="#d1d1d1"
     inkscape:zoom="4.3531262"
     inkscape:cx="89.935366"
     inkscape:cy="34.457995"
     inkscape:window-width="2560"
     inkscape:window-height="1388"
     inkscape:window-x="0"
     inkscape:window-y="0"
     inkscape:window-maximized="1"
     inkscape:current-layer="svg7"
     showgrid="false" />
  <defs
     id="defs2">
    <style
       id="current-color-scheme"
       type="text/css">.ColorScheme-Text {color:#d8dee9} .ColorScheme-Highlight {color:#3b4252}</style>
  </defs>
  <metadata
     id="metadata2">
    <rdf:RDF>
      <cc:Work
         rdf:about="">
        <dc:format>image/svg+xml</dc:format>
        <dc:type
           rdf:resource="http://purl.org/dc/dcmitype/StillImage" />
      </cc:Work>
    </rdf:RDF>
  </metadata>
  <path
     style="fill:currentColor;fill-opacity:1;stroke:none;stroke-width:0.661445"
     d="m 8.4665,3.1749387 c -2.92245,0 -5.291562,2.3691116 -5.291562,5.2915618 0,1.3411464 0.50051,2.5606665 1.322892,3.4932575 0.1376,0.176766 0.329935,0.334094 0.475413,0.475414 0.932592,0.822381 2.152112,1.32289 3.493257,1.32289 2.922452,0 5.291562,-2.369111 5.291562,-5.2915615 0,-1.3411464 -0.500507,-2.560666 -1.32289,-3.4932577 -0.07365,-0.08348 -0.148675,-0.16935 -0.227375,-0.2480424 L 11.959747,4.4978279 C 11.027155,3.6754465 9.807635,3.1749375 8.466488,3.1749375 Z m 3.273637,2.0179246 c 0.461268,0.4632155 0.81922,1.0188554 1.050303,1.6303594 6.42e-4,0.00132 0.0019,0.00189 0.0025,0.00388 0.0042,0.0129 0.0087,0.02582 0.013,0.038758 0.187775,0.4529837 0.236625,0.9148359 0.28034,1.3861926 0.0033,0.071575 0.009,0.1419575 0.009,0.2144524 v 0.028423 c -0.0453,2.3450018 -1.715013,4.0881948 -3.937668,4.5448518 -0.0849,0.0127 -0.169475,0.02681 -0.255792,0.03488 -0.08985,0.0069 -0.1799,0.01125 -0.270005,0.01292 -0.05535,0.002 -0.1095,0.0091 -0.16535,0.0091 -0.0098,0 -0.01975,-0.0026 -0.0297,-0.0026 C 7.892828,13.102771 7.380593,12.96657 6.87746,12.808534 6.84731,12.797289 6.81688,12.786852 6.78703,12.774946 6.674055,12.730669 6.56288,12.681973 6.453725,12.628963 5.986685,12.405285 5.560478,12.104843 5.192845,11.740146 Z"
     class="ColorScheme-Text"
     id="path5" />
</svg>
