<?xml version="1.0" encoding="UTF-8" standalone="no"?>
<svg
   width="64"
   height="64"
   version="1.1"
   viewBox="0 0 16.933 16.933"
   id="svg7"
   sodipodi:docname="system-run.svg"
   inkscape:version="1.4.2 (ebf0e940d0, 2025-05-08)"
   xmlns:inkscape="http://www.inkscape.org/namespaces/inkscape"
   xmlns:sodipodi="http://sodipodi.sourceforge.net/DTD/sodipodi-0.dtd"
   xmlns="http://www.w3.org/2000/svg"
   xmlns:svg="http://www.w3.org/2000/svg"
   xmlns:rdf="http://www.w3.org/1999/02/22-rdf-syntax-ns#"
   xmlns:cc="http://creativecommons.org/ns#"
   xmlns:dc="http://purl.org/dc/elements/1.1/">
  <sodipodi:namedview
     id="namedview7"
     pagecolor="#9c4444"
     bordercolor="#000000"
     borderopacity="0.25"
     inkscape:showpageshadow="2"
     inkscape:pageopacity="0.0"
     inkscape:pagecheckerboard="0"
     inkscape:deskcolor="#d1d1d1"
     inkscape:zoom="17.412504"
     inkscape:cx="36.496761"
     inkscape:cy="49.791805"
     inkscape:window-width="2560"
     inkscape:window-height="1392"
     inkscape:window-x="0"
     inkscape:window-y="0"
     inkscape:window-maximized="1"
     inkscape:current-layer="svg7"
     showgrid="false" />
  <defs
     id="defs2">
    <inkscape:path-effect
       effect="offset"
       id="path-effect5"
       is_visible="true"
       lpeversion="1.3"
       linejoin_type="miter"
       unit="mm"
       offset="0.7"
       miter_limit="4"
       attempt_force_join="false"
       update_on_knot_move="true" />
    <inkscape:path-effect
       effect="clone_original"
       css_properties=""
       attributes="style,clip-path,mask"
       linkeditem="#path3"
       is_visible="true"
       method="d"
       allow_transforms="true"
       id="path-effect4"
       lpeversion="1" />
    <inkscape:path-effect
       effect="offset"
       id="path-effect3"
       is_visible="true"
       lpeversion="1.3"
       linejoin_type="miter"
       unit="mm"
       offset="0"
       miter_limit="4"
       attempt_force_join="false"
       update_on_knot_move="true" />
    <inkscape:path-effect
       effect="clone_original"
       css_properties=""
       attributes="style,clip-path,mask"
       linkeditem="#path3"
       is_visible="true"
       method="d"
       allow_transforms="true"
       id="path-effect2"
       lpeversion="1" />
    <inkscape:path-effect
       effect="clone_original"
       css_properties=""
       attributes="style,clip-path,mask"
       linkeditem="#path3"
       is_visible="true"
       method="d"
       allow_transforms="true"
       id="path-effect1"
       lpeversion="1" />
    <style
       id="current-color-scheme"
       type="text/css">.ColorScheme-Text {color:#d8dee9} .ColorScheme-Highlight {color:#3b4252}</style>
  </defs>
  <metadata
     id="metadata2">
    <rdf:RDF>
      <cc:Work
         rdf:about="">
        <dc:format>image/svg+xml</dc:format>
        <dc:type
           rdf:resource="http://purl.org/dc/dcmitype/StillImage" />
      </cc:Work>
    </rdf:RDF>
  </metadata>
  <path
     id="path5"
     style="clip-rule:nonzero;display:inline;overflow:visible;visibility:visible;isolation:auto;mix-blend-mode:normal;color-interpolation:sRGB;color-interpolation-filters:linearRGB;solid-opacity:1;fill:currentColor;fill-opacity:1;fill-rule:nonzero;stroke:none;stroke-width:0.349812;stroke-linecap:butt;stroke-linejoin:miter;stroke-miterlimit:4;stroke-dasharray:none;stroke-dashoffset:0;stroke-opacity:0.3;marker:none;color-rendering:auto;image-rendering:auto;shape-rendering:auto;text-rendering:auto;enable-background:accumulate"
     class="ColorScheme-Text"
     d="m 7.7095321,3.1749373 c -0.1360039,0 -0.2492821,0.5253889 -0.3158095,1.276104 A 4.1564315,4.1564303 0 0 0 6.3889807,4.8729004 C 5.8087622,4.3866182 5.3555149,4.0933866 5.2590847,4.1898162 L 4.1900112,5.2588897 c -0.09643,0.09643 0.1968028,0.5496785 0.6830842,1.129896 a 4.1564315,4.1564303 0 0 0 -0.41835,1.0047419 c -0.7528177,0.066463 -1.279613,0.179579 -1.279613,0.3158095 v 1.5112066 c 0,0.1360021 0.5253884,0.2492819 1.2761039,0.3158094 a 4.1564315,4.1564303 0 0 0 0.4206894,1.0066919 c -0.4851764,0.57918 -0.7782277,1.031631 -0.6819145,1.127946 l 1.0690735,1.069074 c 0.096223,0.09623 0.548024,-0.196045 1.126387,-0.680355 a 4.1564315,4.1564303 0 0 0 1.0082509,0.415621 c 0.066463,0.752818 0.1795788,1.279613 0.3158095,1.279613 h 1.5112066 c 0.1360037,0 0.2492818,-0.525389 0.3158095,-1.276104 A 4.1564315,4.1564303 0 0 0 9.9034329,12.360314 V 11.761835 9.6895794 A 1.889287,1.8892867 0 0 1 8.4651354,10.354339 1.889287,1.8892867 0 0 1 6.5757372,8.4649404 1.889287,1.8892867 0 0 1 8.4651354,6.5755422 1.889287,1.8892867 0 0 1 10.354534,8.4649404 1.889287,1.8892867 0 0 1 10.26213,9.048603 l 1.960359,1.176683 a 4.1564315,4.1564303 0 0 0 0.253037,-0.6889329 c 0.752815,-0.066463 1.279613,-0.1795794 1.279613,-0.3158094 V 7.7093371 c 0,-0.1360022 -0.52539,-0.2492824 -1.276104,-0.3158095 A 4.1564315,4.1564303 0 0 0 12.058345,6.3868363 C 12.543524,5.8076579 12.836572,5.3552033 12.74026,5.2588897 L 11.671186,4.1898162 c -0.09622,-0.096223 -0.548023,0.196045 -1.126387,0.680355 A 4.1564315,4.1564303 0 0 0 9.5365481,4.4545504 C 9.4700839,3.7017326 9.3569695,3.1749373 9.2207387,3.1749373 Z m 2.7214189,6.5906702 v 1.9962275 1.996228 l 1.663264,-0.998114 1.663653,-0.998114 -1.663653,-0.998114 z" />
</svg>
