<?xml version="1.0" encoding="UTF-8" standalone="no"?>
<svg
   width="24"
   height="24"
   version="1.1"
   id="svg2"
   sodipodi:docname="ayatanawebmail-messages-new.svg"
   inkscape:version="1.4.3 (0d15f75042, 2025-12-25)"
   xmlns:inkscape="http://www.inkscape.org/namespaces/inkscape"
   xmlns:sodipodi="http://sodipodi.sourceforge.net/DTD/sodipodi-0.dtd"
   xmlns="http://www.w3.org/2000/svg"
   xmlns:svg="http://www.w3.org/2000/svg">
  <sodipodi:namedview
     id="namedview2"
     pagecolor="#505050"
     bordercolor="#eeeeee"
     borderopacity="1"
     inkscape:showpageshadow="0"
     inkscape:pageopacity="0"
     inkscape:pagecheckerboard="0"
     inkscape:deskcolor="#505050"
     inkscape:zoom="24.708333"
     inkscape:cx="4.7352445"
     inkscape:cy="19.952782"
     inkscape:window-width="2560"
     inkscape:window-height="1388"
     inkscape:window-x="0"
     inkscape:window-y="0"
     inkscape:window-maximized="1"
     inkscape:current-layer="svg2" />
  <defs
     id="defs1">
    <style
       id="current-color-scheme"
       type="text/css">.ColorScheme-Text {color:#d8dee9} .ColorScheme-Highlight {color:#3b4252}</style>
  </defs>
  <path
     id="path1"
     style="fill:currentColor;stroke-width:1.16667"
     class="ColorScheme-Text"
     d="M 4.9999998,5 C 3.7073332,5 2.6666665,6.0406667 2.6666665,7.3333333 V 16.666667 C 2.6666665,17.959333 3.7073332,19 4.9999998,19 H 17.833334 c -1.919168,0 -3.5,-1.580833 -3.5,-3.5 0,-1.919167 1.580832,-3.5 3.5,-3.5 1.919165,0 3.5,1.580833 3.5,3.5 V 7.3333333 C 21.333334,6.0406667 20.292667,5 19,5 Z m 0,2.3333333 L 12,10.833333 19,7.3333333 V 9.666667 l -7,3.5 -7.0000002,-3.5 z M 17.833334,13.166667 A 2.3333333,2.3333333 0 0 0 15.5,15.5 2.3333333,2.3333333 0 0 0 17.833334,17.833333 2.3333333,2.3333333 0 0 0 20.166666,15.5 2.3333333,2.3333333 0 0 0 17.833334,13.166667 Z" />
</svg>
