<?xml version="1.0" encoding="UTF-8" standalone="no"?>
<svg
   id="svg3297"
   height="64"
   width="64"
   version="1.0"
   sodipodi:docname="device_usb.svg"
   inkscape:version="1.4.2 (ebf0e940d0, 2025-05-08)"
   xmlns:inkscape="http://www.inkscape.org/namespaces/inkscape"
   xmlns:sodipodi="http://sodipodi.sourceforge.net/DTD/sodipodi-0.dtd"
   xmlns="http://www.w3.org/2000/svg"
   xmlns:svg="http://www.w3.org/2000/svg"
   xmlns:rdf="http://www.w3.org/1999/02/22-rdf-syntax-ns#"
   xmlns:cc="http://creativecommons.org/ns#"
   xmlns:dc="http://purl.org/dc/elements/1.1/">
  <sodipodi:namedview
     id="namedview1"
     pagecolor="#9c4444"
     bordercolor="#000000"
     borderopacity="0.25"
     inkscape:showpageshadow="2"
     inkscape:pageopacity="0.0"
     inkscape:pagecheckerboard="0"
     inkscape:deskcolor="#d1d1d1"
     inkscape:zoom="6.5468751"
     inkscape:cx="8.4009545"
     inkscape:cy="7.9427206"
     inkscape:window-width="2560"
     inkscape:window-height="1388"
     inkscape:window-x="0"
     inkscape:window-y="0"
     inkscape:window-maximized="1"
     inkscape:current-layer="svg3297" />
  <metadata
     id="metadata58">
    <rdf:RDF>
      <cc:Work
         rdf:about="">
        <dc:format>image/svg+xml</dc:format>
        <dc:type
           rdf:resource="http://purl.org/dc/dcmitype/StillImage" />
      </cc:Work>
    </rdf:RDF>
  </metadata>
  <defs
     id="defs3299">
    <style
       id="current-color-scheme"
       type="text/css">.ColorScheme-Text {color:#d8dee9} .ColorScheme-Highlight {color:#3b4252}</style>
  </defs>
  <path
     id="path5"
     style="opacity:1;fill:currentColor;fill-opacity:1;stroke-width:1;paint-order:fill markers stroke"
     d="M 32,12 A 20,20 0 0 0 12,32 20,20 0 0 0 32,52 20,20 0 0 0 52,32 20,20 0 0 0 32,12 Z m 0,4.375 2.890625,5.192871 h -1.950684 v 12.260742 l 2.957764,-2.751464 c 0.179366,-0.226474 0.305029,-0.51115 0.311279,-0.788575 v -2.11914 h -1.264648 v -4.42627 h 4.32251 v 4.42627 h -1.256104 v 2.086181 c 0,0.804681 -0.410559,1.557621 -0.900879,2.108154 0,0 -0.0063,0.01186 -0.01099,0.02319 v 0.0012 c 9.7e-5,0.0024 -9.8e-5,0.0068 0,0.0085 v 0.0012 l -0.01099,0.01099 v 0.01099 c 0,0 -0.02196,0.02319 -0.02197,0.02319 -8.1e-5,8e-4 -0.02007,0.03652 -0.02319,0.04517 v 0.0012 0.0012 h -0.0012 v 0.0012 h -0.0012 -0.0012 -0.0012 l -0.0012,-0.0012 h -0.0012 l -0.0012,-0.0012 -0.0012,-0.0012 h -0.0012 v 0.0012 0.0012 c 3.9e-5,5.9e-4 -1.2e-4,0.0018 0,0.0024 1.47e-4,6.22e-4 0.0011,0.0031 0.0012,0.0037 v 0.0012 0.0012 h -0.0012 l -0.0012,0.0012 c -0.0079,0.0062 -0.02285,0.01288 -0.03174,0.02197 -0.0033,0.0062 -0.007,0.01332 -0.01099,0.02197 -0.0073,0.007 -0.01882,0.01012 -0.03296,0.02319 -0.02815,0.02586 -0.07134,0.06333 -0.123291,0.111084 -0.103899,0.09626 -0.245371,0.235101 -0.422363,0.39917 -0.353985,0.328201 -0.830793,0.761387 -1.30127,1.19751 -0.929453,0.861823 -1.834189,1.7101 -1.856689,1.730956 -0.178367,0.224919 -0.304249,0.511325 -0.31128,0.788575 v 3.428955 c 7.81e-4,0.0113 1.69e-4,0.01412 0,0.01587 v 0.0012 0.0012 c -5.4e-5,6.36e-4 2.7e-5,0.0026 0,0.0037 -2.03e-4,0.0052 0,0.03184 0,0.02319 v 1.962891 c 1.115524,0.370817 1.923828,1.413002 1.923828,2.630615 0,1.528453 -1.265457,2.762451 -2.824707,2.762451 -1.558788,0 -2.824706,-1.233998 -2.824706,-2.762451 0,-1.217358 0.808945,-2.25971 1.923828,-2.630615 v -1.986085 c -0.0068,-0.277512 -0.134678,-0.585272 -0.31128,-0.809325 -0.04532,-0.04201 -3.724616,-3.462513 -3.736572,-3.472901 -0.0015,-0.001 -0.0035,-0.0016 -0.0049,-0.0024 l -0.0012,-0.0012 -0.0012,-0.0012 c -9.07e-4,-0.0013 -0.0027,-0.0039 -0.0037,-0.0061 -0.0095,-0.0092 -0.02232,-0.01416 -0.03052,-0.02075 l -0.0012,-0.0012 -0.0012,-0.0012 h -0.0012 v -0.0012 c 9.8e-5,-0.0023 0.0011,-0.0067 0.0012,-0.0085 v -0.0012 h -0.0012 l -0.0012,0.0012 -0.0012,0.0012 h -0.0012 -0.0012 v 0.0012 h -0.0012 -0.0012 -0.0012 v -0.0012 l -0.0012,-0.0012 -0.0012,-0.0012 c -0.003,-0.0033 -0.02188,-0.03409 -0.02197,-0.03418 0,0 -0.02196,-0.03418 -0.02197,-0.03418 v -0.01099 c -0.0057,-0.0062 -0.0055,-0.01332 -0.01099,-0.02197 -0.497867,-0.551653 -0.911865,-1.318128 -0.911865,-2.131348 v -2.27417 c -0.782759,-0.350258 -1.334229,-1.131299 -1.334229,-2.042236 v -0.0012 c 0,-1.23879 1.004594,-2.252197 2.246094,-2.252197 1.241499,0 2.25708,1.013407 2.25708,2.252197 0,0.923604 -0.566024,1.708517 -1.367187,2.052002 1.09e-4,0.584393 0,1.32978 0,2.286377 0.0066,0.277796 0.134068,0.585694 0.311279,0.810547 l 2.957764,2.740478 V 21.567871 h -2.03003 z"
     class="ColorScheme-Text" />
</svg>
