<?xml version="1.0" encoding="UTF-8" standalone="no"?>
<svg
   width="64"
   height="64"
   version="1.1"
   id="svg73"
   sodipodi:docname="folder-wine.svg"
   inkscape:version="1.4.3 (0d15f75042, 2025-12-25)"
   xmlns:inkscape="http://www.inkscape.org/namespaces/inkscape"
   xmlns:sodipodi="http://sodipodi.sourceforge.net/DTD/sodipodi-0.dtd"
   xmlns="http://www.w3.org/2000/svg"
   xmlns:svg="http://www.w3.org/2000/svg"
   xmlns:rdf="http://www.w3.org/1999/02/22-rdf-syntax-ns#"
   xmlns:cc="http://creativecommons.org/ns#"
   xmlns:dc="http://purl.org/dc/elements/1.1/">
  <metadata
     id="metadata77">
    <rdf:RDF>
      <cc:Work
         rdf:about="">
        <dc:format>image/svg+xml</dc:format>
        <dc:type
           rdf:resource="http://purl.org/dc/dcmitype/StillImage" />
      </cc:Work>
    </rdf:RDF>
  </metadata>
  <sodipodi:namedview
     pagecolor="#9c4444"
     bordercolor="#666666"
     borderopacity="1"
     objecttolerance="10"
     gridtolerance="10"
     guidetolerance="10"
     inkscape:pageopacity="0"
     inkscape:pageshadow="2"
     inkscape:window-width="2560"
     inkscape:window-height="1388"
     id="namedview75"
     showgrid="true"
     inkscape:zoom="17.788156"
     inkscape:cx="31.987576"
     inkscape:cy="27.546419"
     inkscape:window-x="0"
     inkscape:window-y="0"
     inkscape:window-maximized="1"
     inkscape:current-layer="svg73"
     inkscape:document-rotation="0"
     inkscape:pagecheckerboard="0"
     inkscape:showpageshadow="2"
     inkscape:deskcolor="#d1d1d1">
    <inkscape:grid
       id="grid1"
       units="px"
       originx="0"
       originy="0"
       spacingx="1"
       spacingy="1"
       empcolor="#0099e5"
       empopacity="0.30196078"
       color="#0099e5"
       opacity="0.14902"
       empspacing="5"
       enabled="true"
       visible="true" />
  </sodipodi:namedview>
  <defs
     id="defs29">
    <style
       id="current-color-scheme"
       type="text/css">.ColorScheme-Text {color:#d8dee9} .ColorScheme-Highlight {color:#3b4252}</style>
  </defs>
  <path
     id="path5"
     style="fill:currentColor"
     class="ColorScheme-Text"
     d="M 7 10 C 5.892 10 5 10.892 5 12 L 5 13 L 5 20 L 5 49 C 5 51.77 7.23 54 10 54 L 54 54 C 56.77 54 59 51.77 59 49 L 59 20 C 59 17.23 56.77 15 54 15 L 32 15 L 26.185547 10.386719 C 25.854392 10.143686 25.44406 10 25 10 L 7 10 z M 10 17 L 54 17 C 55.662 17 57 18.338 57 20 L 57 24 C 57 22.338 55.662 21 54 21 L 10 21 C 8.338 21 7 22.338 7 24 L 7 20 C 7 18.338 8.338 17 10 17 z M 42.113281 32.392578 C 43.176705 32.393925 44.380654 32.66711 45.513672 33.535156 L 43.822266 39.345703 C 43.822266 39.345703 41.930502 38.041227 40.525391 38.181641 C 39.120281 38.322056 37.269531 38.996094 37.269531 38.996094 L 38.960938 33.140625 C 38.960938 33.140625 40.340907 32.390378 42.113281 32.392578 z M 46.408203 34.148438 C 46.894376 34.498181 47.804307 35.118699 49.265625 35.287109 C 50.727052 35.455736 52.960938 34.523438 52.960938 34.523438 L 51.279297 40.351562 C 51.022912 40.437814 49.96839 41.047846 48.029297 41.160156 C 46.090097 41.272681 44.712891 39.923828 44.712891 39.923828 L 46.408203 34.148438 z M 39.839844 39.25 C 40.042308 39.23663 40.244662 39.23597 40.441406 39.25 C 42.015141 39.36231 43.271939 40.20972 43.542969 40.404297 L 41.833984 46.275391 C 41.833984 46.275391 39.934838 45.037973 38.585938 45.150391 C 37.236928 45.263131 36.069432 45.470003 35.291016 45.873047 L 36.972656 40.019531 C 36.972656 40.019531 38.422592 39.34359 39.839844 39.25 z M 44.427734 40.972656 C 44.427734 40.972656 46.22988 42.145297 47.410156 42.117188 C 48.572987 42.089406 49.377466 41.997309 50.955078 41.378906 C 50.963448 41.375596 50.981381 41.364375 50.988281 41.359375 C 50.935468 41.448973 49.298828 47.175781 49.298828 47.175781 C 49.298828 47.175781 47.438429 48.045037 45.751953 47.960938 C 44.065907 47.876625 43.054811 46.913232 42.746094 46.791016 L 44.427734 40.972656 z " />
</svg>
