<?xml version="1.0" encoding="UTF-8" standalone="no"?>
<svg
   width="64"
   height="64"
   version="1.1"
   id="svg73"
   sodipodi:docname="folder-music.svg"
   inkscape:version="1.4.3 (0d15f75042, 2025-12-25)"
   xmlns:inkscape="http://www.inkscape.org/namespaces/inkscape"
   xmlns:sodipodi="http://sodipodi.sourceforge.net/DTD/sodipodi-0.dtd"
   xmlns="http://www.w3.org/2000/svg"
   xmlns:svg="http://www.w3.org/2000/svg"
   xmlns:rdf="http://www.w3.org/1999/02/22-rdf-syntax-ns#"
   xmlns:cc="http://creativecommons.org/ns#"
   xmlns:dc="http://purl.org/dc/elements/1.1/">
  <metadata
     id="metadata77">
    <rdf:RDF>
      <cc:Work
         rdf:about="">
        <dc:format>image/svg+xml</dc:format>
        <dc:type
           rdf:resource="http://purl.org/dc/dcmitype/StillImage" />
      </cc:Work>
    </rdf:RDF>
  </metadata>
  <sodipodi:namedview
     pagecolor="#9c4444"
     bordercolor="#666666"
     borderopacity="1"
     objecttolerance="10"
     gridtolerance="10"
     guidetolerance="10"
     inkscape:pageopacity="0"
     inkscape:pageshadow="2"
     inkscape:window-width="2560"
     inkscape:window-height="1388"
     id="namedview75"
     showgrid="true"
     inkscape:zoom="17.788156"
     inkscape:cx="31.987576"
     inkscape:cy="32.605965"
     inkscape:window-x="0"
     inkscape:window-y="0"
     inkscape:window-maximized="1"
     inkscape:current-layer="svg73"
     inkscape:document-rotation="0"
     inkscape:pagecheckerboard="0"
     inkscape:showpageshadow="2"
     inkscape:deskcolor="#d1d1d1">
    <inkscape:grid
       id="grid1"
       units="px"
       originx="0"
       originy="0"
       spacingx="1"
       spacingy="1"
       empcolor="#0099e5"
       empopacity="0.30196078"
       color="#0099e5"
       opacity="0.14902"
       empspacing="5"
       enabled="true"
       visible="true" />
  </sodipodi:namedview>
  <defs
     id="defs29">
    <style
       id="current-color-scheme"
       type="text/css">.ColorScheme-Text {color:#d8dee9} .ColorScheme-Highlight {color:#3b4252}</style>
  </defs>
  <path
     id="path5"
     style="fill:currentColor"
     class="ColorScheme-Text"
     d="M 7 10 C 5.892 10 5 10.892 5 12 L 5 13 L 5 20 L 5 49 C 5 51.77 7.23 54 10 54 L 54 54 C 56.77 54 59 51.77 59 49 L 59 20 C 59 17.23 56.77 15 54 15 L 32 15 L 26.185547 10.386719 C 25.854392 10.143686 25.44406 10 25 10 L 7 10 z M 10 17 L 54 17 C 55.662 17 57 18.338 57 20 L 57 24 C 57 22.338 55.662 21 54 21 L 10 21 C 8.338 21 7 22.338 7 24 L 7 20 C 7 18.338 8.338 17 10 17 z M 52.328125 29.279297 C 52.747089 29.349885 53.056641 29.724774 53.056641 30.226562 L 53.056641 43.285156 C 52.918544 44.258974 52.39092 45.173612 51.134766 45.5 C 49.560231 45.909113 48.00939 45.227326 47.671875 44.005859 C 47.334358 42.784393 48.319998 41.461847 49.894531 41.052734 C 50.767085 40.826017 51.610305 40.965454 52.265625 41.308594 L 52.279297 33.169922 L 43.720703 35.503906 L 43.720703 45.619141 C 43.582606 46.592959 43.058887 47.507596 41.802734 47.833984 C 40.2282 48.243098 38.677361 47.56131 38.339844 46.339844 C 38.002328 45.118377 38.987966 43.795832 40.5625 43.386719 C 41.435054 43.160002 42.278273 43.297485 42.933594 43.640625 L 42.933594 33.033203 C 42.933594 32.36415 43.453355 31.675118 44.099609 31.501953 L 52.328125 29.279297 z " />
</svg>
