<?xml version="1.0" encoding="UTF-8" standalone="no"?>
<svg
   width="64"
   height="64"
   version="1.1"
   id="svg73"
   sodipodi:docname="folder-steam.svg"
   inkscape:version="1.4.3 (0d15f75042, 2025-12-25)"
   xmlns:inkscape="http://www.inkscape.org/namespaces/inkscape"
   xmlns:sodipodi="http://sodipodi.sourceforge.net/DTD/sodipodi-0.dtd"
   xmlns="http://www.w3.org/2000/svg"
   xmlns:svg="http://www.w3.org/2000/svg"
   xmlns:rdf="http://www.w3.org/1999/02/22-rdf-syntax-ns#"
   xmlns:cc="http://creativecommons.org/ns#"
   xmlns:dc="http://purl.org/dc/elements/1.1/">
  <metadata
     id="metadata77">
    <rdf:RDF>
      <cc:Work
         rdf:about="">
        <dc:format>image/svg+xml</dc:format>
        <dc:type
           rdf:resource="http://purl.org/dc/dcmitype/StillImage" />
      </cc:Work>
    </rdf:RDF>
  </metadata>
  <sodipodi:namedview
     pagecolor="#9c4444"
     bordercolor="#666666"
     borderopacity="1"
     objecttolerance="10"
     gridtolerance="10"
     guidetolerance="10"
     inkscape:pageopacity="0"
     inkscape:pageshadow="2"
     inkscape:window-width="2560"
     inkscape:window-height="1388"
     id="namedview75"
     showgrid="true"
     inkscape:zoom="17.788156"
     inkscape:cx="31.987576"
     inkscape:cy="32.605965"
     inkscape:window-x="0"
     inkscape:window-y="0"
     inkscape:window-maximized="1"
     inkscape:current-layer="svg73"
     inkscape:document-rotation="0"
     inkscape:pagecheckerboard="0"
     inkscape:showpageshadow="2"
     inkscape:deskcolor="#d1d1d1">
    <inkscape:grid
       id="grid1"
       units="px"
       originx="0"
       originy="0"
       spacingx="1"
       spacingy="1"
       empcolor="#0099e5"
       empopacity="0.30196078"
       color="#0099e5"
       opacity="0.14902"
       empspacing="5"
       enabled="true"
       visible="true" />
  </sodipodi:namedview>
  <defs
     id="defs29">
    <style
       id="current-color-scheme"
       type="text/css">.ColorScheme-Text {color:#d8dee9} .ColorScheme-Highlight {color:#3b4252}</style>
  </defs>
  <path
     id="path5"
     style="fill:currentColor"
     class="ColorScheme-Text"
     d="M 7 10 C 5.892 10 5 10.892 5 12 L 5 13 L 5 20 L 5 49 C 5 51.77 7.23 54 10 54 L 54 54 C 56.77 54 59 51.77 59 49 L 59 20 C 59 17.23 56.77 15 54 15 L 32 15 L 26.185547 10.386719 C 25.854392 10.143686 25.44406 10 25 10 L 7 10 z M 10 17 L 54 17 C 55.662 17 57 18.338 57 20 L 57 24 C 57 22.338 55.662 21 54 21 L 10 21 C 8.338 21 7 22.338 7 24 L 7 20 C 7 18.338 8.338 17 10 17 z M 48.912109 33.154297 C 49.293506 33.154458 49.640073 33.352821 50.087891 33.765625 C 51.769345 35.31554 52.936109 39.375952 52.980469 43.839844 C 53.004813 46.297182 52.910487 46.889148 52.396484 47.5 C 51.468691 48.602623 49.887057 47.685156 48.175781 45.054688 C 47.155806 43.486817 46.287474 43.068666 44.076172 43.072266 C 41.86046 43.075894 40.857618 43.501313 40.029297 44.791016 C 39.112645 46.218243 38.34706 47.120194 37.703125 47.529297 C 36.943474 48.011916 36.100895 48.078853 35.757812 47.685547 C 35.046096 46.869765 34.845223 45.42141 35.060547 42.671875 C 35.419597 38.086694 36.643588 34.576826 38.267578 33.482422 C 38.900136 33.056059 39.349788 33.062193 40.103516 33.503906 C 41.043474 34.054769 42.321436 34.322266 44.019531 34.322266 C 45.717789 34.322266 46.954794 34.059896 47.900391 33.505859 C 48.297759 33.273031 48.615486 33.154173 48.912109 33.154297 z M 39.304688 35.785156 L 39.304688 36.664062 L 39.304688 37.542969 L 38.425781 37.542969 L 37.546875 37.542969 L 37.546875 38.640625 L 37.546875 39.740234 L 38.425781 39.740234 L 39.304688 39.740234 L 39.304688 40.595703 C 39.304688 41.058327 39.349754 41.480672 39.402344 41.544922 L 39.404297 41.546875 C 39.469563 41.599315 39.925464 41.644531 40.427734 41.644531 L 41.355469 41.644531 L 41.355469 40.693359 L 41.355469 39.740234 L 42.234375 39.740234 L 43.115234 39.740234 L 43.115234 38.640625 L 43.115234 37.542969 L 42.234375 37.542969 L 41.355469 37.542969 L 41.355469 36.664062 L 41.355469 35.785156 L 40.330078 35.785156 L 39.304688 35.785156 z M 47.666016 35.785156 C 46.745415 35.785156 46.367301 36.967049 47.091797 37.580078 C 47.509485 37.933538 47.896181 37.900649 48.320312 37.476562 C 48.987227 36.809645 48.591307 35.785156 47.666016 35.785156 z M 45.886719 37.662109 C 45.378423 37.661764 44.873047 38.09964 44.873047 38.736328 C 44.873047 39.575238 46.087907 40.000102 46.59375 39.337891 C 46.85224 38.999528 46.81981 38.275665 46.533203 37.958984 C 46.349341 37.755838 46.117766 37.662269 45.886719 37.662109 z M 49.519531 37.699219 C 49.253254 37.694397 48.978574 37.772696 48.800781 37.933594 C 48.645251 38.074372 48.533203 38.375949 48.533203 38.654297 C 48.533203 39.572557 49.715868 40.04419 50.253906 39.339844 C 50.512378 39.001476 50.481919 38.275665 50.195312 37.958984 C 50.044284 37.792098 49.785804 37.704219 49.519531 37.699219 z M 47.730469 39.59375 C 46.882513 39.59375 46.455515 40.298163 46.845703 41.052734 C 47.043598 41.435426 47.158839 41.498047 47.650391 41.498047 C 48.077351 41.498047 48.283458 41.41411 48.453125 41.171875 C 48.949417 40.463317 48.550785 39.59375 47.730469 39.59375 z " />
</svg>
