<?xml version='1.0' encoding='UTF-8'?>
<svg xmlns:inkscape="http://www.inkscape.org/namespaces/inkscape" xmlns:sodipodi="http://sodipodi.sourceforge.net/DTD/sodipodi-0.dtd" xmlns="http://www.w3.org/2000/svg" xmlns:svg="http://www.w3.org/2000/svg" xmlns:rdf="http://www.w3.org/1999/02/22-rdf-syntax-ns#" xmlns:cc="http://creativecommons.org/ns#" xmlns:dc="http://purl.org/dc/elements/1.1/" width="64" height="64" version="1.1" viewBox="0 0 16.933 16.933" id="svg7" sodipodi:docname="4kvideodownloader.svg" inkscape:version="1.4 (e7c3feb100, 2024-10-09)">
  <sodipodi:namedview id="namedview7" pagecolor="#9c4444" bordercolor="#000000" borderopacity="0.25" inkscape:showpageshadow="2" inkscape:pageopacity="0.0" inkscape:pagecheckerboard="0" inkscape:deskcolor="#d1d1d1" inkscape:zoom="6.15625" inkscape:cx="15.837563" inkscape:cy="29.807107" inkscape:window-width="1183" inkscape:window-height="940" inkscape:window-x="35" inkscape:window-y="32" inkscape:window-maximized="0" inkscape:current-layer="svg7" showgrid="false"/>
  <defs id="defs2">
    <style id="current-color-scheme" type="text/css">.ColorScheme-Text {color:#d8dee9} .ColorScheme-Highlight {color:#3b4252}</style></defs>
  <metadata id="metadata2">
    <rdf:RDF>
      <cc:Work rdf:about="">
        <dc:format>image/svg+xml</dc:format>
        <dc:type rdf:resource="http://purl.org/dc/dcmitype/StillImage"/>
      </cc:Work>
    </rdf:RDF>
  </metadata>
  <path id="path9" style="fill:currentColor;stroke-width:0.0222919" d="M 9.3331901,2.3458917 C 9.2637432,2.3449566 9.1939144,2.3458784 9.1239537,2.3485137 8.4437934,2.3740017 7.8695408,2.5368594 7.2851787,2.8697742 6.7147068,3.1947756 6.2189462,3.67564 5.8622678,4.2504208 L 5.7553016,4.4226102 5.5147584,4.4857472 C 5.0740154,4.6006884 4.6839117,4.8196285 4.3438697,5.1426752 3.9439374,5.5226186 3.6692515,6.024322 3.5617123,6.5718474 c -0.022447,0.1142907 -0.035593,0.1393175 -0.071486,0.1393175 -0.024067,0 -0.1452322,0.020661 -0.2697636,0.045917 C 2.554235,6.8922007 2.0057308,7.1834285 1.5032652,7.6686429 0.07867463,9.0443231 0.1305794,11.348965 1.6154488,12.666834 c 0.4964457,0.44061 1.1057291,0.728411 1.7594633,0.830682 0.1657769,0.02594 1.016343,0.03063 5.169858,0.02711 l 4.9710589,-0.0042 0.206627,-0.04799 c 0.929795,-0.215549 1.659201,-0.70814 2.169589,-1.46456 0.53644,-0.795038 0.706295,-1.795024 0.466477,-2.7445963 -0.258231,-1.022553 -1.005066,-1.8873302 -1.992183,-2.3068909 -0.244188,-0.1037894 -0.645646,-0.2124732 -0.863555,-0.23376 -0.269139,-0.026292 -0.243674,0.01178 -0.243674,-0.35638 0,-1.0994918 -0.404154,-2.0862321 -1.169845,-2.8552144 C 11.352997,2.7716164 10.3749,2.359901 9.3331901,2.345902 Z M 5.2564739,6.6000149 H 8.4665028 11.67653 V 9.2746913 11.949888 H 8.4665028 5.2564739 V 9.2746913 Z m 1.6274513,0.8244224 v 0.646493 0.6464933 H 8.4665028 10.04908 V 8.0709303 7.4244373 H 8.4665028 Z m 0,2.1179304 v 0.7915503 0.791027 H 8.4665028 10.04908 V 10.333918 9.5423677 H 8.4665028 Z" class="ColorScheme-Text"/>
  </svg>
