<?xml version="1.0" encoding="UTF-8" standalone="no"?>
<svg
   width="64"
   height="64"
   version="1.1"
   viewBox="0 0 16.933 16.933"
   id="svg7"
   sodipodi:docname="antigravity copy.svg"
   inkscape:version="1.4.3 (0d15f75042, 2025-12-25)"
   xmlns:inkscape="http://www.inkscape.org/namespaces/inkscape"
   xmlns:sodipodi="http://sodipodi.sourceforge.net/DTD/sodipodi-0.dtd"
   xmlns="http://www.w3.org/2000/svg"
   xmlns:svg="http://www.w3.org/2000/svg"
   xmlns:rdf="http://www.w3.org/1999/02/22-rdf-syntax-ns#"
   xmlns:cc="http://creativecommons.org/ns#"
   xmlns:dc="http://purl.org/dc/elements/1.1/">
  <sodipodi:namedview
     id="namedview7"
     pagecolor="#9c4444"
     bordercolor="#000000"
     borderopacity="0.25"
     inkscape:showpageshadow="2"
     inkscape:pageopacity="0.0"
     inkscape:pagecheckerboard="0"
     inkscape:deskcolor="#d1d1d1"
     inkscape:zoom="3.0781251"
     inkscape:cx="81.380708"
     inkscape:cy="63.999998"
     inkscape:window-width="2560"
     inkscape:window-height="1388"
     inkscape:window-x="0"
     inkscape:window-y="0"
     inkscape:window-maximized="1"
     inkscape:current-layer="svg7"
     showgrid="false" />
  <defs
     id="defs2">
    <style
       id="current-color-scheme"
       type="text/css">.ColorScheme-Text {color:#d8dee9} .ColorScheme-Highlight {color:#3b4252}</style>
  </defs>
  <metadata
     id="metadata2">
    <rdf:RDF>
      <cc:Work
         rdf:about="">
        <dc:format>image/svg+xml</dc:format>
        <dc:type
           rdf:resource="http://purl.org/dc/dcmitype/StillImage" />
      </cc:Work>
    </rdf:RDF>
  </metadata>
  <path
     id="path5"
     style="fill:currentColor;fill-opacity:1;stroke-width:0.027388"
     d="m 4.1939767,1.4551795 c -1.512597,0 -2.738797,1.2262 -2.738797,2.738797 v 8.5450475 c 0,1.512582 1.2262,2.738797 2.738797,2.738797 h 8.5450463 c 1.512582,0 2.738797,-1.226216 2.738797,-2.738797 V 4.1939765 c 0,-1.512597 -1.226215,-2.738797 -2.738797,-2.738797 z m 3.866037,2.327977 h 0.794679 c 0.09142,0 0.165558,0.07779 0.165558,0.173743 v 3.300785 c 0,0.09597 0.07414,0.173743 0.1655581,0.173743 h 0.274254 c 0.134667,0 0.212994,0.15968 0.134747,0.274682 l -1.00271,1.47312 c -0.06601,0.09698 -0.203407,0.09698 -0.26944,0 l -1.00271,-1.47312 c -0.07827,-0.115002 5.5e-5,-0.274682 0.134693,-0.274682 h 0.274308 c 0.09145,0 0.165558,-0.07778 0.165558,-0.173743 v -3.300785 c 0,-0.09595 0.07408,-0.173743 0.1655049,-0.173743 z m -1.371538,0.607724 c 0.08355,0.0019 0.165695,0.04035 0.22151,0.112495 0.09923,0.128284 0.07768,0.3143 -0.04804,0.415526 l -0.426813,0.343687 c -0.125711,0.101226 -0.308063,0.07934 -0.407289,-0.04894 -0.09923,-0.128258 -0.07776,-0.314301 0.04798,-0.415527 l 0.426814,-0.343687 c 0.05501,-0.04429 0.120851,-0.06499 0.185832,-0.06355 z m 3.5845063,0 c 0.06498,-0.0014 0.130821,0.01926 0.185832,0.06355 l 0.426813,0.343687 c 0.12574,0.101226 0.147209,0.287269 0.04798,0.415527 -0.09923,0.128285 -0.281526,0.150171 -0.407236,0.04894 l -0.426867,-0.343687 c -0.1257113,-0.101226 -0.1472093,-0.287242 -0.04798,-0.415526 0.05581,-0.07215 0.137912,-0.110635 0.221458,-0.112495 z m -5.3061513,1.743362 c 0.03766,-9.42e-4 0.0761,0.0056 0.11335,0.0206 0.149018,0.05992 0.222193,0.231749 0.163419,0.383752 l -0.199419,0.516093 c -0.05878,0.152003 -0.22722,0.226633 -0.37621,0.166681 -0.148991,-0.05992 -0.222112,-0.231749 -0.163365,-0.383753 l 0.199419,-0.516092 c 0.04406,-0.114002 0.149832,-0.184452 0.262806,-0.187276 z m 7.0278503,0 c 0.112974,0.0028 0.218693,0.07327 0.262752,0.187276 l 0.199472,0.516092 c 0.05875,0.152004 -0.01443,0.323828 -0.163418,0.383753 -0.148991,0.05995 -0.317382,-0.01468 -0.376157,-0.166681 l -0.199418,-0.516093 c -0.05877,-0.152003 0.01435,-0.323827 0.163364,-0.383752 0.03725,-0.01499 0.07575,-0.02154 0.113405,-0.0206 z m -8.2115243,2.323164 h 1.40251 c 0.50687,0 0.901718,0.426055 1.09568,0.894335 0.117439,0.283547 0.289602,0.541201 0.506624,0.7582505 0.217022,0.216995 0.474649,0.389157 0.758197,0.506625 0.283548,0.117439 0.587479,0.177861 0.894389,0.177861 0.306909,0 0.610787,-0.06042 0.894335,-0.177861 0.283547,-0.117468 0.541228,-0.28963 0.7582503,-0.506625 0.217022,-0.2170495 0.389157,-0.4747035 0.506623,-0.7582505 0.193962,-0.46828 0.58881,-0.894335 1.09568,-0.894335 h 1.436104 c 0,0.613819 -0.12087,1.221628 -0.355776,1.7887235 -0.19991,0.482608 -0.479027,0.927672 -0.825277,1.317083 -0.597331,-0.591184 -1.523229,-0.544216 -2.2250583,-0.234295 -0.395748,0.174748 -0.827065,0.267514 -1.268085,0.267514 -0.441019,0 -0.872372,-0.09277 -1.268084,-0.267514 -0.35135,-0.155152 -0.754154,-0.24373 -1.143662,-0.221565 -0.39316,0.02237 -0.779543,0.157141 -1.081397,0.45586 C 4.6179657,11.173805 4.3388357,10.728732 4.1389337,10.24613 3.9040317,9.6790345 3.7831567,9.0712255 3.7831567,8.4574065 Z m 7.0703763,2.9233445 c 0.340397,0.01937 0.662719,0.135501 0.908991,0.381774 -0.876579,0.876579 -2.0654823,1.369024 -3.3051713,1.369024 -1.239661,0 -2.428592,-0.492445 -3.305171,-1.369024 0.246272,-0.246273 0.568593,-0.36235 0.908991,-0.38172 0.340398,-0.01937 0.69887,0.05798 1.017474,0.19867 0.430238,0.18999 0.89928,0.290836 1.378706,0.290836 0.479427,0 0.948441,-0.100846 1.378706,-0.290836 0.3186043,-0.140692 0.6770763,-0.218091 1.0174743,-0.198724 z"
     class="ColorScheme-Text" />
</svg>
