<?xml version='1.0' encoding='UTF-8'?>
<svg xmlns:inkscape="http://www.inkscape.org/namespaces/inkscape" xmlns:sodipodi="http://sodipodi.sourceforge.net/DTD/sodipodi-0.dtd" xmlns="http://www.w3.org/2000/svg" xmlns:svg="http://www.w3.org/2000/svg" xmlns:rdf="http://www.w3.org/1999/02/22-rdf-syntax-ns#" xmlns:cc="http://creativecommons.org/ns#" xmlns:dc="http://purl.org/dc/elements/1.1/" width="64" height="64" version="1.1" viewBox="0 0 16.933 16.933" id="svg7" sodipodi:docname="amarok.svg" inkscape:version="1.4 (e7c3feb100, 2024-10-09)">
  <sodipodi:namedview id="namedview7" pagecolor="#9c4444" bordercolor="#000000" borderopacity="0.25" inkscape:showpageshadow="2" inkscape:pageopacity="0.0" inkscape:pagecheckerboard="0" inkscape:deskcolor="#d1d1d1" inkscape:zoom="6.15625" inkscape:cx="15.756345" inkscape:cy="29.563452" inkscape:window-width="1226" inkscape:window-height="669" inkscape:window-x="35" inkscape:window-y="32" inkscape:window-maximized="0" inkscape:current-layer="svg7" showgrid="false"/>
  <defs id="defs2">
    <style id="current-color-scheme" type="text/css">.ColorScheme-Text {color:#d8dee9} .ColorScheme-Highlight {color:#3b4252}</style></defs>
  <metadata id="metadata2">
    <rdf:RDF>
      <cc:Work rdf:about="">
        <dc:format>image/svg+xml</dc:format>
        <dc:type rdf:resource="http://purl.org/dc/dcmitype/StillImage"/>
      </cc:Work>
    </rdf:RDF>
  </metadata>
  <path style="fill:currentColor;stroke-width:0.0178596" d="M 8.1742432,16.033176 C 7.4351767,15.978315 6.727929,15.80744 6.0703215,15.524863 5.584491,15.3161 4.7307155,14.799667 4.168277,14.374358 3.1995766,13.641832 2.5869195,12.889122 2.4367805,12.247046 2.4047161,12.109923 2.4027743,12.047323 2.4277935,11.957239 2.4582866,11.847438 2.6159448,11.631579 2.8270478,11.410584 3.182107,11.038887 3.19923,11.007535 3.0743763,10.957702 2.9608125,10.912378 2.7203998,10.703518 2.3191789,10.301625 1.7557187,9.737223 1.3166076,9.2104294 1.2379695,9.0045165 1.2083599,8.926987 1.2084777,8.9231034 1.2411425,8.8986504 1.2597815,8.8846854 1.5482837,8.7431601 1.8822579,8.5841377 2.2162287,8.4251153 2.6421791,8.2182072 2.8288121,8.1243415 L 3.1681342,7.9536754 3.5789047,7.5504471 C 3.9617048,7.1746759 4.184779,6.9760676 4.2790002,6.9271337 4.3006146,6.9159102 4.409108,6.8911226 4.5201047,6.8720555 4.8750139,6.8110788 5.2762173,6.6760977 5.4547272,6.5576097 5.6012564,6.4603496 5.8413136,6.2452451 6.4989458,5.6219365 7.2748138,4.886562 7.3620088,4.8095628 7.490152,4.7466274 7.7034192,4.6418842 8.0613591,4.6001108 8.712297,4.6039982 c 0.5195383,0.00304 0.5657486,-0.00477 0.7500279,-0.127832 0.060196,-0.0402 0.146167,-0.118484 0.1910556,-0.1739735 0.044884,-0.05549 0.1391009,-0.1520551 0.2093627,-0.2145906 0.4682848,-0.416787 1.8023868,-1.4145004 2.4319138,-1.8187134 0.04896,-0.031434 0.233683,-0.1909022 0.410492,-0.3543649 0.47082,-0.4352767 0.698204,-0.5969121 0.840362,-0.5973674 0.0772,-2.462e-4 0.136895,0.067408 0.414371,0.4694374 0.345302,0.5002915 0.416641,0.6670125 0.389266,0.909716 -0.01748,0.1550153 -0.06042,0.2608753 -0.251879,0.621277 -0.347964,0.6549502 -0.777603,1.5604909 -0.957362,2.017801 -0.142576,0.3627559 -0.173964,0.5352984 -0.108148,0.5948468 0.09492,0.085899 0.296586,0.1219496 0.682198,0.1219496 0.499214,0 0.535684,-0.0084 0.982553,-0.2259567 0.211191,-0.1028242 0.417992,-0.192036 0.459563,-0.1982496 0.06865,-0.01026 0.08041,-0.00612 0.128174,0.045007 0.09264,0.099189 0.169081,0.3842554 0.18962,0.7071893 0.02016,0.3172346 -0.04556,0.3899676 -0.446956,0.4947015 -0.771716,0.2013568 -2.232926,1.2829106 -2.736812,2.0257209 -0.237916,0.3507282 -0.396298,0.90826 -0.547312,1.9266124 -0.137921,0.929893 -0.277755,2.596212 -0.313296,3.732651 -0.01958,0.625701 -0.03815,0.778531 -0.1151,0.946599 -0.02397,0.05235 -0.06397,0.108528 -0.08892,0.124906 -0.104067,0.06819 -0.847388,0.243769 -1.395689,0.329679 -0.4418195,0.06922 -1.2313387,0.103645 -1.6555196,0.07214 z M 7.0357342,7.934043 C 7.0695676,7.9095315 7.2660208,7.7176195 7.4722987,7.507565 7.8700876,7.1024936 8.0266812,6.9721796 8.154255,6.9400563 8.3519514,6.8902761 8.6276383,6.6316405 8.7491365,6.3819697 8.7878623,6.3023996 8.8239908,6.2091666 8.8294286,6.1747869 8.8469276,6.06411 8.8331716,6.0583872 8.5578063,6.0613227 8.2719735,6.0643627 8.1050819,6.1002252 7.8933178,6.2040963 7.6708458,6.3132152 7.4388009,6.582293 7.2255191,6.9784682 7.0145197,7.3704059 6.8475559,7.9326836 6.9320475,7.966777 6.9684781,7.981464 6.9716264,7.980495 7.0357362,7.93404 Z" id="path6" class="ColorScheme-Text"/>
  </svg>
