<?xml version='1.0' encoding='UTF-8'?>
<svg xmlns:inkscape="http://www.inkscape.org/namespaces/inkscape" xmlns:sodipodi="http://sodipodi.sourceforge.net/DTD/sodipodi-0.dtd" xmlns="http://www.w3.org/2000/svg" xmlns:svg="http://www.w3.org/2000/svg" xmlns:rdf="http://www.w3.org/1999/02/22-rdf-syntax-ns#" xmlns:cc="http://creativecommons.org/ns#" xmlns:dc="http://purl.org/dc/elements/1.1/" width="64" height="64" version="1.1" viewBox="0 0 16.933 16.933" id="svg7" sodipodi:docname="anydesk.svg" inkscape:version="1.4 (e7c3feb100, 2024-10-09)">
  <sodipodi:namedview id="namedview7" pagecolor="#9c4444" bordercolor="#000000" borderopacity="0.25" inkscape:showpageshadow="2" inkscape:pageopacity="0.0" inkscape:pagecheckerboard="0" inkscape:deskcolor="#d1d1d1" inkscape:zoom="6.15625" inkscape:cx="15.756345" inkscape:cy="29.563452" inkscape:window-width="1226" inkscape:window-height="669" inkscape:window-x="35" inkscape:window-y="32" inkscape:window-maximized="0" inkscape:current-layer="svg7" showgrid="false"/>
  <defs id="defs2">
    <style id="current-color-scheme" type="text/css">.ColorScheme-Text {color:#d8dee9} .ColorScheme-Highlight {color:#3b4252}</style></defs>
  <metadata id="metadata2">
    <rdf:RDF>
      <cc:Work rdf:about="">
        <dc:format>image/svg+xml</dc:format>
        <dc:type rdf:resource="http://purl.org/dc/dcmitype/StillImage"/>
      </cc:Work>
    </rdf:RDF>
  </metadata>
  <path id="path6" style="fill:currentColor;fill-opacity:1;stroke:none;stroke-width:0.0495193;stroke-dasharray:none;stroke-opacity:1" d="M 6.5417074,2.323573 C 6.2449611,2.3237811 6.1928745,2.3328225 6.0265123,2.4169451 5.8735329,2.4943014 5.3868688,2.9650348 3.2204005,5.1313323 0.23005424,8.121443 0.40173788,7.9192339 0.40275524,8.4636239 c 4.9626e-4,0.2558164 0.01368,0.326594 0.09612,0.5113507 0.0898704,0.2014014 0.2511009,0.3704576 2.62376086,2.7506354 1.3903612,1.39477 2.6008308,2.58999 2.6902202,2.656169 0.08939,0.06617 0.2379193,0.147258 0.3300988,0.180153 0.1263996,0.04511 0.2413922,0.0572 0.4668609,0.04943 0.4550992,-0.01566 0.574216,-0.08644 1.2193324,-0.722263 L 8.357524,13.368964 7.9955691,13.004815 7.6330647,12.64066 7.1837791,13.085554 6.7344939,13.530992 H 6.5565373 6.3780316 L 3.9591407,11.11265 C 2.1995134,9.3536292 1.5302761,8.6646463 1.5034495,8.5833601 1.4235581,8.3412862 1.3724055,8.3987686 3.9421138,5.8299764 6.0724159,3.7004337 6.359737,3.4251975 6.46701,3.4077898 6.6828816,3.3727582 6.7559022,3.4176466 7.2030028,3.8603707 L 7.6336139,4.2865878 7.9873301,3.9312237 8.3415958,3.5758602 7.7885019,3.0293578 C 7.1140747,2.3632887 7.0427972,2.3232353 6.5417074,2.323573 Z M 10.364478,2.5202041 C 10.042293,2.5223101 9.8833903,2.7033445 7.3397661,5.2406328 5.3638306,7.2116463 4.7173848,7.875817 4.6528416,8.0011564 4.5382518,8.2236796 4.5152766,8.5363581 4.5946206,8.7981165 c 0.058027,0.1914258 0.085144,0.2196565 2.6704471,2.8121535 2.4786574,2.485555 2.7068571,2.700502 2.9577043,2.783043 0.145958,0.04804 0.532466,0.0117 0.70963,-0.06647 0.137518,-0.06068 0.593873,-0.500702 2.733612,-2.638035 2.88934,-2.8860878 2.778563,-2.757584 2.777551,-3.222983 -0.0011,-0.4707931 0.131755,-0.3167181 -2.763821,-3.2081611 -2.864737,-2.8606554 -2.713117,-2.7287966 -3.159828,-2.7336112 -0.06014,-6.493e-4 -0.10941,-0.00414 -0.155437,-0.00383 z" class="ColorScheme-Text"/>
  </svg>
