<?xml version="1.0" encoding="UTF-8" standalone="no"?>
<svg
   width="64"
   height="64"
   version="1.1"
   viewBox="0 0 16.933 16.933"
   id="svg7"
   sodipodi:docname="audiotube.svg"
   inkscape:version="1.4.3 (0d15f75042, 2025-12-25)"
   xmlns:inkscape="http://www.inkscape.org/namespaces/inkscape"
   xmlns:sodipodi="http://sodipodi.sourceforge.net/DTD/sodipodi-0.dtd"
   xmlns="http://www.w3.org/2000/svg"
   xmlns:svg="http://www.w3.org/2000/svg"
   xmlns:rdf="http://www.w3.org/1999/02/22-rdf-syntax-ns#"
   xmlns:cc="http://creativecommons.org/ns#"
   xmlns:dc="http://purl.org/dc/elements/1.1/">
  <sodipodi:namedview
     id="namedview7"
     pagecolor="#9c4444"
     bordercolor="#000000"
     borderopacity="0.25"
     inkscape:showpageshadow="2"
     inkscape:pageopacity="0.0"
     inkscape:pagecheckerboard="0"
     inkscape:deskcolor="#d1d1d1"
     inkscape:zoom="4.3531262"
     inkscape:cx="90.165086"
     inkscape:cy="34.457995"
     inkscape:window-width="2560"
     inkscape:window-height="1388"
     inkscape:window-x="0"
     inkscape:window-y="0"
     inkscape:window-maximized="1"
     inkscape:current-layer="svg7"
     showgrid="false" />
  <defs
     id="defs2">
    <style
       id="current-color-scheme"
       type="text/css">.ColorScheme-Text {color:#d8dee9} .ColorScheme-Highlight {color:#3b4252}</style>
  </defs>
  <metadata
     id="metadata2">
    <rdf:RDF>
      <cc:Work
         rdf:about="">
        <dc:format>image/svg+xml</dc:format>
        <dc:type
           rdf:resource="http://purl.org/dc/dcmitype/StillImage" />
      </cc:Work>
    </rdf:RDF>
  </metadata>
  <path
     id="path5"
     d="m 3.4330825,1.4551797 c -1.19516,0 -2.15733,0.9621688 -2.15733,2.1573293 v 4.5204197 h 1.448754 c 0.173227,-3.0184176 2.680517,-5.4207114 5.741642,-5.4207114 3.0611265,0 5.5717515,2.4022938 5.7451535,5.4207114 h 1.445946 V 3.612509 c 0,-1.1951605 -0.96217,-2.1573293 -2.157331,-2.1573293 z m 5.033066,1.9606978 c -2.68091,0 -4.866112,2.0800553 -5.037279,4.7170512 h 1.262656 a 0.17938109,0.17938109 0 0 1 0.02317,0.0014 0.17938109,0.17938109 0 0 1 0.06671,0.022472 0.17938109,0.17938109 0 0 1 0.01966,0.013345 0.17938109,0.17938109 0 0 1 0.01756,0.01545 0.17938109,0.17938109 0 0 1 0.01545,0.017557 0.17938109,0.17938109 0 0 1 0.02388,0.04073 0.17938109,0.17938109 0 0 1 0.01332,0.068821 v 0.3595548 a 0.17938109,0.17938109 0 0 1 -0.0014,0.023175 0.17938109,0.17938109 0 0 1 -0.0049,0.023175 0.17938109,0.17938109 0 0 1 -0.0071,0.022472 0.17938109,0.17938109 0 0 1 -0.02388,0.04073 0.17938109,0.17938109 0 0 1 -0.05267,0.046348 0.17938109,0.17938109 0 0 1 -0.04354,0.017557 0.17938109,0.17938109 0 0 1 -0.02317,0.00492 0.17938109,0.17938109 0 0 1 -0.02317,0.00141 h -1.259145 c 0.196156,2.6124515 2.37039,4.6657865 5.033768,4.6657865 2.6633795,0 4.8401985,-2.053335 5.0365785,-4.6657865 h -0.541439 a 0.17938109,0.17938109 0 0 1 -0.02317,-0.0014 0.17938109,0.17938109 0 0 1 -0.02317,-0.00492 0.17938109,0.17938109 0 0 1 -0.04354,-0.017557 0.17938109,0.17938109 0 0 1 -0.01966,-0.013345 0.17938109,0.17938109 0 0 1 -0.01756,-0.01545 0.17938109,0.17938109 0 0 1 -0.01545,-0.017557 0.17938109,0.17938109 0 0 1 -0.01332,-0.019663 0.17938109,0.17938109 0 0 1 -0.02248,-0.066715 0.17938109,0.17938109 0 0 1 -0.0014,-0.023175 V 8.3127086 a 0.17938109,0.17938109 0 0 1 0.0014,-0.023175 0.17938109,0.17938109 0 0 1 0.01196,-0.045647 0.17938109,0.17938109 0 0 1 0.0106,-0.021068 0.17938109,0.17938109 0 0 1 0.01332,-0.019663 0.17938109,0.17938109 0 0 1 0.01545,-0.017557 0.17938109,0.17938109 0 0 1 0.01756,-0.01545 0.17938109,0.17938109 0 0 1 0.06321,-0.0309 0.17938109,0.17938109 0 0 1 0.02317,-0.00492 0.17938109,0.17938109 0 0 1 0.02317,-0.0014 h 0.544962 c -0.171457,-2.637 -2.359272,-4.7170553 -5.0401825,-4.7170553 z m -1.97685,1.4810571 h 0.359556 c 0.0996,0 0.179778,0.080182 0.179778,0.1797775 v 6.8315429 c 0,0.0996 -0.08018,0.179778 -0.179778,0.179778 h -0.359556 c -0.01867,0 -0.03646,-0.0025 -0.05337,-0.0077 -0.0056,-0.0017 -0.01141,-0.004 -0.01685,-0.0063 -0.01074,-0.0045 -0.02063,-0.01041 -0.0302,-0.01685 -0.01912,-0.0129 -0.03557,-0.02933 -0.04846,-0.04846 -0.0065,-0.0096 -0.01237,-0.01944 -0.01685,-0.0302 -0.0023,-0.0054 -0.0046,-0.01121 -0.0064,-0.01685 -0.0018,-0.0056 -0.003,-0.01099 -0.0042,-0.01685 -0.0012,-0.0059 -0.0022,-0.0122 -0.0029,-0.01826 -6.1e-4,-0.0061 -7.01e-4,-0.01204 -7.01e-4,-0.01827 V 5.0767085 c 0,-0.00622 9.1e-5,-0.012204 7.03e-4,-0.018259 0.0031,-0.030292 0.01408,-0.058261 0.0302,-0.082164 0.0064,-0.00957 0.01364,-0.018562 0.02177,-0.026686 0.0041,-0.00406 0.0082,-0.00828 0.01264,-0.011945 0.0088,-0.00731 0.01861,-0.01344 0.0288,-0.018962 0.01529,-0.00829 0.03157,-0.014678 0.04915,-0.018259 0.01169,-0.00239 0.02407,-0.00351 0.03652,-0.00351 z m 1.078666,0.7191098 h 0.359555 c 0.0996,0 0.179777,0.080182 0.179777,0.1797775 v 5.3933241 c 0,0.0996 -0.08018,0.179777 -0.179777,0.179777 h -0.359555 c -0.0063,0 -0.01223,-9.1e-5 -0.01826,-7.02e-4 -0.0061,-6.12e-4 -0.01237,-0.0016 -0.01826,-0.0028 -0.0058,-0.0012 -0.01128,-0.0025 -0.01685,-0.0042 -0.01691,-0.0052 -0.03271,-0.01351 -0.04705,-0.02318 -0.0048,-0.0032 -0.0096,-0.0062 -0.01405,-0.0098 -0.0045,-0.0037 -0.0086,-0.0079 -0.01264,-0.01193 -0.01223,-0.01219 -0.02261,-0.02615 -0.0309,-0.04143 -0.0027,-0.0051 -0.0054,-0.01007 -0.0077,-0.01545 -0.0023,-0.0054 -0.0046,-0.01121 -0.0063,-0.01685 -0.0035,-0.01127 -0.0058,-0.023 -0.0071,-0.03511 -6.11e-4,-0.0061 -7.01e-4,-0.01204 -7.01e-4,-0.01826 V 5.7958318 c 0,-0.012448 0.0011,-0.024793 0.0035,-0.036517 0.0012,-0.00586 0.0024,-0.011211 0.0042,-0.016854 0.0018,-0.00564 0.0041,-0.01147 0.0063,-0.016854 0.0045,-0.010763 0.01046,-0.020636 0.01685,-0.030196 0.01291,-0.019122 0.02934,-0.035559 0.04846,-0.048456 0.01434,-0.00968 0.03014,-0.017937 0.04705,-0.023175 0.0056,-0.00174 0.01101,-0.00302 0.01685,-0.00421 0.01169,-0.00239 0.02407,-0.00351 0.03651,-0.00351 z m 1.078664,0.7191099 h 0.359555 c 0.0996,0 0.179777,0.080182 0.179777,0.1797774 v 3.9551043 c 0,0.09959 -0.08018,0.179777 -0.179777,0.179777 h -0.359555 c -0.0063,0 -0.01223,-9.1e-5 -0.01826,-7.02e-4 -0.03029,-0.0031 -0.05826,-0.01408 -0.08216,-0.0302 -0.0095,-0.0065 -0.01856,-0.01365 -0.02669,-0.02177 -0.01625,-0.01625 -0.02955,-0.03536 -0.03862,-0.05688 -0.0091,-0.02152 -0.01405,-0.04533 -0.01405,-0.07023 V 6.5149307 c 0,-0.00622 9.1e-5,-0.012204 7.02e-4,-0.018259 6.12e-4,-0.00606 0.0016,-0.012394 0.0029,-0.018259 0.0012,-0.00586 0.0024,-0.011211 0.0042,-0.016854 0.0018,-0.00564 0.0041,-0.01147 0.0063,-0.016854 0.0045,-0.010763 0.01046,-0.020636 0.01685,-0.030198 0.0065,-0.00957 0.01364,-0.018562 0.02177,-0.026686 0.0041,-0.00406 0.0082,-0.00828 0.01264,-0.011932 0.0045,-0.00366 0.0092,-0.0066 0.01404,-0.00983 0.0095,-0.00646 0.01943,-0.012312 0.0302,-0.016854 0.0054,-0.00227 0.01128,-0.00458 0.01685,-0.00632 0.0056,-0.00174 0.01101,-0.00302 0.01685,-0.00421 0.01169,-0.00239 0.02407,-0.00351 0.03652,-0.00351 z m 1.078666,0.7191097 h 0.3595545 c 0.0996,0 0.179778,0.080182 0.179778,0.1797775 v 2.5168843 c 0,0.099595 -0.08018,0.1797775 -0.179778,0.1797775 H 9.7252945 c -0.03112,0 -0.0602,-0.00796 -0.08567,-0.021771 -0.0052,-0.00276 -0.0099,-0.00591 -0.01474,-0.00913 -0.0095,-0.00645 -0.01856,-0.013647 -0.02669,-0.021771 -0.01223,-0.01219 -0.02261,-0.026148 -0.0309,-0.041432 -0.01101,-0.020382 -0.01862,-0.043183 -0.02107,-0.067416 -6.11e-4,-0.00606 -7.02e-4,-0.012027 -7.02e-4,-0.018255 V 7.2340416 c 0,-0.012448 0.0011,-0.024793 0.0035,-0.036517 0.0035,-0.017586 0.0099,-0.033872 0.01826,-0.049157 0.0056,-0.010192 0.01169,-0.019921 0.01896,-0.028793 0.0073,-0.00887 0.01571,-0.017263 0.02458,-0.02458 0.0088,-0.00731 0.01861,-0.01344 0.0288,-0.018962 0.0052,-0.00276 0.01006,-0.00546 0.01545,-0.00772 0.01073,-0.00454 0.02199,-0.00814 0.0337,-0.010532 0.01169,-0.00239 0.02407,-0.00351 0.03652,-0.00351 z m 1.0786645,0.7191099 h 0.359554 c 0.0996,0 0.179778,0.080182 0.179778,0.1797775 v 1.0786647 c 0,0.099596 -0.08018,0.1797774 -0.179778,0.1797774 h -0.359554 c -0.03735,0 -0.07174,-0.011551 -0.100428,-0.0309 -0.0095,-0.00646 -0.01856,-0.013647 -0.02669,-0.021771 -0.01625,-0.016248 -0.02956,-0.03536 -0.03862,-0.056883 -0.0045,-0.010763 -0.0082,-0.021984 -0.01046,-0.033708 -0.0024,-0.011728 -0.0035,-0.024069 -0.0035,-0.036517 V 7.9531498 c 0,-0.031123 0.008,-0.060199 0.02177,-0.085675 0.0027,-0.0051 0.006,-0.00996 0.0091,-0.014748 0.0033,-0.00478 0.0061,-0.00961 0.0098,-0.014045 0.01464,-0.017744 0.033,-0.032496 0.05337,-0.043539 0.005,-0.00276 0.01006,-0.00546 0.01545,-0.00772 0.01074,-0.00454 0.02199,-0.00814 0.0337,-0.010532 0.01169,-0.00239 0.02407,-0.00351 0.03652,-0.00351 z M 5.4106345,8.1329287 h 0.359555 c 0.0996,0 0.179777,0.080182 0.179777,0.1797775 v 0.3595549 c 0,0.099597 -0.08018,0.1797775 -0.179777,0.1797775 h -0.359555 c -0.0063,0 -0.01223,-9.06e-5 -0.01826,-7.023e-4 -0.0061,-6.116e-4 -0.01237,-0.00162 -0.01825,-0.00281 -0.02345,-0.00477 -0.04478,-0.014491 -0.06391,-0.027389 -0.0048,-0.00322 -0.0096,-0.00617 -0.01404,-0.00983 -0.0045,-0.00366 -0.0086,-0.00788 -0.01264,-0.011932 -0.0041,-0.00406 -0.0083,-0.00821 -0.01196,-0.012638 -0.0256,-0.031063 -0.04073,-0.070906 -0.04073,-0.1144786 V 8.3127038 c 0,-0.00622 9.1e-5,-0.012204 7.02e-4,-0.018259 6.12e-4,-0.00606 0.0016,-0.012394 0.0029,-0.018259 0.0024,-0.011728 0.006,-0.022948 0.0106,-0.033709 0.01128,-0.026904 0.02908,-0.050531 0.05126,-0.068821 0.01332,-0.010981 0.0281,-0.019882 0.04423,-0.026686 0.01074,-0.00454 0.02199,-0.00814 0.03372,-0.010532 0.0058,-0.00119 0.01223,-0.0022 0.01826,-0.00281 0.0061,-6.116e-4 0.0121,-7.023e-4 0.01826,-7.023e-4 z m 6.4719885,0 h 0.359555 c 0.0996,0 0.179777,0.080182 0.179777,0.1797775 v 0.3595549 c 0,0.099597 -0.08018,0.1797775 -0.179777,0.1797775 h -0.359555 c -0.0125,0 -0.02479,-0.00112 -0.03652,-0.00351 -0.0058,-0.00119 -0.01114,-0.00247 -0.01685,-0.00421 -0.0056,-0.00174 -0.01141,-0.00405 -0.01685,-0.00632 -0.01074,-0.00454 -0.02063,-0.01041 -0.0302,-0.016854 -0.0095,-0.00646 -0.01856,-0.013647 -0.02669,-0.021771 -0.0082,-0.00813 -0.01532,-0.017124 -0.02177,-0.026686 -0.0065,-0.00957 -0.01237,-0.019436 -0.01685,-0.030196 -0.0068,-0.016142 -0.01155,-0.033792 -0.01332,-0.051967 -6.1e-4,-0.00606 -7.01e-4,-0.012041 -7.01e-4,-0.018265 V 8.3127048 c 0,-0.00622 9.1e-5,-0.012204 7.02e-4,-0.018259 0.0012,-0.012122 0.0035,-0.023841 0.0071,-0.035113 0.0018,-0.00564 0.0041,-0.01147 0.0063,-0.016854 0.0023,-0.00538 0.005,-0.010355 0.0077,-0.01545 0.0027,-0.0051 0.006,-0.00996 0.0091,-0.014748 0.0033,-0.00478 0.0061,-0.00961 0.0098,-0.014045 0.0073,-0.00887 0.01571,-0.017263 0.02458,-0.02458 0.01332,-0.010981 0.0281,-0.019882 0.04424,-0.026686 0.01074,-0.00454 0.02199,-0.00814 0.03372,-0.010532 0.0058,-0.00119 0.01223,-0.0022 0.01826,-0.00281 0.0061,-6.116e-4 0.0121,-7.024e-4 0.01826,-7.024e-4 z M 1.2757525,8.8520386 v 4.4684524 c 0,1.19516 0.96217,2.157329 2.15733,2.157329 H 13.499917 c 1.195161,0 2.157331,-0.962169 2.157331,-2.157329 V 8.8520386 H 14.20779 c -0.198901,2.9939134 -2.698005,5.3659354 -5.7416415,5.3659354 -3.043635,0 -5.54013,-2.372022 -5.738833,-5.3659354 z"
     style="fill:currentColor"
     class="ColorScheme-Text" />
</svg>
