<?xml version="1.0" encoding="UTF-8" standalone="no"?>
<svg
   width="64"
   height="64"
   version="1.1"
   viewBox="0 0 16.933 16.933"
   id="svg7"
   sodipodi:docname="baloo.svg"
   inkscape:version="1.4.3 (0d15f75042, 2025-12-25)"
   xmlns:inkscape="http://www.inkscape.org/namespaces/inkscape"
   xmlns:sodipodi="http://sodipodi.sourceforge.net/DTD/sodipodi-0.dtd"
   xmlns="http://www.w3.org/2000/svg"
   xmlns:svg="http://www.w3.org/2000/svg"
   xmlns:rdf="http://www.w3.org/1999/02/22-rdf-syntax-ns#"
   xmlns:cc="http://creativecommons.org/ns#"
   xmlns:dc="http://purl.org/dc/elements/1.1/">
  <sodipodi:namedview
     id="namedview7"
     pagecolor="#9c4444"
     bordercolor="#000000"
     borderopacity="0.25"
     inkscape:showpageshadow="2"
     inkscape:pageopacity="0.0"
     inkscape:pagecheckerboard="0"
     inkscape:deskcolor="#d1d1d1"
     inkscape:zoom="3.0781251"
     inkscape:cx="81.380708"
     inkscape:cy="63.999998"
     inkscape:window-width="2560"
     inkscape:window-height="1388"
     inkscape:window-x="0"
     inkscape:window-y="0"
     inkscape:window-maximized="1"
     inkscape:current-layer="svg7"
     showgrid="false" />
  <defs
     id="defs2">
    <style
       id="current-color-scheme"
       type="text/css">.ColorScheme-Text {color:#d8dee9} .ColorScheme-Highlight {color:#3b4252}</style>
  </defs>
  <metadata
     id="metadata2">
    <rdf:RDF>
      <cc:Work
         rdf:about="">
        <dc:format>image/svg+xml</dc:format>
        <dc:type
           rdf:resource="http://purl.org/dc/dcmitype/StillImage" />
      </cc:Work>
    </rdf:RDF>
  </metadata>
  <path
     id="path5"
     d="M 8.4665005,1.4551795 A 7.0113203,7.0113203 0 0 0 1.4551795,8.4664997 7.0113203,7.0113203 0 0 0 8.4665005,15.477821 7.0113203,7.0113203 0 0 0 15.477821,8.4664997 7.0113203,7.0113203 0 0 0 8.4665005,1.4551795 Z M 6.9614655,2.6048222 V 2.60549 c 2.293471,0 4.1525385,1.8591017 4.1525395,4.1525379 -0.0019,0.8955793 -0.293335,1.7667526 -0.830769,2.483176 l 3.20961,3.3765451 -0.838594,0.838594 -3.2096105,-3.376545 c -0.716456,0.537438 -1.587563,0.828831 -2.483176,0.830768 -2.293469,0 -4.15254,-1.8591019 -4.152537,-4.1525381 0,-2.293503 1.859068,-4.1531855 4.152537,-4.1531889 z m 0,1.1868129 v 6.677e-4 c -1.665054,0 -2.966377,1.1192773 -2.966377,2.9657251 0,1.6381783 1.328166,2.9663761 2.966377,2.9663795 1.639781,0 2.966379,-1.3189194 2.966379,-2.9663795 0,-1.6381783 -1.328166,-2.9663761 -2.966379,-2.9663761 z m 0.08216,0.1825848 c 0.09408,0.5046615 0.11053,0.5987668 0.11607,0.9970532 0.210893,0.151498 0.261207,0.3433911 0.232797,0.6377497 -0.02423,0.251072 -0.177393,0.509703 -0.440163,0.5105877 -0.211838,-0.01202 -0.392089,-0.1834028 -0.403647,-0.4453791 -0.0106,-0.2412629 0.02154,-0.4887158 0.265402,-0.7068713 0.04721,-0.5252047 0.07643,-0.5017902 0.229537,-0.9931402 z m -1.006834,0.2790973 c 0.09408,0.5046616 0.110531,0.5987668 0.11607,0.9970532 0.210894,0.1514979 0.261208,0.3433877 0.232798,0.6377463 -0.02423,0.2510754 -0.177392,0.509703 -0.440164,0.5105911 -0.211836,-0.012019 -0.392088,-0.1834028 -0.403647,-0.4453791 -0.0106,-0.2412629 0.0222,-0.4887191 0.266055,-0.7068713 0.04721,-0.5252046 0.07578,-0.5017902 0.228886,-0.9931402 z m 1.913897,0.1245513 c 0.153103,0.4913501 0.181681,0.4679355 0.228886,0.9931403 0.24386,0.2181522 0.276704,0.4662594 0.266055,0.7075223 -0.01161,0.2619763 -0.19181,0.4333596 -0.403647,0.4453791 -0.262771,-0.001 -0.415931,-0.2601667 -0.440164,-0.5112421 -0.0284,-0.2943586 0.02191,-0.4855974 0.232798,-0.6370953 0.0056,-0.3982864 0.022,-0.4930461 0.11607,-0.9977043 z m -2.880301,0.6560059 c 0.09408,0.5046615 0.11053,0.5987668 0.11607,0.9970532 0.210894,0.1514979 0.261208,0.3433877 0.232799,0.6377463 -0.02423,0.2510754 -0.177394,0.5097029 -0.440164,0.510591 -0.211837,-0.01202 -0.392089,-0.1834027 -0.403647,-0.4453791 -0.0106,-0.2412628 0.02154,-0.488719 0.265403,-0.7068712 0.04721,-0.5252047 0.07643,-0.5017902 0.229536,-0.9931402 z m 3.8291,0.023471 c 0.153102,0.4913501 0.181679,0.4679356 0.228884,0.9931402 0.243861,0.2181556 0.276705,0.4656085 0.266055,0.7068713 -0.01161,0.2619797 -0.19181,0.4333597 -0.403647,0.4453791 -0.26277,-0.001 -0.415931,-0.2595156 -0.440163,-0.5105877 -0.02841,-0.2943586 0.02125,-0.4862517 0.232146,-0.6377497 0.0056,-0.3982864 0.02265,-0.4923916 0.116726,-0.9970532 z m -1.909982,1.2761505 c 0.512189,0.024974 0.703844,0.2338743 1.088346,0.6077513 0.643011,0.413157 1.066836,0.6017148 1.035525,1.266368 -0.01551,0.7932107 -0.991716,0.9085135 -1.542204,0.7303459 -0.264929,-0.1163577 -0.761195,-0.1083081 -0.991183,-0.010411 -0.754426,0.3210582 -1.691325,0.087859 -1.679796,-0.6364442 0.01047,-0.6551613 0.229388,-0.9028546 0.959883,-1.3498363 0.564317,-0.4564736 0.764478,-0.6255532 1.129429,-0.6077512 z"
     style="fill:currentColor;fill-opacity:1;stroke-width:0.333872"
     class="ColorScheme-Text" />
</svg>
