<?xml version="1.0" encoding="UTF-8" standalone="no"?>
<svg
   width="64"
   height="64"
   version="1.1"
   viewBox="0 0 16.933 16.933"
   id="svg7"
   sodipodi:docname="bazaar.svg"
   inkscape:version="1.4.3 (0d15f75042, 2025-12-25)"
   xmlns:inkscape="http://www.inkscape.org/namespaces/inkscape"
   xmlns:sodipodi="http://sodipodi.sourceforge.net/DTD/sodipodi-0.dtd"
   xmlns="http://www.w3.org/2000/svg"
   xmlns:svg="http://www.w3.org/2000/svg"
   xmlns:rdf="http://www.w3.org/1999/02/22-rdf-syntax-ns#"
   xmlns:cc="http://creativecommons.org/ns#"
   xmlns:dc="http://purl.org/dc/elements/1.1/">
  <sodipodi:namedview
     id="namedview7"
     pagecolor="#9c4444"
     bordercolor="#000000"
     borderopacity="0.25"
     inkscape:showpageshadow="2"
     inkscape:pageopacity="0.0"
     inkscape:pagecheckerboard="0"
     inkscape:deskcolor="#d1d1d1"
     inkscape:zoom="4.3531262"
     inkscape:cx="89.935366"
     inkscape:cy="34.457995"
     inkscape:window-width="2560"
     inkscape:window-height="1388"
     inkscape:window-x="0"
     inkscape:window-y="0"
     inkscape:window-maximized="1"
     inkscape:current-layer="svg7"
     showgrid="false" />
  <defs
     id="defs2">
    <style
       id="current-color-scheme"
       type="text/css">.ColorScheme-Text {color:#d8dee9} .ColorScheme-Highlight {color:#3b4252}</style>
  </defs>
  <metadata
     id="metadata2">
    <rdf:RDF>
      <cc:Work
         rdf:about="">
        <dc:format>image/svg+xml</dc:format>
        <dc:type
           rdf:resource="http://purl.org/dc/dcmitype/StillImage" />
      </cc:Work>
    </rdf:RDF>
  </metadata>
  <path
     id="path5"
     style="fill:currentColor"
     d="m 3.914248,1.4551792 v 5.243219 c 0,0.8741723 0.717392,1.5851585 1.59944,1.5851585 0.882048,0 1.59944,-0.7109862 1.59944,-1.5851585 v -5.243219 z m 5.905624,0 v 5.243219 c 0,0.8741723 0.717392,1.5851585 1.599439,1.5851585 0.882049,0 1.59944,-0.7109862 1.59944,-1.5851585 V 1.4551792 Z M 4.160316,1.6990502 H 6.86706 v 4.999348 c 0,0.7424451 -0.604238,1.341288 -1.353372,1.341288 -0.749134,0 -1.353372,-0.5988429 -1.353372,-1.341288 z m 5.905624,0 h 2.706743 v 4.999348 c 0,0.7424451 -0.604237,1.341288 -1.353372,1.341288 -0.749133,0 -1.353371,-0.5988429 -1.353371,-1.341288 z M 1.638122,1.4551792 c -0.420324,0 -0.758708,0.338384 -0.758708,0.758709 v 4.552251 c 0,0.8382469 0.679171,1.5174175 1.517417,1.5174175 0.838246,0 1.517417,-0.6791706 1.517417,-1.5174175 v -5.31096 z m 5.31096,0 v 5.31096 c 0,0.8382469 0.679171,1.5174175 1.517418,1.5174175 0.838246,0 1.517417,-0.6791706 1.517417,-1.5174175 v -5.31096 z m 6.069669,0 v 5.31096 c 0,0.8382469 0.679171,1.5174175 1.517418,1.5174175 0.838246,0 1.517417,-0.6791706 1.517417,-1.5174175 v -4.552251 c 0,-0.420325 -0.338384,-0.758709 -0.758709,-0.758709 z M 1.891025,8.4633549 v 3.1079391 c 0,0.838246 0.679171,1.517417 1.517417,1.517417 h 10.116115 c 0.838247,0 1.517417,-0.679171 1.517417,-1.517417 V 8.4633549 c -0.16023,0.047588 -0.330001,0.073105 -0.505805,0.073105 -0.175802,0 -0.345572,-0.025518 -0.505806,-0.073105 v 0.5789104 1.0116117 0.505805 0.505806 0.505806 c 0,0.279458 -0.226348,0.505806 -0.505806,0.505806 H 3.408442 c -0.279457,0 -0.505805,-0.226348 -0.505805,-0.505806 V 11.065488 10.559682 10.053877 9.0422653 8.4633549 c -0.160234,0.047586 -0.330005,0.073105 -0.505806,0.073105 -0.175805,0 -0.345575,-0.025516 -0.505806,-0.073105 z m 4.046199,0.3257606 c -0.254989,0 -0.509783,0.1259871 -0.656214,0.3776255 L 3.733956,11.824197 H 8.140492 L 6.594426,9.166741 C 6.447489,8.9151026 6.192214,8.7891155 5.937224,8.7891155 Z M 10.995528,8.662911 c -1.186999,0 -2.149674,0.9626748 -2.149674,2.149674 0,0.365692 0.09149,0.710093 0.252656,1.011612 h 3.794037 c 0.161163,-0.301519 0.252656,-0.64592 0.252656,-1.011612 0,-1.1869992 -0.962675,-2.149674 -2.149675,-2.149674 z M 6.949082,7.6794547 C 6.746517,8.0156348 6.435325,8.2785888 6.063923,8.4203811 v 0.1160785 c 0,0.00255 -2.6e-5,0.00512 0,0.00766 0.296498,0.036975 0.57873,0.2038792 0.748829,0.4951857 l 0.148926,0.2558663 h 2.171408 c 0.364927,-0.447284 0.88767,-0.7607226 1.483088,-0.855276 V 8.3001074 C 10.356493,8.150089 10.138547,7.936085 9.983917,7.6794581 9.674261,8.193322 9.110914,8.536463 8.4665,8.536463 c -0.644415,0 -1.207761,-0.3431411 -1.517418,-0.8570049 z m 0.159547,1.8686163 0.882937,1.517417 h 0.614475 c -0.0087,-0.08314 -0.01309,-0.167519 -0.01309,-0.252903 0,-0.463875 0.131643,-0.8971618 0.359596,-1.264514 z m -5.217604,2.936291 v 0.604349 c 0,0.838247 0.679171,1.517417 1.517417,1.517417 h 10.116115 c 0.838247,0 1.517417,-0.67917 1.517417,-1.517417 v -0.604349 c -0.30962,0.5139 -0.872975,0.857252 -1.517417,0.857252 v 0.252903 H 3.408442 v -0.252903 c -0.644441,0 -1.207797,-0.343352 -1.517417,-0.857252 z m 1.014576,2.302305 a 0.75883504,0.75883504 0 0 0 1.50161,0.07236 H 3.408442 c -0.174733,0 -0.343472,-0.02533 -0.502841,-0.07236 z m 11.121798,0 c -0.15937,0.04703 -0.328109,0.07236 -0.502842,0.07236 h -0.998769 a 0.75883504,0.75883504 0 0 0 1.501611,-0.07236 z"
     class="ColorScheme-Text" />
</svg>
