<?xml version='1.0' encoding='UTF-8'?>
<svg xmlns:inkscape="http://www.inkscape.org/namespaces/inkscape" xmlns:sodipodi="http://sodipodi.sourceforge.net/DTD/sodipodi-0.dtd" xmlns="http://www.w3.org/2000/svg" xmlns:svg="http://www.w3.org/2000/svg" xmlns:rdf="http://www.w3.org/1999/02/22-rdf-syntax-ns#" xmlns:cc="http://creativecommons.org/ns#" xmlns:dc="http://purl.org/dc/elements/1.1/" width="64" height="64" version="1.1" viewBox="0 0 16.933 16.933" id="svg7" sodipodi:docname="bitwig-studio.svg" inkscape:version="1.4 (e7c3feb100, 2024-10-09)">
  <sodipodi:namedview id="namedview7" pagecolor="#9c4444" bordercolor="#000000" borderopacity="0.25" inkscape:showpageshadow="2" inkscape:pageopacity="0.0" inkscape:pagecheckerboard="0" inkscape:deskcolor="#d1d1d1" inkscape:zoom="6.15625" inkscape:cx="15.837563" inkscape:cy="29.725888" inkscape:window-width="1183" inkscape:window-height="941" inkscape:window-x="35" inkscape:window-y="32" inkscape:window-maximized="0" inkscape:current-layer="svg7" showgrid="false"/>
  <defs id="defs2">
    <style id="current-color-scheme" type="text/css">.ColorScheme-Text {color:#d8dee9} .ColorScheme-Highlight {color:#3b4252}</style></defs>
  <metadata id="metadata2">
    <rdf:RDF>
      <cc:Work rdf:about="">
        <dc:format>image/svg+xml</dc:format>
        <dc:type rdf:resource="http://purl.org/dc/dcmitype/StillImage"/>
      </cc:Work>
    </rdf:RDF>
  </metadata>
  <path d="m 4.5089848,4.839069 c -0.5428845,0 -0.9894613,0.4465771 -0.9894613,0.9894613 3.299e-4,0.5425549 0.4469066,0.988802 0.9894613,0.988802 0.5425547,0 0.9891315,-0.4462471 0.9894611,-0.988802 0,-0.5428842 -0.4465768,-0.9894613 -0.9894611,-0.9894613 z m 2.6385636,0 c -0.5428849,0 -0.9894614,0.4465771 -0.9894614,0.9894613 3.296e-4,0.5425549 0.4469066,0.988802 0.9894614,0.988802 0.5425547,0 0.9891317,-0.4462471 0.9894613,-0.988802 0,-0.5428842 -0.4465767,-0.9894613 -0.9894613,-0.9894613 z m 2.6385635,0 c -0.5428844,0 -0.9894613,0.4465771 -0.9894613,0.9894613 3.298e-4,0.5425549 0.4469068,0.988802 0.9894613,0.988802 0.5425551,0 0.9891311,-0.4462471 0.9894621,-0.988802 0,-0.5428842 -0.446578,-0.9894613 -0.9894621,-0.9894613 z m 2.6379021,0 c -0.542881,0 -0.989459,0.4465771 -0.989459,0.9894613 3.29e-4,0.5425549 0.446907,0.988802 0.989459,0.988802 0.542558,0 0.989133,-0.4462471 0.989461,-0.988802 0,-0.5428842 -0.446574,-0.9894613 -0.989461,-0.9894613 z M 1.870421,7.4769733 c -0.5428842,0 -0.98946112,0.4465768 -0.98946112,0.9894609 0,0.5428848 0.44657692,0.9894613 0.98946112,0.9894613 0.5428847,0 0.9894615,-0.4465764 0.9894615,-0.9894611 0,-0.5428843 -0.4465768,-0.9894611 -0.9894615,-0.9894611 z m 2.6385638,0 c -0.5428845,0 -0.9894613,0.4465768 -0.9894613,0.9894609 0,0.5428848 0.4465768,0.9894613 0.9894613,0.9894613 0.5428843,0 0.9894611,-0.4465764 0.9894611,-0.9894611 0,-0.5428843 -0.4465768,-0.9894611 -0.9894611,-0.9894611 z m 2.6385636,0 c -0.5428849,0 -0.9894614,0.4465768 -0.9894614,0.9894609 0,0.5428848 0.4465765,0.9894613 0.9894614,0.9894613 0.5428846,0 0.9894613,-0.4465764 0.9894613,-0.9894611 0,-0.5428843 -0.4465767,-0.9894611 -0.9894613,-0.9894611 z m 2.6385635,0 c -0.5428844,0 -0.9894613,0.4465768 -0.9894613,0.9894609 0,0.5428848 0.4465769,0.9894613 0.9894613,0.9894613 0.5428841,0 0.9894621,-0.4465764 0.9894621,-0.9894611 0,-0.5428843 -0.446578,-0.9894611 -0.9894621,-0.9894611 z m 2.6379021,0 c -0.542881,0 -0.989459,0.4465768 -0.989459,0.9894609 0,0.5428848 0.446578,0.9894613 0.989459,0.9894613 0.542887,0 0.989461,-0.4465764 0.989461,-0.9894611 0,-0.5428843 -0.446574,-0.9894611 -0.989461,-0.9894611 z m 2.638564,0 c -0.542883,0 -0.989459,0.4465768 -0.989459,0.9894609 0,0.5428848 0.446576,0.9894613 0.989459,0.9894613 0.542887,0 0.989461,-0.4465764 0.989461,-0.9894611 0,-0.5428843 -0.446574,-0.9894611 -0.989461,-0.9894611 z M 1.870421,10.115537 c -0.5428842,0 -0.98946112,0.446577 -0.98946112,0.989462 0,0.542883 0.44657692,0.989461 0.98946112,0.989461 0.5428847,0 0.9894615,-0.446578 0.9894615,-0.989461 0,-0.542885 -0.4465768,-0.989462 -0.9894615,-0.989462 z m 2.6385638,0 c -0.5428845,0 -0.9894613,0.446577 -0.9894613,0.989462 0,0.542883 0.4465768,0.989461 0.9894613,0.989461 0.5428843,0 0.9894611,-0.446578 0.9894611,-0.989461 0,-0.542885 -0.4465768,-0.989462 -0.9894611,-0.989462 z m 7.9150292,0 c -0.542881,0 -0.989459,0.446577 -0.989459,0.989462 0,0.542883 0.446578,0.989461 0.989459,0.989461 0.542887,0 0.989461,-0.446578 0.989461,-0.989461 0,-0.542885 -0.446574,-0.989462 -0.989461,-0.989462 z m 2.638564,0 c -0.542883,0 -0.989459,0.446577 -0.989459,0.989462 0,0.542883 0.446576,0.989461 0.989459,0.989461 0.542887,0 0.989461,-0.446578 0.989461,-0.989461 0,-0.542885 -0.446574,-0.989462 -0.989461,-0.989462 z" fill-rule="nonzero" id="path16-6" style="fill:currentColor;fill-opacity:1;stroke-width:0.329819" class="ColorScheme-Text"/>
  </svg>
