<?xml version="1.0" encoding="UTF-8" standalone="no"?>
<svg
   width="64"
   height="64"
   version="1.1"
   viewBox="0 0 16.933 16.933"
   id="svg7"
   sodipodi:docname="bleamd-icon.svg"
   inkscape:version="1.4.3 (0d15f75042, 2025-12-25)"
   xmlns:inkscape="http://www.inkscape.org/namespaces/inkscape"
   xmlns:sodipodi="http://sodipodi.sourceforge.net/DTD/sodipodi-0.dtd"
   xmlns="http://www.w3.org/2000/svg"
   xmlns:svg="http://www.w3.org/2000/svg"
   xmlns:rdf="http://www.w3.org/1999/02/22-rdf-syntax-ns#"
   xmlns:cc="http://creativecommons.org/ns#"
   xmlns:dc="http://purl.org/dc/elements/1.1/">
  <sodipodi:namedview
     id="namedview7"
     pagecolor="#9c4444"
     bordercolor="#000000"
     borderopacity="0.25"
     inkscape:showpageshadow="2"
     inkscape:pageopacity="0.0"
     inkscape:pagecheckerboard="0"
     inkscape:deskcolor="#d1d1d1"
     inkscape:zoom="4.3531262"
     inkscape:cx="89.935366"
     inkscape:cy="34.457995"
     inkscape:window-width="2560"
     inkscape:window-height="1388"
     inkscape:window-x="0"
     inkscape:window-y="0"
     inkscape:window-maximized="1"
     inkscape:current-layer="svg7"
     showgrid="false" />
  <defs
     id="defs2">
    <style
       id="current-color-scheme"
       type="text/css">.ColorScheme-Text {color:#d8dee9} .ColorScheme-Highlight {color:#3b4252}</style>
  </defs>
  <metadata
     id="metadata2">
    <rdf:RDF>
      <cc:Work
         rdf:about="">
        <dc:format>image/svg+xml</dc:format>
        <dc:type
           rdf:resource="http://purl.org/dc/dcmitype/StillImage" />
      </cc:Work>
    </rdf:RDF>
  </metadata>
  <path
     id="path5"
     style="fill:currentColor"
     d="m 15.47782,10.128978 c -2.945523,0 -5.348842,2.40332 -5.348842,5.348842 h 1.445633 c 0,-2.164244 1.738964,-3.903209 3.903209,-3.903209 z m 0,-1.7347597 c -3.903605,0 -7.0836015,3.1799977 -7.0836015,7.0836017 h 1.445633 c 0,-3.122325 2.5156425,-5.6379686 5.6379685,-5.6379686 z m 0,-1.7347597 c -4.861685,0 -8.8183615,3.9566764 -8.8183615,8.8183614 h 1.445633 c 0,-4.080407 3.2923205,-7.3727283 7.3727285,-7.3727283 z m 0,-1.7347596 c -5.8197665,0 -10.5531215,4.7333548 -10.5531215,10.553121 h 1.445633 c 0,-5.038488 4.0690005,-9.1074879 9.1074885,-9.1074879 z m 0,-1.7347597 c -6.7778485,0 -12.2878805,5.5100333 -12.2878805,12.2878807 h 1.445632 c 0,-5.9965694 4.845679,-10.8422476 10.8422485,-10.8422476 z m 0,-1.7347596 c -7.7359285,0 -14.0226405,6.2867114 -14.0226405,14.0226403 h 1.445633 c 0,-6.9546506 5.622356,-12.5770072 12.5770075,-12.5770072 z"
     class="ColorScheme-Text" />
</svg>
