<?xml version='1.0' encoding='UTF-8'?>
<svg xmlns:inkscape="http://www.inkscape.org/namespaces/inkscape" xmlns:sodipodi="http://sodipodi.sourceforge.net/DTD/sodipodi-0.dtd" xmlns="http://www.w3.org/2000/svg" xmlns:svg="http://www.w3.org/2000/svg" xmlns:rdf="http://www.w3.org/1999/02/22-rdf-syntax-ns#" xmlns:cc="http://creativecommons.org/ns#" xmlns:dc="http://purl.org/dc/elements/1.1/" width="64" height="64" version="1.1" viewBox="0 0 16.933 16.933" id="svg7" sodipodi:docname="blender.svg" inkscape:version="1.4 (e7c3feb100, 2024-10-09)">
  <sodipodi:namedview id="namedview7" pagecolor="#9c4444" bordercolor="#000000" borderopacity="0.25" inkscape:showpageshadow="2" inkscape:pageopacity="0.0" inkscape:pagecheckerboard="0" inkscape:deskcolor="#d1d1d1" inkscape:zoom="6.15625" inkscape:cx="17.461929" inkscape:cy="27.28934" inkscape:window-width="1183" inkscape:window-height="941" inkscape:window-x="35" inkscape:window-y="32" inkscape:window-maximized="0" inkscape:current-layer="svg7" showgrid="false"/>
  <defs id="defs2">
    <style id="current-color-scheme" type="text/css">.ColorScheme-Text {color:#d8dee9} .ColorScheme-Highlight {color:#3b4252}</style></defs>
  <metadata id="metadata2">
    <rdf:RDF>
      <cc:Work rdf:about="">
        <dc:format>image/svg+xml</dc:format>
        <dc:type rdf:resource="http://purl.org/dc/dcmitype/StillImage"/>
      </cc:Work>
    </rdf:RDF>
  </metadata>
  <path id="path12" style="fill:currentColor;fill-opacity:1;stroke:none;stroke-width:0.459224;stroke-dasharray:none;stroke-dashoffset:2.2;stroke-opacity:0.3" d="m 8.1909778,1.3474513 c -0.6357067,0 -1.1171679,0.6292382 -0.9731593,1.271834 0.085819,0.3829482 0.1488745,0.4621169 0.7605889,0.9570157 L 8.5273234,4.0202769 5.7316195,4.0507778 2.9368123,4.0812783 2.713479,4.2346518 C 2.3683657,4.4712104 2.2195328,4.7872624 2.2506681,5.2176799 c 0.019465,0.2688838 0.067676,0.4120663 0.194632,0.5785137 0.3168351,0.415394 0.4053242,0.4359043 1.8700811,0.4359043 1.2919023,0 1.3061717,9.794e-4 1.1668943,0.1157062 C 5.4047014,6.4116889 4.4656123,7.1633857 3.3951396,8.0178691 2.3246668,8.8723512 1.4027032,9.6417339 1.3465723,9.7274009 1.2904406,9.81307 1.2319776,10.043148 1.2165173,10.238645 c -0.023161,0.292827 -0.00333,0.397868 0.113012,0.595555 0.1732819,0.294376 0.3869757,0.45873 0.6834534,0.525597 0.4084194,0.09211 0.629667,-0.0221 1.7310581,-0.894232 l 1.0449127,-0.8269596 0.073547,0.6314306 c 0.1031073,0.877065 0.2287646,1.337595 0.5444314,2.005519 0.7802376,1.650908 2.2148672,2.783088 3.941968,3.109626 0.7200541,0.136116 1.7495241,0.08577 2.4414191,-0.119301 1.478487,-0.438165 2.6164,-1.40738 3.323094,-2.828889 0.394366,-0.79326 0.570916,-1.431726 0.622463,-2.254859 C 15.864909,8.1217256 14.905213,6.1057068 13.254098,4.969233 12.990912,4.7880819 12.471448,4.396217 12.099762,4.0992206 10.564229,2.8722578 8.7113734,1.45323 8.5784486,1.4021757 8.5002216,1.3721321 8.3256158,1.3474656 8.1909778,1.3474656 Z m 2.1615812,5.1680599 c 0.469027,0.00443 0.940465,0.1160938 1.374085,0.3471089 0.731622,0.3897848 1.374069,1.2457205 1.600104,2.131085 C 13.746895,10.639387 12.69154,12.528901 11.133777,12.918633 9.9444612,13.216177 8.9767929,12.953692 8.1335737,12.10602 7.0179121,10.984471 6.8525614,9.3173517 7.7209916,7.9380286 8.2999873,7.0184129 9.3207009,6.5058303 10.352559,6.5155112 Z m -0.07355,1.651232 c -0.8719157,0 -1.5327252,0.7045075 -1.5247673,1.624325 0.00661,0.7642598 0.5338043,1.4340918 1.2305766,1.5624368 0.9881787,0.182018 1.8368927,-0.552481 1.8368927,-1.5893438 0,-0.9264069 -0.647883,-1.5974178 -1.542702,-1.597418 z" class="ColorScheme-Text"/>
</svg>
