<?xml version='1.0' encoding='UTF-8'?>
<svg xmlns:inkscape="http://www.inkscape.org/namespaces/inkscape" xmlns:sodipodi="http://sodipodi.sourceforge.net/DTD/sodipodi-0.dtd" xmlns="http://www.w3.org/2000/svg" xmlns:svg="http://www.w3.org/2000/svg" xmlns:rdf="http://www.w3.org/1999/02/22-rdf-syntax-ns#" xmlns:cc="http://creativecommons.org/ns#" xmlns:dc="http://purl.org/dc/elements/1.1/" width="64" height="64" version="1.1" viewBox="0 0 16.933 16.933" id="svg7" sodipodi:docname="boxes.svg" inkscape:version="1.4 (e7c3feb100, 2024-10-09)">
  <sodipodi:namedview id="namedview7" pagecolor="#9c4444" bordercolor="#000000" borderopacity="0.25" inkscape:showpageshadow="2" inkscape:pageopacity="0.0" inkscape:pagecheckerboard="0" inkscape:deskcolor="#d1d1d1" inkscape:zoom="6.15625" inkscape:cx="15.837563" inkscape:cy="29.725888" inkscape:window-width="1183" inkscape:window-height="941" inkscape:window-x="35" inkscape:window-y="32" inkscape:window-maximized="0" inkscape:current-layer="svg7" showgrid="false"/>
  <defs id="defs2">
    <style id="current-color-scheme" type="text/css">.ColorScheme-Text {color:#d8dee9} .ColorScheme-Highlight {color:#3b4252}</style></defs>
  <metadata id="metadata2">
    <rdf:RDF>
      <cc:Work rdf:about="">
        <dc:format>image/svg+xml</dc:format>
        <dc:type rdf:resource="http://purl.org/dc/dcmitype/StillImage"/>
      </cc:Work>
    </rdf:RDF>
  </metadata>
  <path style="fill:currentColor;fill-opacity:1;stroke:none;stroke-width:0.468549;stroke-dasharray:none;stroke-opacity:0.3" d="M 3.1602143,15.146114 C 2.7793375,15.036496 2.3637528,14.731113 2.1444164,14.399679 1.6569893,13.663121 1.7477198,12.770962 2.3737139,12.144969 c 0.1873818,-0.187378 0.4218276,-0.36106 0.520991,-0.385947 l 0.1802967,-0.04524 V 8.4900491 5.2663273 L 2.8599961,5.1772682 C 2.5763208,5.0597665 2.2023092,4.6881098 2.0322178,4.3547027 1.5979116,3.5033939 1.9076456,2.4919819 2.7552276,1.9937682 3.0563567,1.8167635 3.1939036,1.7842138 3.6337671,1.7858727 c 0.7454823,0.00279 1.2884301,0.3224602 1.6101311,0.9479345 l 0.1436932,0.2793823 h 3.2039158 3.2039168 l 0.06766,-0.1779787 c 0.20474,-0.5385104 1.017761,-1.0864154 1.614198,-1.0878285 0.995304,-0.0023 1.828418,0.8036254 1.83433,1.7745939 0.0014,0.2349919 -0.05328,0.5547406 -0.123253,0.7204962 -0.149891,0.3550289 -0.577588,0.81282 -0.874136,0.9356533 l -0.212935,0.088202 v 3.2227608 3.2227585 l 0.215006,0.08905 c 0.31566,0.130758 0.681404,0.515814 0.8502,0.8951 0.603127,1.355251 -0.697064,2.850007 -2.117461,2.434339 C 12.568414,14.989682 12.13928,14.652181 11.93705,14.255774 L 11.788698,13.964987 H 8.5937164 5.3987242 l -0.1949962,0.33273 c -0.2405068,0.410392 -0.5972656,0.689991 -1.0569274,0.828328 -0.3963309,0.119282 -0.6256668,0.123956 -0.9865863,0.02008 z m 8.7590917,-2.561116 0.125153,-0.26246 -0.432564,-0.43712 C 11.198335,11.467486 11.166149,11.450063 10.878919,11.488586 10.524934,11.536057 10.147083,11.364581 9.9999662,11.089698 9.9043092,10.910964 9.8999854,10.9104 8.6215781,10.9104 H 7.3391464 L 7.0317227,11.217828 C 6.7387283,11.510822 6.7070791,11.523597 6.3574348,11.49 5.9931862,11.455019 5.9875147,11.45785 5.5612058,11.888644 l -0.4293666,0.433894 0.1251568,0.26246 0.1251587,0.262458 H 8.5881532 11.794149 Z M 5.1743019,11.530561 C 5.586224,11.122941 5.600098,11.096538 5.5591922,10.798099 5.5096031,10.436303 5.6608366,10.082871 5.9448804,9.8967593 L 6.1295851,9.7757369 V 8.4822361 7.188737 L 5.9395218,7.0642031 C 5.6525285,6.8761574 5.5093913,6.5434163 5.5591922,6.1800751 5.6001411,5.8813495 5.5864602,5.8554687 5.1697704,5.4431246 L 4.7379118,5.0157741 4.4652229,5.1458095 4.1925328,5.2758465 v 3.1829296 3.1829269 l 0.2421311,0.149701 c 0.1331748,0.08235 0.2579229,0.152475 0.2772225,0.155857 0.019304,0.0036 0.2273863,-0.18411 0.4624155,-0.416695 z M 12.908797,8.4939145 12.908324,5.2855008 12.672652,5.1513323 12.43698,5.0171676 11.999554,5.4493416 c -0.412849,0.4078956 -0.434834,0.4476037 -0.391379,0.7068121 0.0567,0.3381062 -0.135432,0.7844553 -0.386998,0.8990755 -0.173392,0.079002 -0.174462,0.087565 -0.174462,1.3999963 v 1.3205086 l 0.192479,0.1261182 c 0.260533,0.1707097 0.428443,0.5916767 0.366883,0.9198157 -0.04532,0.241598 -0.0191,0.28963 0.37674,0.689625 l 0.425452,0.429941 0.2505,-0.119434 0.250498,-0.119434 -4.36e-4,-3.2084101 z M 9.9883378,10.206574 C 10.034029,10.106302 10.156746,9.968342 10.261053,9.8999975 L 10.450702,9.7757337 V 8.4855919 7.1954488 L 10.231601,7.0394356 C 10.111097,6.9536289 9.9914966,6.8172416 9.9658242,6.7363548 9.9216636,6.5972218 9.8479236,6.5892859 8.5991941,6.5892859 H 7.2792416 L 7.1498915,6.808258 C 7.0787479,6.9286952 6.9541798,7.0482934 6.873072,7.0740361 6.7333802,7.1183688 6.7256016,7.1908785 6.7256016,8.4482885 v 1.3274473 l 0.1896485,0.1242657 c 0.1043062,0.068343 0.2270283,0.2063035 0.2727157,0.3065765 l 0.083068,0.182312 H 8.5881535 9.9052727 Z M 9.9658228,5.9207029 c 0.025673,-0.080883 0.1477252,-0.2190204 0.2712302,-0.3069619 0.178591,-0.1271651 0.298659,-0.1527733 0.586613,-0.1251055 0.358304,0.03443 0.366523,0.030284 0.791431,-0.3991047 L 12.044461,4.6556361 11.919313,4.3931774 11.794162,4.1307201 H 8.5967166 5.3992836 L 5.2505763,4.3827598 5.1018673,4.6347992 5.5399839,5.0683437 c 0.4150168,0.4106856 0.4555187,0.4324744 0.7681955,0.413246 0.391011,-0.024051 0.7173657,0.1251292 0.8610317,0.3935707 l 0.1030822,0.192612 h 1.3234264 c 1.252188,0 1.325939,-0.00792 1.3701031,-0.1470695 z" id="path2647" class="ColorScheme-Text"/>
  <g id="g9" transform="matrix(0.46959567,0,0,0.46959567,4.7471229,3.7470598)" style="fill:#999999;fill-opacity:1;stroke:none;stroke-width:0.58349;stroke-dasharray:none;stroke-opacity:0.3"/>
  </svg>
