<?xml version="1.0" encoding="UTF-8" standalone="no"?>
<svg
   width="64"
   height="64"
   version="1.1"
   viewBox="0 0 16.933 16.933"
   id="svg7"
   sodipodi:docname="io.github.lawstorant.boxflat.svg"
   inkscape:version="1.4.3 (0d15f75042, 2025-12-25)"
   xmlns:inkscape="http://www.inkscape.org/namespaces/inkscape"
   xmlns:sodipodi="http://sodipodi.sourceforge.net/DTD/sodipodi-0.dtd"
   xmlns="http://www.w3.org/2000/svg"
   xmlns:svg="http://www.w3.org/2000/svg"
   xmlns:rdf="http://www.w3.org/1999/02/22-rdf-syntax-ns#"
   xmlns:cc="http://creativecommons.org/ns#"
   xmlns:dc="http://purl.org/dc/elements/1.1/">
  <sodipodi:namedview
     id="namedview7"
     pagecolor="#9c4444"
     bordercolor="#000000"
     borderopacity="0.25"
     inkscape:showpageshadow="2"
     inkscape:pageopacity="0.0"
     inkscape:pagecheckerboard="0"
     inkscape:deskcolor="#d1d1d1"
     inkscape:zoom="4.3531262"
     inkscape:cx="89.705646"
     inkscape:cy="36.525474"
     inkscape:window-width="2560"
     inkscape:window-height="1388"
     inkscape:window-x="0"
     inkscape:window-y="0"
     inkscape:window-maximized="1"
     inkscape:current-layer="svg7"
     showgrid="false" />
  <defs
     id="defs2">
    <style
       id="current-color-scheme"
       type="text/css">.ColorScheme-Text {color:#d8dee9} .ColorScheme-Highlight {color:#3b4252}</style>
  </defs>
  <metadata
     id="metadata2">
    <rdf:RDF>
      <cc:Work
         rdf:about="">
        <dc:format>image/svg+xml</dc:format>
        <dc:type
           rdf:resource="http://purl.org/dc/dcmitype/StillImage" />
      </cc:Work>
    </rdf:RDF>
  </metadata>
  <path
     id="path5"
     style="fill:currentColor"
     d="m 3.145511,1.455172 c -0.69362,0 -1.252011,0.55839 -1.252011,1.252011 v 9.765765 c 0,0.69362 0.558391,1.252075 1.252011,1.252075 h 10.642192 c 0.693621,0 1.252012,-0.558455 1.252012,-1.252075 V 2.707183 c 0,-0.693621 -0.558391,-1.252011 -1.252012,-1.252011 z M 8.46664,2.331599 A 5.258496,5.258496 0 0 1 13.020619,4.960816 5.258496,5.258496 0 0 1 11.095856,12.144078 5.258496,5.258496 0 0 1 3.912595,10.219314 5.258496,5.258496 0 0 1 5.837358,3.036119 5.258496,5.258496 0 0 1 8.46664,2.331599 Z m 0.05668,1.00201 A 4.2568777,4.2568777 0 0 0 6.338205,3.903487 4.2568777,4.2568777 0 0 0 4.264697,8.271972 c 0.167646,-0.01848 0.331797,0.07813 0.392794,0.243855 L 4.873719,9.103304 C 4.939849,9.28297 4.861039,9.479416 4.695923,9.565649 a 4.2568777,4.2568777 0 0 0 0.08411,0.152887 4.2568777,4.2568777 0 0 0 5.123341,1.878632 c -0.02578,-0.150462 0.04246,-0.307125 0.182777,-0.388136 l 0.704778,-0.406899 c 0.140318,-0.08101 0.310125,-0.06178 0.427538,0.03578 a 4.2568777,4.2568777 0 0 0 0.934722,-5.376252 4.2568777,4.2568777 0 0 0 -0.09032,-0.149329 c -0.157243,0.09991 -0.366783,0.06999 -0.489327,-0.07712 L 11.172854,4.754167 C 11.059816,4.618462 11.05824,4.427963 11.158104,4.292014 A 4.2568777,4.2568777 0 0 0 8.523322,3.333612 Z m 2.449416,1.413244 c 0.0191,0.0397 0.04345,0.07777 0.07298,0.113225 l 0.400559,0.48111 c 0.03531,0.0424 0.07563,0.07809 0.119371,0.106885 -0.482976,0.48462 -1.157143,1.165875 -1.561471,1.594857 -0.373165,0.395917 -0.427898,1.117205 -0.147712,1.6932 0.108837,0.223743 0.619647,1.202953 0.969596,1.871902 -0.04034,0.01195 -0.07995,0.02879 -0.117948,0.05073 l -0.704778,0.406899 c -0.03798,0.02193 -0.07231,0.04779 -0.102808,0.07673 C 9.49617,10.504849 8.903544,9.572889 8.764197,9.366762 8.405463,8.836114 7.753468,8.522798 7.224012,8.648009 6.65032,8.783681 5.723197,9.026974 5.061994,9.202941 5.058894,9.150671 5.048184,9.097882 5.029124,9.046109 L 4.812767,8.458632 C 4.796827,8.415322 4.775997,8.375272 4.751177,8.338872 L 6.645789,7.463221 C 7.226543,7.127922 7.141132,6.693094 7.735791,6.324176 8.352613,5.993646 8.686424,6.285056 9.267177,5.949757 Z m -0.171002,0.454389 c -0.05045,0.0013 -0.101315,0.01492 -0.148098,0.04193 -0.149709,0.08643 -0.201019,0.27783 -0.114584,0.427538 0.08643,0.149708 0.277893,0.200954 0.427602,0.114519 C 11.116363,5.698789 11.167607,5.5074 11.081173,5.357692 11.021753,5.254767 10.912714,5.198357 10.801734,5.201247 Z m 0.0019,0.08896 c 0.07972,-0.0018 0.15856,0.03857 0.200764,0.111673 0.06139,0.106329 0.02416,0.245288 -0.08217,0.306678 -0.10633,0.06139 -0.245289,0.02416 -0.306678,-0.08217 -0.06139,-0.106329 -0.02416,-0.245289 0.08217,-0.306678 0.03323,-0.01919 0.06968,-0.02868 0.105914,-0.0295 z m 0.0076,0.153858 c -0.01123,5e-4 -0.0231,0.0042 -0.0352,0.01119 -0.03687,0.02129 -0.0462,0.05604 -0.02491,0.09291 0.02129,0.03687 0.05603,0.04613 0.09291,0.02484 0.03687,-0.02129 0.04613,-0.05597 0.02485,-0.09285 -0.01331,-0.02304 -0.03182,-0.03533 -0.05286,-0.0361 -0.0016,-5.8e-5 -0.0032,-7.3e-5 -0.0048,0 z M 9.73249,6.044153 C 9.67194,6.045753 9.6109,6.061943 9.554759,6.094363 9.375109,6.198084 9.313616,6.42785 9.417336,6.607499 9.521058,6.787151 9.750757,6.848709 9.930408,6.744988 10.110058,6.641266 10.171617,6.411502 10.067896,6.231851 9.996586,6.108342 9.865708,6.040701 9.73249,6.044157 Z m 0.0021,0.08864 c 0.101859,-0.0025 0.202223,0.04917 0.256536,0.143246 0.079,0.136831 0.03169,0.313213 -0.105138,0.392212 -0.13683,0.079 -0.313148,0.03176 -0.392147,-0.105073 -0.079,-0.13683 -0.03176,-0.313212 0.105073,-0.392212 0.04276,-0.02469 0.08938,-0.03702 0.135676,-0.03817 z m 0.0056,0.154505 c -0.02087,0.001 -0.04231,0.0073 -0.06302,0.01921 -0.06626,0.03825 -0.08607,0.112125 -0.04781,0.178379 0.03825,0.06625 0.112121,0.08607 0.178378,0.04781 0.06625,-0.03825 0.08607,-0.112122 0.04781,-0.178378 -0.0263,-0.04555 -0.06944,-0.06916 -0.11536,-0.06703 z M 8.374372,6.773971 A 0.68861256,0.68861256 0 0 0 8.030103,6.866231 0.68861256,0.68861256 0 0 0 7.778031,7.806841 0.68861256,0.68861256 0 0 0 8.718705,8.058913 0.68861256,0.68861256 0 0 0 8.970713,7.118238 0.68861256,0.68861256 0 0 0 8.374372,6.773969 Z m -0.01611,0.08845 C 8.571042,6.856821 8.779863,6.964958 8.893915,7.1625 9.059806,7.449835 8.961595,7.816357 8.674257,7.98225 8.386923,8.148143 8.020463,8.04993 7.854572,7.762594 7.688677,7.475258 7.786832,7.108736 8.074164,6.942843 c 0.08979,-0.05184 0.18738,-0.07787 0.284098,-0.08042 z m 0.005,0.155215 C 8.291892,7.019836 8.219645,7.039566 8.152405,7.078386 7.93724,7.202611 7.86578,7.469199 7.990008,7.684367 8.114232,7.899532 8.380823,7.970925 8.595988,7.846699 8.811156,7.722472 8.882546,7.455948 8.758321,7.240783 8.672911,7.092855 8.520266,7.012811 8.363262,7.017632 Z M 6.804831,7.734384 C 6.744281,7.735984 6.683241,7.752174 6.6271,7.784594 6.44745,7.888314 6.385957,8.11808 6.489677,8.297729 6.593399,8.477381 6.823099,8.538938 7.002749,8.435217 7.182399,8.331496 7.243893,8.101796 7.140172,7.922146 7.068862,7.798636 6.938034,7.730941 6.804831,7.734386 Z m 0.0021,0.08864 c 0.101859,-0.0025 0.20216,0.04924 0.256471,0.143311 0.079,0.13683 0.03176,0.313147 -0.105073,0.392147 -0.13683,0.079 -0.313147,0.03176 -0.392147,-0.105073 -0.079,-0.13683 -0.03176,-0.313212 0.105073,-0.392213 0.04276,-0.02469 0.08938,-0.03702 0.135676,-0.03817 z m 0.0056,0.154504 c -0.02087,10e-4 -0.04231,0.0073 -0.06302,0.01922 -0.06625,0.03825 -0.08607,0.112124 -0.04781,0.178378 0.03825,0.06625 0.112123,0.08607 0.178378,0.04781 0.06625,-0.03825 0.08607,-0.112123 0.04781,-0.178379 -0.0263,-0.04555 -0.06944,-0.06916 -0.11536,-0.06703 z M 5.488574,8.268742 C 5.438124,8.270042 5.387259,8.283592 5.340475,8.310602 5.190767,8.397032 5.139393,8.588432 5.225827,8.73814 5.312257,8.887848 5.503721,8.939157 5.65343,8.852724 5.803138,8.766284 5.854447,8.574829 5.768013,8.425121 5.708593,8.322197 5.599571,8.265843 5.488574,8.26874 Z m 0.0019,0.0889 c 0.07972,-0.0018 0.158559,0.03863 0.200765,0.111737 0.06139,0.10633 0.02416,0.245224 -0.08217,0.306614 C 5.502739,8.837383 5.36378,8.800153 5.30239,8.693823 5.241,8.587493 5.27823,8.448599 5.38456,8.38721 5.41779,8.36802 5.45424,8.35847 5.490474,8.35764 Z m 0.0076,0.153856 c -0.01124,5.01e-4 -0.0231,0.0043 -0.0352,0.01126 -0.03687,0.02129 -0.0462,0.05597 -0.02491,0.09285 0.02129,0.03687 0.05597,0.0462 0.09284,0.02491 0.03687,-0.02129 0.0462,-0.05604 0.02491,-0.09291 -0.0133,-0.02304 -0.03182,-0.03533 -0.05286,-0.0361 -0.0016,-5.8e-5 -0.0032,-7.4e-5 -0.0048,0 z m 3.750923,0.05836 A 0.37560686,0.37560686 0 0 0 9.061173,8.620128 0.37560686,0.37560686 0 0 0 8.923685,9.133264 0.37560686,0.37560686 0 0 0 9.436756,9.270688 0.37560686,0.37560686 0 0 0 9.574245,8.757615 0.37560686,0.37560686 0 0 0 9.248997,8.569855 Z m -0.008,0.08871 c 0.101859,-0.0025 0.202224,0.04918 0.256536,0.143245 0.079,0.136831 0.03176,0.313214 -0.105073,0.392213 -0.136829,0.079 -0.313213,0.03176 -0.392212,-0.105074 -0.079,-0.13683 -0.03176,-0.313212 0.105074,-0.392211 0.04276,-0.02469 0.08938,-0.03702 0.135675,-0.03817 z m 0.0056,0.154503 c -0.02087,10e-4 -0.04231,0.0073 -0.06302,0.01922 -0.06625,0.03825 -0.08606,0.112124 -0.04781,0.178379 0.03825,0.06625 0.112124,0.08606 0.178378,0.04781 0.06625,-0.03825 0.08607,-0.112124 0.04781,-0.178378 -0.0263,-0.04555 -0.06944,-0.06916 -0.11536,-0.06703 z M 9.937595,9.82511 A 0.31300571,0.31300571 0 0 0 9.781084,9.86704 0.31300571,0.31300571 0 0 0 9.666501,10.294643 0.31300571,0.31300571 0 0 0 10.094104,10.409227 0.31300571,0.31300571 0 0 0 10.208623,9.981623 0.31300571,0.31300571 0 0 0 9.937595,9.825114 Z m -0.0065,0.08903 c 0.07972,-0.0018 0.158558,0.03863 0.200764,0.111737 0.06139,0.10633 0.02416,0.245223 -0.08217,0.306613 C 9.943359,10.39388 9.8044,10.35665 9.74301,10.25032 9.68162,10.143991 9.71885,10.005097 9.82518,9.943708 9.85841,9.924518 9.89486,9.914968 9.931094,9.914138 Z m 0.0076,0.153856 c -0.01124,5.01e-4 -0.0231,0.0043 -0.0352,0.01126 -0.03687,0.02129 -0.0462,0.05597 -0.02491,0.09284 0.02129,0.03687 0.05597,0.04613 0.09284,0.02484 0.03687,-0.02129 0.0462,-0.05597 0.02491,-0.09284 -0.0133,-0.02305 -0.03182,-0.03534 -0.05286,-0.0361 -0.0016,-5.8e-5 -0.0032,-7.4e-5 -0.0048,0 z m -8.045391,3.072478 v 1.085343 c 0,0.693621 0.558391,1.252011 1.252012,1.252011 h 10.642192 c 0.693621,0 1.252012,-0.55839 1.252012,-1.252011 v -1.085343 c -0.2379,0.447071 -0.708155,0.750003 -1.252012,0.750003 H 3.145296 c -0.543863,0 -1.014116,-0.302925 -1.252011,-0.750003 z m 1.502401,0.834954 h 4.069117 c 0.03468,0 0.06256,0.02788 0.06256,0.06256 v 0.751232 c 0,0.03468 -0.02788,0.06263 -0.06256,0.06263 H 3.395686 c -0.03468,0 -0.06257,-0.02795 -0.06257,-0.06263 v -0.751232 c 0,-0.03468 0.02789,-0.06256 0.06257,-0.06256 z m 0.03132,0.06884 V 14.7955 h 0.03578 0.03571 v -0.751232 h -0.03571 z m 0.107273,0 V 14.7955 h 0.03578 v -0.751232 z m 0.107337,0 V 14.7955 h 0.03578 v -0.751232 z m 0.178896,0 V 14.7955 h 0.03578 v -0.751232 z m 0.143051,0 V 14.7955 h 0.03578 v -0.751232 z m 0.07156,0 V 14.7955 h 0.03578 0.03578 v -0.751232 h -0.0358 z m 0.178895,0 V 14.7955 h 0.03578 v -0.751232 z m 0.143052,0 V 14.7955 h 0.03578 0.03578 0.03578 0.03578 v -0.751232 h -0.0358 -0.03578 -0.03578 z m 0.178896,0 V 14.7955 h 0.03571 v -0.751232 z m 0.07149,0 V 14.7955 h 0.03578 0.03578 0.03578 0.03578 v -0.751232 h -0.03578 -0.03578 -0.03578 z m 0.214674,0 V 14.7955 h 0.03571 v -0.751232 z m 0.107273,0 V 14.7955 h 0.03578 v -0.751232 z m 0.07156,0 V 14.7955 h 0.03578 v -0.751232 z m 0.07156,0 V 14.7955 h 0.03578 0.03571 v -0.751232 h -0.03571 z m 0.21461,0 V 14.7955 h 0.03578 v -0.751232 z m 0.107337,0 V 14.7955 h 0.03578 0.03578 v -0.751232 h -0.03578 z m 0.143052,0 V 14.7955 h 0.03578 v -0.751232 z m 0.07156,0 V 14.7955 h 0.03578 v -0.751232 z m 0.178896,0 V 14.7955 h 0.03578 v -0.751232 z m 0.107337,0 V 14.7955 h 0.03571 v -0.751232 z m 0.07149,0 V 14.7955 h 0.03578 0.03578 v -0.751232 h -0.03578 z m 0.214675,0 V 14.7955 h 0.03578 v -0.751232 z m 0.107273,0 V 14.7955 h 0.03578 0.03578 0.03578 0.03578 v -0.751232 h -0.03578 -0.03578 -0.03578 z m 0.178895,0 V 14.7955 h 0.03578 v -0.751232 z m 0.107273,0 V 14.7955 h 0.03578 v -0.751232 z m 0.143117,0 V 14.7955 h 0.03578 v -0.751232 z m 0.143052,0 V 14.7955 h 0.03578 0.03578 v -0.751232 h -0.03578 z m 0.107337,0 V 14.7955 h 0.03578 0.03578 v -0.751232 h -0.03578 z m 0.178831,0 V 14.7955 h 0.03578 0.03578 0.03578 v -0.751232 h -0.03578 -0.03578 z m 0.143117,0 V 14.7955 h 0.03578 v -0.751232 z m 0.07156,0 V 14.7955 h 0.03578 0.03578 v -0.751232 h -0.03578 z"
     class="ColorScheme-Text" />
</svg>
