<?xml version='1.0' encoding='UTF-8'?>
<svg xmlns:inkscape="http://www.inkscape.org/namespaces/inkscape" xmlns:sodipodi="http://sodipodi.sourceforge.net/DTD/sodipodi-0.dtd" xmlns="http://www.w3.org/2000/svg" xmlns:svg="http://www.w3.org/2000/svg" xmlns:rdf="http://www.w3.org/1999/02/22-rdf-syntax-ns#" xmlns:cc="http://creativecommons.org/ns#" xmlns:dc="http://purl.org/dc/elements/1.1/" width="64" height="64" version="1.1" viewBox="0 0 16.933 16.933" id="svg7" sodipodi:docname="btrfs-assistant.svg" inkscape:version="1.4.2 (ebf0e940d0, 2025-05-08)">
  <sodipodi:namedview id="namedview7" pagecolor="#9c4444" bordercolor="#000000" borderopacity="0.25" inkscape:showpageshadow="2" inkscape:pageopacity="0.0" inkscape:pagecheckerboard="0" inkscape:deskcolor="#d1d1d1" inkscape:zoom="4.3531261" inkscape:cx="36.295755" inkscape:cy="40.660435" inkscape:window-width="2560" inkscape:window-height="1376" inkscape:window-x="0" inkscape:window-y="0" inkscape:window-maximized="1" inkscape:current-layer="svg7" showgrid="false"/>
  <defs id="defs2">
    <style id="current-color-scheme" type="text/css">.ColorScheme-Text {color:#d8dee9} .ColorScheme-Highlight {color:#3b4252}</style>
    </defs>
  <metadata id="metadata2">
    <rdf:RDF>
      <cc:Work rdf:about="">
        <dc:format>image/svg+xml</dc:format>
        <dc:type rdf:resource="http://purl.org/dc/dcmitype/StillImage"/>
      </cc:Work>
    </rdf:RDF>
  </metadata>
  <path d="M 2.171415,7.2190589 1.760731,6.8603148 1.358212,6.5078785 C 1.281418,6.4418465 1.232074,6.3413123 1.232074,6.2407671 c 0,-0.068635 0.01071,-0.1365315 0.04489,-0.1966231 L 2.763505,3.470241 C 2.849935,3.3244425 3.044342,3.2528428 3.204981,3.3081237 L 4.749397,3.8297309 C 5.213876,3.458744 5.742903,3.1567612 6.305689,2.9371367 L 6.619173,1.3489444 c 0.04045,-0.216285 0.241883,-0.3016117 0.36097,-0.3016117 h 2.973085 c 0.169538,0.00222 0.328323,0.1350362 0.360228,0.3012407 l 0.313483,1.5881941 c 0.562787,0.2196228 1.091813,0.5216055 1.556288,0.8925923 l 1.544787,-0.5216071 c 0.160271,-0.055288 0.355033,0.016245 0.441104,0.1621173 l 1.486541,2.5739029 c 0.03413,0.060845 0.0449,0.1276153 0.0449,0.1969942 0,0.1001649 -0.04971,0.2014449 -0.126139,0.2667386 l -1.230934,1.0780876 c 0.04342,0.2889979 0.06974,0.579851 0.06974,0.8810919 0,0.3012421 -0.02634,0.5920951 -0.06974,0.881093 l 1.230563,1.0780858 c 0.07792,0.06677 0.126877,0.162117 0.126877,0.266369 0,0.06751 -0.01181,0.138378 -0.04526,0.197364 l -1.486544,2.573533 c -0.08643,0.145799 -0.280836,0.217397 -0.441475,0.162118 L 12.18286,13.103641 c -0.464104,0.370984 -0.993501,0.672969 -1.556287,0.892592 l -0.313484,1.588192 c -0.03153,0.166197 -0.190315,0.299016 -0.359857,0.301242 H 6.980147 C 6.810609,15.883467 6.652195,15.750631 6.62029,15.584425 L 6.306807,13.996233 C 5.74402,13.77661 5.214623,13.474625 4.750519,13.103641 L 3.205732,13.625248 C 3.045084,13.680517 2.850318,13.609003 2.764249,13.46313 L 1.277708,10.889597 c -0.03376,-0.05974 -0.04488,-0.129111 -0.04488,-0.197364 0,-0.103875 0.04896,-0.200333 0.126138,-0.266369 L 2.589899,9.3477782 c -0.04342,-0.288998 -0.06974,-0.579851 -0.06974,-0.881093 0,-0.301241 0.02634,-0.592094 0.06974,-0.8810919 z M 8.466683,4.0144786 c -2.225918,0 -4.451838,1.8549323 -4.451838,4.4518356 0,2.5969058 2.22592,4.4518368 4.451838,4.4518368 2.225917,0 4.451835,-1.854931 4.451835,-4.4518368 0,-2.5969033 -2.225918,-4.4518356 -4.451835,-4.4518356 z M 6.982737,5.498424 c 0.741972,0 0.741972,0.741972 0.741972,0.741972 v 1.1129589 c 0,0.1969942 -0.185494,0.3709873 -0.185494,0.3709873 0,0 0.185494,0.17659 0.185494,0.370987 v 0.741972 c 0,0 0,0.370986 0.370987,0.370986 h 0.741972 c 0.370987,0 0.370987,-0.370986 0.370987,-0.370986 v -1.112959 c 0,0 0,-0.7419742 0.741973,-0.7419742 H 10.6926 c 0.741972,0 0.741972,0.7419742 0.741972,0.7419742 v 1.112959 c 0,0.190686 -0.185493,0.370986 -0.185493,0.370986 0,0 0.185493,0.170277 0.185493,0.370987 v 1.1129588 c 0,0 0,0.741972 -0.741972,0.741972 H 9.950628 c -0.742344,0 -0.741973,-0.741972 -0.741973,-0.741972 v -0.370987 c 0,-0.3709868 -0.370987,-0.3709868 -0.370987,-0.3709868 H 6.240765 c -0.741974,0 -0.741974,-0.741972 -0.741974,-0.741972 v -1.112958 c 0,-0.148033 0.185493,-0.370987 0.185493,-0.370987 0,0 -0.185493,-0.1769597 -0.185493,-0.3709873 V 6.240396 c 0,0 0,-0.741972 0.741974,-0.741972 z m 0,2.9678902 c 0,0 0,-0.370985 -0.370987,-0.370985 -0.370985,0 -0.370985,0.370985 -0.370985,0.370985 v 0.370987 c 0,0 0,0.370986 0.370985,0.370986 0.370987,0 0.370987,-0.370986 0.370987,-0.370986 z M 6.61175,6.240396 c -0.370985,0 -0.370985,0.3709851 -0.370985,0.3709851 V 6.982368 c 0,0 0,0.3709869 0.370985,0.3709869 0.370987,0 0.370987,-0.3709869 0.370987,-0.3709869 V 6.6113811 c 0,0 0,-0.3709851 -0.370987,-0.3709851 z m 4.08085,3.7098632 c 0,0 0,-0.370985 -0.370987,-0.370985 -0.370985,0 -0.370985,0.370985 -0.370985,0.370985 v 0.3709868 c 0,0 0,0.370987 0.370985,0.370987 0.370987,0 0.370987,-0.370987 0.370987,-0.370987 z m -0.370987,-2.225917 c -0.370985,0 -0.370985,0.370987 -0.370985,0.370987 v 0.370985 c 0,0 0,0.370987 0.370985,0.370987 0.370987,0 0.370987,-0.370987 0.370987,-0.370987 v -0.370985 c 0,0 0,-0.370987 -0.370987,-0.370987 z" id="path2-6" style="fill:currentColor;fill-opacity:1;stroke-width:0.370987" class="ColorScheme-Text"/>
</svg>
