<?xml version="1.0" encoding="UTF-8" standalone="no"?>
<svg
   width="64"
   height="64"
   version="1.1"
   viewBox="0 0 16.933 16.933"
   id="svg7"
   sodipodi:docname="calf_plugin.svg"
   inkscape:version="1.4.2 (ebf0e940d0, 2025-05-08)"
   xmlns:inkscape="http://www.inkscape.org/namespaces/inkscape"
   xmlns:sodipodi="http://sodipodi.sourceforge.net/DTD/sodipodi-0.dtd"
   xmlns="http://www.w3.org/2000/svg"
   xmlns:svg="http://www.w3.org/2000/svg"
   xmlns:rdf="http://www.w3.org/1999/02/22-rdf-syntax-ns#"
   xmlns:cc="http://creativecommons.org/ns#"
   xmlns:dc="http://purl.org/dc/elements/1.1/">
  <sodipodi:namedview
     id="namedview7"
     pagecolor="#9c4444"
     bordercolor="#000000"
     borderopacity="0.25"
     inkscape:showpageshadow="2"
     inkscape:pageopacity="0.0"
     inkscape:pagecheckerboard="0"
     inkscape:deskcolor="#d1d1d1"
     inkscape:zoom="8.7062522"
     inkscape:cx="70.064591"
     inkscape:cy="37.903795"
     inkscape:window-width="2560"
     inkscape:window-height="1392"
     inkscape:window-x="0"
     inkscape:window-y="0"
     inkscape:window-maximized="1"
     inkscape:current-layer="svg7"
     showgrid="false" />
  <defs
     id="defs2">
    <style
       id="current-color-scheme"
       type="text/css">.ColorScheme-Text {color:#d8dee9} .ColorScheme-Highlight {color:#3b4252}</style>
  </defs>
  <metadata
     id="metadata2">
    <rdf:RDF>
      <cc:Work
         rdf:about="">
        <dc:format>image/svg+xml</dc:format>
        <dc:type
           rdf:resource="http://purl.org/dc/dcmitype/StillImage" />
      </cc:Work>
    </rdf:RDF>
  </metadata>
  <path
     id="path5"
     class="ColorScheme-Text"
     style="baseline-shift:baseline;display:inline;overflow:visible;vector-effect:none;fill:currentColor;fill-opacity:1;stroke-width:0.0543438;marker:none;enable-background:accumulate;stop-color:#000000"
     d="M 7.455992,1.4551089 7.400372,1.5662397 H 2.865416 c -0.751006,0 -1.354671,0.603664 -1.354671,1.354669 v 6.3812698 c 3.19e-4,8.73e-5 6.36e-4,1.27e-4 9.55e-4,2.116e-4 v 4.7547759 c 0,0.785389 0.634232,1.419625 1.419629,1.419625 h 2.160382 c -7.7e-5,2.65e-4 -1.35e-4,5.29e-4 -2.12e-4,0.0011 h 8.976085 c 0.751007,0 1.354671,-0.603674 1.354671,-1.354674 V 8.8460951 c -1.43e-4,-6.35e-5 -2.91e-4,-1.482e-4 -4.23e-4,-2.117e-4 V 6.0299759 c 1.47e-4,5.3e-6 2.91e-4,-1.32e-5 4.23e-4,0 V 2.9209087 c 0,-0.751005 -0.603664,-1.354669 -1.354671,-1.354669 h -2.930537 c 0.306903,0.2719889 0.674355,0.4683773 1.069365,0.5706103 -5.83e-4,7.937e-4 -0.0012,0.00159 -0.0018,0.00212 L 12.182002,2.13312 C 11.804141,2.0353234 11.452889,1.8472481 11.159025,1.5868133 l -0.02293,-0.020267 H 7.503326 Z m 0.103911,0.2726742 h 3.518026 c 0.27892,0.241118 0.605213,0.4192505 0.956006,0.5265634 -0.492275,0.6802303 -0.655598,1.5819179 -0.350793,2.4313592 0.490559,1.3671095 1.999521,2.0805762 3.366668,1.5899848 0.07455,-0.026751 0.14189,-0.061562 0.210901,-0.094571 v 2.544715 C 15.140247,8.6792399 15.01653,8.6408152 14.888264,8.6157676 14.580103,7.8742107 13.859337,7.4219197 13.096083,7.4243406 12.881026,7.4251343 12.662996,7.4617943 12.449688,7.5383367 11.952253,7.7168396 11.57754,8.0817166 11.365038,8.523533 10.864241,8.2507212 10.256194,8.1801185 9.680165,8.3868228 8.976212,8.6394341 8.496949,9.2360286 8.357231,9.919598 8.20829,9.916078 8.055329,9.937986 7.907832,9.9909233 7.265735,10.221336 6.930604,10.93058 7.161028,11.572735 7.204218,11.693086 7.268764,11.797663 7.341679,11.893491 7.167454,12.00555 7.01789,12.143694 6.894191,12.302132 6.430125,11.794491 5.694189,11.586228 5.011259,11.831294 c -0.910537,0.326743 -1.383196,1.33373 -1.056522,2.244127 0.04319,0.120365 0.09831,0.232581 0.163562,0.336144 0.226723,0.379223 0.589226,0.646034 1.000056,0.760075 -0.01684,0.04746 -0.03233,0.09531 -0.04543,0.144034 H 2.931329 c -0.699013,0 -1.258508,-0.559504 -1.258508,-1.258508 V 9.3887881 C 2.891786,9.666185 4.166568,9.0339201 4.646028,7.8374396 l 4.23e-4,-0.00106 0.03641,-0.1000899 1.06e-4,-5.292e-4 C 4.829071,7.3221906 4.861662,6.8940767 4.800041,6.4872323 4.973656,6.3365841 5.117002,6.1474743 5.20815,5.9200165 L 5.21823,5.8968925 C 5.676479,5.7856691 6.077536,5.4669821 6.266154,4.9962897 l 2.12e-4,-5.292e-4 0.02208,-0.056998 4.23e-4,-0.00106 C 6.397613,4.6298844 6.394148,4.310446 6.309569,4.0183147 6.845154,3.8870972 7.314781,3.5167619 7.535385,2.9662516 l 2.12e-4,-5.292e-4 0.02569,-0.066018 4.24e-4,-0.00106 C 7.700477,2.5058464 7.687409,2.0954302 7.559911,1.7279153 Z" />
</svg>
