<?xml version='1.0' encoding='UTF-8'?>
<svg xmlns:inkscape="http://www.inkscape.org/namespaces/inkscape" xmlns:sodipodi="http://sodipodi.sourceforge.net/DTD/sodipodi-0.dtd" xmlns="http://www.w3.org/2000/svg" xmlns:svg="http://www.w3.org/2000/svg" xmlns:rdf="http://www.w3.org/1999/02/22-rdf-syntax-ns#" xmlns:cc="http://creativecommons.org/ns#" xmlns:dc="http://purl.org/dc/elements/1.1/" width="64" height="64" version="1.1" viewBox="0 0 16.933 16.933" id="svg7" sodipodi:docname="cisco-anyconnect.svg" inkscape:version="1.4 (e7c3feb100, 2024-10-09)">
  <sodipodi:namedview id="namedview7" pagecolor="#9c4444" bordercolor="#000000" borderopacity="0.25" inkscape:showpageshadow="2" inkscape:pageopacity="0.0" inkscape:pagecheckerboard="0" inkscape:deskcolor="#d1d1d1" inkscape:zoom="4.3531261" inkscape:cx="19.870777" inkscape:cy="29.863596" inkscape:window-width="1183" inkscape:window-height="941" inkscape:window-x="35" inkscape:window-y="32" inkscape:window-maximized="0" inkscape:current-layer="svg7" showgrid="false"/>
  <defs id="defs2">
    <style id="current-color-scheme" type="text/css">.ColorScheme-Text {color:#d8dee9} .ColorScheme-Highlight {color:#3b4252}</style></defs>
  <metadata id="metadata2">
    <rdf:RDF>
      <cc:Work rdf:about="">
        <dc:format>image/svg+xml</dc:format>
        <dc:type rdf:resource="http://purl.org/dc/dcmitype/StillImage"/>
      </cc:Work>
    </rdf:RDF>
  </metadata>
  <path id="path7" style="fill:currentColor;fill-opacity:1;stroke:none;stroke-width:0.0811399;stroke-opacity:1" d="M 8.9669843,1.7851785 8.6702721,2.1201901 C 7.0334479,3.9684153 6.5593369,6.3591545 7.376761,8.6423454 c 0.5620284,1.5698326 1.8106614,2.9390776 3.370981,3.6964066 0.78068,0.378913 1.586552,0.603849 2.427517,0.67754 0.206041,0.01805 1.721899,0.0304 1.74632,0.02774 0.188366,-0.02075 0.106267,-1.632793 0.0055,-1.730502 -0.01159,-0.01127 -0.197248,6.2e-5 -0.347225,0.02537 -0.444748,0.07505 -1.31456,0.05724 -1.789958,-0.03664 C 11.746679,11.096227 10.925131,10.665662 10.169365,9.9283721 9.4151165,9.1925667 8.969246,8.3771802 8.762873,7.3553925 8.6685539,6.8883828 8.6691511,6.0088939 8.7638708,5.5398458 9.0189635,4.2761969 9.8214203,3.0752164 10.867511,2.39177 11.015509,2.295075 11.137319,2.2050912 11.138039,2.1920785 11.140039,2.1548085 10.453606,1.9650065 10.067548,1.8960657 9.874889,1.8616611 9.548601,1.8229286 9.3422512,1.8096112 Z M 7.1018656,3.7120831 C 7.0039282,3.7113516 6.8476969,3.7168711 6.6024971,3.7257061 5.5104273,3.7650894 4.6838118,3.9755283 3.7085815,4.4619825 3.0913224,4.7698767 2.3086098,5.2380306 1.9645764,5.9198023 1.5473313,6.7466589 1.8765542,7.200522 2.0461199,8.0070916 l 0.182324,0.1100252 0.022272,0.00979 C 2.5315283,7.5825252 2.8635953,7.1476017 3.3250859,6.71826 4.1768228,5.9258576 5.2441934,5.4630053 6.4444441,5.3659968 6.6296466,5.3510248 6.7834932,5.3193955 6.7901237,5.295047 6.7966977,5.2709113 6.8343671,5.107574 6.8739992,4.9318441 6.935069,4.6610709 7.134291,4.0441861 7.2468291,3.7773925 7.2661977,3.7314695 7.2650881,3.7132884 7.1018648,3.71208 Z m 2.4755121,0.5605446 c -0.1099663,0 -0.4275036,0.8115274 -0.5333066,1.3630703 l -0.035393,0.1846553 0.1813246,0.085046 c 0.2855095,0.134431 0.714923,0.4209632 1.0079493,0.6723727 1.123399,0.9638495 1.725009,2.2477276 1.728399,3.689357 l 9.17e-4,0.502753 0.258414,0.08833 c 0.142177,0.04865 0.42384,0.122255 0.625907,0.163512 0.202069,0.04126 0.462603,0.07598 0.578879,0.07753 l 0.211386,0.0028 0.02812,-0.449189 C 13.69941,9.5445284 13.430813,8.336737 12.883877,7.2990098 12.253814,6.1035654 11.248974,5.1201924 9.9817195,4.4577544 9.7871972,4.3560702 9.6053202,4.2726283 9.5773777,4.2726277 Z m 1.6469463,8.6229103 c -0.02255,-0.0017 -0.03567,4.71e-4 -0.03782,0.0065 -0.03933,0.112005 -0.526374,0.689808 -0.794626,0.942542 -0.4905643,0.462186 -0.9514956,0.75107 -1.7254889,1.082094 -0.087957,0.03762 -0.060593,0.0445 0.185687,0.04651 0.9329031,0.0076 2.4766099,0.313887 2.8847049,-0.221939 0.467571,-0.613923 0.776004,-0.811181 0.988071,-1.162278 l 0.186656,-0.30917 -0.415012,-0.07049 c -0.228167,-0.03903 -0.613006,-0.13338 -0.855224,-0.209553 -0.196549,-0.06181 -0.349258,-0.09962 -0.416951,-0.104291 z" sodipodi:nodetypes="ccsssccsssccscsccscsscccsssscssccccscccscccssccscsscscccsss" class="ColorScheme-Text"/>
  </svg>
