<?xml version='1.0' encoding='UTF-8'?>
<svg xmlns:inkscape="http://www.inkscape.org/namespaces/inkscape" xmlns:sodipodi="http://sodipodi.sourceforge.net/DTD/sodipodi-0.dtd" xmlns="http://www.w3.org/2000/svg" xmlns:svg="http://www.w3.org/2000/svg" xmlns:rdf="http://www.w3.org/1999/02/22-rdf-syntax-ns#" xmlns:cc="http://creativecommons.org/ns#" xmlns:dc="http://purl.org/dc/elements/1.1/" width="64" height="64" version="1.1" viewBox="0 0 16.933 16.933" id="svg7" sodipodi:docname="ckb-next.svg" inkscape:version="1.4.2 (ebf0e940d0, 2025-05-08)">
  <sodipodi:namedview id="namedview7" pagecolor="#9c4444" bordercolor="#000000" borderopacity="0.25" inkscape:showpageshadow="2" inkscape:pageopacity="0.0" inkscape:pagecheckerboard="0" inkscape:deskcolor="#d1d1d1" inkscape:zoom="4.3531261" inkscape:cx="36.295755" inkscape:cy="40.660435" inkscape:window-width="2560" inkscape:window-height="1376" inkscape:window-x="0" inkscape:window-y="0" inkscape:window-maximized="1" inkscape:current-layer="svg7" showgrid="false"/>
  <defs id="defs2">
    <style id="current-color-scheme" type="text/css">.ColorScheme-Text {color:#d8dee9} .ColorScheme-Highlight {color:#3b4252}</style>
    </defs>
  <metadata id="metadata2">
    <rdf:RDF>
      <cc:Work rdf:about="">
        <dc:format>image/svg+xml</dc:format>
        <dc:type rdf:resource="http://purl.org/dc/dcmitype/StillImage"/>
      </cc:Work>
    </rdf:RDF>
  </metadata>
  <path d="m 1.0862228,15.471785 c 0.586621,-0.795745 0.766983,-1.077372 1.026439,-1.601077 0.547674,-1.105532 0.731631,-1.899481 0.732229,-3.159609 5.98e-4,-1.0204467 -0.07732,-1.5159896 -0.36851,-2.3488847 -0.0911,-0.2618508 -0.180967,-0.5195108 -0.19895,-0.5734398 -0.01973,-0.058718 -0.0049,-0.09767 0.03716,-0.09767 0.08811,0 2.818664,1.4297043 2.981648,1.5615292 0.110258,0.089282 0.122222,0.1635824 0.146796,0.9311654 0.02334,0.737621 -0.02531,1.524377 -0.136592,2.221854 -0.06473,0.402666 0.08148,0.17737 0.258239,-0.397275 0.319372,-1.039021 0.367913,-1.390754 0.365514,-2.6394986 -0.003,-1.2936839 -0.08389,-1.8060047 -0.449402,-2.8528161 -0.109671,-0.3145838 -0.185757,-0.5854241 -0.168359,-0.6022019 0.01685,-0.016773 0.772376,0.4619881 1.678973,1.0641888 l 1.648412,1.0953477 0.03834,0.2558593 c 0.0677,0.4506026 0.03716,2.1613338 -0.04795,2.7173958 -0.04555,0.291812 -0.09767,0.644146 -0.116241,0.782562 l -0.03355,0.251668 0.135418,-0.251668 c 0.183371,-0.339748 0.415848,-1.028835 0.545277,-1.614259 0.41465,-1.8827025 0.19474,-3.8403064 -0.632164,-5.6133551 -0.125858,-0.2702427 -0.21572,-0.5045304 -0.200132,-0.5201104 0.06653,-0.066514 2.4459552,1.7251127 4.0560212,3.0535507 1.119911,0.9239749 2.721589,2.5124676 3.074521,3.0499548 0.417045,0.63396 0.517115,1.209195 0.348139,2.003744 -0.08987,0.422438 -0.434423,1.2068 -0.593214,1.350008 -0.09286,0.08449 -0.105468,0.0791 -0.185132,-0.07431 -0.382892,-0.738221 -1.780239,-1.122312 -3.513739,-0.966518 -2.4273832,0.219308 -5.3730752,1.056998 -9.3613832,2.662868 -0.567449,0.228897 -1.057,0.415848 -1.088161,0.415848 -0.03124,0 -0.02204,-0.04735 0.02039,-0.104862 z M 4.4735308,8.0602145 C 4.1032238,7.964943 3.7688678,7.8660727 3.7305178,7.8415047 c -0.04015,-0.025749 -0.0701,-0.1599892 -0.0701,-0.3115881 0,-0.379296 -0.136005,-0.7957441 -0.456595,-1.3973465 -0.153403,-0.2882172 -0.26725,-0.5350897 -0.253471,-0.5488721 0.01382,-0.013782 0.422436,0.1965392 0.908394,0.4679799 l 0.883826,0.4925464 0.125214,0.3505353 c 0.236702,0.6609235 0.386485,1.2433509 0.33196,1.2918863 -0.02927,0.026374 -0.350536,-0.029365 -0.72624,-0.1264329 z M 13.338773,6.9301136 C 12.982844,6.2050757 11.922851,5.4237115 10.533293,4.8628553 L 10.084489,4.6818956 10.049149,4.270841 C 9.994629,3.6434724 9.7615408,2.8495256 9.3534678,1.9021822 9.2408058,1.6415285 9.1581358,1.4012464 9.1689228,1.3688892 c 0.05511,-0.1653809 2.0726522,1.3464145 2.9103422,2.181107 1.115122,1.1115263 1.622048,2.0331043 1.623846,2.9540828 5.99e-4,0.301999 -0.10967,0.7394189 -0.186362,0.7394189 -0.01306,0 -0.09345,-0.1408133 -0.177977,-0.3133835 z M 7.5318768,6.5484197 6.7750778,6.254211 6.7073778,5.7808394 c -0.0755,-0.5255038 -0.269652,-1.1097286 -0.56026,-1.6879615 -0.106055,-0.210321 -0.185133,-0.4050626 -0.175572,-0.4332258 0.0095,-0.028774 0.448804,0.2354873 0.976103,0.5860231 l 0.959329,0.6381539 0.120462,0.3271654 c 0.164194,0.4434122 0.454796,1.5699181 0.41525,1.6088665 -0.05394,0.053923 -0.128849,0.031767 -0.910793,-0.2714396 z" fill-rule="nonzero" id="path3-5" style="fill:currentColor;fill-opacity:1;stroke-width:0.599207" class="ColorScheme-Text"/>
</svg>
