<?xml version="1.0" encoding="UTF-8" standalone="no"?>
<svg
   width="64"
   height="64"
   version="1.1"
   viewBox="0 0 16.933 16.933"
   id="svg7"
   sodipodi:docname="7z.svg"
   inkscape:version="1.4.3 (0d15f75042, 2025-12-25)"
   xmlns:inkscape="http://www.inkscape.org/namespaces/inkscape"
   xmlns:sodipodi="http://sodipodi.sourceforge.net/DTD/sodipodi-0.dtd"
   xmlns="http://www.w3.org/2000/svg"
   xmlns:svg="http://www.w3.org/2000/svg"
   xmlns:rdf="http://www.w3.org/1999/02/22-rdf-syntax-ns#"
   xmlns:cc="http://creativecommons.org/ns#"
   xmlns:dc="http://purl.org/dc/elements/1.1/">
  <sodipodi:namedview
     id="namedview7"
     pagecolor="#9c4444"
     bordercolor="#000000"
     borderopacity="0.25"
     inkscape:showpageshadow="2"
     inkscape:pageopacity="0.0"
     inkscape:pagecheckerboard="0"
     inkscape:deskcolor="#d1d1d1"
     inkscape:zoom="4.3531262"
     inkscape:cx="89.820506"
     inkscape:cy="34.457995"
     inkscape:window-width="2560"
     inkscape:window-height="1388"
     inkscape:window-x="0"
     inkscape:window-y="0"
     inkscape:window-maximized="1"
     inkscape:current-layer="svg7"
     showgrid="false" />
  <defs
     id="defs2">
    <style
       id="current-color-scheme"
       type="text/css">.ColorScheme-Text {color:#d8dee9} .ColorScheme-Highlight {color:#3b4252}</style>
  </defs>
  <metadata
     id="metadata2">
    <rdf:RDF>
      <cc:Work
         rdf:about="">
        <dc:format>image/svg+xml</dc:format>
        <dc:type
           rdf:resource="http://purl.org/dc/dcmitype/StillImage" />
      </cc:Work>
    </rdf:RDF>
  </metadata>
  <path
     id="path5"
     style="fill:currentColor;stroke-width:0.876415"
     d="m 5.8372565,1.4551797 v 9.6405653 h 0.876414 7.0113205 c 0,0 1.752829,0 1.752829,-1.7528298 V 3.2080098 c 0,0 0,-1.7528301 -1.752829,-1.7528301 z m 3.996932,1.7528301 h 1.6467005 l 1.910312,6.1349054 H 11.946484 L 11.55963,7.8879292 H 9.7023805 l -0.385141,1.454986 H 7.9136035 Z M 10.604474,4.2419057 C 10.455477,4.8904528 10.307111,5.6275315 10.140587,6.2497862 L 9.9745655,6.7924104 H 11.289191 L 11.148839,6.2497862 C 10.982321,5.6275315 10.789646,4.8816886 10.631891,4.2419057 Z M 3.2080085,5.8372549 c -1.752829,0 -1.752829,1.7528301 -1.752829,1.7528301 v 6.134905 c 0,1.726538 1.752829,1.75283 1.752829,1.75283 H 10.21933 11.095744 V 11.97216 H 8.8516445 c -0.0086,0.122698 -0.02584,0.262652 -0.02584,0.376585 h 0.376585 v 0.438207 h -0.438207 c -0.07013,0.613491 -0.315383,0.938038 -0.736051,0.938038 -0.105172,0 -0.271062,-0.01779 -0.463882,-0.06162 l -0.07874,-0.438208 c 0.227866,0.04382 0.419925,0.06162 0.542623,0.06162 0.122695,0 0.184043,-0.175556 0.219089,-0.499831 h -2.050673 c 0.03505,-0.254161 0.05244,-0.543103 0.07874,-0.814792 h -0.438032 -0.166043 c -0.201575,0.578435 -0.456078,1.175013 -0.789114,1.727155 l -0.438207,-0.359467 c 0.280436,-0.446972 0.5088,-0.903187 0.710376,-1.367687 H 4.9608515 V 11.095745 9.8598629 c -0.01756,-0.00878 -0.03554,-0.035331 -0.05307,-0.061622 l 0.05307,-0.042794 v -1.569673 c -0.01756,-0.01753 -0.03554,-0.0443 -0.05307,-0.053064 l 0.05307,-0.051352 v -2.244103 z m 0.07874,2.3844651 h 1.401923 v 4.188648 h -0.463884 v -0.463884 h -0.474155 v 0.682987 h -0.463882 z m 0.463883,0.4638838 v 2.8226722 h 0.474155 V 8.6856038 Z m 3.041776,3.2865562 c -0.01756,0.113934 -0.03554,0.262652 -0.05307,0.376585 h 1.561115 c 0.01756,-0.131463 0.01689,-0.253886 0.02584,-0.376585 h -0.412532 l -0.183148,0.236221 c -0.08765,-0.08764 -0.184308,-0.148579 -0.280735,-0.236221 z"
     class="ColorScheme-Text" />
</svg>
