<?xml version='1.0' encoding='UTF-8'?>
<svg xmlns:inkscape="http://www.inkscape.org/namespaces/inkscape" xmlns:sodipodi="http://sodipodi.sourceforge.net/DTD/sodipodi-0.dtd" xmlns="http://www.w3.org/2000/svg" xmlns:svg="http://www.w3.org/2000/svg" xmlns:rdf="http://www.w3.org/1999/02/22-rdf-syntax-ns#" xmlns:cc="http://creativecommons.org/ns#" xmlns:dc="http://purl.org/dc/elements/1.1/" width="64" height="64" version="1.1" viewBox="0 0 16.933 16.933" id="svg7" sodipodi:docname="com.jeffser.Alpaca.svg" inkscape:version="1.4 (e7c3feb100, 2024-10-09)">
  <sodipodi:namedview id="namedview7" pagecolor="#9c4444" bordercolor="#000000" borderopacity="0.25" inkscape:showpageshadow="2" inkscape:pageopacity="0.0" inkscape:pagecheckerboard="0" inkscape:deskcolor="#d1d1d1" inkscape:zoom="6.15625" inkscape:cx="15.837563" inkscape:cy="29.725888" inkscape:window-width="1183" inkscape:window-height="941" inkscape:window-x="35" inkscape:window-y="32" inkscape:window-maximized="0" inkscape:current-layer="svg7" showgrid="false"/>
  <defs id="defs2">
    <style id="current-color-scheme" type="text/css">.ColorScheme-Text {color:#d8dee9} .ColorScheme-Highlight {color:#3b4252}</style></defs>
  <metadata id="metadata2">
    <rdf:RDF>
      <cc:Work rdf:about="">
        <dc:format>image/svg+xml</dc:format>
        <dc:type rdf:resource="http://purl.org/dc/dcmitype/StillImage"/>
      </cc:Work>
    </rdf:RDF>
  </metadata>
  <path style="fill:currentColor;fill-opacity:1;stroke-width:0.0122095" d="m 8.5778803,14.167687 c -0.00724,-0.01767 -0.015599,-0.098 -0.018639,-0.178581 -0.00891,-0.236271 0.028622,-0.473824 0.1681633,-1.064758 0.039967,-0.169271 0.074098,-0.325244 0.075842,-0.346608 L 8.8063966,12.5389 8.5407122,12.44992 C 8.1766813,12.328004 7.972414,12.29502 7.8906794,12.344971 c -0.020148,0.01235 -0.072342,0.0578 -0.1159893,0.101061 -0.1587165,0.157396 -0.3355653,0.219274 -0.7478387,0.261683 -0.0386,0.0038 -0.070201,0.01045 -0.070201,0.01368 0,0.04444 0.05604,0.189981 0.1282671,0.33301 0.09393,0.18601 0.1107795,0.230137 0.1910578,0.500313 0.055041,0.18525 0.073657,0.353417 0.047781,0.431819 -0.035188,0.106609 -0.1484356,0.155097 -0.3621376,0.155097 -0.1430681,0 -0.4162098,-0.03129 -0.4399102,-0.05039 -0.024229,-0.01955 -0.056688,-0.160911 -0.055442,-0.24157 0.00135,-0.08639 -0.034449,-0.189658 -0.1780775,-0.51386 C 6.2480154,13.245148 6.1838315,13.077579 6.1455465,12.963419 6.1072577,12.849286 6.054812,12.71185 6.0289967,12.658067 5.9784168,12.552693 5.8927249,12.444507 5.859834,12.444522 c -0.040637,0 -0.1680322,0.07053 -0.2064076,0.114247 -0.07907,0.09008 -0.089213,0.125552 -0.1313147,0.459602 -0.017347,0.137674 -0.0394,0.286013 -0.048995,0.32966 -0.00961,0.04366 -0.023341,0.170031 -0.030544,0.28082 -0.016378,0.251943 -0.029969,0.339421 -0.058803,0.378377 -0.070347,0.09504 -0.2138882,0.134235 -0.4920267,0.13433 -0.2190801,1.58e-4 -0.3107475,-0.03914 -0.3403603,-0.145749 -0.02269,-0.08166 -0.014117,-0.316821 0.025088,-0.690538 0.00705,-0.06715 0.03959,-0.24297 0.072312,-0.390704 0.075804,-0.34223 0.090239,-0.444637 0.08322,-0.590406 -0.0072,-0.149682 -0.045724,-0.243554 -0.1337429,-0.325885 C 4.4933228,11.900136 4.3732236,11.859006 4.1015664,11.828169 3.8719377,11.802079 3.74666,11.777649 3.6368144,11.737559 3.417744,11.657625 3.3397701,11.568227 3.239084,11.281575 3.1575149,11.049353 3.0559327,10.960237 2.6981223,10.807008 2.531501,10.735653 2.466484,10.692492 2.4002253,10.609245 2.2794062,10.457446 2.240137,10.308747 2.2513318,10.045408 2.2630358,9.770355 2.2349918,9.6731837 2.0754583,9.4358245 1.9956526,9.3170859 1.9935341,9.3119236 1.9951282,9.2400937 1.9959986,9.1995192 2.0116392,9.0677086 2.0298013,8.9471834 2.0527913,8.7946666 2.061575,8.6941648 2.0586889,8.6165941 2.0548889,8.5161202 2.0509179,8.4999455 2.0179149,8.452398 1.9365322,8.3352193 1.9270531,8.3180091 1.9059118,8.2490639 1.8887358,8.193031 1.8840523,8.1372793 1.8845463,7.9941987 1.8852717,7.7785783 1.8983023,7.7318239 2.0044173,7.5628993 2.0799898,7.4426255 2.100867,7.3831384 2.0951556,7.3043564 l -0.00393,-0.054944 -0.097677,-0.00893 c -0.1091816,-0.00997 -0.2075767,-0.00486 -0.4372077,0.022758 -0.086011,0.010336 -0.2151283,0.016948 -0.2869253,0.014706 -0.1161508,-0.00367 -0.138586,-0.00817 -0.2034847,-0.040742 -0.0685767,-0.034434 -0.07391,-0.040286 -0.089015,-0.097679 -0.079021,-0.3001481 0.2056795,-0.567739 0.6040388,-0.567739 0.1335301,0 0.2203647,0.024246 0.3979494,0.1111234 0.1308815,0.06403 0.2792516,0.1152369 0.3047788,0.105184 0.00828,-0.00327 0.059044,-0.075783 0.1127669,-0.1611428 C 2.5367446,6.4040102 2.610438,6.3274864 2.7489657,6.2608886 2.8102578,6.2314253 2.9373241,6.1817403 3.0313372,6.1504834 3.2999389,6.0611815 3.349911,6.0246122 3.4858881,5.8178205 3.6107371,5.6279535 3.6959362,5.5668176 3.9167477,5.5086512 4.0012312,5.4863965 4.0686736,5.4798662 4.2828192,5.4731991 4.6344071,5.4622361 4.6378366,5.4609631 4.8640339,5.2533731 4.9744562,5.1520366 5.0768978,5.0918028 5.2229574,5.0423325 l 0.1159931,-0.039288 0.3235531,-9.58e-5 c 0.3851226,-1.026e-4 0.4219718,-0.00754 0.6929203,-0.1398856 0.3790512,-0.1851151 0.5165887,-0.1990882 0.922028,-0.093668 0.314347,0.081732 0.3957505,0.077526 0.6580255,-0.03401 0.243197,-0.1034265 0.3781403,-0.1301348 0.5347123,-0.1058414 0.1845204,0.028629 0.3383715,0.098621 0.5352288,0.2434841 0.1551882,0.1142033 0.1953331,0.1355593 0.3321664,0.1767057 0.1825539,0.054897 0.2968919,0.069568 0.6410041,0.082268 0.181311,0.00671 0.357813,0.017689 0.392232,0.024468 0.172626,0.033936 0.325689,0.222315 0.54482,0.6705208 0.150653,0.3081568 0.216227,0.4263773 0.346478,0.6246664 0.400147,0.6092012 0.914863,1.0410304 1.606186,1.3475473 0.162621,0.072105 0.195601,0.098804 0.24436,0.1978445 0.03994,0.081126 0.04041,0.084124 0.04036,0.2532886 -1.63e-4,0.1890025 -0.01444,0.2747296 -0.08759,0.5227584 -0.02415,0.081962 -0.05155,0.1792441 -0.06086,0.2161775 -0.02489,0.098965 -0.02162,0.2774047 0.0084,0.4578595 0.03087,0.1854495 0.02662,0.2834646 -0.01805,0.4116941 -0.04674,0.1343813 -0.121334,0.2459904 -0.264326,0.3952894 -0.144267,0.150681 -0.16853,0.190219 -0.261362,0.426184 -0.07285,0.185172 -0.123253,0.268762 -0.209737,0.347799 -0.164749,0.150575 -0.398453,0.220158 -0.822014,0.244754 l -0.213669,0.01254 -0.0396,0.04549 c -0.05263,0.06046 -0.129922,0.220346 -0.157725,0.326319 -0.0183,0.06975 -0.02235,0.130454 -0.02184,0.329656 5.8e-4,0.266245 0.01016,0.338992 0.115379,0.879093 0.101249,0.519747 0.187051,1.120049 0.163066,1.140688 -0.01094,0.0093 -0.649961,0.111169 -0.696489,0.110922 -0.02282,-1.59e-4 -0.03118,-0.01463 -0.05729,-0.100871 -0.189368,-0.624879 -0.277352,-1.090054 -0.312169,-1.651343 -0.0067,-0.107445 -0.01758,-0.213965 -0.02423,-0.236715 -0.02464,-0.08415 -0.07517,-0.115748 -0.2147109,-0.134254 -0.1948807,-0.02582 -0.187739,-0.02662 -0.2007996,0.02238 -0.057728,0.216539 -0.4131975,1.654911 -0.4399136,1.780066 -0.027769,0.130055 -0.067416,0.278088 -0.07839,0.29264 -0.00116,0.0015 -0.1253183,0.02234 -0.2761221,0.04649 -0.1508068,0.02415 -0.3006835,0.04845 -0.3330635,0.05394 -0.056168,0.0095 -0.059481,0.0086 -0.071991,-0.02208 z M 13.463381,7.664664 C 13.038404,7.5841994 12.53027,7.2718843 12.052863,6.7977157 11.696915,6.4441854 11.490278,6.1385648 11.260505,5.6258031 11.156983,5.3947804 11.107463,5.3112615 10.984432,5.1601654 c -0.03889,-0.047781 -0.08014,-0.1109657 -0.09162,-0.14041 -0.01138,-0.029444 -0.03089,-0.068012 -0.04312,-0.085707 l -0.02224,-0.032174 -0.290146,-0.00581 C 10.304183,4.8914117 10.221177,4.884983 10.114922,4.8634902 9.9417775,4.8284835 9.7458447,4.7580756 9.5370381,4.6558366 9.3104882,4.5449096 9.242864,4.4724786 9.1713415,4.2641635 9.152381,4.2089503 9.1482888,4.1611891 9.1482888,3.9955522 c 0,-0.1770838 0.00352,-0.2125371 0.028606,-0.2930292 0.057629,-0.1844938 0.069768,-0.2037486 0.1467256,-0.2328614 0.057813,-0.021878 0.086473,-0.025093 0.1787482,-0.020022 0.1483672,0.00811 0.2568251,0.048537 0.6284014,0.2340692 0.397221,0.1983344 0.532099,0.2494753 0.705206,0.2673893 l 0.06381,0.00657 0.09944,-0.1245374 c 0.05473,-0.068493 0.140666,-0.1877238 0.191054,-0.2649478 0.103113,-0.1579964 0.160467,-0.2239078 0.222895,-0.2560609 0.0729,-0.03755 0.204141,-0.072941 0.45786,-0.1234886 0.235596,-0.046936 0.260378,-0.055092 0.411038,-0.1353598 0.08062,-0.042961 0.269283,-0.073802 0.419214,-0.068541 0.116584,0.00405 0.150404,0.010526 0.256402,0.048752 0.06715,0.024217 0.169005,0.060895 0.226328,0.081506 0.112176,0.040322 0.211126,0.054304 0.525513,0.074216 0.201219,0.012749 0.299239,0.028601 0.359229,0.058085 0.02014,0.00992 0.102752,0.087128 0.18354,0.171608 l 0.146927,0.1536017 0.152228,-0.049961 c 0.08371,-0.027478 0.264851,-0.088711 0.402515,-0.136078 0.325485,-0.1119955 0.461064,-0.139764 0.647108,-0.1325364 0.104291,0.00399 0.157852,0.012179 0.208192,0.03162 0.202635,0.078242 0.237723,0.2837868 0.09671,0.5666254 -0.136097,0.2730283 -0.361059,0.5023017 -0.602129,0.6136823 -0.166801,0.07707 -0.255029,0.091424 -0.63683,0.1036355 -0.188024,0.00604 -0.348168,0.011191 -0.35587,0.011533 -0.02599,0.00105 -0.0471,0.2056796 -0.04602,0.4462249 0.0014,0.2946921 0.01805,0.3775825 0.165015,0.8139201 0.152475,0.4529661 0.186238,0.655462 0.158555,0.9514035 -0.02802,0.2997203 -0.102524,0.4816476 -0.262369,0.6406217 -0.109497,0.1089213 -0.210908,0.166858 -0.37358,0.2134487 -0.119453,0.034206 -0.357537,0.042968 -0.489376,0.017993 z M 12.150946,5.4746026 c 0.01963,-0.011153 0.04849,-0.04446 0.06411,-0.073967 0.07598,-0.1436932 -0.0099,-0.3185017 -0.156199,-0.3183777 -0.07102,4.56e-5 -0.123424,0.033847 -0.15561,0.1002915 -0.05645,0.1166049 -0.01989,0.24738 0.08385,0.2997927 0.05974,0.030187 0.100586,0.028255 0.163894,-0.00773 z M 14.038355,5.34777 c 0.07382,-0.050232 0.09147,-0.086155 0.09147,-0.1861962 0,-0.1003713 -0.01748,-0.1356581 -0.09268,-0.1872754 -0.03289,-0.022572 -0.05276,-0.027326 -0.09491,-0.022705 -0.06787,0.00745 -0.110504,0.038705 -0.145103,0.1064513 -0.0919,0.1798274 0.08704,0.3946941 0.241264,0.2897291 z" id="path99" class="ColorScheme-Text"/>
  </svg>
