<?xml version='1.0' encoding='UTF-8'?>
<svg xmlns:inkscape="http://www.inkscape.org/namespaces/inkscape" xmlns:sodipodi="http://sodipodi.sourceforge.net/DTD/sodipodi-0.dtd" xmlns="http://www.w3.org/2000/svg" xmlns:svg="http://www.w3.org/2000/svg" xmlns:rdf="http://www.w3.org/1999/02/22-rdf-syntax-ns#" xmlns:cc="http://creativecommons.org/ns#" xmlns:dc="http://purl.org/dc/elements/1.1/" width="64" height="64" version="1.1" viewBox="0 0 16.933 16.933" id="svg7" sodipodi:docname="com.tracktion.Waveform.svg" inkscape:version="1.4 (e7c3feb100, 2024-10-09)">
  <sodipodi:namedview id="namedview7" pagecolor="#9c4444" bordercolor="#000000" borderopacity="0.25" inkscape:showpageshadow="2" inkscape:pageopacity="0.0" inkscape:pagecheckerboard="0" inkscape:deskcolor="#d1d1d1" inkscape:zoom="4.3531261" inkscape:cx="36.180895" inkscape:cy="29.748736" inkscape:window-width="1183" inkscape:window-height="940" inkscape:window-x="35" inkscape:window-y="32" inkscape:window-maximized="0" inkscape:current-layer="svg7" showgrid="false"/>
  <defs id="defs2">
    <style id="current-color-scheme" type="text/css">.ColorScheme-Text {color:#d8dee9} .ColorScheme-Highlight {color:#3b4252}</style></defs>
  <metadata id="metadata2">
    <rdf:RDF>
      <cc:Work rdf:about="">
        <dc:format>image/svg+xml</dc:format>
        <dc:type rdf:resource="http://purl.org/dc/dcmitype/StillImage"/>
      </cc:Work>
    </rdf:RDF>
  </metadata>
  <path style="fill:currentColor;stroke-width:0.0816569" d="M 7.8266033,15.678399 C 7.4706561,15.646624 6.7562362,15.491451 6.3437175,15.356319 4.7959406,14.849304 3.5075858,13.86742 2.5980843,12.501685 1.0060796,10.111082 0.96346032,7.0167371 2.4891052,4.5893472 4.4530968,1.4645213 8.4134601,0.33435574 11.686966,1.9645611 c 2.005115,0.998548 3.428145,2.8773106 3.883624,5.1273736 0.0824,0.4070586 0.09504,0.5890273 0.09504,1.367748 0,0.7752821 -0.01292,0.9615585 -0.09375,1.3609619 -0.561026,2.7691204 -2.569016,4.9430034 -5.213928,5.6446814 -0.7680935,0.203769 -1.7293032,0.284677 -2.5313545,0.213073 z m 1.7964452,-1.600315 c 0.4828875,-0.0992 0.8448095,-0.216345 0.8382215,-0.271333 -0.0077,-0.06403 -1.8861486,-1.937905 -1.942655,-1.937905 -0.051234,0 -1.897226,1.880814 -1.910142,1.946172 -0.014003,0.07081 0.6834161,0.255328 1.2843151,0.339786 0.402955,0.05664 1.267702,0.01824 1.7302604,-0.07672 z m 0.5755975,-2.688971 c 0.90969,0.915065 1.680725,1.663752 1.713409,1.663752 0.07125,0 0.574543,-0.460357 0.890824,-0.814819 0.632467,-0.708817 1.135148,-1.780778 1.312311,-2.798484 C 14.217106,8.8541269 14.209297,7.9386653 14.09752,7.3752169 13.891292,6.3345643 13.484122,5.4901737 12.792596,4.6689017 12.521531,4.3469781 11.992961,3.8664994 11.909881,3.8664994 c -0.06302,0 -2.3072461,2.2608969 -2.3072461,2.3243895 0,0.063103 1.0983291,1.186844 1.1600041,1.186844 0.02383,0 0.284928,-0.2410952 0.580208,-0.535767 l 0.536872,-0.5357663 0.112043,0.1911941 c 0.06162,0.1051574 0.164901,0.3273102 0.229501,0.4936742 0.209319,0.5390655 0.254476,0.8012077 0.2565,1.4890294 0.0017,0.5678386 -0.0097,0.6741778 -0.109915,1.0353195 -0.109345,0.3937269 -0.41485,1.0877522 -0.478814,1.0877522 -0.01767,0 -0.78031,-0.757217 -1.694613,-1.6827034 L 8.5320516,7.2377616 6.8728221,8.9224266 C 5.960246,9.8489924 5.1986477,10.606209 5.1803823,10.60513 5.1198519,10.601561 4.7922518,9.853594 4.6966974,9.5008043 4.6155457,9.20119 4.6028678,9.0589118 4.6039268,8.4596827 4.6049826,7.8733262 4.6190128,7.7158322 4.6944422,7.444929 4.7841287,7.122826 5.122666,6.3570253 5.1753708,6.3570253 c 0.015504,0 0.2652413,0.2296593 0.5549579,0.5103541 0.2897168,0.2806942 0.5521318,0.5103535 0.5831438,0.5103535 0.058028,0 1.166091,-1.130239 1.166091,-1.1894278 0,-0.018164 -0.5102912,-0.5505673 -1.1339806,-1.1830986 C 5.3372664,3.9825957 5.2010362,3.8585025 5.1162616,3.885409 5.0638241,3.9020534 4.8246035,4.111299 4.5846595,4.3504025 3.7355366,5.1965515 3.1756125,6.2575548 2.959436,7.4300477 2.8621221,7.9578568 2.8628027,9.0322823 2.960743,9.5008043 3.247179,10.870974 3.8759568,11.978221 4.850041,12.827765 L 5.1642693,13.101819 6.854465,11.413589 8.5446604,9.7253601 Z M 9.5323134,4.1197242 C 10.065012,3.5853312 10.500857,3.128521 10.500857,3.1045901 10.500857,3.0614734 9.972365,2.8999506 9.5005635,2.7988716 9.1341029,2.7203598 7.8665929,2.7334299 7.4795629,2.8197089 6.9239102,2.9435794 6.5770755,3.0593975 6.5897988,3.1168257 c 0.017214,0.077687 1.8664926,1.9745209 1.9250213,1.9745209 0.026925,0 0.4847943,-0.4372309 1.0174933,-0.9716224 z" id="path99" class="ColorScheme-Text"/>
  </svg>
