<?xml version='1.0' encoding='UTF-8'?>
<svg xmlns:inkscape="http://www.inkscape.org/namespaces/inkscape" xmlns:sodipodi="http://sodipodi.sourceforge.net/DTD/sodipodi-0.dtd" xmlns="http://www.w3.org/2000/svg" xmlns:svg="http://www.w3.org/2000/svg" xmlns:rdf="http://www.w3.org/1999/02/22-rdf-syntax-ns#" xmlns:cc="http://creativecommons.org/ns#" xmlns:dc="http://purl.org/dc/elements/1.1/" width="64" height="64" version="1.1" viewBox="0 0 16.933 16.933" id="svg7" sodipodi:docname="com.github.maoschanz.drawing.svg" inkscape:version="1.4 (e7c3feb100, 2024-10-09)">
  <sodipodi:namedview id="namedview7" pagecolor="#9c4444" bordercolor="#000000" borderopacity="0.25" inkscape:showpageshadow="2" inkscape:pageopacity="0.0" inkscape:pagecheckerboard="0" inkscape:deskcolor="#d1d1d1" inkscape:zoom="6.15625" inkscape:cx="15.51269" inkscape:cy="27.28934" inkscape:window-width="1183" inkscape:window-height="941" inkscape:window-x="35" inkscape:window-y="32" inkscape:window-maximized="0" inkscape:current-layer="svg7" showgrid="false"/>
  <defs id="defs2">
    <style id="current-color-scheme" type="text/css">.ColorScheme-Text {color:#d8dee9} .ColorScheme-Highlight {color:#3b4252}</style></defs>
  <metadata id="metadata2">
    <rdf:RDF>
      <cc:Work rdf:about="">
        <dc:format>image/svg+xml</dc:format>
        <dc:type rdf:resource="http://purl.org/dc/dcmitype/StillImage"/>
      </cc:Work>
    </rdf:RDF>
  </metadata>
  <path id="path10" style="fill:currentColor;fill-opacity:1;stroke:none;stroke-width:0.139387" d="m 14.259074,2.733784 c -0.197212,9.274e-4 -0.380853,0.1969947 -0.746734,0.5635292 l -0.504393,0.5055525 1.062123,1.062705 1.062127,1.0627042 0.481781,-0.4794633 C 16.129309,4.9365224 16.19548,4.847405 16.19548,4.6649729 16.19548,4.4741261 16.038692,4.2800093 15.267281,3.5187827 14.723839,2.9825113 14.482579,2.7327468 14.259074,2.733784 Z m -1.705081,1.556662 c -0.01944,0 -0.406926,0.3727188 -0.861528,0.8279011 l -0.826741,0.8273208 0.05451,0.1565372 c 0.07707,0.2223076 0.03798,0.466591 -0.126967,0.7942743 -0.2582,0.512904 -0.677942,0.932644 -1.1908463,1.1908316 C 9.2693629,8.2549655 9.0065148,8.2968787 8.7977113,8.2148586 L 8.6527709,8.1574621 7.8068972,9.0027559 6.9616031,9.8480494 8.0150323,10.902637 c 0.579656,0.579891 1.0622353,1.054009 1.0719804,1.054009 0.00977,0 1.2717743,-1.25429 2.8048913,-2.7874982 L 14.679402,6.3816495 13.634668,5.3357578 C 13.059903,4.7607534 12.573427,4.290446 12.553993,4.290446 Z M 1.4758908,8.3766121 c -0.023824,-9.272e-4 -0.046485,0.00137 -0.070152,0.0058 -0.2454475,0.046046 -0.3840316,0.3704295 -0.2435002,0.5710664 0.030398,0.0434 0.1561116,0.1263652 0.2788659,0.1843646 0.1227533,0.057998 0.2464667,0.1395949 0.2753869,0.1808857 0.083271,0.1188887 0.062516,0.3610631 -0.073049,0.8458732 -0.2025322,0.724299 -0.1977713,1.1015 0.018563,1.400129 0.2147363,0.296434 0.563412,0.463803 1.1073457,0.5328 0.5006036,0.06352 0.7476829,0.130226 0.881239,0.237703 0.3785664,0.304621 0.5695461,0.813684 0.6046928,1.611738 0.017157,0.389752 0.045693,0.473425 0.1936406,0.565271 0.1858295,0.115349 0.2005393,0.05901 0.031886,-0.1235 C 4.3886135,14.288973 4.3131117,14.175158 4.313258,14.135965 4.3134047,14.096785 4.4322987,13.79915 4.57705,13.474455 4.7731826,13.034492 4.8345229,12.861417 4.8182236,12.794976 4.7624299,12.567544 4.5408468,12.185891 4.3404994,11.971719 3.982436,11.588949 3.7060886,11.464054 3.0360337,11.382102 2.517357,11.318662 2.2953086,11.232469 2.2405996,11.073086 2.213494,10.994121 2.2303968,10.881793 2.3235052,10.532749 2.5665043,9.6217639 2.5763306,9.4186154 2.3942365,9.0410193 2.2681821,8.7796296 2.1140036,8.6391548 1.7796885,8.4803889 1.6289486,8.4088011 1.547373,8.379407 1.4758925,8.3766117 Z m 5.0323383,1.9248119 -0.6354194,0.636 -0.6359998,0.636 1.0621251,1.062704 1.0627048,1.062704 0.6365788,-0.635419 0.6359998,-0.636 -1.062705,-1.062706 z m -1.116622,1.61232 c -0.034584,0.04171 -1.0087869,2.187776 -1.0087869,2.222229 0,0.01748 0.088531,0.121011 0.1971185,0.230744 0.147288,0.148846 0.2115929,0.19266 0.2527766,0.171038 0.030362,-0.01596 0.5338114,-0.244977 1.118362,-0.508452 0.5845515,-0.26348 1.0696519,-0.485043 1.0783583,-0.492805 0.0087,-0.0078 -0.3516902,-0.382113 -0.8006516,-0.831377 C 5.7798225,12.255853 5.4031922,11.899772 5.3916071,11.913744 Z" class="ColorScheme-Text"/>
</svg>
