<?xml version="1.0" encoding="UTF-8" standalone="no"?>
<svg
   width="64"
   height="64"
   version="1.1"
   viewBox="0 0 16.933 16.933"
   id="svg7"
   sodipodi:docname="converseen.svg"
   inkscape:version="1.4.2 (ebf0e940d0, 2025-05-08)"
   xmlns:inkscape="http://www.inkscape.org/namespaces/inkscape"
   xmlns:sodipodi="http://sodipodi.sourceforge.net/DTD/sodipodi-0.dtd"
   xmlns="http://www.w3.org/2000/svg"
   xmlns:svg="http://www.w3.org/2000/svg"
   xmlns:rdf="http://www.w3.org/1999/02/22-rdf-syntax-ns#"
   xmlns:cc="http://creativecommons.org/ns#"
   xmlns:dc="http://purl.org/dc/elements/1.1/">
  <sodipodi:namedview
     id="namedview7"
     pagecolor="#9c4444"
     bordercolor="#000000"
     borderopacity="0.25"
     inkscape:showpageshadow="2"
     inkscape:pageopacity="0.0"
     inkscape:pagecheckerboard="0"
     inkscape:deskcolor="#d1d1d1"
     inkscape:zoom="4.3531261"
     inkscape:cx="36.295755"
     inkscape:cy="40.660435"
     inkscape:window-width="2560"
     inkscape:window-height="1376"
     inkscape:window-x="0"
     inkscape:window-y="0"
     inkscape:window-maximized="1"
     inkscape:current-layer="svg7"
     showgrid="false" />
  <defs
     id="defs2">
    <style
       id="current-color-scheme"
       type="text/css">.ColorScheme-Text {color:#d8dee9} .ColorScheme-Highlight {color:#3b4252}</style>
  </defs>
  <metadata
     id="metadata2">
    <rdf:RDF>
      <cc:Work
         rdf:about="">
        <dc:format>image/svg+xml</dc:format>
        <dc:type
           rdf:resource="http://purl.org/dc/dcmitype/StillImage" />
      </cc:Work>
    </rdf:RDF>
  </metadata>
  <path
     id="rect6"
     class="ColorScheme-Text"
     style="fill:currentColor;stroke-width:0.11122;stroke-linejoin:bevel;paint-order:fill markers stroke"
     d="m 10.132207,1.455178 0.215924,0.162269 c 0.118788,0.08929 0.280659,0.235608 0.359511,0.325189 0.362417,0.411729 1.345122,2.218787 1.709142,3.1426229 0.467934,1.1875541 0.63576,2.0676717 0.520476,2.7301091 -0.178539,1.0259158 -0.757463,1.7001892 -1.748026,2.0356344 -0.240734,0.081522 -0.840771,0.2223366 -0.870646,0.2054966 -1.01e-4,-7.3e-5 -3.56e-4,-5.8e-4 -4.2e-4,-6.56e-4 l -2.23e-4,-2.22e-4 -2.22e-4,-2.23e-4 v -2.22e-4 c -7e-6,-9.9e-5 -1.2e-5,-3.34e-4 0,-4.33e-4 2.89e-4,-0.0025 0.111867,-0.5804363 0.247856,-1.284246 0.13599,-0.7038098 0.241352,-1.2855365 0.234171,-1.2927181 -0.0072,-0.00718 -0.141569,0.1763255 -0.298688,0.4077351 -1.1038012,1.6256972 -2.5143582,2.853514 -3.9561512,3.4437 -0.158334,0.06481 -0.295766,0.125675 -0.305204,0.135115 l -2.23e-4,2.22e-4 v 2.22e-4 l -2.22e-4,2.23e-4 v 2.22e-4 l -2.23e-4,2.23e-4 c -1.2e-5,9.3e-5 0,5.55e-4 0,6.68e-4 1.2e-5,1.04e-4 1.9e-4,5.55e-4 2.23e-4,6.68e-4 0.0043,0.01313 0.09241,0.05403 0.206583,0.09515 0.527876,0.190074 1.33598,0.667393 1.931582,1.140878 0.705786,0.561078 1.54955,1.489347 2.1094922,2.320852 0.16795,0.249403 0.310186,0.448588 0.316065,0.442709 0.0059,-0.0059 -0.09941,-0.586145 -0.23417,-1.289676 -0.134761,-0.703531 -0.240247,-1.284091 -0.234388,-1.290112 0.0059,-0.006 0.168241,-0.03472 0.360813,-0.06365 1.178617,-0.177058 2.213276,-0.525365 2.918663,-0.982517 1.331959,-0.863225 1.942069,-2.2676915 1.705015,-3.9255091 C 15.069282,6.1689379 14.101738,4.3441029 12.667681,2.914294 12.11497,2.36322 11.669935,2.020399 11.171421,1.761687 10.831646,1.585357 10.442911,1.45518 10.256461,1.45518 Z m -4.0021902,0.0113 c -0.0059,0.0059 0.09941,0.586146 0.23417,1.289677 0.134761,0.703531 0.240248,1.284091 0.234388,1.290111 -0.0059,0.006 -0.168241,0.03472 -0.360814,0.06365 -1.178616,0.177057 -2.213276,0.525366 -2.918662,0.9825169 -1.331959,0.863225 -1.942071,2.2679095 -1.705015,3.9257271 0.249655,1.745922 1.217199,3.57054 2.651256,5.000348 0.544144,0.542533 0.991977,0.889321 1.478447,1.144787 0.337718,0.177351 0.729543,0.310594 0.919956,0.312807 l 0.137071,0.0017 -0.215924,-0.162483 c -0.118788,-0.08928 -0.280442,-0.235596 -0.359293,-0.325176 -0.362419,-0.41173 -1.34534,-2.218788 -1.70936,-3.142624 -0.467933,-1.187554 -0.63576,-2.0676715 -0.520476,-2.7301088 0.178541,-1.0259158 0.757463,-1.7001893 1.748026,-2.0356344 0.240733,-0.081522 0.840771,-0.2221195 0.870646,-0.2052795 l 2.22e-4,2.224e-4 c 8.4e-5,7.78e-5 3.67e-4,3.559e-4 4.21e-4,4.329e-4 l 2.22e-4,2.225e-4 v 2.224e-4 c 8e-6,9.87e-5 1.2e-5,3.337e-4 0,4.33e-4 -2.89e-4,0.00254 -0.111867,0.5804364 -0.247856,1.2842462 -0.135989,0.7038097 -0.241352,1.2855365 -0.234171,1.2927179 0.0072,0.00718 0.141569,-0.1763255 0.298688,-0.4077351 1.103788,-1.6256983 2.514562,-2.8535156 3.9563552,-3.4437006 0.158333,-0.06481 0.295549,-0.125676 0.304988,-0.135115 l 2.22e-4,-2.22e-4 2.23e-4,-2.23e-4 v -2.22e-4 l 2.22e-4,-2.23e-4 v -2.22e-4 c 1.2e-5,-9.5e-5 -10e-7,-5.55e-4 0,-6.56e-4 -1.2e-5,-1.02e-4 -2.22e-4,-5.46e-4 -2.22e-4,-6.56e-4 -0.0043,-0.01312 -0.09241,-0.05403 -0.206583,-0.09515 -0.5278972,-0.190052 -1.3360022,-0.66737 -1.9316042,-1.140856 -0.705786,-0.561078 -1.54955,-1.489348 -2.109491,-2.320853 -0.16795,-0.249403 -0.310187,-0.448588 -0.316066,-0.442709 z" />
</svg>
