<?xml version="1.0" encoding="UTF-8" standalone="no"?>
<svg
   width="64"
   height="64"
   version="1.1"
   viewBox="0 0 16.933 16.933"
   id="svg7"
   sodipodi:docname="crispy-doom.svg"
   inkscape:version="1.4.3 (0d15f75042, 2025-12-25)"
   xmlns:inkscape="http://www.inkscape.org/namespaces/inkscape"
   xmlns:sodipodi="http://sodipodi.sourceforge.net/DTD/sodipodi-0.dtd"
   xmlns="http://www.w3.org/2000/svg"
   xmlns:svg="http://www.w3.org/2000/svg"
   xmlns:rdf="http://www.w3.org/1999/02/22-rdf-syntax-ns#"
   xmlns:cc="http://creativecommons.org/ns#"
   xmlns:dc="http://purl.org/dc/elements/1.1/">
  <sodipodi:namedview
     id="namedview7"
     pagecolor="#9c4444"
     bordercolor="#000000"
     borderopacity="0.25"
     inkscape:showpageshadow="2"
     inkscape:pageopacity="0.0"
     inkscape:pagecheckerboard="0"
     inkscape:deskcolor="#d1d1d1"
     inkscape:zoom="4.3531262"
     inkscape:cx="89.935366"
     inkscape:cy="34.457995"
     inkscape:window-width="2560"
     inkscape:window-height="1388"
     inkscape:window-x="0"
     inkscape:window-y="0"
     inkscape:window-maximized="1"
     inkscape:current-layer="svg7"
     showgrid="false" />
  <defs
     id="defs2">
    <style
       id="current-color-scheme"
       type="text/css">.ColorScheme-Text {color:#d8dee9} .ColorScheme-Highlight {color:#3b4252}</style>
  </defs>
  <metadata
     id="metadata2">
    <rdf:RDF>
      <cc:Work
         rdf:about="">
        <dc:format>image/svg+xml</dc:format>
        <dc:type
           rdf:resource="http://purl.org/dc/dcmitype/StillImage" />
      </cc:Work>
    </rdf:RDF>
  </metadata>
  <path
     id="path5"
     style="fill:currentColor"
     d="M 5.030007,12.040941 V 15.47782 L 8.312834,13.178325 8.036939,12.623783 7.177815,12.918705 v -0.51924 L 5.88913,12.795076 Z M 5.459569,10.767564 V 7.0394807 l 0.429561,-0.277488 1.026699,0.420338 1.12111,-0.321435 V 9.7785346 L 9.325624,8.9131331 V 7.0394807 l 0.859123,-0.153859 1.718246,0.583421 v 2.358943 L 8.896062,11.966764 8.4665,11.496975 7.78123,11.764659 V 11.163177 L 6.458402,11.5217 Z m 0,-9.3123843 h 5.584301 l 0.859123,0.859123 v 4.855665 l -1.718246,-0.560048 -0.859123,0.13971 v -2.71708 H 8.036939 v 2.57737 L 6.928191,6.8979847 5.88913,6.4652837 5.459569,6.7619927 Z"
     class="ColorScheme-Text" />
</svg>
