<?xml version='1.0' encoding='UTF-8'?>
<svg xmlns:inkscape="http://www.inkscape.org/namespaces/inkscape" xmlns:sodipodi="http://sodipodi.sourceforge.net/DTD/sodipodi-0.dtd" xmlns="http://www.w3.org/2000/svg" xmlns:svg="http://www.w3.org/2000/svg" xmlns:rdf="http://www.w3.org/1999/02/22-rdf-syntax-ns#" xmlns:cc="http://creativecommons.org/ns#" xmlns:dc="http://purl.org/dc/elements/1.1/" width="64" height="64" version="1.1" viewBox="0 0 16.933 16.933" id="svg7" sodipodi:docname="dconf-editor.svg" inkscape:version="1.4 (e7c3feb100, 2024-10-09)">
  <sodipodi:namedview id="namedview7" pagecolor="#9c4444" bordercolor="#000000" borderopacity="0.25" inkscape:showpageshadow="2" inkscape:pageopacity="0.0" inkscape:pagecheckerboard="0" inkscape:deskcolor="#d1d1d1" inkscape:zoom="6.15625" inkscape:cx="15.756345" inkscape:cy="29.563452" inkscape:window-width="1226" inkscape:window-height="669" inkscape:window-x="35" inkscape:window-y="32" inkscape:window-maximized="0" inkscape:current-layer="svg7" showgrid="false"/>
  <defs id="defs2">
    <style id="current-color-scheme" type="text/css">.ColorScheme-Text {color:#d8dee9} .ColorScheme-Highlight {color:#3b4252}</style></defs>
  <metadata id="metadata2">
    <rdf:RDF>
      <cc:Work rdf:about="">
        <dc:format>image/svg+xml</dc:format>
        <dc:type rdf:resource="http://purl.org/dc/dcmitype/StillImage"/>
      </cc:Work>
    </rdf:RDF>
  </metadata>
  <path id="path99" style="fill:currentColor;fill-opacity:1;stroke:none;stroke-width:0.407185;stroke-dasharray:none;stroke-dashoffset:2.2;stroke-opacity:0.3" d="m 9.1683617,1.3266532 c -0.079574,7.96e-5 -0.181887,0.00338 -0.3165233,0.00716 -0.3413711,0.00954 -0.5783148,0.036647 -0.6115737,0.069985 -0.029864,0.029933 -0.067137,0.2160457 -0.083505,0.4135481 L 8.1265381,2.1760181 7.7153758,2.3366654 7.3042134,2.4973127 7.0234779,2.2539558 6.7427427,2.0098033 6.3443052,2.4042644 C 6.1248733,2.6212733 5.9044266,2.8554958 5.8544096,2.9243806 L 5.762952,3.0492397 5.9951751,3.3283847 6.2273981,3.6075296 6.0794762,4.0568652 5.9315544,4.5062011 H 5.6229818 c -0.4359814,0 -0.4655389,0.032216 -0.4986432,0.5431792 -0.028255,0.4360837 0.00203,0.7832597 0.078734,0.9066248 0.029727,0.047819 0.1516694,0.077108 0.3833269,0.093049 l 0.3403822,0.023858 0.1272468,0.3268623 C 6.2247759,6.8372406 6.2224807,6.9788868 6.0412986,7.151318 5.8228683,7.3592043 5.7973376,7.430106 5.882242,7.5942915 5.9726972,7.7692131 6.6559516,8.481034 6.7331967,8.481034 c 0.030719,0 0.1784613,-0.1018305 0.3284522,-0.2266563 L 7.3344285,8.0277219 7.7304803,8.2010931 8.1265324,8.3752604 8.158346,8.6893981 c 0.039815,0.3961633 0.055244,0.4342098 0.1876858,0.4628554 0.059449,0.012863 0.3452819,0.01805 0.6354326,0.011932 0.3974108,-0.00838 0.5455035,-0.028568 0.5988494,-0.081915 0.042963,-0.042963 0.081789,-0.200918 0.098616,-0.4016186 l 0.027047,-0.3308402 0.3944612,-0.1749624 0.393666,-0.175758 0.277554,0.2743731 0.27676,0.273578 0.440586,-0.4493356 c 0.242273,-0.2474473 0.454102,-0.4929326 0.470811,-0.5455654 0.02208,-0.06954 -0.02126,-0.161272 -0.159068,-0.3356103 C 11.696456,7.0845799 11.610325,6.9309214 11.609878,6.875354 11.60943,6.819787 11.666308,6.6245389 11.735525,6.4419239 l 0.125647,-0.3316336 0.330836,-0.050897 C 12.658962,5.9871153 12.686736,5.9425091 12.685881,5.2839907 12.684944,4.5867453 12.658391,4.5372124 12.262789,4.503021 12.095133,4.488524 11.933756,4.461998 11.904912,4.44417 11.855642,4.413717 11.564529,3.70406 11.564529,3.6146881 c 0,-0.022667 0.0942,-0.1480157 0.209954,-0.2783496 0.115748,-0.1303324 0.21075,-0.266601 0.21075,-0.3030036 0,-0.073728 -0.760393,-0.8907322 -0.897081,-0.9638848 -0.07186,-0.03845 -0.134369,-0.00245 -0.355491,0.2059788 L 10.465473,2.5275333 10.084533,2.347799 9.7043863,2.1688597 9.670985,1.8571083 C 9.6453119,1.6173955 9.6118861,1.5204552 9.5238568,1.4324265 9.4410484,1.3496175 9.4070862,1.3264139 9.1683649,1.3266535 Z M 9.1285947,3.6178679 C 9.336072,3.6180948 9.4076412,3.6477112 9.623262,3.7538604 10.820219,4.3431201 10.814863,6.193438 9.614522,6.7807132 9.3041454,6.9325653 8.7198659,6.9781973 8.4072747,6.8753537 7.9883804,6.737536 7.6151848,6.4058206 7.4298697,6.0053127 7.3477298,5.8277874 7.3320501,5.7023051 7.3320501,5.252178 c 0,-0.533707 0.00114,-0.542647 0.1630333,-0.8119855 C 7.6767842,4.137885 7.96792,3.8581601 8.2331076,3.7300034 c 0.1185106,-0.057274 0.320837,-0.090826 0.6322516,-0.1041827 0.1096167,-0.00469 0.1940801,-0.00804 0.2632389,-0.00794 z m 1.8045023,7.1185931 c -1.2861551,-0.0084 -3.4446783,0.0042 -4.7963624,0.02704 l -2.4574294,0.04135 -0.3483346,0.180528 c -0.5056669,0.262599 -0.9676962,0.735029 -1.2151942,1.242236 l -0.1916635,0.392872 0.016682,0.607597 c 0.015637,0.570175 0.025914,0.627103 0.1646236,0.91219 0.2966013,0.609596 0.7830731,1.077851 1.3678895,1.316195 0.219282,0.08936 0.3775108,0.109098 1.0752248,0.133627 0.9896102,0.03475 6.0549402,0.0067 7.7285762,-0.04296 l 1.204062,-0.0358 0.340383,-0.168606 c 0.849177,-0.419664 1.392269,-1.270625 1.389377,-2.177472 -0.0014,-0.438294 -0.0567,-0.691144 -0.232223,-1.05773 -0.264439,-0.552269 -0.758169,-0.989544 -1.394929,-1.235083 l -0.312546,-0.120884 z m 1.730539,0.434225 c 0.512471,0 0.584181,0.01077 0.831073,0.126445 0.366586,0.171774 0.795919,0.590295 0.970246,0.945593 0.25677,0.523326 0.265886,1.334294 0.01989,1.837108 -0.251007,0.513042 -0.750922,0.924973 -1.300289,1.071248 -0.769377,0.204853 -1.647836,-0.09825 -2.109896,-0.727686 -0.322571,-0.439427 -0.375613,-0.615416 -0.375377,-1.241438 2.01e-4,-0.534696 0.007,-0.57652 0.150307,-0.879586 0.188216,-0.397924 0.587547,-0.806061 0.971839,-0.994106 0.262987,-0.128691 0.316236,-0.137587 0.842204,-0.137587 z" class="ColorScheme-Text"/>
  </svg>
