<?xml version="1.0" encoding="UTF-8" standalone="no"?>
<svg
   width="64"
   height="64"
   version="1.1"
   viewBox="0 0 16.933 16.933"
   id="svg7"
   sodipodi:docname="deluge.svg"
   inkscape:version="1.4.2 (ebf0e940d0, 2025-05-08)"
   xmlns:inkscape="http://www.inkscape.org/namespaces/inkscape"
   xmlns:sodipodi="http://sodipodi.sourceforge.net/DTD/sodipodi-0.dtd"
   xmlns="http://www.w3.org/2000/svg"
   xmlns:svg="http://www.w3.org/2000/svg"
   xmlns:rdf="http://www.w3.org/1999/02/22-rdf-syntax-ns#"
   xmlns:cc="http://creativecommons.org/ns#"
   xmlns:dc="http://purl.org/dc/elements/1.1/">
  <sodipodi:namedview
     id="namedview7"
     pagecolor="#9c4444"
     bordercolor="#000000"
     borderopacity="0.25"
     inkscape:showpageshadow="2"
     inkscape:pageopacity="0.0"
     inkscape:pagecheckerboard="0"
     inkscape:deskcolor="#d1d1d1"
     inkscape:zoom="4.3531261"
     inkscape:cx="36.295755"
     inkscape:cy="40.430715"
     inkscape:window-width="2560"
     inkscape:window-height="1376"
     inkscape:window-x="0"
     inkscape:window-y="0"
     inkscape:window-maximized="1"
     inkscape:current-layer="svg7"
     showgrid="false" />
  <defs
     id="defs2">
    <style
       id="current-color-scheme"
       type="text/css">.ColorScheme-Text {color:#d8dee9} .ColorScheme-Highlight {color:#3b4252}</style>
  </defs>
  <metadata
     id="metadata2">
    <rdf:RDF>
      <cc:Work
         rdf:about="">
        <dc:format>image/svg+xml</dc:format>
        <dc:type
           rdf:resource="http://purl.org/dc/dcmitype/StillImage" />
      </cc:Work>
    </rdf:RDF>
  </metadata>
  <path
     d="M 12.494512,7.4788963 8.4702791,1.3228907 4.4400921,7.4794913 c -1.157859,1.768044 -1.304305,3.8289747 -0.392899,5.5148667 0.871521,1.613266 2.565153,2.615751 4.420109,2.615751 1.8531719,0 3.5462069,-1.000701 4.4177269,-2.61218 0.912002,-1.685891 0.766152,-3.7486077 -0.391113,-5.5184377 z M 6.4926891,11.586472 c 0.853067,1.520397 2.147845,1.81269 3.9200559,1.251322 -1.0120099,1.100115 -3.0884199,1.391218 -4.4986889,-0.179775 -0.97034,-1.081661 -1.055468,-2.590153 -0.382183,-3.8504047 0.673882,-1.260252 2.01688,-1.610884 2.983649,-0.923311 -2.216304,0.05358 -2.637182,2.6074167 -2.022833,3.7015797 z M 11.683713,8.0093093 c 0.430403,0.658998 0.685787,1.349547 0.782224,2.0347377 -1.996639,3.43072 -4.6802539,2.904474 -5.3946159,0.819729 -0.329796,-0.9631957 0.708408,-3.0241277 2.687189,-2.2174947 -0.77151,-1.689464 -2.522885,-2.3913235 -4.114123,-1.076899 a 3.0354387,3.0354387 0 0 0 -0.362541,0.392898 l 3.187837,-4.8689651 3.2134339,4.9159941 z"
     stroke-width="0.595301"
     id="path5"
     class="ColorScheme-Text"
     style="fill:currentColor;fill-opacity:1" />
</svg>
