<?xml version='1.0' encoding='UTF-8'?>
<svg xmlns:inkscape="http://www.inkscape.org/namespaces/inkscape" xmlns:sodipodi="http://sodipodi.sourceforge.net/DTD/sodipodi-0.dtd" xmlns="http://www.w3.org/2000/svg" xmlns:svg="http://www.w3.org/2000/svg" xmlns:rdf="http://www.w3.org/1999/02/22-rdf-syntax-ns#" xmlns:cc="http://creativecommons.org/ns#" xmlns:dc="http://purl.org/dc/elements/1.1/" width="64" height="64" version="1.1" viewBox="0 0 16.933 16.933" id="svg7" sodipodi:docname="dialog-information.svg" inkscape:version="1.4 (e7c3feb100, 2024-10-09)">
  <sodipodi:namedview id="namedview7" pagecolor="#9c4444" bordercolor="#000000" borderopacity="0.25" inkscape:showpageshadow="2" inkscape:pageopacity="0.0" inkscape:pagecheckerboard="0" inkscape:deskcolor="#d1d1d1" inkscape:zoom="6.15625" inkscape:cx="15.837563" inkscape:cy="29.725888" inkscape:window-width="1183" inkscape:window-height="941" inkscape:window-x="35" inkscape:window-y="32" inkscape:window-maximized="0" inkscape:current-layer="svg7" showgrid="false"/>
  <defs id="defs2">
    <style id="current-color-scheme" type="text/css">.ColorScheme-Text {color:#d8dee9} .ColorScheme-Highlight {color:#3b4252}</style></defs>
  <metadata id="metadata2">
    <rdf:RDF>
      <cc:Work rdf:about="">
        <dc:format>image/svg+xml</dc:format>
        <dc:type rdf:resource="http://purl.org/dc/dcmitype/StillImage"/>
      </cc:Work>
    </rdf:RDF>
  </metadata>
  <path d="m 10.072452,14.379146 v 0.503557 c 0,0.276212 -0.2278763,0.503555 -0.5040894,0.503555 H 7.5530691 c -0.2762131,0 -0.5035576,-0.227343 -0.5035576,-0.503555 V 14.379146 Z M 8.5607156,5.310325 c -1.9345539,0 -3.5264978,1.5919441 -3.5264978,3.5264983 0,1.1988717 0.5991697,2.2522007 1.5112043,2.8917387 v 1.138847 c 0,0.276212 0.2273449,0.503557 0.5040894,0.503557 h 3.0229405 c 0.276212,0 0.503558,-0.227345 0.503558,-0.503557 v -1.138847 c 0.912035,-0.639538 1.511204,-1.692867 1.511204,-2.8917387 0,-1.9345542 -1.591943,-3.5264981 -3.5264984,-3.5264983 z M 14.79357,10.216296 13.610104,9.831722 c -0.281525,-0.090833 -0.582706,0.062679 -0.674065,0.343673 -0.09137,0.280463 0.06268,0.582173 0.34314,0.674066 l 1.184,0.384043 c 0.05472,0.01807 0.109972,0.02655 0.165186,0.02655 0.225218,0 0.4345,-0.143957 0.508864,-0.369702 0.09082,-0.281524 -0.06319,-0.582703 -0.343672,-0.674066 z M 3.3232895,9.831722 2.1387599,10.215764 c -0.2804622,0.09083 -0.4345041,0.392542 -0.3431415,0.674068 0.073304,0.225749 0.2831184,0.3697 0.5083385,0.3697 0.05471,0 0.110485,-0.0085 0.1657256,-0.02656 L 3.6536833,10.849459 C 3.9341461,10.757567 4.0881875,10.456386 3.9968246,10.175393 3.9065243,9.8943992 3.6069395,9.7408887 3.3232895,9.8317203 Z M 13.444908,7.640608 c 0.05472,0 0.109972,-0.00903 0.165186,-0.02656 L 14.793568,7.2294751 C 15.074029,7.1381117 15.228075,6.836402 15.137244,6.5554083 15.045341,6.2749461 14.742578,6.1214354 14.463177,6.212267 l -1.184,0.3845739 c -0.280463,0.091361 -0.434505,0.393072 -0.34314,0.6735352 0.0733,0.2262816 0.283119,0.3702317 0.508867,0.3702317 z M 3.6542144,6.5968413 2.4702159,6.2117363 C 2.1870976,6.1203737 1.8875123,6.2738842 1.7961498,6.5548781 1.704787,6.8358719 1.8582977,7.1375813 2.1387599,7.2289445 l 1.1839985,0.3851047 c 0.055242,0.017518 0.1104831,0.026028 0.1657256,0.026028 0.2257519,0 0.4350364,-0.1434196 0.5083393,-0.3697005 C 4.0881869,6.9899148 3.9346777,6.688205 3.6542144,6.5968413 Z M 4.9566657,4.8025179 c 0.1046425,0.1444798 0.2677138,0.2204394 0.433442,0.2204394 0.1088909,0 0.218846,-0.032931 0.3139272,-0.1019863 C 5.9425343,4.7478088 5.995652,4.4131642 5.8230205,4.1741336 L 5.0915849,3.1670175 C 4.9173583,2.9285179 4.583778,2.8743379 4.3436848,3.0485645 4.1051854,3.2217288 4.0520675,3.5563716 4.2257632,3.7954024 Z M 11.841812,3.1670175 c 0.17423,-0.2390306 0.506743,-0.2932105 0.747369,-0.1184517 0.238497,0.1731622 0.292144,0.5078071 0.118446,0.7468372 l -0.73144,1.0071165 c -0.104633,0.1444779 -0.267712,0.2204391 -0.433441,0.2204391 -0.108376,0 -0.218844,-0.032929 -0.313926,-0.1019863 C 10.99033,4.7478078 10.937213,4.413164 11.110374,4.1741334 Z M 8.4661659,4.0232782 c 0.2958665,0 0.5354284,-0.240093 0.5354284,-0.5348975 V 2.2443593 c 0,-0.2958665 -0.2395619,-0.5354286 -0.5354284,-0.5354286 -0.2953358,0 -0.5348973,0.2395621 -0.5348973,0.5354286 v 1.2440214 c 0,0.2948045 0.2395615,0.5348975 0.5348973,0.5348975 z" fill-rule="nonzero" id="path4" style="fill:currentColor;fill-opacity:1;stroke-width:0.531179" class="ColorScheme-Text"/>
  <g id="g9" transform="matrix(0.46959567,0,0,0.46959567,4.7471229,3.7470598)" style="fill:#999999;fill-opacity:1;stroke:none;stroke-width:0.58349;stroke-dasharray:none;stroke-opacity:0.3"/>
  </svg>
