<?xml version="1.0" encoding="UTF-8" standalone="no"?>
<svg
   width="64"
   height="64"
   version="1.1"
   viewBox="0 0 16.933 16.933"
   id="svg7"
   sodipodi:docname="digikam.svg"
   inkscape:version="1.4.2 (ebf0e940d0, 2025-05-08)"
   xmlns:inkscape="http://www.inkscape.org/namespaces/inkscape"
   xmlns:sodipodi="http://sodipodi.sourceforge.net/DTD/sodipodi-0.dtd"
   xmlns="http://www.w3.org/2000/svg"
   xmlns:svg="http://www.w3.org/2000/svg"
   xmlns:rdf="http://www.w3.org/1999/02/22-rdf-syntax-ns#"
   xmlns:cc="http://creativecommons.org/ns#"
   xmlns:dc="http://purl.org/dc/elements/1.1/">
  <sodipodi:namedview
     id="namedview7"
     pagecolor="#9c4444"
     bordercolor="#000000"
     borderopacity="0.25"
     inkscape:showpageshadow="2"
     inkscape:pageopacity="0.0"
     inkscape:pagecheckerboard="0"
     inkscape:deskcolor="#d1d1d1"
     inkscape:zoom="6.15625"
     inkscape:cx="41.583756"
     inkscape:cy="34.030457"
     inkscape:window-width="1226"
     inkscape:window-height="669"
     inkscape:window-x="0"
     inkscape:window-y="0"
     inkscape:window-maximized="0"
     inkscape:current-layer="svg7"
     showgrid="false" />
  <defs
     id="defs2">
    <style
       id="current-color-scheme"
       type="text/css">.ColorScheme-Text {color:#d8dee9} .ColorScheme-Highlight {color:#3b4252}</style>
  </defs>
  <metadata
     id="metadata2">
    <rdf:RDF>
      <cc:Work
         rdf:about="">
        <dc:format>image/svg+xml</dc:format>
        <dc:type
           rdf:resource="http://purl.org/dc/dcmitype/StillImage" />
      </cc:Work>
    </rdf:RDF>
  </metadata>
  <path
     style="fill:currentColor;stroke-width:0.412431"
     d="M 8.4664994,1.4551794 C 6.8117034,1.4580656 5.2112529,2.0461257 3.9482928,3.1153728 L 6.323795,7.2292041 9.5990717,1.5558708 C 9.2248964,1.4916998 8.846127,1.4580253 8.4664994,1.4551794 Z M 10.841196,1.8788872 8.4664994,5.9919131 H 15.022691 C 14.296833,4.0757574 12.769074,2.5730167 10.841196,1.8788872 Z M 3.0461015,4.0264248 C 2.0189676,5.2783206 1.4568378,6.8471609 1.4551838,8.4664949 c 9.072e-4,0.414955 0.038645,0.8290108 0.1127751,1.2372916 h 4.7558367 z m 7.5631015,3.2027793 3.277694,5.6773629 c 1.027135,-1.251896 1.589265,-2.820738 1.590919,-4.4400719 -8.8e-4,-0.4149547 -0.03865,-0.8290106 -0.112772,-1.237291 z m 0,2.4745824 -3.2752763,5.6733345 c 0.3741752,0.06418 0.7529448,0.09787 1.1325727,0.1007 1.6547966,-0.0029 3.2552466,-0.590947 4.5182066,-1.660193 z M 1.9103072,10.94108 c 0.7258611,1.916154 2.2536177,3.418896 4.1814957,4.113026 L 8.4664994,10.94108 Z"
     id="path3"
     class="ColorScheme-Text" />
</svg>
