<?xml version="1.0" encoding="UTF-8" standalone="no"?>
<svg
   width="64"
   height="64"
   version="1.1"
   id="svg73"
   sodipodi:docname="dolphin.svg"
   inkscape:version="1.4.3 (0d15f75042, 2025-12-25)"
   xmlns:inkscape="http://www.inkscape.org/namespaces/inkscape"
   xmlns:sodipodi="http://sodipodi.sourceforge.net/DTD/sodipodi-0.dtd"
   xmlns="http://www.w3.org/2000/svg"
   xmlns:svg="http://www.w3.org/2000/svg"
   xmlns:rdf="http://www.w3.org/1999/02/22-rdf-syntax-ns#"
   xmlns:cc="http://creativecommons.org/ns#"
   xmlns:dc="http://purl.org/dc/elements/1.1/">
  <metadata
     id="metadata77">
    <rdf:RDF>
      <cc:Work
         rdf:about="">
        <dc:format>image/svg+xml</dc:format>
        <dc:type
           rdf:resource="http://purl.org/dc/dcmitype/StillImage" />
      </cc:Work>
    </rdf:RDF>
  </metadata>
  <sodipodi:namedview
     pagecolor="#9c4444"
     bordercolor="#666666"
     borderopacity="1"
     objecttolerance="10"
     gridtolerance="10"
     guidetolerance="10"
     inkscape:pageopacity="0"
     inkscape:pageshadow="2"
     inkscape:window-width="2560"
     inkscape:window-height="1388"
     id="namedview75"
     showgrid="true"
     inkscape:zoom="17.788156"
     inkscape:cx="31.987576"
     inkscape:cy="27.546419"
     inkscape:window-x="0"
     inkscape:window-y="0"
     inkscape:window-maximized="1"
     inkscape:current-layer="svg73"
     inkscape:document-rotation="0"
     inkscape:pagecheckerboard="0"
     inkscape:showpageshadow="2"
     inkscape:deskcolor="#d1d1d1">
    <inkscape:grid
       id="grid1"
       units="px"
       originx="0"
       originy="0"
       spacingx="1"
       spacingy="1"
       empcolor="#0099e5"
       empopacity="0.30196078"
       color="#0099e5"
       opacity="0.14902"
       empspacing="5"
       enabled="true"
       visible="true" />
  </sodipodi:namedview>
  <defs
     id="defs29">
    <style
       id="current-color-scheme"
       type="text/css">.ColorScheme-Text {color:#d8dee9} .ColorScheme-Highlight {color:#3b4252}</style>
  </defs>
  <path
     id="path5"
     style="fill:currentColor"
     class="ColorScheme-Text"
     d="M 7 10 C 5.892 10 5 10.892 5 12 L 5 13 L 5 20 L 5 49 C 5 51.77 7.23 54 10 54 L 54 54 C 56.77 54 59 51.77 59 49 L 59 20 C 59 17.23 56.77 15 54 15 L 32 15 L 26.185547 10.386719 C 25.854392 10.143686 25.44406 10 25 10 L 7 10 z M 10 17 L 54 17 C 55.662 17 57 18.338 57 20 L 57 24 C 57 22.338 55.662 21 54 21 L 10 21 C 8.338 21 7 22.338 7 24 L 7 20 C 7 18.338 8.338 17 10 17 z M 43.347656 34.623047 C 45.255322 34.610436 46.577991 35.274817 47.410156 35.808594 C 47.812541 36.066702 51.41727 33.962241 51.882812 35.697266 C 52.322539 37.336001 50.353516 39.076172 50.353516 39.076172 C 47.242276 42.655461 45.243747 43.872937 45.029297 47.970703 L 27.570312 47.960938 C 31.298203 43.958738 32.685994 39.037137 37.792969 36.265625 C 40.02727 35.053091 41.863918 34.632847 43.347656 34.623047 z M 51.472656 36.201172 C 50.214078 37.415275 48.968077 38.580602 47.541016 39.898438 C 46.217355 41.120788 43.478299 43.215738 43.511719 43.273438 L 43.513672 43.275391 L 43.513672 43.277344 C 43.514379 43.27797 43.518749 43.280691 43.519531 43.28125 L 43.521484 43.283203 C 43.522416 43.28363 43.526338 43.284795 43.527344 43.285156 C 43.795027 43.358527 46.319265 41.426947 47.806641 40.056641 C 49.380928 38.606258 50.539779 37.423941 51.472656 36.201172 z M 40.167969 42.337891 C 39.768343 42.337891 39.445312 42.734155 39.445312 43.224609 C 39.445312 43.71506 39.768343 44.113281 40.167969 44.113281 C 40.567595 44.113281 40.892578 43.71506 40.892578 43.224609 C 40.892578 42.734155 40.567595 42.337891 40.167969 42.337891 z " />
</svg>
