<?xml version="1.0" encoding="UTF-8" standalone="no"?>
<svg
   id="svg3297"
   height="64"
   width="64"
   version="1.0"
   sodipodi:docname="dottrace.svg"
   inkscape:version="1.4.3 (0d15f75042, 2025-12-25)"
   xmlns:inkscape="http://www.inkscape.org/namespaces/inkscape"
   xmlns:sodipodi="http://sodipodi.sourceforge.net/DTD/sodipodi-0.dtd"
   xmlns="http://www.w3.org/2000/svg"
   xmlns:svg="http://www.w3.org/2000/svg"
   xmlns:rdf="http://www.w3.org/1999/02/22-rdf-syntax-ns#"
   xmlns:cc="http://creativecommons.org/ns#"
   xmlns:dc="http://purl.org/dc/elements/1.1/">
  <sodipodi:namedview
     id="namedview1"
     pagecolor="#9c4444"
     bordercolor="#000000"
     borderopacity="0.25"
     inkscape:showpageshadow="2"
     inkscape:pageopacity="0.0"
     inkscape:pagecheckerboard="0"
     inkscape:deskcolor="#d1d1d1"
     inkscape:zoom="3.2734375"
     inkscape:cx="40.782816"
     inkscape:cy="33.298329"
     inkscape:window-width="2560"
     inkscape:window-height="1388"
     inkscape:window-x="0"
     inkscape:window-y="0"
     inkscape:window-maximized="1"
     inkscape:current-layer="svg3297" />
  <metadata
     id="metadata58">
    <rdf:RDF>
      <cc:Work
         rdf:about="">
        <dc:format>image/svg+xml</dc:format>
        <dc:type
           rdf:resource="http://purl.org/dc/dcmitype/StillImage" />
      </cc:Work>
    </rdf:RDF>
  </metadata>
  <defs
     id="defs3299">
    <style
       id="current-color-scheme"
       type="text/css">.ColorScheme-Text {color:#d8dee9} .ColorScheme-Highlight {color:#3b4252}</style>
  </defs>
  <path
     id="path5"
     d="m 41.25051,19.573239 h -9.96798 l -5.8e-4,2.183683 h 3.78147 v 10.243409 h 2.42326 V 21.756922 h 3.76383 z m -8.42319,22.364592 h -13.25 v 2.484375 h 13.25 z M 19.57491,19.573239 h 4.73116 c 1.17752,0 2.2323,0.266077 3.16444,0.798644 0.93222,0.532567 1.66146,1.270675 2.18832,2.214737 0.52644,0.944063 0.78986,2.010274 0.78986,3.200207 0,1.18985 -0.26342,2.25606 -0.78986,3.200123 -0.52686,0.944062 -1.2561,1.68217 -2.18832,2.214737 -0.93214,0.532568 -1.98692,0.798644 -3.16444,0.798644 h -4.73116 z m 6.64827,9.835061 c 0.55642,-0.33125 0.98547,-0.806428 1.28724,-1.424872 0.30169,-0.618526 0.45282,-1.350423 0.45282,-2.197181 0,-0.846758 -0.15113,-1.578572 -0.45282,-2.197099 -0.30177,-0.618526 -0.73082,-1.093125 -1.28724,-1.424871 -0.55641,-0.33125 -1.20442,-0.496875 -1.94402,-0.496875 h -2.28148 v 8.237276 h 2.28148 c 0.7396,0 1.38761,-0.165128 1.94402,-0.496378 z M 26.82179,5.5 c -1.37311,0 -2.61338,0.823139 -3.14752,2.088104 L 21.9048,11.780487 21.37105,11.314666 C 20.74838,10.769653 19.94875,10.46875 19.1212,10.46875 H 17.91136 8.915206 c -1.886577,0 -3.416016,1.529439 -3.416016,3.416016 v 10.406555 c 0,0.165625 0.01125,0.330882 0.03558,0.494933 l 4.512632,30.794282 C 10.293253,57.257986 11.731162,58.5 13.42623,58.5 h 12.75182 2.31617 c 0.66713,0 1.3188,-0.194803 1.87621,-0.561248 l 8.04997,-5.292237 0.0728,0.06308 c 0.61901,0.530498 1.40713,0.821657 2.22234,0.821657 h 9.39889 c 1.88656,0 3.41602,-1.529464 3.41602,-3.416016 v -7.402984 l 3.43057,-2.2547 c 0.96113,-0.631445 1.53979,-1.70475 1.53979,-2.854767 V 8.916016 C 58.50031,7.029439 56.96973,5.5 55.08317,5.5 Z m -11.3851,9.9375 h 33.125 v 33.125 h -33.125 z"
     style="fill:currentColor;fill-opacity:1;stroke-width:0.828125"
     class="ColorScheme-Text" />
</svg>
