<?xml version='1.0' encoding='UTF-8'?>
<svg xmlns:inkscape="http://www.inkscape.org/namespaces/inkscape" xmlns:sodipodi="http://sodipodi.sourceforge.net/DTD/sodipodi-0.dtd" xmlns="http://www.w3.org/2000/svg" xmlns:svg="http://www.w3.org/2000/svg" xmlns:rdf="http://www.w3.org/1999/02/22-rdf-syntax-ns#" xmlns:cc="http://creativecommons.org/ns#" xmlns:dc="http://purl.org/dc/elements/1.1/" width="64" height="64" version="1.1" viewBox="0 0 16.933 16.933" id="svg7" sodipodi:docname="doublecmd.svg" inkscape:version="1.4.2 (ebf0e940d0, 2025-05-08)">
  <sodipodi:namedview id="namedview7" pagecolor="#9c4444" bordercolor="#000000" borderopacity="0.25" inkscape:showpageshadow="2" inkscape:pageopacity="0.0" inkscape:pagecheckerboard="0" inkscape:deskcolor="#d1d1d1" inkscape:zoom="4.3531261" inkscape:cx="36.295755" inkscape:cy="40.660435" inkscape:window-width="2560" inkscape:window-height="1376" inkscape:window-x="0" inkscape:window-y="0" inkscape:window-maximized="1" inkscape:current-layer="svg7" showgrid="false"/>
  <defs id="defs2">
    <style id="current-color-scheme" type="text/css">.ColorScheme-Text {color:#d8dee9} .ColorScheme-Highlight {color:#3b4252}</style>
    </defs>
  <metadata id="metadata2">
    <rdf:RDF>
      <cc:Work rdf:about="">
        <dc:format>image/svg+xml</dc:format>
        <dc:type rdf:resource="http://purl.org/dc/dcmitype/StillImage"/>
      </cc:Work>
    </rdf:RDF>
  </metadata>
  <path fill="currentColor" class="ColorScheme-Text" d="m 1.0473325,2.2838604 v 2.0618455 a 4.1217879,4.1217879 0 0 1 4.12176,4.1217599 4.1217879,4.1217879 0 0 1 -4.12176,4.1217592 V 14.64914 A 6.1826821,6.1826821 0 0 0 7.2309395,8.4674658 6.1826821,6.1826821 0 0 0 1.0473325,2.2838604 Z m 14.8383355,0 A 6.1826806,6.1826806 0 0 0 9.7039935,8.4674658 6.1826806,6.1826806 0 0 0 15.885667,14.64914 v -2.059915 a 4.121787,4.121787 0 0 1 -4.12176,-4.1217592 4.121787,4.121787 0 0 1 4.12176,-4.1217599 z" id="path24-5" style="stroke-width:0.927395"/>
</svg>
