<?xml version='1.0' encoding='UTF-8'?>
<svg xmlns:inkscape="http://www.inkscape.org/namespaces/inkscape" xmlns:sodipodi="http://sodipodi.sourceforge.net/DTD/sodipodi-0.dtd" xmlns="http://www.w3.org/2000/svg" xmlns:svg="http://www.w3.org/2000/svg" xmlns:rdf="http://www.w3.org/1999/02/22-rdf-syntax-ns#" xmlns:cc="http://creativecommons.org/ns#" xmlns:dc="http://purl.org/dc/elements/1.1/" width="64" height="64" version="1.1" viewBox="0 0 16.933 16.933" id="svg7" sodipodi:docname="dropbox.svg" inkscape:version="1.4 (e7c3feb100, 2024-10-09)">
  <sodipodi:namedview id="namedview7" pagecolor="#9c4444" bordercolor="#000000" borderopacity="0.25" inkscape:showpageshadow="2" inkscape:pageopacity="0.0" inkscape:pagecheckerboard="0" inkscape:deskcolor="#d1d1d1" inkscape:zoom="6.15625" inkscape:cx="16" inkscape:cy="41.746193" inkscape:window-width="1183" inkscape:window-height="941" inkscape:window-x="35" inkscape:window-y="32" inkscape:window-maximized="0" inkscape:current-layer="svg7" showgrid="false"/>
  <defs id="defs2">
    <style id="current-color-scheme" type="text/css">.ColorScheme-Text {color:#d8dee9} .ColorScheme-Highlight {color:#3b4252}</style></defs>
  <metadata id="metadata2">
    <rdf:RDF>
      <cc:Work rdf:about="">
        <dc:format>image/svg+xml</dc:format>
        <dc:type rdf:resource="http://purl.org/dc/dcmitype/StillImage"/>
      </cc:Work>
    </rdf:RDF>
  </metadata>
  <path id="path8" style="fill:currentColor;fill-opacity:1;stroke:none;stroke-width:0.0665285;stroke-opacity:1" d="M 11.674112,1.9905508 10.209457,3.2115307 8.7442804,4.4325106 10.862211,5.6780143 c 1.16467,0.6850773 2.123113,1.2454605 2.130453,1.245504 0.05892,3.589e-4 2.669297,-2.1912204 2.640761,-2.2170699 -0.03994,-0.036208 -3.462216,-2.3882231 -3.772513,-2.5927558 z m -6.3762295,0.058963 c -0.1571072,0.015523 -0.9947123,0.573173 -4.0375819,2.6772852 -0.00574,0.00395 0.5919779,0.4999274 1.3284679,1.1020129 0.7364894,0.6020838 1.3461171,1.0947074 1.3545571,1.0947074 0.030839,0 4.1148365,-2.4070395 4.1680285,-2.45657 C 8.1538407,4.4273874 7.8540861,4.1558014 6.7839297,3.2637088 6.0237652,2.6300298 5.3655066,2.0851443 5.3208412,2.0531654 c -0.00488,-0.00348 -0.012483,-0.00469 -0.022962,-0.00367 z m 7.6342555,5.3164806 c -0.0133,0.00144 -0.02447,0.00659 -0.03547,0.013566 -0.05185,0.032783 -1.006231,0.5949512 -2.12054,1.2491563 L 8.7500334,9.8178685 9.4455746,10.379833 c 0.3824905,0.309084 1.0340414,0.835641 1.4479564,1.169845 0.413918,0.334203 0.768614,0.60736 0.787899,0.60736 0.03165,0 3.866244,-2.5384978 3.950444,-2.6151945 0.01946,-0.017728 -0.566886,-0.5248858 -1.302911,-1.1270604 -1.094296,-0.8952956 -1.30276,-1.0591478 -1.396822,-1.0487902 z m -9.0274248,0.00783 c -0.01691,-0.00106 -0.027803,0.00222 -0.035481,0.00885 -0.038724,0.033463 -0.639508,0.5257879 -1.3347294,1.093673 -0.6952226,0.5678848 -1.2548256,1.0444285 -1.2434168,1.0592261 0.0114,0.014801 0.8992998,0.6307335 1.9728741,1.3686455 1.0735737,0.737911 1.9677401,1.341513 1.9869617,1.341513 0.073813,0 2.9200393,-2.4093321 2.8859994,-2.4430039 C 8.1171546,9.7831786 7.1644061,9.217159 6.0200336,8.5447035 4.4312532,7.6111066 4.0231247,7.381158 3.9047121,7.3738149 Z m 4.5666732,2.6543266 c -0.015979,0 -0.724637,0.580716 -1.5747506,1.290377 -0.8501136,0.709667 -1.5699785,1.300512 -1.5997969,1.312818 -0.029817,0.01235 -0.2445086,-0.109383 -0.476913,-0.270284 -0.232404,-0.160911 -0.4323524,-0.292722 -0.4445612,-0.292722 -0.051479,0 -0.020773,1.005689 0.032874,1.075923 0.045763,0.05991 2.0860301,1.281384 3.6258926,2.170632 0.2133095,0.123215 0.4160838,0.210647 0.4669991,0.201408 0.1411738,-0.02561 3.8899466,-2.242447 4.0015786,-2.366302 0.09173,-0.101783 0.09966,-0.153216 0.09966,-0.64023 0,-0.291367 -0.01026,-0.530136 -0.02348,-0.530136 -0.01311,0 -0.203564,0.120878 -0.422645,0.268198 -0.219084,0.147307 -0.42439,0.277771 -0.456567,0.290117 -0.03255,0.01254 -0.755309,-0.539062 -1.629004,-1.243417 C 9.2069334,10.5982 8.4873557,10.028145 8.4713864,10.028146 Z" class="ColorScheme-Text"/>
  </svg>
