<?xml version='1.0' encoding='UTF-8'?>
<svg xmlns:inkscape="http://www.inkscape.org/namespaces/inkscape" xmlns:sodipodi="http://sodipodi.sourceforge.net/DTD/sodipodi-0.dtd" xmlns="http://www.w3.org/2000/svg" xmlns:svg="http://www.w3.org/2000/svg" xmlns:rdf="http://www.w3.org/1999/02/22-rdf-syntax-ns#" xmlns:cc="http://creativecommons.org/ns#" xmlns:dc="http://purl.org/dc/elements/1.1/" width="64" height="64" version="1.1" viewBox="0 0 16.933 16.933" id="svg7" sodipodi:docname="duckstation.svg" inkscape:version="1.4 (e7c3feb100, 2024-10-09)">
  <sodipodi:namedview id="namedview7" pagecolor="#9c4444" bordercolor="#000000" borderopacity="0.25" inkscape:showpageshadow="2" inkscape:pageopacity="0.0" inkscape:pagecheckerboard="0" inkscape:deskcolor="#d1d1d1" inkscape:zoom="6.15625" inkscape:cx="15.837563" inkscape:cy="27.28934" inkscape:window-width="1183" inkscape:window-height="941" inkscape:window-x="35" inkscape:window-y="32" inkscape:window-maximized="0" inkscape:current-layer="svg7" showgrid="false"/>
  <defs id="defs2">
    <style id="current-color-scheme" type="text/css">.ColorScheme-Text {color:#d8dee9} .ColorScheme-Highlight {color:#3b4252}</style></defs>
  <metadata id="metadata2">
    <rdf:RDF>
      <cc:Work rdf:about="">
        <dc:format>image/svg+xml</dc:format>
        <dc:type rdf:resource="http://purl.org/dc/dcmitype/StillImage"/>
      </cc:Work>
    </rdf:RDF>
  </metadata>
  <path style="fill:currentColor;fill-opacity:1;stroke-width:0.103501" d="m 9.2961096,15.320959 c 0.8827424,-0.05645 1.6558464,-0.201075 2.3846674,-0.44608 0.730377,-0.245539 1.418711,-0.605048 1.84646,-0.964395 0.849387,-0.713568 1.282994,-1.664594 1.244451,-2.729438 -0.02099,-0.579797 -0.135894,-1.049167 -0.375024,-1.5318149 -0.233797,-0.471898 -0.498956,-0.8229375 -0.999106,-1.3227118 -0.422871,-0.4225531 -0.45918,-0.477507 -0.471401,-0.7134397 -0.01292,-0.2500239 0.0702,-0.4173635 0.342188,-0.6885705 0.125666,-0.1253183 0.226307,-0.2030408 0.474173,-0.3662276 0.399012,-0.2626912 0.611297,-0.4309641 0.861591,-0.6829586 0.228025,-0.2295696 0.392402,-0.4397254 0.546298,-0.6984359 0.130758,-0.2198389 0.138776,-0.277155 0.05103,-0.3648864 -0.04513,-0.045125 -0.06935,-0.056305 -0.122075,-0.056305 -0.168663,0 -0.838191,-0.084335 -1.173432,-0.1478048 C 13.705501,4.5699336 13.678817,4.546043 13.635512,4.3657237 13.492684,3.7709858 13.154664,3.1898712 12.697116,2.7524536 12.200062,2.2772646 11.603882,1.9807367 10.910727,1.8639357 10.700264,1.8284716 10.1807,1.8239477 9.9585163,1.855642 8.6248164,2.0459095 7.5267253,3.0144579 7.1932189,4.2947142 7.1093415,4.6166994 7.0883788,4.7832403 7.0872426,5.1365778 7.08543,5.7003013 7.177314,6.109766 7.4161174,6.6021548 7.620446,7.0234621 7.8454207,7.316272 8.2454222,7.6815106 8.4241894,7.8447415 8.4873153,7.9417957 8.5079687,8.0851669 8.5334211,8.2618688 8.4482745,8.4303804 8.3154603,8.4661439 8.2689977,8.4786649 7.8722401,8.4818759 7.0128587,8.4767459 5.7166877,8.4689916 5.731797,8.4697715 5.3465059,8.3902372 5.1437679,8.3483853 4.7883596,8.2260697 4.585253,8.1282479 4.0918495,7.8906099 3.6663424,7.5433859 3.4250526,7.1814912 3.3215104,7.0261977 3.2815566,6.9855656 3.198129,6.950706 3.0395612,6.8844528 2.9040088,6.9340861 2.7497474,7.1148783 2.2780285,7.6677316 1.9338735,8.4212744 1.8040422,9.1855403 1.6954097,9.8250474 1.7408976,10.643365 1.9214223,11.296964 c 0.1485211,0.537728 0.3523173,1.039758 0.5512409,1.357936 0.5213573,0.833896 1.3878428,1.524151 2.5260804,2.012301 0.7514131,0.322257 1.666877,0.532019 2.748989,0.629892 0.3340597,0.03023 1.2325322,0.04408 1.5483766,0.02386 z M 11.862271,5.1265671 c -0.163495,-0.048553 -0.284193,-0.1538772 -0.358582,-0.3129103 -0.03895,-0.08326 -0.04644,-0.1209578 -0.04626,-0.2326291 1.92e-4,-0.1166144 0.007,-0.1469156 0.05396,-0.2424807 0.06274,-0.1274368 0.152931,-0.2151949 0.2833,-0.275674 0.132468,-0.06145 0.318628,-0.06145 0.451102,0 0.128326,0.059525 0.220481,0.1479929 0.279381,0.2681802 0.106134,0.2166114 0.0753,0.4556816 -0.08088,0.6265537 -0.156712,0.1714522 -0.367547,0.2326598 -0.582047,0.1689594 z" id="path99" class="ColorScheme-Text"/>
</svg>
