<?xml version="1.0" encoding="UTF-8" standalone="no"?>
<svg
   width="64"
   height="64"
   version="1.1"
   viewBox="0 0 16.933 16.933"
   id="svg7"
   sodipodi:docname="easyeffects-2.svg"
   inkscape:version="1.4.3 (0d15f75042, 2025-12-25)"
   xmlns:inkscape="http://www.inkscape.org/namespaces/inkscape"
   xmlns:sodipodi="http://sodipodi.sourceforge.net/DTD/sodipodi-0.dtd"
   xmlns="http://www.w3.org/2000/svg"
   xmlns:svg="http://www.w3.org/2000/svg"
   xmlns:rdf="http://www.w3.org/1999/02/22-rdf-syntax-ns#"
   xmlns:cc="http://creativecommons.org/ns#"
   xmlns:dc="http://purl.org/dc/elements/1.1/">
  <sodipodi:namedview
     id="namedview7"
     pagecolor="#9c4444"
     bordercolor="#000000"
     borderopacity="0.25"
     inkscape:showpageshadow="2"
     inkscape:pageopacity="0.0"
     inkscape:pagecheckerboard="0"
     inkscape:deskcolor="#d1d1d1"
     inkscape:zoom="12.3125"
     inkscape:cx="49.137055"
     inkscape:cy="29.482233"
     inkscape:window-width="2560"
     inkscape:window-height="1388"
     inkscape:window-x="0"
     inkscape:window-y="0"
     inkscape:window-maximized="1"
     inkscape:current-layer="svg7"
     showgrid="false" />
  <defs
     id="defs2">
    <inkscape:path-effect
       effect="offset"
       id="path-effect8"
       is_visible="true"
       lpeversion="1.3"
       linejoin_type="round"
       unit="px"
       offset="-1"
       miter_limit="4"
       attempt_force_join="false"
       update_on_knot_move="true" />
    <style
       id="current-color-scheme"
       type="text/css">.ColorScheme-Text {color:#d8dee9} .ColorScheme-Highlight {color:#3b4252}</style>
  </defs>
  <metadata
     id="metadata2">
    <rdf:RDF>
      <cc:Work
         rdf:about="">
        <dc:format>image/svg+xml</dc:format>
        <dc:type
           rdf:resource="http://purl.org/dc/dcmitype/StillImage" />
      </cc:Work>
    </rdf:RDF>
  </metadata>
  <path
     id="path5"
     style="fill:currentColor"
     d="M 8.4665 1.4551797 A 7.0113202 7.0113202 0 0 0 1.4551797 8.4665 A 7.0113202 7.0113202 0 0 0 8.4665 15.47782 A 7.0113202 7.0113202 0 0 0 15.47782 8.4665 A 7.0113202 7.0113202 0 0 0 8.4665 1.4551797 z M 5.0223336 4.6533711 C 5.3630596 4.6533711 5.637271 4.9550042 5.637271 5.3298023 L 5.637271 5.7597418 C 6.215334 6.0005485 6.6211709 6.5709433 6.6211709 7.2366251 C 6.6211709 7.9023069 6.215334 8.4721851 5.637271 8.7129917 L 5.637271 12.095148 C 5.637271 12.469946 5.3630596 12.771579 5.0223336 12.771579 C 4.6816086 12.771579 4.4073961 12.469946 4.4073961 12.095148 L 4.4073961 8.7129917 C 3.8293341 8.4721851 3.4234962 7.9023069 3.4234962 7.2366251 C 3.4234962 6.5709433 3.8293341 6.0005485 4.4073961 5.7597418 L 4.4073961 5.3298023 C 4.4073961 4.9550042 4.6816086 4.6533711 5.0223336 4.6533711 z M 8.4665 4.6533711 C 8.807226 4.6533711 9.0814374 4.9550042 9.0814374 5.3298023 L 9.0814374 8.4659832 C 9.6595004 8.7067898 10.065337 9.2766681 10.065337 9.9423499 C 10.065337 10.608032 9.6595004 11.178426 9.0814374 11.419233 L 9.0814374 12.095148 C 9.0814374 12.469946 8.807226 12.771579 8.4665 12.771579 C 8.125774 12.771579 7.8515626 12.469946 7.8515626 12.095148 L 7.8515626 11.419233 C 7.2734986 11.178426 6.8676627 10.608032 6.8676627 9.9423499 C 6.8676627 9.2766681 7.2734986 8.7067898 7.8515626 8.4659832 L 7.8515626 5.3298023 C 7.8515626 4.9550042 8.125774 4.6533711 8.4665 4.6533711 z M 11.910666 4.6533711 C 12.251391 4.6533711 12.525604 4.9550042 12.525604 5.3298023 L 12.525604 6.4981834 C 13.103667 6.7389901 13.509504 7.3088682 13.509504 7.97455 C 13.509504 8.6402319 13.103667 9.2101101 12.525604 9.4509167 L 12.525604 12.095148 C 12.525604 12.469946 12.251391 12.771579 11.910666 12.771579 C 11.569941 12.771579 11.295729 12.469946 11.295729 12.095148 L 11.295729 9.4509167 C 10.717666 9.2101101 10.311829 8.6402319 10.311829 7.97455 C 10.311829 7.3088682 10.717666 6.7389901 11.295729 6.4981834 L 11.295729 5.3298023 C 11.295729 4.9550042 11.569941 4.6533711 11.910666 4.6533711 z M 5.0223336 5.883246 A 1.3530618 1.3530618 0 0 0 3.6694712 7.2366251 A 1.3530618 1.3530618 0 0 0 5.0223336 8.5894875 A 1.3530618 1.3530618 0 0 0 6.375196 7.2366251 A 1.3530618 1.3530618 0 0 0 5.0223336 5.883246 z M 5.0213001 6.1581592 C 5.6201866 6.1582475 6.0999064 6.6373246 6.099766 7.2361084 C 6.0996778 7.8347036 5.6198144 8.3144861 5.0213001 8.3145743 C 4.4227049 8.3144861 3.9455062 7.8352061 3.9454179 7.2361084 C 3.9452774 6.6368701 4.4224945 6.1582475 5.0213001 6.1581592 z M 11.910666 6.6211709 A 1.3530618 1.3530618 0 0 0 10.557804 7.97455 A 1.3530618 1.3530618 0 0 0 11.910666 9.3274124 A 1.3530618 1.3530618 0 0 0 13.263529 7.97455 A 1.3530618 1.3530618 0 0 0 11.910666 6.6211709 z M 11.91015 6.8966009 C 12.509037 6.8966889 12.98824 7.3757658 12.988099 7.97455 C 12.988011 8.5731455 12.508665 9.0524112 11.91015 9.0524992 C 11.311555 9.0524108 10.83384 8.5736474 10.833751 7.97455 C 10.833611 7.3753119 11.311345 6.8966893 11.91015 6.8966009 z M 8.4665 8.5894875 A 1.3530618 1.3530618 0 0 0 7.1136376 9.9423499 A 1.3530618 1.3530618 0 0 0 8.4665 11.295729 A 1.3530618 1.3530618 0 0 0 9.8193624 9.9423499 A 1.3530618 1.3530618 0 0 0 8.4665 8.5894875 z M 8.4670168 8.8654342 C 9.0660905 8.8655225 9.5448777 9.3426972 9.5449659 9.9413163 C 9.5451063 10.540076 9.0658224 11.019694 8.4670168 11.019782 C 7.8681302 11.019694 7.3884104 10.5401 7.3885508 9.9413163 C 7.388639 9.3427211 7.8680239 8.8655225 8.4670168 8.8654342 z "
     class="ColorScheme-Text" />
</svg>
