<?xml version="1.0" encoding="UTF-8" standalone="no"?>
<svg
   width="64"
   height="64"
   version="1.1"
   viewBox="0 0 16.933 16.933"
   id="svg7"
   sodipodi:docname="easytag.svg"
   inkscape:version="1.4.2 (ebf0e940d0, 2025-05-08)"
   xmlns:inkscape="http://www.inkscape.org/namespaces/inkscape"
   xmlns:sodipodi="http://sodipodi.sourceforge.net/DTD/sodipodi-0.dtd"
   xmlns="http://www.w3.org/2000/svg"
   xmlns:svg="http://www.w3.org/2000/svg"
   xmlns:rdf="http://www.w3.org/1999/02/22-rdf-syntax-ns#"
   xmlns:cc="http://creativecommons.org/ns#"
   xmlns:dc="http://purl.org/dc/elements/1.1/">
  <sodipodi:namedview
     id="namedview7"
     pagecolor="#9c4444"
     bordercolor="#000000"
     borderopacity="0.25"
     inkscape:showpageshadow="2"
     inkscape:pageopacity="0.0"
     inkscape:pagecheckerboard="0"
     inkscape:deskcolor="#d1d1d1"
     inkscape:zoom="3.0781251"
     inkscape:cx="55.390862"
     inkscape:cy="61.076141"
     inkscape:window-width="2560"
     inkscape:window-height="1388"
     inkscape:window-x="0"
     inkscape:window-y="0"
     inkscape:window-maximized="1"
     inkscape:current-layer="svg7"
     showgrid="false" />
  <defs
     id="defs2">
    <style
       id="current-color-scheme"
       type="text/css">.ColorScheme-Text {color:#d8dee9} .ColorScheme-Highlight {color:#3b4252}</style>
  </defs>
  <metadata
     id="metadata2">
    <rdf:RDF>
      <cc:Work
         rdf:about="">
        <dc:format>image/svg+xml</dc:format>
        <dc:type
           rdf:resource="http://purl.org/dc/dcmitype/StillImage" />
      </cc:Work>
    </rdf:RDF>
  </metadata>
  <path
     id="path5"
     d="m 5.573289,1.4727326 c -0.0023,0 -0.0047,3.282e-4 -0.007,3.501e-4 -0.0013,6e-6 -0.0025,-2.404e-4 -0.0038,-2.184e-4 -0.0062,4.69e-5 -0.01255,0.0012 -0.01876,0.0014 -0.04878,9.974e-4 -0.09795,0.00459 -0.147369,0.010394 -9.4e-4,1.127e-4 -0.0019,1.117e-4 -0.0028,2.184e-4 -0.01067,0.0013 -0.02127,0.00299 -0.03187,0.00459 -0.04709,0.00658 -0.09381,0.015351 -0.140474,0.026104 -0.07424,0.017117 -0.14754,0.038144 -0.218115,0.065095 -9.98e-4,3.94e-4 -0.002,7.431e-4 -0.0031,0.0011 -0.0024,9.407e-4 -0.0046,0.00219 -0.007,0.00319 -0.04794,0.018693 -0.09431,0.03979 -0.139232,0.062721 -3.27e-4,1.675e-4 -6.99e-4,2.842e-4 -9.98e-4,4.598e-4 -0.01494,0.00768 -0.02909,0.01586 -0.04362,0.02396 -0.03499,0.019481 -0.06844,0.040159 -0.100692,0.062152 -3.94e-4,2.623e-4 -8.53e-4,5.246e-4 -0.0012,7.87e-4 -2.19e-4,1.566e-4 -4.6e-4,3.062e-4 -6.79e-4,4.598e-4 -0.006,0.00409 -0.01174,0.00838 -0.01774,0.012429 -0.01817,0.012927 -0.03659,0.025496 -0.05369,0.039211 -0.03067,0.024608 -0.06025,0.050043 -0.08702,0.077075 L 3.770378,2.6498747 C 3.452135,2.9715314 2.931322,3.497673 2.612905,3.8192149 L 1.835152,4.6049901 c -0.0079,0.00788 -0.01555,0.01593 -0.02317,0.024189 -0.0058,0.00628 -0.01144,0.012648 -0.01707,0.019102 -0.0042,0.00479 -0.0083,0.00948 -0.01232,0.014354 -0.01419,0.016828 -0.02633,0.036418 -0.03955,0.054582 -0.0025,0.00329 -0.0049,0.00678 -0.0074,0.010055 -0.01774,0.024349 -0.03576,0.047968 -0.05199,0.074132 -0.0024,0.00379 -0.0049,0.00758 -0.0072,0.011531 -0.0096,0.01595 -0.01786,0.033027 -0.02667,0.049724 -2.42e-4,4.369e-4 -4.4e-4,9.187e-4 -6.78e-4,0.0014 -0.02471,0.045057 -0.04719,0.091539 -0.06747,0.1401356 -6.24e-4,0.0012 -0.0013,0.00239 -0.0018,0.00369 -0.0026,0.00618 -0.0049,0.012379 -0.0074,0.018533 -2.21e-4,5.466e-4 -3.45e-4,0.0011 -5.64e-4,0.0017 C 1.54931,5.0848037 1.53,5.1428007 1.51379,5.202383 c -1.44e-4,5.307e-4 -3.09e-4,0.0011 -4.52e-4,0.0016 -0.01634,0.060287 -0.02924,0.1210279 -0.03865,0.1825145 -3.5e-5,2.254e-4 -7.9e-5,4.509e-4 -1.13e-4,6.783e-4 -6.28e-4,0.00399 -0.0015,0.00808 -0.002,0.01209 -4.5e-5,3.062e-4 -7e-5,5.994e-4 -1.14e-4,9.057e-4 -0.0069,0.047311 -0.01107,0.094122 -0.01356,0.141152 -6.9e-5,6.803e-4 -1.91e-4,0.0014 -2.25e-4,0.00199 -9.97e-4,0.021127 -0.0033,0.042432 -0.0035,0.063399 -1.3e-5,0.0014 6.3e-5,0.00279 1.13e-4,0.00419 -6e-6,9.975e-4 1.15e-4,0.00199 1.12e-4,0.00309 -1.76e-4,0.046932 0.0033,0.092576 0.0078,0.137988 v 1.157e-4 1.157e-4 1.158e-4 1.157e-4 c 6.45e-4,0.00688 6.8e-4,0.013965 0.0015,0.020798 9.4e-5,7.98e-4 2.27e-4,0.0016 3.39e-4,0.00239 4e-5,3.411e-4 7.3e-5,6.783e-4 1.13e-4,9.974e-4 0.0026,0.021636 0.0047,0.04342 0.0084,0.064527 v 1.157e-4 c 5.21e-4,0.00299 9.97e-4,0.00589 0.0016,0.00878 8.4e-4,0.00459 0.0017,0.00918 0.0026,0.013785 v 1.158e-4 c 8.4e-5,4.289e-4 2.54e-4,8.159e-4 3.39e-4,0.0012 0.0074,0.037176 0.01591,0.073723 0.02701,0.1087182 l 0.689729,2.1765654 c 0.253235,-0.545367 0.555067,-1.0703266 0.896302,-1.5432987 0.0037,-0.00509 0.01158,-0.015681 0.01153,-0.015591 C 3.367152,6.226905 3.657861,5.8886972 3.971912,5.5927296 3.850354,5.4101713 3.779451,5.1909844 3.779451,4.9552255 c 0,-0.6362372 0.515813,-1.152049 1.15205,-1.152049 0.636174,0 1.151996,0.5158168 1.152049,1.152049 0,0.6361745 -0.515805,1.1519374 -1.152049,1.1519374 -0.123679,0 -0.242846,-0.019421 -0.35452,-0.055489 C 4.180979,6.4103889 3.824614,6.8533668 3.5089,7.3387734 l -2.26e-4,4.628e-4 -3.41e-4,4.629e-4 c -0.01552,0.023631 -0.04253,0.071768 -0.0686,0.1128995 l -3.38e-4,5.782e-4 C 3.270532,7.7225377 3.115809,7.9960601 2.977851,8.28088 l -4.51e-4,6.783e-4 -3.41e-4,7.91e-4 C 2.874263,8.4905518 2.774566,8.6957779 2.691477,8.9006409 c -0.0013,0.00319 -0.0025,0.00648 -0.0038,0.00968 l 3.41e-4,5.795e-4 -0.03797,0.098551 c -0.007,0.018154 -0.01392,0.036308 -0.0208,0.054472 0.137545,0.2141665 0.289737,0.4118646 0.43148,0.5521788 l 1.137698,1.1261708 1.144139,1.132498 C 5.303665,11.614424 5.267255,11.353696 5.231028,11.093283 5.037594,9.702561 4.843909,8.310825 4.701452,6.913968 4.674682,6.6518098 4.676692,6.4158853 4.709052,6.2039103 c 0.07227,0.012848 0.14662,0.019551 0.222522,0.019551 0.699326,0 1.26834,-0.5689594 1.26834,-1.2682263 C 6.199908,4.89394 6.195514,4.8336375 6.187024,4.7746407 7.51047,4.3695579 8.843957,3.9923078 10.184051,3.6445152 L 9.571743,3.0383808 C 9.491356,2.9587721 9.392514,2.8760264 9.282657,2.7946122 9.172834,2.713218 9.052074,2.6332313 8.927798,2.558981 8.803517,2.4847288 8.675761,2.4163018 8.552031,2.3581578 8.428307,2.3000048 8.308623,2.2521229 8.200449,2.2190395 L 5.913569,1.5200849 c -0.02652,-0.00808 -0.0538,-0.015042 -0.08159,-0.021017 -0.01036,-0.00219 -0.02113,-0.00369 -0.03164,-0.00569 -0.01773,-0.00329 -0.03533,-0.00668 -0.05345,-0.00918 -0.01788,-0.00239 -0.03682,-0.002 -0.05504,-0.00359 -0.03922,-0.00349 -0.0782,-0.00788 -0.118549,-0.00788 z m 0.03028,0.3129318 c 0.08778,-0.00389 0.17349,-0.0012 0.266823,0.015142 0.05127,0.00748 0.08122,0.016997 0.130642,0.029496 0.03998,0.0118 0.0802,0.02362 0.120471,0.035491 0.161205,0.047041 0.324067,0.095508 0.487876,0.1454472 0.327906,0.09906 0.660943,0.1996512 0.994058,0.3002748 0.166238,0.051439 0.332388,0.1028828 0.497933,0.1541482 0.17376,0.057285 0.335788,0.1310466 0.491266,0.2126902 0.154434,0.083319 0.303392,0.1729088 0.442783,0.2741678 0.03495,0.025516 0.07011,0.048866 0.104423,0.075948 0.03419,0.027541 0.06831,0.054961 0.102276,0.082272 0.03541,0.027022 0.06353,0.05568 0.09414,0.083519 l 0.0451,0.041815 0.01119,0.010394 0.01357,0.013227 0.02148,0.021815 C 9.51543,3.3697586 9.601762,3.4573021 9.686511,3.5436997 9.621671,3.5608967 9.556824,3.5781227 9.492017,3.5954587 9.428687,3.5344037 9.36491,3.4726363 9.300687,3.4100057 l -0.02203,-0.021366 -0.0085,-0.00798 -0.01153,-0.010174 -0.04599,-0.040907 c -0.03072,-0.026793 -0.06143,-0.056547 -0.09279,-0.078771 -0.03113,-0.02396 -0.06232,-0.047919 -0.09368,-0.071988 -0.03159,-0.02396 -0.06657,-0.046242 -0.0999,-0.069614 C 8.791799,3.0160982 8.647298,2.9330053 8.500327,2.8539073 8.352084,2.7772412 8.198341,2.7092461 8.042401,2.6588485 7.876452,2.6087352 7.709923,2.5583715 7.543337,2.5080896 7.210918,2.4052677 6.87847,2.3024068 6.551201,2.2011478 6.38745,2.1508649 6.225405,2.1000125 6.065474,2.0489197 5.898366,1.9911757 5.766905,1.9602237 5.609693,1.9667577 5.306205,1.9761377 5.004153,2.0799794 4.795212,2.2591215 4.58089,2.4656902 4.378229,2.6609495 4.191161,2.8412486 3.815402,3.2036991 3.498689,3.5022363 3.276324,3.7105406 3.05286,3.9178045 2.925194,4.036243 2.925194,4.036243 c 0,0 0.46508,-0.5189618 1.182112,-1.2780584 0.08957,-0.09495 0.182907,-0.1938478 0.279479,-0.296206 0.04849,-0.050921 0.09776,-0.1027372 0.147933,-0.1553921 0.02512,-0.026274 0.05037,-0.052716 0.07583,-0.079329 0.025,-0.026503 0.05087,-0.053464 0.08149,-0.081823 C 4.931646,1.9273509 5.257175,1.8033634 5.603597,1.785715 Z M 4.931258,3.9955107 c -0.52921,0 -0.959816,0.4306062 -0.959816,0.9598151 0,0.1855508 0.05297,0.3589713 0.144544,0.5059576 C 4.215546,5.3735954 4.317345,5.2901672 4.421232,5.211525 4.382432,5.13445 4.360542,5.0473701 4.360542,4.955213 c 0,-0.3151181 0.255479,-0.5706002 0.570714,-0.5706002 0.315176,0 0.5706,0.2554821 0.5706,0.5706002 0,0.2149406 -0.118821,0.4021841 -0.294398,0.499515 -0.02109,0.087329 -0.0738,0.1673449 -0.154488,0.2217314 -0.01398,0.00938 -0.02792,0.018952 -0.04181,0.028588 -0.05393,0.037416 -0.107244,0.076427 -0.159914,0.1169682 -0.03249,0.025007 -0.06475,0.050603 -0.09674,0.076736 0.0573,0.010713 0.116401,0.016279 0.176752,0.016279 0.529209,0 0.959815,-0.4305504 0.959815,-0.9597024 C 5.891015,4.4261193 5.460409,3.9955131 4.931258,3.9955131 Z m -0.08668,1.2173709 c -0.0297,-4.19e-5 -0.05971,0.00848 -0.08623,0.026334 -0.549648,0.3705141 -1.047382,0.885903 -1.478543,1.4804636 -0.0038,0.00529 -0.0078,0.010234 -0.01153,0.015481 -1.294946,1.7948687 -1.981236,4.3082868 -1.633709,5.7818328 0.155187,0.658301 0.511537,1.04214 1.030448,1.109896 0.08442,0.01105 0.16674,0.01661 0.246706,0.01661 0.3768,0 0.703607,-0.122413 0.974055,-0.365031 0.510913,-0.45851 0.708273,-1.253221 0.783968,-1.837809 l -0.28174,-0.278914 c -0.04629,0.538803 -0.20041,1.431825 -0.708703,1.887535 -0.261479,0.234285 -0.580581,0.323121 -0.974393,0.271682 -0.386,-0.05051 -0.645084,-0.34481 -0.770068,-0.874829 -0.196552,-0.83339 -0.0023,-2.18401 0.510818,-3.5152557 l -0.0011,-0.0019 0.01017,-0.025655 c 0.0014,-0.00349 0.0027,-0.00678 0.0041,-0.010284 l 0.0015,-0.00359 c 0.0094,-0.023601 0.0188,-0.04727 0.02837,-0.070861 C 2.575517,8.6045166 2.67766,8.3945704 2.780834,8.1856038 2.923002,7.8920949 3.082024,7.611279 3.254582,7.3360888 3.278912,7.2977448 3.300602,7.2574978 3.325442,7.2196871 3.773773,6.530381 4.305814,5.9163935 4.930784,5.4951157 5.001434,5.4474967 5.020174,5.3515488 4.972494,5.2809572 4.942774,5.2368382 4.894194,5.2129992 4.844677,5.2129192 Z m 4.804953,0.6173869 c -0.04254,3.591e-4 -0.09084,0.00898 -0.144769,0.024528 C 8.907391,6.0277472 8.301518,6.1753629 7.713288,6.3752195 7.586627,6.4186205 7.430992,6.6441097 7.440137,6.775284 7.480757,7.3635126 7.576318,7.9481035 7.660624,8.6000969 8.423134,8.3857748 9.138034,8.1996534 9.839731,7.9723123 9.947009,7.9376493 10.064892,7.7095058 10.055924,7.5791414 10.021904,7.078632 9.934766,6.5818671 9.874878,6.0826294 9.853128,5.9020989 9.777178,5.8291882 9.649531,5.8302724 Z m 2.943977,0.1996941 c 0.06462,0.5080583 0.110694,1.0188887 0.141717,1.5282677 0.05803,0.9549614 -0.337846,1.5014017 -1.25184,1.8062788 -0.996217,0.3324204 -2.012473,0.605483 -3.020146,0.9036469 -0.167801,0.04954 -0.336843,0.09492 -0.536584,0.150986 0.04861,0.417998 0.09889,0.7692 0.127704,1.121988 0.02962,0.36679 0.175811,0.482209 0.551049,0.371923 1.306939,-0.383916 2.621613,-0.742784 3.932949,-1.111251 0.154492,-0.0434 0.308953,-0.08686 0.522119,-0.146691 0.02943,0.436311 0.05778,0.855224 0.08589,1.270261 l 2.095139,-2.1164975 v -1.157e-4 c 0.0123,-0.012429 0.02266,-0.025994 0.03401,-0.038992 0.01134,-0.013017 0.02374,-0.025446 0.03413,-0.038992 v -1.157e-4 c 0.0187,-0.024399 0.03526,-0.049805 0.05085,-0.075718 v -1.157e-4 l 1.16e-4,-1.157e-4 V 9.654594 l 1.16e-4,-1.158e-4 h 1.16e-4 v -1.157e-4 -1.157e-4 l 1.14e-4,-1.157e-4 c 0.0016,-0.00259 0.0037,-0.00499 0.0052,-0.00758 0.0025,-0.00419 0.0044,-0.00868 0.0067,-0.012997 0.02997,-0.053424 0.05383,-0.1093884 0.07097,-0.1670326 1.73e-4,-6.564e-4 5.9e-4,-0.0013 7.87e-4,-0.0019 v -1.131e-4 h 1.16e-4 v -1.15e-4 c 1.15e-4,-3.491e-4 1.15e-4,-6.773e-4 2.4e-4,-9.975e-4 7.66e-4,-0.00259 0.0011,-0.00529 0.0018,-0.00788 0.0071,-0.025007 0.01275,-0.050263 0.01741,-0.075718 1.73e-4,-9.147e-4 5.24e-4,-0.0018 6.78e-4,-0.00269 1.16e-4,-7.172e-4 3.5e-4,-0.0014 4.59e-4,-0.00219 v -1.237e-4 -1.158e-4 c 3.5e-4,-0.00199 9.97e-4,-0.00399 0.0014,-0.00598 5.25e-4,-0.00289 5.91e-4,-0.00589 9.98e-4,-0.00878 V 9.3598119 9.3596962 9.3595805 9.3594648 9.359349 c 0.01429,-0.09091 0.01344,-0.1835359 -0.0026,-0.2741687 -1.15e-4,-5.197e-4 -1.15e-4,-0.0011 -2.4e-4,-0.0016 -5.3e-5,-2.883e-4 -5.5e-5,-6.075e-4 -1.16e-4,-9.027e-4 v -1.158e-4 c -3.5e-4,-0.00199 -4.15e-4,-0.00399 -7.87e-4,-0.00598 -5.6e-5,1.736e-4 -1.73e-4,4.04e-4 -2.4e-4,5.796e-4 -1.8e-5,-5.79e-5 -5.8e-5,-2.325e-4 -1.16e-4,-3.482e-4 v -1.157e-4 c -0.01626,-0.086721 -0.04645,-0.1710764 -0.09052,-0.2497584 -1.16e-4,-2.314e-4 -2.4e-4,-4.629e-4 -3.49e-4,-6.773e-4 l -1.16e-4,-1.157e-4 -1.16e-4,-1.157e-4 v -1.157e-4 l -1.15e-4,-1.158e-4 -1.16e-4,-1.157e-4 v -1.166e-4 l -1.17e-4,-1.157e-4 c -0.01461,-0.025955 -0.03062,-0.0513 -0.04826,-0.075828 h -1.17e-4 v -1.157e-4 l -1.18e-4,-1.157e-4 V 8.7492757 L 15.323557,8.74916 v -1.157e-4 c -1.16e-4,-1.735e-4 -2.41e-4,-4.04e-4 -3.49e-4,-5.795e-4 -3.51e-4,-5.207e-4 -7.66e-4,-9.706e-4 -0.0011,-0.0015 -0.01855,-0.025606 -0.03814,-0.050622 -0.06001,-0.074362 -0.0062,-0.00678 -0.0125,-0.013526 -0.01899,-0.020119 -0.0024,-0.00249 -0.0049,-0.00489 -0.0074,-0.00738 h -1.03e-4 z m -0.608234,7.0683654 c -1.40474,0.395258 -2.809447,0.7898 -4.21548,1.179513 l 0.954729,0.94501 c 0.01987,0.01967 0.04051,0.03815 0.06181,0.05538 l 1.16e-4,1.15e-4 h 1.15e-4 v 1.16e-4 h 1.16e-4 c 2.84e-4,2.4e-4 6.12e-4,4.59e-4 8.96e-4,6.78e-4 6.12e-4,4.59e-4 0.0012,8.75e-4 0.0018,0.0014 0.0015,0.0012 0.0032,0.0022 0.0048,0.0034 0.01794,0.01413 0.03624,0.02757 0.05504,0.04001 0.0012,7.88e-4 0.0022,0.0017 0.0034,0.0025 h 1.16e-4 l 1.15e-4,1.16e-4 v 1.16e-4 h 1.16e-4 c 0.0049,0.0032 0.01001,0.0057 0.01492,0.0087 3.5e-4,2.41e-4 7.65e-4,4.6e-4 0.0011,6.78e-4 0.01526,0.0095 0.03061,0.01863 0.04633,0.02701 0.0027,0.0014 0.0052,0.0032 0.0079,0.0046 h 1.16e-4 v 1.15e-4 h 1.16e-4 1.15e-4 v 1.16e-4 h 1.16e-4 1.16e-4 v 1.16e-4 h 1.15e-4 l 1.16e-4,1.15e-4 h 1.16e-4 c 9.97e-4,5.25e-4 0.0021,9.41e-4 0.0032,0.0015 0.0049,0.0025 0.01007,0.0045 0.01503,0.0069 2.4e-4,1.16e-4 4.59e-4,2.41e-4 6.78e-4,3.5e-4 0.01353,0.0066 0.02711,0.01287 0.04091,0.01864 0.0039,0.0018 0.0078,0.0037 0.01175,0.0053 h 1.15e-4 l 1.16e-4,1.17e-4 1.16e-4,1.16e-4 h 1.16e-4 c 0.0053,0.0021 0.01063,0.0037 0.01593,0.0056 0.01366,0.0051 0.02739,0.0099 0.04125,0.01423 0.0053,0.0019 0.01054,0.004 0.01593,0.0056 5.8e-5,1.7e-5 2.85e-4,1.15e-4 3.51e-4,1.15e-4 5.7e-5,2.2e-5 3.49e-4,1.16e-4 4.58e-4,1.16e-4 h 1.16e-4 l 1.16e-4,1.16e-4 h 1.16e-4 c 1.73e-4,3e-5 4.15e-4,5.8e-5 5.68e-4,1.15e-4 0.004,0.0012 0.0081,0.002 0.01209,0.0029 0.01612,0.0045 0.03239,0.0082 0.04871,0.01164 0.0053,0.0013 0.01057,0.0028 0.01593,0.0039 h 1.16e-4 1.15e-4 1.17e-4 l 1.16e-4,1.17e-4 h 1.15e-4 c 1.74e-4,3e-5 4.15e-4,5.8e-5 5.69e-4,1.15e-4 0.0021,4.15e-4 0.0041,5.91e-4 0.0062,8.97e-4 0.01943,0.0035 0.03894,0.0061 0.05854,0.0083 0.0038,5.25e-4 0.0077,0.0012 0.01153,0.0016 h 1.16e-4 1.15e-4 1.16e-4 1.16e-4 c 4.15e-4,5.8e-5 8.31e-4,1.74e-4 0.0013,2.41e-4 8.3e-4,5.9e-5 0.0017,4.3e-5 0.0025,1.15e-4 0.02466,0.0022 0.04941,0.0035 0.07413,0.0035 1.73e-4,0 2.84e-4,-10e-7 4.58e-4,0 h 6.79e-4 c 2.84e-4,-10e-7 5.9e-4,-5.6e-5 8.96e-4,-1.16e-4 h 1.16e-4 c 5.8e-5,1e-6 1.74e-4,0 2.41e-4,0 0.01538,-5.8e-5 0.03075,-0.0014 0.04611,-0.0023 0.01698,-9.85e-4 0.03385,-0.0027 0.05074,-0.0048 0.01123,-0.0014 0.02238,-0.0026 0.03356,-0.0044 0.002,-2.84e-4 0.0041,-5.69e-4 0.0061,-8.97e-4 0.0071,-9.41e-4 0.0142,-0.0018 0.02125,-0.0032 h 1.16e-4 l 1.16e-4,-1.16e-4 h 1.15e-4 c 0.0021,-4.15e-4 0.0041,-9.97e-4 0.0062,-0.0015 0.0081,-0.0019 0.01611,-0.004 0.02419,-0.0059 0.01531,-0.0036 0.03075,-0.0068 0.04588,-0.0113 2.41e-4,-5.7e-5 4.59e-4,-1.73e-4 6.79e-4,-2.4e-4 h 1.15e-4 1.16e-4 l 1.16e-4,-1.16e-4 h 1.16e-4 l 1.15e-4,-1.15e-4 h 1.16e-4 1.16e-4 v -1.16e-4 h 1.15e-4 c 9.98e-4,-2.84e-4 0.0021,-5.69e-4 0.0032,-8.97e-4 0.0036,-0.0011 0.0071,-0.0022 0.01062,-0.0034 0.02039,-0.0065 0.04055,-0.0138 0.06046,-0.02192 2.85e-4,-1.16e-4 6.13e-4,-2.4e-4 8.97e-4,-3.5e-4 h 1.16e-4 1.15e-4 v -1.16e-4 h 1.16e-4 l 1.16e-4,-1.16e-4 h 1.16e-4 1.15e-4 c 2.85e-4,-1.15e-4 5.25e-4,-2.4e-4 7.87e-4,-3.5e-4 0.0049,-0.002 0.0098,-0.0042 0.01469,-0.0063 0.0011,-4.59e-4 0.0022,-9.84e-4 0.0033,-0.0015 8.97e-4,-4.16e-4 0.0018,-7.22e-4 0.0027,-0.0011 0.01625,-0.0073 0.03231,-0.01508 0.04814,-0.02339 8.97e-4,-4.59e-4 0.0018,-8.75e-4 0.0027,-0.0014 h 1.16e-4 l 1.16e-4,-1.16e-4 h 1.15e-4 c 2.42e-4,-1.15e-4 4.6e-4,-2.4e-4 6.79e-4,-3.5e-4 0.0015,-8.09e-4 0.0029,-0.0018 0.0044,-0.0027 0.0046,-0.0025 0.0089,-0.0055 0.01345,-0.008 0.01047,-0.0059 0.02082,-0.01201 0.03108,-0.01842 0.0056,-0.0035 0.01135,-0.0065 0.01684,-0.01006 4.59e-4,-2.84e-4 9.19e-4,-5.25e-4 0.0014,-7.87e-4 5.89e-4,-4.15e-4 0.0012,-7.43e-4 0.0018,-0.0011 h 1.16e-4 l 1.15e-4,-1.16e-4 3.51e-4,-2.41e-4 c 0.01092,-0.0073 0.02124,-0.01576 0.03187,-0.02362 0.008,-0.0059 0.01613,-0.0115 0.02396,-0.01774 0.0032,-0.0026 0.0067,-0.0047 0.0099,-0.0074 l 1.16e-4,-1.15e-4 c 0.02134,-0.01757 0.04197,-0.03635 0.06181,-0.0564 z"
     style="fill:currentColor;stroke-width:0.0578624;fill-opacity:1"
     class="ColorScheme-Text" />
</svg>
