<?xml version='1.0' encoding='UTF-8'?>
<svg xmlns:inkscape="http://www.inkscape.org/namespaces/inkscape" xmlns:sodipodi="http://sodipodi.sourceforge.net/DTD/sodipodi-0.dtd" xmlns="http://www.w3.org/2000/svg" xmlns:svg="http://www.w3.org/2000/svg" xmlns:rdf="http://www.w3.org/1999/02/22-rdf-syntax-ns#" xmlns:cc="http://creativecommons.org/ns#" xmlns:dc="http://purl.org/dc/elements/1.1/" width="64" height="64" version="1.1" viewBox="0 0 16.933 16.933" id="svg7" sodipodi:docname="audio-card.svg" inkscape:version="1.4.2 (ebf0e940d0, 2025-05-08)">
  <sodipodi:namedview id="namedview7" pagecolor="#9c4444" bordercolor="#000000" borderopacity="0.25" inkscape:showpageshadow="2" inkscape:pageopacity="0.0" inkscape:pagecheckerboard="0" inkscape:deskcolor="#d1d1d1" inkscape:zoom="3.078125" inkscape:cx="-11.695431" inkscape:cy="47.431472" inkscape:window-width="2560" inkscape:window-height="1376" inkscape:window-x="0" inkscape:window-y="0" inkscape:window-maximized="1" inkscape:current-layer="svg7" showgrid="false"/>
  <defs id="defs2">
    <style id="current-color-scheme" type="text/css">.ColorScheme-Text {color:#d8dee9} .ColorScheme-Highlight {color:#3b4252}</style>
  </defs>
  <metadata id="metadata2">
    <rdf:RDF>
      <cc:Work rdf:about="">
        <dc:format>image/svg+xml</dc:format>
        <dc:type rdf:resource="http://purl.org/dc/dcmitype/StillImage"/>
      </cc:Work>
    </rdf:RDF>
  </metadata>
  <path id="path2" style="fill:currentColor;fill-opacity:1;stroke-width:0.0678405" class="ColorScheme-Text" d="m 8.0310229,4.3969793 c -0.14165,0.00429 -0.2777404,0.052105 -0.3908307,0.137232 L 5.2358252,6.4145297 H 3.8619009 c -0.3805367,0 -0.6869632,0.3048644 -0.6869632,0.683752 v 2.7358112 c 0,0.3788871 0.3064265,0.6837521 0.6869632,0.6837521 h 1.3739243 l 2.404367,1.880318 c 0.3434753,0.268783 1.0296411,0.171013 1.0296411,-0.512815 V 5.0470253 c 0,-0.4698066 -0.3242345,-0.6630375 -0.6388104,-0.650046 z M 12.711354,5.074311 11.315762,5.7107143 c 1.39554,2.0352116 1.39554,3.4765429 0,5.5117477 l 1.395592,0.636403 c 1.395611,-2.0352033 1.395611,-4.7493489 0,-6.784554 z m -2.03039,1.288857 -1.3321934,0.424536 c 0.6660554,1.3568037 0.6660554,1.8653385 0,3.222142 l 1.3321934,0.423734 c 0.666122,-1.3568034 0.666122,-2.7136086 0,-4.070412 z"/>
</svg>
