<?xml version="1.0" encoding="UTF-8" standalone="no"?>
<svg
   width="64"
   height="64"
   version="1.1"
   viewBox="0 0 16.933 16.933"
   id="svg7"
   sodipodi:docname="distributor-logo-endeavouros.svg"
   inkscape:version="1.4.2 (ebf0e940d0, 2025-05-08)"
   xmlns:inkscape="http://www.inkscape.org/namespaces/inkscape"
   xmlns:sodipodi="http://sodipodi.sourceforge.net/DTD/sodipodi-0.dtd"
   xmlns="http://www.w3.org/2000/svg"
   xmlns:svg="http://www.w3.org/2000/svg"
   xmlns:rdf="http://www.w3.org/1999/02/22-rdf-syntax-ns#"
   xmlns:cc="http://creativecommons.org/ns#"
   xmlns:dc="http://purl.org/dc/elements/1.1/">
  <sodipodi:namedview
     id="namedview7"
     pagecolor="#9c4444"
     bordercolor="#000000"
     borderopacity="0.25"
     inkscape:showpageshadow="2"
     inkscape:pageopacity="0.0"
     inkscape:pagecheckerboard="0"
     inkscape:deskcolor="#d1d1d1"
     inkscape:zoom="4.3531261"
     inkscape:cx="36.295755"
     inkscape:cy="40.660435"
     inkscape:window-width="2560"
     inkscape:window-height="1392"
     inkscape:window-x="0"
     inkscape:window-y="0"
     inkscape:window-maximized="1"
     inkscape:current-layer="svg7"
     showgrid="false" />
  <defs
     id="defs2">
    <style
       id="current-color-scheme"
       type="text/css">.ColorScheme-Text {color:#d8dee9} .ColorScheme-Highlight {color:#3b4252}</style>
  </defs>
  <metadata
     id="metadata2">
    <rdf:RDF>
      <cc:Work
         rdf:about="">
        <dc:format>image/svg+xml</dc:format>
        <dc:type
           rdf:resource="http://purl.org/dc/dcmitype/StillImage" />
      </cc:Work>
    </rdf:RDF>
  </metadata>
  <path
     id="path3"
     class="ColorScheme-Text"
     style="fill:currentColor;fill-opacity:1;stroke-width:0.190054"
     d="m 9.6629436,2.1111617 c -0.536606,0.7235579 -1.789276,2.6703593 -3.08241,4.7260058 -0.979025,1.5563194 -1.988287,3.1833785 -2.752124,4.4209685 -0.591486,0.958347 -0.724406,1.174422 -0.995431,1.617022 0.11508,0.0114 0.265513,0.02622 0.503474,0.04946 0.646471,0.06313 1.535994,0.146562 2.507919,0.228851 1.943842,0.164581 4.2262574,0.322406 5.5172414,0.300608 1.440144,-0.02432 2.209633,-0.407361 2.597981,-0.954385 0.388349,-0.547024 0.440639,-1.348747 0.221913,-2.322031 C 13.919037,9.0097207 13.272534,7.6399737 12.521373,6.3425533 11.526152,4.6235891 10.353241,3.0286379 9.6629436,2.1111617 Z M 6.7560856,5.342546 c -1.498184,1.7613453 -2.967116,3.55322 -4.447547,5.340509 -0.506216,0.613162 -1.009998,1.2298 -1.51484795,1.847053 0.42536595,0.08766 0.85892995,0.159659 1.29795795,0.22708 0.317919,-0.406947 0.596482,-0.903189 0.933417,-1.405886 1.254703,-1.9801424 2.482089,-4.0012506 3.73102,-6.008756 z m 6.0233734,0.1839673 c 1.047326,1.7312409 2.002157,3.6707737 2.159177,5.2522167 0.08278,0.833743 -0.0484,1.606976 -0.537728,2.207309 -0.27158,0.33319 -0.638696,0.594319 -1.110888,0.780606 l -0.0038,0.0013 -5.91e-4,5.9e-4 c -6.4e-4,2.06e-4 -0.0026,3.86e-4 -0.0032,5.91e-4 l -5.91e-4,7.38e-4 c -0.471601,0.209372 -1.210615,0.293054 -2.016404,0.318326 -2.4217014,0.07595 -6.1404984,-0.369202 -7.9359824,-0.547916 -0.395084,-0.03933 -0.709523,-0.06563 -0.878789,-0.07235 -0.430438,0.707496 -0.546225,0.898422 -0.793303,1.306964 0.02053,6.35e-4 0.04232,0.0012 0.06541,0.0019 0.266824,0.0083 0.611657,0.01804 1.019644,0.02599 1.020287,0.01987 2.436831,0.03118 4.018931,-0.0019 2.109441,-0.04413 4.5140434,-0.167578 6.6606114,-0.455341 0.739814,-0.09918 1.299399,-0.282023 1.705165,-0.516762 0.406381,-0.235095 0.660472,-0.515847 0.81855,-0.845275 0.315114,-0.656684 0.233627,-1.567375 -0.157244,-2.61437 C 15.319237,9.1126077 14.422712,7.6916567 13.430135,6.3666188 13.216536,6.0814754 12.998496,5.8008479 12.779459,5.5265133 Z" />
</svg>
