<?xml version="1.0" encoding="UTF-8" standalone="no"?>
<svg
   width="64"
   height="64"
   version="1.1"
   viewBox="0 0 16.933 16.933"
   id="svg7"
   sodipodi:docname="equibop.svg"
   inkscape:version="1.4.3 (0d15f75042, 2025-12-25)"
   xmlns:inkscape="http://www.inkscape.org/namespaces/inkscape"
   xmlns:sodipodi="http://sodipodi.sourceforge.net/DTD/sodipodi-0.dtd"
   xmlns="http://www.w3.org/2000/svg"
   xmlns:svg="http://www.w3.org/2000/svg"
   xmlns:rdf="http://www.w3.org/1999/02/22-rdf-syntax-ns#"
   xmlns:cc="http://creativecommons.org/ns#"
   xmlns:dc="http://purl.org/dc/elements/1.1/">
  <sodipodi:namedview
     id="namedview7"
     pagecolor="#9c4444"
     bordercolor="#000000"
     borderopacity="0.25"
     inkscape:showpageshadow="2"
     inkscape:pageopacity="0.0"
     inkscape:pagecheckerboard="0"
     inkscape:deskcolor="#d1d1d1"
     inkscape:zoom="6.15625"
     inkscape:cx="15.51269"
     inkscape:cy="30.050761"
     inkscape:window-width="2560"
     inkscape:window-height="1388"
     inkscape:window-x="0"
     inkscape:window-y="0"
     inkscape:window-maximized="1"
     inkscape:current-layer="svg7"
     showgrid="false" />
  <defs
     id="defs2">
    <style
       id="current-color-scheme"
       type="text/css">.ColorScheme-Text {color:#d8dee9} .ColorScheme-Highlight {color:#3b4252}</style>
  </defs>
  <metadata
     id="metadata2">
    <rdf:RDF>
      <cc:Work
         rdf:about="">
        <dc:format>image/svg+xml</dc:format>
        <dc:type
           rdf:resource="http://purl.org/dc/dcmitype/StillImage" />
      </cc:Work>
    </rdf:RDF>
  </metadata>
  <path
     id="path5"
     d="m 8.3469633,1.4560297 c -0.2758799,0.0043 -0.5517018,0.02459 -0.825777,0.06116 -0.5890475,0.07854 -1.1666896,0.232212 -1.7173405,0.457284 -0.6167703,0.251854 -1.1944249,0.590951 -1.7145349,1.004903 -0.5496544,0.437197 -1.0317417,0.955079 -1.4285221,1.534988 l -1.436e-4,1.43e-4 v 1.44e-4 h -1.436e-4 v 1.44e-4 c -0.3689599,0.53897 -0.6616492,1.128149 -0.8675707,1.749452 a 1.2747848,1.2747848 0 0 0 0.8089441,1.611155 1.2747848,1.2747848 0 0 0 1.6111551,-0.809084 c 0.1301201,-0.392596 0.3171456,-0.769294 0.5515464,-1.111649 l 1.437e-4,-1.44e-4 1.436e-4,-2.8e-4 c 0.252238,-0.368712 0.5620097,-0.701389 0.9119032,-0.979654 l 1.436e-4,-1.44e-4 1.436e-4,-1.43e-4 c 0.33077,-0.263258 0.700551,-0.480219 1.0906088,-0.639497 l 2.986e-4,-1.44e-4 2.986e-4,-1.43e-4 c 0.3481936,-0.142354 0.7165857,-0.240304 1.0900475,-0.290081 h 1.436e-4 c 0.3494863,-0.04662 0.7062924,-0.05219 1.0580656,-0.01655 0.3767637,0.03817 0.7497521,0.125018 1.1035141,0.257117 l 2.98e-4,1.44e-4 h 2.99e-4 c 0.386971,0.144308 0.75608,0.344726 1.089346,0.590962 l 1.44e-4,1.44e-4 2.99e-4,1.43e-4 c 0.340052,0.251056 0.646054,0.552099 0.902785,0.888198 L 9.9482158,6.6981087 A 2.3197492,2.3197492 0 0 0 8.4575534,6.1556797 2.3197492,2.3197492 0 0 0 6.1377481,8.4754857 2.3197492,2.3197492 0 0 0 8.4575534,10.795291 2.3197492,2.3197492 0 0 0 10.776658,8.5306117 l 2.065633,-0.933786 c 0.02765,0.138828 0.04859,0.279007 0.06284,0.419693 v 1.43e-4 1.44e-4 c 0.01543,0.151924 0.02315,0.305212 0.02314,0.458687 a 1.2747848,1.2747848 0 0 0 0,2.88e-4 c 7.2e-5,0.368201 -0.04491,0.736535 -0.133819,1.090889 v 2.87e-4 l -1.43e-4,2.88e-4 c -0.09676,0.386411 -0.247175,0.7618463 -0.444099,1.1089843 v 1.44e-4 l -1.44e-4,1.44e-4 c -0.163284,0.288037 -0.35964,0.559066 -0.582827,0.804596 a 1.2747848,1.2747848 0 0 0 0.08585,1.800802 1.2747848,1.2747848 0 0 0 1.800802,-0.08585 c 0.350085,-0.385132 0.656957,-0.808485 0.914008,-1.261881 l 1.43e-4,-2.98e-4 c 0.310544,-0.547486 0.546257,-1.135472 0.699392,-1.746798 V 10.1868 c 0.140677,-0.5607943 0.210514,-1.1359463 0.210407,-1.7111683 v -2.88e-4 -1.43e-4 c -6e-5,-0.238622 -0.01206,-0.477472 -0.03625,-0.715652 v -2.87e-4 c -0.06014,-0.593415 -0.195962,-1.177862 -0.404963,-1.73768 v -1.43e-4 c -0.228227,-0.61197 -0.541625,-1.188793 -0.928876,-1.712992 v -1.44e-4 c -0.41732,-0.565178 -0.917659,-1.065504 -1.482804,-1.482805 l -4.35e-4,-2.71e-4 c -0.524109,-0.38719 -1.100844,-0.700519 -1.712705,-0.928737 l -4.34e-4,-1.43e-4 C 10.35147,1.6873127 9.7669229,1.5515107 9.1734131,1.4913837 8.8988252,1.4635637 8.6228146,1.4517537 8.3469355,1.4560337 Z m -6.7812718,5.779875 c -0.072627,0.40259 -0.1105337,0.816835 -0.1105337,1.239577 0,3.8523983 3.1499406,7.0023383 7.0023389,7.0023383 1.6863733,0 3.2381023,-0.603649 4.4499643,-1.605544 -0.433722,0.05549 -0.88809,-0.07232 -1.237052,-0.389533 -0.414146,-0.376444 -0.57684,-0.926156 -0.478185,-1.438201 -0.755251,0.577665 -1.7022441,0.919619 -2.7347273,0.919619 -1.4674317,0 -2.7620439,-0.690565 -3.5791602,-1.767137 L 6.6956903,10.375456 C 6.2008605,9.9163837 5.8855985,9.2664357 5.8671084,8.5429517 l -1.8121639,0.819184 c -0.056525,-0.286348 -0.086127,-0.582779 -0.086127,-0.886654 0,-0.217172 0.01506,-0.430602 0.044326,-0.639216 C 3.6148857,8.1792397 3.0517242,8.3104967 2.5164496,8.1330797 2.0649379,7.9834177 1.7286262,7.6457887 1.5656915,7.2359047 Z"
     style="fill:currentColor"
     class="ColorScheme-Text" />
</svg>
