<?xml version='1.0' encoding='UTF-8'?>
<svg xmlns:inkscape="http://www.inkscape.org/namespaces/inkscape" xmlns:sodipodi="http://sodipodi.sourceforge.net/DTD/sodipodi-0.dtd" xmlns="http://www.w3.org/2000/svg" xmlns:svg="http://www.w3.org/2000/svg" xmlns:rdf="http://www.w3.org/1999/02/22-rdf-syntax-ns#" xmlns:cc="http://creativecommons.org/ns#" xmlns:dc="http://purl.org/dc/elements/1.1/" width="64" height="64" version="1.1" viewBox="0 0 16.933 16.933" id="svg7" sodipodi:docname="falkon.svg" inkscape:version="1.4.2 (ebf0e940d0, 2025-05-08)">
  <sodipodi:namedview id="namedview7" pagecolor="#9c4444" bordercolor="#000000" borderopacity="0.25" inkscape:showpageshadow="2" inkscape:pageopacity="0.0" inkscape:pagecheckerboard="0" inkscape:deskcolor="#d1d1d1" inkscape:zoom="6.15625" inkscape:cx="16" inkscape:cy="29.563452" inkscape:window-width="2560" inkscape:window-height="1376" inkscape:window-x="0" inkscape:window-y="0" inkscape:window-maximized="1" inkscape:current-layer="svg7" showgrid="false"/>
  <defs id="defs2">
    <style id="current-color-scheme" type="text/css">.ColorScheme-Text {color:#d8dee9} .ColorScheme-Highlight {color:#3b4252}</style>
  </defs>
  <metadata id="metadata2">
    <rdf:RDF>
      <cc:Work rdf:about="">
        <dc:format>image/svg+xml</dc:format>
        <dc:type rdf:resource="http://purl.org/dc/dcmitype/StillImage"/>
      </cc:Work>
    </rdf:RDF>
  </metadata>
  <path id="ellipse4650-0-7-2-3-4-4" class="ColorScheme-Text" style="fill:currentColor;fill-opacity:1;stroke:none;stroke-width:0.22705" d="m 8.4667085,1.4117616 a 7.4082629,7.2742105 0 0 0 -7.408396,7.2740282 7.4082629,7.2742105 0 0 0 1.898883,4.8633942 c -0.05828,-0.938 0.08928,-2.158124 0.728601,-3.6390091 C 9.2459145,5.3265534 14.973112,8.7261443 14.973112,8.7261443 8.1767795,7.9492931 5.1892315,12.366135 4.1310275,14.584657 a 7.4082629,7.2742105 0 0 0 0.220841,0.150332 c 0.220214,-0.49829 2.702947,-5.7911367 8.8474145,-5.8886678 -4.8986675,1.1934108 0.0015,5.4217338 0.0071,5.4265848 A 7.4082629,7.2742105 0 0 0 15.874688,8.6857898 7.4082629,7.2742105 0 0 0 8.4667355,1.4117616 Z m -0.623058,2.3529841 c 2.9582515,0.1545455 4.4145255,2.337905 4.6678305,2.4585265 1.527876,0.3216591 2.380413,1.4471989 2.509081,2.4443358 C 7.8154135,5.0007057 2.9904555,10.307956 2.9904555,10.307956 3.0821855,8.5121836 3.9219145,4.481993 6.7540765,4.9687318 6.7142065,4.7949145 6.0112955,4.5654284 4.3735985,4.4379135 5.7044595,3.8870728 6.8575675,3.7132303 7.8436505,3.7647457 Z m -2.12549,0.7117485 c 0.397782,0.078044 0.805835,0.191608 1.073609,0.3560963 0.148071,-0.042334 0.268798,-0.1316684 0.329933,-0.2434581 -0.0025,-4.314e-4 -0.005,-8.839e-4 -0.0076,-0.00134 -0.105889,-0.017905 -0.262033,-0.037176 -0.445674,-0.054545 -0.27572,-0.026079 -0.614577,-0.047964 -0.950329,-0.056763 z m 4.5911125,1.258975 c -0.225467,0.00838 -0.3991115,0.07051 -0.3991115,0.07051 0,0 0.1779135,0.9875601 1.3951165,0.8727237 C 11.204801,5.8569462 10.685051,5.7215086 10.309273,5.7354692 Z M 6.7682665,7.80331 c -0.371435,0.062907 -0.749023,0.1372857 -1.113077,0.2252763 -0.734073,0.1774224 -1.413418,0.4121258 -1.867398,0.7046533 -0.302653,0.1950182 -0.499519,0.4115482 -0.568069,0.642126 l -8.58e-4,0.00266 -8.58e-4,0.00266 c -0.06298,0.1832322 -0.08545,0.4180511 -0.08958,0.6039885 -8.8e-5,0.00396 -3.71e-4,0.00806 -4.43e-4,0.011972 0.01693,-0.016842 0.03436,-0.03394 0.05188,-0.050998 C 3.6819595,9.456966 4.8755415,8.4540933 6.7683185,7.803307 Z M 10.785546,8.8086272 C 9.9816645,8.909021 8.9926295,9.1421565 7.9350035,9.6414398 c -1.570635,0.7414632 -3.294408,2.0689762 -4.793773,4.4319112 -0.0019,0.410516 0.137144,0.826366 0.281596,1.140571 0.05466,0.118903 0.110125,0.223219 0.157871,0.307316 0.05444,-0.145183 0.121469,-0.311934 0.188912,-0.467847 0.679236,-1.570236 2.689907,-5.2161089 7.0159365,-6.2447638 z"/>
</svg>
