<?xml version="1.0" encoding="UTF-8" standalone="no"?>
<svg
   width="64"
   height="64"
   version="1.1"
   viewBox="0 0 16.933 16.933"
   id="svg7"
   sodipodi:docname="filen.svg"
   inkscape:version="1.4.3 (0d15f75042, 2025-12-25)"
   xmlns:inkscape="http://www.inkscape.org/namespaces/inkscape"
   xmlns:sodipodi="http://sodipodi.sourceforge.net/DTD/sodipodi-0.dtd"
   xmlns="http://www.w3.org/2000/svg"
   xmlns:svg="http://www.w3.org/2000/svg"
   xmlns:rdf="http://www.w3.org/1999/02/22-rdf-syntax-ns#"
   xmlns:cc="http://creativecommons.org/ns#"
   xmlns:dc="http://purl.org/dc/elements/1.1/">
  <sodipodi:namedview
     id="namedview7"
     pagecolor="#9c4444"
     bordercolor="#000000"
     borderopacity="0.25"
     inkscape:showpageshadow="2"
     inkscape:pageopacity="0.0"
     inkscape:pagecheckerboard="0"
     inkscape:deskcolor="#d1d1d1"
     inkscape:zoom="4.3531262"
     inkscape:cx="89.935366"
     inkscape:cy="34.457995"
     inkscape:window-width="2560"
     inkscape:window-height="1388"
     inkscape:window-x="0"
     inkscape:window-y="0"
     inkscape:window-maximized="1"
     inkscape:current-layer="svg7"
     showgrid="false" />
  <defs
     id="defs2">
    <style
       id="current-color-scheme"
       type="text/css">.ColorScheme-Text {color:#d8dee9} .ColorScheme-Highlight {color:#3b4252}</style>
  </defs>
  <metadata
     id="metadata2">
    <rdf:RDF>
      <cc:Work
         rdf:about="">
        <dc:format>image/svg+xml</dc:format>
        <dc:type
           rdf:resource="http://purl.org/dc/dcmitype/StillImage" />
      </cc:Work>
    </rdf:RDF>
  </metadata>
  <path
     id="path5"
     style="opacity:1;fill:currentColor;stroke-width:0.0321463;paint-order:fill markers stroke"
     d="m 8.4683008,1.4551785 c -1.6105317,0 -3.0973061,0.5448633 -4.2818989,1.4594253 H 9.1980295 C 9.3716202,2.6381423 9.6786048,2.4549179 10.029,2.4549179 c 0.541665,0 0.980463,0.4387966 0.980463,0.98046 0,0.5416734 -0.438798,0.9804699 -0.980463,0.9804699 -0.356824,0 -0.6686255,-0.1896641 -0.8406082,-0.4757654 H 3.6463495 v 9.5860456 c 0,0.01 6e-6,0.0177 -0.0016,0.0273 0.4934459,0.467725 1.0543937,0.864733 1.665174,1.173334 v -4.140443 -0.0241 c 0,-0.008 0.0016,-0.0161 0.0016,-0.0241 0,-0.008 0.0016,-0.0161 0.0032,-0.0241 l 0.0048,-0.0241 0.0048,-0.0241 c 0.0016,-0.008 0.0048,-0.0161 0.0064,-0.0241 0.0016,-0.008 0.0048,-0.0161 0.008,-0.0241 0.0032,-0.008 0.0064,-0.0161 0.008,-0.0225 0.0032,-0.008 0.0064,-0.0161 0.0096,-0.0225 0.0032,-0.006 0.008,-0.0145 0.01124,-0.0225 0.0032,-0.008 0.008,-0.0144 0.01287,-0.0209 0.0048,-0.006 0.008,-0.0145 0.01284,-0.0209 0.0048,-0.006 0.0097,-0.0128 0.014469,-0.0209 l 0.01447,-0.0193 c 0.0048,-0.006 0.0096,-0.0128 0.01607,-0.0193 0.0048,-0.006 0.01125,-0.0129 0.016069,-0.0177 l 0.01767,-0.0177 c 0.0064,-0.005 0.01288,-0.0113 0.019309,-0.0161 0.0064,-0.005 0.01285,-0.0113 0.019279,-0.0161 l 0.019279,-0.0144 c 0.0064,-0.005 0.01448,-0.01 0.020909,-0.0129 0.0064,-0.005 0.01448,-0.008 0.020909,-0.0129 0.008,-0.003 0.01444,-0.008 0.022479,-0.0112 0.008,-0.003 0.01447,-0.006 0.022509,-0.0112 0.008,-0.003 0.01608,-0.006 0.022509,-0.01 0.008,-0.003 0.01607,-0.005 0.024109,-0.008 0.008,-0.003 0.01607,-0.005 0.024109,-0.006 0.008,-0.002 0.01607,-0.005 0.024109,-0.006 l 0.024109,-0.005 c 0.008,-0.002 0.01607,-0.003 0.024109,-0.003 0.008,0 0.01607,-0.002 0.024109,-0.003 0.008,0 0.01607,-0.002 0.024109,-0.002 H 7.5406682 C 7.7142589,9.799173 8.0212435,9.6159486 8.3716388,9.6159486 c 0.5416664,0 0.980464,0.4387964 0.980464,0.9804594 0,0.541664 -0.4387976,0.98046 -0.980464,0.98046 -0.3568241,0 -0.6686565,-0.189654 -0.8406393,-0.474155 H 6.3319472 v 3.978108 c 0,0.0225 -0.0016,0.045 -0.0048,0.0675 0.6782872,0.213773 1.3967462,0.3295 2.1409334,0.3295 0.6670366,0 1.3131658,-0.0932 1.9239454,-0.266812 V 9.89883 C 10.118783,9.7252353 9.9371758,9.4198446 9.9371758,9.0710553 c 0,-0.5416634 0.4387972,-0.98046 0.9804622,-0.98046 0.541667,0 0.980464,0.4387966 0.980464,0.98046 0,0.358439 -0.192885,0.6718594 -0.480594,0.8438442 v 4.9135895 c 0.470944,-0.218594 0.914576,-0.488626 1.322835,-0.803656 V 9.0774951 9.0533958 c 0,-0.008 0.0016,-0.016099 0.0016,-0.024099 0,-0.008 0.0016,-0.016099 0.0032,-0.024099 l 0.0048,-0.024099 0.0048,-0.024099 c 0.0016,-0.008 0.0048,-0.016099 0.0064,-0.024099 0.0032,-0.008 0.0048,-0.0161 0.008,-0.024099 0.0032,-0.008 0.0048,-0.016099 0.008,-0.024099 0.0032,-0.008 0.0064,-0.0161 0.0096,-0.022499 0.0032,-0.006 0.0081,-0.0145 0.01127,-0.022499 0.0032,-0.008 0.008,-0.0144 0.01284,-0.020899 0.0048,-0.006 0.008,-0.014499 0.01287,-0.020899 0.0048,-0.006 0.0097,-0.0144 0.01447,-0.020899 l 0.01447,-0.019299 c 0.0048,-0.006 0.01125,-0.0129 0.01607,-0.019299 0.0048,-0.006 0.01125,-0.0129 0.01767,-0.017699 0.0064,-0.005 0.01125,-0.0113 0.01767,-0.017699 0.0064,-0.005 0.01285,-0.0113 0.01928,-0.016099 0.0064,-0.005 0.01288,-0.0113 0.01931,-0.016099 0.0064,-0.005 0.01284,-0.01 0.02088,-0.0144 0.0064,-0.005 0.01448,-0.01 0.02091,-0.0129 0.0064,-0.003 0.01448,-0.008 0.02091,-0.0129 0.0064,-0.005 0.01444,-0.008 0.02248,-0.0112 0.008,-0.003 0.01447,-0.006 0.02251,-0.01 0.008,-0.003 0.01608,-0.006 0.02251,-0.01 0.008,-0.003 0.01607,-0.006 0.02411,-0.008 0.008,-0.003 0.01607,-0.005 0.02411,-0.006 0.008,-0.002 0.01607,-0.003 0.02411,-0.006 l 0.02411,-0.005 c 0.008,-0.002 0.01607,-0.002 0.02411,-0.003 0.008,-0.002 0.01607,-0.002 0.02411,-0.002 0.008,0 0.01607,-0.002 0.02411,-0.002 h 2.234171 v -0.098097 c 0,-1.7551862 -0.644541,-3.3592871 -1.710192,-4.5888895 v 2.1811533 0.025699 c 0,0.008 -0.0016,0.0161 -0.0016,0.025699 0,0.01 -0.0016,0.0161 -0.0032,0.024099 l -0.0048,0.024099 -0.0048,0.024099 c -0.0016,0.008 -0.0048,0.0161 -0.0064,0.024099 -0.0032,0.008 -0.0048,0.0161 -0.008,0.024099 l -0.0097,0.024099 c -0.0032,0.008 -0.0064,0.0161 -0.0096,0.022499 -0.0032,0.008 -0.008,0.0145 -0.01124,0.022499 -0.0032,0.008 -0.008,0.014499 -0.01287,0.022499 -0.0048,0.008 -0.008,0.014499 -0.01284,0.020899 -0.0048,0.006 -0.0097,0.0145 -0.01447,0.020899 -0.0048,0.006 -0.0096,0.0128 -0.01607,0.019299 -0.0048,0.006 -0.01125,0.0129 -0.01607,0.019299 -0.0048,0.006 -0.01125,0.0129 -0.01767,0.017699 -0.0064,0.005 -0.01288,0.0112 -0.01771,0.017699 -0.0064,0.006 -0.01285,0.0112 -0.01928,0.0161 -0.0064,0.005 -0.01285,0.01 -0.01928,0.0161 -0.0064,0.005 -0.01287,0.01 -0.02091,0.0145 -0.0064,0.005 -0.01448,0.01 -0.02091,0.0128 -0.008,0.005 -0.01444,0.008 -0.02248,0.0129 -0.008,0.003 -0.01447,0.008 -0.02251,0.0112 -0.008,0.003 -0.01608,0.006 -0.02251,0.01 l -0.02411,0.01 c -0.008,0.003 -0.01607,0.005 -0.02411,0.008 -0.008,0.003 -0.01607,0.005 -0.02411,0.006 l -0.02411,0.005 -0.02411,0.005 c -0.008,0.002 -0.01607,0.002 -0.02571,0.003 -0.0096,0.002 -0.01607,0.002 -0.02571,0.002 h -0.02574 -0.01444 -6.9018269 v 1.0415563 c 0.2861032,0.1703748 0.4773614,0.4838052 0.4773614,0.8422342 0,0.5416634 -0.4387976,0.98047 -0.980464,0.98047 -0.5416654,0 -0.980463,-0.4388066 -0.980463,-0.98047 0,-0.3487893 0.1816325,-0.6557799 0.456484,-0.8293646 v -1.567142 -0.024099 c 0,-0.008 0.0016,-0.0161 0.0016,-0.024099 0,-0.008 0.0016,-0.0161 0.0032,-0.024099 l 0.0048,-0.024099 0.0048,-0.024099 c 0.0016,-0.008 0.0048,-0.0161 0.0064,-0.024099 0.0016,-0.008 0.0048,-0.0161 0.008,-0.024099 0.0032,-0.008 0.0064,-0.0161 0.008,-0.022499 0.0032,-0.008 0.0064,-0.016099 0.0096,-0.022499 0.0032,-0.006 0.008,-0.014499 0.01124,-0.022499 0.0032,-0.008 0.008,-0.0145 0.01287,-0.022499 0.0048,-0.008 0.008,-0.0144 0.01284,-0.020899 0.0048,-0.006 0.0097,-0.0145 0.01447,-0.020899 l 0.01447,-0.019299 c 0.0048,-0.006 0.0096,-0.0129 0.016069,-0.019299 0.0048,-0.006 0.01125,-0.0129 0.01607,-0.017699 l 0.017669,-0.017699 c 0.0064,-0.006 0.01288,-0.0113 0.019309,-0.0161 0.0064,-0.005 0.01285,-0.01 0.019279,-0.0161 l 0.019279,-0.0145 c 0.0064,-0.005 0.01448,-0.01 0.020909,-0.0128 0.0064,-0.005 0.01448,-0.008 0.020909,-0.0129 0.008,-0.003 0.01444,-0.008 0.022479,-0.0112 0.008,-0.003 0.01447,-0.006 0.022509,-0.01 0.008,-0.003 0.01608,-0.006 0.022509,-0.01 0.008,-0.003 0.016069,-0.006 0.024109,-0.008 0.008,-0.002 0.01607,-0.005 0.024109,-0.006 0.008,-0.002 0.016069,-0.005 0.024109,-0.006 l 0.024109,-0.005 c 0.008,-0.002 0.01607,-0.003 0.024109,-0.003 0.008,0 0.016069,-0.002 0.024109,-0.002 0.008,0 0.01607,-0.002 0.024109,-0.002 H 12.743251 V 2.9628823 c 0,-0.016099 -6e-6,-0.032199 0.0016,-0.046598 C 11.561871,1.9985019 10.078322,1.4552585 8.4677898,1.4552585 Z M 2.6192669,4.5990822 C 1.8847234,5.7065283 1.4571955,7.0357676 1.4571955,8.4662838 c 0,1.4305162 0.4275279,2.7597552 1.1620714,3.8688012 z M 13.766012,9.5898094 v 3.4669636 c 0.835805,-0.961171 1.411225,-2.152184 1.62339,-3.4669636 z"
     class="ColorScheme-Text" />
</svg>
