<?xml version="1.0" encoding="UTF-8" standalone="no"?>
<svg
   width="64"
   height="64"
   version="1.1"
   viewBox="0 0 16.933 16.933"
   id="svg7"
   sodipodi:docname="filezilla.svg"
   inkscape:version="1.4.2 (ebf0e940d0, 2025-05-08)"
   xmlns:inkscape="http://www.inkscape.org/namespaces/inkscape"
   xmlns:sodipodi="http://sodipodi.sourceforge.net/DTD/sodipodi-0.dtd"
   xmlns="http://www.w3.org/2000/svg"
   xmlns:svg="http://www.w3.org/2000/svg"
   xmlns:rdf="http://www.w3.org/1999/02/22-rdf-syntax-ns#"
   xmlns:cc="http://creativecommons.org/ns#"
   xmlns:dc="http://purl.org/dc/elements/1.1/">
  <sodipodi:namedview
     id="namedview7"
     pagecolor="#9c4444"
     bordercolor="#000000"
     borderopacity="0.25"
     inkscape:showpageshadow="2"
     inkscape:pageopacity="0.0"
     inkscape:pagecheckerboard="0"
     inkscape:deskcolor="#d1d1d1"
     inkscape:zoom="4.3531261"
     inkscape:cx="69.030851"
     inkscape:cy="47.092594"
     inkscape:window-width="2560"
     inkscape:window-height="1392"
     inkscape:window-x="0"
     inkscape:window-y="0"
     inkscape:window-maximized="1"
     inkscape:current-layer="svg7"
     showgrid="false" />
  <defs
     id="defs2">
    <style
       id="current-color-scheme"
       type="text/css">.ColorScheme-Text {color:#d8dee9} .ColorScheme-Highlight {color:#3b4252}</style>
  </defs>
  <metadata
     id="metadata2">
    <rdf:RDF>
      <cc:Work
         rdf:about="">
        <dc:format>image/svg+xml</dc:format>
        <dc:type
           rdf:resource="http://purl.org/dc/dcmitype/StillImage" />
      </cc:Work>
    </rdf:RDF>
  </metadata>
  <path
     id="path5"
     style="fill:currentColor;fill-opacity:1;stroke-width:0.0369017"
     d="m 1.9246665,1.4551793 c 0,0.123646 -0.05014,0.244656 -0.137444,0.332115 -0.08746,0.0873 -0.208473,0.137445 -0.332043,0.137445 v 0.61904 c 0.258856,0 0.469487,0.210648 0.469487,0.469415 0,0.258928 -0.210631,0.469488 -0.469487,0.469488 v 0.61904 c 0.258856,0 0.469487,0.210648 0.469487,0.469415 0,0.258928 -0.210631,0.46956 -0.469487,0.46956 v 0.61904 c 0.258856,0 0.469487,0.210615 0.469487,0.469704 0,0.259088 -0.210631,0.469703 -0.469487,0.469703 v 0.619041 c 0.258856,0 0.469487,0.210487 0.469487,0.469415 0,0.258928 -0.210631,0.469559 -0.469487,0.469559 v 0.619041 c 0.258856,0 0.469487,0.210415 0.469487,0.469343 0,0.258928 -0.210631,0.4695605 -0.469487,0.4695605 v 0.6190402 c 0.258856,0 0.469487,0.210487 0.469487,0.469415 0,0.258928 -0.210631,0.46956 -0.469487,0.46956 v 0.61904 c 0.258856,0 0.469487,0.210415 0.469487,0.469343 0,0.258928 -0.210631,0.46956 -0.469487,0.46956 v 0.61904 c 0.258856,0 0.469487,0.210487 0.469487,0.469415 0,0.258928 -0.210631,0.46956 -0.469487,0.46956 v 0.619328 c 0.12357,0 0.244581,0.04999 0.332043,0.137445 0.0873,0.0873 0.137444,0.208324 0.137444,0.331971 h 0.619041 c 0,-0.258928 0.210631,-0.469416 0.469487,-0.469416 0.258856,0 0.469488,0.210488 0.469488,0.469416 h 0.61904 c 0,-0.258928 0.210631,-0.469416 0.469487,-0.469416 0.258856,0 0.469488,0.210488 0.469488,0.469416 h 0.619112 c 0,-0.258928 0.210632,-0.469416 0.469487,-0.469416 0.258856,0 0.469488,0.210488 0.469488,0.469416 h 0.61904 c 0,-0.258928 0.210632,-0.469416 0.469488,-0.469416 0.258855,0 0.469487,0.210488 0.469487,0.469416 h 0.61904 c 0,-0.258928 0.210632,-0.469416 0.469488,-0.469416 0.258856,0 0.469487,0.210488 0.469487,0.469416 h 0.6190395 c 0,-0.258928 0.210632,-0.469416 0.469488,-0.469416 0.258856,0 0.469487,0.210488 0.469487,0.469416 h 0.61904 c 0,-0.258928 0.210632,-0.469416 0.469488,-0.469416 0.258856,0 0.469488,0.210488 0.469488,0.469416 h 0.619112 c 0,-0.258928 0.210631,-0.469416 0.469487,-0.469416 0.258856,0 0.469488,0.210488 0.469488,0.469416 h 0.619328 c 0,-0.123647 0.0502,-0.244673 0.137661,-0.331971 0.0873,-0.08746 0.208248,-0.137445 0.331899,-0.137445 v -0.61904 c -0.258936,0 -0.46956,-0.210632 -0.46956,-0.469559 0,-0.258928 0.210624,-0.469344 0.46956,-0.469344 v -0.61904 c -0.258936,0 -0.46956,-0.210632 -0.46956,-0.469559 0,-0.258929 0.210624,-0.469416 0.46956,-0.469416 v -0.61904 c -0.258936,0 -0.46956,-0.210632 -0.46956,-0.46956 0,-0.258928 0.210624,-0.469343 0.46956,-0.469343 V 9.7154637 c -0.258936,0 -0.46956,-0.2106325 -0.46956,-0.4695605 0,-0.258928 0.210624,-0.469415 0.46956,-0.469415 v -0.61904 c -0.258936,0 -0.46956,-0.210632 -0.46956,-0.46956 0,-0.258928 0.210624,-0.469415 0.46956,-0.469415 v -0.618968 c -0.258936,0 -0.46956,-0.210688 -0.46956,-0.469776 0,-0.259088 0.210624,-0.4697039 0.46956,-0.4697039 v -0.61904 c -0.258936,0 -0.46956,-0.2106321 -0.46956,-0.46956 0,-0.258767 0.210624,-0.469343 0.46956,-0.469343 v -0.61904 c -0.258936,0 -0.46956,-0.210632 -0.46956,-0.46956 0,-0.2587671 0.210624,-0.469415 0.46956,-0.469415 v -0.619328 c -0.123651,0 -0.244597,-0.05015 -0.331899,-0.137445 -0.08746,-0.08746 -0.137661,-0.208469 -0.137661,-0.332115 h -0.61904 c 0,0.258928 -0.210631,0.46956 -0.469487,0.46956 -0.258856,0 -0.469488,-0.210632 -0.469488,-0.46956 h -0.61904 c 0,0.258928 -0.21063,0.46956 -0.469487,0.46956 -0.258855,0 -0.469487,-0.210632 -0.469487,-0.46956 h -0.61904 c 0,0.258928 -0.210632,0.46956 -0.469488,0.46956 -0.258855,0 -0.469487,-0.210632 -0.469487,-0.46956 H 9.7151025 c 0,0.258928 -0.210631,0.46956 -0.469487,0.46956 -0.258856,0 -0.469488,-0.210632 -0.469488,-0.46956 h -0.61904 c 0,0.258928 -0.210631,0.46956 -0.469487,0.46956 -0.258856,0 -0.469488,-0.210632 -0.469488,-0.46956 h -0.61904 c 0,0.258928 -0.210631,0.46956 -0.469487,0.46956 -0.258857,0 -0.469488,-0.210632 -0.469488,-0.46956 h -0.61904 c 0,0.258928 -0.210631,0.46956 -0.469487,0.46956 -0.258856,0 -0.469488,-0.210632 -0.469488,-0.46956 h -0.61904 c 0,0.258928 -0.210631,0.46956 -0.469488,0.46956 -0.258855,0 -0.469487,-0.210632 -0.469487,-0.46956 z m 3.370018,2.063467 H 11.424545 L 11.03333,5.3575323 H 6.7685175 l -0.365125,1.708505 h 6.9973395 l -0.300043,1.226044 -3.7416295,3.6386367 c 0.339096,0.05215 0.6651675,0.130381 1.0171025,0.130381 0.856085,0 1.840365,-0.260942 2.505639,-0.534714 l -0.341773,1.604142 c -0.978293,0.469553 -1.578031,0.508696 -2.163866,0.508696 -0.6388745,0 -1.2518335,-0.208797 -1.8779495,-0.208797 -0.352176,0 -0.860853,0.0262 -1.173791,0.234816 L 6.6462805,12.465432 10.506255,8.6440893 H 6.0639985 l -0.847514,3.9778867 h -1.852075 z"
     class="ColorScheme-Text" />
</svg>
