<?xml version='1.0' encoding='UTF-8'?>
<svg xmlns:inkscape="http://www.inkscape.org/namespaces/inkscape" xmlns:sodipodi="http://sodipodi.sourceforge.net/DTD/sodipodi-0.dtd" xmlns="http://www.w3.org/2000/svg" xmlns:svg="http://www.w3.org/2000/svg" xmlns:rdf="http://www.w3.org/1999/02/22-rdf-syntax-ns#" xmlns:cc="http://creativecommons.org/ns#" xmlns:dc="http://purl.org/dc/elements/1.1/" width="64" height="64" version="1.1" viewBox="0 0 16.933 16.933" id="svg7" sodipodi:docname="firefox.svg" inkscape:version="1.4 (e7c3feb100, 2024-10-09)">
  <sodipodi:namedview id="namedview7" pagecolor="#9c4444" bordercolor="#000000" borderopacity="0.25" inkscape:showpageshadow="2" inkscape:pageopacity="0.0" inkscape:pagecheckerboard="0" inkscape:deskcolor="#d1d1d1" inkscape:zoom="6.15625" inkscape:cx="15.837563" inkscape:cy="29.725888" inkscape:window-width="1183" inkscape:window-height="941" inkscape:window-x="35" inkscape:window-y="32" inkscape:window-maximized="0" inkscape:current-layer="svg7" showgrid="false"/>
  <defs id="defs2">
    <style id="current-color-scheme" type="text/css">.ColorScheme-Text {color:#d8dee9} .ColorScheme-Highlight {color:#3b4252}</style></defs>
  <metadata id="metadata2">
    <rdf:RDF>
      <cc:Work rdf:about="">
        <dc:format>image/svg+xml</dc:format>
        <dc:type rdf:resource="http://purl.org/dc/dcmitype/StillImage"/>
      </cc:Work>
    </rdf:RDF>
  </metadata>
  <path id="path36" style="fill:currentColor;fill-opacity:1;stroke-width:0.06989;stroke-opacity:0.3" d="m 10.703163,1.5187057 c -0.133703,0 -1.0515802,0.8063207 -1.3899255,1.2210169 -0.3442018,0.4218713 -0.825216,1.313646 -0.825216,1.5294233 0,0.07854 0.060315,0.1151476 0.1915971,0.1159665 0.4065341,0.00255 1.1926688,0.2172483 1.6949704,0.4630279 0.698655,0.3418552 1.356984,1.0026984 1.704213,1.7109357 0.138985,0.283492 0.27231,0.625974 0.295803,0.7605096 L 12.41745,7.5641257 12.293931,7.3893352 C 12.012786,6.9894236 11.503094,6.5264853 11.140143,6.3414288 10.836865,6.1867976 10.142706,5.991846 9.8955954,5.991846 c -0.018924,0 0.1154116,0.1063354 0.2991626,0.2369764 1.653236,1.1754073 1.604157,3.646081 -0.09495,4.7807046 -0.8453445,0.5645 -1.8474782,0.607653 -2.8353167,0.122689 C 5.9121282,10.468302 5.1092139,9.0163286 5.7316977,8.3616106 6.1364646,7.9358858 6.6229363,7.7306147 7.4569207,7.6347143 7.7808766,7.597468 7.9266431,7.5354112 8.2081883,7.3128636 8.400326,7.1609869 8.5560215,6.9978301 8.5535686,6.9506767 8.5511017,6.9035223 8.2756927,6.7319473 7.9418,6.5691612 7.6079065,6.4063749 7.0937392,6.0800325 6.7989334,5.8439455 L 6.2627952,5.4145314 6.182965,4.9565448 C 6.136762,4.6912451 6.1238691,4.3088156 6.1518693,4.0472947 L 6.1997629,3.5960312 5.9006024,3.7632589 C 5.7360468,3.8550409 5.3683398,4.1468647 5.0837884,4.4120036 4.7887171,4.6869435 4.5416707,4.8671135 4.5081532,4.8313333 4.4091999,4.7256927 4.294707,4.0525069 4.294707,3.5767034 c 0,-0.2479612 -0.027542,-0.4504227 -0.060511,-0.4504227 -0.032965,0 -0.3241001,0.2745863 -0.647903,0.6109277 -1.3096951,1.3604106 -1.8973668,2.814462 -1.8991741,4.7008734 -9.794e-4,1.0649939 0.1672705,1.8185652 0.6210129,2.7848922 0.3766739,0.802199 0.7760224,1.367523 1.4025314,1.984888 1.0357037,1.020589 2.2405835,1.643823 3.6806999,1.905054 1.5906134,0.288528 3.3536969,-0.04697 4.8151609,-0.916813 1.211778,-0.721226 2.373026,-2.117886 2.844558,-3.421031 C 15.402774,9.8031406 15.501099,9.1635377 15.457811,8.1254738 15.411675,7.0190429 15.211524,6.265599 14.71159,5.3145308 14.40026,4.7222676 13.804557,3.8660827 13.745197,3.9254452 c -0.01425,0.013965 0.04161,0.1570559 0.123519,0.31765 0.173128,0.339362 0.420177,1.2563396 0.420177,1.5605144 0,0.1961205 -0.02396,0.1775911 -0.373114,-0.292439 C 13.710702,5.2350857 13.079197,4.5356213 12.51242,3.9565379 11.471429,2.8929455 10.998403,2.2749089 10.851901,1.7859342 10.807834,1.6388372 10.74085,1.5187057 10.70317,1.5187057 Z M 9.4224816,6.6288248 c -0.040244,-0.00251 -0.08261,0.00916 -0.1378203,0.028574 C 9.1285782,6.7122899 9.0737491,6.7939614 9.0023061,7.0750495 8.9349492,7.3400372 8.8321234,7.5018566 8.577935,7.744803 8.2825437,8.0271249 8.194552,8.0706218 7.8350701,8.1128719 7.3730734,8.1671712 7.129398,8.2755767 6.8896841,8.5322023 6.7463177,8.6856748 6.7301544,8.7526296 6.7712001,9.0263241 c 0.0944,0.6295123 0.7310924,1.2940149 1.4159775,1.4781619 0.6851888,0.184227 1.0912558,0.08439 1.5579945,-0.382356 C 10.581537,9.2857634 10.596049,7.7712686 9.776268,6.9036199 9.5901167,6.7065964 9.5110339,6.6343827 9.4224846,6.6288269 Z" class="ColorScheme-Text"/>
  </svg>
