<?xml version="1.0" encoding="UTF-8" standalone="no"?>
<svg
   width="64"
   height="64"
   version="1.1"
   viewBox="0 0 16.933 16.933"
   id="svg7"
   sodipodi:docname="firedragon.svg"
   inkscape:version="1.4.3 (0d15f75042, 2025-12-25)"
   xmlns:inkscape="http://www.inkscape.org/namespaces/inkscape"
   xmlns:sodipodi="http://sodipodi.sourceforge.net/DTD/sodipodi-0.dtd"
   xmlns="http://www.w3.org/2000/svg"
   xmlns:svg="http://www.w3.org/2000/svg"
   xmlns:rdf="http://www.w3.org/1999/02/22-rdf-syntax-ns#"
   xmlns:cc="http://creativecommons.org/ns#"
   xmlns:dc="http://purl.org/dc/elements/1.1/">
  <sodipodi:namedview
     id="namedview7"
     pagecolor="#9c4444"
     bordercolor="#000000"
     borderopacity="0.25"
     inkscape:showpageshadow="2"
     inkscape:pageopacity="0.0"
     inkscape:pagecheckerboard="0"
     inkscape:deskcolor="#d1d1d1"
     inkscape:zoom="6.15625"
     inkscape:cx="58.720812"
     inkscape:cy="-6.822335"
     inkscape:window-width="2560"
     inkscape:window-height="1388"
     inkscape:window-x="0"
     inkscape:window-y="0"
     inkscape:window-maximized="1"
     inkscape:current-layer="svg7"
     showgrid="false" />
  <defs
     id="defs2">
    <style
       id="current-color-scheme"
       type="text/css">.ColorScheme-Text {color:#d8dee9} .ColorScheme-Highlight {color:#3b4252}</style>
  </defs>
  <metadata
     id="metadata2">
    <rdf:RDF>
      <cc:Work
         rdf:about="">
        <dc:format>image/svg+xml</dc:format>
        <dc:type
           rdf:resource="http://purl.org/dc/dcmitype/StillImage" />
      </cc:Work>
    </rdf:RDF>
  </metadata>
  <path
     style="fill:currentColor;stroke-width:0.0235711"
     d="M 5.3155267,15.443738 C 4.9540443,15.409297 4.8813834,15.392082 4.6824177,15.293748 4.2685113,15.089184 4.0902225,14.849588 3.3019375,13.438564 2.6683249,12.304403 2.3767455,11.804562 1.8169269,10.892884 1.0657027,9.6694948 0.99237329,9.5456788 0.86766289,9.2900478 0.69299869,8.9320203 0.63608879,8.6854965 0.65902999,8.3862846 0.69087499,7.9709498 0.79456189,7.7572604 1.7103162,6.2196766 2.3071901,5.2175038 2.6763942,4.5661324 3.2579227,3.4892943 4.0534682,2.0161526 4.2667898,1.7561298 4.8371547,1.5643253 c 0.191282,-0.064325 0.2476849,-0.065763 2.7409809,-0.069729 1.4001243,-0.00223 2.8143904,-0.014485 3.1428144,-0.027232 1.669024,-0.064782 1.875389,0.069261 2.924526,1.8996847 0.202724,0.3536916 0.566424,0.9888965 0.808224,1.4115653 0.241799,0.4226699 0.632859,1.0873755 0.869023,1.4771229 0.417183,0.6884913 0.781215,1.3647471 0.871696,1.619338 0.02443,0.068749 0.05772,0.218758 0.07397,0.33335 0.03254,0.229428 -0.01161,0.5175142 -0.126012,0.8222149 -0.06687,0.1781026 -0.573607,1.0724919 -1.028392,1.8151069 -0.298076,0.486724 -0.99188,1.719667 -1.56515,2.781391 -0.459901,0.851758 -0.655319,1.162009 -0.863953,1.371636 -0.21213,0.21314 -0.556179,0.39585 -0.828611,0.440039 -0.3016,0.04893 -6.0336867,0.05324 -6.5407493,0.0049 z m 2.6868889,-1.740842 c 0.4281809,-0.01883 1.1876227,-0.02347 1.8071192,-0.01103 1.1915962,0.02392 1.3258562,0.01158 1.6459682,-0.151365 0.327041,-0.166469 0.403493,-0.274645 1.104871,-1.56335 0.414407,-0.76143 0.517539,-0.941703 1.136907,-1.9873232 0.222532,-0.375679 0.462006,-0.8026829 0.532165,-0.9488982 0.120332,-0.2507792 0.127645,-0.2824247 0.129015,-0.558359 C 14.360561,8.0560621 14.324421,7.9801522 13.48783,6.6549674 13.190176,6.1834737 12.615356,5.1778168 12.15256,4.3188899 11.718883,3.5140071 11.521971,3.3028237 11.105153,3.1955701 10.852149,3.1304649 6.2974971,3.1295401 5.9227831,3.1945116 5.3467812,3.2943922 5.1754386,3.4794199 4.4981688,4.7329612 4.0852731,5.4971808 3.9175685,5.7921474 3.312759,6.8179187 2.5858687,8.0507418 2.4908328,8.2833431 2.5604841,8.659099 c 0.056336,0.303934 0.1565398,0.491822 1.0153051,1.903784 0.3239893,0.532694 0.5492211,0.921847 1.0186346,1.759977 0.6048039,1.079869 0.7944735,1.291322 1.2551636,1.399309 0.1746062,0.04093 0.9395356,0.03408 2.1528282,-0.01928 z m -0.094287,-0.441409 c -0.1642114,-0.01491 -0.3310535,-0.04127 -0.3707596,-0.05859 -0.0397,-0.01732 -0.10046,-0.03148 -0.1350049,-0.03148 -0.058743,0 -0.501615,-0.129464 -0.6413622,-0.187489 C 5.9501979,12.647276 5.514342,12.353853 4.949048,11.764103 4.5189405,11.31539 4.1536307,10.737776 3.9508231,10.185749 3.9285939,10.125246 3.8984091,10.047465 3.8837345,10.012894 3.8601126,9.9572378 3.8341508,9.8600338 3.7284549,9.4314738 3.5812401,8.8345854 3.6121536,7.6899089 3.7817045,7.4596007 3.8707436,7.3386575 3.9780306,7.3044904 4.104399,7.3568341 c 0.127154,0.05267 0.1894903,0.1609891 0.1894903,0.3292719 0,0.1379332 0.00312,0.1425328 0.095847,0.1425328 0.052715,0 0.1402641,-0.022976 0.1945533,-0.051044 0.093619,-0.048414 0.095658,-0.053272 0.039578,-0.094287 -0.032525,-0.023778 -0.088248,-0.043689 -0.1238402,-0.044235 -0.1300153,-0.00201 0.047968,-0.093184 0.1848684,-0.094699 0.070164,-7.833e-4 0.169991,-0.019722 0.2218467,-0.042085 0.084081,-0.036269 0.08749,-0.042664 0.031433,-0.059144 C 4.9036003,7.4330048 4.8152131,7.4153218 4.74175,7.4039008 4.5283938,7.3707187 4.5871433,7.3257925 4.8438925,7.3257925 c 0.1723688,0 0.2357113,-0.01092 0.2357113,-0.040826 0,-0.04506 -0.1698217,-0.1163124 -0.2772279,-0.1163124 -0.079512,0 -0.091334,-0.047366 -0.018775,-0.075211 0.07374,-0.028291 0.3294959,-0.023109 0.4412789,0.00891 0.174419,0.050018 0.2084925,-0.036737 0.043288,-0.1102208 -0.04321,-0.019221 -0.1280699,-0.058331 -0.1885688,-0.086922 -0.1098197,-0.05189 -0.1098531,-0.051946 -0.015711,-0.037929 0.051857,0.00769 0.186211,0.037249 0.2985667,0.065618 0.3207669,0.080983 0.3771387,0.088738 0.3771387,0.051846 0,-0.040246 -0.2172784,-0.1932686 -0.2744356,-0.1932686 -0.021917,0 -0.039845,-0.01414 -0.039845,-0.031433 0,-0.017282 -0.023566,-0.031433 -0.052381,-0.031433 -0.028803,0 -0.045294,-0.00713 -0.036625,-0.015755 0.017159,-0.017159 0.4116746,0.068314 0.513289,0.1112237 0.034575,0.014597 0.2174833,0.081117 0.4064722,0.1478209 0.3229263,0.1139803 0.4509326,0.1967027 0.3043786,0.1967027 -0.069908,0 -0.3087253,0.073206 -0.4594254,0.1408324 C 5.7228657,7.4791322 5.6181716,7.5352265 5.3708611,7.7006491 5.0395055,7.9222897 4.6622198,8.3066052 4.4484458,8.6402516 4.3039052,8.8658433 4.2532172,9.0228667 4.3249365,9.0228667 c 0.01707,0 0.06857,-0.060102 0.1144572,-0.1335686 C 4.918344,8.122441 5.2965901,7.7979202 6.13245,7.4367164 6.395264,7.3231461 6.7584468,7.231463 6.9455213,7.231463 c 0.1094743,0 0.1540641,0.020324 0.2585343,0.1178556 0.1402719,0.1309502 0.3583748,0.3848157 0.3583748,0.4171388 0,0.011454 -0.063389,0.053428 -0.140858,0.093273 -0.1996076,0.1026664 -0.2335485,0.1664947 -0.2885219,0.542626 -0.00947,0.064927 -0.027321,0.1242726 -0.039622,0.1318762 -0.012301,0.00758 -0.134557,0.043611 -0.2716768,0.080025 -0.6385688,0.1695698 -0.9730163,0.484175 -1.171777,1.1022562 -0.051289,0.1595 -0.045528,0.7770652 0.00914,0.9783652 0.083568,0.307788 0.1060202,0.366287 0.2230368,0.581105 0.1166399,0.214134 0.4960572,0.706865 0.6639579,0.862249 0.1935527,0.179125 0.6108966,0.352004 1.0949044,0.453548 0.3839277,0.08055 1.2837027,0.07462 1.698631,-0.01119 0.6646602,-0.137452 1.3322172,-0.425725 1.7166892,-0.741324 0.301954,-0.247862 0.343138,-0.270732 0.487539,-0.270732 0.176374,0 0.26137,0.08761 0.26137,0.269408 0,0.136449 -0.01403,0.154426 -0.320516,0.410597 -0.418288,0.349622 -1.183718,0.731681 -1.7537412,0.875367 -0.112356,0.02832 -0.253782,0.06466 -0.314282,0.08074 -0.144359,0.03838 -0.7818998,0.09335 -1.021415,0.08806 -0.1037137,-0.0023 -0.3229241,-0.01637 -0.4871366,-0.03127 z M 5.3624485,11.179099 c 0,-0.02408 -0.021215,-0.05192 -0.047143,-0.06187 -0.047255,-0.01813 -0.066565,0.04432 -0.026185,0.08469 0.035232,0.03523 0.073328,0.02338 0.073328,-0.02283 z m -0.100148,-0.262902 c 0.010697,-0.111079 -0.032202,-0.13063 -0.1277033,-0.05813 -0.06486,0.04924 -0.06925,0.08658 -0.016368,0.139451 0.065829,0.06583 0.1335419,0.02762 0.1440715,-0.08132 z M 5.1503113,10.770564 c 0.076047,-0.05773 0.070064,-0.167231 -0.010585,-0.192814 l -0.06554,-0.0208 0.06554,-0.06977 C 5.2531692,10.366419 5.2253444,10.342886 4.9691378,10.342886 H 4.7330043 l 0.043589,0.104338 c 0.078197,0.187152 0.2080101,0.367116 0.2640698,0.36609 0.030029,-5.53e-4 0.079356,-0.01979 0.109608,-0.04275 z m 0.024324,-0.538134 c 0.01687,-0.01047 0.030675,-0.05348 0.030675,-0.09568 0,-0.06763 -0.01395,-0.07676 -0.1178556,-0.07706 -0.064815,-1.87e-4 -0.1872807,-0.0214 -0.2721347,-0.04714 -0.08485,-0.02574 -0.1796325,-0.0468 -0.2106218,-0.0468 -0.09314,0 0.00501,0.1924622 0.1331085,0.2611302 0.1020311,0.05468 0.3521885,0.05785 0.4368241,0.0056 z m 0.061774,-0.3134182 c 0.061595,-0.07422 0.014106,-0.14167 -0.1008277,-0.143207 -0.1508016,-0.002 -0.3121683,-0.06797 -0.49543,-0.2025 -0.1903103,-0.139701 -0.2441928,-0.121416 -0.1996432,0.06776 0.022575,0.09585 0.060136,0.141254 0.1840795,0.222555 0.1362094,0.08934 0.1818666,0.102143 0.3643728,0.102143 0.1463334,0 0.2202377,-0.01396 0.2474442,-0.04674 z m 0.076337,-0.22376 c 0.091379,-0.03506 0.05111,-0.103703 -0.083858,-0.142922 C 5.0605892,9.5034398 4.8769343,9.3928808 4.7288749,9.251351 4.6656199,9.190881 4.5984373,9.1509355 4.579591,9.162579 4.517572,9.200909 4.540537,9.3846618 4.616038,9.4543568 c 0.1868885,0.172504 0.5488166,0.297643 0.6967066,0.240893 z M 5.450457,9.4566168 C 5.530493,9.3765808 5.4897006,9.3219518 5.3060924,9.2632856 5.1835603,9.2241311 5.0679321,9.1549924 4.9525256,9.0518604 4.858205,8.9675791 4.7721621,8.8982944 4.7613138,8.8979045 c -0.044447,-0.00156 -0.09422,0.094488 -0.077016,0.1486777 0.029037,0.091502 0.2389091,0.2784236 0.4110272,0.3660916 0.1713994,0.0873 0.2963204,0.102756 0.3551379,0.04395 z M 5.6135508,9.227592 C 5.6679927,9.1619854 5.6342646,9.0976925 5.5319103,9.0720048 5.4196303,9.0438256 5.2848795,8.9470492 5.1235194,8.7787084 4.9930093,8.6425514 4.9167005,8.6278434 4.877039,8.7311971 c -0.0355,0.092527 0.2287283,0.3853016 0.4068488,0.450799 0.051857,0.019065 0.1154979,0.046809 0.1414263,0.061651 0.072682,0.041606 0.1455367,0.035388 0.1882367,-0.016055 z M 5.8024516,8.9903743 c 0,-0.035411 -0.021249,-0.061751 -0.049818,-0.061751 -0.027399,0 -0.1603907,-0.1129775 -0.295536,-0.251061 C 5.2148449,8.4300442 5.2104147,8.427282 5.1430688,8.4818153 l -0.068314,0.055311 0.1045605,0.1564619 C 5.3154901,8.8973497 5.6532904,9.1319455 5.7420877,9.084422 5.7752807,9.066661 5.8024467,9.024331 5.8024467,8.990369 Z M 5.9642641,8.9086781 C 6.0183605,8.8597294 6.0134913,8.8490661 5.8610964,8.6823198 5.7731381,8.5860716 5.6716385,8.4465517 5.635547,8.3722663 5.5891723,8.2768204 5.5505638,8.2372001 5.5039049,8.2372001 c -0.1399232,0 -0.180778,0.1271596 -0.088705,0.2761025 0.071657,0.115918 0.4085413,0.4467454 0.454925,0.4467454 0.020558,0 0.062921,-0.023121 0.094142,-0.051367 z M 6.1481619,8.7718926 c 0.038497,-0.024536 0.039968,-0.040313 0.00802,-0.085942 C 6.0503092,8.5346214 5.925328,8.3073963 5.9093531,8.2372046 5.8747782,8.0852766 5.8665773,8.0757487 5.7790436,8.0858159 c -0.071345,0.00825 -0.088281,0.027232 -0.096148,0.10797 -0.011142,0.1139001 0.1089952,0.3524448 0.2552205,0.5069813 0.1025326,0.10836 0.1345905,0.1192161 0.210028,0.071122 z m 0.1915148,-0.09627 c 0.033918,-0.018151 0.053495,-0.04623 0.043511,-0.062386 -0.010585,-0.017059 0.019488,-0.02185 0.07159,-0.011432 0.1345771,0.026909 0.1814599,-0.044781 0.1295396,-0.1980866 -0.02224,-0.065662 -0.05169,-0.1328132 -0.06544,-0.1492349 -0.013761,-0.016424 -0.025015,-0.103981 -0.025015,-0.1945712 0,-0.1856204 -0.034608,-0.2255927 -0.1444236,-0.1668198 -0.061417,0.03287 -0.075568,0.065194 -0.075568,0.1726106 0,0.072693 0.021215,0.1922914 0.047144,0.2657801 0.025928,0.073484 0.04682,0.1565867 0.046431,0.1846634 C 6.3663316,8.5957465 6.279131,8.3990906 6.2155958,8.1736739 6.1557833,7.9614943 6.0971564,7.9107305 6.0025684,7.9892322 c -0.090755,0.075323 0.02253,0.4704208 0.1859926,0.6486739 0.075078,0.081874 0.070665,0.080771 0.1511191,0.037706 z M 6.8468541,8.4414875 C 6.8421743,8.3896307 6.828068,8.2340624 6.8154325,8.0957783 L 6.7924456,7.8443529 h -0.094287 -0.094287 l -0.00947,0.2175792 c -0.012959,0.2995205 0.06857,0.501312 0.1952352,0.4832133 0.052191,-0.00747 0.06388,-0.028658 0.057161,-0.1036579 z m 0.2050718,-0.046642 c 0.021494,-0.068871 0.039255,-0.1572619 0.039455,-0.1964264 2.139e-4,-0.039166 0.035533,-0.1327095 0.07851,-0.2078785 0.088348,-0.1545398 0.079958,-0.193535 -0.041461,-0.1928441 -0.1672455,9.526e-4 -0.2259994,0.1029559 -0.2259994,0.3923703 0,0.1954068 0.035778,0.3299961 0.087735,0.3299961 0.012468,0 0.040258,-0.056347 0.061751,-0.1252174 z m 0.4173316,3.7370755 c 6.15e-4,-0.02461 0.021327,-0.08013 0.046029,-0.123333 0.058631,-0.102555 0.058052,-0.203743 -0.00245,-0.440019 -0.027288,-0.106521 -0.051411,-0.2703 -0.053606,-0.363961 -0.00379,-0.16016 -0.00869,-0.170352 -0.083958,-0.171293 -0.043979,-5.51e-4 -0.1047276,-0.0198 -0.1350026,-0.04278 -0.090978,-0.06906 -0.1943729,-0.02311 -0.3878265,0.172387 -0.1010506,0.102121 -0.1932697,0.185671 -0.2049258,0.185671 -0.043065,0 -0.052492,-0.08756 -0.02516,-0.233813 0.015443,-0.08266 0.020257,-0.162951 0.010697,-0.178421 -0.00958,-0.01547 -0.1066887,0.0356 -0.2158331,0.113482 -0.2890957,0.206295 -0.4331527,0.193847 -0.5434449,-0.04695 -0.071479,-0.156067 -0.1291228,-0.429948 -0.1504783,-0.71499 -0.029104,-0.3884072 0.014987,-0.3823862 0.232452,0.03176 0.1937623,0.368989 0.2412145,0.431812 0.3261632,0.431812 0.033617,0 0.1832237,-0.05801 0.3324486,-0.128904 0.3351306,-0.15922 0.5815965,-0.182528 0.7049286,-0.06667 0.056637,0.05322 0.097886,0.06591 0.1683085,0.05182 0.079111,-0.01582 0.1135869,0.001 0.2268719,0.110989 0.073473,0.0713 0.1685782,0.142948 0.211345,0.159207 0.1357414,0.05161 0.1576006,0.167432 0.1346406,0.713436 -0.00869,0.207182 -0.023343,0.270924 -0.073729,0.321265 -0.062843,0.06279 -0.062854,0.06278 -0.066353,-0.10133 -0.00479,-0.223651 -0.1015297,-0.588405 -0.1560841,-0.588405 -0.033661,0 -0.042196,0.06658 -0.0394,0.307249 0.0039,0.332699 -0.02643,0.431406 -0.1751722,0.57036 -0.055133,0.05151 -0.081195,0.06168 -0.080448,0.03143 z m 0.1880851,-1.049704 c -0.021861,-0.02634 -0.054353,-0.0479 -0.072203,-0.0479 -0.01785,0 -0.0068,0.02837 0.024603,0.06304 0.064994,0.07181 0.1083266,0.05803 0.0476,-0.01514 z m -0.6286565,0.909701 c 0.051534,-0.09175 0.06232,-0.170193 0.06232,-0.453138 0,-0.380887 0.012903,-0.441609 0.09383,-0.441609 0.1052959,0 0.1763433,0.293651 0.1260709,0.521095 -0.038909,0.176047 -0.2288207,0.484606 -0.2982603,0.484606 -0.037728,0 -0.034764,-0.0205 0.016034,-0.110956 z M 6.5340273,11.804305 c -0.086042,-0.217989 -0.1061093,-0.358916 -0.07013,-0.492536 0.026073,-0.09685 0.042698,-0.119436 0.06359,-0.08643 0.015555,0.02458 0.028502,0.0765 0.028759,0.115398 5.393e-4,0.07913 0.08476,0.0951 0.1938079,0.03674 0.1088726,-0.05826 0.1014852,-0.0075 -0.028903,0.198988 -0.069261,0.109675 -0.1313313,0.22702 -0.1379232,0.260766 -0.00992,0.05088 -0.01834,0.04526 -0.049205,-0.03293 z m 2.9455175,-0.411572 c 0,-0.01025 0.02925,-0.05979 0.06499,-0.109998 0.07604,-0.106789 0.05582,-0.116715 -0.05698,-0.02798 -0.102288,0.08046 -0.120081,0.06225 -0.05747,-0.05882 0.06494,-0.125573 0.06246,-0.153259 -0.01591,-0.178133 C 9.2879688,10.977746 9.1815779,10.825977 9.1186366,10.596213 9.0460437,10.331216 8.9585144,10.215562 8.6374612,9.9604328 8.34799,9.7304008 8.2302257,9.6696498 7.9106489,9.5854988 7.7059002,9.5315808 7.6394969,9.5256078 7.5585372,9.5538318 7.4210899,9.6017448 7.4179243,9.6007198 7.3736934,9.4939418 7.3429069,9.4196108 7.3425169,9.3672708 7.3719106,9.2503738 7.4550553,8.9192544 7.4823988,8.8602431 7.6032807,8.7510329 7.7101477,8.6544838 7.7428306,8.6413134 7.8374431,8.6566677 7.979187,8.6796657 8.0297959,8.7278343 8.2448056,9.0443649 8.4021031,9.2759323 8.4781335,9.3555638 8.4718759,9.2821908 8.4707705,9.2692323 8.4175231,9.1396571 8.3535534,8.9942574 8.2541741,8.7683894 8.2152581,8.7147476 8.0862746,8.6258611 7.8983108,8.4963283 7.7620814,8.4576006 7.4936114,8.4573766 7.3779542,8.457283 7.2760635,8.4454542 7.2671874,8.4310916 7.2195424,8.3539972 7.6092453,7.922927 7.7265861,7.922927 c 0.026497,0 0.064949,-0.020201 0.085429,-0.044882 C 7.9084861,7.7618054 7.4183243,7.1683935 7.1710852,7.1021061 6.7261193,6.9828065 5.8838626,6.6760567 5.6924926,6.5636019 5.2770653,6.3194848 4.9463727,5.9260169 4.88647,5.6045715 4.8712271,5.5227527 4.8503685,5.4292956 4.8401175,5.3968812 c -0.035455,-0.1121674 0.045071,-0.020491 0.1555705,0.177101 0.1462431,0.261507 0.4524112,0.5713076 0.6585761,0.6663881 0.090164,0.041583 0.2558701,0.098655 0.3682258,0.1268219 0.1123557,0.028168 0.253782,0.064069 0.3142809,0.07978 0.060503,0.015711 0.2160682,0.052102 0.3457103,0.080872 0.2770128,0.061462 0.4777424,0.1124861 0.8642741,0.2196728 0.1555694,0.043144 0.3337735,0.091502 0.3960083,0.1074687 0.3593297,0.092181 0.6611356,0.2966357 0.8455582,0.5728106 0.1015298,0.1520462 0.1270091,0.2170778 0.1194512,0.304918 -0.00903,0.1053293 -0.00379,0.1122119 0.092538,0.1215014 0.1345292,0.01297 0.1314104,-0.023611 -0.024803,-0.2909309 C 8.6586396,7.0210428 8.5236547,6.8873538 8.0279239,6.6248005 7.6743582,6.437541 7.4936337,6.285204 7.3974724,6.0933783 7.2782875,5.8556258 7.2888672,5.829967 7.444616,5.9790939 c 0.1932096,0.1850043 0.4163789,0.3203089 0.9664156,0.5859253 0.5677765,0.2741837 0.8675322,0.4580114 1.0789522,0.6616737 0.149579,0.1440915 0.272457,0.3358091 0.272457,0.4250945 0,0.025104 0.09369,0.1124905 0.208195,0.1942012 0.2995812,0.2137763 0.3889412,0.3160381 0.3889412,0.4451007 0,0.1178323 0.04581,0.223429 0.122989,0.2835212 0.123925,0.096482 0.457627,0.2352321 0.622762,0.258932 0.09976,0.014318 0.241863,0.058542 0.315789,0.098276 0.129176,0.069428 0.137932,0.070164 0.224847,0.01882 0.04974,-0.029383 0.105931,-0.053417 0.124871,-0.053417 0.05566,0 0.03936,0.1329759 -0.0303,0.2472292 -0.05534,0.090788 -0.06017,0.1261433 -0.03394,0.2491251 0.029,0.136006 0.02585,0.147733 -0.06192,0.229721 -0.05086,0.04752 -0.156173,0.172906 -0.234008,0.278637 -0.201696,0.2739852 -0.334386,0.3166952 -0.18793,0.06049 0.04341,-0.07594 0.0791,-0.169893 0.0793,-0.208786 3.39e-4,-0.0628 -0.01528,-0.07071 -0.139538,-0.07071 -0.130371,0 -0.146527,0.0096 -0.236805,0.140821 -0.101318,0.147256 -0.355946,0.3620282 -0.429215,0.3620282 -0.05568,0 -0.05565,-2.14e-4 0.03594,-0.2072972 0.04321,-0.09772 0.07857,-0.20497 0.07857,-0.238348 0,-0.0797 -0.350809,-0.422499 -0.493312,-0.4820404 C 10.049337,9.2295364 9.9012508,9.2111064 9.7350268,9.2104604 9.4849528,9.2094989 9.4540938,9.2022151 9.3381558,9.1167193 9.1497429,8.9777822 9.0837864,8.9500644 8.994764,8.9724071 8.937303,8.9868251 8.91387,9.0135671 8.91387,9.0647331 c 0,0.1049171 0.1818042,0.7981217 0.2493919,0.9509159 0.089329,0.201946 0.2794139,0.484415 0.3259819,0.484415 0.02303,0 0.0997,-0.04951 0.170384,-0.109998 0.07068,-0.0605 0.138883,-0.109998 0.15156,-0.109998 0.01268,0 0.01419,0.08485 0.0033,0.188568 l -0.01971,0.188569 h 0.08893 c 0.04891,0 0.114227,-0.02796 0.1451442,-0.06212 0.08702,-0.09616 0.119496,-0.04485 0.09511,0.150298 -0.03119,0.249602 -0.0628,0.312886 -0.1810022,0.362272 -0.05747,0.02401 -0.125157,0.06382 -0.150399,0.08846 -0.07089,0.06918 -0.269384,0.215366 -0.292431,0.215366 -0.01133,0 -0.0206,-0.0085 -0.0206,-0.01872 z M 10.77105,9.0203831 c -0.02856,-0.071445 -0.03052,-0.069495 -0.03239,0.032391 -0.0013,0.07442 0.0081,0.098265 0.0304,0.076036 0.02145,-0.021449 0.02212,-0.058074 0.002,-0.1084269 z M 9.6523998,8.6303671 C 9.5772778,8.6040265 9.4664948,8.5213608 9.3771028,8.4249444 9.2948268,8.3362061 9.2142578,8.2682685 9.1980475,8.2739757 c -0.031544,0.011142 0.2489113,0.3181718 0.3380833,0.370169 0.02937,0.017137 0.09584,0.030954 0.147697,0.03072 0.09008,-4.045e-4 0.08867,-0.00234 -0.03143,-0.044503 z M 8.5192479,7.6907836 C 8.4323258,7.6322525 8.3204894,7.5228261 8.270724,7.4476248 8.2177418,7.3675665 8.1745537,7.3279496 8.1665312,7.352034 c -0.021081,0.063244 0.1856483,0.3448133 0.2916016,0.3971626 0.1860517,0.091925 0.226687,0.053083 0.061116,-0.05842 z m 1.1802939,-0.045383 c 0,-0.014351 -0.08839,-0.077908 -0.196425,-0.1412346 C 9.3950798,7.4408435 9.2289058,7.3187126 9.1338359,7.2327677 8.8822769,7.005352 8.8413585,7.020577 9.026345,7.2727579 c 0.088192,0.1202234 0.1634482,0.1766385 0.3668398,0.274996 0.265714,0.1284967 0.306352,0.1414486 0.306352,0.097641 z M 10.851498,10.905835 C 10.572574,10.861295 10.306817,10.639004 9.9779438,10.175134 9.6692728,9.7397598 9.5272028,9.5723458 9.3993578,9.4933328 c -0.05961,-0.03684 -0.108383,-0.08171 -0.108383,-0.09969 0,-0.02173 0.0132,-0.02232 0.03929,-0.0018 0.02161,0.01702 0.077,0.03993 0.123102,0.05093 0.0461,0.01103 0.166312,0.09043 0.267139,0.176539 0.101674,0.08683 0.188759,0.140527 0.19553,0.120575 0.01345,-0.03962 -0.08727,-0.247748 -0.137619,-0.284386 -0.02121,-0.01544 -0.02102,-0.02325 5.7e-4,-0.02357 0.06547,-9.76e-4 0.209784,0.209988 0.4081572,0.5966532 0.234964,0.457984 0.467534,0.666079 0.789359,0.706289 0.169461,0.02117 0.179843,0.01815 0.284819,-0.08288 0.05992,-0.05766 0.159026,-0.172718 0.220234,-0.255669 0.135172,-0.183192 0.385622,-0.335607 0.552153,-0.336021 0.152162,-3.83e-4 0.389133,0.146943 0.503668,0.313123 0.09122,0.13235 0.05892,0.166306 -0.04528,0.04762 -0.118555,-0.135026 -0.271281,-0.20429 -0.447132,-0.202781 -0.184915,0.0016 -0.24438,0.04548 -0.459527,0.339197 -0.240666,0.328554 -0.396033,0.402294 -0.733933,0.348344 z M 12.692985,9.5037798 C 12.584769,9.3890448 12.583599,9.3848068 12.603344,9.1816417 12.671357,8.4818286 12.657385,8.1406856 12.538283,7.5929298 12.451205,7.1924489 12.233752,6.661039 11.984704,6.2400739 11.758219,5.8572459 11.184726,5.2711568 10.760243,4.9887143 10.46142,4.7898845 9.9931008,4.5630504 9.7152638,4.482572 9.6115508,4.452532 9.4913378,4.416553 9.4481248,4.402636 9.4049148,4.388708 9.2776268,4.358345 9.1652721,4.335146 8.9036246,4.281128 7.8241101,4.277796 7.6252926,4.330356 7.5475076,4.350936 7.384867,4.391261 7.2638681,4.419986 7.1428703,4.448699 7.015586,4.483252 6.9810155,4.496756 6.352768,4.7422138 6.0781585,4.8942009 5.7120308,5.1990932 5.4726917,5.3984033 5.2619272,5.4186658 5.1633814,5.2518414 5.0547317,5.0679101 5.0934738,4.9906007 5.4253219,4.7291115 5.9384638,4.324772 6.5028452,4.0273429 7.0752993,3.8595737 7.6782313,3.6828738 7.8146391,3.664237 8.4895667,3.6663507 c 0.5323046,0.00167 0.6790982,0.012959 0.9585581,0.073741 0.8259542,0.1796269 1.5178082,0.5194284 2.1685422,1.0650717 0.590379,0.4950343 0.984149,1.0429573 1.359728,1.8920398 0.185495,0.4193506 0.337392,1.2189731 0.337392,1.7761075 0,0.3837973 -0.07342,0.9058951 -0.142128,1.0107651 -0.112136,0.17114 -0.327472,0.179993 -0.478667,0.01968 z"
     id="path5"
     class="ColorScheme-Text" />
</svg>
