<?xml version="1.0" encoding="UTF-8" standalone="no"?>
<svg
   id="svg3297"
   height="64"
   width="64"
   version="1.0"
   sodipodi:docname="fleet.svg"
   inkscape:version="1.4.3 (0d15f75042, 2025-12-25)"
   xmlns:inkscape="http://www.inkscape.org/namespaces/inkscape"
   xmlns:sodipodi="http://sodipodi.sourceforge.net/DTD/sodipodi-0.dtd"
   xmlns="http://www.w3.org/2000/svg"
   xmlns:svg="http://www.w3.org/2000/svg"
   xmlns:rdf="http://www.w3.org/1999/02/22-rdf-syntax-ns#"
   xmlns:cc="http://creativecommons.org/ns#"
   xmlns:dc="http://purl.org/dc/elements/1.1/">
  <sodipodi:namedview
     id="namedview1"
     pagecolor="#9c4444"
     bordercolor="#000000"
     borderopacity="0.25"
     inkscape:showpageshadow="2"
     inkscape:pageopacity="0.0"
     inkscape:pagecheckerboard="0"
     inkscape:deskcolor="#d1d1d1"
     inkscape:zoom="3.2734375"
     inkscape:cx="40.782816"
     inkscape:cy="33.298329"
     inkscape:window-width="2560"
     inkscape:window-height="1388"
     inkscape:window-x="0"
     inkscape:window-y="0"
     inkscape:window-maximized="1"
     inkscape:current-layer="svg3297" />
  <metadata
     id="metadata58">
    <rdf:RDF>
      <cc:Work
         rdf:about="">
        <dc:format>image/svg+xml</dc:format>
        <dc:type
           rdf:resource="http://purl.org/dc/dcmitype/StillImage" />
      </cc:Work>
    </rdf:RDF>
  </metadata>
  <defs
     id="defs3299">
    <style
       id="current-color-scheme"
       type="text/css">.ColorScheme-Text {color:#d8dee9} .ColorScheme-Highlight {color:#3b4252}</style>
  </defs>
  <path
     id="path5"
     style="fill:currentColor;fill-opacity:1;stroke-width:0.828125"
     d="m 42.78827,14.137085 c 2.9759,3.686044 5.5349,7.468662 6.93554,9.151428 0.34725,0.417155 0.77477,0.859774 1.24543,1.29071 0.94018,0.860844 2.05761,1.673621 3.04077,2.178681 0.24557,0.126153 0.482,0.231942 0.70358,0.317016 0.22242,0.08539 0.42671,0.147754 0.60492,0.186006 0.0842,0.01806 0.1685,0.03174 0.25071,0.04044 0.11274,0.01191 0.2094,0.01135 0.28466,0.0032 0.0761,-0.0082 0.12909,-0.02369 0.16498,-0.03881 0.0173,-0.0073 0.0265,-0.01125 0.0324,-0.01456 0.006,-0.0034 0.017,-0.01125 0.0258,-0.01779 0.006,-0.0043 0.0104,-0.0077 0.021,-0.01779 0.0176,-0.01665 0.0328,-0.03331 0.0469,-0.055 0.007,-0.01073 0.0157,-0.02511 0.0258,-0.04529 0.0101,-0.02 0.0193,-0.04157 0.0275,-0.06308 0.008,-0.02079 0.0164,-0.04706 0.0258,-0.08087 0.0171,-0.06144 0.0316,-0.136889 0.0421,-0.22644 0.021,-0.181596 0.0236,-0.420373 -0.008,-0.716523 -0.0159,-0.148713 -0.0397,-0.313349 -0.0728,-0.490081 -0.0662,-0.353598 -0.1693,-0.764174 -0.31378,-1.230865 -0.14408,-0.465386 -0.33054,-0.987314 -0.56287,-1.56891 A 0.828125,0.828125 0 0 1 55.63705,21.73575 C 54.99463,20.790151 54.21927,19.90374 53.33225,19.091249 52.44522,18.278759 51.44634,17.540017 50.35132,16.888307 48.70877,15.910744 46.85167,15.129528 44.84397,14.591555 44.17472,14.41223 43.48888,14.260618 42.7882,14.137056 Z M 32,5.5 c -6.40301,0 -12.27611,2.27043 -16.85687,6.050812 -0.654396,0.540054 -1.281626,1.111798 -1.881073,1.711243 -0.599448,0.599444 -1.171191,1.226678 -1.711246,1.881072 -0.540055,0.654395 -1.049012,1.336294 -1.525238,2.041199 -0.95245,1.409809 -1.771833,2.916105 -2.442321,4.501313 -0.335245,0.792604 -0.633112,1.60444 -0.891205,2.434234 -0.258093,0.829794 -0.47694,1.676825 -0.653443,2.539368 C 5.685599,28.384326 5.5,30.170558 5.5,32 c 0,0.914721 0.04701,1.818346 0.137481,2.709198 0.09047,0.890852 0.224621,1.769019 0.401123,2.631561 0.176503,0.862543 0.39535,1.709574 0.653443,2.539368 0.258093,0.829794 0.55596,1.64163 0.891205,2.434234 0.335244,0.792605 0.706455,1.566806 1.11441,2.31778 0.407955,0.750974 0.851686,1.478628 1.327911,2.183533 0.476226,0.704905 0.985183,1.386804 1.525238,2.041199 0.540055,0.654394 1.111798,1.281628 1.711246,1.881072 0.599447,0.599445 1.226677,1.171189 1.881073,1.711243 0.65439,0.540055 1.33629,1.049014 2.0412,1.525238 0.7049,0.476225 1.43256,0.919958 2.18353,1.327912 0.75097,0.407954 1.52518,0.779167 2.31778,1.11441 0.7926,0.335243 1.60444,0.633112 2.43424,0.891205 0.82979,0.258093 1.67682,0.47694 2.53936,0.653442 0.86254,0.176502 1.74072,0.310652 2.63157,0.401123 C 30.18165,58.452989 31.08529,58.5 32,58.5 c 0.91473,0 1.81834,-0.04701 2.70919,-0.137482 C 48.07203,57.005452 58.5,45.720815 58.5,32 c 0,-0.67281 -0.049,-1.444848 -0.14881,-2.266022 -0.0997,-0.821173 -0.25036,-1.690899 -0.45126,-2.557159 -0.20089,-0.866261 -0.45186,-1.729682 -0.75534,-2.53775 -0.15174,-0.404034 -0.31729,-0.794429 -0.49494,-1.164551 -0.17764,-0.370122 -0.36883,-0.719944 -0.57256,-1.043244 0.2389,0.598057 0.43339,1.140647 0.58551,1.631989 0.15212,0.491342 0.26308,0.931073 0.33642,1.323059 0.0367,0.195993 0.064,0.380627 0.0825,0.553162 0.0369,0.345068 0.0379,0.644157 0.008,0.900909 -0.0149,0.128377 -0.0378,0.246541 -0.0679,0.354218 -0.0151,0.05384 -0.0315,0.10482 -0.0502,0.153655 -0.0186,0.04883 -0.0393,0.09515 -0.0615,0.1391 -0.0221,0.04395 -0.0456,0.08536 -0.0711,0.124542 -0.051,0.07836 -0.10938,0.147078 -0.17306,0.207031 -0.0319,0.02998 -0.0639,0.05694 -0.0987,0.08249 -0.0349,0.02555 -0.0723,0.04993 -0.10998,0.07117 -0.0377,0.02123 -0.076,0.03957 -0.11645,0.05661 -0.12126,0.05112 -0.2543,0.08325 -0.39789,0.09866 -0.1436,0.01541 -0.29842,0.01395 -0.46097,-0.0032 -0.10838,-0.01146 -0.22088,-0.02858 -0.33643,-0.05337 -0.23109,-0.0496 -0.47566,-0.125766 -0.72946,-0.223206 C 54.16209,27.750653 53.8999,27.631796 53.63142,27.493876 52.55751,26.942195 51.3979,26.095654 50.4095,25.190654 49.91529,24.738153 49.46312,24.27159 49.08644,23.819072 47.57983,22.008997 45.02778,18.20658 41.99239,14.468699 40.47467,12.599747 38.83711,10.747202 37.14816,9.166746 36.30368,8.376519 35.44546,7.653539 34.58452,7.031736 33.72373,6.409906 32.8598,5.889173 32,5.5 Z m 5.05124,21.799744 c 6.90841,0.43239 12.39434,3.725954 13.45703,8.703399 1.41692,6.636594 -5.5659,13.752804 -15.59689,15.894501 -10.03108,2.141697 -19.312,-1.502322 -20.729003,-8.138916 -1.416926,-6.636594 5.565893,-13.752804 15.596893,-15.894501 2.50777,-0.535424 4.96917,-0.708613 7.27197,-0.564483 z"
     class="ColorScheme-Text" />
</svg>
