<?xml version='1.0' encoding='UTF-8'?>
<svg xmlns:inkscape="http://www.inkscape.org/namespaces/inkscape" xmlns:sodipodi="http://sodipodi.sourceforge.net/DTD/sodipodi-0.dtd" xmlns="http://www.w3.org/2000/svg" xmlns:svg="http://www.w3.org/2000/svg" xmlns:rdf="http://www.w3.org/1999/02/22-rdf-syntax-ns#" xmlns:cc="http://creativecommons.org/ns#" xmlns:dc="http://purl.org/dc/elements/1.1/" width="64" height="64" version="1.1" viewBox="0 0 16.933 16.933" id="svg7" sodipodi:docname="fractal.svg" inkscape:version="1.4 (e7c3feb100, 2024-10-09)">
  <sodipodi:namedview id="namedview7" pagecolor="#9c4444" bordercolor="#000000" borderopacity="0.25" inkscape:showpageshadow="2" inkscape:pageopacity="0.0" inkscape:pagecheckerboard="0" inkscape:deskcolor="#d1d1d1" inkscape:zoom="6.15625" inkscape:cx="15.837563" inkscape:cy="29.725888" inkscape:window-width="1183" inkscape:window-height="941" inkscape:window-x="35" inkscape:window-y="32" inkscape:window-maximized="0" inkscape:current-layer="svg7" showgrid="false"/>
  <defs id="defs2">
    <style id="current-color-scheme" type="text/css">.ColorScheme-Text {color:#d8dee9} .ColorScheme-Highlight {color:#3b4252}</style></defs>
  <metadata id="metadata2">
    <rdf:RDF>
      <cc:Work rdf:about="">
        <dc:format>image/svg+xml</dc:format>
        <dc:type rdf:resource="http://purl.org/dc/dcmitype/StillImage"/>
      </cc:Work>
    </rdf:RDF>
  </metadata>
  <path style="fill:currentColor;fill-opacity:1;stroke:none;stroke-width:0.0598758;stroke-opacity:1" d="M 5.6846998,13.728164 4.8309988,12.750192 H 3.634633 c -0.7809684,0 -1.2491677,-0.01577 -1.3484397,-0.04556 C 2.0725036,12.6406 1.8643593,12.456131 1.7490384,12.228557 l -0.09842,-0.194226 V 7.6009103 c 0,-4.8244131 -0.012445,-4.5493805 0.2196948,-4.853736 0.05361,-0.070287 0.1762915,-0.1659479 0.2726239,-0.2125828 l 0.1751515,-0.084791 6.1494656,5.806e-4 c 3.7407888,3.591e-4 6.1881308,0.015295 6.2481788,0.038112 0.15295,0.05815 0.382603,0.2777707 0.479167,0.4582301 l 0.08748,0.1634475 v 4.4707273 4.470733 l -0.08632,0.159676 c -0.04746,0.08784 -0.146338,0.217284 -0.219693,0.287703 -0.269724,0.258913 -0.158821,0.25118 -3.601962,0.25118 H 8.2548438 l -0.8537015,0.977974 c -0.4695356,0.537882 -0.8557355,0.977974 -0.8582211,0.977974 -0.00251,0 -0.3886853,-0.440092 -0.8582214,-0.977974 z m 8.9008812,-1.217309 c 0.0778,-0.02162 0.198153,-0.09787 0.267419,-0.169423 0.264992,-0.273794 0.249759,0.01501 0.249512,-4.7293027 -1.46e-4,-2.8363613 -0.01444,-4.35295 -0.04146,-4.4508165 C 15.038387,3.079666 14.973464,2.9577717 14.916806,2.8904379 14.7039,2.637413 14.922506,2.6511286 11.102366,2.6511286 H 7.6169823 L 7.3495448,2.807407 C 6.7671987,3.1477105 6.210646,3.6644765 5.8591378,4.1912678 5.6079991,4.5676388 5.4800531,4.843105 5.3348509,5.3200502 5.242091,5.6247363 5.2296365,5.7345804 5.2278562,6.2636369 5.2253862,6.9858032 5.2726221,7.1923032 5.583654,7.8204101 6.0322189,8.7262545 6.8067877,9.3705114 7.6980838,9.579113 8.1097997,9.6754734 8.7613337,9.6428523 9.1473514,9.5065501 10.362604,9.0774532 10.962381,7.866935 10.477286,6.8223646 10.344724,6.5369136 10.067283,6.2468622 9.8045131,6.1190133 9.5536428,5.9969535 9.1532311,5.9718509 8.8839255,6.0612999 8.2928818,6.257613 8.050134,6.9444176 8.4355627,7.3298466 8.5669629,7.4612468 8.6110391,7.4811132 8.771154,7.4811132 c 0.1031206,0 0.1843228,-0.01862 0.1843228,-0.042273 0,-0.02325 -0.018316,-0.030955 -0.040698,-0.017119 C 8.8923949,7.4355531 8.8096575,7.4256161 8.7309196,7.399626 8.6188785,7.3626482 8.5709282,7.3143274 8.5103296,7.1773359 8.3131847,6.7316579 8.6934106,6.2313533 9.1787124,6.297871 9.4976306,6.3415841 9.7425706,6.5079553 9.8786234,6.7732749 10.133068,7.2694728 10.005276,7.9177576 9.5748002,8.3145564 9.1010491,8.7512456 8.4582994,8.8184854 7.8107449,8.4991006 6.7621379,7.9819084 6.39371,6.687613 6.9585175,5.5052096 7.2472491,4.9007628 7.6624377,4.491688 8.2968426,4.1865932 8.7828968,3.9528425 9.1934993,3.8728033 9.7696454,3.8994979 10.719337,3.9435 11.456228,4.2767549 12.172748,4.9862852 c 0.832767,0.824641 1.212202,1.7488506 1.212719,2.9538772 2.39e-4,0.5878465 -0.03587,0.859442 -0.181412,1.3638857 -0.220881,0.7655719 -0.65519,1.5370379 -1.19127,2.1160529 -0.214745,0.231946 -0.667169,0.609239 -1.280985,1.068264 -0.07125,0.05328 0.124174,0.05981 1.816234,0.06074 1.125431,6.53e-4 1.953573,-0.01501 2.037551,-0.03827 z" id="path8" class="ColorScheme-Text"/>
  </svg>
