<?xml version='1.0' encoding='UTF-8'?>
<svg xmlns:inkscape="http://www.inkscape.org/namespaces/inkscape" xmlns:sodipodi="http://sodipodi.sourceforge.net/DTD/sodipodi-0.dtd" xmlns="http://www.w3.org/2000/svg" xmlns:svg="http://www.w3.org/2000/svg" xmlns:rdf="http://www.w3.org/1999/02/22-rdf-syntax-ns#" xmlns:cc="http://creativecommons.org/ns#" xmlns:dc="http://purl.org/dc/elements/1.1/" width="64" height="64" version="1.1" viewBox="0 0 16.933 16.933" id="svg7" sodipodi:docname="freecad.svg" inkscape:version="1.4.2 (ebf0e940d0, 2025-05-08)">
  <sodipodi:namedview id="namedview7" pagecolor="#9c4444" bordercolor="#000000" borderopacity="0.25" inkscape:showpageshadow="2" inkscape:pageopacity="0.0" inkscape:pagecheckerboard="0" inkscape:deskcolor="#d1d1d1" inkscape:zoom="6.15625" inkscape:cx="15.837563" inkscape:cy="27.208122" inkscape:window-width="1183" inkscape:window-height="941" inkscape:window-x="0" inkscape:window-y="0" inkscape:window-maximized="0" inkscape:current-layer="svg7" showgrid="false"/>
  <defs id="defs2">
    <style id="current-color-scheme" type="text/css">.ColorScheme-Text {color:#d8dee9} .ColorScheme-Highlight {color:#3b4252}</style>
  </defs>
  <metadata id="metadata2">
    <rdf:RDF>
      <cc:Work rdf:about="">
        <dc:format>image/svg+xml</dc:format>
        <dc:type rdf:resource="http://purl.org/dc/dcmitype/StillImage"/>
      </cc:Work>
    </rdf:RDF>
  </metadata>
  <path id="path792" style="fill:currentColor;fill-opacity:1;stroke:none;stroke-width:0.203805;stroke-dasharray:none;stroke-opacity:0.3" class="ColorScheme-Text" d="M 6.0967095 3.6207634 L 4.2470017 10.111468 L 5.1252117 10.361685 L 6.0085894 7.2619763 L 8.582297 7.9954953 L 8.7928063 7.2562649 L 6.2190987 6.5230179 L 6.7644103 4.6099397 L 9.6163493 5.4226035 L 9.8268586 4.6836451 L 6.0967095 3.6207634 z M 9.8613995 7.3859973 L 9.8611275 7.4996833 C 9.8610075 7.5621407 9.853365 7.6756409 9.844265 7.7518049 C 9.829615 7.874248 9.8183457 7.8941336 9.7466257 7.9239656 C 9.7020118 7.9425251 9.6131612 7.9978617 9.5491712 8.0468987 L 9.4330375 8.1361068 L 9.2347671 8.0316681 L 9.0364967 7.9275013 L 8.9869971 8.0107259 C 8.9597541 8.0565661 8.864415 8.2331229 8.7751279 8.4029151 L 8.6127583 8.7116077 L 8.7914464 8.8456918 L 8.9701346 8.9800479 L 8.9685027 9.2414167 L 8.9668709 9.5030575 L 8.7881827 9.6368696 L 8.6094946 9.7704098 L 8.6992466 9.9341393 C 8.7486047 10.024255 8.841609 10.197218 8.9059483 10.318441 C 8.9682919 10.435877 9.0284856 10.532794 9.0424802 10.538742 L 9.0427521 10.538742 L 9.0430241 10.538742 L 9.0432961 10.539014 L 9.0435681 10.539014 C 9.0549061 10.539024 9.1484766 10.496406 9.2513576 10.444366 L 9.438477 10.349718 L 9.5374763 10.428591 C 9.5920542 10.47201 9.679933 10.528268 9.732483 10.553428 C 9.8193311 10.595011 9.829375 10.611484 9.844265 10.735924 C 9.853295 10.811225 9.8607266 10.917987 9.8608556 10.973087 L 9.8611275 10.973087 L 9.8613995 11.073174 L 10.283778 11.073174 L 10.706157 11.073174 L 10.724651 10.835195 C 10.74291 10.600732 10.744508 10.596877 10.826098 10.562947 C 10.871644 10.544002 10.960624 10.488736 11.023824 10.440286 L 11.138598 10.352166 L 11.340132 10.452253 C 11.536607 10.549813 11.542122 10.550881 11.572672 10.498761 C 11.589889 10.46937 11.684701 10.29325 11.783181 10.107116 L 11.962141 9.768506 L 11.785901 9.6365977 L 11.609388 9.5046894 L 11.606669 9.2422326 L 11.604221 8.9800479 L 11.782365 8.8459638 L 11.960509 8.7121517 L 11.755711 8.3194185 L 11.551186 7.9264134 L 11.348836 8.0286763 L 11.146757 8.1306673 L 11.022464 8.0420031 C 10.954171 7.9932363 10.864282 7.9391478 10.822562 7.9217898 C 10.754182 7.8933425 10.745058 7.8743392 10.729818 7.727871 C 10.720508 7.6384995 10.712956 7.5250134 10.712956 7.4757494 L 10.712956 7.3859973 L 10.287042 7.3859973 L 9.8613995 7.3859973 z M 10.26338 8.539991 C 10.612551 8.5178048 10.924519 8.8137474 10.925097 9.2373371 C 10.925502 9.5197185 10.813831 9.729012 10.593287 9.8588019 C 10.182177 10.100739 9.685418 9.8048099 9.653338 9.2988036 C 9.633176 8.9808526 9.7607112 8.7401458 10.019146 8.6085289 C 10.100307 8.5671949 10.182802 8.5451108 10.26338 8.539991 z " transform="matrix(1.9,0,0,1.9,-7.0295939,-5.5539761)"/>
</svg>
