<?xml version='1.0' encoding='UTF-8'?>
<svg xmlns:inkscape="http://www.inkscape.org/namespaces/inkscape" xmlns:sodipodi="http://sodipodi.sourceforge.net/DTD/sodipodi-0.dtd" xmlns="http://www.w3.org/2000/svg" xmlns:svg="http://www.w3.org/2000/svg" xmlns:rdf="http://www.w3.org/1999/02/22-rdf-syntax-ns#" xmlns:cc="http://creativecommons.org/ns#" xmlns:dc="http://purl.org/dc/elements/1.1/" width="64" height="64" version="1.1" viewBox="0 0 16.933 16.933" id="svg7" sodipodi:docname="freeorion.svg" inkscape:version="1.4 (e7c3feb100, 2024-10-09)">
  <sodipodi:namedview id="namedview7" pagecolor="#9c4444" bordercolor="#000000" borderopacity="0.25" inkscape:showpageshadow="2" inkscape:pageopacity="0.0" inkscape:pagecheckerboard="0" inkscape:deskcolor="#d1d1d1" inkscape:zoom="6.15625" inkscape:cx="36.142132" inkscape:cy="39.796954" inkscape:window-width="1183" inkscape:window-height="941" inkscape:window-x="35" inkscape:window-y="32" inkscape:window-maximized="0" inkscape:current-layer="svg7" showgrid="false"/>
  <defs id="defs2">
    <style id="current-color-scheme" type="text/css">.ColorScheme-Text {color:#d8dee9} .ColorScheme-Highlight {color:#3b4252}</style></defs>
  <metadata id="metadata2">
    <rdf:RDF>
      <cc:Work rdf:about="">
        <dc:format>image/svg+xml</dc:format>
        <dc:type rdf:resource="http://purl.org/dc/dcmitype/StillImage"/>
      </cc:Work>
    </rdf:RDF>
  </metadata>
  <path style="fill:currentColor;stroke-width:0.0521095" d="M 8.4673461,16.228537 C 8.4427572,15.82729 8.3757472,15.186342 8.3184337,14.804204 8.2611208,14.422066 8.1652507,13.093264 8.1053899,11.851317 7.981743,9.286008 7.9688372,9.1665717 7.8060171,9.0808787 7.7407876,9.0465479 7.1402653,8.9823998 6.4715228,8.9383281 5.8027809,8.894256 5.0211343,8.8247101 4.7345308,8.7837817 4.4479268,8.7428531 3.8538755,8.6724497 3.4144163,8.6273304 L 2.6154003,8.5452943 3.2195132,8.4959426 C 3.5517752,8.4687986 4.0207633,8.4014786 4.2617084,8.3463428 4.5026539,8.2912052 5.3876397,8.197526 6.2283445,8.1381645 7.9789548,8.0145567 7.999397,8.0062083 8.0008889,7.4142911 8.0021093,6.930591 8.1975157,3.2628023 8.2475638,2.7842186 8.2715416,2.5549359 8.3349106,2.0703152 8.3883868,1.7072831 8.441863,1.3442525 8.488915,0.84399861 8.4929488,0.59560833 8.5019308,0.04403109 8.607301,0.27627717 8.619073,0.87352761 8.623213,1.083703 8.6726302,1.6460388 8.7288838,2.1231618 c 0.056255,0.4771231 0.151218,1.8684542 0.2110294,3.0918465 0.12663,2.5901487 0.133569,2.6505979 0.3154457,2.7479351 0.075694,0.040511 0.7856481,0.119097 1.5776731,0.1746378 0.792026,0.055541 1.612009,0.136485 1.822184,0.1798776 0.210175,0.043393 0.694797,0.11538 1.076933,0.1599732 l 0.694798,0.081079 -0.694798,0.054086 c -0.382136,0.029749 -0.81986,0.082141 -0.972715,0.1164276 -0.152838,0.034288 -0.981399,0.1136736 -1.84121,0.1764144 -1.6983656,0.12393 -1.7762744,0.146871 -1.8371728,0.5409986 -0.018378,0.1189494 -0.082247,1.2167774 -0.14193,2.4396204 -0.059683,1.222841 -0.153711,2.59854 -0.2089539,3.057104 -0.055242,0.458568 -0.1045314,1.021352 -0.1095336,1.250636 -0.017046,0.781879 -0.1062648,0.802097 -0.1532898,0.03476 z M 7.0968401,13.755569 C 5.1205897,13.230594 3.6270377,11.507041 3.3213423,9.3986592 l -0.038284,-0.2640481 0.3609682,0.020871 c 0.3586428,0.020734 0.3608284,0.022264 0.3393295,0.237447 -0.011898,0.1191186 0.021344,0.2598147 0.073879,0.3126585 0.052535,0.052844 0.2002077,0.2928058 0.3281627,0.5332484 0.2920383,0.548771 0.9311636,1.150136 1.5104644,1.421223 0.3824428,0.178974 0.6497424,0.241497 1.6011773,0.374573 0.1844904,0.02579 0.2160475,0.05362 0.1701468,0.149994 -0.030994,0.06507 -0.039119,0.419262 -0.018061,0.787086 0.02106,0.367827 0.028183,0.719566 0.015822,0.781648 -0.026712,0.134208 -0.070547,0.13437 -0.5681132,0.0023 z m 2.3202342,-0.462548 c 0.024059,-0.277052 0.049925,-0.792936 0.057494,-1.146416 0.00756,-0.353477 0.036538,-0.642687 0.064375,-0.642687 0.1634256,0 1.2036227,-0.895005 1.4756937,-1.269716 0.17273,-0.2378937 0.362399,-0.4872502 0.421481,-0.5541256 0.05909,-0.066872 0.107406,-0.1809477 0.107406,-0.2534972 0,-0.141102 0.04165,-0.148041 1.542846,-0.2569929 l 0.604872,-0.0439 -0.03901,0.2685102 c -0.25176,1.7330395 -1.303709,3.2287135 -2.803033,3.9853955 -0.433585,0.218823 -1.0547975,0.417156 -1.3066087,0.417156 -0.1678086,0 -0.1688796,-0.0041 -0.1255248,-0.503727 z M 3.3679128,7.5160629 c 0.053172,-0.38793 0.343528,-1.0499637 0.4841644,-1.1039313 0.068422,-0.026253 0.0938,-0.093177 0.069941,-0.184419 -0.027184,-0.1039464 -0.00445,-0.1432098 0.082978,-0.1432098 0.091323,0 0.1100214,0.037782 0.077378,0.15633 C 4.0586974,6.3268152 4.0040278,6.6994357 3.960889,7.068881 3.8779522,7.7791382 3.852115,7.817687 3.4570821,7.8205472 3.3421269,7.8213692 3.3311847,7.7840126 3.3679128,7.5160629 Z M 12.655214,7.7504753 C 12.330397,7.7305223 12.025555,7.6895943 11.97779,7.6595253 11.93004,7.6294543 11.89094,7.5194709 11.89094,7.4151143 11.89094,7.0869055 11.689748,6.416286 11.434334,5.8931356 11.10388,5.2162866 10.55991,4.6404483 9.9464506,4.3180841 9.5076145,4.087482 9.4591501,4.0412072 9.4591501,3.8527965 c 0,-0.1150704 -0.034906,-0.2744445 -0.077575,-0.3541658 -0.075224,-0.1405548 -0.066119,-0.143766 0.3002999,-0.105948 0.2078303,0.021452 0.589675,0.1350342 0.848544,0.2524129 1.546621,0.7012705 2.83716,2.3099386 2.99662,3.7353118 0.04682,0.418574 0.04441,0.4271907 -0.11673,0.4168784 -0.09049,-0.00578 -0.430288,-0.026856 -0.755107,-0.046811 z M 6.1241248,4.1124316 c 0,-0.061776 0.027619,-0.1123182 0.061376,-0.1123182 0.033757,0 0.077794,-0.062779 0.097857,-0.139509 0.020688,-0.079117 0.167062,-0.1984937 0.338131,-0.2757681 C 6.936937,3.4423447 7.634194,3.2623551 7.6802322,3.3115331 c 0.01467,0.015678 0.010926,0.188275 -0.00833,0.3835284 l -0.035033,0.3550059 -0.565306,0.045272 C 6.7606392,4.1202368 6.4202711,4.1595416 6.3151829,4.1826806 6.1681895,4.2150464 6.124114,4.1988446 6.1241133,4.112432 Z" id="path99" class="ColorScheme-Text"/>
</svg>
