<?xml version='1.0' encoding='UTF-8'?>
<svg xmlns:inkscape="http://www.inkscape.org/namespaces/inkscape" xmlns:sodipodi="http://sodipodi.sourceforge.net/DTD/sodipodi-0.dtd" xmlns="http://www.w3.org/2000/svg" xmlns:svg="http://www.w3.org/2000/svg" xmlns:rdf="http://www.w3.org/1999/02/22-rdf-syntax-ns#" xmlns:cc="http://creativecommons.org/ns#" xmlns:dc="http://purl.org/dc/elements/1.1/" width="64" height="64" version="1.1" viewBox="0 0 16.933 16.933" id="svg7" sodipodi:docname="garden.jamie.Morphosis.svg" inkscape:version="1.4 (e7c3feb100, 2024-10-09)">
  <sodipodi:namedview id="namedview7" pagecolor="#9c4444" bordercolor="#000000" borderopacity="0.25" inkscape:showpageshadow="2" inkscape:pageopacity="0.0" inkscape:pagecheckerboard="0" inkscape:deskcolor="#d1d1d1" inkscape:zoom="6.15625" inkscape:cx="15.51269" inkscape:cy="29.725888" inkscape:window-width="1183" inkscape:window-height="941" inkscape:window-x="35" inkscape:window-y="32" inkscape:window-maximized="0" inkscape:current-layer="svg7" showgrid="false"/>
  <defs id="defs2">
    <style id="current-color-scheme" type="text/css">.ColorScheme-Text {color:#d8dee9} .ColorScheme-Highlight {color:#3b4252}</style></defs>
  <metadata id="metadata2">
    <rdf:RDF>
      <cc:Work rdf:about="">
        <dc:format>image/svg+xml</dc:format>
        <dc:type rdf:resource="http://purl.org/dc/dcmitype/StillImage"/>
      </cc:Work>
    </rdf:RDF>
  </metadata>
  <path id="path102" style="fill:currentColor;fill-opacity:1;stroke:none;stroke-width:0.463862;stroke-dasharray:none;stroke-dashoffset:2.2;stroke-opacity:0.3" d="m 6.4878584,1.3851074 c -3.3703013,0 -3.2544064,-0.01102 -3.4508852,0.3216238 -0.079403,0.1344345 -0.086978,0.7364562 -0.086978,6.7885163 0,7.3333705 -0.023541,6.8460915 0.3352126,7.0648425 0.1660125,0.101175 0.3064103,0.104006 5.2483525,0.104215 5.5324017,2.14e-4 5.2462877,0.01577 5.4938707,-0.298975 0.110884,-0.14098 0.110504,-0.157339 0.110504,-4.769992 V 5.9675662 H 12.126679 C 9.871615,5.9674734 9.8330123,5.9612029 9.6497231,5.5943013 9.5659734,5.4266626 9.5564882,5.2044956 9.5564008,3.3963908 V 1.3851074 Z m 3.7081836,0.08154 v 1.7204584 c 0,1.8779324 0.0096,1.9500583 0.306222,2.1109364 0.120084,0.065151 0.445881,0.079773 1.843669,0.08154 l 1.69781,0.00178 -0.907792,-0.9458357 C 12.636341,3.9153777 11.770389,3.0341687 11.211646,2.4776908 Z M 5.4541327,8.2587876 H 8.5435306 11.633834 V 8.6583245 9.0578622 H 8.5435306 5.4541323 V 8.6583243 Z m 0,1.4912438 h 3.0893979 3.0903034 v 0.4267176 0.425814 H 8.5435306 5.4541323 v -0.425815 z m 0,1.5456056 h 3.0893979 3.0903034 v 0.42581 0.426721 H 8.5435306 5.4541323 v -0.426721 z m 0,1.544698 h 1.9442371 1.9451434 v 0.426717 0.425809 H 7.3983698 5.4541323 v -0.425809 z" class="ColorScheme-Text"/>
  <g id="g9" transform="matrix(0.46959567,0,0,0.46959567,4.7471229,3.7470598)" style="fill:#999999;fill-opacity:1;stroke:none;stroke-width:0.58349;stroke-dasharray:none;stroke-opacity:0.3"/>
  </svg>
