<?xml version='1.0' encoding='UTF-8'?>
<svg xmlns:inkscape="http://www.inkscape.org/namespaces/inkscape" xmlns:sodipodi="http://sodipodi.sourceforge.net/DTD/sodipodi-0.dtd" xmlns="http://www.w3.org/2000/svg" xmlns:svg="http://www.w3.org/2000/svg" xmlns:rdf="http://www.w3.org/1999/02/22-rdf-syntax-ns#" xmlns:cc="http://creativecommons.org/ns#" xmlns:dc="http://purl.org/dc/elements/1.1/" width="64" height="64" version="1.1" viewBox="0 0 16.933 16.933" id="svg7" sodipodi:docname="gdlauncher.svg" inkscape:version="1.4 (e7c3feb100, 2024-10-09)">
  <sodipodi:namedview id="namedview7" pagecolor="#9c4444" bordercolor="#000000" borderopacity="0.25" inkscape:showpageshadow="2" inkscape:pageopacity="0.0" inkscape:pagecheckerboard="0" inkscape:deskcolor="#d1d1d1" inkscape:zoom="6.15625" inkscape:cx="15.837563" inkscape:cy="27.28934" inkscape:window-width="1183" inkscape:window-height="941" inkscape:window-x="35" inkscape:window-y="32" inkscape:window-maximized="0" inkscape:current-layer="svg7" showgrid="false"/>
  <defs id="defs2">
    <style id="current-color-scheme" type="text/css">.ColorScheme-Text {color:#d8dee9} .ColorScheme-Highlight {color:#3b4252}</style></defs>
  <metadata id="metadata2">
    <rdf:RDF>
      <cc:Work rdf:about="">
        <dc:format>image/svg+xml</dc:format>
        <dc:type rdf:resource="http://purl.org/dc/dcmitype/StillImage"/>
      </cc:Work>
    </rdf:RDF>
  </metadata>
  <path id="path4" style="fill:currentColor;fill-opacity:1;stroke-width:0.0410675" d="m 8.5195026,1.3597378 c -0.2943013,0 -0.3165364,0.00323 -0.500528,0.066994 C 7.9121813,1.4637438 7.7019191,1.564934 7.54679,1.6541284 7.3929489,1.7425829 6.2736492,2.3862516 5.0596091,3.0842096 3.845567,3.7821672 2.8015058,4.3872875 2.7392705,4.4292585 2.5863376,4.5323962 2.3706755,4.7642148 2.2696627,4.9349403 2.2240437,5.0120423 2.1562042,5.1632718 2.1189243,5.2705584 l -0.06764,0.1951866 v 3.0798274 3.0798286 l 0.06764,0.195187 c 0.120802,0.347652 0.3322916,0.635234 0.609395,0.830347 0.1294945,0.09118 4.856716,2.814451 5.0722776,2.922004 0.1380977,0.06889 0.2351163,0.103189 0.4006804,0.141702 0.1504135,0.03498 0.5682355,0.02227 0.7292126,-0.02191 0.06776,-0.01862 0.1882463,-0.0642 0.267979,-0.101783 0.1961283,-0.09245 4.9556741,-2.829742 5.1122171,-2.940039 0.27721,-0.195314 0.488604,-0.482738 0.609395,-0.830349 l 0.06764,-0.195187 V 8.5455724 5.465745 L 14.920081,5.2705584 C 14.882801,5.1632718 14.81496,5.012043 14.769342,4.9349403 14.668371,4.7642865 14.45274,4.5325389 14.299735,4.4292585 14.204776,4.3651603 13.389992,3.8948069 9.4922154,1.6541286 9.3371807,1.5650057 9.1267591,1.4637207 9.0200312,1.4267324 8.8360394,1.3629671 8.813804,1.3597378 8.5195026,1.3597378 Z m -2.612796,3.9765268 c 0.1895155,-0.00593 0.3880157,0.00168 0.5430437,0.02448 0.6626965,0.097464 1.3152741,0.3910215 1.8707005,0.8412998 0.087031,0.070555 0.1688055,0.1346549 0.181659,0.1423651 0.013091,0.00783 0.1030294,-0.051051 0.2048491,-0.1333458 0.5692846,-0.4601044 1.2163853,-0.7523806 1.8822951,-0.8503184 0.310061,-0.0456 0.795155,-0.029878 1.030688,0.032851 0.21653,0.057671 0.50396,0.1990436 0.656422,0.3227346 0.254184,0.2062176 0.458753,0.5385126 0.546265,0.8889691 0.05607,0.2245282 0.07756,0.7683144 0.03994,1.0017011 -0.13471,0.8355987 -0.790757,1.6208729 -1.760547,2.1071148 l -0.184228,0.092762 -0.01292,0.2112921 c -0.03926,0.628024 -0.229474,1.133019 -0.599732,1.593056 -0.3067502,0.381132 -0.7191237,0.656396 -1.1904453,0.794918 -0.1569476,0.04613 -0.2335792,0.05544 -0.5127674,0.06249 -0.3721732,0.0093 -0.5294016,-0.01216 -0.8226189,-0.114646 C 7.4354732,12.233857 7.1641465,12.059117 6.8865047,11.78 6.4338498,11.324948 6.1770209,10.728381 6.1347461,10.032338 L 6.1212183,9.8055869 5.9240986,9.7063829 C 5.2270437,9.3557702 4.6643576,8.8204559 4.380641,8.2376514 4.2226085,7.9130256 4.1740044,7.7063893 4.1616197,7.3061661 4.1501406,6.9352054 4.1697572,6.7568735 4.2524492,6.4919219 4.4275902,5.9307736 4.8330371,5.549675 5.4190602,5.3935938 5.5368279,5.362229 5.7171886,5.3422135 5.9067049,5.3362609 Z m 0.774949,1.987297 c -0.068611,-5.44e-4 -0.1418654,0.01387 -0.2325492,0.04187 -0.1684103,0.052016 -0.3265995,0.1851854 -0.3265995,0.2744212 0,0.1030256 0.092154,0.1674869 0.395527,0.2763534 0.4093185,0.1468852 0.5882643,0.2492654 0.8355022,0.4792705 0.070393,0.065485 0.1360362,0.1191737 0.1462297,0.1191737 0.047665,0 0.07033,-0.065149 0.057977,-0.1694192 C 7.5049518,7.8996953 7.2989299,7.5785368 6.9515675,7.4008635 6.8510389,7.3494438 6.7698676,7.3242857 6.6816556,7.3235616 Z m 3.6698964,0 c -0.213867,0 -0.5480271,0.2234082 -0.6912056,0.4618774 -0.11951,0.1990535 -0.221814,0.6311479 -0.1655546,0.6989361 0.013984,0.016853 0.03394,0.030275 0.043803,0.030275 0.00986,0 0.081765,-0.058552 0.1597577,-0.1301234 0.2477611,-0.2273684 0.4241585,-0.3284575 0.8129565,-0.4650977 0.355319,-0.1248728 0.400037,-0.1568412 0.400037,-0.2873046 0,-0.1368266 -0.310992,-0.3085624 -0.559794,-0.3085628 z M 7.9661519,9.3591726 C 7.9368007,9.3602972 7.919467,9.3853679 7.8817634,9.4706152 7.772616,9.717416 7.7235238,9.9275321 7.7220057,10.157312 c -0.00105,0.15938 0.00804,0.236372 0.033497,0.294391 0.044958,0.102432 0.1019635,0.09612 0.1913213,-0.02125 0.1235494,-0.1623 0.160284,-0.293326 0.1597558,-0.5707431 -5.801e-4,-0.2967129 -0.049588,-0.4879935 -0.127547,-0.4992408 -0.00479,-6.891e-4 -0.00868,-0.00144 -0.012882,-0.00127 z m 1.1021927,6.532e-4 c -0.00327,-2.001e-4 -0.00697,1.609e-4 -0.010317,6.528e-4 -0.095287,0.013775 -0.1703122,0.4702848 -0.1185296,0.7195494 0.032085,0.154438 0.1312387,0.349528 0.2119359,0.417429 l 0.064418,0.05475 0.035433,-0.04381 C 9.3581463,10.376449 9.3509776,10.03237 9.2345461,9.6748386 9.1597184,9.4450691 9.1173959,9.362831 9.0683474,9.3598345 Z" class="ColorScheme-Text"/>
</svg>
