<?xml version='1.0' encoding='UTF-8'?>
<svg xmlns:inkscape="http://www.inkscape.org/namespaces/inkscape" xmlns:sodipodi="http://sodipodi.sourceforge.net/DTD/sodipodi-0.dtd" xmlns="http://www.w3.org/2000/svg" xmlns:svg="http://www.w3.org/2000/svg" xmlns:rdf="http://www.w3.org/1999/02/22-rdf-syntax-ns#" xmlns:cc="http://creativecommons.org/ns#" xmlns:dc="http://purl.org/dc/elements/1.1/" width="64" height="64" version="1.1" viewBox="0 0 16.933 16.933" id="svg7" sodipodi:docname="geogebra.svg" inkscape:version="1.4 (e7c3feb100, 2024-10-09)">
  <sodipodi:namedview id="namedview7" pagecolor="#9c4444" bordercolor="#000000" borderopacity="0.25" inkscape:showpageshadow="2" inkscape:pageopacity="0.0" inkscape:pagecheckerboard="0" inkscape:deskcolor="#d1d1d1" inkscape:zoom="6.15625" inkscape:cx="15.837563" inkscape:cy="29.725888" inkscape:window-width="1183" inkscape:window-height="941" inkscape:window-x="35" inkscape:window-y="32" inkscape:window-maximized="0" inkscape:current-layer="svg7" showgrid="false"/>
  <defs id="defs2">
    <style id="current-color-scheme" type="text/css">.ColorScheme-Text {color:#d8dee9} .ColorScheme-Highlight {color:#3b4252}</style></defs>
  <metadata id="metadata2">
    <rdf:RDF>
      <cc:Work rdf:about="">
        <dc:format>image/svg+xml</dc:format>
        <dc:type rdf:resource="http://purl.org/dc/dcmitype/StillImage"/>
      </cc:Work>
    </rdf:RDF>
  </metadata>
  <path id="path21" style="fill:currentColor;fill-opacity:1;stroke:none;stroke-width:0.133057;stroke-dasharray:none;stroke-opacity:1" d="M 8.0244669,1.8220537 C 7.7248278,1.8177909 7.4178712,1.9168915 7.1598667,2.1439956 6.6612408,2.5829042 6.5606586,3.275909 6.9146273,3.8340614 7.0697148,4.07861 7.2979432,4.2556032 7.5955578,4.3621094 8.072151,4.5326629 8.638985,4.3757514 8.9913368,3.9754656 9.2105132,3.7264678 9.3107089,3.4485597 9.310148,3.0920814 9.3089509,2.3417273 8.6836736,1.8314374 8.0244669,1.8220537 Z m 1.7813782,0.077746 0.1278358,0.2546317 c 0.07053,0.1398267 0.1408771,0.3200393 0.1560151,0.4007323 l 0.02765,0.146623 0.384036,0.030786 c 1.44604,0.1151647 2.602118,0.7426714 3.223596,1.7495496 l 0.163837,0.2650673 0.382993,-0.026089 c 0.210826,-0.014212 0.389903,-0.031219 0.3976,-0.037569 0.02288,-0.018867 -0.259214,-0.55884 -0.404379,-0.7743321 C 13.614121,2.9429414 12.565036,2.2745951 11.305457,2.0239844 11.123113,1.9877037 10.711023,1.9450274 10.389723,1.929019 Z M 5.8293119,3.278881 5.4744976,3.5324691 C 4.7070294,4.081216 3.9290296,4.8039456 3.4071802,5.4526425 3.1495968,5.7728377 3.1211331,5.8578677 3.2704721,5.8632884 c 0.041251,0.00148 0.1749273,0.050031 0.2968963,0.1074887 0.1219686,0.05746 0.2314791,0.1055241 0.2436744,0.1069662 0.012198,0.00144 0.082312,-0.077999 0.1554922,-0.1768862 0.3209395,-0.4336758 1.5838438,-1.5723405 2.0067897,-1.809033 0.064475,-0.036073 0.064615,-0.059998 0.00102,-0.2770682 C 5.9360234,3.683916 5.8876321,3.5094454 5.8668527,3.4275904 Z m 8.5682531,2.2781184 c -0.115577,0.00251 -0.233109,0.020252 -0.35012,0.054266 -0.292068,0.084909 -0.65592,0.3879842 -0.798853,0.6657997 -0.129542,0.2517662 -0.160645,0.7833898 -0.06002,1.0253098 0.165091,0.3968057 0.440192,0.6689138 0.810334,0.8009421 0.229365,0.081812 0.619077,0.078652 0.869817,-0.00678 C 15.153422,7.999534 15.484229,7.6909372 15.612274,7.4030858 15.766477,7.0564048 15.760321,6.6307861 15.596123,6.296374 15.362921,5.821521 14.898341,5.5462146 14.397563,5.5570021 Z M 2.6578948,6.6381407 C 2.2620258,6.6394469 1.973501,6.7663397 1.7150274,7.0524391 1.4708544,7.3227095 1.4034115,7.4864325 1.381084,7.8627733 1.363737,8.1551307 1.376125,8.2344312 1.4703099,8.4393473 1.6256463,8.7772741 1.7796386,8.9405673 2.0901921,9.095754 2.9635269,9.5321637 3.9619615,8.9073779 3.963404,7.9233005 3.9641659,7.3997334 3.7107945,6.9905743 3.2428172,6.7607606 3.0339786,6.6582073 2.9335708,6.6372059 2.6578948,6.6381407 Z M 13.856472,8.9574811 13.679069,9.3242968 C 13.447246,9.8046713 13.13792,10.315445 12.83221,10.72164 l -0.246283,0.327159 0.236371,0.266634 0.236366,0.266631 0.125229,-0.144001 c 0.273579,-0.31451 0.84944,-1.229721 1.092621,-1.7370258 C 14.633,8.9573582 14.625166,9.0097364 14.376701,9.0091486 14.26158,9.0088818 14.097481,8.9972166 14.011972,8.9830616 Z M 1.5590133,9.8179064 c -0.048526,-0.00247 -0.053951,0.070228 -0.053745,0.4174286 5.079e-4,0.852064 0.1647908,1.58607 0.5176119,2.311514 0.1757367,0.361337 0.2801994,0.499113 0.2801994,0.368904 0,-0.02286 0.091255,-0.174933 0.2029748,-0.338118 L 2.7095513,12.280739 2.5937159,12.022453 C 2.5300254,11.880535 2.4479585,11.668514 2.4116123,11.551282 2.3256192,11.273923 2.2152323,10.556404 2.214899,10.273948 L 2.2143909,10.052188 1.9373223,9.949918 C 1.7848682,9.8937692 1.6252044,9.8363702 1.5825154,9.8226028 c -0.00882,-0.00283 -0.016549,-0.00437 -0.02348,-0.00469 z m 9.5142527,1.6326696 c -0.167548,4.71e-4 -0.242784,0.02609 -0.404908,0.105412 -0.8145396,0.398519 -1.010228,1.439942 -0.390818,2.081404 0.178202,0.184547 0.332545,0.278305 0.607881,0.369427 0.385388,0.127528 0.914571,-0.02054 1.250202,-0.349076 0.616379,-0.60336 0.475327,-1.616092 -0.287506,-2.063143 -0.161291,-0.09452 -0.272681,-0.121638 -0.569791,-0.137237 -0.08295,-0.0044 -0.149215,-0.0068 -0.20506,-0.0068 z m -6.920975,1.06601 c -0.1552452,4.71e-4 -0.238092,0.02479 -0.3918611,0.09549 -0.4906454,0.225532 -0.7446602,0.583129 -0.7816363,1.099925 -0.045632,0.637762 0.3091623,1.152297 0.9355625,1.357167 0.1063924,0.03479 0.2945386,0.05307 0.4424747,0.04279 1.0810929,-0.07513 1.6089059,-1.35186 0.8896461,-2.151851 C 4.9674972,12.649818 4.7561429,12.547892 4.3370033,12.52285 4.2638743,12.51845 4.2040394,12.51655 4.152291,12.51675 Z m 5.0722843,1.070183 -0.3271605,0.126787 c -0.7268569,0.282245 -1.6724366,0.485265 -2.259334,0.485265 H 6.3938844 l -0.05218,0.210804 c -0.028924,0.115862 -0.1016595,0.298284 -0.1612321,0.405427 l -0.1080112,0.195147 0.5880523,-0.02504 C 7.5497141,14.947613 8.2300112,14.795271 9.212049,14.413276 L 9.6680904,14.235873 9.5339903,14.08298 C 9.4602893,13.999038 9.3604728,13.852991 9.3122335,13.758434 Z" class="ColorScheme-Text"/>
  <g id="g9" transform="matrix(0.46959567,0,0,0.46959567,4.7471229,3.7470598)" style="fill:#999999;fill-opacity:1;stroke:none;stroke-width:0.58349;stroke-dasharray:none;stroke-opacity:0.3"/>
  <g aria-label="Science" id="text2284" style="font-size:1.76385px;text-align:center;text-anchor:middle;opacity:1;fill:#999999;stroke-width:0.529156"/>
  </svg>
