<?xml version='1.0' encoding='UTF-8'?>
<svg xmlns:inkscape="http://www.inkscape.org/namespaces/inkscape" xmlns:sodipodi="http://sodipodi.sourceforge.net/DTD/sodipodi-0.dtd" xmlns="http://www.w3.org/2000/svg" xmlns:svg="http://www.w3.org/2000/svg" xmlns:rdf="http://www.w3.org/1999/02/22-rdf-syntax-ns#" xmlns:cc="http://creativecommons.org/ns#" xmlns:dc="http://purl.org/dc/elements/1.1/" width="64" height="64" version="1.1" viewBox="0 0 16.933 16.933" id="svg7" sodipodi:docname="gimp.svg" inkscape:version="1.4.2 (ebf0e940d0, 2025-05-08)">
  <sodipodi:namedview id="namedview7" pagecolor="#9c4444" bordercolor="#000000" borderopacity="0.25" inkscape:showpageshadow="2" inkscape:pageopacity="0.0" inkscape:pagecheckerboard="0" inkscape:deskcolor="#d1d1d1" inkscape:zoom="3.078125" inkscape:cx="177.05584" inkscape:cy="12.020305" inkscape:window-width="2560" inkscape:window-height="1376" inkscape:window-x="0" inkscape:window-y="0" inkscape:window-maximized="1" inkscape:current-layer="svg7" showgrid="false"/>
  <defs id="defs2">
    <style id="current-color-scheme" type="text/css">.ColorScheme-Text {color:#d8dee9} .ColorScheme-Highlight {color:#3b4252}</style>
  </defs>
  <metadata id="metadata2">
    <rdf:RDF>
      <cc:Work rdf:about="">
        <dc:format>image/svg+xml</dc:format>
        <dc:type rdf:resource="http://purl.org/dc/dcmitype/StillImage"/>
      </cc:Work>
    </rdf:RDF>
  </metadata>
  <path id="path5" class="ColorScheme-Text" d="M 14.040195,2.8273 C 13.961945,2.8245 13.885665,2.85439 13.861733,2.92619 13.314725,4.020208 12.220707,5.387729 10.142074,5.989439 9.7044663,5.606533 9.1027573,5.333028 8.4463473,5.333028 c -0.60171,0 -1.20342,0.273505 -1.641026,0.656411 C 6.4771153,5.661234 5.9848083,5.497131 5.4925003,5.497131 4.8907903,5.004823 4.6172863,4.348413 4.3984823,3.856105 v -0.0547 c -0.0547,-0.164102 -0.218803,-0.109402 -0.218803,0.0547 v 2.078633 c -0.328205,0.273504 -0.60171,0.711111 -0.711111,1.148718 0.164102,0.0547 0.273504,0.164103 0.437607,0.273505 0.109401,-0.820513 0.820513,-1.422223 1.641026,-1.422223 0.382906,0 0.765812,0.164103 1.039316,0.382906 0.109402,0.0547 0.218804,0.218804 0.328205,0.328205 0.109402,-0.164102 0.218804,-0.273504 0.328205,-0.382906 0.328206,-0.328205 0.820513,-0.492308 1.312821,-0.492308 0.875214,0 1.5863257,0.547009 1.8598307,1.312821 0.0547,0.218804 0.109401,0.437607 0.109401,0.656411 0,0.109401 -0.0547,0.273504 -0.0547,0.382906 -0.164103,0.929914 -0.9846167,1.586325 -1.9145317,1.586325 -0.765812,0 -1.422222,-0.437607 -1.750427,-1.039317 -0.328206,0.328206 -0.765813,0.547009 -1.25812,0.547009 -0.109402,0 -0.218804,-0.0547 -0.328206,-0.0547 0,0.109402 0.0547,0.218804 0.0547,0.328205 0.0547,0.547009 -0.0547,1.148719 -0.492307,1.586325 -0.218804,0.164103 -0.437607,0.273505 -0.656411,0.328206 1.039317,0.820513 2.680343,1.422222 5.251283,1.422222 1.0393177,0 1.8598307,-0.218803 2.5162407,-0.492308 -0.437607,-0.328205 -0.820513,-0.601709 -1.094017,-0.875213 -0.218804,-0.164103 -0.382906,-0.328206 -0.492308,-0.437607 -0.0547,-0.0547 -0.109402,-0.164103 -0.164103,-0.218804 -0.8752137,0.437607 -1.9145307,0.60171 -2.8991467,0.547009 h -0.273504 c -0.109402,-0.0547 -0.218803,-0.164103 -0.218803,-0.273505 0.0547,-0.109401 0.164102,-0.218803 0.273504,-0.218803 h 0.273504 c 1.148719,0.0547 2.242736,-0.218803 3.1726517,-0.820513 h -0.0547 c -0.164103,0 -0.218804,-0.164103 -0.164103,-0.273504 0,-0.164103 0.164103,-0.218804 0.273504,-0.164103 0.382907,0.109402 0.656411,0.437607 0.765813,0.765812 v 0.109402 c 0.0547,0 0.0547,0.0547 0.109401,0.0547 0.382906,0.218803 0.929915,0.492308 1.476924,0.875214 1.531624,-1.85983 1.695727,-5.196583 1.367521,-8.423934 0,-0.09231 -0.103843,-0.149984 -0.204444,-0.153591 z M 5.6566023,6.75525 c 0.218804,0.0547 0.382906,0.273504 0.382906,0.547009 0,0.328205 -0.273504,0.547008 -0.547008,0.547008 -0.218804,0 -0.437607,-0.164102 -0.547009,-0.382906 v 0.218804 c 0,0.492308 0.437607,0.929914 0.929915,0.929914 0.547008,0 0.929915,-0.437606 0.929915,-0.929914 0,-0.547009 -0.437607,-0.929915 -0.929915,-0.929915 z m 3.063249,0.109402 c 0.273504,0.0547 0.492308,0.328205 0.492308,0.601709 0,0.328205 -0.273505,0.656411 -0.656411,0.656411 -0.328205,0 -0.65641,-0.273505 -0.65641,-0.656411 V 7.35696 c -0.109402,0.164102 -0.164103,0.382906 -0.164103,0.601709 0.0547,0.60171 0.547009,1.094017 1.148719,1.094017 0.601709,0 1.094017,-0.492307 1.094017,-1.094017 0,-0.601709 -0.492308,-1.094017 -1.094017,-1.094017 z M 2.2924993,7.21337 c -0.34188,-0.02051 -0.65641,0.06154 -0.902564,0.252991 -0.60171,0.547009 -0.382906,1.695727 0.437607,2.625642 0.820513,0.929915 1.969231,1.203419 2.57094,0.65641 l 0.164103,-0.164102 c 0.164103,-0.164103 0.218804,-0.328206 0.273504,-0.492308 0,-0.328205 -0.0547,-0.711111 -0.218803,-1.094017 C 4.5078843,8.724481 4.2890813,8.450977 4.0702773,8.177473 L 3.9061753,8.01337 C 3.7420723,7.849267 3.5232693,7.685165 3.3591663,7.575763 3.0036103,7.35696 2.6343793,7.233883 2.2924993,7.21337 Z m -0.191453,0.307692 c 0.382906,0 0.65641,0.328205 0.65641,0.765812 0,0.437607 -0.273504,0.765812 -0.65641,0.765812 -0.382906,0 -0.65641,-0.328205 -0.65641,-0.765812 0,-0.437607 0.273504,-0.765812 0.65641,-0.765812 z m 8.3680367,2.874915 c -0.0308,0.0015 -0.0535,0.02423 -0.0535,0.02423 v 0.0547 c 0.0547,0.0547 0.109401,0.109402 0.164102,0.218803 l 0.109402,0.109402 c 0.328205,0.273504 0.875214,0.711111 1.531624,1.203419 0.109402,0.109402 0.273505,0.218804 0.382906,0.328205 0.60171,0.382906 1.148719,0.765813 1.586326,0.984616 -0.382906,0.984616 1.695727,0.765812 1.695727,0.765812 0,0 -0.820514,-1.91453 -1.476924,-1.203419 -0.382906,-0.273504 -0.875214,-0.711111 -1.476923,-1.094017 -0.109402,-0.0547 -0.218804,-0.164103 -0.328206,-0.218804 -0.711111,-0.492308 -1.422222,-0.875214 -1.805128,-1.039316 -0.0547,0 -0.0547,-0.0547 -0.109402,-0.0547 -0.0547,0 -0.109402,-0.0547 -0.164103,-0.0547 -0.01709,-0.01709 -0.03419,-0.02349 -0.04961,-0.02423 -0.0021,-10e-5 -0.0042,-10e-5 -0.0063,0 z" style="fill:currentColor;fill-opacity:1;stroke-width:0.547008"/>
</svg>
