<?xml version='1.0' encoding='UTF-8'?>
<svg xmlns:inkscape="http://www.inkscape.org/namespaces/inkscape" xmlns:sodipodi="http://sodipodi.sourceforge.net/DTD/sodipodi-0.dtd" xmlns="http://www.w3.org/2000/svg" xmlns:svg="http://www.w3.org/2000/svg" xmlns:rdf="http://www.w3.org/1999/02/22-rdf-syntax-ns#" xmlns:cc="http://creativecommons.org/ns#" xmlns:dc="http://purl.org/dc/elements/1.1/" width="64" height="64" version="1.1" viewBox="0 0 16.933 16.933" id="svg7" sodipodi:docname="gnumeric.svg" inkscape:version="1.4 (e7c3feb100, 2024-10-09)">
  <sodipodi:namedview id="namedview7" pagecolor="#9c4444" bordercolor="#000000" borderopacity="0.25" inkscape:showpageshadow="2" inkscape:pageopacity="0.0" inkscape:pagecheckerboard="0" inkscape:deskcolor="#d1d1d1" inkscape:zoom="6.15625" inkscape:cx="15.837563" inkscape:cy="29.725888" inkscape:window-width="1183" inkscape:window-height="941" inkscape:window-x="35" inkscape:window-y="32" inkscape:window-maximized="0" inkscape:current-layer="svg7" showgrid="false"/>
  <defs id="defs2">
    <style id="current-color-scheme" type="text/css">.ColorScheme-Text {color:#d8dee9} .ColorScheme-Highlight {color:#3b4252}</style></defs>
  <metadata id="metadata2">
    <rdf:RDF>
      <cc:Work rdf:about="">
        <dc:format>image/svg+xml</dc:format>
        <dc:type rdf:resource="http://purl.org/dc/dcmitype/StillImage"/>
      </cc:Work>
    </rdf:RDF>
  </metadata>
  <path style="fill:currentColor;fill-opacity:1;stroke:none;stroke-width:0.468549;stroke-dasharray:none;stroke-opacity:0.3" d="m 1.2263732,8.1254141 v -5.171598 h 7.2825573 7.2825565 v 5.171598 5.1715999 H 8.5089305 1.2263732 Z m 6.689516,3.1121169 V 10.1849 H 5.1760328 2.4361781 v 1.052631 1.052625 h 2.7398547 2.7398564 z m 6.6895178,-9.5e-5 v -1.052723 l -2.745789,0.0057 -2.7457843,0.0057 -0.00618,1.046905 -0.00618,1.046904 h 2.7519493 2.751953 V 11.237191 Z M 7.9158892,8.1254141 V 7.0727885 H 5.1760328 2.4361781 v 1.052626 1.0526268 h 2.7398547 2.7398564 z m 6.6895178,-9.08e-5 V 7.072601 l -2.745789,0.00585 -2.7457843,0.00581 -0.00618,1.0469064 -0.00618,1.0469046 H 11.85345 14.605403 V 8.1253212 Z M 7.9158892,5.0133027 V 3.9606755 H 5.1760328 2.4361781 v 1.0526272 1.052627 h 2.7398547 2.7398564 z m 6.6895178,-9.52e-5 V 3.9604859 l -2.745789,0.00581 -2.7457843,0.00581 -0.00618,1.0469051 -0.00618,1.0469055 H 11.85345 14.605403 V 5.0132212 Z" id="path2224" class="ColorScheme-Text"/>
  <g id="g9" transform="matrix(0.46959567,0,0,0.46959567,4.7471229,3.7470598)" style="fill:#999999;fill-opacity:1;stroke:none;stroke-width:0.58349;stroke-dasharray:none;stroke-opacity:0.3"/>
  </svg>
