<?xml version='1.0' encoding='UTF-8'?>
<svg xmlns:inkscape="http://www.inkscape.org/namespaces/inkscape" xmlns:sodipodi="http://sodipodi.sourceforge.net/DTD/sodipodi-0.dtd" xmlns="http://www.w3.org/2000/svg" xmlns:svg="http://www.w3.org/2000/svg" xmlns:rdf="http://www.w3.org/1999/02/22-rdf-syntax-ns#" xmlns:cc="http://creativecommons.org/ns#" xmlns:dc="http://purl.org/dc/elements/1.1/" width="64" height="64" version="1.1" viewBox="0 0 16.933 16.933" id="svg7" sodipodi:docname="godot.svg" inkscape:version="1.4 (e7c3feb100, 2024-10-09)">
  <sodipodi:namedview id="namedview7" pagecolor="#9c4444" bordercolor="#000000" borderopacity="0.25" inkscape:showpageshadow="2" inkscape:pageopacity="0.0" inkscape:pagecheckerboard="0" inkscape:deskcolor="#d1d1d1" inkscape:zoom="6.15625" inkscape:cx="15.837563" inkscape:cy="29.725888" inkscape:window-width="1183" inkscape:window-height="941" inkscape:window-x="35" inkscape:window-y="32" inkscape:window-maximized="0" inkscape:current-layer="svg7" showgrid="false"/>
  <defs id="defs2">
    <style id="current-color-scheme" type="text/css">.ColorScheme-Text {color:#d8dee9} .ColorScheme-Highlight {color:#3b4252}</style></defs>
  <metadata id="metadata2">
    <rdf:RDF>
      <cc:Work rdf:about="">
        <dc:format>image/svg+xml</dc:format>
        <dc:type rdf:resource="http://purl.org/dc/dcmitype/StillImage"/>
      </cc:Work>
    </rdf:RDF>
  </metadata>
  <path id="path8" style="fill:currentColor;fill-opacity:1;stroke-width:0.0345773" d="m 9.1339967,2.0192457 c -0.034329,9.071e-4 -0.056584,0.00532 -0.063916,0.013243 -0.041562,0.044893 -0.2692344,0.6325942 -0.3951859,1.0203107 L 8.5665511,3.3856404 8.1510995,3.4043554 C 7.7857766,3.4212772 7.3632717,3.486219 7.1970425,3.5501041 7.1562603,3.5657772 7.1024048,3.5090319 6.9920448,3.3357529 6.7294975,2.9235194 6.3200747,2.3580739 6.2842969,2.358312 6.1488972,2.359219 4.9958527,2.9146093 4.6497725,3.1455656 c -0.047644,0.031795 0.02824,0.5420204 0.1644659,1.1068305 0.038131,0.1581009 0.069371,0.315951 0.069371,0.3499766 0,0.034892 -0.094023,0.1350672 -0.2159099,0.2299407 C 4.5488392,4.924832 4.2840837,5.1684158 4.0799876,5.374037 L 3.7089658,5.748177 3.5787963,5.6819227 C 3.4375208,5.6099176 2.8993167,5.3775058 2.6153859,5.2664719 L 2.4384484,5.19788 2.1952579,5.5665636 C 1.9234743,5.9788706 1.5994751,6.5506333 1.5108933,6.7747231 L 1.452436,6.9220434 1.6192389,7.1208052 C 1.710817,7.2299621 1.9275883,7.4746918 2.1009445,7.6648666 L 2.415845,8.0109465 2.5990164,9.497374 c 0.1006278,0.817756 0.193713,1.540801 0.2065566,1.606464 0.022853,0.116825 0.028909,0.120688 0.2806051,0.173042 0.3149338,0.06552 0.3224677,0.07755 0.3811549,0.604082 l 0.042872,0.38817 0.430261,0.07872 c 0.2363481,0.04321 0.4374564,0.06998 0.4474096,0.06004 0.00996,-0.01007 -0.00545,-0.201526 -0.034295,-0.425583 -0.054207,-0.420926 -0.044046,-0.500416 0.072491,-0.559653 0.035441,-0.01805 0.4002295,-0.008 0.897157,0.02495 0.6607318,0.0438 0.848931,0.06711 0.8917,0.109896 0.036396,0.03642 0.072802,0.203838 0.1106807,0.508986 l 0.05612,0.454425 0.2626775,0.01178 c 0.1442575,0.0065 0.4442352,0.01406 0.6672165,0.01786 l 0.4053194,0.0068 -0.015599,-0.0951 c -0.093746,-0.55112 -0.1068636,-0.916139 -0.035066,-0.975726 0.068261,-0.05666 2.3636723,-0.344476 2.4615303,-0.308667 0.09372,0.03429 0.100753,0.0574 0.168363,0.583815 0.03048,0.237335 0.05954,0.436795 0.06547,0.442732 0.01011,0.01007 1.233931,-0.304374 1.258827,-0.323473 0.0063,-0.0049 -0.01577,-0.221709 -0.04832,-0.481707 -0.05774,-0.459633 -0.05717,-0.474618 0.0061,-0.53393 0.06574,-0.06148 1.548397,-0.554976 1.667259,-0.554975 0.123538,0 0.17024,0.11048 0.223708,0.530031 0.02863,0.224836 0.06006,0.416278 0.06937,0.425586 0.0095,0.0094 0.193278,-0.06525 0.409217,-0.165245 0.215927,-0.09999 0.395604,-0.182596 0.399076,-0.183954 0.0036,-0.0014 -0.01672,-0.180156 -0.0452,-0.397524 -0.02837,-0.21737 -0.0429,-0.431042 -0.03196,-0.474691 0.01292,-0.050802 0.08223,-0.1109123 0.192525,-0.1668046 0.09477,-0.048021 0.171532,-0.1067192 0.170715,-0.130169 -8.34e-4,-0.023454 -0.09192,-0.7581549 -0.20266,-1.6329653 L 14.228337,6.523742 14.358506,6.299257 c 0.07133,-0.123614 0.223345,-0.4131915 0.338283,-0.6430527 L 14.905888,5.2384137 14.67283,4.9648235 C 14.402367,4.6476769 13.57065,3.8439628 13.512994,3.8439622 c -0.03346,0 -0.682979,0.4794821 -1.00472,0.7412649 L 12.40461,4.6694085 12.145053,4.4979278 C 12.002413,4.4036462 11.68938,4.2296809 11.449765,4.1113152 L 11.01405,3.8961853 10.991436,3.4815131 c -0.01288,-0.228212 -0.03285,-0.5668116 -0.04443,-0.7521786 L 10.92597,2.3918291 10.662513,2.3092066 C 10.206796,2.1656523 9.3743096,2.0127445 9.1339967,2.0192457 Z m 2.5885843,5.0555679 c 0.184585,0.00194 0.364564,0.034557 0.502747,0.098213 0.270843,0.1247692 0.442541,0.2664893 0.586933,0.4840438 0.497528,0.7496222 0.149568,1.7635143 -0.696836,2.0304886 -0.762475,0.2404997 -1.519127,-0.1844624 -1.719486,-0.9665292 -0.06735,-0.2629036 -0.04663,-0.534755 0.06236,-0.8270058 0.101722,-0.2727663 0.45097,-0.6197762 0.735809,-0.7311322 0.15508,-0.060629 0.343877,-0.089984 0.528476,-0.088078 z M 11.58618,7.6469359 c -0.449172,4.353e-4 -0.856197,0.3658093 -0.858191,0.8675372 -0.0014,0.3509877 0.233397,0.6851689 0.568225,0.8090779 0.180971,0.066971 0.484889,0.047065 0.660982,-0.043651 0.645537,-0.332549 0.649924,-1.2225599 0.0078,-1.5425484 -0.124412,-0.062012 -0.253009,-0.090544 -0.378776,-0.090417 z M 5.4884695,7.8721992 c 0.3479854,0 0.3972946,0.00899 0.5806967,0.098992 0.2557922,0.1255273 0.5097301,0.378689 0.6352585,0.6344791 0.090005,0.1834032 0.098213,0.2327109 0.098213,0.5806966 0,0.3479866 -0.00821,0.397295 -0.098213,0.5806963 C 6.578966,10.022713 6.3253561,10.276183 6.0707249,10.400762 5.8101739,10.52824 5.313607,10.555952 5.0395013,10.457663 4.6614406,10.322101 4.3704045,10.034736 4.2241879,9.6532622 4.1153464,9.3692971 4.1383128,8.8815972 4.2740733,8.6041111 4.3986533,8.3494803 4.6521243,8.0966494 4.9077729,7.9711905 5.0911765,7.8811898 5.1404828,7.8721986 5.4884695,7.8721992 Z M 5.60227,8.3858621 c -0.150651,0.00391 -0.3049262,0.048613 -0.4481889,0.1434215 -0.2832246,0.1874293 -0.4485803,0.5683059 -0.379596,0.8753315 0.066969,0.2980572 0.2533895,0.525232 0.5300316,0.6453919 0.1626913,0.07066 0.4999477,0.065 0.6687749,-0.0117 C 6.2834554,9.8974171 6.4722073,9.6017937 6.4729257,9.255737 6.4739779,8.7353781 6.0542227,8.3741087 5.60227,8.3858621 Z m 9.648136,1.5924341 c -0.03399,-0.021014 -0.581474,0.2255658 -0.581474,0.2618978 0,0.01248 0.02365,0.199601 0.05223,0.416232 0.02858,0.216631 0.04324,0.421312 0.03274,0.454425 -0.01862,0.05894 -0.132525,0.118781 -0.959516,0.503531 -0.436528,0.203107 -0.553867,0.216262 -0.608748,0.06937 -0.01577,-0.04228 -0.04862,-0.259806 -0.07326,-0.483265 -0.02677,-0.242554 -0.06017,-0.406252 -0.08263,-0.4061 -0.02069,1.42e-4 -0.271267,0.07478 -0.556535,0.166024 -0.438438,0.140234 -0.517735,0.176989 -0.515219,0.23384 0.0017,0.03698 0.02337,0.257608 0.04912,0.491059 0.04045,0.366818 0.04066,0.431629 -0.0025,0.47391 -0.0536,0.05271 -1.702302,0.50197 -1.841861,0.50197 -0.04635,0 -0.103626,-0.02242 -0.127053,-0.05065 C 10.01248,12.58231 9.967032,12.348905 9.934572,12.092196 9.902116,11.835485 9.865824,11.615011 9.85351,11.602695 c -0.021305,-0.0213 -1.7914361,0.186504 -1.8192561,0.213571 -0.0073,0.007 0.01178,0.213876 0.042868,0.459101 0.069116,0.545496 0.069285,0.541806 0.00236,0.608756 -0.046694,0.0467 -0.1844501,0.05381 -0.9813388,0.05381 -0.8389239,0 -0.9349073,-0.0057 -1.0039423,-0.06156 -0.065364,-0.05293 -0.083978,-0.128193 -0.1332945,-0.526917 l -0.057718,-0.466133 -0.5705635,-0.03741 c -0.3136159,-0.02077 -0.5757475,-0.03317 -0.5830747,-0.0273 -0.00731,0.0059 0.011324,0.209137 0.042091,0.451305 0.049888,0.392831 0.050333,0.449027 0.00393,0.519899 -0.033014,0.05041 -0.085772,0.07951 -0.1449795,0.07951 -0.1771826,0 -1.4098228,-0.248687 -1.4568081,-0.293858 -0.027829,-0.02675 -0.068478,-0.221502 -0.099773,-0.475479 l -0.053033,-0.429478 -0.3149014,-0.06002 c -0.1731565,-0.03285 -0.3500572,-0.06832 -0.3928473,-0.07874 -0.075029,-0.01824 -0.077167,-0.01045 -0.077167,0.221368 0,0.840949 0.548853,1.670035 1.4809712,2.236265 0.7193476,0.436978 1.7789554,0.768539 2.875422,0.899496 0.4814378,0.05749 1.7936177,0.0681 2.2869316,0.01862 2.2232744,-0.222514 4.2005364,-1.005614 5.3938514,-2.136496 0.68249,-0.646779 1.025108,-1.294277 1.059284,-2.003209 0.01672,-0.349224 -0.03485,-0.748031 -0.102124,-0.7895932 z" class="ColorScheme-Text"/>
  <g id="g9" transform="matrix(0.46959567,0,0,0.46959567,4.7471229,3.7470598)" style="fill:#999999;fill-opacity:1;stroke:none;stroke-width:0.58349;stroke-dasharray:none;stroke-opacity:0.3"/>
  </svg>
