<?xml version="1.0" encoding="UTF-8" standalone="no"?>
<svg
   id="svg3297"
   height="64"
   width="64"
   version="1.0"
   sodipodi:docname="golang.svg"
   inkscape:version="1.4.3 (0d15f75042, 2025-12-25)"
   xmlns:inkscape="http://www.inkscape.org/namespaces/inkscape"
   xmlns:sodipodi="http://sodipodi.sourceforge.net/DTD/sodipodi-0.dtd"
   xmlns="http://www.w3.org/2000/svg"
   xmlns:svg="http://www.w3.org/2000/svg"
   xmlns:rdf="http://www.w3.org/1999/02/22-rdf-syntax-ns#"
   xmlns:cc="http://creativecommons.org/ns#"
   xmlns:dc="http://purl.org/dc/elements/1.1/">
  <sodipodi:namedview
     id="namedview1"
     pagecolor="#9c4444"
     bordercolor="#000000"
     borderopacity="0.25"
     inkscape:showpageshadow="2"
     inkscape:pageopacity="0.0"
     inkscape:pagecheckerboard="0"
     inkscape:deskcolor="#d1d1d1"
     inkscape:zoom="3.2734375"
     inkscape:cx="40.782816"
     inkscape:cy="33.298329"
     inkscape:window-width="2560"
     inkscape:window-height="1388"
     inkscape:window-x="0"
     inkscape:window-y="0"
     inkscape:window-maximized="1"
     inkscape:current-layer="svg3297" />
  <metadata
     id="metadata58">
    <rdf:RDF>
      <cc:Work
         rdf:about="">
        <dc:format>image/svg+xml</dc:format>
        <dc:type
           rdf:resource="http://purl.org/dc/dcmitype/StillImage" />
      </cc:Work>
    </rdf:RDF>
  </metadata>
  <defs
     id="defs3299">
    <style
       id="current-color-scheme"
       type="text/css">.ColorScheme-Text {color:#d8dee9} .ColorScheme-Highlight {color:#3b4252}</style>
  </defs>
  <path
     id="path5"
     d="m 19.57283,41.9375 h 13.25 v 2.484375 h -13.25 z M 35.46355,31.689039 c 0.97802,0.560227 2.06626,0.840961 3.26464,0.840961 1.20418,0 2.29291,-0.280734 3.26472,-0.840961 0.97801,-0.566852 1.74419,-1.341728 2.29862,-2.325458 0.55443,-0.989526 0.83185,-2.093086 0.83185,-3.309767 0,-1.216598 -0.27742,-2.316845 -0.83185,-3.300575 -0.55443,-0.989526 -1.32061,-1.765314 -2.29862,-2.325541 -0.97181,-0.566851 -2.06626,-0.849573 -3.26472,-0.849573 -1.19838,0 -2.28662,0.282722 -3.26464,0.849573 -0.9718,0.560227 -1.73806,1.336015 -2.29871,2.325541 -0.55443,0.98373 -0.83185,2.083977 -0.83185,3.300575 0,1.216681 0.27742,2.320241 0.83185,3.309767 0.56023,0.98373 1.32691,1.758606 2.29871,2.325458 z m 5.26862,-1.860217 c -0.59037,0.370006 -1.25544,0.55443 -1.99487,0.55443 -0.73935,0 -1.40732,-0.184424 -2.00349,-0.55443 -0.59028,-0.375638 -1.05561,-0.890731 -1.39539,-1.547269 -0.33398,-0.661755 -0.50068,-1.4045 -0.50068,-2.227242 0,-0.822742 0.1667,-1.561678 0.50068,-2.218133 0.33978,-0.661755 0.80511,-1.177345 1.39539,-1.547269 0.59617,-0.37572 1.26414,-0.563539 2.00349,-0.563539 0.73943,0 1.4045,0.187819 1.99487,0.563539 0.59037,0.369924 1.0523,0.885514 1.38628,1.547269 0.33398,0.655958 0.50077,1.395391 0.50077,2.218133 0,0.822742 -0.16679,1.565487 -0.50077,2.227242 -0.33398,0.656041 -0.79591,1.171631 -1.38628,1.547269 z m -18.86552,1.860217 c 0.97222,0.560227 2.05764,0.840961 3.25602,0.840961 1.15102,0 2.18849,-0.256305 3.11284,-0.769577 0.93007,-0.513189 1.66039,-1.213285 2.19131,-2.102112 0.5367,-0.894209 0.80502,-1.892845 0.80502,-2.996405 v -0.983729 h -5.30415 v 1.922989 h 2.91169 c -0.0598,0.464164 -0.22864,0.887584 -0.50565,1.270261 -0.32777,0.452818 -0.77198,0.808415 -1.33262,1.064306 -0.55493,0.256387 -1.17494,0.384747 -1.86071,0.384747 -0.73935,0 -1.40682,-0.184424 -2.00349,-0.55443 -0.59658,-0.369923 -1.06472,-0.876405 -1.40441,-1.520437 -0.33407,-0.64925 -0.50077,-1.380485 -0.50077,-2.191302 0,-0.810734 0.1667,-1.538656 0.50077,-2.182689 0.34019,-0.649747 0.80833,-1.159624 1.40441,-1.529547 0.59617,-0.369923 1.26414,-0.55443 2.00349,-0.55443 0.50126,0 0.9694,0.08049 1.4045,0.241482 0.43559,0.155273 0.81413,0.379032 1.13618,0.670864 0.32778,0.286117 0.58748,0.626311 0.77819,1.019753 h 2.61207 c -0.22665,-0.817028 -0.62349,-1.538242 -1.18985,-2.164471 -0.56064,-0.62631 -1.25262,-1.112668 -2.07536,-1.458162 -0.81703,-0.345494 -1.71165,-0.518986 -2.68346,-0.518986 -1.19887,0 -2.28421,0.282722 -3.25602,0.849573 -0.9723,0.560227 -1.73566,1.336015 -2.29001,2.325541 -0.55443,0.98373 -0.83194,2.083977 -0.83194,3.300575 0,1.216681 0.27751,2.320241 0.83194,3.309767 0.55484,0.98373 1.31821,1.758607 2.29001,2.325458 z M 35.43016,5.5 c -0.66631,0 -1.31677,0.197682 -1.87137,0.567719 l -7.72809,5.157989 -0.11159,-0.09705 c -0.61149,-0.523739 -1.38976,-0.811951 -2.19487,-0.811951 h -9.83398 c -1.86271,0 -3.37396,1.509636 -3.37396,3.372345 v 7.89145 L 7.00218,23.791531 C 6.06456,24.417428 5.5012,25.469161 5.5012,26.596157 L 5.49959,55.127655 C 5.49959,56.990356 7.00923,58.5 8.87194,58.5 h 28.13037 c 1.3491,0 2.56921,-0.80473 3.10062,-2.044434 l 1.92797,-4.499695 1.06589,0.912232 c 0.6114,0.524203 1.38925,0.811951 2.19485,0.811951 h 0.002 1.07559 0.002 c 0.0351,0.0011 0.0698,0.0017 0.10513,0.0017 H 55.128 c 0.93135,0 1.77374,-0.379529 2.38409,-0.989868 0.38178,-0.382029 0.67226,-0.854048 0.83622,-1.382904 0.0325,-0.104621 0.0618,-0.211538 0.0841,-0.320251 2.2e-4,-0.0011 -2e-4,-0.0022 0,-0.0032 0.0223,-0.10874 0.0386,-0.219295 0.0502,-0.331573 1.1e-4,-0.0011 -1.1e-4,-0.0022 0,-0.0032 0.0114,-0.112318 0.0176,-0.225974 0.0178,-0.341277 v -0.0032 -9.52829 -1.311737 c 0,-0.159414 -0.0118,-0.319053 -0.034,-0.477143 L 54.09604,8.395337 C 53.85823,6.733893 52.43514,5.5 50.75694,5.5 h -0.44803 z m -19.99307,9.9375 h 33.125 v 33.125 h -33.125 z"
     style="fill:currentColor;fill-opacity:1;stroke-width:0.828125"
     class="ColorScheme-Text" />
</svg>
