<?xml version='1.0' encoding='UTF-8'?>
<svg xmlns:inkscape="http://www.inkscape.org/namespaces/inkscape" xmlns:sodipodi="http://sodipodi.sourceforge.net/DTD/sodipodi-0.dtd" xmlns="http://www.w3.org/2000/svg" xmlns:svg="http://www.w3.org/2000/svg" xmlns:rdf="http://www.w3.org/1999/02/22-rdf-syntax-ns#" xmlns:cc="http://creativecommons.org/ns#" xmlns:dc="http://purl.org/dc/elements/1.1/" width="64" height="64" version="1.1" viewBox="0 0 16.933 16.933" id="svg7" sodipodi:docname="googleearth.svg" inkscape:version="1.4 (e7c3feb100, 2024-10-09)">
  <sodipodi:namedview id="namedview7" pagecolor="#9c4444" bordercolor="#000000" borderopacity="0.25" inkscape:showpageshadow="2" inkscape:pageopacity="0.0" inkscape:pagecheckerboard="0" inkscape:deskcolor="#d1d1d1" inkscape:zoom="6.15625" inkscape:cx="15.837563" inkscape:cy="29.725888" inkscape:window-width="1183" inkscape:window-height="941" inkscape:window-x="35" inkscape:window-y="32" inkscape:window-maximized="0" inkscape:current-layer="svg7" showgrid="false"/>
  <defs id="defs2">
    <style id="current-color-scheme" type="text/css">.ColorScheme-Text {color:#d8dee9} .ColorScheme-Highlight {color:#3b4252}</style></defs>
  <metadata id="metadata2">
    <rdf:RDF>
      <cc:Work rdf:about="">
        <dc:format>image/svg+xml</dc:format>
        <dc:type rdf:resource="http://purl.org/dc/dcmitype/StillImage"/>
      </cc:Work>
    </rdf:RDF>
  </metadata>
  <path style="fill:currentColor;fill-opacity:1;stroke-width:0.0292317" d="M 7.7180004,15.970457 C 6.748213,15.865919 5.6656386,15.517701 4.8189015,15.037947 2.8066159,13.897808 1.4416118,11.908871 1.0775445,9.5864472 1.0130784,9.1752116 0.99492695,7.5558876 1.0534667,7.4379107 1.0734078,7.397716 1.1252438,7.1938259 1.1686559,6.9848183 1.4672641,5.5471671 2.174392,4.2542107 3.234666,3.2071993 4.4165906,2.0400578 5.7967058,1.3543558 7.4695357,1.1031283 c 0.4740152,-0.071187 1.5762831,-0.070342 2.0608407,0.00157 1.6451156,0.2441872 3.0916626,0.9679681 4.2503736,2.1266766 1.468045,1.4680449 2.243815,3.416904 2.186455,5.4927231 -0.05489,1.985746 -0.83796,3.761888 -2.275457,5.160993 -1.146013,1.115416 -2.495442,1.782784 -4.1373119,2.046146 -0.3485254,0.0559 -1.4611675,0.07965 -1.8364304,0.0392 z m 4.5615656,-1.739053 c 0.159999,-0.106096 0.38299,-0.26675 0.495531,-0.357008 0.214818,-0.172273 0.83311,-0.761254 0.83311,-0.793601 0,-0.01045 -0.11381,-0.0023 -0.252892,0.01805 -0.763049,0.111416 -1.800103,0.122721 -2.373081,0.02586 C 9.8623822,12.935418 8.7986358,12.552285 6.8410468,11.633209 5.407293,10.96007 4.1815363,10.537506 3.0993793,10.343312 c -0.3008667,-0.054 -1.1567232,-0.0775 -1.2012683,-0.03302 -0.047272,0.04721 0.2198689,0.780305 0.456957,1.25399 0.3574563,0.714172 0.7193176,1.213811 1.2991248,1.793765 0.225409,0.225464 0.5272164,0.497436 0.6706831,0.604377 l 0.2608483,0.194444 0.1609414,-0.14345 C 5.0720385,13.72342 5.5976975,13.516153 6.00794,13.5161 c 0.2580013,-2.7e-5 0.7729893,0.08446 1.1838869,0.194218 0.7936053,0.212006 1.0923606,0.284899 1.5532943,0.378972 0.5708088,0.116508 1.3460308,0.229972 1.8814398,0.275401 0.20097,0.0171 0.411439,0.03532 0.467709,0.04064 0.05628,0.0053 0.280529,0.01159 0.498349,0.01444 l 0.396034,0.0046 z m 2.713452,-3.541459 c 0.101023,-0.306908 0.209084,-0.7109492 0.228067,-0.8528323 0.0084,-0.061906 -0.0072,-0.075318 -0.122075,-0.1058965 C 14.246938,9.5044212 12.195306,8.1609553 10.012695,6.4005449 9.1447541,5.7004956 8.345711,5.1867103 7.3087556,4.6619079 5.9920077,3.9955044 4.6509649,3.5500841 3.961347,3.5500841 H 3.7628131 L 3.49476,3.8333192 C 2.7521746,4.6179641 2.2020156,5.5878999 1.8976103,6.6491109 c -0.041954,0.1462487 -0.070216,0.2719703 -0.06281,0.2793767 0.00741,0.00745 0.1305376,-0.015656 0.2736258,-0.0513 0.3438757,-0.085595 1.1289276,-0.091859 1.5755882,-0.012559 0.67451,0.1197494 1.3533713,0.3229438 2.1339198,0.6387175 0.8341182,0.3374442 1.2415314,0.5371897 2.9085624,1.4260009 0.7969804,0.4249271 2.3937065,1.205789 2.9690325,1.451972 0.642688,0.275008 1.255444,0.489357 1.616892,0.565606 0.198694,0.04191 0.391964,0.05357 0.914544,0.05519 l 0.6626,0.0021 z M 15.290737,7.6644564 C 15.279481,7.5478956 15.23714,7.294675 15.196647,7.1017452 14.91888,5.7783021 14.196793,4.4865867 13.215673,3.5580575 11.980635,2.3892206 10.476089,1.7577653 8.7118811,1.6678231 L 8.419563,1.6529271 8.5949539,1.7300709 c 1.3866018,0.6098747 2.7523821,1.6290465 4.0089871,2.9915859 0.721791,0.7826397 1.006662,1.1256934 1.940016,2.3362488 0.292241,0.3790374 0.690914,0.8184896 0.742535,0.8184896 0.01349,0 0.01558,-0.095371 0.0044,-0.2119302 z" id="path452" class="ColorScheme-Text"/>
  </svg>
