<?xml version="1.0" encoding="UTF-8" standalone="no"?>
<svg
   width="64"
   height="64"
   version="1.1"
   viewBox="0 0 16.933 16.933"
   id="svg7"
   sodipodi:docname="grayjay.svg"
   inkscape:version="1.4.3 (0d15f75042, 2025-12-25)"
   xmlns:inkscape="http://www.inkscape.org/namespaces/inkscape"
   xmlns:sodipodi="http://sodipodi.sourceforge.net/DTD/sodipodi-0.dtd"
   xmlns="http://www.w3.org/2000/svg"
   xmlns:svg="http://www.w3.org/2000/svg"
   xmlns:rdf="http://www.w3.org/1999/02/22-rdf-syntax-ns#"
   xmlns:cc="http://creativecommons.org/ns#"
   xmlns:dc="http://purl.org/dc/elements/1.1/">
  <sodipodi:namedview
     id="namedview7"
     pagecolor="#9c4444"
     bordercolor="#000000"
     borderopacity="0.25"
     inkscape:showpageshadow="2"
     inkscape:pageopacity="0.0"
     inkscape:pagecheckerboard="0"
     inkscape:deskcolor="#d1d1d1"
     inkscape:zoom="6.15625"
     inkscape:cx="15.51269"
     inkscape:cy="30.050761"
     inkscape:window-width="2560"
     inkscape:window-height="1388"
     inkscape:window-x="0"
     inkscape:window-y="0"
     inkscape:window-maximized="1"
     inkscape:current-layer="svg7"
     showgrid="false" />
  <defs
     id="defs2">
    <style
       id="current-color-scheme"
       type="text/css">.ColorScheme-Text {color:#d8dee9} .ColorScheme-Highlight {color:#3b4252}</style>
  </defs>
  <metadata
     id="metadata2">
    <rdf:RDF>
      <cc:Work
         rdf:about="">
        <dc:format>image/svg+xml</dc:format>
        <dc:type
           rdf:resource="http://purl.org/dc/dcmitype/StillImage" />
      </cc:Work>
    </rdf:RDF>
  </metadata>
  <path
     id="path5"
     style="fill:currentColor;stroke-width:0.0707893"
     d="m 11.607841,1.8520775 c -0.264475,-0.00123 -0.522158,0.034669 -0.736511,0.1077044 -0.383627,0.130715 -0.9711439,0.6312659 -1.1826789,1.0076404 -0.01384,0.024632 -0.03277,0.052594 -0.05586,0.082821 l 3.3240519,0.00113 c 0.02926,-0.110654 0.05865,-0.2323499 0.0889,-0.367081 0.02336,-0.1040684 0.127752,-0.2904746 0.232,-0.4143652 l 0.189556,-0.225364 -0.348832,0.020877 c -0.191832,0.011434 -0.521856,-0.032972 -0.733326,-0.098717 -0.24154,-0.075103 -0.512822,-0.1134214 -0.777299,-0.1146174 z m 1.349005,1.1992697 c -0.152188,0.5754763 -0.304537,0.8549585 -0.597007,1.1475593 -0.186333,0.186418 -0.249685,0.3290292 -0.322838,0.7262811 -0.135047,0.7333622 -0.346946,1.3115537 -0.595348,1.624281 l -0.22094,0.2780414 0.20822,0.3701218 c 0.11448,0.2035263 0.650035,0.8748045 1.190144,1.4916903 0.03829,0.043736 0.07579,0.086669 0.11254,0.1288576 l 3.931985,-5.7654504 z m -0.225225,5.7668325 -1.194292,1.7512053 c 0.557511,0.514323 1.460681,0.984353 2.146214,1.085618 l 0.347585,0.05129 -0.296015,-0.416853 c -0.162815,-0.229227 -0.442607,-0.618697 -0.621756,-0.865507 -0.315162,-0.4341909 -0.318823,-0.4451469 -0.115724,-0.340121 0.307934,0.15924 0.962446,0.400801 0.995751,0.367497 0.05622,-0.05622 -0.381664,-0.6227949 -1.261763,-1.6331312 z m -1.194292,1.7512053 c -0.114325,-0.105469 -0.214243,-0.212838 -0.294633,-0.319243 -0.08963,-0.118641 -0.147058,-0.194776 -0.167986,-0.193012 -0.03546,0.003 0.03417,0.229921 0.229927,0.853342 z M 9.6327941,3.0502406 0.26939785,3.0467501 4.5199316,9.2916881 C 4.7147495,9.0490121 4.9110041,8.7693948 5.1286913,8.4304647 5.5977481,7.7001638 6.6358289,6.2658035 7.2793294,5.4588385 8.0128468,4.5389876 8.6271819,3.8980236 9.1238591,3.5343944 9.3144141,3.394884 9.5214691,3.1959519 9.6327941,3.0502066 Z M 4.5199316,9.2917221 c -0.3210686,0.399939 -0.6381381,0.699661 -1.0404081,0.9998969 -0.6452349,0.481574 -1.5258036,1.324395 -1.3837082,1.324395 0.044914,0 0.1713415,-0.03402 0.2809446,-0.07563 l 0.1992331,-0.07562 -0.18596,0.19951 c -0.2026191,0.217333 -0.3743043,0.512358 -0.3261559,0.560506 0.016644,0.01664 0.153134,-0.02116 0.303343,-0.08392 0.2518792,-0.105244 0.2657438,-0.105127 0.1778026,8.3e-4 -0.2465873,0.297119 0.2043904,0.1637 0.5894033,-0.174345 0.2925193,-0.256837 0.2913469,-0.257948 0.1494593,0.144205 -0.058401,0.165526 -0.1061833,0.319628 -0.1061833,0.342469 0,3.49e-4 6.1e-5,6.96e-4 1.417e-4,9.44e-4 2.4e-5,6.5e-5 1.06e-4,3.48e-4 1.415e-4,4.28e-4 l 1.416e-4,1.41e-4 v 1.43e-4 l 1.415e-4,1.41e-4 1.417e-4,1.42e-4 c 5.25e-5,3.5e-5 3.532e-4,2.11e-4 4.172e-4,2.93e-4 h 1.417e-4 c 0.016118,0.0053 0.1686776,-0.12803 0.3527019,-0.309287 l 0.3539456,-0.348697 v 0.314265 0.314128 l 0.308735,-0.541709 c 0.4372591,-0.767299 0.7682206,-1.21657 1.0965421,-1.460589 z m 0.7709388,1.1326269 3.1694776,4.656604 2.577723,-3.779618 c -0.294296,-0.397694 -0.628605,-0.924654 -0.758772,-1.241024 l -0.160935,-0.3910009 -0.0019,0.9910499 -0.0021,0.991049 -0.1760049,-0.212368 c -0.09678,-0.116803 -0.286393,-0.429105 -0.421421,-0.693928 l -0.24555,-0.481423 -0.0206,0.587608 -0.0206,0.587743 -0.265598,-0.434276 C 8.8185251,10.765906 8.6218531,10.367717 8.527586,10.1199 L 8.3561428,9.6693101 8.3330528,10.14299 8.3099628,10.616808 7.7711631,10.12778 7.232225,9.6387551 6.6482137,9.8851341 C 6.3270112,10.0206 5.9165577,10.167061 5.7359728,10.210737 5.5820799,10.247967 5.4367621,10.315948 5.290913,10.424349 Z m 5.7472006,0.876986 c 0.247766,0.334812 0.467174,0.577955 0.512392,0.526908 0.01721,-0.01943 -0.0788,-0.385663 -0.213335,-0.813938 -0.01122,-0.03573 -0.022,-0.07028 -0.03249,-0.103689 z"
     class="ColorScheme-Text" />
</svg>
