<?xml version="1.0" encoding="UTF-8" standalone="no"?>
<svg
   width="64"
   height="64"
   version="1.1"
   viewBox="0 0 16.933 16.933"
   id="svg7"
   sodipodi:docname="gs_icon.svg"
   inkscape:version="1.4.3 (0d15f75042, 2025-12-25)"
   xmlns:inkscape="http://www.inkscape.org/namespaces/inkscape"
   xmlns:sodipodi="http://sodipodi.sourceforge.net/DTD/sodipodi-0.dtd"
   xmlns="http://www.w3.org/2000/svg"
   xmlns:svg="http://www.w3.org/2000/svg"
   xmlns:rdf="http://www.w3.org/1999/02/22-rdf-syntax-ns#"
   xmlns:cc="http://creativecommons.org/ns#"
   xmlns:dc="http://purl.org/dc/elements/1.1/">
  <sodipodi:namedview
     id="namedview7"
     pagecolor="#9c4444"
     bordercolor="#000000"
     borderopacity="0.25"
     inkscape:showpageshadow="2"
     inkscape:pageopacity="0.0"
     inkscape:pagecheckerboard="0"
     inkscape:deskcolor="#d1d1d1"
     inkscape:zoom="4.3531262"
     inkscape:cx="89.935366"
     inkscape:cy="34.457995"
     inkscape:window-width="2560"
     inkscape:window-height="1388"
     inkscape:window-x="0"
     inkscape:window-y="0"
     inkscape:window-maximized="1"
     inkscape:current-layer="svg7"
     showgrid="false" />
  <defs
     id="defs2">
    <style
       id="current-color-scheme"
       type="text/css">.ColorScheme-Text {color:#d8dee9} .ColorScheme-Highlight {color:#3b4252}</style>
  </defs>
  <metadata
     id="metadata2">
    <rdf:RDF>
      <cc:Work
         rdf:about="">
        <dc:format>image/svg+xml</dc:format>
        <dc:type
           rdf:resource="http://purl.org/dc/dcmitype/StillImage" />
      </cc:Work>
    </rdf:RDF>
  </metadata>
  <path
     id="path5"
     style="fill:currentColor"
     d="m 8.4665,1.4551795 c -3.884237,0 -7.011321,3.127083 -7.011321,7.01132 0,3.8842385 3.127084,7.0113205 7.011321,7.0113205 3.884237,0 7.011321,-3.127082 7.011321,-7.0113205 0,-3.884237 -3.127084,-7.01132 -7.011321,-7.01132 z m 1.118693,2.60996 a 2.225397,0.72256404 43.661263 0 1 1.726091,1.031505 l -0.153957,0.09804 -0.0011,0.04441 c -0.0034,0.149083 0.112397,0.22878 0.226397,0.216834 l 0.04149,-0.0045 0.09286,-0.155738 a 2.225397,0.72256404 43.661263 0 1 0.974624,1.925261 2.225397,0.72256404 43.661263 0 1 -2.108874,-1.013679 2.225397,0.72256404 43.661263 0 1 -1.111077,-2.059123 2.225397,0.72256404 43.661263 0 1 0.313584,-0.08297 z m -4.510426,0.337406 a 5.662807,2.2424149 43.661263 0 1 1.635499,0.448579 c -0.0278,-0.01098 -0.05386,-0.02045 -0.07779,-0.02788 l 0.125434,0.239037 0.0042,0.0079 0.204032,0.389103 0.621334,0.356692 -0.840114,0.829096 c -0.169238,1.684071 1.690635,3.320428 3.286719,3.111045 l 0.915958,-0.861992 0.461382,0.679839 0.285061,0.103718 h 1.62e-4 a 5.7124806,2.2620849 43.661262 0 1 0,1.6e-4 l 0.270153,0.09821 a 5.662807,2.2424149 43.661263 0 0 0,1.63e-4 5.662807,2.2424149 43.661263 0 1 0.605776,1.6189675 l -0.178751,-0.125755 -1.62e-4,-1.63e-4 -0.34081,-0.239687 -0.0091,0.687779 0.489581,0.437885 c 0.0022,-0.0032 0.0044,-0.0066 0.0065,-0.01022 a 5.662807,2.2424149 43.661263 0 1 -0.225748,0.399315 5.662807,2.2424149 43.661263 0 1 -1.257092,0.297377 l -0.451334,-0.809645 -0.886949,-0.365768 0.315204,0.885813 a 5.662807,2.2424149 43.661263 0 1 -2.600561,-1.6167 c 0.04067,0.03108 0.06094,0.04505 0.06094,0.04505 L 7.74451,10.302087 6.970192,9.6024785 6.436046,10.029339 A 5.662807,2.2424149 43.661263 0 1 4.510946,7.5576185 L 5.49189,7.7699155 4.948992,6.7935085 4.029469,6.5115255 c 0.005,0.02418 0.01146,0.04984 0.01912,0.07649 a 5.662807,2.2424149 43.661263 0 1 0.07212,-1.862867 5.662807,2.2424149 43.661263 0 1 0.07293,-0.06823 c -0.01393,0.01264 -0.02751,0.02584 -0.04084,0.03986 l 0.683889,0.593786 0.490391,-0.277445 -0.4549,-0.500762 -0.0088,-0.0097 -0.07244,-0.07957 a 5.662807,2.2424149 43.661263 0 1 0.283766,-0.02057 z m 3.610837,0.416168 -0.04149,0.04343 c -0.06819,0.27133 0.182965,0.762166 0.182965,0.762166 l 0.527826,-0.549542 c 0.160852,0.280113 0.391525,0.584302 0.661201,0.877549 l -0.64305,0.684374 c 0.549757,0.686838 1.312782,1.180142 1.803068,1.314299 l 0.62652,-0.660066 h 1.62e-4 c 0.179676,0.07061 0.342444,0.106747 0.477264,0.0995 l -1.281886,1.335367 C 10.22086,8.7917205 9.330927,8.3664135 8.683981,7.7401475 L 9.241788,7.1502535 9.199818,6.7710355 C 8.859911,6.4258425 8.648369,6.0646815 8.588531,5.7821525 l -0.26367,-0.02189 -0.503841,0.54144 c 0.0071,0.03754 0.01527,0.07497 0.02479,0.112144 C 7.78034,6.1751535 7.76019,5.9343915 7.79606,5.7004655 l 0.82569,-0.862478 z m -4.796947,0.06174 a 5.7124806,2.2620849 43.661262 0 0 2.606233,5.5284825 5.7124806,2.2620849 43.661262 0 0 5.694429,2.307232 5.7124809,2.2620849 43.661263 0 0 0,1.64e-4 5.7124809,2.2620849 43.661263 0 1 -0.02771,0.02092 5.7124809,2.2620849 43.661263 0 1 -0.03533,0.0517 5.7124809,2.2620849 43.661263 0 1 -5.694268,-2.307396 5.7124809,2.2620849 43.661263 0 1 -2.570904,-5.5803425 5.7124809,2.2620849 43.661263 0 1 0.02755,-0.02073 z m 7.517755,0.255891 v 1.63e-4 c 0.03667,-0.0016 0.07641,0.04246 0.06839,0.06758 l -0.100477,0.169352 c -0.0655,0.0069 -0.137225,-0.03475 -0.134995,-0.132403 l 0.163518,-0.104204 c 0.0012,-2.42e-4 0.0024,-3.14e-4 0.0036,-6.27e-4 z m 0.01021,0.05445 -0.121868,0.144559 c 0.03123,0.02669 0.07406,0.02267 0.07406,0.02267 l 0.08978,-0.149742 c -0.01956,0.0032 -0.04197,-0.0175 -0.04197,-0.0175 z m -3.89444,0.09383 a 5.662807,2.2424149 43.661263 0 1 0.349237,0.217158 l -0.128512,0.134348 -1.63e-4,1.63e-4 -0.02479,0.02594 -0.0041,0.02578 c -0.0069,0.04524 -0.0098,0.09077 -0.0128,0.136289 0.0029,-0.04422 0.0055,-0.08845 0.01216,-0.132401 l -0.05948,0.05867 -0.05802,-0.205329 -0.0011,-0.0044 z m 2.901018,1.074126 c 0.35011,0.321277 0.725419,0.598452 1.067321,0.784529 -0.411949,-0.209525 -0.728513,-0.454433 -1.067321,-0.784529 z m 0.786959,2.266072 a 5.662807,2.2424149 43.661263 0 1 0.229638,0.31488 l -0.475319,-0.05915 0.2204,-0.207436 -0.0037,-0.018 z M 6.58305,10.17281 c 0.08344,0.08084 0.150412,0.142635 0.222021,0.209218 a 5.662807,2.2424149 43.661263 0 1 -0.135806,-0.124947 5.662807,2.2424149 43.661263 0 1 -0.08621,-0.08427 z"
     class="ColorScheme-Text" />
</svg>
