<?xml version="1.0" encoding="UTF-8" standalone="no"?>
<svg
   width="64"
   height="64"
   version="1.1"
   viewBox="0 0 16.933 16.933"
   id="svg7"
   sodipodi:docname="gtkhash.svg"
   inkscape:version="1.4.3 (0d15f75042, 2025-12-25)"
   xmlns:inkscape="http://www.inkscape.org/namespaces/inkscape"
   xmlns:sodipodi="http://sodipodi.sourceforge.net/DTD/sodipodi-0.dtd"
   xmlns="http://www.w3.org/2000/svg"
   xmlns:svg="http://www.w3.org/2000/svg"
   xmlns:rdf="http://www.w3.org/1999/02/22-rdf-syntax-ns#"
   xmlns:cc="http://creativecommons.org/ns#"
   xmlns:dc="http://purl.org/dc/elements/1.1/">
  <sodipodi:namedview
     id="namedview7"
     pagecolor="#9c4444"
     bordercolor="#000000"
     borderopacity="0.25"
     inkscape:showpageshadow="2"
     inkscape:pageopacity="0.0"
     inkscape:pagecheckerboard="0"
     inkscape:deskcolor="#d1d1d1"
     inkscape:zoom="4.3531262"
     inkscape:cx="89.935366"
     inkscape:cy="34.457995"
     inkscape:window-width="2560"
     inkscape:window-height="1388"
     inkscape:window-x="0"
     inkscape:window-y="0"
     inkscape:window-maximized="1"
     inkscape:current-layer="svg7"
     showgrid="false" />
  <defs
     id="defs2">
    <style
       id="current-color-scheme"
       type="text/css">.ColorScheme-Text {color:#d8dee9} .ColorScheme-Highlight {color:#3b4252}</style>
  </defs>
  <metadata
     id="metadata2">
    <rdf:RDF>
      <cc:Work
         rdf:about="">
        <dc:format>image/svg+xml</dc:format>
        <dc:type
           rdf:resource="http://purl.org/dc/dcmitype/StillImage" />
      </cc:Work>
    </rdf:RDF>
  </metadata>
  <path
     id="path5"
     style="fill:currentColor"
     d="m 14.945803,4.8511297 -2.370778,0.729506 0.06022,0.382706 -1.976256,0.520199 -0.285665,2.09534 1.758312,-0.462702 0.139765,0.888587 -1.907395,0.502018 3.985918,2.7966653 z m -5.5985555,1.977619 -1.536734,0.404524 -0.285666,2.095339 1.730132,-0.455429 0.09227,-0.693371 z m 0.8772245,2.815528 -0.3388445,2.4925913 -1.125166,0.29612 0.360208,-2.5989493 -1.73036,0.4554303 -0.343163,2.476 v 2.712351 l 7.2100585,-3.00438 z m -8.2372755,-5.951038 0.292257,7.3082363 2.065341,-0.609739 -0.03409,-0.217261 2.088976,-0.5497433 0.285439,-2.095339 -1.870807,0.492473 -0.140673,-0.894497 1.401059,-0.368616 z m 2.387824,6.8905323 -2.087613,0.61633 4.4e-4,0.0098 4.432029,4.137047 v -2.376915 l -0.80791,0.212715 0.353163,-2.597131 -1.814673,0.477702 z m 4.972227,-9.1285913 -7.172107,1.969665 4.302947,3.22755 0.326572,-0.0859 0.352254,-2.603039 1.125393,-0.29612 -0.352254,2.603039 1.417195,-0.373161 z m 0.192717,0.03114 v 4.360215 l 0.113176,-0.02977 0.3592975,-2.604857 1.125393,-0.296121 -0.359299,2.604858 1.716043,-0.451794 0.02909,0.185445 2.204424,-0.678145 z"
     class="ColorScheme-Text" />
</svg>
