<?xml version="1.0" encoding="UTF-8" standalone="no"?>
<svg
   width="64"
   height="64"
   version="1.1"
   viewBox="0 0 16.933 16.933"
   id="svg7"
   sodipodi:docname="helio-workstation.svg"
   inkscape:version="1.4.3 (0d15f75042, 2025-12-25)"
   xmlns:inkscape="http://www.inkscape.org/namespaces/inkscape"
   xmlns:sodipodi="http://sodipodi.sourceforge.net/DTD/sodipodi-0.dtd"
   xmlns="http://www.w3.org/2000/svg"
   xmlns:svg="http://www.w3.org/2000/svg"
   xmlns:rdf="http://www.w3.org/1999/02/22-rdf-syntax-ns#"
   xmlns:cc="http://creativecommons.org/ns#"
   xmlns:dc="http://purl.org/dc/elements/1.1/">
  <sodipodi:namedview
     id="namedview7"
     pagecolor="#9c4444"
     bordercolor="#000000"
     borderopacity="0.25"
     inkscape:showpageshadow="2"
     inkscape:pageopacity="0.0"
     inkscape:pagecheckerboard="0"
     inkscape:deskcolor="#d1d1d1"
     inkscape:zoom="6.15625"
     inkscape:cx="26.639594"
     inkscape:cy="29.807107"
     inkscape:window-width="1183"
     inkscape:window-height="941"
     inkscape:window-x="0"
     inkscape:window-y="0"
     inkscape:window-maximized="0"
     inkscape:current-layer="svg7"
     showgrid="false" />
  <defs
     id="defs2">
    <style
       id="current-color-scheme"
       type="text/css">.ColorScheme-Text {color:#d8dee9} .ColorScheme-Highlight {color:#3b4252}</style>
  </defs>
  <metadata
     id="metadata2">
    <rdf:RDF>
      <cc:Work
         rdf:about="">
        <dc:format>image/svg+xml</dc:format>
        <dc:type
           rdf:resource="http://purl.org/dc/dcmitype/StillImage" />
      </cc:Work>
    </rdf:RDF>
  </metadata>
  <path
     style="fill:currentColor;fill-opacity:1;stroke-width:0.202982"
     d="M 4.1149608,2.7068996 C 4.5307977,3.8719007 4.672594,4.1235417 4.7700753,3.8695107 4.7888822,3.8205084 4.6169426,3.2572254 4.3879883,2.6177892 4.0171202,1.5820118 3.9551494,1.4551798 3.8199385,1.4551798 c -0.1466188,0 -0.1366098,0.042474 0.2950223,1.2517198 z m 1.157957,-1.1921729 c 0,0.075581 0.6058939,1.7867901 0.6473326,1.8282281 0.047018,0.047013 0.8412008,-0.3476791 0.8412008,-0.4180644 0,-0.033877 -0.1125658,-0.3784247 -0.2501467,-0.7656552 L 6.2611575,1.4551797 H 5.7670381 c -0.2717663,0 -0.4941203,0.026803 -0.4941203,0.059541 z m 1.5561942,0.00353 c 0,0.066101 0.3979728,1.1694091 0.4352731,1.2067083 C 7.2856821,2.746265 8.0487688,2.4232479 8.101332,2.3706861 8.116249,2.3557691 8.06207,2.1435929 7.9807752,1.8993271 L 7.8329822,1.4552262 h -0.501933 c -0.2760652,0 -0.5019372,0.028375 -0.5019372,0.063053 z m 1.5561933,0.00337 c 0,0.074121 0.2073255,0.6103155 0.2359847,0.6103155 0.0239,0 0.8057283,-0.3526997 0.8358489,-0.3770772 0.012672,-0.010266 0.00303,-0.081884 -0.021476,-0.1591012 -0.039824,-0.1255292 -0.097892,-0.1404143 -0.5474627,-0.1404143 -0.2832309,0 -0.5028948,0.028952 -0.5028948,0.066294 z M 9.3197247,2.6318661 8.9347634,2.8453699 9.4367546,3.6219884 c 0.2760947,0.4271385 0.5127257,0.806965 0.5258473,0.8440576 0.023196,0.065588 0.7908241,-0.4707928 0.7908241,-0.5525954 0,-0.098085 -0.9200534,-1.5051333 -0.9810763,-1.5003691 -0.037213,0.00289 -0.2408947,0.101357 -0.452625,0.2187846 z M 8.0808329,3.2821338 C 7.8947668,3.3924733 7.7166903,3.4919007 7.6851059,3.5031014 7.6373547,3.5200558 8.6216232,5.1449295 8.7974399,5.339391 8.8766156,5.4269376 9.6192841,4.8525404 9.559158,4.7502707 9.2630701,4.2466456 8.4970197,3.0794874 8.4631449,3.0803758 8.4389422,3.0810172 8.266901,3.171804 8.0808329,3.2821338 Z M 6.7665263,3.9603934 C 6.5646438,4.0716632 6.3858028,4.1763776 6.3691011,4.1930781 c -0.035392,0.0354 1.1866387,1.9794359 1.2809043,2.037698 0.072148,0.044591 0.7352998,-0.4394312 0.7352998,-0.5366852 0,-0.077153 -1.1700643,-1.9378842 -1.2178908,-1.9367901 -0.018608,4.153e-4 -0.1990065,0.091813 -0.4008881,0.2030926 z M 5.4589844,4.6417358 C 5.2450079,4.7509685 5.069936,4.8696134 5.069936,4.9053667 c 0,0.035753 0.2479913,0.4539157 0.551092,0.9292494 0.3031004,0.4753306 0.6238084,0.9794162 0.712685,1.1201853 L 6.4953057,7.2107475 6.8660291,6.9212087 C 7.1086042,6.7317549 7.2235562,6.59728 7.1985768,6.5321847 7.147948,6.4002554 6.0213293,4.6236283 5.9240019,4.5222439 5.86637,4.462206 5.7541269,4.491046 5.4589844,4.6417261 Z m 5.3825396,0.1487714 c -0.193433,0.1564866 -0.353282,0.3002808 -0.355217,0.3195513 -0.0021,0.019264 0.310026,0.3475205 0.693252,0.7294418 l 0.696772,0.6944007 0.284306,-0.3495013 c 0.156374,-0.1922239 0.284305,-0.3688392 0.284305,-0.3924726 0,-0.023627 -0.281638,-0.3226406 -0.625862,-0.6644523 L 11.19322,4.505994 Z M 4.1565181,5.3257415 C 3.9332382,5.4386313 3.740344,5.5401084 3.7278648,5.5512388 c -0.018271,0.016297 1.4991374,2.4386495 1.5819159,2.52533 0.018873,0.019761 0.309329,-0.194022 0.7287994,-0.5364162 C 6.0816573,7.5050089 4.7861498,5.3597351 4.6044849,5.1654098 4.5813808,5.1406921 4.3797981,5.2128402 4.1565181,5.3257461 Z M 9.6789789,5.7745226 9.3149703,6.0975833 10.103507,6.8380224 c 0.433697,0.4072406 0.810632,0.7463448 0.837634,0.7535629 0.02699,0.00722 0.177162,-0.1450181 0.333685,-0.3383039 L 11.559414,6.9018552 10.836187,6.1745034 C 10.438413,5.7744617 10.097218,5.4481222 10.077975,5.4493059 10.058727,5.4504822 9.8791875,5.5968422 9.6789789,5.7745226 Z m 3.1051061,0.7957816 c -0.152814,0.2024031 -0.260837,0.3955266 -0.240047,0.4291642 0.02079,0.033636 0.391818,0.279193 0.824506,0.5456807 0.610735,0.3761391 0.800345,0.4643225 0.847685,0.394234 C 14.404504,7.660652 14.612901,7.1830724 14.564643,7.140932 14.533813,7.114001 14.183092,6.891806 13.785263,6.6471409 L 13.061931,6.2022993 Z M 2.1015385,6.4552651 c -0.051054,0.032337 -0.081499,0.090337 -0.06766,0.1288817 0.044229,0.1232036 1.6476492,2.6463959 1.6828459,2.6481924 0.018608,9.803e-4 0.076742,-0.025439 0.1291913,-0.058642 C 3.9212847,9.1259777 3.7602924,8.8283483 3.0779245,7.7538607 2.6030813,7.0061523 2.2100262,6.3948566 2.2044685,6.3954261 c -0.00557,5.678e-4 -0.051877,0.027493 -0.102929,0.059829 z m 6.5054356,0.2255695 c -0.1920875,0.1587643 -0.3509919,0.3043375 -0.35312,0.3234811 -0.00205,0.019136 0.3866402,0.42445 0.8639315,0.9006805 L 9.9855846,8.7708704 10.297337,8.4059606 10.609088,8.0410527 9.7826563,7.2166039 8.956225,6.3921585 Z M 7.4524418,7.6666205 7.0946937,7.9844219 8.0652081,8.9515535 9.0357212,9.9186863 9.31946,9.5821923 C 9.4755136,9.397119 9.6031977,9.2202882 9.6031977,9.1892348 c 0,-0.031054 -0.403427,-0.4578519 -0.8965043,-0.9484384 L 7.8101909,7.3488205 Z m 4.4263442,0.1207494 c -0.143927,0.2075518 -0.235266,0.4006724 -0.20298,0.4291579 0.09645,0.085092 1.619035,1.0124785 1.735943,1.0573425 0.08115,0.031134 0.16057,-0.062684 0.319296,-0.3771159 0.116211,-0.2302081 0.201684,-0.4256547 0.189945,-0.4343292 -0.122049,-0.090161 -1.614144,-0.9904893 -1.68555,-1.0170691 -0.06025,-0.022424 -0.190642,0.1026082 -0.356654,0.3420138 z m 3.186374,0.1119435 c -0.101437,0.2328806 -0.184449,0.4429554 -0.184445,0.466831 5e-6,0.023884 0.0733,0.061802 0.162875,0.084274 0.08957,0.022472 0.212713,0.05999 0.273637,0.083376 0.09773,0.037486 0.108431,-0.019569 0.09087,-0.4848219 -0.01091,-0.2900296 -0.05109,-0.5376271 -0.08918,-0.5502151 -0.03811,-0.012511 -0.152285,0.1676539 -0.253734,0.4005346 z M 6.2999027,8.6417352 5.9541378,8.931675 6.9828362,9.9634995 C 7.5486211,10.531003 8.0423501,10.993581 8.080013,10.991453 8.117672,10.989453 8.2786707,10.8301 8.4377758,10.637618 L 8.7270579,10.287653 7.734461,9.339022 C 7.1885334,8.8172743 6.7202206,8.3817064 6.6937661,8.3710928 6.6673129,8.3605063 6.4900731,8.4822663 6.2999027,8.6417352 Z m 4.7252633,0.2963527 c -0.152958,0.2025891 -0.261367,0.3954243 -0.240909,0.4285231 0.02797,0.045281 1.719231,1.111597 2.013625,1.269571 0.07417,0.0398 0.477221,-0.8002106 0.413428,-0.8616466 C 13.18055,9.7449094 12.738654,9.461711 12.229324,9.1452052 L 11.303268,8.5697429 Z m 3.446605,0.3154677 c -0.108703,0.2298751 -0.175348,0.437186 -0.148082,0.4606943 0.04892,0.042185 1.007595,0.4014861 1.071206,0.4014861 0.01805,0 0.0239,-0.2331558 0.01299,-0.5181227 L 15.388126,9.0794908 15.028753,8.9575544 14.669382,8.835618 Z M 5.185321,9.5927578 4.860912,9.8789231 6.0034015,11.01766 7.1458905,12.156395 7.458351,11.795757 7.7708094,11.435117 6.7087238,10.369462 C 6.1245767,9.783352 5.6158332,9.3044349 5.5781836,9.3052 5.5405331,9.3059939 5.3637461,9.4353649 5.185321,9.5927578 Z m 4.973974,0.4917302 c -0.122097,0.165978 -0.2373715,0.341834 -0.2561562,0.390793 -0.022215,0.05789 0.3554182,0.329989 1.0799552,0.778152 0.612762,0.379027 1.141086,0.689139 1.174048,0.689139 0.06748,0 0.463363,-0.794314 0.41827,-0.839199 -0.0615,-0.06121 -2.123646,-1.3257963 -2.157901,-1.3233012 -0.01992,0.00143 -0.136116,0.1384417 -0.258216,0.3044162 z m 3.740878,0.454125 c -0.08862,0.195372 -0.170671,0.395437 -0.182324,0.444594 -0.01412,0.05941 0.261511,0.189823 0.822204,0.389048 0.463862,0.164821 0.853346,0.299675 0.865517,0.299675 0.01219,0 0.01331,-0.23225 0.0022,-0.516111 l -0.01974,-0.516111 -0.642777,-0.225828 c -0.353525,-0.124198 -0.652068,-0.226875 -0.663433,-0.228155 -0.01123,-0.0012 -0.09318,0.157513 -0.181795,0.352888 z m -9.8383972,-0.003 -0.3497722,0.284526 1.2371668,1.240265 1.2371654,1.240264 0.3178948,-0.357645 0.3178947,-0.357646 -1.162927,-1.167146 c -0.6396097,-0.64193 -1.1819892,-1.167146 -1.2052889,-1.167146 -0.023296,0 -0.1997593,0.128032 -0.3921336,0.284528 z m 5.1923261,0.770641 c -0.2406407,0.318727 -0.2677083,0.386218 -0.1861447,0.46412 0.052487,0.05014 0.5521547,0.37252 1.1103568,0.716405 0.558198,0.343886 1.081757,0.669015 1.163461,0.722508 0.142917,0.09358 0.156599,0.08132 0.360728,-0.323058 0.175649,-0.34796 0.196667,-0.435073 0.122081,-0.506025 -0.04956,-0.04714 -0.58482,-0.391976 -1.189495,-0.766308 L 9.5356914,10.933244 Z m -6.315474,0.193821 -0.3383029,0.298961 1.3193817,1.324814 1.3193807,1.324813 0.1889522,-0.22121 C 5.90631,13.667514 5.9895277,13.844773 4.5912109,12.444922 3.9063243,11.759284 3.3304307,11.198933 3.3114469,11.199699 c -0.018982,7.94e-4 -0.1867526,0.135924 -0.3728191,0.300354 z m 10.1842831,0.778277 c -0.07836,0.146413 -0.163991,0.104565 1.115036,0.544983 0.520986,0.179398 1.000534,0.347129 1.065656,0.372733 0.09252,0.03638 0.118279,0.01171 0.117782,-0.112921 -5.67e-4,-0.145403 -0.09905,-0.193427 -1.116276,-0.54431 -1.045749,-0.360719 -1.119831,-0.377042 -1.182206,-0.260491 z m -4.715376,0.109874 c -0.02562,0.06676 -0.01825,0.132074 0.016343,0.145162 0.034611,0.01315 0.6414148,0.386686 1.3484699,0.830217 1.1374381,0.713508 1.2951081,0.793799 1.3685111,0.696893 0.07246,-0.09568 -0.08155,-0.211897 -1.2178939,-0.918969 -0.7154665,-0.445193 -1.3386508,-0.824119 -1.3848524,-0.842058 -0.046195,-0.01795 -0.104966,0.02199 -0.130566,0.08875 z m -6.8943017,0.30595 c -0.048683,0.07878 1.0039698,1.172662 2.1580472,2.242588 0.5198646,0.481957 0.6782296,0.595354 0.7256455,0.519597 C 4.4426018,15.38335 4.1198221,15.021095 3.0897771,13.989299 2.337486,13.235727 1.6854344,12.61917 1.6407736,12.61917 c -0.044662,0 -0.1020548,0.03373 -0.1275408,0.07497 z"
     id="path99"
     class="ColorScheme-Text" />
</svg>
