<?xml version="1.0" encoding="UTF-8" standalone="no"?>
<svg
   width="64"
   height="64"
   version="1.1"
   viewBox="0 0 16.933 16.933"
   id="svg7"
   sodipodi:docname="helix.svg"
   inkscape:version="1.4.3 (0d15f75042, 2025-12-25)"
   xmlns:inkscape="http://www.inkscape.org/namespaces/inkscape"
   xmlns:sodipodi="http://sodipodi.sourceforge.net/DTD/sodipodi-0.dtd"
   xmlns="http://www.w3.org/2000/svg"
   xmlns:svg="http://www.w3.org/2000/svg"
   xmlns:rdf="http://www.w3.org/1999/02/22-rdf-syntax-ns#"
   xmlns:cc="http://creativecommons.org/ns#"
   xmlns:dc="http://purl.org/dc/elements/1.1/">
  <sodipodi:namedview
     id="namedview7"
     pagecolor="#9c4444"
     bordercolor="#000000"
     borderopacity="0.25"
     inkscape:showpageshadow="2"
     inkscape:pageopacity="0.0"
     inkscape:pagecheckerboard="0"
     inkscape:deskcolor="#d1d1d1"
     inkscape:zoom="4.3531262"
     inkscape:cx="89.935366"
     inkscape:cy="34.457995"
     inkscape:window-width="2560"
     inkscape:window-height="1388"
     inkscape:window-x="0"
     inkscape:window-y="0"
     inkscape:window-maximized="1"
     inkscape:current-layer="svg7"
     showgrid="false" />
  <defs
     id="defs2">
    <style
       id="current-color-scheme"
       type="text/css">.ColorScheme-Text {color:#d8dee9} .ColorScheme-Highlight {color:#3b4252}</style>
  </defs>
  <metadata
     id="metadata2">
    <rdf:RDF>
      <cc:Work
         rdf:about="">
        <dc:format>image/svg+xml</dc:format>
        <dc:type
           rdf:resource="http://purl.org/dc/dcmitype/StillImage" />
      </cc:Work>
    </rdf:RDF>
  </metadata>
  <path
     id="path5"
     style="fill:currentColor"
     d="m 4.8264745,13.784887 a 0.54432228,0.54432228 0 0 0 -0.200133,0.200009 c -0.149689,0.259283 -0.06263,0.594286 0.19388,0.746969 h -9.4e-5 l -0.447266,-0.258196 a 0.73945903,0.73945903 0 0 1 -0.369745,-0.64037 v -1.643828 c 0,-0.264247 0.140937,-0.508324 0.369745,-0.64037 l 7.7337365,-4.4645915 0.0037,-0.002 c 0.07898,-0.0464 0.147407,-0.11312 0.196285,-0.19799 0.149735,-0.25929 0.06269,-0.59429 -0.193803,-0.74697 h 1.53e-4 l 0.447188,0.25835 a 0.73914867,0.73914867 0 0 1 0.369761,0.64037 v 1.643827 c 0,0.264093 -0.140891,0.508324 -0.369761,0.64037 l -0.459757,0.265334 0.0062,-0.0039 z m 0,-3.9362495 a 0.543593,0.543593 0 0 0 -0.200133,0.2001635 c -0.149689,0.259128 -0.06263,0.594285 0.19388,0.746814 h -9.4e-5 L 4.3728615,10.537419 A 0.73927283,0.73927283 0 0 1 4.0031175,9.8970485 v -1.643829 c 0,-0.26425 0.140937,-0.50832 0.369745,-0.64037 l 7.7337355,-4.46459 0.0037,-0.002 a 0.54249132,0.54249132 0 0 0 0.196285,-0.19793 c 0.149736,-0.25925 0.06269,-0.59429 -0.193802,-0.74692 h 1.52e-4 l 0.447189,0.25822 a 0.73933487,0.73933487 0 0 1 0.369761,0.64042 v 1.6438 c 0,0.26424 -0.140891,0.50832 -0.369761,0.64037 l -0.459757,0.26549 0.0062,-0.004 z m 1.51564,-0.67186 -1.427679,0.8242585 a 0.17593624,0.17593624 0 0 1 -2.41e-4,1.52e-4 c -0.05627,0.03238 -0.102954,0.07906 -0.135346,0.135378 a 0.17593624,0.17593624 0 0 1 -1.53e-4,3.1e-4 c -0.102045,0.176651 -0.04279,0.403963 0.131436,0.507561 a 0.17593624,0.17593624 0 0 1 0.06237,0.239296 l 0.100556,0.05807 2.163166,-1.2487815 c -0.309508,-0.178693 -0.609829,-0.35207 -0.894113,-0.516199 z m 3.408892,1.9681245 -2.16302,1.248813 5.3418325,3.084105 v -2.074405 a 0.73281789,0.73281789 0 0 0 -0.36649,-0.634787 C 12.025518,12.458098 10.954922,11.839985 9.7510065,11.144902 Z M 4.0031375,1.4551795 v 2.0744 a 0.73308168,0.73308168 0 0 0 0.36649,0.63494 c 0.537786,0.31052 1.608321,0.9286 2.812171,1.62364 l 2.163262,-1.24881 z m 7.8566115,4.53603 -2.1631405,1.24887 c 0.3095635,0.17873 0.6099325,0.35214 0.8942645,0.51629 l 1.426831,-0.82368 0.0035,-0.002 c 0.05374,-0.0316 0.09959,-0.0762 0.132922,-0.13407 a 0.17593624,0.17593624 0 0 1 1.52e-4,-1.9e-4 c 0.102149,-0.17688 0.04287,-0.40403 -0.131466,-0.50781 a 0.17593624,0.17593624 0 0 1 -0.06231,-0.2392 z"
     class="ColorScheme-Text" />
</svg>
