<?xml version="1.0" encoding="UTF-8" standalone="no"?>
<svg
   id="svg3297"
   height="64"
   width="64"
   version="1.0"
   sodipodi:docname="device_usb copy.svg"
   inkscape:version="1.4.2 (ebf0e940d0, 2025-05-08)"
   xmlns:inkscape="http://www.inkscape.org/namespaces/inkscape"
   xmlns:sodipodi="http://sodipodi.sourceforge.net/DTD/sodipodi-0.dtd"
   xmlns="http://www.w3.org/2000/svg"
   xmlns:svg="http://www.w3.org/2000/svg"
   xmlns:rdf="http://www.w3.org/1999/02/22-rdf-syntax-ns#"
   xmlns:cc="http://creativecommons.org/ns#"
   xmlns:dc="http://purl.org/dc/elements/1.1/">
  <sodipodi:namedview
     id="namedview1"
     pagecolor="#9c4444"
     bordercolor="#000000"
     borderopacity="0.25"
     inkscape:showpageshadow="2"
     inkscape:pageopacity="0.0"
     inkscape:pagecheckerboard="0"
     inkscape:deskcolor="#d1d1d1"
     inkscape:zoom="13.09375"
     inkscape:cx="35.322195"
     inkscape:cy="31.007159"
     inkscape:window-width="2560"
     inkscape:window-height="1388"
     inkscape:window-x="0"
     inkscape:window-y="0"
     inkscape:window-maximized="1"
     inkscape:current-layer="svg3297" />
  <metadata
     id="metadata58">
    <rdf:RDF>
      <cc:Work
         rdf:about="">
        <dc:format>image/svg+xml</dc:format>
        <dc:type
           rdf:resource="http://purl.org/dc/dcmitype/StillImage" />
      </cc:Work>
    </rdf:RDF>
  </metadata>
  <defs
     id="defs3299">
    <style
       id="current-color-scheme"
       type="text/css">.ColorScheme-Text {color:#d8dee9} .ColorScheme-Highlight {color:#3b4252}</style>
  </defs>
  <path
     id="path5"
     style="fill:currentColor;fill-opacity:1;stroke-width:0.946429"
     d="m 14.964285,5.5 c -3.136464,0 -5.6785705,2.542107 -5.6785705,5.678571 v 29.339286 0.946429 H 54.714286 V 40.517857 11.178571 C 54.714286,8.042107 52.172178,5.5 49.035714,5.5 Z m 20.96746,5.491873 c 0.884294,0 1.747227,0.153785 2.589739,0.462124 l -0.484305,2.558315 C 37.521005,13.851554 37.030921,13.76831 36.56393,13.76831 c -0.245889,0 -0.441251,0.03243 -0.5527,0.155274 -0.125651,0.138462 -0.151576,0.418723 -0.151576,0.798549 l 1.528703,0.353063 0.488003,2.391949 -2.016706,0.373396 v 6.983608 c 0,0.298687 -0.119741,0.569543 -0.312396,0.765276 -0.192687,0.195738 -0.458328,0.316093 -0.752336,0.316093 h -1.192279 c -0.294033,0 -0.559653,-0.120359 -0.752336,-0.316093 -0.19269,-0.195734 -0.312396,-0.466589 -0.312396,-0.765276 v -6.924456 h -1.027762 l -0.482457,-2.369769 1.510219,-0.377092 v -0.47876 c 0,-0.915411 0.104235,-1.59437 0.29391,-2.044433 0.205398,-0.487399 0.578195,-0.890399 1.131279,-1.197824 0.518719,-0.288333 1.173993,-0.439942 1.968645,-0.439942 z M 16.029018,11.23033 h 1.190429 c 0.294013,0 0.56151,0.120364 0.754186,0.316092 0.192673,0.19574 0.310546,0.466587 0.310546,0.765276 v 1.033307 c 0,0.298692 -0.117895,0.567689 -0.310546,0.763428 -0.192675,0.195731 -0.460173,0.317942 -0.754186,0.317942 h -1.190429 c -0.294014,0 -0.559664,-0.122214 -0.752337,-0.317942 -0.192682,-0.195739 -0.312396,-0.464736 -0.312396,-0.763428 v -1.033307 c 0,-0.298689 0.119743,-0.569536 0.312396,-0.765276 0.192673,-0.195735 0.458323,-0.316092 0.752337,-0.316092 z m 10.414411,3.617501 c 0.628253,0 1.200968,0.117569 1.720947,0.349365 0.541103,0.241213 0.946662,0.552407 1.223702,0.926095 0.274101,0.369748 0.465456,0.789437 0.573033,1.258824 0.100389,0.437885 0.153425,1.063591 0.153425,1.879918 v 5.562116 c 0,0.298687 -0.119742,0.569543 -0.312395,0.765276 -0.192689,0.195738 -0.458323,0.316093 -0.752337,0.316093 h -1.190429 c -0.294023,0 -0.561504,-0.120359 -0.754185,-0.316093 -0.192684,-0.195734 -0.310547,-0.466589 -0.310547,-0.765276 v -4.438232 c 0,-1.027693 -0.04268,-1.695916 -0.14788,-1.998221 -0.08494,-0.243989 -0.220701,-0.435514 -0.412214,-0.571185 -0.194629,-0.137868 -0.429645,-0.201486 -0.702427,-0.201486 -0.376601,0 -0.715409,0.104521 -1.014823,0.316093 -0.293349,0.207297 -0.493837,0.482304 -0.602609,0.824427 -0.126852,0.398869 -0.183,1.13625 -0.183,2.210799 v 3.857805 c 0,0.298687 -0.119746,0.569542 -0.312396,0.765276 -0.192677,0.195738 -0.458323,0.316093 -0.752336,0.316093 h -1.19043 c -0.294018,0 -0.559657,-0.120359 -0.752336,-0.316093 -0.19267,-0.195734 -0.312396,-0.466589 -0.312396,-0.765276 v -8.667585 c 0,-0.298682 0.119746,-0.567692 0.312396,-0.763428 0.19268,-0.195739 0.458318,-0.317943 0.752336,-0.31794 h 1.00558 c 0.294021,0 0.559657,0.122206 0.752337,0.31794 0.158074,0.160584 0.265542,0.370823 0.299456,0.606306 0.819161,-0.770446 1.791092,-1.151611 2.909528,-1.151611 z m 17.137381,0 c 1.597644,0 2.902642,0.535162 3.922504,1.597098 1.017595,1.0596 1.5324,2.397096 1.5324,4.016776 0,1.631987 -0.518559,2.983226 -1.545339,4.055594 -1.030474,1.076233 -2.326112,1.617431 -3.89108,1.617431 -0.959897,0 -1.875679,-0.222666 -2.74686,-0.667306 -0.888114,-0.453286 -1.563512,-1.117119 -2.025948,-1.992675 -0.452018,-0.855809 -0.682095,-1.896474 -0.682095,-3.125802 0,-0.945763 0.225227,-1.861724 0.680245,-2.746862 0.461005,-0.896819 1.114394,-1.581402 1.959403,-2.053675 0.834562,-0.466428 1.767271,-0.700579 2.79677,-0.700579 z m -27.551792,0.227365 h 1.190429 c 0.294013,0 0.56151,0.122206 0.754186,0.31794 0.192673,0.195736 0.310546,0.464746 0.310546,0.763428 v 8.667585 c 0,0.298687 -0.117894,0.569543 -0.310546,0.765276 -0.192675,0.195738 -0.460173,0.316093 -0.754186,0.316093 h -1.190429 c -0.294013,0 -0.559663,-0.120359 -0.752336,-0.316093 C 15.084,25.393691 14.964286,25.122836 14.964286,24.824149 v -8.667585 c 0,-0.298682 0.119743,-0.567692 0.312396,-0.763428 0.192673,-0.195739 0.458323,-0.317943 0.752336,-0.31794 z m 27.561035,2.67292 c -0.576565,0 -1.060212,0.227739 -1.452916,0.678398 -0.416324,0.477779 -0.608155,1.171278 -0.608155,2.064767 0,0.893488 0.191831,1.586982 0.608155,2.064766 0.392706,0.450656 0.876351,0.678397 1.452916,0.678397 0.57591,0 1.057701,-0.228203 1.447371,-0.678397 0.414133,-0.478441 0.604456,-1.179164 0.604456,-2.0851 0,-0.881888 -0.1911,-1.568752 -0.604456,-2.046282 -0.389669,-0.450191 -0.87146,-0.676549 -1.447371,-0.676549 z M 9.2857145,42.410714 v 10.410715 c 0,3.136464 2.5421065,5.678571 5.6785705,5.678571 h 34.071429 c 3.136464,0 5.678572,-2.542107 5.678572,-5.678571 V 42.410714 Z M 15.910714,45.25 h 1.892857 C 18.326,45.25 18.75,45.674 18.75,46.196429 V 51.875 c 0,0.522429 -0.424,0.946429 -0.946429,0.946429 h -1.892857 c -0.522429,0 -0.946429,-0.424 -0.946429,-0.946429 v -5.678571 c 0,-0.522429 0.424,-0.946429 0.946429,-0.946429 z m 5.678571,0 c 0.522429,0 0.946429,0.424 0.946429,0.946429 V 51.875 c 0,0.522429 -0.424,0.946429 -0.946429,0.946429 -0.522428,0 -0.946428,-0.424 -0.946428,-0.946429 v -5.678571 c 0,-0.522429 0.424,-0.946429 0.946428,-0.946429 z m 3.785715,0 h 5.678572 C 31.576001,45.25 32,45.674 32,46.196429 V 51.875 c 0,0.522429 -0.424,0.946429 -0.946428,0.946429 h -5.678571 c -0.522429,0 -0.946429,-0.424 -0.946429,-0.946429 V 46.196429 C 24.428572,45.674 24.852572,45.25 25.375,45.25 Z m 9.464286,0 c 0.522428,0 0.946428,0.424 0.946428,0.946429 V 51.875 c 0,0.522429 -0.424,0.946429 -0.946428,0.946429 -0.522429,0 -0.946428,-0.424 -0.946428,-0.946429 v -5.678571 c 0,-0.522429 0.424,-0.946429 0.946428,-0.946429 z m 3.785714,0 c 0.522429,0 0.946428,0.424 0.946428,0.946429 V 51.875 c 0,0.522429 -0.424,0.946429 -0.946428,0.946429 -0.522429,0 -0.946428,-0.424 -0.946428,-0.946429 V 46.196429 C 37.678572,45.674 38.102572,45.25 38.625,45.25 Z m 3.785714,0 h 1.892858 c 0.522429,0 0.946428,0.424 0.946428,0.946429 V 51.875 c 0,0.522429 -0.424,0.946429 -0.946428,0.946429 h -1.892858 c -0.522429,0 -0.946428,-0.424 -0.946428,-0.946429 V 46.196429 C 41.464286,45.674 41.888285,45.25 42.410714,45.25 Z m 5.678572,0 c 0.522428,0 0.946428,0.424 0.946428,0.946429 V 51.875 c 0,0.522429 -0.424,0.946429 -0.946428,0.946429 -0.522429,0 -0.946428,-0.424 -0.946428,-0.946429 v -5.678571 c 0,-0.522429 0.424,-0.946429 0.946428,-0.946429 z"
     class="ColorScheme-Text" />
</svg>
