<?xml version="1.0" encoding="UTF-8" standalone="no"?>
<svg
   width="64"
   height="64"
   version="1.1"
   viewBox="0 0 16.933 16.933"
   id="svg7"
   sodipodi:docname="io.github.nokse22.high-tide.svg"
   inkscape:version="1.4.2 (ebf0e940d0, 2025-05-08)"
   xmlns:inkscape="http://www.inkscape.org/namespaces/inkscape"
   xmlns:sodipodi="http://sodipodi.sourceforge.net/DTD/sodipodi-0.dtd"
   xmlns="http://www.w3.org/2000/svg"
   xmlns:svg="http://www.w3.org/2000/svg"
   xmlns:rdf="http://www.w3.org/1999/02/22-rdf-syntax-ns#"
   xmlns:cc="http://creativecommons.org/ns#"
   xmlns:dc="http://purl.org/dc/elements/1.1/">
  <sodipodi:namedview
     id="namedview7"
     pagecolor="#9c4444"
     bordercolor="#000000"
     borderopacity="0.25"
     inkscape:showpageshadow="2"
     inkscape:pageopacity="0.0"
     inkscape:pagecheckerboard="0"
     inkscape:deskcolor="#d1d1d1"
     inkscape:zoom="8.7062522"
     inkscape:cx="83.847789"
     inkscape:cy="47.207454"
     inkscape:window-width="2560"
     inkscape:window-height="1392"
     inkscape:window-x="0"
     inkscape:window-y="0"
     inkscape:window-maximized="1"
     inkscape:current-layer="svg7"
     showgrid="false" />
  <defs
     id="defs2">
    <style
       id="current-color-scheme"
       type="text/css">.ColorScheme-Text {color:#d8dee9} .ColorScheme-Highlight {color:#3b4252}</style>
  </defs>
  <metadata
     id="metadata2">
    <rdf:RDF>
      <cc:Work
         rdf:about="">
        <dc:format>image/svg+xml</dc:format>
        <dc:type
           rdf:resource="http://purl.org/dc/dcmitype/StillImage" />
      </cc:Work>
    </rdf:RDF>
  </metadata>
  <path
     id="path15"
     class="ColorScheme-Text"
     d="M 8.466271,1.4551798 C 4.593941,1.4556383 1.45518,4.5942964 1.45518,8.4665001 1.454722,12.338704 4.593941,15.47782 8.466271,15.47782 c 3.87233,0 7.011549,-3.139116 7.011549,-7.0113199 0,-3.8722037 -3.139219,-7.0113203 -7.011549,-7.0113203 z m -0.0044,0.3223016 H 8.4621 c 1.372066,-0.036972 2.993264,0.4656648 4.303532,1.5606182 1.310337,1.0950124 2.30257,2.7903583 2.390061,5.1070818 a 0.1760743,0.17606854 0 0 1 2.29e-4,0.00665 c 0,3.4240006 -2.750367,6.6894766 -6.689696,6.6894766 -3.069722,0 -5.661975,-2.02762 -6.131266,-4.901459 C 2.26579,9.8164663 2.24138,9.4303415 2.25473,9.0799287 a 0.17605669,0.17605094 0 0 1 -0.0037,0 0.17605669,0.17605094 0 0 1 -0.176057,-0.176051 c 0,-0.9224093 0.15396,-1.7529878 0.441976,-2.4502715 A 0.17605669,0.17605094 0 0 1 2.500209,6.4476462 0.17605669,0.17605094 0 0 1 2.403929,6.2179549 C 3.065424,4.6052473 3.919274,3.7746688 4.756624,3.4346079 5.175299,3.2645826 5.584887,3.2186188 5.956927,3.2539722 c 0.37204,0.035353 0.706504,0.1519681 0.974502,0.3071723 0.388192,0.2248581 0.707714,0.634066 0.886014,1.1104045 0.1783,0.4763377 0.213049,1.028214 -0.01146,1.526004 A 0.17605669,0.17605094 0 0 1 7.573075,6.285578 0.17605669,0.17605094 0 0 1 7.485045,6.0526773 C 7.663615,5.6569154 7.639908,5.2016564 7.487645,4.7948744 7.335371,4.3880922 7.05222,4.0381953 6.754983,3.8660221 6.306161,3.6060993 5.619046,3.4644002 4.889194,3.7608042 4.372689,3.9705654 3.825176,4.4026056 3.323253,5.1880089 3.703468,4.7917685 4.162831,4.5030564 4.690901,4.3442021 4.879783,4.2873953 5.072432,4.258723 5.263085,4.2557182 5.835048,4.2466882 6.387752,4.4677262 6.757504,4.8457642 7.004006,5.0977891 7.168175,5.4258628 7.18458,5.7959348 7.20098,6.1660079 7.069163,6.5698377 6.760943,6.9714416 A 0.1760743,0.17606854 0 0 1 6.445508,6.8533863 C 6.471696,6.4279736 6.273284,6.0822525 5.937282,5.8702061 5.60128,5.6581586 5.124108,5.587148 4.601727,5.7624667 4.213068,5.8929461 3.854198,6.2312904 3.570832,6.6083365 3.761269,6.5038514 3.961012,6.4300187 4.161585,6.3850635 4.732286,6.2571532 5.312763,6.3549465 5.7328,6.6450136 6.152836,6.9350799 6.399378,7.4432804 6.259594,8.037375 A 0.1760743,0.17606854 0 0 1 5.924903,8.06282 C 5.843783,7.8616081 5.626784,7.6979789 5.331637,7.621777 5.036489,7.545576 4.674672,7.561759 4.350488,7.696049 4.026303,7.8303372 3.738593,8.0767176 3.56511,8.4740658 3.391626,8.871415 3.332357,9.4281366 3.50207,10.183456 c 0.528355,2.349551 2.485785,3.790137 5.01005,3.790139 3.248287,0 5.495811,-2.689989 5.495811,-5.4956325 0,-2.5980611 -2.058816,-5.497007 -5.485266,-5.497007 -0.379231,0 -0.532848,7.672e-4 -1.100583,0.1118657 A 0.17605669,0.17605094 0 0 1 7.215536,2.9536768 0.17605669,0.17605094 0 0 1 7.354685,2.7471379 c 0.580301,-0.1135541 0.78705,-0.1182842 1.16798,-0.1182842 3.624988,0 5.83738,3.0647789 5.83738,5.8491088 0,2.9939505 -2.40514,5.8477325 -5.847925,5.8477345 -2.660237,0 -4.790624,-1.562365 -5.353453,-4.065218 C 2.976953,9.4517402 3.032563,8.8140878 3.242567,8.3330875 3.452574,7.8520868 3.816968,7.5360287 4.215922,7.3707674 4.614877,7.2055058 5.047292,7.1847687 5.419664,7.2809074 5.605406,7.3288614 5.779045,7.4072858 5.923306,7.5154128 5.876313,7.2734726 5.741558,7.0790096 5.532681,6.9347653 5.209348,6.7114788 4.720589,6.6206587 4.238618,6.7286848 3.779228,6.8316489 3.328281,7.1074578 3.014703,7.6091685 c -0.0015,0.00235 -0.0029,0.00475 -0.0044,0.00711 -0.01389,0.02241 -0.02747,0.045233 -0.0408,0.068541 C 2.655,8.2346253 2.496608,9.0451424 2.682494,10.183001 c 0.440336,2.696521 2.868449,4.606207 5.783738,4.606207 3.743834,0 6.335993,-3.100092 6.337353,-6.3348535 C 14.718605,6.2331242 13.779958,4.6446681 12.539875,3.6083654 11.298994,2.571396 9.74945,2.0950951 8.471544,2.1295832 a 0.1760743,0.17606854 0 0 0 -2.3e-4,0 C 7.760711,2.1483892 6.862968,2.2839043 6.420988,2.4681604 A 0.17605669,0.17605094 0 0 1 6.190601,2.3734874 0.17605669,0.17605094 0 0 1 6.285281,2.1431082 C 6.819813,1.9202675 7.717347,1.7972063 8.46192,1.7774815 Z M 8.568468,3.507732 h 2.29e-4 c 1.603835,0.020627 2.844363,0.7025507 3.676559,1.6568961 0.832231,0.954391 1.263632,2.1761103 1.279849,3.2993506 0.03818,2.6213703 -2.216994,4.9617483 -4.959388,4.9617483 -1.881508,0 -3.809413,-0.817697 -4.465605,-2.588728 C 3.833411,10.116545 3.81034,9.5372567 3.947254,9.0978078 4.084168,8.6583586 4.385632,8.3667676 4.725754,8.2423103 5.065877,8.1178541 5.444205,8.1544423 5.739914,8.3500497 6.035623,8.5456589 6.237132,8.9060532 6.226592,9.3708241 A 0.1760743,0.17606854 0 0 1 5.960214,9.5179917 C 5.623374,9.316498 5.409597,9.2957744 5.309171,9.33025 5.208746,9.364724 5.149481,9.4547441 5.127842,9.6459039 c -0.04328,0.3823191 0.164967,1.0520091 0.521293,1.4966621 0.53806,0.671414 1.819485,1.126157 2.938863,1.119116 1.238662,-0.0077 2.168606,-0.497992 2.804987,-1.215394 0.63638,-0.717401 0.973704,-1.6679046 0.991923,-2.5832264 C 12.424138,6.4704984 10.689061,4.619081 8.568512,4.647937 A 0.17605669,0.17605094 0 0 1 8.390163,4.4741785 0.17605669,0.17605094 0 0 1 8.563927,4.2958351 c 2.326717,-0.031661 4.216396,1.9744539 4.173094,4.1741034 -0.01983,0.9964814 -0.383184,2.0236865 -1.080639,2.8099385 -0.697456,0.786252 -1.73451,1.325596 -3.066092,1.333907 C 7.378751,12.621414 6.027579,12.177563 5.374505,11.36263 4.957832,10.842671 4.717568,10.140285 4.778021,9.6062465 4.808251,9.3392264 4.938837,9.085038 5.19478,8.9971745 5.371211,8.9366075 5.584774,8.9821655 5.817856,9.0741965 5.764866,8.8852353 5.678445,8.7316263 5.545518,8.6436972 5.349248,8.5138666 5.086076,8.4852223 4.846564,8.5728642 4.607052,8.6605062 4.390805,8.8583125 4.283549,9.2025673 4.176293,9.5468231 4.182594,10.045659 4.430263,10.714588 c 0.589959,1.592274 2.355577,2.359037 4.135498,2.359037 2.541141,0 4.642454,-2.189267 4.607275,-4.6046035 C 13.158077,7.4328868 12.753668,6.2830766 11.980069,5.3959242 11.206471,4.5087718 10.07123,3.8791574 8.563927,3.8598339 a 0.1760743,0.17606854 0 0 0 -2.29e-4,0 c -0.131469,-0.0019 -0.28074,-0.0097 -0.573789,0.03599 A 0.17605669,0.17605094 0 0 1 7.788865,3.7488852 0.17605669,0.17605094 0 0 1 7.935809,3.5478479 C 8.254258,3.4981898 8.446893,3.5059599 8.568513,3.507732 Z M 5.268321,4.6098843 C 5.108938,4.6113923 4.948199,4.6342546 4.792189,4.6811757 3.579521,5.0459697 2.746231,6.1871138 2.501618,7.845508 2.549788,7.7264457 2.604083,7.6147461 2.66392,7.5101401 2.67705,7.4871901 2.6904,7.4645251 2.70404,7.4422871 2.952631,6.7737088 3.571242,5.7370893 4.489824,5.4287045 5.101266,5.2234959 5.691896,5.2989641 6.125225,5.5724334 6.408191,5.7510091 6.611195,6.0225723 6.716436,6.3389887 6.795026,6.1515449 6.839803,5.9726311 6.832661,5.8115234 6.82044,5.534843 6.701109,5.2914113 6.505806,5.0917321 6.212853,4.792213 5.746516,4.6053611 5.268366,4.6098843 Z m 3.19795,1.8535779 c 1.106314,0 2.003103,0.8967595 2.003103,2.0030379 0,1.1062784 -0.896789,2.0030379 -2.003103,2.0030379 -1.106315,0 -2.003103,-0.8967595 -2.003103,-2.0030379 0,-1.1062784 0.896788,-2.0030379 2.003103,-2.0030379 z m 0,0.2425285 c -0.972362,0 -1.760567,0.7881795 -1.760567,1.7605094 0,0.9723299 0.788205,1.7605099 1.760567,1.7605099 0.972361,0 1.760567,-0.78818 1.760567,-1.7605099 0,-0.9723299 -0.788206,-1.7605094 -1.760567,-1.7605094 z m -0.0041,1.2983758 c 0.255079,0 0.46192,0.2070633 0.46192,0.4621336 0,0.2550702 -0.206841,0.4621338 -0.46192,0.4621338 -0.255482,0 -0.462149,-0.2070636 -0.462149,-0.4621338 0,-0.2550703 0.206667,-0.4621336 0.462149,-0.4621336 z"
     style="fill:currentColor;fill-opacity:1;stroke-width:0.117369" />
</svg>
