<?xml version='1.0' encoding='UTF-8'?>
<svg xmlns:inkscape="http://www.inkscape.org/namespaces/inkscape" xmlns:sodipodi="http://sodipodi.sourceforge.net/DTD/sodipodi-0.dtd" xmlns="http://www.w3.org/2000/svg" xmlns:svg="http://www.w3.org/2000/svg" xmlns:rdf="http://www.w3.org/1999/02/22-rdf-syntax-ns#" xmlns:cc="http://creativecommons.org/ns#" xmlns:dc="http://purl.org/dc/elements/1.1/" width="64" height="64" version="1.1" viewBox="0 0 16.933 16.933" id="svg7" sodipodi:docname="io.github.amit9838.mousam.svg" inkscape:version="1.4 (e7c3feb100, 2024-10-09)">
  <sodipodi:namedview id="namedview7" pagecolor="#9c4444" bordercolor="#000000" borderopacity="0.25" inkscape:showpageshadow="2" inkscape:pageopacity="0.0" inkscape:pagecheckerboard="0" inkscape:deskcolor="#d1d1d1" inkscape:zoom="6.15625" inkscape:cx="15.51269" inkscape:cy="29.725888" inkscape:window-width="1183" inkscape:window-height="941" inkscape:window-x="35" inkscape:window-y="32" inkscape:window-maximized="0" inkscape:current-layer="svg7" showgrid="false"/>
  <defs id="defs2">
    <style id="current-color-scheme" type="text/css">.ColorScheme-Text {color:#d8dee9} .ColorScheme-Highlight {color:#3b4252}</style></defs>
  <metadata id="metadata2">
    <rdf:RDF>
      <cc:Work rdf:about="">
        <dc:format>image/svg+xml</dc:format>
        <dc:type rdf:resource="http://purl.org/dc/dcmitype/StillImage"/>
      </cc:Work>
    </rdf:RDF>
  </metadata>
  <path style="fill:currentColor;fill-opacity:1;stroke:none;stroke-width:0.468549;stroke-dasharray:none;stroke-opacity:0.3" d="M 2.7507336,15.344731 C 1.9821094,15.076818 1.4178736,14.507872 1.2290892,13.810399 1.097612,13.324649 1.1870735,12.642433 1.441786,12.188435 1.9322249,11.314276 3.1100037,10.811505 4.0415211,11.078663 l 0.2318632,0.0665 0.047576,-0.455183 C 4.4424853,9.5272756 5.2981313,8.5034509 6.4534939,8.1382872 6.6788636,8.0670572 6.8783231,7.9961604 6.89674,7.9807377 6.9151523,7.9653221 6.5852156,7.6065101 6.163537,7.1833906 L 5.3968475,6.4140836 6.1486764,5.6845396 6.9005065,4.9549966 V 3.923222 2.8914473 H 7.9685661 9.036627 L 9.7940713,2.176912 10.551516,1.4623783 10.905194,1.7612709 c 0.194526,0.1643899 0.536928,0.4859299 0.760894,0.7145334 l 0.40722,0.415643 h 1.064197 1.064196 v 1.0288082 1.0288082 l 0.787086,0.7319201 0.787094,0.7319205 -0.787094,0.7412878 -0.787086,0.7412884 V 8.8950582 9.894636 h -1.011349 -1.011347 l -0.595833,0.540139 -0.595828,0.540138 0.511734,0.04694 c 0.658229,0.06038 1.163703,0.315451 1.611001,0.812953 0.767628,0.853789 0.757211,1.99417 -0.02605,2.851175 -0.227843,0.249299 -0.519817,0.472146 -0.76201,0.581605 l -0.392634,0.17746 -4.3956174,0.01729 c -4.0785835,0.01615 -4.4235641,0.0076 -4.7830441,-0.117686 z M 11.222136,9.4114282 C 12.248119,9.2830817 13.276258,8.3733516 13.607558,7.3007258 14.162707,5.5033534 12.990538,3.7206584 11.041166,3.3976375 10.074523,3.2374595 9.0816657,3.5502391 8.3447938,4.2470768 7.3981637,5.1422757 7.1130643,6.5624025 7.6622867,7.6467658 7.81297,7.9442684 7.8772663,7.995214 8.241544,8.1057357 8.9845694,8.3311682 9.6705716,8.7854628 9.9292728,9.2234105 10.017475,9.372722 10.128448,9.448361 10.28561,9.4662852 c 0.231489,0.026404 0.335794,0.020292 0.936526,-0.054857 z" id="path53290" class="ColorScheme-Text"/>
  <g id="g9" transform="matrix(0.46959567,0,0,0.46959567,4.7471229,3.7470598)" style="fill:#999999;fill-opacity:1;stroke:none;stroke-width:0.58349;stroke-dasharray:none;stroke-opacity:0.3"/>
  </svg>
