<?xml version="1.0" encoding="UTF-8" standalone="no"?>
<svg
   width="64"
   height="64"
   version="1.1"
   viewBox="0 0 16.933 16.933"
   id="svg7"
   sodipodi:docname="itch.io.svg"
   inkscape:version="1.4.3 (0d15f75042, 2025-12-25)"
   xmlns:inkscape="http://www.inkscape.org/namespaces/inkscape"
   xmlns:sodipodi="http://sodipodi.sourceforge.net/DTD/sodipodi-0.dtd"
   xmlns="http://www.w3.org/2000/svg"
   xmlns:svg="http://www.w3.org/2000/svg"
   xmlns:rdf="http://www.w3.org/1999/02/22-rdf-syntax-ns#"
   xmlns:cc="http://creativecommons.org/ns#"
   xmlns:dc="http://purl.org/dc/elements/1.1/">
  <sodipodi:namedview
     id="namedview7"
     pagecolor="#9c4444"
     bordercolor="#000000"
     borderopacity="0.25"
     inkscape:showpageshadow="2"
     inkscape:pageopacity="0.0"
     inkscape:pagecheckerboard="0"
     inkscape:deskcolor="#d1d1d1"
     inkscape:zoom="4.3531262"
     inkscape:cx="89.935366"
     inkscape:cy="34.457995"
     inkscape:window-width="2560"
     inkscape:window-height="1388"
     inkscape:window-x="0"
     inkscape:window-y="0"
     inkscape:window-maximized="1"
     inkscape:current-layer="svg7"
     showgrid="false" />
  <defs
     id="defs2">
    <style
       id="current-color-scheme"
       type="text/css">.ColorScheme-Text {color:#d8dee9} .ColorScheme-Highlight {color:#3b4252}</style>
  </defs>
  <metadata
     id="metadata2">
    <rdf:RDF>
      <cc:Work
         rdf:about="">
        <dc:format>image/svg+xml</dc:format>
        <dc:type
           rdf:resource="http://purl.org/dc/dcmitype/StillImage" />
      </cc:Work>
    </rdf:RDF>
  </metadata>
  <path
     id="path5"
     d="m 7.3346968,9.9147826 -1.112373,1.1932864 h 1.0958719 v 1.230193 H 9.5029288 V 11.108069 H 10.671728 L 9.5591768,9.9147826 8.4469818,8.7214969 Z M 6.8591408,5.7546469 c -0.08251,0.147275 -0.185829,0.280976 -0.304803,0.39924 -0.327111,0.325248 -0.775546,0.526776 -1.269806,0.526776 -0.494527,0 -0.945558,-0.201523 -1.27258,-0.526949 -0.11853,-0.117998 -0.20843,-0.244522 -0.29094,-0.391443 l -5.36e-4,3.45e-4 c -0.08251,0.147276 -0.197269,0.273268 -0.316066,0.391443 -0.327111,0.325248 -0.778319,0.526776 -1.272579,0.526776 -0.127225,0 -0.451918,-0.07503 -0.451918,-0.07503 V 15.47782 H 15.342831 V 6.5560749 c -0.204056,0.0802 -0.375619,0.124762 -0.607178,0.124762 -0.494792,0 -0.94538,-0.20135 -1.27258,-0.526775 -0.11853,-0.118176 -0.219782,-0.252232 -0.302203,-0.399241 -0.08251,0.147275 -0.186357,0.280888 -0.304975,0.399241 -0.3272,0.324981 -0.77537,0.526775 -1.269807,0.526775 -0.494615,0 -0.945469,-0.201523 -1.27258,-0.526949 -0.11853,-0.118175 -0.222555,-0.25232 -0.304975,-0.39924 -0.08251,0.147275 -0.1831452,0.280888 -0.3020302,0.39924 -0.3272,0.324982 -0.778054,0.526776 -1.27258,0.526776 -0.494526,0 -0.945468,-0.20135 -1.272579,-0.526776 -0.118619,-0.117997 -0.219782,-0.25232 -0.302203,-0.399241 z m -1.173463,1.647214 c 0.595933,0 1.019794,0.385781 1.169997,0.967431 H 10.14941 c 0.149937,-0.58165 0.57103,-0.967431 1.167052,-0.967431 0.946644,0 1.987375,0.971996 2.312269,2.159781 l 0.776301,2.8360991 c 0.324982,1.187785 -0.184538,2.159781 -1.131182,2.159781 -0.831042,0 -1.734479,-0.748674 -2.162554,-1.735242 H 5.8908438 c -0.427986,0.986568 -1.331424,1.735242 -2.162554,1.735242 -0.946821,0 -1.456164,-0.971823 -1.131182,-2.159608 l 0.776301,-2.8362721 c 0.324893,-1.187963 1.365448,-2.159781 2.312269,-2.159781 z m -3.030347,-5.942108 -2.04056355,2.395444 v 0.68208 c 0,0.864667 0.79493255,1.624644 1.51658255,1.624644 0.866529,0 1.588534,-0.730345 1.588623,-1.596963 0,0.866618 0.697074,1.596963 1.563692,1.596963 0.866618,0 1.541513,-0.730345 1.541513,-1.596963 0,0.866618 0.741434,1.596963 1.608052,1.596963 0.866441,0 1.5858732,-0.730345 1.5858732,-1.596963 0,0.866618 0.700002,1.596963 1.566443,1.596963 0.866618,0 1.538762,-0.730345 1.538762,-1.596963 0,0.866618 0.744362,1.596963 1.610803,1.596963 0.866618,0 1.583122,-0.730345 1.583122,-1.596963 v -0.709761 l -2.218004,-2.395444 c -3.872279,-0.01029 -11.4448983,0 -11.4448982,0 z"
     style="fill:currentColor"
     class="ColorScheme-Text" />
</svg>
