<?xml version="1.0" encoding="UTF-8" standalone="no"?>
<svg
   width="64"
   height="64"
   version="1.1"
   viewBox="0 0 16.933 16.933"
   id="svg7"
   sodipodi:docname="jasp.svg"
   inkscape:version="1.4.3 (0d15f75042, 2025-12-25)"
   xmlns:inkscape="http://www.inkscape.org/namespaces/inkscape"
   xmlns:sodipodi="http://sodipodi.sourceforge.net/DTD/sodipodi-0.dtd"
   xmlns="http://www.w3.org/2000/svg"
   xmlns:svg="http://www.w3.org/2000/svg"
   xmlns:rdf="http://www.w3.org/1999/02/22-rdf-syntax-ns#"
   xmlns:cc="http://creativecommons.org/ns#"
   xmlns:dc="http://purl.org/dc/elements/1.1/">
  <sodipodi:namedview
     id="namedview7"
     pagecolor="#9c4444"
     bordercolor="#000000"
     borderopacity="0.25"
     inkscape:showpageshadow="2"
     inkscape:pageopacity="0.0"
     inkscape:pagecheckerboard="0"
     inkscape:deskcolor="#d1d1d1"
     inkscape:zoom="6.15625"
     inkscape:cx="15.51269"
     inkscape:cy="29.888325"
     inkscape:window-width="2560"
     inkscape:window-height="1388"
     inkscape:window-x="0"
     inkscape:window-y="0"
     inkscape:window-maximized="1"
     inkscape:current-layer="svg7"
     showgrid="false" />
  <defs
     id="defs2">
    <style
       id="current-color-scheme"
       type="text/css">.ColorScheme-Text {color:#d8dee9} .ColorScheme-Highlight {color:#3b4252}</style>
  </defs>
  <metadata
     id="metadata2">
    <rdf:RDF>
      <cc:Work
         rdf:about="">
        <dc:format>image/svg+xml</dc:format>
        <dc:type
           rdf:resource="http://purl.org/dc/dcmitype/StillImage" />
      </cc:Work>
    </rdf:RDF>
  </metadata>
  <path
     id="path5"
     style="fill:currentColor"
     d="m 4.962956,1.4551797 c -1.942135,0 -3.505536,1.5634015 -3.505536,3.505536 v 7.0115693 c 0,1.942134 1.563401,3.505535 3.505536,3.505535 h 7.007089 c 1.942134,0 3.505535,-1.563401 3.505535,-3.505535 V 4.9607157 c 0,-1.9421345 -1.563401,-3.505536 -3.505535,-3.505536 z m 6.799007,1.656692 c 0.02998,0 0.06187,0.00287 0.09159,0.00797 0.286631,0.05072 0.478801,0.3251242 0.428111,0.6118011 -0.03639,0.2080291 -0.191116,0.3705189 -0.392767,0.4196487 l -1.327643,7.1912765 c 0.04027,0.03167 0.07622,0.06894 0.10653,0.112006 0.08102,0.115914 0.11203,0.256015 0.08761,0.394758 -0.0444,0.252898 -0.262736,0.436574 -0.519209,0.436574 -0.03073,0 -0.06192,-0.0028 -0.09209,-0.008 -0.116321,-0.02063 -0.220064,-0.07846 -0.298185,-0.164773 l -1.511332,0.647145 c -0.0013,0.01694 -0.0037,0.03491 -0.0069,0.05326 -0.05025,0.285625 -0.297176,0.493324 -0.587409,0.493324 -0.03504,0 -0.06931,-0.0032 -0.10454,-0.0095 C 7.478852,13.269989 7.34207,13.182976 7.250365,13.052022 7.173504,12.942046 7.136657,12.810581 7.144333,12.676677 L 5.401521,11.682065 c -0.104098,0.07432 -0.239354,0.103874 -0.360907,0.08214 -0.126478,-0.02234 -0.236995,-0.0929 -0.31063,-0.198126 C 4.656174,11.46081 4.628479,11.333044 4.651324,11.206662 4.685874,11.005984 4.840496,10.853827 5.03762,10.818873 L 5.169538,9.6445532 C 4.999097,9.5442556 4.903648,9.3442636 4.939055,9.1467493 4.979235,8.9170375 5.177813,8.7499996 5.411471,8.7499996 c 0.02919,0 0.0575,0.00212 0.08413,0.00696 0.126081,0.022039 0.236585,0.092685 0.310132,0.1981257 0.004,0.00565 0.0077,0.011307 0.01145,0.017424 L 6.651999,8.6320112 c -9.8e-5,-0.00173 -4.33e-4,-0.00364 -5.09e-4,-0.00547 l -5.1e-4,-0.013939 c 0,-0.00673 4.34e-4,-0.01293 0.0015,-0.019414 0.0013,-0.017856 0.0045,-0.043806 0.0045,-0.043806 0.03289,-0.191484 0.194578,-0.3280528 0.384803,-0.3280528 0.215456,0 0.390776,0.1755507 0.390776,0.3912739 0,0.1992286 -0.149804,0.3643289 -0.342489,0.3882873 L 6.951681,9.776967 7.873115,10.293687 7.811885,10.644141 5.69572,9.617172 C 5.63808,9.659711 5.57145,9.688545 5.50058,9.701798 l -0.132401,1.175813 c 0.05887,0.03466 0.109674,0.08121 0.148843,0.136896 0.0737,0.104473 0.102169,0.232196 0.07965,0.359415 -0.0015,0.0093 -0.0035,0.01912 -0.006,0.02887 l 1.667644,0.953792 C 7.36312,12.213004 7.526901,12.122822 7.705344,12.112663 L 9.049337,4.9487661 C 8.839026,4.8222972 8.724496,4.5778272 8.76758,4.334476 8.81779,4.04824 9.064668,3.8406544 9.354989,3.8406544 c 0.03513,0 0.07033,0.00284 0.104538,0.00896 0.144548,0.025513 0.275106,0.1054611 0.365887,0.2225184 l 1.410278,-0.4674379 c 0.0011,-0.018957 0.0032,-0.037794 0.0065,-0.056252 0.0444,-0.2528555 0.263232,-0.4365753 0.519708,-0.4365753 z m 0,0.3355198 c -0.09241,0 -0.171963,0.066526 -0.188668,0.1578039 l -0.0025,0.013439 c -0.01077,0.099944 0.05779,0.1930562 0.157804,0.2105712 0.03433,0.00608 0.06987,0.00234 0.101054,-0.00946 0.06318,-0.023444 0.109598,-0.079358 0.121464,-0.1463544 0.01169,-0.066468 -0.01281,-0.1332725 -0.06521,-0.1787117 -0.02972,-0.02432 -0.05917,-0.038804 -0.0906,-0.044304 -0.01107,-0.00183 -0.02196,-0.0025 -0.03335,-0.0025 z M 11.383134,4.004932 9.951449,4.480335 c -0.0014,0.02063 -0.0038,0.04123 -0.0075,0.061727 C 9.901169,4.7861594 9.70987,4.9767521 9.469045,5.0229406 L 8.115018,12.245579 c 0.03697,0.03031 0.06999,0.06507 0.09906,0.104041 l 1.495901,-0.641172 c 0.0012,-0.01386 0.0033,-0.02805 0.0055,-0.04182 0.03934,-0.22307 0.212429,-0.391511 0.431098,-0.428111 l 1.322168,-7.1619058 c -0.0313,-0.020941 -0.05982,-0.044886 -0.08562,-0.071684 z M 9.355081,4.1761765 c -0.126399,2.36e-4 -0.234553,0.091382 -0.256867,0.2165449 -0.01775,0.1017464 0.02679,0.2049073 0.113001,0.2628405 0.03051,0.020554 0.06408,0.033986 0.09956,0.040322 0.03267,0.00584 0.06439,0.00622 0.107028,-0.00448 0.0994,-0.024017 0.174735,-0.1026354 0.194641,-0.2016107 l 0.002,-0.012445 c 0.01041,-0.07135 -0.009,-0.1425912 -0.05476,-0.2006151 -0.04035,-0.051291 -0.09645,-0.085264 -0.158302,-0.096077 -0.01506,-0.00282 -0.03022,-0.00445 -0.0458,-0.00448 z M 7.041785,8.5075691 c -0.05803,0 -0.105533,0.047103 -0.105533,0.1050365 0,0.058196 0.0475,0.1055345 0.105533,0.1055345 0.05808,0 0.105038,-0.047336 0.105038,-0.1055345 0,-0.057934 -0.04696,-0.1050365 -0.105038,-0.1050365 z M 6.747584,8.8684771 5.89136,9.2164419 c 0.0014,0.033431 -6.88e-4,0.066161 -0.006,0.097072 -0.0013,0.00747 -0.003,0.014619 -0.0045,0.021904 L 6.716175,9.6445541 6.841124,8.9471307 c -0.0153,-0.00943 -0.03077,-0.020086 -0.0458,-0.032357 -0.01953,-0.016613 -0.03476,-0.031768 -0.04779,-0.046296 z M 5.411478,9.0855194 v 5.098e-4 c -0.07026,0 -0.129903,0.049868 -0.141874,0.1189752 v 5.097e-4 c -0.01,0.055689 0.0143,0.1122488 0.06173,0.1443631 0.0171,0.011618 0.03633,0.020135 0.05576,0.023397 0.01415,0.0024 0.03155,0.00277 0.05924,-0.00498 l 0.03335,-0.012942 c 0.0369,-0.019796 0.06205,-0.052314 0.07119,-0.091596 l 0.005,-0.014436 c 0.0046,-0.035147 -0.0041,-0.071756 -0.02538,-0.1020497 -0.02247,-0.031971 -0.055,-0.052393 -0.09359,-0.059239 -0.0077,-0.00147 -0.01677,-0.0025 -0.02538,-0.0025 z M 5.123747,11.145432 v 5.1e-4 c -0.0067,0 -0.01664,0.0021 -0.02788,0.005 -0.06379,0.01619 -0.105144,0.0596 -0.114495,0.114495 -0.0068,0.03854 0.0017,0.0766 0.02389,0.108023 0.02233,0.03224 0.05524,0.05326 0.09309,0.05974 0.02348,0.0037 0.05069,0.0028 0.08263,-0.01145 0.03877,-0.01711 0.06674,-0.04973 0.07915,-0.09209 0.0016,-0.0059 0.004,-0.01282 0.0069,-0.01941 0.0052,-0.03638 -0.0033,-0.07251 -0.02439,-0.102548 -0.0093,-0.01333 -0.02176,-0.02499 -0.03734,-0.03584 -0.0178,-0.01194 -0.03682,-0.02027 -0.05625,-0.02389 -0.0086,-0.0015 -0.01731,-0.0025 -0.02538,-0.0025 z m 5.114438,0.417658 c -0.108149,0 -0.195637,0.08742 -0.195637,0.195637 0,0.108169 0.08749,0.196134 0.195637,0.196134 0.108101,1e-6 0.195637,-0.08796 0.195637,-0.196134 0,-0.108216 -0.08754,-0.195637 -0.195637,-0.195637 z m -0.003,0.0025 c 0.0061,0 0.01188,5.86e-4 0.01743,9.94e-4 -0.0055,-4.84e-4 -0.0114,-5.86e-4 -0.01743,-5.1e-4 z m -0.05974,0.374846 c 0.0087,0.0029 0.01786,0.0053 0.02689,0.007 0.0097,0.0015 0.02012,0.0023 0.03087,0.0025 -0.01069,0 -0.02115,-6.62e-4 -0.03087,-0.0025 -0.0091,-0.0015 -0.01822,-0.0041 -0.02689,-0.007 z M 7.739191,12.4472 c -0.09504,3.06e-4 -0.182142,0.05211 -0.227995,0.134905 -0.01478,0.02648 -0.02448,0.05397 -0.02937,0.08164 -0.0029,0.01711 -0.004,0.03651 -0.003,0.06123 0.0026,0.04821 0.01876,0.09481 0.0463,0.133909 0.04022,0.05768 0.100133,0.09597 0.168756,0.108024 0.142655,0.02534 0.274692,-0.06958 0.302168,-0.207087 v -0.01991 l 0.0039,-0.005 c 0.0039,-0.04153 -0.0024,-0.0827 -0.01892,-0.122957 -0.0085,-0.02116 -0.01956,-0.0412 -0.03335,-0.05974 l -0.01245,-0.01394 c -0.04027,-0.04637 -0.09231,-0.07696 -0.150337,-0.08712 -0.01502,-0.0027 -0.03059,-0.004 -0.0458,-0.004 z"
     class="ColorScheme-Text" />
</svg>
