<?xml version="1.0" encoding="UTF-8" standalone="no"?>
<svg
   width="64"
   height="64"
   version="1.1"
   viewBox="0 0 16.933 16.933"
   id="svg7"
   sodipodi:docname="java.svg"
   inkscape:version="1.4.3 (0d15f75042, 2025-12-25)"
   xmlns:inkscape="http://www.inkscape.org/namespaces/inkscape"
   xmlns:sodipodi="http://sodipodi.sourceforge.net/DTD/sodipodi-0.dtd"
   xmlns="http://www.w3.org/2000/svg"
   xmlns:svg="http://www.w3.org/2000/svg"
   xmlns:rdf="http://www.w3.org/1999/02/22-rdf-syntax-ns#"
   xmlns:cc="http://creativecommons.org/ns#"
   xmlns:dc="http://purl.org/dc/elements/1.1/">
  <sodipodi:namedview
     id="namedview7"
     pagecolor="#9c4444"
     bordercolor="#000000"
     borderopacity="0.25"
     inkscape:showpageshadow="2"
     inkscape:pageopacity="0.0"
     inkscape:pagecheckerboard="0"
     inkscape:deskcolor="#d1d1d1"
     inkscape:zoom="6.15625"
     inkscape:cx="58.720812"
     inkscape:cy="-6.822335"
     inkscape:window-width="2560"
     inkscape:window-height="1388"
     inkscape:window-x="0"
     inkscape:window-y="0"
     inkscape:window-maximized="1"
     inkscape:current-layer="svg7"
     showgrid="false" />
  <defs
     id="defs2">
    <style
       id="current-color-scheme"
       type="text/css">.ColorScheme-Text {color:#d8dee9} .ColorScheme-Highlight {color:#3b4252}</style>
  </defs>
  <metadata
     id="metadata2">
    <rdf:RDF>
      <cc:Work
         rdf:about="">
        <dc:format>image/svg+xml</dc:format>
        <dc:type
           rdf:resource="http://purl.org/dc/dcmitype/StillImage" />
      </cc:Work>
    </rdf:RDF>
  </metadata>
  <path
     id="path5"
     style="fill:currentColor;fill-opacity:1;stroke-width:0.250404"
     d="M 8.466545,1.4551814 A 7.0113198,7.0113198 0 0 0 1.46794,8.2752747 7.0113198,7.0113198 0 0 1 1.46594,8.2591347 7.0113198,7.0113198 0 0 0 1.45518,8.4665007 7.0113198,7.0113198 0 0 0 8.4665,15.477821 7.0113198,7.0113198 0 0 0 9.381552,15.417665 7.0113198,7.0113198 0 0 0 11.149543,14.944244 7.0113198,7.0113198 0 0 0 15.47782,8.4665004 7.0113198,7.0113198 0 0 0 15.46706,8.1730579 7.0113198,7.0113198 0 0 1 15.46166,8.2244099 7.0113198,7.0113198 0 0 0 8.46648,1.4551794 Z m 0.996726,1.799781 c 0.0062,0.0065 1.028633,1.088438 -0.981566,2.7490674 C 6.864802,7.3406843 8.113137,8.102317 8.481205,8.9731789 7.537314,8.0819153 6.844535,7.2970709 7.308914,6.5669501 7.990846,5.4952371 9.880553,4.9759044 9.463271,3.2549624 Z m 1.247131,2.1289254 C 8.538494,6.7022646 8.939987,7.0841812 9.463271,7.8536956 10.02334,8.6792381 8.803514,9.3385148 8.803514,9.3385148 c 0,0 0.606357,-0.5208211 0.125691,-1.0999203 -1.628312,-1.9638034 1.781218,-2.8547067 1.781197,-2.8547067 z m 0.55216,3.5090834 c 1.00939,-0.054198 1.551112,1.4275898 -0.710131,2.0496958 -2.1e-5,0 0.02852,-0.02714 0.03717,-0.05135 1.868602,-1.0160114 1.004605,-1.9924629 0.401527,-1.8609145 -0.147475,0.032213 -0.213725,0.060156 -0.213725,0.060156 0,0 0.05481,-0.089866 0.159437,-0.1286256 0.111851,-0.041138 0.221302,-0.063352 0.325721,-0.068959 z m -4.043637,0.098303 c 0.07941,-0.00218 0.123735,9.748e-4 0.123735,9.748e-4 0,0 -1.810188,0.4497251 -0.641172,0.6132949 0.493746,0.069152 1.477568,0.053619 2.39449,-0.026898 0.749181,-0.065808 1.500959,-0.2068771 1.500959,-0.2068771 0,0 -0.26373,0.1187848 -0.454836,0.2552952 C 8.303684,10.133125 4.752803,9.8974601 5.775188,9.3800833 6.423345,9.0519037 6.980692,8.9977971 7.218925,8.9912718 Z M 6.921081,10.174826 c 0,0 -0.426392,0.330533 0.225461,0.401038 0.843148,0.0911 1.508665,0.09861 2.661035,-0.133517 0,0 0.158921,0.168772 0.409352,0.261164 -2.357028,0.721572 -4.982144,0.05713 -3.295848,-0.528685 z m 0.238666,1.141002 c 0,0 -0.380414,0.231402 0.270945,0.309582 0.789223,0.09431 1.192461,0.08105 2.061923,-0.09097 0,0 0.228913,0.149861 0.548248,0.279748 -1.949779,0.874289 -4.412391,-0.05055 -2.881116,-0.498363 z m -0.990368,0.756593 c 0.09401,0.0038 0.171174,0.02228 0.220571,0.05869 0,0 -0.124781,-0.0094 -0.343329,0.0401 -0.209593,0.04739 -0.875923,0.271938 -0.52086,0.433806 0.988447,0.450002 4.547109,0.342496 5.672244,-0.01418 0.58267,-0.185012 0.318762,-0.423635 0.31056,-0.430872 1.030056,0.486925 -2.241088,1.464627 -6.215602,0.790339 -1.275445,-0.216638 0.218363,-0.904379 0.876416,-0.877882 z m 5.969599,0.618185 c -0.06514,0.888174 -2.819693,1.07515 -4.612917,0.955156 -1.178565,-0.07937 -1.408035,-0.278282 -1.408035,-0.278282 1.119592,0.193482 3.008337,0.228744 4.539067,-0.07287 1.356831,-0.267148 1.481885,-0.604002 1.481885,-0.604002 z"
     class="ColorScheme-Text" />
</svg>
