<?xml version="1.0" encoding="UTF-8" standalone="no"?>
<svg
   width="64"
   height="64"
   version="1.1"
   viewBox="0 0 16.933 16.933"
   id="svg7"
   sodipodi:docname="joplin.svg"
   inkscape:version="1.4.3 (0d15f75042, 2025-12-25)"
   xmlns:inkscape="http://www.inkscape.org/namespaces/inkscape"
   xmlns:sodipodi="http://sodipodi.sourceforge.net/DTD/sodipodi-0.dtd"
   xmlns="http://www.w3.org/2000/svg"
   xmlns:svg="http://www.w3.org/2000/svg"
   xmlns:rdf="http://www.w3.org/1999/02/22-rdf-syntax-ns#"
   xmlns:cc="http://creativecommons.org/ns#"
   xmlns:dc="http://purl.org/dc/elements/1.1/">
  <sodipodi:namedview
     id="namedview7"
     pagecolor="#9c4444"
     bordercolor="#000000"
     borderopacity="0.25"
     inkscape:showpageshadow="2"
     inkscape:pageopacity="0.0"
     inkscape:pagecheckerboard="0"
     inkscape:deskcolor="#d1d1d1"
     inkscape:zoom="6.15625"
     inkscape:cx="15.756345"
     inkscape:cy="30.050761"
     inkscape:window-width="2560"
     inkscape:window-height="1388"
     inkscape:window-x="0"
     inkscape:window-y="0"
     inkscape:window-maximized="1"
     inkscape:current-layer="svg7"
     showgrid="false" />
  <defs
     id="defs2">
    <style
       id="current-color-scheme"
       type="text/css">.ColorScheme-Text {color:#d8dee9} .ColorScheme-Highlight {color:#3b4252}</style>
  </defs>
  <metadata
     id="metadata2">
    <rdf:RDF>
      <cc:Work
         rdf:about="">
        <dc:format>image/svg+xml</dc:format>
        <dc:type
           rdf:resource="http://purl.org/dc/dcmitype/StillImage" />
      </cc:Work>
    </rdf:RDF>
  </metadata>
  <path
     id="path5"
     style="fill:currentColor"
     d="m 4.8680345,1.4551795 c -1.877053,0 -3.412855,1.535764 -3.412855,3.412855 v 7.1969705 c 0,1.877064 1.535802,3.412815 3.412855,3.412815 h 7.1969705 c 1.877064,0 3.412815,-1.535751 3.412815,-3.412815 V 4.8680345 c 0,-1.877091 -1.535751,-3.412855 -3.412815,-3.412855 z m 3.626368,1.875449 h 3.8107955 c 0.03602,0 0.06511,0.02915 0.06511,0.06511 v 1.210113 c 0,0.04073 -0.03304,0.0737 -0.07374,0.0737 h -0.522472 c -0.220637,0 -0.39957,0.176543 -0.40428,0.395976 v 0.0217 h -1.63e-4 v 1.243332 h -4.82e-4 l -0.0042,4.6502495 c -0.04582,0.709047 -0.358069,1.360776 -0.879372,1.83541 -0.5503065,0.5006 -1.2959245,0.776144 -2.0994335,0.776144 -0.11366,0 -0.230134,-0.0056 -0.346068,-0.01629 -0.84133,-0.07926 -1.656923,-0.443698 -2.297501,-1.026488 -0.65723,-0.598125 -1.069479,-1.369674 -1.160927,-2.172771 -0.102486,-0.9016405 0.213808,-1.7599805 0.867696,-2.3547935 0.748514,-0.681386 1.809295,-0.929079 2.890464,-0.691132 0.05089,0.0112 0.08718,0.05735 0.08718,0.109525 v 0.77462 1.046869 c -0.0018,0.02397 -0.01352,0.06024 -0.0747,0.02644 -0.0061,-0.0033 -0.0109,-0.0047 -0.01508,-0.0049 -0.200727,-0.09665 -0.412272,-0.160402 -0.625899,-0.18182 -0.0035,-3.56e-4 -0.0069,-0.0011 -0.01039,-0.0015 -0.0049,-4.38e-4 -0.0094,-2.99e-4 -0.0142,-6.82e-4 -0.03771,-0.0032 -0.07471,-0.0047 -0.111411,-0.0053 -0.0079,-1.1e-4 -0.01617,-0.0012 -0.02411,-0.0012 -0.0044,0 -0.0086,4.66e-4 -0.01308,5.21e-4 -0.01337,1.1e-4 -0.02638,10e-4 -0.03956,0.0015 -0.0252,9.31e-4 -0.05019,0.0019 -0.0747,0.0041 -0.0025,2.19e-4 -0.005,6.36e-4 -0.0076,8.82e-4 -0.23288,0.02191 -0.436973,0.10137 -0.593522,0.232531 -0.0087,0.0073 -0.01802,0.01396 -0.02648,0.02154 -4.38e-4,4.66e-4 -9.49e-4,8.86e-4 -0.0015,0.0013 -0.218748,0.199029 -0.318446,0.491819 -0.280514,0.8245275 0.04218,0.371903 0.245992,0.740898 0.573744,1.039126 0.327807,0.298256 0.733359,0.483645 1.142152,0.52207 0.320604,0.03068 0.607529,-0.03578 0.820717,-0.186794 0.02999,-0.02117 0.05854,-0.04397 0.08549,-0.06848 0.0267,-0.02429 0.05084,-0.05021 0.07382,-0.07683 0.0027,-0.0032 0.0061,-0.0061 0.0089,-0.0093 0.07534,-0.09005 0.129833,-0.192327 0.164287,-0.302617 0.0058,-0.01857 0.0096,-0.03787 0.01428,-0.05685 0.0035,-0.01427 0.0074,-0.02836 0.01019,-0.04285 0.0051,-0.02542 0.0084,-0.05141 0.01139,-0.07751 7.94e-4,-0.0065 0.0017,-0.0129 0.0022,-0.01942 0.0045,-0.04467 0.0063,-0.09 0.005,-0.136124 h 1.24e-4 v -0.03121 -4.4025535 -0.462213 -0.829664 c -0.01835,-0.20656 -0.189705,-0.369136 -0.401031,-0.369136 h -0.522471 c -0.04075,0 -0.07374,-0.03297 -0.07374,-0.0737 v -1.210113 c 0,-0.03596 0.02914,-0.06511 0.06515,-0.06511 z"
     class="ColorScheme-Text" />
</svg>
