<?xml version='1.0' encoding='UTF-8'?>
<svg xmlns:inkscape="http://www.inkscape.org/namespaces/inkscape" xmlns:sodipodi="http://sodipodi.sourceforge.net/DTD/sodipodi-0.dtd" xmlns="http://www.w3.org/2000/svg" xmlns:svg="http://www.w3.org/2000/svg" xmlns:rdf="http://www.w3.org/1999/02/22-rdf-syntax-ns#" xmlns:cc="http://creativecommons.org/ns#" xmlns:dc="http://purl.org/dc/elements/1.1/" width="64" height="64" version="1.1" viewBox="0 0 16.933 16.933" id="svg7" sodipodi:docname="kitty.svg" inkscape:version="1.4.2 (ebf0e940d0, 2025-05-08)">
  <sodipodi:namedview id="namedview7" pagecolor="#9c4444" bordercolor="#000000" borderopacity="0.25" inkscape:showpageshadow="2" inkscape:pageopacity="0.0" inkscape:pagecheckerboard="0" inkscape:deskcolor="#d1d1d1" inkscape:zoom="4.3531261" inkscape:cx="36.295755" inkscape:cy="40.660435" inkscape:window-width="2560" inkscape:window-height="1376" inkscape:window-x="0" inkscape:window-y="0" inkscape:window-maximized="1" inkscape:current-layer="svg7" showgrid="false"/>
  <defs id="defs2">
    <style id="current-color-scheme" type="text/css">.ColorScheme-Text {color:#d8dee9} .ColorScheme-Highlight {color:#3b4252}</style>
    </defs>
  <metadata id="metadata2">
    <rdf:RDF>
      <cc:Work rdf:about="">
        <dc:format>image/svg+xml</dc:format>
        <dc:type rdf:resource="http://purl.org/dc/dcmitype/StillImage"/>
      </cc:Work>
    </rdf:RDF>
  </metadata>
  <path id="path4-3" style="fill:currentColor;fill-opacity:1;stroke-width:0.029176" class="ColorScheme-Text" d="M 46.250134 12.048514 C 46.116695 12.062094 46.06665 12.110423 45.97359 12.203303 C 45.95385 12.224243 45.934602 12.24467 45.915442 12.265 C 45.84046 12.338427 45.76846 12.40948 45.70933 12.4965 C 45.69429 12.595086 45.69429 12.595293 45.70933 12.671763 C 45.753642 12.741726 45.783111 12.755362 45.862481 12.777412 C 45.953164 12.756798 45.953263 12.75666 46.046753 12.66057 C 46.114482 12.584555 46.169914 12.53717 46.263784 12.4965 C 46.281564 12.51603 46.298666 12.535142 46.315926 12.554102 C 46.351206 12.591392 46.351233 12.591251 46.385813 12.627811 C 46.454532 12.701663 46.454716 12.701682 46.526406 12.759122 C 46.611652 12.770272 46.652016 12.771752 46.725146 12.726362 C 46.759796 12.671655 46.759609 12.671569 46.773739 12.593959 C 46.755835 12.470504 46.755863 12.47049 46.624411 12.337344 C 46.605291 12.318924 46.586734 12.301171 46.568174 12.283291 C 46.467905 12.179202 46.386095 12.101794 46.250134 12.048514 z M 49.459469 12.048514 C 49.32603 12.062094 49.275985 12.110423 49.182925 12.203303 C 49.163175 12.224243 49.143937 12.24467 49.124777 12.265 C 49.049795 12.338427 48.977795 12.40948 48.918665 12.4965 C 48.903625 12.595086 48.903625 12.595293 48.918665 12.671763 C 48.962977 12.741726 48.992445 12.755362 49.071815 12.777412 C 49.162499 12.756798 49.162597 12.75666 49.256087 12.66057 C 49.323816 12.584555 49.379249 12.53717 49.473119 12.4965 C 49.490909 12.51603 49.508274 12.535142 49.525534 12.554102 C 49.560814 12.591392 49.560568 12.591251 49.595148 12.627811 C 49.663868 12.701663 49.66405 12.701682 49.73574 12.759122 C 49.820986 12.770272 49.861351 12.771752 49.934481 12.726362 C 49.969131 12.671655 49.969217 12.671569 49.983347 12.593959 C 49.965442 12.470504 49.965197 12.47049 49.833746 12.337344 C 49.814626 12.318924 49.796069 12.301171 49.777509 12.283291 C 49.677241 12.179202 49.595431 12.101794 49.459469 12.048514 z M 44.063167 12.45637 C 43.988088 12.46747 43.988023 12.467361 43.929673 12.525711 C 43.922373 12.627827 43.922373 12.627795 43.929673 12.729911 C 43.988029 12.788261 43.988012 12.788303 44.051702 12.823003 C 44.078332 12.835963 44.104211 12.848642 44.130051 12.861222 C 44.188423 12.889942 44.246834 12.918443 44.305314 12.946943 C 44.335574 12.961693 44.364941 12.976039 44.394311 12.990349 C 44.423491 13.004709 44.451711 13.018733 44.480031 13.032663 C 44.577113 13.079936 44.661895 13.129453 44.746475 13.196733 C 44.68108 13.228823 44.615754 13.261064 44.550464 13.293374 C 44.509484 13.313654 44.509555 13.313614 44.469385 13.333504 C 44.289277 13.421857 44.083691 13.503661 43.929673 13.634345 C 43.912533 13.731501 43.915043 13.780066 43.958883 13.867756 C 44.076375 13.898186 44.146396 13.902652 44.261908 13.862842 C 44.313539 13.836252 44.313661 13.836487 44.364281 13.810427 C 44.421859 13.781277 44.479129 13.751977 44.536269 13.721977 C 44.575218 13.701527 44.614477 13.681099 44.653657 13.661099 C 44.765846 13.604156 44.87732 13.546345 44.988076 13.486655 C 45.005166 13.477405 45.021727 13.468355 45.038307 13.459355 C 45.069567 13.442455 45.099967 13.42607 45.130307 13.40967 C 45.170847 13.38671 45.170827 13.386853 45.210567 13.364353 C 45.279741 13.325303 45.279759 13.325205 45.330139 13.284365 C 45.352019 13.174953 45.352019 13.174984 45.330139 13.080164 C 45.271787 13.021814 45.271874 13.021685 45.223944 12.993625 C 45.204334 12.983615 45.185109 12.973841 45.166069 12.964141 C 45.143779 12.952711 45.12218 12.941653 45.10055 12.930563 C 45.07644 12.918383 45.052971 12.90662 45.029571 12.8948 C 44.980045 12.8697 44.930612 12.844494 44.881062 12.819454 C 44.802837 12.780167 44.724762 12.740854 44.646832 12.700974 C 44.596009 12.674964 44.544944 12.649133 44.493954 12.623443 C 44.468994 12.610903 44.444738 12.598758 44.420518 12.586588 C 44.300064 12.524489 44.198948 12.47144 44.063167 12.45637 z M 51.576822 12.473841 C 51.504238 12.472534 51.438394 12.490618 51.355969 12.531443 C 51.336769 12.541643 51.318099 12.551573 51.299459 12.561473 C 51.237442 12.592843 51.175412 12.624528 51.113822 12.656748 C 51.071646 12.678818 51.029562 12.700647 50.987152 12.722267 C 50.770602 12.832051 50.544791 12.936878 50.348342 13.080164 C 50.331932 13.189576 50.331932 13.189545 50.348342 13.284365 C 50.377522 13.313545 50.37752 13.313504 50.4256 13.338964 C 50.44699 13.349484 50.467892 13.359603 50.488662 13.369813 C 50.512782 13.381753 50.535958 13.393439 50.559368 13.405029 C 50.720494 13.484422 50.882063 13.563352 51.040659 13.647722 C 51.066969 13.661972 51.092387 13.67566 51.117917 13.68949 C 51.167146 13.71606 51.216447 13.742788 51.265607 13.769478 C 51.347649 13.815173 51.428708 13.860667 51.515398 13.896967 C 51.603962 13.907387 51.639199 13.910717 51.714139 13.864207 C 51.764209 13.785156 51.758509 13.725875 51.748809 13.634345 C 51.690453 13.575995 51.69047 13.576227 51.62678 13.541527 C 51.60016 13.528567 51.57427 13.515887 51.54843 13.503307 C 51.490057 13.474587 51.431647 13.446087 51.373167 13.417587 C 51.342907 13.402847 51.313541 13.38849 51.284171 13.37418 C 51.254991 13.35982 51.22677 13.345796 51.19845 13.331866 C 51.101368 13.284594 51.016587 13.234803 50.932007 13.167523 C 50.997402 13.135433 51.062727 13.103465 51.128017 13.071155 C 51.168997 13.050875 51.168927 13.050642 51.209097 13.030752 C 51.389205 12.9424 51.59479 12.860595 51.748809 12.729911 C 51.765949 12.632754 51.763439 12.58419 51.719599 12.4965 C 51.666359 12.482302 51.620372 12.474626 51.576822 12.473841 z M 47.392893 13.684576 C 47.354903 13.684863 47.355069 13.684846 47.317819 13.685122 L 47.317819 13.685395 C 47.223156 13.685595 47.208607 13.681587 47.139007 13.751187 C 47.129907 13.85148 47.129907 13.851449 47.139007 13.955388 C 47.183442 14.015268 47.209166 14.039429 47.282876 14.053939 C 47.304836 14.054005 47.326266 14.054142 47.347576 14.054212 C 47.372556 14.054498 47.396762 14.054755 47.421012 14.055031 C 47.447872 14.054843 47.4741 14.054662 47.50018 14.054485 C 47.55534 14.054662 47.610456 14.0547 47.665616 14.054758 C 47.752644 14.054202 47.839569 14.053738 47.926599 14.054212 C 47.983397 14.054573 48.040149 14.054816 48.096949 14.054758 C 48.138069 14.054626 48.138001 14.054607 48.178301 14.054485 C 48.205171 14.054673 48.23139 14.054854 48.25747 14.055031 C 48.29457 14.054612 48.294536 14.054631 48.330906 14.054212 C 48.408066 14.053962 48.44042 14.051713 48.50262 14.005073 C 48.55893 13.929414 48.558904 13.929312 48.539474 13.751187 C 48.451945 13.692827 48.452001 13.692795 48.394241 13.685395 C 48.371651 13.685345 48.34955 13.685168 48.32763 13.685122 C 48.30195 13.684923 48.277203 13.684764 48.252283 13.684576 C 48.224673 13.684709 48.19774 13.685001 48.17093 13.685122 C 48.114307 13.685001 48.057747 13.684887 48.001127 13.684849 C 47.911734 13.685227 47.822436 13.68543 47.733046 13.685122 C 47.674699 13.684881 47.616406 13.684809 47.558056 13.684849 C 47.529666 13.684904 47.502079 13.685066 47.474519 13.685122 C 47.446839 13.68499 47.419763 13.684698 47.392893 13.684576 z " transform="matrix(1.8929037,0,0,1.8929037,-82.088575,-16.239249)"/>
</svg>
