<?xml version="1.0" encoding="UTF-8" standalone="no"?>
<svg
   width="64"
   height="64"
   version="1.1"
   viewBox="0 0 16.933 16.933"
   id="svg7"
   sodipodi:docname="kmail2.svg"
   inkscape:version="1.4.2 (ebf0e940d0, 2025-05-08)"
   xmlns:inkscape="http://www.inkscape.org/namespaces/inkscape"
   xmlns:sodipodi="http://sodipodi.sourceforge.net/DTD/sodipodi-0.dtd"
   xmlns="http://www.w3.org/2000/svg"
   xmlns:svg="http://www.w3.org/2000/svg"
   xmlns:rdf="http://www.w3.org/1999/02/22-rdf-syntax-ns#"
   xmlns:cc="http://creativecommons.org/ns#"
   xmlns:dc="http://purl.org/dc/elements/1.1/">
  <sodipodi:namedview
     id="namedview7"
     pagecolor="#9c4444"
     bordercolor="#000000"
     borderopacity="0.25"
     inkscape:showpageshadow="2"
     inkscape:pageopacity="0.0"
     inkscape:pagecheckerboard="0"
     inkscape:deskcolor="#d1d1d1"
     inkscape:zoom="16"
     inkscape:cx="23.21875"
     inkscape:cy="28.5"
     inkscape:window-width="2560"
     inkscape:window-height="1392"
     inkscape:window-x="0"
     inkscape:window-y="0"
     inkscape:window-maximized="1"
     inkscape:current-layer="svg7"
     showgrid="true">
    <inkscape:grid
       id="grid1"
       units="px"
       originx="0"
       originy="0"
       spacingx="0.26457812"
       spacingy="0.26457812"
       empcolor="#0099e5"
       empopacity="0.30196078"
       color="#0099e5"
       opacity="0.14902"
       empspacing="5"
       enabled="true"
       visible="true" />
  </sodipodi:namedview>
  <defs
     id="defs2">
    <style
       id="current-color-scheme"
       type="text/css">.ColorScheme-Text {color:#d8dee9} .ColorScheme-Highlight {color:#3b4252}</style>
  </defs>
  <metadata
     id="metadata2">
    <rdf:RDF>
      <cc:Work
         rdf:about="">
        <dc:format>image/svg+xml</dc:format>
        <dc:type
           rdf:resource="http://purl.org/dc/dcmitype/StillImage" />
      </cc:Work>
    </rdf:RDF>
  </metadata>
  <path
     id="path5"
     style="fill:currentColor;fill-opacity:1;stroke-width:0.350566"
     class="ColorScheme-Text"
     d="M 3.5583691 1.4551797 L 3.5583691 8.6416797 L 7.0640292 11.270925 L 9.8689708 11.270925 L 13.374631 8.6416797 L 13.374631 4.2596045 L 10.569689 1.4551797 L 3.5583691 1.4551797 z M 10.583125 2.1171418 L 12.69975 4.2337668 L 10.583125 4.2337668 L 10.583125 2.1171418 z M 7.0640292 4.2596045 C 7.2582442 4.2596045 7.4149053 4.4162669 7.4149053 4.6104805 C 7.4149053 4.8046939 7.2582442 4.9608398 7.0640292 4.9608398 C 6.8698162 4.9608398 6.7136699 4.8046939 6.7136699 4.6104805 C 6.7136699 4.4162669 6.8698162 4.2596045 7.0640292 4.2596045 z M 9.5180947 4.2596045 L 11.270925 6.0124345 L 9.5180947 7.7652646 L 8.8168593 7.0640292 L 9.8689708 6.0124345 L 8.8168593 4.9608398 L 9.5180947 4.2596045 z M 3.0286961 6.1199194 L 1.4551797 7.0640292 L 3.0286961 8.2448125 L 3.0286961 6.1199194 z M 13.904304 6.1199194 L 13.904304 8.2448125 L 15.47782 7.0640292 L 13.904304 6.1199194 z M 6.1876142 6.3633106 C 6.4789352 6.3633106 6.7136699 6.5975292 6.7136699 6.8888496 C 6.7136699 7.18017 6.4789352 7.4149053 6.1876142 7.4149053 C 5.8962942 7.4149053 5.6620752 7.18017 5.6620752 6.8888496 C 5.6620752 6.5975292 5.8962942 6.3633106 6.1876142 6.3633106 z M 1.4551797 7.7265081 L 1.4551797 15.47782 L 6.6227212 11.602164 L 3.5583691 9.3046752 L 3.0286961 8.9067745 L 1.4551797 7.7265081 z M 15.47782 7.7265081 L 13.904304 8.9067745 L 13.374631 9.3046752 L 10.310279 11.602164 L 15.47782 15.47782 L 15.47782 7.7265081 z M 7.7652646 8.4665 C 8.1536916 8.4665 8.4665 8.7793083 8.4665 9.1677354 C 8.4665 9.5561626 8.1536916 9.8689708 7.7652646 9.8689708 C 7.3768376 9.8689708 7.0640292 9.5561626 7.0640292 9.1677354 C 7.0640292 8.7793083 7.3768376 8.4665 7.7652646 8.4665 z M 7.2407592 11.801115 L 2.3383125 15.47782 L 14.594687 15.47782 L 9.6922408 11.801115 L 7.2407592 11.801115 z " />
</svg>
