<?xml version="1.0" encoding="UTF-8" standalone="no"?>
<svg
   width="64"
   height="64"
   version="1.1"
   viewBox="0 0 16.933 16.933"
   id="svg7"
   sodipodi:docname="kooha.svg"
   inkscape:version="1.4.3 (0d15f75042, 2025-12-25)"
   xmlns:inkscape="http://www.inkscape.org/namespaces/inkscape"
   xmlns:sodipodi="http://sodipodi.sourceforge.net/DTD/sodipodi-0.dtd"
   xmlns="http://www.w3.org/2000/svg"
   xmlns:svg="http://www.w3.org/2000/svg"
   xmlns:rdf="http://www.w3.org/1999/02/22-rdf-syntax-ns#"
   xmlns:cc="http://creativecommons.org/ns#"
   xmlns:dc="http://purl.org/dc/elements/1.1/">
  <sodipodi:namedview
     id="namedview7"
     pagecolor="#9c4444"
     bordercolor="#000000"
     borderopacity="0.25"
     inkscape:showpageshadow="2"
     inkscape:pageopacity="0.0"
     inkscape:pagecheckerboard="0"
     inkscape:deskcolor="#d1d1d1"
     inkscape:zoom="4.3531262"
     inkscape:cx="90.165086"
     inkscape:cy="34.457995"
     inkscape:window-width="2560"
     inkscape:window-height="1388"
     inkscape:window-x="0"
     inkscape:window-y="0"
     inkscape:window-maximized="1"
     inkscape:current-layer="svg7"
     showgrid="false" />
  <defs
     id="defs2">
    <style
       id="current-color-scheme"
       type="text/css">.ColorScheme-Text {color:#d8dee9} .ColorScheme-Highlight {color:#3b4252}</style>
  </defs>
  <metadata
     id="metadata2">
    <rdf:RDF>
      <cc:Work
         rdf:about="">
        <dc:format>image/svg+xml</dc:format>
        <dc:type
           rdf:resource="http://purl.org/dc/dcmitype/StillImage" />
      </cc:Work>
    </rdf:RDF>
  </metadata>
  <path
     id="path5"
     d="m 2.4567965,3.2080096 c -0.553139,0 -1.001617,0.448478 -1.001617,1.001617 v 8.5137464 c 0,0.55314 0.448478,1.001617 1.001617,1.001617 H 14.476202 c 0.55314,0 1.001618,-0.448477 1.001618,-1.001617 V 4.2096266 c 0,-0.553139 -0.448478,-1.001617 -1.001618,-1.001617 z m 0,0.500809 H 14.476202 c 0.276815,0 0.500809,0.223994 0.500809,0.500808 v 8.5137464 c 0,0.276815 -0.223994,0.500809 -0.500809,0.500809 H 2.4567965 c -0.276814,0 -0.500809,-0.223994 -0.500809,-0.500809 V 4.2096266 c 0,-0.276814 0.223995,-0.500808 0.500809,-0.500808 z m 0,0.500808 V 12.723373 H 14.476202 V 4.2096266 Z m 0.250404,0.250405 h 1.377224 a 0.12520215,0.12520215 0 0 1 0.125202,0.125202 0.12520215,0.12520215 0 0 1 -0.125202,0.125202 h -1.126819 v 1.126819 a 0.12520215,0.12520215 0 0 1 -0.125202,0.125202 0.12520215,0.12520215 0 0 1 -0.125203,-0.125202 z m 10.1433305,0 h 1.377223 v 1.377223 a 0.12520215,0.12520215 0 0 1 -0.125202,0.125202 0.12520215,0.12520215 0 0 1 -0.125202,-0.125202 v -1.126819 h -1.126819 a 0.12520215,0.12520215 0 0 1 -0.125202,-0.125202 0.12520215,0.12520215 0 0 1 0.125202,-0.125202 z m -2.550994,2.682064 h 2.51e-4 2.5e-4 c 0.132755,2.51e-4 0.232309,0.09216 0.232309,0.246492 l 4.73e-4,1.070576 v 1.098454 c -0.0093,0.111019 -0.06358,0.230352 -0.241112,0.230352 H 9.0524035 l -1.253,0.0029 c -0.103683,-0.0088 -0.200519,-0.06407 -0.21568,-0.226929 l -9.94e-4,-1.1053 c 0,-1.185508 0.0039,-1.095519 0.0039,-1.095519 0.0029,-0.109062 0.09488,-0.220571 0.210301,-0.220571 0,0 0.434294,4.88e-4 1.253977,4.88e-4 z m -3.8993615,0.293443 h 0.07091 l 0.114443,9.75e-4 0.45777,0.500808 c 0.275836,0.275836 0.501298,0.508634 0.501298,0.517437 0,0.0093 -0.230353,0.246981 -0.511568,0.528686 l -0.46853,0.51059 -0.103683,0.0015 h -0.06065 z m 2.658589,0.07532 c -0.502276,0.0029 -0.916518,0.393702 -0.948797,0.894511 -0.03277,0.501297 0.327677,0.941951 0.825063,1.009931 0.522327,0.06749 1.000639,-0.299312 1.0710645,-0.820661 l 0.0019,-0.01712 c 0.06065,-0.522817 -0.3125165,-0.996238 -0.8348435,-1.059817 -0.03815,-0.0044 -0.07629,-0.0068 -0.114442,-0.0068 z m 0.0088,0.451657 c 0.01697,3.25e-4 0.03414,0.0016 0.05135,0.0037 0.275836,0.03326 0.472932,0.283172 0.440653,0.559008 l -9.94e-4,0.0093 c -0.03717,0.274857 -0.29002,0.46853 -0.565367,0.432827 -0.275347,-0.03619 -0.469508,-0.287574 -0.435273,-0.562921 0.03255,-0.258596 0.255042,-0.446776 0.509611,-0.441875 z m -6.235165,3.0099864 a 0.12520215,0.12520215 0 0 1 0.125202,0.125203 v 1.126818 h 1.126819 a 0.12520215,0.12520215 0 0 1 0.125203,0.125202 0.12520215,0.12520215 0 0 1 -0.125203,0.125203 h -1.377223 v -1.377223 a 0.12520215,0.12520215 0 0 1 0.125202,-0.125203 z m 11.2701485,0 a 0.12520215,0.12520215 0 0 1 0.125203,0.125203 v 1.377223 h -1.377222 a 0.12520215,0.12520215 0 0 1 -0.125202,-0.125203 0.12520215,0.12520215 0 0 1 0.125202,-0.125202 h 1.126819 v -1.126818 a 0.12520215,0.12520215 0 0 1 0.125203,-0.125203 z"
     style="fill:currentColor"
     class="ColorScheme-Text" />
</svg>
