<?xml version="1.0" encoding="UTF-8" standalone="no"?>
<svg
   width="64"
   height="64"
   version="1.1"
   viewBox="0 0 16.933 16.933"
   id="svg7"
   sodipodi:docname="kpat.svg"
   inkscape:version="1.4.3 (0d15f75042, 2025-12-25)"
   xmlns:inkscape="http://www.inkscape.org/namespaces/inkscape"
   xmlns:sodipodi="http://sodipodi.sourceforge.net/DTD/sodipodi-0.dtd"
   xmlns="http://www.w3.org/2000/svg"
   xmlns:svg="http://www.w3.org/2000/svg"
   xmlns:rdf="http://www.w3.org/1999/02/22-rdf-syntax-ns#"
   xmlns:cc="http://creativecommons.org/ns#"
   xmlns:dc="http://purl.org/dc/elements/1.1/">
  <sodipodi:namedview
     id="namedview7"
     pagecolor="#9c4444"
     bordercolor="#000000"
     borderopacity="0.25"
     inkscape:showpageshadow="2"
     inkscape:pageopacity="0.0"
     inkscape:pagecheckerboard="0"
     inkscape:deskcolor="#d1d1d1"
     inkscape:zoom="6.15625"
     inkscape:cx="57.258883"
     inkscape:cy="38.010152"
     inkscape:window-width="2560"
     inkscape:window-height="1388"
     inkscape:window-x="0"
     inkscape:window-y="0"
     inkscape:window-maximized="1"
     inkscape:current-layer="svg7"
     showgrid="false" />
  <defs
     id="defs2">
    <style
       id="current-color-scheme"
       type="text/css">.ColorScheme-Text {color:#d8dee9} .ColorScheme-Highlight {color:#3b4252}</style>
  </defs>
  <metadata
     id="metadata2">
    <rdf:RDF>
      <cc:Work
         rdf:about="">
        <dc:format>image/svg+xml</dc:format>
        <dc:type
           rdf:resource="http://purl.org/dc/dcmitype/StillImage" />
      </cc:Work>
    </rdf:RDF>
  </metadata>
  <path
     id="path5"
     style="fill:currentColor"
     d="m 7.8487371,1.4553623 c -0.105489,0.00407 -0.200148,0.07578 -0.228974,0.1833561 L 4.7874871,12.208714 c -0.03547,0.132403 0.04254,0.267459 0.174941,0.302937 l 7.3360179,1.965985 c 0.132403,0.03548 0.267459,-0.04254 0.302936,-0.174941 L 15.433659,3.7322559 C 15.469129,3.5998535 15.391119,3.4647968 15.258718,3.4293197 L 7.9226991,1.4637771 c -0.02483,-0.00665 -0.04961,-0.00935 -0.07396,-0.00842 z m -0.863191,1.6723499 -5.25931,1.4092738 c -0.166544,0.044625 -0.267309,0.2039836 -0.226316,0.3569687 l 2.780017,10.3764523 c 0.04099,0.152986 0.208139,0.240383 0.374684,0.195758 l 5.228309,-1.401297 -1.003144,-0.268834 -0.04164,0.01151 c 0.0027,-0.0069 0.0055,-0.01374 0.0084,-0.02037 l -0.04828,-0.01284 c -0.02191,0.01694 -0.04161,0.03702 -0.05891,0.05935 l -0.09035,0.02436 c 0.02129,-0.03748 0.04974,-0.07174 0.08282,-0.101422 l -0.531024,-0.142167 -0.0018,0.0027 c 0.03887,0.118667 0.05951,0.233545 0.0651,0.344125 l -0.152797,0.04075 c -7.75e-4,-0.133757 -0.02517,-0.259071 -0.09301,-0.360955 -0.02119,0.0098 -0.04309,0.01918 -0.06821,0.01992 -0.03095,0.0024 -0.06687,-0.0077 -0.09478,-0.04828 -0.03399,-0.04935 -0.02812,-0.07942 -0.01107,-0.09389 l -0.27902,-0.07485 c 0.01944,0.02024 0.03826,0.04593 0.05669,0.07928 -0.05832,-0.03755 -0.07828,-0.02465 -0.09345,-0.0062 0.04709,0.08178 0.05256,0.16546 0.205058,0.244475 -0.09136,0.02776 -0.09212,-0.01119 -0.13021,-0.02215 0.06365,0.05973 0.110871,0.144353 0.115594,0.246689 -0.04427,6.24e-4 -0.08865,-0.04299 -0.133309,-0.09655 0.04551,0.06528 0.07811,0.13781 0.08547,0.230745 l -0.138179,0.03677 c 0.08919,-0.340686 -0.06503,-0.727168 -0.467249,-0.775942 0.393712,0.108716 0.467244,0.499357 0.354311,0.806501 l -0.108065,0.02879 c -0.04166,-0.0063 -0.09673,-0.0051 -0.109393,-0.05093 0.07513,-0.0033 0.317725,-0.407726 0.03809,-0.463262 0.01961,-0.124231 -0.11153,-0.332032 -0.353426,-0.275034 -0.262242,0.0618 -0.246533,0.145692 -0.243589,0.152354 0.136526,-0.04727 0.146121,0.06019 0.109836,0.104522 -0.07845,0.09584 -0.215779,0.02739 -0.206829,-0.103194 0.0096,-0.140411 0.100912,-0.210146 0.217458,-0.244917 0.08033,-0.02396 0.172968,-0.03205 0.26042,-0.03676 l -0.377707,-0.101416 c 3.29e-4,8.27e-4 6.55e-4,0.0018 8.57e-4,0.0027 0.0032,0.01169 -0.0046,0.02243 -0.01683,0.02569 -0.01218,0.0033 -0.02433,-0.002 -0.02746,-0.01373 -0.0023,-0.0086 9.43e-4,-0.01805 0.0075,-0.02392 l -0.346763,-0.09301 c 0.171882,0.103711 0.06712,0.252411 0.06156,0.333496 l 0.0045,0.01772 c -0.0015,-0.0036 -0.0041,-0.007 -0.0062,-0.01063 2.8e-5,0.0028 4.31e-4,0.0054 8.57e-4,0.008 l -0.004,-0.01373 c -0.04756,-0.07071 -0.226694,-0.151297 -0.09744,-0.345897 l -0.119133,-0.03189 c -0.0033,0.121013 -0.06158,0.240621 -0.409229,0.344568 0.184645,-0.06388 0.230772,-0.231342 0.286549,-0.377342 l -0.14571,-0.03897 c -0.0569,0.08504 -0.110385,0.179957 -0.167856,0.271491 -0.149832,0.238632 -0.397789,0.415777 -0.662119,0.446876 0.0059,8.91e-4 0.01053,0.0015 0.01328,0.0013 -0.183506,0.02166 -0.268027,0.0015 -0.523053,-0.04606 -0.02189,-0.0041 -0.04183,-0.0082 -0.06201,-0.0097 l -0.019483,-0.07308 c 0.05206,0.01132 0.102314,0.02188 0.155455,0.03366 -0.0053,-0.0032 -0.01112,-0.0069 -0.01639,-0.01018 -0.06435,-0.04063 -0.120301,-0.08854 -0.17007,-0.13951 l -0.04828,-0.179813 c 0.0082,0.0045 0.01799,0.0063 0.02834,0.0035 0.02071,-0.0055 0.03367,-0.02529 0.02834,-0.04518 -0.0053,-0.01988 -0.02712,-0.03168 -0.04783,-0.02613 -0.01036,0.0028 -0.01782,0.0089 -0.02258,0.01727 l -0.02879,-0.108508 c 0.0151,-0.0064 0.02499,-0.02073 0.02082,-0.03632 -0.0042,-0.01564 -0.02079,-0.02619 -0.03721,-0.02436 l -0.02569,-0.09611 c 0.0066,-0.0066 0.0092,-0.01526 0.0067,-0.0248 -0.0026,-0.0095 -0.0096,-0.01707 -0.0186,-0.01949 l -0.02834,-0.105408 c 0.007,-0.0058 0.0099,-0.01452 0.0075,-0.02347 -0.0024,-0.009 -0.0093,-0.01532 -0.01816,-0.01639 l -0.02879,-0.108065 c 0.0039,0.001 0.0076,0.0025 0.01196,0.0013 0.01244,-0.0033 0.02002,-0.01509 0.01683,-0.02702 -0.0032,-0.01193 -0.01547,-0.01883 -0.02791,-0.0155 -0.0043,0.0012 -0.0078,0.0033 -0.01063,0.0062 l -0.100522,-0.375565 c 0.01774,-0.265894 0.06614,-0.482581 0.08681,-0.566014 -0.01045,-0.210401 0.01904,-0.449382 0.09699,-0.66212 l -4.46e-4,-0.0018 c 0.02259,-0.06988 0.115912,-0.01639 0.09168,0.062 l -0.0279,0.04872 c 0.02976,0.02098 0.07232,0.03252 0.129324,0.01772 0.0227,-0.0059 0.04324,-0.0113 0.05935,-0.0062 -0.07617,0.14675 -0.191577,0.331098 -0.242703,0.524381 0.06448,-0.172971 0.178344,-0.421854 0.37867,-0.678506 0.09286,-0.118972 0.204361,-0.234562 0.337039,-0.337482 l 0.22055,-0.8233335 c -0.01058,0.00419 -0.02052,0.00698 -0.02967,0.00842 -0.06726,0.010653 -0.13635,0.018442 -0.185571,-0.069533 -0.05032,-0.089947 -0.01751,-0.1440601 0.04606,-0.1709553 0.09671,-0.040919 0.18368,0.082731 0.06156,0.127552 0.05676,0.03176 0.113368,0.020556 0.13951,-0.014173 l 0.01461,-0.054032 -10e-7,-4.458e-4 c -0.001,-0.011674 -0.0044,-0.024137 -0.01018,-0.037202 -0.0211,-0.047126 -0.06053,-0.1150619 -0.255106,-0.086803 l 0.02126,0.0155 c -0.157682,0.057156 -0.222947,0.039019 -0.333939,0.058462 l 0.04828,0.039417 c -0.04206,-0.00349 -0.120659,0.015176 -0.209485,-0.082811 l -0.01285,0.054032 c -0.103213,-0.031127 -0.17799,-0.1187496 -0.209487,-0.1647546 -1.68e-4,0.02857 0.01971,0.056736 0.0031,0.076177 -0.05986,-0.0458 -0.118233,-0.092215 -0.135968,-0.1895566 -0.0045,0.031582 -0.0083,0.057402 -0.05226,0.045175 -0.06509,-0.1029937 -0.07721,-0.2001132 -0.06909,-0.2954073 -0.0119,0.068711 -0.02821,0.1289926 -0.06688,0.1505825 -0.04708,-0.090988 -0.04884,-0.1883501 -0.02348,-0.271934 -0.0275,0.028534 -0.0089,0.062945 -0.101865,0.084592 0.09257,-0.1446759 0.05548,-0.2196365 0.05536,-0.3140086 -0.02235,-0.00839 -0.04621,-0.00985 -0.07795,0.051818 -0.0033,-0.1792682 0.08898,-0.2191678 0.151025,-0.3020505 -0.0512,-0.020595 -0.05242,-0.05487 -0.05137,-0.089463 0.07154,0.058185 0.293016,-0.1213798 0.506665,-0.188228 l 1e-6,4.459e-4 c 0.01423,-0.00452 0.02883,-0.00819 0.04296,-0.011515 0.118318,-0.028163 0.231923,-0.013594 0.310466,0.1031934 0.07305,0.1086142 -0.0095,0.2359974 -0.125338,0.1922139 -0.05358,-0.020245 -0.100687,-0.1179521 0.04119,-0.1452678 -8.09e-4,-0.00723 -0.02943,-0.087354 -0.287435,-0.00974 -0.237988,0.071586 -0.247395,0.3172045 -0.168298,0.4149874 -0.214405,0.1879124 0.197669,0.416447 0.264406,0.3817706 0.01265,0.048593 -0.04168,0.075866 -0.0744,0.103636 0.179218,0.091496 0.222496,0.063741 0.363612,0.015501 -0.0096,0.037163 -0.0227,0.070571 -0.05226,0.085921 0.0891,0.031116 0.171305,0.047726 0.226759,0.0062 l -0.03809,0.036314 c 0.228216,-0.00642 0.315757,0.062424 0.356083,0.1403958 l 0.0075,-0.028345 c 0.0017,-0.025322 0.0081,-0.051866 0.02126,-0.079277 l 4.42e-4,-8.914e-4 0.04695,-0.1762699 c -0.0013,1.02e-5 -0.0027,1.63e-5 -0.0039,1.08e-5 0.0023,-0.0033 0.0045,-0.00671 0.0067,-0.010187 l 4.41e-4,-4.469e-4 0.02391,-0.089021 -10e-7,-4.457e-4 c 3.54e-4,-0.022737 -0.0019,-0.050539 -0.0075,-0.085921 0.0079,0.00976 0.0158,0.01805 0.02392,0.024802 l 0.02658,-0.099203 c -0.09406,0.0088 -0.161054,-0.015834 -0.19,-0.064662 0.0063,0.028877 -0.0051,0.048157 -0.0155,0.06289 -0.02459,-0.044493 -0.116979,-0.1570751 -0.13641,-0.2613048 -0.0043,-0.022987 -0.0045,-0.042964 -0.0027,-0.05979 0.08409,0.1334818 0.226589,0.162374 0.347225,0.124452 0.01982,-0.00623 0.03882,-0.014348 0.05669,-0.023916 l 0.0062,-0.022588 c -0.02198,0.012599 -0.04522,0.023057 -0.06909,0.03056 -0.114765,0.036078 -0.257973,-2.555e-4 -0.338367,-0.1302095 0.04518,-0.1420788 0.346719,-0.024967 0.333052,-0.1448247 0.05967,-0.021204 0.07614,0.042606 0.08814,0.050932 l 4.48e-4,4.435e-4 c 0.08168,-0.089712 0.03888,-0.2112463 -0.0053,-0.2732626 0.02117,0.042395 -4.89e-4,0.097378 -0.05713,0.096993 -0.09617,-6.477e-4 -0.07876,-0.1566844 0.03809,-0.188228 0.01082,-0.00293 0.02276,-0.00507 0.03543,-0.00576 0.01267,-6.959e-4 0.02615,-3.3e-5 0.04031,0.00177 0.03008,0.00384 0.05639,0.010933 0.07928,0.020373 l 4.47e-4,-9e-7 0.03012,-0.1138225 c -0.05563,-0.029701 -0.126528,-0.042005 -0.210815,-0.022145 -0.262242,0.061795 -0.246533,0.1456897 -0.24359,0.1523542 0.136528,-0.047274 0.146122,0.060196 0.109837,0.1045218 -0.07845,0.095849 -0.21578,0.027392 -0.206829,-0.1031931 0.0096,-0.1404114 0.10091,-0.2101463 0.217458,-0.2449179 0.117216,-0.034967 0.261067,-0.036068 0.376013,-0.042518 l 0.06112,-0.2285308 C 5.6255301,7.6828967 5.4882911,7.6426511 5.3641291,7.5769779 5.1693211,7.4739415 4.9820741,7.349688 4.8038741,7.3360462 c 0.317309,-0.048815 0.486746,0.2290018 0.824216,0.2210017 0.06083,-0.00144 0.119432,-0.00714 0.175827,-0.018602 l 0.100979,-0.376456 c -0.16836,0.1472199 -0.426874,0.2320517 -0.670093,0.179809 -0.148248,-0.031841 -0.209094,-0.1507234 -0.453075,-0.1191372 0.0084,-0.024991 0.0263,-0.050427 0.05182,-0.074406 l 4.43e-4,-4e-7 4.44e-4,-1e-7 4.41e-4,-4.468e-4 4.44e-4,-4e-7 4.43e-4,-10e-8 v -4.458e-4 l 4.44e-4,-10e-8 4.44e-4,-3e-7 4.43e-4,-10e-8 4.44e-4,-3e-7 4.44e-4,-2e-7 4.41e-4,-4.468e-4 c 0.03864,-0.035186 0.09328,-0.066636 0.158997,-0.086806 0.0084,-0.00269 0.01606,-0.00576 0.0248,-0.00798 l -4.46e-4,-0.00178 c 0.06111,-0.015412 0.130948,-0.019565 0.203729,-0.010187 0.06326,0.00815 0.129277,0.027654 0.195315,0.062005 0.186574,0.09705 0.382868,0.051598 0.51508,-0.056247 l 0.236059,-0.8813496 c -0.06728,-0.092448 -0.132157,-0.1519975 -0.165197,-0.1629833 -0.006,0.015226 -0.0139,0.028151 -0.02303,0.040303 -0.05526,0.073705 -0.122898,-0.045705 -0.0075,-0.053589 0.0033,-0.024357 0.0045,-0.048322 0.0049,-0.071305 -0.120614,-0.2314428 -0.800463,-0.5587634 -1.086408,-0.2701624 0.04045,-0.028619 0.10052,-0.087257 0.130209,-0.010186 0.01416,0.036744 -0.04511,0.1140973 -0.13641,0.1085077 -0.05215,-0.0032 -0.103503,-0.075494 -0.08592,-0.1815845 0.02025,-0.1221877 0.117313,-0.2782692 0.383099,-0.3250808 -0.221735,-0.1037581 -0.439901,-0.156829 -0.639089,-0.1474821 -0.151709,0.00712 -0.201617,0.1912362 -0.15324,0.2551043 0.05268,-0.064903 0.115731,-0.061485 0.137296,-0.0155 0.05472,0.1167231 -0.06858,0.1808844 -0.121352,0.1833561 -0.154777,0.00725 -0.315829,-0.2502541 -0.04916,-0.5004647 -0.03923,-0.048798 -0.09288,-0.1065924 -0.0062,-0.2338456 0.02196,0.191792 0.149767,0.1787961 0.25909,0.1904423 0.187331,0.019958 0.359924,0.067439 0.515081,0.1302096 0.301812,0.1221035 0.52511,0.2810441 0.667434,0.3986001 -0.140918,-0.1418232 -0.333224,-0.2440481 -0.472563,-0.3330526 0.01142,-0.012401 0.03233,-0.018071 0.05492,-0.024359 0.05694,-0.015679 0.08618,-0.046566 0.101422,-0.07972 l -0.04695,-0.028345 c -0.06018,-0.055769 -0.0063,-0.1488756 0.04828,-0.09965 0.174459,0.1453853 0.319044,0.338692 0.41543,0.5265954 0.05819,0.060456 0.204139,0.2182986 0.348996,0.4318172 l 0.147445,-0.5513974 c -0.0404,0.014905 -0.08013,0.032551 -0.111608,0.04916 l 4.46e-4,0.00178 c -0.0075,0.00471 -0.01659,0.00943 -0.02525,0.013286 -0.0041,0.00246 -0.0084,0.00385 -0.01196,0.0062 l -2e-6,-4.458e-4 -4.45e-4,7e-7 -1e-6,-4.458e-4 -1e-6,-4.459e-4 c -0.03351,0.011982 -0.07039,0.012729 -0.09566,-0.013729 -0.03145,-0.03292 -0.0093,-0.085053 0.0022,-0.092564 l 4.44e-4,-4.475e-4 c 1.87e-4,-7.56e-5 0.0011,-3.936e-4 0.0014,-4.45e-4 l 4.46e-4,-8e-7 4.46e-4,-7e-7 4.45e-4,-1e-6 4.49e-4,4.436e-4 c 0.02383,0.023903 0.039,0.026049 0.05182,0.022145 -0.12117,-0.2511886 -0.470839,-0.8271386 -1.135568,-0.8290889 -0.02703,0.067474 -0.02835,0.073072 -0.10275,0.093007 -0.09374,0.025116 -0.09411,-0.1231046 -0.129324,-0.2666196 -0.0062,-0.02517 -0.01369,-0.050607 -0.0217,-0.075734 l 0.05713,-0.015501 c 0.0065,0.00393 0.0149,0.00616 0.02303,0.00399 0.0081,-0.00218 0.01583,-0.00828 0.01993,-0.015059 l 0.106293,-0.028786 c -0.0107,0.00848 -0.02124,0.017085 -0.03233,0.025244 -0.0042,0.050255 0.0058,0.101979 0.04119,0.1541256 0.703834,-0.085392 1.158248,0.5882958 1.263564,0.8109302 0.05485,-0.00423 0.104474,-0.010605 0.14571,-0.020372 l 0.08504,-0.3162228 -1e-6,-4.459e-4 c -5.3e-4,-0.00129 -0.0013,-0.00267 -0.0018,-0.00399 -0.01156,-0.0315 -7.2e-5,-0.051866 0.01949,-0.062447 l 0.0031,-0.011515 c -0.08617,-0.062225 -0.204459,-0.057666 -0.328624,-0.063333 -0.220927,-0.010079 -0.36221,-0.1401823 -0.404801,-0.2967358 -0.0064,-0.023795 -0.01017,-0.048288 -0.0124,-0.07219 -0.180258,0.014164 -0.279367,-0.1248104 -0.328182,-0.2635193 l 0.09877,-0.026573 c 0.04869,0.1105072 0.134993,0.1896638 0.209043,0.1829133 0.01004,-9.342e-4 0.01871,-0.00295 0.02746,-0.00576 0.0045,-0.01862 0.01045,-0.036009 0.0186,-0.050933 0.0129,-0.023612 0.07094,-0.030471 0.102307,-0.032332 0.007,-0.00285 0.01328,-0.00461 0.02082,-0.00399 0.103786,0.00798 0.06526,0.1295377 -0.0434,0.1753843 0.0045,0.085787 0.04073,0.1885866 0.152797,0.2648478 0.154717,0.1052697 0.427572,0.020403 0.511094,0.1045218 l 0.240933,-0.8990653 c -0.05255,-0.00598 -0.08032,0.014935 -0.09345,0.02746 0.03991,0.00579 0.07219,0.015186 0.05934,0.049603 -0.0041,-0.022928 -0.0525,-0.018389 -0.09345,0.013729 0.0251,0.010383 0.04632,0.044248 0.03366,0.06289 -0.06203,-0.08312 -0.257107,0.025018 -0.317109,0.068649 -0.07385,-0.00793 -0.267818,-0.015433 -0.309136,0.099207 -0.02101,-0.01008 -0.02112,-0.048007 -4.42e-4,-0.071748 -0.06612,-0.00784 -0.0797,0.016316 -0.08947,0.03543 -0.02048,-0.036364 -0.0041,-0.049304 0.02658,-0.072634 -0.03683,-0.00629 -0.08374,-0.00693 -0.124895,0.049603 -0.01709,-0.023451 -0.02558,-0.0506 -0.02923,-0.078834 l 0.43226,-0.115594 c 0.02645,0.020677 0.04894,0.046533 0.06377,0.079277 -0.06002,-0.037327 -0.129955,-0.054962 -0.195758,-0.012844 0.07092,-0.036604 0.15692,-0.013267 0.214802,0.045618 0.02069,-0.079937 0.08547,-0.1437204 0.165197,-0.1474823 -0.07804,-0.00357 -0.130111,0.047059 -0.163426,0.1093936 -0.0035,-0.035778 0.0032,-0.069915 0.0155,-0.1009787 l 0.42473,-0.1133834 z m -2.147127,4.0192204 c 0.105227,-0.067122 0.218139,0.00275 0.317551,0.047389 0.102048,0.045825 0.230537,0.082483 0.412773,0.053146 -0.178508,0.023993 -0.306012,-0.022856 -0.405244,-0.069976 -0.115347,-0.054774 -0.215909,-0.1116489 -0.32508,-0.030559 z m 1.556313,-3.3229983 c -0.01549,0.039603 -0.02009,0.084191 -0.0071,0.1328668 -0.01308,-0.048678 -0.039,-0.085047 -0.07219,-0.1116081 z m 0.09522,0.1669692 c 0.102798,0.00109 0.218567,0.067409 0.173612,0.2763629 C 6.6361341,4.1524 6.4941521,4.0967589 6.4261761,4.0998542 c -0.06041,0.031308 -0.154138,0.1498837 -0.120466,0.2630762 -0.176503,-0.1950556 -0.03441,-0.3246279 0.0744,-0.352097 0.0073,-0.00183 0.01441,-0.00311 0.02126,-0.00399 0.0063,-0.00265 0.01451,-0.00549 0.0217,-0.00752 0.02023,-0.00573 0.04315,-0.00867 0.06688,-0.00842 z m -0.06068,0.1213517 c 0.01868,-8.533e-4 0.04408,0.00436 0.06998,0.012401 0.0217,0.065291 0.01844,0.1502786 -0.0075,0.219673 -0.05718,-0.047116 -0.101286,-0.1195104 -0.115151,-0.1868993 0.01841,-0.01991 0.0361,-0.036569 0.0527,-0.045175 z m -1.934981,0.2710481 c 0.02505,-0.00198 0.04797,0.012488 0.05447,0.03676 0.0075,0.027742 -0.01007,0.056475 -0.03897,0.064219 -0.0289,0.00775 -0.05855,-0.00857 -0.06599,-0.036317 -0.0075,-0.02774 0.01052,-0.055147 0.03942,-0.06289 0.0036,-9.685e-4 0.0075,-0.00149 0.01107,-0.00177 z m -0.26972,0.022145 c -0.02406,0.03362 -0.06287,0.049691 -0.101865,0.064662 -0.03019,0.011592 -0.07876,0.014427 -0.125338,-0.00399 z m 1.041675,0.026573 -0.0035,0.032331 0.01285,0.0031 0.0018,-4.459e-4 0.01727,0.00177 0.0049,-0.032331 -0.01904,-0.00177 -4.45e-4,-0.00134 z m -0.306036,0.017272 c -0.0021,1.661e-4 -0.0042,3.424e-4 -0.0062,8.827e-4 -0.01625,0.00435 -0.02544,0.019833 -0.02126,0.035431 0.0042,0.015595 0.02007,0.025612 0.03631,0.021259 0.01625,-0.00435 0.02677,-0.021605 0.02258,-0.037203 -0.0037,-0.013646 -0.01722,-0.021521 -0.03144,-0.020373 z m 1.573585,0.021702 c 0.01826,-0.00122 0.03514,0.010274 0.03986,0.027902 0.0054,0.020151 -0.0074,0.040879 -0.02834,0.046503 -0.02099,0.00562 -0.04066,-0.00642 -0.04606,-0.026573 -0.0054,-0.020147 0.0056,-0.04088 0.02658,-0.046503 0.0027,-7.031e-4 0.0054,-0.00116 0.008,-0.00134 z m -2.676379,0.032774 c -0.03157,0.039341 -0.07612,0.061379 -0.108065,0.066433 -0.04125,0.00654 -0.08326,0.012217 -0.120909,-0.00487 z m 1.698037,0.0093 -0.01461,0.028788 0.01418,0.00753 0.0155,0.00709 0.01461,-0.028345 -0.01418,-0.00753 -0.0018,4.458e-4 z m 0.248904,0.15944 -0.02082,0.024802 0.01328,0.011072 0.0022,0.00133 0.0084,0.00753 0.02259,-0.023915 -0.01063,-0.00886 z m -2.393817,0.00221 c 0.02294,2.959e-4 0.04312,0.014665 0.04916,0.037202 0.0075,0.027742 -0.01007,0.056475 -0.03897,0.06422 -0.0289,0.00775 -0.05855,-0.00857 -0.06599,-0.036317 -0.0075,-0.02774 0.01052,-0.055147 0.03942,-0.06289 0.0054,-0.00145 0.01109,-0.00229 0.01639,-0.00221 z m -0.362283,0.046061 c 0.0042,0.02602 0.0086,0.051817 0.0155,0.077506 0.03848,0.1426708 0.114997,0.2698516 0.02125,0.2949641 -0.07439,0.019934 -0.07838,0.016138 -0.135524,-0.028788 -0.397296,0.2309283 -0.527495,0.6248418 -0.563355,0.9375968 L 2.3511511,5.8705226 2.3019911,5.6876094 c 0.08572,-0.2900154 0.263131,-0.5997877 0.618272,-0.7511403 0.0045,-0.06284 -0.01241,-0.1127116 -0.04119,-0.1541255 -0.01342,-0.00149 -0.02572,-0.00381 -0.03897,-0.00576 l 0.104965,-0.028345 c 0.0065,0.00393 0.0149,0.00572 0.02303,0.00354 0.0081,-0.00218 0.01538,-0.00828 0.01949,-0.015058 z m 2.211346,0.1448248 c 0.03393,0.064706 0.0518,0.1737999 0.0057,0.199743 -0.04352,0.024521 -0.152063,-0.053553 -0.172728,-0.091235 0.03253,0.011856 0.06208,0.014407 0.08149,-0.00221 -0.01825,-0.016326 -0.01368,-0.042064 -0.01285,-0.066876 0.02603,0.00677 0.0553,0.00385 0.07086,0.03676 0.02246,-0.015346 0.02287,-0.046885 0.02746,-0.076177 z m 0.756898,0.00797 -0.0248,0.021701 0.0097,0.010186 0.01196,0.013288 0.02524,-0.01993 -0.0124,-0.014615 z m -3.628149,0.023916 c 0.02707,0.1445342 0.01128,0.3145379 -0.151911,0.3923999 0.01006,0.021827 0.01716,0.044787 0.02347,0.068648 0.01585,0.059928 0.0184,0.1247432 0.004,0.1873421 l -0.08685,-0.323748 c -0.0023,-0.00868 -0.0039,-0.017439 -0.0053,-0.026131 l 4.44e-4,10e-8 4.41e-4,-4.47e-4 4.43e-4,-1e-7 4.43e-4,1e-7 c 0.0089,-0.00183 0.01758,-0.0047 0.02658,-0.00886 0.06519,-0.030109 0.102334,-0.1353633 0.09301,-0.2506754 0.02342,-0.014811 0.04955,-0.026493 0.07795,-0.034103 z m 1.315381,0.056247 c 0.138691,0.066864 0.120739,0.1440711 0.111165,0.2059435 0.356049,0.083355 0.345826,0.3863939 0.208158,0.4575047 -0.04693,0.024244 -0.185661,0.031007 -0.196643,-0.097436 -0.0043,-0.0506 0.04992,-0.085671 0.127995,-0.055805 0.01,-0.0795 -0.126808,-0.2136258 -0.261748,-0.1439391 -0.177192,0.091511 -0.339491,0.2465653 -0.479648,0.4473183 0.253609,-0.092383 0.415627,-0.00579 0.494264,0.089906 0.06827,0.083086 0.05951,0.1713438 0.01594,0.200186 -0.07627,0.050491 -0.166168,0.01321 -0.172284,-0.025688 -0.01282,-0.081593 0.07024,-0.061245 0.119581,-0.05669 -0.391936,-0.1069623 -0.818654,0.5165257 -0.807387,0.7772708 0.01175,0.019755 0.02486,0.040323 0.03986,0.05979 0.103855,-0.05086 0.105092,0.086244 0.02037,0.050046 -0.01398,-0.00597 -0.02616,-0.013732 -0.03897,-0.023916 -0.07718,0.086904 -0.192233,0.8230938 0.315337,1.1373397 0.302117,0.1870428 0.550113,0.1512511 0.790558,0.01993 0.296258,-0.161806 0.304452,-0.4868364 0.603658,-0.6032151 -0.14751,0.1009148 -0.247754,0.3023147 -0.364941,0.4889498 -0.149833,0.2386292 -0.397788,0.416223 -0.66212,0.4473182 0.0059,8.913e-4 0.01053,10e-4 0.01329,8.828e-4 -0.183504,0.02167 -0.268028,0.00147 -0.523053,-0.046061 -0.02189,-0.00408 -0.04183,-0.00774 -0.06201,-0.0093 l -0.01993,-0.073519 c 0.05206,0.011314 0.102756,0.021898 0.155897,0.033659 -0.0053,-0.00317 -0.01155,-0.00686 -0.01683,-0.010186 -0.06435,-0.040625 -0.120303,-0.088544 -0.170069,-0.1395101 l -0.04828,-0.1798133 c 0.0082,0.00452 0.01799,0.00676 0.02834,0.00398 0.02071,-0.00555 0.03411,-0.025736 0.02879,-0.045618 -0.0053,-0.019881 -0.02712,-0.031681 -0.04783,-0.026131 -0.01035,0.00278 -0.01782,0.00885 -0.02258,0.017274 l -0.02923,-0.1085079 c 0.0151,-0.00643 0.02499,-0.020732 0.02082,-0.036317 -0.0042,-0.015641 -0.02079,-0.026196 -0.03721,-0.024358 l -0.02569,-0.096107 c 0.0065,-0.00658 0.0096,-0.015261 0.0071,-0.024802 -0.0026,-0.00954 -0.01008,-0.01706 -0.01904,-0.019487 l -0.02791,-0.1054077 c 0.007,-0.00578 0.0095,-0.014093 0.0071,-0.023029 -0.0024,-0.00895 -0.0088,-0.015765 -0.01772,-0.01683 l -0.02923,-0.108065 c 0.0039,0.00105 0.0081,0.00249 0.0124,0.00133 0.01244,-0.00333 0.01958,-0.015082 0.01639,-0.027017 -0.0032,-0.011931 -0.01547,-0.018832 -0.02791,-0.015502 -0.0043,0.00115 -0.0074,0.00332 -0.01018,0.0062 L 2.6217191,6.8807509 c 0.01774,-0.265891 0.06614,-0.4825761 0.08681,-0.5660105 -0.01046,-0.210404 0.01904,-0.4493786 0.09699,-0.6621194 l -4.46e-4,-0.00178 c 0.02259,-0.069883 0.115913,-0.016384 0.09168,0.062005 l -0.0279,0.048728 c 0.02976,0.02098 0.07187,0.032518 0.12888,0.017715 0.0227,-0.00586 0.04368,-0.011305 0.05979,-0.0062 -0.07617,0.1467493 -0.191576,0.3311 -0.242703,0.5243808 0.06448,-0.1729689 0.178343,-0.4218552 0.37867,-0.6785062 0.102983,-0.1319393 0.229074,-0.2597488 0.381328,-0.3706984 0.08885,-0.064744 0.205747,-0.117463 0.12888,-0.2945213 z m -0.670977,0.011958 c -0.0023,1.774e-4 -0.0048,7.227e-4 -0.0071,0.00134 -0.01625,0.00435 -0.02544,0.019394 -0.02126,0.034989 0.0042,0.015595 0.02007,0.026056 0.03631,0.021702 0.01625,-0.00435 0.02677,-0.021607 0.02259,-0.037203 -0.0034,-0.012671 -0.01527,-0.020693 -0.02834,-0.020815 -7.55e-4,-6.7e-6 -0.0015,-6.04e-5 -0.0022,5.9e-6 z m 1.041676,0.014615 c 0.0359,-0.00248 0.06907,0.019701 0.07839,0.054476 0.01065,0.039743 -0.01395,0.080583 -0.05536,0.091678 -0.04141,0.011096 -0.08325,-0.012075 -0.09389,-0.051818 -0.0093,-0.034775 0.0089,-0.072327 0.04119,-0.088135 0.0046,-0.00219 0.009,-0.00215 0.01417,-0.00354 0.0051,-0.00139 0.01037,-0.00231 0.01551,-0.00265 z m 2.125425,0.1191374 -0.02746,0.0186 0.01328,0.017715 0.0057,0.00842 0.02701,-0.018602 -0.0053,-0.00842 z m -3.451879,0.00753 -0.01152,0.00797 -0.0018,4.429e-4 4.46e-4,0.00134 -0.01594,0.011073 0.02082,0.025245 0.0155,-0.010628 0.01107,-0.0093 z m 2.045263,0.1071793 c 0.05299,-0.00177 0.102042,0.00926 0.11338,0.038974 0.01714,0.044935 -0.08259,0.1366895 -0.124895,0.1510253 0.01813,-0.029312 0.02718,-0.056212 0.01373,-0.077063 -0.02003,0.015064 -0.04741,0.00742 -0.07264,0.0031 0.01167,-0.023838 0.01487,-0.052754 0.05137,-0.06289 -0.01161,-0.023565 -0.04396,-0.029117 -0.07307,-0.037646 0.02713,-0.00868 0.06033,-0.01445 0.09212,-0.0155 z m 1.51291,0.024358 c -0.0029,2.03e-4 -0.0059,9.685e-4 -0.0089,0.00177 -0.02381,0.00638 -0.03979,0.030294 -0.03366,0.053147 0.0061,0.022847 0.03156,0.035609 0.05536,0.029231 0.02381,-0.00638 0.03801,-0.029857 0.03189,-0.052704 -0.0054,-0.019993 -0.0241,-0.032873 -0.04473,-0.031446 z m 0.109393,0.00443 -0.02392,0.0062 -0.0084,4.468e-4 0.0066,0.031003 0.0097,-8.999e-4 0.01018,-0.00266 0.0075,-0.027459 z m -3.877496,0.078834 -0.01018,0.014172 -0.0097,0.014172 0.02834,0.01683 0.01018,-0.014172 0.008,-0.013731 z m 0.529253,0.1443817 c 0.01313,0.021067 0.03023,0.040954 0.02258,0.064219 0.02512,0.00468 0.04909,-0.011885 0.07131,-0.038532 9.43e-4,0.042965 -0.05412,0.1646761 -0.104079,0.1651977 -0.05285,5.563e-4 -0.09181,-0.1028218 -0.09478,-0.175827 0.01862,0.023071 0.03445,0.050197 0.06156,0.052261 -0.0029,-0.03629 0.02425,-0.048439 0.0434,-0.067319 z m 0.560698,0.050932 c -0.02096,0.021946 -0.04645,0.042881 -0.04473,0.069091 0.0367,-0.00941 0.05415,0.013981 0.07617,0.028788 -0.01968,0.016359 -0.03801,0.036246 -0.06289,0.033216 -0.0012,0.024784 0.01969,0.043911 0.05004,0.060233 -0.0438,0.00874 -0.177496,-0.020723 -0.185128,-0.068205 -0.007,-0.043955 0.06884,-0.093413 0.137738,-0.115594 0.0099,-0.00311 0.01951,-0.00551 0.02879,-0.00753 z m -1.225918,0.066876 -0.0071,0.018158 -0.0053,0.012843 0.03189,0.00974 0.0035,-0.011072 -4.45e-4,-0.00134 0.0075,-0.016831 z m 1.893352,0.014172 c -0.05867,0.056316 -0.03415,0.1489212 0.02037,0.120466 0.07834,-0.042929 0.148339,-0.1073405 0.224102,-0.046946 l 0.05669,0.045618 c -0.0273,0.019393 -0.03769,0.034526 -0.03942,0.056247 -0.01539,-0.018162 -0.03255,-0.026605 -0.06467,-0.025245 0.0099,-0.014665 0.02712,-0.041733 0.0248,-0.052704 -8.4e-5,-2.592e-4 -2.76e-4,-0.00133 -4.46e-4,-0.00178 l -4.43e-4,-4.446e-4 -4.43e-4,-4.447e-4 c -1.91e-4,-1.639e-4 -0.0011,-7.367e-4 -0.0014,-8.88e-4 -0.0043,-0.00193 -0.01322,-6.732e-4 -0.02834,0.00708 -0.07831,0.04018 -0.113023,0.1261837 -0.126667,0.2205588 -0.0043,-0.089538 -0.03055,-0.1667738 -0.103636,-0.2143584 l -0.0014,-0.00443 c -5.94e-4,0.00112 -0.0016,0.00243 -0.0022,0.00354 l -4.44e-4,3e-7 c -1.96e-4,-2.291e-4 -7.18e-4,-0.00108 -8.57e-4,-0.00134 l -4.43e-4,-4.447e-4 -4.43e-4,-4.446e-4 -4.44e-4,-4.447e-4 0.0014,0.00487 c -0.03948,0.077783 -0.02332,0.1577308 0.01772,0.2374236 -0.059,-0.074909 -0.132204,-0.1319125 -0.220116,-0.1275519 -0.01498,7.436e-4 -0.02327,0.00304 -0.02701,0.00621 -2.09e-4,2.182e-4 -0.0012,0.00111 -0.0014,0.00132 l 1e-6,4.458e-4 -4.43e-4,3e-7 10e-7,4.458e-4 v 4.459e-4 c -1.32e-4,5.517e-4 -3.8e-4,0.00184 -4.44e-4,0.00266 l 1e-6,4.458e-4 c 0.003,0.010782 0.03106,0.026342 0.04695,0.034102 -0.0285,0.014863 -0.03916,0.030615 -0.0434,0.054033 -0.01235,-0.01795 -0.0291,-0.026086 -0.06244,-0.029231 l 0.02791,-0.067762 c 0.03541,-0.090185 0.126823,-0.068867 0.216131,-0.070861 0.06147,-0.00263 0.03646,-0.095271 -0.04252,-0.1147083 0.02361,0.00157 0.0499,0.012381 0.06466,-0.01904 l -0.0013,-0.00443 4.43e-4,-3e-7 1e-6,4.458e-4 4.44e-4,-3e-7 4.43e-4,-1e-7 4.44e-4,4.447e-4 4.43e-4,-3e-7 -1e-6,-4.459e-4 4.44e-4,-3e-7 4.41e-4,-4.469e-4 4.43e-4,-1e-7 4.42e-4,-4.469e-4 4.44e-4,-3e-7 -1e-6,-4.458e-4 4.44e-4,-1e-7 0.0014,0.00399 c 0.02881,0.020431 0.04402,-0.00217 0.06377,-0.015493 z m 0.501351,0.2241021 c -0.07135,0.049382 -0.118722,0.1053105 -0.124895,0.1753841 0.05909,-0.1222172 0.16208,-0.1492188 0.267505,-0.1713981 -0.06634,0.022185 -0.114929,0.068822 -0.148368,0.1395101 0.04326,-0.07307 0.08236,-0.1478155 0.284778,-0.1333098 -0.02943,0.031769 -0.05533,0.062595 -0.03012,0.07972 0.02759,-0.019903 0.05201,-0.031775 0.07529,-0.038089 0.116861,-0.031735 0.181625,0.071239 0.177155,0.1209088 -0.0098,0.1083808 -0.157078,0.1495546 -0.187342,0.051818 0.01883,-0.020997 0.06903,-0.02766 0.09699,-0.014172 -0.05659,-0.033939 -0.139766,0.025402 -0.170955,0.074848 0.05055,-0.00518 0.10127,-0.00864 0.116037,0.070419 -0.262551,-0.021456 -0.326045,0.2371487 -0.418531,0.3264094 -0.01055,-0.015273 -0.03741,-0.022745 -0.04074,-0.04296 -0.01449,-0.087881 -0.03666,-0.1063839 -0.03631,-0.1359671 0.001,-0.091613 0.01615,-0.1922499 0.04074,-0.2431461 -0.05076,0.056589 -0.0524,0.1515093 -0.05004,0.2391601 7.26e-4,0.027276 -0.02752,0.056161 -0.04207,0.07352 -0.02358,0.02811 -0.06027,-0.040595 -0.08947,-0.061119 -0.07928,-0.252053 -0.01362,-0.3448028 0.0434,-0.4482046 -0.02396,0.070262 -0.02692,0.1276577 0,0.1651977 0.04756,-0.088092 0.102218,-0.1734598 0.236946,-0.2285304 z m -0.71837,0.1922047 c 0.10108,0.061043 0.205704,0.1083448 0.263077,0.3662694 -0.01503,0.032374 -0.01424,0.1104342 -0.04872,0.097879 -0.02128,-0.00774 -0.05963,-0.018522 -0.07263,-0.042508 -0.04179,-0.077085 -0.09072,-0.1584033 -0.162984,-0.1820275 0.04675,0.031782 0.11006,0.1116339 0.156783,0.1904424 0.01508,0.02545 0.005,0.052166 0.03631,0.1355241 0.0072,0.019172 -0.01046,0.038629 -0.01196,0.057133 -0.124726,-0.03106 -0.310834,-0.2224909 -0.527482,-0.072634 -0.02672,-0.075854 0.01919,-0.098341 0.06555,-0.1191373 -0.05174,-0.027242 -0.15353,-0.037317 -0.185571,0.020373 0.01748,-0.02567 0.06399,-0.044636 0.09079,-0.035873 0.02265,0.099776 -0.125148,0.137702 -0.187784,0.04872 -0.0287,-0.040781 -0.02405,-0.162089 0.09301,-0.1930997 0.02332,-0.00617 0.05164,-0.00875 0.08547,-0.00531 0.01328,-0.027436 -0.02594,-0.040796 -0.06732,-0.05359 0.168042,-0.1137692 0.239121,-0.068666 0.313122,-0.027016 -0.06431,-0.044489 -0.129422,-0.060454 -0.197971,-0.046504 0.10239,-0.033506 0.205267,-0.06168 0.317552,0.014615 -0.04038,-0.057598 -0.109728,-0.082369 -0.1962,-0.089464 0.144206,-0.019667 0.234093,0.026769 0.319322,0.079277 0.0045,-0.045974 -0.02647,-0.094186 -0.08238,-0.1430532 z m 0.771514,0.00576 c -0.0093,0.00249 -0.01701,0.00395 -0.02524,0.00709 -0.123348,0.047965 -0.133642,0.1726639 -0.135524,0.232517 0.01102,-0.1289155 0.108938,-0.2193968 0.160769,-0.2396031 z m 1.314938,0.022145 c -3.75e-4,8.9e-5 -9.43e-4,3.847e-4 -0.0014,4.449e-4 l -4.46e-4,7e-7 -4.44e-4,4.475e-4 c -1.79e-4,8.95e-5 -7.01e-4,3.601e-4 -8.57e-4,4.442e-4 l -4.46e-4,7e-7 c -0.01244,0.00333 -0.01958,0.015084 -0.01639,0.027017 0.0032,0.011931 0.01547,0.018831 0.02791,0.015502 0.01244,-0.00333 0.01958,-0.015525 0.01639,-0.027458 -0.0028,-0.010485 -0.01268,-0.017218 -0.02347,-0.016388 l -4.46e-4,7e-7 z m -1.813188,0.032331 4.43e-4,-1e-7 c 8.57e-4,8.266e-4 0.0022,0.00189 0.0031,0.00266 l 4.43e-4,4.447e-4 4.42e-4,0.00266 c -10e-4,-0.00127 -0.0029,-0.00271 -0.004,-0.00399 -1.66e-4,-2.372e-4 -2.99e-4,-6.242e-4 -4.44e-4,-8.905e-4 l -1e-6,-4.458e-4 z m 0.01949,0.060676 0.01904,0.070419 c 0.05063,0.1248514 0.140989,0.2308754 0.235618,0.3131227 0.101695,0.088393 0.161104,0.2659523 0.02436,0.4021435 0.0075,-0.082495 -0.02681,-0.1749053 -0.134639,-0.2338456 -0.06392,0.1049588 -0.04686,0.2020287 8.57e-4,0.2697197 -0.186518,-0.049572 -0.222358,-0.2335569 -0.178484,-0.3609548 0.04083,-0.1185428 0.06597,-0.2554189 0.04739,-0.3888569 l -0.01683,-0.063776 c 0.004,0.015025 0.0085,0.03092 0.01373,0.045175 -0.003,-0.017089 -0.0065,-0.036262 -0.01107,-0.053147 z m 6.1858349,0.068205 c 0.141551,0.8773615 0.815506,1.5333361 0.897737,2.2822086 0.04752,0.4328252 -0.169472,0.8381181 -0.575314,0.9048228 -0.384819,0.063264 -0.764932,-0.2006926 -0.879135,-0.5974578 -0.01508,0.04135 -0.02779,0.083691 -0.03942,0.1271093 -0.101477,0.3787151 -0.05074,0.7580182 0.111608,1.0602771 L 9.0768671,9.7139031 c 0.279326,-0.1823258 0.501723,-0.4791575 0.600115,-0.8463613 0.0093,-0.034802 0.01791,-0.06979 0.0248,-0.1045222 -0.297332,0.2513332 -0.730026,0.2752142 -1.017759,0.039417 C 8.3659291,8.5417595 8.3580391,8.0693693 8.6392931,7.7315302 9.1267031,7.146002 10.057809,6.9055717 10.557003,6.2035624 Z m -5.3970459,0.050942 c -0.233721,0.1807657 -0.179986,0.3015687 -0.144825,0.4397955 0.07934,0.311639 -0.347852,0.4154522 -0.399043,0.3667122 -0.02101,0.067865 -0.440924,0.1904441 -0.527924,-0.1186943 -0.03867,-0.1372859 -0.05222,-0.2685692 -0.34501,-0.3082508 0.248964,-0.036158 0.345504,-0.012416 0.508436,0.1926567 0.150695,0.189669 0.211445,0.1847782 0.36317,0.2232162 0.112176,-0.1091498 0.165402,-0.1346364 0.201071,-0.3742414 0.03857,-0.2590647 0.110439,-0.3280202 0.344125,-0.4211876 z m -1.213075,0.01373 c -0.01636,6.196e-4 -0.03372,0.00302 -0.05226,0.00797 0.05499,-0.00842 0.18464,0.020978 0.258647,0.1271092 -0.02946,-0.047499 -0.09183,-0.1394151 -0.206387,-0.1350812 z m 1.419904,0.023473 c 0.0109,-4.656e-4 0.02204,-3.927e-4 0.03366,3e-7 0.0465,0.00157 0.09871,0.010616 0.156782,0.028345 -0.0963,0.011815 -0.09973,0.047777 -0.10895,0.08282 0.114718,-0.030316 0.228526,-0.015468 0.277692,0.043403 -0.08185,-0.045459 -0.13447,0.020563 -0.193985,0.058462 0.08686,-0.053538 0.137821,-0.044981 0.169626,-0.00753 -0.02828,0.010699 -0.04411,0.020787 -0.05447,0.031002 0.04046,-0.00654 0.08323,-0.00519 0.131095,0.00576 0.07715,0.017652 0.08566,0.069801 0.09611,0.1178085 -0.03279,-0.047661 -0.09017,-0.059599 -0.155898,-0.028345 0.08457,-0.025364 0.147961,0.00667 0.178928,0.087692 0.03597,0.094142 -0.02557,0.1772746 -0.09611,0.1891136 -0.05487,0.00921 -0.100063,-0.006 -0.122238,-0.055361 -0.0081,-0.063972 0.06141,-0.1163365 0.108065,-0.099207 0.03918,0.019294 0.03324,0.073232 -0.0018,0.082377 0.04995,-0.00295 0.06927,-0.064672 0.01594,-0.093007 -0.05485,-0.029147 -0.138797,0.032488 -0.125781,0.1027502 -0.02118,-0.053222 -0.01459,-0.1286826 0.06334,-0.1510252 0.04314,-0.012429 0.07304,-0.00453 0.09389,0.012401 -0.01874,-0.022973 -0.03898,-0.03775 -0.09522,-0.025245 -0.156699,0.034867 -0.204634,0.2400641 -0.368928,0.2772487 -0.133215,0.039435 -0.194502,-0.00981 -0.271048,-0.063333 0.065,0.01414 0.123559,-0.033085 0.186899,-0.097436 -0.0218,-0.010496 -0.05763,-0.016512 -0.126666,0.015944 0.02413,-0.053367 0.02193,-0.1063408 0.120023,-0.1616545 -0.03035,-0.00771 -0.06355,-0.00869 -0.134639,0.050932 0.02114,-0.094748 0.07671,-0.1666 0.146597,-0.2174585 -0.06631,0.021575 -0.134175,0.048606 -0.213473,0.1062932 -0.01006,-0.084956 0.045,-0.2313761 0.201515,-0.2781344 0.02668,-0.00797 0.05632,-0.013212 0.08902,-0.014615 z m -0.459276,0.2613047 c -0.02558,0.06154 -0.02135,0.1355104 -0.03455,0.2152441 -0.01219,0.073657 -0.04099,0.1559808 -0.136852,0.2263164 0.103706,-0.070102 0.142208,-0.1458419 0.155011,-0.2232161 0.0135,-0.081582 -0.002,-0.1613863 0.01639,-0.2183444 z m -1.171885,0.1767128 c 0.124382,-8.18e-5 0.21624,0.081596 0.244918,0.1483679 -0.09736,-0.010293 -0.169711,1.89e-4 -0.237832,0.014615 0.08595,0.0091 0.1695,0.043664 0.235174,0.1151512 -0.09138,-0.016092 -0.1193,0.00162 -0.141724,0.023474 0.1126,-0.00114 0.137099,0.045571 0.184685,0.07972 -0.07602,0.00641 -0.104178,0.029605 -0.117809,0.049603 0.08686,0.023918 0.161218,0.035385 0.210372,-0.0093 -0.03953,0.084622 -0.06776,0.1579783 -0.202843,0.1904424 -0.160875,0.049947 -0.304808,-0.1039587 -0.457947,-0.055804 -0.05495,0.01728 -0.06346,0.039819 -0.0682,0.069091 0.0096,-0.025094 0.02951,-0.046287 0.07307,-0.057133 0.07865,-0.019597 0.122382,0.042527 0.130652,0.099207 -0.02385,-0.06735 -0.127396,-0.078797 -0.160326,-0.026131 -0.03104,0.049644 0.01358,0.090986 0.05713,0.073076 -0.03358,0.00609 -0.06293,-0.035703 -0.03942,-0.070863 0.03184,-0.038162 0.118113,-0.027575 0.143053,0.031888 0.0055,0.053841 -0.02582,0.089493 -0.07795,0.108951 -0.06701,0.025024 -0.161683,-0.016078 -0.177599,-0.1155942 -0.0137,-0.085654 0.02481,-0.1453117 0.110723,-0.1656405 -0.07255,0.00579 -0.116339,0.04508 -0.120909,0.1027502 -0.01495,-0.046803 -0.03365,-0.096713 0.02436,-0.1505825 0.03607,-0.033492 0.07409,-0.056295 0.112495,-0.070863 -0.01408,-0.00369 -0.03481,-0.00399 -0.06467,8.828e-4 0.0088,-0.048339 0.04903,-0.080885 0.151025,-0.077948 -0.07049,-0.00307 -0.14893,-0.034239 -0.197086,0.04606 0.01315,-0.075567 0.104291,-0.1451184 0.218787,-0.1762698 -0.02551,-0.025739 -0.04666,-0.055191 -0.135967,-0.017273 0.07458,-0.079905 0.146672,-0.1250143 0.21303,-0.1457105 0.0318,-0.00991 0.06208,-0.014153 0.09079,-0.014172 z m 0.375126,0.03676 c 0.04435,0.040166 0.07109,0.1172369 0.123567,0.1811417 0.04978,0.060607 0.120938,0.106737 0.245803,0.1155942 -0.118188,-0.012981 -0.184245,-0.069858 -0.231631,-0.1275521 -0.0513,-0.062457 -0.08481,-0.1286805 -0.137739,-0.1691838 z m -1.335753,0.184685 c -0.0015,1.06e-4 -0.0033,4.667e-4 -0.0049,8.827e-4 -0.01244,0.00333 -0.01958,0.015528 -0.01639,0.027458 0.0032,0.011931 0.01547,0.018832 0.0279,0.015502 0.01244,-0.00333 0.02003,-0.015524 0.01683,-0.027459 -0.0028,-0.010439 -0.01274,-0.017154 -0.02347,-0.016388 z m -0.0341,0.1532395 c -0.0015,1.06e-4 -0.0029,4.655e-4 -0.0045,8.828e-4 -0.01243,0.00333 -0.02003,0.015083 -0.01683,0.027016 0.0032,0.011933 0.01592,0.018833 0.02834,0.015501 0.01244,-0.00333 0.01958,-0.015527 0.01639,-0.027459 -0.0028,-0.010439 -0.01274,-0.016711 -0.02348,-0.015945 z m 1.930998,0.1049648 c 0.0359,-0.00248 0.06907,0.0197 0.07839,0.054476 0.01065,0.039744 -0.01395,0.080583 -0.05536,0.091678 -0.04141,0.011095 -0.08325,-0.012074 -0.09389,-0.051818 -0.0093,-0.034774 0.0089,-0.071885 0.04119,-0.087692 0.0046,-0.00219 0.009,-0.0026 0.01418,-0.00399 0.0051,-0.00139 0.01037,-0.0023 0.0155,-0.00265 z m -0.288764,0.029231 c 0.03053,-5.672e-4 0.05907,0.00195 0.08459,0.00753 l 4.44e-4,-3e-7 4.44e-4,-10e-8 4.43e-4,-3e-7 4.43e-4,4.446e-4 c 2.04e-4,9.08e-5 0.0011,3.753e-4 0.0013,4.425e-4 l 4.44e-4,-1e-7 4.43e-4,-3e-7 4.44e-4,-1e-7 4.41e-4,-4.469e-4 4.44e-4,-3e-7 c 0.03409,0.00801 0.06215,0.021101 0.08194,0.038532 -0.227087,0.094636 -0.220142,0.2278114 -0.332609,0.3295096 -0.31105,0.2812709 -0.855073,0.2468121 -1.014217,-0.045618 0.16075,0.1941653 0.550048,0.2158344 0.732539,-0.070419 0.04002,-0.062767 0.08836,-0.1110103 0.139067,-0.1496965 0.05835,-0.044512 0.120508,-0.075816 0.181142,-0.093007 0.0087,-0.00242 0.01712,-0.00337 0.02569,-0.00531 0.0335,-0.00769 0.06602,-0.011391 0.09655,-0.011959 z m 0.06244,0.00709 c -0.02443,-5.506e-4 -0.04621,0.0012 -0.06599,0.00797 -0.07689,0.026347 -0.123661,0.1027517 -0.178041,0.1815847 -0.06243,0.0905 -0.147691,0.1941905 -0.314451,0.2626333 0.172489,-0.065713 0.264046,-0.1608543 0.329509,-0.2515612 0.05979,-0.082845 0.119075,-0.1919961 0.228974,-0.2006289 z m 0.323309,0.1767128 c 0.212694,0.030031 0.346587,0.3507372 0.642632,0.2936356 -0.580321,0.1377513 -0.504113,-0.151816 -0.642632,-0.2936356 z m -0.10319,0.027464 c -0.04905,0.1920783 0.161774,0.405335 -0.409672,0.5761988 0.284932,-0.09857 0.240491,-0.4438444 0.409672,-0.5761988 z m 1.075335,0.151911 c -6.1e-4,9.14e-5 -0.0012,3.466e-4 -0.0018,4.458e-4 -6.07e-4,1.013e-4 -0.0012,2.812e-4 -0.0018,4.456e-4 -0.0015,4.097e-4 -0.0032,5.872e-4 -0.0045,8.828e-4 -2.58e-4,8.83e-5 -0.0014,2.831e-4 -0.0018,4.458e-4 l -4.44e-4,4.475e-4 c -0.0056,0.00422 -0.0081,0.012966 -0.0062,0.01993 0.0025,0.00929 0.01203,0.014547 0.0217,0.011959 0.0097,-0.00259 0.01533,-0.011971 0.01285,-0.02126 -0.0021,-0.00762 -0.0086,-0.013098 -0.01639,-0.013286 -5.44e-4,-1.57e-5 -0.0012,-8.48e-5 -0.0018,2.1e-6 z m -0.949997,0.1009788 0.0013,0.00443 c 0.216601,0.1038219 0.09977,0.2650352 0.09389,0.3507683 l 0.0045,0.017715 c -0.0015,-0.00358 -0.0037,-0.00696 -0.0057,-0.010629 2.7e-5,0.00281 4.31e-4,0.00536 8.57e-4,0.00797 l -0.004,-0.013728 c -0.04789,-0.071309 -0.229934,-0.1525572 -0.09426,-0.3507699 l -8.57e-4,-0.00443 4.43e-4,-1e-7 4.43e-4,4.446e-4 4.44e-4,-2e-7 4.43e-4,4.446e-4 4.41e-4,-4.469e-4 c 4.75e-4,-4.089e-4 0.0013,-9.599e-4 0.0018,-0.00132 z m 0.652376,0.054032 c 5.87e-4,-8.53e-5 0.0012,-1.46e-5 0.0018,-2.1e-6 0.0081,6.33e-5 0.0161,0.00518 0.01816,0.012845 0.0025,0.00936 -0.0049,0.019092 -0.01461,0.021702 -0.0098,0.00261 -0.0192,-0.00261 -0.0217,-0.011959 -0.0019,-0.00702 0.001,-0.015718 0.0067,-0.019929 4.76e-4,-2.406e-4 0.0017,-7.601e-4 0.0022,-8.742e-4 10e-4,-1.778e-4 0.0027,-5.572e-4 0.004,-8.828e-4 6.13e-4,-1.643e-4 0.0011,-3.382e-4 0.0018,-4.458e-4 5.83e-4,-9.92e-5 0.0012,-3.544e-4 0.0018,-4.456e-4 z m -0.397714,0.030559 c 0.01905,-0.00129 0.0367,0.010377 0.04163,0.028788 0.0057,0.02104 -0.0073,0.042844 -0.02923,0.048718 -0.02192,0.00587 -0.04441,-0.00642 -0.05004,-0.027459 -0.0057,-0.02104 0.0073,-0.042843 0.02923,-0.048718 0.0027,-7.343e-4 0.0057,-0.00115 0.0084,-0.00134 z m 0.269277,0.00842 4.45e-4,-1e-6 4.46e-4,-7e-7 4.47e-4,-8e-7 4.45e-4,-7e-7 c 2.86e-4,1.5e-5 5.92e-4,1.9e-5 8.57e-4,-4e-6 0.0084,-5.918e-4 0.01597,0.00467 0.01816,0.012845 0.0025,0.00936 -0.0031,0.018648 -0.01285,0.02126 -0.0098,0.00261 -0.01964,-0.00261 -0.02215,-0.011958 -0.0019,-0.00701 0.001,-0.015719 0.0067,-0.019929 l 4.43e-4,-4.475e-4 4.45e-4,-1e-6 c 0.0015,-5.122e-4 0.0039,-8.355e-4 0.0057,-0.00133 3.06e-4,-8.19e-5 5.84e-4,-3.58e-4 8.57e-4,-4.439e-4 z M 5.1825431,7.81171 c 2.53e-4,-6.64e-5 6.11e-4,4.05e-5 8.57e-4,-2.3e-6 l 4.44e-4,0 c 2.39e-4,8.2e-6 6.95e-4,7.2e-6 8.57e-4,-2.3e-6 0.01071,-4.013e-4 0.02117,0.00748 0.02391,0.017715 0.0032,0.011694 -0.0046,0.022425 -0.01683,0.025687 -0.01218,0.00327 -0.02477,-0.00205 -0.0279,-0.013729 -0.0032,-0.011686 0.0042,-0.025525 0.01639,-0.028788 5.72e-4,-1.534e-4 0.0017,-7.193e-4 0.0022,-8.742e-4 z m -0.55804,0.088578 c 0.01905,-0.00129 0.0367,0.010377 0.04164,0.028788 0.0057,0.02104 -0.0077,0.042845 -0.02967,0.048718 -0.02192,0.00587 -0.04397,-0.00642 -0.04961,-0.027459 -0.0057,-0.02104 0.0073,-0.042844 0.02923,-0.048718 0.0027,-7.345e-4 0.0057,-0.00115 0.0084,-0.00134 z m -1.59573,0.059347 c -0.0028,2.291e-4 -0.0055,9.77e-4 -0.0084,0.00177 -0.02347,0.00629 -0.03837,0.028399 -0.03233,0.050932 0.006,0.022535 0.03055,0.035964 0.05403,0.029673 0.02348,-0.00629 0.03615,-0.029727 0.03012,-0.052261 -0.0053,-0.019717 -0.0233,-0.031658 -0.0434,-0.030116 z m 1.476593,0.033659 c 2.53e-4,-6.64e-5 6.1e-4,4.04e-5 8.57e-4,-2.3e-6 l 4.44e-4,-2e-7 c 2.39e-4,8.4e-6 6.94e-4,7.3e-6 8.57e-4,-2.3e-6 0.0107,-4.012e-4 0.02118,0.00748 0.02392,0.017715 0.0032,0.011694 -0.0051,0.022423 -0.01727,0.025689 -0.01218,0.00326 -0.02256,-0.00249 -0.02569,-0.014172 -0.0032,-0.011685 0.0024,-0.025082 0.01461,-0.028345 5.72e-4,-1.532e-4 0.0017,-7.192e-4 0.0022,-8.742e-4 z m 1.121396,0.01683 c 0.01618,0.00447 0.03184,0.00922 0.04695,0.014615 l 0.0018,-0.00664 c -0.01584,-0.00316 -0.03202,-0.00595 -0.04871,-0.00797 z m -1.242305,0.035431 c 6.06e-4,-8.83e-5 0.0012,2.1e-6 0.0018,-5e-6 0.0077,8.25e-5 0.01433,0.00518 0.01639,0.012845 0.0025,0.00935 -0.0031,0.019091 -0.01285,0.021701 -0.0097,0.00261 -0.01964,-0.00306 -0.02215,-0.012401 -0.0019,-0.00701 10e-4,-0.015281 0.0067,-0.019488 l 4.41e-4,-4.47e-4 4.43e-4,-10e-8 c 0.0015,-5.126e-4 0.0035,-8.355e-4 0.0053,-0.00133 6.1e-4,-1.632e-4 0.0016,-3.413e-4 0.0022,-4.43e-4 5.68e-4,-9.55e-5 0.0012,-3.544e-4 0.0018,-4.429e-4 z m -0.129766,0.029674 4.43e-4,-3e-7 4.44e-4,-10e-8 4.44e-4,-3e-7 c 0.0084,-5.905e-4 0.01597,0.00467 0.01816,0.012845 0.0025,0.00936 -0.0031,0.018648 -0.01285,0.021259 -0.0097,0.00261 -0.01964,-0.00261 -0.02215,-0.011958 -0.0019,-0.00702 0.001,-0.015724 0.0067,-0.019929 h 4.43e-4 l 4.44e-4,-4e-7 c 0.0015,-5.124e-4 0.0039,-8.354e-4 0.0057,-0.00133 6.86e-4,-1.838e-4 0.0015,-6.753e-4 0.0022,-8.742e-4 z m -1.063377,0.00487 c -0.0036,2.366e-4 -0.0075,7.983e-4 -0.01107,0.00177 -0.029,0.00777 -0.04643,0.036384 -0.03897,0.064219 0.0075,0.027836 0.03699,0.044088 0.06599,0.036317 0.029,-0.00777 0.04643,-0.036383 0.03897,-0.064219 -0.0065,-0.024356 -0.02974,-0.039808 -0.05492,-0.038089 z m 0.72811,0.00974 c -6.6e-4,2.184e-4 -0.0015,6.936e-4 -0.0022,8.742e-4 l -4.44e-4,3e-7 c -9.42e-4,1.578e-4 -0.0027,3.815e-4 -0.0035,4.336e-4 l -4.44e-4,3e-7 c -2.46e-4,8.59e-5 -0.0014,2.849e-4 -0.0018,4.427e-4 l -4.42e-4,4.469e-4 c -0.0056,0.00423 -0.0085,0.012967 -0.0067,0.019929 0.0025,0.00929 0.01247,0.01455 0.02215,0.011958 0.0097,-0.00259 0.01533,-0.011971 0.01285,-0.021259 -0.0021,-0.00812 -0.0098,-0.013419 -0.01816,-0.012845 l -4.44e-4,4e-7 -4.44e-4,10e-8 z m 1.006244,0.058461 c 0.02517,6.942e-4 0.04741,0.016931 0.05403,0.041632 0.0081,0.030384 -0.01085,0.061935 -0.04252,0.07042 -0.03167,0.00848 -0.06361,-0.00903 -0.07174,-0.039417 -0.0081,-0.0304 0.01085,-0.061934 0.04252,-0.07042 0.0059,-0.00159 0.0119,-0.00237 0.01772,-0.00221 z m -1.147969,0.00531 c -0.0012,3.007e-4 -0.0024,0.00104 -0.0035,0.00133 -0.01244,0.00333 -0.01958,0.015532 -0.01639,0.027458 0.0032,0.011929 0.01547,0.018833 0.02791,0.015502 0.01244,-0.00333 0.01958,-0.015527 0.01639,-0.027459 -0.0028,-0.01043 -0.01224,-0.017577 -0.02303,-0.016831 h -4.43e-4 l -4.44e-4,4e-7 z m -0.391072,0.0031 c -0.0029,1.969e-4 -0.0055,5.521e-4 -0.0084,0.00134 -0.02347,0.00629 -0.03792,0.030171 -0.03189,0.052704 0.006,0.022535 0.02967,0.034636 0.05315,0.028345 0.02348,-0.00629 0.03837,-0.028841 0.03233,-0.051376 -0.0053,-0.019718 -0.02468,-0.032333 -0.04518,-0.031002 z m 0.207716,0.025245 c -5.14e-4,8.14e-5 -0.0013,3.586e-4 -0.0018,4.426e-4 -0.0011,1.791e-4 -0.0024,5.851e-4 -0.0035,8.828e-4 -0.01796,0.00481 -0.02941,0.023957 -0.0248,0.041189 0.0046,0.017234 0.02368,0.026071 0.04164,0.021259 0.01796,-0.00481 0.02853,-0.02174 0.02391,-0.038974 -0.004,-0.015144 -0.0185,-0.025756 -0.0341,-0.024802 -5.2e-4,3.17e-5 -8.17e-4,-8.64e-5 -0.0013,3.6e-6 z m 1.360999,0.1324238 0.0013,0.00621 c 0.119912,0.095283 0.207985,0.074706 0.225431,0.1293238 -0.06887,-0.022596 -0.15602,0.041336 -0.163869,0.09965 l 0.0049,0.017715 c -0.0015,-0.00401 -0.0043,-0.00716 -0.0067,-0.011073 -2.2e-5,0.00257 1.02e-4,0.00489 4.44e-4,0.00709 l -0.0035,-0.012402 c -0.03598,-0.046663 -0.143427,-0.058434 -0.191772,-0.00443 -0.01219,-0.056029 0.07401,-0.082071 0.13021,-0.2245447 l -0.0013,-0.00621 4.43e-4,4.447e-4 4.43e-4,4.446e-4 4.44e-4,4.448e-4 4.43e-4,4.446e-4 v 4.459e-4 l 4.44e-4,4.447e-4 4.41e-4,-4.47e-4 c 2.99e-4,-4.792e-4 10e-4,-0.00198 0.0013,-0.00266 l 4.41e-4,-4.468e-4 z m -0.73874,0.073519 c -0.520034,0.3906524 -0.04819,1.2171403 0.595686,1.1094377 -0.487707,0.050743 -0.826672,-0.3614931 -0.788785,-0.7484829 0.01813,0.3422667 0.246727,0.6211923 0.599672,0.6669914 -0.408511,-0.07284 -0.798268,-0.6302399 -0.406573,-1.0279446 z m 0.258204,0.062005 c 0.09537,0.00397 0.158514,0.1058017 0.08592,0.1483679 -0.04887,0.028652 -0.09679,-0.00762 -0.09965,-0.054919 -0.0073,0.075802 0.01639,0.2023055 0.131981,0.2391604 l 4.42e-4,-4.47e-4 c 0.0062,-0.013236 -0.01135,-0.077109 0.05093,-0.088578 0.04809,0.1106331 0.250344,-0.1411995 0.360512,-0.040745 -0.0046,0.152741 -0.110216,0.2555387 -0.227645,0.2816775 -0.112788,0.025118 -0.245697,-0.0061 -0.308694,-0.1018645 0.06515,0.1047777 0.191464,0.1458286 0.311351,0.1191371 0.123431,-0.027483 0.233078,-0.1253638 0.23916,-0.2830061 0.01007,0.013608 0.01922,0.032873 0.02702,0.054919 0.03529,0.09998 0.01145,0.243253 0.0124,0.2940785 -0.01637,-0.00756 -0.03621,-0.018775 -0.04518,-0.046946 -10e-4,0.092468 -0.122653,0.1786246 -0.341024,0.2028432 -0.006,-0.020245 -0.01092,-0.029855 4.42e-4,-0.055804 -0.03704,0.00483 -0.272566,-0.040879 -0.391514,-0.2024002 0.0501,0.00107 0.02989,-0.017997 0.06731,-0.016394 -0.06891,-0.083103 -0.168196,-0.2699477 0.01594,-0.4101154 0.02272,-0.017287 0.04609,-0.02838 0.06776,-0.034102 0.01462,-0.00389 0.02889,-0.00544 0.04252,-0.00487 z M 3.6089581,8.893678 c 0.0255,-0.00167 0.05287,0.01892 0.04739,0.087692 -0.0038,0.047811 -0.02946,0.073609 -0.05669,0.087249 -0.0218,0.012476 -0.04345,0.015563 -0.06643,0.017715 -0.0101,0.1940998 0.09,0.4002489 0.215245,0.5491826 0.105237,0.1251494 0.319985,0.2263308 0.469905,0.2533327 -0.006,-0.012817 -0.0085,-0.030145 -0.0022,-0.051818 0.01439,-0.04995 0.07893,-0.067512 0.127109,-0.066876 0.11483,-0.013772 0.09353,0.1522786 0.131981,0.2949647 0.03848,0.142665 0.114996,0.27029 0.02126,0.295407 -0.0744,0.01993 -0.07837,0.0157 -0.135524,-0.02923 -0.397258,0.2309 -0.527923,0.623522 -0.563798,0.936268 l -0.035018,-0.129757 -0.049161,-0.184685 c 0.08572,-0.290015 0.263131,-0.599791 0.618273,-0.75114 0.0045,-0.06285 -0.01241,-0.112712 -0.04119,-0.154126 C 3.8324931,9.9969615 3.4716011,9.68419 3.3604851,9.1554345 l -0.104522,-0.060233 c -0.0137,0.00249 -0.02549,0.00608 -0.03852,0.00887 l -0.04119,-0.1541255 c 0.132831,-0.027992 0.267802,-0.0335 0.409673,-0.054476 -0.0021,0.00382 -0.0051,0.00812 -0.0071,0.011959 0.0075,-0.00745 0.01853,-0.012969 0.03012,-0.01373 z m -0.210372,0.097879 c -0.0044,-3.48e-5 -0.0088,5.797e-4 -0.01328,0.00177 -0.0238,0.00638 -0.03846,0.028521 -0.03233,0.051376 0.0061,0.022841 0.03023,0.036056 0.05403,0.029673 0.02381,-0.00638 0.03801,-0.029862 0.03189,-0.052704 -0.005,-0.01857 -0.02151,-0.029989 -0.0403,-0.030116 z m 1.892465,0.093015 c 0.0131,0.090745 -0.0096,0.2295311 -0.07485,0.2427034 -0.06167,0.012474 -0.158269,-0.1248428 -0.166969,-0.1780414 0.03349,0.026941 0.06534,0.042479 0.09522,0.030116 -0.01476,-0.026667 0.0015,-0.055618 0.01284,-0.085035 0.02794,0.01824 0.06441,0.027583 0.06909,0.073077 0.03294,-0.00967 0.04701,-0.049492 0.06466,-0.08282 z m -0.327295,0.076176 c 0.04265,0.1115315 0.07667,0.1334953 0.112052,0.1501396 -0.07653,0.045444 -0.123484,-0.014658 -0.22676,-0.012844 0.0467,-0.032379 0.101749,-0.055184 0.114708,-0.1372956 z m -1.462863,0.1682979 -0.031,0.011516 0.01285,0.029231 0.031,-0.011516 z m 0.13951,0.2471324 -0.02746,0.0186 0.01594,0.020373 0.0045,0.00531 0.02569,-0.019931 -0.0035,-0.00576 z m -0.250233,0.1731696 c 0.152948,0.00601 0.285741,0.119505 0.340582,0.2148014 0.0694,0.1205827 0.171622,0.4694277 -0.08371,0.5912567 0.01006,0.02183 0.0176,0.04524 0.02391,0.06909 0.01586,0.05993 0.0184,0.1243 0.004,0.1869 l -0.09481,-0.354311 c 0.0016,0.0016 0.0033,0.0036 0.0049,0.0053 0.0089,-0.0019 0.01713,-0.006 0.02613,-0.01019 0.100114,-0.04624 0.13346,-0.270026 0.03499,-0.434475 -0.0577,-0.096362 -0.145133,-0.1480556 -0.228531,-0.1660831 z m 0.451748,0.02613 -0.01993,0.026574 0.02569,0.019487 0.01993,-0.026574 z m 0.254661,0.135967 -0.01418,0.030116 0.01107,0.00354 4.46e-4,0.00178 0.02037,0.00576 0.01063,-0.030559 -0.01816,-0.00487 -0.0022,-0.00133 z m 0.719695,0.030559 c 0.02505,-0.00199 0.04842,0.01248 0.05492,0.03676 0.0075,0.027738 -0.01007,0.056918 -0.03897,0.064662 -0.0289,0.0077 -0.05855,-0.0086 -0.06599,-0.03632 -0.0075,-0.027749 0.01052,-0.055147 0.03942,-0.06289 0.0036,-9.685e-4 0.007,-0.00193 0.01063,-0.00221 z m -0.446432,0.01816 c -0.0021,1.246e-4 -0.0042,3.425e-4 -0.0062,8.828e-4 -0.01625,0.00435 -0.02499,0.021166 -0.02082,0.03676 0.0042,0.015595 0.02007,0.025612 0.03631,0.021259 0.01625,-0.0044 0.02677,-0.021609 0.02258,-0.037202 -0.0037,-0.013646 -0.01759,-0.022557 -0.03189,-0.021702 z m 0.07174,0.2728201 c -0.0015,2.69e-4 -0.0029,9.17e-4 -0.0045,0.0013 -0.01625,0.0044 -0.02544,0.01939 -0.02126,0.03499 0.0042,0.01559 0.02007,0.02561 0.03631,0.02126 0.01625,-0.0044 0.02632,-0.02117 0.02215,-0.03676 -0.0037,-0.01365 -0.01723,-0.02196 -0.03145,-0.02082 l -4.43e-4,0 -4.44e-4,0 z m -0.282564,0.141281 -0.01152,0.008 -0.0014,4.44e-4 4.45e-4,0.0013 -0.01594,0.01063 0.02037,0.02569 0.01594,-0.01063 0.01107,-0.0097 z m -0.20993,0.214802 -0.0097,0.01417 -0.0097,0.01373 0.02834,0.01727 0.0097,-0.01417 0.0084,-0.01373 z m 0.971257,0.246689 c -0.09608,0.08274 -0.186112,0.184642 -0.268391,0.302493 0.07368,-0.02684 0.139546,-0.03863 0.197971,-0.03942 z m -0.413658,0.0013 c 0.01313,0.02107 0.02978,0.04095 0.02215,0.06422 0.02512,0.0047 0.04908,-0.01189 0.07131,-0.03853 9.43e-4,0.04297 -0.05412,0.164676 -0.104079,0.165198 -0.05285,5.47e-4 -0.09181,-0.102822 -0.09478,-0.175827 0.01862,0.02307 0.03488,0.0502 0.06201,0.05226 -0.0029,-0.03629 0.02425,-0.04844 0.0434,-0.06732 z m -0.693564,0.01417 -0.0067,0.01816 -0.0053,0.01285 0.03145,0.0093 0.004,-0.01063 -4.46e-4,-0.0018 0.0075,-0.01683 z m 0.952211,0.562913 c -0.261497,0.161537 -0.470755,0.52538 -0.462819,0.709065 0.01175,0.01976 0.02486,0.03988 0.03986,0.05935 0.103854,-0.05086 0.10465,0.08669 0.01993,0.05049 -0.01398,-0.006 -0.02571,-0.01372 -0.03853,-0.02392 -0.07718,0.08691 -0.192675,0.822651 0.314894,1.136897 0.302117,0.187046 0.550557,0.151696 0.791001,0.02037 0.183165,-0.100037 0.255976,-0.262548 0.35564,-0.399486 l -0.08504,-0.02259 c -0.01142,0.01422 -0.02426,0.02788 -0.03897,0.04119 -0.311052,0.281267 -0.854628,0.246817 -1.013773,-0.04562 0.160751,0.194168 0.550045,0.215831 0.732538,-0.07042 0.0021,-0.0032 0.0041,-0.0062 0.0062,-0.0093 l -0.360034,-0.09655 c 2.62e-4,0.0015 6.7e-4,0.003 8.57e-4,0.0044 -5.7e-4,-0.0016 -0.0011,-0.0033 -0.0018,-0.0049 l -0.0053,-0.0013 c 0.0029,0.0044 0.0054,0.0091 0.0075,0.01417 0.0055,0.05384 -0.02582,0.0895 -0.07795,0.108951 -0.06701,0.02503 -0.161683,-0.01607 -0.1776,-0.115594 -0.0056,-0.03483 -0.0025,-0.06545 0.0089,-0.09079 -0.0035,-0.0021 -0.0072,-0.004 -0.01063,-0.0062 -0.0045,0.0105 -0.007,0.02178 -0.008,0.0341 -0.0051,-0.01592 -0.0105,-0.03204 -0.01328,-0.04872 -0.155486,-0.111713 -0.23334,-0.311414 -0.180663,-0.508003 z m -0.551397,0.907922 c -0.0015,1.06e-4 -0.0029,4.66e-4 -0.0045,8.83e-4 -0.01243,0.0033 -0.01958,0.01553 -0.01639,0.02746 0.0032,0.01193 0.01547,0.01883 0.02791,0.0155 0.01244,-0.0033 0.01958,-0.01553 0.01639,-0.02746 -0.0028,-0.01045 -0.01274,-0.01716 -0.02348,-0.01639 z m -0.03366,0.15324 c -0.0015,1.06e-4 -0.0033,4.67e-4 -0.0049,8.83e-4 -0.01243,0.0033 -0.01958,0.01509 -0.01639,0.02702 0.0032,0.01194 0.01547,0.01883 0.02791,0.0155 0.01244,-0.0033 0.01958,-0.01553 0.01639,-0.02746 -0.0028,-0.01045 -0.0123,-0.01671 -0.02303,-0.01594 z m 0.64839,0.228531 c -0.0027,0.0069 -0.004,0.01432 -0.0053,0.02214 0.0027,-0.0069 0.0061,-0.01374 0.01063,-0.01993 -0.0017,-7.59e-4 -0.0036,-0.0014 -0.0053,-0.0022 z m 0.05448,0.02082 c -0.0063,0.0047 -0.0117,0.01048 -0.01594,0.01727 -0.03104,0.04964 0.01358,0.09099 0.05713,0.07308 -0.0336,0.0061 -0.06338,-0.0357 -0.03986,-0.07086 0.0048,-0.0057 0.01091,-0.0102 0.01772,-0.01373 -0.0063,-0.0017 -0.01281,-0.0038 -0.01904,-0.0058 z m 0.678506,0.182471 c -0.05544,0.05989 -0.129046,0.117911 -0.235617,0.161654 0.113152,-0.04311 0.191698,-0.09879 0.250676,-0.157669 z m 0.922982,0.251118 c 0.01905,-0.0013 0.03715,0.01038 0.04207,0.02879 0.0057,0.02104 -0.0077,0.04284 -0.02967,0.04872 -0.02192,0.0059 -0.04441,-0.0064 -0.05004,-0.02746 -0.0057,-0.02104 0.0077,-0.04284 0.02967,-0.04872 0.0027,-7.34e-4 0.0052,-0.0011 0.008,-0.0013 z m -0.421188,0.112937 c 0.01905,-0.0013 0.0367,0.01038 0.04163,0.02879 0.0057,0.02104 -0.0073,0.04284 -0.02923,0.04872 -0.02192,0.0059 -0.04441,-0.0064 -0.05004,-0.02746 -0.0057,-0.02104 0.0077,-0.04284 0.02967,-0.04872 0.0027,-7.35e-4 0.0052,-0.0011 0.008,-0.0013 z m -1.595288,0.05935 c -0.0028,2.29e-4 -0.0059,9.77e-4 -0.0089,0.0018 -0.02347,0.0063 -0.03837,0.0284 -0.03233,0.05093 0.006,0.02253 0.03055,0.03596 0.05403,0.02967 0.02347,-0.0063 0.0366,-0.02973 0.03056,-0.05226 -0.0053,-0.01972 -0.02329,-0.03166 -0.0434,-0.03012 z m 1.476151,0.03366 c 2.52e-4,-6.7e-5 6.09e-4,4e-5 8.57e-4,-3e-6 l 4.43e-4,0 c 2.39e-4,8e-6 6.95e-4,7e-6 8.57e-4,-2e-6 0.01071,-3.99e-4 0.02117,0.0075 0.02392,0.01772 0.0032,0.01169 -0.0046,0.02242 -0.01683,0.02569 -0.01217,0.0033 -0.02299,-0.0025 -0.02613,-0.01417 -0.0032,-0.01168 0.0024,-0.02508 0.01461,-0.02834 5.72e-4,-1.53e-4 0.0017,-7.19e-4 0.0022,-8.74e-4 z m -0.120466,0.05226 h 4.43e-4 c 2.22e-4,4e-6 6.63e-4,-6e-6 8.57e-4,-3e-6 0.0077,1.9e-4 0.01479,0.0053 0.01683,0.01284 0.0025,0.0093 -0.0035,0.01909 -0.01329,0.0217 -0.0097,0.0026 -0.0192,-0.0031 -0.0217,-0.0124 -0.0019,-0.007 10e-4,-0.01527 0.0067,-0.01949 4.81e-4,-2.42e-4 0.0017,-7.62e-4 0.0022,-8.74e-4 0.001,-1.76e-4 0.0027,-5.57e-4 0.004,-8.83e-4 0.0014,-3.67e-4 0.0027,-7.57e-4 0.0039,-8.82e-4 z m -0.13021,0.02967 4.43e-4,-10e-7 4.44e-4,0 4.44e-4,0 c 0.0084,-5.91e-4 0.01641,0.0047 0.0186,0.01284 0.0025,0.0094 -0.0035,0.01865 -0.01328,0.02126 -0.0097,0.0026 -0.0192,-0.0026 -0.0217,-0.01196 -0.0019,-0.007 10e-4,-0.01572 0.0067,-0.01993 4.82e-4,-2.42e-4 0.0017,-7.62e-4 0.0022,-8.74e-4 0.001,-1.76e-4 0.0027,-1.08e-4 0.004,-4.35e-4 6.86e-4,-1.84e-4 0.0015,-6.75e-4 0.0022,-8.74e-4 z m -1.063377,0.0049 c -0.0036,2.36e-4 -0.007,7.97e-4 -0.01063,0.0018 -0.029,0.0078 -0.04644,0.03638 -0.03897,0.06422 0.0075,0.02783 0.03699,0.04409 0.06599,0.03632 0.029,-0.0078 0.04644,-0.03639 0.03897,-0.06422 -0.0065,-0.02436 -0.03019,-0.03981 -0.05536,-0.03809 z m 0.72811,0.0097 c -6.6e-4,2.18e-4 -0.0015,6.93e-4 -0.0022,8.74e-4 -0.0019,4.86e-4 -0.0038,4.03e-4 -0.0053,8.83e-4 l -4.43e-4,0 -4.42e-4,4.47e-4 c -0.0056,0.0042 -0.0085,0.01295 -0.0067,0.01993 0.0025,0.0093 0.01202,0.01455 0.0217,0.01196 0.0097,-0.0026 0.01578,-0.01197 0.01328,-0.02126 -0.0021,-0.0081 -0.01021,-0.01342 -0.0186,-0.01284 l -4.44e-4,0 -4.44e-4,0 z m 1.000487,0.05846 c 0.02748,-0.0019 0.05311,0.01504 0.06023,0.04163 0.0081,0.03039 -0.01085,0.06194 -0.04252,0.07042 -0.03167,0.0085 -0.06405,-0.009 -0.07219,-0.03942 -0.0081,-0.0304 0.01085,-0.06194 0.04252,-0.07042 0.0039,-0.0011 0.0081,-0.002 0.01196,-0.0022 z m -1.142211,0.0053 c -0.0012,3e-4 -0.0024,0.001 -0.0035,0.0013 -0.01244,0.0033 -0.01958,0.01553 -0.01639,0.02746 0.0032,0.01193 0.01547,0.01883 0.02791,0.0155 0.01244,-0.0033 0.02003,-0.01553 0.01683,-0.02746 -0.0028,-0.01045 -0.01268,-0.01758 -0.02348,-0.01683 l -4.43e-4,0 -4.44e-4,0 z m -0.390629,0.0031 c -0.0029,1.97e-4 -0.0059,5.53e-4 -0.0089,0.0013 -0.02347,0.0063 -0.03792,0.03017 -0.03189,0.0527 0.006,0.02253 0.03011,0.03463 0.05359,0.02834 0.02348,-0.0063 0.03837,-0.02884 0.03233,-0.05138 -0.0053,-0.01972 -0.02468,-0.03233 -0.04518,-0.031 z m 2.121883,0.01329 c 0.01266,-7.01e-4 0.02614,-3.3e-5 0.0403,0.0018 0.229554,0.02932 0.237353,0.240366 0.219231,0.346782 0.03161,-0.02009 0.02314,0.0065 0.06599,-0.01949 -0.02225,0.199351 -0.203329,0.356806 -0.237831,0.371141 0.01972,0.01444 0.02295,0.02614 0.02658,0.04208 l -0.248017,0.06643 c -0.07148,-0.0015 -0.122747,-0.02413 -0.147039,-0.0651 0.0063,0.02887 -0.0051,0.04816 -0.0155,0.06289 -0.02459,-0.04449 -0.116979,-0.157075 -0.136409,-0.261304 -0.0043,-0.02299 -0.0041,-0.04296 -0.0022,-0.05979 0.08409,0.133482 0.226147,0.162373 0.346782,0.124451 0.110315,-0.03467 0.19423,-0.123731 0.207273,-0.236945 -0.01673,0.104672 -0.110068,0.188045 -0.213473,0.220559 -0.114765,0.03608 -0.257529,1.88e-4 -0.337925,-0.129767 0.04518,-0.142075 0.346277,-0.02497 0.332611,-0.144825 0.05965,-0.0212 0.07569,0.04257 0.08769,0.05093 l 4.46e-4,0 4.48e-4,4.43e-4 c 0.08168,-0.08971 0.03932,-0.211247 -0.0049,-0.273263 0.02117,0.04239 -9.43e-4,0.09738 -0.05758,0.09699 -0.09617,-6.48e-4 -0.07876,-0.156684 0.03809,-0.188228 0.01082,-0.0029 0.02276,-0.0051 0.03543,-0.0058 z m -1.914611,0.01196 c -5.13e-4,8.1e-5 -0.0013,3.59e-4 -0.0018,4.42e-4 l -4.44e-4,10e-7 -4.43e-4,0 -4.41e-4,4.47e-4 c -4.95e-4,1.61e-4 -0.0012,2.92e-4 -0.0018,4.42e-4 -0.01796,0.0048 -0.02941,0.02396 -0.0248,0.04119 0.0046,0.01723 0.02368,0.02607 0.04163,0.02126 0.01796,-0.0048 0.02809,-0.02174 0.02348,-0.03897 -0.004,-0.01515 -0.0185,-0.02576 -0.0341,-0.0248 -5.2e-4,3.2e-5 -8.16e-4,-8.6e-5 -0.0014,4e-6 z m 0.948669,0.004 c 0.08556,-0.0023 0.164309,0.028 0.223216,0.115594 0.07305,0.108614 -0.0099,0.235993 -0.12578,0.192214 -0.05358,-0.02025 -0.100682,-0.117942 0.04119,-0.145268 -8.09e-4,-0.0072 -0.02898,-0.08734 -0.286992,-0.0097 -0.237987,0.07159 -0.247839,0.316761 -0.168741,0.414544 -0.214404,0.187914 0.197667,0.416885 0.264405,0.382214 0.01201,0.04612 -0.03615,0.07243 -0.06909,0.09876 l -0.108065,0.02879 c -0.251062,-0.209606 -0.382972,-0.584327 -0.096544,-0.87515 -0.323937,0.243344 -0.262201,0.654819 -0.014613,0.905265 l -0.139954,0.0372 c -0.04009,-0.08417 -0.04794,-0.162979 -0.04119,-0.24226 -0.0119,0.06871 -0.02821,0.128993 -0.06688,0.150582 -0.04708,-0.09099 -0.04884,-0.18835 -0.02347,-0.271934 -0.0275,0.02853 -0.0089,0.06295 -0.101865,0.08459 0.09257,-0.144681 0.05591,-0.219637 0.0558,-0.314008 -0.02236,-0.0084 -0.04621,-0.0099 -0.07795,0.05182 -0.0033,-0.179272 0.08854,-0.219172 0.150582,-0.30205 -0.05121,-0.0206 -0.05242,-0.05487 -0.05137,-0.08946 0.07154,0.05818 0.29346,-0.12138 0.507109,-0.188228 0.01423,-0.0045 0.02883,-0.0082 0.04296,-0.01151 0.02958,-0.007 0.05872,-0.01119 0.08725,-0.01196 z m 1.431418,0.0403 c 0.113561,0.158669 0.147222,0.369272 0.09699,0.566012 l -0.05713,0.01505 c 0.07103,-0.183024 0.0567,-0.391299 -0.03986,-0.581071 z m -1.018645,0.08991 0.0018,0.0058 c 0.119912,0.09529 0.207984,0.07472 0.225431,0.129323 -0.06886,-0.02259 -0.156909,0.04 -0.164755,0.09832 l 0.0045,0.01727 c -0.0016,-0.0037 -0.0038,-0.0072 -0.0057,-0.01063 -4.7e-5,0.0051 8.57e-4,0.01053 0.0022,0.0155 l -0.0057,-0.02082 c -0.03595,-0.04659 -0.142982,-0.05666 -0.191328,-0.0027 -0.01219,-0.05602 0.07444,-0.08251 0.130652,-0.224988 l -0.0018,-0.0062 4.43e-4,4.45e-4 4.43e-4,4.45e-4 c 1.57e-4,2.16e-4 6.97e-4,0.0011 8.57e-4,0.0013 l 4.43e-4,4.45e-4 4.44e-4,-1e-6 -1e-6,-4.46e-4 4.42e-4,-4.46e-4 4.41e-4,-4.47e-4 c 1.7e-4,-1.96e-4 7.31e-4,-0.0011 8.57e-4,-0.0013 v -4.46e-4 z m -0.480978,0.133753 c 0.09537,0.004 0.158958,0.105801 0.08636,0.148368 -0.04887,0.02865 -0.09723,-0.0076 -0.100094,-0.05492 -0.0073,0.0758 0.01683,0.202306 0.132425,0.23916 l 4.41e-4,-4.47e-4 c 0.0062,-0.01323 -0.01178,-0.07711 0.05049,-0.08858 0.04809,0.110634 0.250345,-0.141198 0.360512,-0.04074 -0.0046,0.152743 -0.110216,0.255539 -0.227645,0.281678 -0.112789,0.02511 -0.245698,-0.0061 -0.308693,-0.101864 0.06514,0.104775 0.191907,0.145828 0.311793,0.119137 0.123431,-0.02749 0.233521,-0.124036 0.239603,-0.281678 0.01008,0.01361 0.01833,0.03154 0.02613,0.05359 0.03529,0.09998 0.01145,0.243253 0.0124,0.294079 -0.01637,-0.0076 -0.03577,-0.01877 -0.04473,-0.04694 -5.47e-4,0.04768 -0.0335,0.09319 -0.09478,0.130209 l -0.248018,0.06643 c -0.0047,-0.01564 -0.0075,-0.02725 0.0022,-0.0496 -0.03705,0.0048 -0.273009,-0.04088 -0.391957,-0.2024 0.05009,0.0011 0.02989,-0.01797 0.06731,-0.01639 -0.06891,-0.0831 -0.167752,-0.269948 0.01639,-0.410116 0.02272,-0.01729 0.04565,-0.02838 0.06732,-0.0341 0.01462,-0.0039 0.02889,-0.0054 0.04252,-0.0049 z m 2.283537,0.01107 -0.03322,0.004 0.0035,0.03189 0.03277,-0.004 z m -2.734398,0.287877 c 0.01126,0.212628 0.104728,0.400067 0.257762,0.523053 l -0.05891,0.0155 c -0.141856,-0.145263 -0.21786,-0.344362 -0.198848,-0.538548 z m -0.414542,0.144828 c 0.0255,-0.0017 0.05287,0.01892 0.04739,0.08769 -0.0038,0.04781 -0.02946,0.0736 -0.05669,0.08725 -0.0218,0.01248 -0.0439,0.01556 -0.06688,0.01771 -0.0063,0.121795 0.03047,0.247711 0.08991,0.36184 l -0.03144,0.0084 c -0.04332,0.01161 -0.08645,0.01124 -0.12711,0.0031 -0.04389,-0.09154 -0.07987,-0.191942 -0.103192,-0.302936 l -0.104969,-0.06024 c -0.0137,0.0025 -0.02549,0.0061 -0.03852,0.0089 l -0.04163,-0.155454 c 0.132831,-0.028 0.267801,-0.0335 0.409672,-0.05448 -0.0021,0.0038 -0.0051,0.0081 -0.0071,0.01196 0.0075,-0.0075 0.01897,-0.01297 0.03056,-0.01373 z m -0.2148,0.09833 c -0.0029,2.03e-4 -0.0059,5.42e-4 -0.0089,0.0013 -0.0238,0.0064 -0.03801,0.02986 -0.03189,0.0527 0.0061,0.02285 0.03023,0.03605 0.05403,0.02967 0.02381,-0.0064 0.03801,-0.02986 0.03189,-0.0527 -0.0054,-0.01999 -0.02455,-0.03243 -0.04517,-0.031 z m 0.106293,0.336596 -0.03056,0.01329 0.01328,0.02923 0.03056,-0.01329 z"
     class="ColorScheme-Text" />
</svg>
