<?xml version="1.0" encoding="UTF-8" standalone="no"?>
<svg
   width="64"
   height="64"
   version="1.1"
   viewBox="0 0 16.933 16.933"
   id="svg7"
   sodipodi:docname="krename.svg"
   inkscape:version="1.4.3 (0d15f75042, 2025-12-25)"
   xmlns:inkscape="http://www.inkscape.org/namespaces/inkscape"
   xmlns:sodipodi="http://sodipodi.sourceforge.net/DTD/sodipodi-0.dtd"
   xmlns="http://www.w3.org/2000/svg"
   xmlns:svg="http://www.w3.org/2000/svg"
   xmlns:rdf="http://www.w3.org/1999/02/22-rdf-syntax-ns#"
   xmlns:cc="http://creativecommons.org/ns#"
   xmlns:dc="http://purl.org/dc/elements/1.1/">
  <sodipodi:namedview
     id="namedview7"
     pagecolor="#9c4444"
     bordercolor="#000000"
     borderopacity="0.25"
     inkscape:showpageshadow="2"
     inkscape:pageopacity="0.0"
     inkscape:pagecheckerboard="0"
     inkscape:deskcolor="#d1d1d1"
     inkscape:zoom="6.15625"
     inkscape:cx="15.593909"
     inkscape:cy="30.050761"
     inkscape:window-width="2560"
     inkscape:window-height="1388"
     inkscape:window-x="0"
     inkscape:window-y="0"
     inkscape:window-maximized="1"
     inkscape:current-layer="svg7"
     showgrid="false" />
  <defs
     id="defs2">
    <style
       id="current-color-scheme"
       type="text/css">.ColorScheme-Text {color:#d8dee9} .ColorScheme-Highlight {color:#3b4252}</style>
  </defs>
  <metadata
     id="metadata2">
    <rdf:RDF>
      <cc:Work
         rdf:about="">
        <dc:format>image/svg+xml</dc:format>
        <dc:type
           rdf:resource="http://purl.org/dc/dcmitype/StillImage" />
      </cc:Work>
    </rdf:RDF>
  </metadata>
  <path
     id="path5"
     style="fill:currentColor"
     d="m 3.560145,1.4551797 c -1.164909,0 -2.102725,0.937942 -2.102725,2.103223 v 9.8161963 c 0,1.16528 0.937816,2.103221 2.102725,2.103221 h 9.812712 c 1.164909,0 2.102723,-0.937941 2.102723,-2.103221 V 3.5584027 c 0,-1.165281 -0.937814,-2.103223 -2.102723,-2.103223 z m 9.050076,1.403808 5.09e-4,4.97e-4 v 4.97e-4 c 2.81e-4,0.01314 0.0046,0.245411 -0.02041,0.453499 -0.02568,0.214226 -0.03833,0.378331 -0.03833,0.378331 L 11.501126,4.306102 c 0.58889,-0.7811693 1.092161,-1.4238453 1.109605,-1.4461203 -0.02165,0.02316 -0.78884,0.845653 -1.724393,2.0260619 h 0.172738 0.0085 C 11.152416,4.771406 11.237272,4.65698 11.321457,4.54455 l 5.09e-4,-5.096e-4 1.1788,-0.6630747 c 0,0 -0.115903,0.5354829 -0.173734,0.7686089 -0.02508,0.1010908 -0.04037,0.1798877 -0.04978,0.2364571 h 0.01444 c 0.821852,-1.14e-4 1.488211,0.6653403 1.488434,1.4864426 -4.8e-5,0.2370899 -0.05739,0.4690148 -0.164275,0.6775112 0.482695,0.3307305 0.779941,0.8810949 0.780556,1.47798 -1.07e-4,0.992266 -0.803856,1.7951405 -1.796574,1.7950815 H 10.186954 V 8.9904253 C 9.82494,9.3754119 9.092775,10.133574 8.667159,10.433559 c -0.549746,0.387469 -1.484724,0.631173 -1.588493,0.657599 -0.02195,0.03623 -0.04514,0.07426 -0.0667,0.110015 0.01238,0.0031 0.423369,0.104587 0.665067,0.06073 C 7.92237,11.217349 8.13999,11.06577 8.13999,11.06577 l -0.281757,0.356926 c 0,0 -0.262895,0.141977 -0.653617,0.07069 -0.162976,-0.02973 -0.24977,-0.05492 -0.323572,-0.07766 -0.01511,0.0252 -0.03344,0.05529 -0.04829,0.08015 l 0.616779,0.122957 -0.554055,0.177716 -0.03634,0.24044 c 0,0 -0.260227,0.136351 -0.471918,0.198126 -0.873207,1.514911 -0.999115,1.838391 -0.999115,1.83839 0,0 -0.411115,0.01638 0.725798,-1.975286 0.0016,-0.0029 0.0034,-0.0056 0.005,-0.0085 0.02406,-0.326608 0.22202,-1.06779 0.22202,-1.06779 l 0.16328,-0.196135 0.07317,-0.463953 0.0234,-0.03883 H 6.397682 L 5.959615,9.091981 H 4.073934 L 3.636364,10.32305 H 2.382341 L 4.459677,4.8860452 H 5.56729 L 7.233937,9.2542749 C 7.472047,8.7994169 8.011452,7.8071336 8.630776,6.9225612 9.466743,5.7285509 9.739385,5.4077435 9.739385,5.4077435 l 0.399737,0.4539973 c -0.0386,0.052405 -0.07736,0.1051706 -0.115988,0.1583017 C 9.174086,7.1878192 8.316996,8.4566044 7.457452,9.8406882 v 5.097e-4 L 7.585886,10.177216 C 7.851199,9.7319921 8.140257,9.2557606 8.460029,8.7450334 c 0.157268,-0.00343 0.587264,-0.00513 1.064305,0.00198 0.298889,0.00451 0.517995,0.00723 0.662577,0.00896 V 8.1874812 L 8.660146,8.4264271 C 9.106182,7.722183 9.609992,6.9542371 10.186911,6.1131226 V 5.7980124 c -0.01244,0.016789 -0.02489,0.033409 -0.03734,0.050278 L 9.82998,5.3007061 l 0.472915,-0.5884044 0.09707,0.1737337 h 0.292709 l -0.08114,-0.6546123 c 0,0 0.690825,-0.7310784 1.345066,-1.0518594 z M 6.118857,12.089766 c -0.004,0.0544 -0.0034,0.09741 0.0039,0.123456 0.01983,0.06992 0.132698,0.06032 0.264335,0.0219 0.01084,-0.0188 0.02179,-0.03808 0.03286,-0.05725 0.319655,-0.553632 0.670623,-1.166863 1.078742,-1.854818 H 7.160685 c -0.0092,0.01508 -0.01818,0.03019 -0.02738,0.0453 l -0.0015,-0.0453 H 6.943137 l 0.04779,0.280264 c -0.290662,0.481848 -0.581294,0.97707 -0.872154,1.486443 z M 4.635401,5.1409208 2.752707,10.068185 H 3.456103 L 3.894171,8.8366176 h 2.245594 l 0.438068,1.2315674 h 0.69344 L 5.391565,5.1409208 Z m 5.806884,0 v 4.9272642 h 2.157482 A 1.5411086,1.5398736 0 0 0 14.140968,8.5284768 1.5411086,1.5398736 0 0 0 13.257863,7.1376125 1.2328898,1.2319019 0 0 0 13.524687,6.3724878 1.2328898,1.2319019 0 0 0 12.291626,5.1409208 h -1.232563 z m 0.616778,0.6157835 h 1.232563 a 0.61644327,0.61594926 0 0 1 0.616779,0.6157835 0.61644327,0.61594926 0 0 1 -0.616779,0.6162814 h -1.232563 z m -6.047322,0.04082 0.897541,2.4228122 H 4.117685 Z m 6.858744,0.2140559 c -0.104664,0.2040197 -0.24108,0.4702822 -0.369371,0.7218156 h 0.790512 C 12.49477,6.7335064 12.653142,6.5753319 12.653032,6.3724881 12.652977,6.169697 12.494261,6.0114698 12.291626,6.0115802 Z m -6.857748,0.5212007 -0.529166,1.43268 h 1.059327 z m 6.046326,1.0717719 h 1.540704 a 0.92466309,0.92392722 0 0 1 0.92492,0.9239243 0.92466309,0.92392722 0 0 1 -0.92492,0.9239242 H 11.059063 V 8.5284771 Z m 0,0.9239243 a 1.5411086,1.5398736 0 0 0 9.64e-4,0.023397 v -0.059239 a 1.5411086,1.5398736 0 0 0 -9.64e-4,0.035842 z m 0.255374,-0.6690486 v 0.6690486 0.6685508 h 1.28533 c 0.373131,1.034e-4 0.669546,-0.295873 0.669547,-0.6685508 -10e-7,-0.3726761 -0.296659,-0.6691518 -0.669547,-0.6690486 z"
     class="ColorScheme-Text" />
</svg>
