<?xml version="1.0" encoding="UTF-8" standalone="no"?>
<svg
   width="64"
   height="64"
   version="1.1"
   viewBox="0 0 16.933 16.933"
   id="svg7"
   sodipodi:docname="kruler-alt.svg"
   inkscape:version="1.4.3 (0d15f75042, 2025-12-25)"
   xmlns:inkscape="http://www.inkscape.org/namespaces/inkscape"
   xmlns:sodipodi="http://sodipodi.sourceforge.net/DTD/sodipodi-0.dtd"
   xmlns="http://www.w3.org/2000/svg"
   xmlns:svg="http://www.w3.org/2000/svg"
   xmlns:rdf="http://www.w3.org/1999/02/22-rdf-syntax-ns#"
   xmlns:cc="http://creativecommons.org/ns#"
   xmlns:dc="http://purl.org/dc/elements/1.1/">
  <sodipodi:namedview
     id="namedview7"
     pagecolor="#9c4444"
     bordercolor="#000000"
     borderopacity="0.25"
     inkscape:showpageshadow="2"
     inkscape:pageopacity="0.0"
     inkscape:pagecheckerboard="0"
     inkscape:deskcolor="#d1d1d1"
     inkscape:zoom="12.3125"
     inkscape:cx="57.218274"
     inkscape:cy="26.314721"
     inkscape:window-width="2560"
     inkscape:window-height="1388"
     inkscape:window-x="0"
     inkscape:window-y="0"
     inkscape:window-maximized="1"
     inkscape:current-layer="svg7"
     showgrid="false" />
  <defs
     id="defs2">
    <style
       id="current-color-scheme"
       type="text/css">.ColorScheme-Text {color:#d8dee9} .ColorScheme-Highlight {color:#3b4252}</style>
  </defs>
  <metadata
     id="metadata2">
    <rdf:RDF>
      <cc:Work
         rdf:about="">
        <dc:format>image/svg+xml</dc:format>
        <dc:type
           rdf:resource="http://purl.org/dc/dcmitype/StillImage" />
      </cc:Work>
    </rdf:RDF>
  </metadata>
  <path
     id="path5"
     style="fill:currentColor"
     d="M 1.4551798,1.4551797 V 15.47782 H 6.1293932 V 15.072706 H 5.6997443 V 14.952029 H 6.1293932 V 14.589138 H 5.6997443 V 14.46846 H 6.1293932 V 14.105569 H 5.6997443 V 13.98489 H 6.1293932 V 13.622 H 5.6997443 V 13.501037 H 6.1293932 V 13.138431 H 5.6997443 V 13.017468 H 6.1293932 V 12.654862 H 5.6997443 V 12.533898 H 6.1293932 V 12.171294 H 5.6997443 V 12.05033 H 6.1293932 V 11.808688 H 4.9525663 l -0.21996,-0.241927 H 6.1293932 V 11.204156 H 5.6997443 v -0.120964 h 0.4296489 v -0.37259 l -0.4296489,0.01 v -0.120964 h 0.4296489 v -0.36261 H 5.6997443 V 10.116055 H 6.1293932 V 9.7534495 H 5.6997443 V 9.632486 H 6.1293932 V 9.2698806 H 5.6997443 V 9.1489171 H 6.1293932 V 8.7863117 H 5.6997443 V 8.6653482 H 6.1293932 V 8.2927578 l -0.4296489,0.0097 V 8.1817796 H 6.1293932 V 7.8188889 H 5.6997443 V 7.6982107 H 6.1293932 V 7.3353201 H 5.6997443 V 7.2146419 H 6.1293932 V 6.8517513 H 5.6997443 V 6.731073 H 6.1293932 V 6.489146 H 4.9790983 L 4.7326063,6.2472189 H 6.1293932 V 6.1293934 H 15.47782 V 3.2080097 2.6237327 1.4551797 Z m 0.5494712,0.457322 a 0.03541908,0.03541908 0 0 1 0.025105,0.01027 l 3.7632782,3.7629927 a 0.03541908,0.03541908 0 0 1 0,0.050211 0.03541908,0.03541908 0 0 1 -0.05021,0 L 1.9798306,1.9729837 a 0.03541908,0.03541908 0 0 1 0,-0.05021 0.03541908,0.03541908 0 0 1 0.024821,-0.01027 z m 4.2996262,2.7630469 0.241642,0.2467771 v 1.2042148 h -0.241642 z m 5.3195418,0 0.241642,0.2199597 v 1.2310322 h -0.241642 z m -4.8359737,0.967423 h 0.120964 v 0.4835689 h -0.120964 z m 0.4835689,0 H 7.3923783 V 6.1265405 H 7.2714142 Z m 0.483569,0 h 0.120963 v 0.4835689 h -0.120963 z m 0.483569,0 h 0.120964 l -0.01112,0.4835689 h -0.109842 z m 0.483569,0 h 0.120963 v 0.4835689 h -0.120963 z m 0.483568,0 H 9.3266533 V 6.1265405 H 9.2056892 Z m 0.483569,0 h 0.120964 v 0.4835689 h -0.120964 z m 0.4838548,0 h 0.120678 v 0.4835689 h -0.120678 z m 0.483568,0 h 0.120679 l -0.01084,0.4835689 h -0.109837 z m 0.483569,0 h 0.120678 V 6.1265405 H 11.14025 Z m 0.967138,0 h 0.120964 v 0.4835689 h -0.120964 z m 0.483569,0 h 0.120964 v 0.4835689 h -0.120964 z m 0.483568,0 h 0.120964 v 0.4835689 h -0.120964 z m 0.483569,0 h 0.120964 v 0.4835689 h -0.120964 z m 0.483569,0 h 0.120964 v 0.4835689 h -0.120964 z m 0.48357,0 h 0.120962 v 0.4835689 h -0.120962 z m 0.483568,0 h 0.120963 v 0.4835689 h -0.120963 z"
     class="ColorScheme-Text" />
</svg>
