<?xml version="1.0" encoding="UTF-8" standalone="no"?>
<svg
   width="64"
   height="64"
   version="1.1"
   viewBox="0 0 16.933 16.933"
   id="svg7"
   sodipodi:docname="kteatime.svg"
   inkscape:version="1.4.3 (0d15f75042, 2025-12-25)"
   xmlns:inkscape="http://www.inkscape.org/namespaces/inkscape"
   xmlns:sodipodi="http://sodipodi.sourceforge.net/DTD/sodipodi-0.dtd"
   xmlns="http://www.w3.org/2000/svg"
   xmlns:svg="http://www.w3.org/2000/svg"
   xmlns:rdf="http://www.w3.org/1999/02/22-rdf-syntax-ns#"
   xmlns:cc="http://creativecommons.org/ns#"
   xmlns:dc="http://purl.org/dc/elements/1.1/">
  <sodipodi:namedview
     id="namedview7"
     pagecolor="#9c4444"
     bordercolor="#000000"
     borderopacity="0.25"
     inkscape:showpageshadow="2"
     inkscape:pageopacity="0.0"
     inkscape:pagecheckerboard="0"
     inkscape:deskcolor="#d1d1d1"
     inkscape:zoom="6.15625"
     inkscape:cx="57.258883"
     inkscape:cy="38.010152"
     inkscape:window-width="2560"
     inkscape:window-height="1388"
     inkscape:window-x="0"
     inkscape:window-y="0"
     inkscape:window-maximized="1"
     inkscape:current-layer="svg7"
     showgrid="false" />
  <defs
     id="defs2">
    <style
       id="current-color-scheme"
       type="text/css">.ColorScheme-Text {color:#d8dee9} .ColorScheme-Highlight {color:#3b4252}</style>
  </defs>
  <metadata
     id="metadata2">
    <rdf:RDF>
      <cc:Work
         rdf:about="">
        <dc:format>image/svg+xml</dc:format>
        <dc:type
           rdf:resource="http://purl.org/dc/dcmitype/StillImage" />
      </cc:Work>
    </rdf:RDF>
  </metadata>
  <path
     id="path5"
     style="fill:currentColor"
     d="m 2.039456,1.4551799 c -0.968146,0 -1.752829,0.7846835 -1.752829,1.75283 v 6.4270435 c 0,3.2269596 2.615806,5.8427666 5.842766,5.8427666 H 8.4665 c 2.828191,0 5.187068,-2.009231 5.726939,-4.678207 l 0.370307,-0.0034 c 1.150148,0 2.082627,-0.78414 2.082627,-1.7511179 V 5.5434047 c 0,-0.9672701 -0.932479,-1.7511181 -2.082627,-1.7511181 h -0.25448 V 3.2080099 c 0,-0.9681465 -0.784682,-1.75283 -1.752829,-1.75283 H 8.758638 v 3.2135217 h 0.292138 c 0.806379,0 1.460693,0.6543139 1.460693,1.4606917 h 2.044968 c 0.322812,0 0.584276,0.2614637 0.584276,0.5842767 v 2.9213834 c 0,2.5816266 -2.092586,4.6742136 -4.674213,4.6742136 H 6.129393 c -2.581626,0 -4.674213,-2.092587 -4.674213,-4.6742136 V 6.71367 c 0,-0.322813 0.261463,-0.5842767 0.584276,-0.5842767 h 4.382075 c 0,-0.8063778 0.654314,-1.4606917 1.460693,-1.4606917 H 8.174362 V 1.4551799 Z m 5.842768,3.50566 c -0.645334,0 -1.168554,0.5232198 -1.168554,1.1685534 v 2.9213833 c 0,0.3228129 0.261464,0.5842768 0.584276,0.5842768 h 2.337107 c 0.322813,0 0.584277,-0.2614639 0.584277,-0.5842768 V 6.1293933 c 0,-0.6453336 -0.52322,-1.1685534 -1.168554,-1.1685534 z m 6.427042,0.5842767 c 0.584278,0 0.584278,0.2921383 0.584278,0.5842767 V 8.4665 c 0,0.2921383 0,0.5842766 -0.584278,0.5842766 z M 7.882224,7.8822233 h 1.168552 c 0.161261,0 0.292139,0.1308779 0.292139,0.2921384 C 9.342915,8.335622 9.212037,8.4665 9.050776,8.4665 H 7.882224 c -0.161261,0 -0.292139,-0.130878 -0.292139,-0.2921383 0,-0.1612605 0.130878,-0.2921384 0.292139,-0.2921384 z"
     class="ColorScheme-Text" />
</svg>
