<?xml version="1.0" encoding="UTF-8" standalone="no"?>
<svg
   width="64"
   height="64"
   version="1.1"
   viewBox="0 0 16.933 16.933"
   id="svg7"
   sodipodi:docname="ktorrent.svg"
   inkscape:version="1.4.2 (ebf0e940d0, 2025-05-08)"
   xmlns:inkscape="http://www.inkscape.org/namespaces/inkscape"
   xmlns:sodipodi="http://sodipodi.sourceforge.net/DTD/sodipodi-0.dtd"
   xmlns="http://www.w3.org/2000/svg"
   xmlns:svg="http://www.w3.org/2000/svg"
   xmlns:rdf="http://www.w3.org/1999/02/22-rdf-syntax-ns#"
   xmlns:cc="http://creativecommons.org/ns#"
   xmlns:dc="http://purl.org/dc/elements/1.1/">
  <sodipodi:namedview
     id="namedview7"
     pagecolor="#9c4444"
     bordercolor="#000000"
     borderopacity="0.25"
     inkscape:showpageshadow="2"
     inkscape:pageopacity="0.0"
     inkscape:pagecheckerboard="0"
     inkscape:deskcolor="#d1d1d1"
     inkscape:zoom="4.3531261"
     inkscape:cx="36.295755"
     inkscape:cy="40.430715"
     inkscape:window-width="2560"
     inkscape:window-height="1376"
     inkscape:window-x="0"
     inkscape:window-y="0"
     inkscape:window-maximized="1"
     inkscape:current-layer="svg7"
     showgrid="false" />
  <defs
     id="defs2">
    <style
       id="current-color-scheme"
       type="text/css">.ColorScheme-Text {color:#d8dee9} .ColorScheme-Highlight {color:#3b4252}</style>
  </defs>
  <metadata
     id="metadata2">
    <rdf:RDF>
      <cc:Work
         rdf:about="">
        <dc:format>image/svg+xml</dc:format>
        <dc:type
           rdf:resource="http://purl.org/dc/dcmitype/StillImage" />
      </cc:Work>
    </rdf:RDF>
  </metadata>
  <path
     id="path6"
     d="m 5.7660705,1.4385335 v 5.380728 h 0.0015 c 0.197907,0 0.357825,0.1606205 0.357825,0.3585355 0,0.1979074 -0.159918,0.357826 -0.357825,0.357826 h -0.0015 v 1.5965741 c 0.132176,-0.046797 0.262133,-0.039401 0.385836,0.058119 0.367132,0.2889736 0.898517,0.081481 0.476171,-0.302507 -0.422346,-0.3839797 -0.601792,-0.8645581 -0.440454,-0.9950623 0.161337,-0.1305038 0.679679,0.3962073 0.825595,0.8802201 0.145925,0.4840128 0.797185,0.3097908 0.873911,0.1484532 0.07709,-0.1613376 -0.14397,-0.1493967 -0.03638,-0.4229573 0.107554,-0.273553 0.518017,-0.3817907 0.689748,-0.030796 0.171377,0.3509951 -0.113557,0.3385183 0.03993,0.4306561 0.153449,0.092145 0.378281,0.085587 0.685542,-0.1449508 0.307256,-0.230175 0.148197,-0.8434239 0.278701,-1.1582114 0.114018,-0.2757119 0.346067,-0.674644 0.5791105,-0.6918533 0.03298,-0.00226 0.06575,0.00378 0.09873,0.018191 0.263876,0.1161628 0.05842,0.8572667 -0.07216,1.1645215 -0.130509,0.3072621 -0.4811975,0.5669421 -0.0588,0.6974463 0.422701,0.1305038 0.755309,-0.1715953 0.885814,-0.1253408 0.128653,0.045589 0.227366,0.7963548 0.524492,0.9355316 V 8.1462381 c -0.03072,0.018794 -0.06302,0.021663 -0.09875,0.00528 -0.145561,-0.067404 0.02167,-0.4136734 0.0665,-0.7499726 0.0091,-0.067705 0.01977,-0.136301 0.03224,-0.2023683 V 1.4382095 Z m 3.406726,3.5866917 c 0.29686,0 0.537791,0.2416252 0.537791,0.5384863 0,0.2968613 -0.240931,0.5377996 -0.537791,0.5377996 -0.296862,0 -0.536396,-0.2409383 -0.536396,-0.5377996 0,-0.2968611 0.239534,-0.5384863 0.536396,-0.5384863 z m 0.01111,0.2121731 c -0.184947,0 -0.331219,0.1462719 -0.331219,0.3312195 0,0.1849476 0.146272,0.3312194 0.331219,0.3312194 0.184941,0 0.331221,-0.1462718 0.331221,-0.3312194 0,-0.1849476 -0.14628,-0.3312195 -0.331221,-0.3312195 z m -6.45351,1.0755839 c -0.184947,0 -0.33122,0.1462794 -0.33122,0.3312194 0,0.1849476 0.146273,0.3312195 0.33122,0.3312195 0.184939,0 0.331219,-0.1462719 0.331219,-0.3312195 0,-0.18494 -0.14628,-0.3312194 -0.331219,-0.3312194 z m 4.24282,0.1806679 h 0.0015 c 0.162387,0.00302 0.354647,0.1711725 0.549702,0.6162153 0.238417,0.5438906 0.285049,1.0499133 0.103638,1.1295064 -0.181416,0.079593 -0.522394,-0.2978122 -0.761174,-0.8417029 -0.238425,-0.5438831 -0.176833,-0.8020157 0.0045,-0.8816089 0.02258,-0.010041 0.04664,-0.018115 0.07072,-0.020984 v 0.0015 c 0.01016,-0.0015 0.02045,-0.00302 0.0308,-0.00302 z M 13.844077,6.672914 c -0.18494,0 -0.331219,0.146272 -0.331219,0.3312196 0,0.18494 0.146279,0.3312194 0.331219,0.3312194 0.184947,0 0.33122,-0.1462794 0.33122,-0.3312194 0,-0.1849476 -0.146273,-0.3312196 -0.33122,-0.3312196 z m -6.8638555,0.033589 -0.0098,0.0015 c -7.55e-4,3.624e-4 -0.0023,0.0015 -0.0045,0.00226 -0.01233,0.00528 -0.01404,0.00679 -0.01962,0.015398 -0.0053,0.0089 -0.01495,0.029739 -0.01751,0.074197 -0.0053,0.088961 0.02687,0.2653559 0.138648,0.5202882 0.11189,0.2548492 0.249053,0.4704038 0.365533,0.5994134 0.03932,0.043551 0.07675,0.07699 0.105738,0.098735 0.0038,-0.036004 0.0045,-0.085889 -7.02e-4,-0.1442567 C 7.5221485,7.7011973 7.4564885,7.4546131 7.3447415,7.1997034 7.2347485,6.9487415 7.1284405,6.806251 7.0590375,6.7480413 c -0.04438,-0.037211 -0.06664,-0.040985 -0.07633,-0.041287 h -7.02e-4 -7.02e-4 -7.02e-4 z m 4.7988175,0.3004087 c -0.03548,0.091058 -0.07102,0.2612875 -0.09314,0.427154 -0.0023,0.018115 -0.0061,0.038268 -0.0098,0.059478 0.04038,-0.060157 0.0845,-0.1155598 0.130943,-0.1575561 0.02679,-0.024229 0.04393,-0.073216 0.03359,-0.1547558 -0.0076,-0.060685 -0.03434,-0.1290552 -0.06159,-0.1743578 z m -6.0018495,0.023777 c -0.08599,0 -0.151955,0.065969 -0.151955,0.1519555 0,0.085994 0.06597,0.1519555 0.151955,0.1519555 0.08598,0 0.151948,-0.065969 0.151948,-0.1519555 0,-0.085986 -0.06597,-0.1519555 -0.151948,-0.1519555 z m 4.3632635,0.086832 c -0.0068,0.00226 -0.01744,0.00679 -0.03148,0.016077 -0.02461,0.016153 -0.05782,0.044987 -0.09173,0.083329 -0.1017545,0.1149107 -0.2092215,0.3120628 -0.2710015,0.4614671 -0.01797,0.043249 -0.03298,0.1219978 -0.04061,0.2184756 -0.0076,0.096486 -0.0095,0.2098634 -0.01751,0.3277173 -0.01571,0.23019 -0.05616,0.5248093 -0.288505,0.6988501 -0.357833,0.268481 -0.673187,0.3026203 -0.915929,0.1568542 -0.271765,-0.1631718 -0.08456,-0.4029251 -0.08332,-0.4033403 1.14e-4,-7.548e-4 1.44e-4,-0.00453 -6.94e-4,-0.011925 -0.0015,-0.01502 -0.0084,-0.04793 -0.03503,-0.1022365 -0.02672,-0.054572 -0.05374,-0.077358 -0.07773,-0.090333 -0.024,-0.012982 -0.04907,-0.01721 -0.07912,-0.01328 -0.06015,0.00778 -0.13032,0.05827 -0.154756,0.1204422 -0.01472,0.037439 -0.01548,0.054421 -0.01539,0.058799 v 7.02e-4 c 7.55e-4,0.0015 0.0023,0.00302 0.0045,0.00679 0.02552,0.040156 0.135908,0.1739804 0.04273,0.3690272 -0.09578,0.2014097 -0.40177,0.2824445 -0.595209,0.2857053 -0.169512,0.00302 -0.352368,-0.045287 -0.489478,-0.1729615 0.01615,0.1991303 -0.126675,0.359562 -0.353629,0.3998455 -0.192133,0.034117 -0.42415,-0.022267 -0.612019,-0.1701611 -0.04265,-0.033589 -0.06884,-0.040532 -0.102933,-0.041287 -0.03412,-7.17e-4 -0.08018,0.00989 -0.137947,0.038494 -0.08666,0.042948 -0.193386,0.1257636 -0.299707,0.2254802 -0.10632,0.099708 -0.213343,0.214845 -0.316516,0.3200107 -0.401974,0.4088733 -0.821731,0.4557003 -1.153312,0.1715653 -0.08743,-0.074952 -0.132894,-0.1663044 -0.160356,-0.2604953 -0.03993,-0.1370105 -0.04385,-0.2992389 -0.0511,-0.4390572 -0.01165,-0.2237214 -0.0314,-0.4545606 -0.142853,-0.6806446 -0.05359,-0.1089171 -0.108963,-0.1579637 -0.15336,-0.1806679 -0.04438,-0.02272 -0.08426,-0.024908 -0.131647,-0.012602 -0.0474,0.012304 -0.09979,0.043325 -0.141449,0.087534 -0.04167,0.04423 -0.07133,0.099957 -0.08193,0.1519555 -0.0045,0.023776 -0.0015,0.043703 0.03714,0.096636 0.0388,0.052911 0.11147,0.1194395 0.190472,0.1855666 0.09244,0.077389 0.319573,0.2373455 0.334714,0.4355548 0.0053,0.072007 -0.0148,0.1414564 -0.05601,0.199568 -0.142346,0.2004512 -0.431917,0.2350886 -0.65474,0.1939749 -0.0061,-7.548e-4 -0.01165,-0.00226 -0.01751,-0.00378 L 8.6450935,15.49479 14.421463,9.7184218 c -0.244442,0.1227066 -0.611129,0.2033647 -0.805986,0.045515 -0.02958,-0.024003 -0.05427,-0.051477 -0.07351,-0.085428 -0.0093,0.00981 -0.0197,0.01887 -0.03011,0.028003 C 13.391538,9.8117376 13.256222,9.8808017 13.113416,9.86757 12.894404,9.847267 12.78757,9.6575105 12.748585,9.503434 12.735305,9.582498 12.696875,9.6534043 12.639351,9.7093121 12.372855,9.96829 11.711254,9.9014151 11.448223,9.7961441 11.358393,9.7602151 11.287497,9.6977791 11.233944,9.6336819 11.069263,9.4366047 10.948563,9.0403672 10.890119,8.8879134 c -0.04567,0.017662 -0.117934,0.04642 -0.167361,0.063704 -0.172712,0.060611 -0.408887,0.1179597 -0.682041,0.033589 -0.1226495,-0.037891 -0.2390515,-0.099392 -0.3025075,-0.2093727 -0.09749,-0.1689686 -0.01812,-0.340881 0.04408,-0.448862 0.06967,-0.120926 0.149745,-0.2286125 0.187673,-0.3179125 0.045751,-0.1077463 0.1081505,-0.2935476 0.1463475,-0.4719736 0.03442,-0.1605829 0.04453,-0.3209091 0.03011,-0.3942375 -0.0015,-0.00981 -0.0038,-0.018341 -0.0053,-0.024531 v -7.02e-4 h -6.96e-4 z M 4.1547035,7.2568711 c -0.04423,-0.0015 -0.08816,0.00302 -0.123246,0.014039 -0.04679,0.014493 -0.07729,0.035249 -0.09944,0.065818 -0.134981,0.1862685 0.03865,0.3412734 0.107134,0.3620302 0.323437,0.098553 0.394961,0.4633162 0.497183,0.6680395 0.0023,0.00302 0.01533,0.016681 0.05465,0.030117 0.04491,0.015322 0.116064,0.024833 0.190464,0.021738 0.07442,-0.00302 0.151722,-0.017813 0.210083,-0.038494 0.05835,-0.020681 0.09403,-0.051025 0.09243,-0.048987 0.04951,-0.062497 0.0943,-0.1610733 0.09803,-0.2632953 0.003,-0.083775 -0.01518,-0.1722595 -0.08473,-0.2716962 -0.0053,0.026267 -0.01233,0.051778 -0.02173,0.076324 -0.03381,0.089126 -0.09471,0.1670287 -0.195363,0.212875 -0.09711,0.044004 -0.210604,0.046571 -0.306712,-0.021738 -0.06408,-0.045513 -0.101429,-0.1124566 -0.12185,-0.1624546 -0.06635,-0.1624774 -0.06816,-0.4536323 -0.07563,-0.5700066 l -0.0015,-0.0015 -0.0038,-0.00378 c -0.01389,-0.012602 -0.04657,-0.033362 -0.08893,-0.047627 -0.03812,-0.012833 -0.08319,-0.020153 -0.127447,-0.021738 z M 14.358764,8.0579584 c -0.02966,-1.661e-4 -0.07102,0.00898 -0.119045,0.030117 -0.07201,0.031701 -0.156718,0.091081 -0.232484,0.1617603 -0.07576,0.070649 -0.143397,0.152031 -0.188367,0.2198795 -0.01301,0.019549 -0.03163,0.066875 -0.04408,0.1337492 -0.01247,0.066875 -0.0203,0.1513516 -0.02588,0.2429838 -0.0061,0.099059 -0.0095,0.2178643 -0.02241,0.3354237 0.0045,-0.00378 0.0093,-0.00755 0.01404,-0.011247 0.121634,-0.096403 0.295646,-0.2049422 0.413847,-0.2856977 0.08404,-0.05744 0.154091,-0.1129553 0.177165,-0.137954 0.02438,-0.026417 0.0628,-0.084001 0.09383,-0.1526575 C 14.4564,8.5257047 14.48183,8.4451983 14.49399,8.3695375 14.5183,8.2182161 14.493235,8.1231949 14.4324,8.0810319 14.40703,8.0632939 14.38855,8.0580859 14.35889,8.0579359 Z M 1.4748465,8.1069454 c -0.08599,0 -0.151956,0.065969 -0.151956,0.1519555 0,0.085986 0.06597,0.1519555 0.151956,0.1519555 0.086,0 0.151955,-0.065969 0.151955,-0.1519555 0,-0.085994 -0.06597,-0.1519555 -0.151955,-0.1519555 z m 4.89125,0.048987 c 0.04853,0.1500309 0.192857,0.3849987 0.411748,0.5840082 0.0068,0.00604 0.0126,0.012155 0.01888,0.018191 C 6.7253945,8.5796677 6.5936695,8.3831868 6.4662075,8.249754 6.4314875,8.213448 6.3972975,8.181595 6.3660655,8.155918 Z m 9.0920575,0.3081152 c -0.086,0 -0.151955,0.065969 -0.151955,0.151948 0,0.085994 0.06597,0.1519554 0.151955,0.1519554 0.08599,0 0.151955,-0.065969 0.151955,-0.1519554 0,-0.085986 -0.06597,-0.151948 -0.151955,-0.151948 z m -2.620342,0.017512 c -0.01125,6.03e-5 -0.02317,7.548e-4 -0.03571,0.00302 -0.05013,0.00679 -0.109614,0.027475 -0.165957,0.059554 -0.05639,0.032003 -0.108787,0.074498 -0.146354,0.1134378 -0.003,0.00302 -0.0061,0.00679 -0.0068,0.00837 -1.06e-4,1.811e-4 -5.43e-4,0.0015 -6.95e-4,0.00226 v 6.944e-4 c -7.17e-4,0.0015 -0.0015,0.00453 -0.0015,0.014719 2.96e-4,0.013429 0.0038,0.039099 0.01539,0.072838 0.0317,0.095067 0.203117,0.400238 0.247891,0.5966133 7.54e-4,0.00378 0.0023,0.00793 0.003,0.011925 0.0045,-0.021663 0.01084,-0.041213 0.01819,-0.059478 0.01554,-0.03842 0.03827,-0.07554 0.05744,-0.1029385 0.08179,-0.1168878 0.175814,-0.2051233 0.225487,-0.2920078 0.02588,-0.045287 0.03924,-0.084515 0.04203,-0.1225412 0.003,-0.038042 -0.0023,-0.078726 -0.03503,-0.1407544 -0.04521,-0.085563 -0.08904,-0.1230549 -0.126742,-0.1428451 -0.02823,-0.014869 -0.05668,-0.021889 -0.09033,-0.021738 z m -10.5541795,0.7828816 -7.02e-4,7.02e-4 c -7.55e-4,1.359e-4 -0.0023,-1.812e-4 -0.003,0 h -6.94e-4 -7.02e-4 v 6.943e-4 h -7.02e-4 c -0.01389,0.00226 -0.04679,0.016229 -0.0511,0.088236 0.0015,1.887e-4 0.003,3.397e-4 0.0053,7.019e-4 0.03812,0.00453 0.09331,0.00875 0.157557,0.023776 -0.02951,-0.063252 -0.05985,-0.091821 -0.07843,-0.1036417 -0.01274,-0.00808 -0.0203,-0.010421 -0.02588,-0.010488 -4.52e-4,-7.5e-6 -7.55e-4,-3.78e-5 -0.0015,0 z"
     class="ColorScheme-Text"
     style="fill:currentColor;fill-opacity:1;stroke-width:0.754796" />
</svg>
