<?xml version="1.0" encoding="UTF-8" standalone="no"?>
<svg
   width="64"
   height="64"
   version="1.1"
   viewBox="0 0 16.933 16.933"
   id="svg7"
   sodipodi:docname="kvirc.svg"
   inkscape:version="1.4.3 (0d15f75042, 2025-12-25)"
   xmlns:inkscape="http://www.inkscape.org/namespaces/inkscape"
   xmlns:sodipodi="http://sodipodi.sourceforge.net/DTD/sodipodi-0.dtd"
   xmlns="http://www.w3.org/2000/svg"
   xmlns:svg="http://www.w3.org/2000/svg"
   xmlns:rdf="http://www.w3.org/1999/02/22-rdf-syntax-ns#"
   xmlns:cc="http://creativecommons.org/ns#"
   xmlns:dc="http://purl.org/dc/elements/1.1/">
  <sodipodi:namedview
     id="namedview7"
     pagecolor="#9c4444"
     bordercolor="#000000"
     borderopacity="0.25"
     inkscape:showpageshadow="2"
     inkscape:pageopacity="0.0"
     inkscape:pagecheckerboard="0"
     inkscape:deskcolor="#d1d1d1"
     inkscape:zoom="4.3531262"
     inkscape:cx="89.935366"
     inkscape:cy="34.457995"
     inkscape:window-width="2560"
     inkscape:window-height="1388"
     inkscape:window-x="0"
     inkscape:window-y="0"
     inkscape:window-maximized="1"
     inkscape:current-layer="svg7"
     showgrid="false" />
  <defs
     id="defs2">
    <style
       id="current-color-scheme"
       type="text/css">.ColorScheme-Text {color:#d8dee9} .ColorScheme-Highlight {color:#3b4252}</style>
  </defs>
  <metadata
     id="metadata2">
    <rdf:RDF>
      <cc:Work
         rdf:about="">
        <dc:format>image/svg+xml</dc:format>
        <dc:type
           rdf:resource="http://purl.org/dc/dcmitype/StillImage" />
      </cc:Work>
    </rdf:RDF>
  </metadata>
  <path
     id="path5"
     style="fill:currentColor"
     d="M 3.201318,2.3513164 6.461096,11.836355 H 9.021763 L 11.852406,2.3513164 H 9.354495 l -1.37217,5.229674 9.5e-4,-0.0035 c -0.04059,0.136617 -0.08593,0.337188 -0.138142,0.606617 -1.7e-5,9.6e-5 -1.8e-5,1.91e-4 -3.9e-5,2.8e-4 -4.2e-5,1.91e-4 -8.5e-5,3.15e-4 -1.24e-4,5.13e-4 -0.0522,0.259739 -0.104202,0.528073 -0.155978,0.805014 l -2.74e-4,0.0016 -2.74e-4,0.0016 c -0.0025,0.01585 -0.0031,0.02396 -0.0055,0.0395 -0.0034,-0.01501 -0.0053,-0.02678 -0.0089,-0.04207 l -1e-6,-4.8e-5 C 7.609153,8.7048664 7.540325,8.4321004 7.46764,8.1718644 l -0.0011,-0.0042 C 7.40218,7.9001964 7.347703,7.7004094 7.300977,7.5644514 l 0.0013,0.0039 -1.590425,-5.217081 z m 0.302386,0.222835 H 5.55654 l 1.542184,5.058886 6.72e-4,0.002 c 0.04216,0.122674 0.09641,0.319703 0.160411,0.586002 l 4.95e-4,0.0021 5.84e-4,0.0021 c 0.07198,0.257434 0.140178,0.527972 0.20462,0.811637 l 9.7e-5,3.72e-4 5.4e-5,3.27e-4 c 0.06398,0.273935 0.105871,0.499574 0.125934,0.674289 l 0.212774,0.0052 c 0.02041,-0.178989 0.0523,-0.406722 0.0955,-0.682077 0.05148,-0.275311 0.103151,-0.542095 0.155015,-0.800163 l 8.3e-5,-3.73e-4 8.2e-5,-4.2e-4 c 0.05159,-0.266299 0.09666,-0.463328 0.133109,-0.586003 l 4.95e-4,-0.0017 1.330835,-5.072086 h 2.040562 L 8.862369,11.613566 H 6.610327 Z m 5.045595,2.156239 a 3.7370115,3.7370115 0 0 0 -0.200586,9.6e-4 3.7370115,3.7370115 0 0 0 -1.603129,0.417997 l 0.720818,2.364596 4.16e-4,0.0014 c 4.8e-5,1.15e-4 9.7e-5,2.39e-4 1.5e-4,3.63e-4 l 1.77e-4,5.93e-4 1.77e-4,5.92e-4 c 0.04889,0.143986 0.104541,0.349521 0.167117,0.609484 l 1.5e-4,4.58e-4 v 4.8e-5 l 9.8e-5,3.66e-4 c 9.7e-5,3.89e-4 2.03e-4,7.54e-4 3.18e-4,0.0011 l 1.77e-4,6.86e-4 c 0.0083,0.02986 0.0166,0.05985 0.02483,0.09003 0.0049,-0.02455 0.0098,-0.04898 0.01472,-0.07339 l 9.8e-5,-7.31e-4 1.5e-4,-5.49e-4 v -4.8e-5 -4.8e-5 h 4.6e-5 v -4.7e-5 c 1.9e-5,-1.44e-4 6.2e-5,-2.73e-4 8.2e-5,-4.11e-4 l 8.2e-5,-4.1e-4 c 1.9e-5,-9.6e-5 -1.9e-5,-1.2e-4 0,-2.39e-4 l 1.42e-4,-6.86e-4 c 1.85e-4,-8.98e-4 3.18e-4,-0.0014 4.6e-4,-0.002 1.85e-4,-8.21e-4 2.03e-4,-0.0011 2.74e-4,-0.0014 0.05077,-0.261542 0.09711,-0.468129 0.1395,-0.612227 l 3.9e-5,-2.74e-4 c 2.1e-5,-9.8e-5 6.3e-5,-2.75e-4 8.4e-5,-3.63e-4 v -4.8e-5 l 3.62e-4,-0.0014 8.8e-5,-1.95e-4 v -4.8e-5 -4.7e-5 c 6.3e-5,-2.13e-4 6.6e-5,-1.15e-4 1.32e-4,-3.63e-4 z m 2.474376,1.011021 -1.872803,6.2754416 H 7.300108 a 3.7370115,3.7370115 0 0 0 4.903396,-3.5503676 3.7370115,3.7370115 0 0 0 -1.179829,-2.725074 z m -6.196022,1.87422 a 3.7370115,3.7370115 0 0 0 -0.09817,0.850854 3.7370115,3.7370115 0 0 0 1.390016,2.9081016 z m 3.524901,-6.160268 c -0.244624,0.0039 -0.486532,0.02053 -0.724476,0.04892 l -0.498104,1.393491 c -0.336123,0.08048 -0.660792,0.190506 -0.971059,0.327283 l 0.517399,1.697364 h 4.6e-5 a 3.9706228,3.9705722 0.03399507 0 1 1.519228,-0.417219 3.9706228,3.9705722 0.03399507 0 1 0.414568,-0.0067 L 9.220874,2.1708044 H 9.561097 L 9.326128,1.5071854 c -0.281753,-0.0345 -0.568609,-0.05185 -0.859633,-0.05185 -0.03024,0 -0.06043,-3.8e-4 -0.09058,0 -0.0079,9.7e-5 -0.01547,-1.24e-4 -0.02336,0 z m 4.442693,1.496459 -1.093504,0.51749 -0.603951,2.023687 a 3.9706228,3.9705722 0.03399507 0 1 1.339355,2.973486 3.9706228,3.9705722 0.03399507 0 1 -5.725261,3.5503676 H 6.340252 L 6.247802,11.747821 A 3.9706228,3.9705722 0.03399507 0 1 4.495936,8.4664854 3.9706228,3.9705722 0.03399507 0 1 4.694236,7.2273994 L 3.440473,3.5793214 c -0.172512,0.177393 -0.335738,0.363846 -0.488821,0.558549 l 0.632482,1.33652 c -0.307636,0.500682 -0.540557,1.052112 -0.682869,1.638885 l -1.393491,0.492982 c -0.03454,0.281928 -0.05258,0.569108 -0.05258,0.860319 0,0.283761 0.01683,0.563447 0.04966,0.838418 l 1.39276,0.498103 c 0.140513,0.5868296 0.371938,1.1384046 0.677747,1.6396156 l -0.636826,1.335058 c 0.349983,0.44795 0.753042,0.852345 1.199947,1.203605 l 1.336521,-0.632483 c 0.500301,0.3073 1.051909,0.539875 1.638153,0.682138 l 0.492983,1.394222 c 0.281984,0.03455 0.569092,0.05258 0.860364,0.05258 0.283706,0 0.563497,-0.01689 0.838417,-0.0497 l 0.497372,-1.392714 c 0.587226,-0.140522 1.139574,-0.371727 1.64108,-0.677748 l 1.334371,0.636826 c 0.447853,-0.349845 0.852379,-0.753229 1.203605,-1.199947 l -0.632482,-1.33652 c 0.307636,-0.500682 0.540557,-1.052067 0.682869,-1.6388396 l 1.393491,-0.492982 c 0.0345,-0.281756 0.05258,-0.568605 0.05258,-0.859633 0,-0.283952 -0.01679,-0.564 -0.04966,-0.839149 L 14.035387,7.1300544 C 13.894919,6.5430924 13.664201,5.9910764 13.35837,5.4897524 l 0.636826,-1.334326 c -0.34992,-0.448006 -0.753092,-0.852279 -1.199947,-1.203605 z"
     class="ColorScheme-Text" />
</svg>
