<?xml version="1.0" encoding="UTF-8" standalone="no"?>
<svg
   width="64"
   height="64"
   version="1.1"
   viewBox="0 0 16.933 16.933"
   id="svg7"
   sodipodi:docname="kwrite-alt.svg"
   inkscape:version="1.4.3 (0d15f75042, 2025-12-25)"
   xmlns:inkscape="http://www.inkscape.org/namespaces/inkscape"
   xmlns:sodipodi="http://sodipodi.sourceforge.net/DTD/sodipodi-0.dtd"
   xmlns="http://www.w3.org/2000/svg"
   xmlns:svg="http://www.w3.org/2000/svg"
   xmlns:rdf="http://www.w3.org/1999/02/22-rdf-syntax-ns#"
   xmlns:cc="http://creativecommons.org/ns#"
   xmlns:dc="http://purl.org/dc/elements/1.1/">
  <sodipodi:namedview
     id="namedview7"
     pagecolor="#9c4444"
     bordercolor="#000000"
     borderopacity="0.25"
     inkscape:showpageshadow="2"
     inkscape:pageopacity="0.0"
     inkscape:pagecheckerboard="0"
     inkscape:deskcolor="#d1d1d1"
     inkscape:zoom="17.412505"
     inkscape:cx="53.668326"
     inkscape:cy="32.677665"
     inkscape:window-width="2560"
     inkscape:window-height="1388"
     inkscape:window-x="0"
     inkscape:window-y="0"
     inkscape:window-maximized="1"
     inkscape:current-layer="svg7"
     showgrid="false" />
  <defs
     id="defs2">
    <style
       id="current-color-scheme"
       type="text/css">.ColorScheme-Text {color:#d8dee9} .ColorScheme-Highlight {color:#3b4252}</style>
  </defs>
  <metadata
     id="metadata2">
    <rdf:RDF>
      <cc:Work
         rdf:about="">
        <dc:format>image/svg+xml</dc:format>
        <dc:type
           rdf:resource="http://purl.org/dc/dcmitype/StillImage" />
      </cc:Work>
    </rdf:RDF>
  </metadata>
  <path
     id="path5"
     style="fill:currentColor;fill-opacity:1;fill-rule:evenodd;stroke-width:0.350567"
     d="m 13.374419,4.6102739 -2.453961,-2.453962 v 2.453962 z M 4.259706,2.1563119 V 14.426122 H 4.610274 V 2.1563119 Z m 1.0517,1.4022639 V 3.9091419 H 7.064234 V 3.5585758 Z m 2.103397,0 V 3.9091419 H 8.817066 V 3.5585758 Z m 1.75283,0 v 0.3505661 h 1.577546 V 3.5585758 Z M 5.311406,4.2597079 v 0.350566 h 2.453962 v -0.350566 z m 2.804528,0 v 0.350566 h 1.051699 v -0.350566 z m 1.402264,0 v 0.350566 h 1.226983 v -0.350566 z m -4.206792,0.701132 v 0.350566 h 2.804528 v -0.350566 z m 3.155093,0 v 0.350566 h 1.75283 v -0.350566 z m 2.103397,0 v 0.350566 h 1.402265 V 4.9608399 Z M 5.311406,5.661972 V 6.012538 H 7.414803 V 5.661972 Z m 2.453965,0 V 6.012538 H 8.817066 V 5.661972 Z m 1.402263,0 v 0.350566 h 1.402264 V 5.661972 Z m 1.752827,0 v 0.350566 h 1.0517 V 5.661972 Z M 5.311406,6.363104 V 6.71367 H 6.723941 V 6.363104 Z m 1.752828,0 V 6.71367 H 9.518198 V 6.363104 Z M 5.311406,7.7653679 v 0.3505662 h 3.50566 V 7.7653679 Z m 3.856227,0 v 0.3505662 h 1.752828 V 7.7653679 Z m 2.103397,0 v 0.3505662 h 0.701131 V 7.7653679 Z M 5.311406,8.4664999 V 8.817066 H 6.723941 V 8.4664999 Z m 1.752828,0 V 8.817066 h 2.80453 V 8.4664999 Z m 3.155095,0 V 8.817066 h 1.412535 V 8.4664999 Z M 5.311406,9.1676318 V 9.5181977 H 7.765368 V 9.1676318 Z m 0,1.4022632 v 0.350566 h 3.50566 v -0.350566 z m 3.856227,0 v 0.350566 h 1.402263 v -0.350566 z m 1.752828,0 v 0.350566 h 1.0517 v -0.350566 z m -5.609055,0.701132 v 0.350567 h 2.453962 v -0.350567 z m 2.804528,0 v 0.350567 h 1.402264 v -0.350567 z m 1.75283,0 v 0.350567 h 2.103395 V 11.271027 Z M 5.311406,11.97216 v 0.350567 H 6.713671 V 11.97216 Z m 1.75283,0 v 0.350567 H 9.868764 V 11.97216 Z m -1.75283,0.701132 v 0.350565 h 2.453962 v -0.350565 z m 2.804528,0 v 0.350565 h 2.453962 V 12.673292 Z M 3.208009,1.4551799 c -0.194211,0 -0.350565,0.1563518 -0.350565,0.350566 V 15.127254 c 0,0.194213 0.15635,0.350566 0.350565,0.350566 h 10.516982 c 0.194214,0 0.350565,-0.15635 0.350565,-0.350566 V 1.8057459 c 0,-0.1942135 -0.15635,-0.350566 -0.350565,-0.350566 z m 0.350568,0.701132 h 9.815848 v 12.2698101 0.350567 0.0055 H 3.558577 v -0.0055 -0.350567 z"
     class="ColorScheme-Text" />
</svg>
