<?xml version="1.0" encoding="UTF-8" standalone="no"?>
<svg
   width="64"
   height="64"
   version="1.1"
   viewBox="0 0 16.933 16.933"
   id="svg7"
   sodipodi:docname="org.kde.labplot.svg"
   inkscape:version="1.4.3 (0d15f75042, 2025-12-25)"
   xmlns:inkscape="http://www.inkscape.org/namespaces/inkscape"
   xmlns:sodipodi="http://sodipodi.sourceforge.net/DTD/sodipodi-0.dtd"
   xmlns="http://www.w3.org/2000/svg"
   xmlns:svg="http://www.w3.org/2000/svg"
   xmlns:rdf="http://www.w3.org/1999/02/22-rdf-syntax-ns#"
   xmlns:cc="http://creativecommons.org/ns#"
   xmlns:dc="http://purl.org/dc/elements/1.1/">
  <sodipodi:namedview
     id="namedview7"
     pagecolor="#9c4444"
     bordercolor="#000000"
     borderopacity="0.25"
     inkscape:showpageshadow="2"
     inkscape:pageopacity="0.0"
     inkscape:pagecheckerboard="0"
     inkscape:deskcolor="#d1d1d1"
     inkscape:zoom="4.3531262"
     inkscape:cx="90.165086"
     inkscape:cy="34.457995"
     inkscape:window-width="2560"
     inkscape:window-height="1388"
     inkscape:window-x="0"
     inkscape:window-y="0"
     inkscape:window-maximized="1"
     inkscape:current-layer="svg7"
     showgrid="false" />
  <defs
     id="defs2">
    <style
       id="current-color-scheme"
       type="text/css">.ColorScheme-Text {color:#d8dee9} .ColorScheme-Highlight {color:#3b4252}</style>
  </defs>
  <metadata
     id="metadata2">
    <rdf:RDF>
      <cc:Work
         rdf:about="">
        <dc:format>image/svg+xml</dc:format>
        <dc:type
           rdf:resource="http://purl.org/dc/dcmitype/StillImage" />
      </cc:Work>
    </rdf:RDF>
  </metadata>
  <path
     id="path5"
     style="fill:currentColor;fill-opacity:1;stroke-width:0.250364"
     d="m 3.5601445,1.4551797 c -1.164909,0 -2.102725,0.9379412 -2.102725,2.1032218 v 9.8161965 c 0,1.165281 0.937816,2.103222 2.102725,2.103222 h 9.8127115 c 1.164909,0 2.102725,-0.937941 2.102725,-2.103222 V 9.5524593 c -0.206869,0 -0.401998,0.010175 -0.586414,0.029371 V 9.2169394 h 0.586414 V 8.9620637 h -0.84129 V 9.8053438 H 13.7935 V 8.9620637 H 9.5880525 V 9.8053438 H 8.7467635 V 8.9620637 H 5.3826045 V 9.8053438 H 4.5413155 V 8.9620637 h -0.84079 v 5.0586843 h -0.84129 V 8.9620637 8.1192816 3.0610953 h 0.84129 v 5.0581863 h 0.84079 V 7.2760017 h 0.841289 v 0.8432799 h 3.364159 V 7.2760017 h 0.841289 V 8.1192816 H 13.7935 V 7.2760017 h 0.840791 v 0.8432799 h 0.84129 V 3.5584015 c 0,-1.1652806 -0.937816,-2.1032218 -2.102725,-2.1032218 z m 5.687908,1.6059156 c 0.676172,-0.00589 1.1640525,0.4674781 1.5262665,1.0090488 0.362213,0.5415702 0.667207,1.2062448 1.038917,1.8503373 0.37171,0.6440926 0.804063,1.2610425 1.37593,1.708961 0.107284,0.084031 0.219159,0.1626323 0.337013,0.2349634 H 12.193558 C 11.735923,7.3962539 11.384245,6.8612365 11.084949,6.3426192 10.689164,5.6568107 10.378673,4.9922704 10.0759,4.539573 9.7731275,4.0868762 9.5466005,3.9018461 9.2555195,3.9043753 8.9632205,3.9069243 8.7153615,4.1045931 8.3963095,4.5614765 8.0772565,5.01836 7.7461165,5.681497 7.3290175,6.3645227 7.0167305,6.8759138 6.6418435,7.403906 6.1716235,7.8644058 h -0.534642 v -0.626735 c 0.376787,-0.3870748 0.686846,-0.8418255 0.974701,-1.313207 0.39245,-0.6426623 0.718191,-1.3063088 1.095667,-1.8468529 0.377474,-0.5405441 0.865749,-1.0106321 1.540703,-1.0165156 z m 0,1.6855642 c 0.278831,-0.00242 0.531788,0.060252 0.7596485,0.1647733 0.246354,0.4159886 0.520731,0.9769263 0.85672,1.5591219 0.267589,0.4636731 0.582014,0.9498342 0.980176,1.3938511 H 11.71915 C 11.497182,7.6628816 11.302522,7.4533828 11.128257,7.2471289 10.726865,6.7720555 10.41709,6.3207041 10.125182,6.0230291 9.8332755,5.7253539 9.6075405,5.5868739 9.2555195,5.5899395 c -0.353239,0.00308 -0.600366,0.1511527 -0.909985,0.4539973 -0.309621,0.3028447 -0.639903,0.7533149 -1.062315,1.2250956 -0.178288,0.199126 -0.376004,0.4009814 -0.59836,0.5953734 H 6.5280515 C 6.9354295,7.43054 7.2674545,6.9541677 7.5460605,6.497934 c 0.35504,-0.5814007 0.647108,-1.1430105 0.90899,-1.5626066 0.23773,-0.1147639 0.501303,-0.186113 0.793002,-0.1886679 z m -5.29315,4.4702799 h 0.332533 v 0.530659 c -0.106579,-0.032409 -0.217316,-0.061297 -0.332533,-0.08612 z m 9.2248055,0 h 0.359415 V 9.952196 c -0.787404,0.385042 -1.294876,1.004289 -1.743311,1.658185 -0.36909,0.538199 -0.6743,1.098367 -1.041903,1.560615 -0.367603,0.462248 -0.8601545,0.855375 -1.5058565,0.849752 -0.644483,-0.0056 -1.136997,-0.396523 -1.519298,-0.857219 -0.382301,-0.460695 -0.708734,-1.019628 -1.098653,-1.556633 -0.431421,-0.59416 -0.914283,-1.160006 -1.605418,-1.546677 h 0.612298 V 9.4723128 c 0.719914,0.4563911 1.252243,1.0586322 1.67312,1.6382732 0.41963,0.577922 0.750576,1.134663 1.064803,1.513324 0.314226,0.378661 0.557846,0.550745 0.880615,0.553558 0.321551,0.0028 0.543409,-0.158702 0.8407905,-0.53265 0.297382,-0.373948 0.607659,-0.931388 1.006062,-1.512329 0.48162,-0.702284 1.127205,-1.4410221 2.077336,-1.9155496 z"
     class="ColorScheme-Text" />
</svg>
