<?xml version="1.0" encoding="UTF-8" standalone="no"?>
<svg
   width="64"
   height="64"
   version="1.1"
   viewBox="0 0 16.933 16.933"
   id="svg7"
   sodipodi:docname="legacy-launcher.svg"
   inkscape:version="1.4.2 (ebf0e940d0, 2025-05-08)"
   xmlns:inkscape="http://www.inkscape.org/namespaces/inkscape"
   xmlns:sodipodi="http://sodipodi.sourceforge.net/DTD/sodipodi-0.dtd"
   xmlns="http://www.w3.org/2000/svg"
   xmlns:svg="http://www.w3.org/2000/svg"
   xmlns:rdf="http://www.w3.org/1999/02/22-rdf-syntax-ns#"
   xmlns:cc="http://creativecommons.org/ns#"
   xmlns:dc="http://purl.org/dc/elements/1.1/">
  <sodipodi:namedview
     id="namedview7"
     pagecolor="#9c4444"
     bordercolor="#000000"
     borderopacity="0.25"
     inkscape:showpageshadow="2"
     inkscape:pageopacity="0.0"
     inkscape:pagecheckerboard="0"
     inkscape:deskcolor="#d1d1d1"
     inkscape:zoom="4.3531262"
     inkscape:cx="89.935366"
     inkscape:cy="34.457995"
     inkscape:window-width="2560"
     inkscape:window-height="1388"
     inkscape:window-x="0"
     inkscape:window-y="0"
     inkscape:window-maximized="1"
     inkscape:current-layer="svg7"
     showgrid="false" />
  <defs
     id="defs2">
    <style
       id="current-color-scheme"
       type="text/css">.ColorScheme-Text {color:#d8dee9} .ColorScheme-Highlight {color:#3b4252}</style>
  </defs>
  <metadata
     id="metadata2">
    <rdf:RDF>
      <cc:Work
         rdf:about="">
        <dc:format>image/svg+xml</dc:format>
        <dc:type
           rdf:resource="http://purl.org/dc/dcmitype/StillImage" />
      </cc:Work>
    </rdf:RDF>
  </metadata>
  <path
     id="path5"
     style="fill:currentColor;stroke-width:0.00849506;paint-order:fill markers stroke"
     d="m 3.1023434,1.4551792 c -0.9125285,0 -1.6471636,0.733891 -1.6471636,1.645495 V 13.832324 c 0,0.911606 0.7346352,1.645497 1.6471636,1.645497 H 13.830656 c 0.912529,0 1.647164,-0.733891 1.647164,-1.645497 V 3.1006742 c 0,-0.911604 -0.734635,-1.645495 -1.647164,-1.645495 z m 1.1474174,2.805955 H 5.6663219 7.082883 v 1.398671 1.398671 h 1.3836178 1.3836178 v -1.398671 -1.398671 h 1.4165604 1.41656 v 1.415126 1.415126 H 11.283152 9.8830619 v 0.691108 0.691108 h 0.7082791 0.70828 v 2.1062338 2.106235 H 10.57487 9.8501186 V 11.994963 11.303855 H 8.4665008 7.082883 v 0.691108 0.691108 H 6.3581308 5.6333786 V 10.579836 8.4736022 H 6.3416591 7.0499397 V 7.7824942 7.0913862 H 5.6498503 4.2497608 v -1.415126 z"
     class="ColorScheme-Text" />
</svg>
