<?xml version="1.0" encoding="UTF-8" standalone="no"?>
<svg
   width="64"
   height="64"
   version="1.1"
   viewBox="0 0 16.933 16.933"
   id="svg7"
   sodipodi:docname="libreoffice-chart.svg"
   inkscape:version="1.4.2 (ebf0e940d0, 2025-05-08)"
   xmlns:inkscape="http://www.inkscape.org/namespaces/inkscape"
   xmlns:sodipodi="http://sodipodi.sourceforge.net/DTD/sodipodi-0.dtd"
   xmlns="http://www.w3.org/2000/svg"
   xmlns:svg="http://www.w3.org/2000/svg"
   xmlns:rdf="http://www.w3.org/1999/02/22-rdf-syntax-ns#"
   xmlns:cc="http://creativecommons.org/ns#"
   xmlns:dc="http://purl.org/dc/elements/1.1/">
  <sodipodi:namedview
     id="namedview7"
     pagecolor="#9c4444"
     bordercolor="#000000"
     borderopacity="0.25"
     inkscape:showpageshadow="2"
     inkscape:pageopacity="0.0"
     inkscape:pagecheckerboard="0"
     inkscape:deskcolor="#d1d1d1"
     inkscape:zoom="6.15625"
     inkscape:cx="15.837563"
     inkscape:cy="29.888325"
     inkscape:window-width="2560"
     inkscape:window-height="1392"
     inkscape:window-x="0"
     inkscape:window-y="0"
     inkscape:window-maximized="1"
     inkscape:current-layer="svg7"
     showgrid="false" />
  <defs
     id="defs2">
    <style
       id="current-color-scheme"
       type="text/css">.ColorScheme-Text {color:#d8dee9} .ColorScheme-Highlight {color:#3b4252}</style>
  </defs>
  <metadata
     id="metadata2">
    <rdf:RDF>
      <cc:Work
         rdf:about="">
        <dc:format>image/svg+xml</dc:format>
        <dc:type
           rdf:resource="http://purl.org/dc/dcmitype/StillImage" />
      </cc:Work>
    </rdf:RDF>
  </metadata>
  <path
     id="path14"
     d="m 4.395412,1.4551797 c -1.002393,0 -1.809374,0.80698 -1.809374,1.809372 V 13.668447 c 0,1.002393 0.806981,1.809373 1.809374,1.809373 h 8.142178 c 1.002392,0 1.809372,-0.80698 1.809372,-1.809373 V 6.8832986 L 8.918844,1.4551797 Z m 5.880461,0 4.071089,4.0710891 V 4.8928111 1.4551797 h -3.437631 z m -5.880461,1.357029 h 3.958002 l 4.636519,4.636519 v 6.2197193 c 0,0.250598 -0.201745,0.452344 -0.452343,0.452344 H 4.395412 c -0.250598,0 -0.452343,-0.201746 -0.452343,-0.452344 V 3.2645517 c 0,-0.01573 0.0011,-0.03069 0.0026,-0.04594 0.02308,-0.22865 0.214758,-0.406402 0.449693,-0.406402 z m 2.35183,5.0658919 V 13.125989 H 8.376386 V 7.8781006 Z M 4.93787,9.2351302 V 13.125989 H 6.567012 V 9.2351302 Z m 5.428119,0 v 3.8908588 h 1.629143 V 9.2351302 Z M 8.556616,10.59216 v 2.533829 h 1.629142 V 10.59216 Z"
     style="fill:currentColor;fill-opacity:1;stroke-width:0.452343"
     class="ColorScheme-Text" />
</svg>
