<?xml version="1.0" encoding="UTF-8" standalone="no"?>
<svg
   width="64"
   height="64"
   version="1.1"
   viewBox="0 0 16.933 16.933"
   id="svg7"
   sodipodi:docname="libreoffice-math.svg"
   inkscape:version="1.4.2 (ebf0e940d0, 2025-05-08)"
   xmlns:inkscape="http://www.inkscape.org/namespaces/inkscape"
   xmlns:sodipodi="http://sodipodi.sourceforge.net/DTD/sodipodi-0.dtd"
   xmlns="http://www.w3.org/2000/svg"
   xmlns:svg="http://www.w3.org/2000/svg"
   xmlns:rdf="http://www.w3.org/1999/02/22-rdf-syntax-ns#"
   xmlns:cc="http://creativecommons.org/ns#"
   xmlns:dc="http://purl.org/dc/elements/1.1/">
  <sodipodi:namedview
     id="namedview7"
     pagecolor="#9c4444"
     bordercolor="#000000"
     borderopacity="0.25"
     inkscape:showpageshadow="2"
     inkscape:pageopacity="0.0"
     inkscape:pagecheckerboard="0"
     inkscape:deskcolor="#d1d1d1"
     inkscape:zoom="6.15625"
     inkscape:cx="15.837563"
     inkscape:cy="29.888325"
     inkscape:window-width="2560"
     inkscape:window-height="1392"
     inkscape:window-x="0"
     inkscape:window-y="0"
     inkscape:window-maximized="1"
     inkscape:current-layer="svg7"
     showgrid="false" />
  <defs
     id="defs2">
    <style
       id="current-color-scheme"
       type="text/css">.ColorScheme-Text {color:#d8dee9} .ColorScheme-Highlight {color:#3b4252}</style>
  </defs>
  <metadata
     id="metadata2">
    <rdf:RDF>
      <cc:Work
         rdf:about="">
        <dc:format>image/svg+xml</dc:format>
        <dc:type
           rdf:resource="http://purl.org/dc/dcmitype/StillImage" />
      </cc:Work>
    </rdf:RDF>
  </metadata>
  <path
     id="path5"
     d="m 4.395412,1.4551797 c -1.002393,0 -1.809374,0.80698 -1.809374,1.809372 V 13.668447 c 0,1.002393 0.806981,1.809373 1.809374,1.809373 h 8.142178 c 1.002392,0 1.809372,-0.80698 1.809372,-1.809373 V 6.8832979 L 8.918844,1.4551797 Z m 5.880461,0 4.071089,4.0710891 V 4.8928107 1.4551797 h -3.437631 z m -2.175134,5.880463 h 3.758336 a 0.22617162,0.22617162 0 0 1 0.226172,0.2261715 0.22617162,0.22617162 0 0 1 -0.226172,0.2261715 H 8.379919 L 6.430956,11.685912 5.386679,9.5973582 H 5.073926 A 0.22617162,0.22617162 0 0 1 4.847755,9.3711865 0.22617162,0.22617162 0 0 1 5.073926,9.1450148 H 5.66586 l 0.765096,1.5301922 z m 1.2784,1.3570289 a 0.45234325,0.45234325 0 0 1 0.311869,0.1325222 l 0.584865,0.5848658 0.584867,-0.5848658 a 0.45234325,0.45234325 0 0 1 0.639642,0 0.45234325,0.45234325 0 0 1 0,0.6396415 l -0.584867,0.5848657 0.584867,0.584866 a 0.45234325,0.45234325 0 0 1 0,0.639641 0.45234325,0.45234325 0 0 1 -0.639642,0 l -0.584867,-0.584866 -0.584865,0.584866 a 0.45234325,0.45234325 0 0 1 -0.639642,0 0.45234325,0.45234325 0 0 1 0,-0.639641 L 9.636233,10.049701 9.051366,9.4648353 a 0.45234325,0.45234325 0 0 1 0,-0.6396415 0.45234325,0.45234325 0 0 1 0.269462,-0.1298722 0.45234325,0.45234325 0 0 1 0.05832,-0.00265 z M 5.073926,12.311418 h 1.35703 c 0.125302,0 0.226171,0.100872 0.226171,0.226171 0,0.125299 -0.100871,0.226172 -0.226171,0.226172 h -1.35703 c -0.125302,0 -0.226171,-0.100873 -0.226171,-0.226172 0,-0.125299 0.100871,-0.226171 0.226171,-0.226171 z m 2.71406,0 h 1.35703 c 0.125302,0 0.226171,0.100872 0.226171,0.226171 0,0.125299 -0.100871,0.226172 -0.226171,0.226172 h -1.35703 c -0.125302,0 -0.226171,-0.100873 -0.226171,-0.226172 0,-0.125299 0.100871,-0.226171 0.226171,-0.226171 z m 2.714059,0 h 1.35703 c 0.125303,0 0.226172,0.100872 0.226172,0.226171 0,0.125299 -0.100871,0.226172 -0.226172,0.226172 h -1.35703 c -0.125303,0 -0.226172,-0.100873 -0.226172,-0.226172 0,-0.125299 0.100871,-0.226171 0.226172,-0.226171 z"
     style="fill:currentColor;fill-opacity:1;stroke-width:0.452343"
     class="ColorScheme-Text" />
</svg>
