<?xml version='1.0' encoding='UTF-8'?>
<svg xmlns:inkscape="http://www.inkscape.org/namespaces/inkscape" xmlns:sodipodi="http://sodipodi.sourceforge.net/DTD/sodipodi-0.dtd" xmlns="http://www.w3.org/2000/svg" xmlns:svg="http://www.w3.org/2000/svg" xmlns:rdf="http://www.w3.org/1999/02/22-rdf-syntax-ns#" xmlns:cc="http://creativecommons.org/ns#" xmlns:dc="http://purl.org/dc/elements/1.1/" width="64" height="64" version="1.1" viewBox="0 0 16.933 16.933" id="svg7" sodipodi:docname="lightdm-settings.svg" inkscape:version="1.4 (e7c3feb100, 2024-10-09)">
  <sodipodi:namedview id="namedview7" pagecolor="#9c4444" bordercolor="#000000" borderopacity="0.25" inkscape:showpageshadow="2" inkscape:pageopacity="0.0" inkscape:pagecheckerboard="0" inkscape:deskcolor="#d1d1d1" inkscape:zoom="6.15625" inkscape:cx="15.837563" inkscape:cy="29.725888" inkscape:window-width="1183" inkscape:window-height="941" inkscape:window-x="35" inkscape:window-y="32" inkscape:window-maximized="0" inkscape:current-layer="svg7" showgrid="false"/>
  <defs id="defs2">
    <style id="current-color-scheme" type="text/css">.ColorScheme-Text {color:#d8dee9} .ColorScheme-Highlight {color:#3b4252}</style></defs>
  <metadata id="metadata2">
    <rdf:RDF>
      <cc:Work rdf:about="">
        <dc:format>image/svg+xml</dc:format>
        <dc:type rdf:resource="http://purl.org/dc/dcmitype/StillImage"/>
      </cc:Work>
    </rdf:RDF>
  </metadata>
  <path id="path2" style="fill:currentColor;fill-opacity:1;stroke-width:0.0720288;stroke-opacity:0.3" d="m 12.102698,2.4418009 c -0.919337,-6.84e-5 -2.1123635,0.00256 -3.666059,0.00694 L 1.7930515,2.4669189 1.5574822,2.7024887 1.3219121,2.9380583 1.3028532,7.7992807 c -0.017062,4.2585823 -0.00604,4.8875373 0.090938,5.0751373 0.2177084,0.421 0.2963625,0.433035 2.9255681,0.433035 1.315886,0 2.3693619,0.024 2.3401097,0.05369 -0.02925,0.0297 -0.1551445,0.08922 -0.2788738,0.131651 -0.3861585,0.132392 -0.5168245,0.392627 -0.5456215,1.080847 l -0.025981,0.606246 h 2.7090542 2.7081881 v -0.572468 c 0,-0.74093 -0.08671,-0.920685 -0.539559,-1.126751 l -0.36115,-0.164559 2.427583,-0.0044 c 2.582579,-0.0044 2.688453,-0.01767 2.919504,-0.357685 0.117743,-0.17328 0.128801,-0.537308 0.146357,-4.9764063 C 15.84021,2.6154528 15.85828,2.8214029 15.331377,2.5569183 15.154487,2.4681313 14.860679,2.4419379 12.102686,2.4417327 Z M 3.0150695,4.2319575 H 8.5249789 14.034887 V 7.9049391 11.578785 H 8.5249789 3.0150695 V 7.9049391 Z M 5.6357853,6.9695891 C 4.558241,6.9704357 4.1597,8.1556922 5.0537889,8.7008525 5.3286706,8.8684591 5.8193865,8.8850537 6.1069247,8.7363635 7.0808265,8.2327376 6.743898,6.9687481 5.6357853,6.9695891 Z m 5.8779867,0 c -0.583334,0 -1.122825,0.5206908 -1.057467,1.0202243 0.05623,0.4297004 0.3537,0.7466564 0.805439,0.8574043 0.638681,0.1565771 1.332877,-0.3262565 1.332877,-0.9275553 0,-0.4656757 -0.551449,-0.9500733 -1.080849,-0.9500733 z m -2.9117139,0.012996 c -0.1681405,0.00325 -0.3456423,0.046214 -0.530031,0.129903 -0.3992788,0.1812125 -0.626092,0.6266768 -0.5179072,1.0184923 0.081903,0.2966276 0.397941,0.6201009 0.6902541,0.707575 0.3187043,0.095372 0.4708108,0.083803 0.7907163,-0.06149 C 9.6538204,8.4960498 9.8413251,7.8658107 9.4464734,7.3965556 9.2095407,7.1149826 8.9230553,6.9762928 8.6020581,6.9825782 Z" class="ColorScheme-Text"/>
  </svg>
