<?xml version="1.0" encoding="UTF-8" standalone="no"?>
<svg
   width="64"
   height="64"
   version="1.1"
   viewBox="0 0 16.933 16.933"
   id="svg7"
   sodipodi:docname="littlenavconnect.svg"
   inkscape:version="1.4.3 (0d15f75042, 2025-12-25)"
   xmlns:inkscape="http://www.inkscape.org/namespaces/inkscape"
   xmlns:sodipodi="http://sodipodi.sourceforge.net/DTD/sodipodi-0.dtd"
   xmlns="http://www.w3.org/2000/svg"
   xmlns:svg="http://www.w3.org/2000/svg"
   xmlns:rdf="http://www.w3.org/1999/02/22-rdf-syntax-ns#"
   xmlns:cc="http://creativecommons.org/ns#"
   xmlns:dc="http://purl.org/dc/elements/1.1/">
  <sodipodi:namedview
     id="namedview7"
     pagecolor="#9c4444"
     bordercolor="#000000"
     borderopacity="0.25"
     inkscape:showpageshadow="2"
     inkscape:pageopacity="0.0"
     inkscape:pagecheckerboard="0"
     inkscape:deskcolor="#d1d1d1"
     inkscape:zoom="12.3125"
     inkscape:cx="49.096447"
     inkscape:cy="29.563452"
     inkscape:window-width="2560"
     inkscape:window-height="1388"
     inkscape:window-x="0"
     inkscape:window-y="0"
     inkscape:window-maximized="1"
     inkscape:current-layer="svg7"
     showgrid="false" />
  <defs
     id="defs2">
    <inkscape:path-effect
       effect="offset"
       id="path-effect8"
       is_visible="true"
       lpeversion="1.3"
       linejoin_type="round"
       unit="px"
       offset="-1"
       miter_limit="4"
       attempt_force_join="false"
       update_on_knot_move="true" />
    <style
       id="current-color-scheme"
       type="text/css">.ColorScheme-Text {color:#d8dee9} .ColorScheme-Highlight {color:#3b4252}</style>
  </defs>
  <metadata
     id="metadata2">
    <rdf:RDF>
      <cc:Work
         rdf:about="">
        <dc:format>image/svg+xml</dc:format>
        <dc:type
           rdf:resource="http://purl.org/dc/dcmitype/StillImage" />
      </cc:Work>
    </rdf:RDF>
  </metadata>
  <path
     id="path5"
     style="fill:currentColor"
     d="m 8.4678785,1.455132 c -3.872202,0 -7.011897,3.1389879 -7.011897,7.0111908 0,1.5070456 0.475389,2.9027772 1.284585,4.0458412 l 0.687136,-0.68643 c 0.14486,-0.144878 0.265315,-0.266239 0.365108,-0.36652 l -0.374288,-0.682193 0.12853,-0.437846 -0.051549,-0.117229 0.155365,-0.233754 0.206211,-0.5557822 v -0.04661 L 3.7024155,9.3158861 3.4954975,9.3448411 3.1346285,9.0821331 2.9015805,8.7897648 2.3599235,8.6435805 1.8175575,8.3222581 c 0,0 -0.228343,-0.3584573 -0.241522,-0.4201915 0.332826,-2.6626303 1.76552,-4.0725566 2.474539,-4.7259153 0.05551,-0.013711 0.271888,-0.056496 0.271888,-0.056496 l 0.12853,-0.3213227 0.206916,0.02966 0.15466,0.087569 -0.02613,0.3213227 -0.283893,0.2627072 -0.645471,0.3806436 0.07768,0.2627081 0.490812,0.2047989 0.07698,0.3502771 0.180788,-0.3799375 0.283894,-0.1172299 -0.02542,-0.1751385 0.283895,-0.4964612 0.361576,0.2047992 -0.05155,0.2330472 0.310024,-0.1165237 0.12853,0.2634142 -0.05155,0.1751385 0.180788,0.058615 0.155365,0.1461842 -0.05226,0.1751385 -0.438552,0.1461843 h -0.310039 l -0.438553,0.2047988 h 0.697024 l -0.233047,0.3502771 -0.463977,0.08757 -0.206916,0.2923681 -0.361578,0.1461843 -0.180788,0.4385526 -0.490105,0.4088918 -0.05226,0.5847369 -0.283894,-0.3509832 -0.386999,-0.08757 -0.05155,0.1758446 h -0.310025 l -0.387,0.2916623 -0.05226,0.3509831 0.02613,0.3213228 0.258471,0.1454781 0.180788,-0.086863 0.180081,-0.2337534 h 0.181495 c -0.02603,0.204632 -0.05182,0.4083173 -0.07768,0.6129848 l 0.309317,-0.028954 v 0.3220289 l 0.103808,0.2916623 c 0.12525,0.077007 0.297892,0.082986 0.438552,0.1235856 v -0.064972 l 0.465389,-0.4088919 0.341802,0.249996 c 0.01189,-0.017316 0.02532,-0.033355 0.04026,-0.048728 -9.76e-4,0.0022 -0.0012,0.00411 -0.0014,0.00495 h 7.23e-4 v -7.232e-4 h 7.24e-4 v -7.231e-4 c 5.06e-4,-6.87e-4 0.0015,-0.00191 0.0022,-0.00282 7.58e-4,-0.00101 0.0012,-0.00163 0.0022,-0.00282 9.75e-4,-0.00134 0.0025,-0.0034 0.0036,-0.00495 7.23e-4,-0.00101 0.0013,-0.00174 0.0022,-0.00282 0.02501,-0.023853 0.0541,-0.044609 0.08686,-0.06144 -0.03978,0.018852 -0.06435,0.035872 -0.07839,0.049435 0.001,-0.00152 0.0018,-0.0034 0.0029,-0.00495 0.01373,-0.020628 0.04683,-0.071887 0.07274,-0.1052252 0.0015,-0.00195 0.0042,-0.00574 0.0078,-0.010591 0.0033,-0.00436 0.0072,-0.00912 0.01134,-0.014832 0.0037,-0.00514 0.0072,-0.011152 0.01134,-0.016947 0.0036,-0.00522 0.0075,-0.010755 0.01134,-0.016242 0.0034,-0.00493 0.0066,-0.00984 0.0098,-0.014832 0.003,-0.0045 0.0063,-0.00901 0.0092,-0.01342 0.0026,-0.00396 0.0053,-0.00749 0.0078,-0.011302 9.76e-4,-0.00148 0.0019,-0.00351 0.0029,-0.00495 -0.0056,0.012163 -0.01554,0.046 -0.01554,0.1249974 0,-0.091951 0.03682,-0.1880555 0.104518,-0.2598831 0.0108,-0.017699 0.02567,-0.03875 0.04379,-0.060027 l 7.23e-4,-7.23e-4 v -7.233e-4 l 7.23e-4,-7.23e-4 7.22e-4,-7.232e-4 V 8.469729 l 7.25e-4,-7.232e-4 v -7.051e-4 l 7.23e-4,-7.233e-4 7.23e-4,-7.232e-4 c 9.75e-4,-0.00108 0.0018,-0.00242 0.0029,-0.00354 0.0011,-0.00159 0.0023,-0.00388 0.0036,-0.00566 0.0014,-0.00195 0.0027,-0.00351 0.0042,-0.00566 0.0016,-0.00235 0.0033,-0.00525 0.0049,-0.00776 0.0019,-0.00282 0.0037,-0.00553 0.0056,-0.00847 0.0022,-0.00325 0.0048,-0.00652 0.0071,-0.00988 0.0092,-0.01383 0.02759,-0.042539 0.04802,-0.071326 0.01816,-0.040183 0.04344,-0.079254 0.07627,-0.1129931 -0.0063,0.00914 -0.0083,0.01494 -0.0092,0.016947 4.33e-4,-6.147e-4 7.95e-4,-0.00123 0.0014,-0.00213 6.87e-4,-0.00101 0.0012,-0.00224 0.0022,-0.00354 9.76e-4,-0.00145 0.0023,-0.00321 0.0036,-0.00495 0.0013,-0.00191 0.0029,-0.00418 0.0042,-0.00635 0.0012,-0.0018 0.0023,-0.00368 0.0036,-0.00566 0.04586,-0.045187 0.105735,-0.080037 0.180788,-0.093925 -0.0955,0.014283 -0.148448,0.053522 -0.174432,0.083332 0.0019,-0.00312 0.027,-0.054708 0.07556,-0.1108734 0.01298,-0.025856 0.03519,-0.060329 0.06568,-0.095338 h 7.23e-4 c 3.97e-4,-5.424e-4 9.03e-4,-0.00138 0.0014,-0.00213 5.78e-4,-8.317e-4 0.0014,-0.00178 0.0022,-0.00282 7.95e-4,-0.00116 0.0012,-0.00217 0.0022,-0.00354 0.001,-0.00152 0.0023,-0.00321 0.0036,-0.00495 l 7.23e-4,-7.232e-4 c 0.0071,-0.00748 0.01458,-0.015381 0.0226,-0.022598 -0.0079,0.00641 -0.0144,0.011739 -0.01906,0.016242 0.0016,-0.00268 0.0038,-0.00556 0.0056,-0.00847 0.0021,-0.00321 0.0036,-0.00646 0.0056,-0.00988 0.0023,-0.00385 0.02567,-0.051405 0.07063,-0.1045186 0.01539,-0.027361 0.03228,-0.049444 0.04591,-0.065677 -0.0037,0.00437 0.263488,-0.385782 0.26765,-0.391943 0.05328,-0.078859 0.105366,-0.1570507 0.14901,-0.2224544 0.0066,-0.00981 0.01298,-0.019063 0.01906,-0.028251 0.0055,-0.00827 0.01121,-0.016317 0.01623,-0.024013 0.0046,-0.00693 0.0085,-0.013365 0.01271,-0.019775 0.0038,-0.00577 0.0078,-0.011643 0.01134,-0.01695 0.0031,-0.00477 0.0063,-0.00905 0.0092,-0.01342 -0.007,0.016455 -0.01623,0.053698 -0.01623,0.1299418 0,-0.099365 0.03985,-0.1950711 0.108755,-0.2655325 -7.95e-4,0.00148 -10e-4,0.00261 -0.0014,0.00354 h 7.25e-4 l 7.23e-4,-7.232e-4 7.23e-4,-7.232e-4 7.23e-4,-7.231e-4 7.22e-4,-7.232e-4 v -7.294e-4 c 1.63e-4,-3.034e-4 0.0012,-0.0018 0.0014,-0.00213 9.76e-4,-0.00134 0.0025,-0.00268 0.0036,-0.00424 V 6.950438 h 7.23e-4 v -7.232e-4 c 0.01244,-0.01204 0.0261,-0.023582 0.04025,-0.033898 0.02476,-0.017991 0.05251,-0.033464 0.08191,-0.045197 -0.03507,0.01399 -0.0615,0.027961 -0.08051,0.040254 -0.0141,0.00914 -0.02424,0.017435 -0.03177,0.024716 0.001,-0.00152 0.0018,-0.00271 0.0029,-0.00424 0.0093,-0.013859 0.02822,-0.042465 0.04873,-0.071326 0.0196,-0.04352 0.04739,-0.086309 0.08474,-0.1221726 v -7.254e-4 h 7.23e-4 v -7.232e-4 c 0.0019,-0.00286 0.0037,-0.00616 0.0056,-0.00918 0.01257,-0.019637 0.04605,-0.069543 0.07768,-0.11158 0.01819,-0.041277 0.04358,-0.083448 0.0791,-0.1193491 v -7.233e-4 l 7.23e-4,-7.23e-4 c 0.0019,-0.00301 0.0044,-0.00599 0.0064,-0.00918 0.0023,-0.00379 0.0243,-0.049667 0.0678,-0.1016939 0.01621,-0.031485 0.03761,-0.062561 0.06426,-0.090395 -0.0077,0.010646 -0.01025,0.017073 -0.01134,0.019066 4.35e-4,-6.147e-4 7.96e-4,-0.00123 0.0014,-0.00213 6.87e-4,-0.00101 0.0012,-0.00224 0.0022,-0.00354 l 7.23e-4,-7.231e-4 c 8.68e-4,-9.763e-4 0.0019,-0.00224 0.0029,-0.00354 0.0013,-0.00191 0.0029,-0.00418 0.0042,-0.00635 0.0015,-0.00242 0.0026,-0.00511 0.0042,-0.00776 l 7.23e-4,-7.233e-4 c 0.0123,-0.0123 0.02554,-0.023297 0.04026,-0.033898 7.23e-4,-0.00239 0.0013,-0.00473 0.0022,-0.00707 -0.01699,0.012108 -0.02964,0.024486 -0.03884,0.035312 5.06e-4,-8.317e-4 9.03e-4,-0.002 0.0014,-0.00282 0.0022,-0.00354 0.02415,-0.04752 0.06568,-0.098163 0.02489,-0.047599 0.05292,-0.081684 0.0678,-0.098163 -0.01885,0.020874 0.144944,-0.2130139 0.156071,-0.2295158 0.08998,-0.1334458 0.209576,-0.3088665 0.263414,-0.3869998 0.0049,-0.00705 0.0094,-0.013653 0.01412,-0.02048 0.0042,-0.00614 0.0081,-0.012505 0.01203,-0.018361 0.0036,-0.00526 0.0066,-0.010578 0.0098,-0.015537 0.003,-0.00446 0.0064,-0.00857 0.0092,-0.01271 0.001,-0.00156 0.0018,-0.00271 0.0029,-0.00424 -0.0082,0.022299 -0.01624,0.060594 -0.01624,0.1264104 0,-0.1013262 0.06709,-0.3516958 0.341097,-0.3728756 0.01189,-9.038e-4 0.02361,-0.00156 0.0346,-0.00141 0.0769,9.401e-4 0.132179,0.024862 0.158896,0.037429 0.05726,0.026933 0.145806,0.099905 0.242227,0.1885566 L 9.0641035,4.1706775 C 9.5833865,3.6514456 10.15777,3.0818659 10.26557,2.9805393 c 0.0012,-0.00111 0.103152,-0.1136987 0.264827,-0.1136987 0.13263,0 0.220836,0.073728 0.225986,0.077682 0.03695,0.028388 0.102674,0.092194 0.163133,0.15254 l 0.275419,-0.1814944 0.490811,-0.1172298 0.335447,0.1172298 0.620048,0.1165236 -0.155365,0.1751385 h -0.335915 l 0.335448,0.3509919 0.258471,-0.2923683 0.07839,-0.1285291 c 0,0 0.990001,0.8874324 1.555767,1.8580221 0.565766,0.9709096 0.831201,2.1157187 0.831201,2.3481275 l -0.1935,0.2189232 C 14.896456,7.4225746 14.763356,7.305238 14.628094,7.1824444 L 14.331489,7.2262294 14.0596,6.9190305 V 7.298968 l 0.233047,0.175845 0.154659,0.1751386 0.206212,-0.2337537 c 0.05204,0.097467 0.103685,0.1949009 0.155365,0.2923684 v 0.2916622 l -0.233047,0.2634137 -0.425841,0.2923685 -0.311437,0.3107296 c 0.150575,-0.010824 0.300179,-0.028633 0.454089,-0.048021 v 0.2047988 l -0.310023,0.7598749 -0.283894,0.321323 -0.23234,0.497167 v 0.817784 l 0.07768,0.322029 -0.129241,0.145478 -0.2846,0.175845 -0.296606,0.248584 0.245053,0.277538 -0.335446,0.292368 0.06426,0.189263 -0.503522,0.570613 h -0.335433 l -0.283894,0.175139 H 11.503146 V 13.58277 l -0.07698,-0.468213 c -0.09991,-0.293469 -0.203503,-0.584321 -0.309317,-0.875693 0,-0.215075 0.01257,-0.428313 0.02542,-0.643352 l 0.129235,-0.292369 -0.180788,-0.350983 0.01339,-0.482337 -0.212568,-0.24011 c -2.97e-4,1.91e-4 -0.0011,5.07e-4 -0.0014,7.24e-4 -0.0014,8.67e-4 -0.0026,0.0018 -0.0042,0.0028 h -7.23e-4 v 7.23e-4 h -7.23e-4 c -0.02221,0.0091 -0.04491,0.01568 -0.06709,0.02048 0.0123,-0.01538 0.02367,-0.03405 0.0346,-0.05508 -0.01175,0.02148 -0.02495,0.04024 -0.03743,0.05579 -0.01189,0.0025 -0.0237,0.0043 -0.03531,0.0057 0.01052,-7.59e-4 0.02371,-9.04e-4 0.03249,-0.0021 -0.01244,0.01512 -0.02398,0.02715 -0.03249,0.03531 0.01189,-0.0102 0.02403,-0.02167 0.03531,-0.03531 0.02341,-0.0034 0.04055,-0.0085 0.05297,-0.01342 -8.67e-4,6.14e-4 -0.0019,0.0015 -0.0029,0.0021 -0.0031,0.0022 -0.0067,0.0041 -0.0098,0.0063 -0.0053,0.0038 -0.05205,0.04278 -0.119347,0.07627 -0.06356,0.04765 -0.169904,0.117068 -0.214685,0.146184 -0.04448,0.02892 -0.0863,0.05599 -0.120057,0.07839 -0.0051,0.0034 -0.01011,0.0068 -0.01483,0.0099 -0.0042,0.0028 -0.0082,0.0052 -0.01203,0.0078 -0.0034,0.0023 -0.0067,0.0049 -0.0098,0.0071 -0.0029,0.0019 -0.0052,0.0039 -0.0078,0.0057 -0.0023,0.0016 -0.0049,0.0028 -0.0071,0.0042 -0.0019,0.0013 -0.0033,0.0024 -0.0049,0.0035 -0.0015,9.76e-4 -0.003,0.002 -0.0042,0.0028 0.0023,-0.0017 0.02299,-0.01711 0.05297,-0.05438 -0.05752,0.0715 -0.220111,0.168319 -0.227398,0.17302 -0.0067,0.0043 -0.01339,0.0085 -0.01977,0.01271 -0.0057,0.0038 -0.01148,0.007 -0.01695,0.01059 -0.0049,0.0032 -0.0096,0.0068 -0.01413,0.0099 -9.39e-4,6.51e-4 -0.0019,0.0015 -0.0029,0.0021 0.01121,-0.01483 0.02456,-0.04159 0.03955,-0.07556 -0.01872,0.03653 -0.04362,0.06972 -0.07275,0.09816 -0.0018,0.0012 -0.0034,0.0025 -0.0049,0.0035 v 7.23e-4 c -0.03546,0.03341 -0.07739,0.06028 -0.1228865,0.07839 h -7.23e-4 l -7.22e-4,7.23e-4 h -7.23e-4 l -7.23e-4,7.24e-4 c -0.01878,0.0073 -0.03805,0.01342 -0.0579,0.01765 0.01271,-0.0162 0.02513,-0.03696 0.03672,-0.06003 -0.01189,0.02171 -0.0261,0.04193 -0.04167,0.06073 -0.01093,0.0022 -0.02196,0.0045 -0.03319,0.0057 0.01162,-8.32e-4 0.02178,-0.0021 0.03108,-0.0035 -0.01542,0.01838 -0.03202,0.03558 -0.04873,0.05085 0.01775,-0.01294 0.03597,-0.02951 0.05367,-0.05155 0.02744,-0.0046 0.0444,-0.01089 0.05367,-0.01554 -8.68e-4,5.42e-4 -0.0012,8.31e-4 -0.0022,0.0014 -0.0023,0.0015 -0.0046,0.0034 -0.0071,0.005 -0.0026,0.0018 -0.0052,0.0032 -0.0078,0.0049 -0.0027,0.0019 -0.006,0.0039 -0.0085,0.0057 -0.0027,0.0019 -0.0045,0.0035 -0.0064,0.0049 -0.0013,9.76e-4 -0.0029,0.0023 -0.0036,0.0028 h -7.23e-4 v 7.23e-4 c -0.01749,0.01536 -0.05267,0.0433 -0.101689,0.0678 -0.05237,0.0422 -0.09889,0.06721 -0.103112,0.06991 -0.0042,0.0028 -0.0086,0.0051 -0.01271,0.0078 -0.0037,0.0024 -0.0071,0.0047 -0.01066,0.0071 -0.0031,0.0021 -0.0063,0.0044 -0.0092,0.0063 -0.0026,0.0018 -0.0048,0.0033 -0.0071,0.005 0.01244,-0.01081 0.03,-0.03039 0.04873,-0.06144 h -7.23e-4 -7.23e-4 c -0.01507,0.02358 -0.03257,0.04539 -0.05226,0.06497 l -7.23e-4,7.23e-4 h -7.24e-4 v 7.23e-4 c -8.68e-4,6.87e-4 -0.0015,0.001 -0.0022,0.0014 -0.03679,0.03577 -0.07997,0.06455 -0.127819,0.08333 v -7.23e-4 h -7.23e-4 -7.23e-4 l -7.23e-4,7.23e-4 c -0.01593,0.0062 -0.03202,0.01156 -0.04873,0.01554 -10e-4,0.0014 -0.0025,0.0029 -0.0036,0.0042 0.01705,-0.003 0.02908,-0.0065 0.03743,-0.0099 -6.88e-4,4.34e-4 -0.0015,9.76e-4 -0.0022,0.0014 -0.0025,0.0016 -0.0048,0.0027 -0.0071,0.0042 -0.0026,0.0017 -0.0051,0.0035 -0.0071,0.0049 -0.0015,0.0011 -0.0025,0.0021 -0.0036,0.0028 -0.02073,0.01791 -0.04463,0.03462 -0.06851,0.04873 -0.02788,0.02321 -0.05826,0.0415 -0.08898,0.05579 -0.08681,0.07054 -0.177605,0.119193 -0.182199,0.122173 -0.0098,0.0063 -0.01957,0.01291 -0.02896,0.01907 -0.0085,0.0055 -0.01671,0.01095 -0.02472,0.01624 -0.0072,0.0048 -0.01443,0.0096 -0.02118,0.01412 -0.006,0.0041 -0.01134,0.0075 -0.01695,0.0113 -0.0051,0.0034 -0.01011,0.0067 -0.01483,0.0099 -0.0042,0.0029 -0.0082,0.0059 -0.01203,0.0085 -0.0034,0.0023 -0.0068,0.0043 -0.0098,0.0063 0.01162,-0.0097 0.03434,-0.03512 0.05932,-0.08616 -0.04178,0.07934 -0.108168,0.136606 -0.183615,0.169489 -0.06311,0.04447 -0.147214,0.0981 -0.164544,0.109461 -0.01121,0.0074 -0.172222,0.115638 -0.160308,0.105931 -0.0066,0.0053 -0.01745,0.01478 -0.03319,0.02542 -0.02931,0.0278 -0.06424,0.05066 -0.102401,0.0678 v 7.23e-4 h -7.23e-4 v -7.23e-4 h 7.23e-4 v -7.11e-4 h -7.23e-4 c -0.0015,9.4e-4 -0.0031,0.0017 -0.0049,0.0028 l -7.23e-4,7.24e-4 -7.23e-4,7.23e-4 c -2.78e-4,2.49e-4 -0.0018,0.0012 -0.0022,0.0014 -0.0214,0.0088 -0.0441,0.01575 -0.0678,0.02048 0.004,-0.007 0.0078,-0.01469 0.01203,-0.0233 0.01148,-0.0019 0.02311,-0.0048 0.03389,-0.0078 -0.0108,0.0028 -0.02226,0.005 -0.03389,0.0071 0.0048,-0.0099 0.0097,-0.02109 0.01483,-0.03319 -0.0048,0.01143 -0.0098,0.0226 -0.01554,0.03319 -0.0098,0.0017 -0.01999,0.0033 -0.03037,0.0042 0.01039,-7.96e-4 0.0205,-0.0019 0.03037,-0.0035 -0.0044,0.0082 -0.0093,0.01633 -0.01412,0.02401 -0.01066,0.0021 -0.02139,0.0031 -0.03249,0.0042 0.01,-6.51e-4 0.02209,-3.98e-4 0.03037,-0.0014 -0.01285,0.01983 -0.02676,0.03795 -0.04238,0.05438 -0.0014,0.001 -0.003,0.0019 -0.0042,0.0028 -0.0016,0.0013 -0.0036,0.0025 -0.0049,0.0035 l 7.23e-4,7.23e-4 c -0.03783,0.03755 -0.0823,0.06509 -0.129938,0.08333 v -7.2e-4 c -0.0016,0.001 -0.0031,0.0024 -0.0049,0.0035 h -7.23e-4 l -7.23e-4,7.23e-4 c -0.01565,0.0057 -0.03119,0.0098 -0.04731,0.01342 -5.8e-4,7.6e-4 -0.0015,0.0021 -0.0022,0.0028 0.0214,-0.0041 0.03567,-0.0093 0.04448,-0.01342 -0.0023,0.0015 -0.0046,0.0034 -0.0071,0.005 -0.0026,0.0018 -0.0052,0.0032 -0.0078,0.0049 -0.0027,0.0019 -0.0053,0.0039 -0.0078,0.0057 -0.0027,0.0019 -0.0052,0.0035 -0.0071,0.005 l -7.22e-4,7.24e-4 -7.23e-4,7.23e-4 -7.23e-4,7.23e-4 -7.23e-4,7.23e-4 c -0.01353,0.012 -0.03665,0.03008 -0.06709,0.04873 -0.04104,0.03542 -0.0902,0.06233 -0.145478,0.07698 -0.0027,0.0037 -0.0056,0.0078 -0.0085,0.0113 0.0057,-3e-4 0.01162,-0.0011 0.01625,-0.0014 -0.0022,0.0016 -0.0048,0.0034 -0.0071,0.0049 -0.0044,0.0031 -0.0085,0.0062 -0.01271,0.0092 -0.0046,0.0033 -0.0093,0.0062 -0.01339,0.0092 -0.0022,0.0016 -0.0044,0.0028 -0.0064,0.0042 -0.04421,0.04577 -0.09841,0.07855 -0.155365,0.09746 h -7.23e-4 c -0.01025,0.0034 -0.02065,0.0067 -0.03108,0.0092 -0.0016,0.0021 -0.0033,0.0043 -0.0049,0.0063 0.009,-0.0012 0.01701,-0.0028 0.0233,-0.0042 -0.01867,0.0153 -0.03925,0.02903 -0.05721,0.04025 -0.03235,0.02999 -0.06875,0.05319 -0.105229,0.06991 -0.08692,0.07069 -0.178307,0.119188 -0.182908,0.122173 -0.0098,0.0063 -0.01886,0.01291 -0.02825,0.01907 -0.0085,0.0055 -0.01671,0.01095 -0.02472,0.01624 -0.0072,0.0048 -0.01443,0.0096 -0.02118,0.01412 -0.006,0.0041 -0.01203,0.0082 -0.01766,0.012 -0.0051,0.0034 -0.01011,0.0067 -0.01483,0.0099 -0.0042,0.0029 -0.0082,0.0051 -0.01203,0.0078 -0.0034,0.0023 -0.0062,0.005 -0.0092,0.0071 0.01162,-0.0097 0.0338,-0.03494 0.05861,-0.08545 -0.04182,0.07862 -0.107895,0.135389 -0.182907,0.168076 -0.06311,0.04447 -0.147214,0.0981 -0.164545,0.109462 -0.01121,0.0074 -0.172223,0.116344 -0.160308,0.106637 -0.0096,0.0078 -0.11138,0.09957 -0.257764,0.09957 0.06737,0 0.107333,-0.0083 0.130648,-0.01695 -9.03e-4,5.79e-4 -0.0019,0.0015 -0.0029,0.0021 -0.0042,0.0028 -0.0089,0.0054 -0.01339,0.0085 -0.0051,0.0034 -0.01025,0.007 -0.01554,0.01059 -0.0059,0.004 -0.01216,0.0085 -0.01835,0.01271 -0.007,0.0047 -0.01398,0.0092 -0.02118,0.01412 -0.01931,0.01324 -0.142566,0.09913 -0.177964,0.119348 -0.04739,0.02707 -0.09382,0.04151 -0.137709,0.04661 l -0.201269,0.50211 -0.336153,0.11723 -0.07768,0.204799 -0.206211,0.204093 0.05155,0.146184 c 0,0 -0.04349,0.03388 -0.09464,0.07274 h -7.23e-4 c -0.05953,0.0289 -0.782472,-0.369282 -0.869337,-0.465389 -0.05323,0.05276 -0.101785,0.100407 -0.143359,0.141241 1.146894,0.817674 2.550543,1.298709 4.066321,1.298709 3.8718465,0 7.0104835,-3.13881 7.0104835,-7.01119 0,-3.8722029 -3.138636,-7.0111908 -7.0104835,-7.0111908 z m -2.387675,5.4610737 c -0.0045,0.014162 -0.0085,0.031747 -0.01134,0.052259 0.0025,-0.016838 0.0061,-0.034458 0.01134,-0.052259 z m -0.01134,0.052259 c -0.0021,0.014535 -0.0036,0.030463 -0.0036,0.048021 0,-0.015124 0.0011,-0.031182 0.0036,-0.048021 z m 2.358721,-5.1637618 0.671599,0.2634139 -0.31073,0.7888296 c -0.379145,0.1753637 -0.736686,0.3152268 -1.135577,0.438553 l -0.258471,0.4088918 -0.206211,0.11723 -0.310025,-0.6143973 0.232342,-0.2337534 V 2.739717 l -0.593918,-0.408892 0.180788,-0.1751385 0.955495,-0.263414 z m -1.833305,0.058615 0.103111,0.1751387 c -0.187689,0.060704 -0.365474,0.1187697 -0.542365,0.2047989 l -0.257764,0.058615 -0.12924,0.1165235 -0.335447,-0.058615 0.06849,-0.0911 0.112281,-0.054378 0.230928,-0.1087552 0.259177,-0.037429 0.157483,-0.1567771 z m -1.523281,0.7012603 0.129241,0.263414 0.103111,-0.204799 0.232341,-0.058615 0.02542,0.1461841 0.490811,0.058615 0.129241,0.2627078 0.283894,0.1172299 -0.257764,0.2337534 C 6.0350875,3.2663498 5.8624075,3.148983 5.6903475,3.0320859 l -0.257764,-0.087569 c -0.113415,0.0758 -0.22409,0.1550051 -0.335446,0.2337534 L 4.9678965,3.4706384 H 4.7094245 L 4.8386655,3.1493157 5.0448765,2.973471 5.0194565,2.6818088 Z m 4.05361,0.6136911 0.154658,0.1751385 -0.309318,0.2047991 -0.181495,-0.1172298 0.02613,-0.1751386 0.103111,0.02966 z m 1.4046385,0.05014 c -0.007,0 -0.5518355,0.5391526 -1.2111395,1.1984278 l -1.198428,1.1991338 0.34604,0.3467462 c 0.190315,0.1909875 0.350043,0.347452 0.35522,0.347452 0.0052,0 0.263474,-0.2553183 0.574144,-0.5670813 0.310669,-0.3117631 0.573301,-0.5663754 0.583324,-0.5663754 0.027871,0 1.7563295,1.7312306 1.7563295,1.7591536 0,0.014254 -0.227448,0.2493534 -0.567082,0.5861492 -0.311763,0.3091581 -0.567081,0.565642 -0.567081,0.5699063 0,0.00426 0.155089,0.1635934 0.344628,0.3545141 0.189537,0.1909205 0.347455,0.348095 0.350982,0.3488648 0.01285,0.00279 2.39615,-2.3889597 2.39615,-2.4046236 0,-0.00887 -0.103645,-0.1214633 -0.230223,-0.2499964 L 13.232636,5.9176334 12.811739,6.3378246 c -0.231376,0.2312668 -0.425538,0.4201914 -0.431491,0.4201914 -0.01175,0 -0.2633,-0.2646749 -0.270476,-0.2846002 -0.0023,-0.00667 0.180473,-0.1970747 0.406067,-0.4237223 0.225594,-0.2266477 0.412289,-0.4176973 0.414541,-0.4244284 v -7.232e-4 -7.231e-4 c -9.4e-5,-3.15e-4 -5.41e-4,-0.00105 -7.23e-4,-0.00141 -0.01435,-0.026695 -0.155385,-0.1673693 -0.177963,-0.1758446 -0.0059,-0.00217 -0.196301,0.1817398 -0.423015,0.4088918 -0.226716,0.2271519 -0.420592,0.413129 -0.430784,0.413129 -0.02862,-0.00757 -0.258959,-0.2463726 -0.26624,-0.2761257 v -7.256e-4 -7.232e-4 c 0,-0.00933 0.186361,-0.2032743 0.414542,-0.4314904 l 0.415247,-0.4152479 -0.09393,-0.088982 c -0.04664,-0.044478 -0.09005,-0.080102 -0.102401,-0.084744 L 12.26439,4.969823 h -7.24e-4 -7.23e-4 -7.23e-4 c -0.0063,0.00221 -0.196639,0.1881639 -0.423016,0.4131292 -0.226376,0.2249655 -0.416121,0.4088922 -0.42231,0.4088922 -0.0061,0 -0.07479,-0.063966 -0.152539,-0.141947 L 11.122499,5.5087417 11.538453,5.0927875 c 0.228427,-0.2285082 0.415249,-0.4239178 0.415249,-0.4343153 -0.0046,-0.024808 -0.149175,-0.1753309 -0.173021,-0.180082 h -7.23e-4 c -0.0074,0 -0.196333,0.1826864 -0.419486,0.4060672 -0.250786,0.2510435 -0.41359,0.404737 -0.426546,0.402536 l -7.23e-4,-7.232e-4 C 10.900814,5.2750366 10.65975,5.0541365 10.652134,5.0285061 V 5.027783 5.0270598 c 0,-0.00806 0.185555,-0.1998519 0.412422,-0.4265469 0.226869,-0.2266953 0.410795,-0.4189367 0.408893,-0.4272534 -6.5e-5,-2.787e-4 1.38e-4,-0.00105 0,-0.00141 -0.01285,-0.025596 -0.158216,-0.1783671 -0.174432,-0.1829067 h -7.23e-4 c -0.0048,1.447e-4 -0.192935,0.185125 -0.41878,0.4117166 -0.225846,0.2265912 -0.417157,0.4124873 -0.425135,0.4124226 h -7.23e-4 c -0.0273,-0.00767 -0.270559,-0.2453326 -0.278244,-0.2718882 v -7.231e-4 c 0,-0.00935 0.185551,-0.2031253 0.412423,-0.4300781 L 11.000327,3.698035 10.771516,3.4628692 C 10.645459,3.3337344 10.536201,3.2284096 10.529287,3.2284096 Z m -4.8127785,0.00847 0.257764,0.1165236 V 3.5582077 H 5.7680185 L 5.5095475,3.3830692 Z m 5.8643155,0 -0.275419,0.2556458 0.189969,0.1942061 c 0.0335,0.02035 0.06224,0.043343 0.08545,0.064264 V 3.5292535 l 0.129241,-0.2923683 z m 0.361578,0.4971678 c -0.109903,0.013664 -0.219818,0.024323 -0.327679,0.05014 0.01863,0.019464 0.02955,0.033008 0.03108,0.034603 0.0205,0.021434 0.0459,0.04917 0.0678,0.074152 z m -5.8127645,1.0522435 0.232341,0.1751386 -0.154659,0.2337532 z m 1.321307,0.7231526 -7.23e-4,7.232e-4 h -7.23e-4 -7.23e-4 v 7.231e-4 h -6.56e-4 l -7.23e-4,7.232e-4 -7.23e-4,7.231e-4 c -0.0012,0.00217 -0.0022,0.00603 -0.0022,0.00988 0,0.006 -0.04334,0.073924 -0.09605,0.1504215 -0.05271,0.076496 -0.169817,0.2488437 -0.260589,0.3834683 -0.09077,0.1346252 -0.17545,0.2560345 -0.18785,0.26977 -0.01244,0.013736 -0.0226,0.032372 -0.0226,0.041665 0,0.00523 -0.0014,0.010304 -0.0036,0.01342 l -7.23e-4,7.233e-4 c -2.74e-4,2.618e-4 -0.0011,0.00191 -0.0014,0.00213 -3.01e-4,1.663e-4 -0.0018,5.785e-4 -0.0022,7.232e-4 h -7.23e-4 -7.23e-4 -7.22e-4 v 7.231e-4 h -7.23e-4 c -0.0083,0.00618 -0.03455,0.041609 -0.06002,0.083332 -0.0246,0.040284 -0.04854,0.07408 -0.0579,0.081919 l -7.22e-4,7.232e-4 -7.23e-4,7.231e-4 h -7.25e-4 -7.23e-4 v 7.232e-4 h -7.23e-4 -7.23e-4 -7.22e-4 -7.23e-4 c -3.16e-4,1.891e-4 -0.0011,0.00116 -0.0014,0.00141 l -7.23e-4,7.231e-4 c -0.0027,0.00347 -0.0056,0.010304 -0.0056,0.016947 0,0.00664 -0.0015,0.012764 -0.0042,0.016242 l -7.23e-4,7.232e-4 c -3e-4,2.452e-4 -0.0018,0.00123 -0.0022,0.00141 l -7.23e-4,7.232e-4 h -7.23e-4 -7.23e-4 -7.23e-4 -7.24e-4 v 7.232e-4 h -7.23e-4 l -7.23e-4,7.231e-4 c -0.0094,0.00784 -0.03402,0.042342 -0.05861,0.082626 -0.02549,0.041723 -0.05093,0.076446 -0.05933,0.082625 l -7.23e-4,7.231e-4 h -7.23e-4 -7.23e-4 -7.24e-4 l -7.23e-4,7.232e-4 c -3.13e-4,1.139e-4 -0.0011,-1.663e-4 -0.0014,0 l -7.23e-4,7.231e-4 -7.22e-4,7.232e-4 c -2.57e-4,3.052e-4 -0.0012,0.00178 -0.0014,0.00213 -0.0018,0.00307 -0.0036,0.00806 -0.0036,0.01271 0,0.00929 -0.01011,0.028637 -0.0226,0.042372 -0.01244,0.013736 -0.04589,0.061002 -0.07415,0.1052239 -0.02561,0.040077 -0.05091,0.073115 -0.05932,0.079094 l -7.23e-4,7.232e-4 -7.25e-4,7.231e-4 h -7.23e-4 -7.22e-4 c -3.15e-4,9.37e-5 -0.0018,5.786e-4 -0.0022,7.232e-4 h -7.23e-4 l -7.23e-4,7.232e-4 -7.23e-4,7.231e-4 c -2.39e-4,2.773e-4 -0.0012,0.0018 -0.0014,0.00213 l -7.23e-4,7.232e-4 c -0.001,0.00217 -0.0022,0.0057 -0.0022,0.00847 0,0.00738 -0.0063,0.020397 -0.01339,0.028954 -0.0071,0.00856 -0.03408,0.047186 -0.06002,0.086157 -0.02433,0.036535 -0.04866,0.069054 -0.0565,0.074858 h -7.25e-4 l -7.23e-4,7.232e-4 c -0.0055,0.00279 -0.01066,0.01014 -0.01066,0.016242 0,0.010236 -0.518199,0.7769476 -0.553664,0.8191964 -0.0072,0.00855 -0.01339,0.021568 -0.01339,0.028954 0,0.00184 -1.94e-4,0.00405 -7.23e-4,0.00566 -1.56e-4,3.977e-4 -5.43e-4,0.00178 -7.23e-4,0.00213 -2.07e-4,3.32e-4 -0.0012,0.0018 -0.0014,0.00213 l -7.23e-4,7.232e-4 -7.23e-4,7.23e-4 -7.23e-4,7.233e-4 c -3e-4,1.706e-4 -0.0018,5.784e-4 -0.0022,7.23e-4 l -7.23e-4,7.232e-4 c -3.38e-4,4.6e-5 -0.0018,0 -0.0022,0 h -7.24e-4 v 7.233e-4 h -7.23e-4 l -7.23e-4,7.23e-4 c -0.0094,0.00784 -0.03471,0.042342 -0.05933,0.082626 -0.02461,0.040284 -0.04802,0.074069 -0.0565,0.08192 l -7.23e-4,7.232e-4 -7.22e-4,7.231e-4 h -7.23e-4 -7.23e-4 v 7.232e-4 h -7.25e-4 c -0.0052,0.00364 -0.01561,0.019536 -0.0233,0.038135 -0.0077,0.0186 -0.01671,0.034501 -0.02189,0.038135 h -7.23e-4 v 7.232e-4 h -7.23e-4 -7.22e-4 -7.23e-4 v 7.232e-4 h -7.25e-4 c -0.0085,0.00786 -0.0333,0.043048 -0.0579,0.083332 -0.0246,0.040285 -0.04854,0.07408 -0.0579,0.081919 l -7.24e-4,7.231e-4 h -7.23e-4 l -7.23e-4,7.232e-4 h -7.23e-4 c -3.45e-4,0 -0.0011,-4.63e-5 -0.0014,0 h -7.23e-4 c -3.15e-4,1.312e-4 -0.0018,0.00123 -0.0022,0.00141 h -7.23e-4 l -7.23e-4,7.232e-4 c -2.48e-4,2.74e-4 -0.0012,0.0018 -0.0014,0.00213 l -7.23e-4,7.231e-4 c -0.0011,0.00213 -0.0022,0.00571 -0.0022,0.00847 0,0.00738 -0.0063,0.020397 -0.01339,0.028955 -0.0071,0.00856 -0.03411,0.047893 -0.06002,0.086863 -0.02593,0.03897 -0.0502,0.073434 -0.05438,0.076976 -0.0042,0.00354 -0.01609,0.022179 -0.02613,0.041665 -0.0087,0.017048 -0.01956,0.031287 -0.02613,0.034603 l -7.23e-4,7.231e-4 h -7.23e-4 -7.23e-4 -7.23e-4 c -3.6e-4,4.2e-5 -0.0018,6.147e-4 -0.0022,7.232e-4 -3.35e-4,1.2e-4 -0.0018,5.423e-4 -0.0022,7.231e-4 l -7.25e-4,7.232e-4 c -5.78e-4,4.339e-4 -0.0023,0.00156 -0.0029,0.00213 l -7.23e-4,7.231e-4 c -1.93e-4,3.262e-4 -5.43e-4,0.00178 -7.25e-4,0.00213 -1.35e-4,3.615e-4 -6.13e-4,0.00174 -7.23e-4,0.00213 -1.42e-4,7.953e-4 -7.23e-4,0.00268 -7.23e-4,0.00354 0,0.00989 -0.08954,0.1451425 -0.132056,0.1998556 -0.0055,0.00709 -0.03127,0.045068 -0.05721,0.084039 -0.02433,0.036535 -0.04866,0.068347 -0.0565,0.074151 l -7.24e-4,7.23e-4 h -7.23e-4 c -3.61e-4,1.878e-4 -0.0018,0.00119 -0.0022,0.00141 -0.0041,0.00312 -0.0081,0.00954 -0.0085,0.014832 v 7.231e-4 c 0,0.015071 -0.168261,0.2607129 -0.182907,0.2669449 -3.46e-4,1.476e-4 -0.0011,-1.828e-4 -0.0014,0 -0.004,0.00261 -0.0077,0.00865 -0.0085,0.01342 -3.6e-5,3.978e-4 -7.23e-4,0.00174 -7.23e-4,0.00213 0,0.00625 -0.08369,0.1336631 -0.186438,0.2831875 -0.102742,0.1495238 -0.187144,0.2772926 -0.187144,0.2838936 0,3.98e-4 3.4e-5,0.001 0,0.0014 -1.35e-4,7.96e-4 -4.34e-4,0.0028 -7.23e-4,0.0035 v 7.23e-4 c -1.82e-4,3.2e-4 -0.0012,0.0018 -0.0014,0.0021 l -7.23e-4,7.24e-4 -7.25e-4,7.23e-4 -7.23e-4,7.23e-4 -7.23e-4,7.23e-4 c -3e-4,1.52e-4 -0.0018,5.79e-4 -0.0022,7.23e-4 l -7.23e-4,7.23e-4 c -3.38e-4,4.2e-5 -0.0018,0 -0.0022,0 h -7.23e-4 l -7.23e-4,7.24e-4 h -7.24e-4 c -0.0094,0.0078 -0.03471,0.04234 -0.05933,0.08263 -0.02549,0.04172 -0.05022,0.07715 -0.05861,0.08333 h -7.23e-4 v 7.23e-4 h -7.23e-4 -7.22e-4 -7.23e-4 -7.23e-4 c -3.15e-4,1.14e-4 -0.0011,5.42e-4 -0.0014,7.23e-4 l -7.23e-4,7.23e-4 -7.24e-4,7.23e-4 c -2.57e-4,3.05e-4 -0.0012,0.0018 -0.0014,0.0021 -0.0018,0.0031 -0.0036,0.0081 -0.0036,0.01271 0,0.0093 -0.01052,0.02793 -0.0233,0.04167 -0.01271,0.01374 -0.05122,0.06832 -0.08545,0.121468 -0.03423,0.05314 -0.0668,0.09956 -0.07203,0.103105 -0.01353,0.0091 -0.09715,0.143194 -0.102401,0.163133 v 7.23e-4 h -7.23e-4 v 7.24e-4 c 0,0.006 0.120631,0.130022 0.267652,0.275419 0.147024,0.145397 0.274928,0.274146 0.2846,0.286012 0.01572,0.01928 -0.07281,0.112279 -0.834734,0.874281 l -0.852387,0.852388 0.570612,0.570612 c 0.315835,0.312772 0.578956,0.570057 0.586597,0.570057 0.0077,0 0.391393,-0.379811 0.853094,-0.843913 0.461703,-0.464102 0.845247,-0.843914 0.852389,-0.843914 0.0071,0 0.129733,0.116587 0.271888,0.258471 0.148632,0.14835 0.251195,0.241862 0.271182,0.248584 l 7.24e-4,7.23e-4 h 7.23e-4 7.23e-4 v -7.23e-4 h 7.23e-4 c 0.0085,-0.0048 0.07739,-0.05108 0.153246,-0.103106 0.07586,-0.05202 0.140997,-0.09463 0.144771,-0.09463 h 7.23e-4 c 0.0052,-0.0017 0.01804,-0.0095 0.02896,-0.01836 0.01244,-0.01017 0.09786,-0.06812 0.189968,-0.128529 0.09211,-0.06041 0.17435,-0.115514 0.182907,-0.122879 0.0086,-0.0074 0.02146,-0.01342 0.02825,-0.01342 0.0052,-4.34e-4 0.01175,-0.0038 0.01483,-0.0078 2.23e-4,-3.46e-4 5.07e-4,-0.0018 7.24e-4,-0.0021 l 7.23e-4,-7.23e-4 c 0.0023,-0.0059 0.08864,-0.06541 0.191381,-0.13206 0.102742,-0.06665 0.188313,-0.125927 0.190674,-0.131354 l 7.24e-4,-7.23e-4 c 0.0037,-0.0045 0.01312,-0.0092 0.02189,-0.0092 0.0051,0 0.01011,-8.68e-4 0.01339,-0.0028 7.6e-4,-5.42e-4 0.0023,-0.0022 0.0029,-0.0028 l 7.23e-4,-7.23e-4 c 1.79e-4,-3.34e-4 0.0013,-0.0018 0.0014,-0.0021 v -7.04e-4 -7.24e-4 -7.23e-4 -7.23e-4 l 7.23e-4,-7.23e-4 c 0.0033,-0.0066 0.01755,-0.01876 0.0346,-0.02754 0.01949,-0.01004 0.03883,-0.0211 0.04238,-0.02472 0.01533,-0.01566 0.10989,-0.07338 0.125701,-0.07698 h 7.23e-4 7.23e-4 c 0.0049,0 0.0108,-0.0027 0.01412,-0.0063 2.53e-4,-3.15e-4 0.0012,-0.0018 0.0014,-0.0021 l 7.23e-4,-7.23e-4 v -7.23e-4 l 7.24e-4,-7.23e-4 v -7.24e-4 c 0.01535,-0.01959 0.172047,-0.127204 0.190674,-0.130647 h 7.23e-4 c 8.33e-4,-8.8e-5 0.0027,-4.7e-4 0.0036,-7.23e-4 3.62e-4,-1.63e-4 0.0018,-5.06e-4 0.0022,-7.23e-4 3.27e-4,-2.32e-4 0.0018,-0.0012 0.0022,-0.0014 2.78e-4,-2.92e-4 0.0012,-0.0018 0.0014,-0.0021 l 7.23e-4,-7.23e-4 c 3.62e-4,-7.23e-4 0.0012,-0.0027 0.0014,-0.0035 1.64e-4,-8.32e-4 7.23e-4,-0.0026 7.23e-4,-0.0035 0,-0.0013 2.1e-4,-0.003 7.23e-4,-0.0042 2.14e-4,-3.98e-4 0.0012,-0.0017 0.0014,-0.0021 3.05e-4,-3.43e-4 0.0018,-0.0018 0.0022,-0.0021 0.003,-0.0023 0.0081,-0.0042 0.01271,-0.0042 0.0093,0 0.02793,-0.0102 0.04167,-0.0226 0.03407,-0.03076 0.125933,-0.08957 0.144772,-0.09322 l 7.23e-4,-7.23e-4 h 7.23e-4 c 0.0055,0 0.01162,-0.0029 0.01483,-0.0071 2.21e-4,-3.32e-4 0.0012,-0.0018 0.0014,-0.0021 v -7.23e-4 l 7.23e-4,-7.24e-4 c 0.01742,-0.02083 0.209773,-0.152574 0.229516,-0.156777 h 7.24e-4 c 3.98e-4,0 0.001,4.5e-5 0.0014,0 7.6e-4,-1.72e-4 0.0029,-3.61e-4 0.0036,-7.23e-4 l 7.25e-4,-7.23e-4 c 3.14e-4,-2.32e-4 0.0018,-0.0012 0.0022,-0.0014 l 7.23e-4,-7.23e-4 c 2.42e-4,-3.19e-4 0.0012,-0.0018 0.0014,-0.0021 3.6e-4,-7.23e-4 0.0012,-0.0027 0.0014,-0.0035 1.59e-4,-8.32e-4 7.25e-4,-0.0026 7.25e-4,-0.0035 0,-8.68e-4 -1.71e-4,-0.002 0,-0.0028 2.48e-4,-7.96e-4 10e-4,-0.0028 0.0014,-0.0035 2.3e-4,-3.43e-4 0.0012,-0.0018 0.0014,-0.0021 l 0.0012,-7.31e-4 c 3.16e-4,-2.63e-4 0.0018,-0.0012 0.0022,-0.0014 7.24e-4,-3.98e-4 0.0027,-0.0012 0.0036,-0.0014 8.32e-4,-1.72e-4 0.0026,-7.23e-4 0.0036,-7.23e-4 0.007,0 0.02284,-0.0082 0.03531,-0.01836 0.01244,-0.01017 0.09786,-0.06812 0.189969,-0.128529 0.09211,-0.06041 0.174348,-0.116219 0.182906,-0.123585 0.0086,-0.0074 0.02146,-0.01342 0.02825,-0.01342 0.0051,0 0.01066,-0.0025 0.01412,-0.0064 2.54e-4,-3.34e-4 0.0012,-0.0018 0.0014,-0.0021 1.86e-4,-3.57e-4 0.0013,-0.0017 0.0014,-0.0021 0.0023,-0.0059 0.08793,-0.0647 0.190675,-0.131354 0.102742,-0.06665 0.18902,-0.125927 0.191382,-0.131353 2.06e-4,-3.31e-4 0.0012,-0.0018 0.0014,-0.0021 l 7.23e-4,-7.24e-4 c 0.0044,-0.0035 0.01298,-0.0071 0.02047,-0.0071 0.0056,0 0.0108,-0.0016 0.01412,-0.0042 3.29e-4,-3.19e-4 0.0011,-0.0018 0.0014,-0.0021 2.31e-4,-3.59e-4 0.0012,-0.0017 0.0014,-0.0021 2.44e-4,-7.95e-4 0.0014,-0.0027 0.0014,-0.0035 v -7.23e-4 -7.23e-4 -7.23e-4 -7.23e-4 c 0.0033,-0.0059 0.01394,-0.01331 0.02542,-0.01695 0.01413,-0.0045 0.03277,-0.01561 0.04167,-0.02401 0.02565,-0.02423 0.121465,-0.08358 0.137005,-0.08545 v -7.23e-4 c 0.0067,0 0.01458,-0.0051 0.01695,-0.0113 0.0049,-0.0076 0.04951,-0.03974 0.100992,-0.07274 0.04983,-0.03194 0.09244,-0.06286 0.09957,-0.07133 l 7.23e-4,-7.23e-4 v -7.24e-4 c 1.98e-4,-3.52e-4 0.0012,-0.0018 0.0014,-0.0021 0.0037,-0.0043 0.01203,-0.0085 0.01906,-0.0085 0.0087,0 0.02722,-0.0102 0.04096,-0.0226 0.03407,-0.03076 0.125237,-0.08957 0.144065,-0.09322 h 7.23e-4 7.24e-4 c 0.0059,0 0.01244,-0.004 0.01554,-0.0092 1.86e-4,-3.97e-4 0.0013,-0.0017 0.0014,-0.0021 0.0023,-0.0063 0.06472,-0.05088 0.139123,-0.09887 0.074399,-0.04799 0.1384035,-0.09093 0.1419455,-0.09534 0.0036,-0.0044 0.0992,-0.06824 0.212567,-0.141947 0.113374,-0.07371 0.208088,-0.138266 0.210449,-0.144065 1.48e-4,-3.62e-4 5.06e-4,-0.001 7.23e-4,-0.0014 2.26e-4,-3.42e-4 0.0012,-0.0018 0.0014,-0.0021 0.0034,-0.0038 0.0096,-0.0071 0.01483,-0.0071 h 7.22e-4 c 0.01052,-0.003 0.05133,-0.028016 0.09322,-0.057909 0.04189,-0.029892 0.08231,-0.054926 0.09322,-0.057909 h 7.23e-4 7.24e-4 c 0.0064,0 0.01375,-0.00385 0.01695,-0.00847 1.9e-4,-3.409e-4 5.43e-4,-0.00178 7.25e-4,-0.00213 0.0041,-0.00988 0.378115,-0.2615566 0.403948,-0.2718884 0.0071,-0.00282 0.01552,-0.00901 0.01906,-0.014123 0.0036,-0.00512 0.05734,-0.042011 0.119346,-0.08192 0.05812,-0.037415 0.106487,-0.072459 0.112281,-0.081214 V 9.4407412 9.440018 c 0,-0.010673 -1.039026,-1.048337 -1.065661,-1.0642492 h -7.23e-4 c -0.017,0.00217 -0.108728,0.084937 -0.258471,0.2358721 -0.1338865,0.1349463 -0.2474515,0.2457587 -0.2521135,0.2457587 -0.0123,0 -0.162806,-0.049782 -0.200562,-0.066383 -0.01771,-0.00779 -0.04655,-0.019872 -0.06427,-0.026836 -0.01771,-0.00697 -0.04208,-0.017754 -0.05438,-0.024013 -0.0123,-0.00626 -0.03305,-0.011999 -0.04591,-0.011999 -0.01285,0 -0.02929,-0.00458 -0.03601,-0.010591 -0.0067,-0.00603 -0.05462,-0.024626 -0.106637,-0.04096 l -0.09462,-0.02966 -0.562138,0.5628446 c -0.309376,0.3093159 -0.568536,0.5621379 -0.575557,0.5621379 -0.01587,0 -0.947018,-0.9297655 -0.947018,-0.9456066 0,-0.00633 0.253885,-0.2637117 0.564257,-0.5727311 L 8.2769875,7.691464 8.2430975,7.5911832 c -0.01891,-0.055144 -0.03858,-0.1042631 -0.04308,-0.1087552 -0.0041,-0.00533 -0.0078,-0.019511 -0.0078,-0.031779 0,-0.013092 -0.0051,-0.033601 -0.01134,-0.045903 -0.04016,-0.078944 -0.104519,-0.2643154 -0.104519,-0.3008427 0,-0.025722 0.05207,-0.084425 0.23799,-0.2676511 0.131086,-0.1291806 0.238697,-0.2418067 0.238697,-0.2499963 0,-0.00819 -0.241467,-0.2561801 -0.536714,-0.551545 C 7.6042095,5.6226027 7.4790685,5.5040241 7.4511845,5.5085821 Z m 2.531741,0.1087552 c -0.02135,0 -1.55903,1.5432513 -1.558593,1.5642409 5.07e-4,0.024345 0.04409,0.1528369 0.05579,0.1645457 0.0042,0.00541 0.0078,0.019511 0.0078,0.031779 0,0.023004 0.0049,0.035879 0.03672,0.097456 0.0082,0.015849 0.01483,0.037907 0.01483,0.048728 0,0.010824 0.0057,0.029363 0.01271,0.041667 0.01566,0.027603 0.06497,0.1775163 0.06497,0.1977371 0,0.00812 -0.23316,0.2491952 -0.518352,0.5360086 -0.285192,0.2868136 -0.517181,0.5264175 -0.51553,0.5324776 0.0016,0.00605 0.116955,0.1270474 0.256353,0.2690638 0.179372,0.1827352 0.244905,0.2441546 0.265531,0.2457587 3.3e-4,-7.3e-6 0.0018,4.18e-5 0.0022,0 h 7.24e-4 l 7.23e-4,-7.231e-4 h 7.23e-4 l 7.23e-4,-7.233e-4 c 0.0094,-0.00779 0.24529,-0.242771 0.524709,-0.5218847 0.379061,-0.378643 0.515711,-0.5071183 0.538128,-0.5070541 0.03017,8.76e-5 0.224417,0.062383 0.249996,0.079801 l 7.23e-4,7.232e-4 7.24e-4,7.231e-4 c 2.89e-4,2.897e-4 10e-4,0.00112 0.0014,0.00141 0.006,0.00383 0.01962,0.00707 0.03108,0.00707 0.01312,0 0.0336,0.00593 0.0459,0.01271 0.03637,0.020028 0.217851,0.077682 0.244347,0.077682 0.0151,0 0.3204575,-0.2952957 0.8001285,-0.7747056 0.426453,-0.4262207 0.775413,-0.7762576 0.775413,-0.7775304 0,-0.0094 -1.3301795,-1.3269567 -1.3396695,-1.3269567 z m 3.2019275,1.8156497 c -0.06866,0.069172 -0.13984,0.1409328 -0.211817,0.2132726 l 0.157484,0.1779632 c 0.125209,0.3614534 0.249412,0.7074447 0.413835,1.05295 0.09322,0 0.184061,-0.00374 0.274713,-0.00988 L 13.621048,8.6435813 13.724154,8.3801674 13.517942,8.1464137 Z"
     class="ColorScheme-Text" />
</svg>
