<?xml version='1.0' encoding='UTF-8'?>
<svg xmlns:inkscape="http://www.inkscape.org/namespaces/inkscape" xmlns:sodipodi="http://sodipodi.sourceforge.net/DTD/sodipodi-0.dtd" xmlns="http://www.w3.org/2000/svg" xmlns:svg="http://www.w3.org/2000/svg" xmlns:rdf="http://www.w3.org/1999/02/22-rdf-syntax-ns#" xmlns:cc="http://creativecommons.org/ns#" xmlns:dc="http://purl.org/dc/elements/1.1/" width="64" height="64" version="1.1" viewBox="0 0 16.933 16.933" id="svg7" sodipodi:docname="lollypop.svg" inkscape:version="1.4 (e7c3feb100, 2024-10-09)">
  <sodipodi:namedview id="namedview7" pagecolor="#9c4444" bordercolor="#000000" borderopacity="0.25" inkscape:showpageshadow="2" inkscape:pageopacity="0.0" inkscape:pagecheckerboard="0" inkscape:deskcolor="#d1d1d1" inkscape:zoom="6.15625" inkscape:cx="15.837563" inkscape:cy="29.725888" inkscape:window-width="1183" inkscape:window-height="941" inkscape:window-x="35" inkscape:window-y="32" inkscape:window-maximized="0" inkscape:current-layer="svg7" showgrid="false"/>
  <defs id="defs2">
    <style id="current-color-scheme" type="text/css">.ColorScheme-Text {color:#d8dee9} .ColorScheme-Highlight {color:#3b4252}</style></defs>
  <metadata id="metadata2">
    <rdf:RDF>
      <cc:Work rdf:about="">
        <dc:format>image/svg+xml</dc:format>
        <dc:type rdf:resource="http://purl.org/dc/dcmitype/StillImage"/>
      </cc:Work>
    </rdf:RDF>
  </metadata>
  <path d="m 10.96851,12.844482 c 0.08311,0.686354 0.07289,1.470009 -0.05342,2.125363 -0.762543,0.29255 -1.5877543,0.453175 -2.4479261,0.453175 -0.3505988,0 -0.6955909,-0.02671 -1.0326676,-0.07817 0.3354273,-0.530023 0.6134661,-1.194943 0.7961864,-1.828524 0.078499,0.0036 0.1573238,0.0055 0.2364812,0.0055 0.9083258,0 1.7638801,-0.247365 2.5013591,-0.677451 z M 4.013587,10.7897 c 0.4666955,0.905029 1.2018653,1.653059 2.0976577,2.136248 C 5.591118,13.312828 4.8770568,13.706964 4.1864123,13.921347 3.2216877,13.154184 2.4637602,12.13636 2.0148744,10.970441 2.6510983,11.013311 3.3714263,10.937463 4.013587,10.7897 Z m 9.455292,-2.4604602 c 0.597635,0.258909 1.300483,0.6847072 1.833804,1.1791083 -0.183046,1.2526579 -0.707798,2.4007619 -1.475949,3.3453699 -0.280347,-0.571581 -0.705156,-1.156021 -1.153053,-1.63756 0.504627,-0.780355 0.798825,-1.7071506 0.798825,-2.6972712 0,-0.063656 -0.0012,-0.1266502 -0.0036,-0.1896466 z M 10.328659,8.7801041 7.1310496,10.79135 C 7.005718,10.86951 6.9028136,10.80216 6.9028136,10.606649 V 6.6666148 c 0,-0.2239481 0.099936,-0.2618774 0.228236,-0.1850296 l 3.1976094,2.0112455 c 0.142152,0.08971 0.136216,0.2011901 0,0.2872734 z M 3.4644355,8.6818171 C 2.822275,8.422249 2.1382273,8.022177 1.6250269,7.5755998 1.8034599,6.2932579 2.3400774,5.1187676 3.1290083,4.1576707 c 0.281007,0.5702595 0.705156,1.1527224 1.1520626,1.6329411 -0.517488,0.7869515 -0.8192736,1.7249608 -0.8192736,2.7282748 0,0.054422 9.795e-4,0.1088415 0.00266,0.1629307 z M 10.797993,4.0986329 c 0.547503,-0.4234893 1.214068,-0.7866215 1.893828,-1.0260711 0.988473,0.769801 1.765862,1.8004896 2.223651,2.9848746 -0.636555,-0.044196 -1.35853,0.029355 -2.002668,0.175465 C 12.441159,5.3262246 11.700053,4.5785216 10.797993,4.0986329 Z M 5.9793167,4.185705 C 5.9189596,3.5333208 5.9446873,2.7262498 6.1023396,2.0365956 6.8414672,1.7638337 7.6383135,1.6147545 8.4671522,1.6147545 c 0.3505992,0 0.6955913,0.026718 1.0329977,0.078168 -0.3357574,0.5296919 -0.6141256,1.1949397 -0.7968465,1.8288544 -0.078497,-0.00363 -0.1569951,-0.00561 -0.2361512,-0.00561 -0.9030487,0 -1.7533255,0.2440673 -2.4878355,0.6695353 z" fill-rule="nonzero" id="path3-5" style="fill:currentColor;fill-opacity:1;stroke-width:0.329819" class="ColorScheme-Text"/>
  </svg>
