<?xml version="1.0" encoding="UTF-8" standalone="no"?>
<svg
   width="64"
   height="64"
   version="1.1"
   viewBox="0 0 16.933 16.933"
   id="svg7"
   sodipodi:docname="losslesscut.svg"
   inkscape:version="1.4.2 (ebf0e940d0, 2025-05-08)"
   xmlns:inkscape="http://www.inkscape.org/namespaces/inkscape"
   xmlns:sodipodi="http://sodipodi.sourceforge.net/DTD/sodipodi-0.dtd"
   xmlns="http://www.w3.org/2000/svg"
   xmlns:svg="http://www.w3.org/2000/svg"
   xmlns:rdf="http://www.w3.org/1999/02/22-rdf-syntax-ns#"
   xmlns:cc="http://creativecommons.org/ns#"
   xmlns:dc="http://purl.org/dc/elements/1.1/">
  <sodipodi:namedview
     id="namedview7"
     pagecolor="#9c4444"
     bordercolor="#000000"
     borderopacity="0.25"
     inkscape:showpageshadow="2"
     inkscape:pageopacity="0.0"
     inkscape:pagecheckerboard="0"
     inkscape:deskcolor="#d1d1d1"
     inkscape:zoom="3.078125"
     inkscape:cx="43.695431"
     inkscape:cy="51.329949"
     inkscape:window-width="2560"
     inkscape:window-height="1392"
     inkscape:window-x="0"
     inkscape:window-y="0"
     inkscape:window-maximized="1"
     inkscape:current-layer="svg7"
     showgrid="false" />
  <defs
     id="defs2">
    <style
       id="current-color-scheme"
       type="text/css">.ColorScheme-Text {color:#d8dee9} .ColorScheme-Highlight {color:#3b4252}</style>
  </defs>
  <metadata
     id="metadata2">
    <rdf:RDF>
      <cc:Work
         rdf:about="">
        <dc:format>image/svg+xml</dc:format>
        <dc:type
           rdf:resource="http://purl.org/dc/dcmitype/StillImage" />
      </cc:Work>
    </rdf:RDF>
  </metadata>
  <path
     id="path5"
     style="fill:currentColor;stroke-width:0.027388"
     d="m 8.4664995,1.4551794 a 7.0113204,7.0113204 0 0 0 -7.01132,7.0113199 7.0113204,7.0113204 0 0 0 7.01132,7.0113217 A 7.0113204,7.0113204 0 0 0 15.47782,8.4664993 7.0113204,7.0113204 0 0 0 8.4664995,1.4551794 Z m 3.9941515,3.0082899 0.240071,1.362017 -8.3573415,1.473227 -0.02942,-0.166735 1.006401,-0.177541 -1.17228,-0.832498 -0.01177,0.0022 -0.03306,-0.18749 z m 0.03284,0.187223 -1.001213,0.176363 1.17228,0.832552 0.0066,-0.0011 z m -0.0842,0.12025 0.116934,0.663142 -0.77141,-0.547866 z m -1.278943,0.120037 -1.007792,0.1777 1.17228,0.832498 1.007793,-0.177647 z m -0.02466,0.109765 0.934454,0.663677 -0.720592,0.12699 -0.934508,-0.663623 z m -1.3718595,0.136512 -1.007792,0.177647 1.17228,0.832499 1.0077925,-0.177648 z m -0.02471,0.109766 0.9345085,0.663624 -0.7205935,0.12699 -0.934507,-0.663624 z m -1.371645,0.136458 -1.007791,0.177701 1.17228,0.832498 1.007791,-0.177701 z m -0.02466,0.109766 0.934454,0.663624 -0.720646,0.127043 -0.934454,-0.663623 z m -1.371805,0.136352 -1.007845,0.177647 1.17228,0.832498 1.007791,-0.177647 z m -0.02471,0.109766 0.934454,0.663623 -0.720592,0.12699 -0.934507,-0.663623 z m -1.371698,0.136458 -1.007792,0.177647 1.17228,0.832552 1.007792,-0.177701 z m -0.02471,0.109766 0.934508,0.663623 -0.720646,0.127044 -0.934454,-0.663677 z m -1.239573,0.357541 0.777562,0.552199 -0.659718,0.116399 z m 0.06328,0.956546 h 8.4864735 v 1.38304 H 4.3435975 v -0.170212 h 0.0067 l 1.009931,-1.023358 h -1.016618 z m 2.802132,0.189416 v 5.5e-5 l -1.009931,1.023358 h 1.023358 l 1.009931,-1.023411 z m -1.417969,5.5e-5 -1.009932,1.023358 h 1.023358 l 1.009932,-1.023358 z m 2.835939,0 -1.009932,1.023358 h 1.023358 l 1.009931,-1.023358 z m 1.417969,0 -1.009931,1.023358 h 1.023411 l 1.0098785,-1.023358 z m 1.4179695,0 -1.009931,1.023358 h 1.023411 l 1.009878,-1.023358 z m 1.417916,0 -1.009878,1.023358 h 1.021967 v -1.023358 z m -5.6283885,0.103721 h 0.731718 l -0.805163,0.815862 h -0.731665 z m -2.741793,5.5e-5 h 0.664586 l -0.664586,0.673466 z m 1.323823,0 h 0.731666 l -0.80511,0.815808 h -0.731665 z m 2.835939,0 h 0.731666 l -0.805111,0.815808 h -0.731665 z m 1.4179695,0 h 0.731719 l -0.8051105,0.815808 h -0.731718 z m 1.41797,0 h 0.731719 l -0.80511,0.815808 h -0.731719 z m 1.282795,0.136886 v 0.678922 h -0.66999 z m -8.3822715,0.113671 v 0.528449 l -1.64e-4,1.64e-4 v -0.515182 c 0,-0.0045 5.5e-5,-0.009 1.64e-4,-0.013431 z m -1.64e-4,0.942745 h 8.4862055 v 3.1253317 c 0,0.306527 -0.250861,0.557442 -0.557389,0.557442 H 4.9008255 c -0.306526,1e-6 -0.557388,-0.250915 -0.557388,-0.557442 z m 0.538559,0.360216 V 11.973872 H 12.261449 V 10.27111 h 0.002 v -0.123567 h -0.002 V 9.1464383 Z m 0.111531,0.111478 h 1.18699 v 2.6044247 h -1.18699 z m 1.310717,0 h 2.952552 v 0.8896277 h -2.952547 z m 3.076119,0 H 12.150075 V 10.147546 H 9.3803595 Z m -3.076118,1.0131407 h 2.952605 v 1.591284 h -2.952601 z m 3.076118,0 h 2.7696095 v 1.591284 H 9.3803595 Z"
     class="ColorScheme-Text" />
</svg>
