<?xml version="1.0" encoding="UTF-8" standalone="no"?>
<svg
   width="64"
   height="64"
   version="1.1"
   viewBox="0 0 16.933 16.933"
   id="svg7"
   sodipodi:docname="lutris.svg"
   inkscape:version="1.4.3 (0d15f75042, 2025-12-25)"
   xmlns:inkscape="http://www.inkscape.org/namespaces/inkscape"
   xmlns:sodipodi="http://sodipodi.sourceforge.net/DTD/sodipodi-0.dtd"
   xmlns="http://www.w3.org/2000/svg"
   xmlns:svg="http://www.w3.org/2000/svg"
   xmlns:rdf="http://www.w3.org/1999/02/22-rdf-syntax-ns#"
   xmlns:cc="http://creativecommons.org/ns#"
   xmlns:dc="http://purl.org/dc/elements/1.1/">
  <sodipodi:namedview
     id="namedview7"
     pagecolor="#9c4444"
     bordercolor="#000000"
     borderopacity="0.25"
     inkscape:showpageshadow="2"
     inkscape:pageopacity="0.0"
     inkscape:pagecheckerboard="0"
     inkscape:deskcolor="#d1d1d1"
     inkscape:zoom="6.15625"
     inkscape:cx="57.258883"
     inkscape:cy="38.010152"
     inkscape:window-width="2560"
     inkscape:window-height="1388"
     inkscape:window-x="0"
     inkscape:window-y="0"
     inkscape:window-maximized="1"
     inkscape:current-layer="svg7"
     showgrid="false" />
  <defs
     id="defs2">
    <style
       id="current-color-scheme"
       type="text/css">.ColorScheme-Text {color:#d8dee9} .ColorScheme-Highlight {color:#3b4252}</style>
  </defs>
  <metadata
     id="metadata2">
    <rdf:RDF>
      <cc:Work
         rdf:about="">
        <dc:format>image/svg+xml</dc:format>
        <dc:type
           rdf:resource="http://purl.org/dc/dcmitype/StillImage" />
      </cc:Work>
    </rdf:RDF>
  </metadata>
  <path
     id="path5"
     style="fill:currentColor;fill-opacity:1;stroke:none;stroke-width:0.0672126"
     d="M 8.340412 1.4551797 C 4.537875 1.4551797 1.4551797 4.569814 1.4551797 8.4117241 C 1.4551797 12.253635 4.552011 15.474295 8.340412 15.47472 C 10.811957 15.54894 13.104655 14.385847 13.86038 12.491498 C 13.649753 12.589698 13.423203 12.792519 13.225289 12.974146 C 13.237479 12.964146 13.249442 12.953818 13.261462 12.943658 C 12.300795 13.965186 10.680407 14.520792 9.1754867 14.520792 C 6.2631627 14.520792 3.8904446 12.136029 3.9020106 9.1935731 C 3.9046106 8.5312497 4.027431 7.9361929 4.239451 7.4040535 C 4.377768 7.186221 4.7486919 7.2177876 5.0047639 7.257812 C 5.6119729 7.352721 6.2344587 7.5158268 6.6237547 8.1476627 C 6.6565647 8.1954527 6.6802104 8.2507703 6.7167704 8.2959711 C 6.8967924 8.5185284 7.091263 8.5757357 7.287267 8.5848367 C 7.706105 8.5971577 7.9036989 8.2809807 7.9223579 7.8562133 C 7.9228869 7.8228933 7.9225819 7.8388785 7.9202909 7.8097055 C 7.9064509 7.5139307 7.4569679 6.385628 6.7157369 6.3509085 C 6.7074369 6.3506439 6.6991127 6.3509114 6.6909327 6.3503918 C 6.2797677 6.3250108 5.9601497 5.9712635 5.9721277 5.5489061 C 6.0132577 5.2762914 6.139249 5.0601309 6.385531 4.884877 C 6.724345 4.6590426 7.0768804 4.4645524 7.4293744 4.2988778 C 8.8129834 3.7020319 9.5897595 3.545608 10.923149 3.5387324 C 11.004079 3.5379122 11.083787 3.5401835 11.160856 3.5449335 C 11.924416 3.5919735 12.333082 3.7088909 12.608285 3.85912 C 12.761208 3.7008194 12.974735 3.602294 13.21082 3.6022932 C 13.675596 3.6022932 14.052612 3.9837974 14.052612 4.4533873 C 14.052612 4.6127255 14.009303 4.7614955 13.933759 4.889011 C 14.070798 4.9971121 14.186666 5.0742814 14.389019 5.1458378 C 14.515115 5.1904288 14.615134 5.2290575 14.696488 5.259007 C 14.621128 5.139463 14.576084 4.9876763 14.576084 4.8223497 C 14.576084 4.4332079 14.824555 4.1211143 15.134179 4.1211143 C 15.147199 4.1211143 15.160652 4.1215766 15.173452 4.1226646 C 15.167352 3.8754124 15.139258 3.6043992 15.057699 3.4441664 C 14.87906 3.0932155 14.750172 2.9425051 13.837126 2.4411466 C 12.924081 1.9397882 12.110134 2.2210093 12.110134 2.2210093 C 12.110134 2.2210093 11.931775 2.0701388 11.842455 1.9698668 C 11.753125 1.8695932 11.67341 1.7794924 11.534469 1.7895196 C 11.429346 1.7971096 11.318637 2.0112389 11.270925 2.1150747 C 10.381803 1.6917302 9.388514 1.4551797 8.340412 1.4551797 z M 13.21082 3.9278483 A 0.52004028 0.52542516 0 0 0 12.690448 4.4533873 A 0.52004028 0.52542516 0 0 0 13.21082 4.9784095 A 0.52004028 0.52542516 0 0 0 13.730675 4.4533873 A 0.52004028 0.52542516 0 0 0 13.21082 3.9278483 z M 15.134179 4.483359 A 0.26957973 0.33881284 0 0 0 14.86495 4.8223497 A 0.26957973 0.33881284 0 0 0 15.134179 5.1613405 A 0.26957973 0.33881284 0 0 0 15.403924 4.8223497 A 0.26957973 0.33881284 0 0 0 15.134179 4.483359 z M 14.997756 5.3205007 C 14.997756 5.3205007 14.929931 5.4384718 14.784336 5.509116 C 14.724556 5.538124 14.619849 5.4653257 14.521308 5.5664757 C 14.31207 5.9908187 14.823129 6.3449164 15.061316 6.3348891 C 15.299501 6.3248621 15.487227 6.0824488 15.477304 5.8718774 C 15.467404 5.5459947 14.997756 5.320501 14.997756 5.3205007 z M 9.0385468 5.6832621 C 9.0016898 5.683438 8.9634393 5.6828044 8.9274447 5.6837789 C 8.7484637 5.6886489 8.5793501 5.702009 8.4220591 5.723569 C 8.3909991 5.727829 8.3623339 5.7337518 8.3321439 5.7385548 C 8.1929579 5.7607128 8.0620945 5.7876055 7.9419945 5.8191685 C 7.9219345 5.8244485 7.899504 5.8286744 7.879984 5.8341544 C 7.750388 5.8705544 7.6344187 5.9113389 7.5296247 5.9540413 C 7.5064647 5.9634813 7.4848734 5.9728538 7.4629634 5.9824628 C 7.3634234 6.0261358 7.2714143 6.0711624 7.1983853 6.1152686 C 7.1862253 6.1226086 7.1742925 6.130068 7.1622125 6.137489 C 7.4658685 6.284365 7.6994169 6.5528033 7.8613809 6.8061689 C 8.0616639 7.1194804 8.2264382 7.5328595 8.2411952 7.7864515 L 8.2411952 7.7869683 L 8.2411952 7.787485 C 8.2429952 7.807426 8.2450957 7.8109059 8.2442957 7.8613809 L 8.2442957 7.8660317 L 8.243779 7.8706825 C 8.218999 8.4348215 7.9098195 8.928462 7.2779655 8.9098751 L 7.2748649 8.9093583 L 7.2722812 8.9093583 C 7.0089152 8.8971293 6.7167342 8.8101618 6.4671782 8.5016393 C 6.4202282 8.4436003 6.3639166 8.3400778 6.3591766 8.3331774 L 6.3545258 8.3264596 L 6.3503918 8.3197418 C 6.1898458 8.0591736 5.9953035 7.9067429 5.7602585 7.7962699 C 5.7121485 7.7736559 5.6623406 7.7530214 5.6109166 7.7342594 C 5.6004866 7.7538304 5.5900113 7.7733823 5.5799113 7.7931693 C 5.5660213 7.8203833 5.5554383 7.8497783 5.5421883 7.8774003 C 5.4982383 7.9689973 5.4549723 8.0613916 5.4181673 8.157481 C 5.3704173 8.2822233 5.3283738 8.4106524 5.2931128 8.5429796 C 5.2002928 8.8914335 5.1515221 9.2662444 5.1515221 9.6674366 C 5.1515221 10.143544 5.223773 10.597044 5.357707 11.019266 C 5.491637 11.441489 5.6875797 11.832539 5.9344047 12.184546 C 6.0989557 12.419216 6.2860819 12.636691 6.4930159 12.834106 C 6.6999519 13.031521 6.9263601 13.208975 7.1694471 13.364296 C 7.2909921 13.441956 7.4167459 13.51407 7.5461609 13.580299 C 8.1932479 13.911473 8.9337001 14.096013 9.7191121 14.09602 C 9.9179361 14.095982 10.172024 14.07892 10.457037 14.04021 C 10.530747 14.0302 10.606404 14.018578 10.683892 14.005588 C 10.897446 13.951628 11.107683 13.886313 11.311232 13.810255 C 11.978627 13.560878 12.575121 13.194807 13.01187 12.736956 L 13.008769 12.733339 C 13.196445 12.561169 13.459301 12.320549 13.725507 12.196431 L 14.135293 12.005232 C 14.560887 11.166367 14.800872 10.215466 14.800872 9.2080422 C 14.800872 8.4643938 14.670055 7.7520395 14.43036 7.0924507 C 14.34342 7.1011207 14.255537 7.1005837 14.167849 7.0903837 C 13.42315 7.0038397 12.88375 6.5681674 11.915834 6.2563425 C 11.081848 5.9876637 10.541151 5.8437688 9.8808561 5.7432056 C 9.8110861 5.7325806 9.7423342 5.7231289 9.6746712 5.7153009 C 9.4496357 5.689285 9.239793 5.682281 9.0390636 5.6832621 L 9.0385468 5.6832621 z "
     class="ColorScheme-Text" />
</svg>
