<?xml version="1.0" encoding="UTF-8" standalone="no"?>
<svg
   width="64"
   height="64"
   version="1.1"
   viewBox="0 0 16.933 16.933"
   id="svg7"
   sodipodi:docname="lxqt-about.svg"
   inkscape:version="1.4.3 (0d15f75042, 2025-12-25)"
   xmlns:inkscape="http://www.inkscape.org/namespaces/inkscape"
   xmlns:sodipodi="http://sodipodi.sourceforge.net/DTD/sodipodi-0.dtd"
   xmlns="http://www.w3.org/2000/svg"
   xmlns:svg="http://www.w3.org/2000/svg"
   xmlns:rdf="http://www.w3.org/1999/02/22-rdf-syntax-ns#"
   xmlns:cc="http://creativecommons.org/ns#"
   xmlns:dc="http://purl.org/dc/elements/1.1/">
  <sodipodi:namedview
     id="namedview7"
     pagecolor="#9c4444"
     bordercolor="#000000"
     borderopacity="0.25"
     inkscape:showpageshadow="2"
     inkscape:pageopacity="0.0"
     inkscape:pagecheckerboard="0"
     inkscape:deskcolor="#d1d1d1"
     inkscape:zoom="6.15625"
     inkscape:cx="15.51269"
     inkscape:cy="30.050761"
     inkscape:window-width="2560"
     inkscape:window-height="1388"
     inkscape:window-x="0"
     inkscape:window-y="0"
     inkscape:window-maximized="1"
     inkscape:current-layer="svg7"
     showgrid="false" />
  <defs
     id="defs2">
    <style
       id="current-color-scheme"
       type="text/css">.ColorScheme-Text {color:#d8dee9} .ColorScheme-Highlight {color:#3b4252}</style>
  </defs>
  <metadata
     id="metadata2">
    <rdf:RDF>
      <cc:Work
         rdf:about="">
        <dc:format>image/svg+xml</dc:format>
        <dc:type
           rdf:resource="http://purl.org/dc/dcmitype/StillImage" />
      </cc:Work>
    </rdf:RDF>
  </metadata>
  <path
     d="m 8.4664985,1.4551797 c -3.872001,0 -7.011319,3.1393186 -7.011319,7.0113202 0,3.8720011 3.139318,7.0113201 7.011319,7.0113201 3.8720045,0 7.0113215,-3.139319 7.0113215,-7.0113201 0,-3.8720016 -3.139318,-7.0113202 -7.0113215,-7.0113202 m 0.751964,2.7595389 q 0.184639,-0.018108 0.368096,0.00234 a 1.8521571,1.8521571 0 0 1 1.4081075,0.9593822 l 3.309927,0.4563203 H 10.531335 A 1.5074339,1.5074339 0 0 0 9.5614345,5.0747769 1.5015911,1.5015911 0 0 0 8.7603905,5.186958 c -0.251238,0.1110129 -0.46742,0.2892168 -0.624007,0.5141634 -0.156593,0.226115 -0.247733,0.4907923 -0.263509,0.7654024 -0.01524,0.2734415 0.04558,0.5462988 0.175275,0.7881892 a 1.8287861,1.8287861 0 0 1 -0.4645,-0.9815847 1.8287861,1.8287861 0 0 1 0.178212,-1.0703949 1.8346288,1.8346288 0 0 1 0.758976,-0.7782566 1.8112577,1.8112577 0 0 1 0.698211,-0.2103394 m -5.772655,0.6368615 5.067432,3.6412125 -4.179916,-2.3441181 a 2.1033961,2.1033961 0 0 0 -0.04207,1.1814074 2.0858678,2.0858678 0 0 0 1.167384,1.3672074 l 2.774146,0.7794251 -3.506829,-0.574344 c 0.03564,0.3388805 0.160679,0.6619855 0.361668,0.9371798 a 1.9456414,1.9456414 0 0 0 1.549501,0.777088 2.307893,2.307893 0 0 1 -1.789053,-0.263508 2.2786792,2.2786792 0 0 1 -0.836684,-0.9132244 2.2786792,2.2786792 0 0 1 -0.232542,-1.2152955 l 0.771245,0.2167678 A 2.7461005,2.7461005 0 0 1 3.8226675,7.8647001 2.7461005,2.7461005 0 0 1 3.1735345,6.4156938 2.7285721,2.7285721 0 0 1 3.4458085,4.8510008 m 6.8167575,1.8299547 q -0.0057,0.080631 -0.0046,0.1624295 c 0.0042,0.6678283 0.312587,1.2912516 0.617579,1.8848766 0.305577,0.5942095 0.62167,1.2129585 0.639198,1.8813714 0.01413,0.555062 -0.186957,1.107204 -0.525263,1.548917 -0.337712,0.441713 -0.804549,0.775919 -1.3175445,0.990933 a 3.7977985,3.7977985 0 0 1 -2.284559,0.197485 l -0.584276,1.386489 v -1.943889 a 3.6400438,3.6400438 0 0 0 2.141372,-0.181125 c 0.408995,-0.16652 0.789943,-0.413084 1.0879245,-0.738526 0.297981,-0.325442 0.511243,-0.733267 0.576096,-1.169722 C 10.696142,10.115918 10.52027,9.5275517 10.34732,8.9625563 10.174387,8.3975606 9.9996765,7.8074411 10.092577,7.2243331 a 1.9281131,1.9281131 0 0 1 0.170019,-0.5433774"
     id="path5"
     style="fill:currentColor;stroke-width:0.584276"
     class="ColorScheme-Text" />
</svg>
