<?xml version="1.0" encoding="UTF-8" standalone="no"?>
<svg
   width="64"
   height="64"
   version="1.1"
   viewBox="0 0 16.933 16.933"
   id="svg7"
   sodipodi:docname="makemkv.svg"
   inkscape:version="1.4.3 (0d15f75042, 2025-12-25)"
   xmlns:inkscape="http://www.inkscape.org/namespaces/inkscape"
   xmlns:sodipodi="http://sodipodi.sourceforge.net/DTD/sodipodi-0.dtd"
   xmlns="http://www.w3.org/2000/svg"
   xmlns:svg="http://www.w3.org/2000/svg"
   xmlns:rdf="http://www.w3.org/1999/02/22-rdf-syntax-ns#"
   xmlns:cc="http://creativecommons.org/ns#"
   xmlns:dc="http://purl.org/dc/elements/1.1/">
  <sodipodi:namedview
     id="namedview7"
     pagecolor="#9c4444"
     bordercolor="#000000"
     borderopacity="0.25"
     inkscape:showpageshadow="2"
     inkscape:pageopacity="0.0"
     inkscape:pagecheckerboard="0"
     inkscape:deskcolor="#d1d1d1"
     inkscape:zoom="4.3531262"
     inkscape:cx="90.165086"
     inkscape:cy="34.457995"
     inkscape:window-width="2560"
     inkscape:window-height="1388"
     inkscape:window-x="0"
     inkscape:window-y="0"
     inkscape:window-maximized="1"
     inkscape:current-layer="svg7"
     showgrid="false" />
  <defs
     id="defs2">
    <style
       id="current-color-scheme"
       type="text/css">.ColorScheme-Text {color:#d8dee9} .ColorScheme-Highlight {color:#3b4252}</style>
  </defs>
  <metadata
     id="metadata2">
    <rdf:RDF>
      <cc:Work
         rdf:about="">
        <dc:format>image/svg+xml</dc:format>
        <dc:type
           rdf:resource="http://purl.org/dc/dcmitype/StillImage" />
      </cc:Work>
    </rdf:RDF>
  </metadata>
  <path
     id="path5"
     style="fill:currentColor;stroke-width:0.500808"
     d="m 4.174414,10.469735 c -0.396474,0 -0.716,0.319527 -0.716,0.716 v 3.576086 c 0,0.396474 0.319526,0.716 0.716,0.716 h 8.584172 c 0.396474,0 0.715999,-0.319526 0.715999,-0.716 v -3.576086 c 0,-0.396473 -0.319525,-0.716 -0.715999,-0.716 z m 5.53726,1.004552 a 0.25030396,0.25030396 0 0 1 0.178024,0.07043 0.25030396,0.25030396 0 0 1 0.0068,0.354087 L 8.864559,12.973778 9.8965,14.048756 a 0.25030396,0.25030396 0 0 1 -0.0068,0.354087 0.25030396,0.25030396 0 0 1 -0.354087,-0.0069 l -1.017267,-1.061284 -0.04988,0.05184 v 0.835336 A 0.25030396,0.25030396 0 0 1 8.218053,14.472293 0.25030396,0.25030396 0 0 1 7.968625,14.221888 v -0.918475 a 0.25030396,0.25030396 0 0 1 0,-0.03424 V 12.67838 a 0.25030396,0.25030396 0 0 1 0,-0.03424 v -0.918476 a 0.25030396,0.25030396 0 0 1 0.249428,-0.250404 0.25030396,0.25030396 0 0 1 0.250404,0.250404 v 0.835333 l 0.04988,0.05184 1.017267,-1.061284 a 0.25030396,0.25030396 0 0 1 0.176073,-0.07727 z m 1.001617,0 a 0.25030396,0.25030396 0 0 1 0.24747,0.179 l 0.510591,1.701967 0.510589,-1.701967 a 0.25030396,0.25030396 0 0 1 0.312028,-0.168241 0.25030396,0.25030396 0 0 1 0.167272,0.312027 l -0.750234,2.501108 a 0.25032898,0.25032898 0 0 1 -0.479291,0 l -0.750234,-2.501108 a 0.25030396,0.25030396 0 0 1 0.167253,-0.312027 0.25030396,0.25030396 0 0 1 0.06457,-0.01075 z m -6.00579,10e-4 a 0.25030396,0.25030396 0 0 1 0.09586,0.01662 0.25030396,0.25030396 0 0 1 0.003,10e-4 0.25030396,0.25030396 0 0 1 0.05478,0.0313 0.25030396,0.25030396 0 0 1 0.0019,0.001 0.25030396,0.25030396 0 0 1 0.02249,0.01956 0.25030396,0.25030396 0 0 1 0.0019,0.003 0.25030396,0.25030396 0 0 1 0.02054,0.02152 l 0.804027,1.003485 0.804033,-1.003574 a 0.25030396,0.25030396 0 0 1 0.01174,-0.01272 0.25030396,0.25030396 0 0 1 0.0068,-0.0078 0.25030396,0.25030396 0 0 1 0.01571,-0.01369 0.25030396,0.25030396 0 0 1 0.0089,-0.0078 0.25030396,0.25030396 0 0 1 0.01174,-0.0078 0.25030396,0.25030396 0 0 1 0.01571,-0.01075 0.25030396,0.25030396 0 0 1 0.004,-0.0019 0.25030396,0.25030396 0 0 1 0.02544,-0.01272 0.25030396,0.25030396 0 0 1 0.100738,-0.01859 0.25030396,0.25030396 0 0 1 0.01079,0.001 0.25030396,0.25030396 0 0 1 0.0538,0.0088 0.25030396,0.25030396 0 0 1 0.0176,0.0059 0.25030396,0.25030396 0 0 1 0.01363,0.0049 0.25030396,0.25030396 0 0 1 0.01477,0.0078 0.25030396,0.25030396 0 0 1 0.01476,0.0078 0.25030396,0.25030396 0 0 1 0.01571,0.01075 0.25030396,0.25030396 0 0 1 0.0068,0.0049 0.25030396,0.25030396 0 0 1 0.004,0.003 0.25030396,0.25030396 0 0 1 0.01268,0.01174 0.25030396,0.25030396 0 0 1 0.01174,0.01075 0.25030396,0.25030396 0 0 1 0.01174,0.01368 0.25030396,0.25030396 0 0 1 0.0059,0.0069 0.25030396,0.25030396 0 0 1 0.004,0.0049 0.25030396,0.25030396 0 0 1 0.01476,0.0225 0.25030396,0.25030396 0 0 1 0.0176,0.03717 0.25030396,0.25030396 0 0 1 0.0068,0.02347 0.25030396,0.25030396 0 0 1 0.0078,0.04108 0.25030396,0.25030396 0 0 1 0,0.01467 0.25030396,0.25030396 0 0 1 0.001,0.01859 v 2.486516 A 0.25030396,0.25030396 0 0 1 6.711732,14.472386 0.25030396,0.25030396 0 0 1 6.461328,14.221982 v -1.783247 l -0.553647,0.691546 a 0.25032898,0.25032898 0 0 1 -0.391258,0 L 4.962797,12.438735 v 1.783152 A 0.25030396,0.25030396 0 0 1 4.712392,14.472292 0.25030396,0.25030396 0 0 1 4.461986,14.221887 v -2.485458 a 0.25030396,0.25030396 0 0 1 0,-0.01075 0.25030396,0.25030396 0 0 1 9.77e-4,-0.0098 0.25030396,0.25030396 0 0 1 9.77e-4,-0.01859 0.25030396,0.25030396 0 0 1 9.77e-4,-0.0088 0.25030396,0.25030396 0 0 1 0.0059,-0.02739 0.25030396,0.25030396 0 0 1 0.0068,-0.02347 0.25030396,0.25030396 0 0 1 0.0019,-0.0039 0.25030396,0.25030396 0 0 1 0.0049,-0.01174 0.25030396,0.25030396 0 0 1 0.01079,-0.02152 0.25030396,0.25030396 0 0 1 0.01477,-0.0225 0.25030396,0.25030396 0 0 1 0.003,-0.0039 0.25030396,0.25030396 0 0 1 0.0068,-0.0078 0.25030396,0.25030396 0 0 1 0.01477,-0.01565 0.25030396,0.25030396 0 0 1 0.0089,-0.0088 0.25030396,0.25030396 0 0 1 0.01268,-0.01174 0.25030396,0.25030396 0 0 1 0.0028,-0.0019 0.25030396,0.25030396 0 0 1 0.0078,-0.0059 0.25030396,0.25030396 0 0 1 0.01855,-0.01174 0.25030396,0.25030396 0 0 1 0.01174,-0.0069 0.25030396,0.25030396 0 0 1 0.0176,-0.0088 0.25030396,0.25030396 0 0 1 0.01079,-0.0039 0.25030396,0.25030396 0 0 1 0.02251,-0.0069 0.25030396,0.25030396 0 0 1 0.04891,-0.0078 0.25030396,0.25030396 0 0 1 0.01079,-10e-4 z M 8.4665,1.4551788 c -3.884272,0 -7.011321,3.1270489 -7.011321,7.0113204 0,1.6449298 0.560802,3.1544928 1.502427,4.3478408 v -1.628605 c 0,-0.670748 0.546059,-1.2168083 1.216808,-1.2168083 H 5.864643 A 3.0048515,3.0048515 0 0 1 5.461648,8.4665009 3.0048515,3.0048515 0 0 1 8.4665,5.4616493 3.0048515,3.0048515 0 0 1 11.471352,8.4665009 3.0048515,3.0048515 0 0 1 11.068357,9.9689267 h 1.690229 c 0.670749,0 1.216808,0.5460603 1.216808,1.2168083 v 1.628606 c 0.941624,-1.193347 1.502427,-2.702911 1.502427,-4.3478401 0,-3.8842715 -3.127049,-7.0113204 -7.011321,-7.0113204 z m 0,4.5072774 c -1.388876,0 -2.504044,1.1151666 -2.504044,2.504043 0,0.5649826 0.184459,1.0846728 0.496898,1.5024258 H 8.4665 c -0.829791,0 -1.502425,-0.6726361 -1.502425,-1.5024258 0,-0.8297898 0.672634,-1.5024257 1.502425,-1.5024257 0.829789,0 1.502425,0.6726359 1.502425,1.5024257 0,0.8297897 -0.672636,1.5024258 -1.502425,1.5024258 h 2.007146 c 0.312431,-0.417753 0.496898,-0.9374432 0.496898,-1.5024258 0,-1.3888764 -1.115168,-2.504043 -2.504044,-2.504043 z"
     class="ColorScheme-Text" />
</svg>
