<?xml version="1.0" encoding="UTF-8" standalone="no"?>
<svg
   width="64"
   height="64"
   version="1.1"
   viewBox="0 0 16.933 16.933"
   id="svg7"
   sodipodi:docname="map-globe.svg"
   inkscape:version="1.4.3 (0d15f75042, 2025-12-25)"
   xmlns:inkscape="http://www.inkscape.org/namespaces/inkscape"
   xmlns:sodipodi="http://sodipodi.sourceforge.net/DTD/sodipodi-0.dtd"
   xmlns="http://www.w3.org/2000/svg"
   xmlns:svg="http://www.w3.org/2000/svg"
   xmlns:rdf="http://www.w3.org/1999/02/22-rdf-syntax-ns#"
   xmlns:cc="http://creativecommons.org/ns#"
   xmlns:dc="http://purl.org/dc/elements/1.1/">
  <sodipodi:namedview
     id="namedview7"
     pagecolor="#9c4444"
     bordercolor="#000000"
     borderopacity="0.25"
     inkscape:showpageshadow="2"
     inkscape:pageopacity="0.0"
     inkscape:pagecheckerboard="0"
     inkscape:deskcolor="#d1d1d1"
     inkscape:zoom="4.3531262"
     inkscape:cx="89.935366"
     inkscape:cy="34.457995"
     inkscape:window-width="2560"
     inkscape:window-height="1388"
     inkscape:window-x="0"
     inkscape:window-y="0"
     inkscape:window-maximized="1"
     inkscape:current-layer="svg7"
     showgrid="false" />
  <defs
     id="defs2">
    <style
       id="current-color-scheme"
       type="text/css">.ColorScheme-Text {color:#d8dee9} .ColorScheme-Highlight {color:#3b4252}</style>
  </defs>
  <metadata
     id="metadata2">
    <rdf:RDF>
      <cc:Work
         rdf:about="">
        <dc:format>image/svg+xml</dc:format>
        <dc:type
           rdf:resource="http://purl.org/dc/dcmitype/StillImage" />
      </cc:Work>
    </rdf:RDF>
  </metadata>
  <path
     style="fill:currentColor;fill-opacity:1;stroke:none;stroke-width:0.876435"
     d="m 8.5692095,1.4559062 a 7.0114882,7.0114941 0 0 0 -5.060049,2.0541464 7.0114882,7.0114941 0 0 0 0,9.9146804 7.0114882,7.0114941 0 0 0 9.9146785,0 7.0114882,7.0114941 0 0 0 0,-9.9146804 7.0114882,7.0114941 0 0 0 -4.8546295,-2.0541464 z m -0.191732,0.876435 A 6.1350499,6.1350499 0 0 1 12.478922,3.8352948 L 11.248147,5.06607 A 7.0114858,4.3821786 45 0 0 6.4945115,2.6627182 6.1350499,6.1350499 0 0 1 8.3774775,2.3323552 Z M 5.7242045,3.4775297 A 6.1350499,3.5057429 45 0 1 10.626767,5.68745 L 8.4664895,7.847726 4.4780225,3.859258 a 6.1350499,3.5057429 45 0 1 1.246182,-0.3817283 z m 7.3795195,0.9722947 a 6.1350499,6.1350499 0 0 1 1.170864,5.9690076 7.0114858,4.3821786 45 0 0 -2.410199,-4.7296727 z m -9.2470815,0.027494 3.99018,3.9901804 -2.161988,2.1619892 A 6.1350499,3.5057429 45 0 1 3.8566425,4.4773184 Z m 7.3915045,1.8281914 a 6.1350499,3.5057429 45 0 1 1.82819,6.1521672 L 9.0861575,8.4674992 Z M 2.6583935,6.5160606 a 7.0114858,4.3821786 45 0 0 2.410196,4.7296714 l -1.239335,1.239335 A 6.1350499,6.1350499 0 0 1 2.6583935,6.5160606 Z m 5.808096,2.5711063 3.9884665,3.9884671 A 6.1350499,3.5057429 45 0 1 6.3062145,11.247444 Z M 5.6848345,11.868823 A 7.0114858,4.3821786 45 0 0 10.43847,14.272175 6.1350499,6.1350499 0 0 1 4.4540595,13.099599 Z"
     class="ColorScheme-Text"
     id="path1" />
</svg>
