<?xml version="1.0" encoding="UTF-8" standalone="no"?>
<svg
   width="64"
   height="64"
   version="1.1"
   viewBox="0 0 16.933 16.933"
   id="svg7"
   sodipodi:docname="smplayer.svg"
   inkscape:version="1.4.2 (ebf0e940d0, 2025-05-08)"
   xmlns:inkscape="http://www.inkscape.org/namespaces/inkscape"
   xmlns:sodipodi="http://sodipodi.sourceforge.net/DTD/sodipodi-0.dtd"
   xmlns="http://www.w3.org/2000/svg"
   xmlns:svg="http://www.w3.org/2000/svg"
   xmlns:rdf="http://www.w3.org/1999/02/22-rdf-syntax-ns#"
   xmlns:cc="http://creativecommons.org/ns#"
   xmlns:dc="http://purl.org/dc/elements/1.1/">
  <sodipodi:namedview
     id="namedview7"
     pagecolor="#9c4444"
     bordercolor="#000000"
     borderopacity="0.25"
     inkscape:showpageshadow="2"
     inkscape:pageopacity="0.0"
     inkscape:pagecheckerboard="0"
     inkscape:deskcolor="#d1d1d1"
     inkscape:zoom="6.15625"
     inkscape:cx="74.477157"
     inkscape:cy="27.28934"
     inkscape:window-width="2560"
     inkscape:window-height="1392"
     inkscape:window-x="0"
     inkscape:window-y="0"
     inkscape:window-maximized="1"
     inkscape:current-layer="svg7"
     showgrid="false" />
  <defs
     id="defs2">
    <style
       id="current-color-scheme"
       type="text/css">.ColorScheme-Text {color:#d8dee9} .ColorScheme-Highlight {color:#3b4252}</style>
  </defs>
  <metadata
     id="metadata2">
    <rdf:RDF>
      <cc:Work
         rdf:about="">
        <dc:format>image/svg+xml</dc:format>
        <dc:type
           rdf:resource="http://purl.org/dc/dcmitype/StillImage" />
      </cc:Work>
    </rdf:RDF>
  </metadata>
  <path
     id="path4"
     d="m 1.7967945,1.4551797 c -0.18854,0.011784 -0.341615,0.1883616 -0.341615,0.4122516 V 15.065569 c 0,0.22389 0.165254,0.412251 0.353793,0.412251 h 0.436001 V 1.4551797 h -0.436001 z m 1.225793,0 V 15.47782 h 0.45914 c 0.200323,0 0.365364,-0.188361 0.365364,-0.412251 V 1.8674313 c 0,-0.22389 -0.165041,-0.4122516 -0.365364,-0.4122516 z m 4.277186,0 c 3.6647265,0.047135 6.6228175,3.1698397 6.6228175,7.0113204 0,3.8414809 -2.958092,6.9641859 -6.6228175,7.0113199 4.5249345,-0.03535 8.1780475,-3.158056 8.1780475,-7.0113199 0,-3.8532643 -3.653113,-6.9759694 -8.1780475,-7.0113204 z m 0.601022,2.8754086 c 1.838255,0.1414042 3.2992305,1.9441468 3.2992305,4.1359118 0,2.1917649 -1.4609755,3.9945079 -3.2992305,4.1359119 h 0.283157 c 2.3685215,0 4.2771865,-1.849877 4.2771865,-4.1359119 0,-2.2860345 -1.908665,-4.1359118 -4.2771865,-4.1359118 z m -0.683229,2.1209336 c -0.353511,0 -0.695328,0.094223 -1.001704,0.2709778 -0.306376,0.1885389 -0.553971,0.4478854 -0.730727,0.7660449 -0.176755,0.3181594 -0.270977,0.6832983 -0.270977,1.0485925 0,0.3652941 0.09422,0.730433 0.270977,1.0485924 0.176756,0.3181595 0.424351,0.5777195 0.730727,0.7544755 0.306376,0.188539 0.648193,0.282547 1.001704,0.282547 0.35351,0 0.695329,-0.09401 1.001704,-0.282547 0.294592,-0.176756 0.553363,-0.436316 0.730118,-0.7544755 0.176756,-0.3181594 0.270977,-0.6832983 0.270977,-1.0485924 0,-0.3652942 -0.09422,-0.7304331 -0.270977,-1.0485925 C 8.7726335,7.1703851 8.5138625,6.9110386 8.2192705,6.7224997 7.9128955,6.5457445 7.5710765,6.4515219 7.2175665,6.4515219 Z m 0,0.7307265 c 0.237402,0 0.429057,0.059084 0.561441,0.1912068 0.144112,0.1203104 0.216174,0.3012402 0.216174,0.515771 0,0.1076874 -0.02411,0.215456 -0.07246,0.3002069 -0.04784,0.095577 -0.119184,0.1910721 -0.238096,0.2862011 l -0.118134,0.094386 c -0.06959,0.058036 -0.115682,0.1156768 -0.150407,0.1735475 l -6.09e-4,6.092e-4 v 6.093e-4 c -0.03328,0.04437 -0.04506,0.1001008 -0.04506,0.1814637 v 0.011572 h -0.437218 l 0.0012,-0.012788 c 0.01185,-0.1185317 0.03611,-0.2263937 0.09622,-0.3227375 0.04841,-0.096476 0.131473,-0.1798158 0.225915,-0.2624527 h 6.09e-4 v -6.091e-4 c 0.105384,-0.081967 0.187359,-0.1642913 0.221045,-0.2204359 v -6.092e-4 h 6.09e-4 c 0.04613,-0.069194 0.06881,-0.1371499 0.06881,-0.2173911 0,-0.092306 -0.02303,-0.1709931 -0.07917,-0.2271341 -0.05669,-0.056697 -0.135878,-0.090731 -0.239312,-0.090731 -0.103439,0 -0.182032,0.033451 -0.250883,0.1023021 l -6.1e-4,6.091e-4 c -0.06744,0.056198 -0.102284,0.1472477 -0.113868,0.2514918 l -0.0012,0.010959 h -0.44757 l 0.0012,-0.013397 c 0.02378,-0.237802 0.107222,-0.417579 0.250883,-0.5492628 0.143436,-0.1314834 0.32411,-0.2033855 0.55048,-0.2033855 z m -0.283156,2.0027995 h 0.448178 v 0.4713186 h -0.448178 z"
     style="fill:currentColor;fill-opacity:1;stroke-width:0.0117837"
     class="ColorScheme-Text" />
</svg>
