<?xml version="1.0" encoding="UTF-8" standalone="no"?>
<svg
   width="64"
   height="64"
   version="1.1"
   viewBox="0 0 16.933 16.933"
   id="svg7"
   sodipodi:docname="mgba.svg"
   inkscape:version="1.4.3 (0d15f75042, 2025-12-25)"
   xmlns:inkscape="http://www.inkscape.org/namespaces/inkscape"
   xmlns:sodipodi="http://sodipodi.sourceforge.net/DTD/sodipodi-0.dtd"
   xmlns="http://www.w3.org/2000/svg"
   xmlns:svg="http://www.w3.org/2000/svg"
   xmlns:rdf="http://www.w3.org/1999/02/22-rdf-syntax-ns#"
   xmlns:cc="http://creativecommons.org/ns#"
   xmlns:dc="http://purl.org/dc/elements/1.1/">
  <sodipodi:namedview
     id="namedview7"
     pagecolor="#9c4444"
     bordercolor="#000000"
     borderopacity="0.25"
     inkscape:showpageshadow="2"
     inkscape:pageopacity="0.0"
     inkscape:pagecheckerboard="0"
     inkscape:deskcolor="#d1d1d1"
     inkscape:zoom="4.3531262"
     inkscape:cx="89.935366"
     inkscape:cy="34.457995"
     inkscape:window-width="2560"
     inkscape:window-height="1388"
     inkscape:window-x="0"
     inkscape:window-y="0"
     inkscape:window-maximized="1"
     inkscape:current-layer="svg7"
     showgrid="false" />
  <defs
     id="defs2">
    <style
       id="current-color-scheme"
       type="text/css">.ColorScheme-Text {color:#d8dee9} .ColorScheme-Highlight {color:#3b4252}</style>
  </defs>
  <metadata
     id="metadata2">
    <rdf:RDF>
      <cc:Work
         rdf:about="">
        <dc:format>image/svg+xml</dc:format>
        <dc:type
           rdf:resource="http://purl.org/dc/dcmitype/StillImage" />
      </cc:Work>
    </rdf:RDF>
  </metadata>
  <path
     id="path5"
     style="fill:currentColor;fill-opacity:1;stroke-width:0.0300355;paint-order:fill markers stroke"
     d="m 8.447765,1.7029274 c -5.008622,0 -4.542067,-0.03263 -5.169808,0.361873 -0.196202,0.123303 -0.410824,0.247904 -0.476902,0.276909 -0.06608,0.02901 -0.201246,0.08816 -0.300363,0.13147 -0.206456,0.09021 -0.824098,0.301585 -1.061244,0.363195 -0.0881,0.02288 -0.234422,0.06108 -0.325082,0.08485 -0.09066,0.02377 -0.20122396,0.04317 -0.24569496,0.04317 -0.151758,0 -0.200091,0.153227 -0.247303,0.783703 -0.02463,0.328878 -0.05343,0.643042 -0.06404,0.698107 -0.01794,0.09313 -0.04422,0.403614 -0.142277,1.681975 -0.02112,0.275326 -0.05671,0.716853 -0.0791,0.981166 -0.02239,0.264314 -0.05098,0.71337 -0.06352,0.997896 -0.02554,0.579437 0.0042,0.730119 0.202293,1.02451 0.265978,0.395321 0.56618096,0.578647 1.08486996,0.662523 0.262635,0.04247 0.488807,0.08664 1.121317,0.2189056 0.330392,0.0691 0.681826,0.14143 0.780944,0.16073 0.211443,0.04117 0.444686,0.09758 0.640678,0.154924 0.319367,0.09345 1.11797,0.288483 1.34166,0.327726 1.304287,0.228826 2.754582,0.314976 3.964676,0.235347 0.810437,-0.05333 1.282241,-0.106799 2.062474,-0.23368 0.211837,-0.03445 0.757439,-0.166995 1.261467,-0.306398 0.29495,-0.08158 0.505156,-0.132021 0.740876,-0.177919 0.09912,-0.0193 0.450495,-0.09163 0.780886,-0.16073 0.632511,-0.1322726 0.858741,-0.1764346 1.121375,-0.2189056 0.232505,-0.0376 0.465562,-0.109611 0.583768,-0.180333 0.290337,-0.173707 0.582349,-0.53116 0.67494,-0.826184 0.05436,-0.17321 0.04351,-0.681086 -0.03547,-1.658349 -0.0489,-0.60514 -0.101052,-1.270865 -0.158373,-2.022406 -0.02352,-0.308365 -0.05155,-0.605733 -0.06231,-0.660798 -0.01077,-0.05507 -0.03943,-0.370475 -0.06369,-0.700866 -0.04617,-0.628598 -0.09266,-0.780944 -0.238336,-0.780944 -0.07641,0 -0.293397,-0.04522 -0.620443,-0.129401 -0.224169,-0.0577 -0.99912,-0.33912 -1.2525,-0.454827 -0.116204,-0.05306 -0.377488,-0.196717 -0.580663,-0.319219 -0.648205,-0.390824 -0.174021,-0.358021 -5.175096,-0.358021 z m -5.873721,0.281566 c -0.0168,-0.01511 -0.355259,0.03548 -0.794223,0.11865 -0.187222,0.03548 -0.457499,0.08332 -0.600669,0.106349 -0.30334296,0.04881 -0.44056996,0.150243 -0.44056996,0.325656 0,0.112633 0.0061,0.116463 0.150153,0.09647 0.08259,-0.01146 0.23130996,-0.03922 0.33042796,-0.06175 0.217626,-0.04946 0.805136,-0.244069 0.861021,-0.285186 0.02202,-0.01621 0.127379,-0.05459 0.23414,-0.08526 0.161565,-0.04641 0.310276,-0.169455 0.25972,-0.214939 z m 11.883107,0.01322 c -0.07033,-0.0017 -0.10244,0.0078 -0.10244,0.02806 0,0.06833 0.07443,0.115557 0.280358,0.177803 0.09912,0.02996 0.198202,0.06717 0.220228,0.08272 0.06929,0.04894 0.790836,0.277646 0.87798,0.278288 0.04575,3.34e-4 0.110215,0.01808 0.143255,0.03944 0.03304,0.02135 0.119769,0.0391 0.19275,0.03943 0.124911,5.79e-4 0.131958,-0.0068 0.120144,-0.125549 -0.01668,-0.167724 -0.153718,-0.261854 -0.453045,-0.311113 -0.132156,-0.02175 -0.393499,-0.06864 -0.58072,-0.104221 -0.357893,-0.06801 -0.58129,-0.102042 -0.69851,-0.104855 z m -3.053757,0.523466 c 0.502265,0.03153 0.922311,0.07205 0.933453,0.09008 0.01114,0.01803 0.05368,0.03282 0.09457,0.03282 0.113893,0 0.375264,0.324263 0.431833,0.535767 0.0274,0.102434 0.04982,0.388717 0.04984,0.636195 2.3e-5,0.247476 0.02685,1.026577 0.05961,1.731412 0.03276,0.704835 0.06425,1.768132 0.07002,2.362836 0.01033,1.066943 0.0093,1.083609 -0.0833,1.257099 -0.112122,0.210191 -0.295221,0.387535 -0.486905,0.471555 -0.302761,0.132709 -0.964802,0.247201 -2.182619,0.3775086 -0.431178,0.04613 -2.989239,0.09746 -3.025991,0.0607 -0.01221,-0.01221 -0.255402,-0.0426 -0.540481,-0.06754 C 5.47215,9.9001574 4.682888,9.7576474 4.394274,9.5890474 4.21343,9.4834024 4.075938,9.3206384 3.968938,9.0856434 c -0.0792,-0.173938 -0.08797,-0.849816 -0.02541,-1.956239 0.02179,-0.385457 0.05762,-1.196402 0.07962,-1.80212 0.07699,-2.119322 0.07755,-2.126524 0.171192,-2.317366 0.09043,-0.184287 0.2491,-0.324418 0.448848,-0.396305 0.406963,-0.146464 4.917267,-0.208132 6.760209,-0.09243 z m 2.708498,0.335256 a 0.16809239,0.16809239 0 0 1 0.168031,0.168031 0.16809239,0.16809239 0 0 1 -0.168031,0.168089 0.16809239,0.16809239 0 0 1 -0.168146,-0.168089 0.16809239,0.16809239 0 0 1 0.168146,-0.168031 z m -5.658609,0.268171 c -3.408667,0 -3.729834,0.0057 -3.796875,0.06634 -0.06943,0.06283 -0.07329,0.193865 -0.07329,2.525578 0,1.618705 0.01422,2.485805 0.0415,2.536789 0.04054,0.07575 0.125517,0.07749 3.843151,0.07749 3.745375,0 3.802289,-0.0012 3.844015,-0.0791 0.02881,-0.05382 0.03886,-0.868382 0.03144,-2.546273 -0.01056,-2.389307 -0.01335,-2.468932 -0.08864,-2.523969 -0.06581,-0.04811 -0.649055,-0.05685 -3.801302,-0.05685 z m -6.640695,1.308146 h 0.60797 v 0.697533 h 0.695289 v 0.566407 H 2.420558 v 0.711845 H 1.812588 V 5.6966924 H 1.099017 v -0.566407 h 0.713571 z m 13.672638,0.242418 a 0.49816471,0.49816471 0 0 1 0.498171,0.498171 0.49816471,0.49816471 0 0 1 -0.498171,0.498171 0.49816471,0.49816471 0 0 1 -0.498114,-0.498171 0.49816471,0.49816471 0 0 1 0.498114,-0.498171 z m -1.501758,0.540653 a 0.49816471,0.49816471 0 0 1 0.498172,0.498172 0.49816471,0.49816471 0 0 1 -0.498172,0.498171 0.49816471,0.49816471 0 0 1 -0.498113,-0.498171 0.49816471,0.49816471 0 0 1 0.498113,-0.498172 z m 1.380751,1.924047 c 0.02217,-9.23e-4 0.03173,0.0135 0.03173,0.04455 0,0.03708 -0.04591,0.07313 -0.110143,0.08658 -0.197752,0.04138 -0.467716,0.103004 -0.610728,0.139345 -0.07709,0.01959 -0.194217,0.04648 -0.260296,0.05973 -0.06608,0.01325 -0.201245,0.04223 -0.300363,0.0645 -0.303249,0.06812 -0.504679,0.08761 -0.460518,0.0445 0.03986,-0.03892 0.881358,-0.252804 1.441685,-0.366414 0.0881,-0.01787 0.191741,-0.04582 0.230288,-0.06214 0.01556,-0.0066 0.02827,-0.01022 0.03834,-0.01063 z m -0.01512,0.398434 c 0.02912,-5.9e-5 0.04685,0.0076 0.04685,0.02236 0,0.02209 -0.04957,0.04975 -0.110143,0.06146 -0.06057,0.0117 -0.182193,0.04109 -0.270298,0.06525 -0.158214,0.04339 -0.368663,0.09378 -0.680804,0.163029 -0.0881,0.01955 -0.23232,0.0537 -0.320425,0.07594 -0.354526,0.08951 -0.380383,0.09303 -0.380383,0.0511 0,-0.06083 0.04722,-0.08255 0.287256,-0.132045 0.11734,-0.0242 0.285381,-0.05924 0.373485,-0.07789 0.0881,-0.01866 0.250305,-0.05263 0.360436,-0.07548 0.11013,-0.02285 0.272331,-0.05891 0.360435,-0.08008 0.0881,-0.02118 0.209726,-0.05033 0.270298,-0.0649 0.02421,-0.0058 0.04583,-0.0087 0.06329,-0.0088 z M 3.316356,7.5792844 A 0.23648172,0.2343011 0 0 1 3.552852,7.8135964 0.23648172,0.2343011 0 0 1 3.316356,8.0479094 0.23648172,0.2343011 0 0 1 3.07986,7.8135964 0.23648172,0.2343011 0 0 1 3.316356,7.5792844 Z m 12.040504,0.318414 c 0.04274,-8.23e-4 0.03909,0.01868 0.03909,0.0526 0,0.03845 -0.03866,0.06008 -0.107326,0.06008 -0.05901,0 -0.162587,0.01783 -0.230231,0.03961 -0.06764,0.02178 -0.35727,0.09436 -0.64361,0.161247 -0.286339,0.06689 -0.570083,0.137533 -0.630561,0.157051 -0.06048,0.01952 -0.118821,0.02115 -0.129688,0.0036 -0.03096,-0.0501 0.06631,-0.109506 0.219654,-0.134172 0.226278,-0.0364 0.469936,-0.09183 0.981108,-0.223217 0.314928,-0.08094 0.446608,-0.115693 0.501564,-0.116753 z m -0.0093,0.360608 c 0.05132,0.0023 0.0669,0.02992 0.02231,0.0745 -0.02241,0.02241 -0.138357,0.05894 -0.257651,0.08116 -0.315488,0.0588 -0.572768,0.118075 -1.097977,0.252823 -0.277423,0.07118 -0.380384,0.079 -0.380384,0.02897 0,-0.01953 0.04951,-0.04443 0.110086,-0.0553 0.15039,-0.027 0.922417,-0.221074 1.074121,-0.270011 0.06764,-0.02182 0.156482,-0.03966 0.197406,-0.03966 0.04093,0 0.133779,-0.02147 0.206374,-0.04772 0.05123,-0.01852 0.09493,-0.02619 0.125721,-0.02477 z M 3.316312,8.5404474 a 0.23648172,0.2343011 0 0 1 0.236496,0.234254 0.23648172,0.2343011 0 0 1 -0.236496,0.234311 0.23648172,0.2343011 0 0 1 -0.236496,-0.234311 0.23648172,0.2343011 0 0 1 0.236496,-0.234254 z m 12.031363,0.11796 c 0.03611,-8.29e-4 0.0441,0.007 0.03489,0.0219 -0.01417,0.02292 -0.07545,0.05172 -0.136298,0.06392 -0.06084,0.0122 -0.191761,0.04227 -0.290879,0.06686 -0.21072,0.05227 -0.452219,0.106497 -0.690806,0.155097 -0.09361,0.01906 -0.197249,0.0446 -0.230288,0.05674 -0.03304,0.01214 -0.141115,0.03351 -0.240232,0.04749 -0.133849,0.01887 -0.168636,0.01381 -0.135092,-0.01978 0.04556,-0.0456 0.18838,-0.0873 0.555542,-0.161995 0.11013,-0.0224 0.276827,-0.05792 0.370438,-0.07899 0.467778,-0.105281 0.683273,-0.149421 0.762721,-0.151245 z M 4.345939,11.659565 v 1.785622 1.785564 H 6.131504 7.917069 V 14.151572 13.072335 H 7.171479 6.425831 v 0.372852 0.372795 h 0.353192 0.353193 v 0.31393 0.313987 H 6.465094 5.797915 V 13.445187 12.444475 H 6.857491 7.917069 V 12.05202 11.659565 h -1.78556 z m 4.35604,0 v 1.785622 1.785564 h 1.785564 1.785565 v -0.714834 -0.714836 l -0.176711,-0.17947 -0.176769,-0.179414 0.176769,-0.173492 0.176711,-0.173434 v -0.717824 -0.717882 h -1.785565 z m 4.395245,0 v 1.785622 1.785564 h 0.726044 0.725988 v -0.706384 -0.706385 h 0.667122 0.66718 v 0.706385 0.706384 h 0.392397 0.392456 V 13.445187 11.659565 H 14.882846 Z M 0.26456704,12.36595 v 1.43243 1.432371 h 0.588654 0.58865396 v -1.118442 -1.118442 h 0.255121 0.255065 v 1.118442 1.118442 h 0.294327 0.294327 v -1.118442 -1.118442 h 0.255064 0.255122 v 1.118442 1.118442 H 3.36483 3.67876 V 13.79838 12.36595 H 1.971664 Z m 9.92864896,0.07852 h 0.667123 0.667179 v 0.313929 0.31393 h -0.667179 -0.667123 v -0.31393 z m 4.35604,0 h 0.667122 0.66718 v 0.313929 0.31393 h -0.66718 -0.667122 v -0.31393 z m -4.35604,1.373506 h 0.667123 0.667179 v 0.31393 0.313987 h -0.667179 -0.667123 v -0.313987 z"
     class="ColorScheme-Text" />
</svg>
