<?xml version='1.0' encoding='UTF-8'?>
<svg xmlns:inkscape="http://www.inkscape.org/namespaces/inkscape" xmlns:sodipodi="http://sodipodi.sourceforge.net/DTD/sodipodi-0.dtd" xmlns="http://www.w3.org/2000/svg" xmlns:svg="http://www.w3.org/2000/svg" xmlns:rdf="http://www.w3.org/1999/02/22-rdf-syntax-ns#" xmlns:cc="http://creativecommons.org/ns#" xmlns:dc="http://purl.org/dc/elements/1.1/" width="64" height="64" version="1.1" viewBox="0 0 16.933 16.933" id="svg7" sodipodi:docname="microsoft-edge.svg" inkscape:version="1.4 (e7c3feb100, 2024-10-09)">
  <sodipodi:namedview id="namedview7" pagecolor="#9c4444" bordercolor="#000000" borderopacity="0.25" inkscape:showpageshadow="2" inkscape:pageopacity="0.0" inkscape:pagecheckerboard="0" inkscape:deskcolor="#d1d1d1" inkscape:zoom="6.15625" inkscape:cx="15.837563" inkscape:cy="29.725888" inkscape:window-width="1183" inkscape:window-height="941" inkscape:window-x="35" inkscape:window-y="32" inkscape:window-maximized="0" inkscape:current-layer="svg7" showgrid="false"/>
  <defs id="defs2">
    <style id="current-color-scheme" type="text/css">.ColorScheme-Text {color:#d8dee9} .ColorScheme-Highlight {color:#3b4252}</style></defs>
  <metadata id="metadata2">
    <rdf:RDF>
      <cc:Work rdf:about="">
        <dc:format>image/svg+xml</dc:format>
        <dc:type rdf:resource="http://purl.org/dc/dcmitype/StillImage"/>
      </cc:Work>
    </rdf:RDF>
  </metadata>
  <path id="path127" style="fill:currentColor;fill-opacity:1;stroke:none;stroke-width:0.463862;stroke-dasharray:none;stroke-dashoffset:2.2;stroke-opacity:0.3" d="M 8.4449397,1.3774059 C 7.9661492,1.3768615 7.4964669,1.4039012 7.1783779,1.4598505 5.7450792,1.7119698 4.4098221,2.4157074 3.3388297,3.4829049 2.5154982,4.3033215 1.9385607,5.2303733 1.5857558,6.2996012 1.3033586,7.1554539 1.2999238,7.2848574 1.5721617,6.749874 2.077399,5.7570265 2.8517685,4.9726377 3.7954387,4.4976052 4.5270835,4.1293041 4.9476507,4.0383929 5.9208708,4.0409904 c 2.4595508,0.00654 4.0120913,0.919892 4.4048802,2.5902001 0.109011,0.4635768 0.08509,1.5995083 -0.03986,1.8880648 -0.04441,0.1025639 -0.111398,0.2823229 -0.149488,0.3995373 -0.03809,0.1172148 -0.1615758,0.3556758 -0.274512,0.5299985 -0.1129379,0.1743212 -0.2056575,0.3329028 -0.2056575,0.3524265 0,0.019521 0.049936,0.099389 0.1114369,0.1775721 0.221167,0.2811693 0.8868046,0.5334113 1.6271406,0.6160653 1.093606,0.122111 1.959994,-0.06247 2.767778,-0.589793 C 15.33869,9.2372958 15.772293,8.3312223 15.621215,6.9582495 15.54839,6.2965102 15.416165,5.8636849 15.077627,5.1888684 14.725456,4.4868723 14.46649,4.114984 13.97686,3.6024949 12.903386,2.4789058 11.423402,1.7265643 9.7685745,1.4634742 9.4114944,1.4066949 8.9237268,1.3779876 8.4449365,1.3774059 Z m -3.285993,3.0957365 c -0.3345974,-0.00355 -0.4667238,0.020822 -0.7311268,0.100567 -1.460865,0.4405847 -2.6566562,1.9702623 -2.8755845,3.6773774 -0.100757,0.7856506 0.056151,2.0214722 0.3805119,2.9969862 0.7586183,2.281542 2.5086462,3.928453 4.6069144,4.336022 0.3392311,0.06587 0.5669543,0.06701 1.8907821,0.01254 0.043956,-0.0021 0.332562,0.01539 0.6414349,0.03718 0.6378997,0.04537 1.0466373,-0.0091 1.6869353,-0.22287 1.317434,-0.440365 2.691789,-1.449995 3.497091,-2.568456 0.314518,-0.436833 0.351405,-0.540024 0.229212,-0.641434 -0.05672,-0.04704 -0.13623,-0.01672 -0.356958,0.134976 -0.156142,0.107407 -0.428718,0.260195 -0.606102,0.339744 -0.56157,0.251781 -0.828013,0.292169 -1.894409,0.288038 -0.916721,-0.0036 -1.018992,-0.01367 -1.464969,-0.149482 C 9.2110294,12.524377 8.4612088,12.065124 7.7899149,11.362227 7.3191171,10.869264 7.0426373,10.436519 6.834106,9.8646411 6.4945076,8.9333264 6.5136292,8.0829543 6.8848385,7.561637 7.0588618,7.3172446 7.0116198,7.324727 6.6674034,7.5951526 5.920373,8.1820529 5.343565,9.0511133 5.0384497,10.048549 c -0.125799,0.411239 -0.144058,0.560426 -0.145863,1.214924 -0.00239,0.851522 0.06562,1.167243 0.398631,1.864503 0.2626978,0.550043 0.6813272,1.091824 1.14516,1.482185 0.3841973,0.32334 1.1356325,0.731038 1.5945277,0.864308 L 8.2972635,15.551438 7.913128,15.52518 C 6.2839472,15.412424 4.9376269,14.095755 4.5655271,12.252798 4.4338358,11.600545 4.4794355,10.577747 4.6688088,9.9425468 5.0648636,8.6140919 5.9799692,7.4849125 6.9917452,7.0778349 7.454081,6.8918184 8.1205077,7.074606 8.4820834,7.4864322 8.6947059,7.7285961 8.906984,8.1681791 8.9160479,8.3860719 8.929689,8.7140434 9.0107618,8.1342752 9.0129878,7.6929967 9.0192499,6.449556 8.4644875,5.4415821 7.497282,4.9379076 6.9028891,4.6283756 6.4355198,4.5185657 5.5729784,4.4849163 5.4039988,4.4783277 5.2704771,4.4743331 5.158945,4.4731359 Z" class="ColorScheme-Text"/>
  </svg>
