<?xml version="1.0" encoding="UTF-8" standalone="no"?>
<svg
   width="64"
   height="64"
   version="1.1"
   viewBox="0 0 16.933 16.933"
   id="svg7"
   sodipodi:docname="io.github.sharkwouter.Minigalaxy.svg"
   inkscape:version="1.4.3 (0d15f75042, 2025-12-25)"
   xmlns:inkscape="http://www.inkscape.org/namespaces/inkscape"
   xmlns:sodipodi="http://sodipodi.sourceforge.net/DTD/sodipodi-0.dtd"
   xmlns="http://www.w3.org/2000/svg"
   xmlns:svg="http://www.w3.org/2000/svg"
   xmlns:rdf="http://www.w3.org/1999/02/22-rdf-syntax-ns#"
   xmlns:cc="http://creativecommons.org/ns#"
   xmlns:dc="http://purl.org/dc/elements/1.1/">
  <sodipodi:namedview
     id="namedview7"
     pagecolor="#9c4444"
     bordercolor="#000000"
     borderopacity="0.25"
     inkscape:showpageshadow="2"
     inkscape:pageopacity="0.0"
     inkscape:pagecheckerboard="0"
     inkscape:deskcolor="#d1d1d1"
     inkscape:zoom="6.15625"
     inkscape:cx="57.258883"
     inkscape:cy="38.010152"
     inkscape:window-width="2560"
     inkscape:window-height="1388"
     inkscape:window-x="0"
     inkscape:window-y="0"
     inkscape:window-maximized="1"
     inkscape:current-layer="svg7"
     showgrid="false" />
  <defs
     id="defs2">
    <style
       id="current-color-scheme"
       type="text/css">.ColorScheme-Text {color:#d8dee9} .ColorScheme-Highlight {color:#3b4252}</style>
  </defs>
  <metadata
     id="metadata2">
    <rdf:RDF>
      <cc:Work
         rdf:about="">
        <dc:format>image/svg+xml</dc:format>
        <dc:type
           rdf:resource="http://purl.org/dc/dcmitype/StillImage" />
      </cc:Work>
    </rdf:RDF>
  </metadata>
  <path
     id="path5"
     style="fill:currentColor"
     d="m 8.4020617,1.4568175 c -0.08452,0.0033 -0.1594,0.01169 -0.221897,0.0257 -1.138644,0.255177 -1.521259,0.383836 -1.993701,0.670829 -0.900211,0.54685 -1.515468,1.389469 -1.846775,2.529125 -0.132269,0.454988 -0.147614,0.787775 -0.102264,2.21932 0.02974,0.938851 0.113663,1.965164 0.18964,2.31928 0.183852,0.8569015 0.177672,0.9441305 -0.07497,1.0401855 -0.119924,0.04559 -0.236463,0.115986 -0.258938,0.156497 -0.09714,0.17508 0.149033,0.698634 0.487924,1.037525 0.375356,0.375356 0.4178,0.532906 0.0973,0.36138 -0.277752,-0.148648 -0.656719,-0.641753 -0.714251,-0.929413 -0.0616,-0.307992 -0.113041,-0.318722 -0.372014,-0.07745 -0.123597,0.115148 -0.174481,0.240304 -0.138419,0.340289 0.209961,0.582139 1.091098,1.270134 1.40883,1.100089 0.09729,-0.05207 0.18716,-0.08103 0.199742,-0.06451 0.01258,0.01652 0.115923,0.32495 0.229695,0.68554 0.113772,0.36059 0.256587,0.696903 0.317426,0.747395 0.238966,0.198324 0.947805,0.389399 1.683011,0.453718 1.072833,0.09386 1.193183,0.09452 2.268591,0.01134 0.6429683,-0.04973 1.1024173,-0.13811 1.4127293,-0.271699 0.451151,-0.19422 0.463654,-0.210311 0.66374,-0.851785 0.112169,-0.359612 0.222105,-0.709517 0.244406,-0.777525 0.03244,-0.09892 0.06767,-0.101127 0.175638,-0.01152 0.203928,0.169246 0.617245,-0.03824 1.045679,-0.524966 0.40426,-0.459263 0.454484,-0.760379 0.161282,-0.965746 -0.190577,-0.133486 -0.2031,-0.125546 -0.31388,0.199034 -0.115917,0.339633 -0.812668,1.084972 -0.91683,0.98081 -0.03065,-0.03065 0.06817,-0.187871 0.219415,-0.349327 0.39615,-0.42288 0.574592,-0.714352 0.574592,-0.938452 0,-0.229065 -0.417357,-0.554509 -0.479595,-0.373963 -0.05,0.145055 0.0041,-0.147988 0.222251,-1.2043035 0.215018,-1.041077 0.332834,-2.744183 0.242456,-3.504618 -0.185459,-1.56044 -1.045477,-2.944141 -2.201773,-3.542724 -0.555966,-0.287808 -1.6174273,-0.513247 -2.2090413,-0.490051 z m -0.07727,0.297753 c 0.203204,-0.01016 0.412927,-0.0091 0.62918,0.0032 0.684607,0.03897 0.89576,0.09309 1.4687343,0.376268 1.781403,0.880417 2.546142,3.008051 2.090472,5.815391 -0.07529,0.463851 -0.18789,0.856105 -0.261242,0.909741 -0.07092,0.05186 -0.144293,0.174898 -0.163055,0.273471 -0.02831,0.148753 -0.157446,0.198125 -0.75927,0.290486 -0.840283,0.128957 -4.8441963,0.222832 -5.5798473,0.130799 -0.585462,-0.07324 -0.725949,-0.14639 -0.725949,-0.37733 0,-0.105937 -0.07539,-0.180591 -0.200452,-0.19868 -0.294664,-0.04262 -0.369082,-0.50136 -0.379989,-2.343029 -0.01048,-1.769386 0.07325,-2.176232 0.625104,-3.039912 0.734186,-1.149044 1.833882,-1.769273 3.256314,-1.840394 z m 0.197084,0.525143 c -0.120024,-0.0011 -0.240869,0.01633 -0.327174,0.04945 -0.03336,0.0128 -0.0515,0.02997 -0.06363,0.05087 -0.01213,0.02089 -0.01803,0.04746 -0.01506,0.07976 0.0059,0.06459 0.05106,0.148839 0.142673,0.209668 0.188899,0.125424 0.225339,0.238142 0.168904,0.538967 -0.05962,0.317811 -0.133847,0.39345 -0.505825,0.491292 -0.673581,0.177174 -1.216789,0.424781 -1.637816,0.744559 -0.421028,0.319778 -0.721006,0.711038 -0.911513,1.184098 -0.09944,0.246926 -0.14968,0.398857 -0.178298,0.674197 -0.02862,0.27534 -0.03332,0.674319 -0.03332,1.391107 0,0.427326 0.0075,0.823448 0.01949,1.11604 0.006,0.146297 0.0132,0.266944 0.02092,0.351278 0.0037,0.04048 0.0077,0.07272 0.01116,0.09376 0.01099,0.004 0.0256,0.0087 0.04289,0.01365 0.0458,0.01311 0.110279,0.02811 0.185209,0.04271 0.09991,0.01947 0.218963,0.03856 0.342061,0.05406 0.3688,0.04642 1.548833,0.05105 2.723905,0.02446 1.175071,-0.02659 2.3662063,-0.08431 2.7639593,-0.148699 l 0.60986,-0.09872 0.07178,-0.881383 c 0.13241,-1.625231 -0.149136,-2.821726 -0.819528,-3.58526 -0.196282,-0.223552 -0.39634,-0.392589 -0.646372,-0.535955 -0.250031,-0.143366 -0.5511013,-0.260849 -0.9469593,-0.375026 -0.313394,-0.09039 -0.509603,-0.148051 -0.625458,-0.2281 -0.1263,-0.08727 -0.159864,-0.198197 -0.19921,-0.36457 -0.07636,-0.322873 -0.04674,-0.420366 0.164295,-0.591251 0.0437,-0.03539 0.07563,-0.06375 0.09518,-0.08472 0.01954,-0.02097 0.02489,-0.03329 0.02535,-0.03491 v -1.81e-4 c -1.82e-4,-3.78e-4 -3.78e-4,-0.0011 -7.21e-4,-0.0021 -0.0022,-0.0071 -0.01546,-0.03088 -0.04395,-0.06522 -0.01339,-0.01613 -0.05206,-0.04263 -0.10829,-0.06292 -0.08435,-0.03044 -0.204505,-0.04979 -0.324515,-0.05087 z m 0.124241,1.896223 c 0.188845,0.0068 0.376273,0.04244 0.555627,0.109708 1.9064013,0.715052 1.9308203,3.487967 0.0296,4.057587 -0.874973,0.262148 -1.694914,0.03828 -2.295885,-0.628293 -0.586678,-0.650716 -0.702271,-1.453073 -0.326819,-2.259375 0.374327,-0.803887 1.221915,-1.308958 2.037477,-1.279627 z m -0.0833,0.190349 c -1.136479,0 -1.99246,0.838116 -1.99246,1.950988 0,0.853085 0.570893,1.656465 1.355128,1.907212 1.286982,0.411491 2.5571403,-0.506659 2.5652803,-1.854396 0.0037,-0.613005 -0.167197,-1.045922 -0.5737053,-1.45243 -0.393131,-0.393132 -0.781962,-0.551374 -1.354243,-0.551374 z m -0.03633,0.453718 c 1.6551993,0 2.1483763,2.15032 0.666576,2.906278 -0.451329,0.230251 -0.851518,0.226613 -1.334393,-0.01241 -0.556056,-0.275243 -0.779306,-0.634514 -0.82325,-1.324645 -0.03837,-0.602651 0.0073,-0.662362 0.362088,-0.472505 0.436524,0.23362 0.949798,-0.28857 0.714961,-0.727367 -0.148538,-0.277545 -0.04557,-0.369355 0.414018,-0.369355 z m 1.6688323,3.569132 c 0.03468,6.99e-4 0.06968,0.0052 0.100492,0.01719 0.05502,0.0215 0.13846,0.05548 0.149939,0.139305 0.0088,0.06397 -0.03279,0.116173 -0.06682,0.151535 -0.0352,0.03658 -0.09267,0.08475 -0.157915,0.137179 -0.153387,0.123261 -0.4334723,0.26767 -0.6314843,0.326996 -0.425154,0.12738 -1.677635,0.122952 -2.139565,-0.0016 -0.342246,-0.09228 -0.711194,-0.295655 -0.756965,-0.511142 -0.01394,-0.06564 0.0027,-0.130485 0.05317,-0.181133 0.125495,-0.125914 0.292789,-0.09268 0.662322,0.06629 0.294837,0.126835 0.701401,0.194101 1.107001,0.194602 0.4056,5.01e-4 0.811343,-0.0658 1.104166,-0.191767 0.194334,-0.0836 0.4011293,-0.14108 0.5412723,-0.147104 0.0113,-4.9e-4 0.02282,-5.89e-4 0.03438,-3.54e-4 z m -5.0031293,0.856925 v 1.81e-4 h 1.81e-4 v -1.81e-4 z m 0.02286,0.02304 c 1.64e-4,8.17e-4 2e-4,0.0014 3.43e-4,0.0021 2.09e-4,9.54e-4 5.15e-4,0.0019 7.2e-4,0.0027 1.64e-4,7.28e-4 2.18e-4,0.0013 3.43e-4,0.0018 v 1.82e-4 l 1.82e-4,1.81e-4 v 1.82e-4 c 3.1e-5,9e-5 1.45e-4,2.72e-4 1.81e-4,3.63e-4 v 1.82e-4 l 1.82e-4,1.81e-4 h 1.82e-4 v 1.82e-4 l 1.81e-4,1.81e-4 h 1.81e-4 l 1.82e-4,1.82e-4 1.81e-4,1.81e-4 1.82e-4,1.82e-4 c 3.5e-5,1.7e-5 4.11e-4,9e-5 5.48e-4,1.81e-4 l 1.82e-4,1.82e-4 h 1.82e-4 1.81e-4 l 1.82e-4,-1.82e-4 1.81e-4,-1.81e-4 v -1.82e-4 -1.81e-4 -1.82e-4 c -1.27e-4,-0.0013 -0.0012,-0.0039 -0.0044,-0.0081 z m -0.55421,0.9955225 c 0.04991,0 0.09074,0.102086 0.09074,0.226859 0,0.237572 -0.02102,0.266452 -0.121051,0.166422 -0.09413,-0.09413 -0.07107,-0.393281 0.030311,-0.393281 z m 5.3471403,0.540385 0.142674,0.275953 c 0.123618,0.23905 0.128291,0.381772 0.03474,1.068187 -0.160816,1.179928 -0.14345,1.154721 -0.8836873,1.276968 -0.865093,0.142867 -1.408906,0.122672 -2.198761,-0.08171 l -0.325586,-0.08436 -0.164296,-0.958834 c -0.162603,-0.948649 -0.162486,-0.961597 0.01755,-1.202885 l 0.182019,-0.243874 1.597584,-0.02481 z m -1.6266503,0.185564 c -1.265636,0 -1.531971,0.0229 -1.575076,0.135229 -0.06227,0.162271 0.131399,0.216638 0.894498,0.250963 0.620095,0.02789 1.807119,-0.0145 2.106599,-0.07515 0.133023,-0.02694 0.183393,-0.08633 0.149055,-0.175815 -0.0431,-0.11233 -0.309441,-0.13523 -1.575076,-0.13523 z m 5.3331383,0.103327 c -0.04411,0.0017 -0.07009,0.06532 -0.102087,0.19159 -0.06367,0.251238 -0.635416,0.849912 -0.983823,1.030081 -0.214627,0.110988 -0.24204,0.162012 -0.164651,0.306614 0.08735,0.163207 0.112889,0.16524 0.432451,0.03403 0.38957,-0.159957 0.887393,-0.602537 1.070491,-0.951922 0.111048,-0.211901 0.10632,-0.261037 -0.04112,-0.431033 -0.104854,-0.120898 -0.167151,-0.181092 -0.211263,-0.17936 z m -10.4934733,0.08348 c -0.06206,0.0022 -0.153572,0.07849 -0.247418,0.221719 -0.142426,0.21737 -0.138178,0.241121 0.100491,0.554032 0.137141,0.1798 0.435745,0.44518 0.663563,0.589657 0.45916,0.291191 0.563994,0.313489 0.723645,0.153839 0.162869,-0.16287 0.135607,-0.221108 -0.161105,-0.344011 -0.317398,-0.13147 -1.000485,-0.843234 -1.000485,-1.042489 0,-0.09149 -0.03042,-0.134476 -0.078691,-0.132747 z m 5.15431,0.395231 c -0.944954,0 -1.717995,0.0018 -1.717926,0.0039 0.0033,0.103809 0.277809,1.537053 0.298284,1.557529 0.01649,0.01649 0.190759,0.06769 0.387433,0.113784 0.509979,0.11952 1.745398,0.107426 2.17253,-0.02127 0.358995,-0.108164 0.363694,-0.115149 0.427488,-0.650802 0.03547,-0.297857 0.0838,-0.645482 0.1074033,-0.772384 l 0.04289,-0.230758 z m 5.8779543,0.10315 -0.145508,0.221896 c -0.240546,0.366571 -0.757583,0.813339 -1.073682,0.927641 -0.349084,0.126231 -0.353403,0.149209 -0.113785,0.6189 0.18217,0.357082 0.186723,0.35943 0.716557,0.35943 0.496779,0 0.552533,-0.02195 0.814919,-0.320793 0.239315,-0.272564 0.281221,-0.391868 0.27879,-0.794007 -0.0023,-0.378454 -0.05032,-0.527297 -0.239975,-0.743141 z m -11.6008303,0.09836 -0.217643,0.266204 c -0.365413,0.447026 -0.292927,1.15325 0.16784,1.636753 0.139554,0.146441 0.304918,0.19472 0.70858,0.206832 l 0.526562,0.01577 0.184677,-0.362088 c 0.101579,-0.199109 0.184678,-0.398235 0.184678,-0.442552 0,-0.04432 -0.16639,-0.155556 -0.36971,-0.247241 -0.203319,-0.09168 -0.553101,-0.370726 -0.777346,-0.620141 z m 8.8141853,2.039782 -0.386192,0.170676 c -0.47384,0.209602 -1.4436203,0.374094 -1.7934283,0.304132 -0.232376,-0.04647 -0.25337,-0.03124 -0.205945,0.150117 0.05073,0.194009 0.0851,0.200378 0.878901,0.161283 0.9723053,-0.04789 1.5066643,-0.254061 1.5066643,-0.581327 z m -5.9890803,0.02127 v 0.211085 c 0,0.116095 0.01184,0.211085 0.02623,0.211085 0.0144,0 0.249193,0.08028 0.521776,0.178297 0.435292,0.156525 1.811328,0.267995 1.811328,0.14675 0,-0.02087 0.02482,-0.102543 0.05512,-0.181488 0.04688,-0.122159 -0.03759,-0.143867 -0.567147,-0.145863 -0.405935,-0.0015 -0.835187,-0.07491 -1.234787,-0.211085 z m 0.155965,0.715138 c -0.01597,-5.49e-4 -0.02665,0.0011 -0.03066,0.0051 -0.100067,0.100066 0.09527,0.322991 0.356417,0.406928 0.528642,0.169913 1.786869,0.112762 1.786869,-0.08117 0,-0.04367 -0.284396,-0.0794 -0.632015,-0.0794 -0.347619,0 -0.821169,-0.06422 -1.052236,-0.142674 -0.187742,-0.06374 -0.359161,-0.106501 -0.428374,-0.10882 z m 5.6721873,0.02428 c -0.06346,-9.1e-5 -0.172966,0.03118 -0.341706,0.09127 -0.197726,0.07042 -0.675899,0.129852 -1.0626943,0.132039 -0.681169,0.0038 -0.961397,0.134178 -0.453718,0.211085 0.8356213,0.126586 1.8034553,-0.0125 1.9036673,-0.273648 0.04173,-0.108747 0.03604,-0.160626 -0.04555,-0.160751 z m -5.4967253,0.559173 c -0.038,0.0013 -0.0592,0.01316 -0.0592,0.0358 0,0.04731 -0.0014,0.116585 -0.003,0.154017 -0.0016,0.03743 0.151477,0.09385 0.340288,0.125481 0.336128,0.0563 1.456485,0.0043 1.591027,-0.07391 0.215984,-0.12554 -0.01776,-0.17543 -0.650979,-0.138774 -0.39682,0.02297 -0.84418,-0.0019 -0.998181,-0.05565 -0.09445,-0.03293 -0.171093,-0.04864 -0.219947,-0.04697 z m 5.2952103,0.0099 c -0.05571,0.0015 -0.12083,0.01333 -0.190881,0.03775 -0.152388,0.05313 -0.60008,0.07797 -0.9948123,0.05512 -0.576194,-0.03335 -0.698598,-0.01864 -0.621204,0.07461 0.05302,0.06389 0.266761,0.132388 0.474986,0.152244 0.4839953,0.04615 1.3532573,-0.02535 1.4550893,-0.119632 0.126077,-0.116728 0.04394,-0.204645 -0.123178,-0.200098 z"
     class="ColorScheme-Text" />
</svg>
