<?xml version="1.0" encoding="UTF-8" standalone="no"?>
<svg
   width="64"
   height="64"
   version="1.1"
   viewBox="0 0 16.933 16.933"
   id="svg7"
   sodipodi:docname="multimedia-photo-viewer.svg"
   inkscape:version="1.4.3 (0d15f75042, 2025-12-25)"
   xmlns:inkscape="http://www.inkscape.org/namespaces/inkscape"
   xmlns:sodipodi="http://sodipodi.sourceforge.net/DTD/sodipodi-0.dtd"
   xmlns="http://www.w3.org/2000/svg"
   xmlns:svg="http://www.w3.org/2000/svg"
   xmlns:rdf="http://www.w3.org/1999/02/22-rdf-syntax-ns#"
   xmlns:cc="http://creativecommons.org/ns#"
   xmlns:dc="http://purl.org/dc/elements/1.1/">
  <sodipodi:namedview
     id="namedview7"
     pagecolor="#9c4444"
     bordercolor="#000000"
     borderopacity="0.25"
     inkscape:showpageshadow="2"
     inkscape:pageopacity="0.0"
     inkscape:pagecheckerboard="0"
     inkscape:deskcolor="#d1d1d1"
     inkscape:zoom="4.3531261"
     inkscape:cx="25.843497"
     inkscape:cy="52.605873"
     inkscape:window-width="2560"
     inkscape:window-height="1388"
     inkscape:window-x="0"
     inkscape:window-y="0"
     inkscape:window-maximized="1"
     inkscape:current-layer="svg7"
     showgrid="false" />
  <defs
     id="defs2">
    <style
       id="current-color-scheme"
       type="text/css">.ColorScheme-Text {color:#d8dee9} .ColorScheme-Highlight {color:#3b4252}</style>
  </defs>
  <metadata
     id="metadata2">
    <rdf:RDF>
      <cc:Work
         rdf:about="">
        <dc:format>image/svg+xml</dc:format>
        <dc:type
           rdf:resource="http://purl.org/dc/dcmitype/StillImage" />
      </cc:Work>
    </rdf:RDF>
  </metadata>
  <path
     id="path5"
     style="fill:currentColor"
     d="m 5.461649,1.4551797 c -0.553144,0 -1.001618,0.4484741 -1.001618,1.0016172 V 5.7120528 H 5.461649 V 2.7072012 c 0,-0.1382232 0.112181,-0.2504043 0.250404,-0.2504043 h 7.512128 c 0.138223,0 0.250405,0.1121811 0.250405,0.2504043 v 3.0048516 h 0.500809 c 0.174063,0 0.342157,0.025255 0.500808,0.072382 V 2.4567971 c 0,-0.5531431 -0.448474,-1.0016172 -1.001617,-1.0016172 z M 2.957605,5.4616484 c -0.210039,0 -0.389716,0.1292663 -0.464129,0.3125172 0.147817,-0.040412 0.303397,-0.062113 0.464129,-0.062113 H 3.892219 C 3.805659,5.5623334 3.643876,5.4616483 3.458414,5.4616483 Z m 0,0.5008087 c -0.82984,0 -1.502425,0.6725859 -1.502425,1.5024257 v 6.5105122 c 0,0.829839 0.672585,1.502425 1.502425,1.502425 h 11.01779 c 0.829839,0 1.502425,-0.672586 1.502425,-1.502425 V 7.4648828 c 0,-0.8298398 -0.672586,-1.5024257 -1.502425,-1.5024257 z m 5.759299,0.5008086 c 2.351046,0 4.256873,1.9058271 4.256873,4.2568733 0,2.351046 -1.905827,4.256873 -4.256873,4.256873 -2.351046,0 -4.256873,-1.905827 -4.256873,-4.256873 0,-2.3510462 1.905827,-4.2568733 4.256873,-4.2568733 z M 2.957605,6.9640743 c 0.276697,0 0.500809,0.2241118 0.500809,0.5008085 0,0.2766968 -0.224112,0.5008086 -0.500809,0.5008086 -0.276697,0 -0.500808,-0.2241118 -0.500808,-0.5008086 0,-0.2766967 0.224111,-0.5008085 0.500808,-0.5008085 z m 10.516981,0 h 0.500809 c 0.276696,0 0.500808,0.2241118 0.500808,0.5008085 0,0.2766968 -0.224112,0.5008086 -0.500808,0.5008086 h -0.500809 c -0.276696,0 -0.500809,-0.2241118 -0.500809,-0.5008086 0,-0.2766967 0.224113,-0.5008085 0.500809,-0.5008085 z M 8.716904,7.4648828 c -1.797903,0 -3.255255,1.4573531 -3.255255,3.2552562 0,1.797903 1.457352,3.255256 3.255255,3.255256 1.797903,0 3.255256,-1.457353 3.255256,-3.255256 0,-1.7979031 -1.457353,-3.2552562 -3.255256,-3.2552562 z m 0,1.0016173 c 1.24476,0 2.253639,1.0088788 2.253639,2.2536389 0,1.244759 -1.008879,2.253638 -2.253639,2.253638 -1.24476,0 -2.253638,-1.008879 -2.253638,-2.253638 0,-1.2447601 1.008878,-2.2536389 2.253638,-2.2536389 z"
     class="ColorScheme-Text" />
</svg>
