<?xml version='1.0' encoding='UTF-8'?>
<svg xmlns:inkscape="http://www.inkscape.org/namespaces/inkscape" xmlns:sodipodi="http://sodipodi.sourceforge.net/DTD/sodipodi-0.dtd" xmlns="http://www.w3.org/2000/svg" xmlns:svg="http://www.w3.org/2000/svg" xmlns:rdf="http://www.w3.org/1999/02/22-rdf-syntax-ns#" xmlns:cc="http://creativecommons.org/ns#" xmlns:dc="http://purl.org/dc/elements/1.1/" width="64" height="64" version="1.1" viewBox="0 0 16.933 16.933" id="svg7" sodipodi:docname="natron.svg" inkscape:version="1.4 (e7c3feb100, 2024-10-09)">
  <sodipodi:namedview id="namedview7" pagecolor="#9c4444" bordercolor="#000000" borderopacity="0.25" inkscape:showpageshadow="2" inkscape:pageopacity="0.0" inkscape:pagecheckerboard="0" inkscape:deskcolor="#d1d1d1" inkscape:zoom="6.15625" inkscape:cx="15.837563" inkscape:cy="27.28934" inkscape:window-width="1183" inkscape:window-height="941" inkscape:window-x="35" inkscape:window-y="32" inkscape:window-maximized="0" inkscape:current-layer="svg7" showgrid="false"/>
  <defs id="defs2">
    <style id="current-color-scheme" type="text/css">.ColorScheme-Text {color:#d8dee9} .ColorScheme-Highlight {color:#3b4252}</style></defs>
  <metadata id="metadata2">
    <rdf:RDF>
      <cc:Work rdf:about="">
        <dc:format>image/svg+xml</dc:format>
        <dc:type rdf:resource="http://purl.org/dc/dcmitype/StillImage"/>
      </cc:Work>
    </rdf:RDF>
  </metadata>
  <path style="fill:currentColor;fill-opacity:1;stroke-width:0.34505" d="m 12.399807,2.9788165 c -0.177536,-0.2970427 -0.363586,-0.540139 -0.365484,-0.540139 -0.0021,0 -0.0034,0.2805432 -0.0034,0.6234288 v 4.7796253 c 0,0.3428858 -0.106533,0.3806666 -0.284759,0.083997 L 8.8250708,2.9781097 C 8.6468465,2.6814405 8.2101613,2.4386775 7.8546614,2.4386775 H 5.5209383 c -0.3555008,0 -0.7916251,0.2430541 -0.9691588,0.540139 L 1.5709153,7.9665837 c -0.1775341,0.2970426 -0.1775341,0.783194 0,1.0802777 l 3.0314622,4.9877706 c 0.177536,0.297083 0.3634418,0.540136 0.365294,0.540136 0.00188,0 0.00338,-0.280542 0.00338,-0.62343 V 9.0885907 c 0,-0.3428866 0.1051726,-0.3799181 0.281545,-0.082169 l 2.9276781,5.0270443 c 0.1764207,0.297793 0.6115961,0.541302 0.9670969,0.541302 h 2.3336825 c 0.355502,0 0.791624,-0.243053 0.969162,-0.540098 L 15.43108,9.0468192 c 0.177536,-0.297042 0.177536,-0.783151 0,-1.0802361 z" id="path8-3" class="ColorScheme-Text"/>
</svg>
