<?xml version='1.0' encoding='UTF-8'?>
<svg xmlns:inkscape="http://www.inkscape.org/namespaces/inkscape" xmlns:sodipodi="http://sodipodi.sourceforge.net/DTD/sodipodi-0.dtd" xmlns="http://www.w3.org/2000/svg" xmlns:svg="http://www.w3.org/2000/svg" xmlns:rdf="http://www.w3.org/1999/02/22-rdf-syntax-ns#" xmlns:cc="http://creativecommons.org/ns#" xmlns:dc="http://purl.org/dc/elements/1.1/" width="64" height="64" version="1.1" viewBox="0 0 16.933 16.933" id="svg7" sodipodi:docname="net.sf.VICE.svg" inkscape:version="1.4 (e7c3feb100, 2024-10-09)">
  <sodipodi:namedview id="namedview7" pagecolor="#9c4444" bordercolor="#000000" borderopacity="0.25" inkscape:showpageshadow="2" inkscape:pageopacity="0.0" inkscape:pagecheckerboard="0" inkscape:deskcolor="#d1d1d1" inkscape:zoom="6.15625" inkscape:cx="15.837563" inkscape:cy="27.28934" inkscape:window-width="1183" inkscape:window-height="941" inkscape:window-x="35" inkscape:window-y="32" inkscape:window-maximized="0" inkscape:current-layer="svg7" showgrid="false"/>
  <defs id="defs2">
    <style id="current-color-scheme" type="text/css">.ColorScheme-Text {color:#d8dee9} .ColorScheme-Highlight {color:#3b4252}</style></defs>
  <metadata id="metadata2">
    <rdf:RDF>
      <cc:Work rdf:about="">
        <dc:format>image/svg+xml</dc:format>
        <dc:type rdf:resource="http://purl.org/dc/dcmitype/StillImage"/>
      </cc:Work>
    </rdf:RDF>
  </metadata>
  <g id="g7" transform="matrix(0.32982045,0,0,0.32982045,-2.328054,-2.0877544)" style="fill:currentColor;fill-opacity:1" class="ColorScheme-Text">
    <path style="fill:currentColor;fill-opacity:1" d="M 31.777778,15 C 22.204842,15 13,22.61116 13,32 13,41.38884 22.204842,49 31.777778,49 34.272032,48.9938 36.735524,48.459512 39,47.433918 v -8.5083 c -1.899302,1.909046 -4.502644,2.987206 -7.222222,2.991048 -5.584212,0 -11.555556,-4.439842 -11.555556,-9.916666 0,-5.476824 5.971344,-9.916666 11.555556,-9.916666 2.717932,9.3e-4 5.321036,1.075006 7.222222,2.97998 V 16.568848 C 36.735738,15.542303 34.272242,15.007168 31.777778,15 Z" id="path3-6" class="ColorScheme-Text"/>
    <path style="fill:currentColor;fill-opacity:1" d="m 39,25.063314 h 14.5 l -5.8,6 H 39 Z" id="path4" class="ColorScheme-Text"/>
    <path style="fill:currentColor;fill-opacity:1" d="M 39,39 H 53.5 L 47.7,33 H 39 Z" id="path5" class="ColorScheme-Text"/>
  </g>
</svg>
