<?xml version="1.0" encoding="UTF-8" standalone="no"?>
<svg
   id="svg3297"
   height="64"
   width="64"
   version="1.0"
   sodipodi:docname="net.nokyan.Resources.svg"
   inkscape:version="1.4.2 (ebf0e940d0, 2025-05-08)"
   xmlns:inkscape="http://www.inkscape.org/namespaces/inkscape"
   xmlns:sodipodi="http://sodipodi.sourceforge.net/DTD/sodipodi-0.dtd"
   xmlns="http://www.w3.org/2000/svg"
   xmlns:svg="http://www.w3.org/2000/svg"
   xmlns:rdf="http://www.w3.org/1999/02/22-rdf-syntax-ns#"
   xmlns:cc="http://creativecommons.org/ns#"
   xmlns:dc="http://purl.org/dc/elements/1.1/">
  <sodipodi:namedview
     id="namedview1"
     pagecolor="#9c4444"
     bordercolor="#000000"
     borderopacity="0.25"
     inkscape:showpageshadow="2"
     inkscape:pageopacity="0.0"
     inkscape:pagecheckerboard="0"
     inkscape:deskcolor="#d1d1d1"
     inkscape:zoom="9.2586794"
     inkscape:cx="85.75737"
     inkscape:cy="37.802367"
     inkscape:window-width="2560"
     inkscape:window-height="1388"
     inkscape:window-x="0"
     inkscape:window-y="0"
     inkscape:window-maximized="1"
     inkscape:current-layer="svg3297" />
  <metadata
     id="metadata58">
    <rdf:RDF>
      <cc:Work
         rdf:about="">
        <dc:format>image/svg+xml</dc:format>
        <dc:type
           rdf:resource="http://purl.org/dc/dcmitype/StillImage" />
      </cc:Work>
    </rdf:RDF>
  </metadata>
  <defs
     id="defs3299">
    <style
       id="current-color-scheme"
       type="text/css">.ColorScheme-Text {color:#d8dee9} .ColorScheme-Highlight {color:#3b4252}</style>
  </defs>
  <path
     id="path5"
     style="fill:currentColor;fill-opacity:1;stroke-width:0.441667"
     d="m 32,9.8364425 c -14.635384,0 -26.5,11.8646165 -26.5,26.5000005 0,5.588118 1.730436,10.772528 4.684082,15.04772 0.160449,0.234635 0.42959,0.370934 0.714258,0.370934 h 42.20332 c 0.28467,0 0.55208,-0.136299 0.71426,-0.370934 C 56.76956,47.108971 58.5,41.924561 58.5,36.336443 58.5,21.701059 46.63538,9.8364425 32,9.8364425 Z m 0,2.4084645 c 13.305208,0 24.08981,10.786328 24.08981,24.091536 0,2.843229 -0.4917,5.572591 -1.39746,8.105273 -0.12249,0.343328 -0.45202,0.567611 -0.81605,0.567611 H 10.121973 c -0.36403,0 -0.693555,-0.224283 -0.816048,-0.567611 C 8.401886,41.909034 7.908464,39.179672 7.908464,36.336443 7.908464,23.031235 18.694792,12.244907 32,12.244907 Z m -0.250164,4.820377 c -2.834599,0.03623 -5.626074,0.698731 -8.176006,1.937467 -2.549937,1.238738 -4.794501,3.026107 -6.574969,5.232715 -1.780469,2.206608 -3.051986,4.778972 -3.723112,7.534213 -0.602116,2.467122 -0.710807,5.027408 -0.319174,7.532486 0.07419,0.481348 0.541732,0.790169 1.021354,0.693555 l 5.822754,-1.183529 c 0.477898,-0.09661 0.783269,-0.562435 0.722885,-1.047233 -0.172526,-1.39056 -0.09144,-2.803548 0.241536,-4.168229 0.401986,-1.652799 1.166276,-3.196907 2.234213,-4.520182 1.067934,-1.325 2.415362,-2.396386 3.943944,-3.139974 1.530309,-0.743587 3.205533,-1.140397 4.906643,-1.162826 1.701106,-0.02243 3.386687,0.33125 4.934243,1.035157 0.504542,0.229235 0.990455,0.493672 1.454395,0.791032 l 5.994419,-5.155078 c -1.294128,-1.062727 -2.725304,-1.95554 -4.258806,-2.652588 -2.58099,-1.174902 -5.387989,-1.763216 -8.224319,-1.726986 z M 32,17.544907 c 0.267416,0 0.483073,0.215657 0.483073,0.483072 v 1.927116 c 0,0.265691 -0.215657,0.481348 -0.483073,0.481348 -0.265689,0 -0.481346,-0.215657 -0.481346,-0.481348 v -1.927116 c 0,-0.267415 0.215657,-0.483072 0.481346,-0.483072 z m -7.001971,1.39401 c 0.187218,0.0016 0.364463,0.113436 0.440805,0.29847 l 0.738414,1.780469 c 0.101791,0.244987 -0.01555,0.526204 -0.260517,0.627994 -0.246711,0.101791 -0.527929,-0.0138 -0.62972,-0.260514 l -0.738409,-1.780468 c -0.101791,-0.244987 0.01555,-0.52793 0.26224,-0.629721 0.06124,-0.02545 0.124784,-0.03677 0.187187,-0.03623 z m 14.006526,0 c 0.06265,-5.3e-4 0.126379,0.01078 0.188057,0.03623 0.244984,0.10179 0.362304,0.384733 0.260513,0.62972 l -0.738414,1.780469 c -0.101786,0.246712 -0.383004,0.362304 -0.629719,0.260514 -0.244984,-0.10179 -0.362304,-0.383008 -0.260513,-0.627995 l 0.738409,-1.780469 c 0.07635,-0.185034 0.253725,-0.296852 0.441667,-0.298469 z m 7.535075,1.940055 c -0.17576,-0.0065 -0.35368,0.0509 -0.49601,0.173389 L 30.794042,34.16779 c -0.08971,0.07936 -0.17425,0.162175 -0.248437,0.248438 -0.579688,0.439941 -0.954066,1.136946 -0.954066,1.920215 0,1.330175 1.078285,2.408463 2.408461,2.408463 0.845376,0 1.590689,-0.434766 2.02028,-1.093815 0.05003,-0.05003 0.09834,-0.103516 0.14492,-0.158724 L 47.06497,22.059913 c 0.23981,-0.286393 0.22084,-0.707358 -0.0431,-0.971322 -0.13284,-0.132845 -0.30645,-0.203149 -0.48221,-0.209619 z m -27.485984,2.028044 c 0.12314,0 0.24585,0.04744 0.339876,0.141471 l 1.362956,1.362956 c 0.188053,0.188053 0.188053,0.493425 0,0.681478 -0.188053,0.188053 -0.493425,0.188053 -0.681478,0 l -1.362956,-1.362956 c -0.188053,-0.188053 -0.188053,-0.493424 0,-0.681478 0.09489,-0.09403 0.218461,-0.141471 0.341602,-0.141471 z m 27.646434,0.967008 -5.068814,6.063428 v 8.84e-4 c 0.220016,0.33124 0.423368,0.673191 0.608153,1.025667 0.176609,0.336501 0.330866,0.684239 0.473586,1.036881 0.04501,0.111344 0.08349,0.225284 0.12508,0.338151 0.0887,0.240526 0.169732,0.484091 0.2424,0.730648 0.04108,0.139425 0.07899,0.279507 0.114731,0.420101 0.114494,0.451714 0.212407,0.907201 0.271727,1.367269 0.111901,0.865361 0.126061,1.741583 0.04054,2.612906 -0.04831,0.484798 0.269139,0.943718 0.748762,1.028256 L 50.10832,39.5299 c 0.48136,0.08454 0.94199,-0.236361 1.00411,-0.719434 0.0871,-0.671658 0.1325,-1.346157 0.14837,-2.021142 0.005,-0.212026 -0.0101,-0.422962 -0.0121,-0.634896 -0.004,-0.461966 -0.0141,-0.9232 -0.0518,-1.383659 -0.0208,-0.254509 -0.0588,-0.506419 -0.0897,-0.759977 -0.0506,-0.414892 -0.10614,-0.828173 -0.18374,-1.2396 -0.0516,-0.273754 -0.11511,-0.544374 -0.17856,-0.816048 -0.0519,-0.221771 -0.0869,-0.446632 -0.14665,-0.666813 -0.0501,-0.184745 -0.1179,-0.363167 -0.17339,-0.546045 -0.035,-0.115532 -0.0551,-0.23438 -0.0923,-0.349365 -0.0277,-0.0853 -0.0695,-0.164465 -0.0983,-0.2493 -0.22569,-0.664909 -0.47343,-1.32102 -0.76947,-1.955583 -0.36211,-0.776204 -0.77619,-1.527096 -1.23873,-2.248877 -0.0261,-0.04067 -0.0599,-0.07598 -0.0863,-0.116455 -0.44014,-0.675607 -0.91558,-1.330213 -1.43973,-1.948682 z M 15.082959,28.84795 c 0.06257,-3.77e-4 0.125944,0.01165 0.187191,0.03709 l 1.780469,0.736687 c 0.246712,0.10179 0.362304,0.384733 0.260514,0.62972 -0.10179,0.246712 -0.383008,0.362305 -0.627995,0.260514 l -1.780469,-0.736686 c -0.246711,-0.101791 -0.364029,-0.384733 -0.26224,-0.62972 0.07634,-0.185034 0.254827,-0.296476 0.44253,-0.297608 z m 33.836671,0 c 0.18794,0.0011 0.36532,0.112574 0.44166,0.297608 0.10179,0.244987 -0.0138,0.527929 -0.26051,0.62972 l -1.78047,0.736686 c -0.24499,0.10179 -0.52793,-0.0138 -0.62972,-0.260515 -0.10179,-0.244986 0.0156,-0.527929 0.26052,-0.62972 l 1.78046,-0.736686 c 0.0617,-0.02545 0.12541,-0.03747 0.18806,-0.03709 z M 32,35.372022 c 0.531382,0 0.962696,0.43304 0.962696,0.964421 0,0.53138 -0.431314,0.96442 -0.962696,0.96442 -0.533105,0 -0.964419,-0.43304 -0.964419,-0.96442 0,-0.531381 0.431314,-0.964421 0.964419,-0.964421 z m -18.310189,0.483073 h 1.927116 c 0.267416,0 0.483073,0.215658 0.483073,0.481348 0,0.265689 -0.215657,0.481347 -0.483073,0.481347 h -1.927116 c -0.26569,0 -0.481347,-0.215658 -0.481347,-0.481347 0,-0.26569 0.215657,-0.481348 0.481347,-0.481348 z m 34.691539,0 h 1.92711 c 0.26569,0 0.48135,0.215658 0.48135,0.481348 0,0.265689 -0.21566,0.481347 -0.48135,0.481347 h -1.92711 c -0.26569,0 -0.48308,-0.215658 -0.48308,-0.481347 0,-0.26569 0.21739,-0.481348 0.48308,-0.481348 z M 14.654232,45.972022 c 1.064486,0 1.927116,0.864356 1.927116,1.928841 0,1.064486 -0.86263,1.927118 -1.927116,1.927118 -1.064486,0 -1.927116,-0.862632 -1.927116,-1.927118 0,-1.064485 0.86263,-1.928841 1.927116,-1.928841 z m 4.818652,0 c 1.064486,0 1.927116,0.864356 1.927116,1.928841 0,1.064486 -0.86263,1.927118 -1.927116,1.927118 -1.064486,0 -1.927116,-0.862632 -1.927116,-1.927118 0,-1.064485 0.86263,-1.928841 1.927116,-1.928841 z m -4.818652,0.883333 c -0.586311,0 -1.043783,0.458242 -1.043783,1.045508 0,0.587266 0.456517,1.043785 1.043783,1.043785 0.587266,-9e-6 1.043782,-0.456519 1.043782,-1.043785 0,-0.587266 -0.45747,-1.045508 -1.043782,-1.045508 z m 4.818652,0 c -0.586312,0 -1.043782,0.458242 -1.043782,1.045508 0,0.587266 0.456516,1.04378 1.043782,1.043785 0.587266,0 1.043783,-0.456519 1.043783,-1.043785 0,-0.587266 -0.457472,-1.045508 -1.043783,-1.045508 z m 37.577896,0.554672 c -0.69751,1.57532 -1.53922,3.073193 -2.50853,4.476187 -0.33083,0.478648 -0.87176,0.752216 -1.44059,0.752216 H 10.89834 c -0.566759,0 -1.112816,-0.272553 -1.443181,-0.755665 -0.967409,-1.400251 -1.807557,-2.894768 -2.504215,-4.467563 0.790375,2.283866 1.884036,4.425481 3.233138,6.377427 0.160449,0.234635 0.42959,0.370929 0.714258,0.370929 h 42.20332 c 0.28467,0 0.55208,-0.136294 0.71426,-0.370929 1.34997,-1.953205 2.44437,-4.097077 3.23486,-6.382602 z"
     class="ColorScheme-Text" />
</svg>
