<?xml version="1.0" encoding="UTF-8" standalone="no"?>
<svg
   id="svg3297"
   height="64"
   width="64"
   version="1.0"
   sodipodi:docname="nicotine-plus.svg"
   inkscape:version="1.4.2 (ebf0e940d0, 2025-05-08)"
   xmlns:inkscape="http://www.inkscape.org/namespaces/inkscape"
   xmlns:sodipodi="http://sodipodi.sourceforge.net/DTD/sodipodi-0.dtd"
   xmlns="http://www.w3.org/2000/svg"
   xmlns:svg="http://www.w3.org/2000/svg"
   xmlns:rdf="http://www.w3.org/1999/02/22-rdf-syntax-ns#"
   xmlns:cc="http://creativecommons.org/ns#"
   xmlns:dc="http://purl.org/dc/elements/1.1/">
  <sodipodi:namedview
     id="namedview1"
     pagecolor="#9c4444"
     bordercolor="#000000"
     borderopacity="0.25"
     inkscape:showpageshadow="2"
     inkscape:pageopacity="0.0"
     inkscape:pagecheckerboard="0"
     inkscape:deskcolor="#d1d1d1"
     inkscape:zoom="3.2734375"
     inkscape:cx="40.782816"
     inkscape:cy="33.298329"
     inkscape:window-width="2560"
     inkscape:window-height="1388"
     inkscape:window-x="0"
     inkscape:window-y="0"
     inkscape:window-maximized="1"
     inkscape:current-layer="svg3297" />
  <metadata
     id="metadata58">
    <rdf:RDF>
      <cc:Work
         rdf:about="">
        <dc:format>image/svg+xml</dc:format>
        <dc:type
           rdf:resource="http://purl.org/dc/dcmitype/StillImage" />
      </cc:Work>
    </rdf:RDF>
  </metadata>
  <defs
     id="defs3299">
    <style
       id="current-color-scheme"
       type="text/css">.ColorScheme-Text {color:#d8dee9} .ColorScheme-Highlight {color:#3b4252}</style>
  </defs>
  <path
     id="rect5"
     style="fill:currentColor;fill-opacity:1;stroke-width:0.946278"
     d="m 13.455925,5.5 c -4.40289,0 -7.94746,3.545044 -7.94746,7.949341 v 37.101318 c 0,4.404297 3.54457,7.949341 7.94746,7.949341 h 37.08815 c 4.40289,0 7.94746,-3.545044 7.94746,-7.949341 V 13.449341 C 58.491535,9.045044 54.946965,5.5 50.544075,5.5 Z m -0.4986,8.139373 h 8.78849 c 0.80931,0 2.12737,-0.01168 2.92385,0.124179 4.64967,0.793915 8.11356,5.308536 8.70571,10.161987 0.0981,0.804563 0.0884,2.12172 0.0884,2.93326 v 11.751855 h 5.86088 v -5.875928 a 1.4648071,1.468851 0 0 1 1.46381,-1.469452 h 4.39518 a 1.4648071,1.468851 0 0 1 1.46381,1.469452 v 5.875928 h 4.39519 a 1.4648071,1.468851 0 0 1 1.4638,1.46757 v 2.938904 a 1.4648071,1.468851 0 0 1 -1.4638,1.467572 h -4.39519 v 4.406475 a 1.4648071,1.468851 0 0 1 -1.46381,1.469452 h -4.39518 a 1.4648071,1.468851 0 0 1 -1.46381,-1.469452 V 44.4847 h -5.86088 v 4.406475 a 1.4648071,1.468851 0 0 1 -1.46381,1.469452 h -4.39518 a 1.4648071,1.468851 0 0 1 -1.46381,-1.469452 V 26.858799 c 0,-0.81154 0.029,-2.137374 -0.14676,-2.927616 -0.3391,-1.527605 -1.27063,-2.461515 -2.79403,-2.801555 -0.78806,-0.175895 -2.1089,-0.144875 -2.9182,-0.144875 h -1.4657 v 27.906422 a 1.4648071,1.468851 0 0 1 -1.4638,1.469452 h -4.39519 a 1.4648071,1.468851 0 0 1 -1.46568,-1.469452 v -33.78235 a 1.4648071,1.468851 0 0 1 1.46568,-1.469452 z"
     class="ColorScheme-Text" />
</svg>
