<?xml version='1.0' encoding='UTF-8'?>
<svg xmlns:inkscape="http://www.inkscape.org/namespaces/inkscape" xmlns:sodipodi="http://sodipodi.sourceforge.net/DTD/sodipodi-0.dtd" xmlns="http://www.w3.org/2000/svg" xmlns:svg="http://www.w3.org/2000/svg" xmlns:rdf="http://www.w3.org/1999/02/22-rdf-syntax-ns#" xmlns:cc="http://creativecommons.org/ns#" xmlns:dc="http://purl.org/dc/elements/1.1/" width="64" height="64" version="1.1" viewBox="0 0 16.933 16.933" id="svg7" sodipodi:docname="nitrogen.svg" inkscape:version="1.4.2 (ebf0e940d0, 2025-05-08)">
  <sodipodi:namedview id="namedview7" pagecolor="#9c4444" bordercolor="#000000" borderopacity="0.25" inkscape:showpageshadow="2" inkscape:pageopacity="0.0" inkscape:pagecheckerboard="0" inkscape:deskcolor="#d1d1d1" inkscape:zoom="4.3531261" inkscape:cx="36.295755" inkscape:cy="40.430715" inkscape:window-width="2560" inkscape:window-height="1376" inkscape:window-x="0" inkscape:window-y="0" inkscape:window-maximized="1" inkscape:current-layer="svg7" showgrid="false"/>
  <defs id="defs2">
    <style id="current-color-scheme" type="text/css">.ColorScheme-Text {color:#d8dee9} .ColorScheme-Highlight {color:#3b4252}</style>
    </defs>
  <metadata id="metadata2">
    <rdf:RDF>
      <cc:Work rdf:about="">
        <dc:format>image/svg+xml</dc:format>
        <dc:type rdf:resource="http://purl.org/dc/dcmitype/StillImage"/>
      </cc:Work>
    </rdf:RDF>
  </metadata>
  <path fill="currentColor" class="ColorScheme-Text" fill-rule="evenodd" d="m 10.107064,12.457086 c 0.450716,0.168794 0.94038,0.257816 1.450447,0.257816 0.03436,0 0.06863,-9.27e-4 0.102003,-0.0038 v 0 c -0.162281,0.469269 -0.433083,0.896797 -0.791057,1.254771 -0.630629,0.630633 -1.5023795,0.992318 -2.4019555,0.992318 -0.899575,0 -1.771324,-0.361685 -2.401953,-0.992318 -0.336638,-0.336643 -0.596318,-0.735423 -0.757685,-1.174083 0.02243,0.0019 0.04545,0.0028 0.06863,0.0028 0.546238,0 1.06929,-0.102022 1.54597,-0.296766 0.475752,0.194751 0.998804,0.296766 1.545041,0.296766 0.583334,0 1.138843,-0.115918 1.6405645,-0.337569 z M 5.7659205,11.848715 c -0.127977,0.01401 -0.257806,0.02135 -0.387649,0.02135 -0.102003,0 -0.204035,-0.0045 -0.305126,-0.01022 -0.0057,-0.101076 -0.01022,-0.203102 -0.01022,-0.305113 v 0 c 0,-0.129833 0.0074,-0.259671 0.02137,-0.387651 0.20218,0.251324 0.430312,0.479463 0.681633,0.681636 z M 4.4351105,6.9205312 C 4.2403545,6.4447761 4.1383435,5.921726 4.1383435,5.3754884 v 0 c 0,-0.023172 9.26e-4,-0.046364 0.0028,-0.068627 -0.43866,0.1613731 -0.837438,0.4210391 -1.174083,0.7576828 -0.630629,0.6306309 -0.992316,1.5023824 -0.992316,2.4019554 v 0 c 0,0.899575 0.361687,1.7713274 0.992316,2.4019564 0.336638,0.336646 0.735423,0.596316 1.174083,0.757684 -0.0019,-0.02226 -0.0028,-0.04544 -0.0028,-0.06863 v 0 c 0,-0.546236 0.102004,-1.069288 0.297696,-1.544114 C 4.2403455,9.5367136 4.1383435,9.0136627 4.1383435,8.4664976 v 0 c 0,-0.546235 0.102004,-1.069287 0.296784,-1.5459683 z M 11.848711,5.7659226 c 0.01401,-0.1279777 0.02137,-0.2578163 0.02137,-0.3876512 0,-0.1279777 -0.0074,-0.2541058 -0.01963,-0.380232 v 0 c -0.09833,-0.00454 -0.196607,-0.00928 -0.295839,-0.00928 -0.159517,0 -0.318094,0.01117 -0.472972,0.038015 0.287496,0.2105176 0.543455,0.4609147 0.766956,0.7391336 z m -0.591675,6.0104544 c 0.09924,0.0055 0.198464,0.01022 0.297696,0.01022 0.10295,0 0.205894,-0.0045 0.307896,-0.01022 v 0 c 0.0045,-0.07326 0.0074,-0.147458 0.0074,-0.221645 0,-0.129833 -0.0074,-0.259673 -0.02137,-0.387655 -0.17807,0.220723 -0.376521,0.424749 -0.591677,0.609302 z M 5.7659205,5.0842862 c -0.127977,-0.01382 -0.257806,-0.021355 -0.387649,-0.021355 -0.102003,0 -0.204035,0.00454 -0.305126,0.010223 -0.0057,0.1010759 -0.01022,0.2031021 -0.01022,0.3051132 v 0 c 0,0.129833 0.0074,0.2596716 0.02137,0.3876512 0.20218,-0.2513247 0.430312,-0.4794638 0.681633,-0.6816345 z m 6.7319685,1.836245 c 0.19475,-0.4757551 0.296786,-0.9988052 0.296786,-1.5450428 0,-0.050074 -9.3e-4,-0.09924 -0.0057,-0.1483859 v 0 c 0.439586,0.1585901 0.839293,0.4164007 1.176865,0.7539741 0.630629,0.6399035 0.992313,1.50238 0.992313,2.401956 0,0.9088481 -0.361684,1.7713244 -0.992313,2.4112284 -0.336638,0.33108 -0.734499,0.588897 -1.17223,0.749337 v 0 c -0.0019,-0.5416 -0.102951,-1.060014 -0.29675,-1.531131 0.195694,-0.4766814 0.297696,-0.9997334 0.297696,-1.5459694 0,-0.546237 -0.102003,-1.069287 -0.296785,-1.5459702 z M 9.9197305,4.3961581 C 10.419594,4.1745125 10.975106,4.0595143 11.557511,4.0595143 c 0.01193,0 0.02419,0 0.03523,9.277e-4 v 0 C 11.432316,3.6533139 11.184696,3.2832843 10.868455,2.9670412 10.237826,2.3364123 9.3660755,1.9747275 8.4664995,1.9747275 c -0.899575,0 -1.771324,0.3616847 -2.401953,0.9923137 -0.336638,0.3366457 -0.596318,0.7354267 -0.757685,1.1740835 0.02243,-0.00185 0.04545,-0.00284 0.06863,-0.00284 0.546238,0 1.06836,0.1020224 1.544115,0.2976958 0.476683,-0.195681 0.999733,-0.2976958 1.546896,-0.2976958 0.510997,0 1.001587,0.089035 1.453231,0.2578163 z m 2.7441645,8.1675789 c 1.854792,-0.483174 3.221772,-2.171034 3.221772,-4.1769944 0,-2.0170853 -1.383674,-3.7142189 -3.255158,-4.1834824 v 0 C 12.121366,2.3827833 10.448344,1.0473323 8.4664995,1.0473323 c -2.011521,0 -3.704018,1.3753285 -4.180699,3.2384659 -1.863141,0.4766828 -3.238468,2.1691801 -3.238468,4.1807014 v 0 c 0,2.0115224 1.375327,3.7040204 3.238468,4.1807014 0.476681,1.863139 2.169178,3.238467 4.180699,3.238467 2.0411965,0 3.7531725,-1.415206 4.1973955,-3.321931 z M 5.0175145,8.4952496 c 0,-1.9187833 1.558954,-3.4777352 3.477735,-3.4777352 1.9197105,0 3.4777355,1.5589519 3.4777355,3.4777352 0,1.9197094 -1.558025,3.4777364 -3.4777355,3.4777364 -1.918781,0 -3.477735,-1.558027 -3.477735,-3.4777364 z" id="path24-2" style="stroke-width:0.927395"/>
</svg>
