<?xml version="1.0" encoding="UTF-8" standalone="no"?>
<svg
   width="64"
   height="64"
   version="1.1"
   viewBox="0 0 16.933 16.933"
   id="svg7"
   sodipodi:docname="nvtop.svg"
   inkscape:version="1.4.3 (0d15f75042, 2025-12-25)"
   xmlns:inkscape="http://www.inkscape.org/namespaces/inkscape"
   xmlns:sodipodi="http://sodipodi.sourceforge.net/DTD/sodipodi-0.dtd"
   xmlns="http://www.w3.org/2000/svg"
   xmlns:svg="http://www.w3.org/2000/svg"
   xmlns:rdf="http://www.w3.org/1999/02/22-rdf-syntax-ns#"
   xmlns:cc="http://creativecommons.org/ns#"
   xmlns:dc="http://purl.org/dc/elements/1.1/">
  <sodipodi:namedview
     id="namedview7"
     pagecolor="#9c4444"
     bordercolor="#000000"
     borderopacity="0.25"
     inkscape:showpageshadow="2"
     inkscape:pageopacity="0.0"
     inkscape:pagecheckerboard="0"
     inkscape:deskcolor="#d1d1d1"
     inkscape:zoom="4.3531262"
     inkscape:cx="89.935366"
     inkscape:cy="34.457995"
     inkscape:window-width="2560"
     inkscape:window-height="1388"
     inkscape:window-x="0"
     inkscape:window-y="0"
     inkscape:window-maximized="1"
     inkscape:current-layer="svg7"
     showgrid="false" />
  <defs
     id="defs2">
    <style
       id="current-color-scheme"
       type="text/css">.ColorScheme-Text {color:#d8dee9} .ColorScheme-Highlight {color:#3b4252}</style>
  </defs>
  <metadata
     id="metadata2">
    <rdf:RDF>
      <cc:Work
         rdf:about="">
        <dc:format>image/svg+xml</dc:format>
        <dc:type
           rdf:resource="http://purl.org/dc/dcmitype/StillImage" />
      </cc:Work>
    </rdf:RDF>
  </metadata>
  <path
     id="path5"
     style="fill:currentColor;stroke-width:0.250404;fill-opacity:1"
     d="m 4.2595105,1.4551827 c -0.194214,0 -0.383447,0.0195 -0.566345,0.05673 -0.09144,0.01862 -0.181556,0.04173 -0.269477,0.06896 -0.08777,0.0272 -0.173943,0.05857 -0.257741,0.0939 -0.08393,0.03538 -0.166029,0.0748 -0.245513,0.117867 -0.07936,0.04302 -0.15638,0.09014 -0.230842,0.140362 -0.07457,0.05029 -0.146973,0.103846 -0.21617,0.160905 -0.0691,0.05699 -0.135282,0.117677 -0.198562,0.180956 -0.06336,0.06336 -0.123898,0.129366 -0.180957,0.198562 -0.05714,0.06929 -0.110535,0.141492 -0.160904,0.21617 -0.05029,0.07457 -0.09729,0.151357 -0.140363,0.230842 -0.04315,0.0796 -0.08242,0.161445 -0.117866,0.245513 -0.03538,0.08393 -0.06668,0.16982 -0.0939,0.257741 -0.08179,0.263903 -0.125691,0.544339 -0.125691,0.835822 v 0.250404 8.1635713 c 0,1.553708 1.250624,2.804332 2.804333,2.804332 h 8.4139745 c 1.553709,0 2.804334,-1.250624 2.804334,-2.804332 V 4.5099167 4.2595127 c 0,-0.291483 -0.04391,-0.571919 -0.125693,-0.835822 -0.02723,-0.08792 -0.05852,-0.173807 -0.0939,-0.257741 -0.03544,-0.08407 -0.07471,-0.165908 -0.117867,-0.245513 -0.04307,-0.07948 -0.09007,-0.156271 -0.140364,-0.230842 -0.05037,-0.07467 -0.103754,-0.146882 -0.160904,-0.21617 -0.05706,-0.06919 -0.117597,-0.135203 -0.180956,-0.198562 -0.06328,-0.06328 -0.129461,-0.12396 -0.198563,-0.180956 h -5e-4 c -0.1383,-0.11404 -0.287681,-0.215162 -0.446523,-0.301267 h -5.01e-4 c -0.158822,-0.08608 -0.32705,-0.15732 -0.502741,-0.211769 h -5.01e-4 c -0.263764,-0.08169 -0.544001,-0.125691 -0.835321,-0.125691 z m 4.21628,2.253638 c 2.3797855,0 4.5371445,0.959961 6.0957795,2.5084452 0.08893,0.088372 0.159253,0.1931472 0.207365,0.3086038 0.04812,0.1154727 0.07288,0.2393926 0.07288,0.3643578 -2.3e-5,0.124971 -0.02472,0.2484363 -0.07288,0.3638687 C 14.730765,7.3695457 14.660055,7.4743526 14.57108,7.5627 14.48211,7.651032 14.376759,7.7212963 14.26052,7.769088 14.144312,7.816886 14.019505,7.841517 13.893717,7.84147 13.767924,7.8414464 13.64361,7.816928 13.527403,7.769088 13.411188,7.721226 13.305259,7.651095 13.216354,7.5627 12.594598,6.9432088 11.855989,6.4517768 11.042434,6.1170066 10.228902,5.7822597 9.3563505,5.6104857 8.4757905,5.6117967 c -1.851736,0 -3.52657,0.7449993 -4.741053,1.9509033 -0.08794,0.092422 -0.193344,0.1660248 -0.310561,0.2171473 -0.117214,0.051139 -0.243685,0.078415 -0.371694,0.080208 -0.128007,0.00185 -0.255023,-0.021633 -0.37365,-0.069448 -0.118623,-0.047822 -0.226372,-0.1189298 -0.316917,-0.2088332 -0.09055,-0.089903 -0.162105,-0.1966312 -0.210301,-0.3144725 -0.04819,-0.1178177 -0.07217,-0.2445183 -0.07042,-0.3716941 0.0017,-0.1271591 0.02927,-0.2522765 0.08069,-0.3687594 0.05142,-0.116479 0.125629,-0.2216844 0.218614,-0.3090928 0.79961,-0.7964076 1.749993,-1.4279126 2.796019,-1.8584696 1.046041,-0.430541 2.167028,-0.6517 3.299273,-0.650465 z m 0,2.5373003 c 1.6748645,0 3.1927945,0.6757065 4.2891505,1.7655462 0.09411,0.087123 0.169699,0.1923655 0.222038,0.3090927 0.05236,0.1167213 0.08039,0.2424588 0.08265,0.3702265 0.0024,0.1277443 -0.02129,0.2546719 -0.06945,0.3731613 -0.04817,0.1184737 -0.119827,0.226061 -0.21079,0.3164288 -0.09096,0.090362 -0.199134,0.1614607 -0.318385,0.2093223 -0.119276,0.047862 -0.247,0.0717 -0.375606,0.069448 -0.128615,-0.0024 -0.255666,-0.030141 -0.373162,-0.082164 C 11.60475,9.5251678 11.498885,9.4501079 11.411187,9.3566119 11.02622,8.9730401 10.569042,8.6687859 10.065264,8.4616122 9.5615045,8.2544355 9.0210035,8.148582 8.4757845,8.1495849 7.9306335,8.1486834 7.3909305,8.2548221 6.8872825,8.4621012 6.3836325,8.6693876 5.9261945,8.9735066 5.5413585,9.3571009 5.3617545,9.5355975 5.1180465,9.6358067 4.8639965,9.6358713 4.6099525,9.6359349 4.3663005,9.5360233 4.1866325,9.3575901 4.0069385,9.1791815 3.9059715,8.9370212 3.9059055,8.6846285 3.9058615,8.432244 4.0070515,8.1901856 4.1866325,8.011667 c 0.562763,-0.5604091 1.231395,-1.0048131 1.967532,-1.3077755 0.736143,-0.3029386 1.52482,-0.4586468 2.32162,-0.4577706 z m -0.01027,2.7823246 c 0.461195,-4.257e-4 0.917846,0.089839 1.343966,0.2650762 0.4261195,0.1752592 0.8130875,0.4324332 1.1390465,0.7565922 0.174384,0.172306 0.275522,0.404257 0.282194,0.648508 0.0066,0.244274 -0.08126,0.481731 -0.246003,0.663181 -0.164719,0.181427 -0.393487,0.293033 -0.638727,0.311538 -0.24524,0.0185 -0.4883925,-0.05711 -0.6788295,-0.211768 l -0.07287,-0.06553 c -0.148007,-0.14761 -0.323676,-0.264595 -0.517436,-0.344306 -0.19374,-0.07969 -0.401637,-0.120273 -0.611339,-0.119822 -0.397166,0 -0.75911,0.142466 -1.038787,0.380986 l -0.0895,0.08314 c -0.179581,0.178497 -0.423316,0.278705 -0.677363,0.278771 -0.254048,4.3e-5 -0.497672,-0.09985 -0.677364,-0.278282 -0.179669,-0.178431 -0.28066,-0.420572 -0.280727,-0.672961 -6.6e-5,-0.252367 0.100635,-0.494465 0.280238,-0.672962 0.325849,-0.3243341 0.713393,-0.5817129 1.139535,-0.7570815 0.426121,-0.1753687 0.882728,-0.265477 1.343967,-0.2650762 z m 0.01174,2.5040424 c 0.288891,0 0.565517,0.115109 0.769797,0.319364 0.204279,0.204279 0.319363,0.480906 0.319363,0.769797 0,0.288892 -0.115084,0.566007 -0.319363,0.770287 -0.20428,0.20428 -0.480906,0.319363 -0.769797,0.319363 -0.288892,0 -0.566007,-0.115083 -0.770287,-0.319363 -0.20428,-0.20428 -0.319364,-0.481395 -0.319364,-0.770287 0,-0.288891 0.115084,-0.565518 0.319364,-0.769797 0.20428,-0.204255 0.481395,-0.319364 0.770287,-0.319364 z"
     class="ColorScheme-Text" />
</svg>
