<?xml version="1.0" encoding="UTF-8" standalone="no"?>
<svg
   width="64"
   height="64"
   version="1.1"
   viewBox="0 0 16.933 16.933"
   id="svg7"
   sodipodi:docname="okteta.svg"
   inkscape:version="1.4.2 (ebf0e940d0, 2025-05-08)"
   xmlns:inkscape="http://www.inkscape.org/namespaces/inkscape"
   xmlns:sodipodi="http://sodipodi.sourceforge.net/DTD/sodipodi-0.dtd"
   xmlns="http://www.w3.org/2000/svg"
   xmlns:svg="http://www.w3.org/2000/svg"
   xmlns:rdf="http://www.w3.org/1999/02/22-rdf-syntax-ns#"
   xmlns:cc="http://creativecommons.org/ns#"
   xmlns:dc="http://purl.org/dc/elements/1.1/">
  <sodipodi:namedview
     id="namedview7"
     pagecolor="#9c4444"
     bordercolor="#000000"
     borderopacity="0.25"
     inkscape:showpageshadow="2"
     inkscape:pageopacity="0.0"
     inkscape:pagecheckerboard="0"
     inkscape:deskcolor="#d1d1d1"
     inkscape:zoom="4.3531262"
     inkscape:cx="89.935366"
     inkscape:cy="34.457995"
     inkscape:window-width="2560"
     inkscape:window-height="1388"
     inkscape:window-x="0"
     inkscape:window-y="0"
     inkscape:window-maximized="1"
     inkscape:current-layer="svg7"
     showgrid="false" />
  <defs
     id="defs2">
    <style
       id="current-color-scheme"
       type="text/css">.ColorScheme-Text {color:#d8dee9} .ColorScheme-Highlight {color:#3b4252}</style>
  </defs>
  <metadata
     id="metadata2">
    <rdf:RDF>
      <cc:Work
         rdf:about="">
        <dc:format>image/svg+xml</dc:format>
        <dc:type
           rdf:resource="http://purl.org/dc/dcmitype/StillImage" />
      </cc:Work>
    </rdf:RDF>
  </metadata>
  <path
     id="path5"
     d="m 1.4551795,1.4551797 v 2.804528 0.3505662 l 0.788774,0.5258489 -0.788774,0.525849 v 0.350566 9.1147162 0.350566 H 15.47782 V 15.127254 1.4551797 Z m 1.402265,1.4022641 H 14.075556 V 13.374424 13.72499 H 2.8574445 v -0.350566 z m 11.9192435,0.350566 h 0.350566 v 0.350566 h -0.350566 v 0.350566 h 0.350566 v 0.3505659 h -0.350566 v 0.3505662 h 0.350566 v 0.350566 h -0.350566 v 0.3505659 h 0.350566 v 0.350566 h -0.350566 v 0.350566 h 0.350566 v 0.3505661 h -0.350566 v 0.350566 h 0.350566 v 0.350566 h -0.350566 v 0.350566 h 0.350566 v 0.350566 H 14.776688 V 8.115934 h 0.350566 V 8.4665 H 14.776688 V 8.817066 H 14.426122 V 8.4665 h 0.350566 V 8.115934 H 14.426122 V 7.7653679 h 0.350566 v -0.350566 h -0.350566 v -0.350566 h 0.350566 v -0.350566 h -0.350566 v -0.350566 h 0.350566 V 6.0125378 h -0.350566 v -0.350566 h 0.350566 V 5.3114058 H 14.426122 V 4.9608399 h 0.350566 V 4.6102739 H 14.426122 V 4.2597077 h 0.350566 V 3.9091418 h -0.350566 v -0.350566 h 0.350566 z M 3.5585755,3.5585758 v 9.1147162 0.350566 H 13.374425 V 12.673292 3.5585758 Z m 1.051699,0.7011319 h 3.50566 v 0.3505662 h -3.50566 z m 3.856226,0 H 10.219329 V 4.6102739 H 8.4665005 Z m -3.856226,0.7011322 h 2.453961 v 0.3505659 h -2.453961 z m 3.155094,0 h 1.402264 V 5.3114058 H 7.7653685 Z M 4.6102745,9.868764 h 2.804529 v 0.350566 h -2.804529 z m 3.155094,0 h 2.103396 v 0.350566 h -2.103396 z m -3.155094,0.701132 h 2.453961 v 0.350566 h -2.453961 z m 2.804529,0 h 1.051697 v 0.350566 h -1.051697 z m -2.804529,0.701132 h 1.412534 v 0.350566 h -1.412534 z m 1.75283,0 h 2.804528 v 0.350566 h -2.804528 z m -3.155094,2.804528 h 0.350565 v 0.350566 h 0.350566 v -0.350566 h 0.350566 v 0.350566 h 0.350567 v -0.350566 h 0.350566 v 0.350566 h 0.350566 v -0.350566 h 0.350566 v 0.350566 h 0.350566 v -0.350566 h 0.350566 v 0.350566 h 0.350565 v -0.350566 h 0.350566 v 0.350566 h 0.350568 v -0.350566 h 0.350565 v 0.350566 h 0.350566 v -0.350566 h 0.350566 v 0.350566 h 0.350566 v 0.350566 h -0.350566 v -0.350566 h -0.350566 v 0.350566 h -0.350566 v -0.350566 h -0.350565 v 0.350566 h -0.350568 v -0.350566 h -0.350566 v 0.350566 h -0.350565 v -0.350566 h -0.350566 v 0.350566 h -0.350566 v -0.350566 h -0.350566 v 0.350566 h -0.350566 v -0.350566 h -0.350566 v 0.350566 h -0.350567 v -0.350566 h -0.350566 v 0.350566 h -0.350566 v -0.350566 h -0.350565 z m 9.1147165,0 h 0.350566 v 0.350566 h 0.350566 v -0.350566 h 0.350567 v 0.350566 h 0.350566 v -0.350566 h 0.350565 v 0.350566 h -0.350565 v 0.350566 h -0.350566 v -0.350566 h -0.350567 v 0.350566 h -0.350566 v -0.350566 h -0.350566 v 0.350566 h -0.350566 v -0.350566 h 0.350566 z m 2.804527,0 v 0.701132 h -0.701132 z"
     style="fill:currentColor;stroke-width:0.350566"
     class="ColorScheme-Text" />
</svg>
