<?xml version="1.0" encoding="UTF-8" standalone="no"?>
<svg
   width="64"
   height="64"
   version="1.1"
   viewBox="0 0 16.933 16.933"
   id="svg7"
   sodipodi:docname="okular.svg"
   inkscape:version="1.4.2 (ebf0e940d0, 2025-05-08)"
   xmlns:inkscape="http://www.inkscape.org/namespaces/inkscape"
   xmlns:sodipodi="http://sodipodi.sourceforge.net/DTD/sodipodi-0.dtd"
   xmlns="http://www.w3.org/2000/svg"
   xmlns:svg="http://www.w3.org/2000/svg"
   xmlns:rdf="http://www.w3.org/1999/02/22-rdf-syntax-ns#"
   xmlns:cc="http://creativecommons.org/ns#"
   xmlns:dc="http://purl.org/dc/elements/1.1/">
  <sodipodi:namedview
     id="namedview7"
     pagecolor="#9c4444"
     bordercolor="#000000"
     borderopacity="0.25"
     inkscape:showpageshadow="2"
     inkscape:pageopacity="0.0"
     inkscape:pagecheckerboard="0"
     inkscape:deskcolor="#d1d1d1"
     inkscape:zoom="4.3531262"
     inkscape:cx="89.935366"
     inkscape:cy="34.457995"
     inkscape:window-width="2560"
     inkscape:window-height="1388"
     inkscape:window-x="0"
     inkscape:window-y="0"
     inkscape:window-maximized="1"
     inkscape:current-layer="svg7"
     showgrid="false" />
  <defs
     id="defs2">
    <style
       id="current-color-scheme"
       type="text/css">.ColorScheme-Text {color:#d8dee9} .ColorScheme-Highlight {color:#3b4252}</style>
  </defs>
  <metadata
     id="metadata2">
    <rdf:RDF>
      <cc:Work
         rdf:about="">
        <dc:format>image/svg+xml</dc:format>
        <dc:type
           rdf:resource="http://purl.org/dc/dcmitype/StillImage" />
      </cc:Work>
    </rdf:RDF>
  </metadata>
  <path
     id="path5"
     style="fill:currentColor"
     d="m 4.1165735,1.4551799 c -0.647377,-1e-7 -1.168552,0.5211746 -1.168552,1.1685534 v 7.311827 c 0.326924,-0.2641616 0.71143,-0.5191033 1.074978,-0.688503 0.461674,-0.215124 0.967556,-0.3708265 1.481232,-0.4267959 0.171225,-0.018656 0.343471,-0.026307 0.515047,-0.021301 0.285895,0.00833 0.64064,0.028387 0.890108,0.2404054 0.123814,-0.1815109 0.373173,-0.4616377 0.810227,-0.6245979 0.174126,-0.064925 0.335309,-0.092328 0.478528,-0.096619 0.218689,-0.00655 0.396273,0.039874 0.51809,0.08749 0.07932,-0.2786426 0.305603,-0.4959476 0.496027,-0.6702444 0.506464,-0.4635752 1.1503905,-0.7803617 1.8038015,-0.965426 0.347993,-0.098561 0.755082,-0.155484 1.139644,-0.1757393 0.384563,-0.020255 0.74734,-0.00331 1.007269,0.045646 0.142394,0.026817 0.258026,0.1220458 0.349956,0.2442094 0.04328,0.057523 0.08208,0.1216615 0.116394,0.190955 l 0.22519,-0.07912 V 2.6237342 c 0,-0.6473788 -0.521176,-1.1685533 -1.168555,-1.1685534 l -2.343951,-2e-7 c 0,0 -0.01487,0.023366 -0.02207,0.034996 -0.233833,0.3785275 -0.4560815,0.7885425 -0.6679605,1.2301765 -0.370283,0.7524999 -0.656947,1.5431864 -0.858918,2.372863 -0.201974,0.8296803 -0.302789,1.6018954 -0.302789,2.3158049 0,0.1837987 0.0057,0.3607668 0.01749,0.5310224 -0.0016,0.00253 -0.0029,0.00506 -0.0046,0.00761 -0.08356,-0.012897 -0.174281,-0.020289 -0.271597,-0.019781 -0.01487,6.55e-5 -0.02971,3.065e-4 -0.04489,7.606e-4 -0.04618,0.00138 -0.0939,0.00455 -0.142261,0.00989 -0.04842,0.00534 -0.09792,0.013059 -0.148351,0.022824 -0.100509,0.019519 -0.205437,0.048264 -0.312679,0.088249 -0.309151,0.1152705 -0.541734,0.2787184 -0.713609,0.4404899 0.04266,-0.5779329 0.136534,-1.1891781 0.282249,-1.8334723 0.218803,-1.0419232 0.546839,-2.0456499 0.984444,-3.0103948 0.354677,-0.7680161 0.740164,-1.4715757 1.156382,-2.1103948 0.01734,-0.026612 0.05249,-0.079122 0.05249,-0.079122 l 0.9966195,-0.00152 z m 9.7379455,5.5407382 v 0.5614535 l 0.263988,-0.092815 A 0.26487007,0.26487002 87.809526 0 0 14.280553,7.1267717 0.26487007,0.26487002 87.809526 0 0 14.01124,6.9502714 0.26487007,0.26487002 87.809526 0 0 13.94353,6.9647286 Z m 0,0.5614535 -0.06163,0.021302 c 0.04957,0.2618354 0.05095,0.5335261 -0.01369,0.7562123 -0.05218,0.1797184 -0.158981,0.3405836 -0.29442,0.4846148 0.128408,0.015174 0.252438,0.030382 0.369737,0.045646 z m 0,1.3077755 v 0.5348263 c 0.583263,0.07712 0.989009,0.1468299 0.989009,0.1468299 A 0.26487007,0.26487002 87.809526 0 0 15.14936,9.3307427 0.26487007,0.26487002 87.809526 0 0 14.9333,9.0241495 c 0,0 -0.446734,-0.076754 -1.078781,-0.1590024 z m 0,0.5348263 c -0.197857,-0.026161 -0.416006,-0.053692 -0.6459,-0.079121 -0.104822,-0.011586 -0.212175,-0.022877 -0.321049,-0.033474 -0.336661,0.210019 -0.67106,0.3595594 -0.796532,0.4245135 -0.09061,0.046912 -0.248058,0.098913 -0.461792,0.1536769 -0.213733,0.054764 -0.478088,0.1087165 -0.759254,0.1422652 -0.562332,0.0671 -1.1919165,0.06285 -1.6204565,-0.2054097 -0.104013,-0.065114 -0.193549,-0.1487733 -0.269315,-0.245731 -0.542941,0.1458328 -1.077649,0.3284235 -1.593827,0.5477597 -0.0019,0.09631 -0.01568,0.191609 -0.04412,0.28377 -0.149135,0.483083 -0.622935,0.897574 -1.092476,1.214199 -0.234769,0.158313 -0.470379,0.290565 -0.667962,0.388757 -0.197584,0.09819 -0.350366,0.161173 -0.449619,0.184869 -0.144779,0.03457 -0.526131,0.149542 -0.943363,0.208453 -0.08434,0.08925 -0.166959,0.178475 -0.246492,0.265511 -0.489166,0.535313 -0.876998,1.006139 -0.994335,1.150295 v 0.50896 c 0,0.647378 0.521175,1.168553 1.168552,1.168553 h 8.5693925 c 0.647379,0 1.168553,-0.521175 1.168553,-1.168553 v -4.271762 c -0.08804,0.08662 -0.259038,0.356121 -0.620036,0.75469 -0.455311,0.502699 -1.117658,1.152062 -1.234741,1.247674 -0.639025,0.521852 -1.270828,0.858235 -1.893572,1.012594 -0.6395815,0.154357 -1.1955935,0.106288 -1.6668635,-0.144547 -0.471266,-0.250833 -0.840676,-0.665788 -1.109973,-1.244631 -0.049246,-0.105861 -0.095018,-0.216033 -0.136947,-0.330938 9.96e-4,-0.001 0.0021,-0.002 0.0031,-0.003 0.04895,-0.05086 0.09491,-0.103986 0.139979,-0.158241 0.0071,-0.0086 0.01505,-0.01644 0.02207,-0.02511 l 7.59e-4,0 v -7.59e-4 c 0.0519,-0.06416 0.100759,-0.13132 0.145309,-0.200084 0.02871,-0.04431 0.05259,-0.09073 0.0776,-0.13694 0.01399,-0.0259 0.03062,-0.05035 0.04336,-0.07684 v -7.59e-4 l 7.6e-4,0 v -7.59e-4 -7.59e-4 c 0.03501,-0.07307 0.06507,-0.148426 0.08901,-0.225951 0.01295,-0.04191 0.02398,-0.08408 0.03271,-0.126289 0.362955,-0.145754 0.734414,-0.273611 1.111496,-0.3826706 0.05672,0.050391 0.118631,0.096993 0.184868,0.1384616 0.06827,0.04273 0.139361,0.08032 0.213017,0.112595 0.08093,0.03546 0.165433,0.06243 0.251057,0.08673 0.01163,0.0033 0.02247,0.009 0.03423,0.01217 0.333675,0.242168 0.7405725,0.334666 1.2210465,0.277683 0.375901,-0.04617 0.762748,-0.190335 1.160187,-0.432882 0.02451,-0.0074 0.04617,-0.01591 0.06999,-0.02358 0.01699,-0.0055 0.03221,-0.01037 0.04869,-0.01598 0.08676,-0.02949 0.168299,-0.05987 0.228994,-0.09129 0.07894,-0.04087 0.390688,-0.1832949 0.707522,-0.3697372 0.06331,0.00652 0.126111,0.012945 0.187913,0.01978 0.142335,0.015743 0.280247,0.032283 0.411581,0.04869 0.105808,0.013218 0.178582,0.025098 0.27464,0.038039 l 0.0024,0.2426882 z M 2.9480215,13.800307 v -0.825443 c -0.275737,0.321976 -0.449619,0.539391 -0.449619,0.539391 a 0.26487007,0.26487002 87.809526 0 0 0.04032,0.37202 0.26487007,0.26487002 87.809526 0 0 0.372781,-0.04108 c 0,0 0.01266,-0.0155 0.03651,-0.04489 z m 0,-0.825443 c 0.14282,-0.166774 0.313213,-0.361575 0.50059,-0.569061 -0.179924,-0.02358 -0.349633,-0.07553 -0.494504,-0.169653 -0.0021,-0.0013 -0.0041,-0.0025 -0.006,-0.0038 z m 0,-0.742518 v -0.274641 c -0.126401,-0.11653 -0.250097,-0.280472 -0.344631,-0.454944 l 0.344631,-0.120964 v -0.561453 l -0.51885,0.181825 c -0.0024,-0.01809 -0.0041,-0.03532 -0.0053,-0.05249 -0.008,-0.118883 0.01443,-0.209344 0.05858,-0.26475 0.106751,-0.134018 0.270602,-0.297025 0.465596,-0.464074 l -1e-6,-0.2852912 c -0.262702,0.2122692 -0.487647,0.4303502 -0.634487,0.6147082 -0.09028,0.113337 -0.115982,0.261314 -0.10575,0.413862 0.0025,0.0366 0.0074,0.07349 0.01369,0.111074 l -0.264751,0.09281 a 0.26487007,0.26487002 87.809526 0 0 -0.162045,0.337785 0.26487007,0.26487002 87.809526 0 0 0.337024,0.162045 l 0.26475,-0.09281 c 0.137049,0.266811 0.332317,0.512732 0.551564,0.657311 z m 0,-2.011494 v 0.599492 L 6.9497075,9.4174712 C 6.9040985,9.3481301 6.8527765,9.2847133 6.7975525,9.2303201 6.6244155,9.0597733 6.3058625,9.0235576 6.0131905,9.0150202 c -0.160958,-0.0047 -0.323344,0.00281 -0.485375,0.020541 -0.486094,0.053203 -0.97056,0.2013713 -1.413524,0.4077763 -0.390333,0.1818819 -0.825519,0.4855985 -1.16627,0.7775145 z m 0,1.160945 v 0.575908 c 0.04127,0.03804 0.08303,0.07076 0.124005,0.09738 0.143453,0.09321 0.343695,0.135982 0.563736,0.145309 0.585447,-0.635087 1.288044,-1.336764 1.900421,-1.724682 0.0016,-0.001 0.0037,-0.002 0.0053,-0.003 z m 9.7508775,-4.57303 c -0.16271,-0.00668 -0.342464,-0.00512 -0.528741,0.00456 -0.372553,0.019373 -0.769042,0.072837 -1.094758,0.1650886 -0.626929,0.1775632 -1.2419435,0.4810823 -1.7170735,0.9159754 -0.215981,0.1976911 -0.433787,0.4333371 -0.453422,0.6755699 -0.0043,0.052307 -0.0044,0.1069407 -7.61e-4,0.1620454 L 13.423159,7.147312 c -0.02596,-0.049748 -0.05378,-0.095157 -0.08293,-0.1338971 -0.07164,-0.095204 -0.147973,-0.1481755 -0.217583,-0.1612848 -0.115658,-0.02178 -0.261041,-0.036682 -0.423751,-0.043364 z m 0.885543,0.842941 -2.993656,1.049872 c 0.750801,-0.080461 1.7515,-0.00743 2.611747,0.085968 0.178716,-0.1602539 0.317612,-0.3358428 0.368977,-0.5127637 0.0481,-0.1656522 0.0502,-0.3968046 0.01296,-0.6230762 z M 8.2323775,8.5288837 c -0.126273,0.00283 -0.272471,0.027021 -0.436687,0.088249 -0.432619,0.1613079 -0.647614,0.436085 -0.73567,0.5812337 0.03644,0.045458 0.07042,0.09419 0.101951,0.1445476 l 1.529923,-0.5363477 c -0.0059,-0.061816 -0.008,-0.1236594 -0.006,-0.1841076 -0.08822,-0.043311 -0.242955,-0.098291 -0.453423,-0.093576 z m 3.2097185,0.6717661 c -0.341266,-0.00439 -0.655204,0.00693 -0.909128,0.041843 -0.440445,0.060555 -0.8812405,0.1446125 -1.3169065,0.252578 0.04537,0.048622 0.09505,0.090637 0.148351,0.1240066 0.344481,0.2156437 0.9394505,0.2386816 1.4797125,0.1742179 0.27013,-0.032232 0.526957,-0.084437 0.731866,-0.1369399 0.20491,-0.052503 0.36414,-0.1092568 0.416146,-0.1361791 0.103851,-0.053762 0.300023,-0.1437186 0.522654,-0.265511 -0.363218,-0.029338 -0.73143,-0.049629 -1.072695,-0.054015 z M 7.1612025,10.203354 c -0.465572,0.209709 -0.914827,0.449572 -1.341248,0.719695 -0.398007,0.252123 -0.904092,0.715116 -1.377768,1.198223 0.278889,-0.05641 0.515488,-0.125516 0.639813,-0.155198 0.05696,-0.0136 0.214547,-0.07475 0.403974,-0.168893 0.189426,-0.09414 0.417301,-0.222203 0.642856,-0.374302 0.451109,-0.304198 0.886626,-0.710235 1.006508,-1.098562 0.01207,-0.03892 0.0207,-0.07911 0.02587,-0.120963 z"
     class="ColorScheme-Text" />
</svg>
