<?xml version='1.0' encoding='UTF-8'?>
<svg xmlns:inkscape="http://www.inkscape.org/namespaces/inkscape" xmlns:sodipodi="http://sodipodi.sourceforge.net/DTD/sodipodi-0.dtd" xmlns="http://www.w3.org/2000/svg" xmlns:svg="http://www.w3.org/2000/svg" xmlns:rdf="http://www.w3.org/1999/02/22-rdf-syntax-ns#" xmlns:cc="http://creativecommons.org/ns#" xmlns:dc="http://purl.org/dc/elements/1.1/" width="64" height="64" version="1.1" viewBox="0 0 16.933 16.933" id="svg7" sodipodi:docname="onlyoffice-desktopeditors.svg" inkscape:version="1.4 (e7c3feb100, 2024-10-09)">
  <sodipodi:namedview id="namedview7" pagecolor="#9c4444" bordercolor="#000000" borderopacity="0.25" inkscape:showpageshadow="2" inkscape:pageopacity="0.0" inkscape:pagecheckerboard="0" inkscape:deskcolor="#d1d1d1" inkscape:zoom="6.15625" inkscape:cx="37.441624" inkscape:cy="29.725888" inkscape:window-width="1183" inkscape:window-height="941" inkscape:window-x="35" inkscape:window-y="32" inkscape:window-maximized="0" inkscape:current-layer="svg7" showgrid="false"/>
  <defs id="defs2">
    <style id="current-color-scheme" type="text/css">.ColorScheme-Text {color:#d8dee9} .ColorScheme-Highlight {color:#3b4252}</style></defs>
  <metadata id="metadata2">
    <rdf:RDF>
      <cc:Work rdf:about="">
        <dc:format>image/svg+xml</dc:format>
        <dc:type rdf:resource="http://purl.org/dc/dcmitype/StillImage"/>
      </cc:Work>
    </rdf:RDF>
  </metadata>
  <path id="path2" style="fill:currentColor;fill-opacity:1;stroke-width:0.0967508" d="M 7.6693342,1.1076123 4.7491463,2.558043 C 2.9111649,3.4705397 1.7735709,4.0899944 1.6810574,4.2294825 1.3716415,4.6960002 1.5469307,4.8219457 4.6508258,6.3698341 6.2464599,7.1655628 7.6948472,7.8369892 7.870176,7.861441 8.8337456,7.9958185 9.1256422,7.8964162 12.10802,6.4194146 13.6778,5.6419919 15.038453,4.9378432 15.13157,4.8546969 15.22469,4.7715529 15.30048,4.6082078 15.30048,4.49167 15.30048,4.3751335 15.22467,4.2117875 15.13157,4.1286418 15.03843,4.0454958 13.664582,3.3320274 12.078606,2.5429173 L 9.1945548,1.1076123 H 8.4323645 Z m 4.9361688,5.7462585 -1.54707,0.774795 C 8.6164196,8.851471 8.2009774,8.8520539 5.7424306,7.6404268 L 4.1667887,6.8639557 2.9171999,7.4908504 C 2.207008,7.8467284 1.6204317,8.2041872 1.5592072,8.3185877 1.3163939,8.7722887 1.7056877,9.0171569 5.8189012,10.995915 l 1.8865678,0.907569 0.7907617,-0.02943 0.7899212,-0.02942 2.8571631,-1.422696 C 15.238599,8.8802934 15.462869,8.7199956 15.163509,8.2631166 15.063782,8.1109065 14.554088,7.8014178 13.804669,7.4370612 Z M 4.1096456,10.901797 2.8407293,11.547179 c -2.04017536,1.037409 -2.04688901,1.024919 1.5588347,2.83027 1.5522829,0.777212 2.9308539,1.449117 3.0638858,1.493288 0.1330323,0.04417 0.59027,0.06682 1.015975,0.05043 l 0.773954,-0.02943 2.7571622,-1.379841 c 2.764544,-1.38376 3.193301,-1.644228 3.193301,-1.94119 0,-0.260537 -0.37111,-0.528789 -1.542868,-1.113455 L 12.553401,10.905162 10.85003,11.745503 9.1466558,12.585846 H 8.3340448 7.5222744 L 5.8163795,11.743821 Z" class="ColorScheme-Text"/>
  <g id="g9" transform="matrix(0.46959567,0,0,0.46959567,4.7471229,3.7470598)" style="fill:#999999;fill-opacity:1;stroke:none;stroke-width:0.58349;stroke-dasharray:none;stroke-opacity:0.3"/>
  </svg>
