<?xml version="1.0" encoding="UTF-8" standalone="no"?>
<svg
   width="64"
   height="64"
   version="1.1"
   viewBox="0 0 16.933 16.933"
   id="svg7"
   sodipodi:docname="openmw.svg"
   inkscape:version="1.4.2 (ebf0e940d0, 2025-05-08)"
   xmlns:inkscape="http://www.inkscape.org/namespaces/inkscape"
   xmlns:sodipodi="http://sodipodi.sourceforge.net/DTD/sodipodi-0.dtd"
   xmlns="http://www.w3.org/2000/svg"
   xmlns:svg="http://www.w3.org/2000/svg"
   xmlns:rdf="http://www.w3.org/1999/02/22-rdf-syntax-ns#"
   xmlns:cc="http://creativecommons.org/ns#"
   xmlns:dc="http://purl.org/dc/elements/1.1/">
  <sodipodi:namedview
     id="namedview7"
     pagecolor="#9c4444"
     bordercolor="#000000"
     borderopacity="0.25"
     inkscape:showpageshadow="2"
     inkscape:pageopacity="0.0"
     inkscape:pagecheckerboard="0"
     inkscape:deskcolor="#d1d1d1"
     inkscape:zoom="4.3531262"
     inkscape:cx="89.935366"
     inkscape:cy="34.457995"
     inkscape:window-width="2560"
     inkscape:window-height="1388"
     inkscape:window-x="0"
     inkscape:window-y="0"
     inkscape:window-maximized="1"
     inkscape:current-layer="svg7"
     showgrid="false" />
  <defs
     id="defs2">
    <style
       id="current-color-scheme"
       type="text/css">.ColorScheme-Text {color:#d8dee9} .ColorScheme-Highlight {color:#3b4252}</style>
  </defs>
  <metadata
     id="metadata2">
    <rdf:RDF>
      <cc:Work
         rdf:about="">
        <dc:format>image/svg+xml</dc:format>
        <dc:type
           rdf:resource="http://purl.org/dc/dcmitype/StillImage" />
      </cc:Work>
    </rdf:RDF>
  </metadata>
  <path
     id="path5"
     style="fill:currentColor;stroke-width:0.351536"
     d="m 8.485815,1.4551797 c -3.867717,0 -7.049957,3.1649101 -7.049957,7.0113203 0,3.84641 3.18224,7.01132 7.049957,7.01132 0.532992,-0.0028 1.064584,-0.06567 1.583123,-0.187314 -0.23477,0.05294 -0.472109,0.09352 -0.711109,0.122268 C 5.856721,14.969308 3.203052,11.976367 3.19847,8.4665 3.20157,4.9532246 5.859514,1.9584224 9.36272,1.5172917 9.07208,1.4798057 8.779412,1.4565257 8.485815,1.4551797 Z M 8.421255,1.9638134 C 5.537681,2.767498 3.456026,5.4140327 3.453273,8.4665 c 0.004,3.043662 2.075348,5.684361 4.948908,6.494372 C 5.972982,13.753515 4.356375,11.255495 4.353653,8.4665 4.356953,5.6706621 5.982101,3.1672971 8.421255,1.9638134 Z m 0.271923,1.3669532 c 0.480929,0.3542959 1.089626,1.2381496 1.431511,2.3181962 0.32325,1.0201471 0.228185,1.9092207 0.150634,2.8175372 l 4.93e-4,9.815e-4 1.266694,-1.9826934 c 0.0017,-8.414e-4 0.0032,-0.00158 0.0049,-0.00245 C 11.50969,6.2124456 11.44907,5.9356864 11.358136,5.6489665 10.625445,3.3347227 9.602291,3.7879668 8.693188,3.3307704 Z M 10.275323,8.4665 9.170023,6.36105 c 7.1e-5,-0.00179 -7e-5,-0.00359 0,-0.00539 C 8.916217,6.2529442 8.6449,6.1670372 8.349851,6.101832 5.952145,5.57249 5.850215,6.6987376 4.981619,7.2491925 c 1.96992,-1.0754437 4.175357,0.4935261 5.2536,1.2402836 l 0.02446,9.815e-4 0.0025,-9.815e-4 0.0132,-0.02054 z m -0.0132,0.022987 -9.46e-4,9.815e-4 0.01223,9.814e-4 4.93e-4,-0.00734 z m -0.0269,0 L 7.869587,8.338853 c 4.94e-4,3.113e-4 9.46e-4,6.661e-4 0.0015,9.814e-4 C 7.655352,8.5070544 7.444151,8.6978258 7.239697,8.9193835 5.582024,10.717481 6.507454,11.369172 6.554958,12.390319 6.606328,10.168403 9.050783,9.054359 10.245976,8.4968265 Z M 9.232137,4.3314057 c 0.178754,0.6616554 0.215782,1.3211416 0.194162,1.9714447 v 4.908e-4 l 0.661223,1.2578905 C 10.115012,6.9661364 10.0871,6.3732497 9.881624,5.7247702 9.716982,5.2046533 9.486939,4.7305626 9.242897,4.3485249 c -0.0036,-0.00563 -0.0072,-0.011527 -0.01076,-0.017118 z m 4.710731,0.2288852 c -0.06882,0.591164 -0.533517,1.556518 -1.302395,2.3905784 -0.720879,0.7817622 -1.535899,1.1454551 -2.3583,1.5293249 l 0.0059,0.011737 2.333357,0.098303 c 0.0016,0.00102 0.0033,0.00193 0.0049,0.00294 0.215735,-0.16722 0.426447,-0.3579914 0.630901,-0.5795491 1.648005,-1.7876533 0.742929,-2.4423308 0.685677,-3.4533292 z m -0.602535,0.9639587 c -0.486616,0.4845769 -1.041252,0.8467582 -1.618335,1.153229 l -9.47e-4,4.908e-4 -0.763929,1.1967566 c 0.531844,-0.2738344 1.033262,-0.5937077 1.49509,-1.0945407 0.370424,-0.4018279 0.668773,-0.8374577 0.879349,-1.2388165 0.0029,-0.00555 0.006,-0.01159 0.0088,-0.017118 z m -6.77461,1.6144231 c -0.248182,-0.01092 -0.496379,0.00712 -0.743387,0.061623 0.79575,0.1587478 1.486496,0.4936688 2.127947,0.8901088 l 1.364018,0.087055 C 8.736564,7.8120925 8.037407,7.4334261 7.308132,7.2511588 7.061853,7.1896068 6.813905,7.1495925 6.565723,7.1386727 Z M 10.253318,8.5022024 8.948476,10.45115 c 3.54e-4,-1.9e-4 6e-4,-3e-4 9.47e-4,-4.91e-4 0.03771,0.269936 0.09832,0.546613 0.18927,0.833376 0.737321,2.328869 1.769176,1.854695 2.682554,2.326511 C 9.924178,12.465213 10.157804,9.8335262 10.270892,8.5144273 Z m 0.06065,0.04206 1.012866,2.0345347 c -0.01261,0.32681 -0.01068,0.653988 0.01663,0.980587 -0.02731,-0.327209 -0.02898,-0.65469 -0.01614,-0.982054 0.253805,0.102716 0.524634,0.188623 0.819683,0.253828 2.380645,0.525575 2.498397,-0.581059 3.350135,-1.1356229 -0.549688,0.2362769 -1.622256,0.3180569 -2.732929,0.072872 -1.012754,-0.2236611 -1.72584,-0.721433 -2.450244,-1.2241446 z m 0.802565,0.2357321 c 0.504979,0.3215055 1.035349,0.593997 1.702944,0.7414317 0.535232,0.1181544 1.063514,0.1572163 1.518077,0.1379179 0.0063,-2.706e-4 0.01273,-6.66e-4 0.01907,-9.814e-4 -0.665455,-0.1768793 -1.257975,-0.474492 -1.813476,-0.818216 z M 9.529003,9.1272349 C 8.919283,9.4435762 8.237229,9.8588655 7.713083,10.399308 7.363202,10.760068 7.084631,11.169027 6.933505,11.645461 7.469384,11.039494 8.105692,10.61151 8.771922,10.257478 Z m 0.935104,0.2890407 c -0.02955,0.6884664 -0.0085,1.4910984 0.204432,2.2169584 0.139472,0.475461 0.355131,0.914323 0.690568,1.278432 -0.259589,-0.764495 -0.313551,-1.527303 -0.28904,-2.278093 v -4.91e-4 z m 4.033857,0.014184 c 0.112263,0.028014 0.225273,0.054478 0.341861,0.074828 -0.116562,-0.020347 -0.229623,-0.04682 -0.341861,-0.074828 z"
     class="ColorScheme-Text" />
</svg>
