<?xml version="1.0" encoding="UTF-8" standalone="no"?>
<svg
   width="64"
   height="64"
   version="1.1"
   viewBox="0 0 16.933 16.933"
   id="svg7"
   sodipodi:docname="opera-gx.svg"
   inkscape:version="1.4.3 (0d15f75042, 2025-12-25)"
   xmlns:inkscape="http://www.inkscape.org/namespaces/inkscape"
   xmlns:sodipodi="http://sodipodi.sourceforge.net/DTD/sodipodi-0.dtd"
   xmlns="http://www.w3.org/2000/svg"
   xmlns:svg="http://www.w3.org/2000/svg"
   xmlns:rdf="http://www.w3.org/1999/02/22-rdf-syntax-ns#"
   xmlns:cc="http://creativecommons.org/ns#"
   xmlns:dc="http://purl.org/dc/elements/1.1/">
  <sodipodi:namedview
     id="namedview7"
     pagecolor="#9c4444"
     bordercolor="#000000"
     borderopacity="0.25"
     inkscape:showpageshadow="2"
     inkscape:pageopacity="0.0"
     inkscape:pagecheckerboard="0"
     inkscape:deskcolor="#d1d1d1"
     inkscape:zoom="4.3531262"
     inkscape:cx="89.590787"
     inkscape:cy="35.836315"
     inkscape:window-width="2560"
     inkscape:window-height="1388"
     inkscape:window-x="0"
     inkscape:window-y="0"
     inkscape:window-maximized="1"
     inkscape:current-layer="svg7"
     showgrid="false" />
  <defs
     id="defs2">
    <style
       id="current-color-scheme"
       type="text/css">.ColorScheme-Text {color:#d8dee9} .ColorScheme-Highlight {color:#3b4252}</style>
  </defs>
  <metadata
     id="metadata2">
    <rdf:RDF>
      <cc:Work
         rdf:about="">
        <dc:format>image/svg+xml</dc:format>
        <dc:type
           rdf:resource="http://purl.org/dc/dcmitype/StillImage" />
      </cc:Work>
    </rdf:RDF>
  </metadata>
  <path
     id="path5"
     d="m 9.7443095,4.0499887 c 1.2439895,0.8032379 2.1005275,2.4827441 2.1005275,4.4256981 0,1.9429292 -0.856538,3.6226782 -2.1005275,4.4256982 1.5879095,-0.132321 2.8480165,-2.062934 2.8480165,-4.4256982 0,-2.3628123 -1.260156,-4.2933563 -2.8480165,-4.4256982 M 12.69025,13.181339 c -0.743077,0.490319 -1.592588,0.75018 -2.45899,0.75018 -1.4182645,0 -2.7629405,-0.69385 -3.6893345,-1.903591 -0.0033,-0.0041 -0.0064,-0.008 -0.0097,-0.01213 -0.710573,-0.843377 -1.134916,-2.0823485 -1.164172,-3.3916856 l -1.65e-4,-0.3072222 c 0.02942,-1.3170688 0.453744,-2.5559444 1.173868,-3.4113191 0.926514,-1.209741 2.271385,-1.9035907 3.6895765,-1.9035907 0.866524,0 1.716179,0.2598604 2.459717,0.750495 1.326716,1.2027603 2.087658,2.9192785 2.087658,4.7143782 0,1.7952444 -0.761088,3.5119074 -2.088143,4.7146204 m -4.5248325,1.624605 c -3.370598,-0.159006 -6.011135,-2.943517 -6.011135,-6.3393225 0,-3.4995471 2.831535,-6.3468375 6.318236,-6.3468375 0.0015,0 0.01587,1.661e-4 0.01752,1.661e-4 0.552078,0.002 1.096377,0.076596 1.6205095,0.2186527 C 8.5308315,2.3766198 7.0451845,3.1593547 6.0278965,4.488058 5.2213625,5.4452585 4.7400105,6.8354302 4.7072895,8.309249 v 0.3221538 c 0.03271,1.4631292 0.512085,2.8506832 1.315638,3.8081012 1.026474,1.336848 2.510619,2.117253 4.0882995,2.155138 -0.6272435,0.170137 -1.2928305,0.242578 -1.9457175,0.211342 M 13.114025,3.2401253 C 11.842017,2.0956828 10.200806,1.4619929 8.4854505,1.455497 c -0.0022,-1.662e-4 -0.01686,-3.324e-4 -0.01884,-3.324e-4 -3.844944,0 -6.973159,3.1454235 -6.973159,7.0114563 0,3.7513831 2.917097,6.8277281 6.641577,7.0032141 0.109885,0.0051 0.220432,0.008 0.331631,0.008 1.7165185,0 3.3664785,-0.633206 4.6452985,-1.783296 l 0.0015,-0.001 c 1.47823,-1.329526 2.326091,-3.23462 2.326091,-5.2270204 0,-1.9921335 -0.847691,-3.8972997 -2.325582,-5.2265361"
     style="fill:currentColor"
     class="ColorScheme-Text" />
</svg>
