<?xml version="1.0" encoding="UTF-8" standalone="no"?>
<svg
   width="64"
   height="64"
   version="1.1"
   viewBox="0 0 16.933 16.933"
   id="svg7"
   sodipodi:docname="org.cachyos.scx-manager.svg"
   inkscape:version="1.4.3 (0d15f75042, 2025-12-25)"
   xmlns:inkscape="http://www.inkscape.org/namespaces/inkscape"
   xmlns:sodipodi="http://sodipodi.sourceforge.net/DTD/sodipodi-0.dtd"
   xmlns="http://www.w3.org/2000/svg"
   xmlns:svg="http://www.w3.org/2000/svg"
   xmlns:rdf="http://www.w3.org/1999/02/22-rdf-syntax-ns#"
   xmlns:cc="http://creativecommons.org/ns#"
   xmlns:dc="http://purl.org/dc/elements/1.1/">
  <sodipodi:namedview
     id="namedview7"
     pagecolor="#9c4444"
     bordercolor="#000000"
     borderopacity="0.25"
     inkscape:showpageshadow="2"
     inkscape:pageopacity="0.0"
     inkscape:pagecheckerboard="0"
     inkscape:deskcolor="#d1d1d1"
     inkscape:zoom="4.3531262"
     inkscape:cx="89.935366"
     inkscape:cy="34.457995"
     inkscape:window-width="2560"
     inkscape:window-height="1388"
     inkscape:window-x="0"
     inkscape:window-y="0"
     inkscape:window-maximized="1"
     inkscape:current-layer="svg7"
     showgrid="false" />
  <defs
     id="defs2">
    <style
       id="current-color-scheme"
       type="text/css">.ColorScheme-Text {color:#d8dee9} .ColorScheme-Highlight {color:#3b4252}</style>
  </defs>
  <metadata
     id="metadata2">
    <rdf:RDF>
      <cc:Work
         rdf:about="">
        <dc:format>image/svg+xml</dc:format>
        <dc:type
           rdf:resource="http://purl.org/dc/dcmitype/StillImage" />
      </cc:Work>
    </rdf:RDF>
  </metadata>
  <path
     id="path5"
     style="fill:currentColor;fill-opacity:1;stroke-width:0.0467421;paint-order:fill markers stroke"
     d="m 6.830525,1.4551912 c -0.129476,0 -0.233711,0.104235 -0.233711,0.233711 v 1.787704 A 5.3286031,5.3286031 0 0 0 6.260308,3.6161022 L 4.996079,2.3518732 c -0.09155,-0.09155 -0.238928,-0.09155 -0.330481,0 l -2.313736,2.313736 c -0.09155,0.09155 -0.09155,0.238928 0,0.330481 l 1.264229,1.264229 A 5.3286031,5.3286031 0 0 0 3.476595,6.5968262 H 1.688891 c -0.129476,0 -0.233711,0.104235 -0.233711,0.23371 v 3.2719488 c 0,0.129476 0.104235,0.233711 0.233711,0.233711 h 1.787704 a 5.3286031,5.3286031 0 0 0 0.139496,0.336507 l -1.264229,1.264229 c -0.09155,0.09155 -0.09155,0.238928 0,0.330481 l 2.313736,2.313736 c 0.09155,0.09155 0.238928,0.09155 0.330481,0 l 1.264229,-1.264228 a 5.3286031,5.3286031 0 0 0 0.336506,0.139495 v 1.787704 c 0,0.129476 0.104235,0.233711 0.233711,0.233711 h 3.271949 c 0.129476,0 0.233711,-0.104235 0.233711,-0.233711 v -1.787704 a 5.3286031,5.3286031 0 0 0 0.336507,-0.139495 l 1.264229,1.264228 c 0.09155,0.09155 0.238928,0.09155 0.330481,0 l 2.313735,-2.313736 c 0.09155,-0.09155 0.09155,-0.238928 0,-0.330481 l -1.264228,-1.264229 a 5.3286031,5.3286031 0 0 0 0.139496,-0.336507 h 1.787704 c 0.129475,0 0.233711,-0.104235 0.233711,-0.233711 V 6.8305362 c 0,-0.129475 -0.104236,-0.23371 -0.233711,-0.23371 h -1.787704 -0.476003 -2.410506 c -0.0081,0 -0.01604,-4.88e-4 -0.02392,-0.0013 -0.118136,-0.01193 -0.209792,-0.11105 -0.209792,-0.232433 v -2.410507 -0.476002 -1.787704 c 0,-0.129476 -0.104235,-0.233711 -0.23371,-0.233711 z M 8.4665,6.7837942 a 1.6827168,1.6827168 0 0 1 0.05332,9.15e-4 h 0.160311 c 0.0066,-5.51e-4 0.01334,-9.15e-4 0.02008,-9.15e-4 h 1.215295 c 0.129476,0 0.233711,0.104235 0.233711,0.233711 v 1.142626 0.07267 1.87e-4 0.232068 a 1.6827168,1.6827168 0 0 1 0,0.0015 A 1.6827168,1.6827168 0 0 1 8.4665,10.149273 1.6827168,1.6827168 0 0 1 6.783783,8.4665562 1.6827168,1.6827168 0 0 1 8.4665,6.7838402 Z"
     class="ColorScheme-Text" />
</svg>
