<?xml version='1.0' encoding='UTF-8'?>
<svg xmlns:inkscape="http://www.inkscape.org/namespaces/inkscape" xmlns:sodipodi="http://sodipodi.sourceforge.net/DTD/sodipodi-0.dtd" xmlns="http://www.w3.org/2000/svg" xmlns:svg="http://www.w3.org/2000/svg" xmlns:rdf="http://www.w3.org/1999/02/22-rdf-syntax-ns#" xmlns:cc="http://creativecommons.org/ns#" xmlns:dc="http://purl.org/dc/elements/1.1/" width="64" height="64" version="1.1" viewBox="0 0 16.933 16.933" id="svg7" sodipodi:docname="org.gnome.Maps.svg" inkscape:version="1.4 (e7c3feb100, 2024-10-09)">
  <sodipodi:namedview id="namedview7" pagecolor="#9c4444" bordercolor="#000000" borderopacity="0.25" inkscape:showpageshadow="2" inkscape:pageopacity="0.0" inkscape:pagecheckerboard="0" inkscape:deskcolor="#d1d1d1" inkscape:zoom="6.15625" inkscape:cx="15.837563" inkscape:cy="29.725888" inkscape:window-width="1183" inkscape:window-height="941" inkscape:window-x="35" inkscape:window-y="32" inkscape:window-maximized="0" inkscape:current-layer="svg7" showgrid="false"/>
  <defs id="defs2">
    <style id="current-color-scheme" type="text/css">.ColorScheme-Text {color:#d8dee9} .ColorScheme-Highlight {color:#3b4252}</style></defs>
  <metadata id="metadata2">
    <rdf:RDF>
      <cc:Work rdf:about="">
        <dc:format>image/svg+xml</dc:format>
        <dc:type rdf:resource="http://purl.org/dc/dcmitype/StillImage"/>
      </cc:Work>
    </rdf:RDF>
  </metadata>
  <path style="fill:currentColor;fill-opacity:1;stroke:none;stroke-width:0.430255;stroke-dasharray:none;stroke-opacity:0.3" d="M 8.0697058,14.676599 C 5.6139204,11.912659 4.4363835,9.5856306 4.1704095,6.9708692 3.937111,4.6773321 5.2722197,2.4871048 7.3208327,1.8026483 7.9442537,1.5943589 8.718144,1.5466913 9.3619389,1.6769272 11.038295,2.0160439 12.36661,3.3390508 12.856607,5.1576227 c 0.114171,0.4238415 0.128041,0.5664029 0.127965,1.3154815 -1.08e-4,0.7242532 -0.01862,0.9280609 -0.134368,1.47771 -0.270685,1.2855407 -0.756092,2.5001958 -1.49215,3.7338568 -0.566121,0.948835 -1.222299,1.799117 -2.6211841,3.396554 L 8.5841574,15.255607 Z M 9.2759593,7.6612605 C 9.9987627,7.3193199 10.413467,6.386636 10.229643,5.5163898 10.097769,4.8920737 9.7847676,4.4669214 9.270698,4.2138457 8.9891163,4.075224 8.8918692,4.0528679 8.5704192,4.0528679 c -0.3079486,0 -0.4224578,0.024058 -0.6542019,0.1374403 -0.3640003,0.178087 -0.739726,0.5871969 -0.8825832,0.9610004 -0.2042143,0.5343512 -0.1784043,1.2308587 0.063433,1.7118124 0.1212466,0.2411318 0.5058256,0.6560495 0.7037261,0.7592427 0.4707279,0.2454592 1.008552,0.2596401 1.4751661,0.038897 z" id="path7" class="ColorScheme-Text"/>
  </svg>
