<?xml version='1.0' encoding='UTF-8'?>
<svg xmlns:inkscape="http://www.inkscape.org/namespaces/inkscape" xmlns:sodipodi="http://sodipodi.sourceforge.net/DTD/sodipodi-0.dtd" xmlns="http://www.w3.org/2000/svg" xmlns:svg="http://www.w3.org/2000/svg" xmlns:rdf="http://www.w3.org/1999/02/22-rdf-syntax-ns#" xmlns:cc="http://creativecommons.org/ns#" xmlns:dc="http://purl.org/dc/elements/1.1/" width="64" height="64" version="1.1" viewBox="0 0 16.933 16.933" id="svg7" sodipodi:docname="org.xfce.about.svg" inkscape:version="1.4 (e7c3feb100, 2024-10-09)">
  <sodipodi:namedview id="namedview7" pagecolor="#9c4444" bordercolor="#000000" borderopacity="0.25" inkscape:showpageshadow="2" inkscape:pageopacity="0.0" inkscape:pagecheckerboard="0" inkscape:deskcolor="#d1d1d1" inkscape:zoom="6.15625" inkscape:cx="15.837563" inkscape:cy="27.28934" inkscape:window-width="1183" inkscape:window-height="941" inkscape:window-x="35" inkscape:window-y="32" inkscape:window-maximized="0" inkscape:current-layer="svg7" showgrid="false"/>
  <defs id="defs2">
    <style id="current-color-scheme" type="text/css">.ColorScheme-Text {color:#d8dee9} .ColorScheme-Highlight {color:#3b4252}</style></defs>
  <metadata id="metadata2">
    <rdf:RDF>
      <cc:Work rdf:about="">
        <dc:format>image/svg+xml</dc:format>
        <dc:type rdf:resource="http://purl.org/dc/dcmitype/StillImage"/>
      </cc:Work>
    </rdf:RDF>
  </metadata>
  <path style="fill:currentColor;stroke-width:0.329819" d="m 0.76887984,4.3876308 c -0.033668,0.065972 -0.067336,0.1314895 -0.0996398,0.1974601 C 1.181089,4.8694524 2.6561242,5.6106095 3.3563333,6.0496619 4.2412634,6.5915398 5.4373974,7.6971329 5.531577,7.8832187 4.6111588,9.486102 5.028828,10.904719 4.9200886,11.055773 c -0.078255,0.126028 -0.8016693,0.920418 -0.5687211,1.037802 0.2311279,0.115558 0.5987498,-0.06597 0.6542566,-0.10146 0.1155656,-0.07098 0.2347682,-0.174257 0.1847218,0.03003 -0.09782,0.41767 -0.5418781,1.421803 0.070975,1.208419 0.074615,-0.04277 1.061006,-1.130161 1.1802103,-1.167469 1.962315,0.511848 4.1571228,0.277082 4.5634168,0.0869 0.211564,0.01406 0.81031,0.390826 1.151544,0.570543 0.341233,0.177897 1.270753,0.623772 0.99549,-0.186542 -0.08554,-0.256152 -0.69657,-0.909954 -0.597386,-0.952722 0.218389,-0.0869 0.758903,0.225667 0.966827,0.284359 0.621952,0.174257 0.705668,-0.06734 0.313022,-0.598748 -0.38764,-0.531415 -0.445876,-0.449519 -0.568719,-0.694752 -0.09601,-0.197459 0,-0.415848 0.07098,-0.46908 0.126027,-0.096 1.983243,-1.1269778 2.418656,-1.5214431 0.645158,-0.5864644 0,-1.3185228 -0.158327,-1.421802 C 14.258936,6.1966172 12.884908,6.4027212 12.867164,6.2498489 12.858044,6.0755942 12.861844,5.5728438 12.838493,5.398587 12.705189,4.2183767 12.159666,4.5154768 12.08505,4.5154768 c -0.545517,0.085536 -0.344871,0.9204189 -0.113753,1.7061639 0.01767,0.2006448 -0.190179,0.1119252 -0.313022,-0.09964 -0.419474,-1.1251566 -0.595548,-1.1055925 -0.711113,-1.1392612 -0.111924,-0.025027 -0.506389,0.2152046 -0.499564,0.6701811 0.0018,0.1296674 0.156511,0.7484371 0.156511,0.9386176 -0.257516,0.2256686 -0.270256,0.7375177 -0.540512,0.924058 C 9.2764876,7.6789328 7.3851488,7.126591 7.1490158,7.101567 6.3314219,6.9486951 5.9742652,7.5620041 5.842777,7.4145915 4.7817754,6.1988945 3.1606929,5.2962209 2.458664,5.1397085 2.1865876,5.0810162 1.2679893,4.6756313 0.93722136,4.4713465 0.88398906,4.4394983 0.8234771,4.4162944 0.76478515,4.3858113 M 15.355888,5.4522772 c -0.256152,0.2752617 -0.211563,1.3044187 -0.158327,1.2957743 0.261157,-0.053234 0.236588,-1.3785794 0.158327,-1.2957743 m 0.741158,0.1565125 c -0.03002,-0.083714 -0.703848,0.8621806 -0.584645,1.2102382 0.05324,0.1510519 0.675186,-0.9454421 0.584645,-1.2102382 M 12.59782,7.2171324 c 0.0091,-0.0091 0.01957,0.00367 0.03002,0.014098 0.07824,0.2593371 0.165148,0.5063892 0.680644,0.5687206 0.06052,0.00728 -0.286182,0.2097446 -0.524132,0.085536 C 12.567321,7.754007 12.547758,7.2758254 12.59781,7.2171333 m 1.336724,1.3062392 c 0.04779,-0.00728 0.08191,-0.00542 0.115577,0 0.126027,0.03185 -0.914506,0.5741802 -0.995491,0.4995641 -0.04959,-0.047772 0.554615,-0.439052 0.881746,-0.499564 m 0.270254,0.3430517 c 0.108281,0.0091 -0.602386,0.7447973 -0.682465,0.6683606 -0.05869,-0.053234 0.460439,-0.6861041 0.682465,-0.6683606" id="path3" class="ColorScheme-Text"/>
</svg>
