<?xml version='1.0' encoding='UTF-8'?>
<svg xmlns:inkscape="http://www.inkscape.org/namespaces/inkscape" xmlns:sodipodi="http://sodipodi.sourceforge.net/DTD/sodipodi-0.dtd" xmlns="http://www.w3.org/2000/svg" xmlns:svg="http://www.w3.org/2000/svg" xmlns:rdf="http://www.w3.org/1999/02/22-rdf-syntax-ns#" xmlns:cc="http://creativecommons.org/ns#" xmlns:dc="http://purl.org/dc/elements/1.1/" width="64" height="64" version="1.1" viewBox="0 0 16.933 16.933" id="svg7" sodipodi:docname="org.gnome.Shell.Extensions.svg" inkscape:version="1.4 (e7c3feb100, 2024-10-09)">
  <sodipodi:namedview id="namedview7" pagecolor="#9c4444" bordercolor="#000000" borderopacity="0.25" inkscape:showpageshadow="2" inkscape:pageopacity="0.0" inkscape:pagecheckerboard="0" inkscape:deskcolor="#d1d1d1" inkscape:zoom="6.15625" inkscape:cx="15.837563" inkscape:cy="29.725888" inkscape:window-width="1183" inkscape:window-height="941" inkscape:window-x="35" inkscape:window-y="32" inkscape:window-maximized="0" inkscape:current-layer="svg7" showgrid="false"/>
  <defs id="defs2">
    <style id="current-color-scheme" type="text/css">.ColorScheme-Text {color:#d8dee9} .ColorScheme-Highlight {color:#3b4252}</style></defs>
  <metadata id="metadata2">
    <rdf:RDF>
      <cc:Work rdf:about="">
        <dc:format>image/svg+xml</dc:format>
        <dc:type rdf:resource="http://purl.org/dc/dcmitype/StillImage"/>
      </cc:Work>
    </rdf:RDF>
  </metadata>
  <path style="fill:currentColor;fill-opacity:1;stroke:none;stroke-width:0.366466;stroke-dasharray:none;stroke-dashoffset:2.2;stroke-opacity:0.3" d="M 2.5447614,15.066847 C 2.3083891,14.942245 2.1580069,14.788276 2.0553091,14.56576 1.9695203,14.379883 1.961185,14.202493 1.9601647,12.541221 l -0.00111,-1.820813 0.2164605,0.0012 c 0.1462601,7.97e-4 0.2990503,0.04977 0.4711187,0.150968 0.7757784,0.45628 1.0667774,0.512264 1.4319535,0.27548 C 4.5451075,10.845559 4.7841816,10.242908 4.7510747,9.4528715 4.7203321,8.7193031 4.4572161,8.2080076 3.9856238,7.965432 3.6532399,7.7944618 3.3724641,7.8539633 2.8043579,8.2157613 2.4911212,8.4152465 2.2443241,8.4981403 2.0836801,8.457821 L 1.9590553,8.4265416 V 6.9988921 c 0,-1.5497489 0.00505,-1.5819993 0.298672,-1.8982577 C 2.5492297,4.7866332 2.5381367,4.7883219 4.4224108,4.7710119 L 6.1472553,4.7551741 6.1260293,4.4617413 C 6.1089044,4.2249869 6.0586387,4.090734 5.8657973,3.7666932 5.4769701,3.1133286 5.47889,2.8155977 5.8744786,2.4200063 6.223184,2.0713008 6.5850649,1.9410292 7.2050271,1.9410292 c 0.619962,0 0.9818436,0.1302716 1.3305485,0.4789771 0.3955912,0.3955914 0.3975112,0.6933223 0.00868,1.3466869 -0.1937302,0.3255293 -0.243074,0.4577957 -0.2604607,0.6981607 l -0.021448,0.2965448 h 1.4738995 c 1.6603886,0 1.8658566,0.030472 2.1370476,0.3169286 0.301174,0.3181308 0.295526,0.2800434 0.323043,2.1787309 l 0.02548,1.7571474 0.121277,0.017157 c 0.222872,0.031519 0.435712,-0.040538 0.863552,-0.2923525 0.233514,-0.1374384 0.502867,-0.2645778 0.598569,-0.2825311 0.361255,-0.067771 0.83398,0.2817656 1.044138,0.7720485 0.419988,0.9797965 0.02637,2.2784045 -0.762242,2.5146755 -0.191606,0.05741 -0.226068,0.04997 -0.576155,-0.124189 -0.204827,-0.10189 -0.475346,-0.243638 -0.601182,-0.315008 -0.171075,-0.09703 -0.286723,-0.125987 -0.458389,-0.114754 l -0.22959,0.01509 -0.02546,1.629817 c -0.02744,1.754547 -0.03262,1.788588 -0.313483,2.044048 -0.280877,0.255484 -0.378385,0.273348 -1.492065,0.273348 H 9.344162 v -0.195092 c 0,-0.113468 0.056177,-0.299949 0.1342426,-0.445655 0.073834,-0.137788 0.1998905,-0.374114 0.2801252,-0.525127 0.4383882,-0.825119 -0.1925562,-1.588454 -1.3820727,-1.672076 -0.9109541,-0.06403 -1.7328954,0.408669 -1.8183468,1.045752 -0.033429,0.249219 0.03659,0.468502 0.27321,0.855657 0.2124287,0.347573 0.3272754,0.679127 0.2876832,0.830526 -0.027558,0.105374 -0.041078,0.10602 -2.2245826,0.103949 -1.9020856,-0.0019 -2.2173627,-0.01292 -2.3496559,-0.08259 z" id="path99" class="ColorScheme-Text"/>
  <g transform="matrix(0.13629775,0,0,0.13629775,4.2660204,-34.909186)" id="g26" style="fill:#999999;fill-opacity:1;stroke:none;stroke-width:2.01034;stroke-dasharray:none;stroke-opacity:0.3"/>
  </svg>
