<?xml version='1.0' encoding='UTF-8'?>
<svg xmlns:inkscape="http://www.inkscape.org/namespaces/inkscape" xmlns:sodipodi="http://sodipodi.sourceforge.net/DTD/sodipodi-0.dtd" xmlns="http://www.w3.org/2000/svg" xmlns:svg="http://www.w3.org/2000/svg" xmlns:rdf="http://www.w3.org/1999/02/22-rdf-syntax-ns#" xmlns:cc="http://creativecommons.org/ns#" xmlns:dc="http://purl.org/dc/elements/1.1/" width="64" height="64" version="1.1" viewBox="0 0 16.933 16.933" id="svg7" sodipodi:docname="org.xfce.webbrowser.svg" inkscape:version="1.4 (e7c3feb100, 2024-10-09)">
  <sodipodi:namedview id="namedview7" pagecolor="#9c4444" bordercolor="#000000" borderopacity="0.25" inkscape:showpageshadow="2" inkscape:pageopacity="0.0" inkscape:pagecheckerboard="0" inkscape:deskcolor="#d1d1d1" inkscape:zoom="6.15625" inkscape:cx="15.837563" inkscape:cy="29.725888" inkscape:window-width="1183" inkscape:window-height="941" inkscape:window-x="35" inkscape:window-y="32" inkscape:window-maximized="0" inkscape:current-layer="svg7" showgrid="false"/>
  <defs id="defs2">
    <style id="current-color-scheme" type="text/css">.ColorScheme-Text {color:#d8dee9} .ColorScheme-Highlight {color:#3b4252}</style></defs>
  <metadata id="metadata2">
    <rdf:RDF>
      <cc:Work rdf:about="">
        <dc:format>image/svg+xml</dc:format>
        <dc:type rdf:resource="http://purl.org/dc/dcmitype/StillImage"/>
      </cc:Work>
    </rdf:RDF>
  </metadata>
  <path id="path7" style="fill:currentColor;stroke:none;stroke-width:0.0461086;stroke-dasharray:none;stroke-opacity:1" d="m 8.4654922,1.438501 c -0.00401,0.00431 -0.071457,0.2568364 -0.150309,0.5611526 -0.078852,0.3043165 -0.1641125,0.6237107 -0.1889588,0.7100302 l -0.0451,0.1574663 -0.2290414,0.019325 C 7.0071419,2.9578992 5.9372703,3.379214 5.2087946,3.9271848 4.1212733,4.7452363 3.3895854,5.8802467 3.1059014,7.1896015 3.0700275,7.3551998 3.0320199,7.5933857 3.0214388,7.7185451 l -0.019321,0.2276107 -0.15675,0.045093 c -0.086319,0.024909 -0.4093476,0.1105686 -0.717905,0.190391 -0.3085571,0.079821 -0.5575196,0.1476167 -0.55328,0.1510253 0.00429,0.0034 0.2838629,0.07831 0.6219935,0.1660543 0.9039568,0.2345761 0.8025648,0.179474 0.8252667,0.4480633 0.04834,0.5718856 0.2482795,1.2325003 0.5654482,1.8666903 0.1248813,0.249719 0.2318878,0.45379 0.2376305,0.45379 0.00568,0 0.1098656,-0.138556 0.2311901,-0.308491 L 4.2761623,10.649566 4.1373059,10.336067 C 3.8194608,9.620542 3.7049879,9.0915569 3.7049879,8.3319493 c 0,-0.5881957 0.060458,-0.9754112 0.231906,-1.4923518 C 4.3970483,5.4521789 5.5219676,4.300485 6.8722106,3.8348532 7.6037087,3.5825962 8.3686705,3.4999221 9.0581323,3.597938 9.6278701,3.6789321 9.9485598,3.7708697 10.471035,4.0023401 l 0.312786,0.1381406 0.294892,-0.2075691 C 11.240853,3.8187691 11.369177,3.7105804 11.363584,3.6924183 11.345355,3.6332426 10.503985,3.2308192 10.184733,3.1284024 9.7919575,3.0023999 9.3766657,2.9114661 9.0810366,2.8864765 L 8.8512857,2.8664342 8.8097743,2.7254302 C 8.7871444,2.6476127 8.7022697,2.3246104 8.6208119,2.0075272 8.5393528,1.6904442 8.4694467,1.4341876 8.4654922,1.438501 Z m 6.3008028,0.6119715 c -0.0046,-0.00574 -1.613663,1.1288364 -3.575919,2.5208934 L 7.6223313,7.1022797 8.6594617,8.1401262 C 9.2297536,8.7107187 9.7030783,9.1768856 9.7116243,9.1765411 9.7324282,9.175702 14.77707,2.0637826 14.766295,2.0504725 Z m -1.646238,3.4069993 c -0.03198,-0.00217 -0.08206,0.06297 -0.233337,0.2741346 l -0.221166,0.3077751 0.108091,0.232621 c 0.878598,1.9015974 0.484354,4.0715745 -0.997766,5.4941435 -0.762038,0.731415 -1.656971,1.161246 -2.7084288,1.301244 -0.874528,0.116432 -1.7901433,-0.03061 -2.6483045,-0.425158 L 6.1843779,12.534863 5.8715917,12.75317 c -0.3675723,0.257005 -0.3848792,0.211926 0.1982646,0.498883 0.588089,0.289389 1.2311389,0.478659 1.7836665,0.525365 l 0.2276093,0.01932 0.0451,0.157472 c 0.02471,0.08632 0.1105857,0.410759 0.1911064,0.721481 l 0.1467313,0.56545 0.1488764,-0.56545 c 0.08215,-0.310722 0.1697441,-0.635791 0.1939695,-0.722196 l 0.043658,-0.15675 0.2383468,-0.02147 c 0.3392306,-0.03044 0.7594796,-0.126312 1.1673995,-0.266976 1.62746,-0.561173 2.902069,-1.870218 3.434199,-3.5265301 0.109326,-0.3402651 0.23262,-0.9552936 0.23262,-1.1588094 0,-0.1205987 -0.05892,-0.09674 0.814529,-0.3235218 0.338133,-0.087789 0.618351,-0.1631416 0.622707,-0.1667706 0.0044,-0.00363 -0.27234,-0.078677 -0.614832,-0.1667706 C 13.869037,7.94044 13.923139,7.9621954 13.923139,7.840941 c 0,-0.2022381 -0.123025,-0.8177132 -0.231908,-1.1588096 -0.101042,-0.3164961 -0.439662,-1.0671793 -0.542537,-1.2031845 -0.0095,-0.012711 -0.01786,-0.02075 -0.02863,-0.021474 z M 7.2071931,7.5217127 4.7013283,11.056115 c -1.3778745,1.943882 -2.5103385,3.55059 -2.5173153,3.570907 -0.00942,0.02755 -0.00166,0.02829 0.030776,0.0029 C 2.23867,14.611112 3.8347463,13.478453 5.7620797,12.112625 7.6894148,10.74679 9.2730076,9.6241621 9.2807391,9.6174923 9.2884957,9.6108131 8.8248634,9.1361389 8.2507654,8.5631837 Z" class="ColorScheme-Text"/>
  </svg>
