<?xml version="1.0" encoding="UTF-8" standalone="no"?>
<svg
   width="64"
   height="64"
   version="1.1"
   viewBox="0 0 16.933 16.933"
   id="svg7"
   sodipodi:docname="org.gnome.SoundJuicer.svg"
   inkscape:version="1.4.2 (ebf0e940d0, 2025-05-08)"
   xmlns:inkscape="http://www.inkscape.org/namespaces/inkscape"
   xmlns:sodipodi="http://sodipodi.sourceforge.net/DTD/sodipodi-0.dtd"
   xmlns="http://www.w3.org/2000/svg"
   xmlns:svg="http://www.w3.org/2000/svg"
   xmlns:rdf="http://www.w3.org/1999/02/22-rdf-syntax-ns#"
   xmlns:cc="http://creativecommons.org/ns#"
   xmlns:dc="http://purl.org/dc/elements/1.1/">
  <sodipodi:namedview
     id="namedview7"
     pagecolor="#9c4444"
     bordercolor="#000000"
     borderopacity="0.25"
     inkscape:showpageshadow="2"
     inkscape:pageopacity="0.0"
     inkscape:pagecheckerboard="0"
     inkscape:deskcolor="#d1d1d1"
     inkscape:zoom="8.7062522"
     inkscape:cx="83.847789"
     inkscape:cy="47.552034"
     inkscape:window-width="2560"
     inkscape:window-height="1392"
     inkscape:window-x="0"
     inkscape:window-y="0"
     inkscape:window-maximized="1"
     inkscape:current-layer="svg7"
     showgrid="false" />
  <defs
     id="defs2">
    <style
       id="current-color-scheme"
       type="text/css">.ColorScheme-Text {color:#d8dee9} .ColorScheme-Highlight {color:#3b4252}</style>
  </defs>
  <metadata
     id="metadata2">
    <rdf:RDF>
      <cc:Work
         rdf:about="">
        <dc:format>image/svg+xml</dc:format>
        <dc:type
           rdf:resource="http://purl.org/dc/dcmitype/StillImage" />
      </cc:Work>
    </rdf:RDF>
  </metadata>
  <path
     d="m 7.7823897,1.45518 c -3.587079,0 -6.473754,2.8866751 -6.473754,6.473754 0,3.553567 2.833862,6.412928 6.374275,6.466101 0.0012,-0.24747 0.116821,-0.462888 0.267827,-0.62748 0.150366,-0.163893 0.342365,-0.290725 0.55861,-0.390261 0.43364,-0.1996 0.982583,-0.306088 1.5840043,-0.306088 0.358435,10e-7 0.678837,0.05595 0.97948,0.130087 V 6.6778007 L 9.3357847,7.1943236 C 9.1997027,6.9085793 8.9890507,6.6685093 8.7274357,6.4941481 L 10.277004,3.6207503 c 0.09807,-0.1822814 0.173426,-0.2461577 0.306088,-0.2563487 0.132895,-0.01021 0.362197,0.056428 0.707828,0.2678269 0.780064,0.4771124 1.025774,0.7265373 1.239655,1.438612 0.111238,0.3703472 0.150783,0.674429 0.126261,0.8761759 -0.0051,0.041605 -0.01472,0.07517 -0.02296,0.1071306 0.400627,0.1086725 0.725766,0.3305353 0.968002,0.6045231 0.295866,0.3346472 0.4845,0.7300007 0.64661,1.1095679 C 14.163309,4.2565799 11.315353,1.45518 7.7823897,1.45518 Z m 0.302262,0.8340889 c 0.07677,-0.00331 0.151433,-8.573e-4 0.221913,0.00383 0.281402,0.018685 0.527802,0.098335 0.857045,0.275479 0.342201,0.1841149 0.58995,0.3748939 0.719307,0.5394795 0.1293563,0.1645856 0.1501243,0.2720522 0.08035,0.4017399 l -1.530439,2.8274845 c -0.201781,-0.084201 -0.419942,-0.1339133 -0.650436,-0.1339133 -0.117988,0 -0.23264,0.011218 -0.344349,0.034435 L 6.5121257,3.1654447 c -0.061059,-0.2032844 -0.053606,-0.3131732 0.038261,-0.4208705 0.091868,-0.1076973 0.312165,-0.2222202 0.707828,-0.317566 0.333392,-0.08034 0.596128,-0.1278149 0.826437,-0.1377393 z m -2.253571,0.5853925 c 0.09544,0.0039 0.158708,0.022674 0.195131,0.045913 0.03642,0.02324 0.05414,0.049169 0.0727,0.1109569 l 0.990959,3.3210512 C 6.7969257,6.4830186 6.5483207,6.6920205 6.3667347,6.9532797 6.0683077,6.798247 5.7661397,6.6411233 5.4676017,6.490322 4.6407087,6.0726317 3.8862597,5.6818451 3.6004677,5.4687544 3.3539237,5.2849284 3.2675647,5.1535699 3.2561187,4.9981448 3.2446707,4.8427194 3.3242377,4.608817 3.5354237,4.2635344 4.0113697,3.4853763 4.2502837,3.2558008 4.9587317,3.0430098 5.3340757,2.9302705 5.6409747,2.8668982 5.8310807,2.8746614 Z m -2.770093,2.7356584 c 0.03935,-0.00262 0.08004,0.00751 0.130087,0.034435 l 2.999659,1.6222647 c -0.08598,0.2039508 -0.133913,0.4288586 -0.133913,0.6619146 0,0.1441012 0.01933,0.2828605 0.05356,0.4170445 -0.308502,0.097598 -0.620688,0.1944525 -0.925915,0.2946093 -0.88023,0.2888375 -1.68558,0.5474754 -2.050787,0.6006971 C 2.8223467,9.286656 2.6462917,9.25253 2.5138557,9.1379804 2.3814207,9.023431 2.2729707,8.7894857 2.1771597,8.3918915 1.9624147,7.5007509 1.9604077,7.1415358 2.3148987,6.4826696 c 0.139883,-0.2599877 0.272317,-0.4710528 0.394088,-0.6198274 0.121772,-0.1487744 0.231677,-0.2262617 0.31374,-0.24487 0.01359,-0.00308 0.02515,-0.00678 0.03826,-0.00765 z M 11.44779,6.2339736 A 0.1541283,0.1541283 0 0 0 11.325355,6.3870172 V 13.522685 C 10.970318,13.4006 10.557747,13.32373 10.093352,13.323728 c -0.5710233,0 -1.0907123,0.103626 -1.4806993,0.283131 -0.194994,0.08975 -0.357722,0.19766 -0.478262,0.329045 -0.12054,0.131385 -0.198957,0.289652 -0.198957,0.462957 0,0.173306 0.07842,0.335399 0.198957,0.466784 0.12054,0.131385 0.283268,0.239291 0.478262,0.329044 0.389987,0.179507 0.909675,0.283132 1.4806993,0.283131 0.571023,0 1.090712,-0.103624 1.480699,-0.283131 0.194993,-0.08975 0.357722,-0.197659 0.478262,-0.329044 0.12054,-0.131385 0.198957,-0.293478 0.198957,-0.466784 V 8.4110221 c 0.245015,0.024749 0.434954,0.089102 0.589219,0.1989569 0.188394,0.1341589 0.348788,0.3261791 0.543305,0.5280014 0.388073,0.402645 0.935693,0.8226009 2.100527,0.7920016 0.0014,-3.78e-5 0.0024,3.94e-5 0.0038,0 0.0014,-3.94e-5 0.0024,4.08e-5 0.0038,0 a 0.1541283,0.1541283 0 0 0 -0.0077,-0.3060878 c -0.0014,3.7e-6 -0.0024,8e-7 -0.0038,0 C 15.088719,9.6236984 14.853728,9.4515504 14.642575,9.1609368 14.430676,8.8692952 14.26495,8.457758 14.087792,8.0322386 13.910633,7.6067194 13.718619,7.1672888 13.414399,6.8231922 13.110178,6.4790959 12.685377,6.2383367 12.098222,6.2339736 a 0.1541283,0.1541283 0 0 0 -0.0038,0 H 11.47842 a 0.1541283,0.1541283 0 0 0 -0.03061,0 z M 7.7823897,6.5438874 c 0.757183,0 1.38122,0.6278635 1.38122,1.3850466 0,0.097511 -0.01096,0.1910852 -0.03061,0.2831312 a 0.25052938,0.25052938 0 0 1 0.229566,0.3749572 l -0.290784,0.4935665 c -0.0648,0.1101068 -0.06847,0.1871311 -0.04591,0.317566 0.02108,0.1219104 0.08714,0.2861245 0.179827,0.455305 0.09336,0.1704111 0.206036,0.3445211 0.306087,0.5241751 0.0985,0.176866 0.20661,0.380178 0.20661,0.635132 0,0.295544 -0.04146,0.63049 -0.260175,0.906785 -0.223992,0.282968 -0.600682,0.424933 -1.04835,0.413218 -0.434711,-0.01137 -0.789599,-0.16158 -1.017742,-0.424696 -0.225985,-0.26063 -0.300575,-0.585396 -0.309914,-0.883829 -0.0027,-0.08777 -0.05125,-0.539283 0.118609,-1.0292194 0.07839,-0.2261013 0.205952,-0.4652648 0.394088,-0.7001753 -0.670457,-0.092859 -1.197567,-0.6723361 -1.197567,-1.3659163 0,-0.7571831 0.627863,-1.3850466 1.385046,-1.3850466 z m 1.365916,1.9168738 -0.497392,0.2793048 c -0.718654,0.4033102 -1.062367,0.9011922 -1.212873,1.335308 -0.150504,0.434115 -0.110944,0.816227 -0.10713,0.941219 0.0082,0.262851 0.07247,0.523722 0.248696,0.726959 0.176222,0.203236 0.455549,0.330516 0.837915,0.340522 0.392865,0.01028 0.679246,-0.111279 0.845567,-0.321392 0.166322,-0.210113 0.206609,-0.479227 0.206609,-0.749915 0,-0.179798 -0.08091,-0.341958 -0.176,-0.512697 C 9.1986117,10.329332 9.0862077,10.15204 8.9876097,9.972069 8.8890117,9.7920979 8.8065497,9.6101158 8.7771747,9.4402418 8.7477997,9.2703676 8.7628877,9.1151362 8.8575227,8.9543277 Z M 12.503792,8.7171099 V 12.359553 C 13.159727,11.660677 13.659863,10.81601 13.953883,9.8764166 13.631675,9.7139622 13.391928,9.5089985 13.203968,9.3139807 13.002082,9.1045134 12.846102,8.9202956 12.695097,8.8127623 12.639663,8.7732864 12.578465,8.7426033 12.503792,8.7171099 Z"
     id="path5"
     class="ColorScheme-Text"
     style="fill:currentColor;fill-opacity:1;stroke-width:0.122435" />
</svg>
