<?xml version='1.0' encoding='UTF-8'?>
<svg xmlns:inkscape="http://www.inkscape.org/namespaces/inkscape" xmlns:sodipodi="http://sodipodi.sourceforge.net/DTD/sodipodi-0.dtd" xmlns="http://www.w3.org/2000/svg" xmlns:svg="http://www.w3.org/2000/svg" xmlns:rdf="http://www.w3.org/1999/02/22-rdf-syntax-ns#" xmlns:cc="http://creativecommons.org/ns#" xmlns:dc="http://purl.org/dc/elements/1.1/" width="64" height="64" version="1.1" viewBox="0 0 16.933 16.933" id="svg7" sodipodi:docname="org.gnome.font-viewer.svg" inkscape:version="1.4 (e7c3feb100, 2024-10-09)">
  <sodipodi:namedview id="namedview7" pagecolor="#9c4444" bordercolor="#000000" borderopacity="0.25" inkscape:showpageshadow="2" inkscape:pageopacity="0.0" inkscape:pagecheckerboard="0" inkscape:deskcolor="#d1d1d1" inkscape:zoom="6.15625" inkscape:cx="15.837563" inkscape:cy="29.725888" inkscape:window-width="1183" inkscape:window-height="941" inkscape:window-x="35" inkscape:window-y="32" inkscape:window-maximized="0" inkscape:current-layer="svg7" showgrid="false"/>
  <defs id="defs2">
    <style id="current-color-scheme" type="text/css">.ColorScheme-Text {color:#d8dee9} .ColorScheme-Highlight {color:#3b4252}</style></defs>
  <metadata id="metadata2">
    <rdf:RDF>
      <cc:Work rdf:about="">
        <dc:format>image/svg+xml</dc:format>
        <dc:type rdf:resource="http://purl.org/dc/dcmitype/StillImage"/>
      </cc:Work>
    </rdf:RDF>
  </metadata>
  <path style="fill:currentColor;fill-opacity:1;stroke:none;stroke-width:0.468549;stroke-dasharray:none;stroke-opacity:0.3" d="M 5.9683923,1.6833043 C 5.6268562,1.6833108 5.2745258,1.7151616 4.9140241,1.7779528 4.5535233,1.8376052 4.1824523,1.9286399 3.7991816,2.0510752 V 2.8515167 C 4.1179458,2.7071015 4.450377,2.5978741 4.7957045,2.5256602 5.1410325,2.4534545 5.4962856,2.4174951 5.8605887,2.4174932 6.4335983,2.4174966 6.8773819,2.5276457 7.1923535,2.7474039 7.5111111,2.9640351 7.6695734,3.318143 7.669578,3.7168582 v 0.089237 H 6.2024037 C 5.2499124,3.8061008 4.530906,3.9522505 4.0489701,4.2536411 3.570826,4.5550365 3.3324687,4.9555839 3.332474,5.5489492 c -5.3e-6,0.5086001 0.1912367,0.9164116 0.5745112,1.2209436 0.3870674,0.3013937 0.9078086,0.4516007 1.5605169,0.4516007 0.5160869,0 0.9526988,-0.075107 1.3094145,-0.2258002 C 7.1336193,6.8418583 7.4305027,6.6047216 7.669578,6.2844918 V 7.2214954 H 8.7173734 V 4.3536962 C 8.7173622,3.5499865 8.4904283,2.6724565 8.035057,2.2768752 7.5796818,1.881302 6.8905208,1.6833108 5.9683923,1.6833043 Z m 4.0952057,1.3845481 v 7.6150096 h 2.019336 V 9.7647881 c 0.288346,0.7150639 0.678963,0.8101649 1.33702,0.9180739 0.592019,0 1.41403,-0.261644 1.794415,-0.7869192 0.380375,-0.5284778 0.570563,-1.2553817 0.570568,-2.0849335 -5e-6,-0.8295474 -0.190193,-1.3690089 -0.570568,-1.8942891 -0.380385,-0.5284748 -1.202396,-0.7923232 -1.794415,-0.7923285 -0.755989,0.011286 -1.073471,0.39064 -1.33702,0.916723 V 3.0678524 Z M 6.6835737,4.2685141 H 7.8194521 V 4.5267655 C 7.8194454,5.2856192 7.6273915,5.6180947 7.2423094,6.0776203 6.8613609,6.5329305 6.3547542,6.76043 5.7212332,6.7604283 5.2616126,6.76043 4.8965696,6.6397226 4.6274257,6.3994195 4.3624188,6.1549021 4.2303946,5.8268945 4.2303946,5.4137406 c 0,-0.5185459 0.1776538,-0.6084165 0.5337581,-0.8234277 0.3560934,-0.2150036 0.9960408,-0.3217945 1.919421,-0.3217988 z m 6.4129743,2.2607066 c 0.326589,5.1e-6 0.575016,0.1178399 0.745417,0.3542487 0.173242,0.2364142 0.260304,0.5799925 0.260308,1.0302984 -4e-6,0.4503095 -0.08708,0.7938878 -0.260308,1.0302982 -0.170411,0.236412 -0.418828,0.3542501 -0.745417,0.3542483 -0.326597,1.8e-6 -0.577236,-0.1178342 -0.753305,-0.3542483 -0.173242,-0.2392239 -0.260313,-0.5828037 -0.260309,-1.0302982 -4e-6,-0.4474918 0.08706,-0.7898266 0.260309,-1.0262421 0.176073,-0.2392206 0.426708,-0.3582999 0.753305,-0.358305 z M 5.529292,8.6060414 C 4.5131695,8.6060471 3.6269763,8.921289 2.8736533,9.5511568 2.1246968,10.176921 1.6390498,11.014913 1.415681,12.064703 c -0.2189926,1.045678 -0.087377,1.884965 0.3944015,2.518957 0.4817803,0.629876 1.2306526,0.945117 2.2467747,0.945117 0.7708427,0 1.4385561,-0.182552 2.0035616,-0.548956 C 6.625406,14.613425 7.068502,14.078803 7.3882387,13.378938 H 6.4153806 C 6.1920029,13.893544 5.8971907,14.27974 5.529292,14.534982 5.1657629,14.79023 4.7226671,14.917629 4.2014724,14.917627 3.544496,14.917629 3.0992026,14.678569 2.86708,14.201015 2.639328,13.723463 2.6274912,13.011573 2.8289478,12.064703 3.0304152,11.117834 3.3471684,10.40724 3.7807701,9.9338005 4.2187497,9.4562551 4.7649389,9.2171944 5.417538,9.2171897 c 0.5737493,4.9e-6 0.9848207,0.1326941 1.2344777,0.3961638 0.2540249,0.263484 0.3658917,0.6838045 0.3352415,1.2601545 H 7.6892918 L 8.0442557,9.1928518 C 7.6456984,8.9952493 7.23681,8.8494657 6.8163537,8.7547718 6.4002702,8.6559762 5.9716468,8.6060471 5.5292888,8.6060414 Z" id="path8-2" class="ColorScheme-Text"/>
  <g id="g9" transform="matrix(0.46959567,0,0,0.46959567,4.7471229,3.7470598)" style="fill:#999999;fill-opacity:1;stroke:none;stroke-width:0.58349;stroke-dasharray:none;stroke-opacity:0.3"/>
  </svg>
