<?xml version='1.0' encoding='UTF-8'?>
<svg xmlns:inkscape="http://www.inkscape.org/namespaces/inkscape" xmlns:sodipodi="http://sodipodi.sourceforge.net/DTD/sodipodi-0.dtd" xmlns="http://www.w3.org/2000/svg" xmlns:svg="http://www.w3.org/2000/svg" xmlns:rdf="http://www.w3.org/1999/02/22-rdf-syntax-ns#" xmlns:cc="http://creativecommons.org/ns#" xmlns:dc="http://purl.org/dc/elements/1.1/" width="64" height="64" version="1.1" viewBox="0 0 16.933 16.933" id="svg7" sodipodi:docname="org.gnome.Contacts.svg" inkscape:version="1.4 (e7c3feb100, 2024-10-09)">
  <sodipodi:namedview id="namedview7" pagecolor="#9c4444" bordercolor="#000000" borderopacity="0.25" inkscape:showpageshadow="2" inkscape:pageopacity="0.0" inkscape:pagecheckerboard="0" inkscape:deskcolor="#d1d1d1" inkscape:zoom="6.15625" inkscape:cx="15.837563" inkscape:cy="29.725888" inkscape:window-width="1183" inkscape:window-height="941" inkscape:window-x="35" inkscape:window-y="32" inkscape:window-maximized="0" inkscape:current-layer="svg7" showgrid="false"/>
  <defs id="defs2">
    <style id="current-color-scheme" type="text/css">.ColorScheme-Text {color:#d8dee9} .ColorScheme-Highlight {color:#3b4252}</style></defs>
  <metadata id="metadata2">
    <rdf:RDF>
      <cc:Work rdf:about="">
        <dc:format>image/svg+xml</dc:format>
        <dc:type rdf:resource="http://purl.org/dc/dcmitype/StillImage"/>
      </cc:Work>
    </rdf:RDF>
  </metadata>
  <path id="path19" style="fill:currentColor;fill-opacity:1;stroke:none;stroke-width:0.366466;stroke-dasharray:none;stroke-dashoffset:2.2;stroke-opacity:0.3" d="M 6.6368995,2.0582718 C 6.25873,2.0629057 5.8756799,2.1478682 5.5098891,2.3231147 3.7725792,3.1554348 3.3859045,5.3890721 4.7477518,6.7282675 5.1590784,7.1327523 5.5885582,7.3696154 6.1176932,7.4846885 6.5521018,7.579162 6.7233904,7.5834974 7.1370515,7.5085067 8.1438731,7.3259817 9.0267875,6.5342055 9.3139062,5.5555296 9.4493124,5.0939894 9.4299634,4.374603 9.2700848,3.9216979 8.8579849,2.7543106 7.7714062,2.0444265 6.6369012,2.0582727 Z M 11.269742,3.861679 c -0.20754,0.00317 -0.41659,0.033953 -0.623049,0.095268 l -0.289612,0.085743 0.0343,0.4906264 c 0.06424,0.9050533 -0.273448,1.980235 -0.8154917,2.5960282 -0.1259605,0.1431004 -0.2295938,0.2824789 -0.2295938,0.3096183 0,0.06482 0.5470015,0.5892848 0.7364155,0.7059298 0.08134,0.050092 0.295757,0.1428591 0.476335,0.2067297 0.50712,0.1793638 1.211942,0.139688 1.715761,-0.096218 0.502748,-0.2354056 0.946301,-0.661214 1.176547,-1.1289152 0.16948,-0.3442496 0.180994,-0.405882 0.180994,-0.9583881 0,-0.5511615 -0.01178,-0.6148896 -0.179094,-0.9536237 C 13.031482,4.359161 12.169078,3.8479933 11.269738,3.8616809 Z m -0.37345,5.6121877 0.274371,0.1810073 c 0.633668,0.419724 1.20534,1.06779 1.556667,1.762442 0.189639,0.374977 0.428701,1.200542 0.428701,1.480452 v 0.21721 h 1.378515 1.378514 L 15.894,12.453824 C 15.87496,11.821462 15.86415,11.773831 15.663454,11.367777 15.066294,10.159683 13.541234,9.4738667 11.453596,9.4738667 Z M 6.7616993,9.4843547 C 6.6270805,9.4844835 6.4897597,9.4869007 6.3491926,9.4910427 5.1732201,9.5255353 4.6081418,9.6198912 3.8036543,9.9159027 2.0544826,10.559514 1.1132581,11.869061 1.1114045,13.661812 v 0.405836 H 6.6578579 12.20431 v -0.576363 c 0,-1.078794 -0.305344,-1.817037 -1.058417,-2.562688 C 10.141169,9.9337739 8.7809758,9.4824135 6.7616993,9.484349 Z" class="ColorScheme-Text"/>
  </svg>
