<?xml version='1.0' encoding='UTF-8'?>
<svg xmlns:inkscape="http://www.inkscape.org/namespaces/inkscape" xmlns:sodipodi="http://sodipodi.sourceforge.net/DTD/sodipodi-0.dtd" xmlns="http://www.w3.org/2000/svg" xmlns:svg="http://www.w3.org/2000/svg" xmlns:rdf="http://www.w3.org/1999/02/22-rdf-syntax-ns#" xmlns:cc="http://creativecommons.org/ns#" xmlns:dc="http://purl.org/dc/elements/1.1/" width="64" height="64" version="1.1" viewBox="0 0 16.933 16.933" id="svg7" sodipodi:docname="org.gnome.Rhythmbox.svg" inkscape:version="1.4 (e7c3feb100, 2024-10-09)">
  <sodipodi:namedview id="namedview7" pagecolor="#9c4444" bordercolor="#000000" borderopacity="0.25" inkscape:showpageshadow="2" inkscape:pageopacity="0.0" inkscape:pagecheckerboard="0" inkscape:deskcolor="#d1d1d1" inkscape:zoom="6.15625" inkscape:cx="15.837563" inkscape:cy="29.725888" inkscape:window-width="1183" inkscape:window-height="941" inkscape:window-x="35" inkscape:window-y="32" inkscape:window-maximized="0" inkscape:current-layer="svg7" showgrid="false"/>
  <defs id="defs2">
    <style id="current-color-scheme" type="text/css">.ColorScheme-Text {color:#d8dee9} .ColorScheme-Highlight {color:#3b4252}</style></defs>
  <metadata id="metadata2">
    <rdf:RDF>
      <cc:Work rdf:about="">
        <dc:format>image/svg+xml</dc:format>
        <dc:type rdf:resource="http://purl.org/dc/dcmitype/StillImage"/>
      </cc:Work>
    </rdf:RDF>
  </metadata>
  <path style="fill:currentColor;fill-opacity:1;stroke:none;stroke-width:0.492695;stroke-dasharray:none;stroke-opacity:0.3" class="ColorScheme-Text" d="m 4.7949259,1.2393014 c -1.8479284,0 -1.8479284,1.9575571 -1.8479284,1.9575571 V 13.963424 c 0,1.957558 1.7493416,1.954032 1.8479284,1.957558 h 7.3917101 c 0,0 1.847929,-0.004 1.847929,-1.957558 V 3.1968585 c 0,-1.9575571 -1.847929,-1.9575571 -1.847929,-1.9575571 z m 3.6958559,1.9575571 c 0.511941,0 0.9239632,0.4399127 0.9239632,0.9787795 0,0.5389547 -0.4120222,0.9787789 -0.9239632,0.9787789 -0.5120975,0 -0.9239637,-0.4398241 -0.9239637,-0.9787789 0,-0.5388668 0.4118662,-0.9787795 0.9239637,-0.9787795 z m 0,2.9363362 c 2.0411292,0 3.6958542,1.7528957 3.6958542,3.9151163 0,2.16222 -1.654725,3.915113 -3.6958542,3.915113 -2.0411293,0 -3.6958559,-1.752893 -3.6958559,-3.915113 0,-2.1622206 1.6547268,-3.9151163 3.6958559,-3.9151163 z m 0,1.9575576 c -1.0206112,0 -1.847928,0.8764279 -1.847928,1.9575587 0,1.081129 0.8273457,1.957556 1.847928,1.957556 1.0205822,0 1.8479282,-0.876427 1.8479282,-1.957556 0,-1.0811308 -0.827346,-1.9575587 -1.8479282,-1.9575587 z" id="path5"/>
  </svg>
