<?xml version='1.0' encoding='UTF-8'?>
<svg xmlns:inkscape="http://www.inkscape.org/namespaces/inkscape" xmlns:sodipodi="http://sodipodi.sourceforge.net/DTD/sodipodi-0.dtd" xmlns="http://www.w3.org/2000/svg" xmlns:svg="http://www.w3.org/2000/svg" xmlns:rdf="http://www.w3.org/1999/02/22-rdf-syntax-ns#" xmlns:cc="http://creativecommons.org/ns#" xmlns:dc="http://purl.org/dc/elements/1.1/" width="64" height="64" version="1.1" viewBox="0 0 16.933 16.933" id="svg7" sodipodi:docname="org.octave.Octave.svg" inkscape:version="1.4 (e7c3feb100, 2024-10-09)">
  <sodipodi:namedview id="namedview7" pagecolor="#9c4444" bordercolor="#000000" borderopacity="0.25" inkscape:showpageshadow="2" inkscape:pageopacity="0.0" inkscape:pagecheckerboard="0" inkscape:deskcolor="#d1d1d1" inkscape:zoom="6.15625" inkscape:cx="15.837563" inkscape:cy="29.725888" inkscape:window-width="1183" inkscape:window-height="941" inkscape:window-x="35" inkscape:window-y="32" inkscape:window-maximized="0" inkscape:current-layer="svg7" showgrid="false"/>
  <defs id="defs2">
    <style id="current-color-scheme" type="text/css">.ColorScheme-Text {color:#d8dee9} .ColorScheme-Highlight {color:#3b4252}</style></defs>
  <metadata id="metadata2">
    <rdf:RDF>
      <cc:Work rdf:about="">
        <dc:format>image/svg+xml</dc:format>
        <dc:type rdf:resource="http://purl.org/dc/dcmitype/StillImage"/>
      </cc:Work>
    </rdf:RDF>
  </metadata>
  <path id="path6" style="fill:currentColor;fill-opacity:1;stroke:none;stroke-width:0.109512;stroke-opacity:1" d="M 8.7100382,1.2386856 C 8.3437459,1.2416686 7.9762681,1.2591695 7.7824183,1.2889311 6.7566776,1.4464031 5.8813353,1.7537462 5.054958,2.2474712 4.5001738,2.5789329 4.1459376,2.8585154 3.6467795,3.3580397 3.0205222,3.9847568 2.6580284,4.4836914 2.2733861,5.2480658 2.1714454,5.4506478 2.0878625,5.6263047 2.0878625,5.6384387 c 0,0.012122 0.6118063,0.018715 1.3592211,0.01482 L 4.8056602,5.6461717 4.9183929,5.4619363 C 5.3175736,4.8085724 5.9427197,4.1625871 6.5810226,3.7432476 7.9231387,2.8615317 9.5911472,2.6178844 11.154063,3.0752323 c 0.04013,0.011742 0.04579,-0.033412 0.05475,-0.4187171 0.01163,-0.4917327 0.04733,-0.6089513 0.239635,-0.7826797 L 11.55215,1.7804295 11.28224,1.6799366 C 10.786544,1.496631 10.215446,1.35666 9.6305728,1.2741163 9.441575,1.2474435 9.0763318,1.2357334 8.7100382,1.2386856 Z m 4.2986198,0.8110236 c -0.09798,3.988e-4 -0.209124,0.00144 -0.336262,0.00256 l -0.888326,0.00773 -0.0741,0.068282 c -0.143013,0.1320196 -0.149207,0.1778096 -0.147497,1.0603214 0.0019,0.9039941 0.01102,0.967446 0.159752,1.0674067 0.09221,0.061988 0.101156,0.062485 0.99526,0.062485 0.878962,0 0.903809,-0.00127 0.984308,-0.058621 0.150689,-0.1072949 0.15846,-0.160512 0.15846,-1.0680518 0,-0.7772725 -0.0036,-0.834456 -0.05603,-0.9430798 -0.08609,-0.1777906 -0.10963,-0.2017796 -0.795576,-0.1990428 z m 1.221365,1.6800227 -0.01862,0.2261076 c -0.02915,0.3516581 -0.166763,0.562446 -0.442552,0.6776778 l -0.103056,0.04316 0.127547,0.1565353 c 0.385275,0.4744655 0.768378,1.1694352 0.955963,1.7341342 0.29354,0.8836569 0.359556,1.8829963 0.183597,2.7789949 l -0.04961,0.2499419 0.344635,0.012236 c 0.286672,0.00994 0.365473,0.02242 0.474118,0.074725 0.07173,0.034525 0.137389,0.074586 0.146224,0.088897 0.02662,0.043086 0.03272,0.020298 0.08309,-0.3208017 0.06057,-0.4099653 0.06876,-1.4825987 0.01425,-1.8745654 C 15.821397,6.6856459 15.561488,5.8594794 15.170527,5.1127887 14.979315,4.7475935 14.618106,4.1971925 14.389135,3.9216986 Z M 1.6362918,6.0294564 1.5184082,6.0925858 C 1.3371672,6.1893585 1.1935761,6.3340239 1.109997,6.5042172 L 1.033984,6.6594643 1.026254,8.4090586 c -0.00846,1.9378054 -0.00939,1.9252664 0.1661987,2.1567174 0.099121,0.130653 0.307347,0.283007 0.4399754,0.321445 0.047211,0.0137 0.8761365,0.0257 1.8417119,0.02706 1.9221672,0.0028 1.8652998,0.0069 2.0987404,-0.161046 0.1627806,-0.117129 0.2954151,-0.324122 0.3381888,-0.528229 0.026923,-0.128472 0.03629,-0.5585276 0.036717,-1.7470175 C 5.9483711,6.8601681 5.9380256,6.6765314 5.8382803,6.4810256 5.7679731,6.3432131 5.5846596,6.1678855 5.4330909,6.0932289 L 5.3048987,6.0294551 H 3.4702729 Z M 14.373031,9.9589585 c -1.140586,-6.53e-4 -1.177928,0.00331 -1.328942,0.1442975 -0.141949,0.132529 -0.141721,0.128569 -0.141721,1.319282 0,1.195755 0.0025,1.220807 0.144286,1.351491 0.03815,0.03517 0.116698,0.08081 0.174572,0.101783 0.0844,0.03061 0.316699,0.03722 1.173052,0.0322 1.207093,-0.007 1.209721,-0.0076 1.350847,-0.220955 l 0.07279,-0.110162 0.0084,-1.083513 c 0.0055,-0.705651 -0.0019,-1.117618 -0.02061,-1.18207 -0.04066,-0.138975 -0.128687,-0.241665 -0.25896,-0.300832 C 15.444297,9.96394 15.347436,9.959505 14.373065,9.958947 Z M 3.5456429,11.273086 c -0.8018299,-3.98e-4 -1.4577804,0.0092 -1.4577804,0.02125 0,0.01186 0.083583,0.187794 0.1855236,0.390373 0.212801,0.422883 0.4388712,0.789585 0.7214827,1.169834 0.2530748,0.340501 1.0266617,1.113368 1.3733926,1.372104 1.1014913,0.821946 2.3514508,1.312167 3.7014618,1.451982 0.3369135,0.03488 1.3360895,0.01292 1.6703599,-0.03671 1.5903589,-0.236003 2.9263389,-0.892945 4.0512529,-1.993094 l 0.383933,-0.375556 -0.425161,-0.0012 c -0.484399,-0.0011 -0.676482,-0.03796 -0.861912,-0.165566 -0.06551,-0.04507 -0.146604,-0.121809 -0.180367,-0.170715 -0.03378,-0.04891 -0.06475,-0.09365 -0.06891,-0.0992 -0.0042,-0.0057 -0.08594,0.03941 -0.181659,0.09985 -1.719164,1.085746 -4.0020898,1.087524 -5.7493168,0.004 C 6.09913,12.562654 5.4689458,11.965932 5.0994064,11.416754 l -0.09598,-0.143003 z" class="ColorScheme-Text"/>
  <g id="g9" transform="matrix(0.46959567,0,0,0.46959567,4.7471229,3.7470598)" style="fill:#999999;fill-opacity:1;stroke:none;stroke-width:0.58349;stroke-dasharray:none;stroke-opacity:0.3"/>
  </svg>
