<?xml version='1.0' encoding='UTF-8'?>
<svg xmlns:inkscape="http://www.inkscape.org/namespaces/inkscape" xmlns:sodipodi="http://sodipodi.sourceforge.net/DTD/sodipodi-0.dtd" xmlns="http://www.w3.org/2000/svg" xmlns:svg="http://www.w3.org/2000/svg" xmlns:rdf="http://www.w3.org/1999/02/22-rdf-syntax-ns#" xmlns:cc="http://creativecommons.org/ns#" xmlns:dc="http://purl.org/dc/elements/1.1/" width="64" height="64" version="1.1" viewBox="0 0 16.933 16.933" id="svg7" sodipodi:docname="org.gnome.Snapshot.svg" inkscape:version="1.4 (e7c3feb100, 2024-10-09)">
  <sodipodi:namedview id="namedview7" pagecolor="#9c4444" bordercolor="#000000" borderopacity="0.25" inkscape:showpageshadow="2" inkscape:pageopacity="0.0" inkscape:pagecheckerboard="0" inkscape:deskcolor="#d1d1d1" inkscape:zoom="6.15625" inkscape:cx="15.837563" inkscape:cy="29.725888" inkscape:window-width="1183" inkscape:window-height="941" inkscape:window-x="35" inkscape:window-y="32" inkscape:window-maximized="0" inkscape:current-layer="svg7" showgrid="false"/>
  <defs id="defs2">
    <style id="current-color-scheme" type="text/css">.ColorScheme-Text {color:#d8dee9} .ColorScheme-Highlight {color:#3b4252}</style></defs>
  <metadata id="metadata2">
    <rdf:RDF>
      <cc:Work rdf:about="">
        <dc:format>image/svg+xml</dc:format>
        <dc:type rdf:resource="http://purl.org/dc/dcmitype/StillImage"/>
      </cc:Work>
    </rdf:RDF>
  </metadata>
  <path style="fill:currentColor;fill-opacity:1;stroke:none;stroke-width:0.463862;stroke-dasharray:none;stroke-opacity:0.3" d="M 8.4341125,1.3603236 A 6.342557,6.3413486 0 0 0 2.1765007,7.701671 6.342557,6.3413486 0 0 0 5.827364,13.44321 c -0.9711879,0.324298 -1.8387032,0.696086 -1.8387032,1.003221 v 0.704201 c 0,0.390347 0.337349,0.704205 0.7556551,0.704205 h 7.5494861 c 0.418304,0 0.755653,-0.313858 0.755653,-0.704205 v -0.704201 c 0,-0.307135 -0.867517,-0.678923 -1.838704,-1.003221 a 6.342557,6.3413486 0 0 0 3.650863,-5.741539 6.342557,6.3413486 0 0 0 -6.3425569,-6.3413474 6.342557,6.3413486 0 0 0 -0.084945,0 z m 0.030077,2.7177201 a 3.624318,3.6236277 0 0 1 0.054864,0 A 3.624318,3.6236277 0 0 1 12.143362,7.701671 3.624318,3.6236277 0 0 1 8.5190493,11.325303 3.624318,3.6236277 0 0 1 4.8947305,7.701671 3.624318,3.6236277 0 0 1 8.4641895,4.0780437 Z m 0.010621,1.8118134 A 1.812159,1.8118137 0 0 0 6.7068861,7.701671 1.812159,1.8118137 0 0 0 8.519044,9.5134862 1.812159,1.8118137 0 0 0 10.331204,7.701671 1.812159,1.8118137 0 0 0 8.519044,5.8898571 a 1.812159,1.8118137 0 0 0 -0.044247,0 z" id="path2" class="ColorScheme-Text"/>
  <g id="g9" transform="matrix(0.46959567,0,0,0.46959567,4.7471229,3.7470598)" style="fill:#999999;fill-opacity:1;stroke:none;stroke-width:0.58349;stroke-dasharray:none;stroke-opacity:0.3"/>
  </svg>
