<?xml version='1.0' encoding='UTF-8'?>
<svg xmlns:inkscape="http://www.inkscape.org/namespaces/inkscape" xmlns:sodipodi="http://sodipodi.sourceforge.net/DTD/sodipodi-0.dtd" xmlns="http://www.w3.org/2000/svg" xmlns:svg="http://www.w3.org/2000/svg" xmlns:rdf="http://www.w3.org/1999/02/22-rdf-syntax-ns#" xmlns:cc="http://creativecommons.org/ns#" xmlns:dc="http://purl.org/dc/elements/1.1/" width="64" height="64" version="1.1" viewBox="0 0 16.933 16.933" id="svg7" sodipodi:docname="org.squidowl.halloy.svg" inkscape:version="1.4 (e7c3feb100, 2024-10-09)">
  <sodipodi:namedview id="namedview7" pagecolor="#9c4444" bordercolor="#000000" borderopacity="0.25" inkscape:showpageshadow="2" inkscape:pageopacity="0.0" inkscape:pagecheckerboard="0" inkscape:deskcolor="#d1d1d1" inkscape:zoom="6.15625" inkscape:cx="38.57868" inkscape:cy="29.725888" inkscape:window-width="1183" inkscape:window-height="941" inkscape:window-x="35" inkscape:window-y="32" inkscape:window-maximized="0" inkscape:current-layer="svg7" showgrid="false"/>
  <defs id="defs2">
    <style id="current-color-scheme" type="text/css">.ColorScheme-Text {color:#d8dee9} .ColorScheme-Highlight {color:#3b4252}</style></defs>
  <metadata id="metadata2">
    <rdf:RDF>
      <cc:Work rdf:about="">
        <dc:format>image/svg+xml</dc:format>
        <dc:type rdf:resource="http://purl.org/dc/dcmitype/StillImage"/>
      </cc:Work>
    </rdf:RDF>
  </metadata>
  <path id="path11-6" style="fill:currentColor;fill-opacity:1;stroke:none;stroke-width:0.0798344;stroke-dasharray:none;stroke-opacity:1" d="M 8.1753179,1.6797227 C 7.3035981,1.6786706 7.1518288,1.6882632 6.7782352,1.7694177 5.4291267,2.0624792 4.2937426,2.6494728 3.3778061,3.5271592 2.4182111,4.4466809 1.8407723,5.4653978 1.5632421,6.7284737 c -0.059055,0.2687613 -0.073583,0.503013 -0.07279,1.1552354 9.072e-4,0.7459802 0.010393,0.858188 0.10754,1.2674708 0.2979454,1.2552491 1.0299632,2.4595191 1.9831529,3.2618971 l 0.2831732,0.238089 v 1.195153 c 0,1.134317 0.00367,1.191967 0.069971,1.135039 0.03842,-0.03298 0.4325659,-0.349826 0.8758181,-0.703942 l 0.8058468,-0.643832 0.1718759,0.06152 c 0.2617586,0.09356 1.0630908,0.295854 1.1716711,0.295854 0.091255,0 0.085095,-0.01577 -0.1235057,-0.322152 C 6.43372,13.078026 6.1732856,12.452316 6.0559785,11.795541 5.985198,11.399303 5.9849565,10.453993 6.0555069,10.099318 6.441787,8.1574508 7.99854,6.6595928 10.044354,6.2612145 c 0.42578,-0.082912 1.503467,-0.096651 1.889231,-0.023951 1.03535,0.1951226 2.010082,0.6719401 2.703531,1.3224152 l 0.254059,0.238561 -0.0277,-0.3263777 C 14.622809,4.6661379 12.583682,2.4464336 9.6447204,1.79055 9.1831285,1.6875374 9.0938013,1.6808216 8.1753179,1.6797227 Z m 2.8500501,5.0280891 c -0.358318,2.645e-4 -0.714269,0.02478 -0.927477,0.072788 C 8.3391367,7.1766223 7.036658,8.3698805 6.633596,9.9546788 6.1494418,11.858326 7.1115417,13.89193 8.9205849,14.78835 c 0.7359687,0.364686 1.3066581,0.497063 2.1287321,0.494496 0.573557,-0.0021 0.826909,-0.03665 1.398492,-0.193948 l 0.260161,-0.07186 0.498256,0.282236 0.497783,0.282703 0.01083,-0.553199 0.01121,-0.553667 0.254057,-0.20193 c 0.73631,-0.5859 1.242603,-1.376313 1.509789,-2.356491 0.06612,-0.242571 0.08242,-0.42385 0.08406,-0.939218 0.0023,-0.698335 -0.03673,-0.929833 -0.25171,-1.4863066 C 14.795272,8.1271252 13.54455,7.1162619 11.967356,6.7791801 11.744203,6.7314861 11.38364,6.7075411 11.025323,6.7078001 Z" class="ColorScheme-Text"/>
  </svg>
