<?xml version="1.0" encoding="UTF-8" standalone="no"?>
<svg
   width="64"
   height="64"
   version="1.1"
   viewBox="0 0 16.933 16.933"
   id="svg7"
   sodipodi:docname="org.cachyos.KernelManager.svg"
   inkscape:version="1.4.3 (0d15f75042, 2025-12-25)"
   xmlns:inkscape="http://www.inkscape.org/namespaces/inkscape"
   xmlns:sodipodi="http://sodipodi.sourceforge.net/DTD/sodipodi-0.dtd"
   xmlns="http://www.w3.org/2000/svg"
   xmlns:svg="http://www.w3.org/2000/svg"
   xmlns:rdf="http://www.w3.org/1999/02/22-rdf-syntax-ns#"
   xmlns:cc="http://creativecommons.org/ns#"
   xmlns:dc="http://purl.org/dc/elements/1.1/">
  <sodipodi:namedview
     id="namedview7"
     pagecolor="#9c4444"
     bordercolor="#000000"
     borderopacity="0.25"
     inkscape:showpageshadow="2"
     inkscape:pageopacity="0.0"
     inkscape:pagecheckerboard="0"
     inkscape:deskcolor="#d1d1d1"
     inkscape:zoom="4.3531262"
     inkscape:cx="89.935366"
     inkscape:cy="34.457995"
     inkscape:window-width="2560"
     inkscape:window-height="1388"
     inkscape:window-x="0"
     inkscape:window-y="0"
     inkscape:window-maximized="1"
     inkscape:current-layer="svg7"
     showgrid="false" />
  <defs
     id="defs2">
    <style
       id="current-color-scheme"
       type="text/css">.ColorScheme-Text {color:#d8dee9} .ColorScheme-Highlight {color:#3b4252}</style>
  </defs>
  <metadata
     id="metadata2">
    <rdf:RDF>
      <cc:Work
         rdf:about="">
        <dc:format>image/svg+xml</dc:format>
        <dc:type
           rdf:resource="http://purl.org/dc/dcmitype/StillImage" />
      </cc:Work>
    </rdf:RDF>
  </metadata>
  <path
     id="path5"
     style="fill:currentColor"
     d="m 5.6507855,1.4551816 -2.385746,0.04818 -0.01469,13.9634333 2.399972,0.01102 4.54e-4,-3.597205 3.622444,3.471012 H 13.68265 L 10.627395,12.808021 9.1580435,13.427056 8.2384375,12.50745 8.9157535,11.353811 8.4430995,10.410801 6.7493515,9.4040053 V 8.1622608 L 8.4339215,7.2197102 8.9033625,6.2744048 8.0259725,4.7688016 9.1153685,3.6794062 10.610417,4.36544 13.37291,1.5221857 H 9.7646895 l -4.115287,4.021674 z M 11.793428,6.9374905 A 1.8365579,1.8365579 0 0 0 9.9569695,8.7739508 1.8365579,1.8365579 0 0 0 11.793428,10.610871 1.8365579,1.8365579 0 0 0 13.630349,8.7739508 1.8365579,1.8365579 0 0 0 11.793428,6.9374905 Z"
     class="ColorScheme-Text" />
</svg>
