<?xml version="1.0" encoding="UTF-8" standalone="no"?>
<svg
   width="64"
   height="64"
   version="1.1"
   viewBox="0 0 16.933 16.933"
   id="svg7"
   sodipodi:docname="org.kde.telly-skout.svg"
   inkscape:version="1.4.2 (ebf0e940d0, 2025-05-08)"
   xmlns:inkscape="http://www.inkscape.org/namespaces/inkscape"
   xmlns:sodipodi="http://sodipodi.sourceforge.net/DTD/sodipodi-0.dtd"
   xmlns="http://www.w3.org/2000/svg"
   xmlns:svg="http://www.w3.org/2000/svg"
   xmlns:rdf="http://www.w3.org/1999/02/22-rdf-syntax-ns#"
   xmlns:cc="http://creativecommons.org/ns#"
   xmlns:dc="http://purl.org/dc/elements/1.1/">
  <sodipodi:namedview
     id="namedview7"
     pagecolor="#9c4444"
     bordercolor="#000000"
     borderopacity="0.25"
     inkscape:showpageshadow="2"
     inkscape:pageopacity="0.0"
     inkscape:pagecheckerboard="0"
     inkscape:deskcolor="#d1d1d1"
     inkscape:zoom="4.3531261"
     inkscape:cx="36.295755"
     inkscape:cy="40.660435"
     inkscape:window-width="2560"
     inkscape:window-height="1376"
     inkscape:window-x="0"
     inkscape:window-y="0"
     inkscape:window-maximized="1"
     inkscape:current-layer="svg7"
     showgrid="false" />
  <defs
     id="defs2">
    <style
       id="current-color-scheme"
       type="text/css">.ColorScheme-Text {color:#d8dee9} .ColorScheme-Highlight {color:#3b4252}</style>
  </defs>
  <metadata
     id="metadata2">
    <rdf:RDF>
      <cc:Work
         rdf:about="">
        <dc:format>image/svg+xml</dc:format>
        <dc:type
           rdf:resource="http://purl.org/dc/dcmitype/StillImage" />
      </cc:Work>
    </rdf:RDF>
  </metadata>
  <path
     id="path5"
     class="ColorScheme-Text"
     style="fill:currentColor;fill-opacity:1;fill-rule:evenodd;stroke-width:0.0848494"
     d="m 7.7409363,2.8449112 c -0.2744949,0.00156 -0.5627431,0.056789 -0.7819884,0.1307003 -0.0201,0.010111 -0.040067,0.020222 -0.059811,0.030522 0.081,-0.025522 0.1514715,-0.032033 0.2087278,-0.016978 C 6.3781904,3.2909218 4.7934347,4.8511532 4.0894435,6.3770348 3.8954247,6.914546 3.9156146,8.1682224 3.8967147,8.4901522 c -0.021844,0.3775543 0.044278,0.5961013 0.027811,0.7312838 0.00911,0.031933 0.018833,0.063562 0.029044,0.094764 0.7325321,1.369755 3.6360818,1.292793 5.859869,0.3665035 0.132581,-0.05778 0.2666763,-0.111559 0.3960413,-0.176237 0.113026,-0.05453 0.224272,-0.1105369 0.332044,-0.1695904 0.243941,-0.1362118 0.477439,-0.2898864 0.706177,-0.4506833 0.468601,-0.3511127 0.841997,-0.7521694 1.055205,-1.1959978 0.002,-0.00912 0.004,-0.018342 0.0059,-0.027568 0.01263,-0.023533 0.02385,-0.042898 0.03372,-0.05932 0.07837,-0.182565 0.130255,-0.3716581 0.152115,-0.5666162 0.0023,0.020424 0.004,0.040702 0.0054,0.061043 0.0018,-0.00961 0.0036,-0.019433 0.0054,-0.029536 0.293929,0.3081028 0.429242,1.0641396 0.399734,1.4081708 C 12.695263,8.8716183 12.66919,8.9215944 12.273085,9.3590284 11.856677,9.8191865 10.757568,10.44417 10.145935,10.6488 9.5343606,10.853683 6.6042908,11.527984 5.5935637,11.313626 4.6217746,11.107629 3.9487699,10.774357 3.8645049,10.24833 3.8764826,10.039814 3.8062275,9.8032775 3.7559611,9.5692285 3.7110614,9.4234877 3.6452285,9.14342 3.732328,8.9797212 c 0.00611,-0.011602 0.011922,-0.02231 0.017478,-0.032244 0.017344,-0.04664 0.040878,-0.091637 0.071622,-0.1346387 0.00222,0.00873 0.00444,0.017584 0.00667,0.026338 0.019644,-0.012519 0.025189,0.00726 0.026589,0.023138 C 3.853127,8.7738675 3.846017,8.3440386 3.844131,7.8962122 3.822364,7.9077812 3.800798,7.9195192 3.779154,7.9311642 2.2238426,8.8698814 0.01221073,10.154183 0.7939604,12.490426 c 0.316508,0.665814 0.6972645,0.870322 2.0771804,1.236856 1.3567793,0.349977 2.7868326,0.445129 4.1809439,0.286508 2.7488209,-0.312758 5.5447323,-1.156096 7.7603233,-2.87123 0.7369,-0.622454 1.439226,-1.4296755 1.591298,-2.4107002 C 16.420624,7.3697169 14.899531,6.3531405 13.760644,6.1734727 13.196955,6.084551 12.403188,5.9503274 12.138332,6.0435113 12.122654,6.0661445 11.796998,5.3156647 10.934211,4.605558 10.118806,3.9156068 9.0147751,3.3920034 8.0078447,2.8626367 7.9224674,2.8498923 7.8325269,2.8444034 7.7410297,2.8449146 Z M 8.0764265,3.5151515 C 9.1376021,3.5519846 11.466927,5.0514686 11.029622,5.6922657 10.785762,6.0495913 9.3408966,5.7351432 9.0462204,6.0366158 8.3466537,6.7522952 7.2934369,8.1208933 7.2338861,6.1838082 7.1959531,4.9456559 7.6598757,3.5965854 7.7921338,3.5533035 7.8703,3.523237 7.9666494,3.5113482 8.0764265,3.5151482 Z M 6.8046177,3.7160025 C 6.9050393,3.6964248 6.4171735,6.3027441 6.177205,7.253043 6.1486496,7.5479524 5.7964429,7.7665045 5.6000063,7.5311819 5.3937976,7.2845466 5.9142755,7.2791052 6.0211526,6.9537357 6.2706377,6.1946048 6.5595403,4.0608381 6.7467747,3.8297195 6.7743635,3.7542089 6.7932633,3.7182158 6.8046177,3.7160025 Z M 6.4270378,3.9855263 c 0.00756,1.78e-5 0.014867,5.245e-4 0.0219,0.00144 C 6.0561079,4.3077777 4.611318,6.1624861 4.2176738,6.7380849 4.5223197,5.8673624 5.952703,3.984393 6.4270312,3.9854941 Z M 4.496311,5.4702471 C 4.490421,5.4782471 4.4852,5.4854021 4.479322,5.4933801 4.4441,5.5416461 4.4109,5.5896241 4.379634,5.637127 4.417789,5.581705 4.460778,5.5261943 4.4963055,5.4702436 Z M 1.7764579,9.2869027 c -0.00378,0.00328 -0.00856,0.00607 -0.012311,0.00936 -0.053155,0.044842 -0.1059994,0.091418 -0.1580224,0.139557 0.053978,-0.049135 0.1146004,-0.099446 0.1703301,-0.1489154 z M 0.5307401,11.423895 c -0.00722,0.175434 0.01,0.352981 0.056122,0.530926 -0.038077,-0.160094 -0.061777,-0.337431 -0.056122,-0.530926 z" />
</svg>
