<?xml version="1.0" encoding="UTF-8" standalone="no"?>
<svg
   width="64"
   height="64"
   version="1.1"
   viewBox="0 0 16.933 16.933"
   id="svg7"
   sodipodi:docname="org.prismlauncher.PrismLauncher.svg"
   inkscape:version="1.4.2 (ebf0e940d0, 2025-05-08)"
   xmlns:inkscape="http://www.inkscape.org/namespaces/inkscape"
   xmlns:sodipodi="http://sodipodi.sourceforge.net/DTD/sodipodi-0.dtd"
   xmlns="http://www.w3.org/2000/svg"
   xmlns:svg="http://www.w3.org/2000/svg"
   xmlns:rdf="http://www.w3.org/1999/02/22-rdf-syntax-ns#"
   xmlns:cc="http://creativecommons.org/ns#"
   xmlns:dc="http://purl.org/dc/elements/1.1/">
  <sodipodi:namedview
     id="namedview7"
     pagecolor="#9c4444"
     bordercolor="#000000"
     borderopacity="0.25"
     inkscape:showpageshadow="2"
     inkscape:pageopacity="0.0"
     inkscape:pagecheckerboard="0"
     inkscape:deskcolor="#d1d1d1"
     inkscape:zoom="4.3531262"
     inkscape:cx="89.935366"
     inkscape:cy="34.457995"
     inkscape:window-width="2560"
     inkscape:window-height="1388"
     inkscape:window-x="0"
     inkscape:window-y="0"
     inkscape:window-maximized="1"
     inkscape:current-layer="svg7"
     showgrid="false" />
  <defs
     id="defs2">
    <style
       id="current-color-scheme"
       type="text/css">.ColorScheme-Text {color:#d8dee9} .ColorScheme-Highlight {color:#3b4252}</style>
  </defs>
  <metadata
     id="metadata2">
    <rdf:RDF>
      <cc:Work
         rdf:about="">
        <dc:format>image/svg+xml</dc:format>
        <dc:type
           rdf:resource="http://purl.org/dc/dcmitype/StillImage" />
      </cc:Work>
    </rdf:RDF>
  </metadata>
  <path
     id="path5"
     style="fill:currentColor;stroke-width:0.065925"
     d="m 8.3362855,1.4551797 c -0.0247,0.00649 -0.052,0.014625 -0.08097,0.023992 -0.154432,0.049918 -0.367678,0.1374113 -0.618307,0.2529212 -0.626571,0.2887746 -1.489646,0.7506533 -2.335772,1.2401133 -0.846126,0.48946 -1.676928,1.0077589 -2.239801,1.4070614 -0.225148,0.1597211 -0.407472,0.3008125 -0.527835,0.4098721 -0.02275,0.020616 -0.04342,0.040173 -0.06148,0.058481 l 2.588193,1.497533 -5.12e-4,-9.982e-4 0.283911,0.1639489 c 0.310896,-0.2993752 1.259727,-0.8598819 1.765449,-1.1411441 0.202791,-0.112783 0.401146,-0.2184599 0.58032,-0.3089036 0.220683,-0.1113972 0.420318,-0.2033672 0.563824,-0.2549206 0.02683,-0.00964 0.05508,-0.019461 0.08297,-0.027491 z m 0.260919,0 v 3.3214644 c 0.327314,0.094473 0.989251,0.4524467 1.4375525,0.7082792 L 11.519794,2.9077268 C 10.710058,2.4425344 9.8952895,2.0086539 9.2964865,1.7325933 9.0458665,1.617052 8.8326115,1.5291059 8.6781795,1.4791722 c -0.02898,-0.00937 -0.05627,-0.017497 -0.08097,-0.023992 z m 3.1480195,1.5830066 -1.484537,2.5771964 c 0.445659,0.2611781 1.085403,0.6564952 1.331083,0.8932214 l 2.870106,-1.6604822 c -0.01807,-0.018309 -0.03872,-0.038367 -0.06148,-0.058982 C 14.279998,4.6800956 14.097707,4.5389523 13.87256,4.3792678 13.334716,3.9978018 12.552377,3.508076 11.745723,3.038186 Z m -3.2509875,1.8489235 -0.05498,0.00199 c -0.01623,0.00284 -0.05307,0.0098 -0.09697,0.023992 -0.08034,0.025976 -0.190981,0.071879 -0.315902,0.1294598 -0.315258,0.1453122 -0.750521,0.3778204 -1.173134,0.6223058 -0.42263,0.244496 -0.841453,0.5058701 -1.12465,0.7067797 -0.09153,0.064937 -0.171167,0.1250859 -0.230927,0.1754454 l -0.13946,0.117467 3.109531,1.799439 L 11.577275,6.6650493 11.437819,6.5475861 C 11.37838,6.4975087 11.298822,6.4368451 11.206891,6.3716438 10.923588,6.1707137 10.504447,5.9093493 10.081742,5.6648641 9.6590605,5.4203927 9.2240175,5.1873846 8.9086075,5.0420584 8.7835565,4.9844404 8.6724965,4.9390378 8.5922055,4.9130985 c -0.02879,-0.0093 -0.05445,-0.015502 -0.07298,-0.019493 h -5.12e-4 z m -0.02699,0.1269605 c 4.3e-5,3.06e-5 0.03709,0.00536 0.08547,0.020993 0.07279,0.023516 0.178385,0.066318 0.302405,0.1234615 0.310053,0.1428578 0.740748,0.3732937 1.1626385,0.6173075 0.421891,0.244014 0.836625,0.5027391 1.115153,0.7002816 0.09049,0.064176 0.166561,0.1223714 0.22243,0.1694474 l -2.8875995,1.6704795 -2.8876,-1.6709791 c 0.05582,-0.047042 0.132076,-0.1048471 0.222431,-0.1689472 0.278445,-0.1975387 0.692855,-0.4562676 1.114651,-0.7002817 0.421799,-0.2440137 0.852704,-0.4744487 1.162638,-0.6173074 0.123974,-0.057144 0.229168,-0.099945 0.301906,-0.1234615 0.04816,-0.01557 0.08522,-0.020924 0.08548,-0.020993 z m -6.12559,0.059981 c -0.0068,0.02475 -0.01357,0.052554 -0.01999,0.082474 -0.03412,0.1590021 -0.06497,0.3880607 -0.09047,0.6632931 -0.06375,0.6880815 -0.09597,1.6677635 -0.09597,2.6466749 0,0.9789114 0.03222,1.9585477 0.09597,2.6466747 0.0255,0.275251 0.05635,0.504264 0.09047,0.663293 0.0064,0.02994 0.01322,0.05771 0.01999,0.08247 l 2.870105,-1.659982 c -0.0071,-0.02823 -0.01289,-0.05734 -0.01799,-0.08547 -0.02723,-0.1501959 -0.04789,-0.369695 -0.06198,-0.6168077 -0.01144,-0.2006323 -0.01906,-0.4249811 -0.02299,-0.6572952 -0.0098,-0.5814495 5.89e-4,-1.6856326 0.103967,-2.1043439 v -5.119e-4 z m 12.2506815,0 -2.869605,1.6604822 c 0.07692,0.3104382 0.102714,0.9997867 0.105967,1.6015006 h 2.969074 c -0.0027,-0.9347903 -0.0347,-1.8586433 -0.09547,-2.5162155 -0.02544,-0.2752662 -0.05589,-0.5042723 -0.08998,-0.6632932 -0.0064,-0.029905 -0.01323,-0.057734 -0.01999,-0.082474 z m -9.2371205,1.5950025 -0.03199,0.1799439 c -0.01361,0.076841 -0.02612,0.1759078 -0.03649,0.2879102 -0.03208,0.3463734 -0.04799,0.840603 -0.04799,1.3295856 0,0.4889827 0.0159,0.9837016 0.04799,1.3300854 0.01249,0.1348391 0.02894,0.2571261 0.04649,0.3388941 0.01023,0.04768 0.02198,0.08086 0.02749,0.09547 l 0.02799,0.04899 c -0.01434,-0.01563 0.02371,0.02719 0.02399,0.02749 0.01194,0.01284 0.02725,0.02847 0.04548,0.04499 0.06193,0.0561 0.159641,0.131228 0.269916,0.209435 0.283271,0.200893 0.702036,0.461879 1.12465,0.70628 0.422596,0.24439 0.857751,0.477517 1.173134,0.622805 0.102199,0.04708 0.194631,0.08552 0.267417,0.111965 l 0.171446,0.06198 V 8.4679932 Z m 6.2245585,0 -3.1100295,1.7989392 v 3.597379 l 0.171447,-0.06198 c 0.07314,-0.02657 0.165676,-0.06535 0.267916,-0.112465 0.315347,-0.145321 0.750481,-0.378329 1.1731335,-0.622806 0.422696,-0.244502 0.84144,-0.50588 1.124649,-0.70678 0.110252,-0.07821 0.207954,-0.153293 0.269916,-0.209435 0.03577,-0.03241 0.05807,-0.05943 0.06798,-0.07148 l 0.005,-0.0055 5.12e-4,-5.11e-4 5.12e-4,-5.12e-4 5.12e-4,-5.12e-4 5.11e-4,-5.12e-4 9.69e-4,-0.0015 -5.13e-4,-5.12e-4 c 0.0065,-0.01514 0.02909,-0.06077 0.02949,-0.06198 0.006,-0.01828 0.01354,-0.04391 0.01999,-0.07398 0.01754,-0.08177 0.03399,-0.2040767 0.04649,-0.3388941 0.03209,-0.3463294 0.04799,-0.8406775 0.04799,-1.3295854 0,-0.4889079 -0.0159,-0.983256 -0.04799,-1.3295856 -0.01034,-0.1119868 -0.02284,-0.2110832 -0.03645,-0.287914 z m -6.1305935,0.2024374 2.8876,1.6704793 v 3.3404585 c -0.068555,-0.02491 -0.156925,-0.06167 -0.257416,-0.107967 -0.310004,-0.142809 -0.740823,-0.373368 -1.162638,-0.617307 -0.421815,-0.243939 -0.836175,-0.502288 -1.114652,-0.699782 -0.111391,-0.079 -0.201188,-0.148556 -0.25792,-0.199938 -0.02365,-0.02142 -0.05087,-0.05226 -0.06098,-0.06398 1.47e-4,-1.34e-4 -0.01432,-0.03522 -0.02499,-0.08497 -0.01608,-0.07494 -0.03137,-0.1877101 -0.04398,-0.3238985 -0.03154,-0.3404714 -0.04748,-0.8299759 -0.04748,-1.3180892 0,-0.4881133 0.01595,-0.9771179 0.04748,-1.3175893 0.01023,-0.1104414 0.02224,-0.205431 0.03499,-0.2774134 z m 6.0366175,0 c 0.01275,0.071972 0.02476,0.1669934 0.03499,0.2774135 0.03154,0.3404227 0.04748,0.8295515 0.04748,1.3175893 0,0.4880378 -0.01595,0.9771671 -0.04748,1.3175891 -0.01261,0.1361693 -0.02792,0.2489709 -0.04398,0.3238989 -0.0074,0.03442 -0.02005,0.07128 -0.02499,0.08497 -0.0013,0.0016 -0.02427,0.03072 -0.06098,0.06398 -0.05671,0.05138 -0.146531,0.120922 -0.257919,0.199938 -0.278472,0.197538 -0.6928,0.456268 -1.114653,0.700281 -0.4218525,0.244014 -0.8526325,0.47445 -1.1626375,0.617308 -0.100699,0.04641 -0.189311,0.08355 -0.257919,0.108466 V 8.5419703 Z m 0.343393,1.7254623 c -0.003,0.5176595 -0.0248,1.2711398 -0.106966,1.6020005 l 2.870105,1.659982 c 0.0068,-0.0247 0.01311,-0.05215 0.01949,-0.08197 0.03404,-0.159084 0.06501,-0.388009 0.09047,-0.663293 0.06081,-0.657623 0.09272,-1.5816631 0.09547,-2.5167151 z m -6.4859765,1.8274305 -2.871605,1.660982 c 0.0181,0.01832 0.03868,0.03835 0.06148,0.05898 0.120453,0.109027 0.303125,0.250185 0.528335,0.409872 0.563026,0.399217 1.393635,0.917136 2.239801,1.406561 0.846168,0.489426 1.709237,0.951343 2.335772,1.240114 0.250615,0.115508 0.463898,0.203003 0.618307,0.252921 0.02896,0.0094 0.05629,0.0175 0.08097,0.02399 v -3.320465 c -0.02793,-0.008 -0.05611,-0.01784 -0.08297,-0.02749 -0.14357,-0.05155 -0.343603,-0.143522 -0.564319,-0.25492 -0.1792,-0.09044 -0.377015,-0.19612 -0.579819,-0.308904 -0.505876,-0.28133 -1.455229,-0.842454 -1.765949,-1.141644 z m 6.2480505,5.12e-4 c -0.245348,0.236348 -0.88314,0.630925 -1.330583,0.893221 l 1.485036,2.576684 c 0.806577,-0.469804 1.588652,-0.959574 2.126338,-1.341081 0.225131,-0.159739 0.407482,-0.300804 0.527835,-0.409872 0.02275,-0.02062 0.04342,-0.04017 0.06148,-0.05848 z m -1.556514,1.02368 c -0.4481695,0.255738 -1.1098545,0.613364 -1.4370515,0.70778 v 0.02349 h -5.12e-4 v 3.297971 c 0.02474,-0.0065 0.05195,-0.01461 0.08097,-0.02399 0.154466,-0.04993 0.367687,-0.137888 0.618307,-0.253421 0.598708,-0.275998 1.4132705,-0.709978 2.2228065,-1.175133 z"
     class="ColorScheme-Text" />
</svg>
