<?xml version="1.0" encoding="UTF-8" standalone="no"?>
<svg
   width="64"
   height="64"
   version="1.1"
   viewBox="0 0 16.933 16.933"
   id="svg7"
   sodipodi:docname="oriongtk.svg"
   inkscape:version="1.4.3 (0d15f75042, 2025-12-25)"
   xmlns:inkscape="http://www.inkscape.org/namespaces/inkscape"
   xmlns:sodipodi="http://sodipodi.sourceforge.net/DTD/sodipodi-0.dtd"
   xmlns="http://www.w3.org/2000/svg"
   xmlns:svg="http://www.w3.org/2000/svg"
   xmlns:rdf="http://www.w3.org/1999/02/22-rdf-syntax-ns#"
   xmlns:cc="http://creativecommons.org/ns#"
   xmlns:dc="http://purl.org/dc/elements/1.1/">
  <sodipodi:namedview
     id="namedview7"
     pagecolor="#9c4444"
     bordercolor="#000000"
     borderopacity="0.25"
     inkscape:showpageshadow="2"
     inkscape:pageopacity="0.0"
     inkscape:pagecheckerboard="0"
     inkscape:deskcolor="#d1d1d1"
     inkscape:zoom="4.3531262"
     inkscape:cx="90.050226"
     inkscape:cy="34.457995"
     inkscape:window-width="2560"
     inkscape:window-height="1388"
     inkscape:window-x="0"
     inkscape:window-y="0"
     inkscape:window-maximized="1"
     inkscape:current-layer="svg7"
     showgrid="false" />
  <defs
     id="defs2">
    <style
       id="current-color-scheme"
       type="text/css">.ColorScheme-Text {color:#d8dee9} .ColorScheme-Highlight {color:#3b4252}</style>
  </defs>
  <metadata
     id="metadata2">
    <rdf:RDF>
      <cc:Work
         rdf:about="">
        <dc:format>image/svg+xml</dc:format>
        <dc:type
           rdf:resource="http://purl.org/dc/dcmitype/StillImage" />
      </cc:Work>
    </rdf:RDF>
  </metadata>
  <path
     id="path5"
     style="fill:currentColor"
     d="m 8.4664995,2.4567967 c -3.324999,0 -6.009703,2.684704 -6.009703,6.009704 0,3.3249993 2.684704,6.0097023 6.009703,6.0097023 3.3249995,0 6.0097035,-2.684703 6.0097035,-6.0097023 0,-3.325 -2.684704,-6.009704 -6.0097035,-6.009704 z m -2.760512,0.682548 a 0.01169085,0.01172467 0 0 1 0.0018,0 0.01169085,0.01172467 0 0 1 0.0023,2e-4 0.0116908,0.01172462 0 0 1 0.01369,0.0078 l 0.117377,0.353305 a 0.25214687,0.25287628 0 0 0 0.159437,0.160024 l 0.352327,0.117768 a 0.01169085,0.01172467 0 0 1 0.008,0.01174 0.0116908,0.01172462 0 0 1 -0.0078,0.01213 l -0.352327,0.117768 a 0.25214687,0.25287628 0 0 0 -0.159437,0.159829 l -0.117573,0.3535 a 0.01169085,0.01172467 0 0 1 -0.01428,0.0074 0.0116908,0.01172462 0 0 1 -0.0133,-0.0076 l -0.117573,-0.3535 a 0.25214687,0.25287628 0 0 0 -0.159437,-0.159829 l -0.352346,-0.117772 a 0.01169085,0.01172467 0 0 1 -0.0078,-0.0135 0.0116908,0.01172462 0 0 1 0.008,-0.01017 l 0.352326,-0.117768 a 0.25214687,0.25287628 0 0 0 0.159438,-0.160024 l 0.117572,-0.353305 a 0.01169085,0.01172467 0 0 1 0.0096,-0.008 z m 4.107022,0.47968 a 0.01169085,0.01172467 0 0 1 0.0018,0 0.01169085,0.01172467 0 0 1 0.0023,2.01e-4 0.0116908,0.01172462 0 0 1 0.01369,0.0078 l 0.117377,0.353305 a 0.25214687,0.25287628 0 0 0 0.1594355,0.160024 l 0.352327,0.117768 a 0.01169085,0.01172467 0 0 1 0.008,0.01174 0.0116908,0.01172462 0 0 1 -0.0078,0.01213 l -0.352326,0.117768 a 0.25214687,0.25287628 0 0 0 -0.1596325,0.159829 l -0.117377,0.3535 a 0.01169085,0.01172467 0 0 1 -0.01428,0.0074 0.0116908,0.01172462 0 0 1 -0.0133,-0.0078 l -0.117573,-0.353305 a 0.25214687,0.25287628 0 0 0 -0.159437,-0.159828 l -0.352327,-0.117964 a 0.01169085,0.01172467 0 0 1 -0.0078,-0.0133 0.0116908,0.01172462 0 0 1 0.008,-0.01017 l 0.352327,-0.117768 a 0.25214687,0.25287628 0 0 0 0.159437,-0.160024 l 0.117572,-0.353305 a 0.01169085,0.01172467 0 0 1 0.0096,-0.008 z m -1.39033,1.648756 a 0.05845428,0.05862337 0 0 1 0.01193,0.0014 0.05845405,0.05862314 0 0 1 0.06827,0.03873 l 0.587276,1.766915 a 1.2607349,1.2643819 0 0 0 0.797381,0.799533 l 1.7618285,0.589037 a 0.05845428,0.05862337 0 0 1 0.03971,0.05869 0.05845405,0.05862314 0 0 1 -0.03932,0.06045 l -1.7618285,0.589037 a 1.2607349,1.2643819 0 0 0 -0.797185,0.799729 l -0.587276,1.7669223 a 0.05845428,0.05862337 0 0 1 -0.0716,0.03776 0.05845405,0.05862314 0 0 1 -0.06671,-0.03893 L 7.7778795,9.9701377 a 1.2607349,1.2643819 0 0 0 -0.797186,-0.799533 l -1.761829,-0.589037 a 0.05845428,0.05862337 0 0 1 -0.03893,-0.0673 0.05845405,0.05862314 0 0 1 0.03952,-0.05086 l 1.761829,-0.589037 a 1.2607349,1.2643819 0 0 0 0.797577,-0.799533 l 0.587276,-1.766915 a 0.05845428,0.05862337 0 0 1 0.05654,-0.0401 z m 1.6201935,1.249087 a 0.01169085,0.01172467 0 0 1 0.0016,0 0.01169085,0.01172467 0 0 1 0.0023,2.01e-4 0.0116908,0.01172462 0 0 1 0.01369,0.0078 l 0.117572,0.353305 a 0.25214687,0.25287628 0 0 0 0.159438,0.160024 l 0.352326,0.117768 a 0.01169085,0.01172467 0 0 1 0.008,0.01174 0.0116908,0.01172462 0 0 1 -0.0078,0.01213 l -0.352523,0.117768 a 0.25214687,0.25287628 0 0 0 -0.159437,0.160024 l -0.117376,0.353305 a 0.01169085,0.01172467 0 0 1 -0.01428,0.0076 0.0116908,0.01172462 0 0 1 -0.0133,-0.0078 L 9.9155115,7.4572317 a 0.25214687,0.25287628 0 0 0 -0.159438,-0.159828 l -0.352326,-0.117768 a 0.01169085,0.01172467 0 0 1 -0.0078,-0.0135 0.0116908,0.01172462 0 0 1 0.008,-0.01017 l 0.352326,-0.117769 a 0.25214687,0.25287628 0 0 0 0.159438,-0.160024 l 0.1173755,-0.353304 a 0.01169085,0.01172467 0 0 1 0.0098,-0.008 z m -3.6472945,2.538083 a 0.01169085,0.01172467 0 0 1 0.0016,0 0.01169085,0.01172467 0 0 1 0.0023,3.9e-4 0.0116908,0.01172462 0 0 1 0.01369,0.0076 l 0.117377,0.3535 a 0.25214687,0.25287628 0 0 0 0.159632,0.159829 l 0.352327,0.117768 a 0.01169085,0.01172467 0 0 1 0.0078,0.01174 0.0116908,0.01172462 0 0 1 -0.0078,0.01213 l -0.352327,0.117768 a 0.25214687,0.25287628 0 0 0 -0.159437,0.160024 l -0.117362,0.3533063 a 0.01169085,0.01172467 0 0 1 -0.01448,0.0076 0.0116908,0.01172462 0 0 1 -0.0133,-0.0078 L 6.2682215,9.9955017 a 0.25214687,0.25287628 0 0 0 -0.159437,-0.160024 l -0.352327,-0.117768 a 0.01169085,0.01172467 0 0 1 -0.0078,-0.0135 0.0116908,0.01172462 0 0 1 0.0078,-0.01017 l 0.352523,-0.117768 a 0.25214687,0.25287628 0 0 0 0.159437,-0.159829 l 0.117377,-0.3535 a 0.01169085,0.01172467 0 0 1 0.0098,-0.008 z M 11.72156,11.473308 a 0.01169085,0.01172467 0 0 1 0.0018,0 0.01169085,0.01172467 0 0 1 0.0023,2e-4 0.0116908,0.01172462 0 0 1 0.01369,0.0078 l 0.117378,0.353305 a 0.25214687,0.25287628 0 0 0 0.159436,0.159829 l 0.352522,0.117963 a 0.01169085,0.01172467 0 0 1 0.0078,0.01174 0.0116908,0.01172462 0 0 1 -0.0078,0.01213 l -0.352326,0.117769 a 0.25214687,0.25287628 0 0 0 -0.159436,0.159828 l -0.117573,0.3535 a 0.01169085,0.01172467 0 0 1 -0.01428,0.0074 0.0116908,0.01172462 0 0 1 -0.0133,-0.0078 l -0.117377,-0.353304 a 0.25214687,0.25287628 0 0 0 -0.159438,-0.159829 l -0.352522,-0.117964 a 0.01169085,0.01172467 0 0 1 -0.0076,-0.0133 0.0116908,0.01172462 0 0 1 0.0078,-0.01017 l 0.352326,-0.117768 a 0.25214687,0.25287628 0 0 0 0.159633,-0.160023 l 0.117377,-0.353306 a 0.01169085,0.01172467 0 0 1 0.0096,-0.008 z m -4.4867365,1.019225 a 0.01169085,0.01172467 0 0 1 0.0018,0 0.01169085,0.01172467 0 0 1 0.0023,2e-4 0.0116908,0.01172462 0 0 1 0.01369,0.0078 l 0.117376,0.353305 a 0.25214687,0.25287628 0 0 0 0.159438,0.160023 l 0.352522,0.11777 a 0.01169085,0.01172467 0 0 1 0.0078,0.01174 0.0116908,0.01172462 0 0 1 -0.0078,0.01213 l -0.352343,0.117768 a 0.25214687,0.25287628 0 0 0 -0.159438,0.159828 l -0.117572,0.353501 a 0.01169085,0.01172467 0 0 1 -0.01428,0.0076 0.0116908,0.01172462 0 0 1 -0.0133,-0.0078 L 7.1076385,13.432897 A 0.25214687,0.25287628 0 0 0 6.9482015,13.273069 L 6.5956795,13.1553 a 0.01169085,0.01172467 0 0 1 -0.0076,-0.0135 0.0116908,0.01172462 0 0 1 0.0078,-0.01017 l 0.352327,-0.117769 a 0.25214687,0.25287628 0 0 0 0.159633,-0.160023 l 0.117377,-0.353306 a 0.01169085,0.01172467 0 0 1 0.0096,-0.008 z M 8.4664995,1.4551797 c -3.866313,0 -7.01132,3.145007 -7.01132,7.011321 0,3.8663133 3.145007,7.0113193 7.01132,7.0113193 3.8663145,0 7.0113215,-3.145006 7.0113215,-7.0113193 0,-3.866314 -3.145007,-7.011321 -7.0113215,-7.011321 z m 0,0.623076 c 3.5356675,0 6.3882445,2.852577 6.3882445,6.388245 0,3.5356673 -2.852577,6.3882433 -6.3882445,6.3882433 -3.535667,0 -6.388244,-2.852576 -6.388244,-6.3882433 0,-3.535668 2.852577,-6.388245 6.388244,-6.388245 z"
     class="ColorScheme-Text" />
</svg>
