<?xml version="1.0" encoding="UTF-8" standalone="no"?>
<svg
   width="64"
   height="64"
   version="1.1"
   viewBox="0 0 16.933 16.933"
   id="svg7"
   sodipodi:docname="otter-browser.svg"
   inkscape:version="1.4.3 (0d15f75042, 2025-12-25)"
   xmlns:inkscape="http://www.inkscape.org/namespaces/inkscape"
   xmlns:sodipodi="http://sodipodi.sourceforge.net/DTD/sodipodi-0.dtd"
   xmlns="http://www.w3.org/2000/svg"
   xmlns:svg="http://www.w3.org/2000/svg"
   xmlns:rdf="http://www.w3.org/1999/02/22-rdf-syntax-ns#"
   xmlns:cc="http://creativecommons.org/ns#"
   xmlns:dc="http://purl.org/dc/elements/1.1/">
  <sodipodi:namedview
     id="namedview7"
     pagecolor="#9c4444"
     bordercolor="#000000"
     borderopacity="0.25"
     inkscape:showpageshadow="2"
     inkscape:pageopacity="0.0"
     inkscape:pagecheckerboard="0"
     inkscape:deskcolor="#d1d1d1"
     inkscape:zoom="6.15625"
     inkscape:cx="15.51269"
     inkscape:cy="30.050761"
     inkscape:window-width="2560"
     inkscape:window-height="1388"
     inkscape:window-x="0"
     inkscape:window-y="0"
     inkscape:window-maximized="1"
     inkscape:current-layer="svg7"
     showgrid="false" />
  <defs
     id="defs2">
    <style
       id="current-color-scheme"
       type="text/css">.ColorScheme-Text {color:#d8dee9} .ColorScheme-Highlight {color:#3b4252}</style>
  </defs>
  <metadata
     id="metadata2">
    <rdf:RDF>
      <cc:Work
         rdf:about="">
        <dc:format>image/svg+xml</dc:format>
        <dc:type
           rdf:resource="http://purl.org/dc/dcmitype/StillImage" />
      </cc:Work>
    </rdf:RDF>
  </metadata>
  <path
     id="path5"
     style="fill:currentColor"
     d="m 11.165176,6.4939205 c -0.0012,1.38e-4 -0.0024,2.86e-4 -0.0036,4.34e-4 -0.01794,0.0017 -0.03611,0.0031 -0.05414,0.0047 l 0.03728,0.01527 c 0.0069,-0.0068 0.01367,-0.01359 0.02042,-0.02042 z m 0.467702,0.001 c 0.0019,0.0082 0.0037,0.01658 0.0055,0.02502 0.04196,0.0042 0.08411,0.0067 0.126177,0.01035 0.05908,0.0053 0.117834,0.01215 0.176538,0.019 0.04255,0.005 0.08534,0.0097 0.126724,0.01713 0.02728,0.0042 0.05157,0.0114 0.07625,0.01801 0.01543,0.0043 0.03133,0.008 0.04768,0.01144 l -0.06897,-0.03186 c -0.01602,-0.0036 -0.03162,-0.0075 -0.04697,-0.01166 -0.02485,-0.0067 -0.04986,-0.01323 -0.07735,-0.01735 -0.04128,-0.0067 -0.08348,-0.011 -0.12552,-0.01588 -0.05898,-0.0068 -0.118043,-0.01357 -0.177359,-0.01899 -0.02091,-0.0018 -0.04181,-0.0035 -0.06273,-0.0052 z m 0.0266,0.140902 c 0.0013,0.0086 0.0025,0.01725 0.0037,0.02595 0.0064,0.0016 0.01275,0.0032 0.01911,0.0048 0.04349,0.01176 0.08759,0.0214 0.131377,0.0323 0.05725,0.0145 0.113949,0.03038 0.170571,0.04631 0.04103,0.01161 0.08232,0.02293 0.121798,0.03673 0.02614,0.0085 0.04886,0.01928 0.07204,0.02967 0.01446,0.0066 0.0295,0.01278 0.045,0.01878 l -0.06251,-0.04226 c -0.01516,-0.0061 -0.02982,-0.01239 -0.04423,-0.01889 -0.02334,-0.01046 -0.04688,-0.02087 -0.07324,-0.02923 -0.0395,-0.01302 -0.08032,-0.02393 -0.120867,-0.03531 -0.05691,-0.0159 -0.113872,-0.0318 -0.171338,-0.04642 -0.03043,-0.0076 -0.06095,-0.01483 -0.09136,-0.02244 z m -0.757115,0.07083 0.0069,0.0121 c 0.0019,-0.0015 0.0038,-0.0029 0.0056,-0.0044 -0.0042,-0.0026 -0.0084,-0.0051 -0.01254,-0.0077 z m 0.776494,0.119389 c 4.97e-4,0.0091 9.42e-4,0.01828 0.0013,0.02748 0.04988,0.02674 0.09891,0.05462 0.147909,0.08249 0.03668,0.02094 0.07376,0.04161 0.108386,0.06432 0.02309,0.01437 0.04222,0.03026 0.06197,0.04582 0.01229,0.0098 0.02525,0.01937 0.0387,0.02885 l -0.04965,-0.05584 c -0.0131,-0.0095 -0.02567,-0.01903 -0.03793,-0.02874 -0.01988,-0.01566 -0.03989,-0.03132 -0.06323,-0.04565 -0.03484,-0.02196 -0.07151,-0.04213 -0.107783,-0.06273 -0.03314,-0.01877 -0.06629,-0.03753 -0.09968,-0.056 z m -1.7214785,0.09859 c -0.01497,0.01333 -0.02989,0.02677 -0.04494,0.04001 -0.01526,0.01275 -0.03023,0.02584 -0.04505,0.03919 0.01473,0.003 0.02961,0.0058 0.04472,0.0085 0.01048,-0.0094 0.0209,-0.01889 0.0318,-0.02775 z m 0.0358,0.04664 c -0.01101,0.01367 -0.02194,0.02745 -0.03306,0.04106 -0.002,0.0023 -0.0039,0.0046 -0.0059,0.0068 0.01508,0.0023 0.03035,0.0043 0.04582,0.0062 z m -0.212941,4.97e-4 c -0.0044,0.0027 -0.0088,0.0054 -0.01325,0.0082 0.0022,5.93e-4 0.0043,0.0012 0.0065,0.0018 l 4.7e-5,3e-6 z m 1.9010815,0.0012 c -1.8e-4,0.0085 -4.13e-4,0.01702 -7.1e-4,0.02556 0.02692,0.01503 0.0537,0.03026 0.08047,0.04549 0.03668,0.02094 0.07376,0.04167 0.108386,0.06437 0.0231,0.01437 0.04222,0.03026 0.06197,0.04582 0.01229,0.0098 0.02525,0.01937 0.0387,0.02885 l -0.04965,-0.05584 c -0.0131,-0.0095 -0.02562,-0.01908 -0.03788,-0.02879 -0.01988,-0.01566 -0.03995,-0.03132 -0.06328,-0.04565 -0.03484,-0.02196 -0.07151,-0.04213 -0.107784,-0.06273 -0.01006,-0.0057 -0.02014,-0.01139 -0.03022,-0.01708 z m -0.04543,0.355758 c -0.0014,0.0058 -0.0029,0.01154 -0.0044,0.0173 0.01,0.01218 0.01912,0.02446 0.02846,0.03668 0.0094,0.01246 0.01952,0.0248 0.03011,0.03717 l -0.03383,-0.06596 c -0.007,-0.0084 -0.01374,-0.01677 -0.02031,-0.02518 z m -0.09333,0.251752 c -0.0015,0.003 -0.0031,0.0059 -0.0047,0.0089 0.005,0.0094 0.01034,0.01879 0.01588,0.02825 z M 7.3785085,6.6405845 c -0.164954,0 -0.299704,0.126419 -0.299704,0.281694 0,0.155276 0.13475,0.281695 0.299704,0.281695 0.164953,0 0.299649,-0.126419 0.299649,-0.281695 0,-0.155275 -0.134695,-0.281694 -0.299649,-0.281694 z m 3.2339555,6.0472325 c -0.142911,-0.0079 -0.296728,0.06084 -0.461352,0.238998 -1.1724955,0.152118 0.663601,2.515908 0.720166,1.866378 -0.0041,-0.139371 -0.182848,-0.312478 -0.534104,-0.910118 -0.006,-0.0099 0.01575,-0.05273 0.06897,0.02759 0.255306,0.385236 0.637011,1.192257 0.7731,0.816453 0.06321,-0.174552 -0.610218,-1.037697 -0.523646,-1.09333 0.04722,-0.03034 0.390549,0.690682 0.58534,0.982864 0.15022,0.225326 0.299289,-0.01594 0.27009,-0.104826 -0.03294,-0.100276 -0.547366,-0.948378 -0.509142,-0.980677 0.02908,-0.02457 0.384852,0.690669 0.511495,0.867745 0.160473,0.257505 0.314321,0.0403 0.207083,-0.190441 -0.226442,-0.487232 -0.597601,-1.49249 -1.108002,-1.52064 z m -3.9832975,0.165916 c -0.5104,0.02815 -0.881559,1.033464 -1.108002,1.520691 -0.107238,0.230739 0.04661,0.447891 0.207083,0.190386 0.126644,-0.177079 0.482362,-0.89226 0.51144,-0.867691 0.03823,0.0323 -0.476147,0.880401 -0.509085,0.980677 -0.0292,0.08889 0.119869,0.330154 0.270088,0.104827 0.194792,-0.292183 0.538066,-1.013264 0.585285,-0.982921 0.08657,0.05563 -0.586803,0.91878 -0.523592,1.093334 0.136089,0.375803 0.517793,-0.431221 0.773099,-0.816456 0.05323,-0.08031 0.07496,-0.03752 0.06897,-0.02759 -0.351254,0.597639 -0.530007,0.770799 -0.534102,0.91017 0.05656,0.649529 1.892661,-1.714315 0.720165,-1.866431 -0.164624,-0.17816 -0.31844,-0.246878 -0.461352,-0.238997 z M 8.4457275,1.4551815 c -1.934145,0 -3.556363,0.579283 -4.86659,1.737845 -1.414214,1.258438 -2.142104,3.016259 -2.142104,5.193556 0,3.2224985 1.645792,5.6158995 4.309278,6.5950765 -0.01277,-0.0075 -0.02528,-0.01581 -0.03717,-0.02562 -0.0387,-0.03195 -0.07525,-0.0809 -0.0982,-0.136302 -0.0012,1.48e-4 -0.0024,4.87e-4 -0.0036,4.87e-4 -0.116048,0.01234 -0.199062,-0.06444 -0.235165,-0.15103 -0.04325,-0.103735 -0.03351,-0.234622 0.0219,-0.353842 0.118685,-0.255372 0.304612,-0.730707 0.548389,-1.094645 -1.036945,-0.979701 -1.742936,-2.621744 -1.742936,-4.7941695 0,-3.575562 1.979269,-5.692953 4.287765,-5.692953 2.2669015,0 4.2254705,2.137402 4.2254705,5.832815 0,1.9122995 -0.579069,3.4213985 -1.472737,4.4040335 0.272976,0.371477 0.479456,0.903297 0.607564,1.178945 0.05541,0.119227 0.06514,0.250107 0.0219,0.353844 -0.0361,0.08659 -0.119049,0.16335 -0.23511,0.151027 -0.0012,-1.05e-4 -0.0024,-1.05e-4 -0.0037,-3.81e-4 -0.02296,0.05539 -0.05952,0.104306 -0.0982,0.136249 -0.07192,0.05938 -0.161812,0.07758 -0.248084,0.04352 -0.04844,0.087 -0.127555,0.144529 -0.234235,0.128419 -0.02759,-0.0042 -0.05349,-0.01329 -0.07751,-0.02535 -0.01661,0.02883 -0.03947,0.05478 -0.07056,0.07489 -0.232404,0.150253 -0.571482,-0.2245 -0.757389,-0.465347 -0.120543,-0.156168 -0.2465995,-0.350103 -0.3448645,-0.552388 -0.428807,0.174742 -0.884957,0.265439 -1.354115,0.265439 -0.334301,0 -0.664002,-0.04865 -0.982919,-0.143859 -0.100896,0.218174 -0.236557,0.42917 -0.365886,0.596725 -0.148029,0.191781 -0.393108,0.46817 -0.604171,0.497098 0.654245,0.164668 1.348556,0.268556 2.098531,0.268558 1.7469695,0 3.4107455,-0.619239 4.6793785,-1.757827 1.455808,-1.298391 2.225309,-3.096167 2.225308,-5.2135385 4e-6,-2.257191 -0.873478,-4.174834 -2.474867,-5.493198 -1.268632,-1.038711 -2.786807,-1.558078 -4.5753715,-1.558078 z M 5.9572815,14.999559 c -0.04655,0.01839 -0.09409,0.0211 -0.139369,0.01078 0.08511,0.03024 0.161534,0.07235 0.248686,0.09968 -0.04565,-0.0225 -0.08226,-0.06188 -0.109317,-0.110468 z m 0.311693,0.103076 c -0.02401,0.01205 -0.04993,0.02112 -0.07751,0.02529 -0.02291,0.0035 -0.04453,0.0036 -0.06487,6.57e-4 0.06652,0.02024 0.14144,0.02755 0.209108,0.04609 -0.02903,-0.01971 -0.05086,-0.04447 -0.06673,-0.07204 z M 10.376803,6.8962845 c 0.651572,-0.336976 1.416275,-1.110638 0.599677,-1.198452 -0.02476,-0.0027 -0.366089,-0.02035 -0.393199,-0.02175 -1.1800175,0.04134 -1.6823315,0.310974 -1.6026675,0.454469 0.243547,0.438688 0.588252,0.809905 1.3961895,0.765733 z M 7.6371575,5.7492425 c -1.085162,0 -1.835196,0.653672 -2.214252,1.634331 -0.294014,0.0079 -0.767427,0.187859 -0.919093,0.425333 -0.251316,0.45659 0.216364,0.951572 0.689949,1.0081 -0.151115,0.919572 -0.505141,1.9485665 0.0028,3.2160575 0.238894,0.418456 0.518263,0.777118 0.827511,1.073187 0.07182,-0.09411 0.148112,-0.176601 0.228651,-0.240256 0.106978,-0.08455 0.230169,-0.14454 0.368677,-0.152179 0.184059,-0.01015 0.363603,0.07253 0.537716,0.247975 0.260552,0.04927 0.408161,0.205058 0.449693,0.419148 0.03498,0.180307 -0.0082,0.393899 -0.09174,0.6074 0.301875,0.08863 0.613299,0.133677 0.928617,0.133675 0.449101,0 0.886086,-0.08614 1.297513,-0.253284 -0.09563,-0.228729 -0.147975,-0.460363 -0.110467,-0.653711 0.04153,-0.214087 0.189143,-0.369881 0.4496925,-0.419148 0.174113,-0.175447 0.353658,-0.258124 0.537717,-0.247973 0.138505,0.0076 0.261698,0.06763 0.368676,0.152177 0.05648,0.04464 0.110847,0.09856 0.163072,0.159241 0.0232,-0.02589 0.04621,-0.05218 0.06897,-0.07883 -0.02341,-0.06834 -0.04784,-0.14168 -0.07324,-0.220439 -0.10775,-0.334034 -0.860831,-1.490403 -1.022223,-1.833861 -0.0646,-0.151688 -0.1312665,-0.570853 0.02261,-0.7365315 0.459714,-0.266765 1.251753,-0.281384 1.435459,-1.360794 0.01056,-0.06203 -0.171585,-0.702867 -0.212557,-0.814045 0.06838,-0.06659 0.123387,-0.142917 0.166959,-0.225421 -0.0024,-0.0045 -0.0048,-0.0089 -0.007,-0.01341 -0.01132,-0.02203 -0.02192,-0.04416 -0.03679,-0.0664 -0.02178,-0.03442 -0.04665,-0.06794 -0.07105,-0.101543 -0.03373,-0.0463 -0.06755,-0.09263 -0.102693,-0.138165 -0.027,-0.03467 -0.05502,-0.06855 -0.08124,-0.103733 -0.01937,-0.02509 -0.03871,-0.05019 -0.05852,-0.07494 -0.01555,-0.01829 -0.03171,-0.03622 -0.04856,-0.05184 -0.01765,-0.01688 -0.03525,-0.03409 -0.05304,-0.05036 -0.02094,-0.0196 -0.04126,-0.04123 -0.06224,-0.06065 -0.01427,-0.01276 -0.02858,-0.02494 -0.04292,-0.03684 -0.01325,-0.01145 -0.02641,-0.02409 -0.03974,-0.03465 l -0.02611,-0.07412 c 0.01318,0.0117 0.02638,0.02358 0.03958,0.03514 0.01454,0.01193 0.02903,0.02461 0.04346,0.03772 0.02104,0.01949 0.0415,0.04098 0.06246,0.06076 0.01779,0.01612 0.03533,0.03338 0.05299,0.05009 0.01732,0.01592 0.03391,0.03404 0.05003,0.0526 0.02047,0.02491 0.03993,0.05072 0.05961,0.07625 0.02647,0.0355 0.05444,0.06996 0.08162,0.104992 0.03523,0.04576 0.06927,0.09226 0.103241,0.138712 0.02417,0.03314 0.04886,0.06603 0.07116,0.09985 0.01509,0.02231 0.02665,0.04455 0.03804,0.06673 0.007,0.01373 0.01435,0.02745 0.02222,0.04127 l 0.01013,0.03361 c 0.03821,-0.07413 0.0674,-0.153119 0.0889,-0.234453 -0.0062,-0.0075 -0.01268,-0.01503 -0.01982,-0.02244 -0.02769,-0.03021 -0.05822,-0.059 -0.08835,-0.08797 -0.04162,-0.0399 -0.08335,-0.07982 -0.126232,-0.118732 -0.03289,-0.02959 -0.0666,-0.05818 -0.09881,-0.08841 -0.02363,-0.02144 -0.04733,-0.04296 -0.07133,-0.06399 -0.01864,-0.01539 -0.03782,-0.0303 -0.05726,-0.04286 -0.02047,-0.01366 -0.04087,-0.02768 -0.06136,-0.04073 -0.0242,-0.01579 -0.04816,-0.0336 -0.07237,-0.04921 -0.01638,-0.01017 -0.03276,-0.01981 -0.04905,-0.02912 -0.01514,-0.0091 -0.03032,-0.01926 -0.04538,-0.02743 l -0.03224,-0.05638 c -0.159237,0.123538 -0.32741,0.229304 -0.468086,0.302058 a 0.14013557,0.14013557 0 0 1 -0.05671,0.01544 c -0.08765,0.0048 -0.168793,0.0035 -0.247044,-6.04e-4 -0.02183,-0.0011 -0.04286,-0.003 -0.06399,-0.0048 -0.02424,-0.002 -0.05006,-0.0026 -0.073409,-0.0055 l 2.75e-4,0.0022 c -0.011871,0.0131 -0.022301,0.02732 -0.033561,0.04089 -0.01245,0.0144 -0.02474,0.02893 -0.03662,0.04379 -0.01708,0.02222 -0.03201,0.04535 -0.04894,0.06766 -0.0146,0.01873 -0.0284,0.03787 -0.04248,0.05687 -0.01369,0.01786 -0.02519,0.03675 -0.03564,0.05545 -0.01248,0.02466 -0.02415,0.04928 -0.03585,0.0739 -0.01514,0.03404 -0.03344,0.06826 -0.04992,0.102419 -0.02122,0.04469 -0.04023,0.08913 -0.05912,0.133512 -0.01361,0.03217 -0.02782,0.06454 -0.03744,0.0958 -0.0073,0.02061 -0.009,0.03891 -0.01161,0.05753 -0.0015,0.01164 -0.0039,0.02368 -0.007,0.03602 l -0.01166,-0.05189 c 0.0027,-0.01209 0.0047,-0.02389 0.0063,-0.03547 0.0027,-0.01875 0.0055,-0.03758 0.01308,-0.05835 0.01067,-0.03119 0.02508,-0.06314 0.03865,-0.09492 0.01913,-0.04459 0.03829,-0.0892 0.0595,-0.134059 0.01652,-0.03446 0.0344,-0.069 0.0497,-0.10335 0.01187,-0.02505 0.02329,-0.05016 0.03657,-0.07527 0.01106,-0.01917 0.023,-0.03833 0.03717,-0.0566 0.01418,-0.01891 0.02785,-0.03807 0.04253,-0.05671 0.01685,-0.02242 0.03214,-0.04559 0.04927,-0.06788 0.01004,-0.01278 0.02033,-0.02541 0.03093,-0.03777 -0.01419,-0.0021 -0.02824,-0.0044 -0.0421,-0.0068 -0.0045,0.004 -0.0089,0.008 -0.01347,0.01199 -0.01655,0.01394 -0.03308,0.0281 -0.04927,0.04259 -0.02358,0.02174 -0.0455,0.04462 -0.06897,0.06645 -0.02006,0.0183 -0.0395,0.03713 -0.05918,0.05578 -0.01892,0.01747 -0.03615,0.03618 -0.05239,0.05485 -0.02022,0.02474 -0.03973,0.04956 -0.05923,0.07434 -0.02599,0.03435 -0.055,0.06862 -0.08228,0.102967 -0.03536,0.04497 -0.06859,0.08989 -0.101707,0.134771 -0.02392,0.03254 -0.04848,0.06515 -0.06843,0.09711 -0.014,0.02099 -0.02205,0.04011 -0.03109,0.05945 -0.0055,0.0121 -0.01205,0.02453 -0.01921,0.03722 l 0.0078,-0.05573 c 0.0068,-0.01246 0.01282,-0.02465 0.01839,-0.03668 0.0091,-0.01947 0.01842,-0.03903 0.03273,-0.06016 0.02088,-0.03178 0.04544,-0.06399 0.06919,-0.09612 0.03341,-0.04507 0.06689,-0.09022 0.10231,-0.135373 0.02741,-0.03466 0.05613,-0.06923 0.08239,-0.103898 0.0198,-0.02521 0.03921,-0.05052 0.06032,-0.07565 0.01697,-0.0191 0.03469,-0.03813 0.05419,-0.056 0.01974,-0.01854 0.03918,-0.03736 0.05928,-0.05556 0.02344,-0.02197 0.04566,-0.04487 0.0693,-0.06667 0.0015,-0.0014 0.0031,-0.0028 0.0046,-0.0042 -0.03221,-0.0066 -0.06348,-0.01396 -0.09388,-0.02217 l -0.0352,0.05211 c -0.01996,0.01134 -0.03972,0.02415 -0.05961,0.03613 -0.02149,0.0126 -0.04304,0.02542 -0.06448,0.03865 -0.03156,0.01994 -0.0622,0.04131 -0.09372,0.06136 -0.02675,0.01676 -0.05322,0.03417 -0.07981,0.05135 -0.02533,0.01602 -0.04987,0.03357 -0.07346,0.05124 -0.03013,0.02359 -0.05961,0.04738 -0.08912,0.07111 -0.04001,0.03304 -0.08259,0.06557 -0.123714,0.09842 -0.05354,0.04307 -0.105195,0.08635 -0.156722,0.129625 -0.03728,0.03139 -0.0752,0.06279 -0.108714,0.0941 -0.0228,0.02044 -0.03947,0.03971 -0.05709,0.05906 -0.01088,0.01214 -0.02283,0.02447 -0.03547,0.037 l 0.03482,-0.0583 c 0.01218,-0.01235 0.02356,-0.02447 0.03449,-0.03651 0.01775,-0.01948 0.03576,-0.03907 0.0589,-0.05961 0.03424,-0.031 0.0719,-0.06192 0.108824,-0.09289 0.05188,-0.04344 0.103861,-0.08692 0.157543,-0.130173 0.0414,-0.03317 0.08392,-0.06613 0.124316,-0.09946 0.02999,-0.02414 0.05965,-0.04843 0.09076,-0.07231 0.02445,-0.01803 0.04955,-0.03591 0.0756,-0.05228 0.02659,-0.01705 0.05302,-0.03443 0.07976,-0.05107 0.03155,-0.0202 0.06251,-0.04153 0.09415,-0.06153 0.0217,-0.01353 0.04346,-0.02674 0.06525,-0.03941 0.0154,-0.0094 0.03081,-0.01888 0.0462,-0.02835 -0.03288,-0.009 -0.06248,-0.021 -0.09333,-0.03186 -0.02239,-0.0079 -0.04635,-0.01437 -0.06771,-0.02315 -0.03062,-0.0126 -0.05831,-0.02774 -0.08693,-0.0421 -0.01988,-0.01 -0.0412,-0.01869 -0.06016,-0.02945 -0.02984,-0.01694 -0.0569,-0.03623 -0.08457,-0.05501 -0.01508,-0.01023 -0.03151,-0.01931 -0.04598,-0.03005 -0.02512,-0.01865 -0.04783,-0.03927 -0.07122,-0.05934 -0.01505,-0.01291 -0.03128,-0.02486 -0.04565,-0.03832 -0.02263,-0.02119 -0.0431,-0.04404 -0.06416,-0.06645 -0.01288,-0.0137 -0.02687,-0.02656 -0.03919,-0.04067 -0.02405,-0.02755 -0.04609,-0.05652 -0.06821,-0.08545 -0.0078,-0.01021 -0.01645,-0.0198 -0.02403,-0.03016 -0.05825,-0.07959 -0.110138,-0.163506 -0.157762,-0.249288 -0.0031,-0.0057 -0.006,-0.01142 -0.0086,-0.01724 -6e-6,-1.6e-5 5e-6,-4.3e-5 -3e-6,-6.2e-5 -0.01027,-0.02332 -0.01586,-0.04783 -0.01697,-0.07259 -10e-7,-1.8e-5 -10e-7,-4.2e-5 -4e-6,-6.2e-5 -2.75e-4,-0.0062 -2.86e-4,-0.01236 0,-0.01856 10e-7,-1.8e-5 -3e-6,-4.2e-5 -3e-6,-6.3e-5 5.72e-4,-0.01243 0.0023,-0.02483 0.0051,-0.03717 0.0033,-0.01443 0.0082,-0.02852 0.01445,-0.04231 2.65e-4,-5.93e-4 4.34e-4,-0.0012 7.1e-4,-0.0018 0.0068,-0.0148 0.01533,-0.02923 0.0254,-0.0433 -0.354815,-0.158422 -0.845718,-0.216225 -1.241021,-0.216225 z m 3.8063765,0.341799 c -0.0063,0.01816 -0.01382,0.03639 -0.02211,0.05469 3e-5,3.3e-5 7.3e-5,6.3e-5 1.02e-4,1.17e-4 -6.89e-4,0.0015 -0.0018,0.0031 -0.0025,0.0046 -0.0093,0.02011 -0.02069,0.04025 -0.03219,0.06043 -0.01129,0.01982 -0.02373,0.03958 -0.03695,0.05939 -0.0081,0.01216 -0.0159,0.02427 -0.02469,0.0364 -0.0076,0.01049 -0.0163,0.02075 -0.02436,0.0312 -0.04062,0.05268 -0.0853,0.105053 -0.135701,0.156011 0.01801,-0.0022 0.03651,-0.0039 0.05523,-0.0053 0.0294,-0.002 0.05998,-0.0022 0.08955,-0.0039 0.02459,-0.0019 0.04982,-0.0029 0.07478,-0.0043 0.02411,-0.0017 0.04945,-0.0013 0.07478,-4.35e-4 0.03318,0.002 0.06635,0.0054 0.09946,0.0084 0.02458,0.0026 0.04924,0.0047 0.0739,0.0067 -0.01055,-0.04591 -0.02237,-0.08858 -0.03492,-0.127217 -0.03585,-0.110291 -0.0873,-0.201949 -0.154423,-0.276658 z m -4.2001805,0.03919 c 0.171061,-0.0048 0.336263,0.04229 0.462338,0.156175 0.02323,0.03034 -0.123609,0.08455 -0.157707,0.09021 -0.498777,-0.359509 -0.786987,0.176169 -1.163946,0.376724 0.07838,-0.351462 0.482984,-0.612626 0.859315,-0.623111 z m -0.199091,0.326582 c 0.550056,-0.009 0.838416,0.190934 0.821053,0.520746 -0.0018,0.182939 -0.537839,0.485334 -0.900153,0.547459 -0.373683,0.06408 -0.46581,0.03047 -0.481004,0.0097 -0.04208,-0.340666 0.127722,-1.070791 0.560104,-1.077895 z m 4.4139965,0.05386 c -0.02508,0.0013 -0.05034,0.0023 -0.07505,0.0041 -0.02942,0.0018 -0.05996,0.0019 -0.08928,0.0038 -0.01959,0.0016 -0.03878,0.0037 -0.05775,0.006 -0.01789,0.0018 -0.0366,0.0027 -0.05387,0.0051 l -0.03755,-0.01538 c -0.07105,0.06991 -0.149252,0.137242 -0.229856,0.200076 0.01096,0.0068 0.0219,0.01361 0.03285,0.02025 0.0165,0.0093 0.03309,0.01935 0.0497,0.02983 0.02427,0.01566 0.04839,0.03336 0.07264,0.04932 0.02046,0.01289 0.04087,0.02691 0.06131,0.0404 0.01996,0.01277 0.03959,0.02789 0.05885,0.04346 0.02469,0.02108 0.04856,0.04321 0.07259,0.06503 0.03252,0.03049 0.06628,0.0597 0.09941,0.08961 0.04301,0.03912 0.08495,0.07917 0.126834,0.11917 0.02982,0.02855 0.06015,0.05674 0.08824,0.08627 0.01891,0.01942 0.0343,0.03939 0.04954,0.05928 0.003,0.0039 0.006,0.0078 0.009,0.01171 0.02706,-0.108173 0.04086,-0.220211 0.04472,-0.330194 -0.02401,-0.0134 -0.04814,-0.02664 -0.07248,-0.03963 -0.03952,-0.02089 -0.07966,-0.04063 -0.118678,-0.06229 -0.02844,-0.01518 -0.05691,-0.0304 -0.08561,-0.04511 -0.02205,-0.01051 -0.04451,-0.02044 -0.06662,-0.02803 -0.02339,-0.0084 -0.04687,-0.01716 -0.07012,-0.02496 -0.02756,-0.0096 -0.05535,-0.02124 -0.08288,-0.03066 -0.01853,-0.006 -0.0369,-0.01146 -0.05512,-0.01664 -0.01704,-0.0052 -0.03445,-0.01151 -0.05118,-0.01587 l -0.05545,-0.05698 c 0.01708,0.0055 0.03425,0.01104 0.05129,0.01637 0.01843,0.0051 0.03711,0.011 0.05595,0.01724 0.0276,0.0094 0.05555,0.02091 0.0832,0.03066 0.02319,0.0077 0.04663,0.01644 0.06996,0.02469 0.02267,0.0077 0.04557,0.01765 0.06826,0.02819 0.02938,0.01459 0.05823,0.03036 0.08715,0.04582 0.03939,0.02185 0.07971,0.04219 0.119553,0.06333 0.04155,0.02225 0.08259,0.04521 0.123495,0.06832 8.58e-4,-0.04024 4.44e-4,-0.08016 -0.0012,-0.119444 -0.0017,-9e-4 -0.0034,-0.0018 -0.005,-0.0027 -0.03952,-0.02089 -0.07966,-0.04063 -0.118677,-0.06229 -0.02844,-0.01518 -0.05691,-0.0304 -0.08561,-0.04511 -0.02205,-0.01051 -0.04451,-0.02044 -0.06662,-0.02803 -0.02339,-0.0084 -0.04687,-0.0171 -0.07012,-0.02491 -0.02756,-0.0096 -0.05535,-0.02129 -0.08288,-0.03071 -0.01853,-0.006 -0.0369,-0.0114 -0.05512,-0.01659 -0.01704,-0.0052 -0.03445,-0.01156 -0.05118,-0.01593 l -0.05545,-0.05698 c 0.01708,0.0055 0.0342,0.01109 0.05124,0.01642 0.01843,0.0051 0.03717,0.01094 0.056,0.01719 0.02761,0.0094 0.05555,0.02091 0.08321,0.03065 0.02319,0.0077 0.04658,0.01644 0.0699,0.02469 0.02267,0.0077 0.04562,0.01765 0.06831,0.02819 0.02938,0.01459 0.05823,0.03036 0.08715,0.04582 0.03939,0.02185 0.07971,0.04219 0.119554,0.06333 0.01809,0.0097 0.0361,0.01953 0.05403,0.02945 -0.0031,-0.05649 -0.0085,-0.111543 -0.01571,-0.164276 -0.0252,-0.0064 -0.05041,-0.01271 -0.07571,-0.01867 -0.02414,-0.005 -0.04854,-0.0093 -0.07198,-0.01144 -0.02491,-0.0026 -0.04999,-0.0055 -0.07461,-0.0076 -0.02927,-0.0028 -0.05927,-0.0075 -0.08846,-0.01013 -0.01956,-0.0014 -0.03886,-0.0024 -0.05792,-0.0031 -0.01791,-0.001 -0.03647,-0.0031 -0.05387,-0.0033 l -0.06848,-0.04204 c 0.01801,0.0013 0.03614,0.0026 0.05408,0.0038 0.01924,6.36e-4 0.03893,0.0019 0.05885,0.0035 0.02927,0.0026 0.05938,0.0072 0.08879,0.01007 0.02452,0.002 0.04959,0.005 0.07439,0.0074 0.02402,0.0021 0.04891,0.0063 0.07368,0.01117 0.03231,0.0072 0.06437,0.01567 0.09645,0.02381 0.01365,0.0037 0.02738,0.0072 0.04111,0.01062 -0.006,-0.04024 -0.01317,-0.07901 -0.02108,-0.115885 -0.0031,-3.08e-4 -0.0062,-6.04e-4 -0.0093,-9.33e-4 -0.03256,-0.0029 -0.06511,-0.0059 -0.09771,-0.0083 -0.02471,-0.0011 -0.04963,-0.0016 -0.07319,-1e-6 z m -1.8940735,0.403055 -0.08288,0.05715 c -0.02453,0.0077 -0.05015,0.01703 -0.07516,0.02546 -0.02673,0.0087 -0.0537,0.01769 -0.08091,0.0271 -0.04044,0.01435 -0.08141,0.03045 -0.121907,0.04494 -0.03416,0.01201 -0.06864,0.02478 -0.103022,0.03728 -0.03248,0.01154 -0.06559,0.0249 -0.0981,0.03859 -0.04235,0.01859 -0.0844,0.03751 -0.126395,0.05638 -0.05765,0.02652 -0.116769,0.05188 -0.175115,0.07795 -0.07621,0.03426 -0.151187,0.06925 -0.226023,0.10417 -0.05421,0.02535 -0.108947,0.05058 -0.160226,0.07669 -0.03418,0.01684 -0.06267,0.03375 -0.09202,0.05058 -0.01826,0.01059 -0.03748,0.02118 -0.05742,0.0318 l 0.07439,-0.05474 c 0.01943,-0.01053 0.0381,-0.02099 0.05633,-0.03148 0.02954,-0.01694 0.05936,-0.03392 0.09388,-0.0508 0.05157,-0.02561 0.105692,-0.05038 0.159295,-0.07538 0.07525,-0.03503 0.150596,-0.07013 0.227063,-0.104555 0.05882,-0.02635 0.118293,-0.05218 0.176483,-0.07894 0.0427,-0.01921 0.0853,-0.03868 0.12864,-0.05737 0.03345,-0.01389 0.06726,-0.02739 0.100559,-0.03914 0.03428,-0.01236 0.06874,-0.02516 0.102802,-0.03706 0.04065,-0.01463 0.08173,-0.0306 0.12229,-0.045 0.02766,-0.0097 0.05514,-0.01901 0.08217,-0.02775 0.02502,-0.0085 0.05019,-0.01727 0.07527,-0.02589 z m 0.0647,0.03142 -0.04188,0.06197 c -0.01996,0.01134 -0.03972,0.02415 -0.05961,0.03613 -0.02149,0.0126 -0.04304,0.02542 -0.06448,0.03865 -0.03156,0.01994 -0.06226,0.04131 -0.09377,0.06136 -0.02675,0.01676 -0.05322,0.03417 -0.07981,0.05135 -0.02533,0.01602 -0.04982,0.03362 -0.07341,0.05129 -0.03013,0.02359 -0.05966,0.04732 -0.08917,0.07105 -0.04001,0.03304 -0.08259,0.06557 -0.123714,0.09842 -0.05354,0.04307 -0.105196,0.08636 -0.156721,0.129625 -0.03728,0.03139 -0.0752,0.06284 -0.108715,0.09415 -0.0228,0.02044 -0.03941,0.03965 -0.05704,0.05901 -0.01088,0.01214 -0.02283,0.02447 -0.03547,0.03701 l 0.03476,-0.05824 c 0.01219,-0.01235 0.02362,-0.02452 0.03454,-0.03657 0.01775,-0.01948 0.03571,-0.03907 0.05885,-0.05961 0.03424,-0.031 0.07195,-0.06192 0.108879,-0.09289 0.05189,-0.04344 0.103806,-0.08692 0.157488,-0.130173 0.0414,-0.03317 0.08392,-0.06613 0.124315,-0.09946 0.02999,-0.02414 0.05971,-0.04843 0.09081,-0.07231 0.02445,-0.01803 0.0495,-0.03585 0.07554,-0.05222 0.02659,-0.01705 0.05307,-0.03448 0.07981,-0.05113 0.03155,-0.0202 0.06251,-0.04153 0.09415,-0.06153 0.0217,-0.01353 0.04346,-0.02674 0.06525,-0.03941 0.01982,-0.01206 0.0396,-0.02431 0.05939,-0.03646 z m -0.113641,0.04084 -0.06793,0.06027 c -0.02317,0.0094 -0.0469,0.02034 -0.07034,0.03038 -0.02514,0.01048 -0.05045,0.0212 -0.07587,0.03235 -0.03765,0.01692 -0.07526,0.0355 -0.11293,0.05255 -0.03184,0.01419 -0.06377,0.02908 -0.09569,0.04374 -0.03023,0.0136 -0.06051,0.02896 -0.09005,0.04456 -0.03824,0.02101 -0.07604,0.04232 -0.113805,0.06355 -0.05164,0.02972 -0.105291,0.05849 -0.157817,0.08786 -0.06853,0.03855 -0.1355,0.07761 -0.202376,0.116652 -0.04843,0.02833 -0.09745,0.05663 -0.142544,0.08539 -0.03024,0.01865 -0.05447,0.03687 -0.07965,0.05507 -0.01563,0.01144 -0.03233,0.02292 -0.0497,0.03454 l 0.05983,-0.05726 c 0.01688,-0.01148 0.03293,-0.02288 0.04856,-0.03421 0.02535,-0.01832 0.05097,-0.03673 0.08156,-0.05545 0.04557,-0.02833 0.09409,-0.05609 0.141997,-0.08403 0.06728,-0.03917 0.134662,-0.07841 0.203415,-0.117144 0.05293,-0.02967 0.106722,-0.05892 0.158857,-0.0889 0.0384,-0.02161 0.07659,-0.04346 0.115831,-0.06465 0.03047,-0.01586 0.06143,-0.0314 0.09246,-0.04527 0.03185,-0.01452 0.06375,-0.02945 0.09552,-0.04352 0.03777,-0.0172 0.07561,-0.03569 0.113367,-0.05266 0.0258,-0.01144 0.05146,-0.02259 0.07691,-0.03312 0.02342,-0.01013 0.04696,-0.02047 0.0704,-0.03071 z m 1.1465935,0.626231 c 0.003,5.5e-5 0.0059,3.81e-4 0.0088,9.32e-4 0.0227,0.0044 0.03879,0.01569 0.05759,0.02907 0.03712,0.02642 0.08381,0.0661 0.156174,0.110466 l 4.7e-5,2e-6 c 4.77e-4,5e-5 0.0038,0.0015 0.0079,0.0022 0.0065,0.0011 0.016,0.0022 0.02693,0.003 0.02187,0.0014 0.0497,0.0015 0.07614,-5.5e-5 0.02645,-0.0015 0.05198,-0.0049 0.06739,-0.009 0.0029,-7.76e-4 0.0055,-0.0017 0.0076,-0.0024 a 0.03707987,0.03707987 0 0 1 0.02918,-0.02025 0.03707987,0.03707987 0 0 1 0.04084,0.0329 c 0.0024,0.02202 -0.01301,0.03981 -0.0243,0.04724 -0.01129,0.0074 -0.02223,0.01099 -0.03427,0.01418 -0.02407,0.0064 -0.05253,0.0097 -0.08206,0.01139 -0.02952,0.0017 -0.05966,0.0017 -0.08529,5.5e-5 -0.01281,-8.3e-4 -0.02442,-0.0021 -0.03487,-0.0039 -0.01045,-0.0018 -0.01875,-0.0026 -0.03131,-0.01029 -0.07877,-0.04798 -0.130741,-0.09196 -0.163127,-0.115009 -0.01423,-0.01013 -0.02223,-0.01344 -0.02513,-0.01462 -0.183441,0.227359 -0.295548,0.410452 -0.7091085,0.781201 -0.163805,0.146848 -0.437606,0.159976 -0.701389,0.233851 -0.581237,0.16278 -0.967588,0.02222 -1.216607,-0.18776 -0.240302,-0.202633 -0.353171,-0.462551 -0.409458,-0.568589 -0.01085,0.006 -0.02467,0.0096 -0.03427,0.01609 -0.04045,0.0273 -0.06561,0.05747 -0.07116,0.08709 a 0.03707987,0.03707987 0 0 1 -0.04325,0.02961 0.03707987,0.03707987 0 0 1 -0.02961,-0.0433 c 0.01093,-0.05835 0.05334,-0.10168 0.102528,-0.134881 0.02479,-0.01673 0.05374,-0.0258 0.08145,-0.03848 0.01084,-0.01229 0.02366,-0.02369 0.04237,-0.03421 0.04252,-0.02392 0.107648,-0.04456 0.202868,-0.05206 0.0054,-4.2e-4 0.0045,-0.0017 0.01648,-2.18e-4 0.0015,1.88e-4 0.0034,3.71e-4 0.0069,0.0015 0.0018,5.52e-4 0.0039,0.0013 0.007,0.003 0.003,0.0017 0.01137,0.0098 0.01139,0.0098 1.3e-5,1.7e-5 0.0077,0.02341 0.0077,0.02343 0,1.9e-5 -0.006,0.01947 -0.006,0.01949 -1.4e-5,2.2e-5 -0.005,0.0064 -0.0069,0.008 -0.0019,0.0016 -0.0033,0.0025 -0.0045,0.0033 -0.0095,0.006 -0.0093,0.0044 -0.01139,0.005 -0.0083,0.0025 -0.01763,0.0045 -0.03285,0.0082 -0.03042,0.0074 -0.07808,0.01954 -0.128639,0.03701 -0.01499,0.0052 -0.02773,0.01397 -0.04281,0.02009 0.06187,0.116602 0.167128,0.355551 0.389971,0.543463 0.233034,0.196504 0.586141,0.330662 1.148783,0.173089 0.273321,-0.07655 0.53893,-0.09846 0.671884,-0.217648 0.4110745,-0.36852 0.5152945,-0.542965 0.7029765,-0.775234 0.01279,-0.01583 0.03649,-0.02699 0.05742,-0.0266 z m -5.3155175,0.01982 c 0.246442,0.003 0.167477,0.165706 0.226571,0.314538 0.08435,0.212452 -0.0014,0.606745 -0.174896,0.627983 -0.212631,0.02603 -0.512928,-0.09574 -0.637015,-0.287716 -0.169032,-0.220899 -0.129224,-0.441216 0.213269,-0.598203 0.171621,-0.04089 0.289923,-0.05761 0.372071,-0.0566 z"
     class="ColorScheme-Text" />
</svg>
