<?xml version="1.0" encoding="UTF-8" standalone="no"?>
<svg
   width="64"
   height="64"
   version="1.1"
   viewBox="0 0 16.933 16.933"
   id="svg7"
   sodipodi:docname="pacseek 4.svg"
   inkscape:version="1.4.2 (ebf0e940d0, 2025-05-08)"
   xmlns:inkscape="http://www.inkscape.org/namespaces/inkscape"
   xmlns:sodipodi="http://sodipodi.sourceforge.net/DTD/sodipodi-0.dtd"
   xmlns="http://www.w3.org/2000/svg"
   xmlns:svg="http://www.w3.org/2000/svg"
   xmlns:rdf="http://www.w3.org/1999/02/22-rdf-syntax-ns#"
   xmlns:cc="http://creativecommons.org/ns#"
   xmlns:dc="http://purl.org/dc/elements/1.1/">
  <sodipodi:namedview
     id="namedview7"
     pagecolor="#9c4444"
     bordercolor="#000000"
     borderopacity="0.25"
     inkscape:showpageshadow="2"
     inkscape:pageopacity="0.0"
     inkscape:pagecheckerboard="0"
     inkscape:deskcolor="#d1d1d1"
     inkscape:zoom="12.3125"
     inkscape:cx="47.715736"
     inkscape:cy="37.928934"
     inkscape:window-width="2560"
     inkscape:window-height="1392"
     inkscape:window-x="0"
     inkscape:window-y="0"
     inkscape:window-maximized="1"
     inkscape:current-layer="svg7"
     showgrid="false" />
  <defs
     id="defs2">
    <style
       id="current-color-scheme"
       type="text/css">.ColorScheme-Text {color:#d8dee9} .ColorScheme-Highlight {color:#3b4252}</style>
  </defs>
  <metadata
     id="metadata2">
    <rdf:RDF>
      <cc:Work
         rdf:about="">
        <dc:format>image/svg+xml</dc:format>
        <dc:type
           rdf:resource="http://purl.org/dc/dcmitype/StillImage" />
      </cc:Work>
    </rdf:RDF>
  </metadata>
  <path
     id="path5"
     style="fill:currentColor;fill-opacity:1;stroke-width:1.03935"
     d="m 9.4052995,1.4551795 c -3.8698364,4.553e-4 -7.011599,3.1416557 -7.011599,7.0115991 0,3.8702154 3.143024,7.0110424 7.0132709,7.0110414 1.8790036,-1.7e-5 3.6782586,-0.752965 4.9963426,-2.092166 0.06253,-0.06325 -3.280476,-2.482994 -6.3238706,-4.8135426 L 9.5819688,7.4050906 C 11.257013,6.209819 12.841333,4.8464442 14.5393,3.7368333 l -0.01282,-0.069107 -0.188373,-0.186701 h -0.0022 C 13.023368,2.1831762 11.252813,1.4553305 9.4069714,1.4551795 Z M 9.1472619,3.5111202 c 0.565971,0 1.0249061,0.4589344 1.0249061,1.0249051 0,0.5659708 -0.458935,1.0243477 -1.0249061,1.0243477 -0.5659709,0 -1.0249051,-0.4583769 -1.0249051,-1.0243477 0,-0.5659707 0.4589342,-1.0249051 1.0249051,-1.0249051 z"
     class="ColorScheme-Text" />
</svg>
