<?xml version="1.0" encoding="UTF-8" standalone="no"?>
<svg
   width="64"
   height="64"
   version="1.1"
   viewBox="0 0 16.933 16.933"
   id="svg7"
   sodipodi:docname="pacseek 3.svg"
   inkscape:version="1.4.2 (ebf0e940d0, 2025-05-08)"
   xmlns:inkscape="http://www.inkscape.org/namespaces/inkscape"
   xmlns:sodipodi="http://sodipodi.sourceforge.net/DTD/sodipodi-0.dtd"
   xmlns="http://www.w3.org/2000/svg"
   xmlns:svg="http://www.w3.org/2000/svg"
   xmlns:rdf="http://www.w3.org/1999/02/22-rdf-syntax-ns#"
   xmlns:cc="http://creativecommons.org/ns#"
   xmlns:dc="http://purl.org/dc/elements/1.1/">
  <sodipodi:namedview
     id="namedview7"
     pagecolor="#9c4444"
     bordercolor="#000000"
     borderopacity="0.25"
     inkscape:showpageshadow="2"
     inkscape:pageopacity="0.0"
     inkscape:pagecheckerboard="0"
     inkscape:deskcolor="#d1d1d1"
     inkscape:zoom="8.7062522"
     inkscape:cx="17.171568"
     inkscape:cy="46.862874"
     inkscape:window-width="2560"
     inkscape:window-height="1392"
     inkscape:window-x="0"
     inkscape:window-y="0"
     inkscape:window-maximized="1"
     inkscape:current-layer="svg7"
     showgrid="false" />
  <defs
     id="defs2">
    <style
       id="current-color-scheme"
       type="text/css">.ColorScheme-Text {color:#d8dee9} .ColorScheme-Highlight {color:#3b4252}</style>
  </defs>
  <metadata
     id="metadata2">
    <rdf:RDF>
      <cc:Work
         rdf:about="">
        <dc:format>image/svg+xml</dc:format>
        <dc:type
           rdf:resource="http://purl.org/dc/dcmitype/StillImage" />
      </cc:Work>
    </rdf:RDF>
  </metadata>
  <path
     id="path5"
     style="fill:currentColor;fill-opacity:1;stroke-width:0.963705"
     d="m 9.1034399,1.4551795 c -3.8646048,4.548e-4 -7.0113206,3.1466176 -7.0113206,7.0113206 0,3.8649789 3.1483619,7.0113209 7.0133125,7.0113199 1.8787122,-1.7e-5 3.6775982,-0.754148 4.9954232,-2.093087 L 14.629729,12.84789 C 12.304405,10.968869 12.540994,11.36405 8.723471,8.5511598 14.706002,4.2314723 8.7728012,8.5492146 14.65915,4.2049531 14.711008,4.1666805 14.035119,3.4800412 14.035119,3.4800412 12.722747,2.1823255 10.951025,1.4553305 9.1054318,1.4551795 Z m 0,0.5099504 h 0.00199 c 1.7114981,1.4e-4 3.3531471,0.6750609 4.5701321,1.8784503 h 0.002 l 0.174797,0.1733034 0.01145,0.063744 C 12.289423,5.1094793 10.820412,6.3736791 9.2672813,7.481957 L 7.8743796,8.5641077 c 2.8218914,2.1609283 5.9214144,4.4044083 5.8634324,4.4630583 -1.222152,1.241732 -2.890137,1.940186 -4.6323831,1.940201 -3.5885643,1e-6 -6.5028641,-2.912335 -6.5028641,-6.5008708 0,-3.5882829 2.9126885,-6.500948 6.5008722,-6.5013702 z M 8.8644006,3.8714681 c -0.5247787,0 -0.9501811,0.4254026 -0.9501811,0.950181 0,0.5247786 0.4254024,0.9501811 0.9501811,0.9501811 0.5247787,0 0.9501811,-0.4254025 0.9501811,-0.9501811 0,-0.5247784 -0.4254024,-0.950181 -0.9501811,-0.950181 z"
     class="ColorScheme-Text"
     sodipodi:nodetypes="ssccccscssssccccccccssssssss" />
</svg>
