<?xml version='1.0' encoding='UTF-8'?>
<svg xmlns:inkscape="http://www.inkscape.org/namespaces/inkscape" xmlns:sodipodi="http://sodipodi.sourceforge.net/DTD/sodipodi-0.dtd" xmlns="http://www.w3.org/2000/svg" xmlns:svg="http://www.w3.org/2000/svg" xmlns:rdf="http://www.w3.org/1999/02/22-rdf-syntax-ns#" xmlns:cc="http://creativecommons.org/ns#" xmlns:dc="http://purl.org/dc/elements/1.1/" width="64" height="64" version="1.1" viewBox="0 0 16.933 16.933" id="svg7" sodipodi:docname="page.kramo.Sly.svg" inkscape:version="1.4 (e7c3feb100, 2024-10-09)">
  <sodipodi:namedview id="namedview7" pagecolor="#9c4444" bordercolor="#000000" borderopacity="0.25" inkscape:showpageshadow="2" inkscape:pageopacity="0.0" inkscape:pagecheckerboard="0" inkscape:deskcolor="#d1d1d1" inkscape:zoom="6.15625" inkscape:cx="15.756345" inkscape:cy="27.126904" inkscape:window-width="1226" inkscape:window-height="669" inkscape:window-x="35" inkscape:window-y="32" inkscape:window-maximized="0" inkscape:current-layer="svg7" showgrid="false"/>
  <defs id="defs2">
    <style id="current-color-scheme" type="text/css">.ColorScheme-Text {color:#d8dee9} .ColorScheme-Highlight {color:#3b4252}</style></defs>
  <metadata id="metadata2">
    <rdf:RDF>
      <cc:Work rdf:about="">
        <dc:format>image/svg+xml</dc:format>
        <dc:type rdf:resource="http://purl.org/dc/dcmitype/StillImage"/>
      </cc:Work>
    </rdf:RDF>
  </metadata>
  <path id="path17" style="fill:currentColor;stroke:none;stroke-width:0.0547395;stroke-dasharray:none" d="M 6.2361317,4.5202224 C 6.0166448,4.5023824 5.7801904,4.5990066 5.608621,4.7896138 5.5449098,4.8603938 5.3314349,5.0849397 5.1342248,5.2883546 4.9370141,5.4917696 4.6096432,5.8302376 4.4067738,6.040791 4.2039042,6.2513437 3.8773768,6.5900062 3.6809243,6.7932267 3.4844723,6.9964475 3.0041311,7.495419 2.613612,7.9018603 2.2230928,8.3083018 1.7489387,8.8007062 1.5597533,8.9964002 1.3705677,9.1920941 1.0967525,9.4756187 0.95146193,9.6261531 0.64156097,9.9472371 0.57572449,10.06935 0.57572449,10.323813 c 0,0.294026 0.1440288,0.530143 0.39463664,0.647051 l 0.13773917,0.06439 1.6413292,-0.0067 1.6413289,-0.0067 2.0734423,-2.1484563 C 7.6044829,7.6917086 8.5377925,6.7148189 8.5382847,6.7025778 8.5387762,6.6903352 8.0942517,6.2195424 7.550412,5.6564066 6.8621426,4.9437165 6.5266952,4.6155485 6.4469034,4.5769222 6.3804611,4.5447571 6.3092939,4.5261733 6.2361317,4.5202285 Z m 4.1702673,0.9872325 c -0.180503,0.00143 -0.287717,0.092681 -1.1156788,0.9481523 -2.5081056,2.591444 -4.7100691,4.8904808 -4.7417234,4.9508938 -0.019899,0.03797 -0.04325,0.128816 -0.05189,0.201803 -0.027688,0.233777 0.12556,0.484654 0.351073,0.574977 0.07175,0.02874 10.9348562,0.04069 11.0773662,0.01216 0.04707,-0.0094 0.140768,-0.06587 0.20821,-0.125248 0.205072,-0.180512 0.251793,-0.462809 0.113712,-0.687731 -0.03213,-0.05233 -1.292964,-1.375814 -2.801855,-2.9411777 C 10.599025,5.4881512 10.616986,5.5057624 10.406404,5.5074566 Z" class="ColorScheme-Text"/>
</svg>
