<?xml version="1.0" encoding="UTF-8" standalone="no"?>
<svg
   width="64"
   height="64"
   version="1.1"
   viewBox="0 0 16.933 16.933"
   id="svg7"
   sodipodi:docname="template.svg"
   inkscape:version="1.4.2 (ebf0e940d0, 2025-05-08)"
   xmlns:inkscape="http://www.inkscape.org/namespaces/inkscape"
   xmlns:sodipodi="http://sodipodi.sourceforge.net/DTD/sodipodi-0.dtd"
   xmlns="http://www.w3.org/2000/svg"
   xmlns:svg="http://www.w3.org/2000/svg"
   xmlns:rdf="http://www.w3.org/1999/02/22-rdf-syntax-ns#"
   xmlns:cc="http://creativecommons.org/ns#"
   xmlns:dc="http://purl.org/dc/elements/1.1/">
  <sodipodi:namedview
     id="namedview7"
     pagecolor="#9c4444"
     bordercolor="#000000"
     borderopacity="0.25"
     inkscape:showpageshadow="2"
     inkscape:pageopacity="0.0"
     inkscape:pagecheckerboard="0"
     inkscape:deskcolor="#d1d1d1"
     inkscape:zoom="12.3125"
     inkscape:cx="38.822335"
     inkscape:cy="35.329949"
     inkscape:window-width="2560"
     inkscape:window-height="1392"
     inkscape:window-x="0"
     inkscape:window-y="0"
     inkscape:window-maximized="1"
     inkscape:current-layer="svg7"
     showgrid="false" />
  <defs
     id="defs2">
    <style
       id="current-color-scheme"
       type="text/css">.ColorScheme-Text {color:#d8dee9} .ColorScheme-Highlight {color:#3b4252}</style>
  </defs>
  <metadata
     id="metadata2">
    <rdf:RDF>
      <cc:Work
         rdf:about="">
        <dc:format>image/svg+xml</dc:format>
        <dc:type
           rdf:resource="http://purl.org/dc/dcmitype/StillImage" />
      </cc:Work>
    </rdf:RDF>
  </metadata>
  <path
     id="path5"
     class="ColorScheme-Text"
     style="fill:currentColor;fill-opacity:1;stroke-width:0.500808"
     d="M 2.4566492 1.4551797 L 2.4566492 15.47782 L 3.9593703 15.47782 L 3.9593703 13.975616 L 12.97363 13.975616 L 12.97363 15.47782 L 14.476351 15.47782 L 14.476351 1.4551797 L 2.4566492 1.4551797 z M 5.9623094 2.4566492 L 10.970691 2.4566492 A 2.5040427 2.5040427 0 0 1 13.474364 4.9608398 L 13.474364 7.3492775 A 1.5024256 1.5024256 0 0 0 12.978797 8.3636659 A 1.0016171 1.0016171 0 0 0 12.97363 8.4665 A 1.0016171 1.0016171 0 0 0 12.975697 8.5243765 A 1.5024256 1.5024256 0 0 0 13.474364 9.584756 L 13.474364 11.471425 L 11.97216 12.97363 L 4.9608398 12.97363 L 3.4586355 11.471425 L 3.4586355 9.5837225 A 1.5024256 1.5024256 0 0 0 3.9542028 8.5693341 A 1.5024256 1.5024256 0 0 0 3.9542028 8.5662336 A 1.0016171 1.0016171 0 0 0 3.9593703 8.4665 A 1.0016171 1.0016171 0 0 0 3.9573033 8.4086235 A 1.5024256 1.5024256 0 0 0 3.4586355 7.3487608 L 3.4586355 4.9608398 A 2.5040427 2.5040427 0 0 1 5.9623094 2.4566492 z M 8.3342109 4.1753735 C 6.457638 4.2439047 4.9612905 5.7705882 4.8946953 7.686718 L 7.1901172 7.686718 A 1.2827899 1.3085193 0 0 1 8.3342109 6.5188536 L 8.3342109 4.1753735 z M 8.5982723 4.1753735 L 8.5982723 6.5188536 A 1.2827899 1.3085193 0 0 1 9.7418492 7.686718 L 12.038305 7.686718 C 11.97171 5.7705878 10.474844 4.243905 8.5982723 4.1753735 z M 8.4665 6.6449416 C 8.0716593 6.6446807 7.7923714 6.790067 7.6024871 7.007703 C 7.4126027 7.2253388 7.3141382 7.5207641 7.3141382 7.8184903 C 7.3141382 8.1162163 7.4125511 8.4118537 7.6024871 8.6297943 C 7.7924186 8.8477347 8.0718314 8.9943615 8.4665 8.9946227 C 8.8603985 8.9943619 9.139287 8.848757 9.3289627 8.6308278 C 9.5186393 8.4128985 9.616278 8.1162545 9.616278 7.8184903 C 9.616278 7.5207261 9.5185953 7.2253277 9.3289627 7.007703 C 9.1393332 6.790078 8.8605706 6.644681 8.4665 6.6449416 z M 8.4665 6.9596449 C 9.3443117 6.9589233 9.5640508 8.0435891 9.0059913 8.4990555 C 8.8671477 8.6123732 8.6849489 8.6802551 8.4665 8.6804362 C 8.248104 8.6802551 8.0661737 8.6123989 7.9275254 8.4990555 C 7.3703477 8.0435681 7.5897076 6.9589172 8.4665 6.9596449 z M 8.4665 7.2381754 A 0.57019678 0.58163345 0 0 0 8.4665 8.401389 A 0.57019678 0.58163345 0 0 0 8.4665 7.2381754 z M 8.4665 7.3839001 L 8.4670168 7.3839001 A 0.4275967 0.43617321 0 0 1 8.5223094 7.3880341 A 0.42759689 0.43617336 0 0 1 8.5558985 7.3942351 A 0.42759689 0.43617336 0 0 1 8.5796692 7.3988859 A 0.4275967 0.43617321 0 0 1 8.5915545 7.40302 A 0.4275967 0.43617321 0 0 1 8.6370289 7.4200728 A 0.4275967 0.43617321 0 0 1 8.6396126 7.4211064 A 0.4275967 0.43617321 0 0 1 8.685087 7.4453938 A 0.4275967 0.43617321 0 0 1 8.7021399 7.4572791 A 0.4275967 0.43617321 0 0 1 8.7321116 7.4784661 A 0.42759689 0.43617336 0 0 1 8.7486478 7.4929352 A 0.4275967 0.43617321 0 0 1 8.7750022 7.5177394 A 0.42759689 0.43617336 0 0 1 8.7894713 7.535309 A 0.4275967 0.43617321 0 0 1 8.8116918 7.5632137 A 0.42759689 0.43617336 0 0 1 8.8235771 7.5807834 A 0.4275967 0.43617321 0 0 1 8.8416635 7.6117886 A 0.42759689 0.43617336 0 0 1 8.8530321 7.6360761 A 0.4275967 0.43617321 0 0 1 8.8644007 7.6619138 A 0.42759689 0.43617336 0 0 1 8.8752525 7.6944693 A 0.4275967 0.43617321 0 0 1 8.8809368 7.716173 A 0.42759689 0.43617336 0 0 1 8.8871379 7.747695 A 0.4275967 0.43617321 0 0 1 8.8912719 7.7755997 A 0.42759689 0.43617336 0 0 1 8.8933389 7.808672 A 0.4275967 0.43617321 0 0 1 8.8938557 7.8200406 A 0.4275967 0.43617321 0 0 1 8.8933389 7.8314091 A 0.42759689 0.43617336 0 0 1 8.8912719 7.8629312 A 0.4275967 0.43617321 0 0 1 8.8871379 7.8923861 A 0.42759689 0.43617336 0 0 1 8.8809368 7.9228746 A 0.4275967 0.43617321 0 0 1 8.8737023 7.9481956 A 0.42759689 0.43617336 0 0 1 8.8654342 7.9750668 A 0.4275967 0.43617321 0 0 1 8.8525154 8.0055553 A 0.42759689 0.43617336 0 0 1 8.8416635 8.0277757 A 0.4275967 0.43617321 0 0 1 8.8251274 8.0556805 A 0.42759689 0.43617336 0 0 1 8.8096248 8.0789344 A 0.4275967 0.43617321 0 0 1 8.7920551 8.1006381 A 0.42759689 0.43617336 0 0 1 8.7744855 8.121825 A 0.4275967 0.43617321 0 0 1 8.7543321 8.1409449 A 0.42759689 0.43617336 0 0 1 8.7279776 8.1641988 A 0.42759689 0.43617336 0 0 1 8.7150587 8.1729836 A 0.42759689 0.43617336 0 0 1 8.685087 8.1946873 A 0.4275967 0.43617321 0 0 1 8.6561488 8.2096732 A 0.42759689 0.43617336 0 0 1 8.6323781 8.2220753 A 0.42759689 0.43617336 0 0 1 8.6080906 8.2303434 A 0.4275967 0.43617321 0 0 1 8.5796692 8.2406784 A 0.42759689 0.43617336 0 0 1 8.5564152 8.245846 A 0.42759689 0.43617336 0 0 1 8.5223094 8.252047 A 0.4275967 0.43617321 0 0 1 8.4665 8.2561811 A 0.4275967 0.43617321 0 0 1 8.4106906 8.252047 A 0.42759689 0.43617336 0 0 1 8.3771015 8.245846 A 0.4275967 0.43617321 0 0 1 8.3533308 8.2406784 A 0.42759689 0.43617336 0 0 1 8.3249094 8.2308601 A 0.4275967 0.43617321 0 0 1 8.3006219 8.2220753 A 0.42759689 0.43617336 0 0 1 8.2768512 8.2096732 A 0.4275967 0.43617321 0 0 1 8.247913 8.1946873 A 0.42759689 0.43617336 0 0 1 8.2179413 8.1729836 A 0.4275967 0.43617321 0 0 1 8.2055392 8.1641988 A 0.42759689 0.43617336 0 0 1 8.1786679 8.1409449 A 0.4275967 0.43617321 0 0 1 8.1585145 8.121825 A 0.42759689 0.43617336 0 0 1 8.1409449 8.1006381 A 0.4275967 0.43617321 0 0 1 8.123892 8.0789344 A 0.42759689 0.43617336 0 0 1 8.1083894 8.0556805 A 0.4275967 0.43617321 0 0 1 8.0913365 8.0282925 A 0.42759689 0.43617336 0 0 1 8.0804846 8.0055553 A 0.4275967 0.43617321 0 0 1 8.0680826 7.9750668 A 0.42759689 0.43617336 0 0 1 8.0592977 7.9481956 A 0.4275967 0.43617321 0 0 1 8.0520632 7.9228746 A 0.42759689 0.43617336 0 0 1 8.0458621 7.8923861 A 0.4275967 0.43617321 0 0 1 8.0417281 7.8629312 A 0.42759689 0.43617336 0 0 1 8.0401778 7.8314091 A 0.4275967 0.43617321 0 0 1 8.0391443 7.8200406 A 0.4275967 0.43617321 0 0 1 8.0401778 7.808672 A 0.42759689 0.43617336 0 0 1 8.0417281 7.7761165 A 0.4275967 0.43617321 0 0 1 8.0458621 7.747695 A 0.42759689 0.43617336 0 0 1 8.0520632 7.7166897 A 0.4275967 0.43617321 0 0 1 8.0577475 7.6944693 A 0.42759689 0.43617336 0 0 1 8.0685993 7.6624305 A 0.4275967 0.43617321 0 0 1 8.0799679 7.6360761 A 0.42759689 0.43617336 0 0 1 8.0918532 7.6117886 A 0.4275967 0.43617321 0 0 1 8.1099396 7.5807834 A 0.42759689 0.43617336 0 0 1 8.121825 7.5632137 A 0.4275967 0.43617321 0 0 1 8.1435287 7.535309 A 0.42759689 0.43617336 0 0 1 8.1585145 7.5177394 A 0.4275967 0.43617321 0 0 1 8.1843522 7.4929352 A 0.42759689 0.43617336 0 0 1 8.2014051 7.4784661 A 0.4275967 0.43617321 0 0 1 8.2308601 7.4572791 A 0.42759689 0.43617336 0 0 1 8.247913 7.4453938 A 0.4275967 0.43617321 0 0 1 8.2939041 7.4216231 A 0.42759689 0.43617336 0 0 1 8.2959711 7.4200728 A 0.4275967 0.43617321 0 0 1 8.3414455 7.40302 A 0.42759689 0.43617336 0 0 1 8.3533308 7.3988859 A 0.4275967 0.43617321 0 0 1 8.3771015 7.3942351 A 0.42759689 0.43617336 0 0 1 8.4112073 7.3880341 A 0.42759689 0.43617336 0 0 1 8.4665 7.3839001 z M 4.8946953 7.9538799 C 4.9280033 8.9087714 5.3180714 9.7311201 5.9344047 10.326298 C 6.5506059 10.921354 7.3933212 11.287612 8.3342109 11.318983 L 8.3342109 9.1217443 A 1.2827899 1.3085193 0 0 1 7.1901172 7.9538799 L 4.8946953 7.9538799 z M 9.7418492 7.9538799 A 1.2827899 1.3085193 0 0 1 8.5982723 9.1217443 L 8.5982723 11.318983 C 9.5391611 11.287613 10.382393 10.921354 10.998595 10.326298 C 11.614928 9.7311191 12.005001 8.9087714 12.038305 7.9538799 L 9.7418492 7.9538799 z M 4.9608398 14.476351 L 4.9608398 14.977086 L 9.4679695 14.977086 L 9.4679695 14.476351 L 4.9608398 14.476351 z M 9.9687043 14.476351 L 9.9687043 14.977086 L 11.97216 14.977086 L 11.97216 14.476351 L 9.9687043 14.476351 z " />
</svg>
