<?xml version="1.0" encoding="UTF-8" standalone="no"?>
<svg
   id="svg3297"
   height="64"
   width="64"
   version="1.0"
   sodipodi:docname="phpstorm.svg"
   inkscape:version="1.4.3 (0d15f75042, 2025-12-25)"
   xmlns:inkscape="http://www.inkscape.org/namespaces/inkscape"
   xmlns:sodipodi="http://sodipodi.sourceforge.net/DTD/sodipodi-0.dtd"
   xmlns="http://www.w3.org/2000/svg"
   xmlns:svg="http://www.w3.org/2000/svg"
   xmlns:rdf="http://www.w3.org/1999/02/22-rdf-syntax-ns#"
   xmlns:cc="http://creativecommons.org/ns#"
   xmlns:dc="http://purl.org/dc/elements/1.1/">
  <sodipodi:namedview
     id="namedview1"
     pagecolor="#9c4444"
     bordercolor="#000000"
     borderopacity="0.25"
     inkscape:showpageshadow="2"
     inkscape:pageopacity="0.0"
     inkscape:pagecheckerboard="0"
     inkscape:deskcolor="#d1d1d1"
     inkscape:zoom="3.2734375"
     inkscape:cx="40.782816"
     inkscape:cy="33.298329"
     inkscape:window-width="2560"
     inkscape:window-height="1388"
     inkscape:window-x="0"
     inkscape:window-y="0"
     inkscape:window-maximized="1"
     inkscape:current-layer="svg3297" />
  <metadata
     id="metadata58">
    <rdf:RDF>
      <cc:Work
         rdf:about="">
        <dc:format>image/svg+xml</dc:format>
        <dc:type
           rdf:resource="http://purl.org/dc/dcmitype/StillImage" />
      </cc:Work>
    </rdf:RDF>
  </metadata>
  <defs
     id="defs3299">
    <style
       id="current-color-scheme"
       type="text/css">.ColorScheme-Text {color:#d8dee9} .ColorScheme-Highlight {color:#3b4252}</style>
  </defs>
  <path
     id="path5"
     style="fill:currentColor;fill-opacity:1;stroke-width:0.82815"
     d="m 39.46629,5.5 c -0.15942,0 -0.31907,0.0118 -0.47716,0.03397 L 8.394499,9.9044 C 6.73314,10.141455 5.49921,11.564647 5.49921,13.242876 v 12.980276 2.345345 c 0,0.666412 0.197688,1.316895 0.567736,1.871424 l 5.158142,7.729936 -0.09543,0.111606 c -0.523747,0.611423 -0.811975,1.389793 -0.811975,2.19492 v 9.834278 c 0,1.862757 1.50968,3.372445 3.372446,3.372445 h 7.888449 l 2.212712,3.315834 c 0.625419,0.937631 1.679298,1.499404 2.806327,1.499404 L 55.12834,58.5 c 1.86276,-3.9e-5 3.37245,-1.509728 3.37245,-3.372485 V 26.996306 c 0,-1.349138 -0.80476,-2.569284 -2.0445,-3.100708 l -4.49821,-1.928036 0.91226,-1.064302 c 0.52422,-0.611423 0.81198,-1.390913 0.81198,-2.196537 v -1.174291 c 0,-0.0031 0,-0.0051 0,-0.0081 V 8.872461 c 0,-0.465692 -0.0962,-0.909874 -0.26688,-1.313394 C 53.24479,7.156342 52.9971,6.792974 52.69242,6.488295 52.61642,6.412285 52.53761,6.338441 52.45465,6.269936 h -0.002 C 52.36975,6.201486 52.28484,6.136237 52.19551,6.075838 h -0.002 C 52.10421,6.015488 52.01209,5.959356 51.91695,5.90762 h -0.002 C 51.81985,5.85593 51.72262,5.8078 51.62222,5.765282 h -0.002 c -0.10037,-0.04247 -0.20381,-0.08048 -0.3089,-0.113224 h -0.002 c -0.10506,-0.03269 -0.21261,-0.0617 -0.32184,-0.08411 h -0.002 c -0.1092,-0.02236 -0.22036,-0.03863 -0.33317,-0.05015 h -0.002 c -0.11279,-0.01146 -0.22703,-0.01774 -0.34287,-0.01779 h -0.002 z M 15.437006,15.437796 H 48.56299 V 48.563783 H 15.437006 Z m 19.07656,4.205447 c -0.839164,0 -1.59529,0.152536 -2.266092,0.459364 -0.66575,0.307327 -1.188879,0.734306 -1.570573,1.28428 -0.376146,0.549974 -0.562883,1.178117 -0.562883,1.884363 0,0.572749 0.11459,1.093836 0.34614,1.562486 0.231468,0.463019 0.561662,0.848973 0.989899,1.161351 0.433701,0.306829 0.942474,0.516234 1.526902,0.625964 l 2.490917,0.477157 c 0.410514,0.08141 0.73085,0.254909 0.962401,0.520828 0.237099,0.260288 0.355848,0.584863 0.355848,0.972105 0,0.312462 -0.09525,0.589858 -0.2863,0.833003 -0.190557,0.243145 -0.456137,0.433624 -0.797417,0.572588 -0.335649,0.133415 -0.718635,0.198949 -1.146789,0.198949 -0.450927,0 -0.856306,-0.07418 -1.21473,-0.224829 -0.353288,-0.15064 -0.632809,-0.358428 -0.841088,-0.624347 -0.202234,-0.271964 -0.304087,-0.581108 -0.304087,-0.928434 h -2.377695 c 0.01168,0.741111 0.219465,1.399881 0.624347,1.978178 0.404966,0.572831 0.963915,1.018029 1.675709,1.336038 0.711714,0.31801 1.512319,0.477157 2.403574,0.477157 0.896306,0 1.699868,-0.157613 2.411663,-0.475539 0.711794,-0.31801 1.266588,-0.760751 1.666008,-1.327951 0.39933,-0.572748 0.60008,-1.224978 0.60008,-1.953915 0,-0.589974 -0.1274,-1.132536 -0.38172,-1.63042 -0.25425,-0.503515 -0.616678,-0.923247 -1.085328,-1.2584 -0.46253,-0.335235 -0.996927,-0.558371 -1.60454,-0.668018 l -2.413286,-0.451277 c -0.382108,-0.07486 -0.68064,-0.225855 -0.894465,-0.451277 -0.214325,-0.231054 -0.32026,-0.515643 -0.32026,-0.850795 0,-0.289604 0.087,-0.543163 0.260414,-0.76345 0.173415,-0.226003 0.417024,-0.403579 0.729485,-0.530534 0.312378,-0.126872 0.656457,-0.190862 1.049746,-0.190862 0.393371,0 0.745367,0.06553 1.057828,0.19895 0.312378,0.126955 0.55607,0.307567 0.729484,0.538621 0.17946,0.231054 0.268503,0.49713 0.268503,0.797417 h 2.369609 c -0.006,-0.694072 -0.20272,-1.306326 -0.590379,-1.839074 -0.381694,-0.538381 -0.909822,-0.95803 -1.586752,-1.2584 -0.671298,-0.300784 -1.435009,-0.451277 -2.274173,-0.451277 z M 19.57452,19.851898 v 12.148891 h 2.36799 v -4.590408 h 2.777212 c 0.867487,0 1.628606,-0.156691 2.282265,-0.469069 0.659704,-0.318009 1.165938,-0.763207 1.518813,-1.336038 0.358423,-0.572748 0.538621,-1.249725 0.538621,-1.99597 0,-0.746162 -0.177659,-1.402891 -0.530533,-1.970091 -0.347326,-0.567199 -0.844825,-1.005868 -1.492935,-1.318246 -0.64811,-0.312461 -1.396334,-0.469069 -2.246679,-0.469069 z m 2.366373,1.97009 h 2.691486 c 0.399334,0 0.746504,0.07581 1.041657,0.226448 0.300866,0.144098 0.531664,0.351886 0.693899,0.624347 0.162234,0.265422 0.242621,0.589845 0.242622,0.954313 0,0.364469 -0.08088,0.686422 -0.242622,0.964018 -0.161821,0.272378 -0.393033,0.481794 -0.693899,0.632435 -0.295153,0.144595 -0.642323,0.216742 -1.041657,0.216742 h -2.691486 z m -2.367991,20.118215 v 2.484449 h 13.250395 v -2.484449 z"
     class="ColorScheme-Text" />
</svg>
