<?xml version='1.0' encoding='UTF-8'?>
<svg xmlns:inkscape="http://www.inkscape.org/namespaces/inkscape" xmlns:sodipodi="http://sodipodi.sourceforge.net/DTD/sodipodi-0.dtd" xmlns="http://www.w3.org/2000/svg" xmlns:svg="http://www.w3.org/2000/svg" xmlns:rdf="http://www.w3.org/1999/02/22-rdf-syntax-ns#" xmlns:cc="http://creativecommons.org/ns#" xmlns:dc="http://purl.org/dc/elements/1.1/" width="64" height="64" version="1.1" viewBox="0 0 16.933 16.933" id="svg7" sodipodi:docname="pidgin.svg" inkscape:version="1.4 (e7c3feb100, 2024-10-09)">
  <sodipodi:namedview id="namedview7" pagecolor="#9c4444" bordercolor="#000000" borderopacity="0.25" inkscape:showpageshadow="2" inkscape:pageopacity="0.0" inkscape:pagecheckerboard="0" inkscape:deskcolor="#d1d1d1" inkscape:zoom="6.15625" inkscape:cx="15.837563" inkscape:cy="29.725888" inkscape:window-width="1183" inkscape:window-height="941" inkscape:window-x="35" inkscape:window-y="32" inkscape:window-maximized="0" inkscape:current-layer="svg7" showgrid="false"/>
  <defs id="defs2">
    <style id="current-color-scheme" type="text/css">.ColorScheme-Text {color:#d8dee9} .ColorScheme-Highlight {color:#3b4252}</style></defs>
  <metadata id="metadata2">
    <rdf:RDF>
      <cc:Work rdf:about="">
        <dc:format>image/svg+xml</dc:format>
        <dc:type rdf:resource="http://purl.org/dc/dcmitype/StillImage"/>
      </cc:Work>
    </rdf:RDF>
  </metadata>
  <path id="path5854" style="fill:currentColor;fill-opacity:1;stroke:none;stroke-width:0.189415;stroke-linecap:square" d="m 11.560222,1.8176772 c -0.09164,3.16e-5 -0.212017,0.072365 -0.445128,0.2525188 -0.216018,0.1669435 -0.505401,0.4195023 -0.642891,0.5617255 l -0.249942,0.2589607 0.420649,0.6113272 c 0.37646,0.5465062 1.02618,1.714062 1.02618,1.8442888 0,0.027609 -0.178676,0.1080644 -0.397459,0.1790826 C 10.582789,5.749189 9.9614075,6.2147815 9.5465157,6.8178067 8.949951,7.6848829 8.8489391,8.9382189 9.2985058,9.8989223 9.697739,10.752063 10.342868,11.327821 11.251662,11.642075 c 0.480417,0.166136 1.324048,0.173508 1.862325,0.01615 0.821674,-0.24027 1.614079,-0.920957 1.985365,-1.7057901 0.288069,-0.6089386 0.371532,-1.2527897 0.28344,-2.1773343 C 15.261381,6.5007773 14.834084,5.4515285 13.958509,4.2778029 13.52087,3.6911378 11.888736,1.971125 11.645257,1.8402236 c -0.02723,-0.01463 -0.05449,-0.022557 -0.08503,-0.022547 z M 5.1718852,5.4199347 C 5.0682934,5.4194297 4.9533795,5.4223477 4.8233838,5.4283137 3.9152795,5.4700039 3.3281305,5.737605 2.7020972,6.3939359 1.9303121,7.203072 1.6769724,8.0751555 1.8169931,9.4396217 1.9980403,11.203874 2.7310924,12.527365 4.548963,14.3734 c 0.5642401,0.572983 1.0620654,1.04164 1.1067019,1.04164 0.1570901,0 1.3200491,-1.068041 1.2632384,-1.160168 -0.030386,-0.04928 -0.2377662,-0.362343 -0.4612334,-0.695716 -0.476865,-0.711392 -0.9557963,-1.670698 -0.8883248,-1.77987 0.026005,-0.04209 0.1089517,-0.07667 0.1842354,-0.07667 0.075284,0 0.3757223,-0.119491 0.667371,-0.265404 0.6551116,-0.32773 1.1577458,-0.847966 1.4835477,-1.5357179 0.2235762,-0.4719585 0.2415679,-0.5680388 0.2415679,-1.3051096 0,-0.736003 -0.017822,-0.8336784 -0.2396352,-1.3018889 C 7.4988796,6.4342469 6.799418,5.8110927 5.9223558,5.5275131 5.6940922,5.4537084 5.4826598,5.42145 5.1718852,5.4199347 Z" class="ColorScheme-Text"/>
  </svg>
