<?xml version='1.0' encoding='UTF-8'?>
<svg xmlns:inkscape="http://www.inkscape.org/namespaces/inkscape" xmlns:sodipodi="http://sodipodi.sourceforge.net/DTD/sodipodi-0.dtd" xmlns="http://www.w3.org/2000/svg" xmlns:svg="http://www.w3.org/2000/svg" xmlns:rdf="http://www.w3.org/1999/02/22-rdf-syntax-ns#" xmlns:cc="http://creativecommons.org/ns#" xmlns:dc="http://purl.org/dc/elements/1.1/" width="64" height="64" version="1.1" viewBox="0 0 16.933 16.933" id="svg7" sodipodi:docname="pinta.svg" inkscape:version="1.4 (e7c3feb100, 2024-10-09)">
  <sodipodi:namedview id="namedview7" pagecolor="#9c4444" bordercolor="#000000" borderopacity="0.25" inkscape:showpageshadow="2" inkscape:pageopacity="0.0" inkscape:pagecheckerboard="0" inkscape:deskcolor="#d1d1d1" inkscape:zoom="6.15625" inkscape:cx="15.837563" inkscape:cy="27.28934" inkscape:window-width="1183" inkscape:window-height="941" inkscape:window-x="35" inkscape:window-y="32" inkscape:window-maximized="0" inkscape:current-layer="svg7" showgrid="false"/>
  <defs id="defs2">
    <style id="current-color-scheme" type="text/css">.ColorScheme-Text {color:#d8dee9} .ColorScheme-Highlight {color:#3b4252}</style></defs>
  <metadata id="metadata2">
    <rdf:RDF>
      <cc:Work rdf:about="">
        <dc:format>image/svg+xml</dc:format>
        <dc:type rdf:resource="http://purl.org/dc/dcmitype/StillImage"/>
      </cc:Work>
    </rdf:RDF>
  </metadata>
  <path style="fill:currentColor;fill-opacity:1;stroke-width:0.0332646" d="M 7.8030084,15.452047 C 6.3583631,15.305268 5.051721,14.752416 3.9536967,13.823365 3.8500225,13.735646 3.6280109,13.522115 3.4603378,13.34885 1.9476256,11.785699 1.2733414,9.5997387 1.6265235,7.4038192 1.7652942,6.5410091 2.0744272,5.7026217 2.5395999,4.9275028 3.0342138,4.1033262 3.8650948,3.2505828 4.6954843,2.7148909 5.6455475,2.1019971 6.718696,1.7389103 7.8848769,1.6357994 8.2538426,1.6031764 9.0838265,1.6215684 9.4423196,1.6703264 10.76943,1.850796 11.931959,2.3138708 12.924192,3.0572726 c 1.17743,0.8821546 1.996349,2.0830333 2.313775,3.3929668 0.122759,0.506604 0.146661,0.7155094 0.147136,1.2862231 3.99e-4,0.4587115 -0.0057,0.5516927 -0.05117,0.7761686 -0.295331,1.4601116 -1.264116,2.5863939 -2.612514,3.0372249 -0.491887,0.164464 -0.658844,0.182552 -1.782225,0.193178 -0.9698977,0.0093 -0.9899363,0.01026 -1.1670682,0.06363 -0.4237383,0.12768 -0.7055173,0.441395 -0.7620903,0.848451 -0.040459,0.291116 0.057948,0.584661 0.310023,0.924783 0.169708,0.228988 0.1827895,0.269329 0.1944885,0.599796 0.00781,0.221086 0.00174,0.323086 -0.02583,0.43244 -0.090203,0.357842 -0.2990858,0.623964 -0.6040552,0.769582 l -0.1741787,0.08318 -0.3548195,0.0036 c -0.1951516,0.0021 -0.4438554,-0.0053 -0.5526756,-0.01634 z M 3.8973347,8.5230283 C 4.2435829,8.4328429 4.5317575,8.178127 4.6651901,7.8443247 4.7377321,7.66285 4.7480016,7.3827767 4.6892118,7.1892193 4.4857678,6.519426 3.7337415,6.2049431 3.1405507,6.5415984 2.87111,6.6945156 2.648087,7.0130861 2.5954838,7.3201854 2.4732112,8.0340034 3.1992764,8.7048501 3.8973364,8.5230283 Z m 9.0402643,0.011666 C 13.131457,8.4985183 13.329027,8.3883487 13.49101,8.2261052 13.832613,7.8839545 13.910362,7.4366854 13.701651,7.0143834 13.429486,6.4636946 12.793257,6.250516 12.248241,6.5273929 12.064568,6.6207 11.864034,6.8341639 11.765872,7.0408597 c -0.0722,0.1520114 -0.08318,0.1976515 -0.09105,0.3774286 -0.007,0.1630884 5.1e-4,0.2356471 0.03775,0.3582562 0.15998,0.5266956 0.694084,0.857245 1.225033,0.7581534 z M 6.6163666,5.3060904 C 7.0084132,5.1910744 7.3193552,4.8417948 7.3921062,4.4347059 7.4916392,3.8777542 7.0700359,3.3062921 6.487334,3.2083321 5.9797313,3.1229978 5.4417583,3.4724 5.2925387,3.9843269 c -0.073748,0.253004 -0.02847,0.6005706 0.1070289,0.8215687 0.070095,0.1143211 0.233476,0.2852421 0.3480432,0.364098 0.2321422,0.1597824 0.594518,0.2165511 0.8687558,0.1360968 z m 3.9051684,-0.069315 c 0.240487,-0.1191647 0.407986,-0.2893304 0.522822,-0.5311446 0.07176,-0.1511081 0.08281,-0.1970247 0.09066,-0.3765971 0.0071,-0.1630865 -4.72e-4,-0.2356462 -0.03775,-0.3582547 -0.154144,-0.507501 -0.681919,-0.8479519 -1.1816608,-0.7622553 -0.581716,0.099753 -1.0020504,0.6605322 -0.910269,1.2144158 0.050667,0.3057664 0.2658655,0.6232504 0.5256502,0.7754937 0.1866047,0.1093564 0.3315514,0.1436457 0.5792006,0.1370147 0.213104,-0.00572 0.233711,-0.010678 0.411346,-0.098673 z" id="path7" class="ColorScheme-Text"/>
</svg>
