<?xml version="1.0" encoding="UTF-8" standalone="no"?>
<svg
   width="64"
   height="64"
   version="1.1"
   viewBox="0 0 16.933 16.933"
   id="svg7"
   sodipodi:docname="polychromatic.svg"
   inkscape:version="1.4.2 (ebf0e940d0, 2025-05-08)"
   xmlns:inkscape="http://www.inkscape.org/namespaces/inkscape"
   xmlns:sodipodi="http://sodipodi.sourceforge.net/DTD/sodipodi-0.dtd"
   xmlns="http://www.w3.org/2000/svg"
   xmlns:svg="http://www.w3.org/2000/svg"
   xmlns:rdf="http://www.w3.org/1999/02/22-rdf-syntax-ns#"
   xmlns:cc="http://creativecommons.org/ns#"
   xmlns:dc="http://purl.org/dc/elements/1.1/">
  <sodipodi:namedview
     id="namedview7"
     pagecolor="#9c4444"
     bordercolor="#000000"
     borderopacity="0.25"
     inkscape:showpageshadow="2"
     inkscape:pageopacity="0.0"
     inkscape:pagecheckerboard="0"
     inkscape:deskcolor="#d1d1d1"
     inkscape:zoom="4.3531261"
     inkscape:cx="36.295755"
     inkscape:cy="40.430715"
     inkscape:window-width="2560"
     inkscape:window-height="1376"
     inkscape:window-x="0"
     inkscape:window-y="0"
     inkscape:window-maximized="1"
     inkscape:current-layer="svg7"
     showgrid="false" />
  <defs
     id="defs2">
    <style
       id="current-color-scheme"
       type="text/css">.ColorScheme-Text {color:#d8dee9} .ColorScheme-Highlight {color:#3b4252}</style>
  </defs>
  <metadata
     id="metadata2">
    <rdf:RDF>
      <cc:Work
         rdf:about="">
        <dc:format>image/svg+xml</dc:format>
        <dc:type
           rdf:resource="http://purl.org/dc/dcmitype/StillImage" />
      </cc:Work>
    </rdf:RDF>
  </metadata>
  <path
     id="path6"
     d="M 1.3228903,1.490737 V 6.8059888 H 13.282197 V 4.8920812 c 0.326079,0.010256 0.652056,0.1095473 0.92571,0.2851154 0.326116,0.2092261 0.585447,0.5317083 0.720064,0.8950585 0.15306,0.4131106 0.145325,0.8923721 -0.0273,1.2927483 C 14.7285,7.764357 14.383532,8.0967231 13.97921,8.2443002 13.541459,8.4040851 13.021068,8.3649212 12.503899,8.2563842 11.984119,8.1475372 11.441587,7.9699985 10.846902,7.9251645 9.8305293,7.8485715 8.7997303,8.2011087 8.0424753,8.8833468 L 7.8871793,9.023178 C 7.4791833,8.912317 7.0758433,8.8151819 6.6957683,8.8281333 c -0.152904,0.00527 -0.302318,0.028196 -0.446476,0.075229 -0.683032,0.8126502 -1.151601,1.8489437 -1.333665,2.7825867 -0.263009,0.567287 -0.411894,0.902566 -0.525337,1.30697 -0.288655,0.906283 0.24159,1.907627 1.209914,2.294246 0.968912,0.386867 2.050551,0.02726 2.478062,-0.824084 0.312701,-0.561834 0.406614,-0.954464 0.527461,-1.2736 0.481713,-1.038616 1.032035,-2.000548 1.017613,-2.979768 -0.334638,-0.3697022 -0.73736,-0.712324 -1.145611,-0.9481438 0.632622,-0.5437394 1.494547,-0.8288858 2.3261027,-0.7661741 0.504728,0.038018 1.023348,0.2028527 1.582685,0.3200035 0.561946,0.1178634 1.190685,0.1842933 1.788634,-0.033958 0.561725,-0.2050215 1.015885,-0.6452122 1.25086,-1.190222 0.234525,-0.5439563 0.24245,-1.1667051 0.03822,-1.7179426 C 15.285447,5.3907332 14.949491,4.9739789 14.516379,4.6961106 14.148003,4.4597766 13.718208,4.3295784 13.282201,4.3197007 V 1.490706 Z m 0.664558,0.6645555 H 12.617943 V 6.1417214 H 1.9874483 Z m 0.664254,0.664255 v 0.9963826 h 0.996381 V 2.8195475 Z m 1.660636,0 v 0.9963826 h 0.996988 V 2.8195475 Z m 1.661242,0 v 0.9963826 h 0.996988 V 2.8195475 Z m 1.661243,0 v 0.9963826 h 0.996381 V 2.8195475 Z m 1.660635,0 V 3.8159301 H 10.292446 V 2.8195475 Z m 1.6612417,0 v 0.9963826 h 0.996989 V 2.8195475 Z M 2.6517023,4.4807894 V 5.477175 h 0.996381 V 4.4807894 Z m 1.660636,0 V 5.477175 h 0.996988 V 4.4807894 Z m 1.661242,0 V 5.477175 h 0.996988 V 4.4807894 Z m 1.661243,0 V 5.477175 h 0.996381 V 4.4807894 Z m 1.660635,0 V 5.477175 H 10.292446 V 4.4807894 Z m 1.6612417,0 V 5.477175 h 0.996989 V 4.4807894 Z m -4.1456737,4.910634 c 0.288609,0.0031 0.704419,0.066523 1.044305,0.2038132 0.453191,0.18293 0.854736,0.4549394 1.192018,0.8298774 -0.01398,0.731162 -0.438352,1.592457 -0.956648,2.509895 -0.212672,0.427116 -0.330703,0.902102 -0.526854,1.27391 -0.282638,0.564871 -1.028185,0.838336 -1.748293,0.550835 -0.838411,-0.312908 -1.030377,-1.058261 -0.872933,-1.609374 0.18512,-0.55192 0.34399,-0.903806 0.529887,-1.322153 0.144527,-0.793626 0.466009,-1.709669 1.099811,-2.4198243 0.0604,-0.012084 0.142504,-0.017971 0.238707,-0.017041 z m 0.888099,0.5086655 c -0.134261,0.0031 -0.260967,0.082634 -0.314232,0.2132011 l -0.258119,0.632106 c -0.07102,0.173976 0.01457,0.373203 0.19048,0.443444 0.17591,0.07024 0.37758,-0.01456 0.4486,-0.188352 l 0.258119,-0.632106 c 0.07102,-0.173975 -0.01457,-0.373203 -0.190481,-0.4434439 -0.04397,-0.017661 -0.08961,-0.025717 -0.134367,-0.024787 z"
     class="ColorScheme-Text"
     style="fill:currentColor;fill-opacity:1;stroke-width:0.309841" />
</svg>
