<?xml version="1.0" encoding="UTF-8" standalone="no"?>
<!-- Created with Inkscape (http://www.inkscape.org/) -->

<svg
   width="64"
   height="64"
   viewBox="0 0 16.933333 16.933333"
   version="1.1"
   id="svg896"
   inkscape:version="1.4.3 (0d15f75042, 2025-12-25)"
   sodipodi:docname="pop_os!.svg"
   xmlns:inkscape="http://www.inkscape.org/namespaces/inkscape"
   xmlns:sodipodi="http://sodipodi.sourceforge.net/DTD/sodipodi-0.dtd"
   xmlns="http://www.w3.org/2000/svg"
   xmlns:svg="http://www.w3.org/2000/svg"
   xmlns:rdf="http://www.w3.org/1999/02/22-rdf-syntax-ns#"
   xmlns:cc="http://creativecommons.org/ns#"
   xmlns:dc="http://purl.org/dc/elements/1.1/">
  <defs
     id="defs890">
    <style
       id="current-color-scheme"
       type="text/css">.ColorScheme-Text {color:#d8dee9} .ColorScheme-Highlight {color:#7f7fff}</style>
  </defs>
  <sodipodi:namedview
     id="base"
     pagecolor="#7f3232"
     bordercolor="#666666"
     borderopacity="1.0"
     inkscape:pageopacity="0.0"
     inkscape:pageshadow="2"
     inkscape:zoom="9.861792"
     inkscape:cx="31.282347"
     inkscape:cy="17.542451"
     inkscape:document-units="px"
     inkscape:current-layer="svg896"
     showgrid="false"
     inkscape:window-width="2560"
     inkscape:window-height="1388"
     inkscape:window-x="0"
     inkscape:window-y="0"
     inkscape:window-maximized="1"
     inkscape:showpageshadow="0"
     inkscape:pagecheckerboard="0"
     inkscape:deskcolor="#505050" />
  <metadata
     id="metadata893">
    <rdf:RDF>
      <cc:Work
         rdf:about="">
        <dc:format>image/svg+xml</dc:format>
        <dc:type
           rdf:resource="http://purl.org/dc/dcmitype/StillImage" />
      </cc:Work>
    </rdf:RDF>
  </metadata>
  <path
     id="path5"
     class="ColorScheme-Text"
     d="m 8.4666664,1.4552085 a 7.0114581,7.0114581 0 0 0 -7.011458,7.011458 7.0114581,7.0114581 0 0 0 7.011458,7.0114575 7.0114581,7.0114581 0 0 0 7.0114586,-7.0114575 7.0114581,7.0114581 0 0 0 -7.0114586,-7.011458 z m -1.3784637,1.704798 c 0.6374053,-0.01482 0.9042137,0.133392 1.2747981,0.370566 0.5632885,0.370585 0.9634661,0.948597 1.1116996,1.615649 0.1482339,0.667052 0.1037947,1.185904 -0.074086,1.556488 v 0.02972 c -0.3557612,0.755992 -0.9487745,1.363687 -1.7788835,1.660154 l 0.7115533,1.8529695 c 0.1334107,0.340938 0.2520725,0.696709 0.1483089,1.022824 -0.1037637,0.326114 -0.5782207,0.429847 -0.9191586,0.07409 C 6.9102059,10.645768 4.7164534,6.2579815 4.5533962,5.9318675 4.390339,5.6057525 4.2124093,5.3389605 4.2124093,5.0128455 4.2272323,4.5236745 4.9832407,4.0197615 5.3538252,3.7677645 5.7244096,3.5157665 6.4507971,3.1748365 7.0882024,3.1600135 Z M 6.506197,4.5101225 c -0.461035,0.01263 -0.2087935,0.975313 -0.1147577,1.243986 0.1037637,0.296468 0.3854724,0.919001 0.6967634,1.230292 0.074117,0.07412 0.1482445,0.133349 0.2371848,0.148172 0.08894,0.01482 0.2667329,-0.07409 0.3408499,-0.192678 0.074117,-0.118587 0.089013,-0.207473 0.089013,-0.32606 0.034094,-0.237174 0.023649,-0.478827 -0.029717,-0.711554 C 7.5921231,5.4427565 7.3104787,4.9980365 6.9398943,4.7015685 6.8657773,4.6422785 6.7768938,4.5681165 6.6731302,4.5384695 6.6092042,4.5176295 6.5538905,4.5088195 6.5061971,4.5101195 Z m 4.916101,1.184827 c 0.07296,-0.0012 0.142559,0.0035 0.201853,0.01465 0.27275,0.04002 0.526227,0.164555 0.726343,0.355777 0.177881,0.163057 0.192676,0.340894 0.133382,0.563244 -0.05929,0.222351 -0.266805,0.696676 -0.429862,1.037614 l -0.415073,0.785641 c -0.800463,1.423044 -0.963572,1.5713425 -1.185923,1.482403 -0.266821,-0.103764 -0.177775,-1.526815 0.07422,-3.26115 0.07412,-0.474348 0.19265,-0.711559 0.32606,-0.830146 0.100058,-0.08894 0.35012,-0.144561 0.568997,-0.148035 z m -1.086092,4.8685815 c 0.323653,0.0063 0.461536,0.408342 0.383713,0.719633 -0.02965,0.13341 -0.103808,0.251943 -0.222395,0.32606 -0.118587,0.07412 -0.400187,0.07411 -0.5632444,-0.0593 -0.1630571,-0.133411 -0.1927788,-0.355648 -0.1483086,-0.533529 0.04447,-0.17788 0.1927558,-0.370706 0.400283,-0.429999 0.05373,-0.01668 0.103716,-0.02377 0.149952,-0.02287 z m -5.0268867,1.638654 h 6.3148317 c 0.302397,0 0.548455,0.246058 0.548455,0.548455 v 0.04451 c 0,0.302397 -0.246058,0.548455 -0.548455,0.548455 H 5.3093193 c -0.3023971,0 -0.5484549,-0.246058 -0.5484549,-0.548455 v -0.04451 c 0,-0.303879 0.2445757,-0.548455 0.5484549,-0.548455 z"
     style="fill:currentColor;stroke-width:0.0148234" />
</svg>
