<?xml version='1.0' encoding='UTF-8'?>
<svg xmlns:inkscape="http://www.inkscape.org/namespaces/inkscape" xmlns:sodipodi="http://sodipodi.sourceforge.net/DTD/sodipodi-0.dtd" xmlns="http://www.w3.org/2000/svg" xmlns:svg="http://www.w3.org/2000/svg" xmlns:rdf="http://www.w3.org/1999/02/22-rdf-syntax-ns#" xmlns:cc="http://creativecommons.org/ns#" xmlns:dc="http://purl.org/dc/elements/1.1/" width="64" height="64" version="1.1" viewBox="0 0 16.933 16.933" id="svg7" sodipodi:docname="preferences-system-network.svg" inkscape:version="1.4.2 (ebf0e940d0, 2025-05-08)">
  <sodipodi:namedview id="namedview7" pagecolor="#9c4444" bordercolor="#000000" borderopacity="0.25" inkscape:showpageshadow="2" inkscape:pageopacity="0.0" inkscape:pagecheckerboard="0" inkscape:deskcolor="#d1d1d1" inkscape:zoom="6.15625" inkscape:cx="15.837563" inkscape:cy="29.64467" inkscape:window-width="1183" inkscape:window-height="941" inkscape:window-x="0" inkscape:window-y="0" inkscape:window-maximized="0" inkscape:current-layer="svg7" showgrid="false"/>
  <defs id="defs2">
    <style id="current-color-scheme" type="text/css">.ColorScheme-Text {color:#d8dee9} .ColorScheme-Highlight {color:#3b4252}</style>
  </defs>
  <metadata id="metadata2">
    <rdf:RDF>
      <cc:Work rdf:about="">
        <dc:format>image/svg+xml</dc:format>
        <dc:type rdf:resource="http://purl.org/dc/dcmitype/StillImage"/>
      </cc:Work>
    </rdf:RDF>
  </metadata>
  <path d="m 8.4665,3.2009674 c -2.9224486,0 -5.2915627,2.3574614 -5.2915627,5.2655323 0,2.9080733 2.3691141,5.2655333 5.2915627,5.2655333 2.922445,0 5.291563,-2.35746 5.291563,-5.2655333 0,-2.9080704 -2.369118,-5.2655323 -5.291563,-5.2655323 z m -0.3779696,1.457424 c 0.050573,-0.00527 0.1143441,0.003 0.1653727,0 0.006,0.024083 -0.03683,0.1097278 -0.094488,0.23507 -0.3672796,0.798375 -0.3881144,1.7333831 -0.047256,2.2331499 0.061686,0.09061 0.1181152,0.1768449 0.1181152,0.1880554 0,0.011209 -0.066516,0.023454 -0.141744,0.023454 C 7.9119599,7.3381207 7.744865,7.231036 7.403462,6.962019 7.2518058,6.8425131 7.0546344,6.7421368 6.9782457,6.7269435 6.8583028,6.703092 6.8263315,6.7135499 6.6711399,6.8679835 6.526768,7.0116274 6.4821691,7.0890817 6.4821691,7.2205867 c 0,0.4986762 0.5949824,0.8950947 1.7008596,1.1283286 1.50182,0.3167369 1.8720413,0.6011129 1.9134643,1.3869026 0.052,0.9853901 -0.4751802,1.7284261 -1.6299898,2.3036721 -0.1378288,0.06868 -0.2256573,0.09533 -0.2834853,0.11753 -0.025707,-0.0024 -0.045287,0.0024 -0.070829,0 -0.00972,-0.03046 -0.023717,-0.101138 -0.023717,-0.235072 0,-0.523378 -0.207315,-1.062095 -0.519697,-1.363395 -0.083855,-0.08088 -0.31865,-0.252254 -0.5197117,-0.376107 C 6.8480053,10.0586 6.6454281,9.9147328 6.6002227,9.8533515 6.525309,9.7514917 6.5190799,9.6889147 6.5765045,9.5007485 6.6813893,9.1570814 6.8062479,8.9656723 7.0489588,8.7485293 7.1762147,8.6346892 7.3042436,8.539224 7.3324441,8.536967 7.3607265,8.5347039 7.1698152,8.4776907 6.8836069,8.4194335 6.5973964,8.3610757 6.1787644,8.2388239 5.9622875,8.1608708 5.5664932,8.0183645 5.0321224,7.7191988 4.828373,7.5026806 4.8197977,7.4935003 4.8123708,7.4873248 4.8046573,7.4792268 5.0965487,6.322268 5.9156832,5.3740216 7.0015941,4.9169807 7.2287936,4.8213505 7.4630336,4.7557431 7.7102859,4.7054174 7.8334282,4.6803708 7.9610855,4.6712684 8.0882537,4.6584045 Z m 3.5434546,1.7630135 c 0.08876,0.054607 0.424016,0.7763277 0.519708,1.1283274 0.123555,0.4544834 0.114588,1.2409738 0,1.6924937 -0.04362,0.1718356 -0.09952,0.3325931 -0.118116,0.3526026 -0.01858,0.020021 -0.08603,-0.09518 -0.165372,-0.2350697 C 11.788881,9.2198923 11.535484,8.9226831 11.324886,8.7015685 10.717008,8.0632884 10.62142,7.7300178 10.87605,7.2206374 11.004446,6.963761 11.563272,6.379205 11.631985,6.4214049 Z" id="path2-0" style="fill:currentColor;fill-opacity:1;stroke:none;stroke-width:0.320112;stroke-dasharray:none;stroke-opacity:0.3" class="ColorScheme-Text"/>
</svg>
