<?xml version='1.0' encoding='UTF-8'?>
<svg xmlns:inkscape="http://www.inkscape.org/namespaces/inkscape" xmlns:sodipodi="http://sodipodi.sourceforge.net/DTD/sodipodi-0.dtd" xmlns="http://www.w3.org/2000/svg" xmlns:svg="http://www.w3.org/2000/svg" xmlns:rdf="http://www.w3.org/1999/02/22-rdf-syntax-ns#" xmlns:cc="http://creativecommons.org/ns#" xmlns:dc="http://purl.org/dc/elements/1.1/" width="64" height="64" version="1.1" viewBox="0 0 16.933 16.933" id="svg7" sodipodi:docname="preferences-workspaces.svg" inkscape:version="1.4.2 (ebf0e940d0, 2025-05-08)">
  <sodipodi:namedview id="namedview7" pagecolor="#9c4444" bordercolor="#000000" borderopacity="0.25" inkscape:showpageshadow="2" inkscape:pageopacity="0.0" inkscape:pagecheckerboard="0" inkscape:deskcolor="#d1d1d1" inkscape:zoom="6.15625" inkscape:cx="19.573604" inkscape:cy="29.64467" inkscape:window-width="1183" inkscape:window-height="941" inkscape:window-x="0" inkscape:window-y="0" inkscape:window-maximized="0" inkscape:current-layer="svg7" showgrid="false"/>
  <defs id="defs2">
    <style id="current-color-scheme" type="text/css">.ColorScheme-Text {color:#d8dee9} .ColorScheme-Highlight {color:#3b4252}</style>
  </defs>
  <metadata id="metadata2">
    <rdf:RDF>
      <cc:Work rdf:about="">
        <dc:format>image/svg+xml</dc:format>
        <dc:type rdf:resource="http://purl.org/dc/dcmitype/StillImage"/>
      </cc:Work>
    </rdf:RDF>
  </metadata>
  <g fill-rule="nonzero" id="g8" transform="matrix(0.29551896,0,0,0.29551896,1.4018237,1.4545739)" style="fill:currentColor;fill-opacity:1" class="ColorScheme-Text">
    <path d="M 32.813,25.313 H 15.187 c -0.621,0 -1.125,0.503 -1.125,1.125 v 12.205 c 0,0.621 0.504,1.125 1.125,1.125 h 17.626 c 0.621,0 1.124,-0.504 1.124,-1.125 V 26.437 c 0,-0.621 -0.503,-1.125 -1.125,-1.125 z" id="path3-3" style="fill:currentColor;fill-opacity:1" class="ColorScheme-Text"/>
    <path d="m 14.063,26.438 c -0.001,-0.622 0.503,-1.125 1.124,-1.125 h 17.626 c 0.621,0 1.124,0.503 1.124,1.125 v 2.444 H 14.062 v -2.444 z" id="path4" style="fill:currentColor;fill-opacity:1" class="ColorScheme-Text"/>
    <path d="M 24.75,7.688 H 7.125 C 6.504,7.688 6,8.191 6,8.813 V 21 c 0,0.621 0.504,1.125 1.125,1.125 H 24.75 c 0.621,0 1.125,-0.504 1.125,-1.125 V 8.812 c 0,-0.621 -0.504,-1.124 -1.125,-1.124 z" id="path5" style="fill:currentColor;fill-opacity:1" class="ColorScheme-Text"/>
    <path d="M 6,8.813 C 6,8.191 6.504,7.687 7.125,7.687 H 24.75 c 0.621,0 1.125,0.504 1.125,1.125 v 2.457 H 6 V 8.812 Z" id="path6" style="fill:currentColor;fill-opacity:1" class="ColorScheme-Text"/>
    <path d="M 41.063,10.5 H 30 c -0.414,0 -0.75,0.336 -0.75,0.75 v 7.5 c 0,0.414 0.336,0.75 0.75,0.75 h 11.063 c 0.414,0 0.749,-0.336 0.749,-0.75 v -7.5 c 0,-0.414 -0.335,-0.75 -0.75,-0.75 z" id="path7" style="fill:currentColor;fill-opacity:1" class="ColorScheme-Text"/>
    <path d="m 29.25,11.25 c 0,-0.414 0.336,-0.75 0.75,-0.75 h 11.063 c 0.414,0 0.749,0.336 0.749,0.75 v 1.5 H 29.25 Z" id="path8" style="fill:currentColor;fill-opacity:1" class="ColorScheme-Text"/>
  </g>
  </svg>
