<?xml version="1.0" encoding="UTF-8" standalone="no"?>
<svg
   width="64"
   height="64"
   version="1.1"
   viewBox="0 0 16.933 16.933"
   id="svg7"
   sodipodi:docname="protonpass.svg"
   inkscape:version="1.4.3 (0d15f75042, 2025-12-25)"
   xmlns:inkscape="http://www.inkscape.org/namespaces/inkscape"
   xmlns:sodipodi="http://sodipodi.sourceforge.net/DTD/sodipodi-0.dtd"
   xmlns="http://www.w3.org/2000/svg"
   xmlns:svg="http://www.w3.org/2000/svg"
   xmlns:rdf="http://www.w3.org/1999/02/22-rdf-syntax-ns#"
   xmlns:cc="http://creativecommons.org/ns#"
   xmlns:dc="http://purl.org/dc/elements/1.1/">
  <sodipodi:namedview
     id="namedview7"
     pagecolor="#9c4444"
     bordercolor="#000000"
     borderopacity="0.25"
     inkscape:showpageshadow="2"
     inkscape:pageopacity="0.0"
     inkscape:pagecheckerboard="0"
     inkscape:deskcolor="#d1d1d1"
     inkscape:zoom="6.15625"
     inkscape:cx="15.837563"
     inkscape:cy="29.563452"
     inkscape:window-width="2560"
     inkscape:window-height="1388"
     inkscape:window-x="0"
     inkscape:window-y="0"
     inkscape:window-maximized="1"
     inkscape:current-layer="svg7"
     showgrid="false" />
  <defs
     id="defs2">
    <style
       id="current-color-scheme"
       type="text/css">.ColorScheme-Text {color:#d8dee9} .ColorScheme-Highlight {color:#3b4252}</style>
  </defs>
  <metadata
     id="metadata2">
    <rdf:RDF>
      <cc:Work
         rdf:about="">
        <dc:format>image/svg+xml</dc:format>
        <dc:type
           rdf:resource="http://purl.org/dc/dcmitype/StillImage" />
      </cc:Work>
    </rdf:RDF>
  </metadata>
  <path
     id="path5"
     style="fill:currentColor;stroke-width:0.250404;fill-opacity:1"
     d="m 3.4706405,1.4551797 c -1.112466,0 -2.015461,0.9029949 -2.015461,2.015461 v 9.9917183 c 0,1.112466 0.902995,2.015461 2.015461,2.015461 h 9.9917185 c 1.112466,0 2.015461,-0.902995 2.015461,-2.015461 V 3.4706407 c 0,-1.1124661 -0.902995,-2.015461 -2.015461,-2.015461 z m 4.99586,2.1284365 c 0.179417,0 0.358894,0.027992 0.53162,0.084121 0.392762,0.1276168 0.733573,0.4680757 1.4148815,1.1493164 l 1.702945,1.7034341 c 0.681207,0.6812509 1.021744,1.0216077 1.149316,1.4143929 0.112254,0.345458 0.112254,0.7176837 0,1.0632402 -0.127572,0.3927721 -0.468109,0.7330891 -1.149316,1.4143922 l -1.702945,1.702945 c -0.6813075,0.681199 -1.0221195,1.022222 -1.4148815,1.149806 -0.34545,0.112344 -0.71779,0.112344 -1.06324,0 -0.392813,-0.127585 -0.733162,-0.468608 -1.414393,-1.149806 l -9.47e-4,-9.75e-4 c -8.01e-4,-8.01e-4 -0.0011,-0.0011 -0.002,-0.0019 -0.03723,-0.03697 -0.07679,-0.07631 -0.118845,-0.118355 l -1.581149,-1.58166 C 4.1363155,9.7312119 3.7953645,9.3908975 3.6677415,8.9981248 c -0.112279,-0.3454485 -0.112279,-0.7177591 0,-1.0632402 0.127623,-0.3927726 0.468574,-0.7336317 1.149805,-1.4148822 l 1.581166,-1.5811661 c 0.04272,-0.042717 0.08257,-0.082825 0.120312,-0.1203113 4.01e-4,-4.006e-4 5.76e-4,-5.759e-4 9.47e-4,-9.748e-4 l 5e-4,-5.008e-4 c 0.681217,-0.6812455 1.021566,-1.0216941 1.414378,-1.1493112 0.172725,-0.056128 0.352202,-0.084121 0.531621,-0.084121 z m -1.094541,0.9913466 c -0.06341,0 -0.126228,0.00999 -0.187314,0.029833 -0.05579,0.018127 -0.117573,0.054006 -0.214213,0.1359617 -0.09664,0.081955 -0.222448,0.2068023 -0.392724,0.3770737 l -1.581166,1.5811661 c -0.340596,0.340606 -0.593264,0.5938 -0.768331,0.8001201 -0.175066,0.2063201 -0.269333,0.3600393 -0.319363,0.5140134 -0.0958,0.2947672 -0.09579,0.6115359 0,0.9062485 0.05004,0.1539914 0.144295,0.3076978 0.319363,0.5140134 0.175068,0.2063157 0.427728,0.4594804 0.768331,0.8001203 l 1.581166,1.581166 c 0.170303,0.170262 0.296038,0.295457 0.392724,0.377563 0.09669,0.08211 0.158581,0.117875 0.214213,0.135961 0.121941,0.03957 0.253003,0.03962 0.375117,0 0.05539,-0.01801 0.117136,-0.05385 0.213724,-0.135961 0.09659,-0.08211 0.222345,-0.207238 0.392724,-0.377563 L 10.720628,9.2602617 c 0.170258,-0.1703069 0.295103,-0.2956831 0.377073,-0.3922347 0.08197,-0.096552 0.117829,-0.1584671 0.135962,-0.2142131 0.03954,-0.1218984 0.03961,-0.2530356 0,-0.3751174 C 11.215583,8.2231225 11.179673,8.161034 11.097701,8.0644833 11.015731,7.9679329 10.890907,7.842562 10.720628,7.6722486 L 8.1662105,5.1178316 C 7.9958895,4.9475276 7.8705175,4.8222295 7.7739755,4.7402689 7.6774355,4.6583079 7.6154815,4.6229034 7.5597625,4.6047962 7.4989425,4.5850422 7.4353685,4.5749632 7.3719595,4.5749628 Z"
     class="ColorScheme-Text" />
</svg>
