<?xml version="1.0" encoding="UTF-8" standalone="no"?>
<svg
   id="svg3297"
   height="64"
   width="64"
   version="1.0"
   sodipodi:docname="pycharm.svg"
   inkscape:version="1.4.3 (0d15f75042, 2025-12-25)"
   xmlns:inkscape="http://www.inkscape.org/namespaces/inkscape"
   xmlns:sodipodi="http://sodipodi.sourceforge.net/DTD/sodipodi-0.dtd"
   xmlns="http://www.w3.org/2000/svg"
   xmlns:svg="http://www.w3.org/2000/svg"
   xmlns:rdf="http://www.w3.org/1999/02/22-rdf-syntax-ns#"
   xmlns:cc="http://creativecommons.org/ns#"
   xmlns:dc="http://purl.org/dc/elements/1.1/">
  <sodipodi:namedview
     id="namedview1"
     pagecolor="#9c4444"
     bordercolor="#000000"
     borderopacity="0.25"
     inkscape:showpageshadow="2"
     inkscape:pageopacity="0.0"
     inkscape:pagecheckerboard="0"
     inkscape:deskcolor="#d1d1d1"
     inkscape:zoom="3.2734375"
     inkscape:cx="40.782816"
     inkscape:cy="33.298329"
     inkscape:window-width="2560"
     inkscape:window-height="1388"
     inkscape:window-x="0"
     inkscape:window-y="0"
     inkscape:window-maximized="1"
     inkscape:current-layer="svg3297" />
  <metadata
     id="metadata58">
    <rdf:RDF>
      <cc:Work
         rdf:about="">
        <dc:format>image/svg+xml</dc:format>
        <dc:type
           rdf:resource="http://purl.org/dc/dcmitype/StillImage" />
      </cc:Work>
    </rdf:RDF>
  </metadata>
  <defs
     id="defs3299">
    <style
       id="current-color-scheme"
       type="text/css">.ColorScheme-Text {color:#d8dee9} .ColorScheme-Highlight {color:#3b4252}</style>
  </defs>
  <path
     id="path5"
     style="fill:currentColor;fill-opacity:1;stroke-width:0.8281"
     d="m 8.8730076,5.500001 c -1.862653,0 -3.372242,1.509589 -3.372242,3.372242 v 28.129511 c 0,1.349057 0.804693,2.56913 2.044371,3.100521 l 4.4995584,1.92792 -0.913822,1.065855 c -0.524203,0.611469 -0.810309,1.389212 -0.810309,2.194787 v 1.104673 c -6.47e-4,0.02705 -0.0016,0.05369 -0.0016,0.08087 v 8.651378 c 0,1.862643 1.509589,3.372241 3.372243,3.372241 h 10.842959 c 0.15949,0 0.31912,-0.01178 0.47712,-0.03397 l 30.59279,-4.370166 c 1.66166,-0.237499 2.89511,-1.659636 2.89511,-3.338277 V 50.307954 37.778095 c 0,-0.01127 1.1e-4,-0.02272 0,-0.03397 v -2.314474 c 0,-0.666289 -0.19763,-1.316733 -0.5677,-1.871312 l -5.15783,-7.727851 0.0954,-0.111599 c 0.52377,-0.611386 0.81193,-1.391327 0.81193,-2.196406 v -9.83368 c 0,-1.862653 -1.5096,-3.372242 -3.37225,-3.372242 h -7.88958 l -2.21096,-3.314016 c -0.62588,-0.937592 -1.67759,-1.500931 -2.80455,-1.500931 z m 6.5649584,9.937196 h 33.12398 v 33.123987 h -33.12398 z m 20.93701,3.901126 c -1.18973,0 -2.26559,0.280128 -3.22992,0.842656 -0.96473,0.555821 -1.72223,1.326127 -2.27242,2.308004 -0.5501,0.976164 -0.82647,2.067996 -0.82647,3.275199 0,1.207287 0.27637,2.303026 0.82647,3.284904 0.55061,0.976246 1.30769,1.743858 2.27242,2.306386 0.96482,0.555904 2.04068,0.83457 3.22992,0.83457 1.00564,0 1.92876,-0.186804 2.76895,-0.559614 0.84019,-0.372728 1.53973,-0.89337 2.09613,-1.562391 0.56203,-0.674736 0.93801,-1.446421 1.12732,-2.316092 h -2.53929 c -0.16596,0.449327 -0.41421,0.845943 -0.74562,1.188776 -0.32569,0.337534 -0.71952,0.598103 -1.18069,0.781196 -0.46125,0.18301 -0.96453,0.274954 -1.50901,0.274954 -0.73369,0 -1.39625,-0.182813 -1.98776,-0.549909 -0.59201,-0.367097 -1.05707,-0.869974 -1.39419,-1.509018 -0.3314,-0.644344 -0.49654,-1.36918 -0.49654,-2.173762 0,-0.804499 0.16514,-1.52663 0.49654,-2.165674 0.33762,-0.644759 0.80218,-1.151626 1.39419,-1.518723 0.59151,-0.367013 1.25407,-0.549909 1.98776,-0.549909 0.54398,0 1.04727,0.09348 1.50901,0.276572 0.46167,0.18301 0.855,0.446449 1.18069,0.789282 0.33141,0.337617 0.57966,0.731362 0.74562,1.180689 h 2.53929 c -0.18972,-0.86967 -0.56529,-1.638982 -1.12732,-2.308004 -0.5564,-0.674653 -1.25594,-1.197667 -2.09613,-1.570478 -0.84019,-0.37281 -1.76331,-0.559614 -2.76895,-0.559614 z M 19.657706,19.5502 v 12.426347 h 2.42284 v -4.69526 h 2.84013 c 0.88731,0 1.66535,-0.159182 2.33388,-0.478746 0.67473,-0.325194 1.19342,-0.780889 1.5543,-1.366687 0.3666,-0.585798 0.54992,-1.279577 0.54992,-2.042754 0,-0.763176 -0.18094,-1.433557 -0.54183,-2.013641 -0.35517,-0.580084 -0.864,-1.029333 -1.52681,-1.348896 -0.66289,-0.319564 -1.42863,-0.480363 -2.2983,-0.480363 z m 2.42123,2.015259 h 2.75278 c 0.4085,0 0.76232,0.07726 1.06424,0.231285 0.30764,0.147402 0.54408,0.36021 0.71003,0.638866 0.16595,0.271451 0.24908,0.604088 0.24908,0.976898 0,0.372811 -0.0836,0.701113 -0.24908,0.984986 -0.16545,0.278656 -0.40239,0.492844 -0.71003,0.646953 -0.30192,0.147816 -0.65574,0.223199 -1.06424,0.223199 h -2.75278 z m -2.50533,20.372545 v 2.484299 h 13.2496 v -2.484299 z"
     class="ColorScheme-Text" />
</svg>
