<?xml version='1.0' encoding='UTF-8'?>
<svg xmlns:inkscape="http://www.inkscape.org/namespaces/inkscape" xmlns:sodipodi="http://sodipodi.sourceforge.net/DTD/sodipodi-0.dtd" xmlns="http://www.w3.org/2000/svg" xmlns:svg="http://www.w3.org/2000/svg" xmlns:rdf="http://www.w3.org/1999/02/22-rdf-syntax-ns#" xmlns:cc="http://creativecommons.org/ns#" xmlns:dc="http://purl.org/dc/elements/1.1/" width="64" height="64" version="1.1" viewBox="0 0 16.933 16.933" id="svg7" sodipodi:docname="qbittorrent.svg" inkscape:version="1.4 (e7c3feb100, 2024-10-09)">
  <sodipodi:namedview id="namedview7" pagecolor="#9c4444" bordercolor="#000000" borderopacity="0.25" inkscape:showpageshadow="2" inkscape:pageopacity="0.0" inkscape:pagecheckerboard="0" inkscape:deskcolor="#d1d1d1" inkscape:zoom="6.15625" inkscape:cx="15.837563" inkscape:cy="29.725888" inkscape:window-width="1183" inkscape:window-height="941" inkscape:window-x="35" inkscape:window-y="32" inkscape:window-maximized="0" inkscape:current-layer="svg7" showgrid="false"/>
  <defs id="defs2">
    <style id="current-color-scheme" type="text/css">.ColorScheme-Text {color:#d8dee9} .ColorScheme-Highlight {color:#3b4252}</style></defs>
  <metadata id="metadata2">
    <rdf:RDF>
      <cc:Work rdf:about="">
        <dc:format>image/svg+xml</dc:format>
        <dc:type rdf:resource="http://purl.org/dc/dcmitype/StillImage"/>
      </cc:Work>
    </rdf:RDF>
  </metadata>
  <path id="path6" style="fill:currentColor;stroke-width:0.0189743" d="M 8.6814626,1.7333923 C 8.308918,1.7277675 7.8216647,1.7446454 7.5943215,1.7761265 6.8180708,1.8836177 6.1612414,2.0840413 5.4787388,2.421837 4.7573095,2.7788996 4.204857,3.1806318 3.6369379,3.7616275 2.5489732,4.8746433 1.889582,6.3070178 1.7509937,7.8575452 c -0.025148,0.2813849 -0.02526,0.8975046 0,1.1768367 0.1199432,1.3263791 0.6222152,2.5747591 1.4539051,3.6145701 0.3418611,0.427405 0.902442,0.958379 1.3341555,1.263713 0.9817915,0.694385 2.1189733,1.119603 3.2830267,1.228025 0.2570814,0.02394 0.95747,0.02531 1.2144053,0.0025 1.0373127,-0.09274 2.0887727,-0.442801 2.9453797,-0.981012 1.588989,-0.998368 2.689471,-2.57438 3.05057,-4.3687583 C 15.13952,9.2613192 15.15453,9.0956656 15.15453,8.4460853 15.15453,7.7965661 15.13952,7.6310512 15.032436,7.098781 14.829337,6.0889553 14.395242,5.1523874 13.730683,4.290414 13.512827,4.0078411 12.886198,3.3812117 12.603626,3.1633558 11.523098,2.3302955 10.322376,1.8578888 9.0017353,1.7465494 8.9169003,1.7394054 8.8056443,1.7352824 8.6814626,1.7334014 Z m 1.006839,1.9000327 c 0.097286,0.00606 0.195556,0.03151 0.2906871,0.078424 0.1596213,0.078715 0.2503643,0.1736657 0.3357693,0.3512663 l 0.05917,0.1230364 0.0056,1.0674181 0.0052,1.0669486 0.0897,-0.044612 c 0.140015,-0.070528 0.340326,-0.1377842 0.555547,-0.1859644 0.168135,-0.037639 0.250429,-0.044143 0.548969,-0.044143 0.298545,0 0.380371,0.00652 0.548502,0.044143 0.247794,0.055472 0.416911,0.1161641 0.646651,0.2315163 1.081917,0.5432315 1.658919,1.7825162 1.382072,2.9683909 -0.246991,1.0579508 -1.106228,1.8519128 -2.18838,2.0216608 -0.193855,0.0304 -0.63483,0.02516 -0.834962,-0.0098 -0.20809,-0.0364 -0.451768,-0.108602 -0.614246,-0.182206 -0.06667,-0.0302 -0.124429,-0.05494 -0.128202,-0.05494 -0.0038,0 -0.007,0.06401 -0.007,0.142289 v 0.142293 h -0.7307116 -0.73071 l 0.00517,-3.5910909 0.00469,-3.5906194 0.050249,-0.1066014 C 9.1168816,3.7731246 9.3964444,3.6151933 9.6882988,3.6334238 Z M 6.5128149,6.0364072 h 0.7307094 0.7307096 l -0.00517,3.5812274 -0.00469,3.5812274 -0.053534,0.115995 c -0.06814,0.14744 -0.2149542,0.292962 -0.3639461,0.361129 -0.090083,0.04119 -0.147573,0.05335 -0.2751899,0.05776 -0.2834992,0.0097 -0.4929332,-0.09831 -0.6428926,-0.332018 -0.1129246,-0.175981 -0.1159931,-0.212361 -0.1159931,-1.32805 0,-0.803266 -0.00515,-1.011082 -0.02395,-1.003083 C 5.9702205,11.291233 5.6100085,11.359069 5.1237251,11.327472 3.9969858,11.254256 3.0349987,10.449049 2.7545465,9.3443218 2.6028967,8.7469601 2.6600704,8.1293767 2.9198484,7.5569953 3.0790494,7.2062199 3.4365392,6.7744489 3.760446,6.5412342 4.0631896,6.3232571 4.4233201,6.1646063 4.8048532,6.0814881 c 0.2519216,-0.054883 0.7969024,-0.050675 1.0627223,0.00846 0.1628585,0.036224 0.3948348,0.1130652 0.6118986,0.2024011 0.029792,0.012255 0.033343,-1.74e-4 0.033343,-0.1211592 z M 5.3439615,7.4959473 C 5.1441611,7.4908344 4.9398226,7.5369429 4.7499081,7.6424652 4.4829313,7.790806 4.2466177,8.0946772 4.1685337,8.3891415 c -0.042374,0.15979 -0.04301,0.427147 -0.00142,0.5865401 C 4.2899426,9.4462827 4.692799,9.8054268 5.1687882,9.8679358 5.404343,9.8988697 5.6704269,9.8482176 5.8962108,9.7298704 6.0665876,9.6405666 6.2977021,9.4014081 6.3846025,9.2241035 6.5155334,8.9569652 6.5461082,8.6775148 6.4752363,8.4004117 6.3360993,7.8563809 5.8545529,7.5090034 5.3439516,7.4959473 Z m 6.2246485,0.00141 c -0.549607,-0.001 -1.036406,0.3947915 -1.158052,0.9415689 -0.149336,0.6712369 0.328061,1.3400662 1.019518,1.4285463 0.39918,0.05108 0.821064,-0.1223923 1.071645,-0.4404922 0.177403,-0.2251974 0.259679,-0.4609 0.259223,-0.7438552 C 12.760416,8.3504704 12.650839,8.0942486 12.404512,7.8476932 12.166932,7.6098989 11.900316,7.4979668 11.56861,7.4973659 Z" class="ColorScheme-Text"/>
  </svg>
