<?xml version="1.0" encoding="UTF-8" standalone="no"?>
<svg
   width="64"
   height="64"
   version="1.1"
   viewBox="0 0 16.933 16.933"
   id="svg7"
   sodipodi:docname="qmmp.svg"
   inkscape:version="1.4.3 (0d15f75042, 2025-12-25)"
   xmlns:inkscape="http://www.inkscape.org/namespaces/inkscape"
   xmlns:sodipodi="http://sodipodi.sourceforge.net/DTD/sodipodi-0.dtd"
   xmlns="http://www.w3.org/2000/svg"
   xmlns:svg="http://www.w3.org/2000/svg"
   xmlns:rdf="http://www.w3.org/1999/02/22-rdf-syntax-ns#"
   xmlns:cc="http://creativecommons.org/ns#"
   xmlns:dc="http://purl.org/dc/elements/1.1/">
  <sodipodi:namedview
     id="namedview7"
     pagecolor="#9c4444"
     bordercolor="#000000"
     borderopacity="0.25"
     inkscape:showpageshadow="2"
     inkscape:pageopacity="0.0"
     inkscape:pagecheckerboard="0"
     inkscape:deskcolor="#d1d1d1"
     inkscape:zoom="6.15625"
     inkscape:cx="15.837563"
     inkscape:cy="29.563452"
     inkscape:window-width="2560"
     inkscape:window-height="1388"
     inkscape:window-x="0"
     inkscape:window-y="0"
     inkscape:window-maximized="1"
     inkscape:current-layer="svg7"
     showgrid="false" />
  <defs
     id="defs2">
    <style
       id="current-color-scheme"
       type="text/css">.ColorScheme-Text {color:#d8dee9} .ColorScheme-Highlight {color:#3b4252}</style>
  </defs>
  <metadata
     id="metadata2">
    <rdf:RDF>
      <cc:Work
         rdf:about="">
        <dc:format>image/svg+xml</dc:format>
        <dc:type
           rdf:resource="http://purl.org/dc/dcmitype/StillImage" />
      </cc:Work>
    </rdf:RDF>
  </metadata>
  <path
     id="path5"
     style="fill:currentColor;stroke-width:0.250364;fill-opacity:1"
     d="m 4.9629555,1.4551797 c -1.942135,0 -3.505536,1.5634011 -3.505536,3.5055357 v 7.0115696 c 0,1.942134 1.563401,3.505535 3.505536,3.505535 h 7.0070885 c 1.942135,0 3.505536,-1.563401 3.505536,-3.505535 V 4.9607154 c 0,-1.9421346 -1.563401,-3.5055357 -3.505536,-3.5055357 z m 1.954877,1.9135583 5.09e-4,5.098e-4 c 0.116064,0 0.210572,0.1037179 0.210572,0.2314788 0,0.070472 -0.02854,0.1334413 -0.07368,0.1757248 0.118705,0.4320265 0.392974,0.8394027 0.769605,1.1409667 0.165908,-0.2378475 0.398283,-0.3732361 0.641658,-0.3738623 0.243578,4.078e-4 0.476108,0.1358155 0.642166,0.3738505 0.37631,-0.3015344 0.650892,-0.7095552 0.769605,-1.1414644 -0.04511,-0.042298 -0.07418,-0.1047309 -0.07418,-0.1752269 0,-0.1277379 0.09483,-0.231977 0.2110685,-0.231977 0.115775,0 0.210073,0.1040107 0.210073,0.231977 0,0.1045637 -0.06259,0.1926879 -0.149341,0.2215226 C 9.9457525,4.3111415 9.6396205,4.771827 9.2166785,5.106572 c 0.08431,0.1840554 0.128697,0.3955288 0.128932,0.6113032 -4.08e-4,0.3335733 -0.106577,0.6512641 -0.292709,0.8736461 v 5.3240137 c -7.85e-4,0.494659 -0.234146,0.880615 -0.586405,0.880615 -0.352263,0 -0.585916,-0.370836 -0.585916,-0.880615 V 6.5920191 C 7.6943345,6.3694999 7.5876485,6.0516534 7.5873745,5.7178752 7.5877825,5.502026 7.6327845,5.2905471 7.7173015,5.106572 7.2940675,4.771827 6.9872445,4.3113766 6.8570965,3.8222376 6.7704965,3.7934046 6.7077545,3.7053055 6.7077545,3.600715 c 0,-0.1279665 0.0943,-0.231977 0.210074,-0.231977 z m -0.363398,2.5607041 c 0.05725,-5.862e-4 0.111825,4.587e-4 0.136399,0 0.02458,-4.588e-4 0.0305,4.333e-4 0.03932,0 h 5.1e-4 5.1e-4 v 5.098e-4 c 8.41e-4,-2.154e-4 0.0015,-2.435e-4 0.0025,-5.098e-4 0.202155,0.032472 0.439606,0.06065 0.641172,0.1737334 0.04669,0.2108976 0.131437,0.4093825 0.250893,0.5759593 v 1.3814061 c -0.04305,0.075974 -0.09005,0.1539416 -0.141381,0.2339677 -0.77412,1.2068128 -2.125615,1.15839 -2.125615,1.15839 l -0.04281,-0.00399 c -0.05586,-0.0029 -0.134102,-0.00191 -0.215051,-0.00349 -0.08096,-0.00158 -0.164381,-0.00652 -0.233969,-0.014934 -0.03479,-0.00421 -0.06579,-0.0093 -0.09409,-0.01842 -0.0283,-0.00912 -0.05857,-0.017396 -0.07816,-0.052269 -0.03637,-0.064751 -0.123134,-0.1086395 -0.210571,-0.129927 -0.04373,-0.01063 -0.08583,-0.014895 -0.117482,-0.01842 -0.01583,-0.00176 -0.03253,-0.00301 -0.04281,-0.00399 -0.0051,-5.862e-4 -0.0072,5.861e-4 -0.01194,0 h -5.1e-4 l -5.1e-4,-5.098e-4 c -0.0016,-9.176e-4 -0.0035,-0.0024 -0.0065,-0.00299 h -5.1e-4 -5.09e-4 c -0.0015,1.957e-4 -0.004,9.729e-4 -0.0069,0 -0.002,-7.137e-4 -0.0047,-0.00242 -0.008,-0.00399 -0.0033,-0.00161 -0.01538,-0.010906 -0.01543,-0.010952 -0.17905,-0.151742 -0.248698,-0.345288 -0.26981,-0.4385653 -0.01055,-0.046639 -0.0092,-0.084054 -0.0035,-0.1115081 0.0058,-0.027454 0.01941,-0.048287 0.01941,-0.048287 v -0.00349 c 0.01954,-0.030665 0.01663,-0.047299 0,-0.078155 -0.0166,-0.030849 -0.05113,-0.068665 -0.09358,-0.1000418 -0.08486,-0.062756 -0.187673,-0.104041 -0.187673,-0.104041 -0.575431,-0.2104436 -0.855456,-0.3925602 -0.996105,-0.5311567 -0.07032,-0.069304 -0.104139,-0.1303615 -0.120967,-0.1747293 -0.0084,-0.022187 -0.0145,-0.04162 -0.01593,-0.055754 -0.0013,-0.012142 -3.14e-4,-0.01919 0,-0.022401 -1.3e-5,-9.43e-4 -9.3e-5,-0.0025 0,-0.00348 0.04238,-0.430658 0.330802,-0.7836641 0.722811,-1.0050661 0.393151,-0.2220557 0.895564,-0.3536217 1.394349,-0.4380675 0.498798,-0.084446 0.994563,-0.1199789 1.37145,-0.1339094 0.188437,-0.00697 0.346467,-0.00976 0.460967,-0.010952 z m 3.6449205,0 c 4.85e-4,1.271e-4 0.0011,-6.15e-5 0.0015,0 l 5.09e-4,5.098e-4 h 5.1e-4 v -5.098e-4 h 5.1e-4 5.09e-4 c 0.0089,4.333e-4 0.01474,-4.588e-4 0.03932,0 0.02457,4.587e-4 0.07915,-5.862e-4 0.136399,0 0.114499,0.00119 0.272529,0.00397 0.460966,0.010952 0.376887,0.013932 0.872652,0.049463 1.37145,0.1339094 0.498786,0.084446 1.001198,0.2160119 1.394349,0.4380674 0.392009,0.2214021 0.680432,0.5744082 0.722811,1.0050662 9.3e-5,8.921e-4 1.3e-5,0.0025 0,0.00348 3.07e-4,0.00322 0.0013,0.010264 0,0.022401 -0.0014,0.014135 -0.0075,0.033566 -0.01593,0.055754 -0.01683,0.044368 -0.05064,0.105425 -0.120966,0.1747293 -0.14065,0.1385965 -0.420675,0.320713 -0.996106,0.5311567 0,0 -0.102816,0.041285 -0.187673,0.104041 -0.04243,0.031377 -0.07697,0.069193 -0.09359,0.1000586 -0.01663,0.030856 -0.01954,0.047491 0,0.078155 v 0.00349 c 0,0 0.01361,0.020834 0.01941,0.048287 0.0058,0.027454 0.007,0.06487 -0.0035,0.1115081 -0.02111,0.093277 -0.09077,0.2868233 -0.26981,0.4385653 -4.9e-5,3.92e-5 -0.01217,0.00938 -0.01543,0.010952 -0.0033,0.00158 -0.006,0.0032 -0.008,0.00399 -0.003,9.73e-4 -0.0054,1.958e-4 -0.0069,0 h -5.1e-4 -5.09e-4 c -0.003,5.862e-4 -0.0049,0.00201 -0.0065,0.00299 l -5.09e-4,5.098e-4 h -5.1e-4 c -0.0047,5.862e-4 -0.0068,-5.862e-4 -0.01194,0 -0.01027,9.73e-4 -0.02698,0.00222 -0.04281,0.00399 -0.03165,0.00353 -0.07375,0.00779 -0.117482,0.01842 -0.08744,0.021288 -0.174208,0.065176 -0.210571,0.1299269 -0.01959,0.034866 -0.04985,0.043146 -0.07816,0.052269 -0.0283,0.00912 -0.05928,0.014209 -0.09409,0.01842 -0.06959,0.00842 -0.153006,0.013368 -0.233968,0.014933 -0.08095,0.00153 -0.159189,5.606e-4 -0.215051,0.00349 l -0.04281,0.00399 c 0,0 -1.351496,0.048423 -2.1256225,-1.1583898 -0.05133,-0.080026 -0.09833,-0.1579941 -0.141376,-0.2339677 V 6.6791704 C 9.4265605,6.5128176 9.5114325,6.3140029 9.5581675,6.103211 9.7597805,5.9900269 9.9971115,5.9619605 10.199339,5.9294776 Z M 7.6257095,8.5409216 v 3.3736174 c 0,0.159718 0.02118,0.315089 0.06272,0.456984 -0.0061,-1.95e-4 -0.01192,-4.07e-4 -0.01792,-9.92e-4 -0.05574,-0.0049 -0.112362,-0.02214 -0.164773,-0.03385 -0.05242,-0.01173 -0.101538,-0.01783 -0.138887,-0.01842 -0.03735,-4.84e-4 -0.05744,0.0041 -0.07168,0.01842 -0.0102,0.01026 -0.02502,0.04472 -0.02937,0.0901 -0.0043,0.04538 0.0012,0.09881 0.0075,0.152328 0.0095,0.08054 0.02364,0.07739 0.03036,0.08015 2.34e-4,1.96e-4 0.0013,8.41e-4 0.0015,9.92e-4 l 5.1e-4,5.1e-4 v 5.1e-4 h 5.09e-4 v 5.1e-4 9.92e-4 h 5.1e-4 l 5.09e-4,5.1e-4 v 5.09e-4 c 0.01394,0.01578 0.135746,0.107809 0.126941,0.291216 -0.0056,0.116935 -0.09621,0.18733 -0.210074,0.277774 -0.113869,0.09044 -0.258732,0.161328 -0.39426,0.126443 -0.03124,-0.008 -0.05208,-0.02936 -0.0672,-0.05177 -0.01513,-0.02241 -0.02607,-0.04643 -0.03435,-0.07467 -0.01654,-0.05648 -0.024,-0.127674 -0.02937,-0.209078 -0.01073,-0.162795 -0.0046,-0.262582 0.0075,-0.467936 0.02389,-0.406984 0.06979,-0.801229 0.07069,-0.808434 0,-0.0057 -0.0089,-0.03468 -0.03335,-0.07119 -0.02446,-0.03651 -0.06169,-0.07993 -0.109019,-0.129926 C 6.5399575,11.446199 6.4329225,11.325417 6.2891665,11.199751 6.0016515,10.94843 5.7418425,10.749047 5.5623725,10.543147 5.3801495,10.33406 5.3566335,10.138669 5.3861495,10.00303 5.4156525,9.8673937 5.4946705,9.7869832 5.4946705,9.7869832 l 0.0035,-0.00399 0.008,-0.00399 c 0.0062,-0.00395 0.01817,-0.022212 0.02639,-0.055754 0.0016,-0.00665 0.0033,-0.013927 0.0045,-0.021404 0.407804,-0.031027 1.413872,-0.2065875 2.088786,-1.1608791 z m 1.681581,5.098e-4 c 0.670449,0.9479784 1.6678885,1.1271322 2.0808225,1.1598835 0.0013,0.00784 0.0028,0.015471 0.0045,0.022401 0.0082,0.033542 0.0202,0.051799 0.02639,0.055754 l 0.0075,0.00399 0.0035,0.00399 c 0,0 0.07951,0.08041 0.109019,0.2160471 0.02952,0.135638 0.006,0.33103 -0.176223,0.540117 -0.17947,0.2059 -0.439279,0.405283 -0.726795,0.656604 -0.143757,0.125666 -0.251289,0.246448 -0.345974,0.346471 -0.04733,0.05 -0.08406,0.09342 -0.10852,0.129927 -0.02447,0.03651 -0.03385,0.06553 -0.03385,0.07119 8.92e-4,0.0072 0.04729,0.40145 0.07119,0.808434 0.01205,0.205354 0.0182,0.305141 0.0075,0.467936 -0.0054,0.0814 -0.01332,0.152602 -0.02987,0.209077 -0.0083,0.02825 -0.01873,0.05226 -0.03385,0.07467 -0.01512,0.02241 -0.03646,0.04373 -0.0677,0.05177 -0.1355285,0.03488 -0.2798935,-0.036 -0.3937625,-0.126442 -0.113869,-0.09044 -0.204464,-0.160839 -0.210074,-0.277774 -0.0088,-0.183407 0.113006,-0.275437 0.126941,-0.291216 9.7e-5,-3.82e-4 3.56e-4,-0.0011 5.09e-4,-0.0015 l 5.1e-4,-5.09e-4 5.09e-4,-9.93e-4 5.1e-4,-5.09e-4 5.1e-4,-5.1e-4 c 0.0066,-0.0029 0.02174,4.08e-4 0.03137,-0.08064 0.0064,-0.05352 0.01182,-0.106944 0.0075,-0.152328 -0.0043,-0.04538 -0.01917,-0.07984 -0.02937,-0.0901 -0.01424,-0.01433 -0.03433,-0.01881 -0.07168,-0.01842 -0.03735,5.86e-4 -0.08647,0.0067 -0.138888,0.01842 -0.05241,0.01171 -0.109033,0.02894 -0.164772,0.03385 -0.0041,3.82e-4 -0.0083,7.9e-4 -0.01245,9.92e-4 0.04284,-0.143277 0.06496,-0.299363 0.06521,-0.456984 z"
     class="ColorScheme-Text" />
</svg>
