<?xml version="1.0" encoding="UTF-8" standalone="no"?>
<svg
   id="svg3297"
   height="64"
   width="64"
   version="1.0"
   sodipodi:docname="qodana.svg"
   inkscape:version="1.4.3 (0d15f75042, 2025-12-25)"
   xmlns:inkscape="http://www.inkscape.org/namespaces/inkscape"
   xmlns:sodipodi="http://sodipodi.sourceforge.net/DTD/sodipodi-0.dtd"
   xmlns="http://www.w3.org/2000/svg"
   xmlns:svg="http://www.w3.org/2000/svg"
   xmlns:rdf="http://www.w3.org/1999/02/22-rdf-syntax-ns#"
   xmlns:cc="http://creativecommons.org/ns#"
   xmlns:dc="http://purl.org/dc/elements/1.1/">
  <sodipodi:namedview
     id="namedview1"
     pagecolor="#9c4444"
     bordercolor="#000000"
     borderopacity="0.25"
     inkscape:showpageshadow="2"
     inkscape:pageopacity="0.0"
     inkscape:pagecheckerboard="0"
     inkscape:deskcolor="#d1d1d1"
     inkscape:zoom="3.2734375"
     inkscape:cx="40.782816"
     inkscape:cy="33.298329"
     inkscape:window-width="2560"
     inkscape:window-height="1388"
     inkscape:window-x="0"
     inkscape:window-y="0"
     inkscape:window-maximized="1"
     inkscape:current-layer="svg3297" />
  <metadata
     id="metadata58">
    <rdf:RDF>
      <cc:Work
         rdf:about="">
        <dc:format>image/svg+xml</dc:format>
        <dc:type
           rdf:resource="http://purl.org/dc/dcmitype/StillImage" />
      </cc:Work>
    </rdf:RDF>
  </metadata>
  <defs
     id="defs3299">
    <style
       id="current-color-scheme"
       type="text/css">.ColorScheme-Text {color:#d8dee9} .ColorScheme-Highlight {color:#3b4252}</style>
  </defs>
  <path
     id="path5"
     d="m 38.450015,19.571417 h -4.73125 v 12.42701 h 4.73125 c 1.17743,0 2.23229,-0.265994 3.16443,-0.798561 0.93164,-0.53265 1.66089,-1.270675 2.18782,-2.214738 0.52636,-0.944062 0.78978,-2.010273 0.78978,-3.200206 0,-1.189933 -0.26342,-2.256144 -0.78978,-3.200206 -0.52635,-0.944063 -1.25568,-1.682088 -2.18782,-2.214738 -0.93214,-0.532567 -1.987,-0.798561 -3.16443,-0.798561 z m 3.20484,8.410106 c -0.30177,0.618527 -0.73082,1.093622 -1.28724,1.424872 -0.55641,0.33125 -1.20442,0.496378 -1.94402,0.496378 h -2.28148 v -8.237276 h 2.28148 c 0.7396,0 1.38761,0.165625 1.94402,0.496875 0.55642,0.331747 0.98547,0.806428 1.28724,1.424872 0.30169,0.618526 0.45282,1.350423 0.45282,2.197181 0,0.846758 -0.15113,1.578572 -0.45282,2.197098 z m -8.83195,13.954404 H 19.572903 v 2.484375 H 32.822905 Z M 22.015292,31.372695 c -0.967333,-0.558984 -1.728131,-1.328643 -2.281485,-2.307901 -0.55327,-0.979258 -0.830195,-2.072383 -0.830195,-3.279872 0,-1.207489 0.276428,-2.300614 0.830195,-3.279872 0.553354,-0.979258 1.313655,-1.748917 2.281485,-2.307902 0.967415,-0.558984 2.049112,-0.838973 3.24418,-0.838973 1.19515,0 2.268068,0.279492 3.235401,0.838973 0.967333,0.558985 1.726641,1.328644 2.276842,2.307902 0.55021,0.979258 0.82556,2.072383 0.82556,3.279872 0,1.207489 -0.27535,2.300614 -0.82556,3.279872 -0.550201,0.979258 -1.309509,1.748917 -2.276842,2.307901 -0.631528,0.364955 -1.310425,0.610908 -2.036691,0.737777 v 0.05615 c 0,0.183264 0.03578,0.341684 0.106663,0.474681 0.07089,0.132997 0.17283,0.233945 0.306406,0.301686 0.132997,0.06782 0.291417,0.102025 0.475096,0.102025 h 1.518118 v 1.792891 h -1.997354 c -0.538778,0 -1.010313,-0.10509 -1.415597,-0.315268 l -4.97e-4,0.0011 c -0.405285,-0.210178 -0.716328,-0.507724 -0.932138,-0.892305 -0.216389,-0.384581 -0.324045,-0.8374 -0.324045,-1.358125 l -7.45e-4,-0.140533 c -0.779928,-0.118918 -1.508182,-0.372242 -2.178797,-0.760053 z m 5.223978,-1.846222 c 0.585898,-0.369509 1.044431,-0.881953 1.375681,-1.535592 0.33125,-0.653722 0.496875,-1.389179 0.496875,-2.205959 0,-0.816697 -0.165625,-1.551658 -0.496875,-2.205959 -0.33125,-0.65364 -0.789783,-1.165586 -1.375681,-1.535593 -0.585898,-0.369592 -1.245831,-0.554843 -1.979219,-0.554843 -0.73347,0 -1.394894,0.184754 -1.983939,0.554843 -0.588962,0.370007 -1.050642,0.881953 -1.384459,1.535593 -0.334397,0.653721 -0.501596,1.389262 -0.501596,2.205959 0,0.81678 0.167199,1.552237 0.501596,2.205959 0.334314,0.653639 0.795994,1.166083 1.384459,1.535592 0.589045,0.370089 1.249972,0.554844 1.983939,0.554844 0.733885,0 1.393817,-0.184754 1.979219,-0.554844 z M 35.506595,5.5 c -0.66714,0 -1.32043,0.194803 -1.87784,0.561248 l -8.049963,5.292237 -0.07278,-0.06308 C 24.886987,10.75989 24.098783,10.468748 23.28366,10.468748 h -9.398895 c -1.886577,0 -3.416016,1.529439 -3.416016,3.416016 v 7.402984 l -3.428955,2.2547 C 6.078643,24.174392 5.499995,25.2472 5.499995,26.397217 v 28.686767 c 0,1.886552 1.529439,3.416016 3.416016,3.416016 h 28.261384 c 1.37311,0 2.61338,-0.823143 3.14752,-2.088104 l 1.76947,-4.192383 0.53375,0.465821 c 0.62258,0.544989 1.42222,0.845916 2.24985,0.845916 h 1.21146 8.93954 0.055 c 1.88656,0 3.41602,-1.529464 3.41602,-3.416016 V 39.708679 c 0,-0.165625 -0.0113,-0.330882 -0.0356,-0.494933 L 53.951775,8.421082 C 53.705985,6.743607 52.268045,5.5 50.572955,5.5 h -0.43831 z m -20.0691,9.9375 h 33.125 v 33.125 h -33.125 z"
     style="fill:currentColor;fill-opacity:1;stroke-width:0.828125"
     class="ColorScheme-Text" />
</svg>
