<?xml version='1.0' encoding='UTF-8'?>
<svg xmlns:inkscape="http://www.inkscape.org/namespaces/inkscape" xmlns:sodipodi="http://sodipodi.sourceforge.net/DTD/sodipodi-0.dtd" xmlns="http://www.w3.org/2000/svg" xmlns:svg="http://www.w3.org/2000/svg" xmlns:rdf="http://www.w3.org/1999/02/22-rdf-syntax-ns#" xmlns:cc="http://creativecommons.org/ns#" xmlns:dc="http://purl.org/dc/elements/1.1/" width="64" height="64" version="1.1" viewBox="0 0 16.933 16.933" id="svg7" sodipodi:docname="qps.svg" inkscape:version="1.4.2 (ebf0e940d0, 2025-05-08)">
  <sodipodi:namedview id="namedview7" pagecolor="#9c4444" bordercolor="#000000" borderopacity="0.25" inkscape:showpageshadow="2" inkscape:pageopacity="0.0" inkscape:pagecheckerboard="0" inkscape:deskcolor="#d1d1d1" inkscape:zoom="4.3531261" inkscape:cx="15.965538" inkscape:cy="42.842775" inkscape:window-width="1226" inkscape:window-height="669" inkscape:window-x="0" inkscape:window-y="0" inkscape:window-maximized="0" inkscape:current-layer="svg7" showgrid="false"/>
  <defs id="defs2">
    <style id="current-color-scheme" type="text/css">.ColorScheme-Text {color:#d8dee9} .ColorScheme-Highlight {color:#3b4252}</style>
  </defs>
  <metadata id="metadata2">
    <rdf:RDF>
      <cc:Work rdf:about="">
        <dc:format>image/svg+xml</dc:format>
        <dc:type rdf:resource="http://purl.org/dc/dcmitype/StillImage"/>
      </cc:Work>
    </rdf:RDF>
  </metadata>
  <path style="fill:currentColor;fill-opacity:1;stroke:none;stroke-width:0.342745;stroke-linecap:round;stroke-linejoin:round;stroke-dasharray:none;stroke-opacity:0.3" d="M 7.8758371,2.8726229 A 0.84225672,0.8764432 0 0 0 7.0023591,3.466082 L 5.6722585,7.5896218 H 1.9004436 a 0.84217249,0.87635556 0 0 0 -0.842131,0.8763133 0.84217249,0.87635556 0 0 0 0.842131,0.8768 h 4.3772149 a 0.84225672,0.8764432 0 0 0 0.7986207,-0.59784 L 7.4786316,7.4971223 8.2987743,13.314382 a 0.84225672,0.8764432 0 0 0 1.631865,0.151901 L 11.26074,9.3427421 h 3.771815 A 0.84217249,0.87635556 0 0 0 15.874687,8.4659351 0.84217249,0.87635556 0 0 0 15.032555,7.5896218 H 10.655341 A 0.84225672,0.8764432 0 0 0 9.8567173,8.1874623 L 9.4543663,9.4352361 8.6342233,3.6179758 A 0.84225672,0.8764432 0 0 0 7.8758371,2.8726229 Z" id="path8" class="ColorScheme-Text"/>
  <g aria-label="Terminal" id="text2284" style="font-size:1.76385px;opacity:1;fill:#999999;stroke-width:0.529156" transform="matrix(0.9593074,0,0,0.9593074,-0.91999214,-0.54196056)"/>
</svg>
