<?xml version="1.0" encoding="UTF-8" standalone="no"?>
<svg
   width="64"
   height="64"
   version="1.1"
   viewBox="0 0 16.933 16.933"
   id="svg7"
   sodipodi:docname="qzdl.svg"
   inkscape:version="1.4.3 (0d15f75042, 2025-12-25)"
   xmlns:inkscape="http://www.inkscape.org/namespaces/inkscape"
   xmlns:sodipodi="http://sodipodi.sourceforge.net/DTD/sodipodi-0.dtd"
   xmlns="http://www.w3.org/2000/svg"
   xmlns:svg="http://www.w3.org/2000/svg"
   xmlns:rdf="http://www.w3.org/1999/02/22-rdf-syntax-ns#"
   xmlns:cc="http://creativecommons.org/ns#"
   xmlns:dc="http://purl.org/dc/elements/1.1/">
  <sodipodi:namedview
     id="namedview7"
     pagecolor="#9c4444"
     bordercolor="#000000"
     borderopacity="0.25"
     inkscape:showpageshadow="2"
     inkscape:pageopacity="0.0"
     inkscape:pagecheckerboard="0"
     inkscape:deskcolor="#d1d1d1"
     inkscape:zoom="4.3531262"
     inkscape:cx="90.165086"
     inkscape:cy="34.457995"
     inkscape:window-width="2560"
     inkscape:window-height="1388"
     inkscape:window-x="0"
     inkscape:window-y="0"
     inkscape:window-maximized="1"
     inkscape:current-layer="svg7"
     showgrid="false" />
  <defs
     id="defs2">
    <style
       id="current-color-scheme"
       type="text/css">.ColorScheme-Text {color:#d8dee9} .ColorScheme-Highlight {color:#3b4252}</style>
  </defs>
  <metadata
     id="metadata2">
    <rdf:RDF>
      <cc:Work
         rdf:about="">
        <dc:format>image/svg+xml</dc:format>
        <dc:type
           rdf:resource="http://purl.org/dc/dcmitype/StillImage" />
      </cc:Work>
    </rdf:RDF>
  </metadata>
  <path
     id="path5"
     style="fill:currentColor"
     d="m 3.5092495,1.4551797 c -1.137955,0 -2.05407,0.9161154 -2.05407,2.0540704 V 13.42375 c 0,1.137955 0.916115,2.05407 2.05407,2.05407 h 9.9144995 c 1.137955,0 2.054071,-0.916115 2.054071,-2.05407 V 3.5092501 c 0,-1.137955 -0.916116,-2.0540704 -2.054071,-2.0540704 z m 7.4805065,1.8811594 c 0.654908,0.027134 1.171168,0.1212492 1.698219,0.3097154 1.495096,0.5346252 2.435026,1.7762034 2.350547,3.1051765 -0.03992,0.62804 -0.288398,1.1639868 -0.742996,1.6019341 l -0.116746,0.112332 0.116746,0.1127332 c 0.222853,0.2146895 0.376045,0.4238617 0.506296,0.6908418 0.4418,0.9055679 0.273074,2.0150439 -0.438094,2.8797099 -0.145581,0.177004 -0.385998,0.40507 -0.586934,0.556846 l -0.164486,0.124367 v 0.285645 0.286045 l -0.665568,0.0036 -0.665165,0.004 -0.199389,0.04734 c -0.469611,0.11132 -1.125246,0.166524 -1.628012,0.137208 C 9.8972705,13.56138 9.3887565,13.427838 8.9116155,13.189057 l -0.207012,-0.103506 -0.123966,0.06178 c -0.162837,0.08175 -0.284811,0.129802 -0.435688,0.170905 -0.300174,0.08178 -0.0351,0.07536 -3.290926,0.08024 l -2.966366,0.0044 v -0.546814 -0.546414 l 1.022622,-1.301848 1.022221,-1.3014457 -1.022221,-0.00361 -1.022622,-0.00321 V 9.0825181 8.4650935 l 2.953529,0.00361 c 2.762533,0.00351 2.960909,0.00526 3.066261,0.026478 0.458061,0.092272 0.843984,0.2976488 1.135356,0.6037844 0.191721,0.2014352 0.327729,0.41477 0.444112,0.6964582 0.04646,0.1124368 0.04877,0.1149398 0.103506,0.1303852 0.03073,0.00867 0.06874,0.019841 0.08465,0.024874 l 0.02889,0.00923 V 9.2129035 8.4654947 h 0.1019 0.101902 l 0.0048,-0.4529386 c 0.0054,-0.5278227 0.0061,-0.5324622 0.1259725,-0.6523277 0.117361,-0.1173616 0.130185,-0.1199483 0.603383,-0.1259723 0.46115,-0.00587 0.4175,0.00368 0.623844,-0.136002 0.169961,-0.1150577 0.325773,-0.2761996 0.387545,-0.4011856 0.0437,-0.088418 0.04965,-0.1116558 0.04934,-0.1913654 C 11.702175,6.3875127 11.669018,6.3145613 11.571862,6.2184541 11.351974,6.0009395 10.995637,5.9492168 10.691661,6.090877 10.459628,6.19901 10.267587,6.4064995 10.103122,6.726355 10.029472,6.8695861 9.9681365,6.93632 9.8692295,6.9807068 c -0.0641,0.028769 -0.09744,0.035464 -0.164486,0.034101 -0.09955,-0.00201 -2.317929,-0.4028601 -2.411125,-0.4356877 -0.04276,-0.015065 -0.08741,-0.046085 -0.134799,-0.093476 C 7.0374365,6.3642611 7.0123595,6.2325898 7.0681495,6.009838 7.2855635,5.1418187 7.8891275,4.3410901 8.6845265,3.8655009 9.3449005,3.4706468 10.092922,3.2991792 10.989739,3.3363371 Z m -0.03852,0.8136045 c -0.213467,-0.0081 -0.41752,-0.00569 -0.567678,0.00923 -0.9450015,0.093884 -1.7003385,0.5383472 -2.1880655,1.2870037 -0.09933,0.1524785 -0.224647,0.4026239 -0.217844,0.4320768 7.3e-5,2.054e-4 7.19e-4,0.00103 7.77e-4,0.00121 v 4.108e-4 l 4.1e-4,4.108e-4 h 4.11e-4 c 0.0081,0.00503 0.311132,0.062883 0.673591,0.1287805 0.362457,0.065898 0.697672,0.1271491 0.745002,0.1360019 l 0.08626,0.016049 0.06299,-0.097889 c 0.185572,-0.2879873 0.4726945,-0.5500875 0.7626545,-0.6964583 0.112289,-0.056684 0.320485,-0.1235303 0.461363,-0.1480374 0.165889,-0.028858 0.486744,-0.019747 0.642699,0.018053 0.657518,0.1593773 1.105524,0.6689125 1.10647,1.2585192 1.27e-4,0.079495 -0.0033,0.166369 -0.008,0.1929703 -0.08931,0.5086831 -0.491488,0.9665863 -1.132948,1.2910154 l -0.1352,0.068603 -0.255555,0.00441 -0.255957,0.00481 v 0.2042036 0.2042033 h 0.102704 0.102704 v 0.2058082 0.2058082 h 0.129181 c 0.152777,0 0.224612,0.020637 0.38554,0.1107273 0.468242,0.2621296 0.761389,0.5407649 0.931151,0.8854167 0.100426,0.2038825 0.127137,0.3173025 0.127578,0.5399955 2.88e-4,0.143807 -0.0053,0.200915 -0.02728,0.284441 -0.150875,0.571961 -0.722493,0.997929 -1.382084,1.029442 l -0.164085,0.0076 v 0.21664 0.216641 h 1.098447 1.098045 l 0.126398,-0.09468 c 0.551148,-0.413019 0.879403,-0.934343 0.956425,-1.518889 0.01882,-0.142844 0.0089,-0.42765 -0.01926,-0.5568456 C 14.089635,9.4996694 13.773158,9.106477 13.281371,8.8594867 13.087841,8.7622899 13.00329,8.6388566 13.002948,8.4526844 c -1.82e-4,-0.099673 0.04099,-0.1995654 0.11153,-0.2703991 0.02498,-0.025081 0.117992,-0.085141 0.20661,-0.1335948 C 13.523065,7.9382546 13.669992,7.8283836 13.7989,7.6916353 14.003159,7.4749552 14.133624,7.2236107 14.19808,6.9229638 14.23302,6.75999 14.23059,6.4356543 14.19288,6.2517801 13.97609,5.1951772 12.974647,4.4119552 11.574711,4.2045021 11.387742,4.1767951 11.164736,4.1580391 10.951269,4.1499411 Z m -8.6519615,4.72717 v 0.205407 0.2058084 h 1.234047 c 0.678776,0 1.234046,0.00317 1.234046,0.00722 0,0.00405 -0.555054,0.714405 -1.233645,1.578264 l -1.234048,1.570641 v 0.273207 l -3.99e-4,0.273208 h 1.542558 1.542559 v -0.205806 -0.205407 l -1.23806,-0.0032 -1.238058,-0.0036 1.238058,-1.574253 1.238059,-1.5746531 V 9.1503211 8.8771136 h -1.542559 z m 3.907949,0 v 2.0572804 2.057681 l 0.806784,-0.0048 c 0.767507,-0.0045 0.812053,-0.006 0.91711,-0.03169 0.347993,-0.08522 0.60813,-0.218804 0.820024,-0.421245 0.278202,-0.265793 0.431962,-0.58119 0.512314,-1.051909 0.0312,-0.182777 0.03093,-0.722844 -4.11e-4,-0.934763 C 9.1713655,9.9277627 8.9395675,9.4903135 8.5497365,9.2012713 8.4228905,9.1072214 8.1882515,8.9905155 8.0394285,8.9477218 7.8008745,8.8791265 7.7664745,8.8771131 6.9578315,8.8771131 Z m 3.9083495,0 v 2.0568784 2.056879 h 1.542558 1.542559 V 12.785063 12.579254 H 11.86394 10.526788 V 10.728184 8.8771136 H 10.32098 Z M 6.6188395,9.288329 h 0.536385 c 0.416115,1.6e-6 0.558721,0.00439 0.633473,0.018856 0.505859,0.097854 0.881901,0.4943069 1.016604,1.071968 0.05173,0.221835 0.06618,0.360711 0.0666,0.638286 4.31e-4,0.28873 -0.01462,0.41311 -0.07422,0.619832 -0.132963,0.461196 -0.451242,0.780769 -0.904272,0.907081 -0.09241,0.02576 -0.133528,0.02769 -0.686429,0.03209 l -0.588137,0.0044 v -1.646065 z m -0.846902,0.3024939 c -0.02077,0.022013 -1.888738,2.3999771 -1.986672,2.5290741 l -0.0365,0.04814 h 1.023424 1.023826 v -1.301446 c 0,-1.2693102 -7.4e-4,-1.3005016 -0.02407,-1.2757701 z m 1.258118,0.1091225 0.0012,0.4978716 c 7.59e-4,0.323553 0.0027,0.43884 0.0096,0.452938 v 4.11e-4 l 4.1e-4,4.11e-4 v 4.11e-4 h 4.12e-4 4.11e-4 4.1e-4 4.11e-4 v -4.11e-4 h 4.11e-4 c 0.0015,-0.0016 0.0033,-0.0063 0.0052,-0.01324 0.0089,-0.03182 0.02831,-0.08184 0.04333,-0.111129 0.03064,-0.05977 0.110077,-0.133366 0.180534,-0.166893 0.02577,-0.01226 0.262574,-0.0654 0.525954,-0.11835 0.293684,-0.05905 0.478614,-0.102137 0.478614,-0.111128 0,-0.0263 -0.109674,-0.1661409 -0.182539,-0.2326875 -0.03918,-0.035765 -0.111601,-0.086028 -0.160893,-0.1119309 -0.150345,-0.079005 -0.199314,-0.086255 -0.57209,-0.086255 z m 3.9079485,0 v 0.6122096 0.61261 l 0.115942,-0.008 c 0.07165,-0.0051 0.156001,-0.0217 0.221455,-0.04333 0.28987,-0.0958 0.462763,-0.31222 0.418837,-0.52435 C 11.661037,10.188726 11.493763,9.98708 11.265772,9.8327381 11.111492,9.7282961 11.052239,9.6999458 10.990158,9.6999458 Z M 7.0428935,10.779536 c -0.005,-0.04596 -0.01023,0.247536 -0.01123,0.652327 l -0.0016,0.736176 h 0.322955 0.322954 l -0.02083,-0.02889 c -0.094743,-0.131326 -0.228665,-0.343347 -0.292503,-0.462968 -0.162758,-0.30498 -0.29563,-0.677556 -0.319745,-0.89665 z m 1.418591,0.167294 c -0.01773,0 -0.486633,0.09232 -0.491051,0.09669 -0.0026,0.0025 0.02717,0.07167 0.0666,0.153654 0.06778,0.140971 0.268995,0.461937 0.30089,0.481824 4.72e-4,2.47e-4 0.0012,3.29e-4 0.0016,4.11e-4 h 4.11e-4 4.1e-4 4.11e-4 4.11e-4 c 2.06e-4,-9.4e-5 9.31e-4,-6.57e-4 0.0012,-8e-4 0.0068,-0.0051 0.01928,-0.02746 0.02928,-0.05376 0.03946,-0.103653 0.07102,-0.251699 0.08465,-0.397173 0.01452,-0.154975 0.01703,-0.266723 0.0072,-0.280028 h -4.1e-4 v -4.11e-4 h -4.11e-4 l -4.12e-4,-4.11e-4 h -4.1e-4 z m 1.232844,0.375109 v 4.1e-4 h -4.1e-4 v 4.11e-4 l -4.12e-4,4.11e-4 c -0.0023,0.0046 -0.0051,0.02677 -0.0088,0.06058 -0.04412,0.399145 -0.148666,0.746421 -0.303698,1.007377 -0.03094,0.05207 -0.04591,0.08808 -0.04133,0.09869 8.7e-5,1.63e-4 6.99e-4,0.001 7.76e-4,0.0012 l 4.11e-4,4.11e-4 c 0.01466,0.01466 0.324133,0.138805 0.347025,0.139211 0.01268,2.26e-4 0.01559,-0.146982 0.01444,-0.69726 -9.31e-4,-0.438533 -0.0019,-0.598256 -0.0072,-0.611006 h -4.1e-4 v -4.11e-4 z"
     class="ColorScheme-Text" />
</svg>
