<?xml version='1.0' encoding='UTF-8'?>
<svg xmlns:inkscape="http://www.inkscape.org/namespaces/inkscape" xmlns:sodipodi="http://sodipodi.sourceforge.net/DTD/sodipodi-0.dtd" xmlns="http://www.w3.org/2000/svg" xmlns:svg="http://www.w3.org/2000/svg" xmlns:rdf="http://www.w3.org/1999/02/22-rdf-syntax-ns#" xmlns:cc="http://creativecommons.org/ns#" xmlns:dc="http://purl.org/dc/elements/1.1/" width="64" height="64" version="1.1" viewBox="0 0 16.933 16.933" id="svg7" sodipodi:docname="redeclipse.svg" inkscape:version="1.4 (e7c3feb100, 2024-10-09)">
  <sodipodi:namedview id="namedview7" pagecolor="#9c4444" bordercolor="#000000" borderopacity="0.25" inkscape:showpageshadow="2" inkscape:pageopacity="0.0" inkscape:pagecheckerboard="0" inkscape:deskcolor="#d1d1d1" inkscape:zoom="6.15625" inkscape:cx="15.837563" inkscape:cy="27.370558" inkscape:window-width="1183" inkscape:window-height="940" inkscape:window-x="35" inkscape:window-y="32" inkscape:window-maximized="0" inkscape:current-layer="svg7" showgrid="false"/>
  <defs id="defs2">
    <style id="current-color-scheme" type="text/css">.ColorScheme-Text {color:#d8dee9} .ColorScheme-Highlight {color:#3b4252}</style></defs>
  <metadata id="metadata2">
    <rdf:RDF>
      <cc:Work rdf:about="">
        <dc:format>image/svg+xml</dc:format>
        <dc:type rdf:resource="http://purl.org/dc/dcmitype/StillImage"/>
      </cc:Work>
    </rdf:RDF>
  </metadata>
  <path id="path99" style="fill:currentColor;stroke-width:0.163313" d="m 6.7889585,0.95737642 -0.0049,0.46047958 c -0.00697,0.6664098 -0.3919037,1.3186018 -0.7785934,1.3186018 -0.094158,0 -0.3386304,-0.147098 -0.5429535,-0.3269505 C 5.2467737,2.2196154 4.9187526,2.0317174 4.6799813,1.9608097 4.1755742,1.8110196 4.0440241,1.8077773 3.8562235,1.9451003 3.717742,2.0463608 3.7235693,2.0764416 3.9671702,2.4723445 c 0.1419319,0.2306677 0.2651644,0.5222478 0.2739316,0.64801 0.015827,0.227114 0.012407,0.2288876 -0.4742252,0.225821 C 3.4974099,3.344469 2.8735698,3.3171549 2.3795468,3.2862841 1.866448,3.2542171 1.5916189,3.2592426 1.7393921,3.2980658 2.1109806,3.3956945 2.7064988,3.762404 2.9058091,4.0157861 3.423281,4.6736444 3.1099877,5.1542984 2.0653603,5.3049325 1.7801418,5.3460608 1.5862742,5.4376499 1.3721863,5.6338466 L 1.074691,5.9067957 1.4006592,5.9588331 C 2.197747,6.0878567 2.5106511,6.4193898 2.3363465,6.9475389 2.2125605,7.3226137 2.0746853,7.4086972 1.5832805,7.4207822 1.1772737,7.4307663 1.1525384,7.4439439 1.1277101,7.6603496 1.0814402,8.0636213 1.5480433,8.9044407 2.1547068,9.5111042 2.6472026,10.0036 3.9488803,10.952071 4.0260807,10.87487 4.0424999,10.858452 3.9309169,10.636471 3.7776768,10.38199 3.2376213,9.4851394 3.0161551,8.0716695 3.2435598,6.9661935 3.2925171,6.7281995 3.4785024,6.2274495 3.6569116,5.8537771 4.5798363,3.9207428 6.7542709,2.8380154 8.9175722,3.233265 9.4618644,3.3327108 10.580922,3.838248 10.952912,4.1522606 L 11.19837,4.3584454 10.460031,4.3122991 C 9.4578368,4.249313 8.5609976,4.4344458 7.6048618,4.9004172 6.3402197,5.5167384 5.5417954,6.3140137 4.9048212,7.5955483 3.8507893,9.7161661 4.1635436,12.065847 5.75607,13.986299 c 0.6617713,0.79804 2.0251846,1.596859 3.155611,1.848791 0.7871218,0.175427 2.096619,0.122284 2.858116,-0.115862 1.001718,-0.313251 1.652257,-0.709445 2.410399,-1.467841 1.050886,-1.051238 1.517443,-1.978597 1.733917,-3.445251 C 16.078653,9.6914104 15.768535,8.2261591 15.143375,7.1596091 14.525411,6.1053394 13.044087,4.9031064 12.003473,4.611753 11.709757,4.5295172 11.647067,4.4772007 11.647067,4.3152392 c 0,-0.2834504 0.343696,-0.9175714 0.690228,-1.273437 0.456633,-0.4689287 0.179132,-0.4817575 -0.584189,-0.027491 -0.50461,0.3003062 -0.706807,0.3750655 -1.006379,0.3750655 -0.527116,0 -0.645864,-0.1142236 -0.683356,-0.6607734 C 10.046124,2.4771775 9.9771936,2.1672086 9.9102049,2.0393563 L 9.7884581,1.8066618 9.6156553,2.1463763 C 9.520304,2.3332806 9.3705181,2.5241139 9.2837955,2.5705281 9.1034209,2.6670597 8.3855302,2.6819587 8.2489441,2.5921281 8.1987748,2.5591325 8.0195396,2.3117686 7.8503197,2.0423015 7.4777081,1.4489516 7.2628644,1.2036472 6.9931798,1.0634145 Z" class="ColorScheme-Text"/>
</svg>
