<?xml version='1.0' encoding='UTF-8'?>
<svg xmlns:inkscape="http://www.inkscape.org/namespaces/inkscape" xmlns:sodipodi="http://sodipodi.sourceforge.net/DTD/sodipodi-0.dtd" xmlns="http://www.w3.org/2000/svg" xmlns:svg="http://www.w3.org/2000/svg" xmlns:rdf="http://www.w3.org/1999/02/22-rdf-syntax-ns#" xmlns:cc="http://creativecommons.org/ns#" xmlns:dc="http://purl.org/dc/elements/1.1/" width="64" height="64" version="1.1" viewBox="0 0 16.933 16.933" id="svg7" sodipodi:docname="repoman.svg" inkscape:version="1.4.2 (ebf0e940d0, 2025-05-08)">
  <sodipodi:namedview id="namedview7" pagecolor="#9c4444" bordercolor="#000000" borderopacity="0.25" inkscape:showpageshadow="2" inkscape:pageopacity="0.0" inkscape:pagecheckerboard="0" inkscape:deskcolor="#d1d1d1" inkscape:zoom="4.3531261" inkscape:cx="16.195258" inkscape:cy="43.072494" inkscape:window-width="1183" inkscape:window-height="941" inkscape:window-x="0" inkscape:window-y="0" inkscape:window-maximized="0" inkscape:current-layer="svg7" showgrid="false"/>
  <defs id="defs2">
    <style id="current-color-scheme" type="text/css">.ColorScheme-Text {color:#d8dee9} .ColorScheme-Highlight {color:#3b4252}</style>
  </defs>
  <metadata id="metadata2">
    <rdf:RDF>
      <cc:Work rdf:about="">
        <dc:format>image/svg+xml</dc:format>
        <dc:type rdf:resource="http://purl.org/dc/dcmitype/StillImage"/>
      </cc:Work>
    </rdf:RDF>
  </metadata>
  <path id="path3310" style="fill:currentColor;fill-opacity:1;text-indent:0;text-decoration-line:none;text-transform:none;stroke-width:0.909091" class="ColorScheme-Text" d="M 38.729222 16.6062 C 38.372177 16.626768 38.01364 16.677657 37.659094 16.76993 C 34.268185 17.652657 32.235067 21.099178 33.119612 24.467359 C 33.305067 25.170996 33.646976 25.810909 34.032431 26.381818 C 33.835158 26.414545 31.074598 31.100012 31.074598 31.100012 L 37.272778 31.141747 L 38.732432 29.113854 C 39.423341 29.1684 40.151827 29.151793 40.860917 28.967247 C 44.251827 28.08452 46.283875 24.637998 45.399329 21.269817 C 45.214784 20.56618 44.873035 19.926267 44.48758 19.355358 L 42.015585 23.547049 A 1.8 1.8 0 0 1 39.54894 24.189126 L 37.95766 23.265606 A 1.7727273 1.7727273 0 0 1 37.314513 20.815013 L 39.786508 16.622252 C 39.441054 16.594979 39.086268 16.585632 38.729222 16.6062 z M 23.132109 17.856109 C 23.113075 17.855797 23.094644 17.856752 23.076462 17.86039 C 22.65828 17.94584 22.271025 18.098477 21.88648 18.258477 C 21.85557 19.393022 22.043645 20.879817 21.601826 21.269817 C 21.16819 21.653453 19.716585 21.33203 18.594767 21.21203 A 6.6 6.6 0 0 0 18.027599 22.576443 C 18.894872 23.296443 20.098099 24.100901 20.12719 24.678174 C 20.15537 25.26181 18.989567 26.142035 18.197749 26.951126 C 18.385022 27.420217 18.65234 27.848662 18.935067 28.257752 C 20.039612 28.028662 21.416319 27.5782 21.88541 27.916381 C 22.363592 28.261836 22.366567 29.74464 22.509294 30.871004 C 22.962022 31.007368 23.440102 31.062577 23.928284 31.098941 C 24.439193 30.090759 24.958172 28.69877 25.516354 28.542406 C 26.08999 28.380588 27.266193 29.375193 28.239829 29.962466 A 6.7636364 6.7636364 0 0 0 29.317448 28.99721 C 28.856539 27.956301 28.00892 26.647324 28.239829 26.098234 C 28.470738 25.549143 30.010213 25.244688 31.075668 24.848325 C 31.082968 24.714688 31.133455 24.586761 31.133455 24.451307 C 31.133455 24.103125 31.070928 23.761901 31.020021 23.428265 C 29.920021 23.135537 28.356043 22.989213 28.069679 22.46194 C 27.785134 21.938304 28.509168 20.533488 28.863714 19.45167 A 6.6927273 6.6927273 0 0 0 27.672661 18.598778 C 26.76357 19.280596 25.702812 20.408037 25.118266 20.303492 C 24.543721 20.201674 23.916056 18.813117 23.303329 17.86039 C 23.248782 17.869937 23.18921 17.857047 23.132109 17.856109 z M 24.211868 21.269817 C 25.903687 21.269817 27.274574 22.643329 27.274574 24.337874 C 27.274574 26.03242 25.903687 27.40593 24.211868 27.40593 C 22.52005 27.40593 21.148092 26.03242 21.148092 24.337874 C 21.148092 22.643329 22.52005 21.269817 24.211868 21.269817 z M 21.986002 32.914948 L 22.000984 43.823832 C 22.000984 44.860196 22.8379 45.641979 23.816991 45.641979 L 38.348257 45.641979 C 39.298257 45.641979 40.154632 44.832719 40.154632 43.937265 L 40.140721 32.914948 L 21.986002 32.914948 z M 29.258591 33.824557 L 32.894885 33.824557 L 32.894885 38.36939 L 34.599599 38.36939 L 31.076738 42.915293 L 27.553877 38.36939 L 29.258591 38.36939 L 29.258591 33.824557 z M 27.844952 43.823832 L 34.308524 43.823832 C 34.532161 43.823832 34.713032 44.004703 34.713032 44.22834 L 34.713032 44.328932 A 0.40454545 0.40454545 0 0 1 34.308524 44.73344 L 27.844952 44.73344 A 0.40454545 0.40454545 0 0 1 27.440444 44.328932 L 27.440444 44.22834 C 27.440444 44.004703 27.621316 43.823832 27.844952 43.823832 z " transform="matrix(0.48289011,0,0,0.48289011,-6.946835,-6.5276173)"/>
</svg>
