<?xml version="1.0" encoding="UTF-8" standalone="no"?>
<svg
   id="svg3297"
   height="64"
   width="64"
   version="1.0"
   sodipodi:docname="rider.svg"
   inkscape:version="1.4.3 (0d15f75042, 2025-12-25)"
   xmlns:inkscape="http://www.inkscape.org/namespaces/inkscape"
   xmlns:sodipodi="http://sodipodi.sourceforge.net/DTD/sodipodi-0.dtd"
   xmlns="http://www.w3.org/2000/svg"
   xmlns:svg="http://www.w3.org/2000/svg"
   xmlns:rdf="http://www.w3.org/1999/02/22-rdf-syntax-ns#"
   xmlns:cc="http://creativecommons.org/ns#"
   xmlns:dc="http://purl.org/dc/elements/1.1/">
  <sodipodi:namedview
     id="namedview1"
     pagecolor="#9c4444"
     bordercolor="#000000"
     borderopacity="0.25"
     inkscape:showpageshadow="2"
     inkscape:pageopacity="0.0"
     inkscape:pagecheckerboard="0"
     inkscape:deskcolor="#d1d1d1"
     inkscape:zoom="3.2734375"
     inkscape:cx="40.782816"
     inkscape:cy="33.298329"
     inkscape:window-width="2560"
     inkscape:window-height="1388"
     inkscape:window-x="0"
     inkscape:window-y="0"
     inkscape:window-maximized="1"
     inkscape:current-layer="svg3297" />
  <metadata
     id="metadata58">
    <rdf:RDF>
      <cc:Work
         rdf:about="">
        <dc:format>image/svg+xml</dc:format>
        <dc:type
           rdf:resource="http://purl.org/dc/dcmitype/StillImage" />
      </cc:Work>
    </rdf:RDF>
  </metadata>
  <defs
     id="defs3299">
    <style
       id="current-color-scheme"
       type="text/css">.ColorScheme-Text {color:#d8dee9} .ColorScheme-Highlight {color:#3b4252}</style>
  </defs>
  <path
     id="path5"
     style="fill:currentColor;fill-opacity:1;stroke-width:0.828125"
     d="m 35.43016,5.5 c -0.66631,0 -1.31677,0.197682 -1.87137,0.567719 l -7.72809,5.157989 -0.11159,-0.09705 c -0.61149,-0.523739 -1.38975,-0.811951 -2.19486,-0.811951 h -9.833986 c -1.86271,0 -3.373963,1.509636 -3.373963,3.372346 v 7.891449 l -3.314117,2.211029 c -0.937621,0.625897 -1.500977,1.67763 -1.500977,2.804626 L 5.49959,55.127655 C 5.49959,56.990356 7.009225,58.5 8.871935,58.5 H 37.00231 c 1.3491,0 2.56921,-0.80473 3.10062,-2.044434 l 1.92797,-4.499695 1.06589,0.912232 c 0.6114,0.524203 1.38925,0.81195 2.19485,0.811951 h 0.002 1.07559 0.002 c 0.0351,0.0011 0.0698,0.0017 0.10513,0.0017 H 55.128 c 0.93135,0 1.77376,-0.379529 2.38409,-0.989868 0.38177,-0.382029 0.67227,-0.854048 0.83622,-1.382904 0.0325,-0.104621 0.0618,-0.211538 0.0841,-0.320251 v -0.0017 -0.0017 c 0.0223,-0.10874 0.0386,-0.219295 0.0502,-0.331573 v -0.0017 -0.0017 c 0.0114,-0.112319 0.0176,-0.225975 0.0178,-0.341278 v -0.0032 -9.52829 -1.311737 c 0,-0.159414 -0.0118,-0.319053 -0.034,-0.477142 L 54.09604,8.395102 C 53.85782,6.733413 52.43564,5.5 50.75694,5.5 h -0.44803 z m -19.99307,9.9375 h 33.125 v 33.125 h -33.125 z m 4.21826,4.140625 V 32 h 2.42291 V 27.309449 H 24.1696 L 26.84322,32 h 2.77713 l -2.95828,-4.975219 c 0.0606,-0.0193 0.1226,-0.03736 0.18438,-0.055 0.13921,-0.03983 0.27857,-0.07927 0.40436,-0.137481 0.67443,-0.332741 1.19201,-0.787346 1.55274,-1.374818 0.36653,-0.587969 0.54992,-1.264499 0.54992,-2.041198 0,-0.776698 -0.17949,-1.43061 -0.54022,-2.007232 -0.3551,-0.576542 -0.86428,-1.032479 -1.52686,-1.353791 -0.66258,-0.321724 -1.429,-0.47714 -2.29837,-0.47714 z m 11.74579,0 V 32 h 4.72937 c 1.17693,0 2.2301,-0.266693 3.15884,-0.799011 0.93446,-0.532402 1.66494,-1.263605 2.19163,-2.206177 0.5261,-0.953917 0.7893,-2.019378 0.7893,-3.205749 0,-1.186372 -0.2632,-2.251939 -0.7893,-3.194428 -0.52669,-0.942572 -1.25717,-1.68518 -2.19163,-2.217499 -0.92874,-0.532401 -1.98191,-0.799011 -3.15884,-0.799011 z m -9.32288,2.018555 h 2.75126 c 0.40826,0 0.76249,0.07758 1.06426,0.221588 0.30757,0.155439 0.5446,0.36615 0.71006,0.643738 0.16538,0.27709 0.24746,0.599966 0.24746,0.976928 0,0.37688 -0.0816,0.698115 -0.24746,0.986634 -0.16587,0.277091 -0.40249,0.488795 -0.71006,0.643737 -0.30177,0.154942 -0.656,0.221589 -1.06426,0.221589 h -2.75126 z m 11.7458,0.07764 h 2.27896 c 0.7391,0 1.38806,0.165926 1.94414,0.498169 0.55617,0.321727 0.98401,0.799343 1.28587,1.420105 0.30176,0.62126 0.45287,1.353276 0.45287,2.196473 0,0.843196 -0.15111,1.575213 -0.45287,2.196472 -0.30186,0.621259 -0.7297,1.096678 -1.28587,1.418487 -0.55608,0.333155 -1.20504,0.499787 -1.94414,0.499787 h -2.27896 z m -14.2512,20.263184 v 2.484375 h 13.25 V 41.9375 Z"
     class="ColorScheme-Text" />
</svg>
