<?xml version="1.0" encoding="UTF-8" standalone="no"?>
<!-- Created with Inkscape (http://www.inkscape.org/) -->

<svg
   width="64"
   version="1.1"
   height="64"
   id="svg1"
   sodipodi:docname="rkward.svg"
   inkscape:version="1.4.2 (ebf0e940d0, 2025-05-08)"
   xmlns:inkscape="http://www.inkscape.org/namespaces/inkscape"
   xmlns:sodipodi="http://sodipodi.sourceforge.net/DTD/sodipodi-0.dtd"
   xmlns="http://www.w3.org/2000/svg"
   xmlns:svg="http://www.w3.org/2000/svg">
  <sodipodi:namedview
     id="namedview1"
     pagecolor="#9c4444"
     bordercolor="#000000"
     borderopacity="0.25"
     inkscape:showpageshadow="2"
     inkscape:pageopacity="0.0"
     inkscape:pagecheckerboard="0"
     inkscape:deskcolor="#d1d1d1"
     inkscape:zoom="5.6568543"
     inkscape:cx="53.386562"
     inkscape:cy="-16.263456"
     inkscape:window-width="2560"
     inkscape:window-height="1388"
     inkscape:window-x="0"
     inkscape:window-y="0"
     inkscape:window-maximized="1"
     inkscape:current-layer="svg1" />
  <defs
     id="defs5455">
    <style
       id="current-color-scheme"
       type="text/css">.ColorScheme-Text {color:#d8dee9} .ColorScheme-Highlight {color:#3b4252}</style>
  </defs>
  <metadata
     id="metadata5458" />
  <path
     id="path5"
     style="fill:currentColor;fill-opacity:1;stroke-width:2.35667;stroke-linecap:round;stroke-linejoin:round"
     d="m 32.128231,12.461809 v 28.486734 c 3.063373,0.160393 6.544407,-0.461561 8.725632,-1.370488 v -6.129592 h 2.451098 c 1.417453,0 2.545916,0.31925 3.390453,0.93751 3.105258,3.505665 2.487799,11.8629 2.487799,11.8629 h 9.266854 c 0.353785,-4.751649 -1.212591,-12.197019 -3.425303,-13.95441 -0.935005,-0.965123 -2.017534,-1.568649 -3.208821,-1.840162 2.171531,-0.678609 3.796645,-1.739441 4.867347,-3.172124 1.085827,-1.432567 1.623555,-3.284942 1.623677,-5.516817 -1.22e-4,-3.227229 -1.02135,-5.57594 -3.102412,-7.068938 -1.265711,-0.914604 -3.140334,-1.447317 -5.300329,-1.801634 l -2.882239,5.837882 c 0.534139,0.311323 0.993413,0.702562 1.403513,1.049424 0.799185,0.663609 1.190685,1.74222 1.190685,3.280369 0,1.553266 -0.3915,2.675147 -1.190685,3.353756 -0.784306,0.678723 -2.105063,1.009177 -3.929844,1.009061 h -3.641793 l 0.0055,-14.963471 z m -4.814143,10.877687 c -5.857548,0 -11.166792,1.231109 -15.106573,3.306053 -1.969898,1.037588 -3.5972452,2.285326 -4.7829588,3.761049 C 6.238854,31.882322 5.5,33.633959 5.5,35.539973 v 3.797742 c 0,1.906014 0.738854,3.657649 1.9245562,5.133373 1.1857136,1.475723 2.8130608,2.725412 4.7829588,3.762883 3.939781,2.074945 9.249025,3.30422 15.106573,3.30422 5.857427,0 11.166811,-1.229275 15.106574,-3.30422 1.969938,-1.037471 3.595371,-2.28716 4.781115,-3.762883 0.377288,-0.4696 0.709647,-0.966344 0.987045,-1.487907 -0.01916,-0.394181 -0.04828,-0.812053 -0.08802,-1.242063 -0.100792,-1.089607 -0.290493,-2.246695 -0.583418,-3.322568 -2.169258,4.940634 -10.393786,8.619225 -20.203262,8.619225 -11.463644,0 -20.7646569,-5.024818 -20.7646569,-11.215266 0,-0.115519 0.031515,-0.228684 0.062382,-0.341246 0.7156381,4.514821 7.5565559,8.189392 16.4825679,9.087062 0.05955,0.006 0.112684,0.01991 0.172455,0.02568 h 0.0019 0.0019 0.0019 c 1.307587,0.125479 2.658637,0.192639 4.041747,0.192639 1.381833,0 2.729784,-0.06739 4.036253,-0.192639 h 0.0019 0.0019 c 0.03166,-0.003 0.06012,-0.0097 0.09177,-0.01284 7.571168,-0.744519 13.655361,-3.488895 15.800073,-7.05059 -0.320316,-0.926272 -0.730265,-1.74821 -1.236563,-2.352031 -0.490084,-0.343143 -1.108943,-0.588591 -1.941071,-0.680659 0.647584,0.618447 1.123747,1.273264 1.442044,1.920887 -0.540715,0.979662 -1.64437,2.246427 -3.498693,3.306054 -0.05815,0.03322 -0.116808,0.06629 -0.176127,0.09907 -0.07364,0.305452 -0.28759,0.564501 -0.58525,0.691665 -2.670943,1.119053 -7.763517,1.688664 -10.132817,1.399842 v -0.106411 c -2.803184,-0.26621 -5.128861,-1.064813 -6.894651,-2.049315 -1.93428,-1.078435 -3.047385,-2.392866 -3.500525,-3.340912 0.385056,-1.147899 1.609426,-2.53718 3.733529,-3.584921 1.836739,-0.906037 4.169114,-1.564086 6.661647,-1.801635 v -1.273254 c -5.810469,0.515438 -10.451847,3.210229 -11.648253,6.65981 -0.195929,-0.565063 -0.321059,-1.122484 -0.321059,-1.722743 0,-4.264387 5.202581,-7.789685 11.969312,-8.384388 v -2.794178 c -1.235112,-0.116651 -2.505604,-0.177961 -3.803347,-0.177961 z m 14.548838,3.023517 v 0.0532 h 0.110082 c -0.03654,-0.01819 -0.07336,-0.03516 -0.110082,-0.0532 z"
     class="ColorScheme-Text" />
</svg>
