<?xml version="1.0" encoding="UTF-8" standalone="no"?>
<!-- Created with Inkscape (http://www.inkscape.org/) -->

<svg
   width="64"
   height="64"
   id="svg4700"
   version="1.1"
   inkscape:version="1.4.2 (ebf0e940d0, 2025-05-08)"
   viewBox="0 0 64 64"
   inkscape:export-filename="/home/qball/Desktop/rofi-large.png"
   inkscape:export-xdpi="180"
   inkscape:export-ydpi="180"
   sodipodi:docname="rofi.svg"
   xmlns:inkscape="http://www.inkscape.org/namespaces/inkscape"
   xmlns:sodipodi="http://sodipodi.sourceforge.net/DTD/sodipodi-0.dtd"
   xmlns="http://www.w3.org/2000/svg"
   xmlns:svg="http://www.w3.org/2000/svg"
   xmlns:rdf="http://www.w3.org/1999/02/22-rdf-syntax-ns#"
   xmlns:cc="http://creativecommons.org/ns#"
   xmlns:dc="http://purl.org/dc/elements/1.1/">
  <defs
     id="defs4702" />
  <style
     type="text/css"
     id="current-color-scheme">.ColorScheme-Text { color:#d8dee9; }</style>
  <sodipodi:namedview
     id="base"
     pagecolor="#9c4444"
     bordercolor="#666666"
     borderopacity="1.0"
     inkscape:pageopacity="0.0"
     inkscape:pageshadow="2"
     inkscape:zoom="8"
     inkscape:cx="0.375"
     inkscape:cy="25.125"
     inkscape:current-layer="svg4700"
     showgrid="true"
     inkscape:document-units="px"
     inkscape:grid-bbox="true"
     showguides="true"
     inkscape:guide-bbox="true"
     inkscape:window-width="2560"
     inkscape:window-height="1392"
     inkscape:window-x="0"
     inkscape:window-y="0"
     inkscape:window-maximized="1"
     inkscape:showpageshadow="2"
     inkscape:pagecheckerboard="0"
     inkscape:deskcolor="#d1d1d1" />
  <metadata
     id="metadata4705">
    <rdf:RDF>
      <cc:Work
         rdf:about="">
        <dc:format>image/svg+xml</dc:format>
        <dc:type
           rdf:resource="http://purl.org/dc/dcmitype/StillImage" />
      </cc:Work>
    </rdf:RDF>
  </metadata>
  <path
     id="rect1"
     style="fill:currentColor;stroke-width:0.312993;stroke-linejoin:bevel;paint-order:fill markers stroke"
     d="M 13.78125,9.692383 C 9.1934375,9.692383 5.5,13.38582 5.5,17.973633 v 36.333984 h 53 V 17.973633 c 0,-4.587813 -3.693438,-8.28125 -8.28125,-8.28125 z m 17.777191,11.567871 c 3.729821,0 6.709106,2.589893 6.709106,5.853485 0,3.289495 -2.979218,5.853486 -6.786742,5.853486 -3.807525,0 -6.785126,-2.563991 -6.785126,-5.853486 0,-3.315396 2.977533,-5.853485 6.862762,-5.853485 z m -21.036316,0.646973 h 5.563965 c 3.318651,0 5.589843,3.678278 5.589843,8.962189 0,3.159985 -0.848628,5.594638 -2.620238,7.511352 1.072947,1.916712 2.071558,4.351502 3.019744,7.356079 h 0.274964 c 0.673712,0 0.922426,0.103152 1.1969,0.517578 0.324379,0.466227 0.549926,1.348215 0.549926,2.177063 0,0.932456 -0.250972,1.812689 -0.650207,2.330719 -0.199619,0.207212 -0.597574,0.362304 -1.096619,0.362304 h -2.02179 l -0.0744,-0.310546 C 18.956694,45.996282 16.784955,40.867393 15.786866,40.142151 H 13.49173 v 5.594696 h 0.773131 c 0.698665,0 0.924043,0.103152 1.198518,0.517578 0.349331,0.518031 0.548309,1.348215 0.548309,2.177063 0,0.932456 -0.249353,1.812689 -0.64859,2.330719 -0.199618,0.207212 -0.574238,0.362304 -1.098237,0.362304 h -3.742736 c -1.1478046,0 -1.746826,-0.931719 -1.746826,-2.693023 0,-0.932454 0.2493534,-1.814352 0.6485901,-2.280579 0.2495228,-0.310824 0.4744299,-0.414062 1.0982359,-0.414062 h 0.274964 V 27.243133 h -0.274964 c -0.6487592,0 -0.9224253,-0.103154 -1.1968992,-0.517578 C 9.0008456,26.259328 8.775299,25.430762 8.775299,24.55011 c 0,-0.880652 0.2493534,-1.762548 0.6485901,-2.280579 0.2495228,-0.310809 0.4245245,-0.362304 1.0982359,-0.362304 z m 31.125855,0 h 11.021178 c 1.021843,0 1.350242,0.104772 1.75168,0.519195 0.510921,0.518032 0.803863,1.29484 0.803863,2.123688 0,0.932456 -0.365523,1.812689 -0.949432,2.330719 -0.32845,0.259007 -0.76674,0.362304 -1.606111,0.362304 h -3.53894 v 18.545472 h 3.53894 c 0.985348,0 1.350242,0.103152 1.75168,0.517578 0.510921,0.518031 0.803863,1.296456 0.803863,2.125305 0,1.813108 -0.876802,2.693023 -2.555543,2.693023 H 41.64798 c -1.678741,0 -2.553925,-0.879915 -2.553925,-2.693023 0,-0.880652 0.363905,-1.762548 0.947815,-2.280579 0.364944,-0.310821 0.657256,-0.362304 1.60611,-0.362304 h 3.540557 V 27.243133 H 41.64798 c -0.948854,0 -1.350241,-0.103154 -1.751679,-0.517578 -0.510921,-0.466227 -0.802246,-1.294793 -0.802246,-2.175445 0,-0.880652 0.363905,-1.762548 0.947815,-2.280579 0.364944,-0.310822 0.657256,-0.362304 1.60611,-0.362304 z m -10.218933,2.020172 c -2.201629,0 -3.936828,1.399135 -3.936828,3.18634 0,1.787205 1.735153,3.186341 3.988586,3.186341 2.253432,0 3.990203,-1.399136 3.990203,-3.186341 0,-1.813106 -1.736725,-3.18634 -4.041961,-3.18634 z M 13.49173,27.243133 v 7.563111 h 1.796966 c 2.046087,0 3.542175,-1.709162 3.542175,-4.092102 0,-2.020318 -1.122413,-3.471009 -2.6445,-3.471009 z m 20.310089,8.263459 c 1.113766,0 2.719773,0.180972 3.574524,0.388183 0.751144,0.207212 1.164551,0.648048 1.164551,1.269684 0,0.777047 -0.57032,1.371582 -1.295564,1.371582 -0.181309,0 -0.439647,-0.02583 -0.776366,-0.07764 -0.958357,-0.155402 -2.046946,-0.258789 -2.875794,-0.258789 -1.424584,0 -2.097809,0.363265 -2.097809,1.11441 v 0.802247 h 3.807435 c 0.725243,0 0.958888,0.0516 1.243804,0.23291 0.362621,0.259016 0.569336,0.674106 0.569336,1.088531 0,0.906553 -0.621671,1.347321 -1.81314,1.347321 h -3.807435 v 5.672333 h 3.496887 c 0.725242,0 0.958889,0.05158 1.243805,0.258788 0.362623,0.259015 0.569336,0.646611 0.569336,1.061036 0,0.906553 -0.621669,1.34732 -1.813141,1.34732 h -7.692505 c -0.621637,0 -0.984789,-0.07748 -1.243804,-0.258789 -0.36262,-0.259016 -0.569336,-0.648204 -0.569336,-1.088531 0,-0.440324 0.258427,-0.879656 0.672852,-1.138672 0.259015,-0.155411 0.466848,-0.181152 1.140288,-0.181152 h 1.399079 v -5.672331 h -1.11441 c -1.19147,0 -1.813141,-0.440767 -1.813141,-1.347321 0,-0.466227 0.260044,-0.907174 0.674469,-1.140289 0.259014,-0.15541 0.46521,-0.181152 1.164551,-0.181152 h 1.088531 v -0.802247 c 0,-2.357037 1.968911,-3.807433 5.102997,-3.807432 z"
     class="ColorScheme-Text" />
</svg>
