<?xml version="1.0" encoding="UTF-8" standalone="no"?>
<svg
   width="64"
   height="64"
   version="1.1"
   viewBox="0 0 16.933 16.933"
   id="svg7"
   sodipodi:docname="shelly.svg"
   inkscape:version="1.4.3 (0d15f75042, 2025-12-25)"
   xmlns:inkscape="http://www.inkscape.org/namespaces/inkscape"
   xmlns:sodipodi="http://sodipodi.sourceforge.net/DTD/sodipodi-0.dtd"
   xmlns="http://www.w3.org/2000/svg"
   xmlns:svg="http://www.w3.org/2000/svg"
   xmlns:rdf="http://www.w3.org/1999/02/22-rdf-syntax-ns#"
   xmlns:cc="http://creativecommons.org/ns#"
   xmlns:dc="http://purl.org/dc/elements/1.1/">
  <sodipodi:namedview
     id="namedview7"
     pagecolor="#9c4444"
     bordercolor="#000000"
     borderopacity="0.25"
     inkscape:showpageshadow="2"
     inkscape:pageopacity="0.0"
     inkscape:pagecheckerboard="0"
     inkscape:deskcolor="#d1d1d1"
     inkscape:zoom="4.3531262"
     inkscape:cx="89.935366"
     inkscape:cy="34.457995"
     inkscape:window-width="2560"
     inkscape:window-height="1388"
     inkscape:window-x="0"
     inkscape:window-y="0"
     inkscape:window-maximized="1"
     inkscape:current-layer="svg7"
     showgrid="false" />
  <defs
     id="defs2">
    <style
       id="current-color-scheme"
       type="text/css">.ColorScheme-Text {color:#d8dee9} .ColorScheme-Highlight {color:#3b4252}</style>
  </defs>
  <metadata
     id="metadata2">
    <rdf:RDF>
      <cc:Work
         rdf:about="">
        <dc:format>image/svg+xml</dc:format>
        <dc:type
           rdf:resource="http://purl.org/dc/dcmitype/StillImage" />
      </cc:Work>
    </rdf:RDF>
  </metadata>
  <path
     id="path5"
     style="fill:currentColor"
     d="M 8.5409537,1.7347425 C 7.8414008,1.7352812 7.3671127,2.0435403 7.0733447,2.6883402 6.6989405,3.5101249 6.6872404,5.463891 7.0440897,7.5432898 7.3154253,9.1243924 8.2647138,13.54381 8.3694147,13.713218 8.5130208,13.945578 8.6227632,13.646154 9.0452122,11.868707 9.9684521,7.9841894 10.311891,5.7855929 10.22905,4.2906703 10.164942,3.1337428 9.9419728,2.5146686 9.4262931,2.0618951 9.1241288,1.796591 8.9561768,1.7344132 8.5409518,1.7347425 Z m -2.95472,0.6662452 C 5.3741446,2.4000276 5.1439908,2.4673037 4.8459617,2.6025721 3.4709214,3.2266581 3.6891553,5.4369797 5.5163854,9.3917809 6.1581704,10.78084 7.549218,13.061885 7.6217815,12.844194 7.6461975,12.770956 7.5622728,12.267838 7.4351223,11.726225 7.0614699,10.134671 6.5936444,7.7327265 6.4512769,6.6740681 6.3175687,5.6798081 6.3478905,3.3579036 6.4990336,3.0158902 6.5606833,2.8763876 6.4907765,2.7750098 6.2180487,2.6087409 5.9923441,2.4711355 5.7983189,2.4019344 5.5862308,2.4009877 Z m 5.7659603,6.155e-4 c -0.187306,0.00826 -0.372752,0.055063 -0.54565,0.1444721 -0.305365,0.1579111 -0.344963,0.2238842 -0.283572,0.4738148 0.204331,0.8318881 0.184978,2.706897 -0.04239,4.0941809 -0.193251,1.1791361 -0.9270808,4.696434 -1.1619479,5.56975 -0.098694,0.366975 0.022121,0.296932 0.3743149,-0.217306 1.023117,-1.493858 2.1807,-3.8468486 2.86915,-5.8320291 C 12.986504,5.4106885 13.093126,3.8354282 12.79035,3.2636614 12.491772,2.6998271 11.914115,2.3769299 11.352191,2.4016032 Z M 3.1570666,4.3223266 C 2.7521909,4.3381303 2.1180331,4.7069475 1.8550242,5.2142342 1.4504494,5.9945731 1.9762989,7.431869 3.2060206,8.9072358 4.7516101,10.761568 6.8829411,13.077795 6.9666824,12.994055 6.9949869,12.965741 6.7259182,12.461762 6.3688923,11.874095 4.7887901,9.2732418 3.518248,6.0395829 3.518248,4.6190316 3.518248,4.40262 3.3691451,4.3140474 3.1570666,4.3223266 Z m 10.3092814,0.074823 -0.08855,0.7062432 c -0.191863,1.5302831 -1.363776,4.4127383 -2.666172,6.5575752 -0.429685,0.707619 -0.7812654,1.306688 -0.7812654,1.331296 0,0.188511 0.3733934,-0.176147 1.7129734,-1.672775 3.014869,-3.3683246 3.55808,-4.1965249 3.55808,-5.4262732 0,-0.6354433 -0.02477,-0.7021577 -0.399388,-1.076777 -0.33056,-0.330561 -0.48,-0.4010756 -0.867432,-0.4093394 z M 1.3348441,7.3856984 c -0.1361227,0.0047 -0.2837554,0.083195 -0.46665009,0.2270565 -0.95322595,0.7498079 -0.76651428,1.9369966 0.48256969,3.0673531 0.68122,0.616469 1.7482633,1.284059 4.0527896,2.53563 1.3403125,0.727916 1.7012317,0.884751 1.7012317,0.739278 0,-0.03313 -0.5912708,-0.69943 -1.3137833,-1.480545 C 3.9187311,10.450344 2.4756274,8.7398406 2.0269584,8.0129395 1.7562778,7.5744026 1.5617143,7.3777899 1.3348441,7.3856984 Z m 14.2442639,0.00298 c -0.207682,0.00202 -0.387255,0.1881195 -0.614902,0.5675413 -0.429996,0.7166759 -1.646383,2.1719723 -3.552708,4.2503953 -1.330376,1.450476 -1.6119279,1.808492 -1.4220402,1.808492 0.032452,0 0.9112122,-0.464038 1.9527662,-1.031406 2.373196,-1.292754 3.002437,-1.694855 3.732204,-2.384192 0.713975,-0.6744203 0.993994,-1.1995826 0.993994,-1.8638144 0,-0.4430725 -0.05254,-0.5585939 -0.421875,-0.9279267 -0.27915,-0.279151 -0.48419,-0.420859 -0.667439,-0.4190895 z m -4.094579,6.4108996 c -0.245009,0.0021 -2.246341,1.081103 -2.1619123,1.165531 0.216521,0.216522 2.4327343,0.323369 2.7859693,0.134324 0.31867,-0.170548 0.459133,-0.500911 0.321978,-0.757188 -0.13146,-0.245635 -0.653806,-0.545231 -0.946035,-0.542667 z m -6.0642599,0.0026 c -0.1195483,-0.0019 -0.3793431,0.09523 -0.5772924,0.215913 -0.3043505,0.185558 -0.3547994,0.273248 -0.3261578,0.567741 0.0236,0.242675 0.1163318,0.389682 0.305661,0.484958 0.289072,0.145468 1.4866071,0.172146 2.2592218,0.05035 0.2562683,-0.0404 0.4724437,-0.12231 0.4805807,-0.182083 0.018886,-0.138718 -1.8528165,-1.132146 -2.1420133,-1.136875 z"
     class="ColorScheme-Text" />
</svg>
