<?xml version='1.0' encoding='UTF-8'?>
<svg xmlns:inkscape="http://www.inkscape.org/namespaces/inkscape" xmlns:sodipodi="http://sodipodi.sourceforge.net/DTD/sodipodi-0.dtd" xmlns="http://www.w3.org/2000/svg" xmlns:svg="http://www.w3.org/2000/svg" xmlns:rdf="http://www.w3.org/1999/02/22-rdf-syntax-ns#" xmlns:cc="http://creativecommons.org/ns#" xmlns:dc="http://purl.org/dc/elements/1.1/" width="64" height="64" version="1.1" viewBox="0 0 16.933 16.933" id="svg7" sodipodi:docname="simplenote.svg" inkscape:version="1.4 (e7c3feb100, 2024-10-09)">
  <sodipodi:namedview id="namedview7" pagecolor="#9c4444" bordercolor="#000000" borderopacity="0.25" inkscape:showpageshadow="2" inkscape:pageopacity="0.0" inkscape:pagecheckerboard="0" inkscape:deskcolor="#d1d1d1" inkscape:zoom="6.15625" inkscape:cx="15.51269" inkscape:cy="29.725888" inkscape:window-width="1183" inkscape:window-height="941" inkscape:window-x="35" inkscape:window-y="32" inkscape:window-maximized="0" inkscape:current-layer="svg7" showgrid="false"/>
  <defs id="defs2">
    <style id="current-color-scheme" type="text/css">.ColorScheme-Text {color:#d8dee9} .ColorScheme-Highlight {color:#3b4252}</style></defs>
  <metadata id="metadata2">
    <rdf:RDF>
      <cc:Work rdf:about="">
        <dc:format>image/svg+xml</dc:format>
        <dc:type rdf:resource="http://purl.org/dc/dcmitype/StillImage"/>
      </cc:Work>
    </rdf:RDF>
  </metadata>
  <path d="m 8.445358,1.4531802 c -0.9268403,0 -2.317119,0.934254 -2.317119,2.8028358 0,3.2700189 7.414942,1.4014373 7.414942,8.408398 0,0.192932 -0.01254,0.387268 -0.03152,0.581102 1.20813,-1.296332 1.884317,-3.006999 1.885197,-4.7854113 0.0023,-3.8697074 -3.112323,-7.0069982 -6.9510291,-7.0069982 z M 3.3759625,3.6786765 C 2.1701514,4.9745287 1.4953908,6.6838306 1.4940376,8.4600306 c -0.00232,3.8697084 3.1123218,7.0069994 6.951028,7.0069994 0.9268401,0 2.3171204,-0.934255 2.3171204,-2.802836 0,-4.6714562 -7.4149439,-2.335729 -7.4149439,-8.408399 0,-0.1929323 0.010678,-0.3853846 0.028268,-0.5774136 z" stroke-width="0.455153" id="path35" style="fill:currentColor;fill-opacity:1" class="ColorScheme-Text"/>
  <g id="g9" transform="matrix(0.46959567,0,0,0.46959567,4.7471229,3.7470598)" style="fill:#999999;fill-opacity:1;stroke:none;stroke-width:0.58349;stroke-dasharray:none;stroke-opacity:0.3"/>
  </svg>
