<?xml version="1.0" encoding="UTF-8" standalone="no"?>
<svg
   width="64"
   height="64"
   version="1.1"
   viewBox="0 0 16.933 16.933"
   id="svg7"
   sodipodi:docname="smplayer.svg"
   inkscape:version="1.4.2 (ebf0e940d0, 2025-05-08)"
   xmlns:inkscape="http://www.inkscape.org/namespaces/inkscape"
   xmlns:sodipodi="http://sodipodi.sourceforge.net/DTD/sodipodi-0.dtd"
   xmlns="http://www.w3.org/2000/svg"
   xmlns:svg="http://www.w3.org/2000/svg"
   xmlns:rdf="http://www.w3.org/1999/02/22-rdf-syntax-ns#"
   xmlns:cc="http://creativecommons.org/ns#"
   xmlns:dc="http://purl.org/dc/elements/1.1/">
  <sodipodi:namedview
     id="namedview7"
     pagecolor="#9c4444"
     bordercolor="#000000"
     borderopacity="0.25"
     inkscape:showpageshadow="2"
     inkscape:pageopacity="0.0"
     inkscape:pagecheckerboard="0"
     inkscape:deskcolor="#d1d1d1"
     inkscape:zoom="6.15625"
     inkscape:cx="16"
     inkscape:cy="27.28934"
     inkscape:window-width="2560"
     inkscape:window-height="1392"
     inkscape:window-x="0"
     inkscape:window-y="0"
     inkscape:window-maximized="1"
     inkscape:current-layer="svg7"
     showgrid="false" />
  <defs
     id="defs2">
    <style
       id="current-color-scheme"
       type="text/css">.ColorScheme-Text {color:#d8dee9} .ColorScheme-Highlight {color:#3b4252}</style>
  </defs>
  <metadata
     id="metadata2">
    <rdf:RDF>
      <cc:Work
         rdf:about="">
        <dc:format>image/svg+xml</dc:format>
        <dc:type
           rdf:resource="http://purl.org/dc/dcmitype/StillImage" />
      </cc:Work>
    </rdf:RDF>
  </metadata>
  <path
     style="fill:currentColor;stroke-width:0.876415"
     class="ColorScheme-Text"
     d="m 8.4664995,1.4551797 c -3.88427,0 -7.01132,3.1270488 -7.01132,7.0113201 0,3.8842722 3.12705,7.0113202 7.01132,7.0113202 3.8842745,0 7.0113205,-3.127048 7.0113205,-7.0113202 0,-3.8842713 -3.127046,-7.0113201 -7.0113205,-7.0113201 z m 0,0.876415 A 1.7528301,1.7528301 0 0 1 10.219332,4.0844246 1.7528301,1.7528301 0 0 1 8.4664995,5.8372549 1.7528301,1.7528301 0 0 1 6.7136705,4.0844246 1.7528301,1.7528301 0 0 1 8.4664995,2.3315947 Z m -4.382073,4.3820752 a 1.7528301,1.7528301 0 0 1 1.75283,1.7528299 1.7528301,1.7528301 0 0 1 -1.75283,1.7528302 1.7528301,1.7528301 0 0 1 -1.752829,-1.7528302 1.7528301,1.7528301 0 0 1 1.752829,-1.7528299 z m 8.7641495,0 A 1.7528301,1.7528301 0 0 1 14.601405,8.4664998 1.7528301,1.7528301 0 0 1 12.848576,10.21933 1.7528301,1.7528301 0 0 1 11.095747,8.4664998 1.7528301,1.7528301 0 0 1 12.848576,6.7136699 Z M 8.0180405,7.269992 a 0.43820752,0.43820752 0 0 1 0.390275,0.2191053 0.43820752,0.43820752 0 0 1 -0.160391,0.5968387 0.43820752,0.43820752 0 0 1 -0.599466,-0.1586323 0.43820752,0.43820752 0 0 1 0.161252,-0.5994678 0.43820752,0.43820752 0 0 1 0.208588,-0.057843 z m 1.197184,0.3198915 a 0.43820752,0.43820752 0 0 1 0.390275,0.2191053 0.43820752,0.43820752 0 0 1 -0.160888,0.5991087 0.43820752,0.43820752 0 0 1 -0.597714,-0.1612591 0.43820752,0.43820752 0 0 1 0.158636,-0.5994682 0.43820752,0.43820752 0 0 1 0.209449,-0.057843 z m -1.516638,0.8764149 a 0.43820752,0.43820752 0 0 1 0.388566,0.2191054 0.43820752,0.43820752 0 0 1 -0.159199,0.5991087 0.43820752,0.43820752 0 0 1 -0.600344,-0.1612592 0.43820752,0.43820752 0 0 1 0.161252,-0.5994677 0.43820752,0.43820752 0 0 1 0.208589,-0.057843 z m 1.196481,0.3200935 a 0.43820752,0.43820752 0 0 1 0.390276,0.2191054 0.43820752,0.43820752 0 0 1 -0.161253,0.5994677 0.43820752,0.43820752 0 0 1 -0.599466,-0.1612591 0.43820752,0.43820752 0 0 1 0.161252,-0.5968386 0.43820752,0.43820752 0 0 1 0.208589,-0.060473 z m -0.428568,2.3093531 a 1.7528301,1.7528301 0 0 1 1.7528325,1.75283 1.7528301,1.7528301 0 0 1 -1.7528325,1.752831 1.7528301,1.7528301 0 0 1 -1.752829,-1.752831 1.7528301,1.7528301 0 0 1 1.752829,-1.75283 z"
     id="path1" />
</svg>
