<?xml version="1.0" encoding="UTF-8" standalone="no"?>
<svg
   width="64"
   height="64"
   version="1.1"
   viewBox="0 0 16.933 16.933"
   id="svg7"
   sodipodi:docname="stacer.svg"
   inkscape:version="1.4.2 (ebf0e940d0, 2025-05-08)"
   xmlns:inkscape="http://www.inkscape.org/namespaces/inkscape"
   xmlns:sodipodi="http://sodipodi.sourceforge.net/DTD/sodipodi-0.dtd"
   xmlns="http://www.w3.org/2000/svg"
   xmlns:svg="http://www.w3.org/2000/svg"
   xmlns:rdf="http://www.w3.org/1999/02/22-rdf-syntax-ns#"
   xmlns:cc="http://creativecommons.org/ns#"
   xmlns:dc="http://purl.org/dc/elements/1.1/">
  <sodipodi:namedview
     id="namedview7"
     pagecolor="#9c4444"
     bordercolor="#000000"
     borderopacity="0.25"
     inkscape:showpageshadow="2"
     inkscape:pageopacity="0.0"
     inkscape:pagecheckerboard="0"
     inkscape:deskcolor="#d1d1d1"
     inkscape:zoom="6.15625"
     inkscape:cx="15.918782"
     inkscape:cy="40.446701"
     inkscape:window-width="2560"
     inkscape:window-height="1376"
     inkscape:window-x="0"
     inkscape:window-y="0"
     inkscape:window-maximized="1"
     inkscape:current-layer="svg7"
     showgrid="false" />
  <defs
     id="defs2">
    <style
       id="current-color-scheme"
       type="text/css">.ColorScheme-Text {color:#d8dee9} .ColorScheme-Highlight {color:#3b4252}</style>
  </defs>
  <metadata
     id="metadata2">
    <rdf:RDF>
      <cc:Work
         rdf:about="">
        <dc:format>image/svg+xml</dc:format>
        <dc:type
           rdf:resource="http://purl.org/dc/dcmitype/StillImage" />
      </cc:Work>
    </rdf:RDF>
  </metadata>
  <path
     id="path10"
     class="ColorScheme-Text"
     style="fill:currentColor;fill-opacity:1;stroke-width:0.291036"
     d="m 27.667017,-4.23325 c -3.295982,0 -5.971611,2.675629 -5.971611,5.9716111 0,1.3955173 0.479324,2.6796886 1.282584,3.6968593 0.434807,-0.3376017 0.908059,-0.7058804 1.381283,-1.0743319 -0.572467,-0.720605 -0.914138,-1.6318411 -0.914138,-2.6225274 0,-2.33003377 1.891848,-4.2218815 4.221882,-4.2218815 0.711292,0 1.381392,0.1766981 1.969867,0.4878158 0.298021,-0.5471475 0.58985,-1.0793536 0.843342,-1.5342428 C 29.641461,-3.9790158 28.684188,-4.23325 27.667017,-4.23325 Z m -0.147792,4.38620937 v 0.45267672 c -0.444513,0.0584636 -0.832211,0.37747157 -0.955478,0.83714161 -0.01321,0.049249 -0.02297,0.098562 -0.02945,0.1477918 h -0.453194 v 0.2955834 h 0.453194 c 0.05841,0.444581 0.377417,0.8321966 0.837141,0.9554783 0.04918,0.013158 0.09864,0.022992 0.147792,0.029455 v 0.4526765 h 0.295583 V 2.8710863 c 0.444804,-0.058339 0.832383,-0.3772905 0.955479,-0.8371419 0.0132,-0.049251 0.02297,-0.098563 0.02945,-0.1477915 h 0.452677 V 1.5905695 H 28.799742 C 28.741393,1.1458087 28.42238,0.75816773 27.9626,0.63509096 27.91333,0.62187796 27.86403,0.61210786 27.814808,0.60563606 V 0.15295937 Z"
     transform="matrix(1.208468,0,0,1.208468,-24.968205,7.7152495)" />
  <path
     id="path11"
     class="ColorScheme-Text"
     style="opacity:0.3;fill:currentColor;fill-opacity:1;stroke-width:0.291036"
     d="m 30.480226,-3.5294308 c -0.253476,0.454863 -0.545347,0.986625 -0.843342,1.5337262 1.338796,0.7082861 2.252014,2.11528622 2.252014,3.7340657 0,0.9999995 -0.348602,1.9188744 -0.930674,2.6426808 l 1.364231,1.0955187 c 0.823341,-1.0232824 1.316173,-2.3234738 1.316173,-3.7381995 0,-2.27901663 -1.279331,-4.261371 -3.158402,-5.2677919 z"
     transform="matrix(1.208468,0,0,1.208468,-24.968205,7.7152495)" />
</svg>
