<?xml version='1.0' encoding='UTF-8'?>
<!-- Created with Inkscape (http://www.inkscape.org/) -->
<svg xmlns:inkscape="http://www.inkscape.org/namespaces/inkscape" xmlns:sodipodi="http://sodipodi.sourceforge.net/DTD/sodipodi-0.dtd" xmlns="http://www.w3.org/2000/svg" xmlns:svg="http://www.w3.org/2000/svg" width="64" height="64" viewBox="0 0 64 64" version="1.1" id="svg1" inkscape:version="1.4.2 (ebf0e940d0, 2025-05-08)" sodipodi:docname="start-here.svg">
  <sodipodi:namedview id="namedview1" pagecolor="#505050" bordercolor="#000000" borderopacity="0.25" inkscape:showpageshadow="2" inkscape:pageopacity="0.0" inkscape:pagecheckerboard="0" inkscape:deskcolor="#d1d1d1" inkscape:document-units="px" inkscape:zoom="11.787767" inkscape:cx="9.0772069" inkscape:cy="42.501688" inkscape:window-width="2560" inkscape:window-height="1376" inkscape:window-x="0" inkscape:window-y="0" inkscape:window-maximized="1" inkscape:current-layer="svg1" showborder="false"/>
  <defs id="defs1">
    <style id="current-color-scheme" type="text/css">.ColorScheme-Text {color:#d8dee9} .ColorScheme-Highlight {color:#3b4252}</style>
  </defs>
  <path id="path4422" style="fill:currentColor;fill-opacity:1;stroke-width:0.882983" class="ColorScheme-Text" d="M 27.878621 -2.5785706 L 22.580316 2.7197348 L 32.586544 12.725963 L 22.580316 22.734354 L 27.878621 28.032659 L 43.183155 12.725963 L 27.878621 -2.5785706 z M 8.4522224 -1.9903506 C 6.8216396 -1.9903506 5.5089597 -0.67767064 5.5089597 0.95291215 C 5.5089597 2.5834949 6.8216396 3.8961749 8.4522224 3.8961749 C 10.082805 3.8961749 11.395485 2.5834949 11.395485 0.95291215 C 11.395485 -0.67767064 10.082805 -1.9903506 8.4522224 -1.9903506 z M 1.3870944 15.081006 C -0.89571392 15.081006 -2.7326084 16.9179 -2.7326084 19.200708 C -2.7326084 21.483517 -0.89571392 23.322574 1.3870944 23.322574 L 1.389257 23.322574 C 3.6720653 23.322574 5.5089597 21.483517 5.5089597 19.200708 C 5.5089597 16.9179 3.6720653 15.081006 1.389257 15.081006 L 1.3870944 15.081006 z M 14.926968 32.152362 C 11.665802 32.152362 9.0404425 34.777722 9.0404425 38.038887 C 9.0404425 41.300053 11.665802 43.925413 14.926968 43.925413 C 18.188133 43.925413 20.813493 41.300053 20.813493 38.038887 C 20.813493 34.777722 18.188133 32.152362 14.926968 32.152362 z " transform="matrix(0.90314844,0,0,0.90314844,13.733576,13.328832)"/>
</svg>
