<?xml version='1.0' encoding='UTF-8'?>
<svg xmlns:inkscape="http://www.inkscape.org/namespaces/inkscape" xmlns:sodipodi="http://sodipodi.sourceforge.net/DTD/sodipodi-0.dtd" xmlns="http://www.w3.org/2000/svg" xmlns:svg="http://www.w3.org/2000/svg" xmlns:rdf="http://www.w3.org/1999/02/22-rdf-syntax-ns#" xmlns:cc="http://creativecommons.org/ns#" xmlns:dc="http://purl.org/dc/elements/1.1/" width="64" height="64" version="1.1" viewBox="0 0 16.933 16.933" id="svg7" sodipodi:docname="steam_icon_1669000.svg" inkscape:version="1.4 (e7c3feb100, 2024-10-09)">
  <sodipodi:namedview id="namedview7" pagecolor="#9c4444" bordercolor="#000000" borderopacity="0.25" inkscape:showpageshadow="2" inkscape:pageopacity="0.0" inkscape:pagecheckerboard="0" inkscape:deskcolor="#d1d1d1" inkscape:zoom="4.3531261" inkscape:cx="35.951175" inkscape:cy="39.741555" inkscape:window-width="1183" inkscape:window-height="941" inkscape:window-x="35" inkscape:window-y="32" inkscape:window-maximized="0" inkscape:current-layer="svg7" showgrid="false"/>
  <defs id="defs2">
    <style id="current-color-scheme" type="text/css">.ColorScheme-Text {color:#d8dee9} .ColorScheme-Highlight {color:#3b4252}</style></defs>
  <metadata id="metadata2">
    <rdf:RDF>
      <cc:Work rdf:about="">
        <dc:format>image/svg+xml</dc:format>
        <dc:type rdf:resource="http://purl.org/dc/dcmitype/StillImage"/>
      </cc:Work>
    </rdf:RDF>
  </metadata>
  <g id="g1" transform="matrix(0.06556911,0,0,0.06556911,-0.07240188,2.8667404)" style="fill:currentColor" class="ColorScheme-Text">
    <path d="m 252.59,84.22 c -22.12,3.78 -38.96,23.03 -38.96,46.23 0,2.63 0.23,5.21 0.65,7.73 -1.7,-0.12 -3.42,-0.19 -5.15,-0.19 -25.16,0 -42.24,13.63 -49.13,34.01 h -60 c -6.64,-20.38 -23.97,-34.01 -49.13,-34.01 -1.73,0 -3.45,0.07 -5.15,0.19 0.42,-2.52 0.65,-5.1 0.65,-7.73 C 46.37,107.25 29.53,88 7.41,84.22 18.52,74.91 25.59,60.94 25.59,45.31 25.59,27.28 16.18,11.44 2,2.46 5.24,2.15 8.53,2 11.85,2 42.9,2 70.8,15.46 90.03,36.88 83.73,46.99 80,59.56 80,73.18 c 0,20.74 8.188,39.615 21.83,49.92 4.51,3.407 9.144,2.374 11.898,-0.304 2.828,-2.75 2.825,-7.778 -0.338,-11.076 -9.915,-10.34 -14.48,-15.96 -14.16,-30.52 0.11,-5.28 2.14,-10.29 5.05,-14.55 -1.57,-0.17 -3.21,-0.77 -4.71,-2.18 -4.75,-4.48 -3.92,-11.86 -3.87,-12.23 4.32,5.28 11.4,7.23 17.7,5.17 0.15,-0.11 0.3,-0.21 0.45,-0.32 -9.93,-7.24 -7.53,-18.66 -7.44,-19.07 3.48,8.62 11.88,14.03 20.89,13.97 9.81,-1.18 17.33,2.83 17.33,2.83 0,0 2.12,-4.22 2.12,-10.55 0,0 5.25,5.09 9.08,13.76 2.64,5.97 3.05,11.89 6.44,15.88 l 4.89,4.69 c 1.27,1.21 1.29,3.24 0.03,4.47 l -6.09,6.02 0.61,-5.18 -12.21,-6.11 c 1.35,3.36 5.1,11.59 5.1,11.59 l 3.78,1.63 -4.74,1.77 c -1.74,0.64 -3.69,0.14 -4.9,-1.26 -2.83,-3.3 -11.76,-13.79 -12.23,-14.36 -3.13,-3.83 -10.09,-4.53 -13.21,1.61 -2.2,4.34 0.67,8.25 1.87,9.63 5.84,6.72 26.51,15.42 37.9,30.18 10.44,-11.07 17.03,-27.31 17.03,-45.41 0,-13.66 -3.75,-26.25 -10.07,-36.37 C 189.26,15.44 217.13,2 248.15,2 c 3.32,0 6.61,0.15 9.85,0.46 -14.18,8.98 -23.59,24.82 -23.59,42.85 0,15.63 7.07,29.6 18.18,38.91 z" id="path99" style="fill:currentColor" class="ColorScheme-Text"/>
  </g>
</svg>
