<?xml version='1.0' encoding='UTF-8'?>
<svg xmlns:inkscape="http://www.inkscape.org/namespaces/inkscape" xmlns:sodipodi="http://sodipodi.sourceforge.net/DTD/sodipodi-0.dtd" xmlns="http://www.w3.org/2000/svg" xmlns:svg="http://www.w3.org/2000/svg" xmlns:rdf="http://www.w3.org/1999/02/22-rdf-syntax-ns#" xmlns:cc="http://creativecommons.org/ns#" xmlns:dc="http://purl.org/dc/elements/1.1/" width="64" height="64" version="1.1" viewBox="0 0 16.933 16.933" id="svg7" sodipodi:docname="steam_icon_1575940.svg" inkscape:version="1.4 (e7c3feb100, 2024-10-09)">
  <sodipodi:namedview id="namedview7" pagecolor="#9c4444" bordercolor="#000000" borderopacity="0.25" inkscape:showpageshadow="2" inkscape:pageopacity="0.0" inkscape:pagecheckerboard="0" inkscape:deskcolor="#d1d1d1" inkscape:zoom="4.3531261" inkscape:cx="35.951175" inkscape:cy="39.741555" inkscape:window-width="1183" inkscape:window-height="941" inkscape:window-x="35" inkscape:window-y="32" inkscape:window-maximized="0" inkscape:current-layer="svg7" showgrid="false"/>
  <defs id="defs2">
    <style id="current-color-scheme" type="text/css">.ColorScheme-Text {color:#d8dee9} .ColorScheme-Highlight {color:#3b4252}</style></defs>
  <metadata id="metadata2">
    <rdf:RDF>
      <cc:Work rdf:about="">
        <dc:format>image/svg+xml</dc:format>
        <dc:type rdf:resource="http://purl.org/dc/dcmitype/StillImage"/>
      </cc:Work>
    </rdf:RDF>
  </metadata>
  <path style="fill:currentColor;fill-opacity:1;stroke-width:0.0652321" d="m 6.9908667,15.303581 -0.8503674,-1.165709 0.024101,-1.289184 0.024103,-1.289186 0.8480071,-0.02487 0.8480068,-0.02489 v 2.481938 c 0,1.365064 -0.00978,2.48097 -0.021745,2.479783 -0.01197,-0.0011 -0.4044089,-0.526716 -0.8721115,-1.167856 z M 9.189349,14.012197 v -2.496184 h 0.869751 0.869751 v 1.317068 1.317065 l -0.796905,1.096488 C 9.6936479,15.849708 9.302261,16.380309 9.262195,16.425755 9.222128,16.471205 9.189347,15.385103 9.189349,14.012197 Z M 3.9708451,10.190323 C 3.7694654,10.084761 3.7515425,10.023521 3.7281465,9.3610914 L 3.7028883,8.6458389 H 4.149675 4.5964626 l -0.030138,0.4349303 -0.030134,0.4349282 0.3261559,-5.39e-5 C 5.1883331,9.5155918 5.188503,9.5148814 5.188503,9.1440263 5.188503,8.7934149 5.146819,8.7309879 4.4492145,8.0370162 L 3.7099224,7.3015668 V 6.5883142 c 0,-0.9647926 0.025984,-0.9866019 1.1754447,-0.9866019 1.1024007,0 1.172882,0.058657 1.172882,0.9760782 V 7.1672632 H 5.6233704 5.1884944 V 6.732389 6.2975128 H 4.8566473 4.5248001 l 0.017917,0.3694512 c 0.016568,0.3417695 0.072396,0.421143 0.7449786,1.0593114 l 0.7270614,0.6898596 0.027966,0.745423 c 0.039083,1.041713 -0.00257,1.086359 -1.0428224,1.118028 -0.5444623,0.01657 -0.8831945,-0.01284 -1.0290586,-0.08927 z M 6.667072,7.9500376 V 5.6017123 H 7.0584596 7.4498475 V 7.9500376 10.298366 H 7.0584596 6.667072 Z m 1.3916012,0 V 5.6017123 h 0.3813572 0.381359 l 0.439463,1.1089315 0.4394636,1.1089333 0.00545,-1.1089333 0.00545,-1.1089315 h 0.39138 0.39139 V 7.9500376 10.298366 H 10.156502 9.81903 L 9.3771127,9.1459443 8.9351924,7.9935263 l -0.00338,1.152418 -0.00342,1.1524217 H 8.4935249 8.0586498 Z m 3.3920278,2.2919944 c -0.26647,-0.103451 -0.3479,-0.3282743 -0.3479,-0.9605033 V 8.6458389 h 0.434876 0.434874 v 0.4348735 0.4348794 h 0.326783 0.326783 l -0.03121,-0.392296 C 12.566147,8.7615439 12.506848,8.67502 11.833258,8.0119576 L 11.102801,7.2929093 V 6.6406129 c 0,-0.9884363 0.05699,-1.0389006 1.172883,-1.0389006 1.136069,0 1.175445,0.030803 1.175445,0.919451 v 0.6460999 h -0.445941 -0.44594 l 0.04178,-0.4348742 0.0418,-0.4348762 h -0.335141 -0.33513 v 0.3790367 c 0,0.3634873 0.03032,0.4073706 0.739287,1.0698488 l 0.739288,0.6908154 v 0.7894626 c 0,0.6277353 -0.02945,0.8139177 -0.143621,0.9088347 -0.148276,0.123234 -1.599321,0.206476 -1.8568,0.106521 z M 6.1452218,2.4706103 V 0.55715887 H 7.014972 7.8847231 V 2.4706103 4.3840621 H 7.014972 6.1452218 Z m 3.0441272,0 V 0.55715887 H 10.0591 10.928851 V 2.4706103 4.3840621 H 10.0591 9.189349 Z" id="path1-9" sodipodi:nodetypes="ccccccscccscccccssscscccccssscssscccccccsscssccccccccccccccccccccccccccccccccssccccccccccssscccccccsscscsscccccccccccccccccc" class="ColorScheme-Text"/>
</svg>
