<?xml version='1.0' encoding='UTF-8'?>
<svg xmlns:inkscape="http://www.inkscape.org/namespaces/inkscape" xmlns:sodipodi="http://sodipodi.sourceforge.net/DTD/sodipodi-0.dtd" xmlns="http://www.w3.org/2000/svg" xmlns:svg="http://www.w3.org/2000/svg" xmlns:rdf="http://www.w3.org/1999/02/22-rdf-syntax-ns#" xmlns:cc="http://creativecommons.org/ns#" xmlns:dc="http://purl.org/dc/elements/1.1/" width="64" height="64" version="1.1" viewBox="0 0 16.933 16.933" id="svg7" sodipodi:docname="steam_icon_1096530.svg" inkscape:version="1.4 (e7c3feb100, 2024-10-09)">
  <sodipodi:namedview id="namedview7" pagecolor="#9c4444" bordercolor="#000000" borderopacity="0.25" inkscape:showpageshadow="2" inkscape:pageopacity="0.0" inkscape:pagecheckerboard="0" inkscape:deskcolor="#d1d1d1" inkscape:zoom="4.3531261" inkscape:cx="35.951175" inkscape:cy="39.741555" inkscape:window-width="1183" inkscape:window-height="941" inkscape:window-x="35" inkscape:window-y="32" inkscape:window-maximized="0" inkscape:current-layer="svg7" showgrid="false"/>
  <defs id="defs2">
    <style id="current-color-scheme" type="text/css">.ColorScheme-Text {color:#d8dee9} .ColorScheme-Highlight {color:#3b4252}</style></defs>
  <metadata id="metadata2">
    <rdf:RDF>
      <cc:Work rdf:about="">
        <dc:format>image/svg+xml</dc:format>
        <dc:type rdf:resource="http://purl.org/dc/dcmitype/StillImage"/>
      </cc:Work>
    </rdf:RDF>
  </metadata>
  <path style="fill:currentColor;fill-opacity:1;stroke:none;stroke-width:0.447904;stroke-dasharray:none;stroke-opacity:0.3" d="M 7.081148,15.93888 7.2946094,15.711664 6.7440807,15.599848 C 5.5010344,15.347389 4.3000078,14.667518 3.1854545,13.585399 2.820622,13.231184 2.4387607,12.948451 2.2772993,12.912985 c -0.3834831,-0.08424 -0.350576,-0.234752 0.051322,-0.234752 0.1814652,0 0.3299336,-0.02037 0.3299336,-0.04524 0,-0.02489 -0.1661037,-0.26468 -0.3691215,-0.532916 C 1.3778477,10.895666 0.9635008,9.5670044 0.95841621,7.831971 0.95600207,7.0220107 0.91610834,6.6241047 0.8203567,6.4566172 0.66453751,6.1840394 0.64706169,6.0795529 0.75729171,6.0795529 c 0.0430825,0 0.1350938,0.1060466 0.20446299,0.2356642 0.0693709,0.1296218 0.1528892,0.2356713 0.1855996,0.2356713 0.03271,0 0.1102722,-0.2459305 0.1723585,-0.5465114 C 1.5489942,4.8943101 2.2722985,3.6810423 3.3993462,2.5160136 3.665313,2.2410895 3.9089786,1.9123357 3.940824,1.7854492 3.9726566,1.658571 4.033582,1.5547561 4.0761895,1.5547561 c 0.042604,0 0.03801,0.1375809 -0.010222,0.3057418 C 3.9135282,2.3920411 3.9546318,2.428431 4.3789197,2.1375633 5.0215337,1.6970321 5.7011445,1.3851616 6.5624054,1.1355755 7.0045445,1.0074537 7.4905503,0.83836701 7.6424159,0.75983355 7.9052371,0.62391895 7.916174,0.62607545 7.8694975,0.80459185 7.8425175,0.90772955 7.7831596,1.0151649 7.737571,1.0433384 7.5107047,1.1835489 7.72334,1.2238859 8.3852481,1.1662 c 1.305687,-0.1137872 2.0852389,0.040937 3.3700279,0.6687506 1.116611,0.5456626 2.203476,1.3325175 2.530975,1.8323378 0.0947,0.1445444 0.282171,0.2593485 0.485889,0.2975609 0.486284,0.091232 0.532779,0.2595763 0.05922,0.2144188 -0.214216,-0.020431 -0.389481,-0.028783 -0.389481,-0.018525 0,0.010241 0.212712,0.3615527 0.472695,0.7807326 0.318793,0.5139958 0.552822,1.0458649 0.718797,1.6335644 0.157472,0.557618 0.333066,0.9647723 0.487604,1.1306552 0.257015,0.2758781 0.17594,0.3516689 -0.129257,0.1208343 -0.100643,-0.076125 -0.214797,-0.1397526 -0.25368,-0.1413999 -0.03889,-0.00138 -0.07144,0.410597 -0.07233,0.9161019 -0.0034,1.8686184 -0.552404,3.2750184 -1.879934,4.8152574 -0.416988,0.483799 -0.783906,0.982236 -0.815378,1.107636 -0.06405,0.255135 -0.225321,0.310501 -0.225321,0.07735 0,-0.127015 -0.04807,-0.118579 -0.306365,0.05366 -1.164793,0.776891 -2.6451756,1.228171 -4.0289502,1.228171 -0.4633125,0 -0.8935533,0.05531 -1.0995528,0.141379 -0.4535343,0.189487 -0.4788131,0.180025 -0.2290617,-0.08582 z m 2.4117338,-2.082246 c 0.8059282,-0.168629 2.0164962,-0.757331 2.6038372,-1.266252 0.604387,-0.523687 1.26598,-1.527895 1.558245,-2.365201 C 14.671542,7.3128182 13.094121,4.0696195 10.201535,3.1248926 9.2056995,2.7996513 8.5157661,2.7443425 7.5630393,2.9133796 5.5419262,3.2719757 3.902322,4.7077227 3.2560039,6.6849171 3.0468639,7.3247166 3.0065387,7.6197334 3.0037394,8.5305123 c -0.00296,0.9396575 0.028802,1.1687181 0.2379522,1.7195637 0.5351935,1.409618 1.4396118,2.457801 2.6856776,3.112588 1.1643224,0.611834 2.2700413,0.765018 3.5655126,0.49397 z M 6.9476846,12.733557 C 6.6366042,12.662031 6.233614,12.564867 6.0521511,12.517624 L 5.722218,12.431725 5.6391367,11.66543 c -0.096839,-0.893188 -0.054929,-1.061057 0.2649396,-1.061057 0.2532254,0 0.293786,0.03577 0.7068669,0.623791 0.5511495,0.784527 1.6789274,1.047149 2.5941705,0.604086 C 9.7018708,11.591765 9.9013174,11.340153 9.980125,10.854521 10.090284,10.175692 9.5522564,9.580427 7.7138926,8.3471858 6.292819,7.3938821 5.8628286,6.8510755 5.8645388,6.0126315 5.8664519,5.0831397 6.53555,4.1799265 7.4540961,3.866945 8.0364288,3.6685249 9.2238095,3.6883503 10.242318,3.9134659 c 0.464036,0.1025867 0.872996,0.2183225 0.908798,0.2572002 0.03581,0.038887 0.09475,0.4418535 0.131004,0.8955129 l 0.06589,0.8248288 -0.361959,-0.00502 C 10.659954,5.8810744 10.596057,5.8370225 10.341283,5.4382486 9.6244845,4.3162906 7.930234,4.1484201 7.4132613,5.1481397 c -0.316251,0.6115611 0.063702,1.1792386 1.3816281,2.0642823 2.1931856,1.4728135 2.6786016,2.0682063 2.6142786,3.206579 -0.02813,0.498038 -0.09579,0.729779 -0.318883,1.092242 -0.304558,0.494853 -0.969292,1.002626 -1.5335522,1.171457 -0.561886,0.168131 -1.9790432,0.195791 -2.6090465,0.05098 z" id="path2363" class="ColorScheme-Text"/>
</svg>
