<?xml version="1.0" encoding="UTF-8" standalone="no"?>
<svg
   width="64"
   height="64"
   version="1.1"
   viewBox="0 0 16.933 16.933"
   id="svg7"
   sodipodi:docname="steam_icon_620.svg"
   inkscape:version="1.4.3 (0d15f75042, 2025-12-25)"
   xmlns:inkscape="http://www.inkscape.org/namespaces/inkscape"
   xmlns:sodipodi="http://sodipodi.sourceforge.net/DTD/sodipodi-0.dtd"
   xmlns="http://www.w3.org/2000/svg"
   xmlns:svg="http://www.w3.org/2000/svg"
   xmlns:rdf="http://www.w3.org/1999/02/22-rdf-syntax-ns#"
   xmlns:cc="http://creativecommons.org/ns#"
   xmlns:dc="http://purl.org/dc/elements/1.1/">
  <sodipodi:namedview
     id="namedview7"
     pagecolor="#9c4444"
     bordercolor="#000000"
     borderopacity="0.25"
     inkscape:showpageshadow="2"
     inkscape:pageopacity="0.0"
     inkscape:pagecheckerboard="0"
     inkscape:deskcolor="#d1d1d1"
     inkscape:zoom="4.3531262"
     inkscape:cx="90.165086"
     inkscape:cy="34.457995"
     inkscape:window-width="2560"
     inkscape:window-height="1388"
     inkscape:window-x="0"
     inkscape:window-y="0"
     inkscape:window-maximized="1"
     inkscape:current-layer="svg7"
     showgrid="false" />
  <defs
     id="defs2">
    <style
       id="current-color-scheme"
       type="text/css">.ColorScheme-Text {color:#d8dee9} .ColorScheme-Highlight {color:#3b4252}</style>
  </defs>
  <metadata
     id="metadata2">
    <rdf:RDF>
      <cc:Work
         rdf:about="">
        <dc:format>image/svg+xml</dc:format>
        <dc:type
           rdf:resource="http://purl.org/dc/dcmitype/StillImage" />
      </cc:Work>
    </rdf:RDF>
  </metadata>
  <path
     style="fill:currentColor;fill-opacity:1;stroke-width:0.0339116"
     d="M 7.7543143,15.444522 C 5.3976023,15.207526 3.2591963,13.737543 2.1965183,11.623982 1.4799373,10.198773 1.2703193,8.569458 1.6016493,7.000196 2.1439783,4.431588 4.1361583,2.350508 6.6940733,1.680527 7.3283923,1.514383 8.1602883,1.427633 8.7801413,1.462992 l 0.398462,0.02273 v 6.976613 6.976613 l -0.208444,0.02179 c -0.270319,0.02825 -0.850612,0.02052 -1.215845,-0.01621 z m 0.373028,-4.43834 v -0.81388 h -1.176297 -1.176296 l 0.0996,-0.105724 c 0.05478,-0.05815 0.404807,-0.360971 0.777835,-0.672939 0.744403,-0.622552 0.930957,-0.807199 1.135896,-1.124278 0.198371,-0.30692 0.271544,-0.574724 0.270937,-0.9916 C 8.0580813,6.652847 7.8933663,6.219062 7.5034283,5.834559 7.1231833,5.459614 6.6657033,5.274122 5.9562003,5.207214 c -0.397869,-0.03752 -0.918793,-0.002 -1.257454,0.08577 -0.644579,0.167027 -1.138195,0.582649 -1.365076,1.149388 -0.09862,0.246346 -0.191342,0.718157 -0.191342,0.973621 v 0.165116 h 0.893914 0.893915 l 0.01886,-0.182699 c 0.02308,-0.223577 0.09295,-0.365453 0.227023,-0.460917 0.194612,-0.138576 0.639358,-0.14689 0.839585,-0.0157 0.212974,0.139546 0.277715,0.495712 0.143768,0.790924 -0.07361,0.162234 -0.06968,0.158325 -1.869849,1.859938 l -1.175736,1.111366 -0.0027,0.568021 -0.0027,0.56802 h 2.509463 2.509462 z m 1.3225547,3.781252 v -0.630338 l 0.788446,-0.831635 c 0.433645,-0.457399 0.805714,-0.864965 0.826819,-0.905701 0.06765,-0.130567 0.08544,-0.285309 0.04816,-0.418824 -0.02238,-0.08016 -0.347873,-0.552579 -0.848928,-1.232135 C 9.8174474,10.16263 9.4586187,9.647274 9.4669965,9.623565 9.4753765,9.599855 9.8514835,9.128428 10.302794,8.575946 l 0.820564,-1.004513 0.19281,0.819603 c 0.106046,0.450782 0.198769,0.824768 0.206052,0.83108 0.068,0.05894 1.567116,1.143188 1.618964,1.170936 0.03765,0.02015 0.13759,0.03663 0.222099,0.03663 0.382294,0 0.594762,-0.515946 0.317144,-0.770134 C 13.638437,9.621098 13.295054,9.359049 12.917363,9.077217 12.539672,8.795385 12.230749,8.553292 12.230868,8.539234 12.231765,8.433096 11.942827,6.999924 11.904382,6.919826 11.872472,6.853346 11.438692,6.491425 10.652724,5.875517 L 9.4498959,4.932944 V 3.226821 1.520699 l 0.2458596,0.04292 c 2.5174785,0.439468 4.6354045,2.271698 5.4313035,4.698649 0.992107,3.025251 -0.12791,6.27038 -2.774909,8.040002 -0.818921,0.54748 -1.754544,0.916124 -2.7750854,1.093408 l -0.1271687,0.02209 z M 12.1236,5.890662 C 12.927216,5.585312 13.225376,4.580351 12.713256,3.903201 12.549433,3.686588 12.350047,3.536005 12.10458,3.443513 c -0.28902,-0.108904 -0.730738,-0.08686 -1.011434,0.05047 -0.923229,0.451694 -0.991813,1.728583 -0.122797,2.286229 0.330293,0.211949 0.774234,0.254467 1.153251,0.11045 z m -2.673703,6.150244 v -0.403973 l 0.1460548,0.201778 c 0.08033,0.110977 0.1559461,0.218285 0.1680352,0.238463 0.012089,0.02018 -0.053636,0.111166 -0.146055,0.202195 l -0.168035,0.165509 z"
     id="path5"
     class="ColorScheme-Text" />
</svg>
