<?xml version='1.0' encoding='UTF-8'?>
<svg xmlns:inkscape="http://www.inkscape.org/namespaces/inkscape" xmlns:sodipodi="http://sodipodi.sourceforge.net/DTD/sodipodi-0.dtd" xmlns="http://www.w3.org/2000/svg" xmlns:svg="http://www.w3.org/2000/svg" xmlns:rdf="http://www.w3.org/1999/02/22-rdf-syntax-ns#" xmlns:cc="http://creativecommons.org/ns#" xmlns:dc="http://purl.org/dc/elements/1.1/" width="64" height="64" version="1.1" viewBox="0 0 16.933 16.933" id="svg7" sodipodi:docname="steam_icon_990080.svg" inkscape:version="1.4 (e7c3feb100, 2024-10-09)">
  <sodipodi:namedview id="namedview7" pagecolor="#9c4444" bordercolor="#000000" borderopacity="0.25" inkscape:showpageshadow="2" inkscape:pageopacity="0.0" inkscape:pagecheckerboard="0" inkscape:deskcolor="#d1d1d1" inkscape:zoom="4.3531261" inkscape:cx="35.951175" inkscape:cy="39.741555" inkscape:window-width="1183" inkscape:window-height="941" inkscape:window-x="35" inkscape:window-y="32" inkscape:window-maximized="0" inkscape:current-layer="svg7" showgrid="false"/>
  <defs id="defs2">
    <style id="current-color-scheme" type="text/css">.ColorScheme-Text {color:#d8dee9} .ColorScheme-Highlight {color:#3b4252}</style></defs>
  <metadata id="metadata2">
    <rdf:RDF>
      <cc:Work rdf:about="">
        <dc:format>image/svg+xml</dc:format>
        <dc:type rdf:resource="http://purl.org/dc/dcmitype/StillImage"/>
      </cc:Work>
    </rdf:RDF>
  </metadata>
  <path style="fill:currentColor;fill-opacity:1;stroke:none;stroke-width:0.348507;stroke-dasharray:none;stroke-opacity:0.3" d="M 8.6565045,15.770324 C 8.4403436,15.490175 8.183229,15.188934 8.0851377,15.100907 7.9112744,14.944879 7.8948589,14.950541 7.432098,15.326462 c -0.2610804,0.212083 -0.5214313,0.414107 -0.5785559,0.448937 -0.1596722,0.09736 0.033429,-0.520843 0.2892991,-0.926168 0.1172623,-0.185744 0.2132,-0.352402 0.2132,-0.370329 0,-0.03317 -0.5501948,-0.274991 -0.8039225,-0.353318 C 6.3983403,14.078105 6.0314881,12.959675 5.998001,12.436227 5.9840422,12.217974 5.8740375,11.993959 5.6481036,11.723672 5.4668601,11.506845 5.3185695,11.260531 5.3185695,11.176305 c 0,-0.37141 0.6780847,-1.3647525 1.7131232,-2.5095964 C 7.7596361,7.8615405 8.0472097,7.4151739 8.185083,6.876437 8.3010191,6.4234164 8.3146084,6.4087 8.6270304,6.3978504 8.9757191,6.385733 9.2787507,6.1696695 9.4030975,5.8444897 9.5201546,5.5383702 9.305151,5.1203037 8.6913376,4.4605002 8.2613879,3.9983358 8.1531341,3.8238818 8.1524243,3.5920256 8.1515533,3.3065876 9.0337786,0.78266019 9.1356885,0.77904658 9.1644154,0.77810304 9.1119431,1.1658643 9.0190996,1.6409051 8.6985956,3.2806986 8.8129319,3.861047 9.7286584,5.2424707 10.045474,5.7204022 10.142473,5.9538955 10.17197,6.3095912 10.204793,6.7054536 10.178392,6.8021406 9.969871,7.0499695 9.8379479,7.2067511 9.3852216,7.5715933 8.963809,7.8607315 7.7908429,8.6655245 6.7171492,9.7380753 6.3880394,10.433758 6.1250655,10.989641 6.0312572,11.610503 6.1949546,11.711679 6.2384672,11.738565 6.4983933,11.482927 6.7725679,11.143586 7.0467417,10.804245 7.638993,10.233216 8.0886789,9.8746315 10.762562,7.7424504 11.214143,6.706658 10.146002,5.1557617 9.7789185,4.622772 9.8022511,4.3745951 10.177287,4.8230814 c 0.578596,0.6919298 1.430874,2.5736944 1.430874,3.1592601 0,0.2639334 -0.682891,1.6163882 -1.050541,2.0805885 -0.159959,0.201969 -0.6368112,0.592133 -1.0596651,0.867027 -1.3754515,0.894184 -1.6938816,1.122055 -2.0107433,1.438915 -0.1716137,0.171608 -0.2991595,0.350615 -0.283438,0.397784 0.015732,0.04718 0.2681208,0.257228 0.5608859,0.466807 l 0.5322998,0.381055 0.6590145,-0.489573 c 0.3624573,-0.269262 0.8652518,-0.607576 1.1173212,-0.751802 0.606415,-0.346983 0.810099,-0.568721 1.180527,-1.28518 0.353744,-0.684187 0.531517,-0.813443 0.531517,-0.386466 0,0.434458 -0.332405,0.930337 -0.901379,1.344674 -0.283797,0.206666 -0.515995,0.400527 -0.515995,0.430804 0,0.03029 0.08605,0.09346 0.191233,0.140372 0.172795,0.0771 0.113869,0.134159 -0.6111278,0.591605 -1.099811,0.693957 -1.0883367,0.67199 -0.6040064,1.156322 0.4624262,0.462424 0.7573342,0.910024 0.7578122,1.150179 2.66e-4,0.121334 -0.2030168,-0.01862 -0.7564986,-0.521189 l -0.7568313,-0.687109 -0.2138133,0.200868 -0.213814,0.200868 0.2945408,0.364618 c 0.1619978,0.200535 0.3396402,0.451624 0.3947625,0.557969 0.1448636,0.279479 0.2792431,0.648206 0.2362346,0.648206 -0.020313,0 -0.2137814,-0.22921 -0.4299433,-0.509365 z" id="path1-9" class="ColorScheme-Text"/>
</svg>
