<?xml version='1.0' encoding='UTF-8'?>
<svg xmlns:inkscape="http://www.inkscape.org/namespaces/inkscape" xmlns:sodipodi="http://sodipodi.sourceforge.net/DTD/sodipodi-0.dtd" xmlns="http://www.w3.org/2000/svg" xmlns:svg="http://www.w3.org/2000/svg" xmlns:rdf="http://www.w3.org/1999/02/22-rdf-syntax-ns#" xmlns:cc="http://creativecommons.org/ns#" xmlns:dc="http://purl.org/dc/elements/1.1/" width="64" height="64" version="1.1" viewBox="0 0 16.933 16.933" id="svg7" sodipodi:docname="steam_icon_2694490.svg" inkscape:version="1.4 (e7c3feb100, 2024-10-09)">
  <sodipodi:namedview id="namedview7" pagecolor="#9c4444" bordercolor="#000000" borderopacity="0.25" inkscape:showpageshadow="2" inkscape:pageopacity="0.0" inkscape:pagecheckerboard="0" inkscape:deskcolor="#d1d1d1" inkscape:zoom="4.3531261" inkscape:cx="35.491735" inkscape:cy="39.741555" inkscape:window-width="1183" inkscape:window-height="941" inkscape:window-x="35" inkscape:window-y="32" inkscape:window-maximized="0" inkscape:current-layer="svg7" showgrid="false"/>
  <defs id="defs2">
    <style id="current-color-scheme" type="text/css">.ColorScheme-Text {color:#d8dee9} .ColorScheme-Highlight {color:#3b4252}</style></defs>
  <metadata id="metadata2">
    <rdf:RDF>
      <cc:Work rdf:about="">
        <dc:format>image/svg+xml</dc:format>
        <dc:type rdf:resource="http://purl.org/dc/dcmitype/StillImage"/>
      </cc:Work>
    </rdf:RDF>
  </metadata>
  <path style="fill:currentColor;stroke:none;stroke-width:0.434604;stroke-dasharray:none;stroke-opacity:0.3" d="M 8.4499498,16.490502 C 8.449726,16.451658 8.3088835,15.987709 8.1369626,15.45949 7.8589079,14.605191 7.8187991,14.42109 7.773881,13.792928 7.7461051,13.404533 7.7068621,13.043796 7.6866674,12.991285 7.5433711,12.618654 6.5384715,12.559928 6.2642506,12.908164 c -0.3191683,0.40531 -0.6209153,0.38178 -0.5506048,-0.04294 0.052963,-0.319931 0.1174056,-0.42568 0.5052051,-0.829029 0.3584663,-0.372839 0.7395085,-0.587995 1.2428614,-0.701782 l 0.2824686,-0.06385 0.028244,-1.3798965 C 7.7879664,9.1317288 7.7935505,7.8076488 7.7848124,6.9482714 L 7.7689854,5.3857798 7.5870832,5.4144242 c -0.1000293,0.015751 -0.2200198,0.048762 -0.2666274,0.073368 -0.046609,0.024607 -0.3239247,0.12464 -0.6162634,0.2223026 -1.21282,0.4051667 -2.4274963,1.2676648 -2.6059716,1.8504062 -0.092957,0.3035169 -0.1408793,2.524585 -0.060846,2.820152 0.0879,0.324615 0.2837693,0.593512 0.5349833,0.734427 0.1179634,0.06619 0.2188998,0.142388 0.2243044,0.169385 0.017499,0.08736 -0.4212247,0.128459 -1.4307639,0.134007 -0.9165828,0.0053 -1.6815009,-0.03002 -1.8501499,-0.08478 -0.1175416,-0.03817 -0.078113,-0.104728 0.1427527,-0.240942 0.1156848,-0.07133 0.2738871,-0.223873 0.351566,-0.338958 l 0.1412327,-0.209241 0.015903,-2.3591408 0.015903,-2.3591419 0.1818243,0.098285 C 2.7594715,6.1378106 3.5941283,6.0054784 3.9873444,5.6673151 4.2518232,5.4398642 5.0312526,4.9619534 5.4899717,4.7459717 6.0139307,4.4992732 7.0089679,4.1559196 7.362842,4.0997097 c 0.1320557,-0.02098 0.2400982,-0.06894 0.2400982,-0.10659 0,-0.03765 0.062854,-0.09709 0.1396766,-0.1320937 C 7.8194376,3.826028 7.8932754,3.7393215 7.9066932,3.668353 7.951442,3.4317322 8.2779863,1.5115281 8.346547,1.0818458 8.38373,0.84881005 8.4317354,0.63726519 8.4532244,0.61174819 8.5369213,0.51235539 9.0701862,2.9565201 9.0713361,3.4448028 c 3.256e-4,0.133133 0.049873,0.2373803 0.1699246,0.3574317 0.093212,0.093212 0.1694819,0.1868213 0.1694819,0.2080186 0,0.021196 0.2097322,0.085299 0.466073,0.1424468 0.5629654,0.1255121 1.3294904,0.4141574 1.8731064,0.7053476 0.573198,0.3070351 1.168696,0.6785828 1.332913,0.8316382 0.223485,0.208298 0.55377,0.3176831 0.986208,0.3266216 0.274158,0.00566 0.454983,-0.021092 0.581489,-0.086055 l 0.183616,-0.094278 0.0014,2.2695413 c 0.0015,2.5864394 -0.004,2.5529604 0.472167,2.9509434 0.180709,0.151054 0.242274,0.235596 0.201362,0.276527 -0.08571,0.08573 -3.096558,0.08005 -3.242487,-0.0061 -0.102714,-0.06065 -0.09694,-0.07076 0.08476,-0.148082 0.229419,-0.09762 0.392287,-0.266543 0.55624,-0.576893 0.109402,-0.207109 0.11894,-0.315315 0.11894,-1.3512193 0,-1.4432991 -0.05178,-1.7560877 -0.346201,-2.0905428 C 12.362427,6.7991464 11.877355,6.4509454 11.226501,6.1166241 10.540364,5.7641815 9.3523552,5.3396124 9.2733555,5.4186116 c -0.01653,0.01653 -0.03002,1.334684 -0.029952,2.9292114 l 1.267e-4,2.899144 0.2389717,0.06033 c 0.8489671,0.214414 1.5589071,0.755665 1.7715861,1.350638 0.105934,0.296313 0.09395,0.444243 -0.04179,0.516899 -0.103028,0.05514 -0.147252,0.03654 -0.324843,-0.136496 -0.250659,-0.244234 -0.549523,-0.375315 -0.855702,-0.375315 -0.2303856,0 -0.603533,0.152095 -0.7174834,0.292464 -0.033372,0.04112 -0.073433,0.417943 -0.089019,0.837406 -0.027379,0.736791 -0.039087,0.795845 -0.3451162,1.740595 -0.17423,0.537858 -0.3167825,0.989102 -0.3167825,1.00276 0,0.01349 -0.025418,0.02487 -0.056493,0.02487 -0.031067,0 -0.056675,-0.03177 -0.056899,-0.0706 z" id="path1-3" class="ColorScheme-Text"/>
</svg>
