<?xml version='1.0' encoding='UTF-8'?>
<svg xmlns:inkscape="http://www.inkscape.org/namespaces/inkscape" xmlns:sodipodi="http://sodipodi.sourceforge.net/DTD/sodipodi-0.dtd" xmlns="http://www.w3.org/2000/svg" xmlns:svg="http://www.w3.org/2000/svg" xmlns:rdf="http://www.w3.org/1999/02/22-rdf-syntax-ns#" xmlns:cc="http://creativecommons.org/ns#" xmlns:dc="http://purl.org/dc/elements/1.1/" width="64" height="64" version="1.1" viewBox="0 0 16.933 16.933" id="svg7" sodipodi:docname="steam_icon_1882280.svg" inkscape:version="1.4 (e7c3feb100, 2024-10-09)">
  <sodipodi:namedview id="namedview7" pagecolor="#9c4444" bordercolor="#000000" borderopacity="0.25" inkscape:showpageshadow="2" inkscape:pageopacity="0.0" inkscape:pagecheckerboard="0" inkscape:deskcolor="#d1d1d1" inkscape:zoom="4.3531261" inkscape:cx="35.951175" inkscape:cy="39.741555" inkscape:window-width="1183" inkscape:window-height="941" inkscape:window-x="35" inkscape:window-y="32" inkscape:window-maximized="0" inkscape:current-layer="svg7" showgrid="false"/>
  <defs id="defs2">
    <style id="current-color-scheme" type="text/css">.ColorScheme-Text {color:#d8dee9} .ColorScheme-Highlight {color:#3b4252}</style></defs>
  <metadata id="metadata2">
    <rdf:RDF>
      <cc:Work rdf:about="">
        <dc:format>image/svg+xml</dc:format>
        <dc:type rdf:resource="http://purl.org/dc/dcmitype/StillImage"/>
      </cc:Work>
    </rdf:RDF>
  </metadata>
  <g id="g1" style="fill:currentColor" transform="matrix(1.9,0,0,1.9,-7.6911513,-7.8136283)" class="ColorScheme-Text">
    <path style="fill:currentColor;stroke-width:0.0191463" d="m 8.773725,12.475912 c 0.034224,-0.005 0.062226,-0.01601 0.062226,-0.02444 0,-0.0085 -0.079697,-0.05409 -0.1771036,-0.10147 -0.3182976,-0.154816 -0.4797505,-0.301262 -0.5815627,-0.527508 -0.041099,-0.09133 -0.061303,-0.214849 -0.035143,-0.214849 0.00569,0 0.042303,0.01602 0.081373,0.0356 0.082681,0.04144 0.2091156,0.06266 0.2588955,0.04346 0.031576,-0.01219 0.029496,-0.01992 -0.023194,-0.08622 -0.099049,-0.124637 -0.1359452,-0.254868 -0.1359452,-0.479847 0,-0.196924 6.365e-4,-0.199631 0.086388,-0.370942 0.183897,-0.367342 0.5386839,-0.651513 0.9475112,-0.7589092 0.1578255,-0.041456 0.6032718,-0.059308 0.8328658,-0.033372 0.09478,0.010708 0.175871,0.015949 0.180214,0.01164 C 10.322689,9.9170686 9.8978946,9.4774897 9.6017971,9.2773391 9.4965959,9.2062257 9.0072137,8.9601169 8.9067577,8.9278044 8.8667233,8.9149259 8.8368766,8.8944365 8.8404308,8.8822699 8.8538564,8.8363228 9.1007217,8.7345287 9.3146084,8.6867441 9.435709,8.6596888 9.5416951,8.6307608 9.5501336,8.6224593 9.5764684,8.5965535 9.3383976,8.4655631 9.1042494,8.3771268 8.9585391,8.3220924 8.4405718,8.1997341 8.3515073,8.1993077 8.2820218,8.1989777 8.226344,8.1710157 8.2493118,8.1479897 c 0.00845,-0.00847 0.1711399,-0.018272 0.3615355,-0.021783 0.2594035,-0.00479 0.3945893,0.00167 0.5393274,0.025734 0.3458283,0.057502 0.7119728,0.1954204 0.9792283,0.3688539 0.120978,0.078508 0.372278,0.3026024 0.372278,0.3319765 0,0.00932 -0.02858,0.016952 -0.06349,0.016952 -0.126249,0 -0.4543108,0.07519 -0.4970536,0.113921 -0.00819,0.00741 0.086589,0.050484 0.2106086,0.095706 0.441076,0.1608358 0.774519,0.3574165 1.134939,0.6691035 l 0.201036,0.1738526 0.01285,-0.3054249 c 0.02043,-0.4852277 0.05306,-0.5915462 0.234006,-0.7626848 0.163467,-0.1546008 0.273217,-0.1964799 0.574191,-0.2191046 0.138125,-0.010382 0.259753,-0.027144 0.270283,-0.037247 C 12.607581,8.5704829 12.448022,8.4371401 12.138689,8.2298151 11.883212,8.0585858 11.786504,8.0007545 11.391984,7.7832864 11.167255,7.6594107 11.127644,7.6048994 11.137066,7.432478 c 0.01303,-0.2385689 0.169649,-0.4758874 0.429978,-0.6515553 0.07747,-0.052276 0.140854,-0.1024671 0.140854,-0.111535 0,-0.032123 -0.108867,-0.043427 -0.401525,-0.041688 -0.3181,0.00189 -0.380713,0.00827 -0.523525,0.053312 -0.05071,0.015993 -0.09671,0.024548 -0.10225,0.019012 -0.0055,-0.00554 0.02067,-0.078137 0.05824,-0.1613363 0.07777,-0.1722336 0.115268,-0.3317003 0.148687,-0.6322382 0.01523,-0.1369299 0.0171,-0.231253 0.0054,-0.2719359 l -0.01792,-0.062287 -0.127735,0.161208 C 10.584689,5.9386546 10.301611,6.2091093 10.11792,6.334747 10.039399,6.3884508 9.8124131,6.5206664 9.613504,6.6285583 9.0408424,6.9391802 8.8226142,7.0894532 8.4936689,7.3996818 8.3587454,7.5269286 8.2883074,7.5816356 8.2844192,7.5622003 8.2760883,7.520546 8.4142038,7.2537157 8.5145621,7.117583 8.6246428,6.9682629 8.8959504,6.6843069 9.0448338,6.5625899 9.1909696,6.4431192 9.2289863,6.3651346 9.2585142,6.1242635 9.3036915,5.7557333 9.2525623,5.3704511 9.1040366,4.9602881 9.0266399,4.7465478 8.9962056,4.7178569 8.9796073,4.8429884 8.9263586,5.2444231 8.8510072,5.4322789 8.6188894,5.7422802 8.4789248,5.9292075 8.2777489,6.1280355 7.4855605,6.8623813 7.0149382,7.2986405 6.6461351,7.6987479 6.4361109,8.0009093 6.3766588,8.0864427 6.3135868,8.1682933 6.2959507,8.1827993 6.2667428,8.2068225 6.2650481,8.2033066 6.2769288,8.143353 6.2973629,8.0402343 6.4662518,7.7044656 6.5635265,7.5735695 6.7124207,7.3732117 6.9091706,7.159602 7.4680084,6.591581 8.0003255,6.0505164 8.1007564,5.934076 8.1436468,5.8082393 c 0.030303,-0.088904 0.027336,-0.3478314 -0.00578,-0.5040742 -0.051566,-0.2433226 -0.14436,-0.3839264 -0.14436,-0.2187376 0,0.09434 -0.1092624,0.4233341 -0.2011894,0.6057901 -0.04515,0.089627 -0.1374207,0.227577 -0.205039,0.3065558 C 7.462257,6.1437992 6.9953125,6.5959098 6.2920088,7.2518945 5.8609847,7.653919 5.7050307,7.8403777 5.5701181,8.1149859 5.4599152,8.3392994 5.4286531,8.4915437 5.4282384,8.8059304 c -1.828e-4,0.1386676 -0.00556,0.2657512 -0.011954,0.2824081 -0.00652,0.017015 -0.033795,0.030317 -0.062226,0.030357 -0.1279634,1.813e-4 -0.2699155,0.162128 -0.2856507,0.3258867 -0.00687,0.071463 -0.016916,0.095215 -0.040223,0.095077 C 4.9617327,9.5392586 4.744424,9.349829 4.6443299,9.2050387 4.5894087,9.1255944 4.5364672,9.0655434 4.5266797,9.0715927 c -0.00978,0.00605 -0.017687,0.1117265 -0.017544,0.2348381 6.951e-4,0.6188785 0.2372323,1.1025972 0.7081621,1.4481942 l 0.1244512,0.09133 0.010223,-0.188756 C 5.364117,10.432947 5.404854,10.32746 5.5239458,10.211887 5.6963136,10.04461 5.9828262,9.9574244 6.3431449,9.9626076 c 0.1084874,0.00154 0.201743,-0.00162 0.2072345,-0.00713 0.00549,-0.00551 -0.00357,-0.036207 -0.020147,-0.068251 -0.03711,-0.071766 -0.038965,-0.2125768 -0.00391,-0.2964894 0.058931,-0.1410433 0.254405,-0.2529204 0.5481613,-0.3137342 0.2151355,-0.044538 0.8304957,-0.043764 0.9923662,0.00125 0.1564754,0.043511 0.3287299,0.1198478 0.3287299,0.1456801 0,0.012341 -0.054857,0.0202 -0.1409842,0.0202 -0.1684767,0 -0.29121,0.021445 -0.4388359,0.076679 -0.1279153,0.047859 -0.1356764,0.074238 -0.051787,0.1760119 0.073731,0.089448 0.1486065,0.2509526 0.1640303,0.353805 0.00945,0.063 0.00149,0.103263 -0.037061,0.187469 -0.055952,0.122216 -0.1235928,0.163351 -0.2686082,0.163351 -0.1466151,0 -0.1522074,0.0084 -0.085223,0.127025 0.050984,0.09034 0.057756,0.118506 0.050249,0.209022 -0.01491,0.179806 -0.1334269,0.268599 -0.3367285,0.25228 l -0.1230619,-0.0099 0.012992,0.06977 c 0.03542,0.190214 0.034136,0.221298 -0.01199,0.289951 -0.072128,0.107358 -0.1675002,0.143848 -0.3700044,0.141567 -0.1318797,-0.0015 -0.2048914,-0.01338 -0.3111278,-0.05069 -0.1028315,-0.03611 -0.1388104,-0.04222 -0.1388104,-0.02354 0,0.04739 0.1879074,0.30589 0.3094181,0.42566 0.1655477,0.163174 0.279178,0.242207 0.5043002,0.350757 0.3569431,0.17211 0.848271,0.281607 1.3210957,0.294417 0.1474268,0.0041 0.2960502,0.0032 0.3302741,-0.0019 z M 6.3427251,8.914952 C 6.3236958,8.9032406 6.387627,8.746625 6.4647283,8.6160748 6.637717,8.323166 6.9763136,8.0239514 7.1845804,7.979948 L 7.2468064,7.9668 v 0.1072063 c 0,0.178748 -0.1501168,0.4771647 -0.3480599,0.6919079 C 6.8029715,8.869818 6.7317151,8.91079 6.6149779,8.9290805 c -0.08134,0.012744 -0.2421453,0.0044 -0.2722524,-0.014131 z" id="path2" class="ColorScheme-Text"/>
    <path d="M 10.734179,12.594993 H 9.9150446 v -0.165097 l 0.2666954,-0.06032 v -1.81289 l -0.2666954,-0.0635 v -0.165097 h 0.8191344 v 0.165097 l -0.266695,0.0635 v 1.81289 l 0.266695,0.06032 z m 1.076307,0 h -0.819135 v -0.165097 l 0.266695,-0.06032 v -1.81289 l -0.266695,-0.0635 v -0.165097 h 0.819135 v 0.165097 l -0.266695,0.0635 v 1.81289 l 0.266695,0.06032 z" id="text5" style="font-size:3.17494px;fill:currentColor;fill-opacity:1;stroke-width:0.264578" aria-label="II" class="ColorScheme-Text"/>
  </g>
</svg>
