<?xml version="1.0" encoding="UTF-8" standalone="no"?>
<svg
   width="64"
   height="64"
   version="1.1"
   viewBox="0 0 16.933 16.933"
   id="svg7"
   sodipodi:docname="steam_icon_400 copy.svg"
   inkscape:version="1.4.3 (0d15f75042, 2025-12-25)"
   xmlns:inkscape="http://www.inkscape.org/namespaces/inkscape"
   xmlns:sodipodi="http://sodipodi.sourceforge.net/DTD/sodipodi-0.dtd"
   xmlns="http://www.w3.org/2000/svg"
   xmlns:svg="http://www.w3.org/2000/svg"
   xmlns:rdf="http://www.w3.org/1999/02/22-rdf-syntax-ns#"
   xmlns:cc="http://creativecommons.org/ns#"
   xmlns:dc="http://purl.org/dc/elements/1.1/">
  <sodipodi:namedview
     id="namedview7"
     pagecolor="#9c4444"
     bordercolor="#000000"
     borderopacity="0.25"
     inkscape:showpageshadow="2"
     inkscape:pageopacity="0.0"
     inkscape:pagecheckerboard="0"
     inkscape:deskcolor="#d1d1d1"
     inkscape:zoom="4.3531262"
     inkscape:cx="89.935366"
     inkscape:cy="34.457995"
     inkscape:window-width="2560"
     inkscape:window-height="1388"
     inkscape:window-x="0"
     inkscape:window-y="0"
     inkscape:window-maximized="1"
     inkscape:current-layer="svg7"
     showgrid="false" />
  <defs
     id="defs2">
    <style
       id="current-color-scheme"
       type="text/css">.ColorScheme-Text {color:#d8dee9} .ColorScheme-Highlight {color:#3b4252}</style>
  </defs>
  <metadata
     id="metadata2">
    <rdf:RDF>
      <cc:Work
         rdf:about="">
        <dc:format>image/svg+xml</dc:format>
        <dc:type
           rdf:resource="http://purl.org/dc/dcmitype/StillImage" />
      </cc:Work>
    </rdf:RDF>
  </metadata>
  <path
     id="path5"
     d="m 3.393341,3.6133145 c 0.09847,-0.09732 0.196961,-0.194627 0.295453,-0.291974 0.498855,-0.436156 0.997328,-0.803441 1.495105,-1.054641 1.096134,0.760669 2.19238,1.495913 3.288559,2.247718 -2.159774,0.420447 -4.319817,0.858667 -6.479545,1.268231 0.290314,-0.724159 0.741415,-1.447374 1.400428,-2.169334 z M 8.258823,15.477797 C 7.586368,15.434087 6.954777,15.349504 6.425426,15.162664 6.203107,13.866696 5.961915,12.589669 5.723574,11.309679 c 1.798547,1.214127 3.616034,2.409381 5.38561,3.652478 -0.705039,0.27851 -1.496788,0.470265 -2.434985,0.515663 -0.138459,-2.3e-5 -0.276917,-2.3e-5 -0.415376,-2.3e-5 z m 0,-14.0226175 c 0.138459,0 0.276917,0 0.415376,0 0.683518,0.04695 1.333802,0.127193 1.862054,0.329428 0.250909,1.267423 0.478299,2.558229 0.730509,3.824351 C 9.478066,4.3849575 7.663923,3.1863825 5.895469,1.9421635 6.58251,1.6791145 7.352964,1.4994545 8.258823,1.4551795 Z m 6.660394,9.6826045 c 0.0095,0 0.0191,0 0.02864,0 -0.663345,1.561619 -1.737868,2.711925 -3.165494,3.509263 -0.978254,-0.638683 -1.968468,-1.309387 -2.936309,-1.976613 -0.131928,-0.091 -0.250639,-0.178539 -0.386719,-0.286501 2.166641,-0.402001 4.309696,-0.827676 6.459887,-1.246149 z M 4.577711,8.4449795 C 4.984335,10.597504 5.378482,12.762394 5.76657,14.9335 4.24494,14.282745 3.116222,13.239078 2.328938,11.853976 3.062567,10.701696 3.826467,9.5796885 4.577711,8.4449795 Z m 10.900098,-0.18619 c 0,0.138459 0,0.276917 0,0.415376 -0.04044,0.661414 -0.129572,1.274132 -0.300794,1.8047625 -1.329336,0.241483 -2.634886,0.506686 -3.953249,0.759143 1.232057,-1.8187655 2.475311,-3.7028785 3.709768,-5.4715355 0.300368,0.711816 0.495579,1.528812 0.544275,2.492254 z M 1.455191,8.6741655 c 0,-0.138436 0,-0.276895 0,-0.415376 0.04042,-0.661414 0.129572,-1.27411 0.300794,-1.804741 1.311519,-0.245006 2.60504,-0.50792 3.910298,-0.759143 C 4.447219,7.5266425 3.240588,9.3710355 2.013805,11.195097 1.702801,10.479579 1.50548,9.6503985 1.455191,8.6741655 Z m 9.754235,-6.646077 c 1.5219,0.645706 2.639532,1.695769 3.408975,3.093863 -0.746846,1.077015 -1.453545,2.194198 -2.220139,3.251442 -0.385664,-2.125709 -0.79976,-4.22294 -1.188836,-6.345305 z"
     style="fill:currentColor"
     class="ColorScheme-Text" />
</svg>
