<?xml version="1.0" encoding="UTF-8" standalone="no"?>
<svg
   width="64"
   height="64"
   version="1.1"
   viewBox="0 0 16.933 16.933"
   id="svg7"
   sodipodi:docname="steam_icon_8140.svg"
   inkscape:version="1.4.2 (ebf0e940d0, 2025-05-08)"
   xmlns:inkscape="http://www.inkscape.org/namespaces/inkscape"
   xmlns:sodipodi="http://sodipodi.sourceforge.net/DTD/sodipodi-0.dtd"
   xmlns="http://www.w3.org/2000/svg"
   xmlns:svg="http://www.w3.org/2000/svg"
   xmlns:rdf="http://www.w3.org/1999/02/22-rdf-syntax-ns#"
   xmlns:cc="http://creativecommons.org/ns#"
   xmlns:dc="http://purl.org/dc/elements/1.1/">
  <sodipodi:namedview
     id="namedview7"
     pagecolor="#9c4444"
     bordercolor="#000000"
     borderopacity="0.25"
     inkscape:showpageshadow="2"
     inkscape:pageopacity="0.0"
     inkscape:pagecheckerboard="0"
     inkscape:deskcolor="#d1d1d1"
     inkscape:zoom="4.3531262"
     inkscape:cx="89.935366"
     inkscape:cy="34.457995"
     inkscape:window-width="2560"
     inkscape:window-height="1388"
     inkscape:window-x="0"
     inkscape:window-y="0"
     inkscape:window-maximized="1"
     inkscape:current-layer="svg7"
     showgrid="false" />
  <defs
     id="defs2">
    <style
       id="current-color-scheme"
       type="text/css">.ColorScheme-Text {color:#d8dee9} .ColorScheme-Highlight {color:#3b4252}</style>
  </defs>
  <metadata
     id="metadata2">
    <rdf:RDF>
      <cc:Work
         rdf:about="">
        <dc:format>image/svg+xml</dc:format>
        <dc:type
           rdf:resource="http://purl.org/dc/dcmitype/StillImage" />
      </cc:Work>
    </rdf:RDF>
  </metadata>
  <path
     id="path5"
     style="opacity:1;fill:currentColor;stroke-width:0.00101518;paint-order:fill markers stroke"
     class="ColorScheme-Text"
     d="m 12.873968,1.4551402 c -0.07543,0 -0.12861,0.03356 -0.129266,0.081692 -1.98e-4,0.011185 -0.0057,0.020579 -0.01249,0.021144 h -4.81e-4 -4.81e-4 c -0.0084,0.0017 -0.0404,0.029366 -0.07208,0.062951 -0.05093,0.053986 -0.06269,0.072959 -0.08169,0.1335902 -0.02421,0.077065 -0.0254,0.1895287 -0.0024,0.203749 0.0091,0.00563 0.009,0.012418 4.81e-4,0.031235 -0.01374,0.030185 -0.0036,0.087274 0.0173,0.098991 0.0056,0.00316 0.0087,0.00623 0.0096,0.00961 4.2e-5,2.142e-4 4.56e-4,0.00122 4.8e-4,0.00144 v 4.805e-4 c -1.33e-4,0.00269 -0.0017,0.00618 -0.0043,0.00961 -0.01086,0.014229 -0.0062,0.088476 0.0048,0.099952 1.91e-4,1.58e-4 0.0012,8.409e-4 0.0014,9.611e-4 h 4.79e-4 l 4.81e-4,4.806e-4 h 4.81e-4 4.81e-4 4.8e-4 4.8e-4 4.81e-4 l 4.81e-4,4.805e-4 h 4.81e-4 v 4.806e-4 h 4.79e-4 l 4.81e-4,4.805e-4 c 1.85e-4,2.134e-4 3.25e-4,7.12e-4 4.81e-4,9.61e-4 0.0011,0.00254 0.0017,0.00726 0,0.011533 -0.0048,0.012594 0.05398,0.5154614 0.07689,0.6568983 0.0053,0.03276 0.01601,0.066189 0.02355,0.074484 0.01116,0.012241 0.01164,0.02222 0.0034,0.05334 -0.0078,0.029444 -0.0066,0.072596 0.0053,0.1864495 0.0085,0.081548 0.01818,0.1955105 0.02163,0.2532446 l 0.0058,0.1052383 h -0.03412 c -0.02807,0 -0.04235,0.0077 -0.08073,0.04469 -0.02798,0.026981 -0.04661,0.053116 -0.04661,0.065354 0,0.010515 -0.0051,0.019135 -0.01153,0.020183 l -4.8e-4,4.806e-4 h -4.8e-4 c -2.06e-4,0 -7.36e-4,-3.04e-5 -9.62e-4,0 -0.01523,0.00372 -0.06861,0.063814 -0.08746,0.099472 -0.0058,0.01121 -0.01089,0.032161 -0.01105,0.046612 -1.77e-4,0.01445 -0.0064,0.034722 -0.01394,0.04469 -0.0217,0.028617 -0.01765,0.084932 0.0072,0.102355 l 0.02066,0.014897 -0.02018,0.039404 c -0.02488,0.049138 -0.0432,0.1429996 -0.04181,0.2167236 0.0012,0.076034 0.03284,0.2421433 0.05622,0.2960127 0.02285,0.052612 0.05317,0.068312 0.149929,0.077847 0.06337,0.00624 0.06525,0.00564 0.08746,-0.020183 0.0302,-0.035115 0.04544,-0.022521 0.07256,0.060067 0.02602,0.079242 0.06649,0.1691241 0.101394,0.2258538 0.02111,0.034299 0.03133,0.069641 0.04517,0.1552145 0.0099,0.060841 0.01688,0.1114855 0.01586,0.1129269 -0.0011,0.00146 -0.0593,-0.01908 -0.129265,-0.046132 -0.121716,-0.047099 -0.127344,-0.050658 -0.127344,-0.075925 0,-0.035875 -0.01539,-0.06247 -0.03652,-0.06247 -0.0096,0 -0.06755,-0.021461 -0.128304,-0.047574 -0.06082,-0.026109 -0.151265,-0.063539 -0.201407,-0.083609 -0.206756,-0.082775 -0.333322,-0.1571254 -0.412784,-0.2431533 -0.07016,-0.075943 -0.141358,-0.1316912 -0.189332,-0.1475259 -0.03573,-0.011787 -0.03933,-0.01645 -0.06295,-0.081211 -0.02443,-0.066938 -0.02597,-0.068717 -0.0567,-0.068717 -0.02143,0 -0.0406,0.0086 -0.06055,0.02643 -0.0262,0.023431 -0.02843,0.028593 -0.01826,0.047573 0.0041,0.00768 0.0064,0.012629 0.0067,0.015377 v 4.806e-4 4.805e-4 4.806e-4 4.805e-4 h -4.81e-4 v 4.805e-4 H 11.5366 c -0.0019,3.619e-4 -0.0063,-3.334e-4 -0.01153,-0.00192 -0.04448,-0.013504 -0.104395,-0.02382 -0.137435,-0.024027 l -0.03652,-4.806e-4 0.0058,-0.1701112 c 0.0032,-0.093656 0.01246,-0.2249735 0.02018,-0.2916878 0.0077,-0.066714 0.01432,-0.1241877 0.01442,-0.1278237 1.02e-4,-0.00363 0.03055,-0.040124 0.06776,-0.080731 0.171261,-0.1869168 0.184047,-0.20962 0.184047,-0.323884 0,-0.03751 0.0045,-0.080219 0.01009,-0.094667 0.0056,-0.014447 0.02473,-0.076065 0.04229,-0.1374344 0.0282,-0.098385 0.03172,-0.1244462 0.03172,-0.2205679 0,-0.224792 -0.07892,-0.4713134 -0.206152,-0.6439238 -0.05818,-0.078922 -0.196553,-0.1977981 -0.296973,-0.2551667 -0.07493,-0.042802 -0.0831,-0.045637 -0.172515,-0.052379 -0.05165,-0.0039 -0.106183,-0.011618 -0.120615,-0.0173 -0.03387,-0.013315 -0.205654,-0.013297 -0.267661,0 -0.02635,0.00565 -0.08436,0.024365 -0.128784,0.041807 -0.04442,0.017442 -0.09011,0.031716 -0.101395,0.031716 -0.01128,0 -0.02308,0.00469 -0.02643,0.010091 -0.01069,0.017298 -0.104507,0.053658 -0.2494,0.097069 -0.152338,0.045642 -0.188407,0.04987 -0.2494004,0.028352 -0.028529,-0.010035 -0.0399,-0.013929 -0.044209,-0.012494 h -5.04e-4 l -4.805e-4,4.805e-4 h -4.805e-4 v 4.805e-4 l -4.805e-4,4.805e-4 c -6.201e-4,0.00181 -4.806e-4,0.00546 -4.806e-4,0.00913 v 4.806e-4 c 0.00127,0.00672 0.011779,0.018216 0.024508,0.025949 l 0.024507,0.015377 -0.03604,0.011052 c -0.096221,0.030465 -0.2110279,0.1155992 -0.2604532,0.192697 -0.023554,0.036727 -0.045599,0.092521 -0.042288,0.1042772 l 4.805e-4,4.805e-4 v 4.806e-4 h 4.806e-4 v 4.805e-4 h 4.805e-4 v 4.806e-4 h 4.806e-4 4.805e-4 c 0.00207,0 0.023591,-0.028823 0.047574,-0.063912 0.043419,-0.063563 0.077452,-0.089395 0.1037967,-0.079289 6.212e-4,2.385e-4 0.00147,1.521e-4 0.00192,4.806e-4 v 4.805e-4 h 4.805e-4 v 4.805e-4 l 4.806e-4,4.806e-4 4.806e-4,4.805e-4 v 4.806e-4 4.805e-4 c 8.31e-5,0.00714 -0.013909,0.023019 -0.045171,0.049976 -0.035653,0.030725 -0.059619,0.059863 -0.066315,0.080731 -0.00577,0.017961 -0.020523,0.056663 -0.032677,0.086017 -0.031789,0.076821 -0.031223,0.2397037 9.61e-4,0.3493527 0.019647,0.06713 0.036503,0.1079409 0.04421,0.1143686 l 4.805e-4,4.806e-4 h 4.805e-4 4.806e-4 4.805e-4 4.806e-4 4.805e-4 v -4.811e-4 h 4.806e-4 v -4.806e-4 c 0.00242,-0.00544 3.372e-4,-0.027428 -0.00913,-0.068237 -0.022764,-0.098164 -0.019804,-0.129742 0.020183,-0.1946188 l 0.03508,-0.056704 0.00625,0.092744 c 0.00885,0.132322 0.036273,0.2315904 0.074484,0.2710246 0.019503,0.020096 0.031304,0.030136 0.037963,0.030274 h 4.805e-4 4.806e-4 l 4.805e-4,-4.805e-4 h 4.806e-4 4.805e-4 l 4.805e-4,-4.805e-4 h 4.805e-4 l 4.806e-4,-4.805e-4 c 0.0024,-0.00274 0.00336,-0.00895 0.00336,-0.01778 0,-0.00464 5.17e-4,-0.00817 0.00144,-0.010091 V 3.094262 l 4.806e-4,-4.806e-4 4.805e-4,-4.805e-4 h 4.805e-4 l 4.805e-4,-4.806e-4 h 4.806e-4 4.806e-4 c 0.00493,8.142e-4 0.015453,0.00973 0.03556,0.028833 0.087091,0.082709 0.2852292,0.2296296 0.4017312,0.2974543 0.03634,0.021156 0.04938,0.035819 0.06776,0.077367 0.01134,0.025653 0.01974,0.04877 0.0197,0.054301 l -4.8e-4,4.806e-4 v 4.805e-4 h -4.8e-4 v 4.806e-4 c -0.0054,3.076e-4 -0.02834,-0.00666 -0.05334,-0.016338 -0.02758,-0.010682 -0.06979,-0.023147 -0.0937,-0.027871 -0.02394,-0.00472 -0.08507,-0.032106 -0.135993,-0.060548 -0.075692,-0.042277 -0.1005876,-0.051418 -0.1364732,-0.051418 -0.02443,0 -0.05907,-0.00803 -0.078329,-0.01778 C 9.7192695,3.3194481 9.5130277,3.2787644 9.2362788,3.2600488 9.1793064,3.2561953 9.1266416,3.2477083 9.1103773,3.2393856 9.066415,3.2169233 8.9210329,3.2137658 8.8066759,3.232658 8.6162562,3.264113 8.5305395,3.284432 8.4337768,3.322519 8.3661158,3.349151 8.3104475,3.379035 8.3030699,3.390756 c -1.088e-4,2.199e-4 -4.11e-4,0.00124 -4.806e-4,0.00144 v 4.805e-4 4.806e-4 4.804e-4 4.806e-4 l 4.806e-4,4.805e-4 4.805e-4,4.806e-4 c 0.00111,4.565e-4 0.00353,9.611e-4 0.00577,9.611e-4 0.0056,0 0.053135,-0.01273 0.1057189,-0.028352 0.050941,-0.015128 0.096956,-0.026457 0.1047577,-0.025469 h 4.806e-4 4.805e-4 v 4.806e-4 h 4.806e-4 v 4.805e-4 4.806e-4 h -4.841e-4 v 4.805e-4 c -0.00447,0.00492 -0.032185,0.018628 -0.068717,0.033157 C 8.340959,3.4214775 8.1208399,3.5318538 7.9998493,3.604594 7.9080763,3.65977 7.8917923,3.666569 7.8479986,3.666584 c -0.021892,9.7e-6 -0.040385,0.00293 -0.046612,0.00673 H 7.800906 l -4.806e-4,4.806e-4 -4.805e-4,4.804e-4 -4.805e-4,4.806e-4 v 4.805e-4 4.806e-4 c 0,0.0016 3.492e-4,0.00348 9.61e-4,0.00481 1.425e-4,2.482e-4 3.195e-4,0.00121 4.806e-4,0.00144 1.783e-4,2.114e-4 0.00125,7.705e-4 0.00144,9.611e-4 l 4.805e-4,4.806e-4 c 2.211e-4,1.441e-4 0.00121,8.425e-4 0.00144,9.61e-4 2.423e-4,9.14e-5 0.00119,4.181e-4 0.00144,4.805e-4 2.577e-4,3.21e-5 0.00118,4.806e-4 0.00144,4.806e-4 0.00211,0 0.00351,2.047e-4 0.00481,9.611e-4 l 4.806e-4,4.805e-4 h 4.806e-4 l 4.804e-4,4.806e-4 4.806e-4,4.805e-4 v 4.805e-4 c 0.00451,0.00756 -0.00464,0.025863 -0.020663,0.033157 -0.010866,0.00494 -0.02002,0.012966 -0.021624,0.01826 v 4.806e-4 l -4.806e-4,4.805e-4 v 4.806e-4 c 0,0.00195 5.183e-4,0.0035 9.611e-4,0.00481 1.12e-4,2.341e-4 3.431e-4,0.00123 4.805e-4,0.00144 l 4.806e-4,4.805e-4 v 4.806e-4 h 4.805e-4 c 0.00495,0.00281 0.018276,-4.587e-4 0.049015,-0.011533 0.040345,-0.014533 0.1126034,-0.017938 0.1283042,-0.00721 2.299e-4,1.868e-4 0.00124,7.663e-4 0.00144,9.611e-4 l 4.805e-4,4.805e-4 4.806e-4,4.806e-4 c 0.00417,0.00518 0.026133,0.015658 0.049495,0.022585 l 0.043729,0.012975 -0.055743,0.015377 c -0.083452,0.023325 -0.134692,0.042882 -0.1417594,0.054301 -7.445e-4,0.00119 -0.00119,0.0025 -0.00144,0.00336 v 4.806e-4 4.805e-4 4.805e-4 4.805e-4 l 4.805e-4,4.806e-4 4.806e-4,4.805e-4 h 4.805e-4 4.806e-4 c 0.00168,1.257e-4 0.00473,-1.304e-4 0.00817,-0.00144 0.00801,-0.00308 0.045403,-0.00829 0.083133,-0.011533 0.035542,-0.00305 0.052249,-0.00439 0.057184,-0.0024 l 4.806e-4,4.805e-4 h 4.805e-4 v 4.805e-4 h 4.826e-4 v 4.806e-4 4.805e-4 4.806e-4 4.805e-4 4.806e-4 c -0.00127,0.00178 -0.00452,0.00475 -0.00817,0.00769 -0.00425,0.00342 -0.00757,0.00616 -0.00913,0.00817 -1.46e-4,2.317e-4 -8.649e-4,0.00123 -9.611e-4,0.00144 v 4.805e-4 4.806e-4 4.805e-4 4.806e-4 h 4.811e-4 l 4.805e-4,4.805e-4 c 0.00371,0.00192 0.015359,0.00244 0.037002,0.0024 0.094014,-1.81e-4 0.3417516,-0.054499 0.6386379,-0.1398372 0.053877,-0.015488 0.1137579,-0.027871 0.1331096,-0.027871 0.045691,0 0.2301938,-0.060042 0.2647775,-0.086017 0.01473,-0.011068 0.040418,-0.0329 0.057184,-0.048535 0.034505,-0.032162 0.1398407,-0.062391 0.1792414,-0.051418 0.012833,0.00357 0.050738,0.007 0.084095,0.00769 0.033366,6.919e-4 0.071262,0.00756 0.084095,0.014897 0.012833,0.00733 0.035181,0.013273 0.049976,0.013455 0.014786,1.813e-4 0.041484,0.00928 0.059106,0.020183 0.023694,0.014649 0.041529,0.018477 0.068237,0.014897 0.027228,-0.00365 0.040008,-5.999e-4 0.051418,0.012014 0.00292,0.00322 0.00468,0.00611 0.00529,0.00865 v 4.805e-4 l 4.805e-4,4.805e-4 v 4.805e-4 c -3.04e-5,1.908e-4 -4.295e-4,0.00125 -4.805e-4,0.00144 v 4.806e-4 l -4.806e-4,4.805e-4 v 4.78e-4 c -0.00591,0.00812 -0.033251,0.018076 -0.1047578,0.041807 -0.06318,0.020967 -0.2280921,0.065045 -0.366652,0.09803 -0.1385602,0.032985 -0.2724209,0.06523 -0.2974543,0.0716 l -0.045651,0.011533 0.00529,0.058626 c 0.00504,0.054345 0.00426,0.058546 -0.014897,0.063912 -0.011305,0.00316 -0.096003,0.024687 -0.1883717,0.048054 -0.092374,0.023368 -0.245763,0.067213 -0.340703,0.097069 C 8.1945182,4.1320228 8.1529055,4.1412978 8.070017,4.1466448 7.9094509,4.1569998 7.4136739,4.2403198 7.2953864,4.2768711 6.9208054,4.3926228 6.362796,4.5552356 6.3112403,4.5637536 c -0.013146,0.00216 -0.019644,-0.00259 -0.021624,-0.016338 -0.00252,-0.01764 -0.00772,-0.019466 -0.051418,-0.015858 -0.065753,0.00544 -0.1090826,0.020216 -0.1090826,0.036521 0,0.021134 -0.041448,0.031611 -0.1244599,0.031716 -0.042004,5.58e-5 -0.1245462,0.00838 -0.1835663,0.018741 -0.059014,0.01037 -0.1829759,0.024803 -0.2753495,0.032196 -0.188908,0.015123 -0.1916139,0.015961 -0.3075457,0.068237 -0.087738,0.039564 -0.1082892,0.060375 -0.150409,0.1513701 -0.00832,0.017961 -0.027495,0.046095 -0.042288,0.062951 -0.013833,0.015803 -0.025041,0.032802 -0.02643,0.038924 l -4.805e-4,4.806e-4 v 4.805e-4 4.806e-4 c -0.00204,0.00634 -0.018981,0.02522 -0.039404,0.043248 -0.1049002,0.092612 -0.1500451,0.1408648 -0.1629031,0.1729944 -0.016586,0.041398 -0.00343,0.037453 -0.2316203,0.06247 -0.097504,0.010689 -0.2357056,0.027957 -0.3075457,0.037963 -0.1424646,0.019838 -0.4705963,0.056833 -0.6626648,0.074964 l -0.1210961,0.011533 -0.066795,0.050937 -0.066315,0.051418 -0.00673,0.063912 c -0.00349,0.035246 -0.00838,0.05664 -0.014416,0.06247 -2.26e-4,1.73e-4 -0.00121,8.31e-4 -0.00144,9.611e-4 l -4.806e-4,4.805e-4 h -4.806e-4 -4.805e-4 v 4.805e-4 h -4.806e-4 c -0.00685,7.413e-4 -0.023921,0.012718 -0.037963,0.027391 -0.024894,0.025989 -0.026339,0.031 -0.021624,0.08938 0.00414,0.051217 0.00965,0.06636 0.031235,0.0889 0.016368,0.017085 0.03541,0.027391 0.051418,0.027391 0.020546,0 0.02688,0.00508 0.031716,0.02691 0.011168,0.050838 0.032075,0.052421 0.3003376,0.021144 0.1326024,-0.015461 0.2848937,-0.030625 0.3387807,-0.033638 0.053885,-0.00301 0.2458376,-0.024407 0.4267197,-0.047574 0.1808857,-0.02317 0.3929759,-0.048257 0.4709293,-0.055743 0.075522,-0.00725 0.141611,-0.017244 0.150409,-0.022585 h 4.806e-4 v -4.806e-4 c 1.62e-4,-1.622e-4 7.642e-4,-3.202e-4 9.611e-4,-4.805e-4 0.00692,-0.00475 0.029038,-0.0091 0.050937,-0.00913 0.02335,-2.89e-5 0.1720783,-0.014713 0.330131,-0.032677 0.1580565,-0.017965 0.3050193,-0.031575 0.3267674,-0.030755 0.065372,0.00247 0.108808,-0.029584 0.1407982,-0.1033161 l 0.02691,-0.061509 -0.017299,-0.1047577 -0.016819,-0.1047577 0.03556,-0.05382 c 0.045636,-0.069182 0.1556264,-0.1918547 0.2119182,-0.2364257 0.036899,-0.029209 0.053575,-0.035635 0.1066799,-0.041326 0.082882,-0.00889 0.088508,-0.011458 0.081692,-0.038443 -0.0021,-0.00823 -0.00236,-0.013848 -9.61e-4,-0.017299 V 4.893405 l 4.805e-4,-4.805e-4 c 1.467e-4,-1.796e-4 7.961e-4,-0.00128 9.611e-4,-0.00144 l 4.805e-4,-4.805e-4 c 0.00223,-0.00147 0.00637,-0.00238 0.011052,-0.0024 0.00953,-3.72e-5 0.054727,-0.00432 0.1009134,-0.00961 C 6.752132,4.846547 6.9780353,4.833086 7.2391619,4.832862 7.5844773,4.8325653 7.7363854,4.813016 7.9662191,4.740118 8.1895619,4.669278 8.3564587,4.630787 8.7744876,4.5531879 c 0.1128951,-0.020958 0.2144437,-0.040276 0.2258538,-0.042768 0.017483,-0.00386 0.021719,0.00139 0.030274,0.033157 0.012334,0.04581 0.00619,0.045288 0.2186457,0.013936 0.086866,-0.012818 0.1588828,-0.023066 0.1595393,-0.023066 9.299e-4,0 -0.00276,0.024952 -0.00769,0.055743 -0.00833,0.051785 -0.010616,0.056116 -0.033157,0.056223 -0.039066,1.847e-4 -0.066315,0.051263 -0.066315,0.1239794 0,0.030377 0.00379,0.059323 0.00865,0.067276 1.639e-4,2.175e-4 7.954e-4,0.00127 9.611e-4,0.00144 H 9.31173 v 4.806e-4 l 4.805e-4,4.805e-4 c 0.0046,0.011258 -0.0042,0.060021 -0.028832,0.1571366 l -0.037482,0.1480063 0.021624,0.018741 c 0.011931,0.010263 0.033646,0.027644 0.048534,0.038443 l 0.027391,0.019702 -0.021144,0.050457 c -0.011512,0.027792 -0.020663,0.057747 -0.020663,0.066795 0,0.021941 0.099476,0.1866157 0.1758777,0.2912073 0.1010184,0.138293 0.1312766,0.1720099 0.1629031,0.1802025 0.02893,0.0075 0.039835,0.027949 0.077367,0.1427204 0.00691,0.02114 -0.038013,0.045591 -0.1768388,0.095627 -0.1497496,0.053974 -0.219139,0.058711 -0.2940906,0.020663 -0.045281,-0.022983 -0.058032,-0.025 -0.1398371,-0.023066 -0.076661,0.0018 -0.095835,-6.137e-4 -0.1292653,-0.01778 -0.04931,-0.025333 -0.051694,-0.025254 -0.1244599,0.00384 -0.069327,0.027722 -0.1251533,0.038408 -0.25805,0.049976 -0.052325,0.00455 -0.1026666,0.010746 -0.1119658,0.013936 -0.00926,0.00319 -0.047511,0.045549 -0.085056,0.094186 -0.045691,0.059212 -0.078862,0.093068 -0.099952,0.1018745 -0.049556,0.020706 -0.1263788,0.08136 -0.1878911,0.1484869 -0.05561,0.06068 -0.057368,0.06199 -0.1047578,0.06199 h -0.04806 l -0.03604,0.056223 c -0.033474,0.052857 -0.036215,0.062891 -0.042288,0.1508896 -0.00517,0.075108 -0.012852,0.1113352 -0.038443,0.1768387 -0.031259,0.079658 -0.031897,0.085959 -0.031716,0.2104766 2.603e-4,0.1818775 0.013993,0.2538384 0.083614,0.4281613 0.032547,0.081494 0.069292,0.1636534 0.081692,0.1826051 0.011262,0.017175 0.019155,0.034826 0.018261,0.041327 l -4.805e-4,4.805e-4 v 4.806e-4 4.806e-4 h -4.806e-4 v 4.805e-4 l -4.806e-4,4.805e-4 c -0.00581,0.00405 -0.027177,0.00766 -0.049976,0.00817 -0.040372,9.206e-4 -0.048398,-0.00172 -0.066315,-0.025949 -0.014532,-0.019621 -0.028203,-0.027871 -0.048054,-0.027871 -0.010871,0 -0.017558,-4.364e-4 -0.021624,-0.00336 -2.646e-4,-2.338e-4 -0.0012,-0.00118 -0.00144,-0.00144 -0.00324,-0.00431 -0.00476,-0.012636 -0.00481,-0.025469 -2.114e-4,-0.054188 -0.045232,-0.1771978 -0.076886,-0.2099961 -0.025344,-0.026233 -0.035529,-0.030274 -0.075925,-0.030274 -0.037917,0 -0.051309,0.00461 -0.072562,0.024988 -0.029746,0.028544 -0.031567,0.045166 -0.012014,0.1095632 0.011298,0.037549 0.014863,0.052442 0.011052,0.058145 v 4.805e-4 h -4.806e-4 v 4.806e-4 c -0.00226,0.00176 -0.00643,0.0024 -0.011533,0.0024 -0.0081,0 -0.039781,0.021626 -0.070159,0.048054 -0.042256,0.03675 -0.055262,0.054022 -0.055262,0.073523 0,0.03065 -0.016271,0.036818 -0.099952,0.037002 -0.051568,1.116e-4 -0.063303,0.00363 -0.099472,0.031235 -0.055792,0.04259 -0.095224,0.045026 -0.5699205,0.034118 L 6.2766323,7.8468041 6.1699524,7.947237 c -0.05866,0.055093 -0.1089901,0.1090597 -0.1119659,0.120135 -0.00285,0.011066 -3.059e-4,0.029501 0.00577,0.040846 0.00991,0.018496 0.00684,0.025237 -0.032677,0.065354 C 5.9930915,8.21214 5.9624715,8.228873 5.8100311,8.2951487 5.6429394,8.3678037 5.6278794,8.3763977 5.5337205,8.4546879 5.3893001,8.5748104 5.3894481,8.5740189 5.3967666,8.7050493 c 0.00482,0.087126 0.00982,0.1125401 0.025469,0.1345513 0.016742,0.023453 0.017391,0.029697 0.00673,0.046612 -0.046137,0.073003 -0.077274,0.1389232 -0.1018745,0.2157625 -0.037374,0.1164437 -0.038727,0.2390458 -0.00529,0.4291223 0.031801,0.1807802 0.049506,0.2196722 0.1441621,0.3166759 0.043098,0.044151 0.082869,0.077732 0.094666,0.07977 h 4.805e-4 4.806e-4 c 0.00991,0 0.030949,-0.0071 0.047093,-0.015377 0.024599,-0.012833 0.036787,-0.01364 0.074964,-0.00481 0.025047,0.00579 0.052703,0.010572 0.061509,0.010572 0.00887,0 0.059906,-0.025558 0.1134075,-0.057184 0.1206767,-0.071346 0.2398719,-0.1893836 0.4151866,-0.4113424 0.066305,-0.083949 0.1486316,-0.1766083 0.1845275,-0.2075933 0.03566,-0.030785 0.091065,-0.082342 0.1230183,-0.1143685 0.068834,-0.069028 0.1338714,-0.1023619 0.1715527,-0.087939 0.048758,0.018664 0.1283875,0.037127 0.1878912,0.043729 0.1108258,0.012182 0.3171131,0.1322194 0.3171565,0.1845274 1.3e-5,0.013744 0.012979,0.02846 0.039885,0.045171 0.059895,0.037234 0.1160514,0.063912 0.1345513,0.063912 0.051616,0 0.2041206,0.1132766 0.2787132,0.2071128 0.024225,0.03052 0.032123,0.049169 0.032196,0.077848 7.44e-5,0.033496 0.00605,0.04307 0.05382,0.08938 0.064326,0.062351 0.093437,0.083 0.1186934,0.083134 h 4.805e-4 c 0.013653,0.00252 0.059033,0.043194 0.1239794,0.1119658 0.058127,0.061528 0.1100012,0.1119659 0.1153296,0.1119659 0.034075,0 0.1215393,0.05265 0.1590588,0.09611 0.029051,0.03365 0.065368,0.06088 0.120135,0.08986 0.082748,0.04378 0.1159068,0.07747 0.3503137,0.354158 0.041781,0.04932 0.1447933,0.166759 0.2287372,0.261414 l 0.1523311,0.172033 0.1355123,0.08313 c 0.074418,0.04566 0.1620314,0.10231 0.1950993,0.125902 0.032849,0.02344 0.074794,0.04564 0.093225,0.0495 h 4.806e-4 c 0.044043,0.0084 0.1629865,0.0081 0.2614138,-4.81e-4 0.032902,-0.0028 0.05064,-0.0044 0.054301,-0.0058 l 4.808e-4,-4.81e-4 v -4.81e-4 h -4.808e-4 c -0.00253,-6.29e-4 -0.010244,-0.0015 -0.021624,-0.0019 l -0.046612,-0.0014 0.027391,-0.02259 c 0.015028,-0.01227 0.06777,-0.04332 0.1172515,-0.0692 0.066533,-0.03479 0.1004007,-0.05898 0.1292657,-0.09322 0.03735,-0.0443 0.03918,-0.051 0.05238,-0.147526 0.04424,-0.322344 0.06073,-0.610406 0.04325,-0.756395 -0.04856,-0.405268 -0.07013,-0.5390106 -0.117252,-0.7299407 -0.095019,-0.3850241 -0.08915,-0.3519247 -0.07448,-0.4002899 0.01758,-0.058086 0.0169,-0.075581 -0.0086,-0.1758777 -0.037891,-0.1487872 -0.033465,-0.1493908 0.384912,-0.068237 0.60858,0.118046 0.571576,0.1124465 0.759253,0.1124465 0.09366,0 0.184422,-0.00381 0.201346,-0.00865 0.04571,-0.013108 0.152692,-0.096583 0.19558,-0.1523312 0.08887,-0.1154961 0.134457,-0.2231601 0.145124,-0.3426251 0.0047,-0.052781 0.002,-0.068866 -0.02066,-0.1220572 C 11.612771,8.1631364 11.525274,8.0567858 11.312212,7.8660257 11.175057,7.7432229 10.775869,7.4213883 10.623118,7.3105214 l -0.101394,-0.073523 0.0221,-0.016819 c 0.01209,-0.00922 0.03268,-0.019129 0.04613,-0.022105 0.01348,-0.00303 0.03494,-0.016257 0.04709,-0.029313 0.01219,-0.013056 0.05553,-0.046943 0.09659,-0.075445 0.104965,-0.072874 0.193848,-0.1618119 0.253725,-0.2537252 0.02823,-0.04333 0.07536,-0.1106702 0.104758,-0.1494479 0.02939,-0.038779 0.07923,-0.1080661 0.110524,-0.1542534 0.0899,-0.1326062 0.0915,-0.1339108 0.160981,-0.1436815 0.03337,-0.00469 0.09622,-0.02199 0.139837,-0.037963 0.172805,-0.063281 0.25092,-0.1332518 0.340703,-0.3056235 l 0.04469,-0.086017 0.0043,-0.120135 c 0.005,-0.1398072 -0.0013,-0.1650342 -0.08698,-0.3248451 -0.02782,-0.051864 -0.05094,-0.097123 -0.05094,-0.100433 v -4.79e-4 c 5.7e-5,-2.021e-4 3.97e-4,-0.00125 4.81e-4,-0.00144 l 4.81e-4,-4.805e-4 v -4.806e-4 l 4.8e-4,-4.805e-4 c 0.01081,-0.00812 0.06368,0.00252 0.116291,0.024988 0.149009,0.063627 0.516254,0.2056711 0.531477,0.2056711 0.0091,0 0.02434,-0.00691 0.03364,-0.015377 0.01582,-0.014321 0.02115,-0.014161 0.07977,0.00144 0.113582,0.030228 0.434037,0.1519481 0.565596,0.2148014 0.126361,0.060376 0.130996,0.061489 0.236426,0.070639 0.122186,0.010612 0.151704,0.00498 0.213841,-0.041807 0.04878,-0.036735 0.12494,-0.1319455 0.12494,-0.1561755 0,-0.029678 -0.06353,-0.3146124 -0.08506,-0.3810683 -0.02301,-0.07105 -0.07235,-0.1573774 -0.119655,-0.209996 C 13.43548,5.1064199 13.39627,5.0507799 13.36648,5.0034481 13.32203,4.9327981 13.30865,4.9019922 13.29248,4.8309342 13.28161,4.7833272 13.27356,4.7212441 13.27422,4.6930192 13.274936,4.6647932 13.26862,4.555417 13.26076,4.4498659 13.25286,4.3443154 13.24824,4.197163 13.25019,4.1230986 l 0.0034,-0.1345512 0.03508,-0.06247 0.03508,-0.06199 -0.02355,-0.203749 C 13.287365,3.548256 13.268335,3.3705388 13.25792,3.2653348 13.247467,3.1601314 13.224384,2.9585979 13.206502,2.8174714 13.140135,2.2938182 13.089644,1.8755346 13.075314,1.7304897 c -0.01754,-0.1773423 -0.02209,-0.191255 -0.05959,-0.191255 -0.02063,0 -0.03253,-0.00759 -0.04805,-0.030274 -0.03118,-0.045588 -0.0453,-0.053821 -0.0937,-0.053821 z m -0.530997,4.3306274 c -0.0021,9.65e-5 -0.0046,1.736e-4 -0.0072,4.805e-4 -0.0237,0.00275 -0.02979,0.016965 -0.132148,0.298896 l -0.107641,0.2960127 -0.05142,0.0024 c -0.04701,0.0025 -0.05122,0.0049 -0.05382,0.02643 -0.0018,0.015087 0.01379,0.050913 0.04325,0.099952 0.02522,0.041988 0.04846,0.083538 0.0519,0.092744 0.0035,0.00924 0.02547,0.051847 0.04853,0.094186 0.04625,0.084939 0.03977,0.081352 0.142241,0.070639 0.05475,-0.00573 0.05718,-0.00681 0.05718,-0.031235 0,-0.014051 0.01113,-0.054608 0.02451,-0.089861 0.01337,-0.035251 0.07033,-0.1914956 0.126382,-0.3474306 l 0.10187,-0.2835154 -0.03364,-0.094666 c -0.04008,-0.1127172 -0.05137,-0.1268626 -0.09899,-0.1268626 -0.03053,0 -0.03669,0.00367 -0.04181,0.024027 -0.0086,0.034101 -0.04435,0.028044 -0.04853,-0.00817 -0.0011,-0.00976 -0.0027,-0.016072 -0.0058,-0.019702 -0.003,-0.00304 -0.0079,-0.00464 -0.0149,-0.00432 z m -6.8938288,0.34695 -0.020663,0.027871 c -0.011308,0.015342 -0.022635,0.045555 -0.024988,0.067276 l -0.00432,0.039885 0.045171,0.014416 c 0.024974,0.00811 0.09827,0.027884 0.1624226,0.043729 0.064143,0.015846 0.122539,0.032795 0.1302263,0.037482 0.058995,0.035891 0.1227913,-0.085011 0.078328,-0.1484869 -0.011668,-0.016671 -0.021156,-0.020272 -0.040846,-0.016338 -0.014535,0.00291 -0.090277,-0.010188 -0.175397,-0.030274 z M 1.5673393,11.542638 v 3.022117 h 0.3642494 c 0.2003753,0 0.3656901,-0.0019 0.3671326,-0.0043 0.00148,-0.0023 0.055542,-0.310738 0.1206156,-0.685251 l 0.1186933,-0.680925 -0.063431,-0.08746 -0.062951,-0.08746 0.4363305,-0.0014 c 0.2400647,-7.37e-4 0.4372715,-5.03e-4 0.4382526,4.79e-4 9.857e-4,10e-4 -0.016225,0.119063 -0.038443,0.262376 l -0.040365,0.260933 h -0.335417 c -0.286832,0 -0.3349692,8.85e-4 -0.3325338,0.0072 0.00531,0.01388 0.6296575,0.997379 0.6381572,1.00529 0.00748,0.007 0.089159,0.0076 0.6943805,0.0053 l 0.6866918,-0.0029 -0.07112,-0.09419 c -0.03666,-0.04889 -0.065436,-0.09166 -0.067276,-0.09947 v -4.81e-4 -4.81e-4 c 0.00718,-0.01202 0.8740121,-1.040849 0.8769857,-1.040849 0.00295,0 0.3306115,0.631497 0.3306115,0.637196 0,0.0015 -0.1572224,0.0028 -0.3498332,0.0029 l -0.3503137,4.81e-4 -0.068237,0.08409 c -0.03751,0.04635 -0.069195,0.08624 -0.070159,0.0889 -0.00108,0.0029 0.1828323,0.0053 0.4646823,0.0053 h 0.4661239 l 0.056223,0.112927 0.056704,0.113407 -0.067756,0.0716 c -0.037382,0.03944 -0.078677,0.08192 -0.091783,0.09467 -0.01146,0.01115 -0.020628,0.02275 -0.021624,0.02691 v 4.81e-4 h 4.806e-4 v 4.81e-4 c 0.00148,0.0024 0.227898,0.0043 0.503606,0.0043 0.4432415,0 0.5009886,-7.89e-4 0.4983201,-0.0077 -0.00167,-0.0044 -0.2010601,-0.351518 -0.4435385,-0.771266 -0.2424789,-0.419791 -0.4411362,-0.765167 -0.4411362,-0.767467 0,-0.0023 0.038882,-0.04279 0.086497,-0.09034 0.047616,-0.04755 0.086497,-0.08862 0.086497,-0.09082 0,-0.0022 -0.1999489,-0.0039 -0.4444996,-0.0038 l -0.4444996,4.81e-4 -0.6006751,0.673717 c -0.3303462,0.370676 -0.6020647,0.673874 -0.6035584,0.673717 -0.00148,-1.56e-4 -0.079669,-0.107932 -0.1739555,-0.23979 l -0.1715524,-0.239836 0.037963,-0.0014 c 0.2448007,-0.0079 0.2871724,-0.01324 0.341664,-0.04517 0.029491,-0.01728 0.07233,-0.06437 0.0889,-0.09707 0.020674,-0.04081 0.031548,-0.09574 0.058145,-0.291687 0.026302,-0.193765 0.026891,-0.219948 0.00673,-0.274389 -0.025859,-0.06964 -0.066413,-0.111604 -0.1287847,-0.132629 -0.07811,-0.02634 -0.04271,-0.02575 -1.1408023,-0.02595 -0.5648463,-1.01e-4 -1.0273947,10e-4 -1.0273947,0.0024 0,0.0014 0.026988,0.04004 0.059587,0.08554 0.0326,0.0455 0.060933,0.0851 0.062951,0.08842 0.00295,0.0047 -0.285021,1.511585 -0.292649,1.531481 -0.00108,0.0029 -0.00211,-0.670894 -0.0024,-1.496882 z m 3.1172636,0 -0.00384,0.06295 -0.00384,0.06295 H 4.9354535 5.193984 l -0.00288,0.02739 c -0.00167,0.01515 -0.01177,0.214139 -0.022585,0.442098 l -0.019702,0.414706 -0.057184,0.06295 -0.057184,0.06295 0.3344558,0.0014 c 0.1839663,7.42e-4 0.3354889,-9.5e-5 0.3368586,-0.0014 0.00138,-0.0014 -0.019689,-0.03025 -0.047093,-0.06439 l -0.049976,-0.06199 0.014897,-0.356561 c 0.00816,-0.196075 0.014798,-0.368703 0.014897,-0.38347 1.722e-4,-0.02615 -8.528e-4,-0.02801 -0.046612,-0.08362 l -0.047093,-0.05718 0.2782327,-0.0014 0.2787133,-0.0014 0.058145,-0.0495 c 0.032118,-0.02711 0.064954,-0.05545 0.073042,-0.06295 l 0.014897,-0.01346 z m 1.563197,0 0.1004329,4.81e-4 c 0.05293,3.02e-4 0.07885,0.0012 0.082653,0.0029 v 4.81e-4 h 4.805e-4 v 4.8e-4 h -4.805e-4 l -4.805e-4,4.81e-4 c -9.411e-4,3.6e-4 -0.00265,5.43e-4 -0.00481,9.61e-4 -0.038149,0.0074 -0.085551,0.03372 -0.1124463,0.06247 -0.036231,0.03874 -0.050222,0.07341 -0.055743,0.137915 -0.0067,0.07875 -0.022449,0.683522 -0.019222,0.737149 0.00511,0.08565 0.039656,0.141927 0.1076409,0.175396 l 0.03508,0.0173 0.6741978,0.0014 c 0.4514677,9.3e-4 0.6830632,-7.2e-4 0.7006274,-0.0043 0.059532,-0.01237 0.1287255,-0.05645 0.1528118,-0.09755 0.00788,-0.01335 0.019074,-0.04 0.024988,-0.05911 0.010342,-0.03347 0.01037,-0.04896 0.012014,-0.425278 0.00187,-0.43176 0.00344,-0.414528 -0.031235,-0.469008 -0.028132,-0.0442 -0.071769,-0.06725 -0.1456037,-0.07689 -0.00163,-2.09e-4 -0.00324,-7.6e-4 -0.00384,-9.61e-4 v -4.8e-4 h 4.805e-4 c 0.00586,-0.0016 0.045144,-0.0025 0.1081216,-0.0029 l 0.1340707,-9.61e-4 z m 1.7597379,0 0.05382,0.06247 0.05334,0.06247 v 0.444018 0.44402 l -0.05334,0.06151 -0.05334,0.06151 0.3349365,0.0014 c 0.1842585,7.42e-4 0.3360216,3.32e-4 0.3373391,-9.61e-4 0.00128,-0.0013 -0.021145,-0.03024 -0.049976,-0.06391 l -0.052379,-0.06103 -0.00384,-0.272466 c -0.00217,-0.149857 -0.00321,-0.273572 -0.00192,-0.274869 0.00128,-0.0013 0.1211355,0.121458 0.2662192,0.272946 l 0.2638165,0.27535 h 0.066795 0.067276 l 0.2532447,-0.27535 c 0.1393849,-0.151492 0.2543344,-0.27474 0.2551667,-0.273907 8.341e-4,8.33e-4 0.005,0.123614 0.00961,0.272947 0.00809,0.260798 0.00815,0.271986 -9.611e-4,0.283999 -0.00521,0.0069 -0.028201,0.03521 -0.050937,0.06295 -0.019886,0.02427 -0.035692,0.04606 -0.038443,0.0519 l -4.805e-4,4.81e-4 v 4.8e-4 c 0.00139,0.0014 0.1530182,0.0022 0.3368581,0.0014 l 0.334456,-0.0014 -0.05478,-0.06151 -0.05478,-0.06103 -0.0034,-0.0543 c -0.0041,-0.06873 -0.02932,-0.762172 -0.02931,-0.805386 v -0.0322 l 0.04709,-0.0567 c 0.02596,-0.0312 0.04709,-0.05827 0.04709,-0.06055 v -4.8e-4 h 4.8e-4 v -4.81e-4 h 4.81e-4 l 4.81e-4,-4.81e-4 c 0.0042,-0.0016 0.01706,-0.0026 0.03172,-0.0024 h 0.03268 l 0.02739,0.03268 c 0.01511,0.01784 0.03966,0.04611 0.05478,0.06295 l 0.02787,0.03076 0.01778,0.442096 0.01826,0.442097 -0.04661,0.05718 c -0.0256,0.03144 -0.04862,0.06024 -0.05142,0.06391 -0.0041,0.0054 0.140179,0.0065 0.754929,0.0053 l 0.760215,-0.0014 0.0346,-0.01201 c 0.04597,-0.01562 0.07742,-0.04321 0.09707,-0.08602 0.01393,-0.03035 0.01518,-0.03931 0.01682,-0.104276 0.002,-0.08196 -0.0073,-0.156643 -0.02499,-0.197502 -0.01592,-0.03695 -0.05723,-0.07543 -0.09707,-0.09034 -0.01705,-0.0064 -0.08193,-0.02761 -0.144162,-0.04709 l -0.112928,-0.03556 -0.0014,-0.01778 -0.0014,-0.01826 0.08794,-0.01442 c 0.136021,-0.02216 0.165197,-0.03324 0.186449,-0.07304 0.01122,-0.02103 0.01195,-0.02859 0.01153,-0.111966 -5e-4,-0.110903 -0.008,-0.162683 -0.02883,-0.205191 -0.02679,-0.05483 -0.09174,-0.104987 -0.15185,-0.116771 -0.01353,-0.0027 0.73464,-0.005 1.777037,-0.0053 l 1.801064,-4.81e-4 z m 0.8500754,0.0014 c 0.1598486,-7.46e-4 0.4221827,-7.46e-4 0.5828952,0 l 0.2921683,0.0014 -0.2691024,0.28448 -0.2691025,0.28448 H 9.1617948 9.1286378 L 8.8480024,11.829918 8.567367,11.545438 Z m -1.8025059,0.12446 h 0.4142255 l -0.00288,0.245555 c -0.00138,0.1349 -0.00361,0.333169 -0.00529,0.440656 l -0.00336,0.195099 H 7.0887451 6.7192097 l 4.806e-4,-0.02979 c 7.08e-5,-0.01659 0.00346,-0.168534 0.00769,-0.337338 0.00423,-0.168805 0.00759,-0.327184 0.00769,-0.352236 v -0.04565 l -0.047093,-0.05526 c -0.025968,-0.03038 -0.047093,-0.05658 -0.047093,-0.05814 0,-0.0016 0.1864037,-0.0029 0.4142256,-0.0029 z m 4.0966047,0.0014 c 0.183774,-7.48e-4 0.336663,-6.96e-4 0.339742,4.81e-4 0.0052,0.002 0.02216,0.253517 0.0173,0.257089 -0.0011,8.22e-4 -0.03505,0.01624 -0.07545,0.03412 l -0.07352,0.0322 h -0.21336 -0.212879 l -0.0034,-0.04613 c -0.0017,-0.02525 -0.0044,-0.07197 -0.0062,-0.104276 l -0.0034,-0.05911 -0.05142,-0.05622 -0.0519,-0.0567 z m -0.21384,0.405096 0.04325,0.04613 0.04277,0.04613 0.172994,-4.8e-4 h 0.172995 l 0.09995,0.02691 c 0.05491,0.01481 0.101422,0.0285 0.103317,0.03027 0.0033,0.0031 0.02019,0.257271 0.02018,0.303702 v 0.0221 h -0.317636 -0.317157 v -0.01682 c -4e-5,-0.0094 -0.0049,-0.108033 -0.01057,-0.219127 -0.0057,-0.111094 -0.01018,-0.210469 -0.01009,-0.220568 z m -3.7112119,0.758292 c -0.2818815,0 -0.5123049,0.0017 -0.5122557,0.0038 5.11e-5,0.0021 0.032709,0.04273 0.073042,0.09034 0.068092,0.08038 0.073278,0.08815 0.073042,0.107641 -1.416e-4,0.01154 -0.020519,0.359353 -0.045651,0.772709 l -0.045651,0.751564 h 0.365691 0.3656911 l 0.0024,-0.02259 c 0.00148,-0.01227 0.016078,-0.350474 0.032196,-0.751565 0.016118,-0.401092 0.030289,-0.738788 0.031715,-0.750604 0.00236,-0.01904 0.011164,-0.03009 0.074484,-0.09707 0.039301,-0.04157 0.077273,-0.08193 0.084575,-0.08986 l 0.013455,-0.01442 z m 1.694865,0 c -0.5908159,-1.6e-5 -1.0740603,0.0017 -1.0740072,0.0038 5.51e-5,0.0021 0.023753,0.0312 0.052859,0.06439 0.029117,0.03318 0.063427,0.07235 0.076406,0.08746 l 0.024027,0.02787 -0.020183,0.672756 -0.019702,0.672757 -0.086978,0.09659 c -0.047842,0.05289 -0.087916,0.09822 -0.0889,0.100914 -0.00108,0.0031 0.4295109,0.0043 1.1283082,0.0034 1.0738445,-0.0014 1.1312429,-0.002 1.1609849,-0.01105 0.104221,-0.03171 0.191463,-0.09693 0.224892,-0.167708 0.0079,-0.01675 0.01909,-0.04751 0.02451,-0.06872 0.02167,-0.08472 0.02164,-0.12269 0.0029,-0.700627 -0.0163,-0.500984 -0.01831,-0.545468 -0.02787,-0.572323 -0.03437,-0.09657 -0.08513,-0.151537 -0.166747,-0.181164 -0.07954,-0.02887 -0.04686,-0.02832 -1.2104809,-0.02835 z m 1.4219189,0 0.01249,0.01538 c 0.0069,0.0086 0.0449,0.0497 0.08457,0.0913 l 0.07208,0.07545 0.02499,0.675159 0.02499,0.674677 -0.08025,0.09563 c -0.04403,0.05247 -0.07977,0.09689 -0.07977,0.09899 0,0.0021 0.691061,0.0035 1.535806,0.0029 l 1.535806,-0.0014 -9.61e-4,-0.02066 c -5.98e-4,-0.01142 -0.03437,-0.319267 -0.07496,-0.684289 l -0.074,-0.663626 -0.09034,-0.08794 -0.09034,-0.08794 h 0.439213 0.439214 l 0.0029,0.01201 c 0.0033,0.01498 0.06583,0.49371 0.06583,0.504567 0,0.0072 -0.03665,0.0082 -0.333015,0.0082 -0.183232,0 -0.33306,0.0017 -0.333015,0.0038 1.34e-4,0.0062 0.930863,1.016839 0.935132,1.01538 0.002,-7.29e-4 0.214456,-0.0014 0.47189,-0.0014 h 0.468046 l -0.432486,-0.429122 -0.432006,-0.428642 0.112447,-0.0038 c 0.06181,-0.0021 0.13167,-0.0063 0.155214,-0.0091 0.07332,-0.0087 0.11637,-0.03628 0.144163,-0.09274 0.02754,-0.05595 0.02683,-0.0879 -0.0082,-0.318598 -0.03079,-0.203188 -0.03643,-0.225225 -0.07208,-0.28496 -0.0244,-0.04089 -0.07531,-0.09045 -0.113889,-0.111005 -0.01782,-0.0095 -0.05546,-0.02346 -0.08361,-0.03124 l -0.05094,-0.01442 -1.049499,-0.0014 -1.04902,-9.61e-4 0.09034,0.09082 0.09082,0.09082 0.06007,0.652573 c 0.03289,0.359073 0.06094,0.662897 0.06247,0.67516 l 0.0029,0.02258 h -0.717455 -0.717927 l -0.02018,-0.370015 c -0.01122,-0.203397 -0.01899,-0.37121 -0.0173,-0.3729 0.0017,-0.0017 0.0526,0.03051 0.113408,0.07112 l 0.110525,0.07352 h 0.438732 0.438253 l -0.0029,-0.03027 c -0.0057,-0.05601 -0.01874,-0.205757 -0.01874,-0.216242 0,-0.01031 -0.0048,-0.01057 -0.545413,-0.01057 H 11.24156 v -0.0221 c -3e-6,-0.01227 -0.0032,-0.08341 -0.0077,-0.158097 l -0.0082,-0.135993 -0.08313,-0.08698 -0.08361,-0.08746 0.616052,-0.0024 0.616052,-0.0024 -0.08698,-0.09082 -0.08698,-0.09034 h -0.887077 z m -1.416633,0.183566 c 0.4014257,2.3e-5 0.4317537,0.0015 0.5060087,0.02643 0.074794,0.0252 0.129282,0.06715 0.1547339,0.119174 0.01248,0.02551 0.014135,0.03736 0.01778,0.108121 0.00223,0.04372 0.00493,0.261236 0.00577,0.483424 0.00167,0.435076 0.00208,0.432277 -0.025469,0.487268 -0.027284,0.05444 -0.069608,0.08668 -0.1432009,0.109082 l -0.039404,0.01201 -0.436811,0.0014 c -0.2402221,9.3e-4 -0.4368109,3.18e-4 -0.4368109,-0.0014 0,-0.0018 0.036411,-0.04404 0.081211,-0.09419 l 0.081692,-0.0913 0.00481,-0.389718 c 0.00275,-0.214452 0.00519,-0.436209 0.00529,-0.492554 v -0.102355 l -0.075925,-0.08457 c -0.041839,-0.04667 -0.075925,-0.08635 -0.075925,-0.08794 0,-0.0016 0.1692249,-0.0029 0.3762629,-0.0029 z m -4.9947339,1.937057 c -6.456e-4,1.25e-4 -0.00181,0.0012 -0.0024,0.0014 -8.503e-4,4.88e-4 -0.00163,0.0012 -0.0024,0.0019 -0.00335,0.0033 -0.00687,0.09129 -0.00913,0.235946 -0.00282,0.182519 -0.0042,0.231054 -0.015377,0.243633 -2.474e-4,2.37e-4 -0.00118,0.0012 -0.00144,0.0014 -0.00374,0.0025 -0.00882,0.0024 -0.014897,0.0024 -0.011845,0 -0.02414,0.0063 -0.028832,0.01249 -5.47e-4,8.52e-4 -0.0012,0.0025 -0.00144,0.0034 -1.336e-4,8.46e-4 2.598e-4,0.0026 4.805e-4,0.0034 1.158e-4,2.64e-4 3.213e-4,7.04e-4 4.806e-4,9.61e-4 v 4.81e-4 h 4.805e-4 v 4.8e-4 h 4.805e-4 c 0.00693,0.0033 0.036633,0.0053 0.094186,0.0053 0.065631,0 0.086845,-0.0014 0.093225,-0.0058 1.992e-4,-1.73e-4 7.958e-4,-0.0013 9.61e-4,-0.0014 l 4.806e-4,-4.8e-4 v -4.81e-4 c 8.125e-4,-0.0021 0.00175,-0.0047 0.00192,-0.0062 6.5e-6,-2.4e-4 -4.642e-4,-0.0012 -4.806e-4,-0.0014 v -4.81e-4 -4.81e-4 c -9.23e-5,-1.92e-4 -8.412e-4,-0.0013 -9.611e-4,-0.0014 l -4.805e-4,-4.81e-4 -4.806e-4,-4.81e-4 c -0.00356,-0.0027 -0.011915,-0.004 -0.027391,-0.0062 -0.023232,-0.0033 -0.025833,-0.0054 -0.031235,-0.0221 -0.00335,-0.01022 -0.00745,-0.08051 -0.00961,-0.159059 L 3.974377,15.120338 4.1516964,15.2991 c 0.097691,0.09832 0.1803122,0.17882 0.1835663,0.17876 2.028e-4,-4e-6 0.00123,-4.54e-4 0.00144,-4.81e-4 0.00319,-6.65e-4 0.00751,-0.0031 0.010091,-0.0062 0.00335,-0.004 0.00686,-0.09337 0.00961,-0.235465 0.00344,-0.177063 0.00614,-0.230421 0.011533,-0.236907 0.00384,-0.0046 0.015822,-0.0092 0.02643,-0.01009 0.00953,-8.14e-4 0.014778,-0.0024 0.0173,-0.0053 l 4.805e-4,-4.81e-4 c 0.00101,-0.0016 0.00144,-0.0037 0.00144,-0.0062 0,-9.46e-4 -3.513e-4,-0.0026 -4.806e-4,-0.0034 -6.73e-5,-2.44e-4 -3.839e-4,-0.0012 -4.805e-4,-0.0014 v -4.8e-4 h -4.805e-4 c -3.397e-4,-3.94e-4 -0.0014,-0.0016 -0.00192,-0.0019 -0.00697,-0.0034 -0.027731,-0.0034 -0.088419,-0.0034 -0.063475,0 -0.083822,4.61e-4 -0.089861,0.0043 -2.135e-4,1.82e-4 -7.915e-4,7.64e-4 -9.61e-4,9.61e-4 v 4.8e-4 l -4.805e-4,4.81e-4 c -9.63e-5,2.28e-4 -4.136e-4,0.0012 -4.806e-4,0.0014 -1.286e-4,7.84e-4 0,0.0019 0,0.0029 0,0.0078 0.00357,0.01046 0.015377,0.01153 0.030061,0.0028 0.0399,0.0071 0.04421,0.01874 0.00236,0.0064 0.0061,0.07986 0.00817,0.163384 l 0.00384,0.15185 -0.1278237,-0.130707 c -0.070228,-0.07198 -0.1489755,-0.153845 -0.1749166,-0.181644 -0.037256,-0.03993 -0.054239,-0.0552 -0.064392,-0.05574 h -4.805e-4 c -5.846e-4,7e-6 -0.00138,-1.04e-4 -0.00192,0 z m 6.3628319,0.0024 c -0.08976,0 -0.149535,0.02235 -0.202788,0.07593 -0.04791,0.04821 -0.07245,0.110357 -0.07256,0.183086 -1.98e-4,0.124511 0.07898,0.228217 0.1951,0.254686 0.04936,0.01125 0.128629,0.0065 0.173955,-0.01009 0.08391,-0.03075 0.14105,-0.09309 0.163865,-0.178761 0.01084,-0.04073 0.009,-0.121272 -0.0034,-0.161462 -0.03248,-0.105147 -0.122866,-0.163383 -0.254205,-0.163383 z m -3.6448971,0.0053 c -0.00128,3.3e-5 -0.00265,3.32e-4 -0.00432,4.81e-4 -0.00718,6.78e-4 -0.079226,0.0017 -0.1600199,0.0024 -0.1116647,0.0011 -0.138719,0.0017 -0.1451231,0.0067 l -4.805e-4,4.8e-4 v 4.81e-4 h -4.806e-4 v 4.81e-4 4.8e-4 l -4.805e-4,4.8e-4 c -1.81e-4,7.94e-4 0,0.0019 0,0.0029 0,0.0022 2.263e-4,0.0043 9.611e-4,0.0058 l 4.805e-4,4.79e-4 4.806e-4,4.81e-4 4.805e-4,4.81e-4 c 0.0031,0.003 0.00931,0.0048 0.022105,0.0062 0.013697,0.0016 0.028095,0.0055 0.031716,0.0091 0.00502,0.005 0.00634,0.05429 0.00625,0.212399 -1.446e-4,0.174361 -0.00103,0.216793 -0.013936,0.226815 -0.00349,0.0023 -0.00804,0.0024 -0.013455,0.0024 -0.012424,7.1e-5 -0.021943,0.0041 -0.025469,0.0091 -1.434e-4,2.51e-4 -3.62e-4,0.0012 -4.805e-4,0.0014 -1.868e-4,5.31e-4 -3.97e-4,0.0018 -4.805e-4,0.0024 -7.69e-5,0.0014 -1.314e-4,0.0032 4.805e-4,0.0048 l 4.805e-4,4.8e-4 c 1.145e-4,2.12e-4 8.139e-4,0.0012 9.611e-4,0.0014 l 4.805e-4,4.8e-4 c 0.0063,0.0051 0.029648,0.006 0.1158102,0.0072 0.062877,8.33e-4 0.1277589,0.0021 0.144162,0.0029 0.016403,6.52e-4 0.035516,-0.0011 0.042768,-0.0038 0.015036,-0.0057 0.020405,-0.02519 0.021144,-0.07641 2.472e-4,-0.01666 -1.856e-4,-0.0251 -0.0024,-0.02883 l -4.805e-4,-4.8e-4 -4.806e-4,-4.81e-4 h -4.804e-4 l -4.806e-4,-4.81e-4 -4.805e-4,-4.81e-4 h -4.806e-4 c -0.00121,-3.79e-4 -0.00258,-4.79e-4 -0.00432,-4.79e-4 -0.0064,0 -0.01099,0.0041 -0.012013,0.01057 -0.00354,0.02216 -0.012962,0.03804 -0.025469,0.04373 -0.020211,0.0092 -0.1022009,0.008 -0.1162907,-0.0019 -0.011296,-0.0079 -0.011533,-0.01148 -0.011533,-0.100913 v -0.09226 l 0.050937,0.0034 c 0.055891,0.0036 0.063451,0.0079 0.069198,0.03604 0.0023,0.01126 0.00826,0.01793 0.013455,0.01922 0.00121,1.46e-4 0.00321,-4.58e-4 0.00432,-9.61e-4 0.00241,-0.0015 0.00472,-0.0045 0.00577,-0.0096 0.00138,-0.0067 0.00409,-0.03385 0.00577,-0.06055 0.00187,-0.02854 0.00175,-0.04126 -4.805e-4,-0.04613 l -4.806e-4,-4.8e-4 -4.805e-4,-4.81e-4 -4.806e-4,-4.81e-4 -4.804e-4,-4.8e-4 h -4.806e-4 l -4.805e-4,-4.81e-4 h -4.806e-4 c -6.222e-4,-1.16e-4 -0.00166,0 -0.0024,0 -0.00492,0 -0.012468,0.0032 -0.017299,0.0077 -0.0062,0.0056 -0.026656,0.0092 -0.067756,0.01153 l -0.058145,0.0034 v -0.08554 -0.08554 l 0.051898,0.0034 c 0.028615,0.0019 0.055873,0.0049 0.060548,0.0067 h 4.805e-4 l 4.805e-4,4.81e-4 c 0.00455,0.0028 0.010282,0.01363 0.013455,0.02547 0.00433,0.01619 0.00926,0.02307 0.015858,0.02307 0.00142,0 0.00316,-5.6e-4 0.00432,-9.61e-4 5.506e-4,-2.61e-4 0.00191,-10e-4 0.0024,-0.0014 0.00561,-0.0056 0.00767,-0.02181 0.00913,-0.06295 8.021e-4,-0.02294 5.27e-4,-0.03392 -0.00144,-0.03844 v -4.81e-4 l -4.805e-4,-4.81e-4 -4.806e-4,-4.8e-4 -4.805e-4,-4.81e-4 -4.806e-4,-4.8e-4 h -4.806e-4 c -9.614e-4,-3.04e-4 -0.00248,-5.17e-4 -0.00384,-4.81e-4 z m 2.0201907,0.0029 c -0.060958,0.001 -0.078995,0.0024 -0.084094,0.0067 l -4.806e-4,4.8e-4 -4.805e-4,4.81e-4 c -9.98e-5,2.23e-4 -4.096e-4,0.0012 -4.806e-4,0.0014 -1.4e-4,7.62e-4 0,0.002 0,0.0029 0,0.0073 0.00439,0.01111 0.015858,0.01345 0.00896,0.0019 0.018976,0.0049 0.022105,0.0067 0.00315,0.002 0.039228,0.104447 0.08025,0.227777 0.041023,0.123329 0.078079,0.230714 0.082172,0.238828 0.011493,0.02274 0.02275,0.0159 0.043729,-0.02643 0.010381,-0.02094 0.042281,-0.09842 0.070639,-0.172033 l 0.051418,-0.133591 0.0716,0.171554 c 0.0664,0.159781 0.07209,0.172033 0.084094,0.172033 0.01232,0 0.016485,-0.0098 0.084095,-0.209996 0.096008,-0.284389 0.092159,-0.27535 0.1177323,-0.27535 0.0067,0 0.014503,-0.0033 0.01778,-0.0072 0.00199,-0.0024 0.00349,-0.0049 0.00384,-0.0067 v -4.81e-4 -4.8e-4 -4.81e-4 -4.81e-4 l -4.805e-4,-4.8e-4 v -4.8e-4 l -4.806e-4,-4.81e-4 -4.805e-4,-4.81e-4 -4.805e-4,-4.8e-4 c -0.00644,-0.0061 -0.031186,-0.0078 -0.083134,-0.0067 -0.045112,9.15e-4 -0.063165,0.0022 -0.069678,0.0053 -2.634e-4,1.59e-4 -0.00122,7.9e-4 -0.00144,9.62e-4 l -4.805e-4,4.8e-4 -4.806e-4,4.8e-4 c -1.135e-4,2.12e-4 -3.952e-4,0.0012 -4.806e-4,0.0014 -6.08e-5,2.42e-4 -4.404e-4,0.0012 -4.805e-4,0.0014 -4.6e-5,5.49e-4 0,0.0013 0,0.0019 0,0.008 0.00428,0.01098 0.018261,0.01297 0.011926,0.0018 0.019042,0.0061 0.020183,0.01201 0.00187,0.0098 -0.083677,0.302737 -0.088419,0.30274 -0.00157,1e-6 -0.01974,-0.04201 -0.040846,-0.09322 -0.082813,-0.201024 -0.099192,-0.237217 -0.1086021,-0.242192 h -4.805e-4 -4.806e-4 -4.805e-4 c -3.053e-4,-4.7e-5 -6.58e-4,-4.81e-4 -9.612e-4,-4.81e-4 -0.00511,0 -0.011514,0.0031 -0.014416,0.0067 -0.00295,0.0036 -0.033034,0.08113 -0.066795,0.172033 -0.033771,0.09089 -0.061762,0.16555 -0.06247,0.166267 -0.00344,0.0034 -0.092264,-0.29919 -0.092264,-0.314273 0,-0.002 6.421e-4,-0.0044 0.00144,-0.0058 1.925e-4,-2.44e-4 0.00122,-0.0012 0.00144,-0.0014 0.00206,-0.0015 0.00539,-0.0024 0.00961,-0.0024 0.00689,0 0.014984,-0.0033 0.01826,-0.0072 0.00164,-0.002 0.0028,-0.0042 0.00336,-0.0058 l 4.806e-4,-4.81e-4 v -4.8e-4 c 1.54e-5,-1.84e-4 3.6e-6,-0.0013 0,-0.0014 v -4.81e-4 l -4.806e-4,-4.8e-4 v -4.8e-4 l -4.805e-4,-4.81e-4 v -4.81e-4 l -4.805e-4,-4.8e-4 h -4.806e-4 c -0.00729,-0.0061 -0.035567,-0.0078 -0.096589,-0.0067 z m 3.8991024,0 v 4.8e-4 c -0.07381,8.37e-4 -0.09521,0.0018 -0.100913,0.0062 h -4.8e-4 v 4.8e-4 l -4.81e-4,4.81e-4 c -1.07e-4,2.29e-4 -4.06e-4,0.0012 -4.81e-4,0.0014 -1.43e-4,7.85e-4 0,0.0019 0,0.0029 0,0.0084 0.0043,0.01107 0.0221,0.01345 0.01232,0.0017 0.02528,0.006 0.02883,0.0096 0.0049,0.0049 0.0067,0.05584 0.0067,0.209516 0,0.111668 -0.0017,0.20927 -0.0038,0.217204 -0.0032,0.01133 -0.0072,0.01441 -0.01874,0.01441 -0.01338,0 -0.02711,0.0074 -0.03075,0.01394 -3.63e-4,8.57e-4 -4.83e-4,0.0025 -4.81e-4,0.0034 v 4.81e-4 4.8e-4 4.81e-4 l 4.81e-4,4.8e-4 4.81e-4,4.81e-4 c 1.86e-4,2.49e-4 2.44e-4,7.21e-4 4.81e-4,9.61e-4 0.0033,0.0034 0.05072,0.0062 0.123498,0.0072 0.176968,0.0028 0.199627,0.0017 0.207593,-0.0091 0.0073,-0.01014 0.01434,-0.0647 0.01153,-0.08938 -8.14e-4,-0.007 -0.003,-0.01224 -0.0053,-0.01442 -2.42e-4,-1.71e-4 -0.0012,-3.57e-4 -0.0014,-4.8e-4 l -4.81e-4,-4.81e-4 h -4.8e-4 -4.81e-4 -4.8e-4 c -5.53e-4,3.2e-5 -0.0018,7.44e-4 -0.0024,9.61e-4 -0.0041,0.0022 -0.0087,0.0084 -0.01249,0.01922 -0.01338,0.03872 -0.02043,0.04229 -0.08842,0.04229 -0.05059,0 -0.06129,-0.0018 -0.0692,-0.0096 -0.0086,-0.0086 -0.0096,-0.02529 -0.01105,-0.20519 -0.0018,-0.220242 -0.0026,-0.21288 0.03652,-0.21288 0.01309,0 0.02285,-0.0051 0.02547,-0.01057 5.97e-4,-0.0018 -5.5e-5,-0.0044 -9.61e-4,-0.0062 -9.81e-4,-0.0015 -0.0026,-0.003 -0.0048,-0.0043 -0.004,-0.0025 -0.05329,-0.0045 -0.109564,-0.0038 z m -9.83137,4.8e-4 c -0.074387,8.37e-4 -0.09565,0.0018 -0.101394,0.0062 h -4.805e-4 v 4.8e-4 l -4.806e-4,4.81e-4 c -1.077e-4,2.3e-4 -4.055e-4,0.0012 -4.805e-4,0.0014 -1.438e-4,7.86e-4 0,0.0019 0,0.0029 0,0.0022 2.262e-4,0.0043 9.611e-4,0.0058 l 4.805e-4,4.79e-4 4.805e-4,4.81e-4 4.806e-4,4.81e-4 c 0.0031,0.003 0.00979,0.0048 0.022585,0.0062 0.013697,0.0016 0.027614,0.0056 0.031235,0.0091 l 4.805e-4,4.81e-4 c 0.00453,0.0071 0.00694,0.05305 0.00913,0.170111 0.00167,0.09003 0.0057,0.170502 0.00865,0.179241 0.011119,0.03265 0.027462,0.05905 0.050457,0.08025 0.040511,0.03735 0.079103,0.04848 0.1561756,0.04613 0.043345,-0.0014 0.055293,-0.0036 0.084094,-0.0173 0.034813,-0.01647 0.068231,-0.04571 0.081692,-0.0716 0.023193,-0.04462 0.024242,-0.05373 0.027391,-0.219127 0.00229,-0.118164 0.00514,-0.160389 0.010091,-0.16867 0.00384,-0.0046 0.015342,-0.0092 0.025949,-0.01009 0.00953,-8.14e-4 0.015258,-0.0024 0.01778,-0.0053 v -4.81e-4 c 0.00101,-0.0016 0.00144,-0.0037 0.00144,-0.0062 0,-9.46e-4 1.292e-4,-0.0026 0,-0.0034 -6.73e-5,-2.44e-4 -8.645e-4,-0.0012 -9.611e-4,-0.0014 v -4.8e-4 c -1.699e-4,-1.97e-4 -0.00123,-7.79e-4 -0.00144,-9.61e-4 -0.00605,-0.0039 -0.025934,-0.0043 -0.08938,-0.0043 -0.066235,0 -0.08522,9.16e-4 -0.090342,0.0053 l -4.804e-4,4.8e-4 -4.806e-4,4.81e-4 c -9.62e-5,2.28e-4 6.7e-5,0.0012 0,0.0014 -1.285e-4,7.84e-4 -4.805e-4,0.0019 -4.805e-4,0.0029 0,0.0021 7.276e-4,0.0043 0.00144,0.0058 l 4.806e-4,4.79e-4 c 0.00258,0.0037 0.00841,0.0055 0.021144,0.0072 0.03872,0.0052 0.038255,0.002 0.03604,0.183086 -0.00138,0.11112 -0.00403,0.16659 -0.00865,0.181163 -0.00374,0.01173 -0.016846,0.03027 -0.029313,0.04229 -0.043561,0.04196 -0.1137793,0.04469 -0.1576172,0.0062 -0.042115,-0.03697 -0.049545,-0.07393 -0.049496,-0.253245 4.24e-5,-0.145133 0.00204,-0.156009 0.028833,-0.159058 0.011917,-0.0014 0.020482,-0.005 0.024027,-0.0091 3.358e-4,-4.73e-4 0.00122,-0.0019 0.00144,-0.0024 7.9e-5,-2.53e-4 -4.86e-5,-0.0012 0,-0.0014 3.6e-5,-5.25e-4 8.87e-5,-0.0019 0,-0.0024 -3.798e-4,-0.0014 -0.00121,-0.0029 -0.0024,-0.0043 l -4.806e-4,-4.81e-4 -4.805e-4,-4.81e-4 c -0.00666,-0.0047 -0.032153,-0.0057 -0.1081215,-0.0048 z m 4.7631135,9.61e-4 c -0.1018156,-8.5e-5 -0.1263524,3.47e-4 -0.1321486,0.0053 l -4.805e-4,4.8e-4 v 4.81e-4 h -4.805e-4 v 4.81e-4 l -4.805e-4,4.8e-4 v 4.8e-4 c -1.626e-4,7.92e-4 0,0.0019 0,0.0029 0,0.0022 2.262e-4,0.0043 9.61e-4,0.0058 l 4.805e-4,4.79e-4 4.806e-4,4.81e-4 4.805e-4,4.81e-4 c 0.0031,0.003 0.00931,0.0048 0.022105,0.0062 0.013697,0.0016 0.028095,0.0055 0.031716,0.0091 0.00935,0.0093 0.00933,0.412868 0,0.429123 -0.00413,0.0072 -0.013733,0.01223 -0.027391,0.01442 -0.010387,0.0017 -0.01783,0.0056 -0.020663,0.0096 -1.382e-4,2.4e-4 -3.708e-4,0.0012 -4.805e-4,0.0014 -8.09e-5,2.49e-4 -4.288e-4,0.0012 -4.805e-4,0.0014 -4.47e-5,5.16e-4 4.062e-4,0.0019 4.805e-4,0.0024 1.345e-4,5.38e-4 7.046e-4,0.0019 9.61e-4,0.0024 6.366e-4,0.0011 0.00126,0.0022 0.0024,0.0034 0.00197,0.002 0.049362,0.0038 0.1052383,0.0038 0.071755,0 0.094937,-0.0016 0.102355,-0.0058 2.426e-4,-1.71e-4 0.00124,-7.8e-4 0.00144,-9.61e-4 l 4.805e-4,-4.81e-4 v -4.8e-4 c 1.109e-4,-2.15e-4 3.93e-4,-7.35e-4 4.806e-4,-9.61e-4 9.256e-4,-0.0024 9.998e-4,-0.0052 4.805e-4,-0.0072 -2.058e-4,-5.44e-4 -0.00112,-0.0019 -0.00144,-0.0024 -0.00394,-0.0051 -0.01391,-0.0081 -0.029313,-0.0082 -0.030563,-1.3e-4 -0.033572,-0.0073 -0.03556,-0.09659 l -0.00144,-0.07929 0.031235,0.0019 0.031235,0.0019 0.041326,0.05814 c 0.052182,0.07368 0.093306,0.118021 0.120135,0.130227 0.016422,0.0074 0.034408,0.0095 0.082653,0.0096 0.037427,7.1e-5 0.052837,-5.52e-4 0.058626,-0.0034 l 4.806e-4,-4.8e-4 c 1.993e-4,-1.59e-4 0.00128,-7.91e-4 0.00144,-9.62e-4 v -4.8e-4 l 4.805e-4,-4.81e-4 c 8.16e-5,-2.11e-4 4.212e-4,-0.0012 4.806e-4,-0.0014 1.205e-4,-7.22e-4 0,-0.0015 0,-0.0024 0,-0.01044 -0.00969,-0.01634 -0.02691,-0.01634 -0.031439,0 -0.068473,-0.03327 -0.1528117,-0.137914 l -0.05382,-0.06728 0.02643,-0.02739 c 0.014613,-0.01508 0.032477,-0.03902 0.039404,-0.05334 0.014897,-0.03077 0.019193,-0.07766 0.010091,-0.105238 -0.00925,-0.0279 -0.037218,-0.0568 -0.069198,-0.07112 -0.026508,-0.01188 -0.032484,-0.01239 -0.1614615,-0.01249 z m -2.2325894,4.81e-4 c -0.1244004,-2.04e-4 -0.153639,-1.39e-4 -0.1605004,0.0048 l -4.805e-4,4.8e-4 -4.806e-4,4.81e-4 -4.804e-4,4.81e-4 v 4.8e-4 4.8e-4 h -4.806e-4 c -1.855e-4,7.95e-4 0,0.0019 0,0.0029 0,0.0022 7.068e-4,0.0043 0.00144,0.0058 v 4.79e-4 l 4.805e-4,4.81e-4 4.806e-4,4.81e-4 c 0.0031,0.003 0.00979,0.0048 0.022585,0.0062 0.012841,0.0015 0.026646,0.0057 0.031235,0.0091 0.00502,0.0051 0.00683,0.05432 0.00673,0.212399 -1.514e-4,0.223253 -0.00114,0.229067 -0.027871,0.229217 -0.012411,7.1e-5 -0.021453,0.0041 -0.024988,0.0091 -1.44e-4,2.5e-4 -8.421e-4,0.0012 -9.611e-4,0.0014 -2.816e-4,7.94e-4 -4.332e-4,0.0025 -4.806e-4,0.0034 4.39e-5,0.0012 4.728e-4,0.0026 9.611e-4,0.0038 v 4.8e-4 c 1.053e-4,2.05e-4 8.312e-4,0.0012 9.611e-4,0.0014 l 4.805e-4,4.8e-4 4.805e-4,4.81e-4 c 0.0059,0.0045 0.024162,0.0056 0.078809,0.0067 0.1956778,0.004 0.2139841,0.004 0.2474782,-0.0038 0.083217,-0.01962 0.1437271,-0.06565 0.1763582,-0.134551 0.047527,-0.100368 0.033125,-0.213861 -0.036521,-0.286882 -0.031655,-0.03319 -0.065397,-0.05224 -0.1182129,-0.0668 -0.029254,-0.0081 -0.057008,-0.0094 -0.1965409,-0.0096 z m 6.1177559,0 c -0.09983,-2.64e-4 -0.124065,-1.27e-4 -0.129745,0.0048 l -4.81e-4,4.8e-4 v 4.81e-4 h -4.8e-4 v 4.81e-4 4.8e-4 l -4.81e-4,4.8e-4 c -1.59e-4,7.92e-4 0,0.0019 0,0.0029 0,0.0084 0.0042,0.01114 0.02162,0.01345 0.04078,0.0055 0.03865,-0.0073 0.03796,0.216724 -3.38e-4,0.110018 -0.0021,0.207139 -0.0038,0.215763 -0.0021,0.01015 -0.0072,0.01628 -0.01394,0.0173 -0.01785,0.0027 -0.02711,0.005 -0.03124,0.0086 -1.83e-4,1.88e-4 -8e-4,0.0012 -9.61e-4,0.0014 l -4.8e-4,4.81e-4 -4.81e-4,4.81e-4 c -7.1e-4,0.0016 -9.62e-4,0.0036 -9.62e-4,0.0058 0,6.26e-4 4.29e-4,0.0019 4.81e-4,0.0024 4.8e-5,2.59e-4 4.07e-4,0.0012 4.81e-4,0.0014 v 4.8e-4 4.81e-4 h 4.81e-4 v 4.8e-4 c 1.88e-4,1.95e-4 0.0012,7.81e-4 0.0014,9.62e-4 0.0067,0.0038 0.02856,0.0043 0.09947,0.0043 0.07798,0 0.09902,-0.0017 0.104757,-0.0067 l 4.81e-4,-4.81e-4 4.81e-4,-4.8e-4 c 1.1e-4,-2.15e-4 -8.8e-5,-7.35e-4 0,-9.61e-4 8.19e-4,-0.0021 0.0012,-0.0045 9.6e-4,-0.0062 -3.72e-4,-0.0014 -0.0018,-0.0036 -0.0029,-0.0048 -0.0047,-0.0042 -0.01468,-0.0067 -0.02883,-0.0067 -0.01454,-5.9e-5 -0.02095,-0.0026 -0.02547,-0.01105 -0.0033,-0.0063 -0.0072,-0.0456 -0.0086,-0.08794 l -0.0029,-0.07689 0.03316,0.0029 0.03316,0.0029 0.04085,0.05719 c 0.05543,0.07816 0.08872,0.11495 0.11629,0.128304 0.02037,0.0099 0.03089,0.01138 0.08554,0.01009 0.0404,-9.76e-4 0.05594,-0.0025 0.06151,-0.0062 l 4.81e-4,-4.8e-4 c 1.71e-4,-1.76e-4 8.15e-4,-0.0013 9.6e-4,-0.0014 l 4.81e-4,-4.8e-4 v -4.81e-4 c 7.9e-5,-2.19e-4 4.19e-4,-0.0012 4.81e-4,-0.0014 4.53e-4,-0.0024 -3.75e-4,-0.0051 -0.0014,-0.0067 -0.002,-0.0023 -0.0058,-0.0041 -0.01153,-0.0053 -0.06083,-0.01255 -0.07661,-0.02568 -0.16915,-0.140798 l -0.05382,-0.06728 0.02931,-0.03075 c 0.03746,-0.03928 0.05116,-0.06897 0.05142,-0.112927 3.38e-4,-0.05771 -0.02572,-0.09532 -0.08025,-0.116291 -0.01957,-0.0075 -0.04386,-0.0089 -0.154254,-0.0091 z m 2.284488,0 c -0.122361,-2.45e-4 -0.151336,-1.38e-4 -0.158098,0.0048 l -4.8e-4,4.8e-4 v 4.81e-4 h -4.8e-4 v 4.81e-4 l -4.81e-4,4.8e-4 v 4.8e-4 c -1.83e-4,7.95e-4 -4.81e-4,0.0019 -4.81e-4,0.0029 0,0.0084 0.0047,0.01114 0.0221,0.01345 0.04078,0.0055 0.03865,-0.0073 0.03796,0.216724 -3.38e-4,0.110019 -0.0021,0.207141 -0.0038,0.215763 -0.0021,0.01015 -0.0071,0.01628 -0.01394,0.0173 -0.01778,0.0027 -0.02709,0.0051 -0.03124,0.0086 -3.68e-4,3.73e-4 -0.0012,0.0015 -0.0014,0.0019 l -4.8e-4,4.81e-4 c -7.17e-4,0.0016 -9.62e-4,0.0036 -9.62e-4,0.0058 0,0.0012 2.04e-4,0.0029 4.81e-4,0.0038 l 4.81e-4,4.8e-4 c 1.27e-4,2.08e-4 7.98e-4,0.0012 9.61e-4,0.0014 l 4.8e-4,4.81e-4 c 0.0057,0.0039 0.02327,0.0045 0.07737,0.0058 0.143176,0.0033 0.240723,2.92e-4 0.268142,-0.0086 0.08982,-0.0294 0.157179,-0.09893 0.176358,-0.182124 0.003,-0.01267 0.0052,-0.04378 0.0053,-0.06872 3.38e-4,-0.121144 -0.06468,-0.204389 -0.182125,-0.233543 -0.02913,-0.0073 -0.06416,-0.0089 -0.19558,-0.0091 z m -3.396458,0.03556 c 0.02673,1.68e-4 0.0536,0.0046 0.07016,0.01346 0.03707,0.0197 0.05219,0.03231 0.07064,0.06055 0.02383,0.03647 0.03306,0.06257 0.03988,0.112446 0.01085,0.07924 -0.0068,0.156825 -0.04517,0.199424 -0.03728,0.04147 -0.09702,0.05363 -0.157617,0.03268 -0.08893,-0.03074 -0.143603,-0.142446 -0.128304,-0.262374 0.0095,-0.07481 0.03472,-0.118896 0.08121,-0.143682 0.01612,-0.0086 0.04247,-0.01266 0.0692,-0.01249 z m -4.9673426,0.0058 c 0.045943,-9.11e-4 0.1063433,0.014 0.1456036,0.037 0.069401,0.04066 0.1060596,0.131924 0.092264,0.229698 -0.010794,0.07648 -0.040408,0.117461 -0.1018745,0.141279 -0.034174,0.01323 -0.1182843,0.01765 -0.1446425,0.0077 -0.032915,-0.01253 -0.032196,-0.0078 -0.032196,-0.219126 v -0.192217 l 0.022105,-0.0029 c 0.0059,-8.08e-4 0.012179,-0.0013 0.018741,-0.0014 z m 2.2441222,0 v 4.8e-4 c 0.015705,5.21e-4 0.035055,0.0051 0.048054,0.01201 0.055133,0.02951 0.066942,0.136329 0.020183,0.183086 -0.016069,0.01607 -0.020001,0.0172 -0.050937,0.01682 -0.018322,-2.28e-4 -0.036274,-0.0019 -0.039885,-0.0034 H 7.527959 v -4.81e-4 h -4.805e-4 v -4.8e-4 c -0.00392,-0.006 -0.00529,-0.0339 -0.00529,-0.102836 v -0.101393 l 0.014416,-0.0029 c 0.00404,-8.07e-4 0.00915,-0.0012 0.014416,-9.61e-4 z m 3.8779584,0 c 0.02015,-8.32e-4 0.04855,0.0073 0.06535,0.01922 0.02306,0.01643 0.03604,0.04988 0.03604,0.09322 0,0.0427 -0.0085,0.06766 -0.02931,0.08698 -0.01225,0.01136 -0.01901,0.01334 -0.04901,0.01298 -0.01786,-2.13e-4 -0.03576,-0.002 -0.04085,-0.0034 h -4.8e-4 l -4.8e-4,-4.81e-4 -4.81e-4,-4.8e-4 c -0.0039,-0.006 -0.0053,-0.0339 -0.0053,-0.102836 V 15.01208 l 0.01634,-0.0034 c 0.0024,-4.95e-4 0.0053,-8.57e-4 0.0082,-9.61e-4 z m 2.294099,0.0019 c 0.05442,8.6e-4 0.102284,0.01414 0.140318,0.03988 0.03212,0.02172 0.04832,0.04204 0.06824,0.08458 0.01375,0.02937 0.01491,0.0358 0.0149,0.102355 0,0.06276 -0.0018,0.07382 -0.01249,0.09707 -0.02795,0.06084 -0.08042,0.09102 -0.162904,0.09467 -0.0359,0.0016 -0.05642,5.6e-5 -0.07064,-0.0053 -0.02544,-0.0095 -0.02509,-0.0088 -0.03027,-0.03556 -0.0073,-0.0376 -0.0054,-0.370223 0.0019,-0.374821 l 4.8e-4,-4.81e-4 c 0.0055,-0.0019 0.02733,-0.0027 0.05046,-0.0024 z" />
</svg>
