<?xml version="1.0" encoding="UTF-8" standalone="no"?>
<svg
   width="64"
   height="64"
   version="1.1"
   viewBox="0 0 16.933 16.933"
   id="svg7"
   sodipodi:docname="steam_icon_400.svg"
   inkscape:version="1.4.3 (0d15f75042, 2025-12-25)"
   xmlns:inkscape="http://www.inkscape.org/namespaces/inkscape"
   xmlns:sodipodi="http://sodipodi.sourceforge.net/DTD/sodipodi-0.dtd"
   xmlns="http://www.w3.org/2000/svg"
   xmlns:svg="http://www.w3.org/2000/svg"
   xmlns:rdf="http://www.w3.org/1999/02/22-rdf-syntax-ns#"
   xmlns:cc="http://creativecommons.org/ns#"
   xmlns:dc="http://purl.org/dc/elements/1.1/">
  <sodipodi:namedview
     id="namedview7"
     pagecolor="#9c4444"
     bordercolor="#000000"
     borderopacity="0.25"
     inkscape:showpageshadow="2"
     inkscape:pageopacity="0.0"
     inkscape:pagecheckerboard="0"
     inkscape:deskcolor="#d1d1d1"
     inkscape:zoom="4.3531262"
     inkscape:cx="89.935366"
     inkscape:cy="34.457995"
     inkscape:window-width="2560"
     inkscape:window-height="1388"
     inkscape:window-x="0"
     inkscape:window-y="0"
     inkscape:window-maximized="1"
     inkscape:current-layer="svg7"
     showgrid="false" />
  <defs
     id="defs2">
    <style
       id="current-color-scheme"
       type="text/css">.ColorScheme-Text {color:#d8dee9} .ColorScheme-Highlight {color:#3b4252}</style>
  </defs>
  <metadata
     id="metadata2">
    <rdf:RDF>
      <cc:Work
         rdf:about="">
        <dc:format>image/svg+xml</dc:format>
        <dc:type
           rdf:resource="http://purl.org/dc/dcmitype/StillImage" />
      </cc:Work>
    </rdf:RDF>
  </metadata>
  <path
     class="ColorScheme-Text"
     d="m 9.6038935,1.4551797 c 1.7762015,0 2.8356895,1.4334254 3.2407885,4.3002763 0,0.1869686 0.03116,0.5297442 0.06232,1.028327 0,2.7422053 -0.934842,5.203957 -2.804528,7.385257 -0.8725185,0.872519 -1.7450385,1.30878 -2.6175585,1.30878 -1.339941,0 -2.368269,-0.997166 -3.116142,-3.022658 -0.218131,-0.685552 -0.342776,-1.464587 -0.342776,-2.337107 0,-2.4305907 0.716713,-4.7676974 2.1813,-7.0113199 h 0.06233 v 0.093484 C 5.8645295,3.885771 5.6152375,4.477838 5.4594305,4.9764207 v 0.062323 h 0.06233 c 1.215291,-2.3682686 2.586393,-3.583564 4.082141,-3.583564 z m -4.39376,9.0056513 c 0,2.39943 0.810197,3.832855 2.461752,4.269114 h 0.280453 c 0.342776,0 0.623228,-0.124645 0.779036,-0.342775 h -0.43626 c -1.246457,0 -2.025493,-1.028327 -2.399429,-3.05382 h 0.09348 c 0.498583,1.589233 1.215296,2.368268 2.150138,2.368268 1.464587,0 2.5863975,-1.402263 3.4589175,-4.2067912 0.21813,-0.9036813 0.342776,-1.8073625 0.342776,-2.6798824 V 6.6591373 c 0,-0.5920671 -0.06232,-1.2464569 -0.218131,-1.9943311 h -0.09348 v 0.062323 c 0.03116,0.3116142 0.06233,0.5609056 0.06233,0.7478742 v 0.1246457 c 0,1.2152955 -0.186969,2.0254924 -0.560906,2.4929138 v -0.062323 c 0.186969,-0.6543898 0.280452,-1.2776183 0.280452,-1.8385239 0,-1.7138783 -0.498582,-2.8980123 -1.4957475,-3.5212409 l -0.529743,-0.062323 c -1.464588,0 -2.711044,1.620394 -3.739372,4.8611821 -0.280452,1.1529726 -0.436259,2.1501381 -0.436259,2.9914968 z"
     id="path5"
     style="fill:currentColor" />
</svg>
