<?xml version='1.0' encoding='UTF-8'?>
<svg xmlns:inkscape="http://www.inkscape.org/namespaces/inkscape" xmlns:sodipodi="http://sodipodi.sourceforge.net/DTD/sodipodi-0.dtd" xmlns="http://www.w3.org/2000/svg" xmlns:svg="http://www.w3.org/2000/svg" xmlns:rdf="http://www.w3.org/1999/02/22-rdf-syntax-ns#" xmlns:cc="http://creativecommons.org/ns#" xmlns:dc="http://purl.org/dc/elements/1.1/" width="64" height="64" version="1.1" viewBox="0 0 16.933 16.933" id="svg7" sodipodi:docname="steam_icon_379720.svg" inkscape:version="1.4.2 (ebf0e940d0, 2025-05-08)">
  <sodipodi:namedview id="namedview7" pagecolor="#9c4444" bordercolor="#000000" borderopacity="0.25" inkscape:showpageshadow="2" inkscape:pageopacity="0.0" inkscape:pagecheckerboard="0" inkscape:deskcolor="#d1d1d1" inkscape:zoom="6.15625" inkscape:cx="66.111675" inkscape:cy="55.390863" inkscape:window-width="2560" inkscape:window-height="1376" inkscape:window-x="0" inkscape:window-y="0" inkscape:window-maximized="1" inkscape:current-layer="svg7" showgrid="false"/>
  <defs id="defs2">
    <style id="current-color-scheme" type="text/css">.ColorScheme-Text {color:#d8dee9} .ColorScheme-Highlight {color:#3b4252}</style>
  </defs>
  <metadata id="metadata2">
    <rdf:RDF>
      <cc:Work rdf:about="">
        <dc:format>image/svg+xml</dc:format>
        <dc:type rdf:resource="http://purl.org/dc/dcmitype/StillImage"/>
      </cc:Work>
    </rdf:RDF>
  </metadata>
  <path id="path3347" class="ColorScheme-Text" d="m 14.023655,11.358845 -0.003,-2.5834298 -0.41305,1.4432598 -0.41252,-1.4366798 -0.002,1.9610798 -1.34689,-1.0101698 0.1021,-0.0766 -0.005,-5.02831 1.28022,0.003 0.38376,1.34425 0.38432,-1.34605 1.89395,0.006 -0.62148,0.46438 -0.001,7.1933198 z m -12.34737,-6.2599298 -0.62883,-0.47103 3.54443,0.005 0.40567,0.30991 3.3e-4,4.71208 0.10747,0.0778 -3.42826,2.5724398 z m 2.08018,3.67619 -10e-4,-2.71941 -0.095,-0.0776 -0.73704,0.004 -0.002,3.41963 z m 1.34603,0.73115 -6.3e-4,-4.56415 0.41577,-0.31158 2.48804,-1.3e-4 0.41495,0.31286 0.002,5.2813998 -1.17669,0.885 z m 1.97076,-3.53084 -0.62752,0.004 -0.098,0.0753 10e-4,2.72127 0.82424,0.61821 0.002,-3.33799 z m 1.45564,4.2541798 -0.003,-5.2887698 0.4144,-0.31125 2.49134,0.002 0.41705,0.31159 -0.003,4.55359 -2.13156,1.6114798 z m 2.07252,-1.4550498 -2.6e-4,-2.7206 -0.10487,-0.0801 -0.62653,0.002 -0.10073,0.0776 0.006,3.33268 z" style="fill:currentColor;fill-opacity:1;stroke:none;stroke-width:0.00883234"/>
</svg>
