<?xml version='1.0' encoding='UTF-8'?>
<svg xmlns:inkscape="http://www.inkscape.org/namespaces/inkscape" xmlns:sodipodi="http://sodipodi.sourceforge.net/DTD/sodipodi-0.dtd" xmlns="http://www.w3.org/2000/svg" xmlns:svg="http://www.w3.org/2000/svg" xmlns:rdf="http://www.w3.org/1999/02/22-rdf-syntax-ns#" xmlns:cc="http://creativecommons.org/ns#" xmlns:dc="http://purl.org/dc/elements/1.1/" width="64" height="64" version="1.1" viewBox="0 0 16.933 16.933" id="svg7" sodipodi:docname="steam_icon_2118810.svg" inkscape:version="1.4 (e7c3feb100, 2024-10-09)">
  <sodipodi:namedview id="namedview7" pagecolor="#9c4444" bordercolor="#000000" borderopacity="0.25" inkscape:showpageshadow="2" inkscape:pageopacity="0.0" inkscape:pagecheckerboard="0" inkscape:deskcolor="#d1d1d1" inkscape:zoom="4.3531261" inkscape:cx="35.951175" inkscape:cy="39.741555" inkscape:window-width="1183" inkscape:window-height="941" inkscape:window-x="35" inkscape:window-y="32" inkscape:window-maximized="0" inkscape:current-layer="svg7" showgrid="false"/>
  <defs id="defs2">
    <style id="current-color-scheme" type="text/css">.ColorScheme-Text {color:#d8dee9} .ColorScheme-Highlight {color:#3b4252}</style></defs>
  <metadata id="metadata2">
    <rdf:RDF>
      <cc:Work rdf:about="">
        <dc:format>image/svg+xml</dc:format>
        <dc:type rdf:resource="http://purl.org/dc/dcmitype/StillImage"/>
      </cc:Work>
    </rdf:RDF>
  </metadata>
  <path style="fill:currentColor;fill-opacity:1;stroke-width:0.140477" d="m 5.940926,13.576146 2.38694,-1.486776 h 1.6581623 c 1.5732137,0 1.6758267,-0.01767 2.0029687,-0.344808 0.399901,-0.399899 0.460281,-1.113543 0.133665,-1.579842 -0.203659,-0.2907628 -0.17328,-0.3244194 0.858059,-0.9505587 1.001562,-0.6080635 1.089428,-0.635861 1.389134,-0.4394879 0.941454,0.6168653 1.287016,2.8767956 0.643234,4.2066706 -0.174021,0.359485 -0.547788,0.844996 -0.830584,1.078909 -0.962587,0.796199 -1.476341,0.873263 -6.2737372,0.941097 L 3.5539763,15.06293 Z M 1.7980207,8.4369633 c 0,-3.1768789 0.047411,-5.7496894 0.1053588,-5.7173558 0.1546809,0.086309 8.4535185,5.0016786 8.9943995,5.3273483 l 0.460414,0.2772202 -0.74137,0.4502503 C 10.209072,9.0220629 8.1054442,10.318949 5.942096,11.656396 3.7787482,12.99384 1.9613255,14.116237 1.9033787,14.150609 1.8454315,14.184988 1.7980208,11.613843 1.7980207,8.4369633 Z M 12.930833,7.3730837 C 12.069447,6.8848512 12.052851,6.8641501 12.052851,6.2779214 c 0,-0.9945664 -0.322413,-1.2122708 -1.796556,-1.2130854 L 9.0325931,5.0641467 6.5742429,3.5904891 4.1158934,2.116831 7.7842444,2.1161417 c 2.0175931,-3.625e-4 4.0066496,0.063483 4.4201216,0.1418958 1.883466,0.3571918 2.657473,1.1579597 2.766866,2.8625265 0.0384,0.598307 -0.0029,1.2393234 -0.09842,1.5288502 -0.149967,0.4544325 -0.768782,1.2287007 -0.977797,1.2234486 -0.04742,-0.0012 -0.481293,-0.2261035 -0.964184,-0.4998045 z" id="path463" class="ColorScheme-Text"/>
</svg>
