<?xml version='1.0' encoding='UTF-8'?>
<svg xmlns:inkscape="http://www.inkscape.org/namespaces/inkscape" xmlns:sodipodi="http://sodipodi.sourceforge.net/DTD/sodipodi-0.dtd" xmlns="http://www.w3.org/2000/svg" xmlns:svg="http://www.w3.org/2000/svg" xmlns:rdf="http://www.w3.org/1999/02/22-rdf-syntax-ns#" xmlns:cc="http://creativecommons.org/ns#" xmlns:dc="http://purl.org/dc/elements/1.1/" width="64" height="64" version="1.1" viewBox="0 0 16.933 16.933" id="svg7" sodipodi:docname="steam_icon_1262560.svg" inkscape:version="1.4.2 (ebf0e940d0, 2025-05-08)">
  <sodipodi:namedview id="namedview7" pagecolor="#9c4444" bordercolor="#000000" borderopacity="0.25" inkscape:showpageshadow="2" inkscape:pageopacity="0.0" inkscape:pagecheckerboard="0" inkscape:deskcolor="#d1d1d1" inkscape:zoom="4.3531261" inkscape:cx="36.180895" inkscape:cy="39.971275" inkscape:window-width="2560" inkscape:window-height="1376" inkscape:window-x="0" inkscape:window-y="0" inkscape:window-maximized="1" inkscape:current-layer="svg7" showgrid="false"/>
  <defs id="defs2">
    <style id="current-color-scheme" type="text/css">.ColorScheme-Text {color:#d8dee9} .ColorScheme-Highlight {color:#3b4252}</style>
  </defs>
  <metadata id="metadata2">
    <rdf:RDF>
      <cc:Work rdf:about="">
        <dc:format>image/svg+xml</dc:format>
        <dc:type rdf:resource="http://purl.org/dc/dcmitype/StillImage"/>
      </cc:Work>
    </rdf:RDF>
  </metadata>
  <path id="path5" class="ColorScheme-Text" style="fill:currentColor;fill-opacity:1;fill-rule:evenodd;stroke-width:0.0824352" d="m 6.1409995,2.6478383 -5.093667,8.8233497 3.66097,-2.4320771 2.568102,-4.4490699 h 2.8139745 c 0.331775,0 0.399363,0.2219782 0.254286,0.478656 l -0.204271,0.3613293 3.194,-2.1216989 C 13.249234,2.801335 12.793825,2.6478383 12.192444,2.6478383 Z m 9.7446685,0 L 5.2486605,9.7145579 H 10.338588 L 12.780481,5.4837816 Z M 3.0465625,11.969944 2.7259005,12.538815 h 0.07994 l 0.316922,-0.559055 0.0014,4.62e-4 0.04441,0.558588 h 0.357123 l 0.32113,-0.568866 h -0.07993 l -0.282801,0.500625 h -0.0374 l -0.03927,-0.500625 z m 0.988163,0 -0.320662,0.568871 h 0.633845 l 0.03179,-0.05656 h -0.384233 l 0.118261,-0.209879 h 0.351981 l 0.03225,-0.05656 h -0.351514 l 0.105642,-0.188377 v -9.24e-4 h 9.23e-4 0.383299 l 0.03225,-0.05656 z m 0.80446,0 -0.320662,0.568871 h 0.633845 l 0.03179,-0.05656 h -0.384234 l 0.118262,-0.209879 h 0.35198 l 0.03226,-0.05656 h -0.351046 l 0.105175,-0.188377 4.6e-4,-9.24e-4 h 4.62e-4 0.383299 l 0.03225,-0.05656 z m 0.80446,0 -0.320662,0.568871 h 0.583362 9.23e-4 c 0.120542,-8.6e-5 0.211604,-0.0535 0.271115,-0.158461 l 0.154253,-0.273919 c 0.02658,-0.04719 0.03454,-0.08298 0.02338,-0.103303 -0.01078,-0.02131 -0.04645,-0.03294 -0.102836,-0.03319 z m 0.961051,0 -0.194454,0.344969 h 0.140232 l 0.09489,-0.169213 h 0.223435 l 0.01122,-0.01963 h -0.222973 l 0.07619,-0.136492 h 0.244002 l 0.01122,-0.01963 z m 0.614681,0 c -0.07392,7e-5 -0.130049,0.03284 -0.166409,0.09676 l -0.09769,0.173886 c -0.01503,0.02845 -0.01867,0.04645 -0.01215,0.05749 0.0065,0.01114 0.02425,0.01619 0.05609,0.01683 h 0.294018 c 0.07346,-6.7e-5 0.129198,-0.03241 0.165473,-0.09629 l 0.0977,-0.174354 c 0.01532,-0.02917 0.0192,-0.04639 0.01262,-0.05749 -0.0065,-0.01111 -0.02375,-0.01619 -0.05562,-0.01683 z m 0.509506,0 -0.194454,0.344969 h 0.140232 l 0.09489,-0.169213 h 0.09489 9.22e-4 v 9.23e-4 l -0.0042,0.168745 h 0.163135 l -0.01028,-0.168745 V 12.1457 h 9.23e-4 c 0.08022,-3.29e-4 0.09942,-0.02279 0.113587,-0.04768 l 0.04254,-0.07432 v -9.23e-4 h 4.62e-4 c 0.01155,-0.01904 0.01474,-0.03055 0.01075,-0.03786 h -4.61e-4 c -0.0058,-0.01069 -0.02779,-0.01368 -0.06638,-0.01496 z m 0.854476,0 c -0.04875,0 -0.09412,0.01271 -0.134621,0.03833 -0.03567,0.02262 -0.06551,0.05429 -0.08648,0.09115 l -0.08227,0.146775 -0.007,0.01496 c -0.0072,0.0151 -0.01351,0.02821 -0.01542,0.03833 -0.0018,0.0092 -4.62e-4,0.01705 0.0014,0.02103 v 4.61e-4 4.62e-4 h 4.62e-4 v 4.61e-4 c 0.0058,0.0087 0.02613,0.019 0.08882,0.01916 h 0.258493 c 0.03081,-0.002 0.0505,0.0033 0.0589,0.01589 0.0068,0.01028 0.006,0.02511 -0.0033,0.04394 l -4.62e-4,9.24e-4 v 4.61e-4 l -0.02337,0.0416 h -4.62e-4 v 4.62e-4 c -0.01618,0.02924 -0.03633,0.0385 -0.0818,0.03786 h -2.254948 l -0.03179,0.05656 h 2.390475 4.62e-4 c 0.05707,-6.7e-5 0.104651,-0.01093 0.144906,-0.03366 0.03916,-0.02213 0.07033,-0.05468 0.09582,-0.09956 l 0.09069,-0.161266 c 0.01676,-0.03031 0.01783,-0.04983 0.0033,-0.0617 -0.01743,-0.01471 -0.05548,-0.02237 -0.109848,-0.02243 h -0.22483 c -0.03214,0.0019 -0.05299,-0.0036 -0.0617,-0.01636 -0.0067,-0.0098 -0.0062,-0.02355 0.0019,-0.04114 v -9.23e-4 l 4.62e-4,-4.61e-4 0.02243,-0.03833 c 0.01582,-0.02793 0.03696,-0.03678 0.08647,-0.03646 h 0.403867 l 0.03225,-0.05656 h -0.562327 z m 0.738552,0 -0.320662,0.568871 h 0.250078 l 0.123404,-0.218761 h 0.341229 c 0.117057,-1.88e-4 0.197589,-0.04262 0.245873,-0.12948 l 4.6e-4,-4.62e-4 0.0603,-0.107043 c 0.02444,-0.04408 0.03046,-0.07339 0.01776,-0.08788 -0.01289,-0.01621 -0.051182,-0.02508 -0.110316,-0.02524 z m 0.9404835,0 -4.62e-4,4.61e-4 -0.3206615,0.568404 h 0.6343125 l 0.03132,-0.05656 h -0.382832 -9.23e-4 l 9.23e-4,-9.23e-4 0.117326,-0.208477 4.62e-4,-4.62e-4 h 4.62e-4 0.351045 l 0.03226,-0.05656 h -0.350111 -9.23e-4 l 4.62e-4,-9.23e-4 0.105173,-0.187443 v -9.22e-4 h 9.23e-4 0.383299 l 0.03179,-0.05656 z m 0.804927,0 -4.62e-4,4.61e-4 -0.321129,0.568404 h 0.634313 l 0.03132,-0.05656 h -0.382365 -9.22e-4 l 4.61e-4,-9.23e-4 0.117327,-0.208477 4.62e-4,-4.62e-4 h 4.62e-4 0.351045 l 0.03226,-0.05656 h -0.350111 -9.23e-4 l 4.62e-4,-9.23e-4 0.105173,-0.187443 -4.62e-4,-9.23e-4 h 4.62e-4 l 4.61e-4,-4.61e-4 4.62e-4,4.61e-4 h 0.382832 l 0.03271,-0.05656 z m 0.80446,0 -0.320663,0.568871 h 0.583363 4.61e-4 c 0.120507,-8.6e-5 0.211988,-0.05303 0.271581,-0.157994 l 0.153787,-0.273918 v -4.62e-4 c 0.02658,-0.0472 0.03458,-0.08295 0.02338,-0.103304 -0.0108,-0.02133 -0.04592,-0.03294 -0.10237,-0.03319 z m -4.4925415,0.01916 c 0.01902,1.3e-4 0.03271,0.006 0.03927,0.01636 0.0066,0.01046 0.0053,0.02523 -0.0037,0.0416 v 4.61e-4 l -0.119704,0.211758 v 4.61e-4 l -4.62e-4,4.62e-4 c -0.01407,0.02417 -0.03634,0.03522 -0.07011,0.03506 h -0.08414 c -0.02335,0.0016 -0.04018,-0.004 -0.04768,-0.01589 -0.0066,-0.01048 -0.005,-0.02523 0.0042,-0.0416 l 0.119197,-0.212216 h 4.61e-4 v -4.61e-4 l 4.62e-4,-4.62e-4 c 0.01405,-0.02412 0.03636,-0.03522 0.07011,-0.03506 h 0.08367 c 0.0029,-2.07e-4 0.0057,-4.95e-4 0.0084,-4.62e-4 z m 0.61094,0 c 0.0023,-1.07e-4 0.0044,-1.53e-4 0.0065,0 0.0127,9.23e-4 0.02196,0.0052 0.02664,0.01215 0.0064,0.0095 0.0047,0.02392 -0.0047,0.043 v 4.61e-4 l -4.61e-4,9.24e-4 -0.02617,0.04721 c -0.01868,0.03376 -0.02889,0.03343 -0.05796,0.03319 h -0.0023 -0.150047 v -4.62e-4 l 0.07619,-0.136025 h 0.124807 c 0.0025,-1.95e-4 0.0051,-3.62e-4 0.0075,-4.61e-4 z m -2.128709,0.03739 h 0.167809 c 0.0323,-0.0017 0.05432,0.0055 0.06357,0.02057 0.0079,0.01275 0.0056,0.03034 -0.0061,0.05095 v 4.61e-4 l -0.188377,0.334685 h -4.62e-4 c -0.01988,0.03411 -0.05048,0.04925 -0.09956,0.04908 h -0.193987 z m 3.677798,0 h 9.22e-4 0.17529 9.23e-4 4.62e-4 v 4.61e-4 c 0.02867,1.99e-4 0.04649,0.0061 0.05375,0.0187 0.008,0.01387 0.0033,0.03545 -0.01402,0.06544 l -0.05189,0.09302 c -0.02819,0.05183 -0.04695,0.05953 -0.09676,0.05936 h -0.201925 l 0.13322,-0.236055 z m 2.5503385,4.61e-4 h 0.167809 c 0.03223,-0.0016 0.05432,0.0055 0.06357,0.02057 0.0079,0.01275 0.0056,0.03037 -0.0061,0.05095 v 4.62e-4 l -0.18791,0.333283 -4.62e-4,4.61e-4 -4.62e-4,4.62e-4 c -0.01999,0.03408 -0.0506,0.04925 -0.09956,0.04908 H 11.832507 Z M 1.9480845,12.651 1.0473325,14.285162 H 14.984915 L 15.885667,12.651 Z m 12.1286005,0.128545 h 0.885326 c 0.07439,0 0.09816,0.06699 0.05189,0.150983 l -0.382364,0.677316 c -0.04622,0.08398 -0.146282,0.150515 -0.22063,0.150515 h -0.88626 l 0.41742,-0.74603 h 0.417422 l -0.331413,0.594113 h 0.119196 c 0.03833,0 0.08739,-0.03178 0.111718,-0.07386 l 0.290278,-0.524465 c 0.0202,-0.03739 0.01086,-0.06985 -0.02056,-0.07339 l 4.62e-4,-9.23e-4 h -0.543163 z m -11.4657745,0.0098 h 0.415553 l -0.125274,0.231382 0.316455,-0.231381 h 0.279061 c 0.07442,0 0.09804,0.06699 0.05189,0.150982 l -0.04394,0.07713 0.0037,0.0033 0.316455,-0.231381 h 0.278593 c 0.07442,0 0.09808,0.06699 0.05189,0.150982 l -0.611876,1.084929 h -0.279527 c -0.07665,0 -0.100377,-0.06649 -0.05189,-0.150514 l 0.466036,-0.825495 -0.317858,0.24073 -0.406671,0.735279 h -0.01683 -0.400126 -0.01683 l 0.551576,-0.976009 -0.317858,0.24073 -0.407138,0.735279 h -0.416486 z m 1.941736,0 h 0.748367 c 0.0744,0 0.09757,0.06699 0.05142,0.150983 l -0.382365,0.677313 c -0.04619,0.08399 -0.14628,0.150515 -0.220632,0.150515 h -0.748367 c -0.07665,0 -0.100396,-0.06652 -0.05189,-0.150515 l 0.333287,-0.605332 h 0.418824 l -0.292148,0.531477 c -0.02426,0.04211 -0.01211,0.07432 0.02618,0.07432 h 0.04955 c 0.03833,0 0.087,-0.03221 0.11125,-0.07432 l 0.294487,-0.535683 c 0.02135,-0.03952 0.0099,-0.07432 -0.02618,-0.07432 h -0.53428 c 0.05244,-0.06827 0.156027,-0.144439 0.2225,-0.144439 z m 1.183551,0 h 4.62e-4 0.809135 l -0.08461,0.144439 h -0.462295 c -0.036,0 -0.08756,0.03481 -0.108913,0.07432 l -0.05843,0.103771 c -0.02355,0.04092 -0.01247,0.07214 0.02337,0.07386 l -4.62e-4,0.0014 h 0.405736 c 0.07438,0 0.0981,0.06697 0.05189,0.150982 l -0.156592,0.277191 c -0.04619,0.08401 -0.146765,0.150982 -0.221097,0.150982 l -0.885327,0.0019 0.0846,-0.144438 h 0.532412 c 0.03831,0 0.08702,-0.03225 0.11125,-0.07432 l 0.07245,-0.143504 c 0.02132,-0.03948 0.0099,-0.07432 -0.02617,-0.07432 h -0.235585 -0.163135 c -0.07662,0 -0.09995,-0.0665 -0.05142,-0.150515 l 0.139765,-0.240734 c 0.04851,-0.08399 0.1463,-0.150983 0.222968,-0.150983 z m 0.875511,0 h 1.148494 l -0.08461,0.144439 h -0.297289 c -0.02799,0 -0.06537,0.02111 -0.09069,0.04908 h -0.0033 l -0.429077,0.785291 H 6.4387505 L 6.8954365,12.9338 h -0.36834 z m 1.435032,0 h 0.417422 l -0.609071,1.085858 h 0.11686 c 0.03384,0 0.07539,-0.02505 0.101433,-0.05983 l 0.577753,-1.026026 h 0.416955 l -0.609539,1.085858 h 0.117327 c 0.03837,0 0.087,-0.03223 0.11125,-0.07432 l 0.567936,-1.011539 h 0.416955 l -0.610941,1.08539 c -0.04618,0.08403 -0.146282,0.150515 -0.22063,0.150515 h -1.485984 z m 1.782339,0 h 0.8857955 c 0.07443,0 0.09768,0.06699 0.05142,0.150983 L 10.303063,13.76818 H 9.8847055 L 10.038494,13.491456 H 9.8501155 l -0.154254,0.276724 h -0.418356 l 0.416954,-0.74603 H 10.11188 l -0.1766895,0.316922 h 0.1879075 l 0.178562,-0.321129 c 0.02023,-0.03739 0.01093,-0.06986 -0.02056,-0.07339 l 4.62e-4,-9.23e-4 H 9.7388675 Z m 1.1807485,0 h 0.415551 l -0.125273,0.231382 0.316455,-0.231381 h 0.27906 c 0.07442,0 0.09801,0.06699 0.05189,0.150982 l -0.466975,0.827828 h -0.416485 l 0.406202,-0.718919 -0.317858,0.240731 -0.262231,0.478188 h -0.416488 z m 1.092869,0 h 0.93394 l -0.08461,0.144439 h -0.238393 c -0.02802,0 -0.06541,0.02111 -0.09069,0.04908 h -0.0033 l -0.429076,0.785291 H 11.773615 L 12.230768,12.9338 h -0.212685 z m 1.126057,0 h 0.709569 l -0.08742,0.144439 h -0.360856 c -0.03609,0 -0.08756,0.03481 -0.108913,0.07432 l -0.09956,0.177626 h 0.344968 l -0.08274,0.152384 h -0.344501 l -0.119197,0.204271 c -0.02422,0.04211 -0.01168,0.07386 0.02664,0.07386 h 0.360394 l -0.08226,0.151917 h -0.707701 c -0.07661,0 -0.100306,-0.06652 -0.05189,-0.150515 l 0.380027,-0.677317 c 0.04848,-0.08399 0.14677,-0.150983 0.223435,-0.150983 z M 3.8627085,13.83736 h 3.506249 l -0.105174,0.18791 h -3.509988 z m 5.378803,0 h 5.3180365 l -0.105173,0.18791 H 9.1325985 Z"/>
</svg>
