<?xml version="1.0" encoding="UTF-8" standalone="no"?>
<svg
   width="64"
   height="64"
   version="1.1"
   viewBox="0 0 16.933 16.933"
   id="svg7"
   sodipodi:docname="steam_icon_2767030.svg"
   inkscape:version="1.4.3 (0d15f75042, 2025-12-25)"
   xmlns:inkscape="http://www.inkscape.org/namespaces/inkscape"
   xmlns:sodipodi="http://sodipodi.sourceforge.net/DTD/sodipodi-0.dtd"
   xmlns="http://www.w3.org/2000/svg"
   xmlns:svg="http://www.w3.org/2000/svg"
   xmlns:rdf="http://www.w3.org/1999/02/22-rdf-syntax-ns#"
   xmlns:cc="http://creativecommons.org/ns#"
   xmlns:dc="http://purl.org/dc/elements/1.1/">
  <sodipodi:namedview
     id="namedview7"
     pagecolor="#9c4444"
     bordercolor="#000000"
     borderopacity="0.25"
     inkscape:showpageshadow="2"
     inkscape:pageopacity="0.0"
     inkscape:pagecheckerboard="0"
     inkscape:deskcolor="#d1d1d1"
     inkscape:zoom="4.3531262"
     inkscape:cx="89.935366"
     inkscape:cy="34.457995"
     inkscape:window-width="2560"
     inkscape:window-height="1388"
     inkscape:window-x="0"
     inkscape:window-y="0"
     inkscape:window-maximized="1"
     inkscape:current-layer="svg7"
     showgrid="false" />
  <defs
     id="defs2">
    <style
       id="current-color-scheme"
       type="text/css">.ColorScheme-Text {color:#d8dee9} .ColorScheme-Highlight {color:#3b4252}</style>
  </defs>
  <metadata
     id="metadata2">
    <rdf:RDF>
      <cc:Work
         rdf:about="">
        <dc:format>image/svg+xml</dc:format>
        <dc:type
           rdf:resource="http://purl.org/dc/dcmitype/StillImage" />
      </cc:Work>
    </rdf:RDF>
  </metadata>
  <path
     style="fill:currentColor;fill-opacity:1;stroke-width:0.0594179"
     d="M 1.4551798,11.64628 V 7.8147405 l 0.6566918,-3.04609 c 0.3611805,-1.67535 0.6715671,-3.106251 0.6897481,-3.179781 l 0.033056,-0.13369 H 9.1562482 15.47782 v 4.241185 4.241186 l -0.534773,2.4878985 c -0.294125,1.368345 -0.564173,2.614906 -0.600106,2.770135 l -0.06533,0.282236 H 7.8663941 1.4551798 Z M 12.477213,10.878206 C 11.921655,10.606113 10.638227,9.9763575 9.6251502,9.4787495 l -1.8419569,-0.904744 0.7130159,0.03428 c 0.392158,0.01885 1.287884,0.04965 1.9905018,0.06845 0.702617,0.0188 1.340264,0.04719 1.416992,0.06311 0.07736,0.01605 0.130297,0.003 0.118836,-0.02939 -0.01137,-0.03208 -0.76525,-0.862127 -1.675293,-1.844549 L 8.6926232,5.0796855 H 6.0721236 c -1.4576972,0 -2.5954525,0.02257 -2.5640529,0.05087 0.031046,0.02798 1.3059941,0.661237 2.8332181,1.407244 1.527224,0.746007 2.7705454,1.360126 2.7629354,1.364709 -0.0076,0.0046 -0.947577,-0.02693 -2.0888167,-0.07004 -1.1412396,-0.0431 -2.0853387,-0.06801 -2.0979979,-0.05535 -0.012659,0.01266 0.078833,0.132249 0.203315,0.265754 0.1244826,0.133505 0.8680461,0.93694 1.6523633,1.785409 l 1.4260313,1.5426705 2.6440998,9.88e-4 2.644099,9.89e-4 z M 3.9123223,9.9669895 c 0.8508773,-0.318527 1.5081773,-0.586626 1.4606666,-0.595775 -0.047511,-0.0092 -0.4462409,0.0362 -0.8860675,0.100785 -0.4398268,0.06458 -0.8033659,0.112092 -0.8078649,0.105577 -0.016059,-0.02325 0.5688178,-2.438128 0.597441,-2.466751 0.016055,-0.01606 0.3607443,0.01502 0.7659737,0.06906 0.8477233,0.113049 0.9391576,0.117933 0.8096384,0.04325 -0.2576851,-0.148594 -2.4587559,-0.955293 -2.4943606,-0.91419 -0.043457,0.05017 -1.0707176,4.0504115 -1.0707176,4.1694695 0,0.03724 0.017604,0.06772 0.039121,0.06772 0.021516,0 0.735293,-0.260611 1.5861702,-0.5791385 z M 14.132595,8.1397005 c 0.28256,-1.111116 0.513661,-2.063634 0.513559,-2.116707 -1.19e-4,-0.07691 -0.304678,0.01664 -1.500489,0.460935 -0.825167,0.306587 -1.537553,0.571229 -1.583081,0.588093 -0.230909,0.08553 0.05347,0.07287 0.792027,-0.03526 0.45132,-0.06608 0.840076,-0.11233 0.863903,-0.102781 0.04111,0.01647 -0.489821,2.400076 -0.547431,2.457686 -0.01505,0.01505 -0.385686,-0.02304 -0.823634,-0.08464 -0.708505,-0.09966 -0.903222,-0.111386 -0.821025,-0.04943 0.105771,0.07973 2.528347,0.9719525 2.556369,0.9415005 0.01983,-0.02155 0.267243,-0.9482785 0.549802,-2.0593945 z"
     id="path5"
     class="ColorScheme-Text" />
</svg>
