<?xml version="1.0" encoding="UTF-8" standalone="no"?>
<svg
   width="64"
   height="64"
   version="1.1"
   viewBox="0 0 16.933 16.933"
   id="svg7"
   sodipodi:docname="steam_icon_2325290.svg"
   inkscape:version="1.4.2 (ebf0e940d0, 2025-05-08)"
   xmlns:inkscape="http://www.inkscape.org/namespaces/inkscape"
   xmlns:sodipodi="http://sodipodi.sourceforge.net/DTD/sodipodi-0.dtd"
   xmlns="http://www.w3.org/2000/svg"
   xmlns:svg="http://www.w3.org/2000/svg"
   xmlns:rdf="http://www.w3.org/1999/02/22-rdf-syntax-ns#"
   xmlns:cc="http://creativecommons.org/ns#"
   xmlns:dc="http://purl.org/dc/elements/1.1/">
  <sodipodi:namedview
     id="namedview7"
     pagecolor="#9c4444"
     bordercolor="#000000"
     borderopacity="0.25"
     inkscape:showpageshadow="2"
     inkscape:pageopacity="0.0"
     inkscape:pagecheckerboard="0"
     inkscape:deskcolor="#d1d1d1"
     inkscape:zoom="4.3531263"
     inkscape:cx="35.491734"
     inkscape:cy="-5.7429991"
     inkscape:window-width="2560"
     inkscape:window-height="1392"
     inkscape:window-x="0"
     inkscape:window-y="0"
     inkscape:window-maximized="1"
     inkscape:current-layer="svg7"
     showgrid="false" />
  <defs
     id="defs2">
    <style
       id="current-color-scheme"
       type="text/css">.ColorScheme-Text {color:#d8dee9} .ColorScheme-Highlight {color:#3b4252}</style>
  </defs>
  <metadata
     id="metadata2">
    <rdf:RDF>
      <cc:Work
         rdf:about="">
        <dc:format>image/svg+xml</dc:format>
        <dc:type
           rdf:resource="http://purl.org/dc/dcmitype/StillImage" />
      </cc:Work>
    </rdf:RDF>
  </metadata>
  <path
     id="path2"
     d="m 8.1304203,1.4560167 c -0.493591,-0.01863 -1.602332,0.271545 -2.168957,0.608775 -0.92297,0.548979 -1.638623,1.038587 -2.176328,1.922345 -0.52104,0.85778 -0.474965,1.998906 0,2.535141 0.340171,0.383795 1.484702,1.324936 1.84595,1.554821 0.361247,0.229885 0.687203,0.708744 0.490159,1.332717 -0.197044,0.6239743 -1.636084,1.2705293 -2.588464,1.2484723 -0.426696,-0.01005 -0.674417,-0.0859 -0.797371,-0.139102 -0.308275,-0.159255 -0.316936,-0.417911 -0.08741,-0.7805224 0.194103,-0.3063499 0.508831,-0.6180879 1.235738,-1.0009029 0.348406,-0.183336 0.912985,-0.389363 1.534813,-0.581107 -0.06452,-0.04555 -0.139688,-0.101085 -0.222104,-0.163897 -1.294032,0.40916 -2.240113,1.039604 -2.527864,1.327356 -0.173517,0.173517 -0.459721,0.5817739 -0.500404,0.8474403 -0.02935,0.191287 0.153728,0.425707 0.438176,0.560429 -0.04266,-0.04359 -0.07432,-0.08375 -0.09621,-0.114977 -0.01148,-0.01637 -0.03096,-0.04711 -0.0383,-0.06127 h 0.224401 c 0.09626,0.11612 0.318372,0.312496 0.731602,0.335453 0.591133,0.03284 1.260178,-0.195087 1.85131,-0.359291 0.591133,-0.164203 1.73618,-0.6872304 2.228791,-1.1793513 0.49261,-0.49212 0.614649,-1.021531 0.319083,-1.44846 -0.295077,-0.426439 -0.426462,-0.623476 -0.722029,-0.984723 -0.295566,-0.361248 -0.01175,-1.032736 0.579384,-1.426824 0.591133,-0.394089 2.4409837,-1.396439 2.8679137,-1.724846 0.567114,-0.436732 0.395543,-1.040153 -0.06472,-1.469043 -0.266647,-0.248511 -0.6631517,-0.556794 -1.0185177,-0.658748 -0.463201,-0.132833 -0.858787,-0.161748 -1.338653,-0.179885 z m 2.6583507,3.29441 c -0.09459,-0.0025 -0.198117,0.01602 -0.29333,0.04892 -0.3985,0.137735 -0.7611907,0.484795 -1.1489067,1.179351 -0.387717,0.694556 -1.511167,5.2206793 -1.511167,5.2819493 0,0 0.0201,0.285768 0.12254,0.04069 0.07087,-0.170359 0.37792,-0.890903 0.758886,-1.6520874 0.01256,0.04295 0.03132,0.08953 0.05725,0.1414 0.143127,0.2857634 0.234741,0.4416184 0.663631,0.7685554 0.428889,0.326937 1.0926147,0.620554 1.4602347,0.722507 0.3686,0.101463 0.878841,0.101478 0.878841,0.101478 0,0 -0.775923,-0.163223 -1.286669,-0.428889 C 9.9793353,10.688634 9.4230263,10.29067 9.3617563,10.04559 c -0.06127,-0.2450794 -0.03581,-0.4186384 0.148006,-0.5210813 0.183809,-0.102444 0.7631927,-0.0382 1.1308127,-0.160739 0.36762,-0.122539 0.60485,-0.18142 0.727389,-0.467183 0.12254,-0.285763 0.278404,-0.671484 0.23723,-0.957247 -0.02831,-0.196463 -0.08394,-0.275972 -0.202287,-0.273322 -0.05379,0.0012 -0.12051,0.01945 -0.20353,0.05131 -0.265667,0.101953 -0.803897,0.325466 -1.2484717,0.551429 -0.277572,0.141043 -0.553565,0.325213 -0.765109,0.502893 0.02038,-0.03522 0.04086,-0.07005 0.06127,-0.104446 0.658775,-1.110702 1.3787657,-2.328259 1.6238457,-2.757149 0.24508,-0.428889 0.298499,-0.620577 0.23723,-0.942121 -0.0288,-0.151031 -0.161715,-0.213383 -0.31937,-0.217509 z m 0.354504,2.17719 c -0.207791,-0.0051 -0.429857,-0.0014 -0.657982,0.0089 -0.09088,0.154316 -0.188088,0.319187 -0.289309,0.490543 0.383451,0.01397 0.73638,0.04393 1.022251,0.08721 0.06109,-0.01858 0.122987,-0.03141 0.180842,-0.03274 0.12422,-0.0028 0.214275,0.04229 0.277439,0.12321 0.13258,0.03267 0.241853,0.06785 0.33191,0.11 0.142418,-0.236648 0.322728,-0.4435 0.502127,-0.570194 0.01011,-0.0071 0.02019,-0.01414 0.03025,-0.02097 -0.248875,-0.06627 -0.532512,-0.109045 -0.824847,-0.151834 -0.17134,-0.02508 -0.364892,-0.03903 -0.572683,-0.04413 z m 1.999124,0.171651 c -0.161096,-0.0042 -0.329801,0.05859 -0.525007,0.196447 -0.347033,0.24508 -0.704891,0.845043 -0.704891,1.29452 0,0.449476 0.05639,0.773533 0.321571,1.4475033 0.265667,0.673969 0.34992,0.868046 0.582256,1.087637 0.259295,0.24508 0.451962,0.11469 0.451962,0.11469 0,0 -0.390684,0.604857 -0.934271,1.164129 -0.524961,0.540156 -1.467994,1.455258 -1.815027,1.700337 -0.347033,0.24508 -0.5715267,0.445135 -0.36762,0.475034 0.260275,0.03823 0.462213,-0.01034 0.72739,-0.255419 0.265176,-0.24508 0.880817,-0.817111 1.470479,-1.559703 0.352425,-0.444085 0.765683,-0.939637 1.133302,-1.47048 0.36762,-0.530843 1.026368,-1.3454544 1.210178,-1.6312174 0.18381,-0.2857629 -0.02306,-0.2392129 -0.05639,-0.1995099 -0.257824,0.3063499 -0.579323,0.6660933 -0.84744,0.9572483 -0.265667,0.288704 -0.405914,0.005 -0.405914,-0.382746 0,-0.3877174 -0.03581,-0.6563593 0.107318,-1.2484723 0.143127,-0.592113 0.308836,-1.378861 0.02307,-1.562671 -0.125021,-0.08042 -0.245674,-0.124094 -0.370971,-0.127327 z m -4.3950667,0.0073 c -0.06724,0.0094 -0.132937,0.01893 -0.196829,0.02843 -0.262491,0.03901 -0.574934,0.103215 -0.90469,0.180268 0.05412,0.07576 0.109109,0.154544 0.17012,0.242687 0.258203,-0.0439 0.538251,-0.07669 0.826666,-0.09947 0.03535,-0.120839 0.07032,-0.238599 0.104733,-0.35192 z m 3.1866127,2.6556699 c -0.272275,0.3889774 -0.630978,0.8011244 -1.001956,1.1820324 0.151311,0.05666 0.306979,0.106149 0.444112,0.145516 0.06358,0.01825 0.12326,0.03449 0.176917,0.04854 0.233577,-0.229203 0.454578,-0.46099 0.648983,-0.681246 -0.04179,-0.101811 -0.08775,-0.217755 -0.140442,-0.351441 -0.04908,-0.1247514 -0.09131,-0.2382864 -0.127614,-0.3433994 z m -1.412847,1.5871804 c -0.143266,0.135704 -0.284252,0.263692 -0.418742,0.380831 -1.0312957,0.898953 -4.6565167,3.574241 -4.6565167,3.574241 0,0 -0.204389,0.28574 0.08137,0.123497 0.285763,-0.163714 0.813128,-0.475891 1.460139,-0.888606 0.70485,-0.449476 2.256738,-1.531791 3.2169607,-2.236641 0.301975,-0.221665 0.627104,-0.492725 0.944323,-0.781862 -0.111396,-0.01661 -0.214657,-0.0371 -0.300031,-0.0606 -0.09406,-0.02609 -0.20583,-0.06381 -0.327507,-0.11086 z"
     style="fill:currentColor;stroke-width:0.49016"
     class="ColorScheme-Text" />
</svg>
