<?xml version='1.0' encoding='UTF-8'?>
<svg xmlns:inkscape="http://www.inkscape.org/namespaces/inkscape" xmlns:sodipodi="http://sodipodi.sourceforge.net/DTD/sodipodi-0.dtd" xmlns="http://www.w3.org/2000/svg" xmlns:svg="http://www.w3.org/2000/svg" xmlns:rdf="http://www.w3.org/1999/02/22-rdf-syntax-ns#" xmlns:cc="http://creativecommons.org/ns#" xmlns:dc="http://purl.org/dc/elements/1.1/" width="64" height="64" version="1.1" viewBox="0 0 16.933 16.933" id="svg7" sodipodi:docname="steam_icon_1105670.svg" inkscape:version="1.4 (e7c3feb100, 2024-10-09)">
  <sodipodi:namedview id="namedview7" pagecolor="#9c4444" bordercolor="#000000" borderopacity="0.25" inkscape:showpageshadow="2" inkscape:pageopacity="0.0" inkscape:pagecheckerboard="0" inkscape:deskcolor="#d1d1d1" inkscape:zoom="4.3531261" inkscape:cx="27.910976" inkscape:cy="39.856415" inkscape:window-width="1183" inkscape:window-height="940" inkscape:window-x="35" inkscape:window-y="32" inkscape:window-maximized="0" inkscape:current-layer="svg7" showgrid="false"/>
  <defs id="defs2">
    <style id="current-color-scheme" type="text/css">.ColorScheme-Text {color:#d8dee9} .ColorScheme-Highlight {color:#3b4252}</style></defs>
  <metadata id="metadata2">
    <rdf:RDF>
      <cc:Work rdf:about="">
        <dc:format>image/svg+xml</dc:format>
        <dc:type rdf:resource="http://purl.org/dc/dcmitype/StillImage"/>
      </cc:Work>
    </rdf:RDF>
  </metadata>
  <path style="fill:currentColor;stroke-width:0.0754517" d="m 15.544895,15.339115 c -0.0067,-0.04978 -0.05782,-0.48712 -0.11381,-0.971825 -0.08381,-0.725531 -0.107958,-0.879358 -0.136591,-0.870379 -0.103398,0.03241 -0.345819,0.02622 -0.463051,-0.01178 -0.209887,-0.06813 -0.499701,-0.229767 -0.622761,-0.347284 -0.06365,-0.06076 -0.433891,-0.507087 -0.822772,-0.991794 -0.5518,-0.68777 -1.106885,-1.378294 -1.222182,-1.520392 -0.02404,-0.02962 -0.23512,0.115528 -0.294899,0.202784 -0.09128,0.133226 -0.16872,0.355512 -0.189506,0.543941 l -0.01729,0.1559 -0.203941,0.03162 c -0.206869,0.03206 -0.411262,0.109663 -0.525411,0.199455 -0.08482,0.06671 -0.176071,0.193479 -0.176071,0.244572 0,0.02594 0.471457,0.421642 1.24949,1.048709 0.810749,0.653438 1.278021,1.046233 1.330739,1.118636 0.220514,0.302847 0.355125,0.718913 0.299732,0.926444 -0.01482,0.05618 -0.02523,0.104272 -0.02271,0.10678 0.004,0.004 1.900373,0.225228 1.930913,0.225228 0.0067,0 0.0067,-0.04076 4e-5,-0.09054 z m -5.176301,-2.210608 c 0.02984,-0.07857 0.07421,-0.481759 0.07421,-0.674702 0,-0.533235 0.326442,-0.931688 0.876505,-1.069856 l 0.157029,-0.03945 0.0395,-0.157252 c 0.07155,-0.284932 0.233104,-0.542118 0.430151,-0.684856 0.17214,-0.124705 0.335566,-0.168754 0.715266,-0.192818 0.191535,-0.01201 0.400721,-0.02903 0.464852,-0.03754 0.223391,-0.02964 0.227518,-0.01053 -0.131708,-0.6133353 -0.177902,-0.2985951 -0.498662,-0.8375871 -0.71279,-1.1977554 -0.31881,-0.5362488 -0.402494,-0.6603068 -0.462032,-0.6849692 -0.05164,-0.021383 -0.138605,-0.025177 -0.299953,-0.013072 -0.279494,0.020955 -0.328455,0.058592 -0.35527,0.2730936 -0.0469,0.3752966 -0.04094,0.4019638 0.183886,0.8207493 0.112894,0.2102584 0.20523,0.4012768 0.20523,0.424483 0,0.070952 -0.06277,0.1668694 -0.191707,0.2928464 L 11.238711,9.6943147 7.0381287,5.4936005 2.837539,1.2928848 1.9621368,1.1205453 C 1.4806654,1.0257581 1.0850474,0.94970304 1.0829897,0.95153274 c -0.00209,0.00183 0.072447,0.39447196 0.165585,0.87253736 l 0.169328,0.8692115 4.2041486,4.206778 4.2041462,4.2067774 -0.1202643,0.123052 C 9.5618144,11.377376 9.4680431,11.43072 9.3831416,11.413531 9.3484457,11.406691 9.1589948,11.313103 8.9621037,11.205951 8.569763,10.992437 8.5615328,10.990581 8.1905346,11.031822 c -0.2425208,0.02697 -0.2792003,0.07209 -0.2985968,0.367337 -0.011799,0.181476 -0.00718,0.244319 0.022059,0.300952 0.029121,0.05616 0.2904699,0.222318 1.2140512,0.771784 0.6473153,0.385107 1.186155,0.703796 1.197426,0.708193 0.01129,0.0044 0.03069,-0.01881 0.04316,-0.05162 z M 1.6792732,1.5381775 c 0.00608,-0.00562 0.2337969,0.010678 0.5060289,0.036201 L 2.6802692,1.6208321 6.7182757,5.6578272 10.756283,9.6948222 10.521305,9.9306859 10.286327,10.166549 5.9772711,5.8574903 C 3.6072887,3.4875078 1.6731913,1.5438175 1.6792732,1.5381775 Z" id="path99" class="ColorScheme-Text"/>
</svg>
