<?xml version='1.0' encoding='UTF-8'?>
<svg xmlns:inkscape="http://www.inkscape.org/namespaces/inkscape" xmlns:sodipodi="http://sodipodi.sourceforge.net/DTD/sodipodi-0.dtd" xmlns="http://www.w3.org/2000/svg" xmlns:svg="http://www.w3.org/2000/svg" xmlns:rdf="http://www.w3.org/1999/02/22-rdf-syntax-ns#" xmlns:cc="http://creativecommons.org/ns#" xmlns:dc="http://purl.org/dc/elements/1.1/" width="64" height="64" version="1.1" viewBox="0 0 16.933 16.933" id="svg7" sodipodi:docname="steam_icon_1336490.svg" inkscape:version="1.4 (e7c3feb100, 2024-10-09)">
  <sodipodi:namedview id="namedview7" pagecolor="#9c4444" bordercolor="#000000" borderopacity="0.25" inkscape:showpageshadow="2" inkscape:pageopacity="0.0" inkscape:pagecheckerboard="0" inkscape:deskcolor="#d1d1d1" inkscape:zoom="4.3531261" inkscape:cx="35.951175" inkscape:cy="39.741555" inkscape:window-width="1183" inkscape:window-height="941" inkscape:window-x="35" inkscape:window-y="32" inkscape:window-maximized="0" inkscape:current-layer="svg7" showgrid="false"/>
  <defs id="defs2">
    <style id="current-color-scheme" type="text/css">.ColorScheme-Text {color:#d8dee9} .ColorScheme-Highlight {color:#3b4252}</style></defs>
  <metadata id="metadata2">
    <rdf:RDF>
      <cc:Work rdf:about="">
        <dc:format>image/svg+xml</dc:format>
        <dc:type rdf:resource="http://purl.org/dc/dcmitype/StillImage"/>
      </cc:Work>
    </rdf:RDF>
  </metadata>
  <path style="fill:currentColor;fill-opacity:1;stroke:none;stroke-width:0.366466;stroke-dasharray:none;stroke-opacity:1" d="m 1.6302976,15.611912 c 0.017347,-0.01615 0.787203,-0.483086 1.7107777,-1.037284 l 1.6792201,-1.007629 -1.7896557,-0.01558 -1.7896572,-0.01558 1.8300369,-1.100744 c 1.006518,-0.605494 1.8442375,-1.108937 1.861589,-1.118849 0.017347,-0.01007 -0.1246362,0.157415 -0.3155237,0.371843 -1.0477337,1.176913 -1.2775166,1.439645 -1.2776855,1.460868 -9.98e-5,0.01292 0.7396529,0.02709 1.6439012,0.03156 l 1.644085,0.0082 -2.5780913,1.214764 C 1.5958743,15.653667 1.576782,15.662475 1.6302982,15.612186 Z m 8.6077744,0.0011 c 0.009,-0.01444 0.684734,-0.480383 1.501572,-1.0357 l 1.485162,-1.009679 -1.585018,-0.01577 -1.585011,-0.01577 1.624945,-1.106812 c 0.893714,-0.608909 1.629282,-1.103883 1.634595,-1.100104 0.0053,0.0038 -0.310612,0.413208 -0.702041,0.909838 -0.391432,0.496625 -0.711689,0.909957 -0.711689,0.918509 0,0.0085 0.663781,0.01577 1.475073,0.01577 l 1.475069,5.64e-4 -1.987797,1.058403 c -1.093287,0.582116 -2.134825,1.136814 -2.31453,1.232669 -0.179707,0.09586 -0.319352,0.162545 -0.310328,0.148257 z M 6.3563021,14.713448 c 0.1871272,-0.178999 0.991709,-0.943067 1.7879604,-1.697958 0.7962524,-0.754891 1.4489111,-1.383063 1.4503645,-1.395938 0.00113,-0.01292 -0.8359696,-0.02707 -1.8609292,-0.03156 L 5.870125,11.579823 6.6843035,10.806789 C 8.8116168,8.7870176 9.4700206,8.1487339 9.4535958,8.1221586 9.4285994,8.081723 9.1340687,8.0861291 9.0509104,8.1281761 9.0130048,8.1473444 8.3394127,8.8040253 7.5540429,9.5874722 L 6.126093,11.011876 5.6451262,11.010706 C 5.1859633,11.009531 5.150571,11.004814 4.8644128,10.906539 3.8342539,10.552502 3.1423801,9.6770445 3.049259,8.6095318 L 3.0272612,8.3572625 2.8076976,8.282514 C 2.2212225,8.0828482 1.7188222,7.5734646 1.4952823,6.9518557 c -0.07546,-0.2098563 -0.08323,-0.2740893 -0.08323,-0.6889429 0,-0.4148534 0.00777,-0.4790857 0.083231,-0.6889426 C 1.8006772,4.724742 2.5374577,4.1736329 3.4381901,4.1206796 L 3.7631316,4.1015715 3.8353568,3.8964807 C 4.1415884,3.0269379 4.8285089,2.2674378 5.6619893,1.8768552 7.2553912,1.1301613 9.1347147,1.6404956 10.117037,3.0866338 c 0.11186,0.1646749 0.2131,0.2805383 0.251738,0.2880892 0.03554,0.00692 0.154603,0.028755 0.26457,0.048458 0.4482,0.080313 0.996202,0.3170205 1.368585,0.5911529 l 0.187093,0.1377386 0.173736,-0.1153091 c 0.362094,-0.2403448 0.782674,-0.3492983 1.238688,-0.3208843 0.804674,0.050137 1.475338,0.5605549 1.761256,1.3404249 0.156731,0.4274914 0.127547,1.0586112 -0.0684,1.4807741 -0.0664,0.1429959 -0.07009,0.1686421 -0.02926,0.2025168 0.08109,0.067298 0.288747,0.4461715 0.356934,0.6512279 0.104956,0.3156799 0.138187,0.6388484 0.09726,0.9463336 -0.06899,0.5183965 -0.257722,0.8952725 -0.639449,1.2768754 -0.197416,0.1973477 -0.300284,0.2712098 -0.536385,0.3851021 -0.312782,0.1508801 -0.665743,0.2393791 -0.954731,0.2393791 -0.411816,0 -0.937555,-0.17614 -1.283311,-0.4299531 l -0.154489,-0.113392 -0.211904,0.1415576 c -0.559496,0.3737445 -1.146341,0.5725095 -1.805316,0.6114535 -0.435112,0.02571 -1.1674383,-0.06933 -1.1674383,-0.151515 0,-0.01594 0.184585,-0.3736479 0.4101824,-0.7948755 0.3409009,-0.6365125 0.410185,-0.7884576 0.410185,-0.8996072 0,-0.1464919 -0.052987,-0.2724304 -0.152532,-0.3625103 C 9.5705217,8.1821823 9.5684165,8.183746 9.4651686,8.3655817 9.407667,8.4668517 9.0533797,9.0965219 8.6778587,9.7648494 l -0.6827561,1.2151386 1.7286653,0.01579 1.7286701,0.01579 -2.667713,1.987797 c -1.467246,1.093271 -2.6904287,1.99934 -2.7181873,2.013462 -0.027742,0.01425 0.1026361,-0.120726 0.2897623,-0.299746 z" id="path1-3-5-9" class="ColorScheme-Text"/>
</svg>
