<?xml version='1.0' encoding='UTF-8'?>
<svg xmlns:inkscape="http://www.inkscape.org/namespaces/inkscape" xmlns:sodipodi="http://sodipodi.sourceforge.net/DTD/sodipodi-0.dtd" xmlns="http://www.w3.org/2000/svg" xmlns:svg="http://www.w3.org/2000/svg" xmlns:rdf="http://www.w3.org/1999/02/22-rdf-syntax-ns#" xmlns:cc="http://creativecommons.org/ns#" xmlns:dc="http://purl.org/dc/elements/1.1/" width="64" height="64" version="1.1" viewBox="0 0 16.933 16.933" id="svg7" sodipodi:docname="steam_icon_2344520.svg" inkscape:version="1.4 (e7c3feb100, 2024-10-09)">
  <sodipodi:namedview id="namedview7" pagecolor="#9c4444" bordercolor="#000000" borderopacity="0.25" inkscape:showpageshadow="2" inkscape:pageopacity="0.0" inkscape:pagecheckerboard="0" inkscape:deskcolor="#d1d1d1" inkscape:zoom="4.3531261" inkscape:cx="35.491735" inkscape:cy="39.741555" inkscape:window-width="1183" inkscape:window-height="941" inkscape:window-x="35" inkscape:window-y="32" inkscape:window-maximized="0" inkscape:current-layer="svg7" showgrid="false"/>
  <defs id="defs2">
    <style id="current-color-scheme" type="text/css">.ColorScheme-Text {color:#d8dee9} .ColorScheme-Highlight {color:#3b4252}</style></defs>
  <metadata id="metadata2">
    <rdf:RDF>
      <cc:Work rdf:about="">
        <dc:format>image/svg+xml</dc:format>
        <dc:type rdf:resource="http://purl.org/dc/dcmitype/StillImage"/>
      </cc:Work>
    </rdf:RDF>
  </metadata>
  <path d="M 4.5577122,0.68522674 C 2.9666598,1.41769 1.9167452,2.5953651 1.9167452,3.9162506 c 0,0.8693827 0.4468436,1.674432 1.206011,2.3321072 -0.3883746,0.8456744 -0.6323075,1.795036 -0.6929068,2.8039994 0.5725047,0.018696 1.1164422,0.1400072 1.6046434,0.3895656 1.384006,0.7075602 2.0338708,2.2290202 1.9241185,4.0320172 0.2519223,0.06095 0.5089169,0.111701 0.7698784,0.152494 0.029739,-0.558057 0.027677,-1.114371 -0.016492,-1.668903 l 0.6203253,-0.04948 c 0.04792,0.600525 0.048805,1.199155 0.015238,1.795975 0.2671155,0.02531 0.5374186,0.04026 0.809856,0.04609 v -1.87245 h 0.6222113 v 1.868948 c 0.2607187,-0.0084 0.5225273,-0.02523 0.7846373,-0.05035 -0.03305,-0.594177 -0.031949,-1.190198 0.015675,-1.788044 l 0.6203254,0.04938 c -0.04409,0.552626 -0.04623,1.107012 -0.0167,1.663172 0.243302,-0.03562 0.486126,-0.07839 0.72798,-0.127965 -0.11546,-1.811169 0.534067,-3.340762 1.922805,-4.0507437 0.488141,-0.249626 1.032137,-0.3710014 1.604573,-0.3896394 -0.06131,-1.0227508 -0.311085,-1.9842873 -0.708687,-2.8386187 0.735202,-0.651285 1.166857,-1.4432909 1.166857,-2.2974851 0,-1.3208838 -1.049921,-2.4985937 -2.640972,-3.23095702 0.434682,0.55162852 0.702294,1.21257072 0.702294,1.91047302 0,1.4213738 -1.049186,2.65089 -2.564718,3.2346535 L 10.189259,5.354358 C 10.560444,5.2065201 10.896245,5.0148324 11.184031,4.7895125 11.520331,4.5262992 11.790103,4.2205685 11.98015,3.885369 10.986255,3.0418598 9.7611953,2.5440729 8.4344431,2.5440729 c -1.343189,0 -2.5822866,0.5099083 -3.5827333,1.372595 C 5.0406363,4.2396474 5.304153,4.5344905 5.6299211,4.7895125 5.9519054,5.0415674 6.3339849,5.2515693 6.7584858,5.405171 L 6.5545421,5.8801167 C 4.9670417,5.3186279 3.8554957,4.0589118 3.8554957,2.5958502 c 0,-0.6979021 0.267638,-1.3588447 0.7023265,-1.9104726 z M 4.9002115,6.7828169 c 0.0022,-1.398e-4 0.00296,1.399e-4 0.00367,0.00296 C 5.517014,7.5632429 6.6329917,8.1075513 7.9367554,8.2229202 7.74058,8.8788025 7.0380767,9.3726587 6.1830241,9.3726587 c -1.0059083,0 -1.8362649,-0.6853817 -1.8362649,-1.5155763 6.17e-5,-0.4150369 0.2066113,-0.7990153 0.5364053,-1.0712543 0.00296,0.00296 0.010982,-0.0022 0.016416,-0.00296 z m 7.0478745,5.89e-5 c 0.0029,-1.031e-4 0.0029,2.282e-4 0.0044,0.00296 0.329868,0.272202 0.536469,0.6561806 0.536469,1.0712521 0,0.8300988 -0.830327,1.51551 -1.836317,1.51551 -0.8550595,0 -1.5574963,-0.4937899 -1.7537403,-1.1497425 C 10.202631,8.1074553 11.318652,7.563153 11.93177,6.7857809 c 0.0029,0.00296 0.01083,-0.0022 0.01615,-0.00296 z M 8.432603,8.2530641 c 0.1872925,0.9129909 0.4637497,1.8259969 1.0957936,2.7389879 -0.675054,0.180882 -1.4922932,0.187374 -2.1915947,0 C 7.9350737,10.079061 8.2302862,9.166055 8.432603,8.2530641 Z M 5.8917219,14.097989 c -0.077923,0.512767 -0.2135349,1.042192 -0.4078872,1.577329 0.2925405,0.191129 0.6005833,0.354454 0.9210881,0.487361 0.1207735,-0.640117 0.2176571,-1.277791 0.2773546,-1.913051 -0.2670272,-0.04064 -0.5308745,-0.09103 -0.7905923,-0.151601 z m 5.0878271,0.01615 c -0.249066,0.05005 -0.499296,0.09344 -0.750055,0.129466 0.05918,0.631708 0.155008,1.265782 0.274638,1.90225 0.306063,-0.129751 0.60051,-0.28736 0.880764,-0.470364 -0.192312,-0.529783 -0.327107,-1.053816 -0.405347,-1.561555 z m -1.3683044,0.20361 c -0.2775315,0.02666 -0.5549892,0.04404 -0.8315931,0.05265 v 2.187407 C 9.167362,16.532155 9.5456727,16.464192 9.9108514,16.357515 9.7810548,15.680155 9.675837,15.000126 9.6112446,14.317578 Z m -2.3108722,0.0078 c -0.065073,0.683916 -0.1708119,1.365237 -0.3010939,2.043919 0.373813,0.105887 0.761163,0.171342 1.158156,0.192218 v -2.188018 c -0.2877483,-0.0059 -0.5738332,-0.02149 -0.8570621,-0.04807 z" id="path99" style="fill:currentColor;stroke-width:0.0332967" class="ColorScheme-Text"/>
</svg>
