<?xml version='1.0' encoding='UTF-8'?>
<svg xmlns:inkscape="http://www.inkscape.org/namespaces/inkscape" xmlns:sodipodi="http://sodipodi.sourceforge.net/DTD/sodipodi-0.dtd" xmlns="http://www.w3.org/2000/svg" xmlns:svg="http://www.w3.org/2000/svg" xmlns:rdf="http://www.w3.org/1999/02/22-rdf-syntax-ns#" xmlns:cc="http://creativecommons.org/ns#" xmlns:dc="http://purl.org/dc/elements/1.1/" width="64" height="64" version="1.1" viewBox="0 0 16.933 16.933" id="svg7" sodipodi:docname="steam_icon_2842040.svg" inkscape:version="1.4 (e7c3feb100, 2024-10-09)">
  <sodipodi:namedview id="namedview7" pagecolor="#9c4444" bordercolor="#000000" borderopacity="0.25" inkscape:showpageshadow="2" inkscape:pageopacity="0.0" inkscape:pagecheckerboard="0" inkscape:deskcolor="#d1d1d1" inkscape:zoom="6.15625" inkscape:cx="16" inkscape:cy="26.964467" inkscape:window-width="1183" inkscape:window-height="941" inkscape:window-x="35" inkscape:window-y="32" inkscape:window-maximized="0" inkscape:current-layer="svg7" showgrid="false"/>
  <defs id="defs2">
    <style id="current-color-scheme" type="text/css">.ColorScheme-Text {color:#d8dee9} .ColorScheme-Highlight {color:#3b4252}</style></defs>
  <metadata id="metadata2">
    <rdf:RDF>
      <cc:Work rdf:about="">
        <dc:format>image/svg+xml</dc:format>
        <dc:type rdf:resource="http://purl.org/dc/dcmitype/StillImage"/>
      </cc:Work>
    </rdf:RDF>
  </metadata>
  <path style="fill:currentColor;stroke-width:0.0679065" d="m 11.983018,12.041633 c -0.536324,-0.559594 -1.030241,-1.036535 -1.09759,-1.059866 -0.06736,-0.02334 -0.401548,0.03041 -0.742669,0.119432 C 9.3186367,11.316268 8.7315584,11.239177 7.2222655,10.717697 5.769956,10.215846 5.4537135,9.9980092 4.9620776,9.1603216 4.7747898,8.8412061 4.5660257,8.6008504 4.4374533,8.5563082 4.3200003,8.5156182 3.7832031,8.5632961 3.2445685,8.6622573 1.4675749,8.9887439 0.85430396,8.9213617 0.70088053,8.3827806 0.48334955,7.6191639 1.3374513,7.2154388 3.3075832,7.1506213 3.6674242,7.1387821 3.9657542,7.1177965 3.9705373,7.1039896 3.9753176,7.0901908 3.3198616,6.8561095 2.5139708,6.5838001 L 1.048708,6.0887154 0.92494799,5.7769851 C 0.75946855,5.3601776 0.88689707,5.0307324 1.2581333,4.9155774 1.5231749,4.8333651 1.6815871,4.8709577 2.9819369,5.3246532 3.9583635,5.665377 4.4241347,5.7946511 4.4461121,5.7312127 4.4638419,5.680035 4.3278331,5.4814077 4.1438741,5.2898126 3.6778122,4.8044105 3.6776586,4.8042921 3.710972,4.9532152 3.730687,5.0413452 3.714082,5.0538248 3.662097,4.9900022 3.6188047,4.9368659 3.616214,4.8666413 3.6563341,4.8339376 3.6964695,4.8012492 3.5913028,4.6807814 3.4226445,4.5662508 3.0587941,4.3191782 2.5768618,3.4632434 2.6134849,3.1291466 2.6311047,2.9684425 2.7220015,2.8412041 2.9016011,2.725894 3.4327031,2.3848874 4.178634,2.9018116 5.3045692,4.3911298 c 0.5921162,0.7832151 0.8721207,0.9587845 1.4058787,0.8815218 0.5010095,-0.072521 1.9896146,0.2347685 2.9088184,0.6004631 0.6756127,0.2687979 1.0032557,0.4591239 1.6568357,0.962509 0.448075,0.3451086 0.88893,0.6284102 0.979673,0.6295618 0.09071,0.00114 0.850977,-0.084654 1.689402,-0.1906744 1.30986,-0.1656374 1.565631,-0.1705485 1.817304,-0.034892 0.402086,0.2167311 0.483562,0.3889884 0.355466,0.7515377 -0.172304,0.4874394 -0.887694,0.8071219 -1.698025,0.758646 -0.588367,-0.035197 -1.37236,0.1055873 -1.367751,0.2456113 0.0026,0.075856 0.445231,0.3113775 1.268154,0.6746558 0.695373,0.3069739 1.33934,0.6234451 1.431041,0.7032881 0.352975,0.307332 0.196588,0.913503 -0.297554,1.153359 -0.229788,0.111543 -0.299026,0.09578 -1.174551,-0.267455 -0.511702,-0.212293 -1.032969,-0.448358 -1.158366,-0.524596 -0.402052,-0.24444 -0.273687,0.08786 0.225879,0.584728 0.550839,0.547859 0.85807,1.20473 0.679633,1.453077 -0.17825,0.248112 -0.469493,0.368597 -0.786113,0.325235 -0.231411,-0.03169 -0.457478,-0.221577 -1.257279,-1.056083 z m 1.370201,0.305158 c -0.03726,-0.101267 -0.454984,-0.567582 -0.928304,-1.036248 -1.052671,-1.042316 -1.223557,-1.291469 -1.110195,-1.6186888 0.04676,-0.1349737 0.142135,-0.2581823 0.21196,-0.2738016 0.160672,-0.03595 0.62335,0.1621353 1.441784,0.6172064 0.715773,0.398 2.125278,0.918459 2.166344,0.799924 0.04318,-0.124655 -0.173165,-0.262081 -1.053002,-0.668862 C 13.623332,9.9543574 12.973732,9.6397298 12.638249,9.4671655 12.302764,9.2945944 11.956527,9.1189711 11.86884,9.0768825 11.710776,9.00102 11.66238,8.869606 11.673031,8.5452005 11.681456,8.2888723 10.617913,7.2815473 9.9572748,6.9201281 9.6287298,6.7403853 8.9675316,6.4801079 8.4197162,6.31486 7.6154902,6.07227 7.3543225,6.0323904 6.8199133,6.0706212 6.4686459,6.0957474 6.0459772,6.0911748 5.8806549,6.0604615 5.5964778,6.0076635 5.5776623,6.0207434 5.5360147,6.2999898 5.5078012,6.4890177 5.4419263,6.6133689 5.3530043,6.6453965 5.2687486,6.6757394 4.49253,6.4488686 3.3811383,6.0690664 2.3730216,5.7246229 1.5182612,5.4572417 1.4816134,5.4750451 1.2526751,5.5861731 1.7335754,5.8058706 3.1811477,6.2514677 4.9355429,6.7915136 5.1266832,6.9026559 4.9461908,7.277721 4.8336611,7.5115775 4.5514565,7.5676501 2.4785601,7.7680544 1.6720381,7.8460266 1.226382,8.0260926 1.3783465,8.2125898 c 0.070045,0.085946 0.899112,-0.011508 2.3518228,-0.2764511 0.5063117,-0.09234 1.0125388,-0.136128 1.1249508,-0.097306 0.120095,0.041477 0.3098668,0.2671212 0.4601566,0.5471354 0.4633952,0.8633883 0.7449453,1.061447 2.2598748,1.5897255 1.277837,0.4454764 1.3468755,0.4600734 1.9342637,0.4013754 0.3350086,-0.0334 0.7820378,-0.148031 0.9934008,-0.254736 0.211369,-0.106706 0.426958,-0.1792365 0.479096,-0.1611735 0.05213,0.018054 0.242638,0.2216835 0.423333,0.4524935 0.520137,0.664397 1.76959,2.030717 1.898475,2.076046 0.09937,0.03494 0.106909,0.01317 0.0495,-0.142888 z M 6.3076403,7.895059 C 6.1903787,7.7928403 6.3331723,7.3711333 6.5148985,7.2829067 6.8170544,7.1362383 7.2039985,7.4512237 7.0978955,7.7574945 6.9999296,8.0402779 6.5616959,8.1165583 6.3076197,7.8950521 Z M 9.3717984,8.7869249 C 9.2845938,8.4404124 9.5253463,8.2108505 9.8558862,8.3253617 10.28051,8.4724667 10.318876,8.8845526 9.9236022,9.052636 9.6349046,9.1753994 9.4467636,9.0848045 9.3717984,8.7869249 Z M 12.897817,8.3030182 c 0.385677,-0.048372 0.998752,-0.08816 1.362395,-0.088414 0.715671,-5.038e-4 1.481846,-0.2544816 1.228884,-0.4073595 -0.07627,-0.046083 -0.286245,-0.062278 -0.466648,-0.035975 -0.180402,0.026305 -0.597762,0.079688 -0.927469,0.1186398 -0.329706,0.03895 -0.737162,0.094878 -0.905453,0.1242777 -0.168281,0.029402 -0.488535,0.081229 -0.711651,0.1151754 -0.624345,0.094994 -0.654449,0.1072238 -0.649296,0.263773 0.0042,0.1274275 0.02844,0.136812 0.18645,0.072067 0.09988,-0.040873 0.497145,-0.1138962 0.882819,-0.1622687 z M 5.4178119,5.6923291 C 5.4288072,5.6605675 4.6087194,4.6546769 4.0728562,4.0426997 3.9437906,3.8953028 3.9249429,3.8871188 3.9968587,4.009748 c 0.052609,0.089663 0.094849,0.2177902 0.093853,0.2847246 -9.99e-4,0.066933 0.2676067,0.4008868 0.5968928,0.7421198 0.6128449,0.6350835 0.7078111,0.7203732 0.7301868,0.6557852 z M 3.7506149,3.825509 C 3.8611271,3.7994845 3.859058,3.7472218 3.741056,3.5841114 3.658227,3.4696063 3.5153088,3.3499019 3.4234657,3.3180841 3.2669084,3.2638464 3.2643981,3.2779436 3.3833235,3.5437333 3.523157,3.8562786 3.5459069,3.8737306 3.7506212,3.8255116 Z" id="path99" class="ColorScheme-Text"/>
</svg>
