<?xml version="1.0" encoding="UTF-8" standalone="no"?>
<svg
   width="64"
   height="64"
   version="1.1"
   viewBox="0 0 16.933 16.933"
   id="svg7"
   sodipodi:docname="steam_icon_8000.svg"
   inkscape:version="1.4.2 (ebf0e940d0, 2025-05-08)"
   xmlns:inkscape="http://www.inkscape.org/namespaces/inkscape"
   xmlns:sodipodi="http://sodipodi.sourceforge.net/DTD/sodipodi-0.dtd"
   xmlns="http://www.w3.org/2000/svg"
   xmlns:svg="http://www.w3.org/2000/svg"
   xmlns:rdf="http://www.w3.org/1999/02/22-rdf-syntax-ns#"
   xmlns:cc="http://creativecommons.org/ns#"
   xmlns:dc="http://purl.org/dc/elements/1.1/">
  <sodipodi:namedview
     id="namedview7"
     pagecolor="#9c4444"
     bordercolor="#000000"
     borderopacity="0.25"
     inkscape:showpageshadow="2"
     inkscape:pageopacity="0.0"
     inkscape:pagecheckerboard="0"
     inkscape:deskcolor="#d1d1d1"
     inkscape:zoom="4.3531262"
     inkscape:cx="89.935366"
     inkscape:cy="34.457995"
     inkscape:window-width="2560"
     inkscape:window-height="1388"
     inkscape:window-x="0"
     inkscape:window-y="0"
     inkscape:window-maximized="1"
     inkscape:current-layer="svg7"
     showgrid="false" />
  <defs
     id="defs2">
    <style
       id="current-color-scheme"
       type="text/css">.ColorScheme-Text {color:#d8dee9} .ColorScheme-Highlight {color:#3b4252}</style>
  </defs>
  <metadata
     id="metadata2">
    <rdf:RDF>
      <cc:Work
         rdf:about="">
        <dc:format>image/svg+xml</dc:format>
        <dc:type
           rdf:resource="http://purl.org/dc/dcmitype/StillImage" />
      </cc:Work>
    </rdf:RDF>
  </metadata>
  <path
     id="path5"
     style="opacity:1;fill:currentColor;stroke-width:0.00223824;paint-order:fill markers stroke"
     class="ColorScheme-Text"
     d="m 11.822373,1.4552973 c -0.03279,0.00163 -0.08518,0.019507 -0.15796,0.052969 -0.07892,0.036284 -0.176482,0.075877 -0.216604,0.088439 -0.04013,0.012562 -0.123145,0.048093 -0.184445,0.078507 -0.0613,0.030414 -0.162835,0.062407 -0.22559,0.071413 -0.104052,0.014929 -0.221475,0.051732 -0.707983,0.2213336 -0.09059,0.031579 -0.191153,0.057832 -0.223698,0.058171 -0.06476,6.794e-4 -0.1432996,0.054544 -0.1432996,0.09837 -4.21e-5,2.497e-4 8.42e-5,0.00115 0,0.00142 C 9.9470327,2.1621201 9.6049347,2.354109 9.1327929,2.5903408 8.7700688,2.7718267 8.6147641,2.8644986 8.3349518,3.0675321 8.005823,3.3063491 7.8130493,3.4013304 7.4444157,3.5064155 7.275105,3.5546805 7.0710308,3.6150796 6.9913441,3.6407291 6.9141467,3.665577 6.8436791,3.6817764 6.8310192,3.6776179 h -4.729e-4 l -4.73e-4,-4.728e-4 h -4.729e-4 l -4.73e-4,-4.73e-4 -4.729e-4,-4.729e-4 c -0.00658,-0.00886 0.00154,-0.043935 0.01939,-0.080872 0.029826,-0.061741 0.032029,-0.088896 0.016553,-0.1981597 C 6.838993,3.2163881 6.8296873,3.1847496 6.7662271,3.0698967 6.6619031,2.8810984 6.5915253,2.8122363 6.4096343,2.7189792 6.3166753,2.6713182 6.2231143,2.6267342 6.201543,2.6201352 6.179969,2.6135352 6.117223,2.5778532 6.0620272,2.5406822 6.0068312,2.5035112 5.9211209,2.4597622 5.8714345,2.4432572 c -0.086409,-0.028697 -0.092171,-0.028606 -0.1310029,0.00662 -0.034121,0.030958 -0.05949,0.035582 -0.1574874,0.027903 -0.1105647,-0.00866 -0.1163419,-0.00689 -0.1163419,0.03216 0,0.028619 -0.016901,0.047271 -0.055806,0.061955 -0.066059,0.024933 -0.068357,0.033765 -0.018917,0.078507 0.047451,0.042945 0.047743,0.078165 4.729e-4,0.093168 -0.037834,0.012008 -0.1362156,0.1233513 -0.1972138,0.2236982 -0.010747,0.017677 -0.017383,0.029458 -0.018444,0.034051 v 4.729e-4 4.73e-4 4.729e-4 4.729e-4 h 4.73e-4 4.729e-4 4.73e-4 4.729e-4 c 0.00622,-0.00252 0.025664,-0.020104 0.062427,-0.054387 l 0.080399,-0.074724 -0.058644,0.1172879 c -0.031218,0.062526 -0.052529,0.1217075 -0.04824,0.134315 l 4.729e-4,4.73e-4 v 4.729e-4 c 0.0061,0.00987 -0.01015,0.026428 -0.036416,0.036416 -0.050071,0.019038 -0.06341,0.077369 -0.029795,0.13053 0.011568,0.018338 0.00901,0.036902 -0.00757,0.055806 -0.027355,0.031203 -0.050085,0.1428498 -0.048712,0.239778 5.033e-4,0.034158 -0.00664,0.075811 -0.01608,0.092695 -0.025131,0.044908 -8.16e-5,0.07862 0.1466098,0.1986326 0.1105922,0.090465 0.1280163,0.113003 0.1125585,0.1418804 -0.010095,0.018833 -0.01768,0.049472 -0.017026,0.068103 3.117e-4,0.0089 4.865e-4,0.014923 0.00142,0.017971 1.025e-4,2.451e-4 8.335e-4,0.00123 9.458e-4,0.00142 v 4.729e-4 h 4.73e-4 4.73e-4 4.729e-4 4.729e-4 l 4.729e-4,-4.729e-4 c 0.00255,-0.00311 0.00677,-0.012318 0.012296,-0.026012 0.017316,-0.042931 0.052581,-0.072279 0.068103,-0.056752 0.020116,0.020114 0.055417,0.2371278 0.042091,0.2586955 -0.008,0.012942 -0.00106,0.031796 0.015607,0.043983 0.046025,0.033653 0.016656,0.15739 -0.037835,0.1598519 -0.015675,7.083e-4 -0.024904,0.00144 -0.02743,0.00284 l -4.729e-4,4.73e-4 v 4.729e-4 4.73e-4 l 4.729e-4,4.728e-4 c 0.0029,0.00231 0.013974,0.00617 0.033105,0.012296 0.015667,0.00502 0.023981,0.00906 0.026484,0.011823 h 4.729e-4 v 4.73e-4 l 4.73e-4,4.729e-4 v 4.73e-4 4.729e-4 h -4.73e-4 v 4.729e-4 l -4.729e-4,4.729e-4 c -0.00935,0.00506 -0.06811,-1.47e-5 -0.1357323,-0.015607 -0.056128,-0.012929 -0.089073,-0.012655 -0.1054644,9.459e-4 -0.01792,0.014873 -0.026501,0.00813 -0.03547,-0.02743 -0.011879,-0.047323 -0.054589,-0.063241 -0.076142,-0.028376 -0.016858,0.027274 -0.04682,0.022729 -0.04682,-0.00709 0,-0.050136 -0.045864,-0.068699 -0.091276,-0.036889 -0.054189,0.037955 -0.072604,0.017563 -0.079926,-0.08702 -0.0082,-0.1178537 -0.052417,-0.1114595 -0.089858,0.012769 -0.015989,0.053053 -0.044718,0.1136471 -0.063846,0.1347864 -0.045849,0.050664 -0.1451953,0.067637 -0.2516014,0.043037 -0.1118652,-0.02586 -0.1344506,-0.00191 -0.061481,0.064792 0.1457588,0.1332425 0.1753622,0.1541513 0.2359944,0.1655272 0.03562,0.00668 0.074659,0.023989 0.086547,0.038308 0.011879,0.014319 0.035183,0.026011 0.052023,0.026011 0.018377,0 0.048338,0.037117 0.074724,0.092695 0.038933,0.081969 0.042635,0.1083971 0.031214,0.2303193 -0.022969,0.2451065 -0.033141,0.2688422 -0.1660001,0.3887524 -0.08351,0.075372 -0.1314552,0.1356369 -0.1537038,0.1939033 -0.03227,0.084493 -0.03225,0.084434 0.028849,0.2709916 0.059119,0.1805067 0.064484,0.1894931 0.1660001,0.2667353 0.057715,0.043914 0.151178,0.098657 0.2076184,0.1215442 l 0.1026269,0.041618 0.1239089,0.2563306 c 0.10686,0.2211537 0.1441594,0.2778449 0.2667352,0.4081428 0.154662,0.1644076 0.2425763,0.3255255 0.2984219,0.5457667 0.01684,0.06644 0.047013,0.1384088 0.067157,0.159852 0.020144,0.021443 0.036889,0.062548 0.036889,0.091276 0,0.072018 0.1660893,0.2608075 0.2804503,0.3187581 0.048612,0.024634 0.1174739,0.078829 0.1532308,0.1205984 0.062655,0.073192 0.064639,0.07915 0.04682,0.1626895 -0.01619,0.075901 -0.014451,0.089773 0.01608,0.1120856 0.019174,0.014021 0.059134,0.044032 0.088439,0.066684 0.083484,0.06453 0.6889081,0.3851643 0.7287927,0.3859148 0.019669,3.716e-4 0.1139599,0.042335 0.209983,0.093641 0.096023,0.051304 0.1919999,0.093641 0.2128207,0.093641 0.020824,0 0.1608643,0.061681 0.3116641,0.1376241 0.1507998,0.075939 0.4547339,0.2081241 0.6753509,0.2932196 0.3439807,0.1326751 0.4209035,0.1558255 0.5405644,0.1626896 0.1236183,0.00707 0.1482559,0.01478 0.2147125,0.068575 0.1477658,0.119612 0.180891,0.129097 0.4667866,0.131476 0.3865533,0.0032 0.6574163,0.04651 0.8508103,0.136205 0.356888,0.165512 0.438927,0.197259 0.504621,0.195795 0.05757,-0.0013 0.101489,0.02395 0.28849,0.164109 0.121424,0.09101 0.23478,0.165526 0.251602,0.165526 0.05236,0 0.119885,0.06778 0.180188,0.180661 0.06161,0.115328 0.146326,0.206037 0.237886,0.255385 0.03078,0.01662 0.07865,0.02604 0.10641,0.02128 0.07678,-0.01324 0.254304,-0.119663 0.267208,-0.160325 0.0063,-0.0198 0.01928,-0.03594 0.02885,-0.03594 2.73e-4,0 6.79e-4,2.4e-5 9.46e-4,0 2.61e-4,-4.8e-5 0.0012,-4.02e-4 0.0014,-4.73e-4 2.47e-4,-9.5e-5 0.0012,-3.55e-4 0.0014,-4.73e-4 0.02859,-0.01717 0.01059,-0.204092 -0.03547,-0.342404 -0.02699,-0.08104 -0.09434,-0.219176 -0.149447,-0.306935 -0.0551,-0.08776 -0.100262,-0.181105 -0.100262,-0.207618 0,-0.1139584 -0.19301,-0.3393338 -0.345242,-0.4029404 -0.03134,-0.013093 -0.05775,-0.027024 -0.06385,-0.033578 -1.66e-4,-2.146e-4 -8.35e-4,-0.00122 -9.47e-4,-0.00142 v -4.729e-4 -4.729e-4 -4.73e-4 -4.729e-4 c 0.0055,-0.00724 0.05157,-0.034173 0.106884,-0.062427 0.06528,-0.033333 0.119518,-0.076588 0.138097,-0.1101938 0.02828,-0.051168 0.02805,-0.061865 -4.73e-4,-0.1461368 C 12.048055,9.1971748 11.87588,8.9910327 11.689951,8.8458495 11.579353,8.7594828 11.530099,8.7089684 11.530099,8.6817411 c 0,-0.06339 -0.10831,-0.2138883 -0.20478,-0.2847067 -0.160649,-0.1179257 -0.34898,-0.087259 -0.382604,0.062427 -0.0061,0.02693 -0.02705,0.069736 -0.04635,0.09506 -0.02901,0.0381 -0.04834,0.045248 -0.112086,0.040672 -0.04845,-0.00351 -0.09445,0.00576 -0.123908,0.025066 -0.03035,0.019869 -0.05476,0.024481 -0.06905,0.013242 -0.01214,-0.00955 -0.09447,-0.022824 -0.183025,-0.029322 -0.13304,-0.00976 -0.165458,-0.00652 -0.185391,0.017499 -0.01942,0.023374 -0.04682,0.02673 -0.14188,0.016553 -0.06252,-0.00668 -0.105974,-0.0061 -0.1158692,0.00142 l -4.731e-4,4.729e-4 -4.732e-4,4.729e-4 -4.722e-4,4.729e-4 -4.732e-4,4.73e-4 v 4.729e-4 l -4.731e-4,4.73e-4 v 4.729e-4 4.729e-4 c 0,0.025928 -0.075337,0.055974 -0.1782964,0.071413 -0.049374,0.0074 -0.1171501,0.029762 -0.1508662,0.049658 -0.079202,0.04673 -0.1087321,0.02963 -0.071886,-0.041618 0.035857,-0.069341 0.035894,-0.1759806 0,-0.2118749 -0.015394,-0.015394 -0.027903,-0.039012 -0.027903,-0.052969 0,-0.013952 -0.051124,-0.109182 -0.1135044,-0.2114019 C 9.3579598,8.1444221 9.2704063,7.9936345 9.2254881,7.9113304 9.1399496,7.7545863 9.0680957,7.6725349 8.9975335,7.6512162 8.9121085,7.625406 8.9114857,7.5831938 8.9946959,7.3357687 9.0474665,7.1788564 9.0686707,7.0890477 9.0604339,7.0562642 9.0537666,7.0296997 9.0028455,6.9612368 8.9474025,6.9044521 8.8618136,6.8167834 8.8364209,6.8013524 8.7790377,6.8013524 c -0.06174,0 -0.070192,0.00701 -0.1012081,0.079453 -0.039215,0.091573 -0.095533,0.3055522 -0.095533,0.3636868 0,0.098877 -0.048677,0.049896 -0.1097209,-0.1106666 C 8.4604385,7.101901 8.4078981,7.0569828 8.3254932,7.0080249 8.215506,6.9426822 8.1827291,6.9318823 8.0904446,6.9318823 c -0.1238287,0 -0.1620823,-0.01603 -0.2156582,-0.091276 L 7.8360056,6.7862185 7.9362678,6.7195346 C 8.0765227,6.6264356 8.0948852,6.5656588 8.0114645,6.4665146 7.9421498,6.3841386 7.8171689,6.3168554 7.7111509,6.3042979 c -0.080626,-0.00955 -0.098126,-0.00498 -0.1518121,0.040199 -0.050221,0.042252 -0.073178,0.049626 -0.1328947,0.041618 -0.1043734,-0.013999 -0.3380653,0.040567 -0.5665758,0.1324217 -0.076824,0.030883 -0.1095449,0.01336 -0.096952,-0.052023 0.0032,-0.016626 0.011779,-0.076775 0.018917,-0.1338407 0.00713,-0.057066 0.018385,-0.1121775 0.025065,-0.1224901 0.00671,-0.010313 0.061406,-0.037262 0.1215443,-0.05959 0.073039,-0.027118 0.1568605,-0.08164 0.2520755,-0.1645808 L 7.3228714,5.8616309 7.3361136,5.7112377 C 7.3462446,5.5951122 7.3433736,5.55146 7.3228716,5.520172 7.2980696,5.482322 7.3002576,5.477329 7.3607066,5.441665 7.4144746,5.409944 7.4254986,5.392839 7.4254986,5.339984 7.4254986,5.25845 7.3993566,5.2379479 7.285037,5.2307361 7.193805,5.2249761 7.191433,5.2232961 7.1389002,5.1252716 l -0.053442,-0.099789 0.060063,-0.210929 0.060536,-0.2109288 0.095533,-0.05155 C 7.3542982,4.5238618 7.4547313,4.4676048 7.5243416,4.4267467 7.6460434,4.3553117 7.6496062,4.3509257 7.6189286,4.3170258 7.6000026,4.2960678 7.5939896,4.2755098 7.6042676,4.2664218 7.6847826,4.1952268 8.1886229,3.8531063 8.3675844,3.7480853 8.4907194,3.6758253 8.6379418,3.5887627 8.6943823,3.5546549 9.2656052,3.2094297 9.2160111,3.244297 9.8644231,2.7279649 10.108391,2.5336922 10.214225,2.4601781 10.239933,2.4669049 c 0.01969,0.00515 0.06172,-0.0043 0.09364,-0.020809 0.04709,-0.024351 0.07865,-0.02644 0.166474,-0.012296 0.179178,0.028856 0.512705,-0.017701 0.657852,-0.091749 0.07817,-0.039882 0.370162,-0.1196225 0.506985,-0.13857 0.04851,-0.00672 0.09309,-0.020624 0.09932,-0.030741 0.01759,-0.028461 -0.02644,-0.07005 -0.08182,-0.077088 -0.0051,-6.432e-4 -0.0084,-0.00137 -0.0104,-0.00236 l -4.73e-4,-4.729e-4 h -4.73e-4 l -4.73e-4,-4.73e-4 v -4.729e-4 h -4.73e-4 v -4.73e-4 -4.729e-4 -4.729e-4 l 4.73e-4,-4.73e-4 4.73e-4,-4.729e-4 c 0.0068,-0.00585 0.04049,-0.014918 0.09884,-0.026011 0.144872,-0.02754 0.184361,-0.061864 0.123436,-0.1064104 -0.01902,-0.013908 -0.06036,-0.025795 -0.09175,-0.026957 -0.01202,-4.414e-4 -0.01988,-0.00159 -0.02317,-0.00284 h -4.72e-4 l -4.74e-4,-4.728e-4 h -4.73e-4 v -4.73e-4 -4.729e-4 -4.73e-4 l 4.73e-4,-4.73e-4 v -4.728e-4 c 0.0053,-0.00364 0.02761,-0.00952 0.06763,-0.017972 0.05824,-0.0123 0.109573,-0.035188 0.121544,-0.054387 0.03768,-0.060416 -0.01774,-0.072517 -0.274775,-0.061009 l -0.238832,0.010405 0.20147,-0.1352594 c 0.111003,-0.074469 0.204797,-0.1499035 0.208092,-0.1678918 0.0056,-0.030116 -0.0074,-0.04467 -0.0402,-0.043037 z M 4.9132686,5.1597956 h 4.729e-4 4.73e-4 4.728e-4 l 4.73e-4,4.73e-4 c 0.00416,0.00349 0.010882,0.018933 0.015607,0.036889 0.0042,0.016034 0.0032,0.029746 -0.00189,0.034997 -2.167e-4,1.824e-4 -0.00119,7.919e-4 -0.00142,9.458e-4 -2.419e-4,1.249e-4 -0.00116,8.512e-4 -0.00142,9.459e-4 -5.33e-4,1.28e-4 -0.00178,0 -0.00236,0 -5.824e-4,0 -0.00132,1.28e-4 -0.00189,0 -5.589e-4,-1.896e-4 -0.00183,-6.378e-4 -0.00236,-9.459e-4 -0.00688,-0.00474 -0.012769,-0.019269 -0.012769,-0.035943 0,-0.016675 0.0023,-0.0312 0.0052,-0.035943 l 4.729e-4,-4.73e-4 v -4.729e-4 h 4.729e-4 z m 5.7116334,4.1225728 0.224171,0.011823 c 0.123135,0.00652 0.278543,0.013304 0.345243,0.015134 0.14314,0.0039 0.181416,0.021802 0.261533,0.1229629 0.05579,0.070432 0.05785,0.078241 0.02979,0.109248 -0.0166,0.018332 -0.03027,0.043317 -0.03027,0.055333 0,0.011998 -0.01035,0.021184 -0.02317,0.020336 -0.03542,-0.00232 -0.224698,-0.091452 -0.258222,-0.1215442 -0.01625,-0.014579 -0.08746,-0.042497 -0.158434,-0.061955 -0.07098,-0.019453 -0.187816,-0.061273 -0.259641,-0.093168 z m 1.02816,0.3178122 c 0.06487,0 0.06777,0.026777 0.0066,0.0629 -0.03023,0.017847 -0.05486,0.039975 -0.05486,0.049658 0,0.029204 -0.03279,0.020087 -0.0454,-0.012769 -0.01563,-0.040727 0.03989,-0.099789 0.09364,-0.099789 z M 3.9655073,11.383144 c 1.9598058,0 2.2906111,0.0025 2.3022466,0.01655 0.010769,0.01299 0.00306,0.0378 -0.038308,0.120125 -0.028684,0.05712 -0.065635,0.114018 -0.081818,0.126747 -0.01416,0.01113 -0.026096,0.0235 -0.028849,0.02885 l -4.73e-4,4.73e-4 v 4.73e-4 4.73e-4 c 0,0.0038 0.071898,0.0071 0.159852,0.0071 0.155629,0 0.1608453,-7.04e-4 0.1872822,-0.02885 l 0.026957,-0.02885 h -0.076142 -0.076615 l 0.047293,-0.101208 c 0.025161,-0.05392 0.050179,-0.100202 0.056752,-0.104992 l 4.73e-4,-4.72e-4 c 0.00552,-0.0021 0.017333,-0.01118 0.026484,-0.02034 0.0132,-0.0132 0.049638,-0.01626 0.1749858,-0.01371 l 0.1579603,0.0033 -0.1721483,0.144717 -0.1716754,0.144719 0.072832,0.0033 0.073305,0.0033 0.097898,-0.08891 c 0.053806,-0.04884 0.099605,-0.0866 0.1016809,-0.08418 0.00727,0.0084 0.029795,0.05501 0.029795,0.06148 v 4.73e-4 4.73e-4 h -4.729e-4 l -4.73e-4,4.73e-4 h -4.729e-4 l -4.729e-4,4.73e-4 c -0.00643,0.0027 -0.026083,0.0047 -0.048712,0.0047 -0.030903,0 -0.056008,0.0064 -0.064792,0.01703 -0.00274,0.0033 -0.0047,0.0068 -0.0052,0.009 v 4.72e-4 4.73e-4 4.73e-4 4.74e-4 l 4.73e-4,4.72e-4 v 4.73e-4 h 4.729e-4 v 4.73e-4 l 4.73e-4,4.73e-4 h 4.728e-4 c 0.0054,0.0038 0.022551,0.0047 0.058644,0.0047 0.075314,0 0.093464,0.01412 0.0629,0.04919 -0.00364,0.0042 -0.00671,0.0082 -0.00757,0.01088 v 4.73e-4 4.73e-4 4.73e-4 4.73e-4 4.73e-4 l 4.729e-4,4.73e-4 v 4.72e-4 l 4.729e-4,4.74e-4 h 4.73e-4 l 4.729e-4,4.73e-4 4.73e-4,4.73e-4 c 0.00726,0.0043 0.032188,0.0047 0.088912,0.0047 0.061917,0 0.089608,-0.0027 0.095533,-0.0095 v -4.73e-4 l 4.729e-4,-4.72e-4 v -4.73e-4 -4.74e-4 l 4.73e-4,-4.73e-4 v -4.72e-4 -4.73e-4 -4.73e-4 l -4.73e-4,-4.73e-4 c -7e-5,-3.26e-4 1.252e-4,-6.06e-4 0,-9.46e-4 -0.0029,-0.008 -0.022371,-0.06529 -0.043037,-0.127693 -0.036015,-0.108728 -0.0365,-0.114683 -0.017026,-0.136205 0.010817,-0.01195 0.032102,-0.01924 0.05486,-0.02223 z m 3.0911018,0 c 0.019542,0.0028 0.034763,0.0097 0.038308,0.02081 0.00368,0.01152 -0.00881,0.07297 -0.027903,0.136205 -0.019058,0.06323 -0.034919,0.121158 -0.034997,0.129111 -1.12e-5,0.0013 0.0012,0.0032 0.00189,0.0043 0.0059,0.007 0.028027,0.0104 0.070467,0.0104 h 0.072359 l 0.031214,-0.112086 c 0.022922,-0.08229 0.028108,-0.116138 0.018917,-0.127219 -0.00158,-0.0019 -0.00253,-0.0042 -0.00284,-0.0057 v -4.72e-4 -4.73e-4 -4.73e-4 -4.74e-4 l 4.73e-4,-4.72e-4 v -4.73e-4 H 7.22497 l 4.729e-4,-4.73e-4 4.73e-4,-4.73e-4 c 0.00643,-0.0043 0.027593,-0.0057 0.071886,-0.0057 0.051389,0 0.072025,0.0019 0.077088,0.0085 l 4.73e-4,4.73e-4 v 4.72e-4 l 4.729e-4,4.73e-4 c 7.773e-4,0.0023 -1.053e-4,0.0051 -0.00142,0.0085 -0.00387,0.01006 -0.00662,0.02537 -0.00662,0.03405 0,0.01074 -0.018537,0.01654 -0.057225,0.01892 l -0.056752,0.0038 0.053914,0.08939 0.053915,0.08986 h 0.1291113 0.1291112 l 0.08702,-0.104046 0.086547,-0.104046 0.02412,0.03784 0.023647,0.03736 -0.044929,0.0033 c -0.025983,0.002 -0.052928,0.0129 -0.064792,0.02601 -0.00563,0.0062 -0.00975,0.0114 -0.010878,0.01466 v 4.73e-4 4.73e-4 4.73e-4 4.73e-4 4.73e-4 4.73e-4 h 4.729e-4 v 4.73e-4 l 4.729e-4,4.72e-4 4.73e-4,4.73e-4 h 4.729e-4 c 0.00599,0.0034 0.025096,0.0038 0.064792,0.0038 0.063045,0 0.076593,0.0031 0.080399,0.01986 0.00252,0.01114 -0.00288,0.02954 -0.012296,0.04067 -0.00352,0.0042 -0.00598,0.0082 -0.00662,0.01088 v 4.73e-4 4.73e-4 4.73e-4 4.73e-4 l 4.729e-4,4.73e-4 v 4.73e-4 l 4.73e-4,4.72e-4 4.729e-4,4.74e-4 h 4.729e-4 c 0.00693,0.005 0.033585,0.0057 0.099316,0.0057 0.057587,0 0.105394,-0.0028 0.1111396,-0.0061 h 4.729e-4 v -4.72e-4 c 0,-0.0037 -0.036334,-0.06895 -0.080872,-0.145191 -0.044537,-0.07625 -0.080872,-0.140985 -0.080872,-0.143772 0,-0.0028 0.1002776,-0.0052 0.2232253,-0.0052 H 7.6113616 c 0.041846,0.0015 0.082829,0.0067 0.089385,0.01466 v 4.74e-4 l 4.73e-4,4.72e-4 4.728e-4,4.73e-4 v 4.73e-4 c 6.95e-5,2.13e-4 4.207e-4,0.0012 4.73e-4,0.0014 0.00204,0.01382 -0.02525,0.04883 -0.096479,0.125328 l -0.1064103,0.114401 -0.036889,-0.04493 c -0.024488,-0.02971 -0.03602,-0.04648 -0.03547,-0.05344 l 4.729e-4,-4.73e-4 v -4.74e-4 -4.73e-4 l 4.729e-4,-4.72e-4 h 4.729e-4 l 4.73e-4,-4.73e-4 v -4.73e-4 c 1.531e-4,-8.5e-5 0.00125,7.1e-5 0.00142,0 l 4.729e-4,-4.74e-4 c 0.00327,-7.57e-4 0.00856,-7.5e-5 0.01608,0.0019 0.011776,0.0031 0.02954,-0.002 0.039254,-0.01182 0.019126,-0.01913 0.0377,-0.115399 0.026011,-0.134315 v -4.72e-4 -4.73e-4 l -4.729e-4,-4.73e-4 v -4.73e-4 l 4.729e-4,-4.73e-4 v -4.73e-4 -4.73e-4 h 4.73e-4 v -4.73e-4 l 4.729e-4,-4.72e-4 c 0.00525,-0.0042 0.024577,-0.0066 0.048712,-0.0076 z m 1.066468,0 c 0.2187108,0 0.2241562,7.67e-4 0.2487637,0.02696 0.021683,0.02309 0.025066,0.03994 0.025066,0.123436 0,0.08349 -0.00341,0.100351 -0.025066,0.123436 l -0.025066,0.02696 h 0.2369403 c 0.16614,0 0.2389976,-0.0041 0.2506554,-0.01371 0.00765,-0.0077 0.013715,-0.03897 0.013715,-0.06952 v -0.05581 h -0.086547 -0.08702 v 0.035 0.03452 h -0.069521 -0.069049 v -0.07425 c 0,-0.04083 -0.00331,-0.08216 -0.00709,-0.09222 -0.0015,-0.0039 -0.00162,-0.0075 -4.729e-4,-0.0099 v -4.73e-4 c 0.0045,-0.0066 0.023312,-0.008 0.069994,-0.008 0.074172,0 0.076142,7.4e-4 0.076142,0.02932 0,0.02898 0.00122,0.02937 0.078034,0.02601 l 0.078034,-0.0033 -0.00378,-0.03452 c -0.00203,-0.01901 -0.00893,-0.04117 -0.015607,-0.04918 -0.0031,-0.0037 -0.0049,-0.0073 -0.0052,-0.0095 v -4.73e-4 -4.74e-4 -4.72e-4 h 4.729e-4 v -4.73e-4 l 4.729e-4,-4.73e-4 4.729e-4,-4.73e-4 h 4.73e-4 l 4.73e-4,-4.72e-4 c 0.00232,-0.0012 0.00623,-0.0015 0.012296,-0.0014 0.011911,2e-4 0.032213,0.01439 0.044929,0.03169 0.019582,0.02662 0.023174,0.04959 0.023174,0.14992 v 0.118707 h 0.1125584 c 0.056212,1.3e-5 0.1037761,-0.0038 0.1120856,-0.0085 l 4.729e-4,-4.73e-4 v -4.73e-4 h 4.73e-4 v -4.73e-4 -4.72e-4 -4.73e-4 c -0.00115,-0.006 -0.010761,-0.01848 -0.022228,-0.02885 -0.016289,-0.01473 -0.02437,-0.04299 -0.030268,-0.105938 -0.00571,-0.06104 -0.013564,-0.08912 -0.026957,-0.09695 -0.00165,-9.72e-4 -0.00315,-0.0025 -0.00378,-0.0033 l -4.73e-4,-4.73e-4 v -4.74e-4 -4.72e-4 l 4.73e-4,-4.73e-4 4.728e-4,-4.73e-4 v -4.73e-4 h 4.73e-4 c 0.00519,-0.0035 0.026375,-0.005 0.066211,-0.0052 0.075933,-3.23e-4 0.083437,0.0016 0.089858,0.02554 0.011495,0.0429 0.00907,0.04506 -0.042091,0.04304 -0.027038,-0.0011 -0.054319,-0.0015 -0.060536,-9.46e-4 v 4.73e-4 h -4.729e-4 v 4.73e-4 4.72e-4 4.73e-4 4.73e-4 c 0.00349,0.0092 0.03707,0.04674 0.081345,0.09128 l 0.091749,0.0927 h 0.084182 c 0.041933,0 0.076892,-0.0034 0.082764,-0.0076 l 4.729e-4,-4.73e-4 h 4.73e-4 v -4.73e-4 -4.73e-4 l -4.73e-4,-4.73e-4 v -4.73e-4 c -0.00429,-0.0076 -0.037622,-0.03814 -0.077088,-0.07094 -0.043658,-0.03629 -0.062359,-0.0526 -0.063846,-0.06006 v -4.72e-4 l 4.729e-4,-4.73e-4 v -4.74e-4 -4.73e-4 l 4.729e-4,-4.72e-4 4.729e-4,-4.73e-4 v -4.73e-4 c 0.00285,-0.0023 0.00996,-0.0031 0.019863,-0.0043 0.018593,-0.0021 0.037241,-0.0099 0.041618,-0.01703 0.010594,-0.01715 -6.481e-4,-0.07687 -0.020809,-0.109248 -0.00593,-0.0095 -0.00968,-0.01603 -0.00946,-0.01986 v -4.72e-4 l 4.729e-4,-4.73e-4 v -5.16e-4 l 4.729e-4,-4.74e-4 4.73e-4,-4.72e-4 v -4.73e-4 h 4.729e-4 l 4.73e-4,-4.73e-4 c 0.00457,-0.0028 0.016058,-0.0028 0.037362,-0.0028 z m 1.2338869,0 c 0.020734,0 0.032624,9.77e-4 0.037362,0.0038 2.456e-4,1.93e-4 7.497e-4,7.33e-4 9.46e-4,9.46e-4 l 4.728e-4,4.73e-4 v 4.73e-4 l 4.73e-4,4.72e-4 v 4.73e-4 4.74e-4 4.73e-4 c 1.305e-4,0.003 -0.00173,0.0071 -0.0052,0.01277 -0.015756,0.02552 0.026897,0.230213 0.053442,0.256803 0.014255,0.01429 0.057024,0.01834 0.2213335,0.02128 0.2415755,0.0044 0.2582222,0.002 0.2582222,-0.04115 0,-0.05785 -0.057856,-0.209308 -0.089384,-0.234103 -0.011381,-0.009 -0.018768,-0.01505 -0.021282,-0.01844 -1.428e-4,-2.37e-4 -3.806e-4,-7.33e-4 -4.729e-4,-9.46e-4 v -4.73e-4 -4.73e-4 -4.73e-4 l 4.729e-4,-4.72e-4 4.729e-4,-4.74e-4 h 4.729e-4 l 4.73e-4,-4.73e-4 c 0.00253,-8.37e-4 0.00742,-9.46e-4 0.014661,-9.46e-4 z m 0.4724619,0 c 0.013435,0 0.041082,0.01029 0.061482,0.0227 0.030293,0.01842 0.043875,0.0413 0.07425,0.125328 0.024326,0.06729 0.033657,0.108597 0.026957,0.11918 -0.00558,0.0089 -0.010304,0.0203 -0.010405,0.02507 h 4.732e-4 v 4.73e-4 h 4.731e-4 v 4.73e-4 h 4.732e-4 c 0.00865,0.0041 0.058186,0.0073 0.1172876,0.0071 l 0.118233,-4.73e-4 -0.02932,-0.02601 c -0.01626,-0.01433 -0.03845,-0.0479 -0.04918,-0.07472 l -0.01939,-0.04871 h 0.07614 c 0.06609,0 0.07525,-0.0027 0.07189,-0.02033 -0.0032,-0.01667 -0.01855,-0.02085 -0.08749,-0.02365 -0.04893,-0.002 -0.07337,-0.006 -0.08134,-0.01324 -0.0016,-0.0018 -0.0024,-0.0039 -0.0024,-0.0061 0,-0.0089 -0.0092,-0.0219 -0.02034,-0.02838 -0.0019,-0.0011 -0.0034,-0.0024 -0.0043,-0.0033 l -4.73e-4,-4.73e-4 -4.73e-4,-4.73e-4 v -4.74e-4 -4.72e-4 -4.73e-4 h 4.73e-4 v -4.73e-4 l 4.73e-4,-4.73e-4 h 4.74e-4 l 4.72e-4,-4.72e-4 c 0.0059,-0.0034 0.02806,-0.0046 0.07094,-0.0047 0.07953,-3.19e-4 0.0889,-0.003 0.100262,-0.02648 l 0.0099,-0.02034 z m 0.4284791,0 4.72e-4,0.02034 c 7.18e-4,0.02377 0.0067,0.02601 0.06527,0.02601 h 0.06385 l 0.04635,0.100735 c 0.03027,0.06584 0.04406,0.109974 0.03973,0.12722 -0.0017,0.0069 -0.0027,0.01278 -0.0014,0.01655 l 4.73e-4,4.73e-4 c 1.11e-4,2.03e-4 8.17e-4,0.0012 9.47e-4,0.0014 l 4.72e-4,4.73e-4 4.73e-4,4.73e-4 4.73e-4,4.73e-4 c 0.0085,0.0064 0.03508,0.0067 0.104991,0.0066 l 0.113032,-4.73e-4 -0.03736,-0.02932 c -0.02282,-0.01798 -0.05341,-0.06323 -0.07709,-0.11445 -0.02148,-0.04649 -0.04866,-0.09005 -0.06053,-0.09695 -0.0038,-0.0022 -0.0062,-0.0046 -0.0071,-0.0061 l -4.73e-4,-4.73e-4 v -4.73e-4 l 4.73e-4,-4.73e-4 v -4.72e-4 h 4.73e-4 v -4.74e-4 h 4.73e-4 l 4.73e-4,-4.73e-4 c 0.0052,-0.0029 0.02289,-0.0036 0.0577,-0.0038 0.06786,-3.25e-4 0.0732,-0.0023 0.06763,-0.02365 -0.006,-0.02308 -1.44e-4,-0.02317 2.306503,-0.02317 z m -0.5438753,0.03453 0.033578,0.107356 c 0.017909,0.05701 0.030826,0.107949 0.029322,0.115396 h -4.729e-4 v 4.73e-4 l -4.73e-4,4.73e-4 h -4.729e-4 l -4.729e-4,4.73e-4 c -0.00937,0.0041 -0.051827,0.0076 -0.1002621,0.0076 h -0.096952 l -0.011823,-0.04351 C 9.5266841,11.462094 9.5175247,11.435858 9.5045197,11.4276 l -4.73e-4,-4.72e-4 v -4.74e-4 h -4.729e-4 v -4.73e-4 -4.73e-4 h 4.729e-4 v -4.72e-4 h 4.73e-4 c 0.00627,-0.004 0.045466,-0.007 0.097425,-0.0071 z m -2.0724002,0.32963 c -0.5282547,0 -0.5270818,-5.6e-5 -0.5798181,0.09128 -0.043889,0.07601 -0.1962963,0.565187 -0.1872822,0.601099 0.017868,0.07121 0.054314,0.07547 0.6431914,0.07331 0.4708158,-0.0017 0.5062656,-0.0033 0.5481313,-0.02412 0.08464,-0.04201 0.087882,-0.05447 0.1153961,-0.423276 0.01748,-0.234359 0.014999,-0.251069 -0.042564,-0.293694 -0.031842,-0.02358 -0.043782,-0.02459 -0.4970545,-0.02459 z m -1.0518071,0.0061 c -0.4990917,0 -0.5171772,6.28e-4 -0.5287411,0.02223 -0.024036,0.04491 -0.017169,0.04682 0.1555956,0.04682 0.092252,0 0.1678918,0.0031 0.1678918,0.0066 0,0.0035 -0.063567,0.139069 -0.1409345,0.301259 -0.1189762,0.249423 -0.1473564,0.30036 -0.1849176,0.330108 -0.021371,0.01693 -0.039815,0.03435 -0.043983,0.04115 l -4.729e-4,4.73e-4 c -7.65e-5,1.9e-4 3.89e-5,7.85e-4 0,9.46e-4 -5.8e-6,0.0043 0.1064806,0.0066 0.2369404,0.0047 l 0.2374132,-0.0033 -0.017499,-0.03358 c -0.00959,-0.01851 -0.017499,-0.04134 -0.017499,-0.0506 0,-0.0093 0.046932,-0.12971 0.1040456,-0.26768 0.099999,-0.241574 0.1030054,-0.252413 0.086547,-0.284235 -0.00881,-0.01704 -0.016145,-0.03388 -0.017026,-0.03878 v -4.72e-4 c 0,-0.0035 0.089837,-0.0063 0.1995785,-0.0066 l 0.1995785,-4.73e-4 0.040199,-0.03453 0.039727,-0.03405 z m 1.6287875,0 0.047766,0.04919 0.048239,0.04919 -0.010405,0.282342 -0.010878,0.282342 -0.034997,0.03642 c -0.018058,0.01863 -0.033195,0.03757 -0.034997,0.04351 v 4.73e-4 c 0,0.0045 0.1130558,0.008 0.2511283,0.008 h 0.2511299 l -0.042564,-0.04304 -0.042091,-0.04351 -0.012296,-0.183971 c -0.00678,-0.101042 -0.011007,-0.185277 -0.00899,-0.187282 0.00203,-0.002 0.095832,0.08223 0.2085643,0.187282 0.20319,0.189326 0.2057121,0.191276 0.253493,0.187755 0.047743,-0.0035 0.04979,-0.0058 0.1995785,-0.202416 0.083187,-0.109132 0.1525589,-0.196387 0.1546497,-0.194376 0.00213,0.002 0.023788,0.08855 0.047766,0.192485 0.043482,0.188482 0.043145,0.188968 0.022701,0.236939 -0.010216,0.02398 -0.015431,0.04763 -0.013242,0.05486 v 4.73e-4 h 4.765e-4 v 4.73e-4 c 0.00881,0.0088 0.464751,0.0037 0.4648947,-0.0052 v -4.74e-4 l -4.723e-4,-4.72e-4 c -0.00288,-0.0056 -0.026936,-0.03039 -0.056279,-0.05723 l -0.057225,-0.05202 -0.079926,-0.28045 -0.079926,-0.28045 0.02743,-0.04067 0.02743,-0.0402 H 9.5782975 9.4165538 L 9.2396761,11.944045 C 9.124498,12.068366 9.0565369,12.133148 9.0396247,12.135111 9.0260377,12.135092 8.9213003,12.054401 8.7918069,11.944045 L 8.5681087,11.753452 H 8.3935958 Z m 1.5431863,0.0024 v 4.73e-4 c 4.03e-5,1.71e-4 3.932e-4,0.0012 4.729e-4,0.0014 l 4.729e-4,4.73e-4 c 0.00435,0.0067 0.023067,0.02211 0.045402,0.03689 0.046291,0.03064 0.047042,0.03138 0.1447178,0.331055 l 0.097425,0.300313 -0.0298,0.03925 -0.029794,0.03925 h 0.5944782 c 0.447173,0 0.59823,-0.0033 0.608667,-0.01371 0.0077,-0.0077 0.01419,-0.02087 0.01419,-0.02932 0,-0.02683 -0.131955,-0.248199 -0.158434,-0.26579 -0.01398,-0.0093 -0.07869,-0.03077 -0.143772,-0.04777 -0.06101,-0.01592 -0.113713,-0.03465 -0.122017,-0.04304 l -4.72e-4,-4.73e-4 v -4.73e-4 h -4.74e-4 v -4.73e-4 -4.73e-4 -4.73e-4 -4.72e-4 -4.74e-4 -4.73e-4 l 4.74e-4,-4.73e-4 c 0.0045,-0.0078 0.03306,-0.01658 0.08276,-0.02459 0.04524,-0.0073 0.08595,-0.01777 0.09364,-0.02365 l 4.73e-4,-4.73e-4 v -4.34e-4 h 4.72e-4 v -4.73e-4 -4.73e-4 -4.72e-4 c 0.0012,-0.02253 -0.094,-0.201102 -0.127218,-0.237414 -0.01363,-0.01489 -0.03504,-0.03331 -0.04777,-0.04067 -0.02617,-0.01516 -1.0239166,-0.03128 -1.0239038,-0.01655 z m 0.7765588,0.04398 0.03878,0.08371 c 0.02135,0.04621 0.04048,0.09094 0.04256,0.09932 0.0022,0.0089 -0.01784,0.02431 -0.04824,0.03689 -0.04058,0.01679 -0.08275,0.02172 -0.192011,0.02223 l -0.13999,4.74e-4 -0.03642,-0.09601 c -0.03327,-0.08815 -0.04049,-0.09794 -0.0856,-0.120599 l -0.04919,-0.02459 0.235049,-9.46e-4 z m -2.9459108,0.02034 c 0.1837576,-0.0021 0.2842416,9.85e-4 0.2842339,0.0085 -1.75e-5,0.01464 -0.066866,0.507566 -0.07567,0.558063 l -0.00662,0.03736 H 7.507316 7.2207175 l 0.068103,-0.266261 0.068103,-0.266263 -0.02412,-0.03405 -0.02412,-0.03405 z m 2.6848508,0.282815 c 3.18e-4,-2.4e-5 5.8e-4,-1.1e-5 9.46e-4,0 0.0066,1.98e-4 0.02163,0.0056 0.03736,0.01372 0.02503,0.01295 0.06789,0.01844 0.148974,0.01844 0.08539,0 0.132277,0.0059 0.186336,0.02412 l 0.07236,0.02459 0.0629,0.125801 0.06337,0.126273 h -0.226059 c -0.204798,0 -0.226623,-0.002 -0.233157,-0.02034 -0.0039,-0.01114 -0.03275,-0.08491 -0.06385,-0.163635 -0.0311,-0.07873 -0.05441,-0.145166 -0.05155,-0.148029 h 4.73e-4 v -4.73e-4 h 4.72e-4 4.73e-4 c 2.64e-4,-6e-5 6.28e-4,-4.48e-4 9.46e-4,-4.73e-4 z m -3.9466408,0.504148 -0.3220686,0.0033 -0.7339949,0.571777 c -0.4036616,0.314372 -0.7357397,0.56956 -0.7377782,0.567522 -0.0031,-0.0031 -0.072832,-0.392951 -0.072832,-0.407197 0,-0.0026 0.095432,-0.0047 0.2118748,-0.0047 0.2043695,0 0.2136877,-9.66e-4 0.2714646,-0.0298 0.032916,-0.0164 0.074923,-0.04853 0.093168,-0.07189 0.045022,-0.05764 0.2910767,-0.525439 0.2908549,-0.552861 -2.295e-4,-0.02845 -0.010956,-0.04414 -0.042091,-0.06054 -0.030873,-0.01625 -1.6873659,-0.01946 -1.6973628,-0.0033 l -4.73e-4,4.73e-4 c -0.00288,0.0069 0.00177,0.03623 0.010877,0.06621 0.00939,0.03096 0.017431,0.06193 0.017499,0.06905 6.89e-5,0.007 -0.1575244,0.147591 -0.3499718,0.312137 -0.1924475,0.164551 -0.6204842,0.530704 -0.9510718,0.813921 -0.3305876,0.283217 -0.6100711,0.521846 -0.6214364,0.53016 -0.019814,0.0145 -0.020809,-0.04727 -0.020809,-1.506298 v 2.532093 l 0.00284,-0.476718 0.00284,-0.517863 0.1272195,-0.04209 c 0.069977,-0.02326 0.2755406,-0.09026 0.4568551,-0.148501 0.5866793,-0.188454 0.5202154,-0.160213 0.6299491,-0.262479 0.05335,-0.04971 0.3392463,-0.31679 0.6356243,-0.593533 l 0.5386728,-0.503203 4.729e-4,-0.07803 v -0.07803 h 0.3296356 0.3296355 l -0.1286383,0.210928 c -0.070646,0.116106 -0.1335864,0.217638 -0.1399886,0.225591 l -4.73e-4,4.73e-4 -4.73e-4,4.72e-4 c -0.01249,0.01009 -0.088889,0.01324 -0.2984218,0.01324 -0.2006018,0 -0.2728771,0.0031 -0.2861256,0.01182 l -4.729e-4,4.73e-4 -4.729e-4,4.73e-4 -4.729e-4,4.73e-4 v 4.72e-4 l -4.73e-4,4.73e-4 v 4.74e-4 4.73e-4 c 0,0.01735 0.040162,0.510781 0.057225,0.702308 0.00649,0.07316 0.012239,0.139602 0.012296,0.147555 7.84e-5,0.0113 0.093801,0.01419 0.4294247,0.01419 h 0.4289519 l 0.076615,-0.06054 c 0.04203,-0.03341 0.3280788,-0.275541 0.6360973,-0.5382 0.3080175,-0.262658 0.5625521,-0.47554 0.5651572,-0.472935 0.00474,0.0048 0.072832,0.504726 0.072832,0.53489 0,2.11e-4 2.41e-5,0.0012 0,0.0014 v 4.74e-4 l -4.73e-4,4.72e-4 c -1.026e-4,1.91e-4 -3.419e-4,0.0012 -4.729e-4,0.0014 -1.605e-4,1.81e-4 -0.00123,7.7e-4 -0.00142,9.46e-4 -0.012468,0.0096 -0.075496,0.01182 -0.2842338,0.01182 H 5.5796337 l -0.079926,0.06621 -0.080399,0.06668 0.3868607,0.0057 0.3868607,0.0057 0.021755,0.112558 c 0.012086,0.0618 0.019268,0.120036 0.015607,0.129585 -0.00368,0.0095 -0.040775,0.03988 -0.082291,0.06716 -0.037615,0.02472 -0.069519,0.04895 -0.075197,0.05675 l -4.729e-4,4.72e-4 v 4.73e-4 4.74e-4 c -1.327e-4,0.0048 0.1966593,0.0085 0.4374647,0.0085 H 6.9478341 L 6.7411616,13.421967 C 6.6276193,13.06729 6.5302431,12.763519 6.5245575,12.747088 c -0.00959,-0.02769 -0.00479,-0.03368 0.063373,-0.07993 0.035404,-0.02401 0.06412,-0.047 0.069049,-0.05486 v -4.73e-4 -4.73e-4 -4.73e-4 -4.72e-4 c -0.00243,-0.0038 -0.149169,-0.0052 -0.326325,-0.0033 z m 1.2452373,0.0024 c -0.2035813,0 -0.370308,0.0023 -0.370308,0.0052 0,0.003 0.016119,0.02862 0.035943,0.05675 l 0.035943,0.05108 -0.082764,0.402941 c -0.045768,0.22176 -0.1062497,0.515397 -0.1343135,0.652177 -0.028065,0.136782 -0.053865,0.260461 -0.057225,0.274775 l -0.00615,0.02601 h 0.347607 c 0.2507721,0 0.3385276,-0.0037 0.3518635,-0.01324 l 4.729e-4,-4.72e-4 4.73e-4,-4.73e-4 v -4.73e-4 c 0.003,-0.008 0.039442,-0.316292 0.080872,-0.685283 l 0.075197,-0.671094 0.046348,-0.03831 c 0.024599,-0.02054 0.044633,-0.04209 0.045875,-0.04871 v -4.72e-4 c 0,-0.0062 -0.1530969,-0.01041 -0.3698351,-0.01041 z m 3.0461725,0 c -0.465591,0 -0.7098748,0.0037 -0.7098748,0.01135 0,0.0032 0.00174,0.0068 0.00331,0.009 4.283e-4,4.96e-4 0.0014,0.0015 0.00189,0.0019 0.00104,6.44e-4 0.00257,0.0014 0.00378,0.0014 h 4.732e-4 4.722e-4 c 0.00687,0.0025 0.031467,0.02129 0.056753,0.04351 l 0.048712,0.04304 0.156069,0.6011 0.156069,0.601574 -0.04209,0.06905 c -0.02305,0.03817 -0.04378,0.07327 -0.04635,0.07803 -0.0027,0.0048 0.622975,0.009 1.390428,0.009 1.140835,0 1.394906,-0.0028 1.391847,-0.01513 -0.002,-0.0083 -0.175432,-0.293573 -0.384969,-0.634206 l -0.380712,-0.619544 -0.09364,-0.04777 -0.09317,-0.04777 0.383078,-4.73e-4 h 0.383549 l 0.173568,0.234102 0.173567,0.234104 -0.307881,0.0061 -0.308354,0.0057 0.219915,0.151812 c 0.696286,0.480822 1.054233,0.725198 1.074981,0.733996 0.01291,0.0055 0.208308,0.05751 0.434155,0.115396 0.225849,0.0579 0.530396,0.135918 0.676296,0.173567 0.1459,0.03765 0.266612,0.06857 0.268627,0.06857 0.002,0 0.0038,0.22997 0.0038,0.512662 v -2.029836 c -4.5e-5,0.830118 -0.0038,1.504841 -0.0085,1.502041 -0.0048,-0.0028 -0.380798,-0.231191 -0.835676,-0.507459 -0.454876,-0.276269 -0.866107,-0.525555 -0.91371,-0.553807 l -0.08655,-0.05155 0.188228,-0.0057 c 0.197163,-0.006 0.209544,-0.0095 0.209983,-0.06101 3.12e-4,-0.03681 -0.03466,-0.09168 -0.169784,-0.262951 -0.163709,-0.207503 -0.219428,-0.265223 -0.290854,-0.304098 -0.118889,-0.06471 -0.130019,-0.06555 -1.045659,-0.06574 -0.462829,-9.4e-5 -0.841121,0.0038 -0.840879,0.0085 v 4.73e-4 4.73e-4 l 4.73e-4,4.73e-4 c 0.0051,0.0074 0.0456,0.03561 0.09411,0.06574 l 0.09364,0.05864 0.195323,0.375037 c 0.107386,0.206425 0.230833,0.444389 0.274302,0.528741 l 0.07898,0.153231 -0.602519,-0.0028 -0.602992,-0.0033 -0.08371,-0.231265 c -0.04592,-0.127238 -0.08342,-0.237582 -0.08371,-0.245453 v -4.73e-4 -4.73e-4 -4.74e-4 h 4.73e-4 v -4.72e-4 h 4.73e-4 l 4.73e-4,-4.73e-4 c 0.01362,-0.0092 0.114284,-0.01297 0.401522,-0.01513 l 0.403413,-0.0028 -0.035,-0.07803 -0.035,-0.07803 h -0.401995 -0.401995 l -0.06905,-0.199579 -0.06952,-0.199578 0.38024,-0.0033 c 0.209198,-0.0016 0.38024,-0.0055 0.38024,-0.009 0,-0.0035 -0.01061,-0.03244 -0.02412,-0.06385 l -0.02459,-0.05675 z m -1.8983597,0.0028 c -0.4141835,-0.0027 -0.7316301,-5.41e-4 -0.7316301,0.0052 0,1.74e-4 4.437e-4,0.0012 4.728e-4,0.0014 0.00173,0.0074 0.015793,0.03084 0.033106,0.05439 l 0.033578,0.04587 -0.047766,0.592588 -0.048239,0.592587 -0.072359,0.07803 c -0.039734,0.04295 -0.072359,0.07965 -0.072359,0.08135 0,0.0096 1.6543907,0.0011 1.7314143,-0.009 0.3555967,-0.04623 0.5590087,-0.159689 0.5590087,-0.312137 0,-0.04996 -0.1813153,-0.851822 -0.2047802,-0.90567 C 9.8673138,12.752355 9.7448446,12.682268 9.5622186,12.6411 9.4615952,12.61842 9.4131533,12.61672 8.7237052,12.61225 Z m -0.1707295,0.09884 0.2837609,0.0052 c 0.3306641,0.0065 0.377526,0.01623 0.4436129,0.08938 0.022816,0.02525 0.043779,0.05741 0.04682,0.07189 0.003,0.01448 0.027273,0.194561 0.053915,0.400103 0.040625,0.31344 0.04654,0.381146 0.03547,0.418073 -0.017625,0.05882 -0.049769,0.09717 -0.1026269,0.123436 -0.039066,0.01941 -0.081653,0.02226 -0.4048322,0.02743 -0.1988166,0.0032 -0.3618018,0.0035 -0.3617951,0 v -4.73e-4 l 4.729e-4,-4.73e-4 c 0.00298,-0.006 0.02741,-0.03306 0.057225,-0.06243 l 0.058171,-0.05723 v -0.279032 c 0,-0.153499 -0.0034,-0.365195 -0.00757,-0.470571 l -0.00757,-0.191538 -0.047293,-0.03689 z m -0.2194417,1.713934 c -4.7536751,0 -5.3616619,0.0022 -5.3616619,0.0175 0,0.0153 0.2459694,0.0177 2.1140185,0.02081 1.1626405,0.0019 2.8038469,0.0021 3.6468004,4.74e-4 0.8429543,-0.0017 2.3040169,-0.0031 3.2471709,-0.0033 1.516392,-3.58e-4 1.714861,-0.0027 1.714861,-0.01797 0,-0.0154 -0.603247,-0.01703 -5.3611889,-0.01703 z m 3.0456999,0.381659 -4.73e-4,4.73e-4 h -4.73e-4 c -1.9e-4,6.9e-5 -0.0012,3.82e-4 -0.0014,4.72e-4 l -4.73e-4,4.73e-4 c -3.56e-4,2.53e-4 -6.02e-4,6.25e-4 -9.45e-4,9.46e-4 -0.0036,0.0036 -0.05026,0.12541 -0.104046,0.270992 -0.121515,0.328897 -0.128553,0.342505 -0.176404,0.356592 -0.01773,0.0052 -0.0291,0.01042 -0.03311,0.01419 l -4.73e-4,4.73e-4 v 4.72e-4 l -4.73e-4,4.73e-4 v 4.73e-4 4.74e-4 4.72e-4 4.73e-4 4.73e-4 l 4.73e-4,4.73e-4 v 4.72e-4 l 4.73e-4,4.74e-4 4.73e-4,4.73e-4 c 0.0063,0.0047 0.02965,0.0073 0.06857,0.0085 0.0062,2.15e-4 0.05249,2.56e-4 0.05959,4.72e-4 0.05219,-7.65e-4 0.09072,-0.0042 0.09742,-0.0095 h 4.74e-4 v -4.74e-4 l 4.73e-4,-4.72e-4 v -4.73e-4 -4.73e-4 l -4.73e-4,-4.73e-4 c -4.1e-5,-1.94e-4 5.9e-5,-0.0012 0,-0.0014 l -4.74e-4,-4.73e-4 v -4.72e-4 c -0.003,-0.0047 -0.01219,-0.008 -0.0227,-0.008 -0.03696,0 -0.03937,-0.03034 -0.0099,-0.116815 l 0.02696,-0.07993 h 0.09884 l 0.09837,4.73e-4 0.03831,0.08702 c 0.02338,0.05308 0.03564,0.09531 0.03121,0.109248 -0.0015,0.0047 -0.0025,0.0093 -0.0019,0.01229 l 4.73e-4,4.74e-4 c 7.9e-5,1.97e-4 3.76e-4,0.0012 4.73e-4,0.0014 l 4.73e-4,4.72e-4 4.73e-4,4.74e-4 4.72e-4,4.73e-4 4.74e-4,4.73e-4 c 0.0082,0.0065 0.03568,0.0071 0.108302,0.0071 0.06325,0 0.104155,-0.0048 0.114923,-0.01088 2.53e-4,-1.72e-4 0.0012,-7.7e-4 0.0014,-9.45e-4 v -4.73e-4 h 4.74e-4 v -4.73e-4 -4.72e-4 h 4.73e-4 v -4.74e-4 -4.73e-4 l -4.73e-4,-4.73e-4 v -4.72e-4 c -2.46e-4,-3.86e-4 -0.0015,-0.0015 -0.0019,-0.0019 -0.0043,-0.0032 -0.01473,-0.0064 -0.03216,-0.0099 -0.04979,-0.01 -0.0773,-0.05494 -0.209037,-0.343351 -0.0982,-0.21498 -0.133528,-0.283503 -0.150393,-0.288962 -5.34e-4,-1.13e-4 -0.0014,-4.92e-4 -0.0019,-4.73e-4 z m -0.188701,0.658797 c -0.0067,9.9e-5 -0.01025,9.47e-4 -0.0175,9.47e-4 -0.01744,0 -0.02865,-9.87e-4 -0.04209,-0.0014 -0.06091,-0.0021 -0.599702,-4.74e-4 -0.590222,-0.0038 0.163958,-0.05847 0.165785,-0.239118 0.0038,-0.363215 -0.106811,-0.08184 -0.133449,-0.108807 -0.141408,-0.142826 -0.01029,-0.04396 0.03674,-0.09033 0.09175,-0.09033 0.04669,0 0.111613,0.04741 0.111613,0.08182 0,0.01215 0.0075,0.02223 0.01703,0.02223 0.01333,0 0.0175,-0.01475 0.0175,-0.06385 0,-0.05796 -0.003,-0.06496 -0.0298,-0.0752 -0.04325,-0.01645 -0.161663,-0.01365 -0.20478,0.0047 -0.05424,0.02312 -0.0903,0.06796 -0.09742,0.121072 -0.0098,0.0728 0.02828,0.13786 0.127219,0.21755 0.107135,0.08629 0.12297,0.10577 0.123436,0.152285 5.39e-4,0.05347 -0.01637,0.07922 -0.06148,0.09411 -0.08021,0.02648 -0.143912,-0.01738 -0.175459,-0.120598 -0.0018,-0.0059 -0.0042,-0.01048 -0.0061,-0.01277 l -4.73e-4,-4.73e-4 c -1.99e-4,-1.61e-4 -0.0012,-8.19e-4 -0.0014,-9.47e-4 l -4.73e-4,-4.73e-4 h -4.72e-4 c -2.02e-4,-2.9e-5 -0.0012,-2e-6 -0.0014,0 h -4.73e-4 c -2e-4,6.5e-5 -0.0012,8.51e-4 -0.0014,9.46e-4 l -4.72e-4,4.74e-4 -4.73e-4,4.73e-4 c -0.008,0.0076 -0.01513,0.03944 -0.01513,0.08182 0,0.07129 0.0093,0.08663 0.05912,0.09837 0.0215,0.005 -0.5975051,0.0098 -1.3752943,0.0104 l -1.414075,9.46e-4 h 7.6922913 l -2.379808,-4.73e-4 c -1.459155,-3.07e-4 -1.485205,-0.0061 -1.686012,-0.01182 z m -3.6264638,0.0123 0.073305,-0.147555 c 0.040402,-0.08112 0.1089781,-0.219108 0.1522849,-0.306936 0.069397,-0.140744 0.082573,-0.160664 0.1116127,-0.166472 0.016896,-0.0034 0.027897,-0.0073 0.03216,-0.01041 2.194e-4,-1.95e-4 7.729e-4,-7.53e-4 9.458e-4,-9.46e-4 l 4.729e-4,-4.73e-4 v -4.73e-4 l 4.73e-4,-4.73e-4 v -4.72e-4 -4.74e-4 h -4.73e-4 v -4.73e-4 -4.73e-4 h -4.734e-4 c -1.454e-4,-1.76e-4 -7.561e-4,-0.0012 -9.458e-4,-0.0014 -0.00865,-0.0064 -0.047296,-0.0104 -0.1087751,-0.0104 -0.059398,0 -0.1018979,0.0041 -0.1092479,0.0099 h -4.729e-4 v 4.74e-4 4.73e-4 h -4.73e-4 v 4.73e-4 4.72e-4 l 4.73e-4,4.73e-4 c 4.96e-5,1.95e-4 -7.35e-5,0.0012 0,0.0014 l 4.729e-4,4.73e-4 4.73e-4,4.73e-4 c 0.00368,0.0047 0.014502,0.008 0.02743,0.008 0.014591,0 0.02628,0.0059 0.028849,0.01324 2.085e-4,8.04e-4 4.729e-4,0.002 4.729e-4,0.0028 0,0.0086 -0.030877,0.08258 -0.068103,0.164582 -0.037226,0.082 -0.079289,0.175336 -0.093641,0.207145 l -0.026011,0.0577 -0.020809,-0.0577 C 7.4764822,14.997038 7.4370313,14.873961 7.4429968,14.86431 c 0.00387,-0.0062 0.016975,-0.01135 0.029322,-0.01135 0.010032,0 0.018902,-0.0038 0.021755,-0.0085 l 4.729e-4,-4.73e-4 v -4.72e-4 c 5.7e-5,-1.92e-4 -3.84e-5,-0.0012 0,-0.0014 v -4.72e-4 -4.73e-4 -4.73e-4 l -4.729e-4,-4.74e-4 h -4.729e-4 v -4.72e-4 c -0.00899,-0.0059 -0.060751,-0.0095 -0.137624,-0.0095 -0.076872,0 -0.1286357,0.004 -0.1376241,0.0099 h -4.73e-4 l -4.729e-4,4.74e-4 v 4.73e-4 4.73e-4 4.72e-4 4.73e-4 c 4.65e-5,1.95e-4 4.04e-4,0.0012 4.729e-4,0.0014 v 4.73e-4 l 4.73e-4,4.73e-4 c 0.00345,0.0047 0.013894,0.008 0.026011,0.008 0.014923,0 0.035301,0.0092 0.045402,0.02034 0.010101,0.01117 0.065363,0.140748 0.1224901,0.288017 0.057127,0.14727 0.1096757,0.278934 0.1168149,0.292274 l 0.012769,0.02412 z M 3.3871079,14.808138 c -0.00323,3.81e-4 -0.00649,0.0022 -0.00946,0.0052 -0.006,0.006 -0.082018,0.141265 -0.1688377,0.300314 -0.086828,0.159047 -0.1682588,0.298167 -0.181134,0.309299 -0.012871,0.01114 -0.035873,0.02034 -0.051077,0.02034 -0.012353,0 -0.023445,0.0038 -0.026957,0.0085 v 4.73e-4 c -9.24e-5,1.88e-4 -4.027e-4,0.0012 -4.729e-4,0.0014 v 4.73e-4 l -4.729e-4,4.73e-4 v 4.73e-4 h 4.729e-4 v 4.72e-4 l 4.729e-4,4.74e-4 v 4.73e-4 h 4.73e-4 c 0.00768,0.0059 0.051551,0.0099 0.1144502,0.0099 0.0629,0 0.1072452,-0.0041 0.1149232,-0.0099 v -4.73e-4 l 4.729e-4,-4.74e-4 v -4.72e-4 h 4.73e-4 v -4.73e-4 -4.73e-4 l -4.73e-4,-4.73e-4 v -4.72e-4 c -5.7e-5,-1.93e-4 -3.978e-4,-0.0012 -4.729e-4,-0.0014 l -4.73e-4,-4.72e-4 c -0.00285,-0.0047 -0.01125,-0.008 -0.021282,-0.008 -0.038388,0 -0.036989,-0.01831 0.00804,-0.105938 l 0.04351,-0.08513 0.1002621,-0.0033 0.1007352,-0.0033 0.027903,0.09033 c 0.015076,0.04875 0.022445,0.09248 0.017971,0.100734 v 4.73e-4 c -0.00411,0.0046 -0.00705,0.009 -0.00804,0.0123 -1.168e-4,5.38e-4 -4.557e-4,0.0019 -4.729e-4,0.0024 1.7e-5,2.45e-4 4.3e-4,0.0012 4.729e-4,0.0014 6.93e-5,2.28e-4 3.769e-4,0.0012 4.73e-4,0.0014 l 4.729e-4,4.73e-4 c 1.509e-4,2.07e-4 7.67e-4,0.0012 9.459e-4,0.0014 0.0085,0.0079 0.041329,0.0099 0.1120856,0.0099 0.057924,0 0.105973,-0.0043 0.1144502,-0.0095 l 4.729e-4,-4.73e-4 h 4.729e-4 v -4.73e-4 -4.74e-4 -4.72e-4 -4.73e-4 c -5.36e-5,-1.88e-4 -3.935e-4,-0.0012 -4.729e-4,-0.0014 l -4.729e-4,-4.74e-4 -4.73e-4,-4.73e-4 c -0.00397,-0.0049 -0.015836,-0.0097 -0.029795,-0.01135 -0.04567,-0.0054 -0.061141,-0.04022 -0.1537038,-0.34477 -0.045438,-0.149505 -0.08726,-0.276771 -0.093168,-0.282815 -0.00339,-0.0035 -0.00718,-0.0052 -0.010877,-0.0052 -4.599e-4,0 -9.568e-4,-5.4e-5 -0.00142,0 z m 2.0407138,0.01041 c -0.00148,1.04e-4 -0.00342,8.7e-4 -0.00473,0.0014 -2.555e-4,1.33e-4 -0.00117,7.86e-4 -0.00142,9.45e-4 -0.01321,0.01015 -0.019372,0.06287 -0.043983,0.321596 -0.013016,0.136781 -0.028491,0.26046 -0.034524,0.274775 -0.00727,0.01721 -0.020919,0.02601 -0.040199,0.02601 -0.01303,0 -0.024192,0.0038 -0.027903,0.0085 l -4.73e-4,4.73e-4 c -9.76e-5,1.88e-4 -3.987e-4,0.0012 -4.729e-4,0.0014 v 4.73e-4 4.73e-4 4.73e-4 4.72e-4 l 4.729e-4,4.74e-4 v 4.73e-4 h 4.73e-4 c 0.00801,0.0059 0.053736,0.0099 0.1201254,0.0099 0.066393,0 0.1125935,-0.004 0.1205985,-0.0099 l 4.728e-4,-4.73e-4 4.73e-4,-4.74e-4 v -4.72e-4 -4.73e-4 -4.73e-4 -4.73e-4 l -4.73e-4,-4.72e-4 c -6.98e-5,-1.93e-4 -3.809e-4,-0.0012 -4.728e-4,-0.0014 v -4.72e-4 c -0.0035,-0.0047 -0.014194,-0.008 -0.026484,-0.008 -0.052954,0 -0.056316,-0.01744 -0.042564,-0.227009 0.00697,-0.106552 0.014191,-0.19533 0.01608,-0.197214 h 4.729e-4 4.73e-4 c 1.786e-4,8.8e-5 0.0012,8.06e-4 0.00142,9.46e-4 0.00741,0.0054 0.031343,0.03064 0.058171,0.06195 0.031271,0.0365 0.1290112,0.140607 0.21755,0.231264 l 0.1612708,0.164582 h 0.018917 l 0.00568,-0.02601 c 0.003,-0.01431 0.016883,-0.148443 0.030741,-0.297949 0.013858,-0.149504 0.03015,-0.278173 0.036416,-0.286125 0.0063,-0.008 0.021061,-0.01466 0.032633,-0.01466 0.011573,0 0.024444,-0.005 0.028376,-0.01135 v -4.73e-4 -4.73e-4 -4.74e-4 -4.72e-4 l -4.73e-4,-4.73e-4 v -4.73e-4 h -4.729e-4 l -4.729e-4,-4.73e-4 c -0.00802,-0.0054 -0.047758,-0.008 -0.1139773,-0.008 -0.066805,0 -0.1130284,0.004 -0.1210713,0.0099 H 5.817999 v 4.74e-4 l -4.73e-4,4.73e-4 v 4.73e-4 4.72e-4 l 4.73e-4,4.73e-4 c 5.91e-5,1.95e-4 3.853e-4,0.0012 4.729e-4,0.0014 v 4.73e-4 l 4.73e-4,4.73e-4 c 0.00438,0.0047 0.017691,0.008 0.033105,0.008 0.026128,0 0.036254,0.0063 0.041145,0.02601 0.00659,0.02665 -0.011506,0.388425 -0.019863,0.396793 -0.00455,0.0046 -0.3620617,-0.373848 -0.4057781,-0.429425 -0.012038,-0.0153 -0.029051,-0.0279 -0.037835,-0.0279 -6.24e-4,0 -0.0013,-4.2e-5 -0.00189,0 z m -1.2088214,0.0014 c -2.236e-4,4.9e-5 -0.0012,4.01e-4 -0.00142,4.73e-4 -2.155e-4,9.4e-5 -0.00121,8.26e-4 -0.00142,9.45e-4 l -4.73e-4,4.73e-4 c -2.058e-4,1.75e-4 -0.00122,7.41e-4 -0.00142,9.46e-4 -0.010857,0.01283 -0.018566,0.07421 -0.050131,0.323487 -0.019184,0.151515 -0.037947,0.280183 -0.041618,0.286127 l -4.728e-4,4.72e-4 -4.73e-4,4.73e-4 c -0.00511,0.0054 -0.022186,0.0099 -0.039727,0.0099 -0.015201,0 -0.028783,0.0038 -0.033105,0.0085 l -4.73e-4,4.73e-4 c -1.137e-4,1.88e-4 -3.865e-4,0.0012 -4.729e-4,0.0014 v 4.73e-4 4.73e-4 4.73e-4 4.72e-4 h 4.729e-4 v 4.74e-4 l 4.73e-4,4.73e-4 h 4.728e-4 c 0.00801,0.0059 0.053737,0.0099 0.1201255,0.0099 0.066393,0 0.1125933,-0.004 0.1205984,-0.0099 v -4.73e-4 l 4.73e-4,-4.74e-4 v -4.72e-4 h 4.729e-4 v -4.73e-4 -4.73e-4 l -4.729e-4,-4.73e-4 v -4.72e-4 c -7.44e-5,-1.93e-4 -3.751e-4,-0.0012 -4.73e-4,-0.0014 l -4.73e-4,-4.72e-4 c -0.00372,-0.0047 -0.014818,-0.008 -0.027903,-0.008 -0.016105,0 -0.032639,-0.0081 -0.036416,-0.01797 -0.00378,-0.0098 2.805e-4,-0.106533 0.00899,-0.214712 l 0.01608,-0.196741 0.1399888,0.154177 c 0.07699,0.08462 0.1721957,0.188795 0.2118747,0.231737 l 0.072359,0.07803 h 0.023647 l 0.00993,-0.04398 c 0.00543,-0.02416 0.023533,-0.15786 0.040199,-0.297476 0.016667,-0.139616 0.035458,-0.260633 0.042091,-0.268627 0.00668,-0.008 0.021533,-0.01466 0.033105,-0.01466 0.011573,0 0.024444,-0.005 0.028376,-0.01135 v -4.73e-4 -4.73e-4 -4.74e-4 -4.72e-4 l -4.729e-4,-4.73e-4 v -4.73e-4 H 4.8508399 L 4.850367,14.83839 c -0.00802,-0.0054 -0.047286,-0.0085 -0.1135044,-0.0085 -0.066805,0 -0.1134987,0.0045 -0.1215442,0.0104 h -4.73e-4 v 4.74e-4 4.73e-4 h -4.73e-4 v 4.73e-4 4.72e-4 l 4.73e-4,4.73e-4 c 4.71e-5,1.95e-4 -6.98e-5,0.0012 0,0.0014 l 4.73e-4,4.73e-4 4.729e-4,4.73e-4 c 0.0035,0.0047 0.013721,0.008 0.026011,0.008 0.051481,0 0.054318,0.01642 0.037835,0.223698 -0.00843,0.106075 -0.018048,0.195875 -0.021282,0.199106 -0.00319,0.0032 -0.0983,-0.097 -0.2114018,-0.222752 -0.1131027,-0.125735 -0.212352,-0.230198 -0.2208606,-0.232212 -0.00184,-4.36e-4 -0.00366,-9.2e-4 -0.0052,-9.45e-4 -4.766e-4,-10e-6 -0.00144,-6e-5 -0.00189,0 z m 4.5212568,0.0043 c -0.00106,-2.5e-5 -0.098436,0.0029 -0.2161313,0.0061 -0.1205705,0.0033 -0.1829024,0.0077 -0.1915386,0.01371 l -4.729e-4,4.73e-4 h -4.729e-4 v 4.73e-4 4.73e-4 4.73e-4 h 4.729e-4 v 4.73e-4 c 1.71e-4,1.58e-4 0.00118,7.86e-4 0.00142,9.46e-4 0.00446,0.0024 0.016112,0.0051 0.034524,0.008 0.022196,0.0036 0.023492,0.0142 0.026484,0.255858 0.00359,0.28855 -0.00196,0.324263 -0.047766,0.329636 -0.011851,0.0014 -0.020877,0.0055 -0.02412,0.0095 l -4.728e-4,4.74e-4 c -9.93e-5,1.85e-4 -3.987e-4,0.0012 -4.73e-4,0.0014 v 4.73e-4 4.74e-4 4.72e-4 c 3.05e-5,1.87e-4 4.149e-4,0.0012 4.73e-4,0.0014 v 4.72e-4 h 4.728e-4 v 4.74e-4 h 4.73e-4 l 4.729e-4,4.73e-4 h 4.73e-4 c 0.029774,0.01167 0.3816955,0.01286 0.4114533,0.0014 l 4.729e-4,-4.72e-4 h 4.729e-4 l 4.73e-4,-4.73e-4 c 0.00319,-0.0051 0.00937,-0.03647 0.013715,-0.06952 0.00413,-0.03103 0.00293,-0.05074 -0.00142,-0.05722 l -4.73e-4,-4.74e-4 -4.729e-4,-4.73e-4 -4.73e-4,-4.73e-4 h -4.723e-4 c -1.922e-4,-7.1e-5 -0.00122,-4.32e-4 -0.00142,-4.72e-4 h -4.73e-4 c -2.161e-4,2e-5 -0.00119,4.21e-4 -0.00142,4.72e-4 -2.318e-4,8.3e-5 -0.00118,3.6e-4 -0.00142,4.73e-4 -0.00568,0.0033 -0.013649,0.01523 -0.022701,0.03547 -0.010953,0.02449 -0.028115,0.03996 -0.051077,0.04635 -0.040015,0.01115 -0.1189225,0.0021 -0.1409347,-0.01608 -0.01628,-0.01351 -0.019211,-0.08315 -0.00757,-0.180188 l 0.00709,-0.06101 h 0.065265 c 0.068041,0 0.093641,0.01326 0.093641,0.04871 0,0.0097 0.00184,0.0165 0.00426,0.01939 h 4.729e-4 l 4.729e-4,4.73e-4 4.729e-4,4.73e-4 h 4.73e-4 l 4.729e-4,4.73e-4 h 4.73e-4 4.729e-4 4.729e-4 4.73e-4 l 4.729e-4,-4.73e-4 h 4.73e-4 c 0.00612,-0.0023 0.01385,-0.01487 0.017971,-0.03547 0.011072,-0.05537 0.0075,-0.102741 -0.00331,-0.113504 -2.541e-4,-2.08e-4 -0.00116,-7.77e-4 -0.00142,-9.47e-4 -0.00459,-0.0022 -0.010466,0.0012 -0.017026,0.01182 h -4.729e-4 v 4.73e-4 c -1.921e-4,1.98e-4 -0.00116,7.51e-4 -0.00142,9.45e-4 -0.00936,0.0056 -0.045581,0.0099 -0.085601,0.0099 h -0.080389 v -0.109614 -0.109721 l 0.072359,0.0066 c 0.094895,0.0086 0.098661,0.0103 0.1030998,0.04162 0.00185,0.01313 0.00557,0.02133 0.00899,0.02412 h 4.729e-4 l 4.729e-4,4.73e-4 c 1.982e-4,6.6e-5 0.00122,-3.7e-5 0.00142,0 h 4.728e-4 4.73e-4 c 2.066e-4,-4.9e-5 0.00121,-3.96e-4 0.00142,-4.73e-4 l 4.728e-4,-4.73e-4 c 2.109e-4,-1.34e-4 0.00121,-7.85e-4 0.00142,-9.46e-4 0.00723,-0.0064 0.015121,-0.02832 0.01939,-0.06195 0.00426,-0.03359 0.00674,-0.06098 0.00568,-0.06101 z m 3.5569429,0.0057 c -0.08216,-9.12e-4 -0.160235,0.0025 -0.174041,0.0099 l -4.73e-4,4.72e-4 h -4.72e-4 v 4.74e-4 h -4.73e-4 v 4.73e-4 4.73e-4 4.72e-4 c 3e-5,1.98e-4 4.13e-4,0.0012 4.73e-4,0.0014 v 4.72e-4 l 4.72e-4,4.73e-4 4.73e-4,4.73e-4 c 0.0044,0.0047 0.01795,0.0085 0.03358,0.0085 0.0257,0 0.03735,0.0068 0.04446,0.02601 0.0096,0.02587 0.03656,0.392468 0.03642,0.497055 -8.7e-5,0.04869 -0.0036,0.05549 -0.02932,0.06195 -0.0172,0.0043 -0.02689,0.0088 -0.02932,0.0123 l -4.73e-4,4.73e-4 v 4.72e-4 4.73e-4 4.73e-4 l 4.73e-4,4.74e-4 v 4.72e-4 h 4.73e-4 c 1.5e-4,1.88e-4 7.48e-4,0.0012 9.45e-4,0.0014 0.0096,0.007 0.0555,0.01135 0.13195,0.01135 0.07338,0 0.12376,-0.004 0.132421,-0.0099 v -4.73e-4 l 4.73e-4,-4.74e-4 v -4.72e-4 h 4.73e-4 v -4.73e-4 -4.73e-4 l -4.73e-4,-4.73e-4 v -4.72e-4 c -5.6e-5,-1.93e-4 -3.99e-4,-0.0012 -4.73e-4,-0.0014 v -4.72e-4 c -0.0028,-0.0047 -0.01137,-0.008 -0.02128,-0.008 -0.05826,0 -0.06281,-0.0095 -0.07614,-0.165054 l -0.0066,-0.07803 h 0.0402 c 0.03399,0 0.04704,0.0084 0.08418,0.05439 0.146875,0.181735 0.190669,0.211744 0.312137,0.211875 0.03539,3.8e-5 0.0591,-0.0053 0.06574,-0.01135 l 4.74e-4,-4.73e-4 4.72e-4,-4.73e-4 c 1.11e-4,-1.96e-4 3.94e-4,-0.0012 4.73e-4,-0.0014 v -4.73e-4 -4.73e-4 c -1.9e-5,-2.02e-4 -4.2e-4,-0.0012 -4.73e-4,-0.0014 l -4.72e-4,-4.73e-4 c -0.0026,-0.0045 -0.01339,-0.0095 -0.03358,-0.01324 -0.04668,-0.0087 -0.117855,-0.06879 -0.224171,-0.188701 l -0.07094,-0.07992 0.03594,-0.03831 c 0.04445,-0.04759 0.05675,-0.0785 0.05675,-0.1433 0,-0.05929 -0.03996,-0.115266 -0.100262,-0.140461 -0.02285,-0.0095 -0.119315,-0.01508 -0.209982,-0.01608 z m -5.6179928,4.74e-4 c -0.073379,0 -0.1232899,0.004 -0.1319488,0.0099 h -4.73e-4 v 4.74e-4 h -4.73e-4 v 4.73e-4 4.73e-4 4.72e-4 c 2.54e-5,1.98e-4 4.228e-4,0.0012 4.73e-4,0.0014 v 4.72e-4 l 4.73e-4,4.73e-4 4.728e-4,4.73e-4 c 0.00372,0.0047 0.014811,0.0085 0.027903,0.0085 0.016502,0 0.03231,0.0082 0.036416,0.01892 0.010546,0.02747 -0.018524,0.52407 -0.03216,0.54955 -0.00639,0.01196 -0.023816,0.02128 -0.039726,0.02128 -0.012739,0 -0.024281,0.0038 -0.027903,0.0085 -1.177e-4,1.85e-4 -3.777e-4,0.0012 -4.73e-4,0.0014 v 4.72e-4 4.73e-4 4.73e-4 4.73e-4 4.72e-4 4.74e-4 h 4.73e-4 l 4.729e-4,4.73e-4 4.73e-4,4.73e-4 c 0.00931,0.0059 0.062454,0.0095 0.1428262,0.0095 0.080365,0 0.134457,-0.004 0.1437722,-0.0099 l 4.729e-4,-4.73e-4 v -4.74e-4 h 4.73e-4 v -4.72e-4 -4.73e-4 -4.73e-4 -4.73e-4 l -4.73e-4,-4.72e-4 v -4.74e-4 c -1.113e-4,-1.88e-4 -8.085e-4,-0.0012 -9.458e-4,-0.0014 -0.00423,-0.0047 -0.016815,-0.008 -0.031687,-0.008 -0.018303,0 -0.038335,-0.0067 -0.044456,-0.01466 -0.011379,-0.01479 0.00133,-0.380679 0.017499,-0.50604 0.00755,-0.05841 0.010529,-0.0638 0.039726,-0.06716 0.014757,-0.0017 0.027669,-0.0072 0.031214,-0.0123 l 4.729e-4,-4.73e-4 v -4.73e-4 -4.72e-4 -4.73e-4 -4.73e-4 -4.74e-4 l -4.729e-4,-4.72e-4 h -4.729e-4 l -4.73e-4,-4.73e-4 c -0.00958,-0.0052 -0.063814,-0.009 -0.1314758,-0.009 z m 2.7378195,0 c -0.100774,-1.45e-4 -0.1590062,0.0032 -0.1688377,0.009 l -4.729e-4,4.73e-4 h -4.73e-4 v 4.72e-4 4.74e-4 h -4.729e-4 v 4.73e-4 h 4.729e-4 v 4.73e-4 c 0.00397,0.0064 0.019687,0.01182 0.034997,0.01182 0.015678,0 0.032986,0.0096 0.039727,0.02223 0.015388,0.02876 0.016253,0.497478 9.458e-4,0.537726 -0.00697,0.01836 -0.0205,0.0298 -0.034997,0.0298 -0.010465,0 -0.01972,0.0038 -0.022701,0.0085 -9.68e-5,1.85e-4 -3.946e-4,0.0012 -4.729e-4,0.0014 v 4.72e-4 4.73e-4 4.73e-4 4.73e-4 4.72e-4 4.74e-4 h 4.729e-4 l 4.729e-4,4.73e-4 v 4.73e-4 c 0.00866,0.0059 0.058574,0.0095 0.1319488,0.0095 0.073379,0 0.1232876,-0.004 0.1319488,-0.0099 l 4.729e-4,-4.73e-4 4.729e-4,-4.74e-4 v -4.72e-4 -4.73e-4 -4.73e-4 -4.73e-4 -4.72e-4 l -4.729e-4,-4.74e-4 c -8.89e-5,-1.88e-4 -3.63e-4,-0.0012 -4.729e-4,-0.0014 -0.00338,-0.0047 -0.013648,-0.008 -0.025538,-0.008 -0.04601,0 -0.054388,-0.02073 -0.054388,-0.13526 v -0.107829 h 0.037362 c 0.033788,2.6e-5 0.045938,0.01102 0.1187066,0.106411 0.1087086,0.142499 0.1244385,0.152808 0.2378862,0.15796 0.054094,0.0025 0.084231,1.17e-4 0.090804,-0.0061 l 4.732e-4,-4.74e-4 v -4.72e-4 l 4.722e-4,-4.73e-4 v -4.73e-4 -4.73e-4 c 0,-0.007 -0.00827,-0.01277 -0.018444,-0.01277 -0.043664,0 -0.098811,-0.04187 -0.1792422,-0.136205 -0.09215,-0.108081 -0.1142636,-0.132937 -0.1092481,-0.14661 0.00228,-0.0049 0.0083,-0.0089 0.015607,-0.01513 0.1104851,-0.09472 0.1097784,-0.24225 -0.00142,-0.292747 -0.04069,-0.01847 -0.0767,-0.02202 -0.2255899,-0.02223 z m 3.7342933,0 c -0.06073,0 -0.104649,0.0039 -0.11445,0.0095 l -4.74e-4,4.72e-4 h -4.72e-4 v 4.74e-4 h -4.73e-4 v 4.73e-4 4.73e-4 4.72e-4 c 1.7e-5,1.98e-4 -3.5e-5,0.0012 0,0.0014 l 4.73e-4,4.72e-4 c 0.0019,0.0053 0.0099,0.0095 0.01986,0.0095 0.03736,0 0.07066,0.03408 0.175459,0.180661 0.108348,0.151549 0.107294,0.148883 0.121544,0.307408 0.0062,0.06872 -0.0087,0.101681 -0.04682,0.101681 -0.0047,0 -0.0086,0.0017 -0.0104,0.0038 l -4.73e-4,4.73e-4 v 4.73e-4 l -4.73e-4,4.73e-4 v 4.73e-4 4.73e-4 l -4.73e-4,4.72e-4 v 4.73e-4 4.74e-4 4.73e-4 c 1.68e-4,0.0011 6.81e-4,0.0021 0.0014,0.0033 l 4.73e-4,4.73e-4 4.73e-4,4.72e-4 4.73e-4,4.74e-4 h 4.73e-4 c 0.02236,0.0125 0.247422,0.01378 0.2691,0.0019 v -4.72e-4 l 4.73e-4,-4.73e-4 h 4.72e-4 v -4.73e-4 -4.73e-4 -4.74e-4 -4.72e-4 l -4.72e-4,-4.73e-4 -4.73e-4,-4.73e-4 c -1.32e-4,-1.9e-4 -7.84e-4,-0.0012 -9.47e-4,-0.0014 -0.005,-0.0051 -0.01977,-0.01089 -0.03736,-0.01419 -0.02165,-0.004 -0.04239,-0.01505 -0.04587,-0.02412 -0.0035,-0.0091 -0.0098,-0.06817 -0.01419,-0.131476 l -0.008,-0.114923 0.06621,-0.125801 c 0.07064,-0.133949 0.113784,-0.188701 0.147556,-0.188701 0.01009,0 0.01884,-0.0047 0.02081,-0.0099 v -4.74e-4 c 3.5e-5,-1.94e-4 -1.9e-5,-0.0012 0,-0.0014 v -4.73e-4 -4.73e-4 h -4.73e-4 v -4.74e-4 h -4.73e-4 v -4.72e-4 c -0.0072,-0.0058 -0.04806,-0.0097 -0.105937,-0.0095 -0.06002,2.01e-4 -0.08676,0.0017 -0.0927,0.0061 v 4.73e-4 l -4.74e-4,4.73e-4 v 4.73e-4 h -4.73e-4 v 4.73e-4 4.73e-4 l 4.73e-4,4.73e-4 v 4.73e-4 l 4.74e-4,4.72e-4 v 4.74e-4 c 0.0011,0.0016 0.003,0.0036 0.0057,0.0057 0.01114,0.0084 0.02034,0.02535 0.02034,0.03783 0,0.02074 -0.09219,0.222027 -0.106883,0.234577 l -4.74e-4,4.72e-4 h -4.73e-4 c -0.0026,0 -0.04288,-0.05806 -0.08986,-0.129111 -0.04857,-0.07346 -0.07431,-0.120495 -0.07283,-0.131949 v -4.73e-4 l 4.73e-4,-4.73e-4 v -4.72e-4 h 4.73e-4 v -4.73e-4 h 4.73e-4 4.73e-4 c 0.008,-0.0027 0.01419,-0.0098 0.01419,-0.01561 v -4.74e-4 l -4.73e-4,-4.72e-4 -4.73e-4,-4.73e-4 h -4.73e-4 c -0.0085,-0.0051 -0.05633,-0.009 -0.113977,-0.009 z m -3.7002419,0.04635 h 0.034524 c 0.047666,0 0.095584,0.02668 0.1120855,0.0629 0.0076,0.01667 0.013715,0.05913 0.013715,0.09411 0,0.08395 -0.03243,0.120598 -0.1073562,0.120598 -0.02612,0 -0.049837,-0.0023 -0.05486,-0.0047 h -4.729e-4 v -4.74e-4 c -0.00262,-0.0027 -0.00335,-0.06485 -0.00142,-0.13857 z m 2.8721329,0 h 0.03878 c 0.0892,0 0.14825,0.07426 0.13857,0.174986 -0.0072,0.07533 -0.03281,0.102627 -0.09742,0.102627 -0.0418,0 -0.0524,-0.0049 -0.06054,-0.02648 -0.0054,-0.01431 -0.01198,-0.07654 -0.01466,-0.13857 z m -8.9767753,0.12722 h 4.729e-4 4.73e-4 4.728e-4 l 4.73e-4,4.73e-4 h 4.729e-4 l 4.73e-4,4.73e-4 4.729e-4,4.73e-4 c 6.532e-4,9.07e-4 0.00103,0.0025 0.00142,0.0043 0.00252,0.01272 0.014294,0.05826 0.026011,0.101209 l 0.021282,0.07803 h -0.074251 c -0.037106,0 -0.068292,-0.0023 -0.073778,-0.0052 l -4.73e-4,-4.74e-4 v -4.73e-4 h -4.728e-4 c 0,-0.0033 0.022042,-0.04885 0.048712,-0.101207 0.023743,-0.04662 0.03892,-0.07121 0.046821,-0.07662 2.653e-4,-1.45e-4 0.00117,-8.48e-4 0.00142,-9.46e-4 z m 8.0238113,0.0076 h 4.73e-4 4.73e-4 v 4.73e-4 h 4.73e-4 4.73e-4 c 0.0096,0.006 0.03474,0.06025 0.0752,0.162217 2.69e-4,6.67e-4 8.59e-4,0.0022 9.47e-4,0.0028 v 4.73e-4 l -4.73e-4,4.73e-4 v 4.74e-4 4.72e-4 4.73e-4 l -4.74e-4,4.73e-4 -4.72e-4,4.73e-4 c -0.005,0.0061 -0.02602,0.0085 -0.07,0.0085 h -0.07614 l 0.03074,-0.08371 c 0.01673,-0.04613 0.0336,-0.08782 0.03783,-0.0927 v -4.73e-4 h 4.73e-4 4.72e-4 z" />
</svg>
