<?xml version="1.0" encoding="UTF-8" standalone="no"?>
<svg
   width="64"
   height="64"
   version="1.1"
   viewBox="0 0 16.933 16.933"
   id="svg7"
   sodipodi:docname="steam_icon_203160.svg"
   inkscape:version="1.4.2 (ebf0e940d0, 2025-05-08)"
   xmlns:inkscape="http://www.inkscape.org/namespaces/inkscape"
   xmlns:sodipodi="http://sodipodi.sourceforge.net/DTD/sodipodi-0.dtd"
   xmlns="http://www.w3.org/2000/svg"
   xmlns:svg="http://www.w3.org/2000/svg"
   xmlns:rdf="http://www.w3.org/1999/02/22-rdf-syntax-ns#"
   xmlns:cc="http://creativecommons.org/ns#"
   xmlns:dc="http://purl.org/dc/elements/1.1/">
  <sodipodi:namedview
     id="namedview7"
     pagecolor="#9c4444"
     bordercolor="#000000"
     borderopacity="0.25"
     inkscape:showpageshadow="2"
     inkscape:pageopacity="0.0"
     inkscape:pagecheckerboard="0"
     inkscape:deskcolor="#d1d1d1"
     inkscape:zoom="4.3531262"
     inkscape:cx="89.935366"
     inkscape:cy="34.457995"
     inkscape:window-width="2560"
     inkscape:window-height="1388"
     inkscape:window-x="0"
     inkscape:window-y="0"
     inkscape:window-maximized="1"
     inkscape:current-layer="svg7"
     showgrid="false" />
  <defs
     id="defs2">
    <style
       id="current-color-scheme"
       type="text/css">.ColorScheme-Text {color:#d8dee9} .ColorScheme-Highlight {color:#3b4252}</style>
  </defs>
  <metadata
     id="metadata2">
    <rdf:RDF>
      <cc:Work
         rdf:about="">
        <dc:format>image/svg+xml</dc:format>
        <dc:type
           rdf:resource="http://purl.org/dc/dcmitype/StillImage" />
      </cc:Work>
    </rdf:RDF>
  </metadata>
  <path
     style="fill:currentColor;stroke-width:0.0223544"
     d="m 3.4019435,12.174352 c 0,-0.16969 0.00612,-0.192318 0.043527,-0.161265 0.035813,0.02972 0.054276,0.01849 0.1042086,-0.06342 0.08125,-0.133268 0.077946,-0.144244 -0.043416,-0.144244 H 3.4019435 v -0.757258 c 0,-0.742584 0.00117,-0.756956 0.059612,-0.74167 0.046471,0.01215 0.059612,9.13e-4 0.059612,-0.05097 0,-0.05189 -0.013141,-0.06313 -0.059612,-0.05097 -0.05612,0.01468 -0.059612,9.13e-4 -0.059612,-0.2349698 0,-0.2259686 0.00554,-0.2505588 0.05642,-0.2505588 0.031031,0 0.064147,-0.020118 0.073579,-0.044706 0.012392,-0.032301 -0.00326,-0.044706 -0.05642,-0.044706 h -0.073579 l -0.00599,-0.946335 c -0.00332,-0.520484 -0.00241,-0.9865723 0.00209,-1.035752 0.017393,-0.1924047 0.012819,-0.6913246 -0.00732,-0.7973059 L 3.3694858,6.7384463 H 2.6602352 c -0.3900877,0 -0.9125718,-0.0088 -1.1610763,-0.019558 L 1.0473325,6.6993303 V 5.6302717 4.5612125 l 5.9835177,0.00982 c 6.5746378,0.010782 6.0861828,-0.00274 6.7571898,0.1870916 0.831728,0.2353 1.433232,0.6897474 1.728481,1.3058994 0.20215,0.4218659 0.239113,0.6052948 0.238011,1.1811229 -0.0011,0.5653508 -0.05964,0.8724134 -0.235674,1.2357355 -0.141172,0.2913759 -0.622393,0.827114 -0.865659,0.9637282 -0.282803,0.1588179 -0.379465,0.2423544 -0.365423,0.3158076 0.01522,0.079624 0.76491,1.1645883 0.923127,1.3359683 0.06689,0.07246 0.243195,0.370219 0.414869,0.700682 0.266455,0.512908 0.291718,0.574678 0.235033,0.574678 -0.03493,0 -0.09116,-0.0148 -0.124954,-0.03288 -0.04514,-0.02416 -0.06698,-0.02392 -0.08233,9.12e-4 -0.01928,0.03121 -0.149875,-0.07703 -0.263316,-0.218242 -0.06316,-0.07862 -0.100041,-0.06109 -0.226871,0.107839 -0.109834,0.146288 -0.22839,0.168688 -0.515036,0.09731 -0.196413,-0.04891 -0.256763,-0.05063 -0.642203,-0.01825 -0.271032,0.02277 -0.458919,0.02575 -0.51773,0.0082 -0.05816,-0.01734 -0.149022,-0.01631 -0.245606,0.0028 -0.11775,0.02328 -0.164052,0.02138 -0.199686,-0.0082 -0.09647,-0.08005 -1.010565,-1.475667 -1.202748,-1.836314 -0.05364,-0.100661 -0.137554,-0.221375 -0.186474,-0.268252 -0.0813,-0.07791 -0.111017,-0.08615 -0.345806,-0.09596 -0.220706,-0.0092 -0.262385,-0.0032 -0.296117,0.04295 -0.03074,0.04204 -0.03926,0.285191 -0.03926,1.121 0,0.587022 -0.01006,1.06697 -0.02235,1.066551 -0.01229,-4.23e-4 -0.0955,-0.04736 -0.184905,-0.10432 -0.176326,-0.112334 -0.27016,-0.12858 -0.33989,-0.05885 -0.02459,0.02459 -0.06355,0.04471 -0.08658,0.04471 -0.02303,0 -0.05108,0.0092 -0.06235,0.02048 -0.02261,0.02261 -0.08516,0.0352 -0.2910242,0.05855 l -0.1376351,0.01561 0.00287,-0.09721 c 0.00378,-0.128282 -0.048002,-0.141284 -0.092558,-0.02324 l -0.035468,0.09396 -0.1723606,-0.02103 c -0.4751452,-0.05797 -0.4454264,-0.05934 -0.6188717,0.02842 -0.157556,0.07972 -0.1664789,0.08094 -0.2221997,0.03052 -0.062407,-0.05648 -0.1637992,-0.07005 -0.2478179,-0.03316 -0.049468,0.02171 -0.052159,-0.121108 -0.052159,-2.7671355 v -2.790046 l -1.0730089,-0.00593 c -0.5901546,-0.00326 -1.1233063,-0.00663 -1.1847811,-0.00745 -0.088121,-0.00117 -0.1179976,0.012698 -0.1411936,0.065573 -0.017936,0.040882 -0.055534,0.067063 -0.096301,0.067063 -0.1290398,0 -0.1255804,0.3195343 0.00606,0.5575556 0.055592,0.1005308 0.061704,0.1316953 0.030862,0.1572914 -0.056596,0.046973 -0.073522,0.4094587 -0.025597,0.5481961 0.046576,0.1348349 0.050198,0.1704569 0.01103,0.1085124 -0.041168,-0.065104 -0.1294626,0.1611835 -0.1219254,0.3124733 0.00326,0.065573 0.00495,0.2653563 0.00378,0.4439628 -0.00117,0.1786072 0.011089,0.3406865 0.027265,0.3601761 0.019786,0.023845 0.013063,0.077058 -0.020568,0.1626669 -0.046895,0.119382 -0.046856,0.1289805 6.515e-4,0.1555663 0.038862,0.021747 0.043657,0.041364 0.020627,0.084395 -0.045116,0.084301 -0.03722,0.098059 0.04451,0.077546 0.052524,-0.01318 0.074515,-0.00656 0.074515,0.022444 0,0.026197 -0.024359,0.036973 -0.067063,0.029669 -0.036888,-0.00632 -0.087182,0.00267 -0.1117718,0.01991 -0.037363,0.026223 -0.023891,0.050276 0.081966,0.1463336 l 0.1266675,0.114947 -9.121e-4,1.098765 -9.121e-4,1.098766 -0.064681,-0.08942 C 5.8930161,12.218299 5.8080216,12.12106 5.7397164,12.051389 5.6237463,11.933099 5.6047916,11.924714 5.4533598,11.924714 c -0.1486591,0 -0.1739816,0.01055 -0.3040312,0.126675 -0.1681852,0.150176 -0.3271737,0.243977 -0.341366,0.201401 -0.019551,-0.05865 -0.09639,-0.02881 -0.125938,0.04891 -0.027259,0.0717 -0.033409,0.07427 -0.067148,0.02813 -0.034047,-0.04656 -0.044523,-0.04694 -0.1257355,-0.0046 -0.069682,0.03633 -0.1951695,0.04624 -0.5878424,0.04638 l -0.499247,1.77e-4 z m 6.4264247,-0.587495 c 0.00182,-0.166666 -0.00326,-0.314521 -0.01118,-0.328566 -0.024444,-0.04321 -0.06567,0.0501 -0.066152,0.149727 -2.535e-4,0.05191 -0.01634,0.09968 -0.035748,0.106149 -0.025799,0.0086 -0.021786,0.04551 0.0149,0.137213 0.027604,0.069 0.050198,0.160945 0.050198,0.204329 0,0.04338 0.010059,0.06882 0.022353,0.05653 0.012294,-0.01229 0.023825,-0.158714 0.025624,-0.32538 z M 9.7803918,11.09009 c 0,-0.01639 -0.00593,-0.02981 -0.013147,-0.02981 -0.00723,0 -0.021434,0.01341 -0.031565,0.02981 -0.010131,0.01639 -0.00423,0.02981 0.013147,0.02981 0.017362,0 0.031565,-0.01341 0.031565,-0.02981 z m 0,-0.284915 c 0,-0.02362 -0.013414,-0.04295 -0.029806,-0.04295 -0.016392,0 -0.029806,0.02762 -0.029806,0.06137 0,0.03375 0.013414,0.05308 0.029806,0.04295 0.016392,-0.01013 0.029806,-0.03775 0.029806,-0.06137 z M 3.7894219,10.674567 c 0,-0.03517 -0.058133,-0.07279 -0.079482,-0.05144 -0.02135,0.02135 0.016268,0.07948 0.051436,0.07948 0.015427,0 0.028047,-0.01262 0.028047,-0.02805 z M 3.6552958,10.344944 c -0.010131,-0.01639 -0.031832,-0.02981 -0.048224,-0.02981 -0.016392,0 -0.021519,0.01341 -0.011382,0.02981 0.010131,0.01639 0.031832,0.02981 0.048224,0.02981 0.016392,0 0.021519,-0.01341 0.011382,-0.02981 z m -0.039162,-0.321338 c -0.093917,-0.097232 -0.1089175,-0.095971 -0.083076,0.007 0.013838,0.05514 0.038751,0.0759 0.091096,0.0759 h 0.072046 z M 3.7799739,9.6538215 c -0.00951,-0.02378 -0.016574,-0.016711 -0.018007,0.018007 -0.0013,0.031422 0.00573,0.049025 0.015655,0.039122 0.0099,-0.0099 0.010965,-0.035611 0.00235,-0.05713 z m -0.1097783,0.022249 c 0,-0.031461 -0.057202,-0.044673 -0.074214,-0.017148 -0.0103,0.016659 0.00222,0.030295 0.027747,0.030295 0.025558,0 0.046465,-0.00593 0.046465,-0.013147 z M 12.81328,9.2942871 c -0.0148,-0.044927 -0.141727,-0.068763 -0.141727,-0.026614 0,0.026034 0.04991,0.049384 0.129158,0.060414 0.01366,0.00189 0.01932,-0.01331 0.01257,-0.0338 z M 3.7757417,8.4949987 c 0.034953,-0.05655 -0.016027,-0.070507 -0.067934,-0.0186 -0.046465,0.046465 -0.04655,0.050387 -0.00104,0.050387 0.027135,0 0.058179,-0.014307 0.068983,-0.031787 z M 14.6164,8.1722304 C 14.5679,8.020564 14.444636,7.8465838 14.41013,7.8810898 c -0.0092,0.00917 0.01169,0.075249 0.04636,0.1468531 0.03466,0.071604 0.06303,0.1435448 0.06303,0.1598674 0,0.034621 0.119946,0.169354 0.13625,0.1530502 0.0061,-0.00606 -0.01164,-0.081952 -0.03936,-0.1686301 z m -2.028068,0.030829 C 13.040924,8.0550895 13.260524,7.7311622 13.175864,7.3364052 13.139061,7.1647971 12.985639,6.9716745 12.818289,6.8862982 12.566595,6.7578942 12.390655,6.7332558 11.680509,6.7269643 l -0.678082,-0.00599 v 0.7667161 0.7667161 l 0.06706,0.014353 c 0.03688,0.0079 0.348728,0.011049 0.692985,0.00702 0.551254,-0.00645 0.649773,-0.015134 0.825856,-0.072703 z M 3.7000011,8.1857813 c 0,-0.023623 -0.013414,-0.05124 -0.029806,-0.061371 -0.016392,-0.010131 -0.029806,0.00919 -0.029806,0.042953 0,0.033754 0.013414,0.061371 0.029806,0.061371 0.016392,0 0.029806,-0.01933 0.029806,-0.042947 z M 3.5211665,7.8742503 c 0,-0.014639 -0.020118,-0.03434 -0.044712,-0.043774 -0.027233,-0.01045 -0.044706,-4.5e-5 -0.044706,0.02662 0,0.024073 0.020118,0.043774 0.044706,0.043774 0.024588,0 0.044712,-0.011975 0.044712,-0.026614 z m 0.2682522,-0.032992 c 0,-0.016392 -0.014203,-0.029806 -0.031565,-0.029806 -0.017362,0 -0.023278,0.013414 -0.013147,0.029806 0.010131,0.016392 0.024334,0.029806 0.031565,0.029806 0.00723,0 0.013141,-0.013414 0.013141,-0.029806 z M 3.8608817,7.5779432 C 3.8693417,7.5642682 3.8164757,7.4944102 3.7434177,7.4227086 3.5904333,7.272566 3.5699372,7.2993101 3.7001907,7.4791156 c 0.088249,0.1218231 0.1304431,0.147773 0.1606935,0.098826 z M 4.117283,7.5414392 c 0,-0.015427 -0.013414,-0.028047 -0.029806,-0.028047 -0.016392,0 -0.029806,0.020913 -0.029806,0.046465 0,0.025558 0.013414,0.038178 0.029806,0.028047 0.016392,-0.010131 0.029806,-0.031044 0.029806,-0.046471 z m 5.6536601,-0.093246 c -0.00951,-0.02378 -0.016574,-0.016717 -0.018007,0.018007 -0.0013,0.031422 0.00573,0.049025 0.015655,0.039123 0.0099,-0.0099 0.010965,-0.035611 0.00235,-0.05713 z M 3.5699319,7.3137767 c -0.012209,-0.012209 -0.034679,-0.00248 -0.049931,0.021643 -0.045892,0.072565 -0.032125,0.1048125 0.021747,0.050941 0.027715,-0.027715 0.040393,-0.060374 0.028184,-0.072587 z m 0.1747783,-0.068635 c 0.010131,-0.016392 0.00423,-0.029806 -0.013141,-0.029806 -0.017362,0 -0.031565,0.013414 -0.031565,0.029806 0,0.016392 0.00593,0.029806 0.013147,0.029806 0.00723,0 0.021434,-0.013414 0.031565,-0.029806 z m 0.044706,-0.2235443 c 0,-0.046367 -0.016887,-0.074515 -0.044706,-0.074515 -0.052882,0 -0.055065,0.014379 -0.013851,0.091377 0.041474,0.077496 0.058563,0.072576 0.058563,-0.016861 z m 6.0060377,-0.074781 c 0.024307,-0.039325 -0.010873,-0.1487626 -0.04782,-0.1487626 -0.039461,0 -0.066751,0.079762 -0.045892,0.1341267 0.019701,0.051338 0.066504,0.058648 0.093706,0.014633 z M 9.8138521,6.6170088 C 9.8517564,6.4813693 9.8413389,6.246915 9.7944244,6.1799435 9.7659995,6.1393616 9.755999,6.0863973 9.7678498,6.0391852 c 0.01045,-0.041631 0.00995,-0.075694 -0.00111,-0.075694 -0.055723,0 -0.1311194,0.066743 -0.1633829,0.1446335 -0.030992,0.07482 -0.02737,0.1045369 0.025356,0.2078777 0.042113,0.082548 0.055762,0.1493562 0.043266,0.2118232 -0.032171,0.1608525 0.09882,0.2432027 0.1418607,0.089184 z M 13.297475,5.374544 c 0,-0.01245 -0.02683,-0.03939 -0.05961,-0.059866 -0.06451,-0.040282 -0.06906,-0.036406 -0.04152,0.035357 0.01809,0.047136 0.101131,0.067261 0.101132,0.024509 z M 13.062381,5.0607468 c -0.02434,-0.02434 -0.03316,-0.021004 -0.03316,0.012541 0,0.059247 0.04008,0.09933 0.0549,0.054895 0.0062,-0.018854 -0.0035,-0.049201 -0.02173,-0.067436 z"
     id="path5"
     class="ColorScheme-Text" />
</svg>
