<?xml version='1.0' encoding='UTF-8'?>
<svg xmlns:inkscape="http://www.inkscape.org/namespaces/inkscape" xmlns:sodipodi="http://sodipodi.sourceforge.net/DTD/sodipodi-0.dtd" xmlns="http://www.w3.org/2000/svg" xmlns:svg="http://www.w3.org/2000/svg" xmlns:rdf="http://www.w3.org/1999/02/22-rdf-syntax-ns#" xmlns:cc="http://creativecommons.org/ns#" xmlns:dc="http://purl.org/dc/elements/1.1/" width="64" height="64" version="1.1" viewBox="0 0 16.933 16.933" id="svg7" sodipodi:docname="steam_icon_1882240.svg" inkscape:version="1.4 (e7c3feb100, 2024-10-09)">
  <sodipodi:namedview id="namedview7" pagecolor="#9c4444" bordercolor="#000000" borderopacity="0.25" inkscape:showpageshadow="2" inkscape:pageopacity="0.0" inkscape:pagecheckerboard="0" inkscape:deskcolor="#d1d1d1" inkscape:zoom="4.3531261" inkscape:cx="35.951175" inkscape:cy="39.741555" inkscape:window-width="1183" inkscape:window-height="941" inkscape:window-x="35" inkscape:window-y="32" inkscape:window-maximized="0" inkscape:current-layer="svg7" showgrid="false"/>
  <defs id="defs2">
    <style id="current-color-scheme" type="text/css">.ColorScheme-Text {color:#d8dee9} .ColorScheme-Highlight {color:#3b4252}</style></defs>
  <metadata id="metadata2">
    <rdf:RDF>
      <cc:Work rdf:about="">
        <dc:format>image/svg+xml</dc:format>
        <dc:type rdf:resource="http://purl.org/dc/dcmitype/StillImage"/>
      </cc:Work>
    </rdf:RDF>
  </metadata>
  <path style="fill:currentColor;stroke-width:0.036378" d="m 8.9789262,15.942195 c 0.065026,-0.0095 0.1182294,-0.03042 0.1182294,-0.04644 0,-0.01615 -0.1514243,-0.102771 -0.3364968,-0.192793 -0.6047655,-0.29415 -0.911526,-0.572398 -1.1049692,-1.002265 -0.078088,-0.173527 -0.1164757,-0.408213 -0.066772,-0.408213 0.010811,0 0.080376,0.03044 0.1546087,0.06764 0.1570939,0.07874 0.3973197,0.119054 0.4919015,0.08257 0.059994,-0.02316 0.056042,-0.03785 -0.044069,-0.163818 -0.1881931,-0.236811 -0.2582959,-0.484249 -0.2582959,-0.91171 0,-0.374155 0.00121,-0.379298 0.1641372,-0.704789 0.3494043,-0.69795 1.0234994,-1.237875 1.8002713,-1.441928 0.2998686,-0.07877 1.1462156,-0.112685 1.5824446,-0.06341 0.180082,0.02035 0.334155,0.0303 0.342407,0.02212 0.09963,-0.09877 -0.707476,-0.933973 -1.270061,-1.3142595 C 10.352381,9.729791 9.4225547,9.2621843 9.2316883,9.2007906 9.155623,9.1763214 9.0989142,9.1373916 9.1056672,9.114275 9.1311759,9.0269755 9.6002199,8.8335667 10.006605,8.742776 10.236696,8.6913709 10.438069,8.6364077 10.454103,8.6206349 10.504139,8.5714139 10.051804,8.3225321 9.6069226,8.1545031 9.330073,8.0499378 8.3459351,7.817457 8.1767126,7.8166468 8.0446901,7.8160198 7.9389023,7.762892 7.9825411,7.7191426 c 0.016055,-0.016093 0.3251658,-0.034717 0.6869175,-0.041388 0.4928666,-0.0091 0.7497196,0.00317 1.024722,0.048895 0.6570734,0.1092538 1.3527484,0.3712988 1.8605334,0.7008224 0.229859,0.1491652 0.707329,0.5749446 0.707329,0.6307554 0,0.017708 -0.0543,0.032209 -0.120631,0.032209 -0.239874,0 -0.863191,0.142861 -0.944402,0.2164499 -0.01556,0.014079 0.164519,0.09592 0.400156,0.1818414 0.838044,0.305588 1.471586,0.6790913 2.156384,1.2712963 l 0.381969,0.33032 0.02441,-0.580307 C 14.198751,9.588104 14.260748,9.3860989 14.604545,9.0609356 14.915132,8.767194 15.123657,8.6876237 15.695508,8.6446368 15.957945,8.624911 16.189039,8.5930632 16.209046,8.5738675 16.263253,8.5218797 15.96009,8.2685284 15.372358,7.8746109 14.886951,7.5492752 14.703206,7.4393958 13.953618,7.0262064 13.526633,6.7908425 13.451372,6.6872711 13.469274,6.3596704 c 0.02476,-0.4532809 0.322333,-0.9041861 0.816958,-1.2379551 0.147193,-0.099324 0.267623,-0.1946875 0.267623,-0.2119165 0,-0.061034 -0.206847,-0.082511 -0.762898,-0.079207 -0.60439,0.00359 -0.723354,0.015713 -0.994697,0.1012928 -0.09635,0.030387 -0.183749,0.046641 -0.194275,0.036123 -0.01045,-0.010526 0.03927,-0.1484603 0.110656,-0.3065389 0.147763,-0.3272439 0.219009,-0.6302306 0.282505,-1.2012526 0.02894,-0.2601668 0.03249,-0.4393807 0.01026,-0.5166782 L 12.971358,2.8251922 12.728662,3.1314874 C 12.419758,3.5214059 11.88191,4.0352699 11.532897,4.2739815 11.383707,4.3760187 10.952434,4.6272284 10.574506,4.832223 9.4864493,5.4224046 9.0718157,5.7079233 8.4468196,6.2973576 8.190465,6.5391265 8.0566328,6.6430698 8.0492452,6.6061428 8.0334165,6.5269996 8.2958359,6.020022 8.4865167,5.7613699 8.69567,5.4776617 9.2111545,4.9381453 9.4940329,4.706883 9.7716909,4.4798887 9.8439227,4.3317179 9.9000257,3.8740629 9.9858625,3.1738555 9.8887171,2.4418193 9.6065182,1.6625096 9.4594645,1.256403 9.4016393,1.2018903 9.3701026,1.4396402 9.26893,2.2023661 9.1257624,2.5592921 8.6847386,3.1482946 8.4188058,3.5034565 8.0365716,3.8812297 6.5314136,5.2764867 5.6372313,6.1053792 4.9365054,6.8655832 4.5374594,7.4396899 4.4245004,7.6022033 4.3046636,7.7577195 4.271155,7.7852809 4.21566,7.830925 4.2124401,7.8242447 4.2350134,7.7103329 4.2738382,7.5144074 4.5947271,6.8764468 4.779549,6.6277443 5.062448,6.2470644 5.4362728,5.841206 6.4980647,4.7619661 7.5094671,3.7339434 7.7002859,3.5127066 7.7817776,3.2736169 7.8393533,3.1046993 7.833716,2.6127372 7.7707956,2.3158759 7.6728202,1.853563 7.4965116,1.5864157 7.4965116,1.9002745 c 0,0.179246 -0.2075985,0.8043347 -0.3822598,1.1510011 C 7.0284668,3.2215669 6.8531524,3.4836719 6.7246777,3.6337317 6.487137,3.9111807 5.5999424,4.7701908 4.2636654,6.0165618 3.4447196,6.7804083 3.148407,7.1346798 2.8920731,7.6564354 2.6826876,8.0826311 2.6232896,8.3718952 2.6225017,8.96923 c -3.474e-4,0.2634684 -0.010564,0.5049272 -0.022713,0.5365754 -0.012388,0.032329 -0.064211,0.057602 -0.1182294,0.057678 -0.2431305,3.444e-4 -0.5128395,0.3080432 -0.5427364,0.6191846 -0.013053,0.13578 -0.03214,0.180909 -0.076424,0.180647 C 1.7361408,10.362554 1.3232543,10.002637 1.1330755,9.7275357 1.0287252,9.5765916 0.92813637,9.4624947 0.90954012,9.4739883 0.89095812,9.4854833 0.87593482,9.6862687 0.87620652,9.9201807 0.87752721,11.09605 1.3269479,12.015115 2.2217145,12.67175 l 0.2364573,0.173527 0.019424,-0.358637 c 0.023076,-0.426078 0.1004758,-0.626504 0.3267502,-0.846092 0.3274988,-0.317827 0.8718728,-0.483479 1.5564783,-0.473631 0.2061261,0.0029 0.3833117,-0.0031 0.3937456,-0.01355 0.010431,-0.01047 -0.00678,-0.06879 -0.038279,-0.129677 -0.070509,-0.136356 -0.074033,-0.403896 -0.00743,-0.56333 0.1119689,-0.267982 0.4833695,-0.4805489 1.0415064,-0.5960951 0.4087575,-0.084622 1.5779419,-0.083152 1.8854958,0.00238 0.2973033,0.082671 0.6245868,0.2277111 0.6245868,0.2767921 0,0.02345 -0.1042283,0.03838 -0.26787,0.03838 -0.3201057,0 -0.553299,0.04075 -0.8337882,0.14569 -0.243039,0.09093 -0.2577851,0.141052 -0.098395,0.334423 0.1400889,0.169951 0.2823524,0.47681 0.3116576,0.672229 0.017955,0.1197 0.00283,0.1962 -0.070416,0.356191 -0.1063088,0.232211 -0.2348263,0.310367 -0.5103556,0.310367 -0.2785687,0 -0.289194,0.01596 -0.1619237,0.241348 0.09687,0.171646 0.1097364,0.225161 0.095473,0.397142 -0.028329,0.341631 -0.2535111,0.510338 -0.6397841,0.479332 l -0.2338176,-0.01881 0.024685,0.132563 c 0.067298,0.361406 0.064858,0.420466 -0.022781,0.550907 -0.1370432,0.20398 -0.3182504,0.273311 -0.7030084,0.268977 -0.2505714,-0.0029 -0.3892937,-0.02542 -0.5911428,-0.09631 -0.1953799,-0.06861 -0.2637398,-0.08022 -0.2637398,-0.04473 0,0.09004 0.3570241,0.581191 0.5878944,0.808754 0.3145406,0.31003 0.5304382,0.460193 0.9581704,0.666438 0.6781919,0.327009 1.6117149,0.535053 2.5100818,0.559392 0.2801109,0.0078 0.5624954,0.0061 0.6275208,-0.0036 z M 4.3600264,9.176371 C 4.3238707,9.1541193 4.44534,8.8565497 4.5918325,8.6085043 4.920511,8.0519776 5.5638445,7.4834699 5.9595515,7.3998634 l 0.1182294,-0.024981 v 0.203692 c 0,0.3396212 -0.285222,0.9066129 -0.6613139,1.314625 -0.1819725,0.1974172 -0.3173596,0.275264 -0.5391603,0.310016 -0.154546,0.024214 -0.4600761,0.00836 -0.5172796,-0.026849 z" id="path2" class="ColorScheme-Text"/>
</svg>
