<?xml version='1.0' encoding='UTF-8'?>
<svg xmlns:inkscape="http://www.inkscape.org/namespaces/inkscape" xmlns:sodipodi="http://sodipodi.sourceforge.net/DTD/sodipodi-0.dtd" xmlns="http://www.w3.org/2000/svg" xmlns:svg="http://www.w3.org/2000/svg" xmlns:rdf="http://www.w3.org/1999/02/22-rdf-syntax-ns#" xmlns:cc="http://creativecommons.org/ns#" xmlns:dc="http://purl.org/dc/elements/1.1/" width="64" height="64" version="1.1" viewBox="0 0 16.933 16.933" id="svg7" sodipodi:docname="steam_icon_1581770.svg" inkscape:version="1.4 (e7c3feb100, 2024-10-09)">
  <sodipodi:namedview id="namedview7" pagecolor="#9c4444" bordercolor="#000000" borderopacity="0.25" inkscape:showpageshadow="2" inkscape:pageopacity="0.0" inkscape:pagecheckerboard="0" inkscape:deskcolor="#d1d1d1" inkscape:zoom="4.3531261" inkscape:cx="36.066035" inkscape:cy="25.958357" inkscape:window-width="1280" inkscape:window-height="669" inkscape:window-x="74" inkscape:window-y="150" inkscape:window-maximized="0" inkscape:current-layer="svg7" showgrid="false"/>
  <defs id="defs2">
    <style id="current-color-scheme" type="text/css">.ColorScheme-Text {color:#d8dee9} .ColorScheme-Highlight {color:#3b4252}</style></defs>
  <metadata id="metadata2">
    <rdf:RDF>
      <cc:Work rdf:about="">
        <dc:format>image/svg+xml</dc:format>
        <dc:type rdf:resource="http://purl.org/dc/dcmitype/StillImage"/>
      </cc:Work>
    </rdf:RDF>
  </metadata>
  <path style="fill:currentColor;stroke-width:0.0245301" class="ColorScheme-Text" d="M 7.0994073,15.787963 C 7.0790276,15.763409 6.9799257,15.503376 6.8791808,15.210117 6.520418,14.165809 6.0309542,13.149986 5.5936988,12.542259 5.4383999,12.326416 5.0980815,11.96989 5.0473478,11.96989 c -0.097364,0 -0.066967,0.444697 0.05589,0.817672 0.1540824,0.46776 0.5383802,1.176453 0.9373594,1.728614 0.2597884,0.359525 0.3237723,0.593575 0.1622697,0.593575 -0.090281,0 -0.2244581,-0.15361 -0.4391528,-0.502744 C 5.5111154,14.196226 5.292027,13.904472 5.1042913,13.728868 4.9004563,13.538205 4.8105789,13.507608 4.7335981,13.602663 c -0.071622,0.08845 -0.060282,0.119972 0.1585499,0.440865 0.096933,0.142149 0.164475,0.269778 0.1501011,0.283667 -0.060203,0.05817 -0.2239977,-0.02366 -0.4350414,-0.217321 C 4.297183,13.825377 4.2011865,13.799662 3.8112856,13.896712 3.431342,13.991277 3.0045685,14.018987 2.7359172,13.966531 1.8204463,13.787768 1.0846001,12.956686 0.7364046,11.708234 0.47170478,10.759154 0.4900266,9.5774013 0.78229913,8.7481924 0.98461872,8.1741852 1.133291,7.9558226 1.7237238,7.3654616 2.2094587,6.8797885 2.3400906,6.6871955 2.3731585,6.4079894 2.3930773,6.2398115 2.4524157,6.171484 2.5199274,6.2389931 c 0.057753,0.057754 0.03758,0.4353704 -0.032799,0.6139198 -0.035528,0.090132 -0.1613833,0.3234932 -0.2796756,0.5185645 -0.2937041,0.4843391 -0.354629,0.653533 -0.3720991,1.0333643 -0.016406,0.3566026 0.044679,0.574087 0.2300287,0.8190346 0.057878,0.076494 0.1251992,0.1660023 0.1496003,0.1989171 0.024405,0.032908 0.064307,0.2407684 0.088679,0.4618972 0.077243,0.7008534 0.2665738,1.1575244 0.6355336,1.5329324 0.280959,0.285875 0.4966631,0.394897 0.8196571,0.414281 0.3382722,0.02032 0.5169349,-0.07153 0.7001513,-0.359983 0.08462,-0.133222 0.076328,-0.656569 -0.016319,-1.029714 C 4.3593869,10.106742 4.1941742,9.730027 4.0511428,9.5494348 3.9039142,9.363541 3.6663131,9.2597947 3.2965813,9.2199594 2.7296848,9.1588792 2.6518179,9.134459 2.4817698,8.9644111 2.0755072,8.5581517 2.1524334,7.8113385 2.6260073,7.5641218 3.0387893,7.3486416 3.9775091,7.8646435 4.4683947,8.5768624 4.7531295,8.9899784 4.920804,9.366626 5.2872785,10.416313 c 0.2803189,0.802913 0.3892484,1.076922 0.5881013,1.479337 0.1511801,0.30594 0.3980098,0.630257 0.4796757,0.630257 0.063863,0 0.1463662,-0.108394 0.1691258,-0.222182 0.026085,-0.130425 0.1031118,-0.20315 0.1443997,-0.136352 0.045772,0.07407 0.089892,0.432045 0.1276429,1.035715 0.044601,0.713169 0.1255918,1.131722 0.3498953,1.808157 0.2047657,0.617515 0.2211044,0.794529 0.074907,0.811522 -0.046511,0.0053 -0.1012407,-0.01023 -0.1216202,-0.03483 z M 3.1663859,13.442611 C 3.4937768,13.275587 3.5770633,12.896084 3.3786014,12.475627 3.1863971,12.068428 2.8709513,11.858432 2.4486237,11.85652 c -0.4357673,-0.002 -0.6270448,0.157378 -0.6486885,0.540429 -0.01609,0.284696 0.078067,0.475027 0.3650775,0.738023 0.3874567,0.355037 0.7126456,0.454937 1.0013732,0.307639 z m 5.6682538,2.299616 c -0.059266,-0.02389 -0.053504,-0.891594 0.00904,-1.374882 0.089412,-0.690002 0.2366978,-1.2244 0.576815,-2.09286 0.2836116,-0.724175 0.5296411,-1.092125 1.2534003,-1.874526 1.06019,-1.146087 1.295981,-1.5685185 1.425694,-2.5542263 0.120492,-0.9157798 0.270935,-1.1992301 0.768868,-1.4487958 0.257265,-0.1289394 0.504814,-0.1806156 1.125608,-0.2349568 0.732997,-0.064172 1.036596,-0.1369447 1.28614,-0.3083098 0.104775,-0.071932 0.203234,-0.1307934 0.218843,-0.1307934 0.123822,0 -0.02421,0.3484695 -0.25101,0.5909438 -0.22222,0.2375706 -0.411146,0.3243133 -0.782982,0.3594917 -0.372159,0.035207 -0.446427,0.052396 -0.636461,0.147315 -0.489552,0.2445083 -0.886319,0.7856464 -1.173552,1.6005706 -0.130172,0.3692862 -0.205926,0.4983501 -0.460777,0.7849644 -0.523898,0.5891871 -0.615265,0.9453246 -0.28404,1.1071356 0.322764,0.157679 1.01223,-0.162203 1.307089,-0.6064347 0.266873,-0.4020521 0.319317,-0.7975382 0.155317,-1.171191 -0.11668,-0.2658217 -0.119766,-0.3194356 -0.02876,-0.5000847 0.162223,-0.3220807 0.497216,-0.615151 0.924705,-0.8089821 0.355364,-0.1611304 1.09308,-0.3656947 1.256981,-0.3485554 0.276347,0.028903 0.587167,0.3968151 0.745475,0.882416 0.116438,0.3571103 0.144799,0.9628667 0.06387,1.3624249 -0.123504,0.6094646 -0.398915,1.154979 -0.795254,1.57512 -0.367535,0.389603 -0.797727,0.627531 -1.846999,1.021514 -0.256946,0.09649 -0.54076,0.212787 -0.630706,0.258458 -0.412366,0.209397 -0.861781,0.626877 -1.399627,1.300181 -0.179622,0.224859 -0.347511,0.421111 -0.373082,0.436104 -0.08242,0.04836 -0.140642,-0.0028 -0.140642,-0.123424 0,-0.243356 0.249108,-0.647411 0.681295,-1.105059 0.327815,-0.347134 0.463445,-0.537432 0.463445,-0.650248 0,-0.185939 -0.137317,-0.147715 -0.572372,0.159376 -0.702068,0.495541 -1.221194,1.244651 -1.520571,2.194221 -0.07431,0.235655 -0.154483,0.431996 -0.180516,0.441984 -0.07209,0.02768 -0.1465309,-0.06817 -0.1309333,-0.16858 0.00748,-0.04875 0.022019,-0.186042 0.032079,-0.305045 0.044866,-0.529952 0.2411493,-1.018683 0.5895693,-1.468039 0.554671,-0.715349 0.697724,-1.046771 0.46341,-1.073601 -0.2505,-0.02867 -0.901433,0.627557 -1.2271389,1.237136 -0.2638599,0.49383 -0.4465317,1.122838 -0.6269006,2.158653 -0.096176,0.552332 -0.156345,0.756668 -0.220735,0.749677 -0.013083,-0.0014 -0.042166,-0.01001 -0.064663,-0.01909 z m 3.7983343,-4.523135 c 0.215105,-0.0818 0.543505,-0.494464 0.543505,-0.682991 0,-0.10571 -0.02492,-0.120141 -0.179885,-0.104269 -0.215348,0.02204 -0.801322,0.506271 -0.801322,0.662168 0,0.04283 0.01771,0.09548 0.03924,0.117104 0.04698,0.04699 0.283444,0.05172 0.398453,0.0078 z m 1.947091,-0.313897 c 0.486635,-0.222058 0.885896,-0.923085 0.885896,-1.555473 0,-0.4348772 -0.151164,-0.661748 -0.440536,-0.6611489 -0.465305,0.00104 -1.172511,0.8106182 -1.326803,1.5190189 -0.05433,0.249498 -0.02936,0.562019 0.05224,0.653504 0.161885,0.181527 0.489837,0.198966 0.829219,0.0441 z M 7.9777797,14.548659 C 7.8737852,14.377652 7.8264942,14.056595 7.6336631,12.212449 7.5127927,11.056505 7.4111264,10.525091 7.2363405,10.135612 7.085144,9.7987023 6.8491011,9.6788321 6.7028911,9.8647079 c -0.061656,0.078393 -0.067786,0.1300428 -0.067786,0.5712181 0,0.438021 -0.00584,0.488174 -0.060358,0.517343 C 6.3833526,11.0557 6.1892286,10.634112 5.9808341,9.66344 5.8731337,9.1617863 5.7838455,8.9534974 5.5366112,8.6271586 5.4148566,8.4664484 5.3595353,8.3631867 5.3595353,8.2966319 c 0,-0.069069 0.077309,-0.2044832 0.2698317,-0.4726438 C 5.7777741,7.6172719 5.9319414,7.4264601 5.9719601,7.3999618 6.0119789,7.3734608 6.1812373,7.3227836 6.3480895,7.28732 6.5338202,7.2478657 6.7687044,7.1664127 6.9538203,7.0773001 7.6703511,6.7323609 7.9808583,6.1420606 7.8786063,5.3192057 7.7569577,4.3402611 7.1628327,3.647474 6.4074494,3.6037463 6.0252056,3.5816105 5.9343263,3.6081373 5.729537,3.8018574 4.9874156,4.5037248 4.6520181,5.9599764 5.1199886,6.4484341 5.2883353,6.6241499 5.4390579,6.555187 5.9478141,6.0695963 6.1591553,5.8678831 6.2280225,5.8184083 6.2364618,5.8622289 6.2658024,6.0145873 5.4471248,7.1183598 5.0723292,7.4317541 4.836042,7.6293318 4.7005763,7.6783765 4.5904426,7.6062121 4.4758951,7.5311594 4.1699805,7.0913746 4.0197965,6.7858482 3.3186352,5.3594465 3.714915,3.3857811 4.9393284,2.2061356 5.276262,1.8815207 5.4737871,1.7406984 5.8664913,1.5451298 6.4098743,1.2745228 6.9371907,1.1452663 7.599956,1.1202203 c 0.9628079,-0.036385 1.9615735,0.2536886 2.708375,0.7865944 0.250796,0.1789634 0.711564,0.593104 0.765573,0.6880985 0.08063,0.1418214 0.04733,0.2055837 -0.33814,0.6477256 C 10.526661,3.4824708 10.1721,3.9105072 9.9478398,4.1938306 9.7235829,4.4771543 9.5262531,4.7089637 9.5093257,4.7089637 c -0.07914,0 -0.053481,-0.1139082 0.084746,-0.3759772 0.1636144,-0.3102147 0.1673168,-0.3734088 0.029237,-0.498933 -0.055508,-0.050457 -0.1219157,-0.073588 -0.2112534,-0.073588 -0.6022022,0 -1.1116515,1.0882815 -0.9426318,2.0136427 0.080819,0.4424373 0.3890134,0.8589075 0.7908511,1.0686675 0.1905779,0.099482 0.2254812,0.1064679 0.531723,0.1065317 0.3042494,7.53e-5 0.3433584,-0.00761 0.5452794,-0.1070113 0.48928,-0.2408681 0.809779,-0.7933181 0.810704,-1.3974294 3.66e-4,-0.2697152 -0.04416,-0.4073497 -0.210783,-0.650719 -0.206072,-0.3009909 -0.246446,-0.3915254 -0.246446,-0.5525856 0,-0.2430286 0.159972,-0.5082521 0.535848,-0.8883958 0.427672,-0.4325293 0.602055,-0.5233723 1.129784,-0.5885491 0.25789,-0.031847 0.399087,-0.06518 0.457539,-0.1080057 0.135503,-0.099276 0.280634,-0.3407266 0.325602,-0.5416779 0.02735,-0.1222683 0.05801,-0.1860477 0.08938,-0.1860477 0.07719,0 0.08812,0.083002 0.04753,0.3607162 -0.04377,0.2992991 -0.09559,0.4405598 -0.212556,0.579593 -0.09077,0.107888 -0.148649,0.1351086 -0.50823,0.2390805 -0.336318,0.097247 -0.49714,0.2149982 -0.611386,0.4476509 -0.119016,0.2423674 -0.118629,0.5102088 0.0015,0.9895087 0.231345,0.9236784 0.01409,1.6002748 -0.844045,2.6291305 -0.81673,0.979186 -0.906237,1.1368302 -1.100874,1.9389004 -0.2549599,1.0506749 -0.450753,1.7512719 -0.5066928,1.8130859 -0.070154,0.07755 -0.1328365,0.07933 -0.1721746,0.0048 -0.016652,-0.03145 -0.036189,-0.314773 -0.04342,-0.629579 -0.013803,-0.5992764 -0.040178,-0.7195095 -0.1579592,-0.7195095 -0.1582212,0 -0.2478572,0.3835699 -0.2942583,1.2592135 -0.076946,1.452312 -0.1156905,1.772931 -0.2182548,1.806531 C 8.4588278,12.696943 8.4097805,11.958753 8.4661479,10.511862 8.5482215,8.405242 8.4577538,7.2510646 8.1908695,7.0003547 8.1286331,6.94189 8.1004539,6.9342962 8.0485037,6.9621018 7.9063199,7.0381952 7.750598,7.4173831 7.5872084,8.0853743 7.4680879,8.5723764 7.4625726,8.6761121 7.5510877,8.7646255 c 0.091435,0.091435 0.1237844,0.083455 0.2654089,-0.06541 0.068451,-0.071961 0.1392433,-0.1308293 0.1573196,-0.1308293 0.1135258,0 0.139006,0.3436274 0.070334,0.9484995 -0.021438,0.1888835 -0.047447,0.7940893 -0.057805,1.3449043 -0.019711,1.04915 0.00559,1.594865 0.1225066,2.644388 0.064536,0.579197 0.078355,0.907697 0.04364,1.037128 -0.031035,0.1157 -0.1060169,0.118036 -0.1745235,0.0053 z M 10.611324,9.171116 c -0.0634,-0.063411 -0.06436,-0.1240839 -0.0052,-0.3210099 0.05538,-0.1839605 0.184874,-0.3622154 0.325439,-0.4479289 0.116076,-0.070785 0.302419,-0.083365 0.324,-0.021865 0.06065,0.1728407 -0.376976,0.8422023 -0.550634,0.8422023 -0.02328,0 -0.06545,-0.023131 -0.09372,-0.051389 z M 2.1905104,5.4818425 c -0.021726,-0.02619 -0.042449,-0.089342 -0.046055,-0.1403749 -0.00515,-0.072941 0.00869,-0.09495 0.064826,-0.1029688 0.082679,-0.011737 0.1509016,0.088969 0.1350955,0.1995462 -0.012245,0.085624 -0.098724,0.1102516 -0.1538682,0.043792 z m 4.3137654,-0.083712 c 0,-0.063848 0.036747,-0.1347572 0.1101572,-0.2125948 0.1220739,-0.129433 0.2341506,-0.1516425 0.2655776,-0.05263 0.0411,0.1295023 -0.1405857,0.3610116 -0.2833176,0.3610116 -0.080382,0 -0.092422,-0.012538 -0.092417,-0.095787 z M 15.814834,5.1450486 c -0.08291,-0.082911 0.05876,-0.3895251 0.195887,-0.4239411 0.12385,-0.031086 0.160343,0.026913 0.114079,0.1812859 -0.05229,0.1745908 -0.235008,0.3176144 -0.309969,0.2426552 z M 13.211397,1.2461701 c -0.04441,-0.08297 -0.04496,-0.2513673 -0.0011,-0.33335415 0.01918,-0.0358435 0.06823,-0.0632621 0.113159,-0.0632621 0.11103,0 0.176783,0.20753135 0.110014,0.34724315 -0.05519,0.1154727 -0.172764,0.1416093 -0.222122,0.049372 z" id="path1-3"/>
</svg>
