<?xml version="1.0" encoding="UTF-8" standalone="no"?>
<svg
   width="64"
   height="64"
   version="1.1"
   viewBox="0 0 16.933 16.933"
   id="svg7"
   sodipodi:docname="step.svg"
   inkscape:version="1.4.3 (0d15f75042, 2025-12-25)"
   xmlns:inkscape="http://www.inkscape.org/namespaces/inkscape"
   xmlns:sodipodi="http://sodipodi.sourceforge.net/DTD/sodipodi-0.dtd"
   xmlns="http://www.w3.org/2000/svg"
   xmlns:svg="http://www.w3.org/2000/svg"
   xmlns:rdf="http://www.w3.org/1999/02/22-rdf-syntax-ns#"
   xmlns:cc="http://creativecommons.org/ns#"
   xmlns:dc="http://purl.org/dc/elements/1.1/">
  <sodipodi:namedview
     id="namedview7"
     pagecolor="#9c4444"
     bordercolor="#000000"
     borderopacity="0.25"
     inkscape:showpageshadow="2"
     inkscape:pageopacity="0.0"
     inkscape:pagecheckerboard="0"
     inkscape:deskcolor="#d1d1d1"
     inkscape:zoom="6.15625"
     inkscape:cx="57.258883"
     inkscape:cy="38.010152"
     inkscape:window-width="2560"
     inkscape:window-height="1388"
     inkscape:window-x="0"
     inkscape:window-y="0"
     inkscape:window-maximized="1"
     inkscape:current-layer="svg7"
     showgrid="false" />
  <defs
     id="defs2">
    <style
       id="current-color-scheme"
       type="text/css">.ColorScheme-Text {color:#d8dee9} .ColorScheme-Highlight {color:#3b4252}</style>
  </defs>
  <metadata
     id="metadata2">
    <rdf:RDF>
      <cc:Work
         rdf:about="">
        <dc:format>image/svg+xml</dc:format>
        <dc:type
           rdf:resource="http://purl.org/dc/dcmitype/StillImage" />
      </cc:Work>
    </rdf:RDF>
  </metadata>
  <path
     id="path5"
     style="fill:currentColor"
     d="m 1.322891,1.4551798 c -0.439729,0 -0.793735,0.3705634 -0.793735,0.813371 V 15.197223 15.47782 H 16.403844 V 15.197223 2.2685508 c 0,-0.4428077 -0.354006,-0.813371 -0.793735,-0.813371 z M 2.198789,3.1377312 H 14.732661 V 15.197223 H 2.198789 Z m 2.786338,0.2645781 v 4.8487042 c 0.134079,-0.032069 0.274105,-0.049092 0.418054,-0.049092 0.143804,0 0.283601,0.017084 0.417538,0.049092 V 3.4023093 Z m 3.063836,0 v 4.8487042 c 0.134002,-0.032043 0.273656,-0.049092 0.417537,-0.049092 0.143883,0 0.283533,0.017049 0.417537,0.049092 V 3.4023093 Z m 3.063318,0 v 4.8487042 c 0.133939,-0.03201 0.273732,-0.049092 0.417538,-0.049092 0.143947,0 0.283976,0.017023 0.418054,0.049092 V 3.4023093 Z m -5.7091,5.0641906 a 1.5317685,1.5424913 0 0 0 -1.532176,1.5425111 1.5317685,1.5424913 0 0 0 1.532176,1.542511 1.5317685,1.5424913 0 0 0 1.53166,-1.542511 1.5317685,1.5424913 0 0 0 1.531659,1.542511 1.5317685,1.5424913 0 0 0 1.531659,-1.542511 1.5317685,1.5424913 0 0 0 1.53166,1.542511 1.5317685,1.5424913 0 0 0 1.532175,-1.542511 A 1.5317685,1.5424913 0 0 0 11.529819,8.4664999 1.5317685,1.5424913 0 0 0 9.998159,9.9960922 1.5317685,1.5424913 0 0 0 8.4665,8.4664999 1.5317685,1.5424913 0 0 0 6.934841,9.9960922 1.5317685,1.5424913 0 0 0 5.403181,8.4664999 Z"
     class="ColorScheme-Text" />
</svg>
