<?xml version="1.0" encoding="UTF-8" standalone="no"?>
<svg
   width="64"
   height="64"
   version="1.1"
   id="svg1"
   sodipodi:docname="org.strawberrymusicplayer.strawberry.svg"
   inkscape:version="1.4.2 (ebf0e940d0, 2025-05-08)"
   xmlns:inkscape="http://www.inkscape.org/namespaces/inkscape"
   xmlns:sodipodi="http://sodipodi.sourceforge.net/DTD/sodipodi-0.dtd"
   xmlns="http://www.w3.org/2000/svg"
   xmlns:svg="http://www.w3.org/2000/svg">
  <sodipodi:namedview
     id="namedview1"
     pagecolor="#9c4444"
     bordercolor="#eeeeee"
     borderopacity="1"
     inkscape:showpageshadow="0"
     inkscape:pageopacity="0"
     inkscape:pagecheckerboard="0"
     inkscape:deskcolor="#505050"
     inkscape:zoom="17.441967"
     inkscape:cx="27.69183"
     inkscape:cy="42.713072"
     inkscape:window-width="2560"
     inkscape:window-height="1392"
     inkscape:window-x="0"
     inkscape:window-y="0"
     inkscape:window-maximized="1"
     inkscape:current-layer="svg1" />
  <defs
     id="defs1">
    <style
       id="current-color-scheme"
       type="text/css">.ColorScheme-Text {color:#d8dee9} .ColorScheme-Highlight {color:#3b4252}</style>
  </defs>
  <path
     style="fill:currentColor;stroke-width:2.78955"
     class="ColorScheme-Text"
     d="m 36.430447,9.6838403 c -0.24827,0 -0.320798,0.5046297 -0.167373,1.1710527 0,0 0.437959,2.126472 3.383722,3.684156 2.047528,1.012606 2.044738,1.597573 -0.01395,2.204858 -0.895445,0.264449 -1.986158,0.766289 -2.421327,1.114704 -0.716914,0.574647 -0.454697,0.811758 2.817443,2.555505 0,0 3.975106,2.230523 4.424224,2.607949 0.778283,0.654149 0.742019,0.746203 -0.778285,2.018237 -1.696045,1.416812 -3.70452,4.733584 -3.70452,6.1172 0,0.747599 0.331957,0.808969 3.127084,0.571857 l 5.280614,-0.546751 -0.153425,3.7631 c -0.08369,2.072635 -0.331956,4.279168 -0.54954,4.909605 -0.220375,0.630438 -0.309641,1.24135 -0.203638,1.35851 0.451907,0.49654 2.295799,-0.596963 3.562253,-2.111688 1.291561,-1.545409 1.375247,-1.576094 1.648623,-0.627648 0.92613,1.701625 1.336194,3.191243 2.772811,4.680861 0.320798,0.03347 0.566278,-0.376589 0.769916,-1.224611 0.633227,-2.602649 0.295691,-5.12161 -1.040502,-7.727049 -0.716914,-1.400352 -1.422669,-3.612464 -1.564937,-4.912394 0,0 -0.376589,-2.809074 -0.518856,-3.358336 -0.220374,-0.831286 0.203637,-1.319456 2.574753,-2.95999 2.700283,-1.868439 3.39767,-2.931536 2.376695,-3.623065 -0.253849,-0.171836 -1.590042,0.347299 -2.970868,1.153478 -1.380827,0.806179 -2.78118,1.465629 -3.113136,1.465629 -0.331957,0 -1.372458,-1.009258 -2.312536,-2.242518 -1.631886,-2.143489 -1.707203,-2.388411 -1.707203,-5.552037 0,-3.005738 -0.08369,-3.322352 -0.909393,-3.451508 -0.666701,-0.104329 -1.054449,0.241296 -1.453354,1.299371 -0.298482,0.793069 -0.697387,1.441639 -0.881497,1.441639 -0.184111,0 -4.086689,-1.889919 -4.086689,-1.889919 0,0 -3.94721,-1.8901977 -4.187112,-1.8901977 z m -2.438065,2.9039197 -0.479802,0.03292 c -6.812076,0.727793 -12.494665,4.948937 -18.997101,14.098654 -1.963284,2.764442 -4.485594,6.309958 -5.6064344,7.886052 -4.7207522,6.633546 -4.5196257,13.442833 0.4851025,16.304909 3.2344809,1.85226 6.3573799,2.583122 11.3052019,2.65286 2.486882,0.03626 6.132263,0.217585 8.096105,0.398906 5.478672,0.504908 6.164901,0.490961 10.020057,-0.178531 4.315431,-0.753178 7.640572,-2.318115 10.312959,-4.851024 1.076765,-1.018186 2.379485,-2.962501 3.464619,-4.94029 l -0.914972,-1.810417 c 0,0 -0.836864,0.850813 -1.308298,1.129767 -0.504909,0.298482 -1.007027,0.560699 -1.72673,0.719704 -0.719704,0.156215 -2.136794,0.259427 -3.230297,-0.937289 -0.970763,-1.062817 -0.758757,-1.592831 -0.772705,-1.947104 -0.01395,-0.351483 0.053,-0.834075 0.053,-0.834075 0.07253,-0.474223 0.181321,-0.906603 0.343115,-1.372458 0,0 0.100423,-0.499328 0.192479,-1.311087 l 0.234322,-3.325141 c 0,0 -1.274824,0.133898 -2.131215,0.206426 -1.428249,0.122741 -2.153532,0.265007 -3.350248,0.04463 -0.599752,-0.108792 -1.6012,-0.49096 -2.206532,-1.3613 -0.608122,-0.870338 -0.594174,-1.645833 -0.594174,-2.03916 0,-2.039158 0.778284,-3.101977 1.617938,-4.488382 0.571858,-0.945378 2.10332,-2.566105 2.10332,-2.566105 l -2.184217,-1.226007 c 0,0 -2.479908,-1.214011 -3.464619,-2.10834 -0.248269,-0.223722 -0.538383,-0.511882 -0.803389,-1.019022 -0.262217,-0.506861 -0.435169,-1.31834 -0.298482,-2.021307 0.270586,-1.405653 1.001448,-1.789216 1.319456,-2.043064 0.31243,-0.25106 0.596964,-0.251618 0.887077,-0.424849 -0.594173,-0.557348 -1.492407,-1.091826 -1.835521,-1.612913 -0.25106,-0.3791 -0.382168,-0.719704 -0.530015,-1.05696 z m -2.853707,8.28161 0.85918,0.0053 c 0,0 0.68065,0.200011 0.92334,0.441307 0.965184,0.965741 0.331957,3.166416 -0.742019,4.240392 -1.073976,1.070907 -2.728178,1.160173 -3.693362,0.195268 -0.967973,-0.965183 -0.878708,-2.621617 0.195269,-3.694478 0.602542,-0.603658 1.562146,-1.069233 2.457592,-1.187789 z m -11.158472,5.579375 0.860854,0.0056 c 0,0 0.679255,0.198058 0.920831,0.440749 0.965462,0.965183 0.331956,3.166137 -0.741183,4.237323 -1.072861,1.073977 -2.728178,1.163242 -3.69392,0.198058 -0.965741,-0.965184 -0.876755,-2.622175 0.196105,-3.693361 0.603658,-0.605332 1.56131,-1.071187 2.457313,-1.188348 z m 8.368923,5.579096 0.859181,0.0056 c 0,0 0.68065,0.198058 0.923341,0.440749 0.965184,0.965183 0.331955,3.166137 -0.74202,4.240113 -1.073976,1.071186 -2.728179,1.160452 -3.693362,0.195268 -0.966578,-0.965184 -0.877592,-2.622175 0.195268,-3.693361 0.602543,-0.605332 1.562147,-1.071187 2.457592,-1.188348 z m 11.158193,2.789549 0.85918,0.0056 c 0.359852,0.05858 0.68065,0.198059 0.923341,0.440749 0.965183,0.965184 0.331956,3.166137 -0.74202,4.240113 -1.073976,1.071187 -2.728178,1.160452 -3.693361,0.195268 -0.965184,-0.965183 -0.878708,-2.622175 0.195268,-3.693361 0.602542,-0.605332 1.562147,-1.071187 2.457592,-1.188348 z m -25.106212,2.789547 0.860855,0.0056 c 0,0 0.679255,0.198058 0.920829,0.440749 0.965463,0.965184 0.331956,3.166137 -0.741182,4.240113 -1.072861,1.071186 -2.728179,1.160452 -3.69392,0.195269 -0.965742,-0.965226 -0.876755,-2.622218 0.196105,-3.693405 0.603658,-0.605331 1.56131,-1.071185 2.457313,-1.188347 z m 11.158472,5.579097 0.85918,0.0056 c 0,0 0.68065,0.198058 0.923341,0.440748 0.965183,0.965184 0.331956,3.166138 -0.74202,4.240113 -1.073977,1.071187 -2.728457,1.160452 -3.694199,0.195269 -0.965741,-0.965184 -0.876755,-2.622176 0.196106,-3.693362 0.603658,-0.605331 1.56131,-1.071187 2.457592,-1.188347 z m 8.368644,2.789547 0.85918,0.0056 c 0,0 0.68065,0.198057 0.923341,0.440749 0.965183,0.965183 0.331956,3.166136 -0.74202,4.240113 -1.073976,1.071186 -2.728178,1.160452 -3.693361,0.195268 -0.965184,-0.965184 -0.878708,-2.622175 0.195268,-3.693361 0.602542,-0.605333 1.562147,-1.071187 2.457592,-1.188349 z"
     id="path1" />
</svg>
