<?xml version='1.0' encoding='UTF-8'?>
<svg xmlns:inkscape="http://www.inkscape.org/namespaces/inkscape" xmlns:sodipodi="http://sodipodi.sourceforge.net/DTD/sodipodi-0.dtd" xmlns="http://www.w3.org/2000/svg" xmlns:svg="http://www.w3.org/2000/svg" xmlns:rdf="http://www.w3.org/1999/02/22-rdf-syntax-ns#" xmlns:cc="http://creativecommons.org/ns#" xmlns:dc="http://purl.org/dc/elements/1.1/" width="64" height="64" version="1.1" viewBox="0 0 16.933 16.933" id="svg7" sodipodi:docname="sublime_text.svg" inkscape:version="1.4 (e7c3feb100, 2024-10-09)">
  <sodipodi:namedview id="namedview7" pagecolor="#9c4444" bordercolor="#000000" borderopacity="0.25" inkscape:showpageshadow="2" inkscape:pageopacity="0.0" inkscape:pagecheckerboard="0" inkscape:deskcolor="#d1d1d1" inkscape:zoom="6.15625" inkscape:cx="15.51269" inkscape:cy="29.725888" inkscape:window-width="1183" inkscape:window-height="941" inkscape:window-x="35" inkscape:window-y="32" inkscape:window-maximized="0" inkscape:current-layer="svg7" showgrid="false"/>
  <defs id="defs2">
    <style id="current-color-scheme" type="text/css">.ColorScheme-Text {color:#d8dee9} .ColorScheme-Highlight {color:#3b4252}</style></defs>
  <metadata id="metadata2">
    <rdf:RDF>
      <cc:Work rdf:about="">
        <dc:format>image/svg+xml</dc:format>
        <dc:type rdf:resource="http://purl.org/dc/dcmitype/StillImage"/>
      </cc:Work>
    </rdf:RDF>
  </metadata>
  <path id="path8" style="fill:currentColor;fill-opacity:1;stroke:none;stroke-width:0.0451742;stroke-opacity:1" d="M 14.083558,0.80357387 8.7003336,2.4857871 C 5.7394542,3.4109815 3.3062055,4.1717709 3.2937265,4.1757948 3.2812435,4.1798228 4.555111,4.6656959 6.1245777,5.2556987 7.6940446,5.8457025 9.0059163,6.3221868 9.0390436,6.315054 9.072172,6.30791 10.217117,5.9530308 11.58362,5.5256748 l 2.484349,-0.7773323 0.0078,-1.97203 z M 2.850143,4.4457707 V 6.4114231 8.376367 l 5.5787973,2.094619 c 3.0684277,1.152051 5.5956477,2.095546 5.6163537,2.096743 0.02975,0.0018 0.03756,-0.407288 0.03756,-1.95148 V 8.6626406 l -0.0829,-0.034012 C 13.954398,8.6102747 11.42717,7.6616974 8.3835894,6.5205473 Z m 5.0841954,6.2625953 -2.5346572,0.792215 -2.534657,0.792212 -0.00779,1.97132 -0.00779,1.971323 5.3832236,-1.682215 c 2.9608722,-0.925197 5.3941422,-1.685993 5.4065962,-1.690006 0.01254,-0.004 -1.266428,-0.489976 -2.841482,-1.080614 z" class="ColorScheme-Text"/>
  <g id="g9" transform="matrix(0.46959567,0,0,0.46959567,4.7471229,3.7470598)" style="fill:#999999;fill-opacity:1;stroke:none;stroke-width:0.58349;stroke-dasharray:none;stroke-opacity:0.3"/>
  </svg>
