<?xml version="1.0" encoding="UTF-8" standalone="no"?>
<svg
   width="64"
   height="64"
   version="1.1"
   viewBox="0 0 16.933 16.933"
   id="svg7"
   sodipodi:docname="supertux.svg"
   inkscape:version="1.4.2 (ebf0e940d0, 2025-05-08)"
   xmlns:inkscape="http://www.inkscape.org/namespaces/inkscape"
   xmlns:sodipodi="http://sodipodi.sourceforge.net/DTD/sodipodi-0.dtd"
   xmlns="http://www.w3.org/2000/svg"
   xmlns:svg="http://www.w3.org/2000/svg"
   xmlns:rdf="http://www.w3.org/1999/02/22-rdf-syntax-ns#"
   xmlns:cc="http://creativecommons.org/ns#"
   xmlns:dc="http://purl.org/dc/elements/1.1/">
  <sodipodi:namedview
     id="namedview7"
     pagecolor="#9c4444"
     bordercolor="#000000"
     borderopacity="0.25"
     inkscape:showpageshadow="2"
     inkscape:pageopacity="0.0"
     inkscape:pagecheckerboard="0"
     inkscape:deskcolor="#d1d1d1"
     inkscape:zoom="4.3531262"
     inkscape:cx="89.935366"
     inkscape:cy="34.457995"
     inkscape:window-width="2560"
     inkscape:window-height="1388"
     inkscape:window-x="0"
     inkscape:window-y="0"
     inkscape:window-maximized="1"
     inkscape:current-layer="svg7"
     showgrid="false" />
  <defs
     id="defs2">
    <style
       id="current-color-scheme"
       type="text/css">.ColorScheme-Text {color:#d8dee9} .ColorScheme-Highlight {color:#3b4252}</style>
  </defs>
  <metadata
     id="metadata2">
    <rdf:RDF>
      <cc:Work
         rdf:about="">
        <dc:format>image/svg+xml</dc:format>
        <dc:type
           rdf:resource="http://purl.org/dc/dcmitype/StillImage" />
      </cc:Work>
    </rdf:RDF>
  </metadata>
  <path
     id="path5"
     style="fill:currentColor"
     d="M 8.8607834 1.4551797 C 8.6249694 1.4548647 8.3861292 1.476384 8.2117402 1.519774 C 7.7328412 1.638943 7.375764 1.8457788 7.060412 2.1863868 C 6.756706 2.5144178 6.5384641 2.9987115 6.5157531 3.3955915 C 6.5107531 3.4825815 6.5171622 3.8448155 6.5302222 4.2006945 C 6.5659622 5.1752345 6.4988713 5.6653174 6.2630603 6.1452404 C 6.1749103 6.3246414 6.0708104 6.464489 5.8129674 6.749326 C 4.8008234 7.867435 3.9558923 8.9282777 3.5599193 9.5790717 C 3.2929123 10.017906 3.2018087 10.228546 3.2018087 10.404845 C 3.2018087 10.53864 3.2100789 10.568075 3.2813889 10.633767 L 3.3361648 10.679758 C 3.3896348 10.718448 3.4356856 10.728513 3.5237466 10.728333 C 3.6800596 10.728007 3.9011733 10.635259 4.0498023 10.507679 C 4.1445323 10.426369 4.3413956 10.29736 4.3707066 10.29736 L 4.3712234 10.29736 L 4.3712234 10.297877 L 4.3717401 10.297877 L 4.3722569 10.298393 C 4.3802973 10.310505 4.3942973 10.412121 4.4042956 10.53455 C 4.4149556 10.66504 4.4304949 10.849435 4.4394349 10.944336 C 4.4689949 11.258315 4.2958739 11.574985 3.8529189 12.016084 C 3.5092879 12.358275 3.4441664 12.454671 3.4441664 12.619136 C 3.4441664 12.776987 3.5169952 12.887351 3.6715382 12.963811 C 3.7376482 12.996521 3.9013162 13.149712 4.0668552 13.333291 C 4.5289772 13.845773 5.9706401 15.3494 6.0491241 15.400824 C 6.0890641 15.426994 6.1761181 15.458289 6.2423901 15.470069 C 6.3625091 15.491429 6.541029 15.466967 6.63564 15.416327 C 6.73011 15.365767 6.8639291 15.186934 6.8960841 15.067518 C 6.9526441 14.857456 6.835811 14.647306 6.564328 14.471183 C 6.3867147 14.35596 6.1579145 14.182275 6.1473074 14.155446 L 6.1473074 14.15493 L 6.1473074 14.154413 L 6.1473074 14.153896 L 6.1473074 14.153379 C 6.1561016 14.102701 6.7198187 13.707321 6.9498266 13.591151 C 7.1005966 13.515001 7.1119746 13.513423 7.3218896 13.544643 C 7.4410216 13.562363 7.8629376 13.58997 8.2592816 13.60562 C 10.194461 13.68204 11.135745 13.895434 11.317433 14.299621 C 11.447703 14.589419 11.670109 14.646419 11.947873 14.460848 C 12.314786 14.215718 13.277817 12.477871 13.594251 11.490029 C 13.782669 10.901825 13.77705 10.575634 13.575132 10.352136 C 13.445113 10.208221 13.29845 10.165309 13.101268 10.212612 C 12.824292 10.279062 12.698552 10.448963 12.634639 10.844086 C 12.610369 10.994147 12.557878 11.226013 12.517853 11.35929 C 12.477823 11.492566 12.44499 11.605828 12.44499 11.610949 C 12.44499 11.643429 12.351367 11.605136 12.184029 11.503981 L 11.99128 11.387194 L 12.036754 11.252322 C 12.109354 11.035195 12.099188 10.353195 12.018668 10.023997 C 11.924188 9.6377138 11.768124 9.1802074 11.57891 8.7367624 C 11.48602 8.5190644 11.409932 8.3325266 11.409932 8.3223256 C 11.409932 8.3121256 11.511463 8.1411515 11.635753 7.9419945 C 12.250485 6.9569795 12.807701 5.784071 13.221672 4.603246 C 13.419881 4.037869 13.491596 3.7432248 13.46868 3.5904078 C 13.42859 3.3230738 13.175867 3.1473294 12.93539 3.2193784 C 12.757323 3.2727284 12.648495 3.384929 12.530771 3.638466 C 12.471711 3.765668 12.378109 3.92194 12.322519 3.985208 L 12.221236 4.0999274 L 11.851756 4.0218976 C 11.648354 3.9789676 11.37822 3.9124169 11.251805 3.8741059 L 11.022366 3.8048608 L 10.987227 3.5066937 C 10.967977 3.3428317 10.937048 3.1440139 10.918498 3.0648689 C 10.733922 2.2774839 10.215869 1.7170122 9.4917402 1.5213242 C 9.3294792 1.4774742 9.0965954 1.4554997 8.8607834 1.4551797 z M 7.5601132 1.98847 C 7.4426792 2.078114 7.3047631 2.2019167 7.2035529 2.3150586 C 7.2951629 2.2063796 7.3975861 2.109931 7.5141221 2.022059 C 7.5292699 2.0106433 7.5446367 1.9994178 7.5601132 1.98847 z M 9.8539849 2.740864 C 10.131164 2.726934 10.352283 2.9580815 10.390892 3.3263465 L 10.408979 3.4963586 L 10.351102 3.4059266 C 10.217016 3.1965496 10.027435 3.1622012 9.8710378 3.3185952 C 9.7007058 3.4889262 9.7101229 3.777861 9.8917079 3.947485 L 9.9780059 4.0280986 L 9.8529514 4.0270651 C 9.7066384 4.0255651 9.5318329 3.968664 9.4524669 3.896843 C 9.3303479 3.786327 9.2741846 3.3950518 9.3460156 3.1553008 C 9.3929856 2.9985418 9.5810359 2.8068789 9.7320309 2.7620509 C 9.7735409 2.7497309 9.8143869 2.742854 9.8539849 2.740864 z M 10.056036 3.2534841 C 10.088426 3.2529521 10.123811 3.2657139 10.159387 3.2917239 C 10.205897 3.3257339 10.208543 3.3387319 10.175923 3.3780219 C 10.127653 3.4361819 10.019386 3.4378724 9.9723216 3.3811224 C 9.9437616 3.3467124 9.9437616 3.3292345 9.9723216 3.2948245 C 9.9947116 3.2678545 10.023646 3.2540241 10.056036 3.2534841 z M 13.041841 3.424013 L 13.141575 3.424013 L 13.057861 3.5190958 C 13.011971 3.5713558 12.957971 3.6588943 12.937457 3.7133953 C 12.916947 3.7678953 12.880937 3.8580202 12.857877 3.9133792 C 12.834817 3.9687392 12.781166 4.0540577 12.738507 4.1035447 C 12.668187 4.1851147 12.652045 4.1911255 12.565911 4.1671055 L 12.470828 4.140751 L 12.571595 4.0038112 C 12.626855 3.9285212 12.699239 3.793336 12.732822 3.703577 C 12.804382 3.512312 12.902173 3.424013 13.041841 3.424013 z M 5.9855633 3.489124 L 1.7729835 7.7017039 C 1.3492915 8.1253949 1.3492925 8.8076051 1.7729835 9.2312961 L 2.7010739 10.159387 C 2.7616702 9.899782 2.9116107 9.6295997 3.1093097 9.3046752 C 3.532385 8.6093378 4.4260385 7.4920267 5.4197175 6.3943159 C 5.6672058 6.1209177 5.7260427 6.0407138 5.7891967 5.9121842 C 5.9799087 5.5240468 6.0367075 5.1645232 6.0020995 4.2208479 C 5.9942012 4.0056233 5.9847795 3.6870147 5.9855633 3.489124 z M 9.1413809 3.5702544 C 9.141772 3.573846 9.1420153 3.5775738 9.1424144 3.5811063 C 9.1423671 3.5807036 9.1419506 3.5804922 9.1418977 3.5800728 C 9.1415387 3.5768728 9.1417179 3.5734544 9.1413809 3.5702544 z M 6.7327898 3.8203634 C 6.7335508 3.8694834 6.7338904 3.9149104 6.7358904 3.9759064 C 6.7362714 3.9872864 6.7365829 3.9889371 6.7369239 3.9996771 C 6.7364889 3.9873771 6.7358736 3.9897232 6.7353736 3.9764232 C 6.7331736 3.9108932 6.7334898 3.8683844 6.7327898 3.8203634 z M 10.560388 3.924231 C 10.776191 3.914231 11.040987 3.9552515 11.308648 4.0451515 C 11.421642 4.0831015 11.707402 4.1531405 11.943739 4.2006945 C 12.41606 4.2957345 12.743999 4.3866587 12.828939 4.4461527 C 12.881299 4.4828227 12.879511 4.487496 12.787081 4.544336 C 12.594978 4.662483 11.918125 4.8471094 11.255422 4.9618734 C 10.917627 5.0203734 10.391 5.0197968 10.271522 4.9608398 C 10.135164 4.8935598 10.051643 4.7178711 10.035366 4.4642391 C 10.018666 4.2039781 10.071413 4.0809831 10.234833 3.9976101 C 10.319323 3.9545101 10.430907 3.930211 10.560388 3.924231 z M 10.503028 3.9340493 L 10.503028 3.9345661 C 10.504505 3.9351713 10.508022 3.9359416 10.51388 3.9376666 L 10.506645 3.9350829 C 10.50507 3.9344956 10.503844 3.9342315 10.503028 3.9340493 z M 11.995414 4.9877111 L 11.995931 4.9877111 C 12.001262 4.9878222 12.005871 4.9891114 12.007816 4.9902948 C 12.025246 5.0077248 11.454886 5.665584 10.823416 6.356076 C 10.805836 6.375296 10.78847 6.3944323 10.77174 6.4124023 C 10.77034 6.4095023 10.768889 6.4061007 10.767089 6.4031007 C 10.768046 6.4067007 10.768673 6.4105025 10.769673 6.4139525 L 10.77019 6.4139525 C 10.68395 6.5065325 10.613547 6.5774749 10.603795 6.5813809 L 10.603278 6.5818976 L 10.602762 6.5818976 L 10.602245 6.5818976 L 10.601728 6.5813809 L 10.601211 6.5813809 L 10.600695 6.5808641 C 10.576496 6.562163 10.507519 6.2804509 10.473056 6.0537749 L 10.455487 5.9375052 L 10.716964 5.7287365 C 10.860693 5.6139655 11.089943 5.4245629 11.226484 5.3075819 C 11.439554 5.1250359 11.497396 5.0902464 11.63627 5.0626404 C 11.72526 5.0449504 11.842761 5.0184772 11.897231 5.0042472 C 11.93779 4.9936432 11.975984 4.9875346 11.995414 4.9877111 z M 11.084377 5.1597902 C 11.089977 5.1653902 10.960104 5.2753289 10.795511 5.4042149 C 10.630919 5.5331009 10.487033 5.6388213 10.47564 5.6388213 C 10.4465 5.6388213 10.479688 5.5191064 10.558838 5.3401374 L 10.626532 5.1876949 L 10.850287 5.168575 C 10.9735 5.158155 11.078801 5.1541902 11.084377 5.1597902 z M 7.1281068 5.2698588 C 7.1451768 5.2876488 7.1633327 5.3063383 7.1828827 5.3256683 L 7.1823659 5.3256683 C 7.1630059 5.3065383 7.1452168 5.2878888 7.1281068 5.2698588 z M 11.199613 5.6145338 C 11.08043 5.7139199 10.947243 5.8229769 10.852354 5.8987486 L 10.68906 6.0289707 C 10.69536 6.0699007 10.70302 6.1134179 10.71128 6.1566089 C 10.883255 5.9680854 11.049868 5.7830796 11.199613 5.6145338 z M 7.9233914 5.7519904 C 7.9283914 5.7537904 7.9324205 5.755258 7.9378605 5.757158 L 8.24998 5.8641261 L 7.9373437 5.7576747 C 7.9317437 5.7557747 7.9285114 5.7538904 7.9233914 5.7519904 z M 13.307453 5.8491402 C 12.951508 6.6904672 12.534581 7.5028398 12.086363 8.2210418 C 12.054593 8.2719611 12.023638 8.3212389 11.996448 8.3657329 C 12.017188 8.4156028 12.040149 8.4726288 12.064659 8.5300608 C 12.260653 8.9893956 12.431113 9.4809233 12.533355 9.8989425 C 12.534155 9.9021325 12.534648 9.9054908 12.535422 9.9087608 C 12.654573 9.8123556 12.801659 9.7424892 12.978797 9.6999922 C 13.354059 9.6099684 13.704623 9.7035164 13.969415 9.996609 C 14.041402 10.07629 14.098167 10.160607 14.142011 10.249302 L 15.160017 9.2312961 C 15.583708 8.8076041 15.583708 8.1253949 15.160017 7.7017039 L 13.307453 5.8491402 z M 7.4149053 5.9183853 C 7.5377523 5.9200853 7.6560601 5.9336656 7.7368431 5.9597256 C 7.6543231 5.9343956 7.5103693 5.9204553 7.4149053 5.9183853 z M 7.1193219 5.9390555 L 7.0660963 5.9943481 C 6.6551153 6.4239991 5.3294858 7.7804776 4.4626888 8.6607996 C 5.0159208 7.9269166 5.628476 7.1782979 6.068244 6.7136699 C 6.068244 6.7254299 6.4035735 6.3456977 6.4707955 6.2811467 C 6.6206735 6.1372237 6.8079296 6.0275616 7.0128706 5.9638596 C 7.0443806 5.9540596 7.0805949 5.9456955 7.1193219 5.9390555 z M 7.968349 6.0057167 C 7.9616304 6.0070215 7.9553395 6.0083034 7.9492291 6.0088173 C 7.9381591 6.0096983 7.9260428 6.0095835 7.9120228 6.0083005 C 7.9315546 6.0097785 7.9497808 6.00897 7.968349 6.0057167 z M 10.501995 6.9317402 C 10.543286 7.0257632 10.580343 7.1141975 10.633767 7.224223 L 10.625499 7.2076869 C 10.573675 7.1019799 10.541126 7.0209051 10.501995 6.9317402 z M 10.650303 7.2588456 C 10.690293 7.3393956 10.733839 7.4250259 10.781559 7.5167059 C 11.462089 8.8240419 11.725623 9.4864031 11.85589 10.218813 C 11.89135 10.418158 11.902269 10.799821 11.887929 11.043553 C 11.884129 11.039053 11.871573 11.029567 11.850723 11.027017 C 11.855523 11.029617 11.859602 11.032151 11.863642 11.034251 C 11.867942 11.036451 11.872157 11.038336 11.875527 11.039936 C 11.878527 11.041436 11.881078 11.042553 11.883278 11.043553 C 11.885078 11.044401 11.886212 11.04512 11.887412 11.04562 C 11.881612 11.14269 11.871867 11.217567 11.857957 11.249738 C 11.857317 11.251219 11.855953 11.253323 11.854857 11.254389 C 11.854618 11.254585 11.853565 11.255244 11.853307 11.255422 C 11.819924 11.274714 11.641062 11.16581 11.012548 10.748486 C 10.415095 10.351782 10.044777 10.099345 9.7981754 9.9190959 L 9.7630362 9.4276627 C 9.7505962 9.2526667 9.7845345 9.0143495 9.8317645 8.8985065 C 9.8559545 8.8391765 9.9699002 8.6284054 10.06017 8.4887204 C 10.163526 8.3287864 10.312852 8.0372463 10.388825 7.8500123 C 10.431125 7.7457523 10.478576 7.638993 10.514397 7.564764 C 10.514421 7.564715 10.555757 7.4846571 10.555737 7.4846671 C 10.559937 7.4787671 10.564036 7.474735 10.567106 7.472265 L 10.701462 7.3632299 L 10.650303 7.2588456 z M 6.7989344 8.6215262 C 6.8048149 8.6228039 6.8066598 8.6239614 6.8082359 8.6251435 C 6.8098934 8.6263648 6.8133116 8.6290584 6.8196045 8.6411629 C 6.8205253 8.642934 6.821661 8.6440929 6.822705 8.6463304 C 6.823292 8.6476304 6.8239721 8.6498147 6.8247721 8.6520147 C 6.8231602 8.647995 6.8214143 8.6443961 6.8196045 8.6411629 C 6.8141753 8.6314632 6.8075112 8.6248774 6.7989344 8.6215262 z M 6.8433752 8.7217766 C 6.8453752 8.7301766 6.8472595 8.7386475 6.8490595 8.7470975 C 6.8500595 8.7518975 6.8510433 8.7567399 6.8516433 8.7610499 C 6.8508713 8.7567499 6.8496428 8.7518875 6.8485428 8.7470975 C 6.8465428 8.7380975 6.8450752 8.7297366 6.8433752 8.7217766 z M 5.3675254 10.248785 L 5.3675254 10.331982 C 5.3621254 10.297292 5.3619254 10.268865 5.3675254 10.248785 z M 13.214437 10.388309 C 13.221668 10.387944 13.229038 10.388092 13.236141 10.388309 C 13.406598 10.393509 13.537925 10.564491 13.537925 10.827033 C 13.537925 11.147724 13.281622 11.86758 12.891983 12.641357 C 12.468655 13.482035 12.021674 14.177466 11.815584 14.31564 C 11.695325 14.39627 11.62826 14.398092 11.553589 14.323392 C 11.467829 14.237632 11.483376 14.121727 11.611466 13.887251 C 12.285127 12.654136 12.758029 11.474959 12.834106 10.839435 C 12.857256 10.646029 12.928339 10.51904 13.05631 10.441018 C 13.110613 10.407908 13.163822 10.390862 13.214437 10.388309 z M 4.636835 10.483391 L 4.6373517 10.483391 L 4.6378685 10.483391 L 4.6378685 10.483908 L 4.6383853 10.483908 L 4.638902 10.484425 C 4.6401301 10.486437 4.6413193 10.491454 4.6425193 10.498894 C 4.7077193 10.901956 4.873678 11.432856 5.042487 11.778377 C 5.202176 12.10523 5.3940822 12.360384 5.6894632 12.638256 C 5.8421906 12.781931 5.9071347 12.846947 5.9023659 12.852192 C 5.9021759 12.852184 5.9010426 12.852232 5.9008156 12.852192 C 5.8934309 12.850231 5.8716949 12.836009 5.8372549 12.811886 C 5.8091061 12.792172 5.7842477 12.77905 5.7757611 12.778297 C 5.7754985 12.778301 5.7749488 12.778776 5.7747276 12.778813 L 5.7742109 12.778813 L 5.7736941 12.778813 L 5.7736941 12.77933 L 5.7731774 12.779847 L 5.7731774 12.780364 L 5.7731774 12.78088 L 5.7726606 12.78088 L 5.7726606 12.781397 L 5.7721439 12.781397 L 5.7716271 12.781397 C 5.758641 12.783461 5.6831266 12.764394 5.5933469 12.735406 C 5.4639049 12.693616 5.3040896 12.672914 5.0223336 12.662544 C 4.6746776 12.649754 4.5860782 12.657358 4.2244652 12.728688 C 3.7698682 12.818308 3.7030875 12.809348 3.6477675 12.650658 C 3.6202775 12.571808 3.63238 12.55264 3.888575 12.273428 C 4.318591 11.804782 4.483273 11.567574 4.60738 11.237853 C 4.67034 11.070578 4.6759841 11.028496 4.6513041 10.898345 C 4.6358041 10.816615 4.6248567 10.677081 4.6270167 10.588293 C 4.6284667 10.52983 4.6322653 10.491888 4.6363182 10.484425 L 4.6363182 10.483908 L 4.636835 10.483908 L 4.636835 10.483391 z M 5.7168512 11.074041 C 5.8411382 11.25566 6.0368728 11.455455 6.2346388 11.613016 C 6.4327068 11.770817 6.6622593 11.909952 6.8537103 11.979395 C 6.4630583 11.8377 5.9719182 11.446774 5.7168512 11.074041 z M 3.8456844 11.206847 C 3.8203478 11.214395 3.7947085 11.221483 3.7692048 11.227517 L 3.8079613 11.265757 C 3.8224138 11.244835 3.8347413 11.225086 3.8456844 11.206847 z M 4.7412193 11.632653 C 4.7251193 11.646243 4.7070601 11.66109 4.6869601 11.67761 C 4.6615901 11.69846 4.6263858 11.727755 4.5846428 11.762875 C 4.4622838 11.950503 4.2961138 12.151138 4.0487688 12.420703 C 3.9965588 12.477603 3.9546998 12.524156 3.9226808 12.560743 C 3.9846208 12.552643 4.0708431 12.537309 4.1826081 12.515269 C 4.5595041 12.440969 4.6675337 12.432147 5.0306017 12.445507 C 5.0984517 12.448007 5.1607794 12.450909 5.2181834 12.454809 C 5.0708424 12.275485 4.9526949 12.089998 4.8471539 11.873977 C 4.8113939 11.800777 4.7759463 11.71925 4.7412193 11.632653 z M 7.2634963 12.080162 C 7.3964363 12.099772 7.5383159 12.106798 7.6386599 12.095148 C 7.5371254 12.106933 7.4032543 12.100792 7.2634963 12.080162 z M 7.8892856 12.093597 C 7.9248056 12.095197 7.961858 12.097315 7.999871 12.100315 C 8.052431 12.104415 8.1069748 12.109221 8.1621318 12.115301 C 8.0658218 12.104901 7.9726716 12.097747 7.8892856 12.093597 z M 5.948357 12.864078 L 5.9488738 12.864078 L 5.9493905 12.864078 L 5.9499073 12.864078 C 5.9543463 12.864699 5.9695652 12.871764 5.9964152 12.884748 C 6.0275564 12.899842 6.0539156 12.918103 6.0599759 12.927122 C 6.0601403 12.927422 6.0603817 12.928394 6.0604927 12.928672 L 6.0610094 12.929189 L 6.0610094 12.929706 C 6.0610096 12.933832 6.0601809 12.937475 6.0589424 12.939524 L 6.0584257 12.940041 L 6.0579089 12.940557 L 6.0573922 12.941074 L 6.0568754 12.941074 L 6.0563586 12.941591 L 6.0558419 12.941591 L 6.0553251 12.941591 C 6.0466641 12.94297 6.0265325 12.929768 5.9871136 12.898184 C 5.9647573 12.880272 5.9518961 12.869638 5.9488738 12.865628 L 5.948357 12.865111 L 5.948357 12.864595 L 5.948357 12.864078 z M 4.540202 12.87803 L 5.0776263 13.421656 C 5.7001473 14.051665 6.0142672 14.331952 6.3767462 14.580218 C 6.6209802 14.747497 6.7224547 14.861925 6.7224547 14.970368 C 6.7224537 15.070248 6.6293408 15.192067 6.5121358 15.245281 C 6.4459658 15.275321 6.3720507 15.300117 6.3483247 15.300057 C 6.2234687 15.299698 6.0550428 15.155384 5.5116998 14.585386 C 4.6581818 13.689997 4.2007062 13.201691 4.1045782 13.083182 L 4.0198305 12.978797 L 4.2797579 12.928155 L 4.540202 12.87803 z M 11.159823 13.284199 C 11.222134 13.326842 11.28254 13.370246 11.341203 13.413904 L 11.54067 13.562213 L 11.53912 13.564796 L 11.395463 13.455245 C 11.319943 13.397507 11.241324 13.340075 11.159823 13.284199 z M 7.1896005 14.06088 L 7.1896005 14.062947 L 7.1896005 14.064498 L 7.1875335 14.064498 C 7.1617027 14.077548 7.1021477 14.112877 7.0294067 14.158547 C 7.2550388 14.352039 7.4190812 14.60476 7.4391927 14.897505 L 7.7017039 15.160017 C 8.1253949 15.583708 8.8076041 15.583708 9.2312961 15.160017 L 10.090658 14.300654 C 9.6525624 14.225203 9.0322601 14.16614 8.2380947 14.134776 C 7.9338373 14.122756 7.4102273 14.093302 7.2443764 14.068632 C 7.2249554 14.065732 7.2073358 14.06288 7.1932178 14.06088 L 7.1911508 14.06088 L 7.1896005 14.06088 z "
     class="ColorScheme-Text" />
</svg>
