<?xml version="1.0" encoding="UTF-8" standalone="no"?>
<svg
   width="64"
   height="64"
   version="1.1"
   viewBox="0 0 16.933 16.933"
   id="svg7"
   sodipodi:docname="supersonic-desktop.svg"
   inkscape:version="1.4.3 (0d15f75042, 2025-12-25)"
   xmlns:inkscape="http://www.inkscape.org/namespaces/inkscape"
   xmlns:sodipodi="http://sodipodi.sourceforge.net/DTD/sodipodi-0.dtd"
   xmlns="http://www.w3.org/2000/svg"
   xmlns:svg="http://www.w3.org/2000/svg"
   xmlns:rdf="http://www.w3.org/1999/02/22-rdf-syntax-ns#"
   xmlns:cc="http://creativecommons.org/ns#"
   xmlns:dc="http://purl.org/dc/elements/1.1/">
  <sodipodi:namedview
     id="namedview7"
     pagecolor="#9c4444"
     bordercolor="#000000"
     borderopacity="0.25"
     inkscape:showpageshadow="2"
     inkscape:pageopacity="0.0"
     inkscape:pagecheckerboard="0"
     inkscape:deskcolor="#d1d1d1"
     inkscape:zoom="6.15625"
     inkscape:cx="15.837563"
     inkscape:cy="30.050761"
     inkscape:window-width="2560"
     inkscape:window-height="1388"
     inkscape:window-x="0"
     inkscape:window-y="0"
     inkscape:window-maximized="1"
     inkscape:current-layer="svg7"
     showgrid="false" />
  <defs
     id="defs2">
    <style
       id="current-color-scheme"
       type="text/css">.ColorScheme-Text {color:#d8dee9} .ColorScheme-Highlight {color:#3b4252}</style>
  </defs>
  <metadata
     id="metadata2">
    <rdf:RDF>
      <cc:Work
         rdf:about="">
        <dc:format>image/svg+xml</dc:format>
        <dc:type
           rdf:resource="http://purl.org/dc/dcmitype/StillImage" />
      </cc:Work>
    </rdf:RDF>
  </metadata>
  <path
     id="path5"
     style="fill:currentColor"
     d="m 3.47768,1.45518 c -1.12047,0 -2.0225,0.90203 -2.0225,2.0225 v 9.97764 c 0,1.12047 0.90203,2.0225 2.0225,2.0225 h 9.97764 c 1.12047,0 2.0225,-0.90203 2.0225,-2.0225 V 3.47768 c 0,-1.12047 -0.90203,-2.0225 -2.0225,-2.0225 z m 6.69193,0.97946 h 0.0726 c 0.1977,0 0.35715,0.15945 0.35715,0.35715 v 3.62388 c 0,0.1977 -0.15945,0.35715 -0.35715,0.35715 h -0.0726 c -0.1977,0 -0.35715,-0.15945 -0.35715,-0.35715 V 2.79179 c 0,-0.1977 0.15945,-0.35715 0.35715,-0.35715 z M 9.01616,2.59942 h 0.0725 c 0.1977,0 0.35715,0.15945 0.35715,0.35715 v 3.62387 c 0,0.19771 -0.15945,0.35715 -0.35715,0.35715 h -0.0725 c -0.19771,0 -0.35715,-0.15944 -0.35715,-0.35715 V 2.95657 c 0,-0.1977 0.15944,-0.35715 0.35715,-0.35715 z M 2.082,3.04052 h 0.0726 c 0.1977,0 0.35715,0.15945 0.35715,0.35715 v 3.62388 c 0,0.077 -0.0242,0.14822 -0.0654,0.20646 V 5.90109 c 0,-0.18804 -0.13151,-0.35715 -0.31494,-0.35715 h -0.0161 c -0.18343,0 -0.31494,0.16911 -0.31494,0.35715 v 1.34046 c -0.0473,-0.0606 -0.0755,-0.13692 -0.0755,-0.22 V 3.39767 c 0,-0.1977 0.15944,-0.35715 0.35715,-0.35715 z m 9.24109,1.79197 h 0.0725 c 0.1977,0 0.35715,0.15944 0.35715,0.35715 v 3.62387 c 0,0.0795 -0.0258,0.1528 -0.0695,0.21205 v -0.5999 c 0,-0.18804 -0.13151,-0.35715 -0.31493,-0.35715 h -0.0161 c -0.18343,0 -0.31491,0.16912 -0.31491,0.35715 V 9.0283 C 10.9924,8.9686 10.9658,8.89422 10.9658,8.81351 V 5.18964 c 0,-0.19771 0.15945,-0.35715 0.35715,-0.35715 z M 7.85967,5.21018 h 0.0726 c 0.1977,0 0.35715,0.15944 0.35715,0.35715 V 9.1912 c 0,0.0819 -0.0274,0.15726 -0.0735,0.21742 V 8.3935 c 0,-0.18803 -0.13148,-0.35715 -0.31491,-0.35715 H 7.88491 C 7.70148,8.03635 7.57,8.20546 7.57,8.3935 V 9.40051 C 7.5275,9.34171 7.5025,9.26947 7.5025,9.1912 V 5.56733 c 0,-0.19771 0.15945,-0.35715 0.35715,-0.35715 z m -5.74441,0.4317 h 0.0161 c 0.1202,0 0.21697,0.11562 0.21697,0.25921 v 3.62804 c 0,0.14359 -0.0968,0.25921 -0.21697,0.25921 h -0.0161 c -0.1202,0 -0.21697,-0.11562 -0.21697,-0.25921 V 5.90109 c 0,-0.14359 0.0968,-0.25921 0.21697,-0.25921 z M 3.23911,5.9816 h 0.0726 c 0.1977,0 0.35715,0.15944 0.35715,0.35714 v 3.62388 c 0,0.0807 -0.0266,0.15514 -0.0715,0.21486 0.004,-0.0228 0.006,-0.0461 0.006,-0.0698 V 6.47962 c 0,-0.18803 -0.13145,-0.35715 -0.31488,-0.35715 h -0.0161 c -0.18343,0 -0.31491,0.16911 -0.31491,0.35715 v 3.62806 c 0,0.0295 0.003,0.0585 0.009,0.0864 -0.053,-0.0623 -0.0849,-0.14308 -0.0849,-0.23153 V 6.33867 c 0,-0.1977 0.15945,-0.35714 0.35715,-0.35714 z m 0.0333,0.23888 h 0.0161 c 0.1202,0 0.21694,0.11559 0.21694,0.25918 v 3.62806 c 0,0.1436 -0.0967,0.25919 -0.21694,0.25919 h -0.0161 c -0.1202,0 -0.21697,-0.11559 -0.21697,-0.25919 V 6.47966 c 0,-0.14359 0.0968,-0.25918 0.21697,-0.25918 z m 1.14911,0.59463 h 0.0161 c 0.1202,0 0.21697,0.11559 0.21697,0.25919 v 3.62806 c 0,0.14359 -0.0968,0.25918 -0.21697,0.25918 h -0.0161 c -0.1202,0 -0.21697,-0.11559 -0.21697,-0.25918 V 7.0743 c 0,-0.1436 0.0968,-0.25919 0.21697,-0.25919 z m 5.93779,0.0404 v 1.42278 c -0.0433,-0.0261 -0.0934,-0.0411 -0.14803,-0.0411 h -0.0161 c -0.0478,0 -0.092,0.0115 -0.13136,0.0318 V 6.8584 c 0.034,0.008 0.0694,0.0123 0.10579,0.0123 h 0.0726 c 0.0405,0 0.0798,-0.005 0.11714,-0.0152 z m 4.45276,0.026 h 0.0161 c 0.1202,0 0.21697,0.11559 0.21697,0.25918 v 3.62806 c 0,0.1436 -0.0968,0.25919 -0.21697,0.25919 h -0.0161 c -0.1202,0 -0.21697,-0.11559 -0.21697,-0.25919 V 7.14069 c 0,-0.14359 0.0968,-0.25918 0.21697,-0.25918 z m -5.90738,0.1402 c 0.0357,0.009 0.073,0.0138 0.11148,0.0138 h 0.0725 c 0.0384,0 0.0758,-0.005 0.11145,-0.0138 v 1.24091 c -0.0419,-0.0239 -0.0899,-0.0375 -0.142,-0.0375 h -0.0161 c -0.0502,0 -0.0966,0.0127 -0.13739,0.035 z m 3.59001,0.0735 h 0.0363 c 0.0718,0 0.1296,0.0578 0.1296,0.12959 v 0.56675 c -0.0411,-0.0227 -0.0879,-0.0357 -0.13868,-0.0357 h -0.0161 c -0.0516,0 -0.0991,0.0134 -0.1407,0.0368 V 7.2248 c 0,-0.0718 0.0578,-0.12959 0.12959,-0.12959 z M 6.72166,7.24863 h 0.0363 c 0.0718,0 0.12959,0.0578 0.12959,0.1296 v 0.3863 C 6.84665,7.74213 6.80025,7.72943 6.74987,7.72943 h -0.0161 c -0.052,0 -0.0999,0.0136 -0.14173,0.0374 V 7.37827 c 0,-0.0718 0.0578,-0.1296 0.12959,-0.1296 z m -1.143,0.11279 h 0.0161 c 0.1202,0 0.21697,0.1156 0.21697,0.25919 v 3.62806 c 0,0.14359 -0.0968,0.25919 -0.21697,0.25919 h -0.0161 c -0.1202,0 -0.21697,-0.1156 -0.21697,-0.25919 V 7.62061 c 0,-0.14359 0.0968,-0.25919 0.21697,-0.25919 z m 8.08027,0.0504 h 0.0161 c 0.1202,0 0.21697,0.11559 0.21697,0.25918 v 3.62807 c 0,0.14359 -0.0968,0.25921 -0.21697,0.25921 h -0.0161 c -0.1202,0 -0.21697,-0.11562 -0.21697,-0.25921 V 7.671 c 0,-0.14359 0.0968,-0.25918 0.21697,-0.25918 z M 6.7338,7.82735 h 0.0161 c 0.1202,0 0.21697,0.11559 0.21697,0.25919 v 3.62803 c 0,0.1436 -0.0968,0.25919 -0.21697,0.25919 H 6.7338 c -0.1202,0 -0.21697,-0.11559 -0.21697,-0.25919 V 8.08654 c 0,-0.1436 0.0968,-0.25919 0.21697,-0.25919 z m 5.77201,0.0264 h 0.0161 c 0.1202,0 0.21697,0.11559 0.21697,0.25919 V 11.741 c 0,0.14359 -0.0968,0.25919 -0.21697,0.25919 h -0.0161 c -0.12019,0 -0.21697,-0.1156 -0.21697,-0.25919 V 8.11294 c 0,-0.1436 0.0968,-0.25919 0.21697,-0.25919 z m -4.6209,0.28039 h 0.0161 c 0.1202,0 0.21695,0.11559 0.21695,0.25918 v 3.62806 c 0,0.1436 -0.0968,0.25919 -0.21695,0.25919 h -0.0161 c -0.1202,0 -0.21697,-0.11559 -0.21697,-0.25919 V 8.39332 c 0,-0.14359 0.0968,-0.25918 0.21697,-0.25918 z m 3.46742,0.0321 h 0.0161 c 0.1202,0 0.21697,0.11562 0.21697,0.25922 v 3.62803 c 0,0.14359 -0.0968,0.25921 -0.21697,0.25921 h -0.0161 c -0.12019,0 -0.21694,-0.11562 -0.21694,-0.25921 V 8.42546 c 0,-0.1436 0.0968,-0.25922 0.21694,-0.25922 z m 1.48448,0.11698 c 0.0459,0.0601 0.0731,0.13525 0.0731,0.21695 v 3.62387 c 0,0.1977 -0.15945,0.35715 -0.35715,0.35715 h -0.0726 c -0.1977,0 -0.35715,-0.15945 -0.35715,-0.35715 V 8.50017 c 0,-0.0785 0.0251,-0.15092 0.0678,-0.20976 v 3.45057 c 0,0.18804 0.13151,0.35715 0.31493,0.35715 h 0.0161 c 0.18343,0 0.31493,-0.16911 0.31493,-0.35715 z m -3.79473,0.0397 h 0.0161 c 0.1202,0 0.21695,0.1156 0.21695,0.25919 v 3.62806 c 0,0.1436 -0.0968,0.25919 -0.21695,0.25919 h -0.0161 c -0.1202,0 -0.21697,-0.11559 -0.21697,-0.25919 V 8.58211 c 0,-0.14359 0.0968,-0.25919 0.21697,-0.25919 z m 1.15311,0.0121 h 0.0161 c 0.1202,0 0.21695,0.11562 0.21695,0.25921 v 3.62803 c 0,0.1436 -0.0968,0.25919 -0.21695,0.25919 h -0.0161 c -0.1202,0 -0.21697,-0.11559 -0.21697,-0.25919 V 8.59423 c 0,-0.14359 0.0968,-0.25921 0.21697,-0.25921 z M 6.41886,8.62027 v 3.09426 c 0,0.18804 0.13151,0.35715 0.31494,0.35715 h 0.0161 c 0.18343,0 0.31494,-0.16911 0.31494,-0.35715 V 8.62836 c 0.0425,0.0588 0.0674,0.13103 0.0674,0.2093 v 3.62388 c 0,0.1977 -0.15945,0.35715 -0.35715,0.35715 h -0.0726 c -0.1977,0 -0.35715,-0.15945 -0.35715,-0.35715 V 8.83766 c 0,-0.0819 0.0274,-0.15723 0.0735,-0.21739 z M 4.75252,9.23903 c 0.0461,0.0602 0.0735,0.13551 0.0735,0.21742 v 3.62387 c 0,0.19771 -0.15945,0.35715 -0.35715,0.35715 h -0.0726 c -0.1977,0 -0.35715,-0.15944 -0.35715,-0.35715 V 9.45645 c 0,-0.0783 0.025,-0.15055 0.0674,-0.20931 v 1.45504 c 0,0.18804 0.13151,0.35715 0.31494,0.35715 h 0.0161 c 0.18343,0 0.31494,-0.16911 0.31494,-0.35715 z m 9.74461,0.2541 v 1.27554 c 0,0.18804 0.13151,0.35715 0.31494,0.35715 h 0.0161 c 0.18343,0 0.31494,-0.16911 0.31494,-0.35715 V 9.50756 c 0.041,0.0582 0.0651,0.12921 0.0651,0.20602 v 3.62388 c 0,0.1977 -0.15944,0.35714 -0.35715,0.35714 h -0.0726 c -0.1977,0 -0.35715,-0.15944 -0.35715,-0.35714 V 9.71358 c 0,-0.0833 0.0283,-0.1598 0.0758,-0.22045 z m -1.15311,0.74453 v 1.06137 c 0,0.18803 0.13148,0.35715 0.31491,0.35715 h 0.0161 c 0.18342,0 0.31491,-0.16912 0.31491,-0.35715 V 10.2413 c 0.0435,0.0592 0.0691,0.13229 0.0691,0.21157 v 3.62388 c 0,0.1977 -0.15945,0.35715 -0.35715,0.35715 h -0.0725 c -0.1977,0 -0.35715,-0.15945 -0.35715,-0.35715 v -3.62388 c 0,-0.0809 0.0267,-0.15542 0.0718,-0.21521 z m -7.43436,0.0621 c 0.0461,0.0601 0.0735,0.13547 0.0735,0.21736 V 14.141 c 0,0.1977 -0.15945,0.35715 -0.35715,0.35715 h -0.0725 c -0.1977,0 -0.35715,-0.15945 -0.35715,-0.35715 v -3.62388 c 0,-0.0783 0.025,-0.15055 0.0675,-0.2093 v 0.94077 c 0,0.18804 0.13148,0.35715 0.31491,0.35715 h 0.0161 c 0.18343,0 0.31491,-0.16911 0.31491,-0.35715 z"
     class="ColorScheme-Text" />
</svg>
