<?xml version="1.0" encoding="UTF-8" standalone="no"?>
<svg
   width="64"
   height="64"
   version="1.1"
   viewBox="0 0 16.933 16.933"
   id="svg7"
   sodipodi:docname="Superposition.svg"
   inkscape:version="1.4.3 (0d15f75042, 2025-12-25)"
   xmlns:inkscape="http://www.inkscape.org/namespaces/inkscape"
   xmlns:sodipodi="http://sodipodi.sourceforge.net/DTD/sodipodi-0.dtd"
   xmlns="http://www.w3.org/2000/svg"
   xmlns:svg="http://www.w3.org/2000/svg"
   xmlns:rdf="http://www.w3.org/1999/02/22-rdf-syntax-ns#"
   xmlns:cc="http://creativecommons.org/ns#"
   xmlns:dc="http://purl.org/dc/elements/1.1/">
  <sodipodi:namedview
     id="namedview7"
     pagecolor="#9c4444"
     bordercolor="#000000"
     borderopacity="0.25"
     inkscape:showpageshadow="2"
     inkscape:pageopacity="0.0"
     inkscape:pagecheckerboard="0"
     inkscape:deskcolor="#d1d1d1"
     inkscape:zoom="17.412504"
     inkscape:cx="34.25699"
     inkscape:cy="23.948307"
     inkscape:window-width="2560"
     inkscape:window-height="1388"
     inkscape:window-x="0"
     inkscape:window-y="0"
     inkscape:window-maximized="1"
     inkscape:current-layer="svg7"
     showgrid="true">
    <inkscape:grid
       id="grid1"
       units="px"
       originx="0"
       originy="0"
       spacingx="0.26457812"
       spacingy="0.26457812"
       empcolor="#0099e5"
       empopacity="0.30196078"
       color="#0099e5"
       opacity="0.14902"
       empspacing="5"
       enabled="true"
       visible="true" />
  </sodipodi:namedview>
  <defs
     id="defs2">
    <style
       id="current-color-scheme"
       type="text/css">.ColorScheme-Text {color:#d8dee9} .ColorScheme-Highlight {color:#3b4252}</style>
  </defs>
  <metadata
     id="metadata2">
    <rdf:RDF>
      <cc:Work
         rdf:about="">
        <dc:format>image/svg+xml</dc:format>
        <dc:type
           rdf:resource="http://purl.org/dc/dcmitype/StillImage" />
      </cc:Work>
    </rdf:RDF>
  </metadata>
  <path
     id="path5"
     style="fill:currentColor;fill-opacity:1;stroke-width:0.0643243;paint-order:fill markers stroke"
     class="ColorScheme-Text"
     d="m 1.9145742,1.4551822 -0.069245,0.087848 c -0.077803,0.098917 -0.06941,0.2362828 0.021187,0.3364069 0.048608,0.05371 0.1233686,0.057876 0.9322245,0.057876 H 3.6787729 V 2.0825217 2.2266961 H 3.0777878 c -0.5136469,0 -0.6095859,0.00822 -0.659895,0.053743 -0.0776,0.070231 -0.074609,0.2198732 0.00568,0.3002341 0.059683,0.059683 0.1077675,0.064594 0.659895,0.064594 h 0.5953008 v 0.1426241 0.1431409 l -0.6139039,0.0093 c -0.5639762,0.0091 -0.6179999,0.015414 -0.6598951,0.072862 -0.061039,0.083591 -0.057607,0.2089889 0.00775,0.2811142 0.04798,0.053022 0.1135583,0.057876 0.6598951,0.057876 H 3.6787729 V 3.513414 3.6741245 H 3.0907067 c -0.662991,0 -0.7306904,0.018801 -0.7306904,0.2005006 0,0.206233 0.037913,0.2180703 0.712604,0.2180703 H 3.6787729 V 4.2534059 4.4141165 H 3.0777878 c -0.6727756,0 -0.7177715,0.013032 -0.7177715,0.2118692 0,0.1880972 0.063024,0.2061849 0.7306904,0.2061849 H 3.6787729 V 4.9768617 5.1210361 H 2.8080422 1.9383449 l -0.078547,0.07958 c -0.043426,0.043426 -0.079063,0.116943 -0.079063,0.1627775 0,0.045835 0.035657,0.1183184 0.079063,0.1617441 l 0.078547,0.07958 H 2.8080422 3.6787729 V 5.7488924 5.8935836 H 3.0907067 c -0.4799913,0 -0.6010137,0.00916 -0.6593783,0.050125 -0.076973,0.053912 -0.093327,0.1704381 -0.03824,0.273363 0.031158,0.05823 0.072843,0.06201 0.6588615,0.06201 h 0.626823 V 6.4563289 6.6330588 H 3.0777878 c -0.5136469,0 -0.6095859,0.00824 -0.659895,0.053742 -0.073226,0.06628 -0.075383,0.195695 -0.00517,0.273363 0.047981,0.05302 0.1135583,0.05891 0.6598951,0.05891 h 0.606155 V 7.195804 7.3730507 H 3.0777878 c -0.5136469,0 -0.6095859,0.00723 -0.659895,0.052709 -0.073226,0.06628 -0.075383,0.1967285 -0.00517,0.2743965 0.047981,0.05302 0.1135583,0.058393 0.6598951,0.058393 H 3.6787705 V 7.9177095 8.076353 L 3.0643498,8.086688 c -0.5639762,0.0091 -0.617483,0.014379 -0.6593783,0.071829 -0.061039,0.08359 -0.057607,0.2089893 0.00775,0.2811143 0.04798,0.05302 0.1135583,0.059427 0.6598951,0.059427 H 3.6787729 V 8.6432324 8.7879236 H 2.8080422 1.9383449 l -0.078547,0.078547 c -0.096467,0.09648 -0.1012997,0.2064239 -0.012919,0.3188369 l 0.066661,0.085265 H 2.7961568 3.6787729 V 9.4157799 9.5599543 H 3.0777878 c -0.5136469,0 -0.6095859,0.00773 -0.659895,0.053226 -0.077599,0.07023 -0.074609,0.2198691 0.00568,0.3002341 0.059683,0.05968 0.1077657,0.065111 0.659895,0.065111 h 0.5953008 v 0.1607106 0.160711 H 3.0777878 c -0.5136469,0 -0.6095859,0.0072 -0.659895,0.05271 -0.07019,0.06352 -0.07622,0.199656 -0.012919,0.286281 0.041888,0.05737 0.095407,0.0642 0.6593783,0.07338 l 0.6144207,0.0093 v 0.141074 0.140557 l -0.6144207,0.01033 c -0.5639762,0.0091 -0.6174831,0.0144 -0.6593783,0.07183 -0.061039,0.08357 -0.057607,0.20899 0.00775,0.281114 0.047981,0.05302 0.1135583,0.05891 0.6598951,0.05891 h 0.6061526 v 0.160711 0.161227 H 3.0907067 c -0.662991,0 -0.7306904,0.01778 -0.7306904,0.199467 0,0.206234 0.037911,0.21807 0.712604,0.21807 h 0.6061526 v 0.145208 0.144175 H 2.7961568 1.9145742 l -0.069245,0.08785 c -0.077803,0.09891 -0.06941,0.235766 0.021187,0.33589 0.048608,0.0537 0.1233687,0.05839 0.9322245,0.05839 H 3.678773 v 1.270699 1.270698 h 5.7246025 5.7251195 0.02377 v -1.417456 h -0.02377 v -0.0057 l 0.02377,0.0057 V 1.7295786 1.4836037 1.4551822 H 5.8486236 5.6191847 4.7055634 Z m 2.2463303,0.4821316 h 0.3854986 0.3860154 v 2.9113929 2.9098426 h 0.5715301 c 0.6304794,-7.88e-4 0.6563285,-0.00897 0.7601453,-0.2154865 0.045795,-0.09116 0.052192,-0.3243859 0.052192,-2.0375616 0,-1.7238573 -0.00581,-1.9460587 -0.052709,-2.0447962 C 6.1855949,3.2963754 6.0787013,3.2560704 5.7220188,3.2560704 H 5.4150668 V 2.5972089 1.9373138 H 8.7915385 12.16956 v 5.2584902 5.259007 h -0.403068 -0.402035 l 0.0083,-1.825175 0.0083,-1.8251763 0.249593,-0.00982 0.248558,-0.0093 V 8.496991 8.2096757 h -0.389632 -0.39015 l -0.108001,0.1147194 -0.108519,0.1142027 v 2.0081062 2.008107 h -0.225368 -0.225305 v -1.979169 c 0,-1.693353 -0.0069,-1.9931993 -0.04806,-2.0727003 -0.09009,-0.174228 -0.150635,-0.193266 -0.6164879,-0.193266 -0.6895385,0 -0.6857328,-0.00533 -0.6857328,0.9131046 V 9.7852591 H 9.3232785 9.5646027 V 9.2860746 8.7879236 h 0.1917158 c 0.1727711,0 0.1938085,0.00727 0.2098021,0.072346 0.00971,0.03981 0.014359,0.3253343 0.0093,0.6340573 l -0.0093,0.5606781 -0.4082357,0.290933 c -0.2247004,0.159976 -0.4243321,0.324684 -0.4428583,0.365345 -0.02071,0.04544 -0.033072,0.39535 -0.033072,0.908454 v 0.835075 H 8.8566495 8.6318614 v -1.965217 c 0,-1.7521472 -0.00581,-1.977002 -0.052709,-2.075801 C 8.4843855,8.2140957 8.4555613,8.2096757 7.3466939,8.2096757 H 6.3472913 v 2.1228253 2.12231 H 5.2543563 4.1609045 V 7.195804 Z m 8.4907875,0 h 1.012838 1.012838 v 5.2584902 5.259007 h -0.335373 c -0.176038,0 -0.329241,-0.011 -0.35036,-0.02377 l -5.16e-4,-0.001 c -0.0085,-0.01359 -0.1706,-0.4794 -0.360695,-1.035057 l -0.345708,-1.010255 0.113686,-0.340024 c 0.06282,-0.1869659 0.231811,-0.6759781 0.374646,-1.0872511 L 14.032459,8.2096757 H 13.7839 13.534308 l -0.336407,0.9239564 -0.33744,0.9249899 -0.104385,0.01034 -0.104384,0.01033 V 6.9575804 3.8358686 h 0.205151 c 0.157831,0 0.210839,0.01151 0.225822,0.050642 0.01073,0.027978 0.01912,0.9110521 0.01912,1.9621155 v 1.9099233 h 0.225821 0.224272 V 5.6507091 c 0,-1.8074916 -0.0069,-2.1216918 -0.04806,-2.2013726 C 13.417829,3.2830433 13.345874,3.2560704 12.982931,3.2560704 H 12.651692 V 2.5972089 Z M 7.4479777,3.2560704 c -0.4696167,4.65e-5 -0.5770392,0.029017 -0.6438757,0.1756964 -0.028465,0.062477 -0.03824,0.6018473 -0.03824,2.0794187 0,2.1229284 3.239e-4,2.124345 0.1529592,2.213258 0.030954,0.01802 0.2587995,0.032542 0.5069358,0.033072 0.3579437,7.76e-4 0.4666135,-0.00869 0.523472,-0.048575 C 8.1012898,7.6024318 8.1171743,7.517756 8.1171743,6.811339 V 6.1504104 H 7.8918695 7.6660479 v 0.4754138 c -2.551e-4,0.260917 -0.012683,0.4926427 -0.027388,0.5157207 -0.018221,0.02877 -0.086292,0.038739 -0.21652,0.032039 l -0.1901656,-0.0093 -0.00827,-0.7317238 -0.00827,-0.7317239 H 7.6655312 8.1161408 V 4.6213349 c 0,-1.4196621 0.026813,-1.3653197 -0.6671296,-1.3652645 z m 1.1192895,0 V 5.5075682 7.7585493 H 8.8085913 9.0493988 V 5.7969506 3.8348351 h 0.1896488 c 0.1431529,0 0.1940261,0.012316 0.2087686,0.050642 0.01073,0.027978 0.019637,0.9110539 0.019637,1.9621155 V 7.7585493 H 9.6927577 9.9175458 V 5.6222877 3.4865428 L 9.8090274,3.3707898 9.7010258,3.2560704 H 9.1336297 Z m 2.4654338,0 c -0.465836,3e-7 -0.526395,0.018937 -0.616488,0.1932661 -0.0411,0.079482 -0.04806,0.3777275 -0.04806,2.0582317 0,1.6805045 0.0069,1.9782361 0.04806,2.0577151 0.09078,0.175545 0.149383,0.193266 0.636642,0.193266 0.257475,0 0.472996,-0.013936 0.510553,-0.034106 0.03571,-0.01903 0.09208,-0.095225 0.125571,-0.1689786 0.05306,-0.116875 0.0614,-0.2153231 0.06201,-0.7689301 V 6.1504104 h -0.24029 -0.240291 l -0.0093,0.5064191 -0.0083,0.5074525 -0.201534,0.0093 -0.201534,0.0093 0.0083,-1.6665321 0.0083,-1.6649819 h 0.193266 0.193266 l 0.0083,0.5064191 0.0093,0.506419 h 0.240291 0.24029 V 4.2203336 c 0,-0.942732 -0.01589,-0.9642628 -0.718288,-0.9642632 z M 5.4150668,3.8348351 h 0.2051514 c 0.1857085,0 0.2072438,0.00739 0.2247881,0.072862 0.025326,0.094484 0.025326,3.1057854 0,3.2002584 -0.017615,0.06547 -0.039062,0.072346 -0.2247881,0.072346 H 5.4150668 V 5.5075682 Z m 2.0933711,0.00465 c 0.074947,0.00136 0.1165558,0.012467 0.1302221,0.034106 0.014575,0.02308 0.027125,0.3132375 0.027388,0.6449092 V 5.1220696 H 7.4407431 7.2154383 l 0.00827,-0.6356076 0.00827,-0.6350908 0.1901656,-0.010335 c 0.032555,-0.00168 0.061315,-0.00196 0.086298,-0.00155 z m -0.6784982,4.945854 0.2015341,0.0093 0.2005006,0.0093 0.00827,1.8246589 0.00827,1.825176 H 7.0397419 6.8299397 v -1.83396 z m 0.9007025,0.00258 h 0.2056681 c 0.199799,0 0.2056651,0.00296 0.2170368,0.088882 0.00951,0.07259 0.00773,2.9718299 -0.00207,3.4415819 l -0.00258,0.136424 H 7.9399276 7.7306422 v -1.833444 z m 4.9210498,1.8613489 0.102834,0.01034 0.103351,0.0098 0.298684,0.836625 c 0.164065,0.459921 0.30636,0.861478 0.31677,0.892434 0.003,0.0089 0.0046,0.01796 0.0031,0.02429 v 10e-4 l -10e-4,5.17e-4 -0.001,10e-4 v 10e-4 l -10e-4,0.001 c -5.33e-4,7.48e-4 -0.0021,0.003 -0.0031,0.0041 l -5.16e-4,5.16e-4 c -0.02501,0.02053 -0.119976,0.02274 -0.397384,0.02274 h -0.420638 v -0.90277 z m -2.6871216,0.100767 c 0.00971,0 0.01757,0.311097 0.01757,0.691417 v 0.691933 H 9.7733713 9.5646027 V 11.576324 11.01978 l 0.191199,-0.134873 c 0.1052746,-0.07423 0.1990672,-0.134872 0.2087687,-0.134872 z m -5.8036659,2.702107 h 0.1286718 0.128155 v 0.479548 c 0,0.393604 0.00968,0.489274 0.051159,0.530706 0.040915,0.04092 0.1324942,0.05064 0.4805814,0.05064 0.5530987,0 0.5301897,0.02564 0.5301897,-0.602535 V 13.45214 H 5.6098835 5.741139 l -0.00982,0.546209 -0.010335,0.546209 -0.1054178,0.104385 -0.1054179,0.105418 -0.5219217,0.0083 c -0.3909494,0.0059 -0.5469918,-0.0036 -0.622172,-0.03721 -0.1905816,-0.08514 -0.2051514,-0.13753 -0.2051514,-0.734307 z m 3.2178281,0 H 7.524974 7.6717322 l -0.010852,0.581348 -0.010335,0.581866 -0.090432,0.077 c -0.058812,0.05056 -0.130032,0.07751 -0.2046346,0.07751 -0.1343259,0 -0.1612164,-0.02675 -0.6371579,-0.623722 -0.1769021,-0.221877 -0.3334754,-0.403054 -0.346742,-0.403585 -0.013359,-5.35e-4 -0.024287,0.230626 -0.024287,0.513654 v 0.513653 H 6.2191363 6.0904645 v -0.5922 c 0,-0.475056 0.00915,-0.602339 0.046508,-0.639742 0.062861,-0.06286 0.2496717,-0.09393 0.3436415,-0.05788 0.041988,0.01627 0.2573992,0.25362 0.4785143,0.528639 l 0.4020348,0.500735 0.00827,-0.528639 z m 0.6092532,0 h 0.1446911 0.1452079 v 0.658862 0.658861 H 8.1326769 7.9879858 v -0.658861 z m 2.1874202,0 v 0.143141 0.144174 l -0.6350908,0.0093 -0.6356076,0.0083 -0.0093,0.33744 c -0.0079,0.289274 -0.00171,0.342878 0.045991,0.377748 0.068975,0.05043 0.8223145,0.05651 0.9141381,0.0072 0.040024,-0.02142 0.06201,-0.0668 0.06201,-0.128155 V 14.25621 H 9.5646027 9.2106261 v -0.145208 -0.145208 h 0.4821316 0.4826483 v 0.282664 c 0,0.471547 -0.07745,0.522439 -0.7989018,0.522439 -0.4454046,0 -0.4858684,-0.0054 -0.5875495,-0.0739 -0.1538829,-0.103544 -0.1965773,-0.256033 -0.1839645,-0.656278 0.017418,-0.550452 0.073452,-0.584343 0.966847,-0.587033 z m 0.353977,0 h 0.143657 0.145208 v 0.658862 0.658861 H 10.67304 10.529383 v -0.658861 z m 1.93111,0 h 0.143141 0.144174 v 0.564812 0.565329 l -0.09405,0.09405 c -0.09278,0.09278 -0.218145,0.120586 -0.338474,0.07441 -0.02859,-0.01092 -0.236022,-0.246995 -0.460945,-0.523472 l -0.408236,-0.502285 -0.0093,0.522955 -0.0083,0.521922 H 11.28126 11.134502 l 0.01085,-0.57463 c 0.01175,-0.630258 0.02818,-0.68585 0.213936,-0.721906 0.201662,-0.03913 0.247929,-0.0023 0.674364,0.532257 l 0.409269,0.513137 0.0083,-0.533291 z m 2.216875,0 v 0.144174 0.145208 h -0.641292 c -0.601921,0 -0.644187,0.0037 -0.675397,0.06201 -0.08675,0.162111 -0.08433,0.162261 0.641291,0.162261 h 0.675398 v 0.145208 0.145208 h -0.659895 c -0.720651,0 -0.754807,0.0085 -0.644909,0.176213 l 0.05271,0.08061 h 0.625789 0.626306 v 0.128672 0.128155 h -0.650593 c -0.452875,-3.34e-4 -0.675385,-0.0132 -0.72914,-0.04082 -0.04251,-0.02185 -0.107087,-0.08028 -0.144175,-0.130222 -0.05993,-0.08069 -0.06718,-0.134738 -0.06718,-0.487816 0,-0.630889 0.03444,-0.655078 0.972015,-0.657828 z" />
</svg>
