<?xml version="1.0" encoding="UTF-8" standalone="no"?>
<svg
   width="64"
   height="64"
   version="1.1"
   viewBox="0 0 16.933 16.933"
   id="svg7"
   sodipodi:docname="application-sweethome3d.svg"
   inkscape:version="1.4.3 (0d15f75042, 2025-12-25)"
   xmlns:inkscape="http://www.inkscape.org/namespaces/inkscape"
   xmlns:sodipodi="http://sodipodi.sourceforge.net/DTD/sodipodi-0.dtd"
   xmlns="http://www.w3.org/2000/svg"
   xmlns:svg="http://www.w3.org/2000/svg"
   xmlns:rdf="http://www.w3.org/1999/02/22-rdf-syntax-ns#"
   xmlns:cc="http://creativecommons.org/ns#"
   xmlns:dc="http://purl.org/dc/elements/1.1/">
  <sodipodi:namedview
     id="namedview7"
     pagecolor="#9c4444"
     bordercolor="#000000"
     borderopacity="0.25"
     inkscape:showpageshadow="2"
     inkscape:pageopacity="0.0"
     inkscape:pagecheckerboard="0"
     inkscape:deskcolor="#d1d1d1"
     inkscape:zoom="6.15625"
     inkscape:cx="57.258883"
     inkscape:cy="38.010152"
     inkscape:window-width="2560"
     inkscape:window-height="1388"
     inkscape:window-x="0"
     inkscape:window-y="0"
     inkscape:window-maximized="1"
     inkscape:current-layer="svg7"
     showgrid="false" />
  <defs
     id="defs2">
    <style
       id="current-color-scheme"
       type="text/css">.ColorScheme-Text {color:#d8dee9} .ColorScheme-Highlight {color:#3b4252}</style>
  </defs>
  <metadata
     id="metadata2">
    <rdf:RDF>
      <cc:Work
         rdf:about="">
        <dc:format>image/svg+xml</dc:format>
        <dc:type
           rdf:resource="http://purl.org/dc/dcmitype/StillImage" />
      </cc:Work>
    </rdf:RDF>
  </metadata>
  <path
     id="path5"
     style="fill:currentColor"
     d="m 4.6159088,10.668129 -1.989729,1.6089 c 0.09337,0.09402 0.199379,0.175431 0.314472,0.241865 l 4.777176,2.758115 c 0.463722,0.267749 1.034106,0.267747 1.497826,0 l 4.7771752,-2.758115 c 0.114404,-0.06653 0.219621,-0.148259 0.312547,-0.242345 l -1.988766,-1.60842 -3.8501102,2.172929 z m 3.725091,-9.2119909 c -0.219082,0.01791 -0.432118,0.083862 -0.623653,0.1937797 L 2.9401708,4.4089952 C 2.4765288,4.6767123 2.1909758,5.1709827 2.1910178,5.7063096 V 11.22206 c 3.55e-4,0.309705 0.09698,0.610701 0.274561,0.862151 l 2.034928,-1.645925 V 6.121758 l 3.840493,-2.1671594 z m 0.251,-9.584e-4 v 2.499422 L 12.432493,6.1217612 V 10.43877 l 2.034447,1.645445 c 0.177916,-0.251395 0.274469,-0.552173 0.275042,-0.862152 V 5.7063138 C 14.742352,5.1705851 14.45674,4.6759103 13.992829,4.4080378 L 9.2151718,1.6508837 C 9.0239608,1.5404005 8.8112598,1.4737202 8.5919998,1.4551797 Z m -3.974951,4.6008187 -0.116542,0.065764 v 0.171289 l 3.840493,2.1421956 -0.0044,4.332517 0.129891,0.0733 0.121781,-0.06873 0.0037,-4.3370835 3.8404932,-2.1463454 V 6.1217618 L 12.312307,6.0539578 8.4669518,8.2179074 Z"
     class="ColorScheme-Text" />
</svg>
