<?xml version='1.0' encoding='UTF-8'?>
<svg xmlns:inkscape="http://www.inkscape.org/namespaces/inkscape" xmlns:sodipodi="http://sodipodi.sourceforge.net/DTD/sodipodi-0.dtd" xmlns="http://www.w3.org/2000/svg" xmlns:svg="http://www.w3.org/2000/svg" xmlns:rdf="http://www.w3.org/1999/02/22-rdf-syntax-ns#" xmlns:cc="http://creativecommons.org/ns#" xmlns:dc="http://purl.org/dc/elements/1.1/" width="64" height="64" version="1.1" viewBox="0 0 16.933 16.933" id="svg7" sodipodi:docname="sweeper.svg" inkscape:version="1.4.2 (ebf0e940d0, 2025-05-08)">
  <sodipodi:namedview id="namedview7" pagecolor="#9c4444" bordercolor="#000000" borderopacity="0.25" inkscape:showpageshadow="2" inkscape:pageopacity="0.0" inkscape:pagecheckerboard="0" inkscape:deskcolor="#d1d1d1" inkscape:zoom="4.3531261" inkscape:cx="36.295755" inkscape:cy="40.660435" inkscape:window-width="2560" inkscape:window-height="1376" inkscape:window-x="0" inkscape:window-y="0" inkscape:window-maximized="1" inkscape:current-layer="svg7" showgrid="false"/>
  <defs id="defs2">
    <style id="current-color-scheme" type="text/css">.ColorScheme-Text {color:#d8dee9} .ColorScheme-Highlight {color:#3b4252}</style>
    </defs>
  <metadata id="metadata2">
    <rdf:RDF>
      <cc:Work rdf:about="">
        <dc:format>image/svg+xml</dc:format>
        <dc:type rdf:resource="http://purl.org/dc/dcmitype/StillImage"/>
      </cc:Work>
    </rdf:RDF>
  </metadata>
  <path id="path24-6" style="fill:currentColor;fill-opacity:1;stroke-width:0.489926" class="ColorScheme-Text" d="m 46.081038,-8.7310781 a 0.56071002,0.56071002 0 0 0 -0.497635,0.2821477 l -1.842745,3.1299799 -0.950311,-0.5865159 c -0.424213,-0.2114899 -0.686058,-0.082143 -0.847993,0.2459749 l -0.0093,0.5090029 3.373888,1.9740008 0.349326,-0.1214372 c 0.367414,-0.2713009 0.245379,-0.7190858 -0.09302,-0.8955349 l -0.868664,-0.5358741 1.855148,-3.1501333 a 0.56071002,0.56071002 0 0 0 -0.468696,-0.8516108 z m -4.507647,4.1712395 -0.857295,1.4872184 c -0.590593,1.0229689 -0.02666,2.18070254 1.201454,2.18070254 h 3.010609 L 44.395386,-1.3507953 c -0.1239,-0.074332 -0.173489,-0.2600728 -0.04961,-0.3963505 l 0.586,-0.8645297 z" transform="matrix(1.8928216,0,0,1.8928216,-73.976962,17.573908)"/>
</svg>
