<?xml version="1.0" encoding="UTF-8" standalone="no"?>
<svg
   id="svg3297"
   height="64"
   width="64"
   version="1.0"
   sodipodi:docname="teamcity.svg"
   inkscape:version="1.4.3 (0d15f75042, 2025-12-25)"
   xmlns:inkscape="http://www.inkscape.org/namespaces/inkscape"
   xmlns:sodipodi="http://sodipodi.sourceforge.net/DTD/sodipodi-0.dtd"
   xmlns="http://www.w3.org/2000/svg"
   xmlns:svg="http://www.w3.org/2000/svg"
   xmlns:rdf="http://www.w3.org/1999/02/22-rdf-syntax-ns#"
   xmlns:cc="http://creativecommons.org/ns#"
   xmlns:dc="http://purl.org/dc/elements/1.1/">
  <sodipodi:namedview
     id="namedview1"
     pagecolor="#9c4444"
     bordercolor="#000000"
     borderopacity="0.25"
     inkscape:showpageshadow="2"
     inkscape:pageopacity="0.0"
     inkscape:pagecheckerboard="0"
     inkscape:deskcolor="#d1d1d1"
     inkscape:zoom="3.2734375"
     inkscape:cx="40.782816"
     inkscape:cy="33.298329"
     inkscape:window-width="2560"
     inkscape:window-height="1388"
     inkscape:window-x="0"
     inkscape:window-y="0"
     inkscape:window-maximized="1"
     inkscape:current-layer="svg3297" />
  <metadata
     id="metadata58">
    <rdf:RDF>
      <cc:Work
         rdf:about="">
        <dc:format>image/svg+xml</dc:format>
        <dc:type
           rdf:resource="http://purl.org/dc/dcmitype/StillImage" />
      </cc:Work>
    </rdf:RDF>
  </metadata>
  <defs
     id="defs3299">
    <style
       id="current-color-scheme"
       type="text/css">.ColorScheme-Text {color:#d8dee9} .ColorScheme-Highlight {color:#3b4252}</style>
  </defs>
  <path
     id="path5"
     d="m 32.827848,41.937162 h -13.24941 v 2.484213 h 13.24941 z M 18.751664,19.573617 h 9.967573 V 21.75723 H 24.955612 V 32.000146 H 22.532348 V 21.75723 h -3.781181 z m 11.628408,9.493569 c 0.550188,0.979227 1.307401,1.748779 2.272136,2.307745 v -0.0021 c 0.964735,0.559463 2.041755,0.838947 3.231075,0.838947 1.00614,0 1.92897,-0.186322 2.76949,-0.558967 0.83994,-0.372561 1.54018,-0.894843 2.09915,-1.566597 0.55897,-0.671753 0.93318,-1.442464 1.12265,-2.312465 h -2.5387 c -0.16562,0.449741 -0.41247,0.845241 -0.74106,1.185258 -0.32818,0.340514 -0.7231,0.602441 -1.18476,0.785617 -0.46167,0.183755 -0.96474,0.275343 -1.50921,0.275343 -0.73387,0 -1.39684,-0.183176 -1.988434,-0.550189 -0.591511,-0.36693 -1.05475,-0.870994 -1.389136,-1.513267 -0.334303,-0.641777 -0.501413,-1.365369 -0.501413,-2.170115 0,-0.804829 0.16711,-1.527842 0.501413,-2.170115 0.334386,-0.641776 0.797625,-1.14642 1.389136,-1.51335 0.592094,-0.366931 1.254564,-0.550189 1.988434,-0.550189 0.54447,0 1.04754,0.09217 1.50921,0.275343 0.46116,0.183755 0.85658,0.4456 1.18476,0.7857 0.32859,0.340514 0.57544,0.735434 0.74106,1.185174 h 2.5387 c -0.18947,-0.87 -0.56368,-1.640628 -1.12265,-2.312465 -0.55946,-0.671753 -1.25921,-1.193952 -2.09915,-1.566596 -0.84052,-0.372645 -1.76335,-0.558967 -2.76949,-0.558967 -1.18989,0 -2.26692,0.27998 -3.231075,0.838947 -0.964238,0.558966 -1.721948,1.328518 -2.272136,2.307745 -0.550106,0.979226 -0.825449,2.072316 -0.825449,3.279767 0,1.20745 0.275343,2.30054 0.825449,3.279766 z M 8.9166693,5.5 c -1.886491,0 -3.415906,1.529415 -3.415906,3.415906 v 28.260479 c 0,1.37307 0.823132,2.613297 2.088037,3.147421 l 4.1922487,1.769414 -0.465806,0.533735 c -0.544988,0.622564 -0.845889,1.420556 -0.845889,2.248158 v 0.0017 1.211418 0.0017 8.937641 0.05661 c 0,1.886483 1.529374,3.415898 3.415906,3.415898 h 10.406222 c 0.16562,0 0.330789,-0.01294 0.494918,-0.0372 l 30.791683,-4.51095 c 1.6774,-0.245863 2.92098,-1.68529 2.92098,-3.380325 V 50.133216 37.82172 c 0,-0.02123 3.9e-4,-0.04194 0,-0.06308 v -2.253011 c 0,-0.667116 -0.19641,-1.320385 -0.56285,-1.877778 l -5.29206,-8.049699 0.0631,-0.07278 c 0.53046,-0.619006 0.82322,-1.407185 0.82322,-2.222282 v -9.398595 c 0,-1.886532 -1.52941,-3.415906 -3.4159,-3.415906 h -7.40275 L 40.457193,7.039748 C 39.825853,6.078643 38.752583,5.5 37.602523,5.5 Z m 6.5212757,9.937182 h 33.123938 v 33.12394 H 15.437945 Z"
     style="fill:currentColor;fill-opacity:1;stroke-width:0.828098"
     class="ColorScheme-Text" />
</svg>
