<?xml version="1.0" encoding="UTF-8" standalone="no"?>
<svg
   width="64"
   height="64"
   version="1.1"
   viewBox="0 0 16.933 16.933"
   id="svg7"
   sodipodi:docname="tidal-hifi.svg"
   inkscape:version="1.4.2 (ebf0e940d0, 2025-05-08)"
   xmlns:inkscape="http://www.inkscape.org/namespaces/inkscape"
   xmlns:sodipodi="http://sodipodi.sourceforge.net/DTD/sodipodi-0.dtd"
   xmlns="http://www.w3.org/2000/svg"
   xmlns:svg="http://www.w3.org/2000/svg"
   xmlns:rdf="http://www.w3.org/1999/02/22-rdf-syntax-ns#"
   xmlns:cc="http://creativecommons.org/ns#"
   xmlns:dc="http://purl.org/dc/elements/1.1/">
  <sodipodi:namedview
     id="namedview7"
     pagecolor="#9c4444"
     bordercolor="#000000"
     borderopacity="0.25"
     inkscape:showpageshadow="2"
     inkscape:pageopacity="0.0"
     inkscape:pagecheckerboard="0"
     inkscape:deskcolor="#d1d1d1"
     inkscape:zoom="8.7062522"
     inkscape:cx="83.847789"
     inkscape:cy="47.207454"
     inkscape:window-width="2560"
     inkscape:window-height="1392"
     inkscape:window-x="0"
     inkscape:window-y="0"
     inkscape:window-maximized="1"
     inkscape:current-layer="svg7"
     showgrid="false" />
  <defs
     id="defs2">
    <style
       id="current-color-scheme"
       type="text/css">.ColorScheme-Text {color:#d8dee9} .ColorScheme-Highlight {color:#3b4252}</style>
  </defs>
  <metadata
     id="metadata2">
    <rdf:RDF>
      <cc:Work
         rdf:about="">
        <dc:format>image/svg+xml</dc:format>
        <dc:type
           rdf:resource="http://purl.org/dc/dcmitype/StillImage" />
      </cc:Work>
    </rdf:RDF>
  </metadata>
  <path
     id="path3"
     class="ColorScheme-Text"
     style="fill:currentColor;fill-opacity:1;stroke-width:0.0193357"
     d="m 8.6039923,1.4567028 c -0.320495,-0.00582 -0.643095,0.00493 -0.895689,0.033523 -1.345766,0.1523293 -2.578057,0.6729626 -3.649698,1.5419663 -0.288788,0.2341818 -0.830414,0.785284 -1.06057,1.079125 -1.038119,1.3253765 -1.586616,2.9401326 -1.540125,4.5340927 0.04366,1.4967372 0.585084,2.9677512 1.539601,4.1829422 0.23161,0.294862 0.773305,0.845756 1.061094,1.079124 1.073129,0.870214 2.310044,1.391697 3.655276,1.541054 0.347545,0.03859 1.123843,0.03915 1.476817,0.0011 1.3647147,-0.147248 2.5970327,-0.663609 3.6803967,-1.542119 0.288788,-0.234181 0.830414,-0.785284 1.060572,-1.079125 1.004584,-1.282563 1.545202,-2.821127 1.546152,-4.4002298 C 15.478613,7.239575 15.111122,5.9510025 14.465543,4.8781059 13.373625,3.0634379 11.561315,1.8419035 9.4871763,1.5225715 9.2428913,1.4849615 8.9244873,1.4625625 8.6039923,1.4567455 Z m -0.139161,4.4440004 0.756529,0.7695737 0.756528,0.7695357 0.7515117,-0.7644691 0.751549,-0.764431 0.75578,0.7692307 0.755817,0.7692691 -0.06597,0.069255 -0.06511,0.068379 -8.47e-4,-8.731e-4 -0.695054,0.7069853 -0.689999,0.7018426 -0.745597,-0.7637452 -0.7507997,-0.7690405 -0.06204,0.060493 -0.06207,0.060493 0.0556,0.059046 0.01711,0.018171 -0.01673,-0.017028 -0.05616,-0.057141 -0.684309,0.6960524 -0.684271,0.6960143 0.05504,0.058474 0.0085,0.00899 -0.01,-0.00952 c -0.0091,-0.00873 0.0088,0.00993 0.04852,0.050513 9.6e-5,9.85e-5 2.02e-4,2.059e-4 3.17e-4,3.175e-4 l 0.0077,0.00819 1.49e-4,-1.527e-4 c 0.106531,0.1088967 0.347124,0.3532552 0.637885,0.6477113 l 0.753683,0.7632508 -0.06672,0.07021 -0.06675,0.07021 -8.99e-4,-7.94e-4 -0.694456,0.706339 -0.694454,0.706376 -0.690786,-0.702643 -0.690786,-0.702642 -2.6e-4,2.64e-4 -0.06574,-0.06689 -0.06574,-0.06689 0.751549,-0.769421 c 0.413358,-0.4231676 0.723695,-0.7441603 0.689625,-0.7133089 l -0.06196,0.056112 0.05747,-0.056036 0.05747,-0.055998 -0.685357,-0.6973859 -0.685395,-0.6973856 -0.05616,0.057141 -0.01681,0.017105 0.01711,-0.018171 0.0556,-0.059046 -0.06073,-0.059198 -0.06073,-0.059198 -0.742526,0.7573837 -0.742527,0.7573456 0.690524,-0.6966238 0.690523,-0.6966617 -0.694979,0.7069472 -0.695016,0.7069471 -0.694604,-0.7065281 -0.694567,-0.7064902 -0.06241,0.060798 0.06061,-0.063655 -0.06593,-0.067083 -0.06597,-0.067122 0.761171,-0.7744495 0.761133,-0.7744879 0.751699,0.7640881 0.751699,0.7640882 0.7514,-0.7643168 z m 1.6241007,1.6941517 8.47e-4,8.466e-4 -0.04017,0.040875 z m 0.0051,0.00514 0.690823,0.6975763 0.690673,0.6974618 -0.005,0.0051 -0.690374,-0.7022234 z m 2.809717,0.030056 0.01891,0.018438 0.06211,0.060569 -0.0017,0.00175 -0.06114,-0.062245 z m -8.9565537,0.081292 0.687678,0.6998999 -0.687865,-0.6996713 z m 6.031899,1.143e-4 0.7499397,0.7632881 -0.7501267,-0.7630595 z m -0.440132,0.4247474 -0.256344,0.2609433 -0.683635,0.6958241 -1.88e-4,-1.524e-4 0.682999,-0.6949478 z m -3.081608,0.077297 -0.252039,0.2565247 -0.756154,0.7695736 -1.49e-4,-1.143e-4 0.756154,-0.7693831 z m 5.7745437,0.2617816 -0.75095,0.7643167 -2.25e-4,-1.905e-4 z m -2.3263047,2.2199242 4.5e-4,5.29e-4 c 0.007,0.0067 0.01361,0.01368 0.01969,0.02061 0.0062,0.0071 0.01178,0.01405 0.01647,0.02056 0.0063,0.0088 0.0109,0.01662 0.01329,0.02278 -0.0024,-0.0061 -0.0069,-0.01397 -0.01329,-0.02278 -0.0047,-0.0065 -0.01027,-0.01349 -0.01647,-0.02056 -0.0062,-0.0071 -0.01301,-0.01421 -0.02014,-0.02103 z m 0.05185,0.07203 c -10e-7,0.01238 -0.33358,0.361818 -0.741291,0.776544 -0.0134,0.01363 -0.02674,0.02719 -0.03998,0.04065 0.384478,-0.393776 0.781276,-0.805994 0.781276,-0.817191 z" />
</svg>
