<?xml version='1.0' encoding='UTF-8'?>
<svg xmlns:inkscape="http://www.inkscape.org/namespaces/inkscape" xmlns:sodipodi="http://sodipodi.sourceforge.net/DTD/sodipodi-0.dtd" xmlns="http://www.w3.org/2000/svg" xmlns:svg="http://www.w3.org/2000/svg" xmlns:rdf="http://www.w3.org/1999/02/22-rdf-syntax-ns#" xmlns:cc="http://creativecommons.org/ns#" xmlns:dc="http://purl.org/dc/elements/1.1/" width="64" height="64" version="1.1" viewBox="0 0 16.933 16.933" id="svg7" sodipodi:docname="tools-check-spelling.svg" inkscape:version="1.4.2 (ebf0e940d0, 2025-05-08)">
  <sodipodi:namedview id="namedview7" pagecolor="#9c4444" bordercolor="#000000" borderopacity="0.25" inkscape:showpageshadow="2" inkscape:pageopacity="0.0" inkscape:pagecheckerboard="0" inkscape:deskcolor="#d1d1d1" inkscape:zoom="4.3531261" inkscape:cx="36.295755" inkscape:cy="39.971275" inkscape:window-width="2560" inkscape:window-height="1376" inkscape:window-x="0" inkscape:window-y="0" inkscape:window-maximized="1" inkscape:current-layer="svg7" showgrid="false"/>
  <defs id="defs2">
    <style id="current-color-scheme" type="text/css">.ColorScheme-Text {color:#d8dee9} .ColorScheme-Highlight {color:#3b4252}</style>
  </defs>
  <metadata id="metadata2">
    <rdf:RDF>
      <cc:Work rdf:about="">
        <dc:format>image/svg+xml</dc:format>
        <dc:type rdf:resource="http://purl.org/dc/dcmitype/StillImage"/>
      </cc:Work>
    </rdf:RDF>
  </metadata>
  <path id="path5" style="fill:currentColor;fill-opacity:1;stroke-width:0.704015" class="ColorScheme-Text" d="m 8.4644784,3.9935296 v 6.3361354 h 2.1120436 c 1.170074,0 2.112047,-0.9419722 2.112047,-2.1120452 0,-1.1700729 -0.941973,-2.112045 -2.112047,-2.112045 H 9.8725074 V 3.9935296 Z m -4.224091,0.7040152 v 1.40803 h 2.112047 v 0.704015 h -0.704017 c -1.170071,0 -2.112044,0.7849767 -2.112044,1.7600375 0,0.9750608 0.941973,1.7600377 2.112044,1.7600377 h 2.112046 V 6.1055748 c 0,-0.7800488 -0.627982,-1.40803 -1.408029,-1.40803 z m 5.63212,2.81606 h 0.7040146 c 0.390026,0 0.704015,0.3139907 0.704015,0.704015 0,0.3900243 -0.313989,0.704015 -0.704015,0.704015 H 9.8725074 Z m -4.576098,0.704015 h 1.056025 v 0.704015 h -1.056025 c -0.195017,0 -0.352007,-0.1569953 -0.352007,-0.3520075 0,-0.1950121 0.156993,-0.3520075 0.352007,-0.3520075 z m -0.352007,2.3182992 -1.656908,1.65691 a 0.35221168,0.35221168 0 1 0 0.49776,0.497762 l 1.159148,-1.159151 1.408032,1.40803 1.408029,-1.40803 1.40803,1.40803 1.4080286,-1.40803 1.408032,1.40803 1.656909,-1.65691 a 0.35245217,0.35245217 0 1 0 -0.497761,-0.497761 l -1.159148,1.15915 -1.408032,-1.40803 -1.4080286,1.40803 -1.40803,-1.40803 -1.408029,1.40803 z"/>
</svg>
