<?xml version='1.0' encoding='UTF-8'?>
<svg xmlns:inkscape="http://www.inkscape.org/namespaces/inkscape" xmlns:sodipodi="http://sodipodi.sourceforge.net/DTD/sodipodi-0.dtd" xmlns="http://www.w3.org/2000/svg" xmlns:svg="http://www.w3.org/2000/svg" xmlns:rdf="http://www.w3.org/1999/02/22-rdf-syntax-ns#" xmlns:cc="http://creativecommons.org/ns#" xmlns:dc="http://purl.org/dc/elements/1.1/" width="64" height="64" version="1.1" viewBox="0 0 16.933 16.933" id="svg7" sodipodi:docname="unityhub.svg" inkscape:version="1.4 (e7c3feb100, 2024-10-09)">
  <sodipodi:namedview id="namedview7" pagecolor="#9c4444" bordercolor="#000000" borderopacity="0.25" inkscape:showpageshadow="2" inkscape:pageopacity="0.0" inkscape:pagecheckerboard="0" inkscape:deskcolor="#d1d1d1" inkscape:zoom="6.15625" inkscape:cx="32.893401" inkscape:cy="29.725888" inkscape:window-width="1183" inkscape:window-height="941" inkscape:window-x="35" inkscape:window-y="32" inkscape:window-maximized="0" inkscape:current-layer="svg7" showgrid="false"/>
  <defs id="defs2">
    <style id="current-color-scheme" type="text/css">.ColorScheme-Text {color:#d8dee9} .ColorScheme-Highlight {color:#3b4252}</style></defs>
  <metadata id="metadata2">
    <rdf:RDF>
      <cc:Work rdf:about="">
        <dc:format>image/svg+xml</dc:format>
        <dc:type rdf:resource="http://purl.org/dc/dcmitype/StillImage"/>
      </cc:Work>
    </rdf:RDF>
  </metadata>
  <path id="path11" style="fill:currentColor;fill-opacity:1;stroke-width:0.0598758" d="M 8.635016,1.7686012 C 8.4509132,1.7629996 8.2661875,1.7851124 8.1198565,1.8357553 7.9267827,1.9025732 3.2659652,4.5819789 3.0307188,4.7614109 2.9585356,4.8164672 2.8290173,4.9672035 2.7428489,5.0962412 2.4613912,5.5177277 2.459884,5.5366643 2.4601456,8.5328295 c 1.334e-4,1.5272345 0.01653,2.7468315 0.038977,2.8838615 0.051446,0.314173 0.1982179,0.605505 0.4179506,0.828387 0.1331083,0.135014 0.7880767,0.534563 2.5452734,1.552055 1.301329,0.753522 2.4649099,1.410919 2.5856599,1.460948 0.3054915,0.126578 0.7714006,0.126711 1.0782186,4.71e-4 0.1208153,-0.0497 1.2841199,-0.706836 2.5856609,-1.460479 1.682379,-0.974164 2.417258,-1.421221 2.541985,-1.54595 0.209834,-0.20983 0.36464,-0.510724 0.421705,-0.820403 0.02732,-0.148267 0.03758,-1.199193 0.03006,-3.0336652 L 14.694424,5.591203 14.600982,5.3596863 C 14.409086,4.8843238 14.334119,4.830925 11.740536,3.3291088 10.445221,2.5790562 9.2781225,1.9208894 9.1468926,1.866751 9.0027152,1.80727 8.8191236,1.7742048 8.6350202,1.7686027 Z m 0.3212116,1.8075194 c 0.016473,5.441e-4 0.8922502,0.5004892 1.9460554,1.1106225 l 1.915997,1.109213 0.01045,2.2428465 c 0.0068,1.4837073 -0.0036,2.2423764 -0.03006,2.2423764 -0.02208,0 -0.363175,-0.182947 -0.758417,-0.4066808 L 11.32117,9.4678184 V 8.5375256 c 0,-0.5117411 -0.01007,-0.9307619 -0.02255,-0.9307619 -0.04195,0 -2.0327354,1.1735338 -2.0625172,1.2158141 -0.038712,0.054975 -0.03917,2.1673502 -4.715e-4,2.1911902 0.016473,0.01016 0.4045803,-0.204351 0.8626697,-0.476653 0.458087,-0.272301 0.853254,-0.495128 0.878164,-0.494966 0.04408,2.9e-4 1.411522,0.774658 1.473631,0.834493 0.0171,0.01651 -0.485825,0.327162 -1.117668,0.690793 -0.631839,0.363628 -1.4811886,0.853634 -1.8873459,1.08855 -0.4061573,0.234918 -0.7654015,0.440386 -0.7983332,0.456929 -0.04063,0.02041 -0.6627654,-0.32117 -1.9357257,-1.062723 -1.0318539,-0.601101 -1.9004357,-1.107334 -1.9300816,-1.12518 -0.036994,-0.02227 0.1743336,-0.165989 0.6734178,-0.457867 0.3999555,-0.233906 0.7458947,-0.425465 0.7692172,-0.425465 0.023321,0 0.4065318,0.215546 0.8513986,0.479 0.4448776,0.263454 0.8277282,0.479 0.8509397,0.479 0.028635,0 0.042266,-0.351684 0.042266,-1.0946558 V 8.8098982 L 7.8582785,8.7342911 C 7.6312563,8.5777683 5.9445195,7.6067635 5.8995454,7.6067635 c -0.034591,0 -0.047131,0.2443856 -0.047901,0.9284137 l -9.428e-4,0.927945 -0.527839,0.2977313 C 5.03254,9.9247661 4.7003689,10.110399 4.5851081,10.173169 L 4.3756629,10.287284 4.3766061,8.0388026 4.3770776,5.7907904 6.2794587,4.6928477 c 1.0463209,-0.6037475 1.917206,-1.1037726 1.935253,-1.1110914 0.01805,-0.0073 0.032874,0.3805866 0.032874,0.86173 V 5.3183655 L 7.5013787,5.757449 C 7.0909622,5.9989417 6.7494125,6.2133411 6.7424929,6.2341007 c -0.014649,0.043938 1.7860612,1.0932459 1.8760822,1.0932459 0.092184,6e-7 1.8430229,-1.0244369 1.8540119,-1.084793 0.0057,-0.031339 -0.30638,-0.2311837 -0.7678094,-0.4916794 L 8.9266257,5.3117905 V 4.4434863 C 8.926491,3.965977 8.9397357,3.5755679 8.9562125,3.5761206 Z" class="ColorScheme-Text"/>
  <g id="g9" transform="matrix(0.46959567,0,0,0.46959567,4.7471229,3.7470598)" style="fill:#999999;fill-opacity:1;stroke:none;stroke-width:0.58349;stroke-dasharray:none;stroke-opacity:0.3"/>
  </svg>
