<?xml version="1.0" encoding="UTF-8" standalone="no"?>
<svg
   width="64"
   height="64"
   version="1.1"
   viewBox="0 0 16.933 16.933"
   id="svg7"
   sodipodi:docname="vesktop.svg"
   inkscape:version="1.4.2 (ebf0e940d0, 2025-05-08)"
   xmlns:inkscape="http://www.inkscape.org/namespaces/inkscape"
   xmlns:sodipodi="http://sodipodi.sourceforge.net/DTD/sodipodi-0.dtd"
   xmlns="http://www.w3.org/2000/svg"
   xmlns:svg="http://www.w3.org/2000/svg"
   xmlns:rdf="http://www.w3.org/1999/02/22-rdf-syntax-ns#"
   xmlns:cc="http://creativecommons.org/ns#"
   xmlns:dc="http://purl.org/dc/elements/1.1/">
  <sodipodi:namedview
     id="namedview7"
     pagecolor="#9c4444"
     bordercolor="#000000"
     borderopacity="0.25"
     inkscape:showpageshadow="2"
     inkscape:pageopacity="0.0"
     inkscape:pagecheckerboard="0"
     inkscape:deskcolor="#d1d1d1"
     inkscape:zoom="6.15625"
     inkscape:cx="29.969543"
     inkscape:cy="29.725888"
     inkscape:window-width="2560"
     inkscape:window-height="1388"
     inkscape:window-x="0"
     inkscape:window-y="0"
     inkscape:window-maximized="1"
     inkscape:current-layer="svg7"
     showgrid="false" />
  <defs
     id="defs2">
    <style
       id="current-color-scheme"
       type="text/css">.ColorScheme-Text {color:#d8dee9} .ColorScheme-Highlight {color:#3b4252}</style>
  </defs>
  <metadata
     id="metadata2">
    <rdf:RDF>
      <cc:Work
         rdf:about="">
        <dc:format>image/svg+xml</dc:format>
        <dc:type
           rdf:resource="http://purl.org/dc/dcmitype/StillImage" />
      </cc:Work>
    </rdf:RDF>
  </metadata>
  <path
     id="path5"
     style="fill:currentColor;stroke-width:0.0215368"
     d="m 8.2148039,1.4605694 c -1.296905,0.05047 -2.576299,0.454321 -3.633919,1.166059 -0.19109,0.128596 -0.60314,0.437892 -0.602568,0.452315 2.52e-4,0.0064 0.05454,0.05046 0.120598,0.0978 0.167655,0.120136 0.428931,0.39939 0.56063,0.599162 0.06104,0.09259 0.254497,0.478901 0.429896,0.858486 0.236488,0.511791 0.323058,0.679794 0.334998,0.650059 0.0089,-0.02205 0.07989,-0.355063 0.157867,-0.740034 0.142933,-0.705689 0.218526,-0.97713 0.338532,-1.215863 0.305202,-0.607153 0.851137,-1.065736 1.485746,-1.248084 0.268446,-0.07713 0.674432,-0.113944 0.909847,-0.08245 0.63646,0.08516 1.094148,0.439735 1.273323,0.986445 0.05825,0.17773 0.06297,0.216078 0.06205,0.504644 l -0.001,0.312284 -0.476796,1.894862 c -0.262235,1.042164 -0.474723,1.896893 -0.472212,1.899405 0.0025,0.0025 0.101231,-0.05891 0.219364,-0.136456 0.541849,-0.355675 1.1579991,-0.588106 1.8192731,-0.68636 0.330758,-0.04914 0.921787,-0.04935 1.227599,-3.8e-4 1.195198,0.191386 2.207856,0.79345 2.913656,1.732243 0.31001,0.412348 0.456295,0.728312 0.484158,1.045714 l 0.01338,0.152062 0.01695,-0.09578 c 0.08381,-0.473204 0.111978,-1.294078 0.06175,-1.79946 -0.07202,-0.724635 -0.279632,-1.512856 -0.574932,-2.182749 -0.961266,-2.180653 -3.015589,-3.746281 -5.3730171,-4.094899 -0.42863,-0.06339 -0.862853,-0.08585 -1.295155,-0.06903 z m -0.134184,1.24535 c -0.333767,0.0034 -0.530908,0.04868 -0.782897,0.179782 -0.359188,0.18687 -0.667602,0.534587 -0.821807,0.926462 -0.02564,0.06515 -0.196108,0.845321 -0.37883,1.733715 -0.182721,0.888394 -0.343131,1.642302 -0.356451,1.675329 -0.04695,0.116428 -0.144633,0.121297 -0.216672,0.01081 -0.01769,-0.02713 -0.326088,-0.68414 -0.685351,-1.460004 -0.359263,-0.775864 -0.687064,-1.468811 -0.728424,-1.539883 -0.04136,-0.07107 -0.164482,-0.217916 -0.273585,-0.326333 -0.170379,-0.169308 -0.22986,-0.21272 -0.421609,-0.307699 -0.396287,-0.196294 -0.760784,-0.220508 -1.127781,-0.07487 -0.204944,0.08133 -0.433125,0.303878 -0.506031,0.493538 -0.06025,0.156749 -0.06827,0.444451 -0.01619,0.581494 0.105165,0.276776 2.617731,5.6003166 2.702409,5.7257676 0.161228,0.238858 0.461502,0.472334 0.759594,0.590664 0.527088,0.209231 1.109425,0.110102 1.569875,-0.267276 0.05125,-0.042 0.09698,-0.07597 0.114961,-0.08585 0.113126,-0.7294956 0.399561,-1.4128966 0.822312,-1.9945546 0.03238,-0.146594 0.291717,-1.194927 0.606985,-2.452926 0.53548,-2.136699 0.617683,-2.486295 0.619815,-2.635738 0.0049,-0.341467 -0.154833,-0.587516 -0.466575,-0.718918 -0.122894,-0.0518 -0.15657,-0.05615 -0.413743,-0.05351 z m -6.30335,3.643846 c -0.05108,0.0509 -0.218471,0.797811 -0.27838,1.242111 -0.05331,0.395343 -0.06583,1.260428 -0.02293,1.582957 0.09949,0.747959 0.308584,1.5789456 0.509018,2.0228626 0.108244,0.239737 0.14659,0.426111 0.13553,0.658472 -0.0076,0.160315 -0.05096,0.35108 -0.250618,1.1033 -0.140883,0.530786 -0.250337,0.988139 -0.262858,1.098336 -0.03972,0.349594 0.03816,0.637123 0.228071,0.842249 0.202329,0.21854 0.433374,0.296768 0.821134,0.27796 0.213833,-0.01037 0.310154,-0.03234 1.117012,-0.254782 0.840703,-0.231768 0.892813,-0.24342 1.08761,-0.243089 0.252257,4.32e-4 0.380775,0.03646 0.698265,0.195851 0.625949,0.314254 1.418679,0.519919 2.295354,0.595459 0.204351,0.01761 1.269809,-0.0042 1.470856,-0.03008 l 0.210952,-0.02713 -0.232489,-0.122701 c -0.957278,-0.505244 -1.669044,-1.279249 -2.08129,-2.263218 -0.191015,-0.455923 -0.335412,-1.066327 -0.336807,-1.423954 -2.18e-4,-0.05557 -0.0086,-0.106091 -0.01868,-0.112311 -0.01006,-0.0062 -0.08874,0.01826 -0.174818,0.05443 -0.08608,0.03617 -0.249872,0.09062 -0.363981,0.121018 -0.180425,0.04806 -0.252381,0.05541 -0.55205,0.05628 -0.384504,0.0011 -0.510969,-0.02108 -0.839936,-0.147603 -0.425686,-0.163717 -0.875401,-0.539036 -1.098378,-0.916661 -0.05923,-0.100303 -0.543805,-1.1142996 -1.076841,-2.2533326 -0.533037,-1.139032 -0.975735,-2.064421 -0.983754,-2.05643 z m 9.5754331,1.090428 c -0.243173,6.4e-5 -0.487644,0.01347 -0.623053,0.04013 -0.445159,0.08765 -0.696877,0.172679 -1.0756221,0.363392 -1.110145,0.559002 -1.88229,1.65942 -2.047218,2.9175666 -0.102402,0.78116 0.02866,1.553783 0.38333,2.259979 0.36409,0.724946 1.004572,1.349658 1.73872,1.695856 0.3749361,0.176807 0.6764021,0.266761 1.0977051,0.327596 0.298817,0.04315 0.894664,0.02722 1.177669,-0.03151 0.330967,-0.06868 0.567848,-0.142635 0.826434,-0.258021 0.46703,-0.208399 0.713901,-0.408768 0.845194,-0.68594 0.06514,-0.137514 0.06894,-0.159228 0.06894,-0.393215 0,-0.241361 -0.002,-0.251965 -0.08001,-0.415257 -0.147655,-0.309226 -0.40567,-0.499884 -0.749162,-0.553648 -0.226436,-0.03544 -0.419872,0.0071 -0.666379,0.146467 -0.352104,0.199098 -0.577189,0.26248 -0.931931,0.26248 -0.304575,0 -0.493227,-0.04298 -0.759972,-0.173094 -0.460474,-0.22461 -0.7629981,-0.578544 -0.9390821,-1.098672 -0.05966,-0.176235 -0.07025,-0.241293 -0.07908,-0.485252 -0.01546,-0.426986 0.06444,-0.742558 0.278801,-1.101112 0.103387,-0.172936 0.3633071,-0.4415866 0.5444361,-0.5627336 0.338381,-0.226323 0.654495,-0.315438 1.056398,-0.297814 0.406538,0.01783 0.674596,0.113885 0.996162,0.35704 0.169391,0.128086 0.271979,0.243279 0.499932,0.5612196 0.175044,0.244144 0.432375,0.383722 0.744872,0.404068 0.296626,0.01931 0.550987,-0.08163 0.751601,-0.298319 0.313098,-0.338183 0.356307,-0.8017436 0.112522,-1.2064826 -0.13471,-0.223649 -0.322722,-0.45823 -0.551839,-0.688505 -0.553226,-0.556022 -1.164225,-0.875073 -2.004061,-1.046472 -0.130264,-0.02658 -0.37214,-0.03982 -0.615314,-0.03975 z m -0.0093,2.6558856 c -0.619187,6.19e-4 -1.106699,0.514214 -1.108558,1.167826 -6.75e-4,0.237009 0.02919,0.361226 0.137129,0.570642 0.238431,0.46259 0.789682,0.695308 1.269033,0.535728 0.05547,-0.01846 0.175605,-0.07634 0.267023,-0.128632 0.09142,-0.05229 0.256174,-0.126007 0.366126,-0.163797 0.18731,-0.06438 0.218936,-0.06873 0.501446,-0.06899 0.22369,-1.95e-4 0.33714,0.0096 0.439528,0.03807 0.286294,0.0795 0.652466,0.305246 0.813099,0.501278 0.04323,0.05276 0.08549,0.08823 0.09389,0.07883 0.102803,-0.115069 0.474845,-0.721648 0.621498,-1.013325 0.142913,-0.28424 0.431264,-0.99591 0.403521,-0.99591 -0.0041,0 -0.03444,0.04071 -0.06734,0.09044 -0.207409,0.313415 -0.607499,0.585456 -0.994354,0.676181 -0.223701,0.05246 -0.58296,0.04868 -0.785548,-0.0083 -0.454244,-0.127733 -0.748337,-0.343081 -1.028341,-0.753032 -0.25185,-0.36873 -0.531278,-0.527419 -0.928145,-0.527021 z"
     class="ColorScheme-Text" />
</svg>
