<?xml version="1.0" encoding="UTF-8" standalone="no"?>
<svg
   width="64"
   height="64"
   version="1.1"
   viewBox="0 0 16.933 16.933"
   id="svg7"
   sodipodi:docname="vmware-netcfg.svg"
   inkscape:version="1.4.2 (ebf0e940d0, 2025-05-08)"
   xmlns:inkscape="http://www.inkscape.org/namespaces/inkscape"
   xmlns:sodipodi="http://sodipodi.sourceforge.net/DTD/sodipodi-0.dtd"
   xmlns="http://www.w3.org/2000/svg"
   xmlns:svg="http://www.w3.org/2000/svg"
   xmlns:rdf="http://www.w3.org/1999/02/22-rdf-syntax-ns#"
   xmlns:cc="http://creativecommons.org/ns#"
   xmlns:dc="http://purl.org/dc/elements/1.1/">
  <sodipodi:namedview
     id="namedview7"
     pagecolor="#9c4444"
     bordercolor="#000000"
     borderopacity="0.25"
     inkscape:showpageshadow="2"
     inkscape:pageopacity="0.0"
     inkscape:pagecheckerboard="0"
     inkscape:deskcolor="#d1d1d1"
     inkscape:zoom="8.7062522"
     inkscape:cx="38.880105"
     inkscape:cy="29.863596"
     inkscape:window-width="2560"
     inkscape:window-height="1392"
     inkscape:window-x="0"
     inkscape:window-y="0"
     inkscape:window-maximized="1"
     inkscape:current-layer="svg7"
     showgrid="false" />
  <defs
     id="defs2">
    <style
       id="current-color-scheme"
       type="text/css">.ColorScheme-Text {color:#d8dee9} .ColorScheme-Highlight {color:#3b4252}</style>
  </defs>
  <metadata
     id="metadata2">
    <rdf:RDF>
      <cc:Work
         rdf:about="">
        <dc:format>image/svg+xml</dc:format>
        <dc:type
           rdf:resource="http://purl.org/dc/dcmitype/StillImage" />
      </cc:Work>
    </rdf:RDF>
  </metadata>
  <path
     id="path5"
     style="fill:currentColor;fill-opacity:1;stroke-width:0.584276"
     d="m 4.768091,1.4551799 c -0.540393,0 -0.975632,0.4352366 -0.975632,0.9756319 v 7.3968189 c 0,0.5404533 0.435239,0.9761483 0.975632,0.9761483 h 7.396819 c 0.540453,0 0.975631,-0.435695 0.975631,-0.9761483 V 2.4308118 c 0,-0.5404537 -0.435178,-0.9756319 -0.975631,-0.9756319 z m 1.36113,2.3372791 h 4.674558 V 8.4665003 H 6.129221 Z m 1.75283,7.411805 v 0.447509 c 0.185654,-0.05228 0.381556,-0.08061 0.583932,-0.08061 0.202748,0 0.398915,0.02818 0.584966,0.08061 V 11.204264 Z M 3.20801,11.97216 a 1.7528229,1.7528229 0 0 0 -1.75283,1.75283 1.7528229,1.7528229 0 0 0 1.75283,1.75283 1.7528229,1.7528229 0 0 0 1.75283,-1.75283 1.7528229,1.7528229 0 0 0 -1.75283,-1.75283 z m 5.25849,0 A 1.7528229,1.7528229 0 0 0 6.71367,13.72499 1.7528229,1.7528229 0 0 0 8.4665,15.47782 1.7528229,1.7528229 0 0 0 10.21933,13.72499 1.7528229,1.7528229 0 0 0 8.4665,11.97216 Z m 5.25849,0 a 1.7528229,1.7528229 0 0 0 -1.75283,1.75283 1.7528229,1.7528229 0 0 0 1.75283,1.75283 1.7528229,1.7528229 0 0 0 1.75283,-1.75283 1.7528229,1.7528229 0 0 0 -1.75283,-1.75283 z m -8.444796,1.168381 c 0.052387,0.186083 0.080097,0.382226 0.080097,0.584966 0,0.202339 -0.027887,0.398272 -0.080097,0.583932 h 1.113605 c -0.05221,-0.18566 -0.080096,-0.381593 -0.080097,-0.583932 0,-0.20274 0.027711,-0.398883 0.080097,-0.584966 z m 5.259524,0 c 0.05245,0.186064 0.08061,0.382203 0.08061,0.584966 0,0.202362 -0.02834,0.398291 -0.08061,0.583932 h 1.112055 c -0.05227,-0.185641 -0.08061,-0.38157 -0.08061,-0.583932 0,-0.202763 0.02817,-0.398902 0.08061,-0.584966 z"
     class="ColorScheme-Text" />
</svg>
