<?xml version="1.0" encoding="UTF-8" standalone="no"?>
<svg
   width="64"
   height="64"
   version="1.1"
   viewBox="0 0 16.933 16.933"
   id="svg7"
   sodipodi:docname="vmware.svg"
   inkscape:version="1.4.2 (ebf0e940d0, 2025-05-08)"
   xmlns:inkscape="http://www.inkscape.org/namespaces/inkscape"
   xmlns:sodipodi="http://sodipodi.sourceforge.net/DTD/sodipodi-0.dtd"
   xmlns="http://www.w3.org/2000/svg"
   xmlns:svg="http://www.w3.org/2000/svg"
   xmlns:rdf="http://www.w3.org/1999/02/22-rdf-syntax-ns#"
   xmlns:cc="http://creativecommons.org/ns#"
   xmlns:dc="http://purl.org/dc/elements/1.1/">
  <sodipodi:namedview
     id="namedview7"
     pagecolor="#9c4444"
     bordercolor="#000000"
     borderopacity="0.25"
     inkscape:showpageshadow="2"
     inkscape:pageopacity="0.0"
     inkscape:pagecheckerboard="0"
     inkscape:deskcolor="#d1d1d1"
     inkscape:zoom="6.15625"
     inkscape:cx="16.812183"
     inkscape:cy="30.050761"
     inkscape:window-width="2560"
     inkscape:window-height="1392"
     inkscape:window-x="0"
     inkscape:window-y="0"
     inkscape:window-maximized="1"
     inkscape:current-layer="svg7"
     showgrid="false" />
  <defs
     id="defs2">
    <style
       id="current-color-scheme"
       type="text/css">.ColorScheme-Text {color:#d8dee9} .ColorScheme-Highlight {color:#3b4252}</style>
  </defs>
  <metadata
     id="metadata2">
    <rdf:RDF>
      <cc:Work
         rdf:about="">
        <dc:format>image/svg+xml</dc:format>
        <dc:type
           rdf:resource="http://purl.org/dc/dcmitype/StillImage" />
      </cc:Work>
    </rdf:RDF>
  </metadata>
  <path
     id="path5"
     style="fill:currentColor;stroke-width:0.361476"
     d="m 5.212738,1.4551798 c -0.483016,0 -0.864792,0.381775 -0.864792,0.8647921 v 1.5905156 h 8.6751 V 10.13028 H 6.80272 V 7.2380472 H 4.347946 v 4.4827478 c 0,0.483017 0.381776,0.864792 0.864792,0.864792 h 9.400822 c 0.483016,0 0.86426,-0.381775 0.86426,-0.864792 V 2.3199719 c 0,-0.4830171 -0.381244,-0.8647921 -0.86426,-0.8647921 z M 2.322637,4.3479457 c -0.483018,0 -0.867457,0.381894 -0.867457,0.8642596 v 9.3986907 c 0,0.482366 0.385091,0.866924 0.867457,0.866924 h 9.398157 c 0.482366,0 0.864793,-0.383907 0.864793,-0.866924 v -1.58785 H 9.914482 5.188761 3.910487 v -1.278274 c -1.71e-4,-0.006 0,-0.02048 0,-0.02398 V 6.8000561 h 3.111229 3.111228 v 2.8927656 h 2.452643 V 5.1749068 C 12.570697,4.7240153 12.208356,4.3635004 11.7501,4.3479457 H 4.128951 Z"
     class="ColorScheme-Text" />
</svg>
