<?xml version="1.0" encoding="UTF-8" standalone="no"?>
<svg
   width="64"
   height="64"
   version="1.1"
   viewBox="0 0 16.933 16.933"
   id="svg7"
   sodipodi:docname="vorta.svg"
   inkscape:version="1.4.3 (0d15f75042, 2025-12-25)"
   xmlns:inkscape="http://www.inkscape.org/namespaces/inkscape"
   xmlns:sodipodi="http://sodipodi.sourceforge.net/DTD/sodipodi-0.dtd"
   xmlns="http://www.w3.org/2000/svg"
   xmlns:svg="http://www.w3.org/2000/svg"
   xmlns:rdf="http://www.w3.org/1999/02/22-rdf-syntax-ns#"
   xmlns:cc="http://creativecommons.org/ns#"
   xmlns:dc="http://purl.org/dc/elements/1.1/">
  <sodipodi:namedview
     id="namedview7"
     pagecolor="#9c4444"
     bordercolor="#000000"
     borderopacity="0.25"
     inkscape:showpageshadow="2"
     inkscape:pageopacity="0.0"
     inkscape:pagecheckerboard="0"
     inkscape:deskcolor="#d1d1d1"
     inkscape:zoom="6.15625"
     inkscape:cx="15.837563"
     inkscape:cy="30.050761"
     inkscape:window-width="2560"
     inkscape:window-height="1388"
     inkscape:window-x="0"
     inkscape:window-y="0"
     inkscape:window-maximized="1"
     inkscape:current-layer="svg7"
     showgrid="false" />
  <defs
     id="defs2">
    <style
       id="current-color-scheme"
       type="text/css">.ColorScheme-Text {color:#d8dee9} .ColorScheme-Highlight {color:#3b4252}</style>
  </defs>
  <metadata
     id="metadata2">
    <rdf:RDF>
      <cc:Work
         rdf:about="">
        <dc:format>image/svg+xml</dc:format>
        <dc:type
           rdf:resource="http://purl.org/dc/dcmitype/StillImage" />
      </cc:Work>
    </rdf:RDF>
  </metadata>
  <path
     id="path5"
     style="fill:currentColor;fill-opacity:1;stroke-width:0.250604"
     d="m 4.9607176,3.9522515 c -0.3454458,1.5e-5 -0.666695,0.178156 -0.8497235,0.471579 L 1.6073179,8.4366594 c -0.082493,0.1323199 -0.1260502,0.2723428 -0.1418651,0.4118985 -0.00105,0.0093 -0.00213,0.018591 -0.00293,0.027884 0.04534,-0.3665881 0.3593267,-0.6486662 0.7440584,-0.6486662 H 14.726913 c 0.382144,0 0.694467,0.2783348 0.74308,0.6413286 C 15.456123,8.7227186 15.412273,8.575556 15.325682,8.4366597 L 12.822006,4.4238305 C 12.638978,4.1304075 12.317728,3.9522665 11.972282,3.9522515 Z M 1.4654528,8.8485579 c -0.00649,0.038858 -0.010273,0.078593 -0.010273,0.1193624 v 3.2726837 c 0,0.410045 0.3352137,0.740144 0.7513964,0.740144 H 14.726913 c 0.414682,0 0.748503,-0.327753 0.750907,-0.735742 h -5.01e-4 V 9.2066451 c 0,-0.035495 -0.0025,-0.070552 -0.0073,-0.1046866 -0.01284,-0.090025 -0.04221,-0.1749899 -0.08463,-0.2514439 -0.02112,-0.038019 -0.04554,-0.07407 -0.07288,-0.1076218 -0.01374,-0.016863 -0.02837,-0.033323 -0.04354,-0.048919 -0.03033,-0.031183 -0.06335,-0.059563 -0.09882,-0.085119 C 15.046013,8.5193838 14.892771,8.4665004 14.726454,8.4665004 H 2.2060869 c -0.071267,2.3e-6 -0.1402655,0.00977 -0.20546,0.027884 -0.037024,0.010285 -0.072219,0.023645 -0.1066435,0.039135 -0.1677844,0.075405 -0.3019436,0.2092878 -0.3756981,0.3761873 -0.017769,0.040208 -0.032182,0.082122 -0.04256,0.1257221 -0.00519,0.021799 -0.00952,0.044021 -0.012718,0.06653 -0.00463,0.032572 -0.00711,0.065978 -0.00734,0.099795 v -0.233833 c 0,-0.040758 0.00343,-0.080515 0.00978,-0.1193625 z M 10.219514,9.720295 a 1.0016429,1.0031844 0 0 1 0.662363,0.2509546 1.0016429,1.0031844 0 0 1 0.339008,0.7523744 1.0016429,1.0031844 0 0 1 -1.001371,1.00333 1.0016429,1.0031844 0 0 1 -1.0018628,-1.00333 1.0016429,1.0031844 0 0 1 0.33901,-0.7523744 1.0016429,1.0031844 0 0 1 0.0949,-0.074357 1.0016429,1.0031844 0 0 1 0.5679508,-0.1765973 z m 2.754141,0 a 1.0016429,1.0031844 0 0 1 0.662853,0.2509546 1.0016429,1.0031844 0 0 1 0.339009,0.7523744 1.0016429,1.0031844 0 0 1 -1.001862,1.00333 1.0016429,1.0031844 0 0 1 -1.001373,-1.00333 1.0016429,1.0031844 0 0 1 0.33901,-0.7523744 1.0016429,1.0031844 0 0 1 0.542022,-0.2436168 1.0016429,1.0031844 0 0 1 0.120341,-0.00734 z"
     class="ColorScheme-Text" />
</svg>
