<?xml version='1.0' encoding='UTF-8'?>
<svg xmlns:inkscape="http://www.inkscape.org/namespaces/inkscape" xmlns:sodipodi="http://sodipodi.sourceforge.net/DTD/sodipodi-0.dtd" xmlns="http://www.w3.org/2000/svg" xmlns:svg="http://www.w3.org/2000/svg" xmlns:rdf="http://www.w3.org/1999/02/22-rdf-syntax-ns#" xmlns:cc="http://creativecommons.org/ns#" xmlns:dc="http://purl.org/dc/elements/1.1/" width="64" height="64" version="1.1" viewBox="0 0 16.933 16.933" id="svg7" sodipodi:docname="vscodium.svg" inkscape:version="1.4 (e7c3feb100, 2024-10-09)">
  <sodipodi:namedview id="namedview7" pagecolor="#9c4444" bordercolor="#000000" borderopacity="0.25" inkscape:showpageshadow="2" inkscape:pageopacity="0.0" inkscape:pagecheckerboard="0" inkscape:deskcolor="#d1d1d1" inkscape:zoom="6.15625" inkscape:cx="15.837563" inkscape:cy="29.725888" inkscape:window-width="1183" inkscape:window-height="941" inkscape:window-x="35" inkscape:window-y="32" inkscape:window-maximized="0" inkscape:current-layer="svg7" showgrid="false"/>
  <defs id="defs2">
    <style id="current-color-scheme" type="text/css">.ColorScheme-Text {color:#d8dee9} .ColorScheme-Highlight {color:#3b4252}</style></defs>
  <metadata id="metadata2">
    <rdf:RDF>
      <cc:Work rdf:about="">
        <dc:format>image/svg+xml</dc:format>
        <dc:type rdf:resource="http://purl.org/dc/dcmitype/StillImage"/>
      </cc:Work>
    </rdf:RDF>
  </metadata>
  <path d="M 8.5769785,15.457061 C 8.4285997,15.416675 8.2995361,15.321853 8.2095432,15.187082 8.0760899,14.988219 8.0317517,14.844231 7.8693252,14.082582 7.8012815,13.765191 7.7016305,13.553597 7.533497,13.371418 7.2398119,13.053588 6.9004715,12.940766 6.0971183,12.893796 5.1985038,12.841118 4.8793572,12.761658 4.5790874,12.517142 4.2379914,12.238822 4.0953193,11.924503 3.8916279,10.999111 3.7656372,10.427543 3.6936426,10.196634 3.5452636,9.8889016 3.2726503,9.323481 2.8981907,8.88449 2.355598,8.4937876 2.0061612,8.2422463 1.9016817,8.0890381 1.959189,7.9121245 2.0061593,7.7685742 2.1549791,7.6759473 2.3397944,7.6759473 c 0.1488175,0 0.2396889,0.036879 0.3577776,0.1453063 0.1132609,0.1040421 0.179987,0.2023751 0.336706,0.4943032 0.1426729,0.2669075 0.2800763,0.4613804 0.3257316,0.4613804 0.027656,0 0.032045,-0.112822 0.032045,-0.8090612 0,-0.4837681 0.0088,-0.8415455 0.021953,-0.8902731 0.026779,-0.097457 0.1325744,-0.1940341 0.2124719,-0.1940341 0.1325744,4.355e-4 0.2467129,0.1277446 0.3046595,0.3410962 0.013167,0.048727 0.068923,0.5338128 0.1237945,1.0790402 0.054874,0.5447877 0.1079903,0.9991433 0.1176499,1.0101175 0.030729,0.032927 0.1703274,-0.1422302 0.2612002,-0.3279261 0.089116,-0.1821815 0.1492583,-0.4144069 0.1501361,-0.5785905 0,-0.052239 -0.024584,-0.2173 -0.055313,-0.3674345 -0.045216,-0.2230065 -0.050924,-0.2888553 -0.032484,-0.3590936 0.059263,-0.2225684 0.303343,-0.2594436 0.4635747,-0.06936 0.1158962,0.1374061 0.1558418,0.2932464 0.154964,0.6040516 0,0.3367061 -0.028973,0.4622575 -0.2739306,1.2199566 -0.2115939,0.6545358 -0.27832,0.9447088 -0.2778811,1.2081048 0,0.944706 0.7809654,1.560173 2.0865242,1.648411 0.1163313,0.0076 0.2111548,0.0066 0.2111548,-0.0021 0,-0.0089 -0.072432,-0.151449 -0.1615494,-0.316953 -0.3064155,-0.570413 -0.4306495,-0.968578 -0.4306495,-1.379913 0,-0.30949 0.044777,-0.498695 0.241445,-1.014509 C 6.7793152,8.8725804 6.8056545,8.7580037 6.8056545,8.2922343 6.8060902,8.0499112 6.7951188,7.8993373 6.7679013,7.7715908 6.6212783,7.0771066 6.2604276,6.4805184 5.7511982,6.0906942 5.5492622,5.9361693 5.4891204,5.9028059 4.9728672,5.6609222 4.4763677,5.4282566 4.3468658,5.3474825 4.148442,5.1446685 3.9350919,4.926929 3.8446603,4.7486988 3.8301735,4.5182284 c -0.0088,-0.1422321 -0.00526,-0.1646217 0.030292,-0.1839371 0.082091,-0.0439 0.2563714,-0.051802 0.4122132,-0.018886 0.2888561,0.06102 0.5478599,0.2278364 0.9618292,0.6185385 0.4411853,0.4161633 0.689655,0.5702493 0.9934369,0.6145873 0.1479397,0.021506 0.1628661,0.020193 0.1905221,-0.01843 C 6.4636828,5.467327 6.4570974,5.2337832 6.4057366,5.095501 6.3113497,4.8408866 6.1094141,4.6516814 5.657692,4.3957497 5.3670803,4.231128 5.1712899,4.0902118 5.0839309,3.983098 4.8701423,3.7210203 4.8266823,3.3364645 4.98867,3.1406743 5.1423154,2.9554205 5.4026386,2.9347872 5.7024689,3.0836059 c 0.1457452,0.071997 0.211155,0.1251131 0.4324065,0.3516322 0.646195,0.6611204 1.0351406,1.5281271 1.2063475,2.6888196 0.045657,0.3094885 0.039511,1.4772048 -0.010108,1.8823934 -0.04697,0.386312 -0.1220389,0.8446188 -0.2098375,1.2858045 -0.076386,0.3819226 -0.082091,0.5570802 -0.023706,0.6883379 0.043461,0.096578 0.1330133,0.1611085 0.2234462,0.1611085 0.1027254,0 0.2844663,-0.118968 0.4938651,-0.3226579 0.3419826,-0.3336332 0.5333822,-0.6562915 0.64313,-1.0838691 0.04785,-0.1861316 0.056192,-0.2778808 0.070239,-0.7638444 0.014478,-0.5131799 0.018886,-0.5592743 0.065848,-0.6567305 0.067604,-0.1422321 0.192717,-0.2331039 0.3209024,-0.2331039 0.082969,0 0.1084311,0.011856 0.1786703,0.082967 C 9.2767322,7.350597 9.2705876,7.5942359 9.0603089,8.4621217 8.9101766,9.0802223 8.7104355,9.5569665 8.4562599,9.8993795 8.3803148,10.002542 8.15599,10.24311 7.9584441,10.43451 c -0.237055,0.229593 -0.3955306,0.402994 -0.4662087,0.510108 -0.4130905,0.627319 -0.1927171,1.242343 0.4859634,1.356043 0.2840268,0.04785 0.5987837,-0.04478 0.8134501,-0.23925 C 9.0914797,11.790992 9.3711171,11.188257 9.5669076,10.39061 9.8583978,9.2057743 9.9519029,7.9168962 9.8000119,7.1789529 9.6626077,6.5116862 9.3869213,5.9524121 8.9992923,5.555564 8.8934955,5.4471329 8.6643424,5.258806 8.4321162,5.0893553 7.7841655,4.617001 7.5234049,4.3119023 7.4334113,3.9198833 7.3886332,3.7254103 7.400048,3.5274257 7.457995,3.4830873 7.5330621,3.42558 7.721829,3.3979236 7.8522091,3.4242614 c 0.3226582,0.065848 0.6062463,0.3217804 0.9047604,0.8174017 0.2348603,0.3893845 0.3419742,0.5346906 0.5030837,0.680436 0.1198463,0.1079903 0.1804259,0.1378412 0.1804259,0.088238 0,-0.01273 -0.057507,-0.13433 -0.1273076,-0.2695405 C 8.8035026,3.7570177 8.4373842,3.0151228 8.3882171,2.8663051 8.2771524,2.5295987 8.3408072,2.291227 8.5686421,2.1889416 c 0.2590051,-0.1163313 0.5469828,0.071997 0.6852654,0.4482099 0.029412,0.080336 0.2203732,0.7339931 0.424504,1.4530603 0.4403075,1.5522723 0.4104565,1.4548161 0.4416245,1.4442804 0.03819,-0.01273 0.181743,-0.3678745 0.254176,-0.6295131 0.09482,-0.3437299 0.135649,-0.7015072 0.1216,-1.0597244 -0.01449,-0.3507535 -0.05092,-0.5777117 -0.179546,-1.1071352 -0.06936,-0.2849053 -0.09526,-0.4367957 -0.09526,-0.5553236 0,-0.2800761 0.10975,-0.5083516 0.298514,-0.6211725 0.209838,-0.1251112 0.525912,-0.062337 0.737944,0.146623 0.208083,0.2050092 0.275684,0.4275781 0.257691,0.8490091 -0.01932,0.4508438 -0.09262,0.7247746 -0.503087,1.8823935 -0.36568,1.0325067 -0.475427,1.4170627 -0.541276,1.8973191 -0.04346,0.3151955 -0.04258,0.8116942 0,1.0764056 0.03819,0.2313486 0.115895,0.4872803 0.150136,0.4982551 0.01233,0.00395 0.118967,-0.2677845 0.236179,-0.6040516 0.287536,-0.8231089 0.326168,-0.915736 0.416162,-0.9956323 0.177789,-0.1589141 0.442062,-0.022829 0.442062,0.226958 0,0.209399 -0.444259,1.5303229 -1.575098,4.6879861 -0.3160746,0.881494 -0.5711285,1.61812 -0.567617,1.636997 0.00528,0.02238 0.456551,-0.381484 1.286245,-1.1484 1.772644,-1.638315 1.798986,-1.665972 1.913562,-2.0009218 0.04608,-0.1343319 0.05223,-0.1826204 0.04258,-0.3432914 C 12.799593,9.1144635 12.715343,8.8923339 12.45987,8.4344666 12.156964,7.8923122 12.060828,7.6618424 12.02922,7.4054716 11.96512,6.8843887 12.424313,6.5454879 12.748288,6.874731 c 0.179987,0.1826204 0.429333,0.8116948 0.538203,1.3577994 0.02985,0.1510139 0.05443,0.2950018 0.05443,0.3200244 0,0.1264298 0.06716,0.021506 0.338024,-0.5289837 0.391576,-0.7958914 0.464014,-0.9051999 0.674726,-1.0158255 0.184813,-0.096577 0.410459,0.00437 0.533375,0.2388116 0.06673,0.1268687 0.06452,0.366118 -0.0047,0.5799066 -0.183502,0.5654202 -0.905637,1.7686948 -1.683531,2.8051532 -0.04345,0.05751 -0.06716,0.104477 -0.05311,0.104477 0.01444,0 0.08077,-0.03248 0.148371,-0.07244 0.4188,-0.247152 0.71512,-0.263395 1.007048,-0.05443 0.08953,0.06365 0.188765,0.25242 0.188328,0.358217 -4.35e-4,0.118979 -0.06585,0.257248 -0.15409,0.324853 -0.16112,0.123797 -0.33056,0.163746 -0.809499,0.191839 -0.788891,0.04566 -1.387673,0.261198 -1.962312,0.705897 -0.45304,0.350315 -0.71775,0.703703 -1.170791,1.562368 -0.369191,0.698874 -0.5417138,0.95217 -0.8867612,1.298973 -0.2497856,0.251102 -0.4359178,0.37051 -0.6483895,0.415724 -0.1387209,0.02943 -0.1378431,0.02943 -0.2827105,-0.01007 z" fill-rule="nonzero" id="path4" style="fill:currentColor;fill-opacity:1;stroke-width:0.438993" class="ColorScheme-Text"/>
  <g id="g9" transform="matrix(0.46959567,0,0,0.46959567,4.7471229,3.7470598)" style="fill:#999999;fill-opacity:1;stroke:none;stroke-width:0.58349;stroke-dasharray:none;stroke-opacity:0.3"/>
  </svg>
