<?xml version="1.0" encoding="UTF-8" standalone="no"?>
<svg
   width="64"
   height="64"
   version="1.1"
   viewBox="0 0 16.933 16.933"
   id="svg7"
   sodipodi:docname="waterfox.svg"
   inkscape:version="1.4.2 (ebf0e940d0, 2025-05-08)"
   xmlns:inkscape="http://www.inkscape.org/namespaces/inkscape"
   xmlns:sodipodi="http://sodipodi.sourceforge.net/DTD/sodipodi-0.dtd"
   xmlns="http://www.w3.org/2000/svg"
   xmlns:svg="http://www.w3.org/2000/svg"
   xmlns:rdf="http://www.w3.org/1999/02/22-rdf-syntax-ns#"
   xmlns:cc="http://creativecommons.org/ns#"
   xmlns:dc="http://purl.org/dc/elements/1.1/">
  <sodipodi:namedview
     id="namedview7"
     pagecolor="#9c4444"
     bordercolor="#000000"
     borderopacity="0.25"
     inkscape:showpageshadow="2"
     inkscape:pageopacity="0.0"
     inkscape:pagecheckerboard="0"
     inkscape:deskcolor="#d1d1d1"
     inkscape:zoom="8.7062522"
     inkscape:cx="83.847789"
     inkscape:cy="47.207454"
     inkscape:window-width="2560"
     inkscape:window-height="1392"
     inkscape:window-x="0"
     inkscape:window-y="0"
     inkscape:window-maximized="1"
     inkscape:current-layer="svg7"
     showgrid="false" />
  <defs
     id="defs2">
    <style
       id="current-color-scheme"
       type="text/css">.ColorScheme-Text {color:#d8dee9} .ColorScheme-Highlight {color:#3b4252}</style>
  </defs>
  <metadata
     id="metadata2">
    <rdf:RDF>
      <cc:Work
         rdf:about="">
        <dc:format>image/svg+xml</dc:format>
        <dc:type
           rdf:resource="http://purl.org/dc/dcmitype/StillImage" />
      </cc:Work>
    </rdf:RDF>
  </metadata>
  <path
     id="path3"
     class="ColorScheme-Text"
     d="m 11.385532,2.376583 c -0.374924,0 -0.67912,0.3041333 -0.67912,0.6790577 0,0.3749244 0.303876,0.6791202 0.67912,0.6791202 0.374925,0 0.679058,-0.3041958 0.679058,-0.6791202 0,-0.3749244 -0.303813,-0.6790577 -0.679058,-0.6790577 z M 8.7664168,2.7863064 c -0.37685,-0.00822 -0.816353,0.1408318 -1.249869,0.5261618 -1.204817,1.0709839 -0.756897,2.7403639 -0.573437,2.8072805 0.18346,0.066916 0.02881,-0.5068462 1.670348,-1.1468752 1.8502082,-0.7218337 1.283509,-2.1618937 0.152958,-2.1865671 z m -3.210938,2.4395799 c -0.23748,0.00736 -0.488804,0.1576508 -0.626279,0.5074019 -0.216438,0.5513403 0.09346,1.3978993 0.788243,1.650837 0.164889,0.059873 -0.09057,-0.484464 0.318611,-1.2656899 0.272548,-0.5200836 -0.08478,-0.9048182 -0.480575,-0.892549 z m 5.0725782,0.054405 c -0.575748,0.020232 -1.2511912,0.2249314 -1.8934072,0.6188371 -0.642216,0.393906 -1.25146,0.9759096 -1.702804,1.7476406 -0.462867,0.7908378 -1.50949,2.613093 -2.178625,3.779435 l -0.07191,0.125318 -0.0034,-0.0029 c -0.195677,0.289055 -0.52639,0.478261 -0.900741,0.478261 -0.177595,0 -0.345349,-0.04261 -0.493519,-0.118252 l 0.804188,1.815364 c 0.185123,0.418002 0.548332,0.699229 0.960649,0.795809 h 6.3e-5 v 6.3e-5 h 6.2e-5 6.2e-5 l 0.06322,0.01201 c 0.575947,0.109536 1.182089,-0.152189 1.483747,-0.693815 l 1.87e-4,-3.18e-4 1.88e-4,-3.17e-4 c 0.382788,-0.677872 0.382764,-0.677875 0.838207,-1.489374 0.455443,-0.811501 0.983707,-1.757016 1.273631,-2.290248 1.037572,-1.9082401 1.9537882,-2.825488 2.5558312,-3.3538915 0.300435,-0.2636867 0.520797,-0.4332567 0.620901,-0.555115 0.05005,-0.060929 0.06798,-0.1031027 0.07091,-0.1414522 0.0029,-0.038349 -0.0079,-0.086101 -0.05403,-0.1615255 -0.209383,-0.3426832 -0.618769,-0.5365353 -1.148751,-0.5639324 -0.07285,-0.00376 -0.147831,-0.00432 -0.224623,-0.00161 z M 2.8306808,5.9080085 c -0.181628,0.00305 -0.36547,0.041637 -0.54242,0.1200028 -0.707807,0.3134658 -1.025873,1.1379701 -0.712389,1.8458187 l 1.532836,3.458385 v 6.2e-5 h 6.2e-5 v 6.3e-5 6.2e-5 c 2.9e-5,6.9e-5 8.7e-5,1.62e-4 1.25e-4,2.5e-4 l 6.3e-5,6.3e-5 v 6.3e-5 h 6.3e-5 v 6.2e-5 c 4.7e-5,1.12e-4 1.92e-4,3.7e-4 2.5e-4,5.03e-4 0.139138,0.273921 0.425613,0.461188 0.755974,0.461188 0.333085,0 0.619401,-0.191683 0.757351,-0.470381 l -2.51e-4,6.35e-4 c 0.0049,-0.01 0.01158,-0.01959 0.01964,-0.02839 0.24953,-0.434938 0.550116,-0.958674 0.852965,-1.4853712 L 4.1340168,6.7407122 C 3.8988958,6.2098079 3.3755508,5.8988704 2.8306808,5.9080085 Z m 11.2716452,9.26e-4 c -0.544869,-0.00914 -1.068296,0.3018426 -1.303398,0.832704 l -1.33454,3.0109538 0.928443,1.6665957 v 6.2e-5 h 6.3e-5 c 0.153286,0.215096 0.403467,0.355131 0.68825,0.355131 0.324749,0 0.60465,-0.182035 0.74672,-0.449432 l 6.2e-5,-1.25e-4 1.529209,-3.4500677 C 15.670604,7.1669418 15.352552,6.3424028 14.644746,6.028937 14.467796,5.9505714 14.283955,5.9119803 14.102326,5.9089345 Z M 10.30732,8.1742941 C 9.9124218,8.6780344 9.4737828,9.3288254 9.0088618,10.184015 c -0.10437,0.191956 -0.239223,0.436553 -0.390088,0.708511 l 1.6355792,2.9356 c 0.353306,0.634002 1.123667,0.885479 1.774968,0.604329 l 0.0044,-0.0019 0.0046,-0.0016 c 0.153235,-0.05213 0.312136,-0.166895 0.443742,-0.302415 0.131607,-0.135519 0.236317,-0.292026 0.288345,-0.411661 l 1.25e-4,-3.71e-4 0.804189,-1.815552 c -0.148101,0.07555 -0.315821,0.118064 -0.493582,0.118064 -0.368153,0 -0.693363,-0.182585 -0.890423,-0.463377 l -0.0036,-0.0052 z M 4.8506568,11.423764 c -0.0013,0.0025 -0.0029,0.0047 -0.0042,0.0071 0.0011,-0.0018 0.0024,-0.0037 0.0033,-0.0053 3.97e-4,-7.14e-4 6.35e-4,-0.0012 9.26e-4,-0.0019 z"
     style="fill:currentColor;fill-opacity:1;stroke-width:0.0320174" />
</svg>
