<?xml version='1.0' encoding='UTF-8'?>
<svg xmlns:inkscape="http://www.inkscape.org/namespaces/inkscape" xmlns:sodipodi="http://sodipodi.sourceforge.net/DTD/sodipodi-0.dtd" xmlns:xlink="http://www.w3.org/1999/xlink" xmlns="http://www.w3.org/2000/svg" xmlns:svg="http://www.w3.org/2000/svg" xmlns:rdf="http://www.w3.org/1999/02/22-rdf-syntax-ns#" xmlns:cc="http://creativecommons.org/ns#" xmlns:dc="http://purl.org/dc/elements/1.1/" width="64" height="64" version="1.1" viewBox="0 0 16.933 16.933" id="svg7" sodipodi:docname="wayland.svg" inkscape:version="1.4.2 (ebf0e940d0, 2025-05-08)">
  <sodipodi:namedview id="namedview7" pagecolor="#9c4444" bordercolor="#000000" borderopacity="0.25" inkscape:showpageshadow="2" inkscape:pageopacity="0.0" inkscape:pagecheckerboard="0" inkscape:deskcolor="#d1d1d1" inkscape:zoom="6.15625" inkscape:cx="15.918782" inkscape:cy="40.446701" inkscape:window-width="2560" inkscape:window-height="1384" inkscape:window-x="0" inkscape:window-y="0" inkscape:window-maximized="1" inkscape:current-layer="svg7" showgrid="false"/>
  <defs id="defs2">
    <style id="current-color-scheme" type="text/css">.ColorScheme-Text {color:#d8dee9} .ColorScheme-Highlight {color:#3b4252}</style>
  </defs>
  <metadata id="metadata2">
    <rdf:RDF>
      <cc:Work rdf:about="">
        <dc:format>image/svg+xml</dc:format>
        <dc:type rdf:resource="http://purl.org/dc/dcmitype/StillImage"/>
      </cc:Work>
    </rdf:RDF>
  </metadata>
  <path id="rect20" class="ColorScheme-Text" style="opacity:0.9;fill:currentColor;fill-opacity:1;stroke-width:0.851942;stroke-opacity:0.550265" d="m 8.4664999,2.3812028 c -3.3712552,0 -6.0852969,2.7140425 -6.0852969,6.0852972 0,3.371255 2.7140417,6.085297 6.0852969,6.085297 3.3712551,0 6.0852971,-2.714042 6.0852971,-6.085297 0,-1.7240928 -0.710156,-3.2763244 -1.854708,-4.3815329 l -0.161047,1.3662207 h 0.0618 l 0.132521,-0.1057793 h 0.03566 v 0.031496 c -0.182838,0.1336267 -0.359653,0.4992646 -0.53068,1.0970172 -0.06488,0.5133801 -0.1741,0.9884501 -0.327441,1.4244586 -0.135657,0.4500811 -0.203248,0.8646429 -0.203239,1.2443959 l -0.256723,0.749371 c -6e-6,0.06329 0.09715,0.1262838 0.291784,0.1895708 -0.0354,0.147685 -0.08849,0.221662 -0.159263,0.221662 v 0.04219 h 0.0618 v 0.0315 c -6e-6,0.07736 -0.100177,0.116479 -0.300699,0.116477 l 0.03566,0.04219 v 0.147379 h -0.0618 c 0.04127,0.147689 0.129386,0.221667 0.265043,0.221661 v 0.07369 h -0.265043 v 0.04219 c 0.08846,0 0.132516,0.06358 0.132521,0.190166 l -0.371418,0.147378 0.03506,0.04219 v 0.0315 c -9e-6,0.04923 -0.04406,0.07428 -0.132521,0.07428 v 0.04219 c 0.112044,0 0.168168,0.02449 0.168177,0.07369 -0.159247,0.0633 -0.368636,0.376348 -0.628141,0.938943 -0.265404,0.499307 -0.495319,0.748776 -0.689945,0.748776 H 9.758445 C 9.610985,13.197255 9.489699,12.824287 9.39534,12.191368 9.0178686,11.227922 8.8290006,10.662327 8.8290029,10.493545 8.8290006,10.057537 8.7083058,9.5928592 8.4664999,9.1005832 8.4016215,8.8825865 8.357565,8.6086522 8.3339785,8.2781171 L 8.1747149,8.2359244 C 7.773657,8.9602753 7.5642581,9.5264612 7.5465745,9.9343402 7.434507,10.17345 7.3458121,10.461442 7.2809372,10.798999 c 0.2418082,0.07736 0.3630941,0.15134 0.3630964,0.221662 v 0.04219 c -0.1887323,-0.02814 -0.3214963,-0.08072 -0.3981588,-0.158074 -0.08257,0.189878 -0.191797,0.716944 -0.3274407,1.581939 -0.106168,0.400854 -0.2389228,0.601398 -0.3981599,0.601398 -0.4482367,-0.175813 -0.8229723,-0.463808 -1.1237594,-0.864659 -0.047185,0 -0.1238228,-0.200547 -0.2299816,-0.601398 -0.064883,0 -0.108928,-0.200549 -0.1325214,-0.601398 C 4.8098963,10.451031 4.6566174,9.8004702 4.5740497,9.0690872 V 7.9720697 h -0.035661 l -0.1592636,0.042192 v -0.042192 c 0,-0.04923 0.053096,-0.073686 0.1592636,-0.07369 L 4.5033316,7.2654857 V 6.7698668 L 4.2466078,5.1873329 V 4.5122452 c 0.112056,-0.4219362 0.306965,-0.6328855 0.5841644,-0.6328946 0.00299,2.247e-4 0.029348,0.00486 0.105777,0.1051848 l -0.105777,-0.031496 c 0.4305382,0.5626072 0.6839879,1.0370829 0.760663,1.4238644 h 0.3006986 v 0.074283 H 5.6621522 v 0.084386 C 5.7506212,5.8590728 5.8151953,6.0205008 5.856478,6.0204948 H 5.92779 l 0.1592647,-0.042194 0.035064,0.042194 0.035661,-0.042194 0.035063,0.042194 v 0.031496 C 6.0748849,6.1363849 5.9952324,6.2525505 5.9539474,6.4002316 h -0.026151 v 0.07369 h 0.061801 c 0.08257,1.1744289 0.2358444,2.0640641 0.4599633,2.6688545 l 0.1325214,0.1057791 h 0.070714 c 0.08847,3e-6 0.2743256,-0.4114849 0.5574223,-1.2342932 C 7.3930507,7.6415468 7.5258032,7.3144258 7.6083778,7.0331265 L 7.5733143,6.9172445 C 7.7561437,6.6429862 7.9444286,6.5060208 8.1390569,6.5060117 h 0.061801 c 0.1238516,9.1e-6 0.2125534,0.07706 0.2656385,0.231764 0.1651366,0.2320811 0.2978938,0.5805842 0.3981588,1.0447221 L 9.360274,8.8795153 c 0.06487,0.077365 0.09686,0.1648093 0.09686,0.2632603 0.182829,0.4149226 0.348169,0.6894426 0.495619,0.8230606 h 0.106375 c 0.12385,0 0.288592,-0.51359 0.495024,-1.5403413 2.76e-4,3e-7 0.0015,3.35e-5 0.0018,0 2.92e-4,-6.69e-5 0.0015,-4.868e-4 0.0018,-6.086e-4 0.03802,-0.0166 0.134542,-0.2904786 0.288815,-0.8218717 v -0.042192 l -0.557424,-0.07369 -0.133116,0.042192 H 9.988445 v -0.084386 l 0.335761,-0.032091 h 0.654882 c 0.253598,-0.907187 0.486527,-1.6103318 0.698859,-2.1096487 0.07076,-1.0267297 0.167918,-1.5397346 0.291785,-1.5397468 L 12.199179,3.6535277 C 11.169764,2.8552569 9.875758,2.3812028 8.4664999,2.3812028 Z m 0.5306813,2.0995465 h 0.097463 v 0.031496 c -5.7e-6,0.049236 -0.03258,0.073695 -0.097463,0.07369 l -0.035063,0.042193 v 0.042194 l -0.097463,-0.042194 v -0.07369 z M 8.5021556,4.8919821 v 0.042193 c -2.3e-6,0.056271 -0.1418042,0.1161852 -0.4249009,0.1794692 v -0.074283 l 0.1949205,-0.1051847 0.035064,0.031496 h 0.026737 z M 7.5465745,5.271719 v 0.031496 C 7.4227138,5.415745 7.2223734,5.5178464 6.9451751,5.6092628 v -0.073689 c 0.047185,5.8e-6 0.070714,-0.039114 0.070714,-0.1164765 z m 1.6805875,0.3690401 0.03566,0.042192 v 0.031496 L 9.201021,5.7988331 H 9.16536 L 9.094646,5.7144471 v -0.031496 z m 1.221219,0.042192 h 0.03506 v 0.031496 l -0.0618,0.084386 h -0.03506 V 5.7566401 Z M 9.890959,6.2106608 10.02348,6.3158455 C 9.99991,6.3932085 9.93531,6.4317345 9.829155,6.4317284 L 9.758445,6.3158465 c -7e-6,-0.035154 0.04405,-0.070018 0.132521,-0.1051848 z m 0.796318,0.4849221 0.02615,0.042192 v 0.031496 l -0.02615,0.042194 h -0.07071 v -0.042194 z m -1.256281,0.379737 v 0.031496 L 9.262819,7.2654857 h -0.097463 v -0.042193 c -5.8e-6,-0.063287 0.0887,-0.1128024 0.2656369,-0.1479725 z M 8.2721752,10.30338 h 0.035064 v 0.07369 l -0.2656374,0.158669 -0.035063,-0.04219 v -0.07428 z m -0.097463,0.981135 h 0.026151 l 0.1063751,0.115882 -0.035064,0.0315 h -0.035661 l -0.061801,-0.105179 z"/>
</svg>
