<?xml version="1.0" encoding="UTF-8" standalone="no"?>
<svg
   id="svg3297"
   height="64"
   width="64"
   version="1.0"
   sodipodi:docname="webstorm.svg"
   inkscape:version="1.4.3 (0d15f75042, 2025-12-25)"
   xmlns:inkscape="http://www.inkscape.org/namespaces/inkscape"
   xmlns:sodipodi="http://sodipodi.sourceforge.net/DTD/sodipodi-0.dtd"
   xmlns="http://www.w3.org/2000/svg"
   xmlns:svg="http://www.w3.org/2000/svg"
   xmlns:rdf="http://www.w3.org/1999/02/22-rdf-syntax-ns#"
   xmlns:cc="http://creativecommons.org/ns#"
   xmlns:dc="http://purl.org/dc/elements/1.1/">
  <sodipodi:namedview
     id="namedview1"
     pagecolor="#9c4444"
     bordercolor="#000000"
     borderopacity="0.25"
     inkscape:showpageshadow="2"
     inkscape:pageopacity="0.0"
     inkscape:pagecheckerboard="0"
     inkscape:deskcolor="#d1d1d1"
     inkscape:zoom="3.2734375"
     inkscape:cx="40.782816"
     inkscape:cy="33.298329"
     inkscape:window-width="2560"
     inkscape:window-height="1388"
     inkscape:window-x="0"
     inkscape:window-y="0"
     inkscape:window-maximized="1"
     inkscape:current-layer="svg3297" />
  <metadata
     id="metadata58">
    <rdf:RDF>
      <cc:Work
         rdf:about="">
        <dc:format>image/svg+xml</dc:format>
        <dc:type
           rdf:resource="http://purl.org/dc/dcmitype/StillImage" />
      </cc:Work>
    </rdf:RDF>
  </metadata>
  <defs
     id="defs3299">
    <style
       id="current-color-scheme"
       type="text/css">.ColorScheme-Text {color:#d8dee9} .ColorScheme-Highlight {color:#3b4252}</style>
  </defs>
  <path
     id="path5"
     d="m 19.572859,41.936337 h 13.249585 v 2.484296 H 19.572859 Z M 37.15274,31.734487 c 0.698005,0.325195 1.496706,0.488248 2.39627,0.488248 0.899564,0 1.698845,-0.165454 2.39685,-0.497273 0.697922,-0.331903 1.239499,-0.786944 1.624151,-1.366944 0.390366,-0.585797 0.585714,-1.246206 0.585714,-1.979405 0,-0.598053 -0.133075,-1.148159 -0.399309,-1.650733 -0.266317,-0.509198 -0.639044,-0.935255 -1.118348,-1.278088 -0.473507,-0.349457 -1.014587,-0.585714 -1.624151,-0.709846 l -2.11248,-0.461665 c -0.38457,-0.09416 -0.689393,-0.253896 -0.914304,-0.479221 -0.219115,-0.225409 -0.328507,-0.509281 -0.328507,-0.852031 0,-0.301429 0.07991,-0.56435 0.239651,-0.789759 0.159741,-0.230625 0.381754,-0.408418 0.665627,-0.532467 0.289586,-0.129846 0.624303,-0.195432 1.002745,-0.195432 0.378441,0 0.712745,0.06749 1.002745,0.203961 0.295714,0.129763 0.523441,0.316168 0.683264,0.559133 0.159741,0.236339 0.239569,0.505885 0.239569,0.80781 h 2.422936 c -0.0058,-0.709846 -0.195432,-1.336552 -0.568159,-1.881441 -0.367014,-0.55052 -0.881512,-0.979889 -1.544322,-1.287031 -0.662728,-0.307639 -1.42872,-0.461666 -2.263112,-0.461666 -0.834476,0 -1.580013,0.159741 -2.236613,0.479304 -0.6566,0.313767 -1.168199,0.754067 -1.535213,1.322226 -0.366599,0.562445 -0.550106,1.198176 -0.550106,1.908023 0,0.585714 0.121234,1.113048 0.363701,1.57993 0.242964,0.467379 0.582899,0.861058 1.020798,1.180538 0.437899,0.31385 0.952811,0.535863 1.544322,0.665626 l 2.192309,0.48833 c 0.420343,0.101277 0.748353,0.280974 0.98519,0.541577 0.242467,0.26052 0.363701,0.589027 0.363701,0.985107 0,0.319563 -0.08894,0.603353 -0.266234,0.852031 -0.171665,0.248678 -0.417031,0.443613 -0.736511,0.585797 -0.313767,0.136471 -0.662811,0.203961 -1.10071,0.203961 -0.437898,0 -0.825366,-0.0766 -1.162485,-0.230626 C 38.0846,29.778435 37.821264,29.565448 37.631961,29.2935 37.44274,29.021966 37.348171,28.70439 37.348171,28.344002 H 34.91621 c 0.01184,0.763093 0.212987,1.437745 0.603353,2.023543 0.396494,0.585714 0.940886,1.041665 1.633177,1.366942 z M 23.087726,28.654455 21.081738,19.58412 h -2.510879 l 2.999706,12.42513 h 2.751442 l 2.12101,-9.026114 2.094429,9.026114 H 31.2975 l 3.017676,-12.42513 h -2.458544 l -1.943714,9.070335 -2.23653,-9.070335 h -2.4496 z M 8.8730456,5.4999775 c -1.862652,0 -3.37224,1.509588 -3.37224,3.37224 V 37.001708 c 0,1.349056 0.804692,2.569128 2.04437,3.100519 L 12.04473,42.030145 11.130909,43.096 c -0.524203,0.611385 -0.811925,1.38921 -0.811925,2.194785 v 1.149958 0.0017 c -1.12e-4,0.01129 0,0.02266 0,0.03397 v 8.65137 c 0,1.862643 1.509588,3.372239 3.372239,3.372239 h 10.842923 c 0.159491,0 0.319126,-0.01186 0.477127,-0.03397 l 30.592763,-4.370201 c 1.66175,-0.237499 2.89511,-1.659718 2.89511,-3.338276 v -0.449632 -12.52985 c 0,-0.01127 1.1e-4,-0.02271 0,-0.03397 v -2.314472 c 0,-0.666289 -0.19771,-1.316815 -0.5677,-1.87131 l -5.15783,-7.727846 0.0954,-0.111599 c 0.52377,-0.611386 0.81192,-1.391326 0.81192,-2.196404 v -9.833715 c 0,-1.862651 -1.50959,-3.372241 -3.37223,-3.372241 h -7.889592 l -2.21096,-3.3140125 c -0.62538,-0.937591 -1.678699,-1.50093 -2.806155,-1.50093 z M 15.437995,15.437167 H 48.561956 V 48.56113 H 15.437995 Z"
     style="fill:currentColor;fill-opacity:1;stroke-width:0.828099"
     class="ColorScheme-Text" />
</svg>
