<?xml version='1.0' encoding='UTF-8'?>
<svg xmlns:inkscape="http://www.inkscape.org/namespaces/inkscape" xmlns:sodipodi="http://sodipodi.sourceforge.net/DTD/sodipodi-0.dtd" xmlns="http://www.w3.org/2000/svg" xmlns:svg="http://www.w3.org/2000/svg" xmlns:rdf="http://www.w3.org/1999/02/22-rdf-syntax-ns#" xmlns:cc="http://creativecommons.org/ns#" xmlns:dc="http://purl.org/dc/elements/1.1/" width="64" height="64" version="1.1" viewBox="0 0 16.933 16.933" id="svg7" sodipodi:docname="xnview.svg" inkscape:version="1.4 (e7c3feb100, 2024-10-09)">
  <sodipodi:namedview id="namedview7" pagecolor="#9c4444" bordercolor="#000000" borderopacity="0.25" inkscape:showpageshadow="2" inkscape:pageopacity="0.0" inkscape:pagecheckerboard="0" inkscape:deskcolor="#d1d1d1" inkscape:zoom="6.15625" inkscape:cx="15.756345" inkscape:cy="27.126904" inkscape:window-width="1226" inkscape:window-height="669" inkscape:window-x="35" inkscape:window-y="32" inkscape:window-maximized="0" inkscape:current-layer="svg7" showgrid="false"/>
  <defs id="defs2">
    <style id="current-color-scheme" type="text/css">.ColorScheme-Text {color:#d8dee9} .ColorScheme-Highlight {color:#3b4252}</style></defs>
  <metadata id="metadata2">
    <rdf:RDF>
      <cc:Work rdf:about="">
        <dc:format>image/svg+xml</dc:format>
        <dc:type rdf:resource="http://purl.org/dc/dcmitype/StillImage"/>
      </cc:Work>
    </rdf:RDF>
  </metadata>
  <path id="path4" style="fill:currentColor;stroke-width:0.0222919" d="M 10.724835,1.8012246 C 10.554654,1.8016388 10.37995,1.8430322 10.208267,1.9264536 10.04525,2.0056646 9.8108773,2.2420085 9.7318755,2.406497 9.698635,2.4757064 9.578384,2.8654386 9.4647212,3.2726623 L 9.2580939,4.0130764 9.1239957,3.9995161 C 8.7856823,3.9655264 8.303312,3.9588899 8.0131123,3.9843826 7.8434495,3.9992767 7.6991335,4.0059132 7.6922137,3.998986 7.6852939,3.9920704 7.5907052,3.6678488 7.4819331,3.2784026 7.3617499,2.8480963 7.2535406,2.5079596 7.2064302,2.4111928 7.1128843,2.219047 6.9394194,2.0377475 6.7550851,1.9394983 6.0074584,1.5410173 5.1229379,2.0627585 5.1229379,2.9021939 c 0,0.1598641 0.024428,0.273919 0.1982783,0.9172998 0.1091816,0.4040588 0.2134457,0.7921129 0.2316735,0.8619909 L 5.5862841,4.8082792 5.2706033,5.0190806 C 5.097215,5.1350889 4.8609866,5.3064233 4.7451642,5.3994621 4.6293421,5.4925013 4.5273808,5.5685222 4.5187089,5.5685222 c -0.00866,0 -0.3079672,-0.3032664 -0.6647555,-0.6741481 C 3.4971649,4.5234918 3.1572029,4.1872697 3.098407,4.1471755 2.6741121,3.8578428 2.0783175,3.9180471 1.7083687,4.2880581 1.3456133,4.6508746 1.2758694,5.1922846 1.5361791,5.625918 1.5821166,5.7024422 1.8775325,6.0270323 2.2880733,6.4519054 L 2.9643082,7.1521428 2.7008062,7.4469519 C 2.3279118,7.8648299 1.6912729,8.4970579 1.4620856,8.6768019 1.355092,8.7607133 1.232273,8.8808188 1.189191,8.9434348 0.97257186,9.2582724 0.94050176,9.7266181 1.1114449,10.085103 c 0.080503,0.168825 0.1892115,0.28263 0.41482,0.434127 0.5109132,0.343078 0.8541131,0.64748 1.72346,1.528313 1.2278197,1.24404 1.5937382,1.586924 2.0960152,1.965046 0.8027035,0.60429 1.640263,0.972476 2.4409159,1.072269 0.1103444,0.01368 0.2255462,0.02922 0.2561972,0.03445 0.1317156,0.02242 0.9809282,-0.008 1.181846,-0.04226 0.9740608,-0.166003 1.8333228,-0.596246 2.7639008,-1.383781 0.322709,-0.273099 0.721074,-0.658607 1.569012,-1.518398 1.004878,-1.018941 1.272025,-1.258647 1.826252,-1.639467 0.419311,-0.288107 0.540639,-0.505482 0.537962,-0.9652986 -0.0024,-0.40818 -0.114057,-0.6288253 -0.450825,-0.8932969 C 15.238668,8.4943427 14.623579,7.8835426 14.243761,7.4584357 L 13.970345,7.1526689 14.63458,6.4665202 c 0.365315,-0.3774244 0.696608,-0.7352085 0.73624,-0.7952025 0.310709,-0.470372 0.218983,-1.088319 -0.2155,-1.4505656 -0.410666,-0.3423954 -1.012956,-0.3433802 -1.407254,-0.00262 -0.04376,0.037816 -0.35795,0.3571384 -0.698673,0.7096291 -0.340724,0.3524908 -0.626503,0.6407537 -0.635015,0.6407537 -0.0084,0 -0.110618,-0.076076 -0.226453,-0.1690582 C 12.072107,5.3064731 11.842093,5.1398412 11.676574,5.0289859 11.511063,4.9181317 11.372711,4.8157694 11.369242,4.8014873 11.365651,4.7872088 11.463753,4.4029879 11.586826,3.9478452 11.709912,3.4927019 11.817013,3.0597989 11.824761,2.9856711 11.856124,2.6855806 11.735273,2.3686174 11.500209,2.1341155 11.27919,1.9136296 11.00847,1.8005334 10.724835,1.8012246 Z M 8.4853282,5.2554497 c 0.6533779,0.0019 1.3067784,0.1495224 1.8977368,0.4466492 1.299338,0.6532939 2.175113,1.9088638 2.340212,3.3550853 0.09962,0.8726275 -0.0905,1.8177738 -0.517093,2.5697978 -0.689159,1.214873 -1.901166,2.015924 -3.2762938,2.165933 C 7.8891227,13.906452 6.8384082,13.631852 5.9697968,13.019108 5.6957433,12.825781 5.1774972,12.308764 4.9883169,12.039715 4.4757149,11.310701 4.2228112,10.559778 4.1931146,9.680719 4.1678444,8.9327257 4.3004298,8.3045249 4.6204579,7.6530574 4.8430109,7.2000144 5.05644,6.8997903 5.4193123,6.5306951 5.6579574,6.2879582 5.8419261,6.1341929 6.0991997,5.9624701 6.8050666,5.4913246 7.6452713,5.2530035 8.4853282,5.2554497 Z m -0.018791,1.6415396 c -0.4007174,0 -0.4520142,0.00492 -0.653276,0.059483 C 7.3351775,7.0860469 6.936544,7.316108 6.5912448,7.661407 6.2440413,8.0086105 6.011103,8.413316 5.8883987,8.8834304 5.8125209,9.1741378 5.792295,9.6746599 5.8440465,9.9713548 6.0388324,11.088043 6.8988924,11.954899 8.009459,12.153464 c 0.2358449,0.04216 0.6426176,0.04362 0.8922544,0.0032 C 10.011433,11.976605 10.892888,11.09588 11.089041,9.971355 11.140336,9.6773094 11.120652,9.1738693 11.046257,8.8902139 10.916793,8.3965392 10.690485,8.0090065 10.317319,7.6415784 9.9626833,7.2923939 9.6050094,7.0879528 9.1198201,6.9564728 8.9180661,6.9017989 8.8674545,6.8969893 8.4665439,6.8969893 Z" class="ColorScheme-Text"/>
</svg>
