<?xml version="1.0" encoding="UTF-8" standalone="no"?>
<svg
   width="64"
   height="64"
   version="1.1"
   viewBox="0 0 16.933 16.933"
   id="svg7"
   sodipodi:docname="xppentablet.svg"
   inkscape:version="1.4.2 (ebf0e940d0, 2025-05-08)"
   xmlns:inkscape="http://www.inkscape.org/namespaces/inkscape"
   xmlns:sodipodi="http://sodipodi.sourceforge.net/DTD/sodipodi-0.dtd"
   xmlns="http://www.w3.org/2000/svg"
   xmlns:svg="http://www.w3.org/2000/svg"
   xmlns:rdf="http://www.w3.org/1999/02/22-rdf-syntax-ns#"
   xmlns:cc="http://creativecommons.org/ns#"
   xmlns:dc="http://purl.org/dc/elements/1.1/">
  <sodipodi:namedview
     id="namedview7"
     pagecolor="#9c4444"
     bordercolor="#000000"
     borderopacity="0.25"
     inkscape:showpageshadow="2"
     inkscape:pageopacity="0.0"
     inkscape:pagecheckerboard="0"
     inkscape:deskcolor="#d1d1d1"
     inkscape:zoom="4.3531261"
     inkscape:cx="36.295755"
     inkscape:cy="40.430715"
     inkscape:window-width="2560"
     inkscape:window-height="1376"
     inkscape:window-x="0"
     inkscape:window-y="0"
     inkscape:window-maximized="1"
     inkscape:current-layer="svg7"
     showgrid="false" />
  <defs
     id="defs2">
    <style
       id="current-color-scheme"
       type="text/css">.ColorScheme-Text {color:#d8dee9} .ColorScheme-Highlight {color:#3b4252}</style>
  </defs>
  <metadata
     id="metadata2">
    <rdf:RDF>
      <cc:Work
         rdf:about="">
        <dc:format>image/svg+xml</dc:format>
        <dc:type
           rdf:resource="http://purl.org/dc/dcmitype/StillImage" />
      </cc:Work>
    </rdf:RDF>
  </metadata>
  <path
     id="rect8"
     class="ColorScheme-Text"
     style="fill:currentColor;fill-opacity:1;stroke:none;stroke-width:0.216473;stroke-linejoin:bevel;paint-order:fill markers stroke"
     d="m 2.4052564,1.3228914 c -0.5996308,0 -1.0823657,0.4827348 -1.0823657,1.082365 V 14.527745 c 0,0.59963 0.4827349,1.082364 1.0823657,1.082364 H 14.527745 c 0.599628,0 1.082364,-0.482734 1.082364,-1.082364 V 2.4052563 c 0,-0.5996301 -0.482736,-1.082365 -1.082364,-1.082365 z m 6.7732374,0.9128227 c 1.1038422,0.00218 2.2077802,6.035e-4 3.3117822,0.00169 h 4.23e-4 c 1.256198,-0.00627 2.313128,0.9396236 2.445891,2.1888296 0.13277,1.2492895 -0.702185,2.3965374 -1.931767,2.6543311 -0.174249,0.035731 -0.351897,0.053734 -0.529768,0.053696 -0.919116,4.037e-4 -1.837944,-3.211e-4 -2.7570706,-0.00169 -0.028433,0 -0.037089,0.00448 -0.037629,0.00465 -1.502e-4,5.339e-4 -0.00453,0.00954 -0.00424,0.037628 0.00356,0.3451355 6.066e-4,0.6920649 0.0025,1.03628 0,0.070273 -0.026113,0.1089004 -0.1052771,0.1065453 -0.1303441,-0.0042 -0.2608461,-0.0042 -0.3910881,0 h -4.236e-4 c -0.082296,0.00296 -0.1185443,-0.028962 -0.1183835,-0.115424 0.0025,-0.6783878 0.00173,-1.3564493 0.00173,-2.0349308 L 9.06476,5.2773319 c 0,-0.9750731 -3.024e-4,-1.9498798 -0.00135,-2.9249224 0,-0.081348 0.028375,-0.1168617 0.1150009,-0.1166924 z m -1.5761947,0.011838 c 0.025381,6.914e-4 0.044532,0.017586 0.057926,0.031287 0.1130791,0.1159667 0.2287039,0.2293177 0.3437347,0.3445811 l 4.237e-4,4.23e-4 c 0.011737,0.010958 0.023157,0.025443 0.031283,0.03467 l 0.024524,0.027905 -0.025371,0.027059 c -0.017225,0.018301 -0.032429,0.034972 -0.048201,0.050736 L 6.522465,4.2287882 C 6.2321795,4.5190746 5.94083,4.8089125 5.6519233,5.1005994 c -0.054912,0.055771 -0.099958,0.05665 -0.1538994,-4.229e-4 v -4.23e-4 H 5.497601 C 5.399139,4.9938299 5.296844,4.8918311 5.1906551,4.7936466 v -4.23e-4 C 5.1681531,4.7726666 5.1497433,4.7507211 5.14542,4.7230389 5.1387763,4.680832 5.1675658,4.6505626 5.1931971,4.6253724 5.8870156,3.9340526 6.5797905,3.2418403 7.2716756,2.5485845 7.3612985,2.4589616 7.4514923,2.3708077 7.5388852,2.2805301 v -4.229e-4 h 4.227e-4 c 0.011304,-0.011307 0.028924,-0.027721 0.05158,-0.031287 -6.8e-6,1.1e-6 0.00558,-0.00143 0.01141,-0.00127 z m -5.1919694,8.427e-4 h 0.0051 4.236e-4 c 0.00125,-3.87e-5 0.0026,-6.45e-5 0.00424,0 0.02721,0.00106 0.04771,0.01879 0.063,0.033823 l 4.237e-4,4.229e-4 c 0.7859121,0.7874428 1.5721073,1.5743383 2.3592173,2.360486 0.010264,0.00832 0.021481,0.015957 0.032978,0.022409 l 0.045235,0.025368 -0.03552,0.038052 c -0.017726,0.019065 -0.030311,0.033695 -0.042279,0.045663 -0.1118014,0.1120433 -0.2245742,0.2222306 -0.3340118,0.3352795 -0.045004,0.046703 -0.086754,0.047055 -0.1319126,0 C 4.283547,5.012497 4.1857822,4.9176708 4.089297,4.8215499 3.405238,4.1374907 2.7210654,3.4537389 2.036186,2.7705527 1.9698739,2.7042425 1.9777693,2.6539323 2.039556,2.5963595 2.1466258,2.49477 2.250838,2.3905581 2.3524272,2.2834884 v -4.229e-4 h 4.227e-4 c 0.012864,-0.01334 0.029319,-0.027625 0.049895,-0.032555 3.85e-5,-2.58e-5 5.449e-4,-1.16e-4 0.00173,-4.229e-4 2.359e-4,-6.46e-5 5.748e-4,6.44e-5 8.184e-4,0 z M 9.711643,2.8479235 c -0.022069,1e-7 -0.029945,0.00247 -0.03213,0.00338 l -4.227e-4,4.228e-4 c -3.072e-4,6.951e-4 -9.629e-4,0.00237 -0.00173,0.00635 -0.00106,0.00633 -0.00173,0.017299 -0.00173,0.031287 0.00221,0.5982481 0.00212,1.1963541 0.00212,1.7943583 v 0.041012 h -4.237e-4 c 5.2e-5,0.5866322 0.00125,1.1733817 -0.00135,1.7601115 v 4.229e-4 c 1.25e-5,0.020401 0.00279,0.0281 0.00337,0.030019 0.00202,4.204e-4 0.011073,0.00299 0.032131,0.00297 0.9212454,-0.00194 1.8429104,-0.00256 2.7642584,-0.00127 h 4.24e-4 c 1.009752,-0.00474 1.8248,-0.8234622 1.8248,-1.8332556 0,-1.0098262 -0.815425,-1.8289909 -1.825223,-1.8336786 -0.921049,-8.427e-4 -1.843001,7.879e-4 -2.7642584,-0.00211 z M 4.4444147,5.406702 c 0.026777,2.669e-4 0.048692,0.016519 0.066379,0.035092 0.1079759,0.1133751 0.2210925,0.2233957 0.3327427,0.3352795 l 4.227e-4,4.23e-4 c 0.010765,0.010203 0.021703,0.021677 0.030446,0.030864 l 0.012681,0.013529 -0.00173,0.019026 c -0.00462,0.042468 -0.041596,0.065648 -0.04693,0.07103 C 4.6944469,6.0571319 4.5506218,6.2018229 4.4058994,6.3457382 3.7718618,6.9796947 3.1377886,7.6137667 2.5045733,8.2487557 2.4383961,8.3158237 2.3877834,8.3082662 2.329957,8.2462234 V 8.2458003 H 2.3295343 C 2.2281742,8.1390083 2.1243453,8.0347466 2.0175489,7.9333511 H 2.0171262 C 1.9685789,7.8865427 1.9734028,7.8453997 2.0175489,7.8014378 2.8038211,7.0169399 3.5895378,6.2312425 4.37423,5.44518 4.38849,5.430861 4.409345,5.409313 4.438915,5.407128 c 0.00144,-1.16e-4 0.00337,-4.487e-4 0.00549,-4.229e-4 z m 1.1297191,0.00507 c 0.033893,-3.263e-4 0.059938,0.02127 0.083287,0.044817 0.579197,0.5825817 1.1598451,1.1636515 1.7415099,1.7436224 0.1978597,0.1977394 0.3944273,0.3961794 0.5936081,0.5923411 0.0503,0.049439 0.058253,0.094556 0.00135,0.1488252 -0.1100943,0.1046911 -0.2163274,0.2149419 -0.325555,0.3234412 h -4.227e-4 v 4.229e-4 c -0.012074,0.011688 -0.026768,0.024152 -0.040161,0.03636 l -0.028327,0.025367 -0.02748,-0.025791 c -0.016929,-0.015866 -0.033403,-0.030979 -0.04904,-0.046503 L 6.5795488,7.3114141 C 6.1154933,6.8473581 5.6510527,6.38356 5.1864263,5.919983 5.1631633,5.896724 5.1375993,5.867767 5.1445703,5.828659 5.1491003,5.803202 5.1654543,5.78321 5.1847313,5.765239 5.2907122,5.666427 5.3935705,5.5641341 5.4925293,5.458287 c 0.01995,-0.021314 0.043887,-0.042945 0.07441,-0.046085 0.00241,-2.463e-4 0.00491,-3.972e-4 0.00722,-4.229e-4 z m 7.1507952,4.1176378 c 0.478999,0.026195 0.92628,0.2471412 1.237955,0.6117902 l 4.25e-4,4.22e-4 c 0.302524,0.339054 0.464138,0.780766 0.451973,1.234997 -10e-7,1.68e-4 0,6.78e-4 0,8.43e-4 v 4.22e-4 c -0.0017,0.629254 -0.0014,1.258636 8.17e-4,1.887797 0,0.0361 -0.0023,0.07752 -0.03636,0.101472 -0.02236,0.01571 -0.05032,0.01795 -0.07906,0.01648 -0.117623,-0.0059 -0.235392,-0.0059 -0.353035,0 -0.02777,0.0013 -0.05492,-0.0015 -0.07653,-0.01691 -0.03294,-0.02344 -0.03516,-0.06316 -0.0351,-0.09682 0.0017,-0.646552 0.0018,-1.293165 8.18e-4,-1.939801 0.0026,-0.651129 -0.503041,-1.190348 -1.152973,-1.229922 -0.64993,-0.03957 -1.216962,0.434033 -1.293341,1.080675 v 4.23e-4 c -0.007,0.05602 -0.0104,0.112664 -0.01015,0.16912 0,0.639318 -0.0013,1.278593 0.0013,1.917815 0,0.08513 -0.03368,0.118762 -0.117537,0.115423 -0.122875,-0.0041 -0.245807,-0.0041 -0.368681,0 h -4.23e-4 c -0.06741,0.0015 -0.09386,-0.0322 -0.09386,-0.09386 0.0011,-1.16204 0.0011,-2.323973 0,-3.4859771 0,-0.0641 0.02409,-0.1005968 0.09724,-0.098512 0.130226,0.00336 0.26107,0.00253 0.391934,0 0.05929,-9.573e-4 0.09261,0.02528 0.0909,0.090056 v 4.23e-4 c -0.0014,0.068498 -0.0013,0.1376293 -8.19e-4,0.2122451 0.302348,-0.281076 0.693741,-0.4495956 1.107733,-0.4756487 h 4.23e-4 c 0.07865,-0.00632 0.157572,-0.00727 0.236345,-0.00297 z m -8.6648384,0.063418 c 0.081333,0.00242 0.1640432,0.00985 0.2481826,0.021985 0.5084751,0.070904 0.9665502,0.3444537 1.2700875,0.7585011 v 4.23e-4 C 6.2055216,11.208122 6.0657058,12.387876 5.2608389,13.052591 4.4825198,13.69538 3.3488415,13.63663 2.641177,12.932516 v 0.136565 c 0,0.50343 -0.00183,1.006772 0.00173,1.509814 0,0.09254 -0.0394,0.121413 -0.1226123,0.117961 -0.1154044,-0.0052 -0.2308675,-0.0052 -0.3462728,0 -0.027181,0.0013 -0.053939,-0.0012 -0.075681,-0.01607 -0.033681,-0.02308 -0.036675,-0.06265 -0.036358,-0.09767 0.0025,-0.281651 0.00135,-0.563815 0.00135,-0.846444 0,-1.303268 -5.623e-4,-2.606694 -0.00173,-3.910044 0,-0.092051 0.037696,-0.1260205 0.1259929,-0.1217661 0.1173523,0.00525 0.2356625,0.00378 0.3538833,-4.229e-4 0.077289,-0.00261 0.1022845,0.036534 0.1010491,0.1027401 -0.00212,0.1146589 -0.00154,0.2296469 -0.00135,0.3526139 C 3.0491094,9.7744225 3.5208725,9.5768465 4.0600926,9.592826 Z m 4.2322161,4.229e-4 c 0.8552976,-0.011476 1.6183332,0.5349543 1.8831463,1.3483063 0.0834,0.258002 0.113091,0.530584 0.08668,0.800358 -0.0071,0.07286 -0.04452,0.0936 -0.106968,0.09344 -0.527058,-0.0014 -1.0538004,-0.0016 -1.5812678,-8.43e-4 -0.5272854,0 -1.0554028,0.0015 -1.5829588,-0.0017 -0.00693,10e-6 -0.012739,3.54e-4 -0.016908,8.43e-4 8.021e-4,0.0048 0.00193,0.01109 0.00385,0.0186 l 4.227e-4,4.23e-4 v 4.23e-4 c 0.1453078,0.639694 0.7230991,1.086184 1.378748,1.06503 l 4.227e-4,-4.23e-4 h 8.184e-4 c 0.4696564,-0.0044 0.9015659,-0.256411 1.1364842,-0.662948 0.025612,-0.06237 0.098461,-0.09106 0.1598171,-0.063 0.113859,0.03566 0.2287724,0.06755 0.344158,0.09217 0.028222,0.006 0.056213,0.01528 0.072716,0.03847 0.02536,0.03562 0.0059,0.07572 -0.0097,0.104854 l -4.23e-4,4.23e-4 v 4.24e-4 C 9.7431073,13.056869 9.1105497,13.465552 8.4064796,13.497319 7.7020667,13.529093 7.0354527,13.178817 6.6620119,12.580691 6.2885546,11.982579 6.266251,11.229401 6.6040718,10.610462 6.9418917,9.9915225 7.5872361,9.6026694 8.2923076,9.5932075 Z m 0.00298,0.5766983 c -0.4546974,-0.0012 -0.8779951,0.231706 -1.1204111,0.616444 l -4.237e-4,8.43e-4 -4.227e-4,4.24e-4 c -0.098047,0.140726 -0.1655365,0.300367 -0.1978703,0.46846 0.8922002,0 1.7849694,6.42e-4 2.6771628,0.0017 0.00568,0 0.00996,-2.6e-5 0.013528,-4.22e-4 -7.962e-4,-0.0038 -0.00183,-0.0085 -0.00337,-0.01395 -0.015588,-0.05314 -0.027066,-0.104696 -0.044821,-0.150063 C 9.5141694,10.826142 9.3667481,10.613908 9.1751103,10.46046 8.9834726,10.307011 8.7472314,10.21166 8.4622714,10.180989 h -4.227e-4 -4.226e-4 c -0.055076,-0.0072 -0.1106181,-0.0108 -0.1661606,-0.011 z m -4.2153034,0.0017 c -0.7727816,-0.03675 -1.422949,0.569397 -1.4400484,1.342816 -0.0171,0.773419 0.6055668,1.407954 1.3791697,1.405383 0.7470522,-8.06e-4 1.3537734,-0.596053 1.3724048,-1.33858 5.7e-6,-2.19e-4 -4.9e-6,-6.29e-4 0,-8.44e-4 v -0.03383 c 7.828e-4,-0.73567 -0.5766647,-1.340917 -1.3115473,-1.374944 z" />
</svg>
