<?xml version="1.0" encoding="UTF-8" standalone="no"?>
<svg
   id="svg3297"
   height="64"
   width="64"
   version="1.0"
   sodipodi:docname="youtrack.svg"
   inkscape:version="1.4.3 (0d15f75042, 2025-12-25)"
   xmlns:inkscape="http://www.inkscape.org/namespaces/inkscape"
   xmlns:sodipodi="http://sodipodi.sourceforge.net/DTD/sodipodi-0.dtd"
   xmlns="http://www.w3.org/2000/svg"
   xmlns:svg="http://www.w3.org/2000/svg"
   xmlns:rdf="http://www.w3.org/1999/02/22-rdf-syntax-ns#"
   xmlns:cc="http://creativecommons.org/ns#"
   xmlns:dc="http://purl.org/dc/elements/1.1/">
  <sodipodi:namedview
     id="namedview1"
     pagecolor="#9c4444"
     bordercolor="#000000"
     borderopacity="0.25"
     inkscape:showpageshadow="2"
     inkscape:pageopacity="0.0"
     inkscape:pagecheckerboard="0"
     inkscape:deskcolor="#d1d1d1"
     inkscape:zoom="3.2734375"
     inkscape:cx="40.782816"
     inkscape:cy="33.298329"
     inkscape:window-width="2560"
     inkscape:window-height="1388"
     inkscape:window-x="0"
     inkscape:window-y="0"
     inkscape:window-maximized="1"
     inkscape:current-layer="svg3297" />
  <metadata
     id="metadata58">
    <rdf:RDF>
      <cc:Work
         rdf:about="">
        <dc:format>image/svg+xml</dc:format>
        <dc:type
           rdf:resource="http://purl.org/dc/dcmitype/StillImage" />
      </cc:Work>
    </rdf:RDF>
  </metadata>
  <defs
     id="defs3299">
    <style
       id="current-color-scheme"
       type="text/css">.ColorScheme-Text {color:#d8dee9} .ColorScheme-Highlight {color:#3b4252}</style>
  </defs>
  <path
     id="path5"
     d="m 40.549916,19.571267 h -9.967925 l -4.97e-4,2.183653 h 3.781333 v 10.243189 h 2.423311 V 21.75492 h 3.763778 z M 32.827918,41.935475 H 19.578097 v 2.484341 H 32.827918 Z M 23.27695,27.337898 18.732179,19.571267 h 2.609635 l 2.814014,4.961975 0.328678,0.710108 0.328595,-0.718968 2.742631,-4.953115 h 2.565082 l -4.473885,7.749075 v 4.677767 H 23.27695 Z M 33.385925,5.5014087 C 31.05672,5.5395147 28.740884,6.3499674 26.848354,7.9275234 L 18.332692,15.0231 h -3.309221 v 2.757684 l -9.4489081,7.875169 c -0.08799,0.07296 -0.09937,0.203684 -0.02588,0.291133 l 7.2929001,8.709752 -6.3224551,13.023384 c -0.04348,0.08952 -0.01715,0.196507 0.06308,0.255551 L 20.807327,58.457024 c 0.08124,0.06004 0.189604,0.05799 0.263637,-0.01132 0.835571,-0.780328 5.893528,-5.359833 13.765775,-9.469936 h 14.139404 v -5.578446 c 4.93066,-1.417575 8.43822,-1.916162 9.34054,-2.02985 0.12322,-0.01549 0.20483,-0.133277 0.17791,-0.253933 l -4.3945,-19.531841 c -0.021,-0.0946 -0.10253,-0.158757 -0.19409,-0.161741 -0.0211,-6.88e-4 -0.0432,0.0019 -0.0647,0.0081 l -4.86517,1.397442 V 15.0231 h -4.9897 C 43.736303,12.216801 42.352523,9.5443621 40.001158,7.712408 38.056912,6.1982523 35.715155,5.4633031 33.385949,5.5014087 Z M 15.851585,15.851214 H 48.148023 V 48.147653 H 15.851585 Z"
     style="fill:currentColor;fill-opacity:1;stroke-width:0.828114"
     class="ColorScheme-Text" />
</svg>
