<?xml version="1.0" encoding="UTF-8" standalone="no"?>
<svg
   width="64"
   height="64"
   version="1.1"
   viewBox="0 0 16.933 16.933"
   id="svg7"
   sodipodi:docname="zellij.svg"
   inkscape:version="1.4.3 (0d15f75042, 2025-12-25)"
   xmlns:inkscape="http://www.inkscape.org/namespaces/inkscape"
   xmlns:sodipodi="http://sodipodi.sourceforge.net/DTD/sodipodi-0.dtd"
   xmlns="http://www.w3.org/2000/svg"
   xmlns:svg="http://www.w3.org/2000/svg"
   xmlns:rdf="http://www.w3.org/1999/02/22-rdf-syntax-ns#"
   xmlns:cc="http://creativecommons.org/ns#"
   xmlns:dc="http://purl.org/dc/elements/1.1/">
  <sodipodi:namedview
     id="namedview7"
     pagecolor="#9c4444"
     bordercolor="#000000"
     borderopacity="0.25"
     inkscape:showpageshadow="2"
     inkscape:pageopacity="0.0"
     inkscape:pagecheckerboard="0"
     inkscape:deskcolor="#d1d1d1"
     inkscape:zoom="4.3531262"
     inkscape:cx="89.935366"
     inkscape:cy="34.457995"
     inkscape:window-width="2560"
     inkscape:window-height="1388"
     inkscape:window-x="0"
     inkscape:window-y="0"
     inkscape:window-maximized="1"
     inkscape:current-layer="svg7"
     showgrid="false" />
  <defs
     id="defs2">
    <style
       id="current-color-scheme"
       type="text/css">.ColorScheme-Text {color:#d8dee9} .ColorScheme-Highlight {color:#3b4252}</style>
  </defs>
  <metadata
     id="metadata2">
    <rdf:RDF>
      <cc:Work
         rdf:about="">
        <dc:format>image/svg+xml</dc:format>
        <dc:type
           rdf:resource="http://purl.org/dc/dcmitype/StillImage" />
      </cc:Work>
    </rdf:RDF>
  </metadata>
  <path
     id="path5"
     d="m 8.47435,10.21406 c 0.0113,-6.9e-4 0.0218,0.002 0.0316,0.008 0.72466,0.003 1.44927,0.004 2.17393,0.003 -0.7255,0.006 -1.4519,0.007 -2.1792,0.003 -0.0105,-0.002 -0.0193,-0.006 -0.0263,-0.0132 z m -0.0737,-0.4948 c -0.005,0.1297 -0.007,0.25956 -0.005,0.38952 -0.006,-0.1237 -0.007,-0.24824 -0.003,-0.37372 10e-4,-0.007 0.004,-0.0118 0.008,-0.0158 z m 2.26342,-0.0947 c 0.0681,0.008 0.11106,0.0444 0.12896,0.11054 0.005,0.1318 0.003,0.26339 -0.005,0.39478 -0.0191,0.0504 -0.0551,0.082 -0.10791,0.0947 -0.72466,9e-4 -1.44927,0 -2.17393,-0.003 -0.01,-0.006 -0.0203,-0.009 -0.0316,-0.008 -0.0418,-0.024 -0.0681,-0.0591 -0.079,-0.10528 -0.002,-0.12996 2.1e-4,-0.25982 0.005,-0.38952 0.012,-0.0305 0.0313,-0.0559 0.0579,-0.0763 0.0102,-0.01 0.0225,-0.0144 0.0369,-0.0132 0.72277,-0.005 1.44569,-0.007 2.16867,-0.005 z m 0,0 c -0.72298,-0.002 -1.4459,5e-5 -2.16867,0.005 0.002,-0.004 0.006,-0.006 0.0105,-0.008 0.72024,-0.004 1.43964,-0.004 2.15814,0.003 z M 6.06355,9.56136 c -0.009,0.0308 -0.0122,0.0624 -0.0105,0.0947 -0.006,-0.0236 -0.007,-0.0482 -0.003,-0.0737 0.003,-0.008 0.008,-0.0153 0.0132,-0.0211 z m 1.00011,-1.0159 c -0.0296,0.0401 -0.0647,0.0752 -0.10528,0.10527 0.0333,-0.0368 0.0684,-0.072 0.10528,-0.10527 z M 6.06355,7.14003 c -0.009,0.029 -0.0121,0.0589 -0.0105,0.0895 -0.006,-0.0219 -0.007,-0.0446 -0.003,-0.0684 0.003,-0.008 0.008,-0.0153 0.0132,-0.0211 z m 0.5369,-0.45794 c 0.0262,0.007 0.0508,0.0183 0.0737,0.0342 0.54082,0.53906 1.0786,1.0786 1.61334,1.61861 0.0323,0.0722 0.0218,0.13706 -0.0316,0.19476 -0.52301,0.523 -1.04588,1.04585 -1.5686,1.56859 -0.0161,0.0406 -0.0433,0.0713 -0.0816,0.0921 -0.0148,0.009 -0.0306,0.0126 -0.0474,0.0105 C 6.39556,10.03988 6.23501,9.8776 6.07666,9.71395 c -0.009,-0.0188 -0.0174,-0.0381 -0.0237,-0.0579 -0.002,-0.0324 0.002,-0.064 0.0105,-0.0947 0.001,-0.007 0.004,-0.0145 0.008,-0.0211 C 6.36974,9.24284 6.66539,8.94634 6.9584,8.65067 6.999,8.62057 7.0341,8.58547 7.06368,8.5454 7.13658,8.4822 7.14978,8.40849 7.10318,8.32432 6.75918,7.98207 6.41878,7.63993 6.08201,7.29789 c -0.0143,-0.0208 -0.0239,-0.0436 -0.029,-0.0684 -0.002,-0.0306 0.002,-0.0605 0.0105,-0.0895 0.001,-0.007 0.004,-0.0145 0.008,-0.0211 0.14063,-0.14065 0.28012,-0.28014 0.41847,-0.41847 0.01,-0.006 0.0206,-0.0103 0.0316,-0.0132 0.0261,-0.004 0.0524,-0.006 0.079,-0.005 z m 0,0 c -0.0265,-4.6e-4 -0.0528,0.001 -0.079,0.005 0.0141,-0.008 0.0299,-0.0114 0.0474,-0.0105 0.0116,3e-5 0.0221,0.002 0.0316,0.005 z M 8.42697,1.45518 C 6.41468,2.62626 4.40392,3.80008 2.39471,4.97663 v 2.5845 c 0.008,1.35016 0.0139,2.70121 0.0184,4.0531 8.8e-4,0.12985 0.004,0.25971 0.008,0.38951 2.01827,1.15824 4.03604,2.31627 6.05332,3.47408 h 0.0316 c 2.01228,-1.17108 4.02303,-2.3449 6.03226,-3.52145 v -2.5845 c -0.008,-1.34663 -0.0139,-2.69417 -0.0184,-4.04257 -9e-4,-0.13338 -0.004,-0.26673 -0.008,-0.40004 C 12.49272,3.76968 10.47317,2.61166 8.45331,1.45518 Z m 0.38162,1.06854 c 0.0241,0.009 0.0478,0.0195 0.0711,0.0316 0.0186,0.0142 0.0379,0.0274 0.0579,0.0395 0.91189,0.51867 1.82162,1.04065 2.72925,1.56597 0.0227,0.0822 0.0447,0.1647 0.0658,0.2474 -0.002,0.004 -0.004,0.007 -0.005,0.0105 -0.28767,0.14646 -0.57539,0.29121 -0.86326,0.43426 -0.032,0.01 -0.0645,0.0179 -0.0974,0.0237 -0.0396,-0.006 -0.0773,-0.0164 -0.11317,-0.0316 -0.0193,-10e-4 -0.0369,-0.006 -0.0526,-0.0158 -0.014,4.7e-4 -0.0263,-0.003 -0.0368,-0.0105 -0.0139,4.7e-4 -0.0263,-0.003 -0.0368,-0.0105 -0.0193,-0.001 -0.0369,-0.006 -0.0526,-0.0158 -0.0193,-10e-4 -0.0368,-0.006 -0.0526,-0.0158 -0.0139,4.7e-4 -0.0263,-0.003 -0.0368,-0.0105 -0.006,-3e-4 -0.0111,-0.002 -0.0158,-0.005 -0.014,4.7e-4 -0.0263,-0.003 -0.0369,-0.0105 -0.0517,-0.014 -0.10259,-0.0307 -0.15265,-0.05 C 9.73021,4.42912 9.27927,4.15892 8.82748,3.89004 8.74918,3.77986 8.67546,3.66669 8.6064,3.55052 8.6024,3.47772 8.6014,3.40404 8.6014,3.32945 8.6024,3.07759 8.6074,2.82668 8.6172,2.57673 c 0.0255,-0.008 0.0519,-0.0153 0.079,-0.0211 0.0106,-0.007 0.0229,-0.011 0.0369,-0.0105 0.0243,-0.009 0.0497,-0.016 0.0763,-0.0211 z m -0.69913,0.0225 c 0.002,1.2e-4 0.005,5.2e-4 0.007,10e-4 0.0261,0.0192 0.0542,0.0341 0.0842,0.0447 0.008,0.0541 0.013,0.10855 0.0158,0.16318 0.008,0.0214 0.0117,0.0442 0.0105,0.0684 0.0121,0.0708 0.0209,0.14274 0.0263,0.21581 0.004,0.019 0.006,0.0383 0.005,0.0579 0.007,0.0251 0.0109,0.0514 0.0105,0.079 0.003,0.0352 0.006,0.0703 0.0105,0.10527 0.009,0.0339 0.0121,0.069 0.008,0.10528 -0.002,0.003 -0.005,0.005 -0.008,0.005 C 8.19926,3.54831 8.1194,3.70447 8.03976,3.86024 7.64806,4.08722 7.25767,4.31619 6.86857,4.54716 6.79497,4.56646 6.7213,4.58396 6.64749,4.59976 6.60409,4.57496 6.56109,4.54956 6.51853,4.52346 6.50953,4.49576 6.50113,4.46766 6.49483,4.43926 6.48583,4.42346 6.48023,4.40586 6.47903,4.38666 6.46903,4.33976 6.45703,4.29416 6.44223,4.2498 6.43523,4.2392 6.43123,4.2269 6.43173,4.213 6.43243,4.204 6.43073,4.1948 6.42673,4.1867 6.41253,4.1707 6.40733,4.1514 6.41093,4.1288 6.40693,4.1138 6.40193,4.0997 6.39513,4.0867 6.38613,4.0654 6.38073,4.0426 6.37933,4.0183 V 4.0133 C 6.37233,4.0027 6.36833,3.9904 6.36883,3.9765 6.35123,3.9112 6.33283,3.84631 6.31353,3.78174 c -0.004,-0.0123 -0.004,-0.0246 0,-0.0369 C 6.37583,3.65804 6.43811,3.57114 6.5004,3.48429 7.03165,3.17583 7.56153,2.86526 8.09005,2.5526 c 0.006,-0.005 0.0125,-0.007 0.0194,-0.006 z M 5.65297,3.97917 c 0.0945,0.009 0.18928,0.0175 0.28425,0.0263 0.03,0.0929 0.0563,0.18681 0.0789,0.28161 0.0102,0.0231 0.0172,0.0477 0.0211,0.0737 0.007,0.0204 0.0127,0.0415 0.0158,0.0632 0.0151,0.0368 0.0256,0.0754 0.0316,0.1158 0.0219,0.0748 0.0438,0.15022 0.0658,0.22634 0.005,0.0209 0.007,0.042 0.005,0.0632 C 6.05435,4.93564 5.95522,5.04355 5.85802,5.15304 5.4029,5.4078 4.94846,5.66397 4.49471,5.92155 c -0.066,0.1066 -0.13007,0.2145 -0.19213,0.32372 -0.003,0.80535 -0.004,1.6107 -0.003,2.41606 -0.002,0.25008 0.002,0.49921 0.0105,0.74745 v 0.079 c 0.002,0.21497 0.005,0.42899 0.0105,0.64218 8.8e-4,0.0807 0,0.16144 -0.003,0.24213 -0.0722,0.14523 -0.145,0.28998 -0.21844,0.43426 -0.17698,0.0855 -0.35419,0.17154 -0.53164,0.25792 -0.0679,0.0521 -0.1372,0.10212 -0.20792,0.15002 C 3.30408,11.14379 3.24967,11.07185 3.1964,10.99848 3.1934,9.86677 3.1924,8.73506 3.1934,7.60335 3.1874,7.33053 3.1834,7.05682 3.1829,6.78221 3.1759,6.49798 3.1707,6.21286 3.1671,5.92685 c 0,-0.0825 0.002,-0.16407 0.005,-0.24477 C 3.2657,5.53793 3.35868,5.39317 3.45107,5.24782 4.18449,4.82497 4.91791,4.40211 5.65132,3.97926 Z m 2.57924,0.40268 c 0.13207,-0.003 0.26366,10e-5 0.39478,0.008 1.07118,0.62246 2.14325,1.24358 3.21616,1.86337 0.063,0.10572 0.12522,0.21187 0.18686,0.31846 0.004,1.25277 0.004,2.50555 0,3.75832 -0.0599,0.10664 -0.12043,0.21281 -0.1816,0.31846 -0.008,0.008 -0.0164,0.0153 -0.0263,0.0211 -1.06938,0.61628 -2.13792,1.23388 -3.20562,1.85284 -0.12986,0.004 -0.25966,0.004 -0.38952,0 C 7.14924,11.90065 6.0728,11.27689 4.99766,10.65114 4.93756,10.54323 4.87616,10.43622 4.81343,10.33005 c -0.004,-1.25104 -0.004,-2.50202 0,-3.75306 C 4.87483,6.46996 4.93624,6.36293 4.99766,6.2559 6.07661,5.6318 7.1548,5.00716 8.23223,4.38201 Z m 3.92413,0.20528 c 0.004,0 0.009,8.8e-4 0.0132,0.003 0.14433,0.0463 0.28819,0.0937 0.43163,0.14212 0.34667,0.20755 0.69408,0.41371 1.04222,0.61849 0.0131,0.006 0.0183,0.0168 0.0158,0.0316 0.0114,0.0378 0.022,0.0764 0.0316,0.1158 0.007,0.0106 0.011,0.0229 0.0105,0.0369 0.003,0.005 0.005,0.01 0.005,0.0158 0.007,0.0106 0.011,0.0229 0.0105,0.0369 0.006,0.0146 0.01,0.0304 0.0105,0.0474 0.0211,0.0351 0.0211,0.0702 0,0.10528 -0.003,0.0152 -0.009,0.0293 -0.0158,0.0421 1.6e-4,0.024 -0.007,0.045 -0.0211,0.0632 -0.0269,0.0691 -0.0523,0.13925 -0.0763,0.21055 -0.005,0.0166 -0.0128,0.0315 -0.0237,0.0447 l -0.66323,0.37899 c -0.0878,0.0237 -0.17549,0.0474 -0.26319,0.0711 -0.0255,-0.10019 -0.0518,-0.2002 -0.0789,-0.30003 -0.009,-0.0158 -0.0146,-0.0334 -0.0158,-0.0526 -0.002,-0.0203 -0.007,-0.0396 -0.0158,-0.0579 -0.007,-0.0106 -0.011,-0.0229 -0.0105,-0.0369 v -0.005 c -0.007,-0.0106 -0.011,-0.0229 -0.0105,-0.0369 -0.009,-0.0158 -0.0146,-0.0334 -0.0158,-0.0526 v -0.0105 c -0.008,-0.008 -0.0118,-0.019 -0.0105,-0.0316 -0.43163,-0.25616 -0.86152,-0.51496 -1.28962,-0.77641 0.0359,-0.0631 0.0745,-0.12451 0.1158,-0.18423 0.12228,-0.0638 0.24508,-0.12606 0.36847,-0.18686 0.006,-0.009 0.0149,-0.0145 0.0263,-0.0158 0.13827,-0.0709 0.27692,-0.14197 0.41583,-0.21318 0.004,-0.002 0.009,-0.003 0.0132,-0.003 z m 1.45017,1.95812 c 0.0492,0.0422 0.0966,0.0861 0.14212,0.13159 0.003,5.9e-4 0.006,0.002 0.008,0.005 0.003,0.0754 0.004,0.15086 0.003,0.22634 -10e-4,0.0939 -0.005,0.18692 -0.0105,0.27898 v 0.0579 c 8.9e-4,0.093 0,0.18602 -0.003,0.27898 -9e-4,0.0255 -0.004,0.0501 -0.008,0.0737 10e-4,0.0126 -0.002,0.0232 -0.0105,0.0316 -0.0404,0.0782 -0.079,0.15797 -0.1158,0.2395 -0.13738,0.0368 -0.27424,0.0745 -0.41057,0.11317 -0.008,0.008 -0.019,0.0118 -0.0316,0.0105 -0.0158,0.004 -0.0316,0.007 -0.0474,0.0105 -0.008,0.008 -0.019,0.0118 -0.0316,0.0105 -0.0217,0.003 -0.0427,0.008 -0.0632,0.0158 -0.0111,0.006 -0.0233,0.009 -0.0368,0.0105 -0.0656,0.0159 -0.13049,0.0344 -0.19476,0.0553 -0.0174,0.005 -0.0349,0.007 -0.0526,0.005 -0.0463,-0.0411 -0.0911,-0.0841 -0.13423,-0.12896 -0.007,-0.0824 -0.0136,-0.16486 -0.0184,-0.2474 -0.007,-0.0269 -0.0104,-0.055 -0.0105,-0.0842 -0.006,-0.0789 -0.0107,-0.15786 -0.0132,-0.23687 0.0354,-0.0971 0.0722,-0.1936 0.11054,-0.2895 0.005,-0.0114 0.0132,-0.0202 0.0237,-0.0263 0.0144,-0.0196 0.0319,-0.0354 0.0526,-0.0474 0.0674,-0.0665 0.1358,-0.13228 0.20528,-0.19739 0.21434,-0.1019 0.43016,-0.20103 0.64745,-0.2974 z m -0.11054,1.73967 c 0.0752,0.0568 0.15244,0.11038 0.2316,0.16055 0.007,0.65533 0.0104,1.31151 0.0105,1.96864 0.003,0.16502 -6e-5,0.32819 -0.0105,0.48953 -0.0437,0.0149 -0.0876,0.0254 -0.13159,0.0316 -0.30493,-0.35541 -0.61112,-0.70982 -0.91853,-1.06328 -0.0186,-0.30182 -0.037,-0.60364 -0.0553,-0.90536 -0.01,-0.0525 -0.0114,-0.10512 -0.005,-0.15792 0.0681,-0.12469 0.13823,-0.24839 0.21055,-0.37109 0.11554,-0.0289 0.23134,-0.0561 0.34741,-0.0816 0.0106,-0.007 0.0229,-0.011 0.0368,-0.0105 0.0109,-10e-5 0.0214,-0.002 0.0316,-0.005 0.0106,-0.007 0.0229,-0.011 0.0368,-0.0105 0.0146,-0.006 0.0304,-0.01 0.0474,-0.0105 0.0108,-1.1e-4 0.0214,-0.002 0.0316,-0.005 0.0106,-0.007 0.0229,-0.011 0.0369,-0.0105 0.0319,-0.0117 0.0652,-0.0179 0.10001,-0.0184 z m -0.88431,2.21341 c 0.0244,0.011 0.0489,0.0197 0.0737,0.0263 0.0139,-4.8e-4 0.0263,0.003 0.0368,0.0105 0.048,0.005 0.0875,0.0262 0.11843,0.0632 0.2404,0.26845 0.48074,0.5369 0.72113,0.80536 0.003,0.009 0.001,0.0182 -0.005,0.0263 -0.0509,0.0877 -0.10175,0.17544 -0.15265,0.26319 -1.38873,0.81325 -2.77752,1.6265 -4.16626,2.43975 -0.005,0.003 -0.0103,0.003 -0.0158,0.003 -0.008,-0.0378 -0.017,-0.0755 -0.0263,-0.11317 2.1e-4,-0.0104 0.003,-0.02 0.008,-0.029 0.4281,-0.62465 0.85625,-1.24924 1.28435,-1.87389 0.13996,-0.10902 0.27945,-0.21871 0.41847,-0.32899 0.38252,-0.21055 0.76498,-0.4211 1.1475,-0.63165 0.17597,-0.1288 0.35056,-0.2595 0.52374,-0.39215 0.003,-0.0122 0.003,-0.0244 0.003,-0.0369 5.3e-4,-0.0309 0.004,-0.0607 0.0105,-0.0895 0.002,-0.0458 0.007,-0.0914 0.0132,-0.13686 0.002,-0.002 0.005,-0.004 0.008,-0.005 z m -8.0825,0.52111 c 0.3429,0.19381 0.68593,0.38683 1.02907,0.57901 0.0367,0.12591 0.0718,0.25224 0.10527,0.37899 0.005,0.25967 0.008,0.51933 0.0105,0.77904 -0.004,0.005 -0.009,0.007 -0.0158,0.005 -0.008,0.008 -0.019,0.0118 -0.0316,0.0105 -0.0425,0.009 -0.0846,0.0194 -0.12634,0.0316 -0.009,-4.2e-4 -0.0182,-0.003 -0.0263,-0.008 -0.64393,-0.36936 -1.28787,-0.73866 -1.9318,-1.10802 -0.002,-0.004 -0.004,-0.007 -0.005,-0.0105 0.0383,-0.0722 0.0786,-0.14323 0.12107,-0.21318 0.29005,-0.14897 0.58044,-0.29725 0.87115,-0.44479 z m 1.62475,0.91601 c 0.003,-1.2e-4 0.006,7.2e-4 0.01,0.003 0.64586,0.38257 1.2933,0.76245 1.94232,1.1396 0.0416,0.001 0.0819,0.007 0.12107,0.0158 0.0287,0.007 0.0586,0.01 0.0895,0.0105 0.11917,0.0168 0.23845,0.0326 0.35794,0.0474 0.26392,-0.15212 0.52711,-0.30566 0.78956,-0.46058 0.0726,-0.0252 0.14628,-0.0471 0.22108,-0.0658 0.004,0.002 0.007,0.004 0.0105,0.005 -0.37941,0.56406 -0.75751,1.12902 -1.13434,1.69493 -0.005,0.006 -0.0109,0.0107 -0.0184,0.0132 -0.0856,0.0217 -0.17065,0.0454 -0.25529,0.0711 -0.70719,-0.40757 -1.41341,-0.81725 -2.11866,-1.22909 -0.0172,-0.0623 -0.0347,-0.12459 -0.0526,-0.18686 -0.008,-0.008 -0.0118,-0.019 -0.0105,-0.0316 v -0.005 c -0.007,-0.0106 -0.011,-0.0229 -0.0105,-0.0368 -0.009,-0.0426 -0.0123,-0.0865 -0.0105,-0.1316 0.001,-0.0423 -7.1e-4,-0.0844 -0.005,-0.12633 -0.0106,-0.0743 -0.0158,-0.14975 -0.0158,-0.22634 -0.004,-0.042 -0.005,-0.0841 -0.005,-0.12633 0.001,-0.0423 -7.1e-4,-0.0844 -0.005,-0.12633 -0.01,-0.0472 -0.0116,-0.0945 -0.005,-0.14212 0.0312,-0.0329 0.0628,-0.0663 0.0947,-0.10001 0.004,-0.003 0.007,-0.005 0.0114,-0.005 z"
     style="fill:currentColor"
     class="ColorScheme-Text" />
</svg>
