<?xml version="1.0" encoding="UTF-8" standalone="no"?>
<svg
   width="64"
   height="64"
   version="1.1"
   viewBox="0 0 16.933 16.933"
   id="svg7"
   sodipodi:docname="zen.svg"
   inkscape:version="1.4.2 (ebf0e940d0, 2025-05-08)"
   xmlns:inkscape="http://www.inkscape.org/namespaces/inkscape"
   xmlns:sodipodi="http://sodipodi.sourceforge.net/DTD/sodipodi-0.dtd"
   xmlns="http://www.w3.org/2000/svg"
   xmlns:svg="http://www.w3.org/2000/svg"
   xmlns:rdf="http://www.w3.org/1999/02/22-rdf-syntax-ns#"
   xmlns:cc="http://creativecommons.org/ns#"
   xmlns:dc="http://purl.org/dc/elements/1.1/">
  <sodipodi:namedview
     id="namedview7"
     pagecolor="#9c4444"
     bordercolor="#000000"
     borderopacity="0.25"
     inkscape:showpageshadow="2"
     inkscape:pageopacity="0.0"
     inkscape:pagecheckerboard="0"
     inkscape:deskcolor="#d1d1d1"
     inkscape:zoom="4.3531261"
     inkscape:cx="104.40773"
     inkscape:cy="90.279948"
     inkscape:window-width="2560"
     inkscape:window-height="1392"
     inkscape:window-x="0"
     inkscape:window-y="0"
     inkscape:window-maximized="1"
     inkscape:current-layer="svg7"
     showgrid="false" />
  <defs
     id="defs2">
    <style
       id="current-color-scheme"
       type="text/css">.ColorScheme-Text {color:#d8dee9} .ColorScheme-Highlight {color:#3b4252}</style>
  </defs>
  <metadata
     id="metadata2">
    <rdf:RDF>
      <cc:Work
         rdf:about="">
        <dc:format>image/svg+xml</dc:format>
        <dc:type
           rdf:resource="http://purl.org/dc/dcmitype/StillImage" />
      </cc:Work>
    </rdf:RDF>
  </metadata>
  <path
     id="path5"
     style="fill:currentColor;fill-opacity:1;stroke-width:0.219104"
     d="m 8.4664995,1.4551797 c -3.872242,0 -7.01132,3.139078 -7.01132,7.01132 0,3.8722423 3.139078,7.0113203 7.01132,7.0113203 3.8722425,0 7.0113215,-3.139078 7.0113215,-7.0113203 0,-3.872242 -3.139078,-7.01132 -7.0113215,-7.01132 z m 0,1.258477 c 3.1772245,0 5.7528435,2.57562 5.7528435,5.752843 0,3.1772233 -2.57562,5.7528433 -5.7528435,5.7528433 -3.177223,0 -5.752843,-2.57562 -5.752843,-5.7528433 0,-3.177223 2.57562,-5.752843 5.752843,-5.752843 z m 0,1.078658 c -2.581502,0 -4.674185,2.092683 -4.674185,4.674185 0,2.5815023 2.092683,4.6741843 4.674185,4.6741843 2.5815025,0 4.6741845,-2.092682 4.6741845,-4.6741843 0,-2.581502 -2.092682,-4.674185 -4.6741845,-4.674185 z m 0,0.898839 c 2.0850585,0 3.7753455,1.690289 3.7753455,3.775346 0,2.0850563 -1.690288,3.7753453 -3.7753455,3.7753453 -2.085057,0 -3.775346,-1.690289 -3.775346,-3.7753453 0,-2.085057 1.690289,-3.775346 3.775346,-3.775346 z m 0,1.078658 c -1.489314,0 -2.696688,1.207374 -2.696688,2.696688 0,1.489336 1.207374,2.6966873 2.696688,2.6966873 1.489336,0 2.6966875,-1.2073513 2.6966875,-2.6966873 0,-1.489314 -1.2073515,-2.696688 -2.6966875,-2.696688 z m 0,0.539372 c 1.191465,0 2.1573165,0.965852 2.1573165,2.157316 0,1.191465 -0.9658515,2.1573163 -2.1573165,2.1573163 -1.191464,0 -2.157316,-0.9658513 -2.157316,-2.1573163 0,-1.191464 0.965852,-2.157316 2.157316,-2.157316 z"
     class="ColorScheme-Text" />
</svg>
