<?xml version='1.0' encoding='UTF-8'?>
<svg xmlns:inkscape="http://www.inkscape.org/namespaces/inkscape" xmlns:sodipodi="http://sodipodi.sourceforge.net/DTD/sodipodi-0.dtd" xmlns="http://www.w3.org/2000/svg" xmlns:svg="http://www.w3.org/2000/svg" xmlns:rdf="http://www.w3.org/1999/02/22-rdf-syntax-ns#" xmlns:cc="http://creativecommons.org/ns#" xmlns:dc="http://purl.org/dc/elements/1.1/" width="64" height="64" version="1.1" viewBox="0 0 16.933 16.933" id="svg7" sodipodi:docname="zorin-connect.svg" inkscape:version="1.4 (e7c3feb100, 2024-10-09)">
  <sodipodi:namedview id="namedview7" pagecolor="#9c4444" bordercolor="#000000" borderopacity="0.25" inkscape:showpageshadow="2" inkscape:pageopacity="0.0" inkscape:pagecheckerboard="0" inkscape:deskcolor="#d1d1d1" inkscape:zoom="6.15625" inkscape:cx="15.837563" inkscape:cy="29.725888" inkscape:window-width="1183" inkscape:window-height="941" inkscape:window-x="35" inkscape:window-y="32" inkscape:window-maximized="0" inkscape:current-layer="svg7" showgrid="false"/>
  <defs id="defs2">
    <style id="current-color-scheme" type="text/css">.ColorScheme-Text {color:#d8dee9} .ColorScheme-Highlight {color:#3b4252}</style></defs>
  <metadata id="metadata2">
    <rdf:RDF>
      <cc:Work rdf:about="">
        <dc:format>image/svg+xml</dc:format>
        <dc:type rdf:resource="http://purl.org/dc/dcmitype/StillImage"/>
      </cc:Work>
    </rdf:RDF>
  </metadata>
  <path style="fill:currentColor;fill-opacity:1;stroke:none;stroke-width:0.366466;stroke-dasharray:none;stroke-opacity:0.3" class="ColorScheme-Text" d="m 4.2181279,1.0379416 c -1.0724892,0 -1.0724892,1.0724888 -1.0724892,1.0724888 V 14.980301 c 0,0 0,1.072489 1.0724892,1.072489 h 8.5799111 c 1.072495,0 1.072495,-1.072489 1.072495,-1.072489 V 2.1104304 c 0,0 0,-1.0724888 -1.072495,-1.0724888 z m 1.072489,3.2174674 h 6.4349351 v 8.579914 H 5.2906169 Z m 2.6812228,9.652405 h 1.0724894 c 0,0 0.5362446,0 0.5362446,0.536243 0,0.536244 -0.5362446,0.536244 -0.5362446,0.536244 H 7.9718397 c 0,0 -0.5362444,0 -0.5362444,-0.536244 0,-0.536243 0.5362444,-0.536243 0.5362444,-0.536243 z" id="path5-6"/>
  </svg>
