<?xml version='1.0' encoding='UTF-8'?>
<svg xmlns:inkscape="http://www.inkscape.org/namespaces/inkscape" xmlns:sodipodi="http://sodipodi.sourceforge.net/DTD/sodipodi-0.dtd" xmlns="http://www.w3.org/2000/svg" xmlns:svg="http://www.w3.org/2000/svg" xmlns:rdf="http://www.w3.org/1999/02/22-rdf-syntax-ns#" xmlns:cc="http://creativecommons.org/ns#" xmlns:dc="http://purl.org/dc/elements/1.1/" width="64" height="64" version="1.1" viewBox="0 0 16.933 16.933" id="svg7" sodipodi:docname="zorin-appearance.svg" inkscape:version="1.4 (e7c3feb100, 2024-10-09)">
  <sodipodi:namedview id="namedview7" pagecolor="#9c4444" bordercolor="#000000" borderopacity="0.25" inkscape:showpageshadow="2" inkscape:pageopacity="0.0" inkscape:pagecheckerboard="0" inkscape:deskcolor="#d1d1d1" inkscape:zoom="6.15625" inkscape:cx="15.837563" inkscape:cy="29.725888" inkscape:window-width="1183" inkscape:window-height="941" inkscape:window-x="35" inkscape:window-y="32" inkscape:window-maximized="0" inkscape:current-layer="svg7" showgrid="false"/>
  <defs id="defs2">
    <style id="current-color-scheme" type="text/css">.ColorScheme-Text {color:#d8dee9} .ColorScheme-Highlight {color:#3b4252}</style></defs>
  <metadata id="metadata2">
    <rdf:RDF>
      <cc:Work rdf:about="">
        <dc:format>image/svg+xml</dc:format>
        <dc:type rdf:resource="http://purl.org/dc/dcmitype/StillImage"/>
      </cc:Work>
    </rdf:RDF>
  </metadata>
  <path d="m 2.8324734,2.0098808 v 0.00319 2.5032846 2.5032845 2.5032859 0.8291732 1.674115 0.413011 0.41616 A 1.5548411,1.6709589 0 0 0 4.3843818,14.5232 h -0.407779 l 0.026399,0.0032 h 1.164663 2.3293274 2.3293276 2.3293322 2.329326 V 12.023149 H 12.155652 9.8263236 8.3477576 L 9.6297674,11.228657 11.645194,9.9769478 13.663554,8.7253057 12.498891,6.5593646 10.480529,7.8110069 8.4651047,9.0626506 7.1889604,9.8539907 7.9253112,8.4825431 9.089974,6.3166026 10.254638,4.1475086 8.2304112,2.8927144 7.0657474,5.0618078 5.901083,7.2277482 5.1618012,8.6055011 V 7.01651 4.5132252 2.0099395 Z M 4.3843818,12.019868 c 0.2053552,0 0.4019128,0.08827 0.5485946,0.242763 0.1466838,0.154489 0.2258906,0.36887 0.2258906,0.589564 0,0.220691 -0.082143,0.431927 -0.2258906,0.589565 -0.1437521,0.157624 -0.3432394,0.242761 -0.5485946,0.242761 -0.2053558,0 -0.4019127,-0.08829 -0.5485962,-0.242761 -0.1466838,-0.154489 -0.225891,-0.368874 -0.225891,-0.589565 0,-0.220694 0.082145,-0.431923 0.225891,-0.589564 0.1437502,-0.157624 0.3432404,-0.242763 0.5485962,-0.242763 z" id="path2-3" style="fill:currentColor;fill-opacity:1;stroke:none;stroke-width:0.395094;stroke-dasharray:none;stroke-opacity:0.3" class="ColorScheme-Text"/>
  </svg>
