<?xml version="1.0" encoding="UTF-8" standalone="no"?>
<svg
   width="64"
   height="64"
   version="1.1"
   id="svg73"
   sodipodi:docname="application-x-sqlite3.svg"
   inkscape:version="1.4.2 (ebf0e940d0, 2025-05-08)"
   xmlns:inkscape="http://www.inkscape.org/namespaces/inkscape"
   xmlns:sodipodi="http://sodipodi.sourceforge.net/DTD/sodipodi-0.dtd"
   xmlns="http://www.w3.org/2000/svg"
   xmlns:svg="http://www.w3.org/2000/svg"
   xmlns:rdf="http://www.w3.org/1999/02/22-rdf-syntax-ns#"
   xmlns:cc="http://creativecommons.org/ns#"
   xmlns:dc="http://purl.org/dc/elements/1.1/">
  <metadata
     id="metadata77">
    <rdf:RDF>
      <cc:Work
         rdf:about="">
        <dc:format>image/svg+xml</dc:format>
        <dc:type
           rdf:resource="http://purl.org/dc/dcmitype/StillImage" />
      </cc:Work>
    </rdf:RDF>
  </metadata>
  <sodipodi:namedview
     pagecolor="#9c4444"
     bordercolor="#666666"
     borderopacity="1"
     objecttolerance="10"
     gridtolerance="10"
     guidetolerance="10"
     inkscape:pageopacity="0"
     inkscape:pageshadow="2"
     inkscape:window-width="2560"
     inkscape:window-height="1388"
     id="namedview75"
     showgrid="false"
     inkscape:zoom="4.4470387"
     inkscape:cx="19.451146"
     inkscape:cy="8.5450122"
     inkscape:window-x="0"
     inkscape:window-y="0"
     inkscape:window-maximized="1"
     inkscape:current-layer="svg73"
     inkscape:document-rotation="0"
     inkscape:pagecheckerboard="0"
     inkscape:showpageshadow="2"
     inkscape:deskcolor="#d1d1d1" />
  <defs
     id="defs29">
    <style
       id="current-color-scheme"
       type="text/css">.ColorScheme-Text {color:#d8dee9} .ColorScheme-Highlight {color:#3b4252}</style>
  </defs>
  <path
     id="path1"
     style="opacity:1;baseline-shift:baseline;display:inline;overflow:visible;vector-effect:none;fill:currentColor;enable-background:accumulate;stop-color:#000000;stop-opacity:1"
     d="M 19.661775 8.8383367 C 16.33974 8.8383367 13.637272 11.524326 13.637272 14.836206 L 13.637272 49.408294 C 13.637272 52.720174 16.33974 55.407939 19.661775 55.407939 L 44.400766 55.407939 C 47.722801 55.407939 50.427045 52.720174 50.427045 49.408294 L 50.427045 14.836206 C 50.427045 11.524326 47.722801 8.8383367 44.400766 8.8383367 L 19.661775 8.8383367 z M 35.892243 21.460851 C 37.163154 21.460851 38.126746 22.020443 38.166746 22.045013 C 38.379472 22.169558 38.511104 22.423904 38.440184 22.659359 C 38.372003 22.886631 38.191726 23.039331 37.959005 23.039331 L 37.948351 23.039331 C 37.882899 23.054787 37.646335 23.120752 37.085425 23.358933 C 36.839059 23.463478 36.631164 23.600026 36.467528 23.730027 C 36.643892 23.839118 36.853604 23.970652 37.085425 24.120652 C 37.5527 24.422471 39.935242 26.079543 40.918877 29.05318 C 41.551606 30.964998 41.588877 33.542157 41.032513 36.70943 C 40.913421 37.383976 41.197074 37.933863 41.524346 38.570226 C 41.725256 38.962045 41.931505 39.366246 42.065894 39.83443 C 42.441343 41.142614 42.158903 42.036521 42.126263 42.133791 C 42.051719 42.351077 41.847517 42.494232 41.620226 42.494232 C 41.612316 42.494232 41.603568 42.493367 41.595368 42.492456 C 41.358078 42.482457 41.154559 42.314974 41.098209 42.084075 C 41.097299 42.078618 40.952924 41.499974 40.522925 40.967243 C 40.359289 40.763607 40.145738 40.664787 39.874843 40.539331 C 39.654843 40.436606 39.404757 40.31913 39.159289 40.13095 C 38.839273 39.885495 38.649648 39.574188 38.53784 39.314189 C 38.441495 39.316009 38.34042 39.311804 38.24132 39.299984 C 37.937684 39.264528 37.67694 39.135367 37.401476 38.999913 C 37.228748 38.914457 37.050311 38.826784 36.843948 38.751334 C 36.453948 38.609512 35.848125 38.55977 35.647215 38.55247 C 35.439944 38.544285 35.255824 38.417584 35.174914 38.225766 C 35.093101 38.034857 35.12993 37.813904 35.269019 37.659359 C 35.306291 37.61845 35.646888 37.249116 36.266888 36.911845 C 36.967796 36.530025 37.589191 36.499913 38.330099 36.499913 C 38.670109 36.499913 38.684383 36.500721 38.795297 35.784359 C 38.900752 35.096177 38.505383 33.001092 37.541746 31.640183 C 36.905378 30.741092 35.670412 30.262911 34.945866 30.049274 C 34.932256 30.268365 34.919454 30.557356 34.910354 30.924629 C 34.888536 31.848265 35.469485 32.669815 35.474985 32.677115 C 35.618616 32.875296 35.60831 33.147668 35.450127 33.335851 C 35.292854 33.524032 35.028278 33.579842 34.807371 33.47257 C 34.771008 33.454388 33.908664 33.028834 32.745937 32.075198 C 31.890483 31.374289 31.512074 30.395241 31.353891 29.800695 C 30.876618 29.844335 30.119857 29.900126 29.400766 29.900126 C 28.688038 29.900126 27.952456 29.726761 27.360638 29.585851 C 26.980638 29.495845 26.621278 29.41007 26.424914 29.41007 C 26.075823 29.41007 25.705397 29.500368 25.19267 29.624913 C 24.931761 29.688551 24.635184 29.759059 24.292457 29.830879 C 23.855184 29.922699 23.548961 29.964047 23.301689 29.964047 C 23.168962 29.964047 22.763933 29.963763 22.488479 29.672854 C 22.320298 29.494671 22.244847 29.259644 22.261207 28.97328 C 22.285752 28.562371 22.648436 28.193791 23.512982 27.701973 C 23.725709 27.581064 23.935934 27.472282 24.109573 27.385922 C 24.092333 27.232285 24.087168 27.056718 24.095368 26.860354 C 24.134459 25.928536 25.174189 24.894744 27.02328 23.950198 C 28.440553 23.226562 29.388365 23.058961 30.485638 22.865325 C 30.804729 22.808961 31.134203 22.75079 31.492386 22.67534 C 32.229658 22.519885 32.72392 22.323351 33.246647 22.11426 C 33.782102 21.900623 34.334586 21.680058 35.118096 21.531874 C 35.369914 21.484604 35.630426 21.460851 35.892243 21.460851 z "
     transform="matrix(1.1,0,0,1.1,-3.1845928,-3.2065454)"
     class="ColorScheme-Text" />
</svg>
