<?xml version="1.0" encoding="UTF-8" standalone="no"?>
<svg
   width="64"
   height="64"
   version="1.1"
   id="svg73"
   sodipodi:docname="application-x-godot-scene.svg"
   inkscape:version="1.4.2 (ebf0e940d0, 2025-05-08)"
   xmlns:inkscape="http://www.inkscape.org/namespaces/inkscape"
   xmlns:sodipodi="http://sodipodi.sourceforge.net/DTD/sodipodi-0.dtd"
   xmlns="http://www.w3.org/2000/svg"
   xmlns:svg="http://www.w3.org/2000/svg"
   xmlns:rdf="http://www.w3.org/1999/02/22-rdf-syntax-ns#"
   xmlns:cc="http://creativecommons.org/ns#"
   xmlns:dc="http://purl.org/dc/elements/1.1/">
  <metadata
     id="metadata77">
    <rdf:RDF>
      <cc:Work
         rdf:about="">
        <dc:format>image/svg+xml</dc:format>
        <dc:type
           rdf:resource="http://purl.org/dc/dcmitype/StillImage" />
      </cc:Work>
    </rdf:RDF>
  </metadata>
  <sodipodi:namedview
     pagecolor="#9c4444"
     bordercolor="#666666"
     borderopacity="1"
     objecttolerance="10"
     gridtolerance="10"
     guidetolerance="10"
     inkscape:pageopacity="0"
     inkscape:pageshadow="2"
     inkscape:window-width="2560"
     inkscape:window-height="1388"
     id="namedview75"
     showgrid="false"
     inkscape:zoom="4.4470387"
     inkscape:cx="19.338712"
     inkscape:cy="25.859905"
     inkscape:window-x="0"
     inkscape:window-y="0"
     inkscape:window-maximized="1"
     inkscape:current-layer="svg73"
     inkscape:document-rotation="0"
     inkscape:pagecheckerboard="0"
     inkscape:showpageshadow="2"
     inkscape:deskcolor="#d1d1d1" />
  <defs
     id="defs29">
    <style
       id="current-color-scheme"
       type="text/css">.ColorScheme-Text {color:#d8dee9} .ColorScheme-Highlight {color:#3b4252}</style>
  </defs>
  <path
     id="path1"
     style="opacity:1;baseline-shift:baseline;display:inline;overflow:visible;vector-effect:none;fill:currentColor;enable-background:accumulate;stop-color:#000000;stop-opacity:1"
     d="M 19.661775 8.8383367 C 16.33974 8.8383367 13.637272 11.524326 13.637272 14.836206 L 13.637272 49.408294 C 13.637272 52.720174 16.33974 55.407939 19.661775 55.407939 L 44.400766 55.407939 C 47.722801 55.407939 50.427045 52.720174 50.427045 49.408294 L 50.427045 14.836206 C 50.427045 11.524326 47.722801 8.8383367 44.400766 8.8383367 L 19.661775 8.8383367 z M 30.109218 21.487484 C 30.446383 22.053316 30.753882 22.667585 31.02186 23.266604 C 31.339907 23.21347 31.660219 23.192256 31.980667 23.188479 L 31.982442 23.188479 L 31.984218 23.188479 L 31.985993 23.188479 L 31.987769 23.188479 L 31.989545 23.188479 L 31.99132 23.188479 C 32.311189 23.192285 32.632162 23.213473 32.950127 23.266604 C 33.21827 22.667585 33.5261 22.053316 33.862769 21.487484 C 34.706014 21.674854 35.538402 21.935662 36.320155 22.329104 C 36.302197 23.019325 36.257666 23.681486 36.167457 24.353251 C 36.470442 24.547738 36.789543 24.715067 37.072996 24.94274 C 37.361499 25.164372 37.655617 25.376006 37.916391 25.635212 C 38.437533 25.290515 38.988949 24.965893 39.557016 24.679956 C 40.169525 25.339142 40.742392 26.051771 41.21007 26.847925 C 40.904041 27.340745 40.506183 27.92556 40.08436 28.45659 L 40.08436 32.952328 L 40.082584 32.954104 L 40.082584 33.342953 C 40.073644 33.343019 40.064805 33.343933 40.055951 33.344729 L 37.060567 33.634146 C 36.903654 33.649374 36.782158 33.775197 36.77115 33.932442 L 36.67882 35.25524 L 34.065184 35.441675 L 33.885851 34.220084 C 33.862513 34.061846 33.726224 33.944871 33.566249 33.944871 L 30.405738 33.944871 C 30.24568 33.944871 30.109477 34.061846 30.086136 34.220084 L 29.906803 35.441675 L 27.293167 35.25524 L 27.200837 33.932442 C 27.189913 33.775197 27.066557 33.64929 26.909644 33.634146 L 23.914261 33.344729 C 23.905406 33.343885 23.896567 33.343033 23.887627 33.342953 L 23.887627 32.888408 L 23.887627 32.389473 L 23.887627 28.45659 C 23.522403 28.004213 23.127816 27.425069 22.760141 26.847925 C 23.227985 26.051771 23.800686 25.339142 24.413195 24.679956 C 24.981427 24.965893 25.532679 25.290515 26.05382 25.635212 C 26.314681 25.376006 26.609126 25.164372 26.897215 24.94274 C 27.180752 24.715067 27.500966 24.547738 27.80453 24.353251 C 27.714074 23.681486 27.669705 23.019324 27.651832 22.329104 C 28.433502 21.935661 29.266387 21.674854 30.109218 21.487484 z M 27.738834 28.635922 C 26.742235 28.635922 25.934857 29.443134 25.934857 30.439899 C 25.934857 31.437326 26.742235 32.245652 27.738834 32.245652 C 28.73593 32.245652 29.544587 31.437326 29.544587 30.439899 C 29.544587 29.443134 28.73593 28.635922 27.738834 28.635922 z M 36.233153 28.635922 C 35.235891 28.635922 34.4274 29.443134 34.4274 30.439899 C 34.4274 31.437326 35.235891 32.245652 36.233153 32.245652 C 37.229669 32.245652 38.03713 31.437326 38.03713 30.439899 C 38.03713 29.443134 37.229669 28.635922 36.233153 28.635922 z M 27.911064 29.3497 C 28.573146 29.3497 29.109573 29.886623 29.109573 30.548209 C 29.109573 31.209795 28.573146 31.744942 27.911064 31.744942 C 27.249313 31.744942 26.714332 31.209795 26.714332 30.548209 C 26.714332 29.886623 27.249313 29.3497 27.911064 29.3497 z M 36.059147 29.3497 C 36.721395 29.3497 37.257655 29.886623 37.257655 30.548209 C 37.257655 31.209795 36.721395 31.744942 36.059147 31.744942 C 35.397561 31.744942 34.860638 31.209795 34.860638 30.548209 C 34.860638 29.886623 35.397561 29.3497 36.059147 29.3497 z M 31.985993 29.692385 C 31.665049 29.692385 31.405383 29.928412 31.405383 30.219729 L 31.405383 31.881661 C 31.405383 32.173225 31.665049 32.41078 31.985993 32.41078 C 32.306938 32.41078 32.566604 32.173225 32.566604 31.881661 L 32.566604 30.219729 C 32.566604 29.928412 32.306938 29.692385 31.985993 29.692385 z M 23.8823 33.98926 L 26.575837 34.248493 L 26.669942 35.578394 C 26.681115 35.738618 26.808014 35.86696 26.968238 35.878465 L 30.158934 36.105737 C 30.327103 36.118069 30.477038 35.997534 30.501618 35.830524 L 30.684502 34.589402 L 33.287485 34.589402 L 33.470368 35.830524 C 33.49379 35.989755 33.631402 36.105737 33.789971 36.105737 C 33.797665 36.105737 33.805273 36.106317 33.813053 36.105737 L 37.003749 35.878465 C 37.163973 35.866961 37.290871 35.738618 37.302045 35.578394 L 37.394374 34.248493 L 40.087911 33.98926 C 40.086586 34.278921 40.082584 34.594345 40.082584 34.658649 C 40.082584 37.503451 36.474941 38.872326 31.99132 38.888053 L 31.985993 38.888053 L 31.980667 38.888053 C 27.497046 38.872328 23.887627 37.503451 23.887627 34.658649 C 23.887627 34.595503 23.883559 34.278755 23.8823 33.98926 z "
     transform="matrix(1.1,0,0,1.1,-3.1845928,-3.2065454)"
     class="ColorScheme-Text" />
</svg>
