<?xml version="1.0" encoding="UTF-8" standalone="no"?>
<svg
   width="64"
   height="64"
   version="1.1"
   viewBox="0 0 16.933 16.933"
   id="svg7"
   sodipodi:docname="application-x-apkg.svg"
   inkscape:version="1.4.2 (ebf0e940d0, 2025-05-08)"
   xmlns:inkscape="http://www.inkscape.org/namespaces/inkscape"
   xmlns:sodipodi="http://sodipodi.sourceforge.net/DTD/sodipodi-0.dtd"
   xmlns="http://www.w3.org/2000/svg"
   xmlns:svg="http://www.w3.org/2000/svg"
   xmlns:rdf="http://www.w3.org/1999/02/22-rdf-syntax-ns#"
   xmlns:cc="http://creativecommons.org/ns#"
   xmlns:dc="http://purl.org/dc/elements/1.1/">
  <sodipodi:namedview
     id="namedview7"
     pagecolor="#9c4444"
     bordercolor="#000000"
     borderopacity="0.25"
     inkscape:showpageshadow="2"
     inkscape:pageopacity="0.0"
     inkscape:pagecheckerboard="0"
     inkscape:deskcolor="#d1d1d1"
     inkscape:zoom="4.3531262"
     inkscape:cx="89.935366"
     inkscape:cy="34.457995"
     inkscape:window-width="2560"
     inkscape:window-height="1388"
     inkscape:window-x="0"
     inkscape:window-y="0"
     inkscape:window-maximized="1"
     inkscape:current-layer="svg7"
     showgrid="false" />
  <defs
     id="defs2">
    <style
       id="current-color-scheme"
       type="text/css">.ColorScheme-Text {color:#d8dee9} .ColorScheme-Highlight {color:#3b4252}</style>
  </defs>
  <metadata
     id="metadata2">
    <rdf:RDF>
      <cc:Work
         rdf:about="">
        <dc:format>image/svg+xml</dc:format>
        <dc:type
           rdf:resource="http://purl.org/dc/dcmitype/StillImage" />
      </cc:Work>
    </rdf:RDF>
  </metadata>
  <path
     id="path5"
     style="fill:currentColor"
     d="M 5.319984 1.6897861 C 4.2473177 1.6897861 3.3837062 2.5533976 3.3837062 3.6260639 L 3.3837062 13.306936 C 3.3837062 14.379602 4.2473177 15.243214 5.319984 15.243214 L 11.613016 15.243214 C 12.685682 15.243214 13.549294 14.379602 13.549294 13.306936 L 13.549294 3.6260639 C 13.549294 2.5533976 12.685682 1.6897861 11.613016 1.6897861 L 5.319984 1.6897861 z M 8.4261932 5.4863788 C 8.8644439 5.4786888 9.1569524 7.0152235 9.5160277 7.2665969 C 9.875101 7.5179704 11.418596 7.2671258 11.561341 7.6815504 C 11.704084 8.0959745 10.333488 8.8493231 10.205378 9.2685024 C 10.077263 9.6876816 10.793118 11.078415 10.443085 11.342237 C 10.093055 11.606059 8.9528088 10.535125 8.5145581 10.542818 C 8.0763075 10.550477 6.9750779 11.660789 6.6160034 11.409415 C 6.2569289 11.158042 6.9230767 9.7428706 6.7803312 9.3284459 C 6.6375884 8.9140218 5.2409649 8.2097646 5.3690756 7.7905856 C 5.4971901 7.3714065 7.0488553 7.5676254 7.3988859 7.3038032 C 7.7489158 7.0399817 7.9879399 5.4940724 8.4261932 5.4863788 z "
     class="ColorScheme-Text" />
</svg>
