<?xml version="1.0" encoding="UTF-8" standalone="no"?>
<svg
   width="64"
   height="64"
   version="1.1"
   id="svg73"
   sodipodi:docname="application-vnd.recordare.musicxml+xml.svg"
   inkscape:version="1.4.2 (ebf0e940d0, 2025-05-08)"
   xmlns:inkscape="http://www.inkscape.org/namespaces/inkscape"
   xmlns:sodipodi="http://sodipodi.sourceforge.net/DTD/sodipodi-0.dtd"
   xmlns="http://www.w3.org/2000/svg"
   xmlns:svg="http://www.w3.org/2000/svg"
   xmlns:rdf="http://www.w3.org/1999/02/22-rdf-syntax-ns#"
   xmlns:cc="http://creativecommons.org/ns#"
   xmlns:dc="http://purl.org/dc/elements/1.1/">
  <metadata
     id="metadata77">
    <rdf:RDF>
      <cc:Work
         rdf:about="">
        <dc:format>image/svg+xml</dc:format>
        <dc:type
           rdf:resource="http://purl.org/dc/dcmitype/StillImage" />
      </cc:Work>
    </rdf:RDF>
  </metadata>
  <sodipodi:namedview
     pagecolor="#9c4444"
     bordercolor="#666666"
     borderopacity="1"
     objecttolerance="10"
     gridtolerance="10"
     guidetolerance="10"
     inkscape:pageopacity="0"
     inkscape:pageshadow="2"
     inkscape:window-width="2560"
     inkscape:window-height="1388"
     id="namedview75"
     showgrid="false"
     inkscape:zoom="4.4470387"
     inkscape:cx="19.451146"
     inkscape:cy="8.5450122"
     inkscape:window-x="0"
     inkscape:window-y="0"
     inkscape:window-maximized="1"
     inkscape:current-layer="svg73"
     inkscape:document-rotation="0"
     inkscape:pagecheckerboard="0"
     inkscape:showpageshadow="2"
     inkscape:deskcolor="#d1d1d1" />
  <defs
     id="defs29">
    <style
       id="current-color-scheme"
       type="text/css">.ColorScheme-Text {color:#d8dee9} .ColorScheme-Highlight {color:#3b4252}</style>
  </defs>
  <path
     id="path1"
     style="opacity:1;baseline-shift:baseline;display:inline;overflow:visible;vector-effect:none;fill:currentColor;enable-background:accumulate;stop-color:#000000;stop-opacity:1"
     d="M 19.661775 8.8383367 C 16.33974 8.8383367 13.637272 11.524326 13.637272 14.836206 L 13.637272 49.408294 C 13.637272 52.720174 16.33974 55.407939 19.661775 55.407939 L 44.400766 55.407939 C 47.722801 55.407939 50.427045 52.720174 50.427045 49.408294 L 50.427045 14.836206 C 50.427045 11.524326 47.722801 8.8383367 44.400766 8.8383367 L 19.661775 8.8383367 z M 31.273991 16.265538 C 31.566951 16.317411 31.785354 16.591965 31.785354 16.959786 L 31.758721 26.524771 C 31.66205 27.238603 31.056159 27.915424 30.176689 28.154743 C 29.074995 28.454776 27.989411 27.956378 27.753039 27.060993 C 27.516667 26.165608 28.207928 25.196609 29.310212 24.896575 C 29.920889 24.730349 30.509996 24.831312 30.968593 25.08301 L 30.968593 19.28578 L 25.253039 20.887342 L 25.226405 28.236419 C 25.129734 28.950251 24.523843 29.625296 23.644374 29.864615 C 22.54268 30.164649 21.457096 29.66566 21.220724 28.770865 C 20.984351 27.87548 21.675613 26.906481 22.777897 26.606448 C 23.388574 26.440221 23.97768 26.541184 24.436278 26.792882 L 24.436278 19.017669 C 24.436278 18.527831 24.800336 18.022243 25.253039 17.89551 L 31.273991 16.265538 z M 20.97392 33.53649 L 43.097499 33.53649 L 43.097499 34.674629 L 20.97392 34.674629 L 20.97392 33.53649 z M 20.97392 39.223635 L 43.097499 39.223635 L 43.097499 40.361774 L 20.97392 40.361774 L 20.97392 39.223635 z M 20.97392 44.912555 L 35.970368 44.912555 L 35.970368 46.048919 L 20.97392 46.048919 L 20.97392 44.912555 z "
     transform="matrix(1.1,0,0,1.1,-3.1845928,-3.2065454)"
     class="ColorScheme-Text" />
</svg>
