<?xml version="1.0" encoding="UTF-8" standalone="no"?>
<svg
   width="64"
   height="64"
   version="1.1"
   id="svg73"
   sodipodi:docname="application-x-theme.svg"
   inkscape:version="1.4.2 (ebf0e940d0, 2025-05-08)"
   xmlns:inkscape="http://www.inkscape.org/namespaces/inkscape"
   xmlns:sodipodi="http://sodipodi.sourceforge.net/DTD/sodipodi-0.dtd"
   xmlns="http://www.w3.org/2000/svg"
   xmlns:svg="http://www.w3.org/2000/svg"
   xmlns:rdf="http://www.w3.org/1999/02/22-rdf-syntax-ns#"
   xmlns:cc="http://creativecommons.org/ns#"
   xmlns:dc="http://purl.org/dc/elements/1.1/">
  <metadata
     id="metadata77">
    <rdf:RDF>
      <cc:Work
         rdf:about="">
        <dc:format>image/svg+xml</dc:format>
        <dc:type
           rdf:resource="http://purl.org/dc/dcmitype/StillImage" />
      </cc:Work>
    </rdf:RDF>
  </metadata>
  <sodipodi:namedview
     pagecolor="#9c4444"
     bordercolor="#666666"
     borderopacity="1"
     objecttolerance="10"
     gridtolerance="10"
     guidetolerance="10"
     inkscape:pageopacity="0"
     inkscape:pageshadow="2"
     inkscape:window-width="2560"
     inkscape:window-height="1388"
     id="namedview75"
     showgrid="false"
     inkscape:zoom="4.4470387"
     inkscape:cx="19.338712"
     inkscape:cy="25.859905"
     inkscape:window-x="0"
     inkscape:window-y="0"
     inkscape:window-maximized="1"
     inkscape:current-layer="svg73"
     inkscape:document-rotation="0"
     inkscape:pagecheckerboard="0"
     inkscape:showpageshadow="2"
     inkscape:deskcolor="#d1d1d1" />
  <defs
     id="defs29">
    <style
       id="current-color-scheme"
       type="text/css">.ColorScheme-Text {color:#d8dee9} .ColorScheme-Highlight {color:#3b4252}</style>
  </defs>
  <path
     id="path1"
     style="opacity:1;baseline-shift:baseline;display:inline;overflow:visible;vector-effect:none;fill:currentColor;enable-background:accumulate;stop-color:#000000;stop-opacity:1"
     d="M 19.661775 8.8383367 C 16.33974 8.8383367 13.637272 11.524326 13.637272 14.836206 L 13.637272 49.408294 C 13.637272 52.720174 16.33974 55.407939 19.661775 55.407939 L 44.400766 55.407939 C 47.722801 55.407939 50.427045 52.720174 50.427045 49.408294 L 50.427045 14.836206 C 50.427045 11.524326 47.722801 8.8383367 44.400766 8.8383367 L 19.661775 8.8383367 z M 31.913195 23.804601 C 32.966 23.804601 33.81838 24.670222 33.81838 25.738195 C 33.81838 26.806167 32.966 27.673564 31.913195 27.673564 C 30.86039 27.673564 30.006235 26.806167 30.006235 25.738195 C 30.006235 24.670222 30.86039 23.804601 31.913195 23.804601 z M 27.096079 25.100766 C 27.772103 25.082954 28.436947 25.430812 28.798849 26.066675 C 29.325251 26.991564 29.012806 28.174736 28.10105 28.70872 C 27.189295 29.242708 26.022694 28.926933 25.496292 28.002044 C 24.969889 27.077152 25.282334 25.893983 26.19409 25.359999 C 26.479014 25.193128 26.788795 25.108862 27.096079 25.100766 z M 36.730312 25.100766 C 37.037595 25.108862 37.347377 25.193128 37.6323 25.359999 C 38.544055 25.893983 38.8565 27.077152 38.330099 28.002044 C 37.803696 28.926933 36.637096 29.242705 35.72534 28.70872 C 34.813584 28.174736 34.501139 26.991564 35.027542 26.066675 C 35.389444 25.430812 36.054287 25.082954 36.730312 25.100766 z M 31.913195 28.318095 C 32.615064 28.318095 33.184502 28.895176 33.184502 29.607158 C 33.184502 30.319139 32.615065 30.89622 31.913195 30.89622 C 31.211326 30.89622 30.641888 30.319139 30.641888 29.607158 C 30.641888 28.895176 31.211326 28.318095 31.913195 28.318095 z M 23.71007 28.639473 C 24.017354 28.647569 24.327135 28.731835 24.612059 28.898706 C 25.523814 29.432691 25.836259 30.615859 25.309857 31.540751 C 24.783455 32.465644 23.616854 32.781415 22.705099 32.247428 C 21.793343 31.713443 21.480898 30.53205 22.0073 29.607158 C 22.369202 28.971294 23.034046 28.621662 23.71007 28.639473 z M 40.11632 28.639473 C 40.792344 28.621662 41.455412 28.971294 41.817314 29.607158 C 42.343717 30.53205 42.031272 31.713443 41.119516 32.247428 C 40.20776 32.781415 39.042936 32.465644 38.516533 31.540751 C 37.990131 30.615859 38.302576 29.432691 39.214332 28.898706 C 39.499255 28.731835 39.809037 28.647569 40.11632 28.639473 z M 29.019019 29.094019 C 29.469702 29.082145 29.912339 29.314642 30.153607 29.73855 C 30.504542 30.355143 30.296245 31.143923 29.688408 31.499913 C 29.080571 31.855904 28.304613 31.644206 27.953678 31.027612 C 27.602743 30.411019 27.81104 29.624015 28.418877 29.268024 C 28.608826 29.156777 28.814163 29.099416 29.019019 29.094019 z M 34.805596 29.094019 C 35.010451 29.099416 35.217564 29.156777 35.407513 29.268024 C 36.015351 29.624015 36.223647 30.411019 35.872712 31.027612 C 35.521777 31.644206 34.744044 31.855904 34.136207 31.499913 C 33.52837 31.143923 33.320073 30.355143 33.671008 29.73855 C 33.912275 29.314642 34.354914 29.082145 34.805596 29.094019 z M 26.994871 31.217598 C 27.199727 31.222995 27.405064 31.278581 27.595013 31.389828 C 28.20285 31.745819 28.411147 32.534598 28.060212 33.151192 C 27.709277 33.767785 26.933319 33.979483 26.325482 33.623493 C 25.717645 33.267501 25.509348 32.478723 25.860283 31.862129 C 26.101551 31.438221 26.544188 31.205724 26.994871 31.217598 z M 36.831519 31.217598 C 37.282202 31.205724 37.72484 31.438221 37.966107 31.862129 C 38.317042 32.478723 38.108745 33.267502 37.500908 33.623493 C 36.893071 33.979483 36.115338 33.767785 35.764403 33.151192 C 35.413468 32.534598 35.621765 31.745819 36.229601 31.389828 C 36.419551 31.278581 36.626663 31.222995 36.831519 31.217598 z M 31.913195 31.540751 C 32.26413 31.540752 32.548849 31.829292 32.548849 32.185283 C 32.548849 32.541274 32.26413 32.829814 31.913195 32.829814 C 31.56226 32.829814 31.277543 32.541274 31.277542 32.185283 C 31.277542 31.829292 31.56226 31.540751 31.913195 31.540751 z M 30.308082 31.972215 C 30.533423 31.966277 30.753854 32.081637 30.874488 32.293592 C 31.049954 32.601888 30.945807 32.996277 30.641888 33.174274 C 30.33797 33.352268 29.949103 33.246419 29.773636 32.938124 C 29.598168 32.629825 29.702317 32.235436 30.006235 32.057442 C 30.101209 32.001818 30.205654 31.974913 30.308082 31.972215 z M 33.518309 31.972215 C 33.620737 31.974913 33.723405 32.001818 33.81838 32.057442 C 34.122297 32.235436 34.226447 32.629825 34.050979 32.938124 C 33.875512 33.246419 33.488421 33.352268 33.184502 33.174274 C 32.880583 32.996277 32.776436 32.601888 32.951903 32.293592 C 33.072537 32.081637 33.292968 31.966277 33.518309 31.972215 z M 29.17882 33.151192 C 29.281248 33.153891 29.383917 33.182572 29.478891 33.238195 C 29.78281 33.416188 29.886958 33.810582 29.711491 34.118876 C 29.536023 34.427174 29.147157 34.533025 28.843238 34.355027 C 28.539319 34.177033 28.435171 33.782644 28.610638 33.474345 C 28.731272 33.262391 28.953479 33.145255 29.17882 33.151192 z M 34.64757 33.151192 C 34.872911 33.145255 35.093342 33.262391 35.213976 33.474345 C 35.389443 33.782644 35.285296 34.177033 34.981377 34.355027 C 34.677458 34.533025 34.290367 34.427174 34.1149 34.118876 C 33.939432 33.810578 34.043581 33.416188 34.347499 33.238195 C 34.442474 33.182572 34.545142 33.153891 34.64757 33.151192 z M 22.381945 33.474345 C 23.43475 33.474345 24.28713 34.339966 24.28713 35.407939 C 24.28713 36.475911 23.43475 37.341533 22.381945 37.341533 C 21.32914 37.341533 20.474985 36.475911 20.474985 35.407939 C 20.474985 34.339966 21.329141 33.474345 22.381945 33.474345 z M 41.444445 33.474345 C 42.497249 33.474345 43.34963 34.339966 43.34963 35.407939 C 43.34963 36.475911 42.497249 37.341533 41.444445 37.341533 C 40.39164 37.341533 39.537485 36.475911 39.537485 35.407939 C 39.537485 34.339966 40.39164 33.474345 41.444445 33.474345 z M 26.19409 34.118876 C 26.89596 34.118877 27.465396 34.695957 27.465397 35.407939 C 27.465396 36.11992 26.89596 36.697001 26.19409 36.697001 C 25.49222 36.697002 24.922783 36.11992 24.922783 35.407939 C 24.922783 34.695957 25.49222 34.118876 26.19409 34.118876 z M 37.6323 34.118876 C 38.334169 34.118877 38.901832 34.695957 38.901832 35.407939 C 38.901832 36.11992 38.334169 36.697001 37.6323 36.697001 C 36.93043 36.697002 36.360993 36.11992 36.360993 35.407939 C 36.360993 34.695957 36.93043 34.118876 37.6323 34.118876 z M 28.734928 34.763408 C 29.085863 34.763408 29.370582 35.051948 29.370582 35.407939 C 29.370582 35.763929 29.085863 36.05247 28.734928 36.05247 C 28.383993 36.05247 28.10105 35.763929 28.10105 35.407939 C 28.10105 35.051948 28.383993 34.763408 28.734928 34.763408 z M 35.089687 34.763408 C 35.440622 34.763408 35.72534 35.051948 35.72534 35.407939 C 35.72534 35.763929 35.440622 36.05247 35.089687 36.05247 C 34.738753 36.05247 34.454033 35.763929 34.454033 35.407939 C 34.454033 35.051948 34.738753 34.763408 35.089687 34.763408 z "
     transform="matrix(1.1,0,0,1.1,-3.1845928,-3.2065454)"
     class="ColorScheme-Text" />
</svg>
