<?xml version="1.0" encoding="UTF-8" standalone="no"?>
<svg
   width="64"
   height="64"
   version="1.1"
   id="svg73"
   sodipodi:docname="application-vnd.appimage.svg"
   inkscape:version="1.4.2 (ebf0e940d0, 2025-05-08)"
   xmlns:inkscape="http://www.inkscape.org/namespaces/inkscape"
   xmlns:sodipodi="http://sodipodi.sourceforge.net/DTD/sodipodi-0.dtd"
   xmlns="http://www.w3.org/2000/svg"
   xmlns:svg="http://www.w3.org/2000/svg"
   xmlns:rdf="http://www.w3.org/1999/02/22-rdf-syntax-ns#"
   xmlns:cc="http://creativecommons.org/ns#"
   xmlns:dc="http://purl.org/dc/elements/1.1/">
  <metadata
     id="metadata77">
    <rdf:RDF>
      <cc:Work
         rdf:about="">
        <dc:format>image/svg+xml</dc:format>
        <dc:type
           rdf:resource="http://purl.org/dc/dcmitype/StillImage" />
      </cc:Work>
    </rdf:RDF>
  </metadata>
  <sodipodi:namedview
     pagecolor="#9c4444"
     bordercolor="#666666"
     borderopacity="1"
     objecttolerance="10"
     gridtolerance="10"
     guidetolerance="10"
     inkscape:pageopacity="0"
     inkscape:pageshadow="2"
     inkscape:window-width="2560"
     inkscape:window-height="1388"
     id="namedview75"
     showgrid="false"
     inkscape:zoom="4.4470387"
     inkscape:cx="19.451146"
     inkscape:cy="24.96043"
     inkscape:window-x="0"
     inkscape:window-y="0"
     inkscape:window-maximized="1"
     inkscape:current-layer="svg73"
     inkscape:document-rotation="0"
     inkscape:pagecheckerboard="0"
     inkscape:showpageshadow="2"
     inkscape:deskcolor="#d1d1d1" />
  <defs
     id="defs29">
    <style
       id="current-color-scheme"
       type="text/css">.ColorScheme-Text {color:#d8dee9} .ColorScheme-Highlight {color:#3b4252}</style>
  </defs>
  <path
     id="path1"
     style="opacity:1;baseline-shift:baseline;display:inline;overflow:visible;vector-effect:none;fill:currentColor;enable-background:accumulate;stop-color:#000000;stop-opacity:1"
     d="M 16.487059 9.1224276 C 12.372966 9.1224276 9.031448 12.462169 9.031448 16.576263 L 9.031448 47.668237 C 9.031448 51.78233 12.372966 55.123848 16.487059 55.123848 L 47.575482 55.123848 C 51.689575 55.123848 55.031093 51.78233 55.031093 47.668237 L 55.031093 16.576263 C 55.031093 12.462169 51.689575 9.1224276 47.575482 9.1224276 L 16.487059 9.1224276 z M 31.97534 20.468308 C 34.210452 20.468308 34.227625 20.469849 34.352826 20.530453 C 34.584333 20.642525 34.597128 20.676754 34.858863 22.002399 L 35.093238 23.197357 L 35.324062 23.291462 C 35.8738 23.516455 36.585247 23.922168 37.092528 24.299984 L 37.355312 24.495297 L 38.495226 24.108223 C 39.276037 23.843001 39.674672 23.721149 39.761207 23.721149 C 39.894833 23.721149 40.069593 23.79365 40.14828 23.882726 C 40.17405 23.912136 40.691343 24.795636 41.297073 25.846504 C 42.50691 27.945439 42.482906 27.895028 42.367741 28.154743 C 42.321561 28.258889 42.148681 28.424042 41.387627 29.086916 C 40.465352 29.890179 40.461973 29.89382 40.474985 29.994232 C 40.580058 30.804713 40.580102 31.576324 40.474985 32.382371 C 40.461925 32.482819 40.463705 32.48627 41.385851 33.289686 C 42.145204 33.951175 42.321438 34.117924 42.367741 34.221859 C 42.483363 34.481415 42.506954 34.430744 41.297073 36.530098 C 40.691481 37.580913 40.174362 38.464493 40.14828 38.493876 C 40.06894 38.583216 39.895387 38.655453 39.761207 38.655453 C 39.673627 38.655453 39.278694 38.535219 38.493451 38.268379 L 37.353536 37.881305 L 37.158224 38.028678 C 36.662135 38.405598 35.933522 38.830042 35.395084 39.054956 L 35.093238 39.181021 L 34.858863 40.374203 C 34.597133 41.699215 34.584307 41.734094 34.352826 41.846149 C 34.227639 41.906759 34.210856 41.908294 31.984218 41.908294 C 29.749196 41.908277 29.741613 41.907629 29.617386 41.846149 C 29.387548 41.732383 29.373961 41.696597 29.113124 40.374203 L 28.878749 39.179246 L 28.647925 39.085141 C 28.099347 38.860846 27.385984 38.453877 26.879459 38.076618 L 26.618451 37.883081 L 25.480312 38.270155 C 24.689285 38.53861 24.301826 38.655453 24.212556 38.655453 C 24.07703 38.655453 23.902824 38.583457 23.823707 38.493876 C 23.797767 38.464326 23.280641 37.580964 22.674914 36.530098 C 21.464838 34.430781 21.488647 34.481328 21.604246 34.221859 C 21.650556 34.117879 21.826329 33.951353 22.586136 33.289686 C 23.509592 32.48552 23.510427 32.482893 23.497002 32.382371 C 23.391786 31.594559 23.391908 30.792305 23.497002 29.994232 C 23.510222 29.893785 23.508828 29.890622 22.586136 29.086916 C 21.82683 28.425534 21.650569 28.258661 21.604246 28.154743 C 21.48902 27.896267 21.465325 27.947435 22.674914 25.84828 C 23.280755 24.79689 23.79781 23.912109 23.823707 23.882726 C 23.902497 23.793336 24.077401 23.721149 24.212556 23.721149 C 24.301296 23.721149 24.689417 23.840126 25.478536 24.108223 L 26.618451 24.493521 L 26.879459 24.299984 C 27.386368 23.922446 28.098744 23.516126 28.647925 23.291462 L 28.878749 23.197357 L 29.104246 22.041462 C 29.228966 21.405932 29.350067 20.840951 29.372357 20.786135 C 29.425147 20.656306 29.486436 20.590184 29.617386 20.523351 C 29.719465 20.471261 29.82321 20.468308 31.97534 20.468308 z M 31.985993 25.807442 C 30.683626 25.807442 30.686647 25.807003 30.53713 26.032939 L 30.46078 26.148351 L 30.453678 29.422499 L 30.446576 32.698422 L 29.294232 32.698422 C 28.661332 32.698422 28.145202 32.707719 28.145439 32.719729 C 28.145674 32.731789 29.006211 33.775275 30.059502 35.038621 C 31.501555 36.768269 31.983833 37.328445 32.010851 37.306021 C 32.030611 37.289871 32.894491 36.258655 33.930241 35.015538 C 34.96599 33.772423 35.817721 32.742559 35.822996 32.726831 C 35.829196 32.708101 35.430592 32.698422 34.67953 32.698422 L 33.527187 32.698422 L 33.518309 29.422499 L 33.511207 26.148351 L 33.434857 26.032939 C 33.285339 25.807022 33.288356 25.807442 31.985993 25.807442 z "
     transform="matrix(1.1,0,0,1.1,-3.1845928,-3.2065454)"
     class="ColorScheme-Text" />
</svg>
