<?xml version="1.0" encoding="UTF-8" standalone="no"?>
<svg
   width="64"
   height="64"
   version="1.1"
   id="svg73"
   sodipodi:docname="application-vnd.nintendo.snes.rom.svg"
   inkscape:version="1.4.2 (ebf0e940d0, 2025-05-08)"
   xmlns:inkscape="http://www.inkscape.org/namespaces/inkscape"
   xmlns:sodipodi="http://sodipodi.sourceforge.net/DTD/sodipodi-0.dtd"
   xmlns="http://www.w3.org/2000/svg"
   xmlns:svg="http://www.w3.org/2000/svg"
   xmlns:rdf="http://www.w3.org/1999/02/22-rdf-syntax-ns#"
   xmlns:cc="http://creativecommons.org/ns#"
   xmlns:dc="http://purl.org/dc/elements/1.1/">
  <metadata
     id="metadata77">
    <rdf:RDF>
      <cc:Work
         rdf:about="">
        <dc:format>image/svg+xml</dc:format>
        <dc:type
           rdf:resource="http://purl.org/dc/dcmitype/StillImage" />
      </cc:Work>
    </rdf:RDF>
  </metadata>
  <sodipodi:namedview
     pagecolor="#9c4444"
     bordercolor="#666666"
     borderopacity="1"
     objecttolerance="10"
     gridtolerance="10"
     guidetolerance="10"
     inkscape:pageopacity="0"
     inkscape:pageshadow="2"
     inkscape:window-width="2560"
     inkscape:window-height="1388"
     id="namedview75"
     showgrid="false"
     inkscape:zoom="4.4470387"
     inkscape:cx="19.338712"
     inkscape:cy="21.587399"
     inkscape:window-x="0"
     inkscape:window-y="0"
     inkscape:window-maximized="1"
     inkscape:current-layer="svg73"
     inkscape:document-rotation="0"
     inkscape:pagecheckerboard="0"
     inkscape:showpageshadow="2"
     inkscape:deskcolor="#d1d1d1" />
  <defs
     id="defs29">
    <style
       id="current-color-scheme"
       type="text/css">.ColorScheme-Text {color:#d8dee9} .ColorScheme-Highlight {color:#3b4252}</style>
  </defs>
  <path
     id="path1"
     style="opacity:1;baseline-shift:baseline;display:inline;overflow:visible;vector-effect:none;fill:currentColor;enable-background:accumulate;stop-color:#000000;stop-opacity:1"
     d="M 19.661775 8.8383367 C 16.33974 8.8383367 13.637272 11.524326 13.637272 14.836206 L 13.637272 49.408294 C 13.637272 52.720174 16.33974 55.407939 19.661775 55.407939 L 44.400766 55.407939 C 47.722801 55.407939 50.427045 52.720174 50.427045 49.408294 L 50.427045 14.836206 C 50.427045 11.524326 47.722801 8.8383367 44.400766 8.8383367 L 19.661775 8.8383367 z M 31.700127 22.357513 A 4.6517062 4.6517062 0 0 1 36.35034 27.009501 A 4.6517062 4.6517062 0 0 1 32.044587 31.636632 A 4.6517062 4.6517062 0 0 0 27.394374 27.007726 A 4.6517062 4.6517062 0 0 0 27.049914 27.030808 A 4.6517062 4.6517062 0 0 1 27.048138 27.009501 A 4.6517062 4.6517062 0 0 1 31.700127 22.357513 z M 38.976405 27.659359 A 3.976361 3.976361 0 0 1 42.953678 31.636632 A 3.976361 3.976361 0 0 1 38.976405 35.612129 A 3.976361 3.976361 0 0 1 38.527187 35.580169 A 3.976361 3.976361 0 0 0 35.016888 31.86568 A 3.976361 3.976361 0 0 1 35.000908 31.636632 A 3.976361 3.976361 0 0 1 38.976405 27.659359 z M 26.05382 28.985709 A 4.3077275 2.6509092 0 0 1 30.361349 31.636632 A 4.3077275 2.6509092 0 0 1 26.05382 34.287555 A 4.3077275 2.6509092 0 0 1 21.746292 31.636632 A 4.3077275 2.6509092 0 0 1 26.05382 28.985709 z M 32.680241 33.625269 A 4.3077275 2.6509092 0 0 1 36.989545 36.276192 A 4.3077275 2.6509092 0 0 1 32.680241 38.927115 A 4.3077275 2.6509092 0 0 1 28.372712 36.276192 A 4.3077275 2.6509092 0 0 1 32.680241 33.625269 z "
     transform="matrix(1.1,0,0,1.1,-3.1845928,-3.2065454)"
     class="ColorScheme-Text" />
</svg>
