<?xml version="1.0" encoding="UTF-8" standalone="no"?>
<svg
   width="64"
   height="64"
   version="1.1"
   id="svg73"
   sodipodi:docname="application-octet-stream.svg"
   inkscape:version="1.4.2 (ebf0e940d0, 2025-05-08)"
   xmlns:inkscape="http://www.inkscape.org/namespaces/inkscape"
   xmlns:sodipodi="http://sodipodi.sourceforge.net/DTD/sodipodi-0.dtd"
   xmlns="http://www.w3.org/2000/svg"
   xmlns:svg="http://www.w3.org/2000/svg"
   xmlns:rdf="http://www.w3.org/1999/02/22-rdf-syntax-ns#"
   xmlns:cc="http://creativecommons.org/ns#"
   xmlns:dc="http://purl.org/dc/elements/1.1/">
  <metadata
     id="metadata77">
    <rdf:RDF>
      <cc:Work
         rdf:about="">
        <dc:format>image/svg+xml</dc:format>
        <dc:type
           rdf:resource="http://purl.org/dc/dcmitype/StillImage" />
      </cc:Work>
    </rdf:RDF>
  </metadata>
  <sodipodi:namedview
     pagecolor="#9c4444"
     bordercolor="#666666"
     borderopacity="1"
     objecttolerance="10"
     gridtolerance="10"
     guidetolerance="10"
     inkscape:pageopacity="0"
     inkscape:pageshadow="2"
     inkscape:window-width="2560"
     inkscape:window-height="1388"
     id="namedview75"
     showgrid="false"
     inkscape:zoom="4.4470387"
     inkscape:cx="19.451146"
     inkscape:cy="21.812268"
     inkscape:window-x="0"
     inkscape:window-y="0"
     inkscape:window-maximized="1"
     inkscape:current-layer="svg73"
     inkscape:document-rotation="0"
     inkscape:pagecheckerboard="0"
     inkscape:showpageshadow="2"
     inkscape:deskcolor="#d1d1d1" />
  <defs
     id="defs29">
    <style
       id="current-color-scheme"
       type="text/css">.ColorScheme-Text {color:#d8dee9} .ColorScheme-Highlight {color:#3b4252}</style>
  </defs>
  <path
     id="path1"
     style="opacity:1;baseline-shift:baseline;display:inline;overflow:visible;vector-effect:none;fill:currentColor;enable-background:accumulate;stop-color:#000000;stop-opacity:1"
     d="M 19.661775 8.8383367 C 16.33974 8.8383367 13.637272 11.524326 13.637272 14.836206 L 13.637272 49.408294 C 13.637272 52.720174 16.33974 55.407939 19.661775 55.407939 L 44.400766 55.407939 C 47.722801 55.407939 50.427045 52.720174 50.427045 49.408294 L 50.427045 14.836206 C 50.427045 11.524326 47.722801 8.8383367 44.400766 8.8383367 L 19.661775 8.8383367 z M 19.468238 16.542527 L 21.677045 16.542527 L 21.309502 17.279388 L 20.203323 17.279388 L 20.203323 18.014473 L 20.572641 18.014473 C 21.677187 18.014473 21.677045 18.382513 21.677045 19.118876 C 21.677045 19.834622 21.677187 20.960141 20.572641 20.960141 C 19.836278 20.960141 19.468238 20.592598 19.468238 20.592598 L 19.468238 19.855737 C 19.468238 19.855737 19.836278 20.22328 20.572641 20.22328 C 20.940823 20.22328 20.940184 19.560695 20.940184 19.118876 C 20.940184 18.750695 20.847305 18.751334 20.572641 18.751334 L 19.468238 18.751334 L 19.468238 16.542527 z M 23.885851 16.542527 A 1.4727273 2.209091 0 0 1 25.359573 18.751334 A 1.4727273 2.209091 0 0 1 23.885851 20.960141 A 1.4727273 2.209091 0 0 1 22.413905 18.751334 A 1.4727273 2.209091 0 0 1 23.885851 16.542527 z M 30.144729 16.542527 L 31.249133 16.542527 L 30.88159 17.279388 L 30.144729 17.279388 C 29.776547 17.279388 29.777187 17.646291 29.777187 18.014473 L 30.144729 18.014473 C 31.249275 18.014473 31.249133 18.015467 31.249133 19.488195 C 31.249133 20.960878 31.249275 20.960141 30.144729 20.960141 C 29.040184 20.960141 29.040326 20.960425 29.040326 18.751334 C 29.040326 16.542243 29.040184 16.542527 30.144729 16.542527 z M 31.985993 16.542527 L 34.1948 16.542527 L 33.827258 17.279388 L 32.722854 17.279388 L 32.722854 18.014473 L 33.457939 18.014473 L 33.457939 18.751334 L 32.722854 18.751334 L 32.722854 20.960141 L 31.985993 20.960141 L 31.985993 16.542527 z M 38.612414 16.542527 L 40.822996 16.542527 L 40.822996 17.279388 L 39.349275 20.960141 L 38.612414 20.592598 L 40.086135 17.279388 L 38.612414 17.279388 L 38.612414 16.542527 z M 43.031803 16.542527 A 1.4727273 2.209091 0 0 1 44.503749 18.751334 A 1.4727273 2.209091 0 0 1 43.031803 20.960141 A 1.4727273 2.209091 0 0 1 41.558082 18.751334 A 1.4727273 2.209091 0 0 1 43.031803 16.542527 z M 23.885851 17.279388 A 0.73636367 1.4727273 0 0 0 23.148991 18.751334 A 0.73636367 1.4727273 0 0 0 23.885851 20.22328 A 0.73636367 1.4727273 0 0 0 24.622712 18.751334 A 0.73636367 1.4727273 0 0 0 23.885851 17.279388 z M 43.031803 17.279388 A 0.73636367 1.4727273 0 0 0 42.294942 18.751334 A 0.73636367 1.4727273 0 0 0 43.031803 20.22328 A 0.73636367 1.4727273 0 0 0 43.768664 18.751334 A 0.73636367 1.4727273 0 0 0 43.031803 17.279388 z M 29.777187 18.751334 L 29.777187 19.488195 C 29.777187 19.894667 29.941493 20.22328 30.144729 20.22328 C 30.347966 20.22328 30.514047 19.894667 30.514047 19.488195 C 30.514047 19.081722 30.347966 18.751334 30.144729 18.751334 L 29.777187 18.751334 z M 19.468238 25.37953 L 20.203323 25.37953 C 20.203323 28.324889 20.20382 28.323422 20.940184 28.323422 L 20.940184 26.851476 L 21.677045 26.851476 L 21.677045 29.797144 L 20.940184 29.797144 L 20.940184 29.060283 C 19.467501 29.060283 19.468238 29.061348 19.468238 25.37953 z M 23.518309 25.37953 C 24.622854 25.37953 24.622712 25.379246 24.622712 27.588337 C 24.622712 29.797428 24.622854 29.797144 23.518309 29.797144 L 22.413905 29.797144 L 22.781448 29.060283 L 23.518309 29.060283 C 23.886491 29.060283 23.885851 28.691604 23.885851 28.323422 L 23.518309 28.323422 C 22.413763 28.323422 22.413905 28.324203 22.413905 26.851476 C 22.413905 25.3788 22.413763 25.37953 23.518309 25.37953 z M 30.144729 25.37953 L 31.249133 25.37953 L 30.88159 26.114615 L 30.144729 26.114615 C 29.776547 26.114615 29.777187 26.483294 29.777187 26.851476 L 30.144729 26.851476 C 31.249275 26.851476 31.249133 26.850695 31.249133 28.323422 C 31.249133 29.796407 31.249275 29.797144 30.144729 29.797144 C 29.040184 29.797144 29.040326 29.797428 29.040326 27.588337 C 29.040326 25.379246 29.040184 25.37953 30.144729 25.37953 z M 31.985993 25.37953 L 34.1948 25.37953 L 34.1948 29.797144 L 31.985993 29.797144 L 31.985993 29.060283 L 33.457939 29.060283 L 33.457939 28.323422 L 32.722854 28.323422 L 32.722854 27.588337 L 33.457939 27.588337 L 33.457939 26.114615 L 32.353536 26.114615 L 31.985993 25.37953 z M 39.718593 25.37953 L 40.822996 25.37953 L 40.453678 26.114615 L 39.718593 26.114615 C 39.35075 26.114615 39.349275 26.483294 39.349275 26.851476 L 39.718593 26.851476 C 40.823138 26.851476 40.822996 26.850695 40.822996 28.323422 C 40.822996 29.796407 40.823138 29.797144 39.718593 29.797144 C 38.613885 29.797144 38.612414 29.797428 38.612414 27.588337 C 38.612414 25.379246 38.614047 25.37953 39.718593 25.37953 z M 41.558082 25.37953 L 43.768664 25.37953 L 43.399346 26.114615 L 42.294942 26.114615 L 42.294942 26.851476 L 43.031803 26.851476 L 43.031803 27.588337 L 42.294942 27.588337 L 42.294942 29.797144 L 41.558082 29.797144 L 41.558082 25.37953 z M 23.518309 26.114615 C 23.315072 26.114615 23.148991 26.445003 23.148991 26.851476 C 23.148991 27.257949 23.315072 27.588337 23.518309 27.588337 L 23.885851 27.588337 L 23.885851 26.851476 C 23.885851 26.445003 23.721545 26.114615 23.518309 26.114615 z M 29.777187 27.588337 L 29.777187 28.323422 C 29.777187 28.729895 29.941493 29.060283 30.144729 29.060283 C 30.347966 29.060283 30.514047 28.729895 30.514047 28.323422 C 30.514047 27.916949 30.347966 27.588337 30.144729 27.588337 L 29.777187 27.588337 z M 39.349275 27.588337 L 39.349275 28.323422 C 39.349275 28.729895 39.515357 29.060283 39.718593 29.060283 C 39.921829 29.060283 40.086135 28.729895 40.086135 28.323422 C 40.086135 27.916949 39.921829 27.588337 39.718593 27.588337 L 39.349275 27.588337 z M 20.572641 34.214757 L 21.677045 34.214757 L 21.309502 34.951618 L 20.572641 34.951618 C 20.204798 34.951618 20.203323 35.320297 20.203323 35.688479 L 20.572641 35.688479 C 21.677187 35.688479 21.677045 35.687697 21.677045 37.160425 C 21.677045 38.633108 21.677187 38.632371 20.572641 38.632371 C 19.468096 38.632371 19.468238 38.632655 19.468238 36.423564 C 19.468238 34.214473 19.468096 34.214757 20.572641 34.214757 z M 22.413905 34.214757 L 24.622712 34.214757 L 24.253394 34.951618 L 23.148991 34.951618 L 23.148991 35.688479 L 23.885851 35.688479 L 23.885851 36.423564 L 23.148991 36.423564 L 23.148991 37.897286 L 24.253394 37.897286 L 24.622712 38.632371 L 22.413905 38.632371 L 22.413905 34.214757 z M 29.040326 34.214757 L 31.249133 34.214757 L 31.249133 34.951618 L 29.777187 38.632371 L 29.040326 38.264828 L 30.514047 34.951618 L 29.040326 34.951618 L 29.040326 34.214757 z M 31.985993 34.214757 L 34.1948 34.214757 L 34.1948 38.632371 L 31.985993 38.632371 L 31.985993 37.897286 L 33.457939 37.897286 L 33.457939 37.160425 L 32.722854 37.160425 L 32.722854 36.423564 L 33.457939 36.423564 L 33.457939 34.951618 L 32.353536 34.951618 L 31.985993 34.214757 z M 39.718593 34.214757 C 40.823138 34.214757 40.822996 35.340276 40.822996 36.056021 C 40.822996 36.792385 40.823138 37.160425 39.718593 37.160425 L 39.349275 37.160425 L 39.349275 37.897286 L 40.822996 37.897286 L 40.453678 38.632371 L 38.612414 38.632371 L 38.612414 36.423564 L 39.718593 36.423564 C 39.993257 36.423564 40.086135 36.424203 40.086135 36.056021 C 40.086135 35.614203 40.086775 34.951618 39.718593 34.951618 C 38.982229 34.951618 38.612414 35.319161 38.612414 35.319161 L 38.612414 34.584075 C 38.612414 34.584075 38.982229 34.214757 39.718593 34.214757 z M 43.031803 34.214757 A 1.4727273 2.209091 0 0 1 44.503749 36.423564 A 1.4727273 2.209091 0 0 1 43.031803 38.632371 A 1.4727273 2.209091 0 0 1 41.558082 36.423564 A 1.4727273 2.209091 0 0 1 43.031803 34.214757 z M 43.031803 34.951618 A 0.73636367 1.4727273 0 0 0 42.294942 36.423564 A 0.73636367 1.4727273 0 0 0 43.031803 37.897286 A 0.73636367 1.4727273 0 0 0 43.768664 36.423564 A 0.73636367 1.4727273 0 0 0 43.031803 34.951618 z M 20.203323 36.423564 L 20.203323 37.160425 C 20.203323 37.566898 20.369405 37.897286 20.572641 37.897286 C 20.775878 37.897286 20.940184 37.566898 20.940184 37.160425 C 20.940184 36.753952 20.775878 36.423564 20.572641 36.423564 L 20.203323 36.423564 z M 19.468238 43.05176 L 20.203323 43.05176 C 20.203323 45.997215 20.20382 45.997428 20.940184 45.997428 L 20.940184 44.523706 L 21.677045 44.523706 L 21.677045 47.469374 L 20.940184 47.469374 L 20.940184 46.732513 C 19.467501 46.732513 19.468238 46.733578 19.468238 43.05176 z M 23.518309 43.05176 C 24.622854 43.05176 24.622712 43.051476 24.622712 45.260567 C 24.622712 47.469658 24.622854 47.469374 23.518309 47.469374 L 22.413905 47.469374 L 22.781448 46.732513 L 23.518309 46.732513 C 23.886491 46.732513 23.885851 46.365609 23.885851 45.997428 L 23.518309 45.997428 C 22.413763 45.997428 22.413905 45.996433 22.413905 44.523706 C 22.413905 43.051023 22.413763 43.05176 23.518309 43.05176 z M 30.144729 43.05176 L 31.249133 43.05176 L 30.88159 43.788621 L 30.144729 43.788621 C 29.776547 43.788621 29.777187 44.155524 29.777187 44.523706 L 30.144729 44.523706 C 31.249275 44.523706 31.249133 44.5247 31.249133 45.997428 C 31.249133 47.470111 31.249275 47.469374 30.144729 47.469374 C 29.040184 47.469374 29.040326 47.469658 29.040326 45.260567 C 29.040326 43.051476 29.040184 43.05176 30.144729 43.05176 z M 32.722854 43.05176 L 33.457939 43.05176 L 33.457939 46.732513 L 34.1948 46.732513 L 34.1948 47.469374 L 31.985993 47.469374 L 31.985993 46.732513 L 32.722854 46.732513 L 32.722854 43.788621 L 32.353536 43.788621 L 32.722854 43.05176 z M 39.718593 43.05176 L 40.822996 43.05176 L 40.453678 43.788621 L 39.718593 43.788621 C 39.35075 43.788621 39.349275 44.155524 39.349275 44.523706 L 39.718593 44.523706 C 40.823138 44.523706 40.822996 44.5247 40.822996 45.997428 C 40.822996 47.470111 40.823138 47.469374 39.718593 47.469374 C 38.613885 47.469374 38.612414 47.469658 38.612414 45.260567 C 38.612414 43.051476 38.614047 43.05176 39.718593 43.05176 z M 41.558082 43.05176 L 43.768664 43.05176 L 43.399346 43.788621 L 42.294942 43.788621 L 42.294942 44.523706 L 43.031803 44.523706 L 43.031803 45.260567 L 42.294942 45.260567 L 42.294942 46.732513 L 43.399346 46.732513 L 43.768664 47.469374 L 41.558082 47.469374 L 41.558082 43.05176 z M 23.498778 43.788621 C 23.304333 43.808355 23.148991 44.129936 23.148991 44.523706 C 23.148991 44.930179 23.315072 45.260567 23.518309 45.260567 L 23.885851 45.260567 L 23.885851 44.523706 C 23.885851 44.117233 23.721545 43.788621 23.518309 43.788621 C 23.511976 43.788621 23.505405 43.787988 23.498778 43.788621 z M 29.777187 45.260567 L 29.777187 45.997428 C 29.777187 46.4039 29.941493 46.732513 30.144729 46.732513 C 30.347966 46.732513 30.514047 46.4039 30.514047 45.997428 C 30.514047 45.590955 30.347966 45.260567 30.144729 45.260567 L 29.777187 45.260567 z M 39.349275 45.260567 L 39.349275 45.997428 C 39.349275 46.4039 39.515357 46.732513 39.718593 46.732513 C 39.921829 46.732513 40.086135 46.4039 40.086135 45.997428 C 40.086135 45.590955 39.921829 45.260567 39.718593 45.260567 L 39.349275 45.260567 z "
     transform="matrix(1.1,0,0,1.1,-3.1845928,-3.2065454)"
     class="ColorScheme-Text" />
</svg>
