<?xml version="1.0" encoding="UTF-8" standalone="no"?>
<svg
   width="64"
   height="64"
   version="1.1"
   id="svg73"
   sodipodi:docname="application-x-audacity-project.svg"
   inkscape:version="1.4.2 (ebf0e940d0, 2025-05-08)"
   xmlns:inkscape="http://www.inkscape.org/namespaces/inkscape"
   xmlns:sodipodi="http://sodipodi.sourceforge.net/DTD/sodipodi-0.dtd"
   xmlns="http://www.w3.org/2000/svg"
   xmlns:svg="http://www.w3.org/2000/svg"
   xmlns:rdf="http://www.w3.org/1999/02/22-rdf-syntax-ns#"
   xmlns:cc="http://creativecommons.org/ns#"
   xmlns:dc="http://purl.org/dc/elements/1.1/">
  <metadata
     id="metadata77">
    <rdf:RDF>
      <cc:Work
         rdf:about="">
        <dc:format>image/svg+xml</dc:format>
        <dc:type
           rdf:resource="http://purl.org/dc/dcmitype/StillImage" />
      </cc:Work>
    </rdf:RDF>
  </metadata>
  <sodipodi:namedview
     pagecolor="#9c4444"
     bordercolor="#666666"
     borderopacity="1"
     objecttolerance="10"
     gridtolerance="10"
     guidetolerance="10"
     inkscape:pageopacity="0"
     inkscape:pageshadow="2"
     inkscape:window-width="2560"
     inkscape:window-height="1388"
     id="namedview75"
     showgrid="false"
     inkscape:zoom="4.4470387"
     inkscape:cx="19.338712"
     inkscape:cy="8.5450122"
     inkscape:window-x="0"
     inkscape:window-y="0"
     inkscape:window-maximized="1"
     inkscape:current-layer="svg73"
     inkscape:document-rotation="0"
     inkscape:pagecheckerboard="0"
     inkscape:showpageshadow="2"
     inkscape:deskcolor="#d1d1d1" />
  <defs
     id="defs29">
    <style
       id="current-color-scheme"
       type="text/css">.ColorScheme-Text {color:#d8dee9} .ColorScheme-Highlight {color:#3b4252}</style>
  </defs>
  <path
     id="path1"
     style="opacity:1;baseline-shift:baseline;display:inline;overflow:visible;vector-effect:none;fill:currentColor;enable-background:accumulate;stop-color:#000000;stop-opacity:1"
     d="M 19.661775 8.8383367 C 16.33974 8.8383367 13.637272 11.524326 13.637272 14.836206 L 13.637272 49.408294 C 13.637272 52.720174 16.33974 55.407939 19.661775 55.407939 L 44.400766 55.407939 C 47.722801 55.407939 50.427045 52.720174 50.427045 49.408294 L 50.427045 14.836206 C 50.427045 11.524326 47.722801 8.8383367 44.400766 8.8383367 L 19.661775 8.8383367 z M 31.985993 23.538266 C 33.975816 23.538266 35.996886 24.204203 37.33578 25.324487 C 38.674539 26.444698 39.544587 28.047822 39.544587 29.830879 L 39.544587 30.475411 C 40.87388 31.19865 41.588266 33.095679 41.588266 35.319161 C 41.588266 38.164981 40.081518 40.473635 38.138337 40.473635 L 38.138337 29.830879 C 38.138337 28.495611 37.494677 27.266692 36.389403 26.341888 C 35.284128 25.417085 33.722783 25.006661 31.985993 25.006661 C 30.249271 25.006661 28.689496 25.416923 27.58436 26.341888 C 26.479085 27.266708 25.835425 28.495611 25.835425 29.830879 L 25.835425 40.473635 C 23.892313 40.473635 22.383721 38.164981 22.383721 35.319161 C 22.383721 33.095826 23.133687 31.198538 24.462911 30.475411 L 24.462911 29.830879 C 24.462911 28.047822 25.332959 26.444698 26.671718 25.324487 C 28.010475 24.204276 29.995964 23.538266 31.985993 23.538266 z M 34.024346 28.689189 A 0.34300119 0.36829805 0 0 1 34.384786 29.010567 L 35.350695 36.798209 L 35.759076 31.970439 A 0.34300119 0.36829805 0 0 1 36.426689 31.885212 L 37.13159 34.109999 L 37.13159 30.489615 C 37.26877 30.32595 37.542567 30.162911 37.816959 30.162911 L 37.816959 40.473635 C 37.542598 40.473635 37.268802 40.31091 37.13159 39.983578 L 37.13159 36.024061 A 0.34317218 0.36848155 0 0 1 36.94338 35.805666 L 36.297073 33.765538 L 35.7573 40.138053 A 0.34300119 0.36829805 0 0 1 35.075482 40.154033 L 34.019019 31.647286 L 33.010496 38.689189 A 0.34300119 0.36829805 0 0 1 32.328678 38.632371 L 32.328678 33.151192 L 31.634431 36.503465 A 0.34300119 0.36829805 0 0 1 30.961491 36.475055 L 30.689829 34.438479 L 30.269019 39.402967 A 0.34300119 0.36829805 0 0 1 29.587201 39.397641 L 29.25517 34.772286 L 28.89828 40.132726 A 0.34300119 0.36829805 0 0 1 28.214687 40.13095 L 27.713976 32.071646 L 26.973564 36.48926 A 0.34300119 0.36829805 0 0 1 26.842172 36.730737 L 26.842172 39.983578 C 26.704961 40.310909 26.431163 40.473635 26.156803 40.473635 L 26.156803 30.162911 C 26.431195 30.162911 26.704992 30.325944 26.842172 30.489615 L 26.842172 33.11568 L 27.532868 28.992811 A 0.34300119 0.36829805 0 0 1 27.872002 28.690965 A 0.34300119 0.36829805 0 0 1 28.212911 29.033649 L 28.5698 34.758081 L 28.900056 29.768734 A 0.34300119 0.36829805 0 0 1 29.58365 29.766959 L 29.956519 34.967598 L 30.27257 31.233578 A 0.34300119 0.36829805 0 0 1 30.954388 31.215823 L 31.373422 34.372783 L 32.337556 29.715467 A 0.34300119 0.36829805 0 0 1 33.014047 29.795368 L 33.014047 33.81703 L 33.704743 29.001689 A 0.34300119 0.36829805 0 0 1 34.024346 28.689189 z "
     transform="matrix(1.1,0,0,1.1,-3.1845928,-3.2065454)"
     class="ColorScheme-Text" />
</svg>
