<?xml version="1.0" encoding="UTF-8" standalone="no"?>
<svg
   width="64"
   height="64"
   version="1.1"
   id="svg73"
   sodipodi:docname="binary.svg"
   inkscape:version="1.4.2 (ebf0e940d0, 2025-05-08)"
   xmlns:inkscape="http://www.inkscape.org/namespaces/inkscape"
   xmlns:sodipodi="http://sodipodi.sourceforge.net/DTD/sodipodi-0.dtd"
   xmlns="http://www.w3.org/2000/svg"
   xmlns:svg="http://www.w3.org/2000/svg"
   xmlns:rdf="http://www.w3.org/1999/02/22-rdf-syntax-ns#"
   xmlns:cc="http://creativecommons.org/ns#"
   xmlns:dc="http://purl.org/dc/elements/1.1/">
  <metadata
     id="metadata77">
    <rdf:RDF>
      <cc:Work
         rdf:about="">
        <dc:format>image/svg+xml</dc:format>
        <dc:type
           rdf:resource="http://purl.org/dc/dcmitype/StillImage" />
      </cc:Work>
    </rdf:RDF>
  </metadata>
  <sodipodi:namedview
     pagecolor="#9c4444"
     bordercolor="#666666"
     borderopacity="1"
     objecttolerance="10"
     gridtolerance="10"
     guidetolerance="10"
     inkscape:pageopacity="0"
     inkscape:pageshadow="2"
     inkscape:window-width="2560"
     inkscape:window-height="1388"
     id="namedview75"
     showgrid="false"
     inkscape:zoom="4.4470387"
     inkscape:cx="19.338712"
     inkscape:cy="25.859905"
     inkscape:window-x="0"
     inkscape:window-y="0"
     inkscape:window-maximized="1"
     inkscape:current-layer="svg73"
     inkscape:document-rotation="0"
     inkscape:pagecheckerboard="0"
     inkscape:showpageshadow="2"
     inkscape:deskcolor="#d1d1d1" />
  <defs
     id="defs29">
    <style
       id="current-color-scheme"
       type="text/css">.ColorScheme-Text {color:#d8dee9} .ColorScheme-Highlight {color:#3b4252}</style>
  </defs>
  <path
     id="path1"
     style="opacity:1;baseline-shift:baseline;display:inline;overflow:visible;vector-effect:none;fill:currentColor;enable-background:accumulate;stop-color:#000000;stop-opacity:1"
     d="M 19.661775 8.8383367 C 16.33974 8.8383367 13.637272 11.524326 13.637272 14.836206 L 13.637272 49.408294 C 13.637272 52.720174 16.33974 55.407939 19.661775 55.407939 L 44.400766 55.407939 C 47.722801 55.407939 50.427045 52.720174 50.427045 49.408294 L 50.427045 14.836206 C 50.427045 11.524326 47.722801 8.8383367 44.400766 8.8383367 L 19.661775 8.8383367 z M 29.947641 22.329104 C 29.964279 22.328356 29.982006 22.330846 29.999133 22.33443 C 30.805801 22.504778 31.564092 22.781112 32.254104 23.147641 C 32.333459 23.190705 32.35856 23.278961 32.323351 23.353607 C 32.057031 23.919192 32.182183 24.588143 32.710425 25.047499 C 33.238669 25.50686 34.009603 25.614676 34.659999 25.383081 C 34.746945 25.351491 34.847732 25.374541 34.89615 25.44345 C 35.317643 26.042529 35.635995 26.702189 35.831874 27.403678 C 35.853891 27.483101 35.800523 27.560306 35.714687 27.591888 C 35.066488 27.82731 34.608508 28.378521 34.608508 29.028323 C 34.608508 29.677167 35.066488 30.228368 35.714687 30.464757 C 35.801659 30.496312 35.853413 30.573549 35.83365 30.652967 C 35.637757 31.355401 35.31874 32.014939 34.89615 32.61497 C 34.847722 32.683907 34.749414 32.705976 34.66355 32.67534 C 34.014257 32.445664 33.242896 32.554293 32.715752 33.012698 C 32.188618 33.471096 32.064556 34.140188 32.328678 34.704814 C 32.36281 34.779459 32.336892 34.86512 32.257655 34.907229 C 31.567642 35.274717 30.809353 35.551857 30.002684 35.722215 C 29.911341 35.741362 29.822383 35.695644 29.786064 35.621007 C 29.51314 35.060206 28.881602 34.663976 28.136562 34.663976 C 27.392622 34.663976 26.759984 35.060206 26.487059 35.621007 C 26.450743 35.695454 26.360676 35.741415 26.270439 35.722215 C 25.463772 35.551868 24.70371 35.274717 24.013692 34.907229 C 23.935547 34.865092 23.910318 34.779469 23.944445 34.704814 C 24.206364 34.141145 24.079861 33.472737 23.55382 33.016249 C 23.027781 32.558814 22.260646 32.448409 21.611349 32.677115 C 21.525509 32.706751 21.427167 32.6847 21.378749 32.616746 C 20.956156 32.016708 20.635364 31.358001 20.439474 30.656519 C 20.417464 30.577096 20.469031 30.49989 20.554886 30.468308 C 21.199781 30.230973 21.655738 29.681536 21.655738 29.033649 C 21.655738 28.385761 21.199104 27.835377 20.55311 27.59899 C 20.467274 27.567407 20.413913 27.487468 20.435922 27.409004 C 20.630712 26.707524 20.950153 26.04704 21.371647 25.447001 C 21.420064 25.378074 21.51841 25.355996 21.604246 25.386632 C 22.253543 25.616311 23.021353 25.507675 23.548493 25.049274 C 24.076733 24.589914 24.202566 23.920968 23.937343 23.355382 C 23.903223 23.281697 23.927354 23.195086 24.00659 23.152967 C 24.695505 22.785478 25.454892 22.507511 26.261562 22.336206 C 26.352904 22.317068 26.441863 22.362759 26.478181 22.437413 C 26.750005 23.001083 27.383318 23.397996 28.129459 23.397996 C 28.876701 23.397996 29.511789 23.000267 29.782513 22.435638 C 29.812021 22.374968 29.875543 22.332343 29.947641 22.329104 z M 28.133011 25.677825 C 26.00904 25.677825 24.281803 27.181324 24.281803 29.028323 C 24.281803 30.875328 26.00904 32.377044 28.133011 32.377044 C 30.256981 32.377044 31.985993 30.875328 31.985993 29.028323 C 31.985993 27.181324 30.256981 25.677825 28.133011 25.677825 z M 38.713621 32.758791 C 38.774103 32.761973 38.819776 32.805579 38.825482 32.858223 C 38.870009 33.253224 39.174693 33.604192 39.636917 33.728251 C 40.100279 33.852324 40.580544 33.709832 40.872712 33.405098 C 40.911512 33.365416 40.976443 33.351865 41.028962 33.378465 C 41.492327 33.617649 41.901825 33.915966 42.248778 34.257371 C 42.288714 34.296062 42.285657 34.355174 42.247002 34.395865 C 41.958252 34.702536 41.889606 35.138748 42.11561 35.510922 C 42.341575 35.883099 42.795966 36.077545 43.250198 36.041817 C 43.31068 36.036726 43.366756 36.067375 43.38159 36.118166 C 43.510562 36.559816 43.565605 37.021454 43.532513 37.488905 L 43.530738 37.488905 C 43.52601 37.541514 43.478218 37.580836 43.418877 37.584786 C 42.965782 37.623467 42.560117 37.888528 42.417457 38.291462 C 42.274821 38.693415 42.437598 39.111611 42.786775 39.36568 C 42.833593 39.399444 42.849553 39.456787 42.818735 39.502399 C 42.543675 39.90534 42.200403 40.260707 41.806661 40.562413 C 41.761007 40.597177 41.695446 40.593492 41.648635 40.560638 C 41.295978 40.310541 40.795289 40.250495 40.368451 40.447001 C 39.941603 40.643491 39.717078 41.036659 39.75588 41.430666 C 39.761425 41.483284 39.727104 41.531386 39.668877 41.544303 C 39.161004 41.656435 38.631495 41.702695 38.093948 41.673919 C 38.033466 41.670646 37.987793 41.628848 37.982087 41.576263 C 37.935296 41.183245 37.629953 40.833845 37.168877 40.709786 C 36.706653 40.585714 36.22881 40.725726 35.936633 41.027612 C 35.897833 41.068312 35.8329 41.08263 35.780383 41.056021 C 35.317022 40.815834 34.90752 40.517737 34.560567 40.17534 C 34.520631 40.135612 34.524743 40.079337 34.562343 40.038621 C 34.847668 39.732941 34.916155 39.2973 34.690184 38.927115 C 34.464191 38.555932 34.012874 38.360703 33.560922 38.394445 C 33.501586 38.399536 33.44614 38.368741 33.431306 38.318095 C 33.301191 37.875459 33.246656 37.414808 33.278607 36.947357 C 33.281971 36.894738 33.331736 36.85465 33.392243 36.8497 C 33.844194 36.808964 34.245678 36.543979 34.388337 36.143024 C 34.531002 35.741075 34.368807 35.324651 34.020795 35.070581 C 33.975131 35.036817 33.959792 34.979502 33.99061 34.933862 C 34.264529 34.531912 34.608307 34.175555 35.000908 33.873848 C 35.046572 33.839084 35.110373 33.842769 35.157158 33.875624 C 35.50868 34.125719 36.010498 34.185765 36.437343 33.98926 C 36.865328 33.792769 37.088078 33.39783 37.048138 33.00382 C 37.042684 32.95222 37.076887 32.9031 37.135141 32.890183 C 37.643016 32.77705 38.176076 32.730987 38.713621 32.758791 z M 38.39757 35.043948 C 37.333221 35.04711 36.345725 35.646513 36.016533 36.576263 C 35.611374 37.720576 36.353681 38.940559 37.669587 39.292882 C 38.985493 39.645206 40.385878 39.000757 40.791036 37.856448 C 41.196195 36.71214 40.455659 35.493927 39.139758 35.141604 C 38.893025 35.075543 38.643189 35.043218 38.39757 35.043948 z "
     transform="matrix(1.1,0,0,1.1,-3.1845928,-3.2065454)"
     class="ColorScheme-Text" />
</svg>
