<?xml version="1.0" encoding="UTF-8" standalone="no"?>
<svg
   width="64"
   height="64"
   version="1.1"
   id="svg73"
   sodipodi:docname="image-x-adobe-dng.svg"
   inkscape:version="1.4.2 (ebf0e940d0, 2025-05-08)"
   xmlns:inkscape="http://www.inkscape.org/namespaces/inkscape"
   xmlns:sodipodi="http://sodipodi.sourceforge.net/DTD/sodipodi-0.dtd"
   xmlns="http://www.w3.org/2000/svg"
   xmlns:svg="http://www.w3.org/2000/svg"
   xmlns:rdf="http://www.w3.org/1999/02/22-rdf-syntax-ns#"
   xmlns:cc="http://creativecommons.org/ns#"
   xmlns:dc="http://purl.org/dc/elements/1.1/">
  <metadata
     id="metadata77">
    <rdf:RDF>
      <cc:Work
         rdf:about="">
        <dc:format>image/svg+xml</dc:format>
        <dc:type
           rdf:resource="http://purl.org/dc/dcmitype/StillImage" />
      </cc:Work>
    </rdf:RDF>
  </metadata>
  <sodipodi:namedview
     pagecolor="#9c4444"
     bordercolor="#666666"
     borderopacity="1"
     objecttolerance="10"
     gridtolerance="10"
     guidetolerance="10"
     inkscape:pageopacity="0"
     inkscape:pageshadow="2"
     inkscape:window-width="2560"
     inkscape:window-height="1388"
     id="namedview75"
     showgrid="false"
     inkscape:zoom="4.4470387"
     inkscape:cx="19.451146"
     inkscape:cy="8.5450122"
     inkscape:window-x="0"
     inkscape:window-y="0"
     inkscape:window-maximized="1"
     inkscape:current-layer="svg73"
     inkscape:document-rotation="0"
     inkscape:pagecheckerboard="0"
     inkscape:showpageshadow="2"
     inkscape:deskcolor="#d1d1d1" />
  <defs
     id="defs29">
    <style
       id="current-color-scheme"
       type="text/css">.ColorScheme-Text {color:#d8dee9} .ColorScheme-Highlight {color:#3b4252}</style>
  </defs>
  <path
     id="path1"
     style="opacity:1;baseline-shift:baseline;display:inline;overflow:visible;vector-effect:none;fill:currentColor;enable-background:accumulate;stop-color:#000000;stop-opacity:1"
     d="M 19.661775 8.8383367 C 16.33974 8.8383367 13.637272 11.524326 13.637272 14.836206 L 13.637272 49.408294 C 13.637272 52.720174 16.33974 55.407939 19.661775 55.407939 L 44.400766 55.407939 C 47.722801 55.407939 50.427045 52.720174 50.427045 49.408294 L 50.427045 14.836206 C 50.427045 11.524326 47.722801 8.8383367 44.400766 8.8383367 L 19.661775 8.8383367 z M 41.028962 22.483578 C 41.23121 22.475147 41.438333 22.520855 41.625553 22.629175 C 42.123909 22.918918 42.314648 23.544087 42.060567 24.062058 C 41.901865 24.387461 38.159591 32.033405 37.53642 33.108578 C 37.223497 33.647056 36.644689 34.380748 36.103536 35.022641 L 33.617741 33.564899 C 33.906594 32.776796 34.252993 31.914071 34.560567 31.382726 C 35.176608 30.320925 39.960997 23.264307 40.16426 22.964757 C 40.366525 22.666098 40.691882 22.49763 41.028962 22.483578 z M 23.046008 30.887342 C 23.07773 30.882463 23.10978 30.894719 23.131235 30.921078 C 23.163335 30.959428 23.161418 31.015926 23.125908 31.050695 C 22.541963 31.610571 21.974245 32.954511 22.447641 33.705169 C 22.702617 34.095655 23.123731 34.262698 23.855667 34.262698 C 24.068741 34.262698 24.290669 34.248554 24.505525 34.236064 C 24.715033 34.223604 24.931702 34.211206 25.134076 34.211206 C 25.379245 34.211206 25.571939 34.2297 25.739545 34.2698 C 26.315467 34.379457 26.835028 34.757861 27.057016 35.233933 C 27.323582 35.807179 27.182121 36.410536 26.989545 36.977541 C 26.976185 37.017661 26.952393 37.074901 26.922073 37.14622 C 26.802611 37.427047 26.525313 38.080933 26.717883 38.321646 C 26.734833 38.336806 26.790024 38.366036 26.948707 38.366036 C 27.175152 38.366036 27.498583 38.310352 27.841817 38.250624 C 28.226062 38.182864 28.623512 38.113905 28.940894 38.113905 C 28.980124 38.113905 29.017093 38.113882 29.052755 38.11568 C 29.263152 38.12904 29.4709 38.171313 29.683082 38.241746 C 29.708942 38.732975 29.812311 39.184645 29.905028 39.591178 C 30.104725 40.466651 30.182806 40.908444 29.782513 41.38095 C 29.701383 41.47722 29.650328 41.590864 29.628039 41.70943 C 29.47559 41.556078 29.36013 41.351848 29.311988 41.093308 C 29.249578 40.671618 29.116012 40.458976 28.85034 40.356448 C 28.478577 40.226289 28.067918 40.216178 27.712201 40.216178 C 27.645341 40.216178 27.578423 40.215374 27.511562 40.216178 C 26.696714 40.221378 25.904516 40.221956 25.306306 39.443805 C 24.626077 38.557635 25.019733 37.759365 25.400411 36.986419 C 25.601895 36.577208 25.809503 36.1537 25.851405 35.72399 C 25.862105 35.62949 25.843652 35.556457 25.792812 35.494942 C 25.600244 35.25958 24.976808 35.211936 24.372357 35.164686 C 23.758102 35.117426 23.123116 35.068013 22.729957 34.83443 C 22.000694 34.399368 21.821837 33.757714 21.801334 33.295013 C 21.762104 32.428457 22.258077 31.446252 23.00517 30.905098 C 23.01771 30.895907 23.031588 30.88956 23.046008 30.887342 z M 33.321221 34.108223 L 35.807016 35.565965 C 35.885456 35.762988 35.940947 35.974295 35.970368 36.198067 C 36.084484 37.053035 35.823762 38.056258 35.217528 39.101121 C 33.883815 41.400349 31.720381 42.253517 30.276121 42.071646 C 30.244031 42.067946 30.214083 42.056612 30.187343 42.041462 C 30.141873 42.014862 30.105748 41.973308 30.086136 41.922499 C 30.054035 41.842259 30.069018 41.749656 30.125198 41.682797 C 30.696662 41.009644 30.543271 40.336053 30.34892 39.482868 C 30.145654 38.590457 29.91395 37.579969 30.538905 36.398706 C 31.325224 34.910758 32.26559 34.376229 32.914616 34.189899 C 33.049236 34.151549 33.184819 34.125163 33.321221 34.108223 z "
     transform="matrix(1.1,0,0,1.1,-3.1845928,-3.2065454)"
     class="ColorScheme-Text" />
</svg>
