<?xml version="1.0" encoding="UTF-8" standalone="no"?>
<svg
   width="64"
   height="64"
   version="1.1"
   id="svg73"
   sodipodi:docname="javascript.svg"
   inkscape:version="1.4.2 (ebf0e940d0, 2025-05-08)"
   xmlns:inkscape="http://www.inkscape.org/namespaces/inkscape"
   xmlns:sodipodi="http://sodipodi.sourceforge.net/DTD/sodipodi-0.dtd"
   xmlns="http://www.w3.org/2000/svg"
   xmlns:svg="http://www.w3.org/2000/svg"
   xmlns:rdf="http://www.w3.org/1999/02/22-rdf-syntax-ns#"
   xmlns:cc="http://creativecommons.org/ns#"
   xmlns:dc="http://purl.org/dc/elements/1.1/">
  <metadata
     id="metadata77">
    <rdf:RDF>
      <cc:Work
         rdf:about="">
        <dc:format>image/svg+xml</dc:format>
        <dc:type
           rdf:resource="http://purl.org/dc/dcmitype/StillImage" />
      </cc:Work>
    </rdf:RDF>
  </metadata>
  <sodipodi:namedview
     pagecolor="#9c4444"
     bordercolor="#666666"
     borderopacity="1"
     objecttolerance="10"
     gridtolerance="10"
     guidetolerance="10"
     inkscape:pageopacity="0"
     inkscape:pageshadow="2"
     inkscape:window-width="2560"
     inkscape:window-height="1388"
     id="namedview75"
     showgrid="false"
     inkscape:zoom="4.4470387"
     inkscape:cx="19.451146"
     inkscape:cy="8.5450122"
     inkscape:window-x="0"
     inkscape:window-y="0"
     inkscape:window-maximized="1"
     inkscape:current-layer="g877"
     inkscape:document-rotation="0"
     inkscape:pagecheckerboard="0"
     inkscape:showpageshadow="2"
     inkscape:deskcolor="#d1d1d1" />
  <defs
     id="defs29">
    <style
       id="current-color-scheme"
       type="text/css">.ColorScheme-Text {color:#d8dee9} .ColorScheme-Highlight {color:#3b4252}</style>
  </defs>
  <g
     id="g877"
     transform="matrix(1.1,0,0,1.1,-3.1845928,-3.2065454)"
     style="">
    <path
       id="path1"
       style="opacity:1;baseline-shift:baseline;display:inline;overflow:visible;vector-effect:none;fill:currentColor;enable-background:accumulate;stop-color:#000000;stop-opacity:1"
       d="M 19.661775 8.8383367 C 16.33974 8.8383367 13.637272 11.524326 13.637272 14.836206 L 13.637272 49.408294 C 13.637272 52.720174 16.33974 55.407939 19.661775 55.407939 L 44.400766 55.407939 C 47.722801 55.407939 50.427045 52.720174 50.427045 49.408294 L 50.427045 14.836206 C 50.427045 11.524326 47.722801 8.8383367 44.400766 8.8383367 L 19.661775 8.8383367 z M 36.874133 23.470794 C 37.699078 23.470794 38.442128 23.551054 39.100695 23.710496 C 39.759264 23.863006 40.343741 24.059129 40.856732 24.30176 L 40.160709 25.924629 C 39.71011 25.723593 39.196671 25.549966 38.621292 25.404388 C 38.052842 25.251877 37.464643 25.17534 36.854601 25.17534 C 36.008861 25.17534 35.353512 25.373238 34.889047 25.768379 C 34.424583 26.156588 34.191249 26.683134 34.191249 27.348635 C 34.191249 27.743776 34.243514 28.087308 34.347499 28.378465 C 34.451484 28.662689 34.625111 28.92224 34.867741 29.157939 C 35.110371 29.386706 35.429631 29.605156 35.824772 29.813124 C 36.226845 30.01416 36.719731 30.228888 37.302045 30.457655 C 37.932884 30.707218 38.483703 30.964824 38.955099 31.228251 C 39.433427 31.491679 39.83117 31.788612 40.150056 32.121362 C 40.468942 32.454112 40.707943 32.838746 40.867385 33.275482 C 41.033757 33.712216 41.117741 34.229375 41.117741 34.825553 C 41.117741 35.497986 40.996379 36.101069 40.753749 36.634857 C 40.51805 37.161711 40.178241 37.609774 39.734573 37.977186 C 39.290905 38.344598 38.749474 38.624701 38.111704 38.818805 C 37.473932 39.005978 36.75693 39.099345 35.959715 39.099345 C 35.19023 39.099345 34.469506 39.037693 33.797073 38.912911 C 33.131572 38.79506 32.573312 38.617712 32.122712 38.382016 L 32.122712 36.530098 C 32.358411 36.641015 32.625405 36.752989 32.923493 36.863905 C 33.228515 36.96789 33.547774 37.061257 33.880525 37.144445 C 34.213275 37.227632 34.556807 37.296729 34.910354 37.352186 C 35.263902 37.400713 35.6131 37.424984 35.959715 37.424984 C 37.068884 37.424984 37.886697 37.217698 38.41355 36.80176 C 38.947338 36.385822 39.214332 35.788405 39.214332 35.011987 C 39.214332 34.637643 39.162078 34.312717 39.058082 34.035425 C 38.961042 33.758135 38.785458 33.504248 38.528962 33.275482 C 38.279398 33.039783 37.943309 32.815666 37.520439 32.600766 C 37.097569 32.378932 36.563581 32.139931 35.918877 31.883436 C 35.301902 31.640806 34.764193 31.377533 34.306661 31.093308 C 33.856062 30.802152 33.480816 30.47545 33.182726 30.11497 C 32.89157 29.75449 32.67312 29.345585 32.527542 28.888053 C 32.388896 28.430521 32.3198 27.911416 32.3198 27.329104 C 32.3198 26.719061 32.431774 26.17391 32.653607 25.695581 C 32.87544 25.217252 33.187258 24.815788 33.589332 24.48997 C 33.991406 24.15722 34.469407 23.903334 35.023991 23.730027 C 35.585507 23.55672 36.201699 23.470794 36.874133 23.470794 z M 27.183082 23.689189 L 29.127329 23.689189 L 29.127329 38.683862 C 29.127329 39.411754 29.024574 40.042831 28.816604 40.576618 C 28.615569 41.110405 28.329968 41.54925 27.962556 41.895865 C 27.602076 42.249413 27.166952 42.51074 26.653962 42.677115 C 26.147904 42.850423 25.585923 42.936348 24.968948 42.936348 C 24.6154 42.936348 24.307304 42.912063 24.043877 42.86355 C 23.78045 42.82195 23.550837 42.762244 23.356732 42.685993 L 23.356732 41.022286 C 23.592431 41.084679 23.846316 41.133225 24.116675 41.167882 C 24.387035 41.209476 24.678301 41.231803 24.990255 41.231803 C 25.24675 41.231803 25.502581 41.196367 25.759076 41.127044 C 26.022503 41.064651 26.257783 40.947011 26.465752 40.773706 C 26.680653 40.600399 26.854279 40.361398 26.985993 40.056376 C 27.117707 39.751355 27.183082 39.363 27.183082 38.891604 L 27.183082 23.689189 z "
       class="ColorScheme-Text" />
  </g>
</svg>
