<?xml version="1.0" encoding="UTF-8" standalone="no"?>
<svg
   width="64"
   height="64"
   version="1.1"
   id="svg73"
   sodipodi:docname="org.rncbc.qpwgraph.application-x-qpwgraph-patchbay.svg"
   inkscape:version="1.4.2 (ebf0e940d0, 2025-05-08)"
   xmlns:inkscape="http://www.inkscape.org/namespaces/inkscape"
   xmlns:sodipodi="http://sodipodi.sourceforge.net/DTD/sodipodi-0.dtd"
   xmlns="http://www.w3.org/2000/svg"
   xmlns:svg="http://www.w3.org/2000/svg"
   xmlns:rdf="http://www.w3.org/1999/02/22-rdf-syntax-ns#"
   xmlns:cc="http://creativecommons.org/ns#"
   xmlns:dc="http://purl.org/dc/elements/1.1/">
  <metadata
     id="metadata77">
    <rdf:RDF>
      <cc:Work
         rdf:about="">
        <dc:format>image/svg+xml</dc:format>
        <dc:type
           rdf:resource="http://purl.org/dc/dcmitype/StillImage" />
      </cc:Work>
    </rdf:RDF>
  </metadata>
  <sodipodi:namedview
     pagecolor="#9c4444"
     bordercolor="#666666"
     borderopacity="1"
     objecttolerance="10"
     gridtolerance="10"
     guidetolerance="10"
     inkscape:pageopacity="0"
     inkscape:pageshadow="2"
     inkscape:window-width="2560"
     inkscape:window-height="1388"
     id="namedview75"
     showgrid="false"
     inkscape:zoom="4.4470387"
     inkscape:cx="19.451146"
     inkscape:cy="8.3201435"
     inkscape:window-x="0"
     inkscape:window-y="0"
     inkscape:window-maximized="1"
     inkscape:current-layer="svg73"
     inkscape:document-rotation="0"
     inkscape:pagecheckerboard="0"
     inkscape:showpageshadow="2"
     inkscape:deskcolor="#d1d1d1" />
  <defs
     id="defs29">
    <style
       id="current-color-scheme"
       type="text/css">.ColorScheme-Text {color:#d8dee9} .ColorScheme-Highlight {color:#3b4252}</style>
  </defs>
  <path
     id="path1"
     style="opacity:1;baseline-shift:baseline;display:inline;overflow:visible;vector-effect:none;fill:currentColor;enable-background:accumulate;stop-color:#000000;stop-opacity:1"
     d="M 19.661775 8.8383367 C 16.33974 8.8383367 13.637272 11.524326 13.637272 14.836206 L 13.637272 49.408294 C 13.637272 52.720174 16.33974 55.407939 19.661775 55.407939 L 44.400766 55.407939 C 47.722801 55.407939 50.427045 52.720174 50.427045 49.408294 L 50.427045 14.836206 C 50.427045 11.524326 47.722801 8.8383367 44.400766 8.8383367 L 19.661775 8.8383367 z M 22.935922 22.460496 C 23.884892 22.460496 24.66355 23.240929 24.66355 24.189899 C 24.66355 25.138868 23.884189 25.917527 22.935922 25.917527 C 21.987653 25.917527 21.206519 25.138167 21.206519 24.189899 C 21.206519 23.241631 21.987653 22.460496 22.935922 22.460496 z M 41.039616 22.460496 C 41.988586 22.460496 42.767243 23.240929 42.767243 24.189899 C 42.767243 25.138868 41.987883 25.917527 41.039616 25.917527 A 1.7359197 1.7359197 0 0 1 39.310212 24.189899 A 1.7366211 1.7366211 0 0 1 41.039616 22.460496 z M 24.931661 22.954104 L 27.46007 22.954104 C 35.277666 32.005436 28.694316 32.005436 36.511917 22.954104 L 39.058082 22.954104 C 38.828718 23.316718 38.692314 23.742506 38.692314 24.197001 A 2.3145597 2.3145597 0 0 0 39.047428 25.423919 L 37.33578 25.423919 C 33.748894 30.206663 34.407545 30.741377 34.452258 30.770155 L 34.454033 30.77193 L 39.058082 30.77193 C 38.828718 31.133844 38.692314 31.560333 38.692314 32.014828 A 2.3145597 2.3145597 0 0 0 39.047428 33.23997 L 34.455809 33.23997 C 34.455809 33.23997 33.632486 33.65203 37.33578 38.589757 L 39.058082 38.589757 C 38.828718 38.952372 38.69409 39.378158 38.69409 39.832655 A 2.3145597 2.3145597 0 0 0 39.047428 41.057797 L 36.511917 41.057797 C 28.69502 32.006465 35.278743 32.006465 27.461846 41.057797 L 24.942314 41.057797 C 25.164638 40.698688 25.297428 40.280135 25.297428 39.832655 C 25.297428 39.378158 25.160305 38.952372 24.931661 38.589757 L 26.637982 38.589757 C 30.225548 33.807013 29.564523 33.270606 29.519729 33.241746 L 29.517954 33.23997 L 24.942314 33.23997 C 25.164638 32.881564 25.297428 32.46231 25.297428 32.014828 C 25.297428 31.560333 25.161021 31.133844 24.931661 30.77193 L 29.517954 30.77193 C 29.562789 30.743152 30.227327 30.206663 26.639758 25.423919 L 24.942314 25.423919 C 25.165359 25.064811 25.297428 24.644482 25.297428 24.197001 C 25.297428 23.742506 25.161021 23.316718 24.931661 22.954104 z M 22.935922 23.447712 C 22.521405 23.447712 22.195511 23.775382 22.195511 24.189899 C 22.19551 24.604415 22.520706 24.928536 22.935922 24.928536 C 23.35114 24.928536 23.676334 24.605117 23.676334 24.189899 C 23.676334 23.774681 23.35114 23.447712 22.935922 23.447712 z M 41.039616 23.447712 C 40.625101 23.447712 40.299204 23.775382 40.299204 24.189899 C 40.299204 24.604415 40.624398 24.928536 41.039616 24.928536 C 41.454835 24.928536 41.778252 24.605117 41.778252 24.189899 C 41.778252 23.774681 41.454835 23.447712 41.039616 23.447712 z M 22.935922 30.278323 A 1.7345171 1.7345171 0 0 1 24.66355 32.00595 A 1.7359197 1.7359197 0 0 1 22.935922 33.735354 A 1.7366211 1.7366211 0 0 1 21.206519 32.00595 A 1.7359197 1.7359197 0 0 1 22.935922 30.278323 z M 41.03784 30.278323 A 1.7345171 1.7345171 0 0 1 42.765468 32.00595 A 1.7359197 1.7359197 0 0 1 41.03784 33.735354 A 1.7366211 1.7366211 0 0 1 39.310212 32.00595 A 1.7359197 1.7359197 0 0 1 41.03784 30.278323 z M 22.934147 31.265538 C 22.519633 31.265538 22.193735 31.590732 22.193735 32.00595 C 22.193735 32.421168 22.51893 32.746362 22.934147 32.746362 C 23.349367 32.746362 23.674559 32.420467 23.674559 32.00595 C 23.674559 31.591433 23.349738 31.265538 22.935922 31.265538 L 22.934147 31.265538 z M 41.03784 31.265538 C 40.623324 31.265538 40.297428 31.590732 40.297428 32.00595 C 40.297428 32.421168 40.622622 32.746362 41.03784 32.746362 C 41.453058 32.746362 41.778252 32.420467 41.778252 32.00595 C 41.778252 31.591433 41.453058 31.265538 41.03784 31.265538 z M 22.934147 38.094374 A 1.7359197 1.7359197 0 0 1 24.661775 39.823777 A 1.7345171 1.7345171 0 0 1 22.934147 41.551405 A 1.7359197 1.7359197 0 0 1 21.204743 39.823777 A 1.7366211 1.7366211 0 0 1 22.934147 38.094374 z M 41.03784 38.094374 A 1.7359197 1.7359197 0 0 1 42.763692 39.823777 A 1.7345171 1.7345171 0 0 1 41.03784 41.551405 A 1.7359197 1.7359197 0 0 1 39.308437 39.823777 A 1.7366211 1.7366211 0 0 1 41.03784 38.094374 z M 22.934147 39.083365 C 22.519629 39.083365 22.193735 39.408558 22.193735 39.823777 A 0.73294388 0.73294388 0 0 0 22.934147 40.564189 C 23.349364 40.564189 23.672783 40.238994 23.672783 39.823777 C 23.672783 39.408558 23.347962 39.083365 22.934147 39.083365 z M 41.036064 39.083365 C 40.621548 39.083365 40.295653 39.408558 40.295653 39.823777 C 40.295653 40.238293 40.620845 40.564189 41.036064 40.564189 C 41.451282 40.564189 41.776476 40.238994 41.776476 39.823777 C 41.776476 39.408558 41.451282 39.083365 41.036064 39.083365 z "
     transform="matrix(1.1,0,0,1.1,-3.1845928,-3.2065454)"
     class="ColorScheme-Text" />
</svg>
