<?xml version="1.0" encoding="UTF-8" standalone="no"?>
<svg
   width="64"
   height="64"
   version="1.1"
   id="svg73"
   sodipodi:docname="text-calendar.svg"
   inkscape:version="1.4.2 (ebf0e940d0, 2025-05-08)"
   xmlns:inkscape="http://www.inkscape.org/namespaces/inkscape"
   xmlns:sodipodi="http://sodipodi.sourceforge.net/DTD/sodipodi-0.dtd"
   xmlns="http://www.w3.org/2000/svg"
   xmlns:svg="http://www.w3.org/2000/svg"
   xmlns:rdf="http://www.w3.org/1999/02/22-rdf-syntax-ns#"
   xmlns:cc="http://creativecommons.org/ns#"
   xmlns:dc="http://purl.org/dc/elements/1.1/">
  <metadata
     id="metadata77">
    <rdf:RDF>
      <cc:Work
         rdf:about="">
        <dc:format>image/svg+xml</dc:format>
        <dc:type
           rdf:resource="http://purl.org/dc/dcmitype/StillImage" />
      </cc:Work>
    </rdf:RDF>
  </metadata>
  <sodipodi:namedview
     pagecolor="#9c4444"
     bordercolor="#666666"
     borderopacity="1"
     objecttolerance="10"
     gridtolerance="10"
     guidetolerance="10"
     inkscape:pageopacity="0"
     inkscape:pageshadow="2"
     inkscape:window-width="2560"
     inkscape:window-height="1388"
     id="namedview75"
     showgrid="false"
     inkscape:zoom="4.4470387"
     inkscape:cx="19.451146"
     inkscape:cy="8.5450122"
     inkscape:window-x="0"
     inkscape:window-y="0"
     inkscape:window-maximized="1"
     inkscape:current-layer="svg73"
     inkscape:document-rotation="0"
     inkscape:pagecheckerboard="0"
     inkscape:showpageshadow="2"
     inkscape:deskcolor="#d1d1d1" />
  <defs
     id="defs29">
    <style
       id="current-color-scheme"
       type="text/css">.ColorScheme-Text {color:#d8dee9} .ColorScheme-Highlight {color:#3b4252}</style>
  </defs>
  <path
     id="path1"
     style="opacity:1;baseline-shift:baseline;display:inline;overflow:visible;vector-effect:none;fill:currentColor;enable-background:accumulate;stop-color:#000000;stop-opacity:1"
     d="M 19.661775 8.8383367 C 16.33974 8.8383367 13.637272 11.524326 13.637272 14.836206 L 13.637272 49.408294 C 13.637272 52.720174 16.33974 55.407939 19.661775 55.407939 L 44.400766 55.407939 C 47.722801 55.407939 50.427045 52.720174 50.427045 49.408294 L 50.427045 14.836206 C 50.427045 11.524326 47.722801 8.8383367 44.400766 8.8383367 L 19.661775 8.8383367 z M 25.766178 22.478251 C 27.226829 22.478251 28.370392 22.86562 29.200127 23.637698 C 30.029198 24.4111 30.443025 25.48408 30.443025 26.858578 C 30.443025 27.531908 30.224339 28.184338 29.784289 28.815254 C 29.352191 29.446171 28.761366 29.916462 28.010496 30.228607 C 28.861438 30.497674 29.515454 30.946197 29.97605 31.569161 C 30.443272 32.192787 30.679175 32.954996 30.679175 33.854317 C 30.679175 35.244719 30.225251 36.347045 29.317314 37.1622 C 28.41004 37.977355 27.230192 38.383791 25.776832 38.383791 C 24.324133 38.383791 23.139596 37.990358 22.225695 37.203038 C 21.318421 36.41638 20.86561 35.378359 20.86561 34.088692 L 22.841817 34.088692 C 22.841817 34.903184 23.108654 35.555614 23.640823 36.045368 C 24.171667 36.533798 24.884138 36.778678 25.776832 36.778678 C 26.72652 36.778678 27.453556 36.530436 27.957229 36.034715 C 28.460239 35.53767 28.711846 34.826075 28.711846 33.89693 C 28.711846 32.99761 28.434707 32.305532 27.882655 31.823067 C 27.329278 31.341927 26.532322 31.094797 25.489189 31.080879 L 24.011917 31.080879 L 24.011917 29.47399 L 25.489189 29.47399 C 26.418333 29.46008 27.148071 29.215192 27.680241 28.74068 C 28.211749 28.265506 28.477471 27.624493 28.477471 26.815965 C 28.477471 25.002081 27.574098 24.095794 25.766178 24.095794 C 24.915899 24.095794 24.234575 24.338898 23.724275 24.827328 C 23.221265 25.309794 22.969658 25.950807 22.969658 26.752044 L 21.004104 26.752044 C 21.004104 25.525999 21.449526 24.509482 22.342883 23.701618 C 23.243529 22.886463 24.383729 22.478251 25.766178 22.478251 z M 38.216462 22.478251 C 39.882558 22.478251 41.108779 23.014838 41.895439 24.085141 C 42.682094 25.148156 43.084508 26.791569 43.106377 29.017669 L 43.106377 31.569161 C 43.106377 33.872801 42.714058 35.584758 41.9274 36.704104 C 41.140743 37.824112 39.910493 38.383791 38.237769 38.383791 C 36.586252 38.383791 35.362729 37.838229 34.569445 36.746717 C 33.774834 35.648578 33.363921 34.010116 33.335425 31.83372 L 33.335425 29.20943 C 33.335425 26.933624 33.728858 25.242061 34.516178 24.136632 C 35.302173 23.031203 36.537112 22.478251 38.216462 22.478251 z M 38.216462 24.095794 C 37.210441 24.095794 36.476016 24.473998 36.014758 25.232158 C 35.554164 25.990981 35.317335 27.156713 35.302755 28.730027 L 35.302755 31.876334 C 35.302755 33.549058 35.543606 34.786035 36.025411 35.587271 C 36.515166 36.381219 37.252957 36.778678 38.237769 36.778678 C 39.209328 36.778678 39.927859 36.402725 40.395084 35.651192 C 40.870921 34.89966 41.119615 33.715784 41.140823 32.100055 L 41.140823 28.879175 C 41.140823 27.213741 40.906698 26.001633 40.439474 25.242811 C 39.970926 24.477361 39.230436 24.095794 38.216462 24.095794 z "
     transform="matrix(1.1,0,0,1.1,-3.1845928,-3.2065454)"
     class="ColorScheme-Text" />
</svg>
