<?xml version="1.0" encoding="UTF-8" standalone="no"?>
<svg
   width="64"
   height="64"
   version="1.1"
   id="svg73"
   sodipodi:docname="text-x-log.svg"
   inkscape:version="1.4.2 (ebf0e940d0, 2025-05-08)"
   xmlns:inkscape="http://www.inkscape.org/namespaces/inkscape"
   xmlns:sodipodi="http://sodipodi.sourceforge.net/DTD/sodipodi-0.dtd"
   xmlns="http://www.w3.org/2000/svg"
   xmlns:svg="http://www.w3.org/2000/svg"
   xmlns:rdf="http://www.w3.org/1999/02/22-rdf-syntax-ns#"
   xmlns:cc="http://creativecommons.org/ns#"
   xmlns:dc="http://purl.org/dc/elements/1.1/">
  <metadata
     id="metadata77">
    <rdf:RDF>
      <cc:Work
         rdf:about="">
        <dc:format>image/svg+xml</dc:format>
        <dc:type
           rdf:resource="http://purl.org/dc/dcmitype/StillImage" />
      </cc:Work>
    </rdf:RDF>
  </metadata>
  <sodipodi:namedview
     pagecolor="#9c4444"
     bordercolor="#666666"
     borderopacity="1"
     objecttolerance="10"
     gridtolerance="10"
     guidetolerance="10"
     inkscape:pageopacity="0"
     inkscape:pageshadow="2"
     inkscape:window-width="2560"
     inkscape:window-height="1388"
     id="namedview75"
     showgrid="false"
     inkscape:zoom="4.4470387"
     inkscape:cx="19.338712"
     inkscape:cy="8.5450122"
     inkscape:window-x="0"
     inkscape:window-y="0"
     inkscape:window-maximized="1"
     inkscape:current-layer="svg73"
     inkscape:document-rotation="0"
     inkscape:pagecheckerboard="0"
     inkscape:showpageshadow="2"
     inkscape:deskcolor="#d1d1d1" />
  <defs
     id="defs29">
    <style
       id="current-color-scheme"
       type="text/css">.ColorScheme-Text {color:#d8dee9} .ColorScheme-Highlight {color:#3b4252}</style>
  </defs>
  <path
     id="path1"
     style="opacity:1;baseline-shift:baseline;display:inline;overflow:visible;vector-effect:none;fill:currentColor;enable-background:accumulate;stop-color:#000000;stop-opacity:1"
     d="M 19.661775 8.8383367 C 16.33974 8.8383367 13.637272 11.524326 13.637272 14.836206 L 13.637272 49.408294 C 13.637272 52.720174 16.33974 55.407939 19.661775 55.407939 L 44.400766 55.407939 C 47.722801 55.407939 50.427045 52.720174 50.427045 49.408294 L 50.427045 14.836206 C 50.427045 11.524326 47.722801 8.8383367 44.400766 8.8383367 L 19.661775 8.8383367 z M 21.824417 19.704814 L 22.697996 19.704814 L 22.697996 25.851831 L 25.723564 25.851831 L 25.723564 26.627754 L 21.824417 26.627754 L 21.824417 19.704814 z M 28.914261 21.334786 C 29.386181 21.334786 29.799826 21.441054 30.155383 21.654388 C 30.517404 21.861257 30.798373 22.164445 30.998778 22.565254 C 31.205647 22.959599 31.309502 23.444089 31.309502 24.019445 C 31.309502 24.879245 31.088588 25.545038 30.648991 26.016959 C 30.215858 26.48888 29.627512 26.725411 28.884076 26.725411 C 28.425085 26.725411 28.015628 26.621555 27.653607 26.414686 C 27.29805 26.201352 27.017082 25.893976 26.810212 25.493166 C 26.603343 25.085892 26.499488 24.5948 26.499488 24.019445 C 26.499488 23.159644 26.716213 22.49804 27.149346 22.032584 C 27.582478 21.567129 28.170824 21.334786 28.914261 21.334786 z M 34.498422 21.334786 C 34.84105 21.334786 35.148426 21.399029 35.419942 21.528323 C 35.697923 21.657616 35.934454 21.854536 36.128394 22.119587 L 36.176334 22.119587 L 36.293522 21.430666 L 36.971789 21.430666 L 36.971789 26.716533 C 36.971789 27.459969 36.781471 28.017718 36.400056 28.392669 C 36.025105 28.76762 35.439173 28.955524 34.644019 28.955524 C 33.881188 28.955524 33.25742 28.845067 32.77257 28.625269 L 32.77257 27.840467 C 33.283279 28.111983 33.92444 28.247073 34.693735 28.247073 C 35.139797 28.247073 35.487423 28.116172 35.739545 27.851121 C 35.998131 27.592534 36.128394 27.236531 36.128394 26.784004 L 36.128394 26.579814 C 36.128394 26.502238 36.130805 26.391781 36.137272 26.249558 C 36.143739 26.100871 36.150343 25.998791 36.156803 25.940609 L 36.117741 25.940609 C 35.768649 26.464247 35.233119 26.725411 34.509076 26.725411 C 33.836751 26.725411 33.310235 26.48888 32.92882 26.016959 C 32.553869 25.545038 32.365965 24.885847 32.365965 24.038976 C 32.365965 23.211499 32.553869 22.556496 32.92882 22.071646 C 33.310235 21.580332 33.832562 21.334786 34.498422 21.334786 z M 28.894729 22.052115 C 28.364627 22.052115 27.979803 22.226816 27.74061 22.575908 C 27.501417 22.925 27.381945 23.405301 27.381945 24.019445 C 27.381945 24.633588 27.501417 25.122267 27.74061 25.484288 C 27.986267 25.839845 28.373504 26.016959 28.903607 26.016959 C 29.427244 26.016959 29.812069 25.839845 30.057726 25.484288 C 30.303384 25.122267 30.427045 24.633588 30.427045 24.019445 C 30.427045 23.405301 30.303384 22.925 30.057726 22.575908 C 29.812069 22.226816 29.424831 22.052115 28.894729 22.052115 z M 34.61561 22.052115 C 34.182477 22.052115 33.84628 22.226816 33.607087 22.575908 C 33.367895 22.918535 33.248422 23.409627 33.248422 24.049629 C 33.248422 24.689631 33.365481 25.180724 33.598209 25.523351 C 33.837402 25.859514 34.182615 26.027612 34.635141 26.027612 C 35.158779 26.027612 35.539414 25.888334 35.778607 25.610354 C 36.0178 25.325908 36.137272 24.870239 36.137272 24.243166 L 36.137272 24.038976 C 36.137272 23.327863 36.015387 22.821153 35.769729 22.517314 C 35.524072 22.20701 35.139248 22.052115 34.61561 22.052115 z M 20.97392 31.718308 L 43.097499 31.718308 L 43.097499 32.856448 L 20.97392 32.856448 L 20.97392 31.718308 z M 20.97392 37.405453 L 43.097499 37.405453 L 43.097499 38.543592 L 20.97392 38.543592 L 20.97392 37.405453 z M 20.97392 43.094374 L 35.970368 43.094374 L 35.970368 44.230737 L 20.97392 44.230737 L 20.97392 43.094374 z "
     transform="matrix(1.1,0,0,1.1,-3.1845928,-3.2065454)"
     class="ColorScheme-Text" />
</svg>
