<?xml version="1.0" encoding="UTF-8" standalone="no"?>
<svg
   width="64"
   height="64"
   version="1.1"
   id="svg73"
   sodipodi:docname="text-x-readme.svg"
   inkscape:version="1.4.2 (ebf0e940d0, 2025-05-08)"
   xmlns:inkscape="http://www.inkscape.org/namespaces/inkscape"
   xmlns:sodipodi="http://sodipodi.sourceforge.net/DTD/sodipodi-0.dtd"
   xmlns="http://www.w3.org/2000/svg"
   xmlns:svg="http://www.w3.org/2000/svg"
   xmlns:rdf="http://www.w3.org/1999/02/22-rdf-syntax-ns#"
   xmlns:cc="http://creativecommons.org/ns#"
   xmlns:dc="http://purl.org/dc/elements/1.1/">
  <metadata
     id="metadata77">
    <rdf:RDF>
      <cc:Work
         rdf:about="">
        <dc:format>image/svg+xml</dc:format>
        <dc:type
           rdf:resource="http://purl.org/dc/dcmitype/StillImage" />
      </cc:Work>
    </rdf:RDF>
  </metadata>
  <sodipodi:namedview
     pagecolor="#9c4444"
     bordercolor="#666666"
     borderopacity="1"
     objecttolerance="10"
     gridtolerance="10"
     guidetolerance="10"
     inkscape:pageopacity="0"
     inkscape:pageshadow="2"
     inkscape:window-width="2560"
     inkscape:window-height="1388"
     id="namedview75"
     showgrid="false"
     inkscape:zoom="4.4470387"
     inkscape:cx="19.451146"
     inkscape:cy="8.5450122"
     inkscape:window-x="0"
     inkscape:window-y="0"
     inkscape:window-maximized="1"
     inkscape:current-layer="svg73"
     inkscape:document-rotation="0"
     inkscape:pagecheckerboard="0"
     inkscape:showpageshadow="2"
     inkscape:deskcolor="#d1d1d1" />
  <defs
     id="defs29">
    <style
       id="current-color-scheme"
       type="text/css">.ColorScheme-Text {color:#d8dee9} .ColorScheme-Highlight {color:#3b4252}</style>
  </defs>
  <path
     id="path1"
     style="baseline-shift:baseline;display:inline;overflow:visible;opacity:1;vector-effect:none;fill:currentColor;stroke-width:1.1;enable-background:accumulate;stop-color:#000000;stop-opacity:1"
     d="m 18.392578,6.386719 c -3.654238,0 -6.626953,2.9545882 -6.626953,6.597656 v 38.029297 c 0,3.643068 2.972715,6.599609 6.626953,6.599609 h 27.21289 c 3.654239,0 6.628907,-2.956541 6.628907,-6.599609 V 12.984375 c 0,-3.6430678 -2.974668,-6.597656 -6.628907,-6.597656 z m 14.121094,11.183594 c 0.227556,0 0.43425,0.02179 0.61914,0.06445 0.192001,0.03555 0.355123,0.07912 0.490234,0.128906 l -0.24414,0.734375 c -0.113778,-0.03555 -0.245198,-0.06991 -0.394531,-0.105469 -0.149335,-0.03555 -0.302539,-0.05273 -0.458985,-0.05273 -0.31289,0 -0.54668,0.105025 -0.703124,0.31836 -0.149335,0.206222 -0.22461,0.534419 -0.22461,0.982421 v 0.373047 h 1.439453 v 0.72461 h -1.439453 v 4.992187 h -0.939453 v -4.992187 h -1.001954 v -0.437501 l 1.001954,-0.318359 v -0.332031 c 0,-0.739558 0.163122,-1.26789 0.490235,-1.587891 0.327111,-0.327112 0.782121,-0.492187 1.365234,-0.492188 z m -12.798829,0.544922 h 2.751954 v 0.554687 l -0.896485,0.212891 v 6.091797 l 0.896485,0.201172 v 0.554687 h -2.751954 v -0.554687 l 0.896485,-0.201172 v -6.091797 l -0.896485,-0.212891 z m 6.847656,1.791016 c 0.68267,0 1.19843,0.167729 1.546875,0.501953 0.348446,0.327111 0.523439,0.860051 0.523439,1.599609 v 3.722656 h -0.929689 v -3.658203 c 0,-0.917336 -0.42596,-1.375 -1.279296,-1.375 -0.632891,0 -1.070722,0.177647 -1.3125,0.533203 C 24.86955,21.586025 24.75,22.097179 24.75,22.765625 v 2.964844 h -0.939453 v -5.716797 h 0.757812 l 0.138672,0.779297 h 0.05273 c 0.184889,-0.298667 0.440467,-0.519887 0.767578,-0.662109 0.327113,-0.149334 0.67249,-0.224609 1.035156,-0.224609 z m 9.845704,0 c 0.519112,0 0.974122,0.118847 1.365234,0.353515 0.398225,0.227556 0.707289,0.561063 0.927735,1.001953 0.227555,0.43378 0.341796,0.966719 0.341796,1.599609 0,0.945781 -0.243004,1.678153 -0.726562,2.197267 -0.476446,0.519112 -1.121673,0.779296 -1.939453,0.779296 -0.50489,0 -0.957246,-0.114241 -1.355469,-0.341797 -0.391113,-0.234667 -0.700178,-0.572782 -0.927735,-1.013672 -0.227556,-0.448001 -0.341796,-0.988202 -0.341796,-1.621094 0,-0.94578 0.238397,-1.673545 0.714844,-2.185546 0.476445,-0.512002 1.123627,-0.769531 1.941406,-0.769531 z m -0.02148,0.791015 c -0.583112,0 -1.006419,0.190218 -1.269531,0.574219 -0.263112,0.384001 -0.394531,0.914286 -0.394531,1.589843 0,0.675558 0.131419,1.213104 0.394531,1.611328 0.270223,0.391113 0.696185,0.585939 1.279297,0.585939 0.576002,0 0.999308,-0.194826 1.269532,-0.585939 0.270221,-0.398224 0.40625,-0.93577 0.40625,-1.611328 0,-0.675557 -0.136029,-1.205842 -0.40625,-1.589843 -0.270224,-0.384001 -0.696185,-0.574219 -1.279298,-0.574219 z M 19.935547,31.554687 h 24.335937 v 1.251954 H 19.935547 Z m 0,6.25586 H 44.271484 V 39.0625 H 19.935547 Z m 0,6.257813 H 36.43164 v 1.249999 H 19.935547 Z"
     class="ColorScheme-Text" />
</svg>
