<?xml version="1.0" encoding="UTF-8" standalone="no"?>
<svg
   width="64"
   height="64"
   version="1.1"
   id="svg73"
   sodipodi:docname="text-vnd.kde.kcrash-report.svg"
   inkscape:version="1.4.2 (ebf0e940d0, 2025-05-08)"
   xmlns:inkscape="http://www.inkscape.org/namespaces/inkscape"
   xmlns:sodipodi="http://sodipodi.sourceforge.net/DTD/sodipodi-0.dtd"
   xmlns="http://www.w3.org/2000/svg"
   xmlns:svg="http://www.w3.org/2000/svg"
   xmlns:rdf="http://www.w3.org/1999/02/22-rdf-syntax-ns#"
   xmlns:cc="http://creativecommons.org/ns#"
   xmlns:dc="http://purl.org/dc/elements/1.1/">
  <metadata
     id="metadata77">
    <rdf:RDF>
      <cc:Work
         rdf:about="">
        <dc:format>image/svg+xml</dc:format>
        <dc:type
           rdf:resource="http://purl.org/dc/dcmitype/StillImage" />
      </cc:Work>
    </rdf:RDF>
  </metadata>
  <sodipodi:namedview
     pagecolor="#9c4444"
     bordercolor="#666666"
     borderopacity="1"
     objecttolerance="10"
     gridtolerance="10"
     guidetolerance="10"
     inkscape:pageopacity="0"
     inkscape:pageshadow="2"
     inkscape:window-width="2560"
     inkscape:window-height="1388"
     id="namedview75"
     showgrid="false"
     inkscape:zoom="4.4470387"
     inkscape:cx="19.451146"
     inkscape:cy="25.859905"
     inkscape:window-x="0"
     inkscape:window-y="0"
     inkscape:window-maximized="1"
     inkscape:current-layer="svg73"
     inkscape:document-rotation="0"
     inkscape:pagecheckerboard="0"
     inkscape:showpageshadow="2"
     inkscape:deskcolor="#d1d1d1" />
  <defs
     id="defs29">
    <style
       id="current-color-scheme"
       type="text/css">.ColorScheme-Text {color:#d8dee9} .ColorScheme-Highlight {color:#3b4252}</style>
  </defs>
  <path
     id="path1"
     style="opacity:1;baseline-shift:baseline;display:inline;overflow:visible;vector-effect:none;fill:currentColor;enable-background:accumulate;stop-color:#000000;stop-opacity:1"
     d="M 19.661775 8.8383367 C 16.33974 8.8383367 13.637272 11.524326 13.637272 14.836206 L 13.637272 49.408294 C 13.637272 52.720174 16.33974 55.407939 19.661775 55.407939 L 44.400766 55.407939 C 47.722801 55.407939 50.427045 52.720174 50.427045 49.408294 L 50.427045 14.836206 C 50.427045 11.524326 47.722801 8.8383367 44.400766 8.8383367 L 19.661775 8.8383367 z M 40.212201 23.200908 C 40.560234 23.200907 40.901589 23.417039 41.059147 23.738905 C 41.125074 23.873668 41.134166 23.925261 41.133721 24.138408 L 41.133721 24.383436 L 40.499843 26.041817 C 40.150956 26.953926 39.841992 27.743781 39.814474 27.797854 C 39.743936 27.936338 39.638203 28.057156 39.5073 28.145865 C 39.422353 28.203434 37.69226 28.982977 37.419232 29.086916 C 37.38367 29.100451 37.33825 29.051256 37.220368 28.868521 C 37.003241 28.531944 36.840895 28.321905 36.463976 27.893734 C 36.126037 27.509841 35.960765 27.365136 35.796363 27.309573 C 35.573735 27.234356 35.292343 27.303647 35.041746 27.494232 C 34.933075 27.576882 32.284413 29.825924 32.028607 30.052825 C 32.024454 30.056509 32.019033 30.059481 32.014403 30.061703 C 31.957645 30.082549 31.801091 29.954208 30.464332 28.811703 C 28.742954 27.340468 28.755131 27.347642 28.394019 27.364615 C 28.211639 27.373197 28.136405 27.390442 28.006945 27.455169 C 27.697704 27.609793 27.219836 28.130965 26.776476 28.795723 C 26.6707 28.954329 26.569977 29.081153 26.543877 29.090467 L 26.542101 29.090467 L 26.540326 29.090467 C 26.02846 28.876216 24.496909 28.181758 24.422073 28.129885 C 24.285906 28.035523 24.152687 27.85058 24.066959 27.632726 C 24.02871 27.535535 23.731928 26.759171 23.406448 25.906874 C 22.816406 24.361615 22.814308 24.355284 22.813408 24.138408 C 22.812626 23.958854 22.826497 23.894272 22.886207 23.765538 C 22.974567 23.575006 23.172693 23.371078 23.354957 23.284359 C 23.554596 23.189369 23.873807 23.175957 24.081164 23.254175 C 24.24688 23.316682 24.472879 23.500054 24.562343 23.6448 C 24.592268 23.693216 24.863142 24.381547 25.164261 25.173564 C 25.465377 25.96558 25.725678 26.626289 25.743096 26.643734 C 25.771798 26.672469 27.59081 27.485229 27.694445 27.515538 C 27.697548 27.516446 27.70046 27.517092 27.703323 27.517314 C 27.704253 27.517308 27.707743 27.517401 27.70865 27.517314 C 27.709535 27.517143 27.713112 27.515794 27.713976 27.515538 C 27.714821 27.515196 27.718476 27.514194 27.719303 27.513763 L 27.721079 27.511987 C 27.737757 27.499085 27.753329 27.464226 27.769019 27.401902 C 27.909474 26.844105 28.405707 26.124494 28.946221 25.69203 C 29.145026 25.532966 29.172806 25.49797 29.25517 25.308507 C 29.3814 25.018134 29.54302 24.780957 29.764758 24.559217 C 30.7662 23.557775 32.52575 23.401092 33.747357 24.205879 C 34.180779 24.491414 34.495594 24.859635 34.688408 25.30318 C 34.766884 25.4837 34.800265 25.525028 34.981377 25.670723 C 35.221736 25.864082 35.478425 26.131316 35.6774 26.395155 C 35.842962 26.614693 36.092324 27.107131 36.163905 27.353962 C 36.187626 27.435715 36.215651 27.50495 36.229601 27.520865 L 36.231377 27.520865 L 36.231377 27.522641 L 36.233153 27.522641 L 36.233153 27.524416 L 36.234928 27.524416 C 36.246218 27.524436 36.697943 27.329375 37.2399 27.091178 L 38.227116 26.657939 L 38.788195 25.184217 C 39.106732 24.348573 39.383182 23.661535 39.4274 23.598635 C 39.601434 23.351011 39.896849 23.200908 40.212201 23.200908 z M 33.157868 25.162911 C 33.028968 25.16694 32.910338 25.20796 32.815184 25.288976 C 32.376637 25.662348 32.533313 26.629973 33.127684 27.224345 C 33.302586 27.399246 33.518637 27.531013 33.708295 27.579459 C 33.846305 27.614723 34.068242 27.588001 34.187698 27.520865 C 34.696349 27.234991 34.594729 26.223379 33.992385 25.578394 C 33.750769 25.319674 33.464351 25.17522 33.212911 25.162911 C 33.194053 25.161987 33.176283 25.162335 33.157868 25.162911 z M 30.776832 25.17534 C 30.629318 25.175058 30.553601 25.190723 30.437698 25.244587 C 29.861589 25.512241 29.427187 26.249729 29.464687 26.897641 C 29.484527 27.240435 29.645975 27.502468 29.885496 27.579459 C 30.032868 27.626833 30.29057 27.591217 30.485638 27.496007 C 30.610617 27.435003 30.72786 27.344886 30.858508 27.211916 C 31.216394 26.847671 31.396056 26.433485 31.400056 25.960141 C 31.401883 25.731505 31.392023 25.666077 31.339687 25.55176 C 31.214298 25.277949 31.059723 25.175925 30.776832 25.17534 z M 35.58507 27.783649 C 35.606958 27.78362 35.627681 27.792892 35.657868 27.808507 C 35.752684 27.857537 36.257077 28.419816 36.520795 28.76909 C 37.471123 30.02773 37.994516 31.650796 37.994516 33.341178 C 37.994516 36.006419 36.68976 38.618356 34.691959 39.951618 C 34.385838 40.155913 33.764241 40.464002 33.441959 40.569516 C 32.802184 40.778827 32.138701 40.853438 31.510141 40.787911 C 30.359881 40.668011 29.211907 40.084474 28.275056 39.143734 C 27.075739 37.939442 26.269452 36.256284 26.018309 34.42605 C 25.957609 33.98374 25.937132 33.13126 25.975695 32.689544 C 26.084065 31.44801 26.449284 30.30532 27.058792 29.303536 C 27.263146 28.967663 27.708195 28.380342 27.923493 28.161845 C 28.152774 27.929136 28.35638 27.829412 28.50588 27.874203 C 28.57798 27.895804 29.08996 28.316031 30.27257 29.324842 C 31.188524 30.106201 31.953964 30.745297 31.973564 30.745297 C 31.993165 30.745297 32.761701 30.102746 33.681661 29.31774 C 34.601621 28.53273 35.405637 27.863041 35.467883 27.829814 C 35.519412 27.802296 35.548689 27.788425 35.574417 27.785425 C 35.577632 27.785066 35.581943 27.783653 35.58507 27.783649 z M 38.058437 30.580169 C 38.06143 30.578098 38.441855 30.645774 38.905383 30.731092 C 39.544443 30.848727 39.780651 30.903462 39.883721 30.95659 C 39.971536 31.00184 40.432518 31.407255 41.183437 32.100055 C 41.822742 32.689875 42.369401 33.203246 42.399701 33.241746 C 42.607971 33.506504 42.662476 33.899027 42.529317 34.189899 C 42.32301 34.640517 41.802103 34.885771 41.375198 34.733223 C 41.297671 34.705514 41.187188 34.651112 41.13017 34.612484 C 41.073137 34.573856 40.580413 34.129229 40.034644 33.625269 C 39.488876 33.121309 39.015583 32.701299 38.985283 32.689544 C 38.954916 32.677871 38.835717 32.65159 38.718948 32.632726 C 38.468646 32.592352 38.475212 32.60415 38.42953 32.213692 C 38.386145 31.842633 38.253939 31.218829 38.143664 30.871362 C 38.093473 30.713217 38.055437 30.58226 38.058437 30.580169 z M 25.854957 30.603251 C 25.856622 30.603354 25.859293 30.604814 25.860283 30.605027 L 25.862059 30.605027 L 25.862059 30.606803 L 25.862059 30.608578 C 25.864799 30.634206 25.841252 30.742052 25.805241 30.860709 C 25.659412 31.341048 25.573188 31.751523 25.50517 32.277612 C 25.483215 32.44745 25.461866 32.588524 25.457229 32.591888 C 25.45259 32.595261 25.332179 32.618643 25.190894 32.643379 C 24.957774 32.684198 24.925067 32.697307 24.825127 32.792527 C 24.481567 33.119849 22.932417 34.537086 22.847144 34.601831 C 22.724788 34.694723 22.453148 34.781842 22.298493 34.779388 C 22.236278 34.77837 22.130688 34.764216 22.062343 34.745652 C 21.792799 34.672978 21.589015 34.502095 21.446221 34.230737 C 21.380221 34.105129 21.371763 34.060134 21.371647 33.831234 C 21.371422 33.387628 21.334402 33.431847 22.729957 32.139118 C 23.679609 31.259442 23.960483 31.014399 24.090042 30.951263 C 24.220637 30.887591 24.411418 30.84287 25.048849 30.729317 C 25.431171 30.661213 25.757579 30.610851 25.840752 30.605027 C 25.845666 30.604745 25.852036 30.603072 25.854957 30.603251 z M 25.528252 34.617811 L 25.58507 34.937413 C 25.669054 35.396579 25.775073 35.798197 25.927755 36.249558 L 26.060922 36.64551 L 25.956164 36.739615 C 25.866529 36.821347 25.759929 37.034818 25.203323 38.25595 C 24.493048 39.814211 24.476052 39.844686 24.17882 40.003109 C 24.031925 40.081471 23.975885 40.095723 23.789971 40.102541 C 23.65784 40.107332 23.528688 40.096705 23.459715 40.074132 C 23.214883 39.994159 22.977048 39.779615 22.875553 39.546788 C 22.805426 39.385978 22.781422 39.119589 22.822286 38.9573 C 22.847775 38.856075 23.983436 36.329427 24.230312 35.825198 C 24.314603 35.653031 24.420593 35.54867 25.039971 35.027967 L 25.528252 34.617811 z M 38.418877 34.623138 C 38.435038 34.601282 39.592046 35.604718 39.649346 35.690254 C 39.718603 35.79365 41.064322 38.724863 41.123067 38.900482 C 41.261301 39.313693 41.025 39.831327 40.609928 40.024416 C 40.388033 40.12758 40.0803 40.137517 39.865965 40.047499 C 39.643739 39.95417 39.472878 39.799545 39.370582 39.600055 C 39.345622 39.551381 39.04962 38.908837 38.713621 38.172499 C 38.174108 36.990148 38.090196 36.824006 37.994516 36.739615 L 37.886207 36.643734 L 38.010496 36.277967 C 38.157094 35.84704 38.295807 35.316533 38.363834 34.917882 C 38.390453 34.761252 38.41515 34.628138 38.418877 34.623138 z "
     transform="matrix(1.1,0,0,1.1,-3.1845928,-3.2065454)"
     class="ColorScheme-Text" />
</svg>
