<?xml version="1.0" encoding="UTF-8" standalone="no"?>
<svg
   width="64"
   height="64"
   version="1.1"
   id="svg73"
   sodipodi:docname="text-vnd.trolltech.linguist.svg"
   inkscape:version="1.4.2 (ebf0e940d0, 2025-05-08)"
   xmlns:inkscape="http://www.inkscape.org/namespaces/inkscape"
   xmlns:sodipodi="http://sodipodi.sourceforge.net/DTD/sodipodi-0.dtd"
   xmlns="http://www.w3.org/2000/svg"
   xmlns:svg="http://www.w3.org/2000/svg"
   xmlns:rdf="http://www.w3.org/1999/02/22-rdf-syntax-ns#"
   xmlns:cc="http://creativecommons.org/ns#"
   xmlns:dc="http://purl.org/dc/elements/1.1/">
  <metadata
     id="metadata77">
    <rdf:RDF>
      <cc:Work
         rdf:about="">
        <dc:format>image/svg+xml</dc:format>
        <dc:type
           rdf:resource="http://purl.org/dc/dcmitype/StillImage" />
      </cc:Work>
    </rdf:RDF>
  </metadata>
  <sodipodi:namedview
     pagecolor="#9c4444"
     bordercolor="#666666"
     borderopacity="1"
     objecttolerance="10"
     gridtolerance="10"
     guidetolerance="10"
     inkscape:pageopacity="0"
     inkscape:pageshadow="2"
     inkscape:window-width="2560"
     inkscape:window-height="1388"
     id="namedview75"
     showgrid="false"
     inkscape:zoom="4.4470387"
     inkscape:cx="19.338712"
     inkscape:cy="25.859905"
     inkscape:window-x="0"
     inkscape:window-y="0"
     inkscape:window-maximized="1"
     inkscape:current-layer="svg73"
     inkscape:document-rotation="0"
     inkscape:pagecheckerboard="0"
     inkscape:showpageshadow="2"
     inkscape:deskcolor="#d1d1d1" />
  <defs
     id="defs29">
    <style
       id="current-color-scheme"
       type="text/css">.ColorScheme-Text {color:#d8dee9} .ColorScheme-Highlight {color:#3b4252}</style>
  </defs>
  <path
     id="path1"
     style="opacity:1;baseline-shift:baseline;display:inline;overflow:visible;vector-effect:none;fill:currentColor;enable-background:accumulate;stop-color:#000000;stop-opacity:1"
     d="M 19.661775 8.8383367 C 16.33974 8.8383367 13.637272 11.524326 13.637272 14.836206 L 13.637272 49.408294 C 13.637272 52.720174 16.33974 55.407939 19.661775 55.407939 L 44.400766 55.407939 C 47.722801 55.407939 50.427045 52.720174 50.427045 49.408294 L 50.427045 14.836206 C 50.427045 11.524326 47.722801 8.8383367 44.400766 8.8383367 L 19.661775 8.8383367 z M 25.128749 23.378465 L 26.479957 24.298209 C 26.411773 24.355479 26.30027 24.385212 26.163905 24.385212 C 26.052088 24.385212 25.925836 24.365708 25.780383 24.326618 C 25.396746 24.442072 24.924018 24.555625 24.416746 24.671078 L 24.416746 26.625979 L 24.844658 26.625979 L 25.432371 25.908649 L 26.524346 26.647286 C 26.446165 26.770924 26.299773 26.819516 25.995226 26.819516 L 24.416746 26.819516 L 24.416746 27.883081 C 25.869473 28.209445 26.343238 28.753138 26.343238 29.168592 C 26.343238 29.474965 26.084019 29.695936 25.780383 29.695936 C 25.63402 29.695936 25.474841 29.63668 25.329388 29.513053 C 25.249389 29.033052 24.844928 28.420368 24.416746 28.034004 L 24.416746 32.080524 C 24.406746 32.148728 24.03426 32.369942 23.459715 32.369942 L 23.244871 32.369942 L 23.244871 28.783294 C 22.715781 29.579659 22.041972 30.279251 21.206519 30.883791 L 21.071576 30.757726 C 21.961576 29.684089 22.58176 28.20683 22.919942 26.81774 L 21.195866 26.81774 L 21.139047 26.627754 L 23.246647 26.627754 L 23.246647 24.901902 C 22.569374 25.016447 21.848239 25.111621 21.172783 25.178891 L 21.128394 25.054601 C 22.548394 24.642783 24.271476 23.904828 25.128749 23.378465 z M 30.320511 24.710141 L 31.627329 25.523351 C 31.560056 25.610622 31.378961 25.687374 31.142599 25.734644 L 31.142599 31.716533 L 31.142599 31.718308 L 31.140823 31.718308 L 31.140823 31.720084 C 31.1031 31.76419 30.773067 31.993521 29.936988 31.993521 L 29.936988 31.073777 L 27.808082 31.073777 L 27.808082 31.773351 L 27.808082 31.775126 C 27.799134 31.815757 27.639119 32.176405 26.613124 32.176405 L 26.613124 24.814899 L 27.866675 25.276547 L 29.825127 25.276547 L 30.320511 24.710141 z M 27.808082 25.468308 L 27.808082 30.883791 L 29.936988 30.883791 L 29.936988 25.468308 L 27.808082 25.468308 z M 40.455454 34.118876 C 41.636363 34.118877 42.490311 34.404487 43.017599 34.983578 C 43.545775 35.56085 43.809502 36.496209 43.809502 37.790751 C 43.809502 39.068935 43.519387 40.000953 42.943025 40.585496 C 42.365753 41.169132 41.448168 41.460851 40.190894 41.460851 C 39.036349 41.460851 38.19578 41.171688 37.676689 40.592598 C 37.217596 40.080782 36.973937 39.27784 36.920297 38.215112 L 34.794942 38.215112 L 34.794942 40.233933 C 34.794942 40.476669 34.832298 40.651484 34.905028 40.752399 C 34.976848 40.853311 35.097202 40.906527 35.269019 40.917527 L 35.590397 40.938834 C 35.591303 40.938834 35.593028 40.938752 35.593948 40.938834 C 35.599693 40.939748 35.608576 40.942136 35.618806 40.944161 C 35.72244 40.950518 35.77328 41.003837 35.77328 41.109288 C 35.77328 41.195639 35.76224 41.250935 35.74132 41.270865 C 35.719501 41.292815 35.668621 41.302825 35.588621 41.302825 C 35.564074 41.302825 35.509077 41.300448 35.418167 41.293948 C 35.047258 41.277748 34.68936 41.26909 34.345724 41.26909 C 33.985724 41.26909 33.614346 41.279289 33.228891 41.297499 C 33.146167 41.301199 33.094417 41.302825 33.074417 41.302825 C 32.998965 41.302825 32.947979 41.292855 32.925269 41.270865 C 32.902529 41.250868 32.889758 41.198334 32.889758 41.111064 C 32.889758 41.005613 32.944886 40.950661 33.054885 40.944161 C 33.067606 40.944161 33.07687 40.941534 33.08507 40.938834 L 33.408224 40.919303 C 33.574588 40.907483 33.691562 40.85336 33.761562 40.750624 C 33.832467 40.646987 33.868096 40.474786 33.868096 40.235709 L 33.868096 35.342243 C 33.868096 35.099505 33.831606 34.928289 33.759786 34.825553 C 33.687969 34.723712 33.567612 34.668649 33.395795 34.658649 L 33.08507 34.639118 C 32.954167 34.629119 32.889758 34.568042 32.889758 34.456234 C 32.889758 34.373494 32.900798 34.322776 32.921718 34.303536 C 32.943537 34.285326 32.994417 34.273351 33.074417 34.273351 C 33.090779 34.273351 33.145083 34.275029 33.235993 34.282229 C 33.615084 34.298429 33.9875 34.307087 34.347499 34.307087 C 34.691136 34.307087 35.048167 34.298719 35.418167 34.282229 C 35.512715 34.275129 35.570397 34.273351 35.590397 34.273351 C 35.673122 34.273351 35.723941 34.284296 35.744871 34.303536 C 35.763951 34.32264 35.77328 34.374424 35.77328 34.456234 C 35.77328 34.567151 35.711348 34.628118 35.588621 34.639118 L 35.25659 34.658649 C 35.092955 34.669575 34.976848 34.726367 34.905028 34.829104 C 34.832298 34.932741 34.794942 35.103166 34.794942 35.342243 L 34.794942 37.167527 L 36.934502 37.167527 C 37.013593 36.204797 37.275113 35.470679 37.742385 34.99068 C 38.305113 34.409785 39.209999 34.118876 40.455454 34.118876 z M 40.345368 34.466888 C 39.494459 34.466888 38.876303 34.728959 38.488124 35.251689 C 38.100849 35.774415 37.907513 36.616631 37.907513 37.772996 C 37.907513 38.953906 38.098338 39.803663 38.479246 40.320936 C 38.862883 40.839119 39.485368 41.096859 40.345368 41.096859 C 41.205368 41.096859 41.824303 40.839119 42.207939 40.320936 C 42.590672 39.803663 42.781448 38.958975 42.781448 37.788976 C 42.781448 36.609885 42.591489 35.759173 42.211491 35.242811 C 41.828762 34.725537 41.208093 34.466888 40.345368 34.466888 z "
     transform="matrix(1.1,0,0,1.1,-3.1845928,-3.2065454)"
     class="ColorScheme-Text" />
</svg>
