<?xml version="1.0" encoding="UTF-8" standalone="no"?>
<svg
   width="64"
   height="64"
   version="1.1"
   id="svg73"
   sodipodi:docname="text-x-octave.svg"
   inkscape:version="1.4.2 (ebf0e940d0, 2025-05-08)"
   xmlns:inkscape="http://www.inkscape.org/namespaces/inkscape"
   xmlns:sodipodi="http://sodipodi.sourceforge.net/DTD/sodipodi-0.dtd"
   xmlns="http://www.w3.org/2000/svg"
   xmlns:svg="http://www.w3.org/2000/svg"
   xmlns:rdf="http://www.w3.org/1999/02/22-rdf-syntax-ns#"
   xmlns:cc="http://creativecommons.org/ns#"
   xmlns:dc="http://purl.org/dc/elements/1.1/">
  <metadata
     id="metadata77">
    <rdf:RDF>
      <cc:Work
         rdf:about="">
        <dc:format>image/svg+xml</dc:format>
        <dc:type
           rdf:resource="http://purl.org/dc/dcmitype/StillImage" />
      </cc:Work>
    </rdf:RDF>
  </metadata>
  <sodipodi:namedview
     pagecolor="#9c4444"
     bordercolor="#666666"
     borderopacity="1"
     objecttolerance="10"
     gridtolerance="10"
     guidetolerance="10"
     inkscape:pageopacity="0"
     inkscape:pageshadow="2"
     inkscape:window-width="2560"
     inkscape:window-height="1388"
     id="namedview75"
     showgrid="false"
     inkscape:zoom="4.4470387"
     inkscape:cx="19.451146"
     inkscape:cy="25.859905"
     inkscape:window-x="0"
     inkscape:window-y="0"
     inkscape:window-maximized="1"
     inkscape:current-layer="svg73"
     inkscape:document-rotation="0"
     inkscape:pagecheckerboard="0"
     inkscape:showpageshadow="2"
     inkscape:deskcolor="#d1d1d1" />
  <defs
     id="defs29">
    <style
       id="current-color-scheme"
       type="text/css">.ColorScheme-Text {color:#d8dee9} .ColorScheme-Highlight {color:#3b4252}</style>
  </defs>
  <path
     id="path1"
     style="opacity:1;baseline-shift:baseline;display:inline;overflow:visible;vector-effect:none;fill:currentColor;enable-background:accumulate;stop-color:#000000;stop-opacity:1"
     d="M 19.661775 8.8383367 C 16.33974 8.8383367 13.637272 11.524326 13.637272 14.836206 L 13.637272 49.408294 C 13.637272 52.720174 16.33974 55.407939 19.661775 55.407939 L 44.400766 55.407939 C 47.722801 55.407939 50.427045 52.720174 50.427045 49.408294 L 50.427045 14.836206 C 50.427045 11.524326 47.722801 8.8383367 44.400766 8.8383367 L 19.661775 8.8383367 z M 32.019729 20.66007 C 32.502628 20.65616 32.983279 20.671064 33.232442 20.706234 C 34.003503 20.815055 34.757553 21.000779 35.411064 21.242456 L 35.766178 21.373848 L 35.629459 21.498138 C 35.375959 21.727172 35.328488 21.881472 35.313408 22.529743 C 35.304182 22.926588 35.298464 23.049116 35.270795 23.076618 L 35.269019 23.078394 L 35.267243 23.080169 L 35.265468 23.080169 L 35.263692 23.081945 L 35.261917 23.081945 C 35.261255 23.082087 35.257271 23.083636 35.25659 23.08372 C 35.252386 23.083895 35.247348 23.083397 35.242385 23.081945 C 33.181935 22.479006 30.981921 22.800224 29.212556 23.962626 C 28.371056 24.515458 27.54776 25.366915 27.021505 26.228251 L 26.872357 26.469729 L 25.080809 26.480382 C 24.095463 26.485532 23.289261 26.476831 23.289261 26.460851 C 23.289261 26.444854 23.399896 26.213008 23.534289 25.945936 C 24.041378 24.938232 24.519749 24.28104 25.345368 23.454814 C 26.003427 22.796271 26.469442 22.426948 27.200837 21.98997 C 28.290281 21.339073 29.444087 20.933367 30.796363 20.725766 C 31.051922 20.686546 31.536831 20.66407 32.019729 20.66007 z M 37.687343 21.728962 C 38.591668 21.725354 38.621455 21.757358 38.734928 21.991746 C 38.804318 22.134948 38.809502 22.209935 38.809502 23.234644 C 38.809502 24.431089 38.798636 24.501216 38.599985 24.642669 C 38.493858 24.718249 38.460816 24.720794 37.302045 24.720794 C 36.123309 24.720794 36.111463 24.719062 35.9899 24.637342 C 35.793915 24.505561 35.782683 24.422865 35.780383 23.231092 C 35.778166 22.067644 35.785382 22.005993 35.97392 21.831945 L 36.071576 21.743166 L 37.243451 21.732513 C 37.411061 21.731013 37.558153 21.729488 37.687343 21.728962 z M 39.296008 23.944871 L 39.5073 24.197001 C 39.809159 24.560196 40.285047 25.285153 40.53713 25.766604 C 41.052549 26.750996 41.394502 27.841078 41.558082 29.015894 C 41.630032 29.532639 41.620176 30.94701 41.540326 31.487484 C 41.496736 31.78259 41.477874 31.896562 41.460425 31.924274 L 41.45865 31.92605 L 41.456874 31.927825 L 41.456874 31.929601 L 41.455099 31.929601 L 41.453323 31.931376 L 41.451547 31.931376 L 41.449772 31.931376 L 41.447996 31.931376 L 41.446221 31.929601 C 41.441732 31.926235 41.435725 31.918946 41.430241 31.91007 L 41.428465 31.908294 C 41.409 31.886779 41.325344 31.835548 41.236704 31.792882 C 41.093471 31.723932 40.989635 31.70655 40.611704 31.69345 L 40.157158 31.67747 L 40.222854 31.34899 C 40.454834 30.167759 40.368365 28.849177 39.981377 27.684217 C 39.734074 26.939753 39.228644 26.024568 38.720724 25.399061 L 38.552045 25.193095 L 38.688763 25.136277 C 39.052347 24.984362 39.234495 24.704994 39.272925 24.241391 L 39.296008 23.944871 z M 22.694445 26.975766 L 25.110993 26.975766 L 27.531093 26.975766 L 27.699772 27.059217 C 27.899591 27.15764 28.141528 27.388896 28.234218 27.570581 C 28.365699 27.828323 28.378841 28.070916 28.378039 30.203749 C 28.377479 31.770583 28.365599 32.337291 28.330099 32.506661 C 28.273711 32.775743 28.099037 33.048263 27.884431 33.202683 C 27.576676 33.424095 27.650388 33.419351 25.11632 33.415751 C 23.843363 33.413971 22.751358 33.39829 22.689118 33.38024 C 22.514268 33.329566 22.239181 33.128126 22.108508 32.955879 C 21.877032 32.650749 21.878983 32.66788 21.890113 30.113195 L 21.900766 27.806732 L 22.000198 27.602541 C 22.110383 27.378169 22.299259 27.186795 22.538195 27.059217 L 22.694445 26.975766 z M 39.485993 32.156874 C 40.770547 32.157624 40.897419 32.162985 41.032513 32.224345 C 41.204262 32.302347 41.319842 32.437082 41.373422 32.620297 C 41.398402 32.705267 41.409032 33.248957 41.401832 34.179246 L 41.389403 35.606803 L 41.293522 35.752399 C 41.107468 36.03344 41.103988 36.034292 39.512627 36.043592 C 38.383662 36.050212 38.077405 36.041339 37.966107 36.000979 C 37.889782 35.973321 37.787359 35.914171 37.737059 35.867811 C 37.550029 35.695526 37.547073 35.661553 37.547073 34.085141 C 37.547073 32.515376 37.54639 32.521576 37.733508 32.346859 C 37.932599 32.161028 37.982311 32.155983 39.485993 32.156874 z M 25.210425 33.888053 L 27.133366 33.889828 L 27.259431 34.078038 C 27.74661 34.802043 28.57686 35.588405 29.379459 36.086206 C 31.682898 37.51494 34.692922 37.512269 36.95936 36.080879 C 37.073735 36.008658 37.173814 35.953752 37.19551 35.949487 L 37.197286 35.949487 L 37.199062 35.949487 C 37.204562 35.956824 37.245106 36.016409 37.289616 36.080879 C 37.334135 36.145351 37.441172 36.246956 37.527542 36.306376 C 37.772003 36.474567 38.025303 36.523371 38.663905 36.524771 L 39.224985 36.526547 L 38.718948 37.020155 C 37.235926 38.470524 35.474668 39.33686 33.378039 39.647996 C 32.937357 39.713376 31.618725 39.741926 31.174559 39.695936 C 29.394786 39.511613 27.747437 38.865477 26.295297 37.781874 C 25.838187 37.440774 24.817857 36.423245 24.484218 35.974345 C 24.11164 35.47305 23.814833 34.988881 23.534289 34.431376 C 23.399897 34.164307 23.289261 33.932262 23.289261 33.916462 C 23.289261 33.900642 24.153341 33.887527 25.210425 33.888053 z "
     transform="matrix(1.1,0,0,1.1,-3.1845928,-3.2065454)"
     class="ColorScheme-Text" />
</svg>
