<?xml version="1.0" encoding="UTF-8" standalone="no"?>
<svg
   width="64"
   height="64"
   version="1.1"
   id="svg73"
   sodipodi:docname="text-x-sass.svg"
   inkscape:version="1.4.2 (ebf0e940d0, 2025-05-08)"
   xmlns:inkscape="http://www.inkscape.org/namespaces/inkscape"
   xmlns:sodipodi="http://sodipodi.sourceforge.net/DTD/sodipodi-0.dtd"
   xmlns="http://www.w3.org/2000/svg"
   xmlns:svg="http://www.w3.org/2000/svg"
   xmlns:rdf="http://www.w3.org/1999/02/22-rdf-syntax-ns#"
   xmlns:cc="http://creativecommons.org/ns#"
   xmlns:dc="http://purl.org/dc/elements/1.1/">
  <metadata
     id="metadata77">
    <rdf:RDF>
      <cc:Work
         rdf:about="">
        <dc:format>image/svg+xml</dc:format>
        <dc:type
           rdf:resource="http://purl.org/dc/dcmitype/StillImage" />
      </cc:Work>
    </rdf:RDF>
  </metadata>
  <sodipodi:namedview
     pagecolor="#9c4444"
     bordercolor="#666666"
     borderopacity="1"
     objecttolerance="10"
     gridtolerance="10"
     guidetolerance="10"
     inkscape:pageopacity="0"
     inkscape:pageshadow="2"
     inkscape:window-width="2560"
     inkscape:window-height="1388"
     id="namedview75"
     showgrid="false"
     inkscape:zoom="4.4470387"
     inkscape:cx="19.338712"
     inkscape:cy="25.859905"
     inkscape:window-x="0"
     inkscape:window-y="0"
     inkscape:window-maximized="1"
     inkscape:current-layer="svg73"
     inkscape:document-rotation="0"
     inkscape:pagecheckerboard="0"
     inkscape:showpageshadow="2"
     inkscape:deskcolor="#d1d1d1" />
  <defs
     id="defs29">
    <style
       id="current-color-scheme"
       type="text/css">.ColorScheme-Text {color:#d8dee9} .ColorScheme-Highlight {color:#3b4252}</style>
  </defs>
  <path
     id="path1"
     style="opacity:1;baseline-shift:baseline;display:inline;overflow:visible;vector-effect:none;fill:currentColor;enable-background:accumulate;stop-color:#000000;stop-opacity:1"
     d="M 19.661775 8.8383367 C 16.33974 8.8383367 13.637272 11.524326 13.637272 14.836206 L 13.637272 49.408294 C 13.637272 52.720174 16.33974 55.407939 19.661775 55.407939 L 44.400766 55.407939 C 47.722801 55.407939 50.427045 52.720174 50.427045 49.408294 L 50.427045 14.836206 C 50.427045 11.524326 47.722801 8.8383367 44.400766 8.8383367 L 19.661775 8.8383367 z M 31.602471 23.289686 C 33.400706 23.382267 34.830202 24.079857 35.151832 25.281874 C 35.657486 27.17092 33.934626 29.430185 31.728536 30.244587 C 29.75961 30.969489 28.130371 30.854726 27.463621 30.645865 C 26.702899 30.407013 26.255324 29.928969 26.147925 29.660425 C 26.103175 29.55383 26.031582 29.373809 26.147925 29.314189 C 26.219521 29.275843 26.246702 29.285908 26.439118 29.486419 C 26.622587 29.678177 27.351283 30.189629 28.738479 30.040396 C 32.380991 29.652316 34.574126 26.957165 33.880525 25.507371 C 33.39277 24.492652 30.587442 24.036018 27.08365 25.699132 C 22.805711 27.728766 22.57222 29.405018 22.53642 30.040396 C 22.437974 31.788758 24.805975 32.708353 26.08578 34.008791 L 26.133721 34.062058 C 26.375362 33.938445 26.63157 33.80108 26.877684 33.673209 C 27.52206 33.336295 28.13071 33.019984 28.417101 32.870652 C 28.869058 32.243918 29.780749 31.558507 30.443025 31.558507 C 31.499084 31.558507 31.137272 33.00382 31.137272 33.00382 C 31.137272 33.00382 31.152844 32.958647 31.172783 32.941675 L 31.174559 32.939899 C 31.175354 32.939431 31.179078 32.936712 31.179886 32.936348 L 31.181661 32.936348 C 31.182491 32.936218 31.186149 32.934573 31.186988 32.934573 L 31.188763 32.934573 L 31.190539 32.934573 C 31.226641 32.913937 31.349503 32.750204 31.655738 32.858223 C 31.991356 32.973378 31.916746 33.198479 31.916746 33.220439 C 31.921222 33.267236 31.517687 34.551339 31.352116 35.374203 C 31.280762 35.742041 31.314842 36.0161 31.337911 36.048919 L 31.339687 36.050695 L 31.341462 36.05247 L 31.343238 36.05247 L 31.345013 36.05247 L 31.346789 36.05247 C 31.380201 36.040838 31.446071 35.942909 31.504814 35.842953 L 31.504814 35.834075 C 31.504814 35.834075 31.551098 35.746962 31.604246 35.651192 C 31.594731 35.667167 31.596329 35.663636 31.643309 35.578394 C 31.737283 35.407901 31.866734 35.155409 32.014403 34.839757 C 32.305267 34.221465 33.424349 31.851316 33.518309 31.586916 C 33.616769 31.322534 33.66532 31.048575 33.71007 30.933507 C 33.754818 30.818559 34.152928 30.724744 34.613834 30.734644 C 35.074736 30.738912 35.119022 30.924942 35.123422 30.963692 C 35.123422 31.006415 34.901001 31.527367 34.85176 31.89409 C 34.80254 32.260812 34.850543 32.448134 34.890823 32.75524 C 34.917674 32.959811 35.052029 33.216269 35.20865 33.506305 C 35.687457 32.760042 36.529033 31.339633 36.609573 30.938834 C 36.667745 30.665902 36.75838 30.400679 36.80311 30.285425 C 36.847858 30.170477 37.245966 30.076661 37.706874 30.086561 C 38.167764 30.090829 38.211962 30.276859 38.216462 30.315609 C 38.216462 30.358231 37.992265 30.879383 37.943025 31.246007 C 37.893785 31.612827 37.943593 31.800145 37.983863 32.107158 C 38.019663 32.371544 38.234277 32.724911 38.449062 33.129885 C 39.030794 32.857048 39.723704 32.679913 40.524701 32.670013 L 40.524701 32.684217 C 42.596548 32.671501 43.765556 33.951156 43.711846 35.123848 C 43.67605 36.036335 42.79433 36.41521 42.628749 36.44132 C 42.507905 36.45822 42.444204 36.461513 42.426334 36.372073 C 42.4129 36.312356 42.458078 36.282088 42.596789 36.201618 C 42.735511 36.116371 43.152821 35.844036 43.228891 35.349345 C 43.304964 34.854755 42.910178 33.669468 40.918877 33.447712 C 39.99259 33.34111 39.263245 33.469301 38.699417 33.690965 C 38.802323 33.946806 38.877778 34.215352 38.891178 34.488195 C 38.91355 35.080952 38.484615 35.520299 38.03713 35.835851 C 37.777595 36.019164 37.495668 36.141517 37.262982 36.214047 C 37.075037 36.290742 36.824929 36.369596 36.650411 36.334786 C 36.261113 36.258085 36.054368 35.928551 36.31838 35.203749 C 36.461574 34.811394 36.877697 34.21402 37.539971 33.698067 C 37.387814 33.399604 37.218376 33.098139 37.133366 32.820936 C 36.967811 32.275175 36.914971 31.94203 36.914971 31.94203 C 36.914971 31.94203 36.368442 33.025556 35.66142 34.010567 C 35.62114 34.070189 35.580951 34.126381 35.540681 34.181021 C 35.679403 34.487929 35.791801 34.81146 35.805241 35.139828 C 35.832088 35.736759 35.558478 36.184351 35.110993 36.499913 C 34.864877 36.6705 34.610304 36.785609 34.386562 36.862129 C 34.243366 36.921744 33.956627 37.020678 33.544942 37.046788 C 33.316726 37.063662 33.101132 37.047011 32.980312 36.961561 C 32.814752 36.842132 32.797635 36.691424 32.882655 36.491036 C 32.954252 36.320443 33.500442 35.729302 33.956874 35.209075 C 34.08217 35.064116 34.202833 34.917456 34.310212 34.781163 L 34.304885 34.772286 C 34.304885 34.772286 34.385484 34.66902 34.519729 34.48997 C 34.354158 34.144512 34.140551 33.791341 34.042101 33.467243 C 33.876546 32.921483 33.821931 32.588337 33.821931 32.588337 C 33.821931 32.588337 33.266371 33.944893 32.689118 35.027967 C 32.241636 35.868017 31.942681 36.375811 31.808437 36.59757 L 31.808437 36.606448 C 31.808437 36.606448 31.79096 36.637444 31.75517 36.688124 C 31.73733 36.717804 31.728536 36.730737 31.728536 36.730737 L 31.728536 36.721859 C 31.576393 36.935077 31.240284 37.348635 30.904672 37.348635 C 29.987332 37.348635 30.322286 35.569516 30.322286 35.569516 C 30.322286 35.569516 30.054842 36.227541 29.750553 36.794658 C 29.50444 37.259446 29.280426 37.64693 28.788195 37.64693 C 28.649474 37.64693 28.425711 37.64271 28.237769 37.476476 C 27.812661 37.092667 27.48975 36.119406 27.5524 35.368876 C 27.606102 34.729324 27.709275 34.291009 27.852471 33.920013 C 27.597406 34.052256 27.306192 34.206474 27.010851 34.372783 L 26.55453 34.628465 L 26.568735 34.653323 C 26.949094 35.348413 27.047643 36.870289 26.224275 38.042882 C 25.396433 39.215466 23.865886 39.929212 22.371292 39.532584 C 21.888003 39.404714 21.162431 38.453843 21.788905 37.132016 C 22.343785 35.9636 24.55945 34.858694 25.141178 34.585851 C 25.190402 34.560031 25.244595 34.530314 25.302755 34.500624 C 24.139299 33.532702 21.233757 32.222779 20.826547 30.214402 C 20.710203 29.651455 20.988326 28.295201 22.733508 26.743166 C 24.201253 25.433958 26.242006 24.437051 28.125908 23.797499 C 29.312297 23.396114 30.52353 23.234137 31.602471 23.289686 z M 30.395084 32.400126 C 30.222431 32.412422 29.958907 32.555359 29.709715 32.819161 C 29.485973 33.057913 29.105682 33.672172 28.926689 34.188124 C 28.573176 35.211586 28.725815 36.247133 28.976405 36.311703 C 29.26727 36.388503 29.749609 35.019459 29.977826 34.486419 C 30.121022 34.153775 30.680109 32.670478 30.563763 32.465823 C 30.532999 32.416517 30.473563 32.394538 30.395084 32.400126 z M 37.866675 34.090467 C 37.49526 34.401848 37.280573 34.728864 37.186633 34.924984 C 36.946221 35.417093 36.936865 35.578381 37.0073 35.629885 L 37.009076 35.629885 C 37.358113 35.510558 37.929647 35.22374 37.934147 34.456234 C 37.938607 34.340979 37.911415 34.218431 37.866675 34.090467 z M 25.847854 34.930311 C 25.812042 34.951181 25.776211 34.971895 25.744871 34.988905 C 25.744871 34.988905 25.727312 34.998528 25.700482 35.015538 C 25.530439 35.113598 25.387837 35.194283 25.293877 35.249913 C 24.873243 35.501481 24.232485 35.910894 23.740255 36.354317 C 22.930309 37.083587 22.76472 38.094277 23.189829 38.328749 C 23.583614 38.550512 24.510011 38.290766 25.167812 37.604317 L 25.167812 37.602541 C 25.861426 36.881816 26.147669 35.970664 25.847854 34.930311 z M 34.842883 35.052825 C 34.699688 35.231975 34.564127 35.390373 34.452258 35.526902 C 34.255365 35.761482 33.759786 36.26909 33.759786 36.26909 C 33.759786 36.26909 33.712766 36.311231 33.711846 36.336561 L 33.711846 36.338337 L 33.711846 36.340112 L 33.711846 36.341888 L 33.713621 36.343663 L 33.713621 36.345439 L 33.715397 36.347215 L 33.717172 36.34899 L 33.718948 36.350766 C 33.759225 36.376606 33.849546 36.340648 33.947996 36.293948 C 34.225436 36.127625 34.842883 35.718336 34.842883 35.104317 L 34.842883 35.052825 z "
     transform="matrix(1.1,0,0,1.1,-3.1845928,-3.2065454)"
     class="ColorScheme-Text" />
</svg>
