<?xml version="1.0" encoding="UTF-8" standalone="no"?>
<svg
   width="64"
   height="64"
   version="1.1"
   id="svg73"
   sodipodi:docname="text-x-copying.svg"
   inkscape:version="1.4.2 (ebf0e940d0, 2025-05-08)"
   xmlns:inkscape="http://www.inkscape.org/namespaces/inkscape"
   xmlns:sodipodi="http://sodipodi.sourceforge.net/DTD/sodipodi-0.dtd"
   xmlns="http://www.w3.org/2000/svg"
   xmlns:svg="http://www.w3.org/2000/svg"
   xmlns:rdf="http://www.w3.org/1999/02/22-rdf-syntax-ns#"
   xmlns:cc="http://creativecommons.org/ns#"
   xmlns:dc="http://purl.org/dc/elements/1.1/">
  <metadata
     id="metadata77">
    <rdf:RDF>
      <cc:Work
         rdf:about="">
        <dc:format>image/svg+xml</dc:format>
        <dc:type
           rdf:resource="http://purl.org/dc/dcmitype/StillImage" />
      </cc:Work>
    </rdf:RDF>
  </metadata>
  <sodipodi:namedview
     pagecolor="#9c4444"
     bordercolor="#666666"
     borderopacity="1"
     objecttolerance="10"
     gridtolerance="10"
     guidetolerance="10"
     inkscape:pageopacity="0"
     inkscape:pageshadow="2"
     inkscape:window-width="2560"
     inkscape:window-height="1388"
     id="namedview75"
     showgrid="false"
     inkscape:zoom="4.4470387"
     inkscape:cx="19.338712"
     inkscape:cy="25.859905"
     inkscape:window-x="0"
     inkscape:window-y="0"
     inkscape:window-maximized="1"
     inkscape:current-layer="svg73"
     inkscape:document-rotation="0"
     inkscape:pagecheckerboard="0"
     inkscape:showpageshadow="2"
     inkscape:deskcolor="#d1d1d1" />
  <defs
     id="defs29">
    <style
       id="current-color-scheme"
       type="text/css">.ColorScheme-Text {color:#d8dee9} .ColorScheme-Highlight {color:#3b4252}</style>
  </defs>
  <path
     id="path1"
     style="opacity:1;baseline-shift:baseline;display:inline;overflow:visible;vector-effect:none;fill:currentColor;enable-background:accumulate;stop-color:#000000;stop-opacity:1"
     d="M 19.661775 8.8383367 C 16.33974 8.8383367 13.637272 11.524326 13.637272 14.836206 L 13.637272 49.408294 C 13.637272 52.720174 16.33974 55.407939 19.661775 55.407939 L 44.400766 55.407939 C 47.722801 55.407939 50.427045 52.720174 50.427045 49.408294 L 50.427045 14.836206 C 50.427045 11.524326 47.722801 8.8383367 44.400766 8.8383367 L 19.661775 8.8383367 z M 32.167101 20.787911 A 10.309091 10.309091 0 0 1 42.47605 31.096859 A 10.309091 10.309091 0 0 1 32.167101 41.405808 A 10.309091 10.309091 0 0 1 21.858153 31.096859 A 10.309091 10.309091 0 0 1 32.167101 20.787911 z M 32.167101 22.996717 A 8.1 8.1 0 0 0 24.066959 31.096859 A 8.1 8.1 0 0 0 32.167101 39.197001 A 8.1 8.1 0 0 0 40.267243 31.096859 A 8.1 8.1 0 0 0 32.167101 22.996717 z M 32.167101 25.205524 A 5.8909091 5.8909091 0 0 1 36.22605 26.830169 L 34.407868 28.179601 A 3.6818182 3.6818182 0 0 0 32.167101 27.414331 A 3.6818182 3.6818182 0 0 0 28.486349 31.096859 A 3.6818182 3.6818182 0 0 0 32.167101 34.779388 A 3.6818182 3.6818182 0 0 0 34.377684 34.0372 L 36.195866 35.384857 A 5.8909091 5.8909091 0 0 1 32.167101 36.988195 A 5.8909091 5.8909091 0 0 1 26.277542 31.096859 A 5.8909091 5.8909091 0 0 1 32.167101 25.205524 z "
     transform="matrix(1.1,0,0,1.1,-3.1845928,-3.2065454)"
     class="ColorScheme-Text" />
</svg>
