<?xml version="1.0" encoding="UTF-8" standalone="no"?>
<svg
   width="64"
   height="64"
   version="1.1"
   id="svg73"
   sodipodi:docname="viewbib.svg"
   inkscape:version="1.4.2 (ebf0e940d0, 2025-05-08)"
   xmlns:inkscape="http://www.inkscape.org/namespaces/inkscape"
   xmlns:sodipodi="http://sodipodi.sourceforge.net/DTD/sodipodi-0.dtd"
   xmlns="http://www.w3.org/2000/svg"
   xmlns:svg="http://www.w3.org/2000/svg"
   xmlns:rdf="http://www.w3.org/1999/02/22-rdf-syntax-ns#"
   xmlns:cc="http://creativecommons.org/ns#"
   xmlns:dc="http://purl.org/dc/elements/1.1/">
  <metadata
     id="metadata77">
    <rdf:RDF>
      <cc:Work
         rdf:about="">
        <dc:format>image/svg+xml</dc:format>
        <dc:type
           rdf:resource="http://purl.org/dc/dcmitype/StillImage" />
      </cc:Work>
    </rdf:RDF>
  </metadata>
  <sodipodi:namedview
     pagecolor="#9c4444"
     bordercolor="#666666"
     borderopacity="1"
     objecttolerance="10"
     gridtolerance="10"
     guidetolerance="10"
     inkscape:pageopacity="0"
     inkscape:pageshadow="2"
     inkscape:window-width="2560"
     inkscape:window-height="1388"
     id="namedview75"
     showgrid="false"
     inkscape:zoom="4.4470387"
     inkscape:cx="19.338712"
     inkscape:cy="8.5450122"
     inkscape:window-x="0"
     inkscape:window-y="0"
     inkscape:window-maximized="1"
     inkscape:current-layer="svg73"
     inkscape:document-rotation="0"
     inkscape:pagecheckerboard="0"
     inkscape:showpageshadow="2"
     inkscape:deskcolor="#d1d1d1" />
  <defs
     id="defs29">
    <style
       id="current-color-scheme"
       type="text/css">.ColorScheme-Text {color:#d8dee9} .ColorScheme-Highlight {color:#3b4252}</style>
  </defs>
  <path
     id="path1"
     style="opacity:1;baseline-shift:baseline;display:inline;overflow:visible;vector-effect:none;fill:currentColor;enable-background:accumulate;stop-color:#000000;stop-opacity:1"
     d="M 19.661775 8.8383367 C 16.33974 8.8383367 13.637272 11.524326 13.637272 14.836206 L 13.637272 49.408294 C 13.637272 52.720174 16.33974 55.407939 19.661775 55.407939 L 44.400766 55.407939 C 47.722801 55.407939 50.427045 52.720174 50.427045 49.408294 L 50.427045 14.836206 C 50.427045 11.524326 47.722801 8.8383367 44.400766 8.8383367 L 19.661775 8.8383367 z M 21.084005 19.511277 L 25.922428 19.511277 L 25.922428 20.288976 L 23.947996 20.288976 L 23.947996 26.434217 L 23.063763 26.434217 L 23.063763 20.288976 L 21.084005 20.288976 L 21.084005 19.511277 z M 28.124133 21.141249 C 28.436634 21.141249 28.718158 21.198065 28.967528 21.311703 C 29.216897 21.422184 29.427793 21.578828 29.601405 21.784004 C 29.775017 21.986025 29.907592 22.23184 29.999133 22.51909 C 30.093829 22.803182 30.141178 23.118243 30.141178 23.465467 L 30.141178 23.999913 L 26.865255 23.999913 C 26.881035 24.609134 27.008874 25.058545 27.248778 25.345794 C 27.491833 25.633043 27.851679 25.775482 28.328323 25.775482 C 28.489309 25.775482 28.638258 25.768179 28.773991 25.752399 C 28.912881 25.736619 29.045455 25.715117 29.171718 25.686703 C 29.301139 25.655137 29.424638 25.617257 29.544587 25.573067 C 29.664538 25.52572 29.787248 25.473638 29.910354 25.416817 L 29.910354 26.183862 C 29.78409 26.243836 29.658815 26.295918 29.535709 26.340112 C 29.415759 26.384306 29.290484 26.420015 29.161064 26.448422 C 29.034801 26.476829 28.902226 26.49794 28.763337 26.510567 C 28.627604 26.523187 28.48043 26.528323 28.319445 26.528323 C 27.972221 26.528323 27.654989 26.471111 27.367741 26.354317 C 27.080492 26.237525 26.832112 26.067071 26.623778 25.842953 C 26.418599 25.618836 26.259786 25.339877 26.14615 25.008436 C 26.032512 24.676995 25.975695 24.298211 25.975695 23.872073 C 25.975695 23.442778 26.027777 23.059259 26.131945 22.721504 C 26.236113 22.38375 26.382892 22.099267 26.572286 21.86568 C 26.761681 21.628937 26.986781 21.449015 27.248778 21.325908 C 27.51393 21.202801 27.805318 21.141249 28.124133 21.141249 z M 30.890468 21.235354 L 31.870582 21.235354 L 33.05311 23.17605 L 34.237414 21.235354 L 35.217528 21.235354 L 33.536064 23.76909 L 35.302755 26.434217 L 34.322641 26.434217 L 33.05311 24.369232 L 31.774701 26.434217 L 30.794587 26.434217 L 32.561278 23.76909 L 30.890468 21.235354 z M 28.106377 21.855027 C 27.746527 21.855027 27.460268 21.978132 27.248778 22.224345 C 27.040443 22.470559 26.919509 22.830009 26.884786 23.30034 L 29.214332 23.30034 C 29.214332 23.085693 29.191053 22.889395 29.14686 22.712626 C 29.105827 22.532701 29.03954 22.379018 28.947996 22.252754 C 28.859614 22.12649 28.745977 22.029229 28.607087 21.959786 C 28.468197 21.890342 28.302085 21.855028 28.106377 21.855027 z M 21.064474 31.718308 L 43.188053 31.718308 L 43.188053 32.856448 L 21.064474 32.856448 L 21.064474 31.718308 z M 21.064474 37.405453 L 43.188053 37.405453 L 43.188053 38.543592 L 21.064474 38.543592 L 21.064474 37.405453 z M 21.064474 43.094374 L 36.060922 43.094374 L 36.060922 44.230737 L 21.064474 44.230737 L 21.064474 43.094374 z "
     transform="matrix(1.1,0,0,1.1,-3.1845928,-3.2065454)"
     class="ColorScheme-Text" />
</svg>
