<?xml version="1.0" encoding="UTF-8" standalone="no"?>
<svg
   width="64"
   height="64"
   version="1.1"
   id="svg73"
   sodipodi:docname="x-office-address-book.svg"
   inkscape:version="1.4.2 (ebf0e940d0, 2025-05-08)"
   xmlns:inkscape="http://www.inkscape.org/namespaces/inkscape"
   xmlns:sodipodi="http://sodipodi.sourceforge.net/DTD/sodipodi-0.dtd"
   xmlns="http://www.w3.org/2000/svg"
   xmlns:svg="http://www.w3.org/2000/svg"
   xmlns:rdf="http://www.w3.org/1999/02/22-rdf-syntax-ns#"
   xmlns:cc="http://creativecommons.org/ns#"
   xmlns:dc="http://purl.org/dc/elements/1.1/">
  <metadata
     id="metadata77">
    <rdf:RDF>
      <cc:Work
         rdf:about="">
        <dc:format>image/svg+xml</dc:format>
        <dc:type
           rdf:resource="http://purl.org/dc/dcmitype/StillImage" />
      </cc:Work>
    </rdf:RDF>
  </metadata>
  <sodipodi:namedview
     pagecolor="#9c4444"
     bordercolor="#666666"
     borderopacity="1"
     objecttolerance="10"
     gridtolerance="10"
     guidetolerance="10"
     inkscape:pageopacity="0"
     inkscape:pageshadow="2"
     inkscape:window-width="2560"
     inkscape:window-height="1388"
     id="namedview75"
     showgrid="false"
     inkscape:zoom="4.4470387"
     inkscape:cx="19.338712"
     inkscape:cy="8.5450122"
     inkscape:window-x="0"
     inkscape:window-y="0"
     inkscape:window-maximized="1"
     inkscape:current-layer="svg73"
     inkscape:document-rotation="0"
     inkscape:pagecheckerboard="0"
     inkscape:showpageshadow="2"
     inkscape:deskcolor="#d1d1d1" />
  <defs
     id="defs29">
    <style
       id="current-color-scheme"
       type="text/css">.ColorScheme-Text {color:#d8dee9} .ColorScheme-Highlight {color:#3b4252}</style>
  </defs>
  <path
     id="path1"
     style="opacity:1;baseline-shift:baseline;display:inline;overflow:visible;vector-effect:none;fill:currentColor;enable-background:accumulate;stop-color:#000000;stop-opacity:1"
     d="M 19.661775 8.8383367 C 16.33974 8.8383367 13.637272 11.524326 13.637272 14.836206 L 13.637272 49.408294 C 13.637272 52.720174 16.33974 55.407939 19.661775 55.407939 L 44.400766 55.407939 C 47.722801 55.407939 50.427045 52.720174 50.427045 49.408294 L 50.427045 14.836206 C 50.427045 11.524326 47.722801 8.8383367 44.400766 8.8383367 L 19.661775 8.8383367 z M 33.370937 20.564189 C 35.272387 20.564189 36.912259 20.9088 38.28926 21.599345 C 39.668715 22.284163 40.719392 23.254272 41.44267 24.507726 C 42.176579 25.765272 42.543519 27.221538 42.543522 28.879175 C 42.543522 30.293811 42.315529 31.575371 41.858153 32.72328 C 41.408153 33.863825 40.777989 34.744464 39.967172 35.367101 C 39.163718 35.991373 38.261028 36.304601 37.261207 36.304601 C 36.482296 36.304601 35.880763 36.136612 35.453678 35.80034 C 35.029043 35.466522 34.816249 34.964887 34.816249 34.296433 L 34.849985 33.495652 L 34.778962 33.495652 C 34.259416 34.431652 33.61432 35.136487 32.843593 35.608578 C 32.081047 36.072487 31.253306 36.304601 30.363124 36.304601 C 29.126034 36.304601 28.165098 35.916423 27.477826 35.141604 C 26.802008 34.364332 26.463976 33.288985 26.463976 31.913621 C 26.463976 30.666712 26.715411 29.505325 27.218593 28.433507 C 27.731593 27.361689 28.445061 26.509962 29.358153 25.876689 C 30.272061 25.245871 31.283284 24.930311 32.394374 24.930311 C 34.118284 24.930311 35.302842 25.623501 35.950837 27.009501 L 36.02186 27.009501 L 36.483508 25.184217 L 38.324772 25.184217 L 36.952258 30.954814 C 36.663428 32.202541 36.519019 33.163476 36.519019 33.840112 C 36.519019 34.555203 36.838688 34.912555 37.47605 34.912555 C 38.104415 34.912555 38.683055 34.650293 39.21078 34.124203 C 39.74669 33.600567 40.168167 32.879423 40.474985 31.959786 C 40.78261 31.037695 40.934857 30.017979 40.934857 28.898706 C 40.934857 27.53807 40.632055 26.332698 40.025766 25.285425 C 39.419484 24.228334 38.547214 23.418539 37.405028 22.856448 C 36.262847 22.285357 34.92675 21.998848 33.39757 21.998848 C 31.492025 21.998848 29.806934 22.40553 28.340752 23.220439 C 26.877024 24.03453 25.727143 25.209214 24.892599 26.744942 C 24.057235 28.272487 23.639047 29.988127 23.639047 31.888763 C 23.639047 33.356583 23.946112 34.653215 24.560567 35.779033 C 25.181567 36.895851 26.074947 37.754976 27.241675 38.357158 C 28.416583 38.956885 29.784602 39.257371 31.343238 39.257371 C 32.48542 39.257371 33.643794 39.112943 34.816249 38.824132 C 35.991968 38.541858 37.207492 38.070234 38.465042 37.41078 L 39.1149 38.689189 C 37.975171 39.348645 36.733483 39.850419 35.393309 40.194871 C 34.062131 40.545054 32.712057 40.720439 31.343238 40.720439 C 29.444238 40.720439 27.781759 40.354594 26.355667 39.623138 C 24.938577 38.901502 23.852542 37.87028 23.095724 36.530098 C 22.347088 35.185825 21.973564 33.639951 21.973564 31.892314 C 21.973564 29.762587 22.461499 27.826339 23.438408 26.08443 C 24.421862 24.341702 25.785634 22.988343 27.527542 22.023706 C 29.267816 21.050888 31.215027 20.564189 33.370937 20.564189 z M 32.523991 26.38095 C 31.7279 26.38095 31.019496 26.624708 30.39686 27.110709 C 29.783224 27.589345 29.296942 28.25801 28.94267 29.117101 C 28.588396 29.968828 28.411775 30.893036 28.411775 31.888763 C 28.411775 32.801854 28.596891 33.517516 28.967528 34.035425 C 29.34471 34.55088 29.924306 34.807797 30.704033 34.807797 C 31.689125 34.807797 32.589224 34.408791 33.408224 33.611064 C 34.22886 32.813337 34.795858 31.818286 35.109218 30.624558 C 35.289575 29.925106 35.380433 29.374753 35.38088 28.97328 L 35.38088 28.971504 C 35.380077 28.195909 35.12193 27.569639 34.603181 27.09828 C 34.083637 26.620462 33.389628 26.38095 32.523991 26.38095 z "
     transform="matrix(1.1,0,0,1.1,-3.1845928,-3.2065454)"
     class="ColorScheme-Text" />
</svg>
