<?xml version='1.0' encoding='UTF-8'?>
<svg xmlns:inkscape="http://www.inkscape.org/namespaces/inkscape" xmlns:sodipodi="http://sodipodi.sourceforge.net/DTD/sodipodi-0.dtd" xmlns="http://www.w3.org/2000/svg" xmlns:svg="http://www.w3.org/2000/svg" xmlns:rdf="http://www.w3.org/1999/02/22-rdf-syntax-ns#" xmlns:cc="http://creativecommons.org/ns#" xmlns:dc="http://purl.org/dc/elements/1.1/" width="64" height="64" version="1.1" viewBox="0 0 16.933 16.933" id="svg7" sodipodi:docname="1password.svg" inkscape:version="1.4.2 (ebf0e940d0, 2025-05-08)">
  <sodipodi:namedview id="namedview7" pagecolor="#9c4444" bordercolor="#000000" borderopacity="0.25" inkscape:showpageshadow="2" inkscape:pageopacity="0.0" inkscape:pagecheckerboard="0" inkscape:deskcolor="#d1d1d1" inkscape:zoom="6.15625" inkscape:cx="15.918782" inkscape:cy="29.64467" inkscape:window-width="1183" inkscape:window-height="941" inkscape:window-x="0" inkscape:window-y="0" inkscape:window-maximized="0" inkscape:current-layer="svg7" showgrid="false"/>
  <defs id="defs2">
    <style id="current-color-scheme" type="text/css">.ColorScheme-Text {color:#d8dee9} .ColorScheme-Highlight {color:#3b4252}</style>
  </defs>
  <metadata id="metadata2">
    <rdf:RDF>
      <cc:Work rdf:about="">
        <dc:format>image/svg+xml</dc:format>
        <dc:type rdf:resource="http://purl.org/dc/dcmitype/StillImage"/>
      </cc:Work>
    </rdf:RDF>
  </metadata>
  <path id="path2" style="fill:currentColor;fill-opacity:1" class="ColorScheme-Text" d="M 24 5.7894245 C 13.969 5.7894245 5.7894229 13.969001 5.7894229 24.000001 C 5.7894229 34.031001 13.969 42.210578 24 42.210578 C 34.031 42.210578 42.210577 34.031001 42.210577 24.000001 C 42.210577 13.969001 34.031 5.7894245 24 5.7894245 z M 24 10.342069 C 31.57 10.342069 37.657932 16.430001 37.657932 24.000001 C 37.657932 31.570001 31.57 37.657934 24 37.657934 C 16.43 37.657934 10.342067 31.570001 10.342067 24.000001 C 10.342067 16.430001 16.43 10.342069 24 10.342069 z M 21.724293 13.755629 C 21.093293 13.755629 20.585209 14.263483 20.585209 14.893483 L 20.585209 19.506403 C 20.585209 19.506403 21.819011 20.592278 21.819011 21.323278 C 21.819011 22.055278 20.585209 23.140153 20.585209 23.140153 L 20.585209 33.10652 C 20.585209 33.73652 21.093293 34.244374 21.724293 34.244374 L 26.275707 34.244374 C 26.906707 34.244374 27.41479 33.73652 27.41479 33.10652 L 27.41479 28.510822 L 27.402489 28.49483 C 27.402489 28.49483 26.116792 27.363458 26.115792 26.600458 C 26.115792 25.836458 27.402489 24.704856 27.402489 24.704856 L 27.41479 24.688864 L 27.41479 14.893483 C 27.41479 14.263483 26.906707 13.755629 26.275707 13.755629 L 21.724293 13.755629 z " transform="matrix(0.42008709,0,0,0.42008709,-1.6155903,-1.615591)"/>
</svg>
