<?xml version='1.0' encoding='UTF-8'?>
<svg xmlns:inkscape="http://www.inkscape.org/namespaces/inkscape" xmlns:sodipodi="http://sodipodi.sourceforge.net/DTD/sodipodi-0.dtd" xmlns="http://www.w3.org/2000/svg" xmlns:svg="http://www.w3.org/2000/svg" xmlns:rdf="http://www.w3.org/1999/02/22-rdf-syntax-ns#" xmlns:cc="http://creativecommons.org/ns#" xmlns:dc="http://purl.org/dc/elements/1.1/" width="64" height="64" version="1.1" viewBox="0 0 16.933 16.933" id="svg7" sodipodi:docname="4kyoutubetomp3.svg" inkscape:version="1.4 (e7c3feb100, 2024-10-09)">
  <sodipodi:namedview id="namedview7" pagecolor="#9c4444" bordercolor="#000000" borderopacity="0.25" inkscape:showpageshadow="2" inkscape:pageopacity="0.0" inkscape:pagecheckerboard="0" inkscape:deskcolor="#d1d1d1" inkscape:zoom="6.15625" inkscape:cx="15.837563" inkscape:cy="29.807107" inkscape:window-width="1183" inkscape:window-height="940" inkscape:window-x="428" inkscape:window-y="32" inkscape:window-maximized="0" inkscape:current-layer="svg7" showgrid="false"/>
  <defs id="defs2">
    <style id="current-color-scheme" type="text/css">.ColorScheme-Text {color:#d8dee9} .ColorScheme-Highlight {color:#3b4252}</style></defs>
  <metadata id="metadata2">
    <rdf:RDF>
      <cc:Work rdf:about="">
        <dc:format>image/svg+xml</dc:format>
        <dc:type rdf:resource="http://purl.org/dc/dcmitype/StillImage"/>
      </cc:Work>
    </rdf:RDF>
  </metadata>
  <path style="fill:currentColor;stroke-width:0.0222919" d="M 3.5065261,13.517442 C 1.9722457,13.313962 0.79669423,12.211248 0.51650655,10.712681 0.45464939,10.381841 0.46019929,9.7712621 0.527955,9.4531871 0.67265691,8.7738943 0.95600106,8.2340028 1.4203489,7.7527971 1.7864196,7.3734362 2.1601306,7.1173979 2.6083461,6.9388705 2.8478932,6.8434574 3.1996879,6.7486604 3.4132378,6.721979 L 3.5350525,6.70676 3.5618482,6.5696959 C 3.6683972,6.024722 3.9378808,5.5316602 4.3411326,5.1438799 4.6733526,4.8244063 5.0710442,4.601313 5.5144737,4.4856703 L 5.754996,4.4229437 5.8471099,4.2717094 C 6.1883288,3.7114849 6.6837591,3.223404 7.2515663,2.8880887 7.6414948,2.6578186 8.1240212,2.4800204 8.5890806,2.3952506 c 0.3139285,-0.057224 1.0458782,-0.057224 1.3598065,0 1.2702359,0.2315357 2.3224149,1.0194575 2.8979559,2.1701251 0.267383,0.5345752 0.389239,1.0419864 0.40666,1.6933526 l 0.01159,0.4279755 0.05842,0.010887 c 0.03215,0.006 0.118636,0.017518 0.192197,0.025593 0.211555,0.023241 0.606995,0.1307181 0.84158,0.2287363 0.444289,0.1856395 0.79902,0.4315153 1.155428,0.8008635 0.464351,0.4812059 0.747692,1.0210976 0.892396,1.7003902 0.06777,0.3180757 0.07332,0.9286532 0.01159,1.2594942 -0.200971,1.074872 -0.887847,1.987144 -1.853133,2.461226 -0.290531,0.14269 -0.519034,0.223788 -0.840811,0.298418 l -0.206908,0.04797 -4.9710956,0.003 c -2.7340206,0.0017 -5.0011076,-9.83e-4 -5.0378889,-0.0059 z m 3.0985753,-1.902234 c 0.338131,-0.12878 0.6310989,-0.420527 0.7342341,-0.731173 0.068134,-0.205222 0.078051,-0.452365 0.078885,-1.9658536 L 7.4190481,7.3911858 8.8400045,6.8911226 C 9.6215308,6.6160881 10.2735,6.3868014 10.288826,6.3815971 c 0.02203,-0.00747 0.02787,0.2153509 0.02787,1.0655337 v 1.074996 l -0.05016,-0.016226 c -0.02759,-0.00893 -0.156767,-0.021204 -0.2870718,-0.027271 -0.1816989,-0.00847 -0.2674248,-0.00228 -0.3678168,0.026549 -0.4202112,0.1206424 -0.7715275,0.4883337 -0.8561761,0.8960845 -0.03778,0.1819763 -0.017404,0.5235682 0.040795,0.6838647 0.1201503,0.33095 0.3792953,0.593137 0.7121168,0.720473 0.1986852,0.07601 0.5127309,0.09546 0.7130219,0.04416 0.431303,-0.110495 0.775986,-0.451423 0.886894,-0.8772336 0.04785,-0.1836806 0.05043,-5.5200638 0.0027,-5.5087785 -0.01676,0.00397 -1.039865,0.3633206 -2.2735345,0.7985702 L 6.5944319,6.05367 6.5941958,7.686552 c -1.296e-4,0.8980852 -0.00777,1.6326427 -0.016967,1.6323503 -0.0092,-2.941e-4 -0.056844,-0.010488 -0.105887,-0.022644 C 6.3133492,9.257082 5.9958537,9.267893 5.8343996,9.3179428 5.3505073,9.4679497 5.0213051,9.8966769 4.9945081,10.411753 c -0.019232,0.369646 0.091764,0.660738 0.3485035,0.913984 0.1617109,0.15951 0.3210814,0.255293 0.5264339,0.316392 0.1903356,0.05662 0.5508953,0.04344 0.7356329,-0.02692 z" id="path7" class="ColorScheme-Text"/>
  </svg>
