<?xml version="1.0" encoding="UTF-8" standalone="no"?>
<svg
   width="64"
   height="64"
   version="1.1"
   viewBox="0 0 16.933 16.933"
   id="svg7"
   sodipodi:docname="nvtop.svg"
   inkscape:version="1.4.3 (0d15f75042, 2025-12-25)"
   xmlns:inkscape="http://www.inkscape.org/namespaces/inkscape"
   xmlns:sodipodi="http://sodipodi.sourceforge.net/DTD/sodipodi-0.dtd"
   xmlns="http://www.w3.org/2000/svg"
   xmlns:svg="http://www.w3.org/2000/svg"
   xmlns:rdf="http://www.w3.org/1999/02/22-rdf-syntax-ns#"
   xmlns:cc="http://creativecommons.org/ns#"
   xmlns:dc="http://purl.org/dc/elements/1.1/">
  <sodipodi:namedview
     id="namedview7"
     pagecolor="#9c4444"
     bordercolor="#000000"
     borderopacity="0.25"
     inkscape:showpageshadow="2"
     inkscape:pageopacity="0.0"
     inkscape:pagecheckerboard="0"
     inkscape:deskcolor="#d1d1d1"
     inkscape:zoom="4.3531262"
     inkscape:cx="90.165086"
     inkscape:cy="34.457995"
     inkscape:window-width="2560"
     inkscape:window-height="1388"
     inkscape:window-x="0"
     inkscape:window-y="0"
     inkscape:window-maximized="1"
     inkscape:current-layer="svg7"
     showgrid="false" />
  <defs
     id="defs2">
    <style
       id="current-color-scheme"
       type="text/css">.ColorScheme-Text {color:#d8dee9} .ColorScheme-Highlight {color:#3b4252}</style>
  </defs>
  <metadata
     id="metadata2">
    <rdf:RDF>
      <cc:Work
         rdf:about="">
        <dc:format>image/svg+xml</dc:format>
        <dc:type
           rdf:resource="http://purl.org/dc/dcmitype/StillImage" />
      </cc:Work>
    </rdf:RDF>
  </metadata>
  <path
     style="fill:currentColor;stroke-width:0.0276763"
     d="m 0.58684605,15.431438 c 0,-0.05014 0.151344,-0.435362 0.42395295,-1.07912 0.166709,-0.393679 0.248303,-0.589181 0.569846,-1.365363 0.08408,-0.202959 0.179918,-0.427136 0.212977,-0.498172 0.03306,-0.07104 0.114037,-0.262002 0.179952,-0.42437 0.06591,-0.162367 0.186056,-0.452968 0.266981,-0.645779 0.325821,-0.776303 0.537895,-1.288719 0.656717,-1.5867728 0.06877,-0.172515 0.141406,-0.346875 0.161402,-0.387467 0.02,-0.04059 0.110234,-0.256467 0.200528,-0.479722 0.09029,-0.223255 0.21669,-0.530462 0.280881,-0.682681 0.06419,-0.15222 0.204502,-0.492638 0.311802,-0.756485 0.1073,-0.263847 0.33947,-0.828443 0.515935,-1.254657 0.338399,-0.817333 0.757132,-1.843503 1.016409,-2.490864 0.08535,-0.213107 0.209676,-0.520314 0.276275,-0.682681 0.0666,-0.162367 0.208959,-0.519391 0.316357,-0.793386 0.107396,-0.273995 0.23289,-0.549805 0.278874,-0.61291 0.173233,-0.237733 0.156505,-0.235829 2.071309,-0.235829 1.766513,0 1.896577,0.0091 2.051962,0.143607 0.08334,0.07214 0.21266,0.322054 0.335434,0.648234 0.0503,0.133643 0.116331,0.296601 0.146729,0.362128 0.06481,0.139701 0.246601,0.563436 0.518156,1.207739 0.106926,0.253699 0.29388,0.685449 0.415451,0.959444 0.121572,0.273995 0.292586,0.672533 0.380032,0.88564 0.08745,0.213107 0.332913,0.794309 0.545482,1.291559 0.21257,0.49725 0.449104,1.053543 0.525632,1.236207 0.07653,0.182663 0.217056,0.514778 0.312285,0.738033 0.09523,0.223255 0.236424,0.555371 0.313767,0.738034 0.07734,0.182663 0.226559,0.5313838 0.331593,0.7749348 0.105034,0.243551 0.254168,0.592272 0.331408,0.774936 0.07724,0.182663 0.235393,0.54799 0.351453,0.811837 0.116059,0.263847 0.257203,0.587659 0.313653,0.719582 0.333651,0.779742 0.977081,2.247792 1.09563,2.499791 0.115296,0.245084 0.202839,0.234075 -1.771232,0.222733 l -1.784014,-0.01025 -0.135177,-0.09225 c -0.147796,-0.100867 -0.296107,-0.350508 -0.447222,-0.752779 -0.0526,-0.140034 -0.151635,-0.380817 -0.220067,-0.535075 -0.06843,-0.154257 -0.220064,-0.512948 -0.336957,-0.797091 -0.116893,-0.284143 -0.252165,-0.603804 -0.300604,-0.710357 l -0.08807,-0.193734 H 8.431891 c -2.180335,0 -2.788347,0.01 -2.816939,0.04613 -0.02005,0.02537 -0.121196,0.262002 -0.22476,0.525849 -0.103564,0.263847 -0.280706,0.703899 -0.393648,0.977894 -0.112943,0.273995 -0.271611,0.664231 -0.352597,0.86719 -0.166777,0.417965 -0.222173,0.496901 -0.425013,0.605616 -0.140002,0.07504 -0.189683,0.07706 -1.887937,0.07706 -1.37580895,0 -1.74415095,-0.0098 -1.74415095,-0.04638 z M 8.493979,9.0943322 9.851064,9.0938272 9.798644,8.9923482 C 9.769814,8.9365382 9.687899,8.7497192 9.616612,8.5772042 9.545322,8.4046882 9.401353,8.0642702 9.296677,7.8207192 9.192,7.5771682 9.050712,7.2450532 8.982703,7.0826862 8.914693,6.9203182 8.788895,6.6214152 8.70315,6.4184552 8.6174,6.2154962 8.509241,5.9588982 8.462786,5.8482382 c -0.08103,-0.193016 -0.08602,-0.19752 -0.122815,-0.110706 -0.02109,0.04977 -0.145952,0.356188 -0.277463,0.680923 -0.131512,0.324735 -0.430786,1.055389 -0.665052,1.623674 -0.234267,0.568287 -0.426093,1.047639 -0.42628,1.065228 -1.99e-4,0.01759 0.03702,0.02197 0.08269,0.0097 0.04567,-0.01224 0.693717,-0.02248 1.440113,-0.02276 z"
     id="path5"
     class="ColorScheme-Text" />
</svg>
