<?xml version="1.0" encoding="UTF-8" standalone="no"?>
<svg
   width="64"
   height="64"
   version="1.1"
   viewBox="0 0 16.933 16.933"
   id="svg7"
   sodipodi:docname="test.svg"
   inkscape:version="1.4.2 (ebf0e940d0, 2025-05-08)"
   xmlns:inkscape="http://www.inkscape.org/namespaces/inkscape"
   xmlns:sodipodi="http://sodipodi.sourceforge.net/DTD/sodipodi-0.dtd"
   xmlns="http://www.w3.org/2000/svg"
   xmlns:svg="http://www.w3.org/2000/svg"
   xmlns:rdf="http://www.w3.org/1999/02/22-rdf-syntax-ns#"
   xmlns:cc="http://creativecommons.org/ns#"
   xmlns:dc="http://purl.org/dc/elements/1.1/">
  <sodipodi:namedview
     id="namedview7"
     pagecolor="#9c4444"
     bordercolor="#000000"
     borderopacity="0.25"
     inkscape:showpageshadow="2"
     inkscape:pageopacity="0.0"
     inkscape:pagecheckerboard="0"
     inkscape:deskcolor="#d1d1d1"
     inkscape:zoom="4.3531261"
     inkscape:cx="115.43428"
     inkscape:cy="21.823397"
     inkscape:window-width="2560"
     inkscape:window-height="1392"
     inkscape:window-x="0"
     inkscape:window-y="0"
     inkscape:window-maximized="1"
     inkscape:current-layer="svg7"
     showgrid="false" />
  <defs
     id="defs2">
    <style
       id="current-color-scheme"
       type="text/css">.ColorScheme-Text {color:#d8dee9} .ColorScheme-Highlight {color:#3b4252}</style>
  </defs>
  <metadata
     id="metadata2">
    <rdf:RDF>
      <cc:Work
         rdf:about="">
        <dc:format>image/svg+xml</dc:format>
        <dc:type
           rdf:resource="http://purl.org/dc/dcmitype/StillImage" />
      </cc:Work>
    </rdf:RDF>
  </metadata>
  <path
     id="path5"
     style="display:inline;fill:currentColor;stroke-width:0.086284;stroke-linecap:square;enable-background:new;stop-color:#000000"
     d="m 2.3463885,2.7564789 c -0.493735,0 -0.891219,0.3974835 -0.891219,0.8912193 v 6.7922168 c 0,0.493736 0.397484,0.891219 0.891219,0.891219 h 7.572897 c 0.2526595,0 0.5301305,0.161709 0.6316505,0.37899 0,0 -2.2318215,-7.2071091 -2.5266015,-8.0624258 -0.177931,-0.4605603 -0.397484,-0.8912193 -0.89122,-0.8912193 z m 1.731117,2.4654108 h 1.244796 c 0.58126,0 1.028061,0.1477185 1.34053,0.443389 0.312468,0.2956693 0.468803,0.7225849 0.468803,1.2803259 0,0.4166253 -0.07896,0.7643404 -0.236869,1.0432102 -0.154554,0.2788712 -0.37286,0.4872332 -0.655091,0.6249886 -0.28223,0.1377554 -0.61503,0.2065201 -0.998057,0.2065201 h -1.164112 z m 4.849645,0.3641859 c 0.291916,0.9269598 0.658644,2.1018357 0.998304,3.1927958 0.2263285,0.030375 0.5012415,0.051815 0.7303445,0.051815 h 0.07846 c 0.01847,-0.1200742 0.03691,-0.2217716 0.04614,-0.3002807 0.01847,-0.1477835 0.02782,-0.258492 0.02319,-0.3831849 l 0.411066,0.022947 c -0.03695,0.120073 -0.06013,0.26318 -0.08784,0.3878729 -0.01386,0.069273 -0.02773,0.161669 -0.05083,0.2632699 0.540333,-0.023092 1.19145,-0.087749 1.759492,-0.2124418 l 0.0047,0.3511088 c -0.540332,0.096982 -1.246999,0.1708459 -1.833513,0.1939365 -0.08313,0.3879319 -0.189234,0.8266047 -0.286217,1.0898439 0.401785,-0.2817124 0.817302,-0.3970023 1.297599,-0.3970023 0.734298,0 1.163865,0.3786983 1.163865,0.9144123 0,0.938743 -0.930338,1.300902 -2.272956,1.184098 0.01377,0.04445 0.02097,0.06785 0.02097,0.06785 -0.0073,-0.01552 -0.01545,-0.03073 -0.02443,-0.04565 l 0.02443,0.06144 c 0.08843,0.220678 0.02295,0.522809 -0.25266,0.631651 l -1.1369705,0.757981 c -0.186754,0.09227 -0.504372,0.504205 -0.0022,0.750578 0.0403,0.005 0.08301,0.0074 0.128551,0.0074 H 14.58661 c 0.493736,0 0.89122,-0.397483 0.89122,-0.891219 V 6.4772938 c 0,-0.4937359 -0.397484,-0.8912194 -0.89122,-0.8912194 z m -3.877002,0.4219228 v 2.0161001 h 0.216884 c 0.29567,0 0.512153,-0.085749 0.649909,-0.2571016 0.137755,-0.1713541 0.206766,-0.4333206 0.206766,-0.7861087 0,-0.6484574 -0.263789,-0.9728898 -0.79129,-0.9728898 z m 8.4088465,1.8157484 c 0.120074,0.1708741 0.300128,0.4573221 0.387873,0.6281962 L 13.597662,8.5674165 C 13.496061,8.3642146 13.343541,8.1009652 13.214231,7.9300911 Z M 12.94652,8.0085539 c 0.115455,0.1662555 0.286131,0.4479781 0.378496,0.6373255 L 13.07581,8.7566649 C 12.98345,8.5673176 12.826446,8.2857735 12.701755,8.1148982 Z m -2.909294,1.1290752 c 0.118383,0.3804747 0.231783,0.7455756 0.335811,1.0804679 0.121188,-0.3511371 0.219977,-0.7300027 0.291892,-1.0550538 h -0.0044 c -0.220493,0 -0.427717,-0.010966 -0.623262,-0.025414 z m 1.944052,1.0229779 c -0.549568,0 -1.057511,0.189336 -1.366931,0.554174 -0.02227,0.02784 -0.04241,0.05505 -0.06144,0.08291 0.09637,0.310491 0.17881,0.57626 0.241803,0.779446 1.035798,0.123747 2.008452,-0.06799 2.008452,-0.806834 0,-0.34175 -0.281554,-0.609691 -0.821887,-0.609691 z m -4.1624765,1.473522 0.710853,1.910743 c 0.110539,0.262468 0.20183,0.569084 0.631651,0.625235 -0.505321,-0.246248 -0.187028,-0.659161 0,-0.751565 l 1.1369695,-0.757981 c 0.275607,-0.108842 0.341085,-0.410974 0.252661,-0.631651 l -0.02492,-0.06242 v -2.47e-4 c -0.116992,-0.193258 -0.372602,-0.33211 -0.6067295,-0.33211 z m 3.0252595,0.25118 c 0.011,0.01255 0.02106,0.0258 0.03084,0.03899 -0.0055,-0.0074 -0.0099,-0.01528 -0.01579,-0.02245 -6.3e-5,-1.26e-4 -4.12e-4,-6.11e-4 -4.93e-4,-7.4e-4 -5.26e-4,-6.21e-4 -0.0012,-0.0014 -0.0017,-0.002 -0.0039,-0.0048 -0.0086,-0.0092 -0.01283,-0.01382 z"
     class="ColorScheme-Text" />
</svg>
