<?xml version="1.0" encoding="UTF-8" standalone="no"?>
<svg
   width="64"
   height="64"
   version="1.1"
   viewBox="0 0 16.933 16.933"
   id="svg7"
   sodipodi:docname="AppImageLauncher.svg"
   inkscape:version="1.4.3 (0d15f75042, 2025-12-25)"
   xmlns:inkscape="http://www.inkscape.org/namespaces/inkscape"
   xmlns:sodipodi="http://sodipodi.sourceforge.net/DTD/sodipodi-0.dtd"
   xmlns="http://www.w3.org/2000/svg"
   xmlns:svg="http://www.w3.org/2000/svg"
   xmlns:rdf="http://www.w3.org/1999/02/22-rdf-syntax-ns#"
   xmlns:cc="http://creativecommons.org/ns#"
   xmlns:dc="http://purl.org/dc/elements/1.1/">
  <sodipodi:namedview
     id="namedview7"
     pagecolor="#9c4444"
     bordercolor="#000000"
     borderopacity="0.25"
     inkscape:showpageshadow="2"
     inkscape:pageopacity="0.0"
     inkscape:pagecheckerboard="0"
     inkscape:deskcolor="#d1d1d1"
     inkscape:zoom="4.3531262"
     inkscape:cx="89.935366"
     inkscape:cy="34.457995"
     inkscape:window-width="2560"
     inkscape:window-height="1388"
     inkscape:window-x="0"
     inkscape:window-y="0"
     inkscape:window-maximized="1"
     inkscape:current-layer="svg7"
     showgrid="false" />
  <defs
     id="defs2">
    <style
       id="current-color-scheme"
       type="text/css">.ColorScheme-Text {color:#d8dee9} .ColorScheme-Highlight {color:#3b4252}</style>
  </defs>
  <metadata
     id="metadata2">
    <rdf:RDF>
      <cc:Work
         rdf:about="">
        <dc:format>image/svg+xml</dc:format>
        <dc:type
           rdf:resource="http://purl.org/dc/dcmitype/StillImage" />
      </cc:Work>
    </rdf:RDF>
  </metadata>
  <path
     id="path5"
     d="m 6.5458865,4.6893547 1.263342,-3.234175 h 1.314542 l 3.5309335,9.0388963 c -0.672434,0.434702 -1.481345,0.713361 -2.327432,0.871687 L 8.4664995,6.7136697 6.4441415,11.769484 c 0.632323,0.131259 1.313073,0.202676 2.022358,0.202676 3.3254865,0 6.0253325,-1.570861 6.0253325,-3.5056603 0,-1.064905 -0.817715,-2.019423 -2.107472,-2.662508 -0.12066,0.155879 -0.309476,0.256321 -0.521773,0.256321 -0.363772,0 -0.659227,-0.295454 -0.659227,-0.659227 0,-0.363937 0.295454,-0.659391 0.659227,-0.659391 0.339478,0 0.619442,0.257137 0.655314,0.587158 1.79066,0.794236 2.959919,2.100298 2.959919,3.575773 0,1.2547003 -0.845434,2.3869473 -2.199435,3.1860753 -0.70048,0.424266 -1.484281,0.718578 -2.298735,0.905764 -0.780377,0.187512 -1.6277675,0.290236 -2.5131505,0.290236 -0.885383,0 -1.732774,-0.102724 -2.513151,-0.290236 l -0.992509,2.481355 h -2.629245 l 1.32302,-3.387119 c -1.354001,-0.799128 -2.199435,-1.931375 -2.199435,-3.1860753 0,-2.002302 2.153454,-3.692683 5.090707,-4.215271 z M 14.601406,15.47782 h -2.629247 l -0.826031,-2.064915 c 0.805486,-0.197458 1.581623,-0.494542 2.293843,-0.908373 z M 6.3529945,5.1829197 c -2.284223,0.498456 -3.911828,1.781364 -3.911828,3.28358 0,0.942126 0.639987,1.7978333 1.68076,2.4280373 z"
     style="fill:currentColor"
     class="ColorScheme-Text" />
</svg>
