<?xml version='1.0' encoding='UTF-8'?>
<svg xmlns:inkscape="http://www.inkscape.org/namespaces/inkscape" xmlns:sodipodi="http://sodipodi.sourceforge.net/DTD/sodipodi-0.dtd" xmlns="http://www.w3.org/2000/svg" xmlns:svg="http://www.w3.org/2000/svg" xmlns:rdf="http://www.w3.org/1999/02/22-rdf-syntax-ns#" xmlns:cc="http://creativecommons.org/ns#" xmlns:dc="http://purl.org/dc/elements/1.1/" width="64" height="64" version="1.1" viewBox="0 0 16.933 16.933" id="svg7" sodipodi:docname="application-default.svg" inkscape:version="1.4 (e7c3feb100, 2024-10-09)">
  <sodipodi:namedview id="namedview7" pagecolor="#9c4444" bordercolor="#000000" borderopacity="0.25" inkscape:showpageshadow="2" inkscape:pageopacity="0.0" inkscape:pagecheckerboard="0" inkscape:deskcolor="#d1d1d1" inkscape:zoom="6.15625" inkscape:cx="15.837563" inkscape:cy="40.284264" inkscape:window-width="1183" inkscape:window-height="941" inkscape:window-x="35" inkscape:window-y="32" inkscape:window-maximized="0" inkscape:current-layer="svg7" showgrid="false"/>
  <defs id="defs2">
    <style id="current-color-scheme" type="text/css">.ColorScheme-Text {color:#d8dee9} .ColorScheme-Highlight {color:#3b4252}</style></defs>
  <metadata id="metadata2">
    <rdf:RDF>
      <cc:Work rdf:about="">
        <dc:format>image/svg+xml</dc:format>
        <dc:type rdf:resource="http://purl.org/dc/dcmitype/StillImage"/>
      </cc:Work>
    </rdf:RDF>
  </metadata>
  <path style="clip-rule:nonzero;display:inline;overflow:visible;visibility:visible;isolation:auto;mix-blend-mode:normal;color-interpolation:sRGB;color-interpolation-filters:linearRGB;solid-opacity:1;fill:currentColor;fill-opacity:1;fill-rule:nonzero;stroke:none;stroke-width:0.463862;stroke-linecap:butt;stroke-linejoin:miter;stroke-miterlimit:4;stroke-dasharray:none;stroke-dashoffset:0;stroke-opacity:0.3;marker:none;color-rendering:auto;image-rendering:auto;shape-rendering:auto;text-rendering:auto;enable-background:accumulate" d="m 7.5206056,1.4650823 c -0.1801067,0 -0.3301968,0.7165871 -0.4182983,1.7406902 A 5.5043203,5.6700752 0 0 0 5.7721618,3.7816391 C 5.0037852,3.1182674 4.4035714,2.7178317 4.2758711,2.8493781 L 2.8597202,4.3081754 C 2.7320193,4.4397181 3.120749,5.0580099 3.764727,5.849524 A 5.5043203,5.6700752 0 0 0 3.2105803,7.2197254 C 2.2136318,7.3103924 1.5158918,7.4647771 1.5158918,7.6506197 v 2.0618432 c 0,0.1855312 0.6956381,0.3401421 1.6898032,0.4308961 a 5.5043203,5.6700752 0 0 0 0.5570777,1.373216 C 3.1202586,12.306673 2.732172,12.923516 2.8597202,13.054907 L 4.2758711,14.5137 c 0.1274235,0.131252 0.7254839,-0.26755 1.4914048,-0.928232 a 5.5043203,5.6700752 0 0 0 1.3350314,0.566806 c 0.088016,1.026973 0.2378899,1.745724 0.4182983,1.745724 h 2.0015697 c 0.1801086,0 0.3301977,-0.716587 0.4182981,-1.740689 a 5.5043203,5.6700752 0 0 0 1.3301456,-0.575865 c 0.768379,0.66337 1.368589,1.063804 1.496293,0.932256 l 1.416152,-1.458793 c 0.127699,-0.131499 -0.261033,-0.749835 -0.90501,-1.541351 a 5.5043203,5.6700752 0 0 0 0.554145,-1.370197 C 14.829148,10.052691 15.52689,9.8983064 15.52689,9.7124629 V 7.650619 c 0,-0.1855312 -0.695641,-0.3401407 -1.689803,-0.4308936 A 5.5043203,5.6700752 0 0 0 13.280006,5.8465049 C 13.922521,5.0564067 14.310609,4.4395633 14.183064,4.3081754 L 12.766912,2.8493781 C 12.639479,2.7181147 12.041426,3.1169323 11.275503,3.7776118 A 5.5043203,5.6700752 0 0 0 9.9404734,3.2108056 C 9.8524568,2.1838345 9.7025848,1.4650848 9.5221753,1.4650848 Z M 8.5213905,6.1042344 A 2.5019639,2.5773067 0 0 1 11.023354,8.6815413 2.5019639,2.5773067 0 0 1 8.5213905,11.258846 2.5019639,2.5773067 0 0 1 6.0194263,8.6815413 2.5019639,2.5773067 0 0 1 8.5213905,6.1042344 Z" id="path4690" inkscape:connector-curvature="0" class="ColorScheme-Text"/>
  <g aria-label="Terminal" id="text2284" style="font-size:1.76385px;opacity:1;fill:#999999;stroke-width:0.529156"/>
</svg>
