<?xml version='1.0' encoding='UTF-8'?>
<svg xmlns:inkscape="http://www.inkscape.org/namespaces/inkscape" xmlns:sodipodi="http://sodipodi.sourceforge.net/DTD/sodipodi-0.dtd" xmlns="http://www.w3.org/2000/svg" xmlns:svg="http://www.w3.org/2000/svg" id="svg2424" viewBox="0 0 63.999999 63.999999" version="1.1" sodipodi:docname="arch-update_updates-available-blue.svg" width="64" height="64" inkscape:version="1.4.2 (ebf0e940d0, 2025-05-08)">
  <defs id="defs1">
    <style id="current-color-scheme" type="text/css">.ColorScheme-Text {color:#d8dee9} .ColorScheme-Highlight {color:#3b4252}</style>
  </defs>
  <sodipodi:namedview id="namedview1" pagecolor="#505050" bordercolor="#eeeeee" borderopacity="1" inkscape:showpageshadow="0" inkscape:pageopacity="0" inkscape:pagecheckerboard="0" inkscape:deskcolor="#505050" inkscape:zoom="7.0281003" inkscape:cx="83.095001" inkscape:cy="83.237287" inkscape:window-width="2560" inkscape:window-height="1376" inkscape:window-x="0" inkscape:window-y="0" inkscape:window-maximized="1" inkscape:current-layer="svg2424"/>
  <path id="path65" style="fill:currentColor;fill-opacity:1" class="ColorScheme-Text" d="M 0.4162301 27.362575 C -0.804892 24.369176 -1.5415707 22.412678 -2.8996563 19.510038 C -2.0663232 18.627199 -1.042845 17.596888 0.61722098 16.436822 C -1.1682573 17.171146 -2.3861158 17.908906 -3.297007 18.674583 C -5.0362808 15.04587 -7.7603481 9.8763939 -13.290051 -0.059249607 C -8.9435169 2.4506512 -5.5758812 3.9968633 -2.4356175 4.5876225 C -2.5709307 5.1668305 -2.6471162 5.7949437 -2.6421657 6.4484091 L -2.6366084 6.5873429 C -2.5673015 9.3711711 -1.1186032 11.512806 0.5959178 11.367591 C 0.8648948 11.344487 1.1252938 11.267005 1.3711683 11.141592 C 2.5625872 12.800009 4.4605427 13.907802 6.6173082 14.010112 L 6.6191607 14.00826 C 3.1290618 20.755785 2.3254712 22.882377 0.4162301 27.362575 z M 6.9998392 12.9996 C 5.9112992 12.9996 4.9079543 12.732103 3.9886809 12.195637 C 3.0694076 11.65917 2.3410951 10.930864 1.8046418 10.011598 C 1.2681818 9.092331 0.99975201 8.0889727 0.99975201 7.0004393 C 0.99975201 5.911906 1.2681818 4.9076214 1.8046418 3.9883548 C 2.3410951 3.0690881 3.0694076 2.3407823 3.9886809 1.8043156 C 4.9079543 1.2678489 5.9112992 1.0003521 6.9998392 1.0003521 C 8.0883792 1.0003521 9.0926505 1.2678489 10.011924 1.8043156 C 10.93119 2.3407823 11.658577 3.0690881 12.195037 3.9883548 C 12.731497 4.9076214 12.999926 5.911906 12.999926 7.0004393 C 12.999926 8.0889727 12.731497 9.092331 12.195037 10.011598 C 11.658577 10.930864 10.93119 11.65917 10.011924 12.195637 C 9.0926505 12.732103 8.0883792 12.9996 6.9998392 12.9996 z M 6.4996776 10.99988 L 7.5000009 10.99988 C 7.6354142 10.99988 7.7530065 10.950617 7.8519665 10.851684 C 7.9509265 10.752684 8.0001625 10.635118 8.0001625 10.499718 L 8.0001625 6.5780806 L 9.4765656 8.0544837 C 9.5755256 8.153417 9.6931179 8.2026797 9.8285312 8.2026797 C 9.9639512 8.2026797 10.080611 8.153417 10.179571 8.0544837 L 10.890912 7.3440689 C 10.984665 7.2502689 11.031698 7.1327033 11.031698 6.9921033 C 11.031698 6.8515033 10.984665 6.7339377 10.890912 6.6401377 L 8.0622196 3.812372 L 7.3518048 3.1019572 C 7.2580582 3.0081572 7.1404659 2.961171 6.9998392 2.961171 C 6.8592126 2.961171 6.7425465 3.0081572 6.6487999 3.1019572 L 5.9374589 3.812372 L 3.1096932 6.6401377 C 3.0159465 6.7339377 2.9689069 6.8515033 2.9689069 6.9921033 C 2.9689069 7.1327033 3.0159465 7.2502689 3.1096932 7.3440689 L 3.8201079 8.0544837 C 3.9138613 8.148217 4.0314535 8.1952699 4.1720735 8.1952699 C 4.3127002 8.1952699 4.4293596 8.148217 4.5231129 8.0544837 L 6.0004422 6.5780806 L 6.0004422 10.499718 C 6.0004422 10.635118 6.0496782 10.752684 6.1486382 10.851684 C 6.2475916 10.950617 6.3642576 10.99988 6.4996776 10.99988 z M 12.506248 2.9389416 C 12.131661 2.4207899 11.68658 1.9588125 11.18823 1.5644233 L 11.18823 1.5625708 C 12.120573 1.0741219 13.095992 0.53460762 14.128995 -0.061102058 C 13.551437 1.0016044 13.017799 1.9900966 12.506248 2.9389416 z " transform="matrix(2.1086933,0,0,-2.1086933,31.116439,60.785217)"/>
</svg>
