<?xml version='1.0' encoding='UTF-8'?>
<svg xmlns:inkscape="http://www.inkscape.org/namespaces/inkscape" xmlns:sodipodi="http://sodipodi.sourceforge.net/DTD/sodipodi-0.dtd" xmlns="http://www.w3.org/2000/svg" xmlns:svg="http://www.w3.org/2000/svg" id="svg2424" viewBox="0 0 63.999999 63.999999" version="1.1" sodipodi:docname="arch-update-blue.svg" width="64" height="64" inkscape:version="1.4.2 (ebf0e940d0, 2025-05-08)">
  <defs id="defs1"><style id="current-color-scheme" type="text/css">.ColorScheme-Text {color:#d8dee9} .ColorScheme-Highlight {color:#3b4252}</style></defs>
  <sodipodi:namedview id="namedview1" pagecolor="#505050" bordercolor="#eeeeee" borderopacity="1" inkscape:showpageshadow="0" inkscape:pageopacity="0" inkscape:pagecheckerboard="0" inkscape:deskcolor="#505050" inkscape:zoom="7.0281003" inkscape:cx="83.095001" inkscape:cy="83.095001" inkscape:window-width="2560" inkscape:window-height="1376" inkscape:window-x="0" inkscape:window-y="0" inkscape:window-maximized="1" inkscape:current-layer="svg2424"/>
  <path id="path62" style="fill:currentColor;stroke-width:0.34797;fill-opacity:1" d="m 31.993203,3.0854895 c -2.574977,6.3121733 -4.126868,10.4390415 -6.99066,16.5598305 1.757248,1.861639 3.914172,4.033352 7.414748,6.47958 -3.765034,-1.548466 -6.332616,-3.104082 -8.25341,-4.718662 -3.667602,7.651858 -9.412768,18.553509 -21.073245,39.504775 9.165533,-5.292622 16.267346,-8.553155 22.889213,-9.798887 -0.285335,-1.221374 -0.445402,-2.546896 -0.434962,-3.924857 l 0.01087,-0.292239 c 0.146151,-5.870251 3.201272,-10.387144 6.816679,-10.080931 0.567191,0.04872 1.116711,0.212642 1.635186,0.477099 2.512343,-3.497097 6.514348,-5.832274 11.062314,-6.048015 l 0.0035,0.0034 C 37.713773,17.018093 36.019214,12.532871 31.993203,3.0854895 Z M 45.876655,33.372459 c -2.295383,0 -4.411979,0.565783 -6.35045,1.697033 -1.938469,1.13125 -3.473267,2.666049 -4.604482,4.604485 -1.131216,1.938471 -1.697033,4.055745 -1.697033,6.351129 0,2.295383 0.565818,4.411979 1.697033,6.35045 1.131215,1.938435 2.666013,3.473233 4.604482,4.604483 1.938471,1.13125 4.055067,1.697035 6.35045,1.697035 2.295418,0 4.412662,-0.565785 6.351132,-1.697035 1.938436,-1.13125 3.473268,-2.666048 4.604484,-4.604483 1.13125,-1.938471 1.697031,-4.055067 1.697031,-6.35045 0,-2.295384 -0.565781,-4.412658 -1.697031,-6.351129 -1.131216,-1.938437 -2.666048,-3.473235 -4.604484,-4.604485 -1.93847,-1.13125 -4.055714,-1.697032 -6.351132,-1.697033 z m 6.631137,6.078598 c 0.325633,0 0.602551,0.113898 0.830506,0.341853 l 1.660335,1.660334 c 0.22792,0.227886 0.341853,0.504842 0.341853,0.830507 0,0.325665 -0.113933,0.602517 -0.341853,0.830507 l -8.841291,8.841288 -1.660332,1.660331 c -0.227955,0.22799 -0.504876,0.342534 -0.830506,0.342534 -0.325665,0 -0.602587,-0.114544 -0.830507,-0.342534 l -1.660331,-1.660331 -4.420985,-4.420985 c -0.227955,-0.227886 -0.341853,-0.50416 -0.341853,-0.829825 0,-0.325665 0.113898,-0.602517 0.341853,-0.830507 l 1.661013,-1.661013 c 0.227955,-0.227885 0.504842,-0.341852 0.830507,-0.341852 0.32563,0 0.601869,0.113967 0.829825,0.341852 l 3.590478,3.602713 8.010785,-8.023019 c 0.22792,-0.227955 0.504838,-0.341853 0.830503,-0.341853 z m 4.981,15.137371 c -0.789891,1.092627 -1.729493,2.066966 -2.780362,2.898614 v 0.0035 c 1.966029,1.029991 4.022643,2.167797 6.200934,3.423968 -1.217895,-2.240926 -2.341865,-4.325154 -3.420572,-6.325981 z" class="ColorScheme-Text"/>
</svg>
