<?xml version="1.0" encoding="UTF-8" standalone="no"?>
<svg
   width="64"
   height="64"
   version="1.1"
   viewBox="0 0 16.933 16.933"
   id="svg7"
   sodipodi:docname="archlinux.svg"
   inkscape:version="1.4.3 (0d15f75042, 2025-12-25)"
   xmlns:inkscape="http://www.inkscape.org/namespaces/inkscape"
   xmlns:sodipodi="http://sodipodi.sourceforge.net/DTD/sodipodi-0.dtd"
   xmlns="http://www.w3.org/2000/svg"
   xmlns:svg="http://www.w3.org/2000/svg"
   xmlns:rdf="http://www.w3.org/1999/02/22-rdf-syntax-ns#"
   xmlns:cc="http://creativecommons.org/ns#"
   xmlns:dc="http://purl.org/dc/elements/1.1/">
  <sodipodi:namedview
     id="namedview7"
     pagecolor="#9c4444"
     bordercolor="#000000"
     borderopacity="0.25"
     inkscape:showpageshadow="2"
     inkscape:pageopacity="0.0"
     inkscape:pagecheckerboard="0"
     inkscape:deskcolor="#d1d1d1"
     inkscape:zoom="4.3531262"
     inkscape:cx="89.935366"
     inkscape:cy="34.457995"
     inkscape:window-width="2560"
     inkscape:window-height="1388"
     inkscape:window-x="0"
     inkscape:window-y="0"
     inkscape:window-maximized="1"
     inkscape:current-layer="svg7"
     showgrid="false" />
  <defs
     id="defs2">
    <style
       id="current-color-scheme"
       type="text/css">.ColorScheme-Text {color:#d8dee9} .ColorScheme-Highlight {color:#3b4252}</style>
  </defs>
  <metadata
     id="metadata2">
    <rdf:RDF>
      <cc:Work
         rdf:about="">
        <dc:format>image/svg+xml</dc:format>
        <dc:type
           rdf:resource="http://purl.org/dc/dcmitype/StillImage" />
      </cc:Work>
    </rdf:RDF>
  </metadata>
  <path
     d="m 8.4651795,1.4551775 c -0.624137,1.530216 -1.000586,2.531157 -1.6954797,4.015886 0.426057,0.451621 0.9490217,0.977555 1.7983157,1.571548 C 7.6549415,6.6668875 7.0321136,6.2896695 6.5666643,5.8982295 5.6773323,7.7539565 4.2840052,10.397358 1.4564955,15.477818 3.6788231,14.194829 5.4015321,13.403853 7.0070142,13.102038 6.9380742,12.805528 6.898879,12.484795 6.901541,12.150143 l 0.00265,-0.07119 c 0.035263,-1.423786 0.7759155,-2.5186775 1.6532905,-2.4443375 0.877374,0.07434 1.5593475,1.2895065 1.5240845,2.7132935 -0.0066,0.267912 -0.03686,0.52564 -0.089659,0.76468 1.58805,0.310651 3.292338,1.099602 5.484597,2.365233 -0.432271,-0.795841 -0.81811,-1.513233 -1.186572,-2.196476 -0.580387,-0.449839 -1.18576,-1.035307 -2.420605,-1.669111 0.848762,0.220544 1.456464,0.474993 1.930157,0.759406 C 10.053226,5.3967645 9.74986,4.4699475 8.465185,1.4551815 Z"
     id="path5"
     style="fill:currentColor"
     class="ColorScheme-Text" />
</svg>
