<?xml version="1.0" encoding="UTF-8" standalone="no"?>
<svg
   width="64"
   height="64"
   version="1.1"
   viewBox="0 0 16.933 16.933"
   id="svg7"
   sodipodi:docname="ardour.svg"
   inkscape:version="1.4.2 (ebf0e940d0, 2025-05-08)"
   xmlns:inkscape="http://www.inkscape.org/namespaces/inkscape"
   xmlns:sodipodi="http://sodipodi.sourceforge.net/DTD/sodipodi-0.dtd"
   xmlns="http://www.w3.org/2000/svg"
   xmlns:svg="http://www.w3.org/2000/svg"
   xmlns:rdf="http://www.w3.org/1999/02/22-rdf-syntax-ns#"
   xmlns:cc="http://creativecommons.org/ns#"
   xmlns:dc="http://purl.org/dc/elements/1.1/">
  <sodipodi:namedview
     id="namedview7"
     pagecolor="#9c4444"
     bordercolor="#000000"
     borderopacity="0.25"
     inkscape:showpageshadow="2"
     inkscape:pageopacity="0.0"
     inkscape:pagecheckerboard="0"
     inkscape:deskcolor="#d1d1d1"
     inkscape:zoom="4.3531262"
     inkscape:cx="89.935366"
     inkscape:cy="34.457995"
     inkscape:window-width="2560"
     inkscape:window-height="1388"
     inkscape:window-x="0"
     inkscape:window-y="0"
     inkscape:window-maximized="1"
     inkscape:current-layer="svg7"
     showgrid="false" />
  <defs
     id="defs2">
    <style
       id="current-color-scheme"
       type="text/css">.ColorScheme-Text {color:#d8dee9} .ColorScheme-Highlight {color:#3b4252}</style>
  </defs>
  <metadata
     id="metadata2">
    <rdf:RDF>
      <cc:Work
         rdf:about="">
        <dc:format>image/svg+xml</dc:format>
        <dc:type
           rdf:resource="http://purl.org/dc/dcmitype/StillImage" />
      </cc:Work>
    </rdf:RDF>
  </metadata>
  <path
     d="M 8.466502,1.4551797 0.286627,15.47782 h 0.141451 c 0.280139,-0.006 0.391209,-0.45993 0.536522,-0.45993 0.09559,0 0.234275,0.0711 0.330423,0.0711 0.181788,0 0.234274,-0.951579 0.387889,-0.948296 0.153055,0.003 0.124314,0.812669 0.412202,0.823059 0.298925,0.01041 0.102216,-1.866514 0.394514,-1.866514 0.254725,0 0.127082,1.601277 0.474634,1.612212 0.337045,0.01041 0.07625,-2.774337 0.412742,-2.801134 0.392313,-0.03171 0.143674,2.591678 0.54923,2.591678 0.354192,0 0.120457,-3.683258 0.433752,-3.683258 0.312734,0 0.21825,3.558568 0.53708,3.52849 0.307214,0 0.01045,-4.291942 0.365223,-4.291942 0.453643,0 0.221569,4.260224 0.532662,4.258583 0.349751,-0.001 0.06408,-4.6769453 0.472415,-4.6769453 0.422703,0 0.134282,4.7228823 0.487354,4.7103043 0.371304,-0.01309 -0.01882,-4.4248352 0.39065,-4.4248352 0.393956,0 0.125978,4.4866332 0.469654,4.4866332 0.364135,0 -0.02591,-4.4286649 0.44978,-4.398037 0.460823,0.03008 0.159123,4.527102 0.48844,4.527102 0.313854,0 0.126538,-3.92881 0.501165,-3.90748 0.439275,0.02466 0.183447,4.028889 0.486785,4.028889 0.281253,0 0.153611,-3.196534 0.526031,-3.196534 0.393413,0 0.09725,3.317394 0.45971,3.302081 0.361918,-0.01475 0.20002,-2.529335 0.551992,-2.529335 0.337605,0 0.05857,2.742621 0.439274,2.742621 0.396175,0 0.196156,-1.920107 0.545366,-1.920107 0.360257,0 0.133162,2.097844 0.40888,2.097844 0.26799,0 0.189529,-1.321817 0.454189,-1.321817 0.265224,0 0.140907,1.398381 0.363576,1.398381 0.230969,0 0.13649,-0.807202 0.380705,-0.807202 0.244779,0 0.157476,0.871733 0.345346,0.882124 0.166308,0.0093 0.144764,-0.549619 0.29837,-0.549619 0.156373,0 0.09061,0.621259 0.305553,0.620714 0.207204,-5.02e-4 0.143675,-0.343988 0.291745,-0.343988 0.144763,0 0.149187,0.403599 0.320475,0.403599 0.12212,-0.002 0.251962,-0.1843 0.407231,-0.1843 0.203887,0 0.266877,0.225863 0.789588,0.225863 h 0.217148 z"
     id="path5"
     style="fill:currentColor;fill-opacity:1;stroke-width:0.549669"
     class="ColorScheme-Text" />
</svg>
