<?xml version='1.0' encoding='UTF-8'?>
<svg xmlns:inkscape="http://www.inkscape.org/namespaces/inkscape" xmlns:sodipodi="http://sodipodi.sourceforge.net/DTD/sodipodi-0.dtd" xmlns="http://www.w3.org/2000/svg" xmlns:svg="http://www.w3.org/2000/svg" xmlns:rdf="http://www.w3.org/1999/02/22-rdf-syntax-ns#" xmlns:cc="http://creativecommons.org/ns#" xmlns:dc="http://purl.org/dc/elements/1.1/" width="64" height="64" version="1.1" viewBox="0 0 16.933 16.933" id="svg7" sodipodi:docname="arduino.svg" inkscape:version="1.4.2 (ebf0e940d0, 2025-05-08)">
  <sodipodi:namedview id="namedview7" pagecolor="#9c4444" bordercolor="#000000" borderopacity="0.25" inkscape:showpageshadow="2" inkscape:pageopacity="0.0" inkscape:pagecheckerboard="0" inkscape:deskcolor="#d1d1d1" inkscape:zoom="6.15625" inkscape:cx="15.837563" inkscape:cy="29.64467" inkscape:window-width="1183" inkscape:window-height="941" inkscape:window-x="0" inkscape:window-y="0" inkscape:window-maximized="0" inkscape:current-layer="svg7" showgrid="false"/>
  <defs id="defs2">
    <style id="current-color-scheme" type="text/css">.ColorScheme-Text {color:#d8dee9} .ColorScheme-Highlight {color:#3b4252}</style>
  </defs>
  <metadata id="metadata2">
    <rdf:RDF>
      <cc:Work rdf:about="">
        <dc:format>image/svg+xml</dc:format>
        <dc:type rdf:resource="http://purl.org/dc/dcmitype/StillImage"/>
      </cc:Work>
    </rdf:RDF>
  </metadata>
  <path id="path3-5" style="fill:currentColor;fill-opacity:1;stroke-linecap:round;stroke-linejoin:round;-inkscape-stroke:none" class="ColorScheme-Text" d="M 19.000168 17.000571 C 12.041841 17.000571 7.7186629 20.75836 5.8392645 24.360541 C 4.2852482 27.339073 4.044709 30.273667 4.0074927 31.200187 L 3.9997555 31.200187 C 3.9997555 31.200187 3.99948 31.254306 4.0016898 31.356865 C 3.9995555 31.450078 3.9997555 31.500002 3.9997555 31.500002 L 4.0055584 31.500002 C 4.0397991 32.470452 4.2726358 35.636758 5.8392645 38.639463 C 7.718663 42.241643 12.041842 45.999434 19.000168 45.999434 C 22.958497 45.999434 26.28327 44.056954 28.928874 41.606663 C 30.557888 40.097912 32.005136 38.372247 33.360331 36.59492 C 34.668524 38.348826 36.045497 40.053465 37.575147 41.550569 C 40.072179 43.994473 43.205487 45.999434 47.000938 45.999434 C 53.546386 45.999434 57.621161 42.121956 59.332031 38.544683 C 60.743804 35.592796 60.960652 32.715609 60.993586 31.799817 L 60.999389 31.799817 C 60.999389 31.799817 61.001221 31.745674 60.999389 31.645074 C 61.0013 31.549887 60.999389 31.500002 60.999389 31.500002 L 60.99552 31.500002 C 60.965351 30.539978 60.755596 27.431867 59.332031 24.455321 C 57.621161 20.878048 53.546386 17.000571 47.000938 17.000571 C 43.205487 17.000571 40.072179 19.005532 37.575147 21.449436 C 36.045522 22.946515 34.668505 24.651208 33.360331 26.405084 C 32.005155 24.627788 30.557862 22.902068 28.928874 21.393341 C 26.28327 18.94305 22.958497 17.000571 19.000168 17.000571 z M 19.000168 23.000736 C 21.041833 23.000736 22.840752 23.933578 24.851393 25.795783 C 26.447309 27.273879 28.049308 29.296363 29.669707 31.500002 C 28.049286 33.703675 26.44733 35.726105 24.851393 37.204221 C 22.840752 39.066426 21.041833 39.999269 19.000168 39.999269 C 13.958506 39.999269 12.281093 38.009638 11.160494 35.861824 C 10.207833 34.03589 10.035688 31.944292 10.005723 31.358799 C 10.035505 30.839884 10.207142 28.965442 11.160494 27.13818 C 12.281093 24.990365 13.958507 23.000736 19.000168 23.000736 z M 47.000938 23.000736 C 51.455479 23.000736 52.878828 24.872613 53.917956 27.045334 C 54.804193 28.898377 54.965052 31.048353 54.993421 31.641205 C 54.964871 32.171583 54.80352 34.103044 53.917956 35.95467 C 52.878828 38.127391 51.455479 39.999269 47.000938 39.999269 C 45.296394 39.999269 43.6779 39.130842 41.768686 37.26225 C 40.24992 35.775798 38.689904 33.728244 37.072232 31.500002 C 38.68988 29.271795 40.24994 27.224187 41.768686 25.737755 C 43.6779 23.869163 45.296394 23.000736 47.000938 23.000736 z M 46.499957 26.000818 A 1.5 1.5 0 0 0 45.000883 27.499892 L 45.000883 30.000928 L 42.474701 30.000928 A 1.5 1.5 0 0 0 40.973693 31.500002 A 1.5 1.5 0 0 0 42.474701 32.999076 L 45.000883 32.999076 L 45.000883 35.500112 A 1.5 1.5 0 0 0 46.499957 36.999186 A 1.5 1.5 0 0 0 48.000965 35.500112 L 48.000965 32.999076 L 50.500067 32.999076 A 1.5 1.5 0 0 0 51.999141 31.500002 A 1.5 1.5 0 0 0 50.500067 30.000928 L 48.000965 30.000928 L 48.000965 27.499892 A 1.5 1.5 0 0 0 46.499957 26.000818 z M 14.499077 30.000928 A 1.5 1.5 0 0 0 13.000003 31.500002 A 1.5 1.5 0 0 0 14.499077 32.999076 L 22.499297 32.999076 A 1.5 1.5 0 0 0 24.000305 31.500002 A 1.5 1.5 0 0 0 22.499297 30.000928 L 14.499077 30.000928 z " transform="matrix(0.26715456,0,0,0.26715456,-0.18955408,-0.08115796)"/>
</svg>
