<?xml version='1.0' encoding='UTF-8'?>
<svg xmlns:inkscape="http://www.inkscape.org/namespaces/inkscape" xmlns:sodipodi="http://sodipodi.sourceforge.net/DTD/sodipodi-0.dtd" xmlns="http://www.w3.org/2000/svg" xmlns:svg="http://www.w3.org/2000/svg" xmlns:rdf="http://www.w3.org/1999/02/22-rdf-syntax-ns#" xmlns:cc="http://creativecommons.org/ns#" xmlns:dc="http://purl.org/dc/elements/1.1/" width="64" height="64" version="1.1" viewBox="0 0 16.933 16.933" id="svg7" sodipodi:docname="atom.svg" inkscape:version="1.4 (e7c3feb100, 2024-10-09)">
  <sodipodi:namedview id="namedview7" pagecolor="#9c4444" bordercolor="#000000" borderopacity="0.25" inkscape:showpageshadow="2" inkscape:pageopacity="0.0" inkscape:pagecheckerboard="0" inkscape:deskcolor="#d1d1d1" inkscape:zoom="6.15625" inkscape:cx="15.51269" inkscape:cy="29.725888" inkscape:window-width="1183" inkscape:window-height="941" inkscape:window-x="35" inkscape:window-y="32" inkscape:window-maximized="0" inkscape:current-layer="svg7" showgrid="false"/>
  <defs id="defs2">
    <style id="current-color-scheme" type="text/css">.ColorScheme-Text {color:#d8dee9} .ColorScheme-Highlight {color:#3b4252}</style></defs>
  <metadata id="metadata2">
    <rdf:RDF>
      <cc:Work rdf:about="">
        <dc:format>image/svg+xml</dc:format>
        <dc:type rdf:resource="http://purl.org/dc/dcmitype/StillImage"/>
      </cc:Work>
    </rdf:RDF>
  </metadata>
  <path style="fill:currentColor;fill-opacity:1;stroke-width:0.362803" d="m 5.868727,1.9367179 c -0.1654748,-0.00462 -0.3208809,0.010203 -0.4244505,0.04464 -0.5080967,0.1718949 -0.8269477,0.541739 -1.003376,1.1592671 -0.1524237,0.5381773 -0.1484945,1.5070584 0.01064,2.3504218 0.02792,0.1465356 0.056371,0.2796692 0.063065,0.301155 0.00838,0.030299 -0.045486,0.04947 -0.2855652,0.103455 C 3.0553689,6.1600666 2.1985261,6.5539546 1.6837448,7.0662638 1.4526014,7.2943269 1.3243378,7.4940634 1.2500822,7.74581 c -0.052484,0.174629 -0.052484,0.5205854 0,0.6930094 0.1440694,0.4737436 0.5494801,0.9191638 1.1904457,1.3130328 0.4449897,0.2710328 0.5780144,0.3008498 0.7220618,0.1587279 0.067556,-0.066654 0.082906,-0.097985 0.082906,-0.177859 0,-0.154793 -0.048554,-0.217436 -0.2579296,-0.3358751 C 1.6749307,8.6675445 1.4442236,7.9359573 2.3207749,7.2859295 2.765779,6.9565223 3.3872795,6.6958829 4.2247792,6.4937157 c 0.3668216,-0.088139 0.4492515,-0.099104 0.4492515,-0.051728 0,0.064433 0.2699864,0.916709 0.4095699,1.2846894 L 5.2281545,8.1121553 5.0382495,8.4728315 C 4.2794621,9.9188056 3.7923447,11.393432 3.7337194,12.471454 c -0.048015,0.830667 0.1047337,1.424776 0.4754701,1.792754 0.4053648,0.400488 0.9772125,0.486146 1.7119741,0.253681 0.276887,-0.08814 0.8267384,-0.36354 1.1472211,-0.578926 0.231151,-0.152608 0.281781,-0.197899 0.3124919,-0.277771 0.030708,-0.07986 0.030708,-0.105469 0,-0.189202 -0.045786,-0.125039 -0.1421618,-0.194155 -0.2728102,-0.194155 -0.084869,0 -0.1430833,0.02565 -0.3613851,0.172197 C 6.2514478,13.78166 5.786856,13.988594 5.4010528,14.05305 4.8667532,14.143414 4.5240953,13.910911 4.3672077,13.36004 4.2996437,13.120956 4.3035805,12.355216 4.3778477,11.959142 4.4911863,11.328955 4.6894342,10.674277 4.9730647,9.9856902 5.1411125,9.5769601 5.4616662,8.8928493 5.5052182,8.8476804 c 0.021772,-0.023684 0.050561,0.014972 0.122588,0.1785677 0.3668294,0.8130344 0.9274309,1.8050579 1.4745934,2.6076419 1.3065529,1.913695 2.7368887,3.159725 3.8384804,3.338209 l -0.01201,0.0023 c 0.484069,0.07712 0.892148,-0.0418 1.208159,-0.353594 0.257384,-0.258385 0.427622,-0.62168 0.523656,-1.127378 0.05863,-0.316213 0.05863,-1.200884 0,-1.63332 C 12.481986,10.571018 12.00679,9.0931588 11.293806,7.6212081 11.18269,7.3909467 11.119692,7.3349341 10.975645,7.3349341 c -0.16136,-0.00217 -0.292651,0.1201446 -0.292651,0.2749367 0,0.053983 0.05511,0.200152 0.14668,0.3918546 0.87878,1.8481739 1.349714,3.6362676 1.301697,4.9297216 -0.02958,0.770659 -0.224599,1.233753 -0.593096,1.412238 -0.193758,0.0942 -0.438319,0.09223 -0.76104,-0.0114 C 9.2958989,13.83752 7.2893678,11.362761 5.9962736,8.4359846 L 5.8673098,8.1440424 6.0550889,7.8272987 C 6.26667,7.4681267 6.8009071,6.6658285 7.0471267,6.3364069 L 7.2129378,6.11745 h 0.4364969 c 2.6503923,0 5.2737333,0.5910681 6.6650803,1.4972693 0.28363,0.1850847 0.625708,0.5235906 0.728439,0.7213529 0.07427,0.1377177 0.08149,0.1742471 0.08149,0.3571337 0,0.1790351 -0.0072,0.2220007 -0.06802,0.3316243 -0.170335,0.32279 -0.61966,0.6580085 -1.19753,0.8970863 -0.267999,0.1118285 -0.34013,0.1854075 -0.34013,0.3380015 0,0.128901 0.08558,0.236378 0.213997,0.274936 0.08318,0.02369 0.11153,0.01958 0.260056,-0.03826 C 14.926364,10.13249 15.56564,9.5667193 15.69629,8.9943667 15.733131,8.8395737 15.7303,8.5488228 15.69344,8.3984353 15.623659,8.1031537 15.375591,7.7248258 15.089725,7.4708736 13.816193,6.3432203 11.11401,5.6161205 7.9080777,5.5406506 L 7.6792005,5.5335688 7.9470509,5.2366656 C 8.0910979,5.0708521 8.3481234,4.7957534 8.5245588,4.6194763 9.4363368,3.705004 10.283122,3.1067394 11.022368,2.8571913 c 0.235615,-0.081533 0.282647,-0.0907 0.527199,-0.0907 0.227238,0 0.281542,0.00711 0.379808,0.056688 0.133456,0.06225 0.283478,0.2149313 0.35997,0.35926 0.150195,0.2947381 0.200993,0.8110515 0.128972,1.3619263 -0.02402,0.1894984 -0.04395,0.4085042 -0.04395,0.4839731 0,0.1272544 0.0044,0.1467864 0.07866,0.2090363 0.06088,0.056189 0.102676,0.07086 0.181393,0.07086 0.126749,0 0.244015,-0.066255 0.27919,-0.1565999 C 13.018015,4.8849773 13.072564,3.9399808 13.00502,3.5416992 12.900049,2.9302211 12.633902,2.517207 12.210687,2.3172395 11.462545,1.9602445 10.376581,2.3088441 9.1091527,3.3114032 8.4463888,3.8363746 7.573897,4.727048 6.9720192,5.4889269 l -0.058815,0.068734 -0.3557165,0.019844 C 6.2588329,5.5945838 5.7726413,5.6419419 5.2076079,5.7085945 L 5.0857286,5.7234715 5.0332905,5.428695 C 4.9311199,4.8414341 4.9220436,4.7533742 4.9220436,4.1914846 c 0,-0.4930229 0.00654,-0.5880742 0.054562,-0.785836 C 5.0944135,2.9065463 5.3279598,2.5964 5.6356021,2.5319476 6.0588385,2.4438389 6.5843909,2.6525083 7.3213581,3.1923616 7.5569729,3.3669849 7.8433428,3.2183707 7.8081657,2.9429351 7.7930913,2.8228486 7.681676,2.7190592 7.3064773,2.4717167 6.992128,2.2629407 6.6393816,2.0906103 6.3512869,2.0068762 6.2094677,1.9650108 6.0342071,1.9413387 5.8687314,1.9367255 Z m 0.3819346,4.2367118 c 0.107654,-0.00684 0.1792764,-0.00811 0.1792764,0 0,0.01102 -0.1001186,0.1636888 -0.224626,0.3443788 C 6.080805,6.6962907 5.9043155,6.9586294 5.8127484,7.1073621 5.7234161,7.2516918 5.6359059,7.3828602 5.6185924,7.4021395 5.5945897,7.4274779 5.5594245,7.3585193 5.4527794,7.023039 5.3003477,6.5603388 5.2348309,6.3111246 5.2543717,6.2896398 5.2786402,6.2652666 5.927698,6.1939339 6.2506616,6.1734297 Z m 2.2157879,1.5674196 c -0.4005355,0 -0.725605,0.3263121 -0.725605,0.7263138 0,0.4000087 0.3250759,0.7248963 0.725605,0.7248963 0.4005349,0 0.7256049,-0.3248939 0.7256049,-0.7248963 0,-0.3999827 -0.3250765,-0.7263138 -0.7256049,-0.7263138 z" id="path3-7" class="ColorScheme-Text"/>
  <g id="g9" transform="matrix(0.46959567,0,0,0.46959567,4.7471229,3.7470598)" style="fill:#999999;fill-opacity:1;stroke:none;stroke-width:0.58349;stroke-dasharray:none;stroke-opacity:0.3"/>
  </svg>
