<?xml version='1.0' encoding='UTF-8'?>
<svg xmlns:inkscape="http://www.inkscape.org/namespaces/inkscape" xmlns:sodipodi="http://sodipodi.sourceforge.net/DTD/sodipodi-0.dtd" xmlns="http://www.w3.org/2000/svg" xmlns:svg="http://www.w3.org/2000/svg" xmlns:rdf="http://www.w3.org/1999/02/22-rdf-syntax-ns#" xmlns:cc="http://creativecommons.org/ns#" xmlns:dc="http://purl.org/dc/elements/1.1/" width="64" height="64" version="1.1" viewBox="0 0 16.933 16.933" id="svg7" sodipodi:docname="audacity.svg" inkscape:version="1.4.2 (ebf0e940d0, 2025-05-08)">
  <sodipodi:namedview id="namedview7" pagecolor="#9c4444" bordercolor="#000000" borderopacity="0.25" inkscape:showpageshadow="2" inkscape:pageopacity="0.0" inkscape:pagecheckerboard="0" inkscape:deskcolor="#d1d1d1" inkscape:zoom="6.15625" inkscape:cx="15.837563" inkscape:cy="29.64467" inkscape:window-width="1183" inkscape:window-height="941" inkscape:window-x="0" inkscape:window-y="0" inkscape:window-maximized="0" inkscape:current-layer="svg7" showgrid="false"/>
  <defs id="defs2">
    <style id="current-color-scheme" type="text/css">.ColorScheme-Text {color:#d8dee9} .ColorScheme-Highlight {color:#3b4252}</style>
  </defs>
  <metadata id="metadata2">
    <rdf:RDF>
      <cc:Work rdf:about="">
        <dc:format>image/svg+xml</dc:format>
        <dc:type rdf:resource="http://purl.org/dc/dcmitype/StillImage"/>
      </cc:Work>
    </rdf:RDF>
  </metadata>
  <path id="path8-2" style="fill:currentColor;fill-opacity:1;stroke:none;stroke-width:1.57081;stroke-dasharray:none;stroke-opacity:0.3" class="ColorScheme-Text" d="M 32.122663 10.997004 C 27.162762 10.997004 22.211945 12.658741 18.875258 15.450726 C 15.538568 18.242713 13.370505 22.238616 13.370505 26.682664 L 13.370505 28.288925 C 10.057579 30.091231 8.1883623 34.816567 8.1883623 40.357952 C 8.1883623 47.450808 11.947209 53.208036 16.790176 53.208036 L 16.790176 26.682664 C 16.790176 23.354675 18.394054 20.290764 21.148813 17.985765 C 23.903228 15.680405 27.794096 14.659482 32.122663 14.659482 C 36.451396 14.659482 40.34345 15.680809 43.098211 17.985765 C 45.85297 20.290725 47.456848 23.354675 47.456848 26.682664 L 47.456848 53.208036 C 52.299985 53.208036 56.056964 47.450808 56.056964 40.357952 C 56.056964 34.8162 54.272814 30.091509 50.959718 28.288925 L 50.959718 26.682664 C 50.959718 22.238616 48.793353 18.242713 45.456663 15.450726 C 42.119635 12.658556 37.082049 10.997004 32.122663 10.997004 z M 21.867046 23.838598 A 0.85488792 0.9179372 0 0 0 21.024863 24.594186 L 19.301444 34.87697 L 19.301444 28.324582 C 18.959538 27.916653 18.275496 27.509566 17.591608 27.509566 L 17.591608 27.511264 L 17.591608 53.208036 C 18.275418 53.208036 18.959461 52.799647 19.301444 51.983815 L 19.301444 43.881198 A 0.85488792 0.9179372 0 0 0 19.629148 43.27503 L 21.47482 32.263825 L 22.722813 52.35227 A 0.85488792 0.9179372 0 0 0 24.427554 52.357363 L 25.315582 38.997894 L 26.140786 50.525276 A 0.85488792 0.9179372 0 0 0 27.843829 50.537161 L 28.891464 38.165899 L 29.567248 43.242769 A 0.85488792 0.9179372 0 0 0 31.246521 43.310687 L 32.976732 34.955076 L 32.976732 48.618478 A 0.85488792 0.9179372 0 0 0 34.676379 48.759408 L 37.191043 31.211096 L 39.822865 52.413396 A 0.85488792 0.9179372 0 0 0 41.520815 52.372645 L 42.867289 36.486626 L 44.476946 41.571986 A 0.85531408 0.91839456 0 0 0 44.94558 42.118726 L 44.94558 51.983815 C 45.287563 52.799648 45.971605 53.208036 46.655415 53.208036 L 46.655415 27.511264 L 46.655415 27.507868 C 45.971527 27.507868 45.287484 27.916667 44.94558 28.324582 L 44.94558 37.349185 L 43.1899 31.803681 A 0.85488792 0.9179372 0 0 0 41.527607 32.015925 L 40.508837 44.045899 L 38.099446 24.634937 A 0.85488792 0.9179372 0 0 0 36.40659 24.616259 L 34.686567 36.617369 L 34.686567 26.592673 A 0.85488792 0.9179372 0 0 0 32.998805 26.392315 L 30.596206 38.001198 L 29.548571 30.132898 A 0.85488792 0.9179372 0 0 0 27.852319 30.180441 L 27.06447 39.483508 L 26.13739 26.521359 A 0.85488792 0.9179372 0 0 0 24.432648 26.526453 L 23.605747 38.962237 L 22.719417 24.696063 A 0.85488792 0.9179372 0 0 0 21.867046 23.838598 z " transform="matrix(0.30434006,0,0,0.30434006,-1.3071294,-1.2436394)"/>
</svg>
