<?xml version="1.0" encoding="UTF-8" standalone="no"?>
<svg
   width="64"
   height="64"
   version="1.1"
   viewBox="0 0 16.933 16.933"
   id="svg7"
   sodipodi:docname="audio-headphones.svg"
   inkscape:version="1.4.2 (ebf0e940d0, 2025-05-08)"
   xmlns:inkscape="http://www.inkscape.org/namespaces/inkscape"
   xmlns:sodipodi="http://sodipodi.sourceforge.net/DTD/sodipodi-0.dtd"
   xmlns="http://www.w3.org/2000/svg"
   xmlns:svg="http://www.w3.org/2000/svg"
   xmlns:rdf="http://www.w3.org/1999/02/22-rdf-syntax-ns#"
   xmlns:cc="http://creativecommons.org/ns#"
   xmlns:dc="http://purl.org/dc/elements/1.1/">
  <sodipodi:namedview
     id="namedview7"
     pagecolor="#9c4444"
     bordercolor="#000000"
     borderopacity="0.25"
     inkscape:showpageshadow="2"
     inkscape:pageopacity="0.0"
     inkscape:pagecheckerboard="0"
     inkscape:deskcolor="#d1d1d1"
     inkscape:zoom="3.078125"
     inkscape:cx="129.13706"
     inkscape:cy="84.467005"
     inkscape:window-width="2560"
     inkscape:window-height="1392"
     inkscape:window-x="0"
     inkscape:window-y="0"
     inkscape:window-maximized="1"
     inkscape:current-layer="svg7"
     showgrid="false" />
  <defs
     id="defs2">
    <inkscape:path-effect
       effect="offset"
       id="path-effect2"
       is_visible="true"
       lpeversion="1.3"
       linejoin_type="miter"
       unit="mm"
       offset="1.7"
       miter_limit="4"
       attempt_force_join="false"
       update_on_knot_move="true" />
    <inkscape:path-effect
       effect="clone_original"
       css_properties=""
       attributes="style,clip-path,mask"
       linkeditem="#path1"
       is_visible="true"
       method="d"
       allow_transforms="true"
       id="path-effect1"
       lpeversion="1" />
    <style
       id="current-color-scheme"
       type="text/css">.ColorScheme-Text {color:#d8dee9} .ColorScheme-Highlight {color:#3b4252}</style>
  </defs>
  <metadata
     id="metadata2">
    <rdf:RDF>
      <cc:Work
         rdf:about="">
        <dc:format>image/svg+xml</dc:format>
        <dc:type
           rdf:resource="http://purl.org/dc/dcmitype/StillImage" />
      </cc:Work>
    </rdf:RDF>
  </metadata>
  <path
     id="path9"
     style="baseline-shift:baseline;display:inline;overflow:visible;vector-effect:none;fill:currentColor;fill-opacity:1;stroke-width:0.519358;enable-background:accumulate;stop-color:#000000"
     class="ColorScheme-Text"
     d="m 8.4664995,1.455179 c -3.8646249,0 -7.0113199,3.0478419 -7.0113199,7.0118679 v 0.259638 H 1.9745925 V 11.45795 h 0.031496 c -0.018259,0.122573 -0.031496,0.247146 -0.031496,0.374394 0,1.583581 1.4817335,2.866288 3.116614,2.866288 v -1.86115 c -0.05144,-0.251922 -0.07222,-0.519488 -0.06039,-0.798633 0.0094,-0.220912 0.02494,-0.371099 0.06039,-0.512018 V 8.965234 c -1.0153085,0 -1.499245,0.391806 -2.0777882,1.146461 V 8.726685 H 3.3604237 V 8.467047 c 0,-2.905254 2.2758487,-5.0719781 5.1060757,-5.0719781 2.8302246,0 5.1060756,2.1667241 5.1060756,5.071978 v 0.259638 h 0.347006 V 10.111695 C 13.341038,9.3570399 12.858061,8.9652339 11.842751,8.9652339 v 0.564329 c 0.05475,0.2527621 0.06337,0.5006931 0.06203,1.1889121 -0.0012,0.634984 -0.01233,0.919869 -0.06203,1.206988 v 1.067994 c 0.059,0.218652 0.0694,0.449846 0,0.662515 v 1.04266 c 1.634883,0 3.115656,-1.282707 3.115656,-2.866288 0,-0.127248 -0.01338,-0.251821 -0.0315,-0.374394 h 0.0315 V 8.7266849 h 0.519413 v -0.259638 c 0,-3.9640261 -3.146695,-7.0118679 -7.0113205,-7.0118679 z m 0,2.4593028 c -1.5862311,0 -2.998439,0.6810036 -3.9333229,1.7907621 L 5.0405385,6.129347 C 5.9457474,5.180444 7.1790554,4.6456556 8.4664994,4.6440974 9.7544624,4.6451274 10.988788,5.178967 11.894515,6.128388 L 12.399823,5.7052439 C 11.464945,4.5953065 10.052869,3.9144818 8.4664995,3.9144818 Z m 0.08299,3.5003191 c -1.4154309,9.54e-4 -2.2599139,0.251054 -2.4628629,0.72989 -0.146773,0.346295 -0.05951,0.884509 0.177885,1.099353 0.132553,0.119958 0.544767,0.133417 1.3700829,0.04382 0.740789,-0.08042 0.950171,-0.0624 1.1242761,0.09517 0.1769269,0.160114 0.05269,0.421671 -0.262514,0.553374 -0.08326,0.03479 -0.4117231,0.09595 -0.7298891,0.1351591 -0.63137,0.07782 -0.821783,0.131716 -1.2334169,0.351114 -0.394676,0.210361 -0.713909,0.537469 -0.887234,0.907637 -0.122369,0.261351 -0.149723,0.379792 -0.164464,0.727699 -0.0473,1.116422 0.498708,1.975096 1.4588199,2.293468 0.350112,0.116115 1.026901,0.09364 1.3928151,-0.04601 0.1374919,-0.05247 0.364918,-0.172031 0.504486,-0.264705 0.315336,-0.209378 0.493056,-0.199708 0.811369,0.04327 0.251292,0.191824 0.5282524,0.280007 0.7371464,0.234715 0.18172,-0.0394 0.867596,-0.527727 0.978162,-0.696613 0.109167,-0.166724 0.102855,-0.411396 -0.01725,-0.682919 -0.122578,-0.27731 -0.122098,-0.3222 0.0038,-0.860667 0.08697,-0.371813 0.102163,-0.574678 0.103663,-1.361319 0.0016,-0.830679 -0.0083,-0.960851 -0.104211,-1.293123 C 11.207408,8.928939 10.972782,8.510684 10.655731,8.185219 10.12705,7.6425069 9.5024545,7.4141909 8.5494605,7.4147949 Z m -2.9266779,1.570974 v 1.5822031 c 0.197905,-0.217582 0.436977,-0.403769 0.698393,-0.543103 0.125454,-0.06687 0.234361,-0.1206451 0.340432,-0.1652871 v -0.06464 c -0.287465,-0.01443 -0.540169,-0.07288 -0.699625,-0.217187 -0.164891,-0.149224 -0.277253,-0.360876 -0.3392,-0.591991 z m 2.998161,2.3567351 c 0.09093,0.0015 0.182659,0.02233 0.269223,0.0671 0.308404,0.15948 0.424338,0.558074 0.249231,0.854504 -0.137487,0.232747 -0.465327,0.355552 -0.737147,0.275797 -0.193013,-0.05663 -0.376406,-0.248493 -0.439851,-0.460255 -0.114413,-0.381876 0.264543,-0.743396 0.658544,-0.737147 z m -2.998161,2.640337 v 1.131808 c 0,0.201414 0.231698,0.363165 0.519412,0.363165 0.287714,0 0.519413,-0.161751 0.519413,-0.363165 V 14.72958 c -0.423279,-0.164997 -0.773,-0.421072 -1.038825,-0.746733 z m 5.6873844,0.295243 c -0.287046,0.222343 -0.636827,0.439458 -0.82876,0.481069 -0.06969,0.01511 -0.1399,0.02232 -0.210065,0.02246 v 0.333038 c 0,0.201414 0.231699,0.363164 0.519413,0.363164 0.287714,0 0.519412,-0.16175 0.519412,-0.363164 z" />
</svg>
