<?xml version='1.0' encoding='UTF-8'?>
<svg xmlns:inkscape="http://www.inkscape.org/namespaces/inkscape" xmlns:sodipodi="http://sodipodi.sourceforge.net/DTD/sodipodi-0.dtd" xmlns="http://www.w3.org/2000/svg" xmlns:svg="http://www.w3.org/2000/svg" xmlns:rdf="http://www.w3.org/1999/02/22-rdf-syntax-ns#" xmlns:cc="http://creativecommons.org/ns#" xmlns:dc="http://purl.org/dc/elements/1.1/" width="64" height="64" version="1.1" viewBox="0 0 16.933 16.933" id="svg7" sodipodi:docname="betterbird-16.svg" inkscape:version="1.4.2 (ebf0e940d0, 2025-05-08)">
  <sodipodi:namedview id="namedview7" pagecolor="#9c4444" bordercolor="#000000" borderopacity="0.25" inkscape:showpageshadow="2" inkscape:pageopacity="0.0" inkscape:pagecheckerboard="0" inkscape:deskcolor="#d1d1d1" inkscape:zoom="4.3531261" inkscape:cx="36.295755" inkscape:cy="39.971275" inkscape:window-width="2560" inkscape:window-height="1376" inkscape:window-x="0" inkscape:window-y="0" inkscape:window-maximized="1" inkscape:current-layer="svg7" showgrid="false"/>
  <defs id="defs2">
    <style id="current-color-scheme" type="text/css">.ColorScheme-Text {color:#d8dee9} .ColorScheme-Highlight {color:#3b4252}</style>
  </defs>
  <metadata id="metadata2">
    <rdf:RDF>
      <cc:Work rdf:about="">
        <dc:format>image/svg+xml</dc:format>
        <dc:type rdf:resource="http://purl.org/dc/dcmitype/StillImage"/>
      </cc:Work>
    </rdf:RDF>
  </metadata>
  <path class="ColorScheme-Text" d="m 8.4665067,1.0473324 c 0.63498,0 1.269286,0.080827 1.8835493,0.2411363 v 7.004e-4 c 1.558114,0.4083359 2.917211,1.3106994 3.898361,2.5288171 0.01098,0.9811459 -0.116073,2.0313447 -0.380715,3.1506721 0.409048,-0.879554 0.706167,-1.759127 0.757985,-2.638681 0.483662,0.7178816 0.844334,1.5241994 1.053011,2.3906167 -0.283967,0.7821644 -0.688876,1.4433719 -1.178075,2.0203083 0.436688,-0.2735995 0.872666,-0.718563 1.309353,-1.3348899 0.10924,0.7623829 0.100154,1.5370703 -0.02694,2.2966714 -0.533419,0.5368642 -1.066162,0.8809362 -1.598875,1.1690732 0.433226,0.0318 0.898922,-0.06833 1.398489,-0.299873 -0.76143,2.576499 -2.914443,4.567771 -5.520047,5.141244 -0.4373793,-0.460164 -0.6204773,-0.987336 -1.0074063,-1.658936 -0.02141,0.415264 0.19691,1.061972 0.500242,1.752199 -0.72067,0.105813 -1.456536,0.105813 -2.177191,-6.63e-4 0.303316,-0.690264 0.520977,-1.336272 0.499549,-1.751536 -0.386929,0.671581 -0.569349,1.198772 -1.006713,1.658235 -2.604219,-0.57139 -4.759308,-2.565444 -5.520739,-5.140543 0.499566,0.231463 0.965262,0.331635 1.398488,0.299873 -0.532721,-0.288137 -1.065449,-0.632209 -1.598869,-1.1690732 -0.12709,-0.7596011 -0.136176,-1.5342696 -0.026955,-2.2966525 0.436687,0.616289 0.873373,1.0612715 1.30937,1.334871 C 1.9438707,8.1639659 1.5382857,7.5027584 1.2543017,6.7206129 1.4636557,5.8541767 1.8243287,5.04784 2.3073137,4.3299773 c 0.05183,0.879554 0.348938,1.7591081 0.757986,2.638681 -0.26465,-1.1193274 -0.391775,-2.1695451 -0.380717,-3.1506721 0.801516,-0.9956454 1.855894,-1.7798541 3.064396,-2.2558991 v -7.004e-4 c 0.862974,-0.340627 1.790229,-0.5140543 2.717516,-0.5140543 -2.702337,0 -4.893355,2.1909538 -4.893355,4.8932172 0,1.3804717 0.572119,2.6276257 1.492467,3.5168525 -0.151318,-2.3063441 1.006037,-4.1746345 2.653269,-4.5235335 -0.572119,-0.057355 -1.04472,0.051108 -1.471041,0.3157354 0.233548,-0.3502997 0.612879,-0.5126725 0.882358,-0.6404999 -0.527207,0.015143 -0.949372,0.1465103 -1.476578,0.5147547 2.271171,-2.7955266 7.4098103,0.3489179 5.5449173,2.2351719 0.215582,-0.7696902 -0.662622,-1.2402268 -1.5981833,-1.238845 -2.940697,0.00189 -2.251127,3.6640442 0.33305,3.8740801 2.2317793,0.1809612 3.4264373,-2.0949271 3.4264373,-4.0537162 0,-2.7022634 -2.19102,-4.8932172 -4.8933413,-4.8932172 z m 0.536188,3.7732084 c 0.576947,0.216945 1.1020623,0.060194 0.854702,0.3986632 -0.310931,-0.09332 -0.590069,-0.2349275 -0.854702,-0.3986632 z" id="path6-6" style="fill:currentColor;fill-opacity:1;stroke-width:0.0160977"/>
</svg>
