<?xml version="1.0" encoding="UTF-8" standalone="no"?>
<svg
   width="64"
   height="64"
   version="1.1"
   viewBox="0 0 16.933 16.933"
   id="svg7"
   sodipodi:docname="blackmagicraw-player.svg"
   inkscape:version="1.4.3 (0d15f75042, 2025-12-25)"
   xmlns:inkscape="http://www.inkscape.org/namespaces/inkscape"
   xmlns:sodipodi="http://sodipodi.sourceforge.net/DTD/sodipodi-0.dtd"
   xmlns="http://www.w3.org/2000/svg"
   xmlns:svg="http://www.w3.org/2000/svg"
   xmlns:rdf="http://www.w3.org/1999/02/22-rdf-syntax-ns#"
   xmlns:cc="http://creativecommons.org/ns#"
   xmlns:dc="http://purl.org/dc/elements/1.1/">
  <sodipodi:namedview
     id="namedview7"
     pagecolor="#9c4444"
     bordercolor="#000000"
     borderopacity="0.25"
     inkscape:showpageshadow="2"
     inkscape:pageopacity="0.0"
     inkscape:pagecheckerboard="0"
     inkscape:deskcolor="#d1d1d1"
     inkscape:zoom="4.3531262"
     inkscape:cx="89.590787"
     inkscape:cy="35.147155"
     inkscape:window-width="2560"
     inkscape:window-height="1388"
     inkscape:window-x="0"
     inkscape:window-y="0"
     inkscape:window-maximized="1"
     inkscape:current-layer="svg7"
     showgrid="false" />
  <defs
     id="defs2">
    <style
       id="current-color-scheme"
       type="text/css">.ColorScheme-Text {color:#d8dee9} .ColorScheme-Highlight {color:#3b4252}</style>
  </defs>
  <metadata
     id="metadata2">
    <rdf:RDF>
      <cc:Work
         rdf:about="">
        <dc:format>image/svg+xml</dc:format>
        <dc:type
           rdf:resource="http://purl.org/dc/dcmitype/StillImage" />
      </cc:Work>
    </rdf:RDF>
  </metadata>
  <path
     id="path5"
     style="fill:currentColor;stroke-width:0.250365"
     d="m 6.8393915,5.4616448 h 0.750972 c 0.20802,0 0.375486,0.1675204 0.375486,0.3756063 v 0.7512123 c 0,0.2080858 -0.167466,0.3756061 -0.375486,0.3756061 h -0.750972 c -0.20802,0 -0.375486,-0.1675203 -0.375486,-0.3756061 V 5.8372511 c 0,-0.2080859 0.167466,-0.3756063 0.375486,-0.3756063 z m 0,4.5072725 h 0.750972 c 0.20802,0 0.375486,0.1675207 0.375486,0.3756057 v 0.751213 c 0,0.208086 -0.167466,0.375606 -0.375486,0.375606 h -0.750972 c -0.20802,0 -0.375486,-0.16752 -0.375486,-0.375606 v -0.751213 c 0,-0.208085 0.167466,-0.3756057 0.375486,-0.3756057 z m 0,-2.2536352 h 0.750972 c 0.20802,0 0.375486,0.1675206 0.375486,0.3756064 v 0.7512123 c 0,0.2080859 -0.167466,0.3756062 -0.375486,0.3756062 h -0.750972 c -0.20802,0 -0.375486,-0.1675203 -0.375486,-0.3756062 V 8.0908885 c 0,-0.2080858 0.167466,-0.3756064 0.375486,-0.3756064 z M 8.4665005,1.4551797 A 7.0090802,7.0113165 0 0 0 1.4574195,8.466251 7.0090802,7.0113165 0 0 0 8.4665005,15.47782 7.0090802,7.0113165 0 0 0 15.47558,8.466251 7.0090802,7.0113165 0 0 0 8.4665005,1.4551797 Z m -1.627322,1.7527678 h 0.751186 c 0.20802,0 0.375345,0.1677561 0.375345,0.375842 v 0.7511863 c 0,0.2080858 -0.167325,0.3753441 -0.375345,0.3753441 h -0.751186 c -0.208019,0 -0.375344,-0.1672583 -0.375344,-0.3753441 V 3.5837895 c 0,-0.2080859 0.167325,-0.375842 0.375344,-0.375842 z m -0.973705,1.2519769 a 0.39350694,0.39557421 0 0 1 0.187175,0.053265 l 3.110778,1.8055351 3.1112745,1.8055352 a 0.39350694,0.39557421 0 0 1 0,0.6849783 l -3.1112745,1.806033 -3.110778,1.805037 A 0.39350694,0.39557421 0 0 1 5.4627505,12.077819 V 8.466749 4.855181 a 0.39350694,0.39557421 0 0 1 0.402723,-0.3952566 z m 0.973705,7.7627556 h 0.751186 c 0.20802,0 0.375345,0.167258 0.375345,0.375344 v 0.751187 c 0,0.208085 -0.167325,0.375841 -0.375345,0.375841 h -0.751186 c -0.208019,0 -0.375344,-0.167756 -0.375344,-0.375841 v -0.751187 c 0,-0.208086 0.167325,-0.375344 0.375344,-0.375344 z"
     class="ColorScheme-Text" />
</svg>
