<?xml version="1.0" encoding="UTF-8" standalone="no"?>
<svg
   width="64"
   height="64"
   version="1.1"
   viewBox="0 0 16.933 16.933"
   id="svg7"
   sodipodi:docname="blackmagicraw-speedtest.svg"
   inkscape:version="1.4.3 (0d15f75042, 2025-12-25)"
   xmlns:inkscape="http://www.inkscape.org/namespaces/inkscape"
   xmlns:sodipodi="http://sodipodi.sourceforge.net/DTD/sodipodi-0.dtd"
   xmlns="http://www.w3.org/2000/svg"
   xmlns:svg="http://www.w3.org/2000/svg"
   xmlns:rdf="http://www.w3.org/1999/02/22-rdf-syntax-ns#"
   xmlns:cc="http://creativecommons.org/ns#"
   xmlns:dc="http://purl.org/dc/elements/1.1/">
  <sodipodi:namedview
     id="namedview7"
     pagecolor="#9c4444"
     bordercolor="#000000"
     borderopacity="0.25"
     inkscape:showpageshadow="2"
     inkscape:pageopacity="0.0"
     inkscape:pagecheckerboard="0"
     inkscape:deskcolor="#d1d1d1"
     inkscape:zoom="4.3531262"
     inkscape:cx="89.590787"
     inkscape:cy="35.376875"
     inkscape:window-width="2560"
     inkscape:window-height="1388"
     inkscape:window-x="0"
     inkscape:window-y="0"
     inkscape:window-maximized="1"
     inkscape:current-layer="svg7"
     showgrid="false" />
  <defs
     id="defs2">
    <style
       id="current-color-scheme"
       type="text/css">.ColorScheme-Text {color:#d8dee9} .ColorScheme-Highlight {color:#3b4252}</style>
  </defs>
  <metadata
     id="metadata2">
    <rdf:RDF>
      <cc:Work
         rdf:about="">
        <dc:format>image/svg+xml</dc:format>
        <dc:type
           rdf:resource="http://purl.org/dc/dcmitype/StillImage" />
      </cc:Work>
    </rdf:RDF>
  </metadata>
  <path
     id="path5"
     style="fill:currentColor;fill-opacity:1;stroke-width:0.245931"
     d="m 8.4664995,1.4551797 a 7.0068415,7.0112347 0 0 0 -7.006841,7.01132 7.0068415,7.0112347 0 0 0 7.006841,7.0113203 7.0068415,7.0112347 0 0 0 7.0068415,-7.0113203 7.0068415,7.0112347 0 0 0 -7.0068415,-7.01132 z m 0.0085,0.984342 c 2.5862295,0.003 4.8080885,1.623998 5.6572275,3.935377 -0.119202,-0.162365 -0.311487,-0.258453 -0.515062,-0.254297 -0.06123,0.0013 -0.123847,0.0114 -0.185124,0.03185 l -0.163228,0.05425 C 13.059739,5.7592047 12.789777,5.3475847 12.47059,4.9814997 l -0.785282,0.786777 c -0.144257,0.148575 -0.383727,0.147698 -0.528499,-0.002 -0.141846,-0.146202 -0.138841,-0.379324 0.0065,-0.520536 l 0.782796,-0.782797 C 11.101669,3.7334627 10.024338,3.2691727 8.8353265,3.1909607 v 1.089843 c 0.007,0.496354 -0.744559,0.496354 -0.73751,0 v -1.089374 c -1.18678,0.08244 -2.259334,0.552473 -3.099332,1.282929 l 0.77135,0.77135 c 0.145328,0.141213 0.148331,0.374336 0.0065,0.520537 -0.144772,0.14975 -0.384243,0.150627 -0.528498,0.002 l -0.770355,-0.771848 c -0.730008,0.840517 -1.200038,1.913303 -1.282431,3.100826 h 1.088847 c 0.202429,-0.003 0.368569,0.15964 0.371741,0.363282 0.0033,0.208162 -0.16482,0.378261 -0.371741,0.375224 h -1.089843 c 0.07569,1.153378 0.508662,2.2490333 1.261531,3.1222243 l 0.792251,-0.793246 c 0.06915,-0.07104 0.164376,-0.110885 0.263751,-0.110477 0.330501,5.35e-4 0.49476,0.40325 0.258278,0.633005 l -0.864907,0.864907 c -0.253732,0.232479 -0.450662,0.398943 -0.692224,0.188109 -1.131542,-1.130908 -1.768283,-2.665013 -1.769626,-4.2653123 0,-3.333517 2.700527,-6.035438 6.031955,-6.035438 z m 5.1322135,3.936372 a 0.36890256,0.36890256 0 0 1 0.372238,0.251808 0.36890256,0.36890256 0 0 1 -0.233395,0.466791 l -5.1575925,1.720359 a 0.36890256,0.36890256 0 0 1 -0.466791,-0.233396 0.36890256,0.36890256 0 0 1 0.232898,-0.466791 l 5.1580905,-1.720358 a 0.36890256,0.36890256 0 0 1 0.09455,-0.01841 z m 0.64644,0.364774 c 0.104663,0.354051 0.177698,0.722344 0.215979,1.101785 h -0.723078 -0.01692 c -0.01744,-0.152295 -0.04143,-0.302309 -0.07117,-0.44987 l 0.168205,-0.05623 c 0.262484,-0.08739 0.428483,-0.333111 0.426979,-0.59568 z m -1.595449,1.356579 h 1.08835 0.743481 c 0.0077,0.125089 0.0085,0.250681 0.0085,0.377713 -0.0013,1.6002993 -0.637583,3.1344043 -1.769128,4.2653153 -0.241562,0.210834 -0.438989,0.04437 -0.692722,-0.188109 l -0.864907,-0.864907 c -0.236484,-0.229755 -0.07222,-0.632444 0.258277,-0.633004 0.09937,-3.83e-4 0.194597,0.03944 0.263752,0.110476 l 0.792251,0.793246 c 0.182651,-0.211843 0.345729,-0.437099 0.490181,-0.672815 l -0.769359,-0.444398 0.184128,-0.319985 0.765378,0.441909 c 0.156848,-0.302234 0.28409,-0.618682 0.380201,-0.946024 l -0.843011,-0.2259303 0.09505,-0.356314 0.841519,0.224936 c 0.05951,-0.269791 0.09915,-0.54478 0.117444,-0.823603 h -1.089345 c -0.206922,0.003 -0.375488,-0.167062 -0.372239,-0.375224 0.0032,-0.203642 0.169807,-0.366252 0.372239,-0.363282 z"
     class="ColorScheme-Text" />
</svg>
