<?xml version="1.0" encoding="UTF-8" standalone="no"?>
<svg
   width="64"
   height="64"
   version="1.1"
   viewBox="0 0 16.933 16.933"
   id="svg7"
   sodipodi:docname="brave.svg"
   inkscape:version="1.4.2 (ebf0e940d0, 2025-05-08)"
   xmlns:inkscape="http://www.inkscape.org/namespaces/inkscape"
   xmlns:sodipodi="http://sodipodi.sourceforge.net/DTD/sodipodi-0.dtd"
   xmlns="http://www.w3.org/2000/svg"
   xmlns:svg="http://www.w3.org/2000/svg"
   xmlns:rdf="http://www.w3.org/1999/02/22-rdf-syntax-ns#"
   xmlns:cc="http://creativecommons.org/ns#"
   xmlns:dc="http://purl.org/dc/elements/1.1/">
  <sodipodi:namedview
     id="namedview7"
     pagecolor="#9c4444"
     bordercolor="#000000"
     borderopacity="0.25"
     inkscape:showpageshadow="2"
     inkscape:pageopacity="0.0"
     inkscape:pagecheckerboard="0"
     inkscape:deskcolor="#d1d1d1"
     inkscape:zoom="6.15625"
     inkscape:cx="15.918782"
     inkscape:cy="29.64467"
     inkscape:window-width="1183"
     inkscape:window-height="941"
     inkscape:window-x="0"
     inkscape:window-y="0"
     inkscape:window-maximized="0"
     inkscape:current-layer="svg7"
     showgrid="false" />
  <defs
     id="defs2">
    <style
       id="current-color-scheme"
       type="text/css">.ColorScheme-Text {color:#d8dee9} .ColorScheme-Highlight {color:#3b4252}</style>
  </defs>
  <metadata
     id="metadata2">
    <rdf:RDF>
      <cc:Work
         rdf:about="">
        <dc:format>image/svg+xml</dc:format>
        <dc:type
           rdf:resource="http://purl.org/dc/dcmitype/StillImage" />
      </cc:Work>
    </rdf:RDF>
  </metadata>
  <path
     style="fill:currentColor;fill-opacity:1;stroke:none;stroke-width:0.403593;stroke-dasharray:none;stroke-dashoffset:2.2;stroke-opacity:0.3"
     d="M 8.2944589,15.458154 C 8.1246957,15.417521 8.0778634,15.387593 6.3708927,14.229085 4.8656982,13.20752 4.4035117,12.810026 4.1847612,12.348936 4.0701642,12.107384 3.4490492,9.8109797 2.7682481,7.1117695 L 2.4586858,5.8844323 2.6532472,5.3257842 C 2.7602557,5.0185289 2.8478089,4.7307373 2.8478089,4.6862491 c 0,-0.044487 -0.083441,-0.2468441 -0.185426,-0.4496797 C 2.5604003,4.0337328 2.4769579,3.8401278 2.4769579,3.806336 c 0,-0.086656 1.0554634,-1.1157328 1.2516218,-1.2203319 0.2257353,-0.1203732 0.9269149,-0.1236427 1.1570059,-0.00538 l 0.160344,0.082382 0.6051578,-0.6039115 0.605156,-0.6039117 h 2.200685 2.2006856 l 0.605433,0.6041884 0.605436,0.6041884 0.22558,-0.099788 c 0.185844,-0.082206 0.287544,-0.09611 0.577277,-0.078914 0.212904,0.012656 0.415719,0.054164 0.513942,0.1052383 0.193769,0.100765 0.826724,0.6770785 1.096489,0.9983706 l 0.192543,0.2293236 -0.204131,0.3967088 c -0.112271,0.2181898 -0.204133,0.436188 -0.204133,0.4844398 0,0.048251 0.08323,0.3133679 0.18491,0.5891475 0.101705,0.2757811 0.185141,0.5418015 0.185426,0.5911579 7.65e-4,0.131882 -0.912941,3.7183099 -1.465198,5.7511648 -0.258568,0.951779 -0.460718,1.224086 -1.412149,1.902179 -1.094262,0.779894 -2.8257529,1.922218 -2.9136273,1.922218 -0.048503,0 -0.1159707,0.0081 -0.1499244,0.01835 -0.033956,0.01 -0.1244193,0.0034 -0.2010282,-0.01491 z M 8.7629424,12.350152 C 8.8623435,12.274342 9.221564,12.020306 9.5612111,11.785641 9.9008594,11.550978 10.265916,11.280854 10.372449,11.185368 10.612406,10.970293 10.604602,10.959931 9.9605825,10.63861 8.6011386,9.9603433 8.4736991,9.9399376 7.7152264,10.279105 c -0.8445253,0.377647 -1.3211555,0.648369 -1.3211555,0.750406 0,0.06529 0.2168824,0.241406 0.7686047,0.624077 0.4227331,0.293204 0.8587148,0.600892 0.9688496,0.683756 0.2484396,0.186917 0.3991396,0.189976 0.6314176,0.01273 z M 6.3857194,10.594439 C 6.4922957,10.521828 6.7672389,10.365593 6.9967031,10.247251 7.43324,10.022113 8.137332,9.4576907 8.2475688,9.2445184 8.3369873,9.0716016 8.2858649,9.0046525 7.6140596,8.4148987 7.2907101,8.1310407 7.0132553,7.8581599 6.9974941,7.8084981 6.9801189,7.7537705 7.0519306,7.5056825 7.1797838,7.1787002 7.4678334,6.4420126 7.4612264,6.1776017 7.1507556,6.0170522 7.0712738,5.9759538 6.6301365,5.7973735 6.1704503,5.6202151 5.7107644,5.4430556 5.3122695,5.2836034 5.2849077,5.2658782 5.2145143,5.2202828 5.6235001,5.1725343 6.1254181,5.1677591 6.5108457,5.1640859 6.6027567,5.1816701 7.0757231,5.3493408 7.6017459,5.5358387 7.768612,5.6501906 7.7346982,5.8009292 7.7246422,5.8456482 7.6327003,6.2508403 7.5303908,6.7013743 7.428082,7.1519088 7.3443719,7.5512063 7.3443719,7.5887015 c 0,0.092202 0.2776591,0.1968572 0.7641284,0.2880132 0.3761658,0.070488 0.4280758,0.070286 0.7585523,-0.00291 0.4606654,-0.1020374 0.7024255,-0.2001643 0.7024255,-0.2850991 0,-0.0375 -0.083708,-0.4367922 -0.1860192,-0.8873262 C 9.2811485,6.2508359 9.1892104,5.845635 9.1791512,5.8009256 9.1447446,5.648002 9.3127414,5.5325615 9.838534,5.3478154 10.276995,5.1937559 10.42158,5.163694 10.724094,5.163694 c 0.428519,0 0.931422,0.047746 0.931422,0.088436 0,0.015875 -0.109506,0.067367 -0.243374,0.1144159 -0.75964,0.2670127 -1.6892355,0.6593455 -1.7819653,0.752075 -0.1702764,0.1702783 -0.144031,0.4378401 0.1030398,1.0505145 0.127532,0.3162517 0.2002991,0.5609918 0.1851659,0.6227971 -0.013711,0.055997 -0.2699221,0.3145173 -0.5693572,0.5744844 -0.6523323,0.56635 -0.7066744,0.6247715 -0.7066744,0.7597317 0,0.1449511 0.6440997,0.7517591 1.1259332,1.0607444 0.574575,0.368458 0.891302,0.539563 0.998762,0.539563 0.119217,0 0.633869,-0.450447 0.807497,-0.706761 0.261675,-0.3862886 0.263328,-0.536222 0.01346,-1.2286472 -0.08823,-0.2445835 -0.10896,-0.3590256 -0.07621,-0.4202421 0.02475,-0.046268 0.343608,-0.3533622 0.708549,-0.6824316 0.36494,-0.3290689 0.807406,-0.7391684 0.983252,-0.911334 l 0.31977,-0.3130259 -0.02742,-0.3270007 C 13.47994,5.9440848 13.427605,5.7278751 13.368579,5.6097059 13.18229,5.2367014 11.858017,3.4827493 11.723786,3.4312398 c -0.02724,-0.010492 -0.371906,0.062148 -0.765845,0.1613624 -0.393937,0.099216 -0.767453,0.1803924 -0.830038,0.1803924 -0.06258,0 -0.3337726,-0.061783 -0.6026427,-0.1373009 C 8.571211,3.367742 8.3529885,3.3678237 7.3907308,3.6365282 7.1230231,3.7112724 6.8423588,3.7725633 6.7670327,3.7727306 6.6917066,3.7728974 6.4100917,3.7107613 6.1412217,3.6346489 5.8723497,3.558508 5.5517405,3.4774724 5.4287542,3.4545405 L 5.2051421,3.4128418 4.9651899,3.7170023 C 4.5166607,4.2855524 3.823053,5.278518 3.6632172,5.5808983 c -0.219241,0.4147653 -0.2875946,0.70015 -0.211624,0.883561 0.034401,0.08303 0.4468974,0.4959165 0.9983093,0.9992352 0.5168344,0.4717569 0.951953,0.8896707 0.9669278,0.9286982 0.014984,0.039031 -0.026446,0.2203154 -0.092047,0.4028628 -0.210266,0.5850895 -0.2185046,0.6298618 -0.1566018,0.8509591 0.031395,0.1121483 0.1190966,0.2895033 0.1948808,0.3941194 0.1951513,0.269401 0.6444355,0.682424 0.7445149,0.68443 0.046401,9.02e-4 0.1715603,-0.05771 0.2781384,-0.130325 z"
     id="path14"
     class="ColorScheme-Text" />
</svg>
