<?xml version='1.0' encoding='UTF-8'?>
<svg xmlns:inkscape="http://www.inkscape.org/namespaces/inkscape" xmlns:sodipodi="http://sodipodi.sourceforge.net/DTD/sodipodi-0.dtd" xmlns="http://www.w3.org/2000/svg" xmlns:svg="http://www.w3.org/2000/svg" xmlns:rdf="http://www.w3.org/1999/02/22-rdf-syntax-ns#" xmlns:cc="http://creativecommons.org/ns#" xmlns:dc="http://purl.org/dc/elements/1.1/" width="64" height="64" version="1.1" viewBox="0 0 16.933 16.933" id="svg7" sodipodi:docname="byte.svg" inkscape:version="1.4 (e7c3feb100, 2024-10-09)">
  <sodipodi:namedview id="namedview7" pagecolor="#9c4444" bordercolor="#000000" borderopacity="0.25" inkscape:showpageshadow="2" inkscape:pageopacity="0.0" inkscape:pagecheckerboard="0" inkscape:deskcolor="#d1d1d1" inkscape:zoom="6.15625" inkscape:cx="15.837563" inkscape:cy="29.725888" inkscape:window-width="1183" inkscape:window-height="941" inkscape:window-x="35" inkscape:window-y="32" inkscape:window-maximized="0" inkscape:current-layer="svg7" showgrid="false"/>
  <defs id="defs2">
    <style id="current-color-scheme" type="text/css">.ColorScheme-Text {color:#d8dee9} .ColorScheme-Highlight {color:#3b4252}</style></defs>
  <metadata id="metadata2">
    <rdf:RDF>
      <cc:Work rdf:about="">
        <dc:format>image/svg+xml</dc:format>
        <dc:type rdf:resource="http://purl.org/dc/dcmitype/StillImage"/>
      </cc:Work>
    </rdf:RDF>
  </metadata>
  <path style="fill:currentColor;fill-opacity:1;stroke-width:0.0443523" d="M 7.7679511,15.906119 C 4.5115314,15.571162 1.8789845,13.242953 1.1737552,10.07425 1.0408713,9.4771822 1.0171618,9.2337515 1.0171618,8.4664719 c 0,-0.6259896 0.00589,-0.7475442 0.049917,-1.0311963 C 1.1639037,6.8115517 1.3010867,6.2883837 1.5048779,5.7656699 2.4138928,3.4340935 4.4152529,1.7175446 6.8587241,1.1737235 7.4557923,1.0408394 7.6992227,1.0171293 8.4665026,1.0171293 c 0.6259896,0 0.7475442,0.00589 1.0311957,0.049917 0.6237237,0.096828 1.1468917,0.2340082 1.6696067,0.4377999 2.331227,0.9088783 4.048204,2.9107406 4.591946,5.3538459 0.132886,0.5970679 0.156579,0.840499 0.156579,1.6077781 0,0.7672798 -0.02371,1.0107107 -0.156579,1.6077788 -0.632596,2.842343 -2.842858,5.0526 -5.68497,5.684952 -0.5383775,0.119795 -0.8322932,0.150993 -1.4968973,0.158916 -0.3415141,0.0042 -0.7057593,-0.0012 -0.8094334,-0.01178 z M 7.897039,13.489781 c 0.5465912,-0.15409 0.8554326,-0.481943 1.0520497,-1.116843 l 0.04914,-0.158688 0.011343,-3.0663891 0.011343,-3.0663887 0.2127024,0.1296883 C 9.9430923,6.6437413 10.40776,7.149671 10.55233,7.6469726 c 0.07951,0.2735187 0.0035,1.354393 -0.164164,2.3330189 -0.03395,0.1982005 -0.05444,0.3603645 -0.04553,0.3603645 0.02471,0 0.211492,-0.255698 0.31007,-0.4244876 0.180583,-0.3091955 0.335677,-0.7389428 0.423401,-1.1732047 0.04521,-0.2237893 0.05119,-0.3160293 0.05037,-0.7751573 -9.08e-4,-0.4947551 -0.004,-0.5322907 -0.06059,-0.7413224 C 10.946431,6.7852675 10.759661,6.4823893 10.285427,5.960555 9.7739175,5.3977051 9.6419623,5.2080148 9.4255572,4.7244587 9.2919219,4.4258504 9.0222651,3.7086306 9.001709,3.5971243 8.9809928,3.4847655 8.8813543,3.3964397 8.762025,3.3846574 8.6512911,3.3737134 8.5794483,3.4055764 8.5129941,3.4950702 L 8.466503,3.5576809 8.455407,6.9415695 8.44433,10.325458 8.2114798,10.364969 c -0.7582445,0.128656 -1.5972861,0.52623 -2.0291323,0.961487 -0.2788995,0.281101 -0.3880843,0.529551 -0.3880843,0.883082 0,0.376082 0.1084919,0.636661 0.3760366,0.903176 0.2354164,0.234508 0.496276,0.355676 0.9060604,0.420863 0.2007304,0.03192 0.6340731,0.0089 0.8206771,-0.04379 z" id="path5" class="ColorScheme-Text"/>
  </svg>
