<?xml version='1.0' encoding='UTF-8'?>
<svg xmlns:inkscape="http://www.inkscape.org/namespaces/inkscape" xmlns:sodipodi="http://sodipodi.sourceforge.net/DTD/sodipodi-0.dtd" xmlns="http://www.w3.org/2000/svg" xmlns:svg="http://www.w3.org/2000/svg" xmlns:rdf="http://www.w3.org/1999/02/22-rdf-syntax-ns#" xmlns:cc="http://creativecommons.org/ns#" xmlns:dc="http://purl.org/dc/elements/1.1/" width="64" height="64" version="1.1" viewBox="0 0 16.933 16.933" id="svg7" sodipodi:docname="calf.svg" inkscape:version="1.4.2 (ebf0e940d0, 2025-05-08)">
  <sodipodi:namedview id="namedview7" pagecolor="#a9abb3" bordercolor="#000000" borderopacity="0.25" inkscape:showpageshadow="2" inkscape:pageopacity="0.0" inkscape:pagecheckerboard="0" inkscape:deskcolor="#d1d1d1" inkscape:zoom="4.3531261" inkscape:cx="36.066035" inkscape:cy="26.417797" inkscape:window-width="1920" inkscape:window-height="1044" inkscape:window-x="0" inkscape:window-y="0" inkscape:window-maximized="1" inkscape:current-layer="svg7" showgrid="false"/>
  <defs id="defs2">
    <style id="current-color-scheme" type="text/css">.ColorScheme-Text {color:#d8dee9} .ColorScheme-Highlight {color:#3b4252}</style>
  </defs>
  <metadata id="metadata2">
    <rdf:RDF>
      <cc:Work rdf:about="">
        <dc:format>image/svg+xml</dc:format>
        <dc:type rdf:resource="http://purl.org/dc/dcmitype/StillImage"/>
      </cc:Work>
    </rdf:RDF>
  </metadata>
  <path id="ellipse6-7-6" style="fill:currentColor;fill-opacity:1;stroke-width:0.538125" class="ColorScheme-Text" d="M 5.164703,3.9330681 A 3.8637707,4.5331562 0 0 0 1.300137,8.4665004 3.8637707,4.5331562 0 0 0 5.164703,12.999932 3.8637707,4.5331562 0 0 0 8.466012,10.809491 3.8637707,4.5331562 0 0 0 11.769275,12.999932 3.8637707,4.5331562 0 0 0 15.632863,8.4665004 3.8637707,4.5331562 0 0 0 11.769275,3.9330681 3.8637707,4.5331562 0 0 0 8.466012,6.1235099 3.8637707,4.5331562 0 0 0 5.164703,3.9330681 Z m 4.616551,3.567291 A 1.5443887,1.5427789 0 0 1 11.32532,9.0424694 1.5443887,1.5427789 0 0 1 9.781254,10.585557 1.5443887,1.5427789 0 0 1 8.325197,9.5578099 1.0097916,1.0087375 0 0 1 7.456845,10.051637 1.0097916,1.0087375 0 0 1 6.446697,9.0424694 1.0097916,1.0087375 0 0 1 7.456845,8.0342792 1.0097916,1.0087375 0 0 1 8.325197,8.5281067 1.5443887,1.5427789 0 0 1 9.781254,7.5003591 Z"/>
</svg>
