<?xml version="1.0" encoding="UTF-8" standalone="no"?>
<svg
   width="64"
   height="64"
   version="1.1"
   viewBox="0 0 16.933 16.933"
   id="svg7"
   sodipodi:docname="cantata.svg"
   inkscape:version="1.4.3 (0d15f75042, 2025-12-25)"
   xmlns:inkscape="http://www.inkscape.org/namespaces/inkscape"
   xmlns:sodipodi="http://sodipodi.sourceforge.net/DTD/sodipodi-0.dtd"
   xmlns="http://www.w3.org/2000/svg"
   xmlns:svg="http://www.w3.org/2000/svg"
   xmlns:rdf="http://www.w3.org/1999/02/22-rdf-syntax-ns#"
   xmlns:cc="http://creativecommons.org/ns#"
   xmlns:dc="http://purl.org/dc/elements/1.1/">
  <sodipodi:namedview
     id="namedview7"
     pagecolor="#9c4444"
     bordercolor="#000000"
     borderopacity="0.25"
     inkscape:showpageshadow="2"
     inkscape:pageopacity="0.0"
     inkscape:pagecheckerboard="0"
     inkscape:deskcolor="#d1d1d1"
     inkscape:zoom="6.15625"
     inkscape:cx="15.51269"
     inkscape:cy="30.050761"
     inkscape:window-width="2560"
     inkscape:window-height="1388"
     inkscape:window-x="0"
     inkscape:window-y="0"
     inkscape:window-maximized="1"
     inkscape:current-layer="svg7"
     showgrid="false" />
  <defs
     id="defs2">
    <style
       id="current-color-scheme"
       type="text/css">.ColorScheme-Text {color:#d8dee9} .ColorScheme-Highlight {color:#3b4252}</style>
  </defs>
  <metadata
     id="metadata2">
    <rdf:RDF>
      <cc:Work
         rdf:about="">
        <dc:format>image/svg+xml</dc:format>
        <dc:type
           rdf:resource="http://purl.org/dc/dcmitype/StillImage" />
      </cc:Work>
    </rdf:RDF>
  </metadata>
  <path
     id="path5"
     d="m 7.9865971,1.4716602 a 7.0084168,7.0084168 0 0 0 -6.5284342,7.0311489 7.0084168,7.0084168 0 0 0 14.0166741,0 7.0084168,7.0084168 0 0 0 -7.4882399,-7.0311489 z m 0.469515,1.318153 c 3.1444979,0 5.7027139,2.558216 5.7027139,5.7027145 0,3.1444993 -2.558216,5.7027143 -5.7027139,5.7027143 -3.144499,0 -5.702715,-2.558215 -5.702715,-5.7027143 0,-3.1444985 2.558216,-5.7027145 5.702715,-5.7027145 z m 0.625448,1.286024 c -0.02788,4.22e-4 -0.05646,0.0091 -0.08568,0.02999 -0.262413,0.571807 -0.119436,1.234143 -0.23133,1.839288 L 8.5368611,8.9252037 C 6.9989921,8.2382569 4.6665412,9.274049 4.9880865,10.514313 c 0.1238804,1.197899 2.5025306,1.861031 3.8647116,1.04891 1.2736789,-0.795649 0.824049,-2.0692148 0.994934,-3.102393 L 10.00645,5.6713752 c 0.663576,0.621267 1.603278,1.494457 0.777097,2.2520407 -0.571478,0.3278074 -0.06829,1.1046583 0.677283,0.787379 1.264577,-0.6593216 1.286597,-2.0598267 0.293447,-2.8447177 -0.737844,-0.586173 -1.590521,-1.118328 -2.4030489,-1.661292 -0.07934,-0.02682 -0.170085,-0.130448 -0.26967,-0.128945 z"
     style="fill:currentColor;stroke-width:0.109668"
     class="ColorScheme-Text" />
</svg>
