<?xml version='1.0' encoding='UTF-8'?>
<svg xmlns:inkscape="http://www.inkscape.org/namespaces/inkscape" xmlns:sodipodi="http://sodipodi.sourceforge.net/DTD/sodipodi-0.dtd" xmlns="http://www.w3.org/2000/svg" xmlns:svg="http://www.w3.org/2000/svg" xmlns:rdf="http://www.w3.org/1999/02/22-rdf-syntax-ns#" xmlns:cc="http://creativecommons.org/ns#" xmlns:dc="http://purl.org/dc/elements/1.1/" width="64" height="64" version="1.1" viewBox="0 0 16.933 16.933" id="svg7" sodipodi:docname="cinnamon-virtual-keyboard.svg" inkscape:version="1.4 (e7c3feb100, 2024-10-09)">
  <sodipodi:namedview id="namedview7" pagecolor="#9c4444" bordercolor="#000000" borderopacity="0.25" inkscape:showpageshadow="2" inkscape:pageopacity="0.0" inkscape:pagecheckerboard="0" inkscape:deskcolor="#d1d1d1" inkscape:zoom="6.15625" inkscape:cx="19.573604" inkscape:cy="29.725888" inkscape:window-width="1183" inkscape:window-height="941" inkscape:window-x="35" inkscape:window-y="32" inkscape:window-maximized="0" inkscape:current-layer="svg7" showgrid="false"/>
  <defs id="defs2">
    <style id="current-color-scheme" type="text/css">.ColorScheme-Text {color:#d8dee9} .ColorScheme-Highlight {color:#3b4252}</style></defs>
  <metadata id="metadata2">
    <rdf:RDF>
      <cc:Work rdf:about="">
        <dc:format>image/svg+xml</dc:format>
        <dc:type rdf:resource="http://purl.org/dc/dcmitype/StillImage"/>
      </cc:Work>
    </rdf:RDF>
  </metadata>
  <path style="fill:currentColor;fill-opacity:1;stroke:none;stroke-width:0.421696;stroke-dasharray:none;stroke-opacity:0.3" class="ColorScheme-Text" d="m 3.4972362,3.141665 c 0,0 -1.8358684,0 -1.8358684,1.8358676 v 7.3434734 c 0,1.835867 1.8358684,1.835867 1.8358684,1.835867 H 13.594508 c 0,0 1.835869,0 1.835869,-1.835867 V 4.9775326 c 0,-1.8358676 -1.835869,-1.8358676 -1.835869,-1.8358676 z m 0.2294833,1.8358676 h 1.3769011 c 0.1271309,0 0.229483,0.102353 0.229483,0.2294847 v 1.3769015 c 0,0.1271309 -0.102353,0.2294828 -0.229483,0.2294828 H 3.7267195 c -0.1271328,0 -0.2294833,-0.102353 -0.2294833,-0.2294828 V 5.2070173 c 0,-0.1271347 0.102353,-0.2294847 0.2294833,-0.2294847 z m 2.7538021,0 h 1.3769005 c 0.1271347,0 0.2294839,0.102353 0.2294839,0.2294847 v 1.3769015 c 0,0.1271309 -0.102353,0.2294828 -0.2294839,0.2294828 H 6.4805216 c -0.1271328,0 -0.2294835,-0.102353 -0.2294835,-0.2294828 V 5.2070173 c 0,-0.1271347 0.102353,-0.2294847 0.2294835,-0.2294847 z m 2.7538016,0 h 1.3769008 c 0.127125,0 0.229485,0.102353 0.229485,0.2294847 v 1.3769015 c 0,0.1271309 -0.102359,0.2294828 -0.229485,0.2294828 H 9.2343232 c -0.1271347,0 -0.2294827,-0.102353 -0.2294827,-0.2294828 V 5.2070173 c 0,-0.1271347 0.1023511,-0.2294847 0.2294827,-0.2294847 z m 2.7538028,0 h 1.376902 c 0.127148,0 0.22948,0.102353 0.22948,0.2294847 v 1.3769015 c 0,0.1271309 -0.102372,0.2294828 -0.22948,0.2294828 h -1.376902 c -0.127129,0 -0.229486,-0.102353 -0.229486,-0.2294828 V 5.2070173 c 0,-0.1271347 0.102372,-0.2294847 0.229486,-0.2294847 z m -8.2614065,2.753804 h 1.3769011 c 0.1271309,0 0.229483,0.1023511 0.229483,0.2294826 v 1.3769011 c 0,0.1271347 -0.102353,0.2294835 -0.229483,0.2294835 H 3.7267195 c -0.1271328,0 -0.2294833,-0.1023511 -0.2294833,-0.2294835 V 7.9608192 c 0,-0.1271366 0.102353,-0.2294826 0.2294833,-0.2294826 z m 2.7538021,0 h 1.3769005 c 0.1271347,0 0.2294839,0.1023511 0.2294839,0.2294826 v 1.3769011 c 0,0.1271347 -0.102353,0.2294835 -0.2294839,0.2294835 H 6.4805216 c -0.1271309,0 -0.2294835,-0.1023511 -0.2294835,-0.2294835 V 7.9608192 c 0,-0.1271366 0.102353,-0.2294826 0.2294835,-0.2294826 z m 2.7538016,0 h 1.3769008 c 0.127125,0 0.229485,0.1023511 0.229485,0.2294826 v 1.3769011 c 0,0.1271347 -0.102359,0.2294835 -0.229485,0.2294835 H 9.2343232 c -0.1271347,0 -0.2294827,-0.1023511 -0.2294827,-0.2294835 V 7.9608192 c 0,-0.1271366 0.1023511,-0.2294826 0.2294827,-0.2294826 z m 2.7538028,0 h 1.376902 c 0.127148,0 0.22948,0.1023511 0.22948,0.2294826 v 1.3769011 c 0,0.1271347 -0.102372,0.2294835 -0.22948,0.2294835 h -1.376902 c -0.127129,0 -0.229486,-0.1023511 -0.229486,-0.2294835 V 7.9608192 c 0,-0.1271366 0.102372,-0.2294826 0.229486,-0.2294826 z M 5.5625867,10.485137 h 5.9665713 c 0.127148,0 0.229482,0.102357 0.229482,0.229482 v 1.376905 c 0,0.127129 -0.102372,0.229482 -0.229482,0.229482 H 5.5625867 c -0.1271328,0 -0.2294831,-0.102353 -0.2294831,-0.229482 v -1.376905 c 0,-0.127139 0.102353,-0.229482 0.2294831,-0.229482 z" id="path5"/>
  </svg>
