<?xml version='1.0' encoding='UTF-8'?>
<svg xmlns:inkscape="http://www.inkscape.org/namespaces/inkscape" xmlns:sodipodi="http://sodipodi.sourceforge.net/DTD/sodipodi-0.dtd" xmlns="http://www.w3.org/2000/svg" xmlns:svg="http://www.w3.org/2000/svg" xmlns:rdf="http://www.w3.org/1999/02/22-rdf-syntax-ns#" xmlns:cc="http://creativecommons.org/ns#" xmlns:dc="http://purl.org/dc/elements/1.1/" width="64" height="64" version="1.1" viewBox="0 0 16.933 16.933" id="svg7" sodipodi:docname="cinny.svg" inkscape:version="1.4 (e7c3feb100, 2024-10-09)">
  <sodipodi:namedview id="namedview7" pagecolor="#9c4444" bordercolor="#000000" borderopacity="0.25" inkscape:showpageshadow="2" inkscape:pageopacity="0.0" inkscape:pagecheckerboard="0" inkscape:deskcolor="#d1d1d1" inkscape:zoom="4.3531261" inkscape:cx="22.397697" inkscape:cy="29.633876" inkscape:window-width="1183" inkscape:window-height="941" inkscape:window-x="35" inkscape:window-y="32" inkscape:window-maximized="0" inkscape:current-layer="svg7" showgrid="false"/>
  <defs id="defs2">
    <style id="current-color-scheme" type="text/css">.ColorScheme-Text {color:#d8dee9} .ColorScheme-Highlight {color:#3b4252}</style></defs>
  <metadata id="metadata2">
    <rdf:RDF>
      <cc:Work rdf:about="">
        <dc:format>image/svg+xml</dc:format>
        <dc:type rdf:resource="http://purl.org/dc/dcmitype/StillImage"/>
      </cc:Work>
    </rdf:RDF>
  </metadata>
  <path style="fill:currentColor;fill-opacity:1;stroke-width:0.362803" d="M 7.9949311,2.0686535 C 5.9632371,2.2943976 4.4972889,3.7216715 4.4972889,5.7533662 v 0.3387096 l -3.9154816,2.4421281 0.004579,6.2369001 c 4.6606e-4,0.635527 5.3500293,0.36078 6.73113,0.309117 0.3386113,-0.338616 0.5641337,-0.513901 0.9027493,-0.965388 1.0158475,-1.467336 1.4682166,-3.047448 1.4682166,-4.740527 0,-1.3544642 0.4513628,-2.3797583 1.2414658,-3.3956059 0.790103,-1.1287189 1.917843,-1.5801747 3.272309,-1.5801747 0.790102,-7e-7 1.468404,0.1143838 2.145634,0.3401276 C 15.670661,4.2871657 14.880402,3.9482665 14.090298,3.7225221 13.638809,3.6096507 13.186945,3.6091453 12.735457,3.6091453 c -0.338616,0 -0.677515,5.079e-4 -1.016129,0.1133768 C 11.042095,2.5938034 9.8014803,2.0686535 8.4470174,2.0686535 Z m 1.899045,1.1054135 c 0.3005559,4e-7 0.5442039,0.2436482 0.5442039,0.5442035 1e-6,0.3005559 -0.243647,0.5442039 -0.5442039,0.5442043 -0.3005558,0 -0.5442041,-0.2436482 -0.5442037,-0.5442043 0,-0.3005553 0.2436484,-0.5442035 0.5442037,-0.5442035 z" id="path3-6" sodipodi:nodetypes="csccsccscsccscscsssss" class="ColorScheme-Text"/>
  </svg>
