<?xml version='1.0' encoding='UTF-8'?>
<svg xmlns:inkscape="http://www.inkscape.org/namespaces/inkscape" xmlns:sodipodi="http://sodipodi.sourceforge.net/DTD/sodipodi-0.dtd" xmlns="http://www.w3.org/2000/svg" xmlns:svg="http://www.w3.org/2000/svg" xmlns:rdf="http://www.w3.org/1999/02/22-rdf-syntax-ns#" xmlns:cc="http://creativecommons.org/ns#" xmlns:dc="http://purl.org/dc/elements/1.1/" width="64" height="64" version="1.1" viewBox="0 0 16.933 16.933" id="svg7" sodipodi:docname="clamav.svg" inkscape:version="1.4 (e7c3feb100, 2024-10-09)">
  <sodipodi:namedview id="namedview7" pagecolor="#9c4444" bordercolor="#000000" borderopacity="0.25" inkscape:showpageshadow="2" inkscape:pageopacity="0.0" inkscape:pagecheckerboard="0" inkscape:deskcolor="#d1d1d1" inkscape:zoom="6.15625" inkscape:cx="15.837563" inkscape:cy="29.725888" inkscape:window-width="1183" inkscape:window-height="941" inkscape:window-x="35" inkscape:window-y="32" inkscape:window-maximized="0" inkscape:current-layer="svg7" showgrid="false"/>
  <defs id="defs2">
    <style id="current-color-scheme" type="text/css">.ColorScheme-Text {color:#d8dee9} .ColorScheme-Highlight {color:#3b4252}</style></defs>
  <metadata id="metadata2">
    <rdf:RDF>
      <cc:Work rdf:about="">
        <dc:format>image/svg+xml</dc:format>
        <dc:type rdf:resource="http://purl.org/dc/dcmitype/StillImage"/>
      </cc:Work>
    </rdf:RDF>
  </metadata>
  <path id="path2" style="fill:currentColor;fill-opacity:1;stroke-width:0.155758" d="M 13.727742,1.2748936 13.626985,1.664552 C 13.424696,2.4422496 12.918312,3.3488011 12.347037,3.9565855 L 12.051766,4.2703526 11.507138,3.9827323 C 10.533895,3.4685644 9.5668686,3.2225484 8.5218827,3.2225484 c -1.1327219,0 -2.2155192,0.2941008 -3.2110149,0.8724262 L 5.0066668,4.2716283 4.7745299,4.0452307 C 4.4736976,3.7517919 4.0895999,3.2316171 3.8593748,2.8067422 3.6624938,2.4434042 3.3583279,1.6232987 3.3523722,1.4394305 c -0.00352,-0.109041 -0.00526,-0.1094134 -0.048469,-0.00895 -0.071058,0.1653646 -0.058131,0.8932064 0.024873,1.4049387 0.1048743,0.6465945 0.2396665,1.0559463 0.5446287,1.6549321 L 4.1336026,5.0011929 3.8147337,5.3417453 C 2.3308695,6.928 1.8143603,9.414967 2.5265012,11.540565 c 0.7251392,2.164398 2.6230236,3.810524 4.8582938,4.214181 0.5592526,0.100966 1.6630588,0.102619 2.2333609,0.0032 C 12.949821,15.176958 15.242869,12.013036 14.774274,8.6439723 14.610226,7.4645048 13.999024,6.1647488 13.212453,5.3239049 L 12.910801,5.0018462 13.168447,4.4884667 C 13.309966,4.205963 13.48622,3.7646228 13.56002,3.5076248 13.723154,2.9395352 13.823118,2.0137386 13.767923,1.5867554 Z m -0.743599,7.7102615 c 0.0623,0 0.245626,0.4951482 0.294633,0.7958981 0.166687,1.0228148 -0.599625,2.0982148 -1.667687,2.3411398 -0.912478,0.207539 -1.7252361,-0.02165 -2.3086145,-0.651769 -0.1621086,-0.175098 -0.2752857,-0.337409 -0.2519066,-0.360326 0.054388,-0.05331 1.3459011,-0.768476 1.9897441,-1.10201 0.271278,-0.1405309 0.812096,-0.4279427 1.202139,-0.6390141 0.39004,-0.211071 0.723796,-0.3839188 0.741692,-0.3839188 z m -8.950028,0.023598 c 0.026644,-0.016473 0.4518483,0.18829 0.9444911,0.4547078 0.4926432,0.2664186 0.9653273,0.5149291 1.0509937,0.5522811 0.085667,0.03735 0.412912,0.214705 0.7270223,0.394122 0.3141093,0.179417 0.72938,0.412859 0.9228074,0.51848 l 0.352032,0.19196 -0.1065026,0.148591 C 7.6477679,11.658181 7.1447408,11.98913 6.6137687,12.130484 6.0871961,12.27067 5.4024697,12.194119 4.9027152,11.939162 4.5817216,11.775405 4.1190248,11.309441 3.9671527,10.997219 3.7878835,10.628679 3.7022298,10.18221 3.7471327,9.8512055 3.7871558,9.5561693 3.9574334,9.0561441 4.034115,9.0087531 Z m 7.010661,1.0643859 c -0.04509,0.0016 -0.124505,0.04441 -0.295271,0.139026 l -0.31632,0.17474 0.100765,0.29846 c 0.07496,0.22203 0.09594,0.401072 0.08227,0.702151 -0.01596,0.351177 -0.0092,0.392166 0.05293,0.311858 0.268802,-0.347709 0.552188,-1.339806 0.445781,-1.561187 -0.02049,-0.0426 -0.03507,-0.0663 -0.07015,-0.06505 z m -5.0910673,0.0019 c -0.078823,0 -0.065461,0.401365 0.025509,0.750615 0.043723,0.167865 0.1548899,0.44703 0.2468051,0.619886 l 0.1670879,0.314408 0.030615,-0.491701 C 6.4406548,10.997787 6.49254,10.688128 6.53852,10.580777 L 6.622059,10.38563 6.314669,10.230659 C 6.1454955,10.145261 5.9830793,10.075051 5.9537087,10.075051 Z" class="ColorScheme-Text"/>
  <g id="g9" transform="matrix(0.46959567,0,0,0.46959567,4.7471229,3.7470598)" style="fill:#999999;fill-opacity:1;stroke:none;stroke-width:0.58349;stroke-dasharray:none;stroke-opacity:0.3"/>
  </svg>
