<?xml version="1.0" encoding="UTF-8" standalone="no"?>
<svg
   width="64"
   height="64"
   version="1.1"
   viewBox="0 0 16.933 16.933"
   id="svg7"
   sodipodi:docname="claws-mail.svg"
   inkscape:version="1.4.2 (ebf0e940d0, 2025-05-08)"
   xmlns:inkscape="http://www.inkscape.org/namespaces/inkscape"
   xmlns:sodipodi="http://sodipodi.sourceforge.net/DTD/sodipodi-0.dtd"
   xmlns="http://www.w3.org/2000/svg"
   xmlns:svg="http://www.w3.org/2000/svg"
   xmlns:rdf="http://www.w3.org/1999/02/22-rdf-syntax-ns#"
   xmlns:cc="http://creativecommons.org/ns#"
   xmlns:dc="http://purl.org/dc/elements/1.1/">
  <sodipodi:namedview
     id="namedview7"
     pagecolor="#9c4444"
     bordercolor="#000000"
     borderopacity="0.25"
     inkscape:showpageshadow="2"
     inkscape:pageopacity="0.0"
     inkscape:pagecheckerboard="0"
     inkscape:deskcolor="#d1d1d1"
     inkscape:zoom="8.7062524"
     inkscape:cx="78.047358"
     inkscape:cy="43.531933"
     inkscape:window-width="2560"
     inkscape:window-height="1388"
     inkscape:window-x="0"
     inkscape:window-y="0"
     inkscape:window-maximized="1"
     inkscape:current-layer="svg7"
     showgrid="false" />
  <defs
     id="defs2">
    <style
       id="current-color-scheme"
       type="text/css">.ColorScheme-Text {color:#d8dee9} .ColorScheme-Highlight {color:#3b4252}</style>
  </defs>
  <metadata
     id="metadata2">
    <rdf:RDF>
      <cc:Work
         rdf:about="">
        <dc:format>image/svg+xml</dc:format>
        <dc:type
           rdf:resource="http://purl.org/dc/dcmitype/StillImage" />
      </cc:Work>
    </rdf:RDF>
  </metadata>
  <path
     id="path5"
     style="fill:currentColor;stroke:none;stroke-width:0.0302206"
     d="m 7.2072127,1.4552156 c -0.516142,-0.0038 -1.067437,0.276414 -1.424677,0.587236 -0.140968,0.122651 -0.461638,0.388823 -0.461278,0.595677 3.23e-4,0.186474 0.368726,0.421207 0.491498,0.543971 0.469284,0.469254 0.927335,0.94127 1.316899,1.48081 0.982301,1.360473 1.402957,2.929706 1.402957,4.593534 0.329291,-0.325819 0.492562,-0.983943 0.617103,-1.420369 0.440255,-1.542782 0.264678,-3.189413 -0.366839,-4.653975 -0.207764,-0.481832 -0.477083,-1.206885 -0.915177,-1.522009 -0.198541,-0.142812 -0.425875,-0.20317 -0.660486,-0.204875 z m 2.771503,1.087765 c -0.268003,0.01337 -0.539754,0.09265 -0.78125,0.18581 0.216526,0.5581 0.451934,1.102635 0.574073,1.692354 0.08394,0.405291 0.05825,0.919145 0.206823,1.299487 0.1610743,0.412351 0.5028913,0.770056 0.6905883,1.178604 0.493929,1.075106 0.7044,2.237153 0.7044,3.4149304 0.314781,-0.311464 0.475752,-0.9424224 0.595618,-1.3599284 0.447516,-1.558737 0.271606,-3.163909 -0.329712,-4.653975 -0.191097,-0.473538 -0.484601,-1.233706 -0.901778,-1.547626 -0.226533,-0.170463 -0.49076,-0.223024 -0.7587623,-0.209656 z m 2.1803703,1.485296 c 0.046,0.30707 0.209319,0.609013 0.301439,0.906619 0.146004,0.471685 0.236361,0.960929 0.294356,1.45059 0.04176,0.352563 0.06746,0.733237 0.0337,1.087942 -0.02088,0.219381 -0.101862,0.50898 -0.06115,0.725295 0.07043,0.374205 0.325742,0.747522 0.437372,1.118163 0.244166,0.8106944 0.354207,1.6635064 0.354207,2.5083114 0.290469,-0.350563 0.442834,-0.900292 0.5749,-1.329707 0.477883,-1.5538474 0.292314,-3.1941584 -0.308994,-4.6841964 -0.299529,-0.742231 -0.704781,-1.764003 -1.625834,-1.783017 z m -9.2174663,3.435825 c -0.12351,-9.64e-4 -0.250002,0.01507 -0.33225,0.02686 -0.541264,0.07754 -1.203817,0.34179 -1.315541,0.94953 -0.06823,0.371128 0.143479,0.88304 0.24507,1.239045 0.400076,1.4019794 1.387504,2.9806434 3.004591,3.1127244 -0.174087,-0.367997 -0.439274,-0.694316 -0.626842,-1.057722 -0.389301,-0.754257 -0.621165,-1.597004 -0.642011,-2.4478704 -0.0101,-0.412363 -0.0413,-0.860299 0.0124,-1.269266 0.01489,-0.113383 0.07294,-0.395006 -0.03105,-0.478158 -0.07033,-0.05624 -0.190855,-0.07417 -0.314365,-0.07514 z m 2.093191,0.07254 c -0.315922,0 -0.606648,0.100297 -0.845823,0.268563 0.05316,0.04409 0.106196,0.08727 0.154644,0.131034 l 0.911813,0.823512 2.749959,2.4852924 0.750026,0.676481 c 0.25212,0.227723 0.488609,0.467948 0.852906,0.467948 0.363665,0 0.6009843,-0.24116 0.8529653,-0.467948 0.245323,-0.220794 0.492392,-0.439613 0.735329,-0.663023 0.569265,-0.523509 1.144191,-1.041144 1.719565,-1.5582514 -0.02466,-0.09547 -0.05113,-0.190352 -0.07951,-0.284558 -0.04417,-0.146667 -0.127937,-0.320884 -0.216798,-0.512216 -0.06167,-0.132794 -0.130102,-0.284816 -0.180084,-0.446108 -0.03798,0.197474 -0.085,0.394709 -0.141482,0.591427 -0.105877,0.368782 -0.28803,1.1171904 -0.683977,1.5089654 l -0.583636,0.577497 v -0.821092 c 0,-0.9562834 -0.143535,-1.8944764 -0.468951,-2.7775234 H 9.5785837 c -0.02896,0.131695 -0.06203,0.262913 -0.09928,0.393459 -0.110037,0.385601 -0.294713,1.163284 -0.705698,1.569937 L 8.1899697,10.077535 V 9.2564426 c 0,-0.590194 -0.05429,-1.164758 -0.169401,-1.719801 z m 9.5943393,0.06322 c 0.02462,0.167787 0.04367,0.336338 0.05684,0.505369 l 0.187109,-0.168988 c 0.05139,-0.04641 0.10794,-0.09217 0.164324,-0.139062 -0.123726,-0.08536 -0.261059,-0.152559 -0.408273,-0.197319 z m 0.436546,0.218155 c 0.04306,0.03126 0.08438,0.06469 0.123715,0.100342 -0.03936,-0.03569 -0.08062,-0.06906 -0.123715,-0.100342 z m -10.9061023,0.0085 c -0.03814,0.02827 -0.07469,0.05826 -0.109845,0.09001 0.03513,-0.03172 0.07174,-0.06177 0.109845,-0.09001 z m -0.28261,0.271927 c -0.131548,0.167619 -0.227369,0.364781 -0.276176,0.580153 0.0028,0.196144 0.01155,0.398932 0.01647,0.599691 0.01946,0.7942254 0.236866,1.5879884 0.603881,2.2990694 0.144848,0.280635 0.458736,0.701889 0.632096,1.068346 l 0.253746,0.536357 -0.591426,-0.04828 c -0.343711,-0.02807 -0.660622,-0.112926 -0.95136,-0.24206 v 1.115566 c 0,0.32201 0.103656,0.618235 0.277888,0.85993 0.182933,-0.201037 0.348481,-0.435504 0.518709,-0.624657 0.636145,-0.706868 1.256815,-1.428013 1.895694,-2.132384 0.224596,-0.247619 0.447969,-0.497344 0.66692,-0.749967 0.05143,-0.05934 0.21134,-0.182643 0.211308,-0.264726 -2.9e-5,-0.07699 -0.16406,-0.182619 -0.217565,-0.229074 -0.218964,-0.190116 -0.431833,-0.387849 -0.647028,-0.582219 L 4.4465737,8.6371056 c -0.189519,-0.17118 -0.374688,-0.363547 -0.569587,-0.538659 z m 11.4911543,0.01027 c -0.215963,0.206254 -0.437113,0.40743 -0.660604,0.606301 -0.0049,0.629275 -0.09525,1.260888 -0.286033,1.8812344 -0.123609,0.401918 -0.290586,1.027508 -0.638647,1.447579 l -0.425627,0.513692 c 0.455475,0.51264 0.909622,1.026504 1.366362,1.538005 l 0.58824,0.661726 c 0.02985,0.03343 0.05924,0.06882 0.08889,0.104591 0.126316,-0.177202 0.214204,-0.383854 0.25174,-0.608013 v -6e-5 -4.2906204 -1.202391 c -0.04068,-0.242978 -0.140504,-0.465417 -0.284322,-0.652045 z m -2.339087,2.0981494 c -0.01771,0.0166 -0.03542,0.03321 -0.05306,0.04988 -0.210865,0.199123 -0.429327,0.392915 -0.647028,0.58458 -0.0647,0.05696 -0.223158,0.153395 -0.244893,0.239522 -0.01949,0.07722 0.149659,0.211204 0.196552,0.264667 0.211661,0.241314 0.425205,0.481144 0.639001,0.720573 0.08566,0.09593 0.171254,0.191968 0.256757,0.28804 v -0.52892 c 0,-0.542205 -0.04712,-1.086617 -0.147325,-1.618338 z m -5.5236453,1.217266 c -0.08775,-0.0012 -0.203841,0.184451 -0.256226,0.244893 -0.210292,0.242634 -0.424416,0.483386 -0.640831,0.720573 -0.618247,0.677589 -1.221728,1.370248 -1.827698,2.058839 -0.209622,0.238202 -0.445833,0.468633 -0.657593,0.712899 0.250398,0.197802 0.566447,0.31649 0.911753,0.31649 h 9.1674723 c 0.339759,0 0.651898,-0.114016 0.900362,-0.306102 -0.214043,-0.248123 -0.453979,-0.481716 -0.666565,-0.723287 -0.605968,-0.688589 -1.209452,-1.381253 -1.827698,-2.058839 -0.216416,-0.237187 -0.430538,-0.477939 -0.640831,-0.720573 -0.05238,-0.06044 -0.168474,-0.246062 -0.256226,-0.244893 -0.05964,7.99e-4 -0.120379,0.08504 -0.161787,0.121 -0.144805,0.125737 -0.285783,0.256962 -0.426452,0.38732 -0.433282,0.401521 -0.877273,0.913052 -1.5147503,0.913052 -0.637476,0 -1.081408,-0.511531 -1.51469,-0.913052 -0.140669,-0.130358 -0.281647,-0.261583 -0.426453,-0.38732 -0.04141,-0.03596 -0.102147,-0.120206 -0.161787,-0.121 z m -3.646189,3.465986 c 0.02977,0.03964 0.06136,0.07767 0.09491,0.114036 -0.03353,-0.03635 -0.06516,-0.07442 -0.09491,-0.114036 z m 0.121473,0.143312 c 0.0418,0.04295 0.08614,0.08325 0.132924,0.120823 -0.04676,-0.03756 -0.09114,-0.0779 -0.132924,-0.120823 z"
     class="ColorScheme-Text" />
</svg>
