<?xml version="1.0" encoding="UTF-8" standalone="no"?>
<svg
   id="svg3297"
   height="64"
   width="64"
   version="1.0"
   sodipodi:docname="clion.svg"
   inkscape:version="1.4.3 (0d15f75042, 2025-12-25)"
   xmlns:inkscape="http://www.inkscape.org/namespaces/inkscape"
   xmlns:sodipodi="http://sodipodi.sourceforge.net/DTD/sodipodi-0.dtd"
   xmlns="http://www.w3.org/2000/svg"
   xmlns:svg="http://www.w3.org/2000/svg"
   xmlns:rdf="http://www.w3.org/1999/02/22-rdf-syntax-ns#"
   xmlns:cc="http://creativecommons.org/ns#"
   xmlns:dc="http://purl.org/dc/elements/1.1/">
  <sodipodi:namedview
     id="namedview1"
     pagecolor="#9c4444"
     bordercolor="#000000"
     borderopacity="0.25"
     inkscape:showpageshadow="2"
     inkscape:pageopacity="0.0"
     inkscape:pagecheckerboard="0"
     inkscape:deskcolor="#d1d1d1"
     inkscape:zoom="3.2734375"
     inkscape:cx="40.782816"
     inkscape:cy="33.298329"
     inkscape:window-width="2560"
     inkscape:window-height="1388"
     inkscape:window-x="0"
     inkscape:window-y="0"
     inkscape:window-maximized="1"
     inkscape:current-layer="svg3297" />
  <metadata
     id="metadata58">
    <rdf:RDF>
      <cc:Work
         rdf:about="">
        <dc:format>image/svg+xml</dc:format>
        <dc:type
           rdf:resource="http://purl.org/dc/dcmitype/StillImage" />
      </cc:Work>
    </rdf:RDF>
  </metadata>
  <defs
     id="defs3299">
    <style
       id="current-color-scheme"
       type="text/css">.ColorScheme-Text {color:#d8dee9} .ColorScheme-Highlight {color:#3b4252}</style>
  </defs>
  <path
     id="path5"
     style="fill:currentColor;fill-opacity:1;stroke-width:0.82815"
     d="m 39.46628,5.5000025 c -0.15942,0 -0.31906,0.0118 -0.47715,0.03397 L 8.394499,9.9044025 C 6.732659,10.141458 5.49921,11.56465 5.49921,13.242879 V 26.223155 28.5685 c 0,0.666411 0.197688,1.316895 0.567736,1.871424 l 5.158142,7.729936 -0.09543,0.111606 c -0.523747,0.611423 -0.811975,1.389793 -0.811975,2.19492 v 9.834278 c 0,1.862757 1.509685,3.372445 3.372447,3.372445 h 7.88845 l 2.21271,3.315834 c 0.62542,0.937631 1.6793,1.499404 2.80632,1.499404 l 28.53073,0.0017 c 1.86276,-3.9e-5 3.37245,-1.509728 3.37245,-3.372485 V 26.996309 c 0,-1.349138 -0.80476,-2.569284 -2.0445,-3.100708 l -4.49821,-1.928036 0.91226,-1.064302 c 0.5243,-0.611423 0.81198,-1.390913 0.81198,-2.196537 V 17.58096 c 3.3e-4,-0.01926 0,-0.03729 0,-0.05661 V 8.8724505 c 0,-0.465692 -0.0962,-0.909874 -0.26689,-1.313394 -0.17064,-0.402725 -0.41833,-0.766093 -0.72301,-1.070772 -0.076,-0.07601 -0.15481,-0.149854 -0.23777,-0.218359 h -0.002 c -0.0829,-0.06846 -0.1678,-0.133699 -0.25714,-0.194098 h -0.002 c -0.0893,-0.06035 -0.1814,-0.116482 -0.27656,-0.168218 h -0.002 c -0.19075,-0.103535 -0.39414,-0.19001 -0.6049,-0.255562 -0.10512,-0.0327 -0.21263,-0.0617 -0.32188,-0.08411 h -0.002 c -0.10923,-0.02236 -0.22033,-0.03862 -0.33317,-0.05015 h -0.002 c -0.11282,-0.01146 -0.22701,-0.01774 -0.34287,-0.01779 h -0.002 z M 15.43701,15.437799 H 48.56299 V 48.563785 H 15.43701 Z m 9.87956,3.907831 c -1.184,0 -2.25588,0.279643 -3.21554,0.839472 -0.96025,0.553204 -1.71367,1.319605 -2.26124,2.296821 -0.54749,0.971585 -0.82168,2.057743 -0.82168,3.259222 0,1.201561 0.27419,2.291711 0.82168,3.268927 0.54799,0.971503 1.30149,1.735375 2.26124,2.295204 0.96015,0.553204 2.03204,0.831384 3.21554,0.831384 v -0.0017 c 1.00091,0 1.92,-0.185402 2.75619,-0.556413 0.83618,-0.371011 1.53123,-0.888566 2.08493,-1.554399 0.55933,-0.671464 0.93421,-1.439327 1.12253,-2.304909 H 28.7521 c -0.16521,0.447202 -0.41096,0.842799 -0.74081,1.183996 -0.32422,0.33598 -0.71637,0.594197 -1.17591,0.77639 -0.45904,0.182193 -0.95916,0.274971 -1.50102,0.274971 -0.73018,0 -1.38944,-0.182945 -1.97817,-0.548325 -0.58915,-0.365297 -1.05232,-0.865002 -1.3878,-1.501021 -0.32985,-0.641237 -0.49495,-1.363451 -0.49495,-2.164189 0,-0.800655 0.1651,-1.520081 0.49495,-2.156099 0.33598,-0.641733 0.79915,-1.14543 1.3878,-1.510727 0.58873,-0.36538 1.24799,-0.546707 1.97817,-0.546707 0.54136,0 1.04157,0.09116 1.50102,0.273354 0.45954,0.182192 0.85169,0.444897 1.17591,0.786094 0.32985,0.335981 0.5756,0.728707 0.74081,1.175908 h 2.52812 c -0.18882,-0.865499 -0.5632,-1.630988 -1.12253,-2.296821 -0.5537,-0.671546 -1.24874,-1.193092 -2.08493,-1.564103 -0.83619,-0.371011 -1.75528,-0.556413 -2.75619,-0.556413 z m 7.69597,0.21189 V 31.924771 H 41.2811 V 29.750878 H 35.41612 V 19.55752 Z M 19.5729,41.936971 v 2.484449 h 13.2504 v -2.484449 z"
     class="ColorScheme-Text" />
</svg>
