<?xml version='1.0' encoding='UTF-8'?>
<svg xmlns:inkscape="http://www.inkscape.org/namespaces/inkscape" xmlns:sodipodi="http://sodipodi.sourceforge.net/DTD/sodipodi-0.dtd" xmlns="http://www.w3.org/2000/svg" xmlns:svg="http://www.w3.org/2000/svg" xmlns:rdf="http://www.w3.org/1999/02/22-rdf-syntax-ns#" xmlns:cc="http://creativecommons.org/ns#" xmlns:dc="http://purl.org/dc/elements/1.1/" width="64" height="64" version="1.1" viewBox="0 0 16.933 16.933" id="svg7" sodipodi:docname="com.dec05eba.gpu_screen_recorder.svg" inkscape:version="1.4 (e7c3feb100, 2024-10-09)">
  <sodipodi:namedview id="namedview7" pagecolor="#9c4444" bordercolor="#000000" borderopacity="0.25" inkscape:showpageshadow="2" inkscape:pageopacity="0.0" inkscape:pagecheckerboard="0" inkscape:deskcolor="#d1d1d1" inkscape:zoom="6.15625" inkscape:cx="15.837563" inkscape:cy="29.725888" inkscape:window-width="1183" inkscape:window-height="941" inkscape:window-x="35" inkscape:window-y="32" inkscape:window-maximized="0" inkscape:current-layer="svg7" showgrid="false"/>
  <defs id="defs2">
    <style id="current-color-scheme" type="text/css">.ColorScheme-Text {color:#d8dee9} .ColorScheme-Highlight {color:#3b4252}</style></defs>
  <metadata id="metadata2">
    <rdf:RDF>
      <cc:Work rdf:about="">
        <dc:format>image/svg+xml</dc:format>
        <dc:type rdf:resource="http://purl.org/dc/dcmitype/StillImage"/>
      </cc:Work>
    </rdf:RDF>
  </metadata>
  <path d="m 11.335328,6.1018292 3.454783,-2.3347496 c 0.282937,-0.1912107 0.541407,-0.056421 0.577211,0.3004214 l 0.715325,7.12556 c 0.03585,0.357134 -0.189981,0.549868 -0.503808,0.430662 l -3.847583,-1.46098 0.08349,0.856151 c 0.06984,0.716551 -0.411924,1.358425 -1.07541,1.433606 L 2.9276825,13.337624 C 2.2639245,13.412834 1.6693543,12.894937 1.5993043,12.176369 L 1.0312144,6.3496886 C 0.96135879,5.6331388 1.4431319,4.9912663 2.1066206,4.9160831 L 9.9182544,4.030959 C 10.582015,3.955746 11.176587,4.4736484 11.246638,5.1922164 Z m 0,0 -3.1926335,2.1575994 C 7.8599972,8.4504804 7.8850228,8.7023269 8.1991327,8.8216179 l 3.5321233,1.3412261 z" id="path27" style="fill:currentColor;fill-opacity:1;stroke:none;stroke-width:0.47328;stroke-dasharray:none;stroke-opacity:0.3" class="ColorScheme-Text"/>
  </svg>
