<?xml version='1.0' encoding='UTF-8'?>
<svg xmlns:inkscape="http://www.inkscape.org/namespaces/inkscape" xmlns:sodipodi="http://sodipodi.sourceforge.net/DTD/sodipodi-0.dtd" xmlns="http://www.w3.org/2000/svg" xmlns:svg="http://www.w3.org/2000/svg" xmlns:rdf="http://www.w3.org/1999/02/22-rdf-syntax-ns#" xmlns:cc="http://creativecommons.org/ns#" xmlns:dc="http://purl.org/dc/elements/1.1/" width="64" height="64" version="1.1" viewBox="0 0 16.933 16.933" id="svg7" sodipodi:docname="com.belmoussaoui.Authenticator.svg" inkscape:version="1.4 (e7c3feb100, 2024-10-09)">
  <sodipodi:namedview id="namedview7" pagecolor="#9c4444" bordercolor="#000000" borderopacity="0.25" inkscape:showpageshadow="2" inkscape:pageopacity="0.0" inkscape:pagecheckerboard="0" inkscape:deskcolor="#d1d1d1" inkscape:zoom="6.15625" inkscape:cx="15.837563" inkscape:cy="29.725888" inkscape:window-width="1183" inkscape:window-height="941" inkscape:window-x="35" inkscape:window-y="32" inkscape:window-maximized="0" inkscape:current-layer="svg7" showgrid="false"/>
  <defs id="defs2">
    <style id="current-color-scheme" type="text/css">.ColorScheme-Text {color:#d8dee9} .ColorScheme-Highlight {color:#3b4252}</style></defs>
  <metadata id="metadata2">
    <rdf:RDF>
      <cc:Work rdf:about="">
        <dc:format>image/svg+xml</dc:format>
        <dc:type rdf:resource="http://purl.org/dc/dcmitype/StillImage"/>
      </cc:Work>
    </rdf:RDF>
  </metadata>
  <path id="path6" style="fill:currentColor;fill-opacity:1;stroke-width:0.0665285" d="M 8.4774968,1.5800122 C 7.5883137,1.5793229 7.3472012,1.6256719 6.7702121,1.9092596 5.6130022,2.4780227 4.9763968,3.8058909 4.8135138,5.991193 L 4.7822073,6.4117529 4.9997928,6.2301716 C 5.3030119,5.9772016 5.8330388,5.6399056 6.1732898,5.483495 6.3308739,5.4110537 6.4652577,5.3489123 6.4722733,5.3452225 6.4792843,5.3415365 6.533934,5.1553327 6.5938486,4.9314458 6.8210323,4.0825343 7.1925866,3.5342646 7.7136022,3.2779048 7.992981,3.1404398 8.0379253,3.1317264 8.4769748,3.1328474 c 0.417671,0.00105 0.4924947,0.013965 0.7179781,0.1236634 0.5118053,0.248957 0.8975251,0.8099237 1.1333201,1.6488444 l 0.122618,0.4351701 0.288547,0.1294033 c 0.345422,0.154812 1.07956,0.6367958 1.261679,0.8285968 0.07165,0.075455 0.137256,0.1372294 0.14611,0.1372294 0.01634,0 -0.0025,-0.2214995 -0.08297,-0.9757404 C 11.971741,4.5931439 11.75068,3.7915375 11.434461,3.1761562 11.175973,2.6731278 10.621963,2.1166638 10.162866,1.8988235 9.586371,1.6252782 9.3501035,1.5806852 8.4774968,1.5800122 Z m 0.067832,3.439615 C 8.4687378,5.0187928 8.3922362,5.0197967 8.3157424,5.0222492 6.9694727,5.065174 5.6479554,5.6151294 4.6935028,6.5896894 2.172031,9.1642762 2.8403746,13.408454 6.0266664,15.054107 c 0.5963141,0.307984 1.1117343,0.463632 1.9186079,0.579181 0.7167265,0.102657 1.8000862,-0.06948 2.6397167,-0.418996 1.584582,-0.659663 2.795881,-2.202434 3.13124,-3.988531 0.08039,-0.428086 0.0695,-1.4117382 -0.02086,-1.8747788 C 13.321829,7.4372499 11.978239,5.9033811 10.134688,5.2857352 9.6185002,5.1127968 9.0814568,5.0255934 8.5453272,5.019624 Z M 8.5030651,6.5740285 C 9.881213,6.5971971 11.194359,7.3780093 11.817972,8.6314319 12.977268,10.961541 11.526614,13.709536 8.9512793,14.061661 7.9653675,14.196464 6.9784277,13.929159 6.1555476,13.305071 5.4935789,12.803019 4.9641654,11.952703 4.7889897,11.108872 4.6751978,10.560732 4.6968202,9.8288527 4.8411685,9.3207116 5.0425031,8.6119629 5.5372409,7.8600442 6.1065001,7.3979289 6.4224786,7.141423 7.1452985,6.7821605 7.5461082,6.6825601 7.8633917,6.6037154 8.18503,6.568682 8.5030651,6.5740285 Z m 1.9989629,1.7245032 c -0.0051,0 -0.360227,0.1178361 -0.789463,0.2614153 C 8.9703991,8.8081974 8.9205971,8.8185205 8.6950819,8.777532 8.0344614,8.6574607 7.3287387,9.0507697 7.0222351,9.7099636 6.9250026,9.9190807 6.9051124,10.025778 6.9043122,10.33976 c -8.345e-4,0.338665 0.013908,0.4088 0.1445349,0.674148 0.2270597,0.461224 0.6707763,0.795772 1.1620183,0.876079 0.5053966,0.08261 0.9803379,-0.0783 1.3582095,-0.460738 0.3731207,-0.377642 0.4762651,-0.65372 0.4503001,-1.201152 -0.01851,-0.390228 -0.01328,-0.4161663 0.23637,-1.1641045 0.140454,-0.4207937 0.251359,-0.7654608 0.246283,-0.7654608 z" class="ColorScheme-Text"/>
  </svg>
