<?xml version='1.0' encoding='UTF-8'?>
<svg xmlns:inkscape="http://www.inkscape.org/namespaces/inkscape" xmlns:sodipodi="http://sodipodi.sourceforge.net/DTD/sodipodi-0.dtd" xmlns="http://www.w3.org/2000/svg" xmlns:svg="http://www.w3.org/2000/svg" xmlns:rdf="http://www.w3.org/1999/02/22-rdf-syntax-ns#" xmlns:cc="http://creativecommons.org/ns#" xmlns:dc="http://purl.org/dc/elements/1.1/" width="64" height="64" version="1.1" viewBox="0 0 16.933 16.933" id="svg7" sodipodi:docname="com.github.tchx84.Flatseal.svg" inkscape:version="1.4 (e7c3feb100, 2024-10-09)">
  <sodipodi:namedview id="namedview7" pagecolor="#9c4444" bordercolor="#000000" borderopacity="0.25" inkscape:showpageshadow="2" inkscape:pageopacity="0.0" inkscape:pagecheckerboard="0" inkscape:deskcolor="#d1d1d1" inkscape:zoom="6.15625" inkscape:cx="29.15736" inkscape:cy="29.725888" inkscape:window-width="1183" inkscape:window-height="941" inkscape:window-x="35" inkscape:window-y="32" inkscape:window-maximized="0" inkscape:current-layer="svg7" showgrid="false"/>
  <defs id="defs2">
    <style id="current-color-scheme" type="text/css">.ColorScheme-Text {color:#d8dee9} .ColorScheme-Highlight {color:#3b4252}</style></defs>
  <metadata id="metadata2">
    <rdf:RDF>
      <cc:Work rdf:about="">
        <dc:format>image/svg+xml</dc:format>
        <dc:type rdf:resource="http://purl.org/dc/dcmitype/StillImage"/>
      </cc:Work>
    </rdf:RDF>
  </metadata>
  <path id="path99" style="opacity:1;fill:currentColor;stroke-width:0.0204142;stroke-opacity:0.6" d="M 8.4928245,1.6860517 C 8.2633668,1.6858773 2.8910161,3.3633481 2.7667753,3.4739696 2.5775972,3.6424072 2.5594213,3.7661217 2.5399717,4.991883 c -0.020146,1.2696488 0.019781,1.9276062 0.1786931,2.9425534 0.5509888,3.5190676 2.1845459,6.0354876 4.7343978,7.2920716 0.2481436,0.122284 0.5793364,0.268041 0.7353931,0.323023 0.1683172,0.0593 0.3253102,0.08977 0.3858602,0.0756 0.2300951,-0.05388 1.0606123,-0.43737 1.4521311,-0.670591 1.401694,-0.834967 2.411899,-1.96415 3.182121,-3.55718 0.58972,-1.219703 0.927945,-2.438655 1.148744,-4.1335169 0.05964,-0.4578396 0.07444,-0.847841 0.07364,-1.9597381 -0.0011,-1.47954 -0.01916,-1.6450078 -0.196369,-1.8114809 C 14.10187,3.3679469 8.7570117,1.6862527 8.4928245,1.6860517 Z M 7.5453557,4.2682722 c 1.0247844,-0.00164 2.2124491,0.00779 3.0093173,0.029456 0.961846,0.026155 0.983223,0.02872 1.208637,0.1394201 0.283625,0.1392852 0.578535,0.4473932 0.722629,0.7560117 0.09399,0.2013036 0.108623,0.2872952 0.108984,0.622482 3.88e-4,0.3564966 -0.0099,0.4106453 -0.131556,0.657828 -0.15732,0.3195413 -0.413932,0.5705531 -0.73834,0.7226291 l -0.231712,0.1089821 -3.000481,0.00589 C 6.8423409,7.3145714 5.4347059,7.3034226 5.3647046,7.2864263 4.935841,7.1823139 4.5590993,6.8646056 4.3563624,6.4351775 4.2418614,6.1926425 4.227444,6.1223207 4.2297061,5.814659 4.2329601,5.3714258 4.340628,5.0793746 4.6126209,4.7817707 4.8494016,4.5226949 5.1522466,4.36258 5.5119797,4.3055821 5.658269,4.2824027 6.5205711,4.2699115 7.5453557,4.2682722 Z m 3.3166323,0.5812451 c -0.197046,-3.579e-4 -0.393683,0.030899 -0.511536,0.094256 -0.342488,0.1841193 -0.5633439,0.5173158 -0.5625898,0.8492853 0.00103,0.4491169 0.2988678,0.8143258 0.7864478,0.9631783 0.56777,0.1733333 1.240367,-0.225781 1.366711,-0.8109943 0.07263,-0.3364249 -0.188799,-0.7996057 -0.564553,-0.9995059 -0.119908,-0.063785 -0.317435,-0.095861 -0.51448,-0.096219 z M 6.8364723,8.553973 c 0.411312,1.216e-4 0.9485936,0.00211 1.6573339,0.0049 l 2.9180078,0.01178 0.234658,0.094255 c 0.31995,0.1292019 0.650326,0.4395885 0.807066,0.7579746 0.418217,0.8495204 -0.03025,1.9035504 -0.924887,2.1727964 -0.270943,0.08153 -6.0011445,0.07972 -6.2228561,-0.0019 C 4.4961171,11.295437 4.0621345,10.521375 4.2630882,9.7331542 4.3970564,9.2076778 4.796877,8.7842404 5.3028495,8.6305555 5.5021348,8.5700234 5.6025367,8.5536055 6.8364723,8.553973 Z M 6.0107509,9.1312904 c -0.5399537,0.017765 -1.0424752,0.4079764 -1.0377971,0.9955786 0.00306,0.384863 0.2861032,0.751505 0.6921921,0.896413 0.084421,0.03012 0.2661296,0.05496 0.4045149,0.05597 0.2063989,0.0015 0.2983017,-0.02201 0.510553,-0.131566 C 7.2126989,10.621204 7.3273539,9.9076785 6.8227266,9.4356587 6.5869565,9.2151234 6.2935838,9.121988 6.0107509,9.1312904 Z" class="ColorScheme-Text"/>
  </svg>
