<?xml version='1.0' encoding='UTF-8'?>
<svg xmlns:inkscape="http://www.inkscape.org/namespaces/inkscape" xmlns:sodipodi="http://sodipodi.sourceforge.net/DTD/sodipodi-0.dtd" xmlns="http://www.w3.org/2000/svg" xmlns:svg="http://www.w3.org/2000/svg" xmlns:rdf="http://www.w3.org/1999/02/22-rdf-syntax-ns#" xmlns:cc="http://creativecommons.org/ns#" xmlns:dc="http://purl.org/dc/elements/1.1/" width="64" height="64" version="1.1" viewBox="0 0 16.933 16.933" id="svg7" sodipodi:docname="com.github.rafostar.Clapper.svg" inkscape:version="1.4 (e7c3feb100, 2024-10-09)">
  <sodipodi:namedview id="namedview7" pagecolor="#9c4444" bordercolor="#000000" borderopacity="0.25" inkscape:showpageshadow="2" inkscape:pageopacity="0.0" inkscape:pagecheckerboard="0" inkscape:deskcolor="#d1d1d1" inkscape:zoom="6.15625" inkscape:cx="15.837563" inkscape:cy="29.725888" inkscape:window-width="1183" inkscape:window-height="941" inkscape:window-x="35" inkscape:window-y="32" inkscape:window-maximized="0" inkscape:current-layer="svg7" showgrid="false"/>
  <defs id="defs2">
    <style id="current-color-scheme" type="text/css">.ColorScheme-Text {color:#d8dee9} .ColorScheme-Highlight {color:#3b4252}</style></defs>
  <metadata id="metadata2">
    <rdf:RDF>
      <cc:Work rdf:about="">
        <dc:format>image/svg+xml</dc:format>
        <dc:type rdf:resource="http://purl.org/dc/dcmitype/StillImage"/>
      </cc:Work>
    </rdf:RDF>
  </metadata>
  <path style="fill:currentColor;fill-opacity:1;stroke:none;stroke-width:0.478061;stroke-dasharray:none;stroke-opacity:0.3" d="M 4.3516228,15.33204 C 3.9974363,15.221348 3.680629,14.940672 3.5177895,14.593303 L 3.425839,14.397158 3.416795,8.6787132 C 3.406668,2.2748307 3.3870486,2.771861 3.6649284,2.3943872 4.0023032,1.9360974 4.5508585,1.7398258 5.087986,1.8852184 c 0.2059336,0.055744 0.6026904,0.3205319 4.2594246,2.8426555 2.2177874,1.5296534 4.1070204,2.8534774 4.1983024,2.9418305 0.0913,0.088352 0.215707,0.2614101 0.276499,0.3845708 0.101023,0.2047011 0.110542,0.2523327 0.110542,0.5547875 0,0.3130979 -0.007,0.3450409 -0.130568,0.5950564 -0.0798,0.1614772 -0.183122,0.3091703 -0.265713,0.3798674 C 13.237257,9.8401 5.3942495,15.22483 5.2100809,15.300589 c -0.2249814,0.09255 -0.6169944,0.106913 -0.8584407,0.03146 z" id="path101" class="ColorScheme-Text"/>
  <g id="g9" transform="matrix(0.46959567,0,0,0.46959567,4.7471229,3.7470598)" style="fill:#999999;fill-opacity:1;stroke:none;stroke-width:0.58349;stroke-dasharray:none;stroke-opacity:0.3"/>
  </svg>
