<?xml version="1.0" encoding="UTF-8" standalone="no"?>
<svg
   width="64"
   height="64"
   version="1.1"
   viewBox="0 0 16.933 16.933"
   id="svg7"
   sodipodi:docname="copyq.svg"
   inkscape:version="1.4.2 (ebf0e940d0, 2025-05-08)"
   xmlns:inkscape="http://www.inkscape.org/namespaces/inkscape"
   xmlns:sodipodi="http://sodipodi.sourceforge.net/DTD/sodipodi-0.dtd"
   xmlns="http://www.w3.org/2000/svg"
   xmlns:svg="http://www.w3.org/2000/svg"
   xmlns:rdf="http://www.w3.org/1999/02/22-rdf-syntax-ns#"
   xmlns:cc="http://creativecommons.org/ns#"
   xmlns:dc="http://purl.org/dc/elements/1.1/">
  <sodipodi:namedview
     id="namedview7"
     pagecolor="#9c4444"
     bordercolor="#000000"
     borderopacity="0.25"
     inkscape:showpageshadow="2"
     inkscape:pageopacity="0.0"
     inkscape:pagecheckerboard="0"
     inkscape:deskcolor="#d1d1d1"
     inkscape:zoom="4.3531262"
     inkscape:cx="89.935366"
     inkscape:cy="34.457995"
     inkscape:window-width="2560"
     inkscape:window-height="1388"
     inkscape:window-x="0"
     inkscape:window-y="0"
     inkscape:window-maximized="1"
     inkscape:current-layer="svg7"
     showgrid="false" />
  <defs
     id="defs2">
    <style
       id="current-color-scheme"
       type="text/css">.ColorScheme-Text {color:#d8dee9} .ColorScheme-Highlight {color:#3b4252}</style>
  </defs>
  <metadata
     id="metadata2">
    <rdf:RDF>
      <cc:Work
         rdf:about="">
        <dc:format>image/svg+xml</dc:format>
        <dc:type
           rdf:resource="http://purl.org/dc/dcmitype/StillImage" />
      </cc:Work>
    </rdf:RDF>
  </metadata>
  <path
     id="path5"
     style="fill:currentColor;fill-opacity:1;stroke:none;stroke-width:1.08905"
     d="m 5.066667,1.4551797 c -0.832548,0 -1.678114,0.272372 -2.341889,0.8625294 -0.663774,0.5901576 -1.097677,1.5150899 -1.09756,2.5790943 1.17e-4,1.0638954 0.433723,1.9883922 1.09756,2.5784408 0.663838,0.5901576 1.510936,0.8625297 2.343484,0.8625297 0.832548,0 1.678645,-0.2738967 2.342421,-0.8640543 0.543311,-0.4831038 0.932235,-1.1889187 1.055551,-2.012787 0.123316,0.8238683 0.512771,1.5296832 1.056083,2.012787 0.663774,0.5901576 1.509873,0.8640543 2.342421,0.8640543 0.832548,0 1.679645,-0.2723721 2.343483,-0.8625297 0.663838,-0.5900486 1.097444,-1.5145454 1.097561,-2.5784408 1.17e-4,-1.0640044 -0.433786,-1.9889367 -1.097561,-2.5790943 -0.663775,-0.5901574 -1.50934,-0.8625294 -2.341888,-0.8625294 -0.832548,0 -1.678583,0.272481 -2.34242,0.8625294 C 8.980244,2.8009217 8.589733,3.5088058 8.466234,4.3336543 8.342734,3.5088058 7.952754,2.8009217 7.409088,2.3177091 6.745249,1.7276607 5.899215,1.4551797 5.066667,1.4551797 Z m 0,1.9951441 c 0.389116,0 0.764764,0.134498 1.017264,0.3589517 0.252501,0.2244538 0.429072,0.5223096 0.429134,1.0875279 6.3e-5,0.5651094 -0.17675,0.8625296 -0.429134,1.0868744 -0.252383,0.2243449 -0.626553,0.3589518 -1.015669,0.3589518 -0.389116,0 -0.764764,-0.134498 -1.017264,-0.3589518 C 3.798497,5.7592241 3.621927,5.4619128 3.621865,4.8968034 3.621802,4.3315851 3.797552,4.0337293 4.049935,3.8092755 4.302318,3.5849307 4.677551,3.4503238 5.066667,3.4503238 Z m 6.799666,0 c 0.389116,0 0.76435,0.1346069 1.016732,0.3589517 0.252383,0.2244538 0.427601,0.5223096 0.427539,1.0875279 -6.3e-5,0.5651094 -0.176102,0.8624207 -0.428603,1.0868744 -0.2525,0.2244538 -0.628147,0.3589518 -1.017263,0.3589518 -0.389117,0 -0.763287,-0.1346069 -1.01567,-0.3589518 -0.252383,-0.2243448 -0.429196,-0.521765 -0.429133,-1.0868744 6.2e-5,-0.5652183 0.176633,-0.8630741 0.429133,-1.0875279 0.2525,-0.2244537 0.628148,-0.3589517 1.017265,-0.3589517 z M 8.228536,7.4503049 c -0.349912,0.3760498 -1.35334,1.1958887 -1.35334,1.1958887 0,0 2.771576,4.5168454 3.920696,6.8316264 0,0 3.782554,-4.577723 -2.567356,-8.0275151 z M 6.370552,9.1774334 C 3.473068,12.253462 6.137108,15.47782 6.137108,15.47782 6.605974,14.533285 7.345139,13.222501 8.055712,12.001129 7.305237,10.718552 6.618495,9.5849569 6.370552,9.1774334 Z"
     class="ColorScheme-Text" />
</svg>
