<?xml version="1.0" encoding="UTF-8" standalone="no"?>
<svg
   width="64"
   height="64"
   version="1.1"
   viewBox="0 0 16.933 16.933"
   id="svg7"
   sodipodi:docname="corectrl.svg"
   inkscape:version="1.4.2 (ebf0e940d0, 2025-05-08)"
   xmlns:inkscape="http://www.inkscape.org/namespaces/inkscape"
   xmlns:sodipodi="http://sodipodi.sourceforge.net/DTD/sodipodi-0.dtd"
   xmlns="http://www.w3.org/2000/svg"
   xmlns:svg="http://www.w3.org/2000/svg"
   xmlns:rdf="http://www.w3.org/1999/02/22-rdf-syntax-ns#"
   xmlns:cc="http://creativecommons.org/ns#"
   xmlns:dc="http://purl.org/dc/elements/1.1/">
  <sodipodi:namedview
     id="namedview7"
     pagecolor="#9c4444"
     bordercolor="#000000"
     borderopacity="0.25"
     inkscape:showpageshadow="2"
     inkscape:pageopacity="0.0"
     inkscape:pagecheckerboard="0"
     inkscape:deskcolor="#d1d1d1"
     inkscape:zoom="6.15625"
     inkscape:cx="16"
     inkscape:cy="27.28934"
     inkscape:window-width="2560"
     inkscape:window-height="1392"
     inkscape:window-x="0"
     inkscape:window-y="0"
     inkscape:window-maximized="1"
     inkscape:current-layer="svg7"
     showgrid="false" />
  <defs
     id="defs2">
    <style
       id="current-color-scheme"
       type="text/css">.ColorScheme-Text {color:#d8dee9} .ColorScheme-Highlight {color:#3b4252}</style>
  </defs>
  <metadata
     id="metadata2">
    <rdf:RDF>
      <cc:Work
         rdf:about="">
        <dc:format>image/svg+xml</dc:format>
        <dc:type
           rdf:resource="http://purl.org/dc/dcmitype/StillImage" />
      </cc:Work>
    </rdf:RDF>
  </metadata>
  <path
     style="fill:currentColor;stroke-width:0.876415"
     d="M 2.3315947,1.4551797 V 3.2080098 H 1.4551797 V 13.72499 h 0.876415 v 1.75283 h 1.7528301 v -1.75283 h 1.7528301 v 1.75283 H 7.590085 v -1.75283 h 1.75283 v 1.75283 h 1.75283 v -1.75283 h 1.75283 v 1.75283 h 1.75283 V 13.72499 H 15.47782 V 3.2080098 H 14.601405 V 1.4551797 h -1.75283 v 1.7528301 h -1.75283 V 1.4551797 H 9.342915 V 3.2080098 H 7.590085 V 1.4551797 H 5.8372549 V 3.2080098 H 4.0844248 V 1.4551797 Z M 3.2080098,4.9608399 H 7.590085 v 1.75283 H 6.7136699 V 5.8372549 H 4.0844248 V 8.4665 h 0.876415 v 2.629245 H 6.7136699 V 10.21933 H 7.590085 v 1.75283 H 3.2080098 Z m 6.1349052,0 h 4.382075 v 1.75283 H 12.848575 V 5.8372549 H 10.21933 V 8.4665 h 0.876415 v 2.629245 h 1.75283 V 10.21933 h 0.876415 v 1.75283 H 9.342915 Z"
     class="ColorScheme-Text"
     id="path1" />
</svg>
