<?xml version="1.0" encoding="UTF-8" standalone="no"?>
<svg
   id="svg3297"
   height="64"
   width="64"
   version="1.0"
   sodipodi:docname="dataspell.svg"
   inkscape:version="1.4.3 (0d15f75042, 2025-12-25)"
   xmlns:inkscape="http://www.inkscape.org/namespaces/inkscape"
   xmlns:sodipodi="http://sodipodi.sourceforge.net/DTD/sodipodi-0.dtd"
   xmlns="http://www.w3.org/2000/svg"
   xmlns:svg="http://www.w3.org/2000/svg"
   xmlns:rdf="http://www.w3.org/1999/02/22-rdf-syntax-ns#"
   xmlns:cc="http://creativecommons.org/ns#"
   xmlns:dc="http://purl.org/dc/elements/1.1/">
  <sodipodi:namedview
     id="namedview1"
     pagecolor="#9c4444"
     bordercolor="#000000"
     borderopacity="0.25"
     inkscape:showpageshadow="2"
     inkscape:pageopacity="0.0"
     inkscape:pagecheckerboard="0"
     inkscape:deskcolor="#d1d1d1"
     inkscape:zoom="3.2734375"
     inkscape:cx="40.782816"
     inkscape:cy="33.298329"
     inkscape:window-width="2560"
     inkscape:window-height="1388"
     inkscape:window-x="0"
     inkscape:window-y="0"
     inkscape:window-maximized="1"
     inkscape:current-layer="svg3297" />
  <metadata
     id="metadata58">
    <rdf:RDF>
      <cc:Work
         rdf:about="">
        <dc:format>image/svg+xml</dc:format>
        <dc:type
           rdf:resource="http://purl.org/dc/dcmitype/StillImage" />
      </cc:Work>
    </rdf:RDF>
  </metadata>
  <defs
     id="defs3299">
    <style
       id="current-color-scheme"
       type="text/css">.ColorScheme-Text {color:#d8dee9} .ColorScheme-Highlight {color:#3b4252}</style>
  </defs>
  <path
     id="path5"
     d="m 19.572915,41.9393 h 13.25034 v 2.484438 h -13.25034 z m 14.38125,-10.235717 c 0.69879,0.33291 1.49787,0.48844 2.3974,0.48844 0.89995,0 1.69953,-0.16696 2.39782,-0.49987 0.69871,-0.32207 1.23998,-0.78815 1.62482,-1.3652 0.39047,-0.5879 0.586,-1.24288 0.586,-1.97538 0,-0.59933 -0.13317,-1.15443 -0.39958,-1.65389 -0.26633,-0.51039 -0.63925,-0.93224 -1.11875,-1.27617 -0.47328,-0.35486 -1.01505,-0.5879 -1.62482,-0.71014 l -2.11334,-0.46616 c -0.38484,-0.0885 -0.68977,-0.25499 -0.91469,-0.4771 -0.2193,-0.22219 -0.32869,-0.51088 -0.32869,-0.85481 0,-0.29962 0.0799,-0.56604 0.23975,-0.78815 0.15974,-0.23304 0.38194,-0.41051 0.66591,-0.53274 0.2901,-0.13317 0.6245,-0.19975 1.00313,-0.19975 0.37863,0 0.71303,0.0775 1.00322,0.21068 0.29581,0.13325 0.52363,0.31113 0.68347,0.55511 0.15983,0.24405 0.23974,0.51038 0.23974,0.81009 h 2.42399 c -0.006,-0.71063 -0.19553,-1.34334 -0.56844,-1.88702 -0.3667,-0.54409 -0.88189,-0.97696 -1.54491,-1.2876 -0.66309,-0.29962 -1.42938,-0.45473 -2.26415,-0.45473 -0.83477,0 -1.58068,0.15511 -2.23757,0.47709 -0.65688,0.31114 -1.16868,0.75494 -1.53588,1.3209 -0.3667,0.56562 -0.5503,1.19874 -0.5503,1.90887 0,0.5884 0.12124,1.11022 0.36389,1.58731 0.24306,0.46608 0.58309,0.85423 1.02118,1.1763 0.43809,0.31055 0.95328,0.53275 1.54499,0.66591 l 2.19327,0.48853 c 0.42045,0.0999 0.74864,0.27726 0.98557,0.54367 0.24257,0.2554 0.36389,0.5884 0.36389,0.9879 0,0.31064 -0.0889,0.59933 -0.26641,0.84338 -0.17118,0.2554 -0.41714,0.44422 -0.73681,0.5884 -0.31395,0.13317 -0.66351,0.21068 -1.1011,0.21068 -0.43767,0 -0.82574,-0.0775 -1.16305,-0.23304 -0.33722,-0.15511 -0.60074,-0.36629 -0.79005,-0.64355 -0.18931,-0.26642 -0.28397,-0.58799 -0.28397,-0.94326 h -2.43301 c 0.0119,0.75486 0.21308,1.4317 0.60363,2.0201 0.39669,0.58839 0.94136,1.04363 1.63385,1.3652 z m -9.566,-12.15313 h -4.73235 v 12.43039 h 4.73235 c 1.17779,0 2.23136,-0.26633 3.16079,-0.79908 0.93514,-0.53275 1.66623,-1.26524 2.19326,-2.2085 0.52654,-0.95419 0.79005,-2.01968 0.79005,-3.20741 0,-1.18773 -0.26351,-2.25322 -0.79005,-3.1964 -0.52703,-0.94375 -1.25812,-1.68718 -2.19326,-2.21992 -0.92943,-0.53275 -1.983,-0.79908 -3.16079,-0.79908 z m 1.91791,9.83374 c -0.55652,0.33299 -1.20437,0.49945 -1.94449,0.49945 l -2.28179,-4.1e-4 v -8.23517 h 2.28179 c 0.73962,0 1.38797,0.16646 1.94449,0.49945 0.55651,0.32207 0.98558,0.79908 1.2876,1.42077 0.30203,0.62169 0.45283,1.35427 0.45283,2.19757 0,0.84338 -0.1508,1.57588 -0.45283,2.19757 -0.30202,0.62169 -0.73109,1.09878 -1.2876,1.42077 z m 13.16017,-23.88407 c -0.15942,0 -0.31906,0.0118 -0.47715,0.0339 l -30.59451,4.37041 c -1.66135,0.23706 -2.89527,1.66025 -2.89527,3.33847 v 12.98022 2.34533 c 0,0.66641 0.19769,1.31689 0.56774,1.87142 l 5.15811,7.729903 -0.0954,0.111605 c -0.52375,0.611421 -0.81198,1.389788 -0.81198,2.194911 v 9.834236 c 0,1.862749 1.50968,3.372432 3.37244,3.372432 h 7.88841 l 2.2127,3.315819 c 0.62542,0.937627 1.67929,1.499398 2.80632,1.499398 l 28.5306,0.0017 c 1.86275,-3.9e-5 3.37243,-1.509721 3.37243,-3.37247 V 26.996313 c 0,-1.34913 -0.80475,-2.56928 -2.04448,-3.1007 l -4.49819,-1.92802 0.91225,-1.0643 c 0.5243,-0.61142 0.81197,-1.39091 0.81197,-2.19653 v -1.17428 c 1e-5,-0.003 0,-0.005 0,-0.008 v -8.65184 c 0,-0.46569 -0.0962,-0.90987 -0.26688,-1.31339 -0.17064,-0.40272 -0.41833,-0.76609 -0.72301,-1.07077 -0.076,-0.076 -0.15481,-0.14985 -0.23777,-0.21835 h -0.002 c -0.0829,-0.0685 -0.16782,-0.13371 -0.25714,-0.1941 h -0.002 c -0.0893,-0.0604 -0.18141,-0.11648 -0.27655,-0.16822 h -0.002 c -0.0951,-0.0517 -0.19233,-0.0998 -0.29272,-0.14234 h -0.002 c -0.10036,-0.0425 -0.20381,-0.0805 -0.3089,-0.11322 h -0.002 c -0.10506,-0.0327 -0.21261,-0.0617 -0.32184,-0.0841 h -0.002 c -0.1092,-0.0224 -0.22036,-0.0386 -0.33317,-0.0502 h -0.002 c -0.11279,-0.0114 -0.22704,-0.0177 -0.34287,-0.0178 h -0.002 z m -24.02918,9.93775 h 33.12585 v 33.125851 h -33.12585 z"
     style="fill:currentColor;fill-opacity:1;stroke-width:0.828146"
     class="ColorScheme-Text" />
</svg>
