<?xml version="1.0" encoding="UTF-8" standalone="no"?>
<svg
   width="64"
   height="64"
   version="1.1"
   viewBox="0 0 16.933 16.933"
   id="svg7"
   sodipodi:docname="dbeaver.svg"
   inkscape:version="1.4.3 (0d15f75042, 2025-12-25)"
   xmlns:inkscape="http://www.inkscape.org/namespaces/inkscape"
   xmlns:sodipodi="http://sodipodi.sourceforge.net/DTD/sodipodi-0.dtd"
   xmlns="http://www.w3.org/2000/svg"
   xmlns:svg="http://www.w3.org/2000/svg"
   xmlns:rdf="http://www.w3.org/1999/02/22-rdf-syntax-ns#"
   xmlns:cc="http://creativecommons.org/ns#"
   xmlns:dc="http://purl.org/dc/elements/1.1/">
  <sodipodi:namedview
     id="namedview7"
     pagecolor="#9c4444"
     bordercolor="#000000"
     borderopacity="0.25"
     inkscape:showpageshadow="2"
     inkscape:pageopacity="0.0"
     inkscape:pagecheckerboard="0"
     inkscape:deskcolor="#d1d1d1"
     inkscape:zoom="3.0781251"
     inkscape:cx="81.380708"
     inkscape:cy="63.999998"
     inkscape:window-width="2560"
     inkscape:window-height="1388"
     inkscape:window-x="0"
     inkscape:window-y="0"
     inkscape:window-maximized="1"
     inkscape:current-layer="svg7"
     showgrid="false" />
  <defs
     id="defs2">
    <style
       id="current-color-scheme"
       type="text/css">.ColorScheme-Text {color:#d8dee9} .ColorScheme-Highlight {color:#3b4252}</style>
  </defs>
  <metadata
     id="metadata2">
    <rdf:RDF>
      <cc:Work
         rdf:about="">
        <dc:format>image/svg+xml</dc:format>
        <dc:type
           rdf:resource="http://purl.org/dc/dcmitype/StillImage" />
      </cc:Work>
    </rdf:RDF>
  </metadata>
  <path
     d="M 8.6396488,15.374556 C 7.0662716,14.939101 5.6221489,13.382235 4.2705028,10.664416 3.1274782,8.3662491 2.6395137,6.5432911 2.7173216,4.8621311 c 0.063635,-1.375244 0.4483519,-2.136245 1.2573979,-2.487301 0.4539502,-0.197 1.1005775,-0.170852 1.6389259,0.06604 0.6207623,0.273249 0.8454697,0.58937 1.1024908,1.550418 0.1206801,0.451186 0.1513638,0.826053 0.1809139,2.208737 l 0.035573,1.665287 0.1210345,-0.354316 C 7.1861719,7.1228071 7.6790968,6.1084701 7.9299528,5.7076671 8.1667069,5.3293991 8.1862653,4.9575091 7.9914618,4.5347381 7.8875763,4.3092511 7.8279802,4.0471991 7.827555,3.8142011 7.826495,3.2443181 7.844987,3.2243351 8.3788713,3.2196581 l 0.4667763,-0.004 0.2641784,-0.349781 c 0.3242703,-0.429432 0.933269,-0.922357 1.486003,-1.202975 0.3546,-0.179993 0.493208,-0.210322 0.948576,-0.207559 0.435029,0.0026 0.591566,0.036 0.849509,0.181269 0.173898,0.09786 0.252911,0.157883 0.175599,0.133364 -0.998464,-0.317467 -1.872846,-0.08178 -2.729441,0.735632 -1.0522488,1.004133 -1.7705189,2.719449 -1.422722,3.397752 0.1343568,0.261982 0.1042399,0.287351 -0.090634,0.07639 l -0.1379709,-0.14938 -0.1370495,0.273391 c -0.3061294,0.610558 -0.7928183,1.949448 -0.9750786,2.682741 -0.1675209,0.674335 -0.1934568,0.918105 -0.1921813,1.8070139 0.00127,0.921648 0.020692,1.08605 0.1888507,1.595841 0.2253451,0.683476 0.7954402,1.651681 1.0724448,1.82154 0.040109,0.02459 -0.00411,-0.248021 -0.098358,-0.605668 -0.2038736,-0.774394 -0.2498639,-2.09486 -0.088933,-2.555259 l 0.096162,-0.27495 0.2162747,0.381245 c 0.3706149,0.653218 1.4392331,1.614974 1.9334331,1.740048 0.367001,0.09283 0.358214,-0.390386 -0.02594,-1.429596 -0.3319233,-0.897979 -0.3978969,-1.242445 -0.4005189,-2.0904659 -0.00255,-0.84469 0.1016888,-1.222746 0.5789529,-2.09975 0.325688,-0.598511 0.349356,-0.855036 0.140947,-1.525686 -0.07682,-0.2471 -0.140026,-0.490091 -0.140522,-0.54012 -5e-4,-0.04996 0.165112,0.0343 0.367922,0.187221 0.518578,0.390882 1.200849,0.719758 1.589464,0.766173 0.286641,0.03423 0.359843,0.01453 0.552237,-0.148742 0.239518,-0.203306 0.510712,-0.828179 0.510712,-1.177039 0,-0.115507 0.03019,-0.209897 0.06704,-0.209897 0.09141,0 0.164686,0.430566 0.132018,0.775812 l -0.02672,0.282886 0.194874,-0.188284 c 0.107145,-0.103531 0.258793,-0.34971 0.336884,-0.547064 l 0.14201,-0.358781 -0.02317,0.604322 c -0.02105,0.546781 -0.05464,0.672067 -0.352899,1.315435 -0.201535,0.434958 -0.329514,0.810534 -0.329514,0.967071 0,0.140734 0.09496,0.495192 0.211101,0.787645 0.493776,1.243792 0.625439,3.1653209 0.315838,4.6096559 -0.233849,1.090869 -0.23151,1.452697 0.01141,1.743733 0.153348,0.183819 0.175528,0.25695 0.122948,0.405692 -0.09793,0.277146 -0.37756,0.444029 -0.893444,0.533175 -0.422629,0.07299 -0.515885,0.06562 -0.94886,-0.07497 -0.610557,-0.198346 -0.748387,-0.195795 -1.152591,0.02119 -0.306554,0.164615 -0.396055,0.176662 -1.2641296,0.17078 -0.5477023,-0.0037 -1.0775469,-0.04599 -1.2807119,-0.102184 z M 12.828377,7.1035361 c 0.06059,-0.04875 0.147183,-0.152356 0.192465,-0.230306 0.0783,-0.134782 0.08022,-0.133931 0.03912,0.01772 -0.06463,0.238455 0.08553,0.193882 0.218117,-0.0647 0.162347,-0.316688 0.387834,-0.996763 0.34482,-1.040131 -0.01984,-0.02005 -0.122593,0.04698 -0.228534,0.148813 -0.235691,0.226762 -0.508089,0.335892 -0.838312,0.335892 h -0.25029 l 0.03352,0.352048 c 0.04833,0.50724 0.231865,0.687658 0.48917,0.480666 z m -0.118342,-3.197918 c -0.707215,-0.336317 -0.880405,-0.807558 -0.386417,-1.051186 0.32101,-0.158308 1.180511,-0.305137 1.424564,-0.243344 0.168726,0.04273 0.191473,0.08227 0.191473,0.333412 0,0.48761 -0.435809,1.130977 -0.764828,1.128922 -0.06236,-3.59e-4 -0.271548,-0.07582 -0.464792,-0.167804 z M 10.31514,3.4895091 c 0.08326,-0.129325 0.08773,-0.215424 0.02374,-0.455155 -0.146687,-0.549261 0.190906,-0.671075 0.883382,-0.318814 l 0.394,0.200402 -0.370686,0.117845 c -0.203874,0.06484 -0.500295,0.229739 -0.658745,0.366505 -0.332845,0.287351 -0.417031,0.314987 -0.27169,0.08922 z"
     id="path5"
     style="fill:currentColor;fill-opacity:1;stroke-width:0.0708633"
     class="ColorScheme-Text" />
</svg>
