<?xml version="1.0" encoding="UTF-8" standalone="no"?>
<svg
   width="64"
   height="64"
   version="1.1"
   viewBox="0 0 16.933 16.933"
   id="svg7"
   sodipodi:docname="dbeaver-alt.svg"
   inkscape:version="1.4.3 (0d15f75042, 2025-12-25)"
   xmlns:inkscape="http://www.inkscape.org/namespaces/inkscape"
   xmlns:sodipodi="http://sodipodi.sourceforge.net/DTD/sodipodi-0.dtd"
   xmlns="http://www.w3.org/2000/svg"
   xmlns:svg="http://www.w3.org/2000/svg"
   xmlns:rdf="http://www.w3.org/1999/02/22-rdf-syntax-ns#"
   xmlns:cc="http://creativecommons.org/ns#"
   xmlns:dc="http://purl.org/dc/elements/1.1/">
  <sodipodi:namedview
     id="namedview7"
     pagecolor="#9c4444"
     bordercolor="#000000"
     borderopacity="0.25"
     inkscape:showpageshadow="2"
     inkscape:pageopacity="0.0"
     inkscape:pagecheckerboard="0"
     inkscape:deskcolor="#d1d1d1"
     inkscape:zoom="3.0781251"
     inkscape:cx="81.380708"
     inkscape:cy="63.999998"
     inkscape:window-width="2560"
     inkscape:window-height="1388"
     inkscape:window-x="0"
     inkscape:window-y="0"
     inkscape:window-maximized="1"
     inkscape:current-layer="svg7"
     showgrid="false" />
  <defs
     id="defs2">
    <style
       id="current-color-scheme"
       type="text/css">.ColorScheme-Text {color:#d8dee9} .ColorScheme-Highlight {color:#3b4252}</style>
  </defs>
  <metadata
     id="metadata2">
    <rdf:RDF>
      <cc:Work
         rdf:about="">
        <dc:format>image/svg+xml</dc:format>
        <dc:type
           rdf:resource="http://purl.org/dc/dcmitype/StillImage" />
      </cc:Work>
    </rdf:RDF>
  </metadata>
  <path
     id="path5"
     d="m 8.4588507,1.4551794 c -0.936483,0 -1.153788,0.01654 -1.551819,0.118521 -1.425401,0.365137 -2.480605,0.964772 -3.457561,1.964848 -0.920722,0.942414 -1.534182,2.094756 -1.828147,3.433938 -0.161288,0.735051 -0.14757,2.304183 0.02706,3.0805306 0.612533,2.723285 2.819534,4.843624 5.561162,5.342811 0.59161,0.107745 1.850415,0.109631 2.453723,0.0037 0.5738173,-0.100716 1.4557733,-0.3894 1.9348063,-0.633227 1.858139,-0.946038 3.203359,-2.678176 3.682227,-4.741371 0.121914,-0.5252166 0.141679,-0.7368146 0.144095,-1.5422686 0.0024,-0.780411 -0.01781,-1.028175 -0.123194,-1.510173 C 14.710252,4.2688104 12.759215,2.2777834 10.010668,1.5737044 9.6126367,1.4717254 9.3953857,1.4551834 8.4588477,1.4551834 Z m 1.6558603,1.565787 c 0.337129,0.002 0.458444,0.02792 0.658338,0.140501 0.134764,0.07584 0.195998,0.122322 0.136084,0.103321 -0.773766,-0.246024 -1.4513823,-0.06334 -2.1152073,0.570115 -0.815448,0.77816 -1.372116,2.10744 -1.102588,2.633097 0.10412,0.203024 0.08082,0.222694 -0.0702,0.05921 l -0.106916,-0.115748 -0.106248,0.211828 c -0.237237,0.473157 -0.614356,1.510784 -0.7556,2.079056 -0.129822,0.52258 -0.149962,0.711463 -0.148974,1.4003296 9.84e-4,0.714237 0.01604,0.841655 0.146355,1.236721 0.174633,0.529665 0.616472,1.279993 0.831139,1.411627 0.03108,0.01906 -0.0032,-0.1922 -0.07626,-0.469361 -0.157994,-0.600123 -0.193629,-1.623464 -0.06892,-1.980253 l 0.07451,-0.213062 0.167614,0.295431 c 0.287211,0.506216 1.115327,1.251537 1.498311,1.348464 0.28441,0.07194 0.277621,-0.302534 -0.02008,-1.107878 -0.257227,-0.6958956 -0.308342,-0.9628346 -0.310374,-1.6200146 -0.002,-0.654599 0.07881,-0.947565 0.448666,-1.627206 0.252394,-0.46382 0.270735,-0.662613 0.109227,-1.182338 -0.05953,-0.191492 -0.108534,-0.379803 -0.108919,-0.418574 -3.87e-4,-0.03872 0.127939,0.02656 0.285109,0.145071 0.401875,0.302916 0.9306323,0.557818 1.2317913,0.593788 0.222135,0.02652 0.278875,0.01124 0.427972,-0.115286 0.185616,-0.157554 0.395773,-0.641822 0.395773,-0.912174 0,-0.08951 0.02341,-0.162633 0.05197,-0.162633 0.07084,0 0.12761,0.333632 0.102294,0.601183 l -0.02069,0.219275 0.151027,-0.145944 c 0.08303,-0.08023 0.200507,-0.271024 0.261025,-0.423966 l 0.110048,-0.278022 -0.01792,0.468335 c -0.01631,0.423732 -0.04236,0.520815 -0.273503,1.019397 -0.156181,0.337075 -0.255324,0.628128 -0.255324,0.749438 0,0.109063 0.07355,0.383737 0.163557,0.610375 0.382655,0.963886 0.484725,2.4529826 0.244797,3.5722816 -0.181223,0.845377 -0.179419,1.1258 0.0088,1.35134 0.118838,0.142452 0.136006,0.19911 0.09526,0.314379 -0.07589,0.214777 -0.292597,0.344098 -0.692385,0.413182 -0.32752,0.05656 -0.399779,0.05087 -0.735316,-0.05808 -0.473157,-0.15371 -0.579984,-0.15172 -0.8932253,0.01643 -0.237566,0.12757 -0.306929,0.136893 -0.97965,0.132335 -0.424446,-0.0029 -0.835045,-0.03564 -0.992489,-0.07919 -1.219301,-0.337459 -2.338404,-1.543989 -3.385872,-3.650184 -0.885796,-1.7809806 -1.263948,-3.1936946 -1.20365,-4.4965226 0.04931,-1.065755 0.347436,-1.65546 0.974412,-1.927514 0.351792,-0.152666 0.852903,-0.132437 1.2701,0.05115 0.481065,0.211756 0.655222,0.456774 0.854402,1.201545 0.09352,0.34965 0.117293,0.640158 0.140193,1.71168 l 0.02758,1.290487 0.09377,-0.274582 c 0.102693,-0.30083 0.484682,-1.0869 0.679085,-1.397505 0.183475,-0.293142 0.198619,-0.58131 0.04765,-0.908939 -0.08051,-0.174743 -0.126665,-0.377842 -0.126994,-0.558406 -8.25e-4,-0.441635 0.01352,-0.45711 0.427252,-0.460735 l 0.361727,-0.0031 0.204742,-0.271038 c 0.251296,-0.332791 0.723234,-0.714785 1.151579,-0.932253 0.2748,-0.139486 0.38222,-0.163029 0.7351103,-0.160887 z m -0.7320813,0.822564 c 0.118603,9.44e-4 0.281166,0.05164 0.482405,0.154006 l 0.3053423,0.155341 -0.2872663,0.09131 c -0.157993,0.05025 -0.387702,0.178042 -0.510495,0.28403 -0.25794,0.222685 -0.323177,0.244083 -0.210544,0.06912 0.06453,-0.100222 0.06797,-0.166908 0.01838,-0.352689 -0.07105,-0.266034 0.0045,-0.402694 0.202174,-0.401114 z m 2.3483483,0.06239 c 0.0368,0.0012 0.06792,0.0047 0.09156,0.01068 0.130755,0.03311 0.148356,0.06378 0.148356,0.258405 0,0.377877 -0.337734,0.876433 -0.59271,0.87484 -0.04833,-2.78e-4 -0.210429,-0.05874 -0.360185,-0.130024 -0.548062,-0.260631 -0.682256,-0.625854 -0.299437,-0.814655 0.217674,-0.107347 0.754819,-0.207871 1.012414,-0.199248 z m -0.01417,2.468461 c -0.02667,6.16e-4 -0.09665,0.04901 -0.168488,0.118059 -0.182651,0.175732 -0.393751,0.260306 -0.649659,0.260306 h -0.193959 l 0.02598,0.272836 c 0.03745,0.393066 0.17965,0.532825 0.379032,0.372459 0.04695,-0.03779 0.114094,-0.118053 0.149179,-0.17845 0.0301,-0.05182 0.04569,-0.07772 0.04981,-0.07636 1.09e-4,4.2e-5 2.78e-4,1.09e-4 3.87e-4,2.19e-4 0.0032,0.0034 -0.0044,0.03294 -0.01987,0.08987 -0.05008,0.184793 0.06625,0.150269 0.169001,-0.05012 0.125813,-0.24542 0.300572,-0.772471 0.267238,-0.80608 -0.0019,-0.0019 -0.0048,-0.0028 -0.0086,-0.0027 z"
     style="fill:currentColor"
     class="ColorScheme-Text" />
</svg>
