<?xml version='1.0' encoding='UTF-8'?>
<svg xmlns:inkscape="http://www.inkscape.org/namespaces/inkscape" xmlns:sodipodi="http://sodipodi.sourceforge.net/DTD/sodipodi-0.dtd" xmlns="http://www.w3.org/2000/svg" xmlns:svg="http://www.w3.org/2000/svg" xmlns:rdf="http://www.w3.org/1999/02/22-rdf-syntax-ns#" xmlns:cc="http://creativecommons.org/ns#" xmlns:dc="http://purl.org/dc/elements/1.1/" width="64" height="64" version="1.1" viewBox="0 0 16.933 16.933" id="svg7" sodipodi:docname="de.haeckerfelix.Shortwave.svg" inkscape:version="1.4 (e7c3feb100, 2024-10-09)">
  <sodipodi:namedview id="namedview7" pagecolor="#9c4444" bordercolor="#000000" borderopacity="0.25" inkscape:showpageshadow="2" inkscape:pageopacity="0.0" inkscape:pagecheckerboard="0" inkscape:deskcolor="#d1d1d1" inkscape:zoom="6.15625" inkscape:cx="15.837563" inkscape:cy="29.725888" inkscape:window-width="1183" inkscape:window-height="941" inkscape:window-x="35" inkscape:window-y="32" inkscape:window-maximized="0" inkscape:current-layer="svg7" showgrid="false"/>
  <defs id="defs2">
    <style id="current-color-scheme" type="text/css">.ColorScheme-Text {color:#d8dee9} .ColorScheme-Highlight {color:#3b4252}</style></defs>
  <metadata id="metadata2">
    <rdf:RDF>
      <cc:Work rdf:about="">
        <dc:format>image/svg+xml</dc:format>
        <dc:type rdf:resource="http://purl.org/dc/dcmitype/StillImage"/>
      </cc:Work>
    </rdf:RDF>
  </metadata>
  <path id="path10" style="fill:currentColor;fill-opacity:1;stroke:none;stroke-width:0.112904" d="m 11.636927,2.2171538 c -0.0696,-1.63e-5 -1.241825,0.4289298 -3.4844899,1.2745145 l -3.3792959,1.274046 0.084058,0.0958 c 0.047677,0.054302 0.1045874,0.1693166 0.1310221,0.2643891 l 0.046962,0.1681196 h 0.147459 c 0.1255957,0 0.6263201,-0.1806026 3.3755394,-1.2167533 C 10.333545,3.4081537 11.813631,2.8356366 11.847312,2.8046328 12.004366,2.6600618 12.001592,2.445258 11.840612,2.304031 11.768162,2.240417 11.713635,2.217171 11.636801,2.217154 Z M 4.2950805,4.6201353 C 4.1265976,4.6189018 3.9555356,4.6762695 3.8188981,4.7962387 3.712666,4.8895124 3.586899,5.124374 3.5864428,5.2306256 v 0.063397 h 0.7053507 c 0.3881033,0 0.7059064,-0.00948 0.7058197,-0.021134 C 4.997033,5.1968522 4.9223079,5.0085202 4.8525047,4.9070655 4.7239325,4.7201924 4.5117008,4.6217288 4.2950805,4.6201347 Z M 10.558237,5.320321 v 4.447653 4.447653 l 1.99677,-0.0091 c 1.825737,-0.0082 2.007912,-0.01292 2.124035,-0.05823 0.187986,-0.07347 0.387001,-0.230628 0.482288,-0.38085 0.175522,-0.276727 0.166706,-0.06888 0.166706,-4.0179629 0,-3.5860153 -2.2e-4,-3.6075957 -0.05871,-3.7639055 C 15.162793,5.700815 14.926676,5.4649274 14.656019,5.3731855 14.578043,5.3467527 14.055357,5.33567 12.554994,5.3290428 Z m -0.02817,9.071e-4 -4.0574085,0.00752 -4.0578794,0.00752 -0.1775113,0.082183 C 2.0142775,5.5214273 1.807164,5.7399524 1.7253916,5.9585092 1.6673922,6.113534 1.6671604,6.1424577 1.6671604,9.7679664 c 0,3.6158596 3.992e-4,3.6546936 0.057762,3.8080466 0.1124933,0.300669 0.4193601,0.552761 0.7358748,0.605324 0.083602,0.01387 1.9332213,0.02683 4.1104758,0.02865 l 3.958792,0.0032 V 9.7675051 Z M 6.0312207,6.5126244 c 0.4837343,-0.00942 0.9696819,0.086271 1.4121102,0.2906865 0.198698,0.091804 0.6875057,0.392973 0.6875057,0.4235862 -2e-7,0.00811 -0.923583,0.014554 -2.0521857,0.014554 -1.1898577,0 -2.0404968,-0.010412 -2.024948,-0.024892 C 4.0684469,7.2028222 4.1663805,7.133343 4.271601,7.0620588 4.7906022,6.710449 5.4092769,6.5247238 6.0312216,6.5126176 Z m 6.9483143,0.9626949 c 0.342246,0.01349 0.67568,0.2056026 0.843416,0.5513197 0.06737,0.1388615 0.07786,0.1950274 0.07794,0.4146633 8.2e-5,0.199967 -0.01292,0.2821483 -0.06059,0.3869566 -0.08423,0.1847997 -0.296252,0.4020507 -0.480411,0.492149 -0.262951,0.1286509 -0.621741,0.1184023 -0.898358,-0.025829 -0.139802,-0.072894 -0.326091,-0.2773857 -0.404803,-0.4442488 -0.06194,-0.1313299 -0.07336,-0.1941246 -0.07326,-0.409028 1.73e-4,-0.3053388 0.05529,-0.4481289 0.255469,-0.662147 0.202834,-0.2168468 0.474378,-0.3143364 0.74057,-0.3038358 z M 12.515563,7.915812 c -0.02768,9.793e-4 -0.05605,0.011191 -0.08219,0.032874 -0.05687,0.047211 -0.05121,0.1871025 0.0089,0.2221247 0.07591,0.044209 0.134273,0.036054 0.191129,-0.026769 0.08892,-0.098262 -0.0093,-0.2320721 -0.117876,-0.228229 z M 3.3652585,7.947288 h 2.7152717 2.7157411 l 0.089224,0.1479264 c 0.1098504,0.1818946 0.2611016,0.5127677 0.2611016,0.5710429 0,0.038196 -0.3392878,0.043202 -3.0623113,0.043202 -2.5373571,0 -3.0623114,-0.00676 -3.0623114,-0.03804 0,-0.020752 0.077011,-0.1920311 0.1714066,-0.3808525 z M 2.8599609,9.3866359 h 3.2247955 3.2247955 l 0.01691,0.063397 c 0.022245,0.083039 0.023053,0.5965411 9.069e-4,0.6541641 -0.015485,0.04035 -0.3274517,0.04461 -3.2421714,0.04461 H 2.8599557 l -0.017841,-0.131022 c -0.00988,-0.072025 -0.017841,-0.1843062 -0.017841,-0.2498321 0,-0.065523 0.00796,-0.1782751 0.017841,-0.2503008 z m 9.4860731,0.7339961 c 0.347166,0 0.357371,0.01053 0.357371,0.37193 0,0.224371 -0.0084,0.276085 -0.05166,0.315108 -0.04011,0.03632 -0.109155,0.04695 -0.310413,0.04695 -0.350835,0 -0.371927,-0.02095 -0.371927,-0.367233 0,-0.347185 0.02023,-0.366764 0.376626,-0.366764 z m 1.194212,0 c 0.356399,0 0.376626,0.01958 0.376626,0.366764 0,0.216396 -0.0082,0.262322 -0.05635,0.310411 -0.04839,0.04839 -0.09415,0.05682 -0.320274,0.05682 -0.350198,0 -0.371457,-0.02115 -0.371457,-0.367233 0,-0.346074 0.02126,-0.366764 0.371457,-0.366764 z m -7.4559593,0.705351 c 1.9443481,0 3.0623113,0.01 3.0623113,0.02723 0,0.05781 -0.1214309,0.335257 -0.2324557,0.530657 L 8.7981496,11.588159 H 6.0955575 3.3924957 l -0.059641,-0.08408 c -0.069825,-0.09805 -0.3108805,-0.598684 -0.3108805,-0.645711 0,-0.02367 0.7977464,-0.0324 3.0623116,-0.0324 z m 6.2434333,0.479938 c 0.201166,0 0.309593,0.02964 0.354084,0.09628 0.0114,0.01708 0.02088,0.148498 0.02113,0.292098 3.99e-4,0.223803 -0.0076,0.269065 -0.05588,0.317454 -0.04746,0.04744 -0.09411,0.05635 -0.292566,0.05635 -0.19613,0 -0.249104,-0.0095 -0.31088,-0.05823 -0.07087,-0.05575 -0.07419,-0.07098 -0.07419,-0.32262 0,-0.251635 0.0034,-0.266873 0.07419,-0.322621 0.0601,-0.04726 0.114646,-0.0587 0.284113,-0.0587 z m 1.335095,4.73e-4 c 0.108547,1.92e-4 0.131005,0.01509 0.18221,0.06622 0.06654,0.06652 0.07186,0.09155 0.07186,0.325437 0,0.239989 -0.0038,0.256388 -0.07419,0.311821 -0.0616,0.04845 -0.114627,0.05824 -0.307593,0.05824 -0.34036,0 -0.366293,-0.02671 -0.366293,-0.377564 0,-0.353223 0.01292,-0.367141 0.352676,-0.380383 0.05962,-0.0023 0.105184,-0.0038 0.14136,-0.0037 z m -7.5785283,0.959409 c 1.2529252,0 2.0465502,0.01007 2.0465502,0.0263 0,0.04828 -0.4809301,0.347354 -0.7339969,0.456458 -0.2813139,0.121277 -0.5876043,0.205101 -0.9124473,0.249362 -0.5901619,0.08041 -1.2683988,-0.03205 -1.8112767,-0.300081 -0.2202987,-0.108756 -0.6353791,-0.37684 -0.6353791,-0.410436 0,-0.01178 0.9210527,-0.0216 2.0465498,-0.0216 z" class="ColorScheme-Text"/>
  <g id="g9" transform="matrix(0.46959567,0,0,0.46959567,4.7471229,3.7470598)" style="fill:#999999;fill-opacity:1;stroke:none;stroke-width:0.58349;stroke-dasharray:none;stroke-opacity:0.3"/>
  </svg>
