<?xml version="1.0" encoding="UTF-8" standalone="no"?>
<!-- Created with Inkscape (http://www.inkscape.org/) -->

<svg
   width="64"
   height="64"
   viewBox="0 0 16.933333 16.933333"
   version="1.1"
   id="svg896"
   inkscape:version="1.4.3 (0d15f75042, 2025-12-25)"
   sodipodi:docname="debian.svg"
   xmlns:inkscape="http://www.inkscape.org/namespaces/inkscape"
   xmlns:sodipodi="http://sodipodi.sourceforge.net/DTD/sodipodi-0.dtd"
   xmlns="http://www.w3.org/2000/svg"
   xmlns:svg="http://www.w3.org/2000/svg"
   xmlns:rdf="http://www.w3.org/1999/02/22-rdf-syntax-ns#"
   xmlns:cc="http://creativecommons.org/ns#"
   xmlns:dc="http://purl.org/dc/elements/1.1/">
  <defs
     id="defs890">
    <style
       id="current-color-scheme"
       type="text/css">.ColorScheme-Text {color:#d8dee9} .ColorScheme-Highlight {color:#7f7fff}</style>
  </defs>
  <sodipodi:namedview
     id="base"
     pagecolor="#7f3232"
     bordercolor="#666666"
     borderopacity="1.0"
     inkscape:pageopacity="0.0"
     inkscape:pageshadow="2"
     inkscape:zoom="9.861792"
     inkscape:cx="79.549437"
     inkscape:cy="17.542451"
     inkscape:document-units="px"
     inkscape:current-layer="svg896"
     showgrid="false"
     inkscape:window-width="2560"
     inkscape:window-height="1388"
     inkscape:window-x="0"
     inkscape:window-y="0"
     inkscape:window-maximized="1"
     inkscape:showpageshadow="0"
     inkscape:pagecheckerboard="0"
     inkscape:deskcolor="#505050" />
  <metadata
     id="metadata893">
    <rdf:RDF>
      <cc:Work
         rdf:about="">
        <dc:format>image/svg+xml</dc:format>
        <dc:type
           rdf:resource="http://purl.org/dc/dcmitype/StillImage" />
      </cc:Work>
    </rdf:RDF>
  </metadata>
  <path
     d="m 9.5662761,8.8636943 c -0.232307,0.0031 0.04399,0.119584 0.347279,0.166383 0.08381,-0.06536 0.1598579,-0.131509 0.2275819,-0.195858 -0.1888829,0.04612 -0.3810289,0.04714 -0.5748609,0.02947 m 1.2471439,-0.31083 c 0.13826,-0.190908 0.239282,-0.400041 0.274718,-0.61626 -0.03105,0.154008 -0.114634,0.287205 -0.193495,0.427602 -0.434239,0.273481 -0.04084,-0.162334 -2.25e-4,-0.328042 -0.466863,0.587798 -0.06412,0.352454 -0.081,0.5167 m 0.460451,-1.197871 c 0.02801,-0.41849 -0.08246,-0.286193 -0.119584,-0.12656 0.0432,0.02261 0.07762,0.294968 0.119584,0.12656 M 8.6851951,1.6359643 c 0.123972,0.02228 0.267856,0.03937 0.247719,0.06885 0.135671,-0.02959 0.166496,-0.05692 -0.247719,-0.06885 m 0.247719,0.06896 -0.08764,0.01811 0.08156,-0.0072 0.0061,-0.01091 m 3.8667559,5.808684 c 0.01384,0.375741 -0.110022,0.558099 -0.221507,0.880741 l -0.20092,0.100348 c -0.164246,0.319267 0.01597,0.20272 -0.101585,0.456626 -0.256607,0.228032 -0.778594,0.713795 -0.945653,0.758007 -0.121946,-0.0026 0.08257,-0.143772 0.109348,-0.199233 -0.343342,0.236019 -0.275506,0.354029 -0.800756,0.4974627 l -0.0153,-0.03431 c -1.2955189,0.6093977 -3.0947999,-0.59826 -3.0710629,-2.24612 -0.01384,0.104735 -0.03926,0.07841 -0.06806,0.120822 -0.06682,-0.847892 0.391603,-1.699496 1.164684,-2.047 0.756207,-0.374504 1.6426859,-0.220833 2.1843599,0.283943 -0.297443,-0.389803 -0.8897409,-0.802893 -1.5916119,-0.764194 -0.68747,0.01091 -1.330617,0.447739 -1.54515,0.922027 -0.352341,0.221845 -0.393177,0.85498 -0.546624,0.970627 -0.206432,1.5177 0.388453,2.173222 1.394741,2.9446157 0.158284,0.10676 0.04455,0.122959 0.06604,0.204182 -0.334342,-0.156596 -0.64056,-0.3929527 -0.892217,-0.6822957 0.133422,0.195633 0.277644,0.3857537 0.464052,0.5350367 -0.31533,-0.106759 -0.736407,-0.7638557 -0.859479,-0.7906297 0.543586,0.9729887 2.204833,1.7064707 3.0748879,1.3426547 -0.4026279,0.01474 -0.9139279,0.0082 -1.3662799,-0.158959 -0.189895,-0.09776 -0.448189,-0.300255 -0.402065,-0.338279 1.187183,0.443689 2.4137409,0.336142 3.4408409,-0.4874507 0.261331,-0.20362 0.54685,-0.549774 0.62931,-0.554612 -0.124309,0.186858 0.02115,0.09 -0.07425,0.254919 0.260543,-0.419952 -0.11306,-0.171108 0.269318,-0.725382 l 0.141297,0.194508 c -0.05254,-0.348517 0.432889,-0.771844 0.383616,-1.323193 0.111372,-0.168634 0.124197,0.181345 0.0061,0.569348 0.163908,-0.430302 0.0432,-0.499487 0.08538,-0.854641 0.04545,0.119472 0.105185,0.246144 0.135897,0.372141 -0.106872,-0.41579 0.109685,-0.700408 0.163121,-0.94194 -0.05254,-0.0234 -0.164696,0.183821 -0.190345,-0.307343 0.0038,-0.213294 0.0594,-0.111709 0.08077,-0.164246 -0.04196,-0.02419 -0.151758,-0.187645 -0.218694,-0.501287 0.04849,-0.07369 0.129484,0.19102 0.195633,0.201932 -0.04252,-0.249406 -0.115648,-0.439527 -0.11846,-0.630997 -0.192708,-0.402628 -0.06817,0.05377 -0.224545,-0.172796 -0.205082,-0.639772 0.170209,-0.148496 0.195521,-0.439077 0.31083,0.450327 0.488125,1.148373 0.569461,1.437378 -0.0621,-0.352454 -0.162334,-0.693883 -0.284843,-1.024288 0.09439,0.03982 -0.152097,-0.725157 0.122734,-0.218582 -0.293505,-1.079974 -1.256144,-2.088961 -2.141723,-2.562463 0.108223,0.09911 0.245132,0.223758 0.196083,0.243219 -0.440427,-0.262231 -0.363029,-0.282705 -0.426027,-0.393515 -0.358866,-0.145909 -0.382378,0.0117 -0.619972,3.38e-4 -0.676334,-0.358642 -0.806718,-0.320618 -1.4290529,-0.545387 l 0.02835,0.132409 c -0.448189,-0.149284 -0.5221,0.05659 -1.006288,4.68e-4 -0.02959,-0.02306 0.155134,-0.08325 0.307117,-0.105411 -0.433114,0.05715 -0.412865,-0.08538 -0.836754,0.01575 0.10451,-0.07324 0.214757,-0.121722 0.326242,-0.184158 -0.353129,0.02149 -0.843167,0.205645 -0.691971,0.03814 -0.576098,0.257169 -1.599486,0.617948 -2.173672,1.156472 l -0.01811,-0.12071 c -0.263131,0.316005 -1.147472,0.943515 -1.217895,1.352443 l -0.07031,0.01643 c -0.137022,0.231744 -0.225445,0.494538 -0.334117,0.733144 -0.1790958,0.305205 -0.2625688,0.117448 -0.2370317,0.165259 -0.3523415,0.714245 -0.5272748,1.314305 -0.6783586,1.806369 0.1077724,0.161096 0.00247,0.969051 0.043311,1.61591 -0.1768457,3.1942477 2.2418463,6.2955727 4.8857573,7.0118427 0.387552,0.138371 0.963764,0.133197 1.453914,0.147484 -0.578348,-0.165484 -0.653159,-0.08752 -1.216433,-0.284056 -0.406565,-0.191358 -0.49555,-0.40994 -0.783431,-0.659684 l 0.114073,0.20137 c -0.564624,-0.199682 -0.328268,-0.247269 -0.787706,-0.392727 l 0.121834,-0.158847 c -0.183033,-0.01384 -0.484751,-0.308242 -0.567211,-0.471476 l -0.200137,0.0079 c -0.240519,-0.296768 -0.368654,-0.510512 -0.359317,-0.676221 l -0.06469,0.115197 c -0.07335,-0.125884 -0.884791,-1.112935 -0.463826,-0.883103 -0.0783,-0.07166 -0.182245,-0.116435 -0.294968,-0.321292 l 0.08572,-0.09798 c -0.20272,-0.260544 -0.372928,-0.594773 -0.359991,-0.706033 0.107998,0.146021 0.183033,0.173246 0.257281,0.198332 -0.511637,-1.269532 -0.540324,-0.06997 -0.927877,-1.292256 l 0.08201,-0.0066 C 3.8693371,9.9558653 3.8311945,9.8530403 3.7806832,9.7522423 l 0.03555,-0.355604 C 3.4479162,8.9707233 3.713185,7.5856573 3.7663962,6.8259633 3.8032942,6.5170453 4.0738511,6.1882163 4.2797221,5.6726413 l -0.125322,-0.0216 c 0.239731,-0.418153 1.368754,-1.67936 1.891641,-1.614449 0.253231,-0.318254 -0.05017,-0.0012 -0.09967,-0.08133 0.556298,-0.575874 0.731232,-0.406903 1.106747,-0.510401 0.404991,-0.240406 -0.347504,0.09371 -0.155583,-0.09169 0.70007,-0.178758 0.496113,-0.406453 1.409366,-0.497238 0.09641,0.05479 -0.223533,0.0846 -0.303856,0.155809 0.583299,-0.285293 1.845856,-0.220382 2.6658479,0.158396 0.951502,0.444589 2.020564,1.759233 2.06275,2.995915 l 0.04804,0.01282 c -0.0243,0.491613 0.07526,1.060174 -0.09731,1.582386 l 0.117334,-0.247606 m -5.7694219,1.669009 -0.03263,0.162897 c 0.152659,0.207557 0.273931,0.432327 0.468776,0.594323 -0.140171,-0.273819 -0.244456,-0.386991 -0.436152,-0.75722 m 0.360891,-0.01417 c -0.08077,-0.08943 -0.128696,-0.196983 -0.182245,-0.304193 0.0513,0.188433 0.156146,0.350317 0.253681,0.515013 l -0.07144,-0.21082 m 6.3881569,-1.388554 -0.0342,0.08572 c -0.06255,0.444476 -0.197658,0.884341 -0.404878,1.292256 0.22893,-0.430302 0.376864,-0.900991 0.439075,-1.377979 M 8.7312301,1.5246373 c 0.157046,-0.05771 0.386203,-0.03161 0.552812,-0.06941 -0.21712,0.01822 -0.43334,0.02914 -0.64686,0.05659 l 0.09405,0.01282 m -5.5154036,2.932691 c 0.036224,0.335129 -0.2522189,0.465176 0.063786,0.244231 0.1694206,-0.381366 -0.066149,-0.105185 -0.063786,-0.244231 M 2.844475,6.0084403 c 0.072673,-0.22342 0.085948,-0.357741 0.1137347,-0.486888 -0.2011451,0.257056 -0.092585,0.311955 -0.1137347,0.486888"
     id="path5"
     style="fill:currentColor"
     class="ColorScheme-Text" />
</svg>
