<?xml version="1.0" encoding="UTF-8" standalone="no"?>
<svg
   width="64"
   height="64"
   version="1.1"
   viewBox="0 0 16.933 16.933"
   id="svg7"
   sodipodi:docname="deltachat.svg"
   inkscape:version="1.4.2 (ebf0e940d0, 2025-05-08)"
   xmlns:inkscape="http://www.inkscape.org/namespaces/inkscape"
   xmlns:sodipodi="http://sodipodi.sourceforge.net/DTD/sodipodi-0.dtd"
   xmlns="http://www.w3.org/2000/svg"
   xmlns:svg="http://www.w3.org/2000/svg"
   xmlns:rdf="http://www.w3.org/1999/02/22-rdf-syntax-ns#"
   xmlns:cc="http://creativecommons.org/ns#"
   xmlns:dc="http://purl.org/dc/elements/1.1/">
  <sodipodi:namedview
     id="namedview7"
     pagecolor="#9c4444"
     bordercolor="#000000"
     borderopacity="0.25"
     inkscape:showpageshadow="2"
     inkscape:pageopacity="0.0"
     inkscape:pagecheckerboard="0"
     inkscape:deskcolor="#d1d1d1"
     inkscape:zoom="6.15625"
     inkscape:cx="31.675127"
     inkscape:cy="29.807107"
     inkscape:window-width="1183"
     inkscape:window-height="941"
     inkscape:window-x="0"
     inkscape:window-y="0"
     inkscape:window-maximized="0"
     inkscape:current-layer="svg7"
     showgrid="false" />
  <defs
     id="defs2">
    <style
       id="current-color-scheme"
       type="text/css">.ColorScheme-Text {color:#d8dee9} .ColorScheme-Highlight {color:#3b4252}</style>
  </defs>
  <metadata
     id="metadata2">
    <rdf:RDF>
      <cc:Work
         rdf:about="">
        <dc:format>image/svg+xml</dc:format>
        <dc:type
           rdf:resource="http://purl.org/dc/dcmitype/StillImage" />
      </cc:Work>
    </rdf:RDF>
  </metadata>
  <path
     id="path5"
     style="fill:currentColor;fill-opacity:1;stroke-width:0.0416842"
     d="M 8.5371149,1.4551823 C 8.301421,1.4553276 8.0665092,1.4626624 7.9143111,1.4767595 6.2695838,1.6290619 4.7409823,2.3540496 3.546837,3.5481956 2.1863567,4.9086758 1.4533334,6.6600961 1.4533334,8.551224 c 0,1.121017 0.2399254,2.139086 0.7370659,3.131184 0.9872847,1.970233 2.8507474,3.332702 5.0672707,3.70495 0.1719471,0.02887 0.3970366,0.06082 0.5002042,0.07063 0.3139754,0.02983 1.0388879,0.02518 1.3549668,-0.0084 0.7203341,-0.07639 1.262814,-0.213167 2.063099,-0.520803 0.817138,-0.314113 1.111992,-0.385545 1.594281,-0.385449 0.482042,9.3e-5 0.839729,0.08204 1.66931,0.382508 0.529633,0.191824 0.740925,0.25752 0.762076,0.236372 0.02,-0.02 -0.04087,-0.168511 -0.254024,-0.61888 -0.420471,-0.888379 -0.556263,-1.444748 -0.508543,-2.084229 0.02932,-0.392939 0.104071,-0.655752 0.415365,-1.458931 C 15.395318,9.6046429 15.480189,9.2330206 15.479664,8.2623669 15.478948,6.887436 15.114647,5.6684235 14.372345,4.557925 13.185897,2.7829724 11.300024,1.667117 9.1648232,1.4762703 9.0092673,1.4623654 8.772809,1.4550379 8.5371149,1.4551847 Z M 8.4356014,3.4378569 c 0.6055796,-0.00544 1.2639452,0.04524 1.7291396,0.1456477 0.642667,0.1387152 1.164991,0.4830944 1.289255,0.8493673 0.03679,0.1084079 0.02862,0.2716749 -0.01913,0.3771155 -0.05138,0.1134734 -0.20534,0.2626002 -0.344261,0.3334694 -0.08682,0.044285 -0.130387,0.052309 -0.289824,0.051982 C 10.50253,5.1947908 10.336137,5.1114544 9.7380971,4.6638485 9.3499428,4.3733327 9.0930879,4.2020289 8.8975569,4.1033251 8.1279617,3.7148343 6.8573717,3.9377283 6.599067,4.5064311 6.543364,4.629077 6.549949,4.7025268 6.633396,4.8693251 c 0.2004928,0.4007614 0.7494967,0.8238883 2.1405818,1.6511664 0.3697427,0.219885 0.815333,0.4888369 0.990602,0.5973029 0.9698922,0.6002192 1.5819422,1.1530707 1.9238242,1.7384562 0.410775,0.7033433 0.399251,1.8084604 -0.02795,2.6844344 -0.192792,0.395321 -0.49072,0.755818 -0.878789,1.062689 -0.615334,0.486592 -1.1687099,0.726454 -1.9502985,0.845935 -0.2658255,0.04063 -0.8626048,0.05653 -1.1033926,0.02943 C 6.9725696,13.393685 6.286717,13.089457 5.7977577,12.622009 5.2777213,12.124852 5.0189585,11.594832 4.9542751,10.89483 4.9081414,10.395574 5.0206377,9.782084 5.236744,9.3535126 5.4397608,8.9508982 5.8626467,8.5074918 6.3406269,8.1956858 6.7555368,7.9250219 7.1697035,7.7444168 7.7769991,7.5694492 8.2177284,7.4424698 8.3517444,7.390425 8.3517444,7.3458277 c 0,-0.088003 -0.5311236,-0.5738806 -1.0921139,-0.998938 C 6.3210899,5.6357652 6.0604879,5.3394246 5.993426,4.9080653 5.9316694,4.5108299 6.103897,4.1314983 6.4534181,3.8944151 6.7143217,3.7174422 7.10182,3.5687779 7.4557891,3.5099439 7.7279862,3.4647015 8.0722545,3.44113 8.4356014,3.4378569 Z M 8.8097756,7.9804024 C 8.7372266,7.9802163 8.6454853,7.9940134 8.5116142,8.0211064 7.9674445,8.1312484 7.4565688,8.3825223 7.1105505,8.7110945 6.6137907,9.1828086 6.4592169,9.6151187 6.4818619,10.467205 c 0.011805,0.44378 0.054263,0.632918 0.2236207,0.987661 0.2830603,0.592903 0.7155166,0.999144 1.2568874,1.180877 0.089452,0.03002 0.2156943,0.06252 0.2809973,0.07211 v -4.81e-4 c 0.2612313,0.03831 0.5480577,0.0123 0.8238667,-0.07454 0.6499761,-0.204859 1.12299,-0.727324 1.317695,-1.455501 0.06758,-0.252763 0.09144,-0.68151 0.05247,-0.947939 C 10.363778,9.725848 10.16166,9.2686907 9.8155801,8.8214459 9.6326465,8.5850384 9.1136113,8.0806338 8.9926938,8.0220987 8.935705,7.9945169 8.8823263,7.980601 8.8097761,7.9804159 Z"
     class="ColorScheme-Text" />
</svg>
