<?xml version="1.0" encoding="UTF-8" standalone="no"?>
<svg
   width="64"
   height="64"
   version="1.1"
   viewBox="0 0 16.933 16.933"
   id="svg7"
   sodipodi:docname="devilutionx.svg"
   inkscape:version="1.4.3 (0d15f75042, 2025-12-25)"
   xmlns:inkscape="http://www.inkscape.org/namespaces/inkscape"
   xmlns:sodipodi="http://sodipodi.sourceforge.net/DTD/sodipodi-0.dtd"
   xmlns="http://www.w3.org/2000/svg"
   xmlns:svg="http://www.w3.org/2000/svg"
   xmlns:rdf="http://www.w3.org/1999/02/22-rdf-syntax-ns#"
   xmlns:cc="http://creativecommons.org/ns#"
   xmlns:dc="http://purl.org/dc/elements/1.1/">
  <sodipodi:namedview
     id="namedview7"
     pagecolor="#9c4444"
     bordercolor="#000000"
     borderopacity="0.25"
     inkscape:showpageshadow="2"
     inkscape:pageopacity="0.0"
     inkscape:pagecheckerboard="0"
     inkscape:deskcolor="#d1d1d1"
     inkscape:zoom="6.15625"
     inkscape:cx="15.51269"
     inkscape:cy="30.050761"
     inkscape:window-width="2560"
     inkscape:window-height="1388"
     inkscape:window-x="0"
     inkscape:window-y="0"
     inkscape:window-maximized="1"
     inkscape:current-layer="svg7"
     showgrid="false" />
  <defs
     id="defs2">
    <style
       id="current-color-scheme"
       type="text/css">.ColorScheme-Text {color:#d8dee9} .ColorScheme-Highlight {color:#3b4252}</style>
  </defs>
  <metadata
     id="metadata2">
    <rdf:RDF>
      <cc:Work
         rdf:about="">
        <dc:format>image/svg+xml</dc:format>
        <dc:type
           rdf:resource="http://purl.org/dc/dcmitype/StillImage" />
      </cc:Work>
    </rdf:RDF>
  </metadata>
  <path
     id="path5"
     style="fill:currentColor;stroke-width:0.0353421"
     d="m 4.507894,1.4553195 c -0.01675,6.41e-4 -0.04782,0.0022 -0.0564,0.0194 -0.0019,0.0038 -0.0027,0.008 -0.002,0.01249 2.12e-4,0.0014 5.8e-4,0.0028 0.001,0.0041 -0.01214,0.0011 -0.02584,0.0036 -0.03341,0.01077 -0.0027,0.0025 -0.0053,0.0062 -0.0063,0.01084 -0.05523,-4.28e-4 -0.133538,0.01385 -0.227239,0.03548 -0.219956,0.05077 -0.435503,0.140838 -0.633949,0.259129 10e-4,-0.0023 0.0018,-0.0051 0.0018,-0.0082 0,-0.01408 -0.01051,-0.0228 -0.02292,-0.02333 -9.62e-4,-4.2e-5 -0.002,-4.9e-5 -0.003,0 -0.007,3.48e-4 -0.01445,0.0028 -0.02064,0.0052 -0.03131,0.01239 -0.08515,0.04759 -0.144544,0.09139 -0.07649,0.05641 -0.167283,0.131104 -0.243184,0.203286 -0.04214,0.04007 -0.08138,0.0783 -0.08974,0.08946 -7.08e-4,9.48e-4 -0.003,0.0039 -0.0041,0.0081 l -5.48e-4,0.0022 v 0.0023 7.1e-5 7e-5 7.1e-5 7.1e-5 7e-5 0.0085 c -0.04516,0.04725 -0.09397,0.101528 -0.102713,0.120108 -8.02e-4,0.0017 -0.0032,0.0069 -0.0024,0.01298 v 0.0055 l 0.0026,0.0026 0.0025,0.0025 7.1e-5,7e-5 v 7.1e-5 l 7.1e-5,7.1e-5 7e-5,7e-5 7.1e-5,7.1e-5 h 7.1e-5 l 7e-5,7.1e-5 0.005,0.0051 h 7.1e-5 l 7e-5,7e-5 h 0.003 c -0.10962,0.134104 -0.199033,0.277472 -0.262028,0.424658 0.0025,-0.01082 0.0038,-0.0197 0.0039,-0.02602 8e-6,-0.0029 -2.27e-4,-0.0071 -0.0018,-0.01118 -0.003,-0.0079 -0.01127,-0.01492 -0.02237,-0.01284 -0.0067,0.0013 -0.01158,0.0056 -0.01408,0.0081 -0.04097,0.04097 -0.09456,0.18713 -0.138469,0.33575 -0.04774,0.161585 -0.09186,0.352727 -0.111963,0.504937 -0.122812,0.929827 0.276326,1.798656 0.931873,2.007185 0.203958,0.06488 0.5851,0.06818 0.76241,0.0049 0.222558,-0.07942 0.389492,-0.231837 0.487059,-0.444952 0.07757,-0.169447 0.08784,-0.234624 0.07317,-0.463244 C 4.624514,4.4379715 4.603624,4.3702515 4.503542,4.2235885 4.438332,4.1280285 4.282405,3.9642365 4.15654,3.8580875 4.0945,3.8057675 4.02784,3.7411595 3.970856,3.6795815 3.913876,3.6180015 3.866355,3.5590095 3.843293,3.5200595 c -0.04054,-0.06847 -0.06091,-0.109827 -0.07089,-0.174157 -0.01,-0.06433 -0.009,-0.152898 -0.0034,-0.311039 0.0077,-0.219408 0.02733,-0.360057 0.09291,-0.49831 0.06558,-0.138253 0.178391,-0.275681 0.374268,-0.485057 0.223885,-0.239314 0.366706,-0.420994 0.390213,-0.510666 0.0061,-0.02337 0.0055,-0.04583 -0.0095,-0.06088 -0.01952,-0.01952 -0.0734,-0.02592 -0.108925,-0.02457 z m -0.108719,0.135709 c 0.0054,-1.74e-4 0.01016,-9.6e-5 0.01422,2.13e-4 0.0078,5.88e-4 0.01288,0.0022 0.0147,0.0031 -3.96e-4,0.0019 -0.0021,0.0067 -0.0062,0.01291 -0.0088,0.01331 -0.02733,0.03313 -0.05501,0.05729 -0.04152,0.03625 -0.103596,0.0829 -0.185684,0.139643 -0.330278,0.228321 -0.715149,0.638582 -0.836615,0.895495 -0.08861,0.187416 -0.0936,0.224988 -0.0936,0.795128 0,0.293149 -0.0036,0.450393 -0.01532,0.532478 -0.0078,0.05472 -0.01879,0.07261 -0.02948,0.07938 -0.0081,0.0051 -0.0273,0.01221 -0.05087,0.0176 -0.03537,0.0081 -0.08132,0.01357 -0.122732,0.01374 -0.06882,2.8e-4 -0.122427,-0.02015 -0.164147,-0.06012 -0.04172,-0.03997 -0.0718,-0.100653 -0.08849,-0.182301 -0.03339,-0.163297 -0.01221,-0.408657 0.06799,-0.722581 0.195039,-0.763422 0.66742,-1.328593 1.259753,-1.512947 0.09574,-0.0298 0.171222,-0.04996 0.22579,-0.06047 0.02728,-0.0053 0.04947,-0.008 0.06571,-0.0086 z m 8.427926,0.0012 c -0.0017,-9.5e-5 -0.0034,-6.7e-5 -0.005,7.1e-5 -0.0073,6.01e-4 -0.01442,0.0037 -0.01995,0.0092 -0.0087,0.0087 -0.0055,0.02023 -0.0039,0.02464 0.01343,0.03733 0.128585,0.167277 0.223787,0.266723 0.160792,0.167959 0.306717,0.377224 0.399325,0.561126 0.06174,0.1226 0.09944,0.234435 0.103265,0.312349 0.0011,0.0219 0.0024,0.04034 0.005,0.04984 4.67e-4,0.0017 0.0016,0.0065 0.0058,0.01056 l 7.1e-5,7.1e-5 h 6.8e-5 l 7e-5,7.1e-5 v 7e-5 l 7.1e-5,7.1e-5 4.14e-4,3.47e-4 c 1.06e-4,8.5e-5 1.74e-4,2.01e-4 2.81e-4,2.81e-4 l 0.0043,0.0043 h 7e-5 l 7.1e-5,7.1e-5 h 1.47e-4 l 0.0074,0.0074 0.0074,-0.0074 h 1.47e-4 l 0.0041,-0.0041 c 3.88e-4,-3.21e-4 6.95e-4,-7.08e-4 10e-4,-0.001 l 7.1e-5,-7.1e-5 c 0.0029,-0.0029 0.0043,-0.006 0.005,-0.0078 -4e-4,0.01995 -6.01e-4,0.04201 -6.94e-4,0.06495 h -1.47e-4 v 0.01767 c -7.1e-5,0.06857 0.001,0.137122 0.0046,0.168497 -0.0038,-0.0055 -0.0093,-0.0105 -0.0174,-0.01098 -9.08e-4,-7.1e-5 -0.0019,1e-6 -0.0028,7.1e-5 -0.01737,0.0012 -0.02164,0.02055 -0.02319,0.02899 -0.002,0.01077 -0.003,0.02593 -0.003,0.04314 0,0.02211 0.0016,0.04401 0.0065,0.05605 0.0015,0.0036 0.0043,0.0095 0.01042,0.01319 0.0086,0.0053 0.01812,0.0029 0.02416,-0.002 0.0053,-0.0043 0.0088,-0.01147 0.01077,-0.01643 0.0096,-0.02375 0.01124,-0.05842 0.0049,-0.08587 l 0.003,0.003 h 7.1e-5 l 7e-5,7.1e-5 h 0.0073 7e-5 7.1e-5 7.1e-5 7e-5 7.1e-5 0.0073 l 0.0047,-0.0047 c 1.73e-4,-1.47e-4 3.2e-4,-3.21e-4 4.8e-4,-4.81e-4 l 7.1e-5,-7.1e-5 c 0.0031,-0.003 0.0044,-0.0063 0.005,-0.0077 0.0026,-0.0066 0.0045,-0.02044 0.0057,-0.03182 0.0077,-0.07334 0.0078,-0.202768 2.81e-4,-0.286189 -0.0015,-0.0167 -0.0031,-0.03087 -0.0056,-0.03872 -5.21e-4,-0.0017 -0.0017,-0.0056 -0.0052,-0.0093 l -1.47e-4,-2.14e-4 -1.47e-4,-1.33e-4 -7.1e-5,-7.1e-5 -7.1e-5,-7e-5 -7e-5,-7.1e-5 h -7.1e-5 l -7.1e-5,-7.1e-5 -0.005,-0.0051 h -7.1e-5 l -7.1e-5,-7.1e-5 h -0.0073 -7.1e-5 -7e-5 -0.0074 l -0.0038,0.0038 -6.28e-4,4.14e-4 -7.61e-4,8.28e-4 c 6.68e-4,-0.0097 0.0013,-0.01943 0.0019,-0.02906 0.0014,-0.02185 0.0023,-0.04493 0.0029,-0.06841 0.0097,0.0035 0.01911,-0.0025 0.02319,-0.0087 0.003,-0.0046 0.0048,-0.01004 0.0062,-0.01519 8.54e-4,5.61e-4 0.0018,0.0011 0.0028,0.0015 0.0088,0.0039 0.01707,6.28e-4 0.02195,-0.0037 0.0048,-0.0043 0.0073,-0.0098 0.009,-0.01415 0.01186,-0.02931 0.01146,-0.08111 0.0021,-0.11714 -0.0023,-0.0088 -0.0079,-0.03095 -0.02609,-0.03016 -5.87e-4,2.5e-5 -0.0012,6.3e-5 -0.0018,1.33e-4 -0.0035,4.28e-4 -0.0064,0.0017 -0.0088,0.0034 -0.0027,-0.0111 -0.0086,-0.02561 -0.02292,-0.0254 -6.27e-4,9e-6 -0.0013,2e-6 -0.0019,7.1e-5 -0.0033,3.34e-4 -0.0061,0.0015 -0.0084,0.003 -9.09e-4,-0.01083 -0.0019,-0.02102 -0.003,-0.03037 0.01564,0.01165 0.03253,0.0028 0.03852,-0.01512 0.03349,-0.100455 -0.138811,-0.324337 -0.332989,-0.489475 -0.01018,-0.0087 -0.02091,-0.01731 -0.02837,-0.02064 -0.0017,-7.75e-4 -0.0063,-0.0026 -0.01132,-0.0021 l -6.95e-4,7.1e-5 c -1.47e-4,-6e-6 -0.0011,1.47e-4 -0.0025,5.48e-4 l -0.0044,0.0012 -0.0019,0.0019 -4.81e-4,3.47e-4 -0.0011,0.0011 -7.1e-5,7e-5 v 7.1e-5 l -7.1e-5,7.1e-5 -7e-5,7.1e-5 -0.0026,0.0026 -0.0024,0.0023 v 0.0043 c -0.0197,-0.01662 -0.03974,-0.03322 -0.05978,-0.04956 0.0011,-0.0084 -0.0039,-0.01576 -0.0056,-0.01829 -0.0116,-0.01719 -0.04721,-0.04986 -0.08559,-0.08125 -0.0328,-0.02682 -0.05416,-0.0456 -0.06351,-0.05674 -0.0016,-0.0019 -0.0028,-0.0036 -0.0037,-0.005 0.0044,-0.0021 0.0133,-0.0051 0.02513,-0.0081 0.0092,-0.0024 0.02596,-0.0065 0.033,-0.01553 0.0031,-0.004 0.0058,-0.0104 0.0034,-0.01795 -0.0026,-0.0085 -0.01001,-0.0123 -0.01325,-0.01367 -0.01249,-0.0053 -0.03963,-0.0068 -0.0664,-0.0075 l -0.146753,-0.0037 c -0.0046,-0.002 -0.0094,-0.0033 -0.01429,-0.0036 z m 0.317458,0.0061 c -0.01473,-6.01e-4 -0.03132,0.0021 -0.04632,0.0081 -0.0096,0.0039 -0.02854,0.01193 -0.02761,0.02927 0.0012,0.0234 0.03454,0.02538 0.05308,0.02616 0.0016,0.0062 0.0057,0.011 0.0087,0.01394 0.01662,0.01639 0.07195,0.04417 0.140126,0.07814 0.113875,0.05675 0.231532,0.151997 0.333128,0.264859 0.101596,0.112862 0.187152,0.243322 0.238007,0.36985 0.03434,0.08544 0.05396,0.149698 0.06544,0.240285 0.01148,0.09059 0.01459,0.207758 0.01477,0.396426 1.74e-4,0.192396 -0.0025,0.308862 -0.01408,0.398427 -0.0116,0.08957 -0.03191,0.152647 -0.06834,0.241183 -0.05111,0.124203 -0.147583,0.253483 -0.265825,0.36412 -0.118242,0.110637 -0.258227,0.20265 -0.394976,0.253815 -0.05025,0.0188 -0.09295,0.0325 -0.128392,0.04107 -0.03544,0.0086 -0.06365,0.01193 -0.08414,0.0107 -0.02049,-0.0012 -0.03236,-0.0066 -0.03955,-0.01415 -0.0072,-0.0076 -0.01153,-0.01909 -0.01153,-0.03824 0,-0.01323 -0.0018,-0.02872 -0.01277,-0.03852 -0.0042,-0.0037 -0.0088,-0.0061 -0.01387,-0.0072 0.0083,-0.01063 0.0159,-0.02061 0.02057,-0.02775 0.0022,-4.68e-4 0.0041,-0.0011 0.0055,-0.0017 0.01974,-0.0081 0.05797,-0.04506 0.08435,-0.0742 0.01947,-0.02152 0.05003,-0.05776 0.05294,-0.07614 0.0017,-0.01066 -0.0046,-0.02409 -0.01974,-0.02409 2.54e-4,0 3.6e-5,-5e-6 -4.14e-4,0 -4.54e-4,5e-6 -0.0011,1.4e-5 -0.0017,7.1e-5 -0.0037,3.47e-4 -0.0071,0.0016 -0.0094,0.0026 -0.01953,0.0087 -0.05628,0.044 -0.08325,0.07379 -0.01661,0.01835 -0.04127,0.0474 -0.04998,0.06696 -5.87e-4,2.81e-4 -0.0011,5.21e-4 -0.0014,6.95e-4 -0.0085,0.0044 -0.02618,0.01821 -0.04363,0.03189 -0.0056,0.0044 -0.01103,0.0088 -0.01622,0.01311 -0.01501,-0.0018 -0.04594,0.01224 -0.06454,0.02085 -0.02381,0.01102 -0.05291,0.026 -0.08414,0.04356 -0.05947,0.03342 -0.09746,0.05059 -0.131497,0.05598 -0.03404,0.0054 -0.0663,-1.74e-4 -0.117416,-0.01588 -0.114072,-0.03501 -0.144038,-0.02824 -0.208878,0.04307 -0.121172,0.13326 -0.152816,0.230315 -0.151999,0.465039 4.95e-4,0.14342 0.02482,0.278751 0.0682,0.37199 0.07476,0.160692 0.322929,0.415398 0.485609,0.499069 0.074,0.03806 0.132236,0.04621 0.181957,0.0196 0.01413,-0.0076 0.04083,-0.01603 0.07041,-0.02188 0.02957,-0.0058 0.06241,-0.0095 0.09022,-0.0095 0.06171,0 0.199146,-0.02351 0.303929,-0.0508 0.155571,-0.04052 0.231384,-0.08797 0.354663,-0.221717 0.308489,-0.334671 0.518368,-0.717689 0.760063,-1.385384 0.312083,-0.862141 0.230905,-1.557092 -0.238697,-1.991861 -0.100312,-0.09287 -0.248225,-0.196343 -0.384691,-0.27611 -0.129509,-0.0757 -0.262972,-0.138502 -0.328571,-0.13847 -0.0081,4e-6 -0.02255,0.002 -0.02713,0.01581 -0.0031,0.0093 10e-4,0.0173 0.0039,0.02161 0.0047,0.0069 0.01314,0.01416 0.02285,0.02119 1.47e-4,10e-4 3.48e-4,0.002 6.28e-4,0.003 -0.03276,-0.01536 -0.06509,-0.02811 -0.09657,-0.0379 0.0036,-9.22e-4 0.0068,-0.002 0.0095,-0.0032 0.0031,-0.0015 0.0088,-0.0049 0.01167,-0.01139 0.0039,-0.0088 6.28e-4,-0.01706 -0.0037,-0.02195 -0.0043,-0.0048 -0.0098,-0.0073 -0.01415,-0.009 -0.01513,-0.0061 -0.03548,-0.0087 -0.0555,-0.009 -0.02034,-2.53e-4 -0.04274,0.002 -0.06164,0.0069 -0.0074,0.0019 -0.02605,0.0063 -0.02961,0.02092 -0.0011,-0.0044 -0.0037,-0.0089 -0.0079,-0.01311 -0.01035,-0.01035 -0.02638,-0.01426 -0.04045,-0.01484 z m -4.086503,0.707809 c -1.157226,-0.01645 -2.466455,0.318166 -3.210475,0.882587 -0.127556,0.09677 -0.2706,0.225141 -0.312349,0.283772 l -0.07724,0.108512 0.128184,0.241528 c 0.05931,0.111756 0.09412,0.201552 0.105198,0.268655 0.0055,0.03355 0.0051,0.06131 -2.83e-4,0.08325 -0.0054,0.02193 -0.01532,0.03816 -0.03051,0.05087 -0.0021,0.0018 -0.0045,0.004 -0.0067,0.0067 -0.0152,-0.006 -0.02901,-0.01295 -0.04087,-0.02071 -0.03091,-0.02023 -0.04715,-0.04407 -0.04715,-0.06661 0,-0.01677 -0.01431,-0.04596 -0.03417,-0.07793 0.0082,0.0024 0.01739,0.0021 0.02513,-0.005 0.0077,-0.0071 0.009,-0.01712 0.009,-0.02478 0,-0.0046 -0.0015,-0.0083 -0.0026,-0.01042 -0.0078,-0.0164 -0.04241,-0.04676 -0.06606,-0.0653 -0.01743,-0.01367 -0.03498,-0.02747 -0.04349,-0.03189 -0.0014,-7.08e-4 -0.0053,-0.0029 -0.01056,-0.003 -7.5e-4,-1.4e-5 -0.0016,-1.2e-5 -0.0023,7.1e-5 h -0.0059 l -0.0052,0.0052 -7.1e-5,7e-5 -7.1e-5,7.1e-5 -7e-5,7.1e-5 -7.1e-5,7e-5 c -0.08492,-0.08988 -0.196943,-0.147284 -0.314352,-0.16394 0.0027,-0.0019 0.0057,-0.0048 0.0076,-0.009 0.0039,-0.0088 6.25e-4,-0.01706 -0.0037,-0.02195 -0.0043,-0.0048 -0.0098,-0.0073 -0.01415,-0.009 -0.01513,-0.0061 -0.03548,-0.0087 -0.0555,-0.009 -0.02034,-2.54e-4 -0.04273,0.002 -0.06164,0.0069 -0.0076,0.002 -0.02696,0.0065 -0.02982,0.02202 -5.15e-4,0.0028 -3.84e-4,0.0054 1.42e-4,0.0077 -0.0192,-0.0037 -0.04185,-3.21e-4 -0.05923,0.0066 -0.0105,0.0042 -0.0294,0.01315 -0.02761,0.02989 -0.02123,0.0073 -0.03988,0.01628 -0.05115,0.02768 0.0035,-0.0066 0.0053,-0.01495 -7.6e-4,-0.02299 -0.01297,-0.01711 -0.03894,-8.81e-4 -0.04756,0.0041 -0.0094,0.0054 -0.01686,0.01311 -0.02168,0.02347 -0.01725,0.03711 0.0048,0.104552 0.04763,0.207566 0.05487,0.132008 0.08333,0.350665 0.0829,0.570444 -4.27e-4,0.219779 -0.0297,0.441703 -0.08532,0.58066 -0.153095,0.382499 -0.389204,0.638729 -0.657419,0.750676 -0.134107,0.05597 -0.276284,0.07605 -0.421206,0.05785 -0.144922,-0.01821 -0.292639,-0.0748 -0.437221,-0.172914 -0.07573,-0.0514 -0.13832,-0.07777 -0.177884,-0.05329 -0.03989,0.02468 -0.04105,0.09075 -0.02354,0.179127 0.04472,0.225751 0.273254,0.45884 0.509355,0.52178 0.02438,0.0065 0.04139,0.01184 0.05281,0.01912 0.01141,0.0073 0.01891,0.01613 0.02623,0.03562 0.0059,0.01559 0.01086,0.03774 0.01546,0.06847 0.0069,0.04611 0.01295,0.111462 0.02112,0.203838 0.0154,0.17414 0.05751,0.442091 0.09353,0.595571 0.02893,0.123233 0.04354,0.196667 0.04576,0.258163 0.0022,0.0615 -0.0076,0.112187 -0.02899,0.192656 -0.107708,0.404522 -0.03363,0.940609 0.183682,1.336029 0.0401,0.07296 0.07586,0.143675 0.09781,0.192104 0.0078,0.01717 0.01381,0.03164 0.0176,0.04197 -0.01583,-0.0037 -0.04223,-0.01266 -0.07269,-0.02506 -0.05366,-0.02185 -0.121897,-0.05423 -0.183682,-0.08691 -0.05149,-0.02723 -0.09871,-0.05479 -0.128875,-0.07614 -0.01207,-0.0085 -0.0214,-0.0162 -0.02671,-0.02161 -0.0029,-0.0029 -0.0044,-0.0054 -0.0047,-0.0057 -0.01033,-0.02729 -0.08108,-0.113254 -0.131014,-0.16898 -0.07754,-0.08654 -0.143798,-0.184923 -0.184027,-0.268448 -0.02682,-0.05568 -0.0417,-0.105177 -0.04197,-0.137227 -3.21e-4,-0.03845 -0.01781,-0.09435 -0.03942,-0.126321 -0.02308,-0.03414 -0.04969,-0.04408 -0.08801,-0.01601 -0.02134,0.01563 -0.04877,0.04459 -0.08408,0.0849 -0.311399,0.355618 -0.353842,0.5711 -0.1881,0.955204 0.19888,0.460901 0.333207,0.8388735 0.382827,1.0747595 0.02849,0.135437 0.07705,0.298464 0.108787,0.359841 0.10442,0.201925 0.516314,0.446107 1.03362,0.62753 0.153392,0.0538 0.449962,0.190941 0.655417,0.303376 0.231132,0.126486 0.36257,0.190979 0.437152,0.202251 0.01894,0.0029 0.03569,0.0025 0.05018,-0.0017 0.01882,-0.0055 0.03224,-0.01703 0.0419,-0.03265 0.0048,-0.0077 0.01727,-0.01968 0.03576,-0.0321 0.02772,-0.01863 0.06846,-0.03918 0.11638,-0.05895 0.119801,-0.04942 0.284842,-0.09455 0.411474,-0.106371 0.0768,-0.0072 0.12816,-0.01129 0.159799,-0.01097 0.01055,1.06e-4 0.01886,7.61e-4 0.02492,0.0017 0.0061,9.62e-4 0.0097,0.0023 0.01111,0.0031 2.47e-4,1.47e-4 4.27e-4,2.54e-4 5.51e-4,3.48e-4 7.1e-5,8.15e-4 7.1e-5,0.0033 -8.27e-4,0.0071 -9.57e-4,0.0041 -0.0028,0.0096 -0.0053,0.01622 -0.07113,0.18536 -0.102459,0.403531 -0.08373,0.585907 0.01105,0.107631 0.0055,0.316323 -0.01256,0.458619 -0.07772,0.612098 0.138714,1.555118 0.444814,1.916552 0.03929,0.04639 0.09028,0.104227 0.104162,0.115621 8.95e-4,7.35e-4 0.006,0.0055 0.0136,0.0055 0.01075,0 0.01804,-0.0054 0.02292,-0.01284 0.06268,0.02366 0.207371,0.01498 0.295783,0.0021 0.02992,-0.0043 0.05855,-0.0097 0.08387,-0.01602 -0.001,0.0075 0.0018,0.01547 0.0093,0.0203 0.0055,0.0036 0.01235,0.0041 0.01636,0.0043 0.01727,6.15e-4 0.05688,-0.0064 0.10361,-0.01443 0.160211,-0.02768 0.276236,-0.06974 0.299442,-0.131291 0.0017,-0.0044 0.0028,-0.0089 0.0035,-0.01332 0.0088,0.0292 0.01928,0.05723 0.03141,0.08366 -0.0026,-0.0026 -0.0052,-0.0048 -0.0075,-0.0065 -0.0039,-0.0028 -0.01012,-0.0064 -0.01836,-0.0053 -0.01408,0.0018 -0.01872,0.01446 -0.01981,0.0225 -0.0034,0.02538 0.01341,0.09271 0.03451,0.168703 0.02302,0.08289 0.05692,0.138844 0.133431,0.184028 0.07474,0.04414 0.190149,0.07779 0.372611,0.119556 0.145678,0.03334 0.285257,0.06719 0.298959,0.07158 0.03848,0.01234 0.07394,0.01957 0.09319,0.01456 0.0053,-0.0014 0.01223,-0.0043 0.01664,-0.01139 0.0024,-0.0039 0.0035,-0.0081 0.0034,-0.01243 -2.7e-5,-0.0014 -1.47e-4,-0.0028 -4.14e-4,-0.0041 0.03602,0.01087 0.08258,0.01846 0.12494,0.02085 -0.0044,0.0061 -0.0061,0.01497 -0.0012,0.02313 0.0037,0.0061 0.0096,0.009 0.01319,0.01042 0.01204,0.0049 0.03394,0.0065 0.05605,0.0065 0.02211,0 0.04401,-0.0016 0.05605,-0.0065 0.0036,-0.0015 0.0095,-0.0043 0.01318,-0.01042 0.0053,-0.0086 0.003,-0.01812 -0.002,-0.02416 -0.0014,-0.0017 -0.003,-0.0032 -0.0048,-0.0045 l 0.04259,-0.003 3.47e-4,-0.0057 c 0.0054,0.0026 0.01201,0.0029 0.01878,-0.0013 0.0044,-0.0028 0.0073,-0.0066 0.0092,-0.0099 0.0025,0.0013 0.0052,0.0021 0.0084,0.0024 0.0066,7.08e-4 0.0124,-0.0015 0.01643,-0.0037 0.01346,-0.0074 0.03047,-0.02913 0.04487,-0.04694 0.09453,-0.116915 0.220723,-0.375097 0.292746,-0.595294 0.02144,-0.06555 0.03937,-0.108443 0.05212,-0.127701 0.0031,-0.0047 0.0059,-0.0079 0.0077,-0.0096 3.87e-4,4.94e-4 7.88e-4,10e-4 0.0012,0.0017 0.0039,0.0059 0.0088,0.01222 0.01436,0.01615 0.0095,0.0066 0.02375,0.0067 0.03113,-0.0061 0.0026,-0.0045 0.0035,-0.0096 0.0038,-0.01311 0.0014,-0.01458 -0.0028,-0.04016 -0.0093,-0.06958 -9.21e-4,-0.0042 -0.002,-0.0084 -0.0031,-0.01277 0.0051,-0.0053 0.0083,-0.01224 0.01029,-0.01705 0.0019,-0.0046 0.0027,-0.01053 0.003,-0.01498 0.0026,-0.04218 -0.02506,-0.153544 -0.0584,-0.252503 -0.02362,-0.07012 -0.04476,-0.14864 -0.05778,-0.211294 -0.0087,-0.04177 -0.01367,-0.07704 -0.01367,-0.09574 0,-0.02678 -0.0047,-0.05892 -0.01229,-0.09277 -0.0061,-0.02727 -0.01429,-0.05613 -0.02375,-0.08497 -0.03185,-0.09711 -0.09329,-0.234683 -0.145027,-0.254643 -0.01547,-0.006 -0.03825,-0.01087 -0.04963,0.0053 -2.53e-4,3.74e-4 -5.21e-4,7.35e-4 -7.61e-4,0.0011 -0.0113,-0.0071 -0.02606,-0.01209 -0.04411,-0.01367 -0.01734,-0.0015 -0.03249,-0.0028 -0.04017,-0.0025 -8.69e-4,3.6e-5 -0.003,1.74e-4 -0.0052,6.95e-4 H 8.97635 v 1.47e-4 h -7.1e-5 v 0.01767 7.1e-5 0.0025 c -0.0053,-0.0035 -0.01092,-0.0059 -0.01698,-0.0064 -0.02856,-0.0025 -0.04497,0.03378 -0.06392,0.07538 -0.0189,0.04148 -0.05767,0.07864 -0.108097,0.10513 -0.05043,0.02649 -0.112194,0.0422 -0.175399,0.0419 -0.0037,-1.8e-5 -0.01148,-0.0014 -0.02133,-0.0045 -0.01478,-0.0047 -0.03443,-0.01301 -0.05681,-0.02423 -0.05596,-0.02803 -0.129357,-0.07386 -0.197488,-0.125009 -0.139881,-0.105014 -0.225546,-0.152974 -0.29744,-0.122386 -0.04764,0.02027 -0.08373,0.07314 -0.123904,0.150826 -0.01334,0.02579 -0.02432,0.04473 -0.03307,0.05667 -0.0058,0.008 -0.01074,0.01269 -0.01346,0.01449 -0.0014,9.09e-4 -0.0021,0.0011 -0.0023,0.0011 v 7.1e-5 c -1.06e-4,-3.6e-5 -4.55e-4,-2.81e-4 -0.0015,-9.76e-4 -0.0022,-0.0015 -0.0065,-0.0057 -0.01132,-0.01256 -0.0054,-0.0077 -0.01506,-0.02038 -0.02961,-0.01919 -0.0024,2.13e-4 -0.0046,6.94e-4 -0.0066,0.0014 -0.0069,-0.02619 -0.0152,-0.04972 -0.02471,-0.06917 0.0087,-0.0013 0.01596,-0.0087 0.01657,-0.01981 3.87e-4,-0.0072 -0.0015,-0.01605 -0.0038,-0.02513 -0.01282,-0.05131 -0.05733,-0.163669 -0.09843,-0.25064 -0.03556,-0.07524 -0.05755,-0.120395 -0.0927,-0.144267 -0.03544,-0.02408 -0.08156,-0.02493 -0.157453,-0.02493 -0.10707,0 -0.20322,-0.02881 -0.31732,-0.09588 -0.09297,-0.05465 -0.150588,-0.09943 -0.18451,-0.147719 -0.03392,-0.04829 -0.04597,-0.101021 -0.04597,-0.17747 0,-0.03421 0.0085,-0.08352 0.02195,-0.134604 0.01344,-0.05108 0.03174,-0.104244 0.05046,-0.147857 0.01498,-0.03489 0.03058,-0.06389 0.0428,-0.07959 0.0039,-0.005 0.0076,-0.0086 0.0099,-0.01056 0.0028,0.0026 0.0069,0.0073 0.01167,0.01339 0.01,0.01291 0.02284,0.03239 0.03679,0.05612 0.0186,0.03164 0.03934,0.07089 0.05936,0.113205 0.03589,0.07587 0.07436,0.133779 0.112239,0.169394 0.06092,0.05728 0.123604,0.05783 0.164631,-0.0086 0.0081,-0.01318 0.0161,-0.02029 0.02333,-0.02333 0.0072,-0.003 0.01479,-0.0033 0.02658,0.0012 0.01415,0.0054 0.03316,0.01859 0.05564,0.04059 0.03372,0.033 0.07542,0.08533 0.126252,0.157797 0.05254,0.0749 0.157402,0.218405 0.183199,0.234349 0.0099,0.0061 0.01993,0.0022 0.0254,-0.0011 0.03722,-0.02271 0.123304,-0.183928 0.180922,-0.305171 0.04954,-0.10424 0.105066,-0.207362 0.149445,-0.279976 0.01775,-0.02905 0.03374,-0.05319 0.04659,-0.07034 0.0086,-0.01143 0.01591,-0.01985 0.02036,-0.02381 0.01228,-0.01094 0.02243,-0.01983 0.03003,-0.02595 -1.47e-4,0.0015 -3.47e-4,0.0032 -5.47e-4,0.0049 -0.0019,0.01522 -0.0057,0.03731 -0.01084,0.06634 -0.01241,0.06974 -0.03284,0.282595 -0.04542,0.468698 l -0.02402,0.355492 0.113757,0.04873 c 0.05275,0.02262 0.174963,0.09626 0.265894,0.16111 l 0.182509,0.130117 0.08028,-0.132119 c 0.04072,-0.06696 0.09813,-0.233063 0.128461,-0.366399 0.01831,-0.0805 0.04052,-0.163445 0.05957,-0.224546 0.0127,-0.04074 0.02459,-0.07253 0.03106,-0.08463 0.01418,-0.02649 0.03928,-0.08338 0.01815,-0.104508 -0.0095,-0.0095 -0.02132,-0.0049 -0.02623,-0.0017 -0.0066,0.0044 -0.01597,0.01597 -0.02678,0.03203 -0.0026,-0.0012 -0.0056,-0.0019 -0.009,-0.0019 -0.0071,-3e-6 -0.01299,0.0031 -0.01705,0.0057 -0.02618,0.01618 -0.06199,0.06233 -0.08187,0.09947 -0.01482,0.0277 -0.0268,0.0536 -0.02768,0.06861 -2.14e-4,0.0039 7e-5,0.01138 0.0052,0.01733 0.0074,0.0085 0.01703,0.0077 0.02368,0.0053 -0.0023,0.0047 -0.0046,0.0093 -0.0069,0.01388 -0.0053,-0.0085 -0.01606,-0.01337 -0.0274,-0.0071 -0.0053,0.0029 -0.0089,0.0072 -0.01187,0.01091 -0.01259,0.01577 -0.0357,0.05544 -0.07248,0.118245 l -0.04597,0.07848 c -0.016,0.0064 -0.03251,0.009 -0.05087,0.0077 3.2e-4,-0.01078 -0.0064,-0.01945 -0.01243,-0.02506 -0.01121,-0.01051 -0.02942,-0.02024 -0.0526,-0.02913 -0.01309,-0.005 -0.026,-0.0083 -0.03707,-0.0072 -0.0042,4.4e-4 -0.0086,0.0017 -0.01256,0.004 -0.01331,-0.01898 -0.03768,-0.03934 -0.05881,-0.05591 -0.01139,-0.0089 -0.02772,-0.02202 -0.03886,-0.02906 -0.0047,-0.01344 -0.0083,-0.02852 -0.01077,-0.0457 0.01054,-0.02863 0.01016,-0.0713 -10e-4,-0.09905 -5.34e-4,-0.0013 -0.0011,-0.0026 -0.0017,-0.0039 3.2e-4,-0.0059 6.67e-4,-0.01185 0.0011,-0.01802 3.21e-4,2.14e-4 6.95e-4,4.14e-4 10e-4,6.28e-4 0.0086,0.0053 0.01812,0.0029 0.02416,-0.002 0.0053,-0.0043 0.0088,-0.01147 0.01077,-0.01643 0.01154,-0.0286 0.01154,-0.07301 0,-0.101609 -0.0015,-0.0038 -0.0042,-0.0098 -0.0087,-0.0145 9.76e-4,-7.61e-4 0.0019,-0.0016 0.0028,-0.0025 0.01966,-0.01966 0.01763,-0.05962 0.0068,-0.08677 -0.0018,-0.0044 -0.004,-0.0096 -0.007,-0.01429 0.01323,-0.104806 0.01595,-0.172542 0.0013,-0.21295 0.0022,-0.0031 0.0038,-0.007 0.0046,-0.01146 0.001,-0.0053 8.95e-4,-0.0114 0,-0.01795 0.03533,-0.0097 0.06251,-0.06894 0.08553,-0.139988 0.03624,-0.111868 0.114391,-0.285901 0.197281,-0.448058 0.08289,-0.162157 0.171494,-0.313693 0.225238,-0.378893 0.07256,-0.08802 0.129784,-0.126201 0.189273,-0.122938 0.02975,0.0016 0.06178,0.0137 0.09857,0.0381 0.03679,0.0244 0.07795,0.06099 0.124802,0.109891 0.07348,0.07669 0.14758,0.199378 0.218127,0.361774 0.07055,0.162397 0.137748,0.364462 0.198868,0.600333 0.02223,0.08579 0.03889,0.211358 0.04749,0.330297 0.0052,0.07136 0.0075,0.140496 0.0066,0.19735 -6.81e-4,0.04264 -0.0033,0.07856 -0.0075,0.102506 -0.0021,0.01198 -0.0048,0.02104 -0.0068,0.0254 -3.5e-5,1.06e-4 -1.06e-4,1.73e-4 -1.47e-4,2.8e-4 -0.01143,-9.75e-4 -0.02482,-0.0054 -0.03997,-0.01415 -0.0173,-0.01 -0.03664,-0.02537 -0.05716,-0.04597 C 9.739602,12.9224 9.66769,12.814232 9.595026,12.66971 9.526596,12.533603 9.476087,12.441652 9.433639,12.386835 c -0.06859,-0.08858 -0.122721,-0.08467 -0.188514,-0.02513 -0.0365,0.03303 -0.0641,0.05835 -0.05488,0.08587 0.0014,0.0041 0.0034,0.0078 0.0061,0.01132 -0.01583,0.0097 -0.03195,0.02572 -0.04763,0.0428 -0.0045,-0.0056 -0.01129,-0.009 -0.01898,-0.0091 -0.0082,-1.47e-4 -0.01572,0.0032 -0.02188,0.007 -0.02291,0.01416 -0.04328,0.04366 -0.04328,0.06986 0,0.01782 0.0026,0.04018 0.01947,0.0477 0.0063,0.0028 0.01266,0.0026 0.01822,7.61e-4 0.01592,-0.0052 0.02836,-0.02552 0.03741,-0.04501 0.0079,-0.0055 0.01947,-0.01418 0.03272,-0.02416 0.01106,-0.0083 0.01988,-0.01404 0.02451,-0.01595 4.01e-4,-1.74e-4 7.75e-4,-2.8e-4 0.0011,-4.14e-4 2.54e-4,4.54e-4 5.21e-4,10e-4 8.28e-4,0.0017 0.0023,0.0055 0.0052,0.01781 0.0072,0.0361 0.003,0.02744 0.0048,0.06859 0.0066,0.125906 l 0.0067,0.207566 0.03534,5.48e-4 8.28e-4,-0.01305 c 0.0026,0.02055 0.0069,0.0408 0.01312,0.06219 -0.0044,-1.73e-4 -0.0094,0.0011 -0.0138,0.0055 -0.0055,0.0055 -0.0059,0.0127 -0.0059,0.01553 2e-6,0.0094 0.0058,0.02792 0.01415,0.04977 -0.0027,8.95e-4 -0.0054,0.0025 -0.0079,0.005 -0.0078,0.0078 -0.0071,0.01865 -0.0066,0.02423 0.0025,0.02488 0.02294,0.07509 0.04597,0.119625 0.02659,0.05142 0.04974,0.08885 0.06426,0.1043 0.0033,0.0035 0.0075,0.0076 0.01298,0.01001 0.0064,0.0028 0.01227,0.0025 0.01705,2.8e-4 0.02308,0.04306 0.04425,0.08032 0.06012,0.105474 v 7.1e-5 c -0.01178,0.0065 -0.01786,0.02024 -0.0096,0.03362 0.01038,0.0168 0.04935,0.03071 0.07351,0.03886 0.05081,0.01715 0.121466,0.03423 0.170498,0.04031 0.01946,0.0024 0.03837,0.0036 0.0517,8.95e-4 2.14e-4,2.1e-5 0.0023,-7.1e-5 0.0054,6.28e-4 0.0035,8.01e-4 0.0082,0.0024 0.01353,0.0048 0.01598,0.0071 0.03711,0.02079 0.05495,0.03693 0.04453,0.0403 0.08873,0.04868 0.131774,0.02147 0.01704,-0.01077 0.04473,-0.01966 0.07517,-0.02464 0.03044,-0.005 0.06371,-0.0063 0.0925,-0.004 0.02303,0.0019 0.04328,0.0062 0.05612,0.01187 0.007,0.0031 0.01139,0.0065 0.01353,0.0088 v 7e-5 7.1e-5 7e-5 7.1e-5 c -6.95e-4,0.0033 -0.0042,0.01135 -0.01056,0.02085 -0.01586,0.02375 -0.04831,0.05784 -0.08829,0.08974 -0.06147,0.04905 -0.131083,0.128019 -0.131084,0.174294 0,0.0033 -0.0012,0.0086 -0.0047,0.01532 -0.0035,0.0067 -0.0091,0.01454 -0.01657,0.02292 -0.02242,0.02512 -0.06156,0.05429 -0.108857,0.07841 -0.09237,0.04712 -0.147249,0.102781 -0.170015,0.203355 -0.02224,0.09825 -0.01343,0.239075 0.01588,0.453512 0.0248,0.181472 0.03003,0.309443 0.0176,0.378547 -0.0041,0.02304 -0.01037,0.03926 -0.01664,0.04818 -0.0031,0.0045 -0.0061,0.0071 -0.0088,0.0086 -0.0027,0.0016 -0.0053,0.0023 -0.0088,0.0023 -1.06e-4,-3.6e-5 -0.0018,-3.21e-4 -0.0041,-0.0014 -0.0027,-0.0013 -0.0064,-0.0036 -0.01035,-0.0068 -0.01199,-0.0094 -0.02676,-0.02634 -0.03755,-0.04487 -0.01009,-0.01732 -0.02163,-0.03572 -0.03175,-0.04307 -0.0029,-0.0021 -0.0077,-0.005 -0.01422,-0.005 -0.01017,2e-6 -0.01661,0.007 -0.01933,0.01318 -0.0028,0.0065 -0.0029,0.01502 -0.0027,0.02112 0.0012,0.02864 0.01457,0.09023 0.03652,0.177401 0.004,0.0158 0.0087,0.03173 0.01401,0.04728 -0.0016,0.001 -0.003,0.0023 -0.0043,0.0035 -0.01932,0.01932 -0.01084,0.06429 -6.28e-4,0.09091 0.01004,0.02617 0.02356,0.05444 0.04017,0.06219 0.0058,0.0027 0.01335,0.0037 0.02085,-2.8e-4 0.01076,-0.0057 0.01449,-0.01872 0.01463,-0.03403 0.0081,0.0067 0.01645,0.0114 0.02499,0.01367 0.03368,0.0089 0.06334,0.01643 0.08629,0.01871 v 7.61e-4 l 1.47e-4,7.62e-4 v 7.1e-5 7e-5 7.1e-5 c 7e-5,7.35e-4 4.81e-4,0.0033 0.0016,0.0057 l 3.47e-4,7.61e-4 4.14e-4,6.95e-4 c 0.0043,0.0073 0.01199,0.0096 0.01477,0.01035 0.02858,0.008 0.146552,0.0041 0.257818,-0.0028 0.311607,-0.01954 0.353396,-0.03176 0.529442,-0.151378 0.216661,-0.147209 0.302824,-0.307813 0.302824,-0.564784 v -0.140678 l 0.152551,-0.02043 c 0.08408,-0.01126 0.187772,-0.02848 0.215021,-0.03707 0.01542,-0.0049 0.0236,-0.02084 0.02885,-0.03741 0.02155,-0.06795 0.02768,-0.26402 0.02768,-0.634985 0,-0.340273 -0.0026,-0.512026 -0.01664,-0.578106 -0.0033,-0.01539 -0.0079,-0.02994 -0.01705,-0.03859 -0.01467,-0.01394 -0.03211,-0.0078 -0.0448,0.0027 -0.03672,0.03048 -0.08748,0.181107 -0.114793,0.292539 -0.01957,0.07985 -0.04126,0.145628 -0.06475,0.196936 -0.02349,0.05131 -0.04883,0.088 -0.07448,0.110306 -0.06878,0.0598 -0.0916,0.118643 -0.0916,0.233037 0,0.0369 -8.68e-4,0.06413 -0.0032,0.08249 -0.0016,0.01224 -0.004,0.02045 -0.006,0.02444 -0.0015,0.003 -0.0024,0.0034 -0.0028,0.0037 -4.54e-4,2.53e-4 -0.0013,7.34e-4 -0.0044,5.47e-4 -0.0042,-2.53e-4 -0.01164,-0.0021 -0.0214,-0.0058 -0.01476,-0.0056 -0.03403,-0.0129 -0.04528,-0.01215 -0.0021,1.47e-4 -0.0041,4.67e-4 -0.0059,10e-4 -0.01155,-0.04192 -0.02519,-0.08492 -0.04086,-0.128668 -0.02557,-0.07136 -0.04666,-0.123628 -0.06875,-0.164216 0.0055,-0.0011 0.01123,-0.0034 0.01574,-0.0083 0.01142,-0.01238 0.0054,-0.02828 -0.0012,-0.03852 -0.01041,-0.01613 -0.03244,-0.03663 -0.06116,-0.05916 -0.01743,-0.01367 -0.03498,-0.02747 -0.04349,-0.03189 -0.0014,-7.08e-4 -0.0053,-0.0029 -0.01056,-0.003 -7.48e-4,-1.4e-5 -0.0016,-1.3e-5 -0.0023,7.1e-5 h -0.0059 l -0.0052,0.0052 -7e-5,7.1e-5 -7.1e-5,7.1e-5 -7.1e-5,7e-5 -7e-5,7.1e-5 -0.0052,0.0052 v 0.0045 c -0.01299,-0.0079 -0.0271,-0.01559 -0.04259,-0.02354 0.01032,-0.009 0.01003,-0.0247 -0.0033,-0.03375 -0.0067,-0.0045 -0.04608,-0.03296 -0.0849,-0.06143 -0.02115,-0.01552 -0.0421,-0.0309 -0.05191,-0.03541 -0.0017,-7.62e-4 -0.0063,-0.0031 -0.01222,-0.0025 h -7.1e-5 c -0.05672,-0.06692 -0.111057,-0.148594 -0.147581,-0.224271 h 0.0033 l 0.0047,-0.0047 c 1.74e-4,-1.47e-4 3.21e-4,-3.2e-4 4.81e-4,-4.81e-4 l 7.1e-5,-7e-5 c 0.0032,-0.0031 0.0045,-0.0065 0.005,-0.008 0.0046,-0.01264 0.0057,-0.06728 0.0068,-0.101816 0.0022,-0.06683 0.02781,-0.192565 0.05619,-0.273004 0.07414,-0.210143 0.06855,-0.308496 -0.03527,-0.605648 -0.04841,-0.138564 -0.07507,-0.247824 -0.08235,-0.354526 -0.0073,-0.106703 0.0047,-0.211321 0.03465,-0.341273 0.06321,-0.273837 0.0164,-0.466092 -0.187825,-0.777182 -0.351843,-0.535986 -0.707109,-0.842994 -0.99751,-0.842994 -0.100546,0 -0.163211,0.04024 -0.329607,0.208463 -0.04849,0.04902 -0.08667,0.0886 -0.09567,0.100849 -7.08e-4,9.76e-4 -0.0028,0.0038 -0.0039,0.0072 l -8.29e-4,0.0026 v 0.0028 7.1e-5 7.1e-5 7e-5 7.1e-5 7.1e-5 0.0073 l 0.0052,0.0052 7.1e-5,7e-5 2.13e-4,2.14e-4 v 7.1e-5 c -0.01323,0.01567 -0.02712,0.03243 -0.0419,0.05025 -0.02176,0.02624 -0.04184,0.05076 -0.0604,0.07393 h -0.0051 c -5.61e-4,-3.6e-5 -0.0012,-7.1e-5 -0.0019,-7.1e-5 -6.81e-4,4e-6 -0.0014,3.5e-5 -0.0022,1.47e-4 -0.0047,5.74e-4 -0.0083,0.0026 -0.01008,0.0037 -0.0083,0.0047 -0.02419,0.01707 -0.04204,0.03106 -0.02365,0.01854 -0.05824,0.0489 -0.06606,0.0653 -10e-4,0.0021 -0.0026,0.0059 -0.0026,0.01042 0,0.0077 0.0014,0.0177 0.009,0.02478 5.74e-4,5.34e-4 0.0012,0.0011 0.0018,0.0015 l -0.110306,0.08138 c -0.06766,0.04997 -0.172078,0.126551 -0.231933,0.170084 l -0.100159,0.07282 -0.199421,-0.10223 c -0.108257,-0.05549 -0.236197,-0.11524 -0.274246,-0.126114 -0.0067,-0.0019 -0.01332,-0.0061 -0.01967,-0.01263 -0.0095,-0.0098 -0.01795,-0.02459 -0.02326,-0.04059 -0.0066,-0.02 -0.0082,-0.04183 -0.0051,-0.05577 0.0016,-0.007 0.0042,-0.01166 0.0066,-0.01408 0.0024,-0.0024 0.0043,-0.0035 0.0093,-0.0035 0.02354,0 0.04867,-0.03143 0.06482,-0.0535 0.03096,-0.04231 0.06524,-0.105221 0.08277,-0.154208 0.0072,-0.02009 0.01236,-0.03961 0.01236,-0.05564 0,-0.01629 -0.0048,-0.03069 -0.0165,-0.0408 -0.04079,-0.03537 -0.13702,0.0093 -0.237455,0.07745 -0.04171,0.0283 -0.09115,0.05385 -0.131705,0.06937 -0.02704,0.01035 -0.05077,0.01594 -0.0624,0.01594 -0.06596,0 -0.158531,0.02092 -0.410991,0.09084 -0.0071,0.002 -0.01346,0.0054 -0.01871,0.01111 -0.0066,0.0071 -0.0099,0.01616 -0.0107,0.02658 -9.25e-4,-6.28e-4 -0.0018,-0.0012 -0.0028,-0.0018 -0.0066,-0.0041 -0.01757,-0.0091 -0.02809,-0.0046 l -0.003,-0.0058 -0.03914,-0.0015 c 0.0024,-0.0079 4.76e-4,-0.01685 -0.0076,-0.02492 -0.01035,-0.01034 -0.02638,-0.01426 -0.04045,-0.01484 -0.01473,-6.14e-4 -0.03132,0.0021 -0.04632,0.0081 -0.0092,0.0037 -0.02692,0.01122 -0.02761,0.02706 l -0.327742,-0.01243 c -0.005,-0.01075 -0.01902,-0.01412 -0.02416,-0.01546 -0.03743,-0.0098 -0.103868,-0.0096 -0.149169,-8.95e-4 -0.0048,9.35e-4 -0.01593,0.0025 -0.02437,0.0075 -0.01194,-6.67e-4 -0.02361,-0.0014 -0.03507,-0.0021 -0.01945,-0.01548 -0.05361,-0.01418 -0.0789,-0.0054 -0.03047,-0.0023 -0.05904,-0.0048 -0.08594,-0.0075 1.76e-4,-0.0065 -0.0025,-0.01341 -0.0085,-0.0194 -0.01966,-0.01966 -0.05962,-0.01763 -0.08677,-0.0068 -0.0071,0.0028 -0.01472,0.0065 -0.02009,0.0116 -0.0112,-0.0017 -0.0221,-0.0036 -0.03272,-0.0055 0.0088,-0.0094 0.0099,-0.02302 -0.0018,-0.03472 -0.01035,-0.01034 -0.02638,-0.01426 -0.04045,-0.01484 -0.01473,-6.15e-4 -0.03132,0.0021 -0.04632,0.0081 -0.0068,0.0027 -0.01839,0.0076 -0.02416,0.01643 -0.02573,-0.0071 -0.05032,-0.01491 -0.07462,-0.02354 -0.01382,-0.0049 -0.02799,-0.01013 -0.04238,-0.01567 4.77e-4,-10e-4 8.87e-4,-0.0022 0.0012,-0.0033 0.0035,-0.01403 -0.009,-0.0253 -0.01463,-0.03044 -0.0094,-0.0086 -0.03133,-0.02132 -0.05357,-0.03348 -0.02029,-0.01109 -0.04494,-0.02386 -0.07144,-0.03714 -0.05715,-0.02863 -0.240003,-0.116859 -0.270174,-0.117347 -0.0046,-7.1e-5 -0.0148,0.0022 -0.01864,0.01104 -0.0017,-0.001 -0.0034,-0.0021 -0.005,-0.0031 0.0039,-0.006 0.0048,-0.01384 0.0014,-0.02299 -0.0032,-0.0089 -0.0099,-0.01753 -0.01781,-0.02644 -0.01385,-0.01559 -0.0362,-0.0362 -0.06592,-0.06137 l -0.07951,-0.06734 -0.01622,0.01622 -0.01912,-0.01622 -0.01588,0.01588 C 4.70586,10.014613 4.65,9.9818435 4.594064,9.9516035 l 0.02036,-0.485955 c 0.01279,-0.304987 0.03257,-0.489014 0.08677,-0.624907 0.05419,-0.135893 0.142642,-0.226251 0.299028,-0.346587 0.138314,-0.106431 0.26112,-0.179156 0.386416,-0.225376 0.125297,-0.04622 0.253334,-0.06613 0.402983,-0.06613 0.106488,0 0.173607,0.0044 0.25133,0.02637 0.07772,0.02194 0.166961,0.06194 0.314835,0.133844 0.430205,0.209191 0.69704,0.370122 0.998899,0.602266 l 0.249327,0.191759 h 0.2797 0.290468 l 0.0127,-0.246567 c 0.0035,-0.0679 0.0048,-0.144999 0.0017,-0.194865 0.0099,0.0064 0.01896,0.01165 0.02568,0.01408 0.004,0.0015 0.01358,0.0045 0.0223,-0.0012 0.01438,-0.0094 0.0079,-0.02626 0.0046,-0.03313 -0.0021,-0.0043 -0.0054,-0.0098 -0.0098,-0.01643 0.06,0.05541 0.115973,0.103431 0.166494,0.142335 l -0.0026,0.0027 -0.0019,0.0019 v 0.0059 c -7e-5,7.39e-4 -1.47e-4,0.0015 -1.47e-4,0.002 0,0.0069 0.0037,0.01224 0.0052,0.01436 0.01547,0.02194 0.09021,0.08164 0.152205,0.127287 0.185324,0.136461 0.286196,0.126813 0.464487,-0.04473 0.07346,-0.07068 0.133556,-0.14833 0.11431,-0.19093 -0.0026,-0.0056 -0.0063,-0.01034 -0.01125,-0.01415 -0.0023,-0.0017 -0.0047,-0.0032 -0.0072,-0.0044 0.0061,-0.01044 0.01107,-0.02276 0.01484,-0.03658 0.0035,-0.01278 0.0079,-0.02867 0.0075,-0.03769 -1.06e-4,-0.0024 -7.08e-4,-0.0085 -0.005,-0.01346 l -6.28e-4,-7.6e-4 -7.61e-4,-6.89e-4 c -0.0026,-0.0024 -0.0054,-0.0038 -0.0081,-0.0044 2.54e-4,-0.001 5.21e-4,-0.0021 7.61e-4,-0.0031 0.0012,-0.0055 0.0024,-0.01094 0.0037,-0.01629 0.0085,0.0048 0.01764,0.0025 0.02354,-0.0023 0.0053,-0.0043 0.0088,-0.01147 0.01077,-0.01643 0.0056,-0.01393 0.0085,-0.03164 0.0086,-0.04942 0.006,6.89e-4 0.0118,-0.0014 0.01595,-0.0048 0.0053,-0.0043 0.0088,-0.01147 0.01077,-0.01643 0.01154,-0.0286 0.01154,-0.07301 0,-0.101609 -0.0024,-0.0059 -0.0075,-0.01693 -0.0176,-0.02036 0.0026,-0.009 0.0052,-0.01737 0.0077,-0.0252 0.0033,0.0032 0.0074,0.0054 0.01249,0.0064 0.02713,0.0053 0.04667,-0.03441 0.05826,-0.06461 0.0061,-0.01595 0.01234,-0.03845 0.0014,-0.05232 0.0036,-0.002 0.0075,-0.0039 0.01167,-0.0057 0.0039,0.0047 0.0088,0.0066 0.01174,0.0075 0.0079,0.0024 0.02004,0.0028 0.03341,0.0023 -0.0041,0.01281 -0.004,0.0301 10e-4,0.05419 0.0077,0.03676 0.02807,0.09657 0.0586,0.183752 0.01816,0.05186 0.03505,0.100531 0.04873,0.140609 0.01642,0.04809 0.0284,0.08421 0.03224,0.09712 1.73e-4,6.47e-4 3.47e-4,0.0012 4.81e-4,0.0017 7e-5,2.12e-4 7e-5,4.38e-4 1.46e-4,6.22e-4 3.6e-5,1.76e-4 1.07e-4,2.82e-4 1.47e-4,4.13e-4 v 7.1e-5 c 1.3e-5,3e-5 1.47e-4,1.77e-4 1.47e-4,2.12e-4 v 7.1e-5 c 2.5e-5,1.06e-4 3.6e-5,2.12e-4 7.1e-5,2.82e-4 v 7.1e-5 c 1.4e-5,7.1e-5 7.1e-5,1.77e-4 7.1e-5,2.12e-4 v 7.1e-5 2.12e-4 l 1.47e-4,8.27e-4 c 0.0021,0.01057 0.01156,0.01447 0.01463,0.01567 0.0085,0.0033 0.02285,0.0053 0.03838,0.0063 -0.0046,0.009 -0.0081,0.02013 -0.01063,0.03375 -0.0058,0.0309 -0.0072,0.07884 -0.0072,0.143854 0,0.08943 0.0034,0.151289 0.02264,0.184234 -0.007,0.0036 -0.01243,0.0091 -0.01422,0.01746 -0.0029,0.01343 0.006,0.02387 0.01491,0.03093 -0.01686,0.02446 -0.02333,0.06906 -0.02333,0.115345 0,0.123087 0.0702,0.219979 0.188583,0.260993 0.04771,0.01653 0.124778,-0.04818 0.189964,-0.12425 0.03802,-0.04436 0.08084,-0.08416 0.114102,-0.108028 0.01331,-0.0095 0.02517,-0.01652 0.03369,-0.02016 0.0057,-0.0024 0.0099,-0.0031 0.01077,-0.0031 0.0066,0 0.01383,-0.0025 0.01933,-0.0048 0.05299,-0.02292 0.191093,-0.138457 0.316905,-0.259337 0.135497,-0.130185 0.324287,-0.275814 0.513566,-0.401464 0.189279,-0.125651 0.379492,-0.231488 0.516464,-0.28253 0.05606,-0.02089 0.136079,-0.03582 0.27404,-0.04659 0.137961,-0.01077 0.333639,-0.01746 0.620765,-0.02264 0.348879,-0.0063 0.538638,-0.0084 0.659214,-4.14e-4 0.120576,0.0079 0.170775,0.02501 0.247809,0.05909 0.07752,0.03429 0.15524,0.06679 0.177539,0.07345 0.0017,4.91e-4 0.0056,0.0017 0.0094,0.0017 0.0129,0 0.02003,-0.01004 0.02326,-0.01712 0.01217,-0.02666 0.01149,-0.09972 0.0082,-0.161524 -0.0039,-0.07296 -0.01312,-0.157858 -0.02561,-0.22434 -0.0067,-0.03592 -0.01505,-0.06921 -0.02416,-0.09091 -0.152812,-0.364031 -0.508796,-0.732036 -0.853113,-0.880862 -0.115357,-0.04986 -0.205271,-0.08195 -0.247947,-0.09029 -0.0087,-0.0017 -0.02929,-0.0063 -0.03935,0.0061 -0.0045,0.0056 -0.0051,0.01221 -0.0039,0.01753 0.0015,0.0062 0.0052,0.01053 0.0079,0.01332 3.87e-4,4.14e-4 8.15e-4,8.15e-4 0.0012,0.0012 -0.0063,-0.0032 -0.01238,-0.0061 -0.01822,-0.0086 -0.02396,-0.01004 -0.05852,-0.01851 -0.102437,-0.0254 0.0091,-0.0011 0.01653,-0.0024 0.02154,-0.0043 0.0025,-9.08e-4 0.0073,-0.0029 0.01084,-0.0072 0.0098,-0.01166 0.0024,-0.02444 -0.005,-0.02941 -0.0049,-0.0032 -0.01084,-0.0051 -0.01629,-0.0065 -0.01887,-0.0049 -0.04552,-0.0073 -0.07131,-0.0074 -0.02642,-1.47e-4 -0.05448,0.002 -0.07786,0.0065 -0.0085,0.0016 -0.01969,0.004 -0.02637,0.0086 -0.0078,0.0054 -0.0107,0.01468 -0.0078,0.02271 -0.02455,-0.0014 -0.05035,-0.0026 -0.07731,-0.0035 v -0.0047 -7e-5 -7.1e-5 -0.0073 l -7.1e-5,-7e-5 v -7.1e-5 l -0.0043,-0.0043 c -1.74e-4,-2.14e-4 -4.41e-4,-4.14e-4 -6.28e-4,-6.28e-4 l -7.1e-5,-1.47e-4 -1.47e-4,-7e-5 v -7.1e-5 c -0.0026,-0.0027 -0.0056,-0.0042 -0.0068,-0.0048 -0.0067,-0.0031 -0.01975,-0.005 -0.03037,-0.0063 -0.03248,-0.004 -0.07519,-0.0061 -0.117071,-0.0061 -0.04188,0 -0.08459,0.002 -0.11707,0.0061 -0.0106,0.0013 -0.02357,0.0032 -0.0303,0.0063 -0.0013,5.74e-4 -0.0042,0.0021 -0.0068,0.0048 l -7e-5,7.1e-5 c -2.81e-4,2.8e-4 -5.75e-4,5.34e-4 -8.28e-4,8.28e-4 -1.06e-4,1.47e-4 -2.54e-4,2.8e-4 -3.48e-4,4.14e-4 l -0.004,0.0039 v 7.1e-5 l -7.1e-5,7.1e-5 v 0.0073 7e-5 7.1e-5 0.0015 h -0.07137 l -4.14e-4,-0.0015 c -0.0029,-0.01001 -0.01269,-0.01341 -0.01491,-0.01429 -0.0037,-0.0015 -0.0089,-0.003 -0.01436,-0.0045 -0.05129,-0.01352 -0.08726,-0.02333 -0.108512,-0.03189 -0.0071,-0.0029 -0.01248,-0.0056 -0.01608,-0.0079 -0.0036,-0.0023 -0.0053,-0.0041 -0.0058,-0.0048 -1.06e-4,-1.74e-4 -2.14e-4,-3.61e-4 -2.8e-4,-4.14e-4 v -7.1e-5 -7.1e-5 l 7e-5,-7e-5 v -7.1e-5 c 2.4e-5,-8.82e-4 0.0012,-0.0056 0.0061,-0.01284 0.0074,-0.01093 0.02193,-0.02688 0.04148,-0.0477 0.01524,-0.01622 0.04698,-0.04143 0.08677,-0.06875 0.05968,-0.04098 0.138032,-0.08775 0.211431,-0.125009 0.08991,-0.04564 0.152598,-0.07273 0.206945,-0.08677 0.05435,-0.01404 0.10071,-0.01545 0.160835,-0.009 0.114195,0.0123 0.191843,-0.0027 0.278595,-0.05439 0.04667,-0.02779 0.106765,-0.06993 0.119694,-0.09415 0.0016,-0.0029 0.0036,-0.008 0.0035,-0.01325 -7.1e-5,-0.0063 -0.0027,-0.01111 -0.0046,-0.01408 -0.01565,-0.02532 -0.08831,-0.07825 -0.148202,-0.116519 -0.02918,-0.01864 -0.07753,-0.06086 -0.132809,-0.115759 -0.08292,-0.08234 -0.182887,-0.193698 -0.268655,-0.30172 l -0.253332,-0.319115 0.06544,-0.09795 c 0.152953,-0.229036 0.182812,-0.344845 0.175468,-0.681095 -0.003,-0.135845 -9.08e-4,-0.225748 0.01208,-0.311177 0.01299,-0.08543 0.03702,-0.16702 0.07876,-0.286326 0.04011,-0.114646 0.07293,-0.192608 0.114309,-0.26058 0.04138,-0.06797 0.09157,-0.12657 0.167392,-0.202388 0.06107,-0.06107 0.134438,-0.124415 0.196591,-0.171258 0.04143,-0.03123 0.07834,-0.05524 0.101332,-0.06585 l 0.115897,-0.0535 -0.01104,-0.03334 -0.0012,2.81e-4 c 0.0018,-0.0031 0.0032,-0.0064 0.004,-0.0099 1.74e-4,2.14e-4 2.81e-4,3.88e-4 4.14e-4,5.48e-4 1.74e-4,2.54e-4 2.54e-4,4.67e-4 3.48e-4,6.28e-4 h 7e-5 v 7e-5 h 7.1e-5 v 7.1e-5 7.1e-5 c 7.1e-5,0.01296 0.003,0.02784 0.01457,0.03603 0.0138,0.0098 0.02935,0.0036 0.03976,-0.0068 0.01072,-0.01072 0.01682,-0.02301 0.01684,-0.03679 1.9e-5,-0.01086 -0.0038,-0.02053 -0.0098,-0.02899 -0.02234,-0.03164 -0.07838,-0.05054 -0.134258,-0.05101 -0.01308,-1.06e-4 -0.02666,7.21e-4 -0.04031,0.0028 -0.02531,0.0038 -0.06359,0.0091 -0.07497,0.01325 H 12.433 v 0.01657 c -0.01441,1.47e-4 -0.02925,0.0032 -0.04149,0.0081 -0.0047,0.0019 -0.01147,0.0047 -0.01712,0.009 -6.54e-4,-7.75e-4 -0.0014,-0.0015 -0.0021,-0.0023 -0.01035,-0.01034 -0.02638,-0.01426 -0.04045,-0.01484 -0.01473,-6.14e-4 -0.03132,0.0021 -0.04632,0.0081 -0.0096,0.0039 -0.02853,0.01193 -0.02761,0.02927 4.01e-4,0.0075 0.0042,0.01287 0.0097,0.01664 -0.01601,0.0041 -0.03231,0.0085 -0.04887,0.01318 0.0018,-0.0035 0.0029,-0.0078 0.0023,-0.0127 -0.0022,-0.0167 -0.01961,-0.01902 -0.02796,-0.01919 -0.03509,-7.22e-4 -0.111889,0.02395 -0.166771,0.04908 -0.03496,0.01601 -0.06869,0.03316 -0.07917,0.04583 -0.0033,0.004 -0.009,0.01359 -0.0032,0.02409 0.0011,0.002 0.0024,0.0036 0.0039,0.005 -0.0073,0.003 -0.0146,0.006 -0.02181,0.009 0.0016,-0.0042 0.0021,-0.009 3.48e-4,-0.01429 -0.0058,-0.01725 -0.0285,-0.01698 -0.039,-0.01698 -0.02829,0 -0.08148,0.03268 -0.114103,0.05881 -0.02092,0.01676 -0.03886,0.03102 -0.04604,0.03907 -0.0013,0.0014 -0.0059,0.0064 -0.0064,0.01353 l -7.1e-5,6.95e-4 v 6.94e-4 7.1e-5 7.1e-5 7e-5 7.1e-5 0.0073 l 7.1e-5,7.1e-5 v 7.1e-5 l 0.0051,0.005 7.1e-5,7.1e-5 v 7e-5 l 7e-5,7.1e-5 7.1e-5,7.1e-5 7.1e-5,7e-5 0.0019,0.0019 c -0.0041,0.0023 -0.0082,0.0047 -0.01236,0.007 -6.41e-4,-0.01403 -0.01232,-0.02093 -0.02305,-0.02126 -0.03346,-10e-4 -0.115276,0.05508 -0.145787,0.08249 -0.0099,0.0089 -0.01966,0.01905 -0.02533,0.02823 -0.0027,0.0044 -0.0065,0.0121 -0.0055,0.02002 l -0.01719,0.01553 c -0.0031,-0.0084 -0.01102,-0.01241 -0.01815,-0.01243 h -7.1e-5 c -3.74e-4,4e-6 -0.0016,3.6e-5 -0.0024,1.47e-4 -0.0042,4.81e-4 -0.0077,0.002 -0.01008,0.0032 -0.02043,0.0102 -0.06641,0.05375 -0.101056,0.09063 -0.0284,0.03022 -0.06406,0.07161 -0.07041,0.09022 -8.41e-4,0.0025 -0.0024,0.0079 -7.61e-4,0.0138 5.21e-4,0.0019 0.0012,0.0036 0.0021,0.005 -7.61e-4,9.88e-4 -0.0014,0.0019 -0.0019,0.0027 -6.41e-4,9.49e-4 -0.0023,0.0033 -0.0034,0.0066 -8.95e-4,-1.06e-4 -0.0018,-2.14e-4 -0.0028,-2.14e-4 -0.0087,0 -0.0154,0.0052 -0.01898,0.0081 -0.03448,0.0287 -0.111765,0.159237 -0.140126,0.221854 -0.0075,0.01658 -0.01568,0.03661 -0.01574,0.0497 -2.6e-5,0.0063 -3e-5,0.01648 0.0019,0.02292 0.0049,0.01603 0.02192,0.02045 0.03486,0.0094 0.0043,-0.0036 0.01023,-0.01148 0.01753,-0.02243 -0.01007,0.0292 -0.01876,0.05898 -0.02602,0.08925 -0.0014,-0.0084 -0.0036,-0.01625 -0.0064,-0.02319 -0.0028,-0.0069 -0.0092,-0.0206 -0.02285,-0.0214 -9.08e-4,-3.6e-5 -0.0019,1e-6 -0.0028,7e-5 -0.01737,0.0012 -0.02164,0.02055 -0.02319,0.02899 -0.002,0.01077 -0.003,0.02593 -0.003,0.04314 0,0.02211 0.0016,0.04401 0.0065,0.05605 0.0015,0.0036 0.0043,0.0095 0.01042,0.01318 0.0082,0.005 0.01727,0.0032 0.02333,-0.0013 -0.0018,0.01326 -0.0034,0.02659 -0.0048,0.04004 h -0.005 -7e-5 -7.1e-5 -8.28e-4 -3.48e-4 c -3.5e-5,9e-6 -2.13e-4,7.1e-5 -3.47e-4,7.1e-5 h -7.1e-5 -7e-5 -7.1e-5 -7.1e-5 -7e-5 -7.1e-5 -0.0023 l -0.0014,6.27e-4 -0.0032,6.28e-4 -0.0028,0.0028 c -0.0035,0.0028 -0.0053,0.0064 -0.0061,0.008 -0.0023,0.0051 -0.004,0.01456 -0.0052,0.02637 -0.0035,-0.0035 -0.008,-0.0062 -0.0138,-0.0066 -9.08e-4,-3.5e-5 -0.0019,2e-6 -0.0028,7.1e-5 -0.01737,0.0012 -0.02164,0.02055 -0.02319,0.02899 -0.002,0.01077 -0.003,0.02593 -0.003,0.04314 0,0.02211 0.0016,0.04401 0.0065,0.05605 0.0015,0.0036 0.0043,0.0095 0.01042,0.01319 0.0083,0.005 0.01734,0.0031 0.0234,-0.0014 8.68e-4,0.03058 0.0031,0.06029 0.0084,0.07068 0.0013,0.0025 0.0048,0.0087 0.01291,0.01077 l 0.0021,5.48e-4 h 0.0017 4.8e-4 7.1e-5 c 3.3e-5,0 1.74e-4,10e-7 2.14e-4,0 h 7.1e-5 7e-5 0.0023 l 0.0022,-5.48e-4 c 6.81e-4,-1.73e-4 0.0014,-3.74e-4 0.002,-6.27e-4 0.0013,0.01393 0.0027,0.02778 0.0043,0.04155 -0.0027,-0.0019 -0.0059,-0.0034 -0.0096,-0.004 -0.0185,-0.0032 -0.02804,0.01458 -0.03293,0.02782 -0.004,-0.0038 -0.01026,-0.01071 -0.01733,-0.02078 -0.02364,-0.03368 -0.0592,-0.100807 -0.107959,-0.203977 -0.06306,-0.133436 -0.0957,-0.207142 -0.107959,-0.262443 -0.01226,-0.0553 -0.0057,-0.09355 0.01201,-0.163802 0.02016,-0.08007 0.09335,-0.265998 0.16118,-0.407539 0.06063,-0.126515 0.125906,-0.291438 0.125906,-0.341963 0,-0.337159 -0.428521,-0.686171 -1.008908,-0.843172 C 9.814293,2.3559435 9.44442,2.3113445 9.058301,2.3058545 Z m -6.509028,1.201978 c 9.22e-4,0.05302 0.0033,0.106268 0.0071,0.15904 h -0.001 -7.1e-5 -2.81e-4 -2.13e-4 -4.81e-4 -4.14e-4 c -0.0033,-0.04936 -0.0053,-0.09922 -0.0061,-0.148824 v -7.1e-5 z m 10.661315,0.347761 c -4.54e-4,5e-6 -0.0011,1.4e-5 -0.0017,7.1e-5 -0.0037,3.47e-4 -0.0071,0.0016 -0.0094,0.0026 -0.01953,0.0087 -0.05628,0.044 -0.08325,0.07379 -0.01947,0.02152 -0.05003,0.05776 -0.05294,0.07614 -0.0017,0.01066 0.0046,0.02409 0.01974,0.02409 0.0042,0 0.0081,-0.0013 0.01042,-0.0023 0.01974,-0.0081 0.05797,-0.04506 0.08435,-0.0742 0.01947,-0.02152 0.05003,-0.05776 0.05294,-0.07614 0.0017,-0.01066 -0.0046,-0.02409 -0.01974,-0.02409 2.53e-4,0 3.5e-5,-5e-6 -4.15e-4,0 z m -1.755925,1.158628 c 2.54e-4,8.95e-4 4.81e-4,0.0018 7.61e-4,0.0027 l -0.0052,0.0033 c 0.0015,-0.002 0.003,-0.004 0.0044,-0.006 z m -5.577293,1.109412 h 7.1e-5 c 2.9e-5,3.6e-5 3.5e-5,1.47e-4 7.1e-5,2.14e-4 -3.6e-5,-7.1e-5 -1.06e-4,-1.47e-4 -1.42e-4,-2.14e-4 z m 0.01871,0.0037 h 7.1e-5 7e-5 v 7.1e-5 l -7e-5,7.1e-5 -7.1e-5,7.1e-5 c -1.42e-4,1.46e-4 -3.18e-4,4e-4 -6.89e-4,6.27e-4 1.06e-4,-1.47e-4 2.47e-4,-3.2e-4 3.54e-4,-4.14e-4 1.06e-4,-1.47e-4 2.12e-4,-1.73e-4 2.83e-4,-2.8e-4 l 7.1e-5,-7.1e-5 z m -0.01077,0.01712 c 0.0017,0.005 0.0034,0.01079 0.0054,0.01719 0.0049,0.01631 0.01066,0.03678 0.01684,0.06005 0.0103,0.03879 0.02185,0.08547 0.03313,0.134673 0.04818,0.210098 0.132435,0.442849 0.219922,0.628565 0.0816,0.173223 0.1765,0.328327 0.248913,0.356114 0.02162,0.0083 0.03672,0.03847 0.03921,0.08276 0.0019,0.03322 -0.0035,0.07248 -0.01567,0.109685 -0.01217,0.03721 -0.03119,0.07236 -0.05543,0.09816 -0.02473,0.02632 -0.04541,0.04508 -0.0642,0.05626 -0.01878,0.01118 -0.03509,0.01532 -0.05536,0.01353 -0.02027,-0.0018 -0.04498,-0.01035 -0.07676,-0.0272 -0.03178,-0.01685 -0.07046,-0.04182 -0.118727,-0.07503 -0.160653,-0.110532 -0.178512,-0.113908 -0.338857,-0.07282 -0.238583,0.06113 -0.786219,0.338452 -0.994481,0.503073 -0.0996,0.07873 -0.249032,0.233428 -0.332644,0.344172 -0.04264,0.05648 -0.07336,0.09651 -0.09546,0.122109 -0.01474,0.01707 -0.02597,0.02767 -0.03237,0.03189 -0.0011,7.53e-4 -0.0021,0.0013 -0.0029,0.0017 -5.84e-4,-8.34e-4 -0.0013,-0.002 -0.0021,-0.0037 -0.003,-0.0061 -0.0065,-0.01703 -0.01049,-0.03113 -0.0056,-0.01989 -0.01266,-0.04554 -0.01919,-0.05501 -0.002,-0.0029 -0.0083,-0.01062 -0.01891,-0.0095 l -7.6e-4,7.1e-5 -2.12e-4,7e-5 c -0.0012,-0.0047 -0.0026,-0.0091 -0.0043,-0.01325 -0.0026,-0.0064 -0.0082,-0.01926 -0.02126,-0.02119 -3.78e-4,-7e-5 -7.95e-4,-1.06e-4 -0.0012,-1.41e-4 -9.68e-4,-0.0085 -0.0019,-0.01722 -0.0028,-0.02595 l 0.0018,4.83e-4 h 0.0017 4.84e-4 7.1e-5 c 3.2e-5,0 1.76e-4,10e-7 2.12e-4,0 h 7.1e-5 7e-5 0.0023 l 0.0022,-5.52e-4 c 0.01504,-0.004 0.01766,-0.02477 0.01878,-0.03058 0.0088,-0.04587 0.0089,-0.128089 6.23e-4,-0.182647 -0.0015,-0.01003 -0.0036,-0.02251 -0.0075,-0.02954 -8.87e-4,-0.0016 -0.0026,-0.0045 -0.0059,-0.0069 l -0.0037,-0.0037 h -0.0073 -7.1e-5 -7.1e-5 -8.26e-4 -3.54e-4 c -3.6e-5,10e-6 -2.13e-4,7.1e-5 -3.54e-4,7.1e-5 h -7.1e-5 -7.1e-5 -7.1e-5 -7e-5 -7.1e-5 -7.1e-5 -0.0023 l -0.0014,6.22e-4 -4.84e-4,7.1e-5 c 7.22e-4,-0.0087 0.0015,-0.01764 0.0023,-0.02665 0.0065,2.13e-4 0.01331,-0.0024 0.0194,-0.0085 0.01035,-0.01035 0.01471,-0.02631 0.01491,-0.04307 l 5.52e-4,7e-5 0.0012,-7e-5 c 0.0084,-4.24e-4 0.01307,-0.0059 0.01484,-0.0081 0.0114,-0.01459 0.02705,-0.08427 0.03748,-0.131704 0.0069,-0.03121 0.02562,-0.07183 0.05377,-0.116933 0.02815,-0.0451 0.06557,-0.09486 0.109202,-0.145855 0.130903,-0.15299 0.318095,-0.317231 0.47912,-0.407677 0.203968,-0.114566 0.260797,-0.163761 0.261546,-0.240631 1.76e-4,-0.01742 0.0015,-0.03015 0.0042,-0.03707 0.0013,-0.0035 0.0027,-0.0055 0.0047,-0.0072 0.002,-0.0018 0.0047,-0.0035 0.0095,-0.005 0.01151,-0.0036 0.03457,-0.0046 0.07124,-5.48e-4 0.055,0.0061 0.140511,0.02256 0.270036,0.04853 0.05225,0.01048 0.09246,0.01978 0.115276,-0.0014 0.0221,-0.02056 0.02071,-0.06554 0.02071,-0.122731 0,-0.01672 0.0047,-0.04917 0.01325,-0.08953 0.01278,-0.06054 0.03373,-0.140138 0.05778,-0.222683 0.02404,-0.08254 0.05121,-0.168141 0.07655,-0.240975 0.01825,-0.05244 0.03557,-0.09833 0.04991,-0.131429 0.0058,-0.01329 0.01114,-0.02462 0.01567,-0.0332 z m -1.682894,1.793404 c -0.0011,0.01353 -0.0021,0.02633 -0.0027,0.03783 -6.74e-4,-7.56e-4 -0.0014,-0.0015 -0.0021,-0.0021 0.0015,-0.01186 0.0032,-0.02375 0.0048,-0.03569 z m 5.238437,0.156624 c -6.95e-4,0.0021 -0.0014,0.0041 -0.0021,0.0061 -2.8e-4,-1.06e-4 -5.34e-4,-1.76e-4 -8.28e-4,-2.83e-4 9.62e-4,-0.0019 0.0019,-0.0038 0.0029,-0.0058 z m -5.177002,0.435081 h 7.1e-5 7e-5 7.1e-5 c 1.76e-4,-1e-6 4.27e-4,3.5e-5 8.27e-4,2.12e-4 l -7.1e-5,7.1e-5 c -1.76e-4,7.1e-5 -3.65e-4,1.06e-4 -4.83e-4,1.42e-4 -1.07e-4,3.4e-5 -1.42e-4,7e-5 -2.13e-4,7e-5 h -7.1e-5 -7e-5 -7.1e-5 v -7e-5 l -7.1e-5,-7.1e-5 v -7.1e-5 h -7e-5 v -7e-5 -7.1e-5 -7.1e-5 h 7e-5 z m -0.679301,1.086771 c 0.02661,0 0.06069,0.0064 0.09774,0.01788 0.03705,0.01151 0.07713,0.02807 0.116725,0.04804 0.0792,0.03995 0.156347,0.09376 0.203424,0.145717 0.01907,0.02105 0.04213,0.05535 0.06268,0.09264 0.02054,0.03728 0.0388,0.07778 0.04949,0.1112025 0.04223,0.13204 0.09354,0.205782 0.250432,0.273625 0.102582,0.04436 0.25137,0.08676 0.472218,0.143233 0.38914,0.0995 0.611134,0.135755 0.91365,0.148892 0.104644,0.0045 0.200164,0.01155 0.270864,0.01926 0.04713,0.0051 0.08362,0.01075 0.102851,0.0156 0.0012,3.21e-4 0.0023,6.01e-4 0.0034,8.95e-4 4.1e-4,1.06e-4 7.84e-4,2.54e-4 0.0012,3.47e-4 l -7.1e-5,7.1e-5 v 7.1e-5 c -1.8e-5,2.6e-5 -1.06e-4,1.73e-4 -1.41e-4,2.13e-4 -0.002,0.0044 -0.0054,0.0099 -0.01001,0.01601 -0.01394,0.01825 -0.03914,0.04154 -0.07103,0.06558 -0.07972,0.06009 -0.201558,0.125847 -0.300546,0.155243 -0.237465,0.07052 -0.584183,0.0638 -0.883415,-0.0185 -0.129074,-0.0355 -0.291761,-0.06094 -0.351903,-0.0486 -0.01928,0.004 -0.04977,0.0042 -0.08449,6.28e-4 -0.03472,-0.0036 -0.07399,-0.01067 -0.112584,-0.02009 -0.0386,-0.0094 -0.07656,-0.02112 -0.108787,-0.03389 -0.03124,-0.01238 -0.05718,-0.02604 -0.0722,-0.03796 1e-6,-1.47e-4 -8e-6,-3.21e-4 0,-4.81e-4 1.3e-5,-2.81e-4 3e-5,-5.48e-4 7.1e-5,-8.95e-4 2.54e-4,-0.0023 0.0012,-0.0063 0.0032,-0.01105 0.0075,-0.01789 0.02859,-0.04662 0.05791,-0.07379 0.05934,-0.05499 0.100238,-0.104419 0.09264,-0.143509 -0.0081,-0.04149 -0.06201,-0.0535 -0.137019,-0.0535 -0.07035,0 -0.141428,-0.03069 -0.194313,-0.0771 -0.05288,-0.04641 -0.08684,-0.107857 -0.08684,-0.167461 0,-0.05753 -0.03144,-0.116153 -0.07855,-0.141368 -0.02122,-0.01135 -0.04712,-0.03203 -0.07358,-0.05847 -0.02647,-0.02643 -0.05368,-0.05857 -0.0789,-0.09277 -0.05044,-0.06841 -0.09275,-0.145867 -0.106372,-0.200456 -0.0054,-0.02163 -0.0089,-0.03811 -0.0098,-0.04936 -9.48e-4,-0.01125 6.95e-4,-0.01589 0.0019,-0.01753 0.0012,-0.0016 0.0039,-0.004 0.01387,-0.0058 0.0099,-0.0018 0.02555,-0.0026 0.04632,-0.0026 z m 10.219262,0 c -0.07352,0 -0.221731,0.09919 -0.300063,0.178367 -0.02091,0.02113 -0.03904,0.04296 -0.05087,0.06302 -0.04529,0.07676 -0.114173,0.126539 -0.248638,0.1768485 -0.08592,0.03215 -0.254906,0.07667 -0.450888,0.121075 -0.293974,0.06661 -0.650065,0.133561 -0.886315,0.162352 -0.179068,0.02182 -0.351576,0.0713 -0.500381,0.143716 -0.137183,0.06676 -0.318304,0.131094 -0.472218,0.171602 -0.102609,0.02701 -0.193723,0.04328 -0.249397,0.04328 -0.04203,0 -0.0757,0.0096 -0.08463,0.037 -0.006,0.01847 0.002,0.03783 0.01505,0.05529 0.02173,0.0291 0.06399,0.06222 0.122801,0.09657 0.108575,0.06341 0.142598,0.06672 0.293436,0.02582 0.107774,-0.02923 0.264583,-0.05146 0.418377,-0.06247 0.153793,-0.01101 0.305226,-0.01077 0.401464,0.0037 0.04208,0.0063 0.09829,0.02322 0.153448,0.04528 0.05516,0.02206 0.109539,0.04939 0.148755,0.07572 0.09004,0.06048 0.160154,0.08936 0.254367,0.07924 0.09239,-0.0099 0.206588,-0.05775 0.382896,-0.144543 0.484368,-0.238454 0.80752,-0.553888 0.877962,-0.867401 0.009,-0.03989 0.02705,-0.09007 0.0488,-0.1376405 0.02175,-0.04757 0.04733,-0.0928 0.07027,-0.12287 0.03229,-0.04234 0.06855,-0.09471 0.07427,-0.11638 6.82e-4,-0.0026 0.0016,-0.0068 6.28e-4,-0.0118 -0.0018,-0.0088 -0.0094,-0.01574 -0.01912,-0.01574 z m -4.924706,0.6425775 0.05308,0.118244 c 0.03816,0.08505 0.06973,0.239784 0.07338,0.364397 l 0.0064,0.218955 c -0.0032,0.0016 -0.0065,0.0034 -0.0097,0.0052 l -0.0196,-0.01933 -0.100435,0.08822 c -0.05504,0.04835 -0.118916,0.12131 -0.140955,0.164079 -0.0085,0.01647 -0.01825,0.03509 -0.02098,0.04452 -5.74e-4,0.002 -0.0025,0.0082 3.47e-4,0.01505 l 3.48e-4,8.95e-4 4.14e-4,8.28e-4 c 2.14e-4,3.74e-4 6.81e-4,0.0012 0.0012,0.0019 l 8.95e-4,0.0012 10e-4,0.001 7.1e-5,7.1e-5 7.1e-5,7e-5 0.0015,0.0015 0.0018,0.0011 c 0.001,6.28e-4 0.0019,0.001 0.0023,0.0012 h 7.1e-5 l 7e-5,7e-5 v 7.1e-5 h 7.1e-5 7.1e-5 l 7.61e-4,2.81e-4 9.62e-4,3.47e-4 h 7e-5 7.1e-5 c 3.21e-4,1.06e-4 0.0014,4.01e-4 0.0023,5.48e-4 l 9.62e-4,1.47e-4 8.95e-4,7e-5 c 0.0013,7.1e-5 0.0025,-3.2e-5 0.0037,-2.14e-4 -0.04447,0.08071 -0.08412,0.171369 -0.11576,0.266378 -0.02235,0.0671 -0.06,0.185846 -0.07745,0.256161 -0.0053,-0.0059 -0.01263,-0.0099 -0.02237,-0.0073 -0.01987,0.0054 -0.02169,0.03532 -0.02237,0.05073 -3.87e-4,0.0089 -0.002,0.01615 -0.0039,0.02105 -0.002,0.0049 -0.0043,0.0072 -0.005,0.0077 h -5.5e-5 v 7e-5 h -7.1e-5 c -2.54e-4,-3.5e-5 -8.81e-4,-2.53e-4 -0.0021,-9.61e-4 -0.0049,-0.003 -0.01098,-0.01035 -0.01622,-0.0234 -0.0052,-0.01306 -0.0095,-0.03124 -0.01229,-0.0535 -0.0083,-0.06676 -0.0035,-0.169472 0.01229,-0.289364 0.03953,-0.299729 0.146957,-0.709227 0.273212,-0.968802 z m -2.744193,0.376614 c 1.77e-4,7.1e-5 3.18e-4,1.47e-4 4.84e-4,2.14e-4 3.18e-4,1.06e-4 6.01e-4,1.74e-4 8.27e-4,2.81e-4 2.12e-4,1.06e-4 3.54e-4,2.13e-4 4.83e-4,2.8e-4 3.6e-5,1.7e-5 1.06e-4,7.1e-5 1.42e-4,7.1e-5 h 7.1e-5 v 7e-5 h -7.1e-5 -7.1e-5 c -2.8e-5,0 -1.76e-4,5e-6 -2.12e-4,0 -3.57e-4,-7e-5 -10e-4,-3.2e-4 -0.0017,-8.95e-4 z m 5.929886,2.103617 c -0.0014,-7.1e-5 -0.0029,-2.7e-5 -0.0043,7.1e-5 -0.02442,0.0016 -0.0379,0.02708 -0.05274,0.05571 -0.02063,0.03978 -0.0741,0.204518 -0.116104,0.350729 -0.04438,0.154484 -0.117563,0.355558 -0.160558,0.442605 -0.07515,0.152135 -0.0807,0.223419 -0.03037,0.389109 0.0064,0.02108 0.01565,0.04101 0.03617,0.04832 0.0198,0.0071 0.04365,-2.54e-4 0.07193,-0.01436 0.03862,-0.01929 0.09573,-0.05699 0.178505,-0.113964 l 0.198455,-0.136606 0.0088,-0.457377 c 0.0078,-0.401899 8.15e-4,-0.463715 -0.06143,-0.520054 -0.02468,-0.02233 -0.04699,-0.04295 -0.06841,-0.04418 z m -5.207719,0.06868 h 7.1e-5 c 0.0018,0.004 0.0036,0.0079 0.0055,0.01187 -0.0019,-0.0039 -0.0039,-0.0078 -0.0058,-0.0118 h 7.1e-5 c 2.8e-5,-6e-6 1.73e-4,-7.1e-5 2.13e-4,-7.1e-5 z m -1.287986,0.183959 c -0.0156,2.13e-4 -0.02867,0.0067 -0.03845,0.01912 -0.0073,0.0092 -0.01208,0.02104 -0.01532,0.03438 -0.01276,0.05249 -0.0053,0.150244 0.01519,0.289364 0.08238,0.559272 0.188615,0.884122 0.340099,0.945126 0.03827,0.01541 0.0924,0.03322 0.114378,0.03479 0.02009,0.0014 0.03138,-0.01435 0.03617,-0.03217 0.0181,-0.06736 -0.0202,-0.269177 -0.06813,-0.462347 -0.05212,-0.21002 -0.124517,-0.445292 -0.189757,-0.603094 -0.03405,-0.08235 -0.06964,-0.152809 -0.101609,-0.178712 -0.03379,-0.02738 -0.06539,-0.04682 -0.09257,-0.04646 z m 1.299583,1.103958 c 0.01051,-3.74e-4 0.01949,6.95e-4 0.02809,0.0035 0.01147,0.0038 0.02284,0.01076 0.0361,0.02368 0.02653,0.02583 0.05902,0.0753 0.106233,0.158418 l 0.100504,0.176849 h -0.09125 c -0.05514,0 -0.139229,0.01139 -0.139229,0.05301 0,0.02988 0.02558,0.05301 0.0555,0.05301 5.75e-4,0 9.62e-4,1.7e-5 0.0012,7.1e-5 l 7e-5,7.1e-5 h 7.1e-5 c 3.5e-5,2e-5 1.74e-4,1.06e-4 2.14e-4,1.46e-4 1.06e-4,7.1e-5 2.13e-4,1.74e-4 3.47e-4,2.81e-4 6.55e-4,5.08e-4 0.002,0.0019 0.0033,0.0048 0.002,0.0044 0.0038,0.0119 0.0044,0.02092 5.88e-4,0.009 1.06e-4,0.01959 -0.0014,0.03037 -0.0031,0.02156 -0.01069,0.0442 -0.02002,0.05867 -0.0054,0.0084 -0.01112,0.01351 -0.0156,0.01574 -1.73e-4,-7.1e-5 -3.47e-4,-1.74e-4 -5.47e-4,-2.81e-4 -2.81e-4,-1.47e-4 -6.41e-4,-3.47e-4 -9.62e-4,-5.47e-4 -0.0022,-0.0013 -0.0053,-0.0038 -0.009,-0.0073 -0.0091,-0.0088 -0.02091,-0.02376 -0.03327,-0.04287 -0.01647,-0.02547 -0.03419,-0.05835 -0.05025,-0.09478 -0.02333,-0.05292 -0.05388,-0.114382 -0.07303,-0.12922 -0.0024,-0.0018 -0.0067,-0.0046 -0.01194,-0.0053 -0.0012,-1.74e-4 -0.0024,-2.54e-4 -0.0036,-2.14e-4 -0.0012,-0.0077 -0.0027,-0.01633 -0.0046,-0.02561 l 0.01222,-0.0021 -0.003,-0.132671 c -8.63e-4,-0.03834 -0.0011,-0.06743 6.22e-4,-0.08877 0.0017,-0.02134 0.0054,-0.03429 0.01042,-0.04197 0.01,-0.01535 0.03198,-0.02077 0.08732,-0.02713 0.0039,-4.41e-4 0.0075,-7.08e-4 0.01104,-8.28e-4 z m 1.219856,0.04459 c -1.8e-5,2.81e-4 2.5e-5,5.88e-4 0,8.95e-4 -0.0012,0.01415 -0.01076,0.04427 -0.02789,0.07738 -0.07117,0.137624 -0.0703,0.282207 -1.47e-4,0.55298 0.01419,0.05477 0.02419,0.0979 0.02927,0.131567 0.0051,0.03367 0.005,0.0577 8.28e-4,0.074 -0.0021,0.0081 -0.005,0.01439 -0.009,0.01981 -0.004,0.0054 -0.0091,0.01015 -0.01608,0.01456 -0.0139,0.0088 -0.03534,0.01607 -0.06468,0.02278 -0.0036,8.15e-4 -0.01197,0.0025 -0.01884,0.0056 h -0.01284 v 0.01767 7.1e-5 7e-5 0.008 c -0.0088,-4.81e-4 -0.01749,-10e-4 -0.02582,-0.0014 -0.0047,-2.54e-4 -0.0093,-6.68e-4 -0.01381,-0.0012 -3.2e-4,-0.0012 -7.48e-4,-0.0023 -0.0012,-0.0035 -0.0048,-0.01069 -0.01802,-0.02 -0.02892,-0.02692 -0.0039,-0.0025 -0.0091,-0.0064 -0.01498,-0.01111 -0.0022,-0.0099 -0.01138,-0.0289 -0.02043,-0.04742 -0.0063,-0.01285 -0.01451,-0.04525 -0.02064,-0.08566 -0.0092,-0.06063 -0.01525,-0.141191 -0.01525,-0.217299 0,-0.158689 0.0295,-0.293425 0.07828,-0.386831 0.02439,-0.0467 0.05348,-0.08295 0.08559,-0.107269 0.02975,-0.02253 0.06184,-0.03501 0.09664,-0.03672 z"
     class="ColorScheme-Text" />
</svg>
