<?xml version='1.0' encoding='UTF-8'?>
<svg xmlns:inkscape="http://www.inkscape.org/namespaces/inkscape" xmlns:sodipodi="http://sodipodi.sourceforge.net/DTD/sodipodi-0.dtd" xmlns="http://www.w3.org/2000/svg" xmlns:svg="http://www.w3.org/2000/svg" style="clip-rule:evenodd;fill-rule:evenodd;stroke-linejoin:round;stroke-miterlimit:2" viewBox="0 0 64 64" version="1.1" id="svg2" sodipodi:docname="dialog-cancel.svg" inkscape:version="1.4.2 (ebf0e940d0, 2025-05-08)" width="64" height="64">
  <defs id="defs2">
    <style id="current-color-scheme" type="text/css">.ColorScheme-Text {color:#d8dee9} .ColorScheme-Highlight {color:#3b4252}</style>
  </defs>
  <sodipodi:namedview id="namedview2" pagecolor="#505050" bordercolor="#eeeeee" borderopacity="1" inkscape:showpageshadow="0" inkscape:pageopacity="0" inkscape:pagecheckerboard="0" inkscape:deskcolor="#505050" inkscape:zoom="9.265625" inkscape:cx="-27.952782" inkscape:cy="32.917369" inkscape:window-width="2560" inkscape:window-height="1384" inkscape:window-x="0" inkscape:window-y="0" inkscape:window-maximized="1" inkscape:current-layer="svg2"/>
  <path id="path99" style="fill:currentColor;fill-opacity:1;stroke-width:4.33332" class="ColorScheme-Text" d="M 32,6 C 17.734667,6 6,17.734667 6,32 6,46.265332 17.734667,58 32,58 46.265332,58 58,46.265332 58,32 58,17.734667 46.265332,6 32,6 Z m 0,4.921875 c 11.561332,0 21.078125,9.516792 21.078125,21.078125 0,4.732468 -1.596901,9.121584 -4.273437,12.656247 -0.781416,-0.883428 -1.715172,-1.810383 -2.6875,-2.781247 L 21.851563,17.640625 c -0.872396,-0.87108 -1.718557,-1.713149 -2.523438,-2.4375 C 22.86533,12.519838 27.260933,10.921875 32,10.921875 Z m -17.023438,8.710938 c 0.70705,0.798685 1.554296,1.641599 2.460938,2.546875 l 24.265625,24.234377 c 0.963883,0.962431 1.863659,1.849451 2.710939,2.578123 C 40.922616,51.558055 36.62341,53.078125 32,53.078125 20.438667,53.078125 10.921875,43.561332 10.921875,32 c 0,-4.604259 1.508071,-8.883571 4.054687,-12.367187 z"/>
</svg>
