<?xml version='1.0' encoding='UTF-8'?>
<svg xmlns:inkscape="http://www.inkscape.org/namespaces/inkscape" xmlns:sodipodi="http://sodipodi.sourceforge.net/DTD/sodipodi-0.dtd" xmlns="http://www.w3.org/2000/svg" xmlns:svg="http://www.w3.org/2000/svg" xmlns:rdf="http://www.w3.org/1999/02/22-rdf-syntax-ns#" xmlns:cc="http://creativecommons.org/ns#" xmlns:dc="http://purl.org/dc/elements/1.1/" width="64" height="64" version="1.1" viewBox="0 0 16.933 16.933" id="svg7" sodipodi:docname="discord.svg" inkscape:version="1.4 (e7c3feb100, 2024-10-09)">
  <sodipodi:namedview id="namedview7" pagecolor="#9c4444" bordercolor="#000000" borderopacity="0.25" inkscape:showpageshadow="2" inkscape:pageopacity="0.0" inkscape:pagecheckerboard="0" inkscape:deskcolor="#d1d1d1" inkscape:zoom="6.15625" inkscape:cx="16" inkscape:cy="41.746193" inkscape:window-width="1183" inkscape:window-height="941" inkscape:window-x="35" inkscape:window-y="32" inkscape:window-maximized="0" inkscape:current-layer="svg7" showgrid="false"/>
  <defs id="defs2">
    <style id="current-color-scheme" type="text/css">.ColorScheme-Text {color:#d8dee9} .ColorScheme-Highlight {color:#3b4252}</style></defs>
  <metadata id="metadata2">
    <rdf:RDF>
      <cc:Work rdf:about="">
        <dc:format>image/svg+xml</dc:format>
        <dc:type rdf:resource="http://purl.org/dc/dcmitype/StillImage"/>
      </cc:Work>
    </rdf:RDF>
  </metadata>
  <path d="M 6.3987394,3.0744074 C 5.3675982,3.2539061 4.380844,3.5675406 3.4599381,3.9938499 c -0.00779,0.00391 -0.013642,0.0088 -0.018544,0.016587 -1.8710776,2.8212488 -2.3842093,5.5737224 -2.132521,8.2915671 9.675e-4,0.01368 0.00779,0.02584 0.01805,0.03365 1.2350285,0.915051 2.4305467,1.471105 3.6046038,1.839373 0.018544,0.0053 0.03902,-9.69e-4 0.05073,-0.01653 0.2780335,-0.382468 0.5253316,-0.62001 0.7375107,-1.044368 0.012692,-0.02487 4.837e-4,-0.05413 -0.024877,-0.0639 -0.3926535,-0.150233 -0.7657958,-0.332655 -1.1257679,-0.540933 -0.028291,-0.01653 -0.031217,-0.05854 -0.00536,-0.07805 0.075605,-0.05706 0.1521824,-0.116584 0.2243729,-0.176567 0.013167,-0.01121 0.031705,-0.01368 0.046826,-0.0068 2.3622601,1.088696 4.9196261,1.088696 7.2540844,0 0.01558,-0.0074 0.03316,-0.0053 0.04683,0.0053 0.0722,0.06048 0.148276,0.120973 0.224373,0.17803 0.02635,0.01951 0.0239,0.06147 -0.0044,0.07805 -0.359484,0.212176 -0.733602,0.391189 -1.126743,0.540933 -0.02536,0.0097 -0.0361,0.03903 -0.02391,0.0639 0.217055,0.423871 0.463867,0.660437 0.73653,1.043336 0.01121,0.01615 0.0322,0.02291 0.05073,0.01748 1.179423,-0.368264 2.37543,-0.924321 3.60997,-1.839375 0.01064,-0.0078 0.01862,-0.02001 0.01951,-0.03365 0.300952,-3.1422023 -0.504842,-5.8707758 -2.134962,-8.2905918 -0.004,-0.00828 -0.01064,-0.014136 -0.01862,-0.017556 C 12.54845,3.5679121 11.562185,3.2542768 10.531043,3.074291 c -0.01902,-0.00342 -0.03804,0.00437 -0.0478,0.021949 -0.126821,0.2277872 -0.267297,0.4136271 -0.365338,0.647268 -1.1096714,-0.1677928 -2.2139778,-0.1677928 -3.300724,0 C 6.7187002,3.5045581 6.5738335,3.3240835 6.4460388,3.0962963 6.4367668,3.0792153 6.4172595,3.0714196 6.398725,3.0743475 Z M 5.9670645,8.0701253 c 0.7789653,0 1.4013572,0.6282448 1.3891628,1.3876997 0,0.765307 -0.6160511,1.388187 -1.3891628,1.388187 -0.7609179,0 -1.3867235,-0.62288 -1.3867235,-1.388187 0,-0.7648203 0.6136114,-1.3876997 1.3867235,-1.3876997 z m 4.9976695,0 c 0.778966,0 1.399893,0.6282448 1.387697,1.3876997 0,0.765307 -0.608731,1.388187 -1.387697,1.388187 -0.760918,0 -1.3881876,-0.62288 -1.3881876,-1.388187 0,-0.7648203 0.6150756,-1.3876997 1.3881876,-1.3876997 z" fill-rule="nonzero" id="path2" style="fill:currentColor;fill-opacity:1;stroke-width:0.48777" class="ColorScheme-Text"/>
  </svg>
