<?xml version="1.0" encoding="UTF-8" standalone="no"?>
<svg
   id="svg3297"
   height="64"
   width="64"
   version="1.0"
   sodipodi:docname="dotcover.svg"
   inkscape:version="1.4.3 (0d15f75042, 2025-12-25)"
   xmlns:inkscape="http://www.inkscape.org/namespaces/inkscape"
   xmlns:sodipodi="http://sodipodi.sourceforge.net/DTD/sodipodi-0.dtd"
   xmlns="http://www.w3.org/2000/svg"
   xmlns:svg="http://www.w3.org/2000/svg"
   xmlns:rdf="http://www.w3.org/1999/02/22-rdf-syntax-ns#"
   xmlns:cc="http://creativecommons.org/ns#"
   xmlns:dc="http://purl.org/dc/elements/1.1/">
  <sodipodi:namedview
     id="namedview1"
     pagecolor="#9c4444"
     bordercolor="#000000"
     borderopacity="0.25"
     inkscape:showpageshadow="2"
     inkscape:pageopacity="0.0"
     inkscape:pagecheckerboard="0"
     inkscape:deskcolor="#d1d1d1"
     inkscape:zoom="3.2734375"
     inkscape:cx="40.782816"
     inkscape:cy="33.298329"
     inkscape:window-width="2560"
     inkscape:window-height="1388"
     inkscape:window-x="0"
     inkscape:window-y="0"
     inkscape:window-maximized="1"
     inkscape:current-layer="svg3297" />
  <metadata
     id="metadata58">
    <rdf:RDF>
      <cc:Work
         rdf:about="">
        <dc:format>image/svg+xml</dc:format>
        <dc:type
           rdf:resource="http://purl.org/dc/dcmitype/StillImage" />
      </cc:Work>
    </rdf:RDF>
  </metadata>
  <defs
     id="defs3299">
    <style
       id="current-color-scheme"
       type="text/css">.ColorScheme-Text {color:#d8dee9} .ColorScheme-Highlight {color:#3b4252}</style>
  </defs>
  <path
     id="path5"
     d="m 32.82813,41.937583 h -13.25 v 2.484375 h 13.25 z M 19.57572,19.572991 h 4.73116 c 1.17752,0 2.2323,0.266076 3.16444,0.798643 0.93222,0.532568 1.66146,1.270675 2.18832,2.214738 0.52644,0.944062 0.78986,2.010273 0.78986,3.200206 0,1.18985 -0.26342,2.256061 -0.78986,3.200124 -0.52686,0.944062 -1.2561,1.68217 -2.18832,2.214737 -0.93214,0.532567 -1.98692,0.798644 -3.16444,0.798644 h -4.73116 z m 6.64827,9.835061 c 0.55642,-0.33125 0.98547,-0.806429 1.28724,-1.424872 0.30169,-0.618527 0.45282,-1.350424 0.45282,-2.197182 0,-0.846757 -0.15113,-1.578571 -0.45282,-2.197098 -0.30177,-0.618527 -0.73082,-1.093125 -1.28724,-1.424872 -0.55641,-0.33125 -1.20442,-0.496875 -1.94402,-0.496875 h -2.28148 v 8.237277 h 2.28148 c 0.7396,0 1.38761,-0.165128 1.94402,-0.496378 z m 6.32895,-0.341602 c 0.55021,0.979258 1.30736,1.748917 2.27213,2.307902 v -0.0021 c 0.96476,0.559481 2.0419,0.838973 3.23126,0.838973 1.00617,0 1.92903,-0.186328 2.76958,-0.558984 0.84005,-0.372657 1.54031,-0.894872 2.09929,-1.56673 0.55949,-0.671775 0.93372,-1.442511 1.12319,-2.312539 h -2.53878 c -0.16563,0.449755 -0.41249,0.845184 -0.74117,1.185295 -0.32869,0.340525 -0.72354,0.602461 -1.18522,0.785642 -0.46168,0.183761 -0.96476,0.275352 -1.50925,0.275352 -0.73397,0 -1.39697,-0.183181 -1.98858,-0.550206 -0.59161,-0.366942 -1.05478,-0.871022 -1.38918,-1.513399 -0.33431,-0.641796 -0.50151,-1.365329 -0.50151,-2.170184 0,-0.804855 0.1672,-1.527891 0.50151,-2.170184 0.3344,-0.641797 0.79757,-1.146457 1.38918,-1.513399 0.59211,-0.366942 1.25461,-0.550206 1.98858,-0.550206 0.54449,0 1.04757,0.09217 1.50925,0.275351 0.46168,0.183761 0.85653,0.445614 1.18522,0.785726 0.32868,0.340524 0.57554,0.735457 0.74117,1.185212 h 2.53878 c -0.18947,-0.870028 -0.5642,-1.640682 -1.12319,-2.312539 -0.55948,-0.671776 -1.25924,-1.194074 -2.09929,-1.56673 -0.84055,-0.372656 -1.76341,-0.558985 -2.76958,-0.558985 -1.18994,0 -2.267,0.280072 -3.23126,0.839057 -0.96419,0.558984 -1.72192,1.328561 -2.27213,2.307819 -0.55021,0.979258 -0.82556,2.072383 -0.82556,3.279955 0,1.207489 0.27535,2.300614 0.82556,3.279871 z M 39.70868,5.5 c -0.16563,0 -0.33088,0.01125 -0.49493,0.03559 L 8.421082,10.048224 C 6.743607,10.294063 5.5,11.731969 5.5,13.427033 v 12.75183 2.314545 c 0,0.667138 0.194803,1.31881 0.561248,1.876221 l 5.292238,8.049957 -0.0631,0.0744 c -0.530492,0.619026 -0.821636,1.407147 -0.821636,2.222353 v 9.398895 c 0,1.886552 1.52944,3.416016 3.41602,3.416016 h 7.40298 l 2.2547,3.428955 C 24.1739,57.921327 25.2472,58.5 26.39722,58.5 H 55.08398 C 56.97054,58.5 58.5,56.970619 58.5,55.083984 V 26.822601 c 0,-1.373114 -0.82314,-2.613381 -2.0881,-3.147521 l -4.19238,-1.769471 0.46582,-0.533752 c 0.54499,-0.622667 0.84591,-1.422302 0.84591,-2.249848 V 17.91217 8.916016 C 53.53125,7.029439 52.00179,5.5 50.11523,5.5 Z M 15.4375,15.4375 h 33.125 v 33.125 h -33.125 z"
     style="fill:currentColor;fill-opacity:1;stroke-width:0.828125"
     class="ColorScheme-Text" />
</svg>
