<?xml version="1.0" encoding="UTF-8" standalone="no"?>
<svg
   id="svg3297"
   height="64"
   width="64"
   version="1.0"
   sodipodi:docname="dotpeek.svg"
   inkscape:version="1.4.3 (0d15f75042, 2025-12-25)"
   xmlns:inkscape="http://www.inkscape.org/namespaces/inkscape"
   xmlns:sodipodi="http://sodipodi.sourceforge.net/DTD/sodipodi-0.dtd"
   xmlns="http://www.w3.org/2000/svg"
   xmlns:svg="http://www.w3.org/2000/svg"
   xmlns:rdf="http://www.w3.org/1999/02/22-rdf-syntax-ns#"
   xmlns:cc="http://creativecommons.org/ns#"
   xmlns:dc="http://purl.org/dc/elements/1.1/">
  <sodipodi:namedview
     id="namedview1"
     pagecolor="#9c4444"
     bordercolor="#000000"
     borderopacity="0.25"
     inkscape:showpageshadow="2"
     inkscape:pageopacity="0.0"
     inkscape:pagecheckerboard="0"
     inkscape:deskcolor="#d1d1d1"
     inkscape:zoom="3.2734375"
     inkscape:cx="40.782816"
     inkscape:cy="33.298329"
     inkscape:window-width="2560"
     inkscape:window-height="1388"
     inkscape:window-x="0"
     inkscape:window-y="0"
     inkscape:window-maximized="1"
     inkscape:current-layer="svg3297" />
  <metadata
     id="metadata58">
    <rdf:RDF>
      <cc:Work
         rdf:about="">
        <dc:format>image/svg+xml</dc:format>
        <dc:type
           rdf:resource="http://purl.org/dc/dcmitype/StillImage" />
      </cc:Work>
    </rdf:RDF>
  </metadata>
  <defs
     id="defs3299">
    <style
       id="current-color-scheme"
       type="text/css">.ColorScheme-Text {color:#d8dee9} .ColorScheme-Highlight {color:#3b4252}</style>
  </defs>
  <path
     id="path5"
     d="m 37.91804,19.573239 h -5.334616 l -5.8e-4,12.427589 h 2.423342 v -4.695469 h 2.840469 c 0.893878,0 1.674883,-0.161484 2.343594,-0.483956 0.668711,-0.322969 1.185212,-0.776864 1.54909,-1.362762 0.363879,-0.585899 0.546066,-1.278377 0.546066,-2.041825 0,-0.763449 -0.179123,-1.434727 -0.537287,-2.014911 -0.358164,-0.580267 -0.866882,-1.030022 -1.526814,-1.349347 -0.659933,-0.319325 -1.427522,-0.479319 -2.303264,-0.479319 z m 1.615423,4.842461 c -0.165625,0.281066 -0.400647,0.496875 -0.70548,0.648008 -0.304833,0.150636 -0.661506,0.22674 -1.069854,0.22674 H 35.006186 V 21.58873 h 2.751943 c 0.408348,0 0.765021,0.07503 1.069854,0.226161 0.304336,0.151132 0.539855,0.363878 0.70548,0.639229 0.165625,0.275352 0.248437,0.593103 0.248437,0.971971 0,0.378867 -0.08281,0.708626 -0.248437,0.989609 z m -6.705411,17.522131 h -13.25 v 2.484375 h 13.25 z M 19.588569,19.573239 h 4.731161 c 1.177511,0 2.232294,0.266077 3.164514,0.798644 0.932138,0.532567 1.661385,1.270675 2.187741,2.214737 0.526936,0.944063 0.789865,2.010274 0.789865,3.200207 0,1.18985 -0.263426,2.256061 -0.789865,3.200123 -0.526853,0.944063 -1.2561,1.68217 -2.187741,2.214737 -0.93222,0.532568 -1.987003,0.798644 -3.164514,0.798644 h -4.731161 z m 6.64827,9.835061 c 0.556418,-0.33125 0.985469,-0.806428 1.287238,-1.424872 0.301769,-0.618526 0.452902,-1.350423 0.452902,-2.197181 0,-0.846758 -0.151133,-1.578572 -0.452902,-2.197099 -0.301769,-0.618526 -0.73082,-1.093125 -1.287238,-1.424871 -0.556417,-0.33125 -1.204425,-0.496875 -1.944023,-0.496875 h -2.281484 v 8.237276 h 2.281484 c 0.739599,0 1.387606,-0.165128 1.944023,-0.496378 z M 8.9159427,5.5 c -1.886577,0 -3.416016,1.529439 -3.416016,3.416016 v 28.261383 c 0,1.373114 0.823139,2.613381 2.088104,3.147521 l 4.1923833,1.769471 -0.465821,0.533752 c -0.545013,0.622584 -0.845916,1.422219 -0.845916,2.249847 v 1.20984 0.0017 8.939545 0.055 c 0,1.886505 1.529439,3.415969 3.416016,3.415969 h 10.406555 c 0.165625,0 0.330882,-0.01132 0.494933,-0.03558 l 30.794286,-4.512633 c 1.67745,-0.245787 2.91946,-1.683726 2.91946,-3.378815 V 50.134644 37.821137 c 0,-0.01966 3.3e-4,-0.03865 0,-0.05823 V 35.50659 c 0,-0.667137 -0.1948,-1.320427 -0.56125,-1.877838 l -5.29224,-8.049957 0.0631,-0.07278 c 0.53047,-0.619027 0.82163,-1.407231 0.82163,-2.222354 v -9.398895 c 0,-1.886577 -1.52946,-3.416016 -3.41602,-3.416016 H 42.712179 L 40.457477,7.039795 C 39.825534,6.078648 38.752732,5.5 37.602714,5.5 Z m 6.5214843,9.9375 h 33.125 v 33.125 h -33.125 z"
     style="fill:currentColor;fill-opacity:1;stroke-width:0.828125"
     class="ColorScheme-Text" />
</svg>
