<?xml version="1.0" encoding="UTF-8" standalone="no"?>
<svg
   width="64"
   height="64"
   version="1.1"
   viewBox="0 0 16.933 16.933"
   id="svg7"
   sodipodi:docname="easyeffects.svg"
   inkscape:version="1.4.3 (0d15f75042, 2025-12-25)"
   xmlns:inkscape="http://www.inkscape.org/namespaces/inkscape"
   xmlns:sodipodi="http://sodipodi.sourceforge.net/DTD/sodipodi-0.dtd"
   xmlns="http://www.w3.org/2000/svg"
   xmlns:svg="http://www.w3.org/2000/svg"
   xmlns:rdf="http://www.w3.org/1999/02/22-rdf-syntax-ns#"
   xmlns:cc="http://creativecommons.org/ns#"
   xmlns:dc="http://purl.org/dc/elements/1.1/">
  <sodipodi:namedview
     id="namedview7"
     pagecolor="#9c4444"
     bordercolor="#000000"
     borderopacity="0.25"
     inkscape:showpageshadow="2"
     inkscape:pageopacity="0.0"
     inkscape:pagecheckerboard="0"
     inkscape:deskcolor="#d1d1d1"
     inkscape:zoom="4.3531262"
     inkscape:cx="89.935366"
     inkscape:cy="34.457995"
     inkscape:window-width="2560"
     inkscape:window-height="1388"
     inkscape:window-x="0"
     inkscape:window-y="0"
     inkscape:window-maximized="1"
     inkscape:current-layer="svg7"
     showgrid="false" />
  <defs
     id="defs2">
    <style
       id="current-color-scheme"
       type="text/css">.ColorScheme-Text {color:#d8dee9} .ColorScheme-Highlight {color:#3b4252}</style>
  </defs>
  <metadata
     id="metadata2">
    <rdf:RDF>
      <cc:Work
         rdf:about="">
        <dc:format>image/svg+xml</dc:format>
        <dc:type
           rdf:resource="http://purl.org/dc/dcmitype/StillImage" />
      </cc:Work>
    </rdf:RDF>
  </metadata>
  <path
     id="path5"
     style="fill:currentColor"
     d="M 13.263719,7.9744774 A 1.3530618,1.3530618 0 0 1 11.910657,9.3275392 1.3530618,1.3530618 0 0 1 10.557595,7.9744774 1.3530618,1.3530618 0 0 1 11.910657,6.6214156 1.3530618,1.3530618 0 0 1 13.263719,7.9744774 Z M 9.8195625,9.9425673 A 1.3530618,1.3530618 0 0 1 8.4665005,11.295629 1.3530618,1.3530618 0 0 1 7.1134385,9.9425673 1.3530618,1.3530618 0 0 1 8.4665005,8.5895055 1.3530618,1.3530618 0 0 1 9.8195625,9.9425673 Z M 6.3754045,7.2364437 a 1.3530618,1.3530618 0 0 1 -1.353062,1.3530618 1.3530618,1.3530618 0 0 1 -1.353061,-1.3530618 1.3530618,1.3530618 0 0 1 1.353061,-1.3530618 1.3530618,1.3530618 0 0 1 1.353062,1.3530618 z m 2.091096,-5.781264 A 7.0113202,7.0113202 0 0 0 1.4551795,8.4664999 7.0113202,7.0113202 0 0 0 8.4665005,15.47782 7.0113202,7.0113202 0 0 0 15.47782,8.4664999 7.0113202,7.0113202 0 0 0 8.4665005,1.4551797 Z m -3.444158,3.198146 c 0.340726,0 0.615029,0.3017328 0.615029,0.6765309 v 0.4300392 c 0.578063,0.2408067 0.984044,0.8108661 0.984044,1.4765479 0,0.6656818 -0.405981,1.2357413 -0.984044,1.4765479 v 3.3821744 c 0,0.374798 -0.274303,0.676531 -0.615029,0.676531 -0.340725,0 -0.615028,-0.301733 -0.615028,-0.676531 V 8.7129916 C 3.8292525,8.472185 3.4232695,7.9021255 3.4232695,7.2364437 c 0,-0.6656818 0.405983,-1.2357412 0.984045,-1.4765479 V 5.3298566 c 0,-0.3747981 0.274303,-0.6765309 0.615028,-0.6765309 z m 3.444158,0 c 0.340726,0 0.615028,0.3017328 0.615028,0.6765309 v 3.1361629 c 0.578063,0.2408066 0.9840445,0.810866 0.9840445,1.4765478 0,0.6656817 -0.4059815,1.2357407 -0.9840445,1.4765477 v 0.676051 c 0,0.374798 -0.274302,0.676531 -0.615028,0.676531 -0.340726,0 -0.615028,-0.301733 -0.615028,-0.676531 v -0.676051 c -0.578064,-0.240807 -0.984045,-0.810866 -0.984045,-1.4765477 0,-0.6656818 0.405981,-1.2357412 0.984045,-1.4765478 V 5.3298566 c 0,-0.3747981 0.274302,-0.6765309 0.615028,-0.6765309 z m 3.4441565,0 c 0.340725,0 0.615028,0.3017328 0.615028,0.6765309 v 1.1680729 c 0.578063,0.2408067 0.984045,0.8108661 0.984045,1.4765479 0,0.6656819 -0.405982,1.2357413 -0.984045,1.4765479 v 2.6441407 c 0,0.374798 -0.274303,0.676531 -0.615028,0.676531 -0.340725,0 -0.615028,-0.301733 -0.615028,-0.676531 V 9.4510253 c -0.578063,-0.2408066 -0.984045,-0.810866 -0.984045,-1.4765479 0,-0.6656818 0.405982,-1.2357412 0.984045,-1.4765479 V 5.3298566 c 0,-0.3747981 0.274303,-0.6765309 0.615028,-0.6765309 z"
     class="ColorScheme-Text" />
</svg>
