<?xml version="1.0" encoding="UTF-8" standalone="no"?>
<!-- Created with Inkscape (http://www.inkscape.org/) -->

<svg
   width="228"
   height="228"
   viewBox="0 0 60.324999 60.325"
   version="1.1"
   id="svg896"
   inkscape:version="1.4.2 (ebf0e940d0, 2025-05-08)"
   sodipodi:docname="endeavouros.svg"
   xmlns:inkscape="http://www.inkscape.org/namespaces/inkscape"
   xmlns:sodipodi="http://sodipodi.sourceforge.net/DTD/sodipodi-0.dtd"
   xmlns="http://www.w3.org/2000/svg"
   xmlns:svg="http://www.w3.org/2000/svg"
   xmlns:rdf="http://www.w3.org/1999/02/22-rdf-syntax-ns#"
   xmlns:cc="http://creativecommons.org/ns#"
   xmlns:dc="http://purl.org/dc/elements/1.1/">
  <defs
     id="defs890">
    <style
       id="current-color-scheme"
       type="text/css">.ColorScheme-Text {color:#d8dee9} .ColorScheme-Highlight {color:#7f7fff}</style>
  </defs>
  <sodipodi:namedview
     id="base"
     pagecolor="#838383"
     bordercolor="#666666"
     borderopacity="1.0"
     inkscape:pageopacity="0.0"
     inkscape:pageshadow="2"
     inkscape:zoom="1.232724"
     inkscape:cx="206.04774"
     inkscape:cy="139.52839"
     inkscape:document-units="px"
     inkscape:current-layer="svg896"
     showgrid="false"
     inkscape:window-width="2560"
     inkscape:window-height="1392"
     inkscape:window-x="0"
     inkscape:window-y="0"
     inkscape:window-maximized="1"
     inkscape:showpageshadow="0"
     inkscape:pagecheckerboard="0"
     inkscape:deskcolor="#505050" />
  <metadata
     id="metadata893">
    <rdf:RDF>
      <cc:Work
         rdf:about="">
        <dc:format>image/svg+xml</dc:format>
        <dc:type
           rdf:resource="http://purl.org/dc/dcmitype/StillImage" />
      </cc:Work>
    </rdf:RDF>
  </metadata>
  <path
     id="path3"
     class="ColorScheme-Text"
     style="fill:currentColor;fill-opacity:1;stroke-width:0.585391"
     d="m 129.98896,-22.225 c -1.70273,2.330623 -5.48179,8.20411 -9.37462,14.392403 -3.01518,4.793107 -6.12236,9.803996 -8.47493,13.615707 -1.73237,2.8068265 -2.18869,3.5467064 -2.94711,4.78472 0.32319,0.03181 0.73703,0.07203 1.3224,0.129192 1.99074,0.194412 4.72972,0.453539 7.72253,0.706933 5.98563,0.506787 13.0183,0.99294 16.98036,0.926042 4.41043,-0.07447 6.72472,-1.243993 7.88685,-2.8809614 1.16213,-1.6369676 1.32887,-4.0605506 0.65991,-7.0372966 -0.80276,-3.572095 -2.78762,-7.78196 -5.09736,-11.771375 -3.00513,-5.190513 -6.53896,-10.018008 -8.67803,-12.865364 z m -9.17773,10.019543 c -4.52981,5.332415 -8.97553,10.754355 -13.45499,16.162321 -1.54935,1.876662 -3.09304,3.762989 -4.63848,5.6523686 1.28933,0.2638312 2.60449,0.4809084 3.93568,0.6852294 0.97126,-1.2460018 1.82741,-2.764044 2.85925,-4.304647 6.1e-4,-0.0011 0.004,-0.0068 0.006,-0.0098 v -0.0021 l 0.002,-0.0016 v -0.0021 l 0.002,-0.0021 0.004,-0.0057 c 0.001,-0.0021 0.003,-0.0039 0.004,-0.0062 3.78762,-5.978039 7.50478,-12.09171 11.28097,-18.165817 z m 18.82831,0.33383 c 3.20639,5.311621 6.12001,11.252977 6.60166,16.103927 0.25456,2.563835 -0.15065,4.9534924 -1.65623,6.800618 -0.82577,1.013093 -1.93892,1.808238 -3.36517,2.380734 -0.004,0.0023 -0.0105,0.0052 -0.016,0.0077 -0.005,0.0019 -0.009,0.0044 -0.0134,0.0062 h -0.002 v 0.0015 h -0.002 l -0.009,0.0041 -0.002,0.0021 -0.008,0.0015 c -1.31659,0.594193 -3.28392,0.857159 -5.47098,0.963248 -8.82595,0.428126 -24.90075,-1.761307 -27.90217,-1.878955 -0.006,-2.3e-4 -0.0117,2.1e-4 -0.0176,0 -1.3233,2.174865 -1.68232,2.762504 -2.44171,4.017326 0.36576,0.01063 0.84919,0.02419 1.60351,0.04341 1.4007,0.03569 3.18817,0.07091 5.25601,0.08785 5.16973,0.04235 12.08849,-0.02848 19.06861,-0.474906 3.48996,-0.22321 6.99484,-0.541267 10.30066,-0.984437 2.27821,-0.30541 4.00074,-0.866969 5.24981,-1.589567 1.25088,-0.723643 2.03542,-1.588289 2.52181,-2.601908 0.96961,-2.0206339 0.71738,-4.822371 -0.48627,-8.046538 -1.44457,-3.869443 -4.2071,-8.245366 -7.26416,-12.326379 -0.63919,-0.853287 -1.29003,-1.695822 -1.9451,-2.517676 z m -9.46506,33.410881 c -0.67299,0 -1.21749,0.542281 -1.21749,1.205094 v 6.379456 0.0015 c 0.0132,0.65087 0.55476,1.190108 1.21749,1.190108 h 0.65629 0.003 c 0.64496,-0.02686 1.16165,-0.543392 1.17513,-1.190108 v -0.0015 -6.379456 c 0,-0.650462 -0.5282,-1.178141 -1.17513,-1.205094 h -0.003 z m -28.42979,0.0832 c -0.21653,0 -0.39027,0.168931 -0.40876,0.37207 l -5.1e-4,0.0067 v 8.231022 h 2.04845 c 0.31625,0 0.5112,-0.155052 0.59273,-0.30179 l 0.002,-0.0031 0.002,-0.0026 c 0.0475,-0.09487 0.18226,-0.411764 0.27647,-0.623735 l 0.0925,-0.208773 h -1.8619 v -2.737286 c 0,-0.01881 0.0347,-0.05374 0.0537,-0.05374 h 0.35605 c 0.31625,0 0.50375,-0.162091 0.58136,-0.301791 l 0.002,-0.0031 0.002,-0.0026 c 0.0254,-0.05065 0.0659,-0.147913 0.11782,-0.269751 0.0519,-0.121841 0.11144,-0.260903 0.15813,-0.365869 l 0.0925,-0.208773 h -1.3627 v -2.321827 c 0,-0.04932 0.004,-0.05374 0.0537,-0.05374 h 0.68885 c 0.32037,0 0.51673,-0.166874 0.58704,-0.325044 l 0.38137,-0.826307 z m 3.96772,0 v 0.148311 8.461499 h 1.15187 v -3.442167 l 0.62167,2.791561 c 0.0174,0.08116 0.0454,0.238614 0.14831,0.383439 0.10318,0.145232 0.29543,0.267167 0.56637,0.267167 h 0.54002 v -8.60981 h -1.15187 v 3.45767 l -0.58446,-2.875277 v -5.17e-4 c -0.0252,-0.126148 -0.0637,-0.276618 -0.18345,-0.396358 -0.11984,-0.119867 -0.30688,-0.185518 -0.56792,-0.185518 z m 4.79299,0 v 0.148311 8.461499 h 1.79937 c 0.66071,0 1.19165,-0.53106 1.2051,-1.190108 v -0.0015 -6.226494 -0.0015 c -0.0133,-0.659067 -0.54439,-1.190108 -1.2051,-1.190108 z m 5.58312,0 c -0.21653,0 -0.39076,0.168539 -0.40928,0.37207 l -5.1e-4,0.0067 v 8.231022 h 2.04845 c 0.31628,0 0.51122,-0.155065 0.59273,-0.30179 l 0.002,-0.0031 0.002,-0.0026 c 0.0475,-0.09485 0.18226,-0.411751 0.27647,-0.623735 l 0.0925,-0.208773 h -1.86139 v -2.737286 c 0,-0.01931 0.0344,-0.05374 0.0532,-0.05374 h 0.35657 c 0.31628,0 0.50341,-0.162369 0.58084,-0.301791 l 0.002,-0.0031 0.002,-0.0026 c 0.0252,-0.05039 0.0663,-0.147903 0.11834,-0.269751 0.052,-0.121841 0.11145,-0.260816 0.15813,-0.365869 l 0.0925,-0.208773 h -1.36271 v -2.321827 c 0,-0.04976 0.004,-0.05374 0.0532,-0.05374 h 0.68885 c 0.31939,0 0.51551,-0.1654 0.58653,-0.323494 l 5.1e-4,-0.001 0.38137,-0.826823 z m 4.72478,0 -0.0191,0.12609 -1.28468,8.48372 h 1.24075 l 0.61805,-4.726843 0.61805,4.726843 h 1.24179 l -1.22628,-8.033101 v -5.17e-4 c -0.0186,-0.117803 -0.0421,-0.255077 -0.13333,-0.376204 -0.0914,-0.121121 -0.2551,-0.199988 -0.46457,-0.199988 z m 3.10782,0 0.0264,0.171049 1.18753,7.731828 v 10e-4 c 0.004,0.02673 0.0274,0.19845 0.11524,0.363286 0.0879,0.164832 0.26918,0.342614 0.54208,0.342614 h 0.55552 l 1.3162,-8.60981 h -1.156 l -0.71572,4.697387 -0.64854,-4.252453 -5.1e-4,-0.0016 c -0.0557,-0.319723 -0.2577,-0.443384 -0.39585,-0.443384 z m 10.22676,0 c -0.21137,0 -0.37839,0.168888 -0.39687,0.37207 l -5.2e-4,0.0067 v 7.109127 c 0,0.662726 0.54844,1.169435 1.2051,1.169438 h 0.8015 v -0.04237 c 0.56397,-0.08189 1.02112,-0.529683 1.02112,-1.12758 v -7.487405 h -1.15135 v 7.333402 c 0,0.169122 -0.13398,0.302824 -0.30334,0.302824 h -0.13022 c -0.16932,0 -0.29146,-0.12899 -0.29146,-0.302824 v -7.333402 z m 4.43126,0 v 0.148311 8.461499 h 1.15135 v -3.574975 h 0.30334 c 0.084,0 0.14982,0.02222 0.19844,0.07183 0.0486,0.0496 0.0925,0.138997 0.0925,0.314709 v 3.188436 h 1.15187 v -3.325378 c 0,0 0.007,-0.169791 -0.0326,-0.364836 -0.0283,-0.138986 -0.10186,-0.289011 -0.21342,-0.414445 0.033,-0.03172 0.086,-0.0457 0.10852,-0.08217 0.0593,-0.09587 0.0904,-0.2008 0.10955,-0.29869 0.0385,-0.195778 0.0279,-0.374137 0.0279,-0.374137 v -2.55695 c 0,-0.66281 -0.54328,-1.193209 -1.19373,-1.193209 z m -8.16023,0.961698 h 0.12351 c 0.16932,0 0.30282,0.129875 0.30282,0.31471 v 6.056994 c 0,0.184841 -0.13355,0.31471 -0.30282,0.31471 h -0.12351 c -0.17343,-0.0083 -0.31006,-0.145382 -0.31006,-0.31471 v -6.056994 c 0,-0.169323 0.13664,-0.306453 0.31006,-0.31471 z m 9.31158,0.130225 h 0.30334 c 0.0867,0 0.16118,0.02368 0.20877,0.06356 0.0476,0.03989 0.0822,0.09586 0.0822,0.216007 v 2.232422 c 0,0.1622 -0.04,0.229511 -0.0842,0.268201 -0.0442,0.03869 -0.11483,0.05891 -0.20671,0.05891 h -0.30334 z m -28.07322,0.05943 h 0.40979 c 0.0939,0 0.172,0.02464 0.22066,0.0646 0.0486,0.03998 0.0827,0.09491 0.0827,0.214974 v 5.747969 c 0,0.12728 -0.0352,0.185255 -0.0837,0.225826 -0.0483,0.04056 -0.12559,0.06511 -0.21963,0.06511 h -0.40979 z"
     transform="translate(-95.959204,26.116948)" />
  <path
     class="ColorScheme-Highlight"
     style="font-style:normal;font-variant:normal;font-weight:normal;font-stretch:normal;font-size:11.6658px;line-height:1.25;font-family:Ailerons;-inkscape-font-specification:'Ailerons, Normal';font-variant-ligatures:normal;font-variant-caps:normal;font-variant-numeric:normal;font-feature-settings:normal;text-align:start;letter-spacing:0px;word-spacing:0px;writing-mode:lr-tb;text-anchor:start;fill:currentColor;fill-opacity:1;stroke:none;stroke-width:0.296897"
     d="m 144.35078,21.539266 c -0.67295,0 -1.2175,0.542311 -1.2175,1.205095 v 6.379456 0.0016 c 0.0133,0.650846 0.55481,1.190109 1.2175,1.190109 h 0.65629 0.003 c 0.64492,-0.02686 1.16166,-0.543417 1.17512,-1.190109 v -0.0016 -6.379456 c 0,-0.650436 -0.52822,-1.178142 -1.17512,-1.205095 h -0.003 z m 4.84053,0 c -0.68088,0 -1.2175,0.589857 -1.2175,1.252638 v 0.845942 c 0,0 -0.0337,0.608835 0.39843,1.398881 l 1.02164,1.912546 0.001,0.0021 c 0,0 0.0873,0.152604 0.1757,0.364837 0.0884,0.212235 0.17311,0.483341 0.17311,0.689364 v 0.950328 c 0,0.184676 -0.13399,0.314711 -0.30334,0.314711 -0.16936,0 -0.30282,-0.133472 -0.30282,-0.302824 v -1.677402 l -0.20877,0.0925 c -0.10716,0.04762 -0.24636,0.110095 -0.36742,0.163298 -0.12102,0.0532 -0.23652,0.100893 -0.24857,0.104902 l -0.0134,0.0047 -0.0114,0.0072 c -0.14253,0.07924 -0.31367,0.272166 -0.31367,0.592728 v 0.856794 0.0016 c 0.0133,0.646763 0.52865,1.175038 1.17564,1.201994 h 0.003 0.53743 c 0.67295,0 1.21698,-0.542393 1.21698,-1.205095 v -1.047999 c 0,0 0.0342,-0.608793 -0.39791,-1.398881 l -1.02216,-1.924947 -0.001,-0.0026 c 0,0 -0.0871,-0.149037 -0.17518,-0.358118 -0.0881,-0.209079 -0.17312,-0.477084 -0.17312,-0.683162 v -0.795817 c 0,-0.184867 0.13405,-0.314709 0.30335,-0.314709 0.16936,0 0.30334,0.130038 0.30334,0.314709 v 1.185458 l 0.20515,-0.08682 c 0.23049,-0.09705 0.55487,-0.247197 0.6382,-0.288869 l 0.003,-0.0021 0.003,-0.0016 c 0.14284,-0.07933 0.31316,-0.272348 0.31316,-0.592727 v -0.320911 c 0,-0.650433 -0.51919,-1.238911 -1.17822,-1.252638 h -0.002 z m -4.59559,1.044898 h 0.12351 c 0.16935,0 0.30282,0.129846 0.30282,0.314711 v 6.056992 c 0,0.184867 -0.13355,0.314712 -0.30282,0.314712 h -0.12351 c -0.17346,-0.0083 -0.31006,-0.145355 -0.31006,-0.314712 v -6.056992 c 0,-0.169352 0.13664,-0.306454 0.31006,-0.314711 z"
     id="path1192-8-6"
     transform="translate(-95.959204,26.116948)" />
</svg>
