<?xml version='1.0' encoding='UTF-8'?>
<svg xmlns:inkscape="http://www.inkscape.org/namespaces/inkscape" xmlns:sodipodi="http://sodipodi.sourceforge.net/DTD/sodipodi-0.dtd" xmlns="http://www.w3.org/2000/svg" xmlns:svg="http://www.w3.org/2000/svg" xmlns:rdf="http://www.w3.org/1999/02/22-rdf-syntax-ns#" xmlns:cc="http://creativecommons.org/ns#" xmlns:dc="http://purl.org/dc/elements/1.1/" width="64" height="64" version="1.1" viewBox="0 0 16.933 16.933" id="svg7" sodipodi:docname="featherpad.svg" inkscape:version="1.4.2 (ebf0e940d0, 2025-05-08)">
  <sodipodi:namedview id="namedview7" pagecolor="#9c4444" bordercolor="#000000" borderopacity="0.25" inkscape:showpageshadow="2" inkscape:pageopacity="0.0" inkscape:pagecheckerboard="0" inkscape:deskcolor="#d1d1d1" inkscape:zoom="6.15625" inkscape:cx="16.081218" inkscape:cy="29.563452" inkscape:window-width="2560" inkscape:window-height="1376" inkscape:window-x="0" inkscape:window-y="0" inkscape:window-maximized="1" inkscape:current-layer="svg7" showgrid="false"/>
  <defs id="defs2">
    <style id="current-color-scheme" type="text/css">.ColorScheme-Text {color:#d8dee9} .ColorScheme-Highlight {color:#3b4252}</style>
  </defs>
  <metadata id="metadata2">
    <rdf:RDF>
      <cc:Work rdf:about="">
        <dc:format>image/svg+xml</dc:format>
        <dc:type rdf:resource="http://purl.org/dc/dcmitype/StillImage"/>
      </cc:Work>
    </rdf:RDF>
  </metadata>
  <path id="path2906" class="ColorScheme-Text" style="fill:currentColor;fill-rule:evenodd;stroke-width:0.429232;fill-opacity:1" d="m 8.0413295,2.1465714 c -0.336579,0.019809 -0.54989,0.06606 -0.558336,0.1450337 -0.02596,0.2426753 -0.163544,0.7418734 -0.184436,1.2726059 -0.103634,-0.3834415 -0.166113,-0.7789853 -0.183597,-1.1870948 -0.952393,0.061838 -2.580303,0.9208546 -2.58629,1.32626 -0.0034,0.2345105 0.219336,2.1526433 0.487078,3.0943267 -0.496721,-0.9265831 -0.7101,-1.8714846 -0.936431,-2.8159968 -0.286829,0.2927624 -1.680454,0.280692 -0.712592,4.2772301 -0.397751,-0.6210128 -0.462874,-1.3143707 -0.662291,-1.9784914 -0.64365,1.0147338 -1.077672,2.7237391 -0.824931,4.8481422 1.709836,-3.2627617 4.466586,-5.5355245 7.291076,-7.3204181 l 0.201202,-0.1274283 0.308512,0.4652811 -0.1727,0.1391648 c -1.209092,0.9722255 -2.34272,1.8512772 -3.46739,2.993726 -1.275942,1.3076913 -2.098659,2.2076118 -2.831924,3.5705055 l -0.0016,0.0025 c -0.172195,0.342484 -0.316407,0.681292 -0.437639,1.032002 1.632839,-0.275623 2.592953,-0.930958 3.191575,-1.738725 C 5.4340215,9.489147 5.2149225,9.180742 5.2253365,9.129993 l 8.58e-4,-8.584e-4 8.59e-4,-8.585e-4 8.58e-4,-8.584e-4 v -8.585e-4 h 8.58e-4 v -8.584e-4 h 8.6e-4 8.58e-4 l 8.58e-4,-8.585e-4 h 8.58e-4 c 4.13e-4,-7.17e-5 0.0021,3.6e-5 0.0026,0 0.05991,-9.83e-5 0.373598,0.2792776 0.846728,0.724329 0.452282,0.4254387 1.171568,0.8156967 1.666627,-0.5088747 C 8.1282115,8.3234373 8.5747665,8.0417023 8.5747665,8.0417023 7.8969305,7.7755287 6.6346475,6.854423 8.6711865,7.6652857 9.3168495,6.7160347 10.217185,6.0738396 11.043698,5.3422351 9.1958105,5.3398351 9.7210035,4.5815733 11.34634,5.1234272 12.119897,3.7304792 13.998334,3.7528203 16.116516,4.0822043 14.561241,3.3276445 12.829006,2.3424145 12.327201,2.9655306 L 12.254021,2.4995143 C 11.1763,2.2640273 9.0510695,2.0871456 8.0413295,2.1465714 Z m 1.259193,1.8669919 C 5.5877045,6.3598228 2.0242145,9.5338278 0.8164835,14.689033 l 0.206233,0.108985 c 0.07815,-0.209307 0.222525,-0.385231 0.351266,-0.509713 0.192152,-0.185791 0.469018,-0.230486 0.697502,-0.326954 0.149124,-1.270695 0.424515,-2.237617 0.92134,-3.224271 0.74858,-1.3922654 1.593744,-2.3172423 2.873842,-3.6291899 1.138242,-1.1562352 2.281404,-2.0416713 3.488349,-3.0121692 z"/>
</svg>
