<?xml version='1.0' encoding='UTF-8'?>
<svg xmlns:inkscape="http://www.inkscape.org/namespaces/inkscape" xmlns:sodipodi="http://sodipodi.sourceforge.net/DTD/sodipodi-0.dtd" xmlns:xlink="http://www.w3.org/1999/xlink" xmlns="http://www.w3.org/2000/svg" xmlns:svg="http://www.w3.org/2000/svg" xmlns:rdf="http://www.w3.org/1999/02/22-rdf-syntax-ns#" xmlns:cc="http://creativecommons.org/ns#" xmlns:dc="http://purl.org/dc/elements/1.1/" width="64" height="64" version="1.1" viewBox="0 0 16.933 16.933" id="svg7" sodipodi:docname="filelight.svg" inkscape:version="1.4 (e7c3feb100, 2024-10-09)">
  <sodipodi:namedview id="namedview7" pagecolor="#9c4444" bordercolor="#000000" borderopacity="0.25" inkscape:showpageshadow="2" inkscape:pageopacity="0.0" inkscape:pagecheckerboard="0" inkscape:deskcolor="#d1d1d1" inkscape:zoom="4.3531261" inkscape:cx="36.295755" inkscape:cy="25.958357" inkscape:window-width="1280" inkscape:window-height="669" inkscape:window-x="94" inkscape:window-y="101" inkscape:window-maximized="0" inkscape:current-layer="svg7" showgrid="false"/>
  <defs id="defs2">
    <style id="current-color-scheme" type="text/css">.ColorScheme-Text {color:#d8dee9} .ColorScheme-Highlight {color:#3b4252}</style></defs>
  <metadata id="metadata2">
    <rdf:RDF>
      <cc:Work rdf:about="">
        <dc:format>image/svg+xml</dc:format>
        <dc:type rdf:resource="http://purl.org/dc/dcmitype/StillImage"/>
      </cc:Work>
    </rdf:RDF>
  </metadata>
  <path id="path11" style="opacity:1;fill:currentColor;stroke:none;stroke-width:0.0230644;stroke-opacity:1" d="m 8.3167942,0.87654085 -0.1556848,0.007042 C 7.3978396,0.92023428 6.6850051,1.054245 5.9988268,1.2900774 4.8006235,1.701888 3.6804867,2.4403527 2.8445958,3.3691128 1.6536036,4.6924265 0.98824836,6.2815035 0.87691813,8.068836 L 0.86124797,8.3169579 H 1.5418269 2.2224052 L 2.2380912,8.0920803 C 2.3174375,6.9579413 2.6800107,5.8849843 3.2889451,4.9837985 3.7223629,4.3423662 4.3422026,3.7225262 4.9836346,3.2891085 5.8848209,2.6801741 6.9577782,2.3176011 8.0919169,2.2382387 L 8.3167942,2.2225527 V 1.5495514 Z m 0,1.64495695 -0.2135251,0.015685 C 7.5376732,2.5789693 6.9097575,2.7102531 6.4274994,2.887464 5.8863204,3.0863261 5.1938798,3.4781096 4.7533516,3.8340038 4.5029126,4.0363287 4.0598876,4.4775615 3.8538414,4.7302704 3.4804632,5.1882056 3.0874517,5.8794754 2.8840574,6.435771 2.767772,6.7538197 2.6323634,7.3027999 2.5818787,7.659623 c -0.058762,0.4153261 -0.058762,1.1988196 0,1.6141451 0.050722,0.3585052 0.1864484,0.9076489 0.3027193,1.2238519 0.2021354,0.549717 0.5780317,1.21698 0.9427555,1.673067 0.2094932,0.261972 0.6470215,0.700621 0.9119431,0.914645 0.4700548,0.379752 1.1315596,0.755923 1.6941492,0.962757 0.4120917,0.151517 0.9986563,0.283145 1.4795421,0.332452 0.2699654,0.02768 0.7703578,0.02846 1.0611408,0.0017 0.799355,-0.07377 1.5236023,-0.283892 2.2163403,-0.64328 1.645303,-0.853576 2.816186,-2.445457 3.122878,-4.245643 0.04124,-0.2418683 0.09241,-0.6971737 0.09242,-0.8249109 v -0.051931 h -0.680583 c -0.633525,0 -0.680576,0.00281 -0.680576,0.040541 0,0.1205535 -0.07613,0.6651576 -0.118362,0.8459936 -0.199404,0.8525893 -0.646929,1.6392223 -1.280083,2.2508433 -0.360812,0.34854 -0.69553,0.585488 -1.149797,0.81356 C 8.7321324,13.453253 6.5615582,13.077248 5.1793212,11.646345 4.6942893,11.144238 4.3460625,10.57326 4.1306138,9.9257077 3.4038224,7.7412516 4.3758792,5.3972502 6.4366893,4.3653854 6.9527724,4.1069779 7.5152475,3.9532127 8.1378658,3.8999533 l 0.1789284,-0.01567 V 3.2031581 Z M 8.5573486,4.1913212 C 8.0609674,4.1799013 7.5588062,4.2546564 7.0729411,4.4216046 6.7840949,4.5208549 6.2603124,4.7894691 6.0215307,4.9605535 5.4065187,5.4012021 4.9741187,5.9035672 4.6506431,6.5525346 4.4635472,6.9278932 4.3761501,7.1680949 4.2949475,7.5342113 c -0.1421217,0.6407839 -0.1421217,1.2241859 0,1.8649695 0.081203,0.366117 0.1685993,0.6063182 0.3556956,0.9816762 0.2451611,0.491849 0.5903316,0.944392 0.9751895,1.278993 0.6767124,0.588338 1.5098006,0.962793 2.3563486,1.058434 0.4545764,0.05136 0.9499946,0.02354 1.4168362,-0.07999 0.366117,-0.08122 0.6063186,-0.168598 0.9816766,-0.355704 0.647355,-0.322668 1.151229,-0.756285 1.591984,-1.370884 0.171115,-0.238602 0.439594,-0.762262 0.538946,-1.05141 C 13.038043,8.3282666 12.648193,6.6203489 11.509405,5.4670736 10.712708,4.6602276 9.6493871,4.2164432 8.5573486,4.1913212 Z m -0.102168,1.5114361 c 0.4308111,-5.259e-4 0.5747562,0.021039 0.9178897,0.136225 0.3878271,0.1301905 0.8270377,0.4125185 1.1076297,0.7124724 1.036302,1.10781 1.013272,2.8112677 -0.05243,3.8769743 -0.360401,0.3604 -0.7882561,0.604175 -1.2779103,0.72869 -0.2177851,0.05538 -0.3297739,0.07004 -0.5913846,0.0773 C 8.1939946,11.244426 8.046031,11.228476 7.7270407,11.1436 6.7851527,10.892913 6.0294231,10.121478 5.7739494,9.1505181 5.7075979,8.898341 5.7031342,8.8561693 5.7031342,8.4666961 c 0,-0.3894732 0.00446,-0.4316451 0.070814,-0.683822 C 6.0353463,6.7894015 6.7899109,6.034736 7.7827104,5.7741129 8.0327244,5.7084814 8.0797733,5.7032267 8.4551806,5.7027573 Z m 6.2544044,2.9136771 -0.0153,0.2248773 c -0.07572,1.1028237 -0.413438,2.1260113 -0.998434,3.0271963 -0.452633,0.697276 -1.130396,1.375038 -1.827671,1.82767 -0.750988,0.487502 -1.60319,0.809912 -2.4823001,0.938973 -0.1759335,0.02582 -0.3328119,0.04697 -0.3486685,0.04701 -0.02241,9.3e-5 -0.028649,0.151694 -0.028649,0.680577 v 0.68058 h 0.056219 c 0.1001462,0 0.5940711,-0.06826 0.8432907,-0.116765 1.5338719,-0.298472 2.9072319,-1.043316 4.0013059,-2.169311 0.339516,-0.349423 0.572376,-0.631996 0.823831,-1.000597 0.799134,-1.171443 1.231931,-2.444982 1.323316,-3.8921109 l 0.01562,-0.248123 h -0.680992 z" class="ColorScheme-Text"/>
</svg>
