<?xml version="1.0" encoding="UTF-8" standalone="no"?>
<svg
   width="64"
   height="64"
   version="1.1"
   viewBox="0 0 16.933 16.933"
   id="svg7"
   sodipodi:docname="fish.svg"
   inkscape:version="1.4.2 (ebf0e940d0, 2025-05-08)"
   xmlns:inkscape="http://www.inkscape.org/namespaces/inkscape"
   xmlns:sodipodi="http://sodipodi.sourceforge.net/DTD/sodipodi-0.dtd"
   xmlns="http://www.w3.org/2000/svg"
   xmlns:svg="http://www.w3.org/2000/svg"
   xmlns:rdf="http://www.w3.org/1999/02/22-rdf-syntax-ns#"
   xmlns:cc="http://creativecommons.org/ns#"
   xmlns:dc="http://purl.org/dc/elements/1.1/">
  <sodipodi:namedview
     id="namedview7"
     pagecolor="#9c4444"
     bordercolor="#000000"
     borderopacity="0.25"
     inkscape:showpageshadow="2"
     inkscape:pageopacity="0.0"
     inkscape:pagecheckerboard="0"
     inkscape:deskcolor="#d1d1d1"
     inkscape:zoom="8.7062522"
     inkscape:cx="43.302214"
     inkscape:cy="38.592955"
     inkscape:window-width="2560"
     inkscape:window-height="1376"
     inkscape:window-x="0"
     inkscape:window-y="0"
     inkscape:window-maximized="1"
     inkscape:current-layer="svg7"
     showgrid="false" />
  <defs
     id="defs2">
    <style
       id="current-color-scheme"
       type="text/css">.ColorScheme-Text {color:#d8dee9} .ColorScheme-Highlight {color:#3b4252}</style>
  </defs>
  <metadata
     id="metadata2">
    <rdf:RDF>
      <cc:Work
         rdf:about="">
        <dc:format>image/svg+xml</dc:format>
        <dc:type
           rdf:resource="http://purl.org/dc/dcmitype/StillImage" />
      </cc:Work>
    </rdf:RDF>
  </metadata>
  <path
     id="rect9"
     class="ColorScheme-Text"
     style="fill:currentColor;fill-opacity:1;stroke:none;stroke-width:0.0185582;stroke-linejoin:bevel;paint-order:fill markers stroke"
     d="m 2.5150445,3.3057778 c -0.660453,0 -1.192154,0.5317006 -1.192154,1.1921538 v 7.9371364 c 0,0.660453 0.531701,1.192154 1.192154,1.192154 H 14.417955 c 0.660453,0 1.192154,-0.531701 1.192154,-1.192154 V 4.4979316 c 0,-0.6604532 -0.531701,-1.1921538 -1.192154,-1.1921538 z m 4.810993,1.123698 h 0.302229 0.301764 l 0.700856,0.720415 0.823797,0.8470811 -0.446591,-0.00233 -0.266372,-0.00141 -0.582107,-0.5280868 c -0.232684,-0.2109174 -0.444504,-0.394966 -0.53321,-0.4656886 -0.008,0.00589 -0.01689,0.012475 -0.02655,0.020023 -0.04247,0.033203 -0.09894,0.08087 -0.15647,0.1331858 -0.118115,0.1074028 -0.370195,0.33603 -0.560685,0.5075969 l -0.372543,0.3352936 h -0.265441 l -0.445195,4.768e-4 0.824729,-0.8461498 z m -1.011468,1.716981 c 0.260679,0.00219 0.542099,0.023259 0.710636,0.063333 0.411667,0.097889 0.844423,0.276426 1.247104,0.514582 l 0.211421,0.1252694 V 7.046626 c 0,0.040572 -9.91e-4,0.078945 -0.0023,0.1071077 -5.49e-4,0.011445 -0.0021,0.043612 -0.0075,0.061936 -0.0017,0.00597 -0.02115,0.067059 -0.08755,0.067059 -0.02124,0 -0.03812,-0.00842 -0.03912,-0.00885 -0.02689,-0.011266 -0.162447,-0.076587 -0.254265,-0.121544 -0.130797,-0.064043 -0.353888,-0.1584263 -0.484778,-0.205367 -0.444287,-0.1593379 -0.858488,-0.2398369 -1.273183,-0.244019 -0.414695,-0.00418 -0.830654,0.067819 -1.278306,0.2184063 -0.136514,0.045923 -0.379635,0.1457598 -0.528086,0.2165435 l -0.407475,0.1941909 v -0.290121 c 0,-0.1192818 -0.0047,-0.1890806 0.13272,-0.2789455 0.07119,-0.046551 0.201864,-0.1117134 0.386519,-0.2058327 0.330579,-0.1684978 0.632392,-0.2797664 0.973282,-0.3590434 0.162813,-0.037855 0.440269,-0.053814 0.700856,-0.051691 z m 7.0029725,0.5993368 c 0.37145,5.007e-4 0.417924,0.00807 0.583037,0.072647 0.241069,0.094272 0.402147,0.2074569 0.502009,0.369754 0.121034,0.1967063 0.151083,0.3195701 0.138308,0.5620818 -0.01759,0.3339784 -0.133996,0.5119786 -0.447523,0.6878168 -0.01392,0.00781 -0.02749,0.015503 -0.04005,0.023285 0.02498,0.014284 0.05364,0.029941 0.08383,0.045171 0.222319,0.11217 0.330214,0.2266183 0.430293,0.4559056 0.04732,0.108408 0.05512,0.18124 0.04796,0.4223763 -0.0073,0.2457375 -0.02017,0.315719 -0.08196,0.4475235 -0.03994,0.085182 -0.120012,0.2019704 -0.183946,0.2659064 -0.154827,0.154826 -0.451347,0.296677 -0.693871,0.33995 -0.218539,0.03898 -0.626209,0.04263 -0.847081,0.0079 -0.0805,-0.01265 -0.232348,-0.04787 -0.338088,-0.0773 l -0.257991,-0.07171 V 10.035859 9.704291 l 0.237499,0.104779 c 0.229045,0.1013181 0.510713,0.1498147 0.767915,0.1438969 0.128601,-0.00296 0.250845,-0.019213 0.357181,-0.047966 0.106335,-0.028753 0.19646,-0.070154 0.260783,-0.1192153 0.129062,-0.098439 0.200151,-0.2546326 0.20723,-0.4172539 0.0071,-0.1626212 -0.05029,-0.327241 -0.170906,-0.4400724 C 13.73604,8.801124 13.559678,8.7436951 13.182959,8.7244895 l -0.37674,-0.019093 V 8.479073 8.2518187 l 0.40468,-0.018629 c 0.250244,-0.011972 0.418351,-0.045626 0.525294,-0.1010537 0.05347,-0.027714 0.09232,-0.059961 0.124337,-0.1005879 0.03202,-0.040627 0.0571,-0.090515 0.0773,-0.1546074 0.02604,-0.082603 0.02998,-0.1600042 0.01491,-0.231911 -0.01509,-0.071907 -0.04914,-0.1389365 -0.104778,-0.2007104 -0.210255,-0.2334342 -0.6508,-0.2712669 -1.376566,-0.052156 -0.05829,0.017598 -0.128216,7.63e-5 -0.149485,-0.083824 -0.0098,-0.038715 -0.01025,-0.1060015 -0.01025,-0.1732347 V 6.8785122 l 0.337159,-0.073113 c 0.223156,-0.048492 0.350804,-0.060085 0.668722,-0.059608 z m -4.6931755,0.2407592 0.392108,0.3506609 c 0.132532,0.1186467 0.461027,0.4111726 0.729728,0.6500962 l 0.5187725,0.461494 V 8.6271613 8.8055188 L 9.8328205,9.1901746 C 9.6116885,9.3870187 9.2834315,9.6797712 9.1030915,9.8402711 L 8.6243665,10.265442 V 9.7829917 9.4607378 L 9.1254445,9.0174055 C 9.3076435,8.8560571 9.4695635,8.7023545 9.5408365,8.6271613 9.4695715,8.5518971 9.3076845,8.3980139 9.1254445,8.2364515 L 8.6243665,7.7926537 V 7.4703996 Z m 3.4046245,0.00141 0.01257,0.4638224 0.0088,0.3106119 -0.16299,0.1518134 c -0.07462,0.069343 -0.289637,0.260797 -0.473137,0.4219106 -0.121813,0.1069536 -0.231793,0.2135853 -0.284999,0.2710288 0.06887,0.073242 0.22852,0.2249017 0.415857,0.3907099 l 0.499679,0.4428665 0.0014,0.3180629 c 2.13e-4,0.086836 -7.14e-4,0.2506058 -0.0056,0.2868618 -3.1e-4,0.0023 -0.0014,0.02216 -0.0163,0.04331 -0.0085,0.01211 -0.03403,0.04036 -0.07823,0.03819 -0.03784,-0.0019 -0.06418,-0.02933 -0.06473,-0.0298 -0.06214,-0.05275 -0.374541,-0.3287284 -0.722278,-0.6384542 l -0.757204,-0.6743121 0.0098,-0.1858081 0.0093,-0.1797547 0.745562,-0.6636012 z M 3.8515605,7.1020567 h 4.77e-4 4.77e-4 0.09034 v 0.078235 c 0.0095,0.044539 0.01257,0.1923948 0.01257,0.2812737 v 0.3101464 l -0.51274,0.4563615 c -0.132068,0.117498 -0.252189,0.2274887 -0.338553,0.3096806 -0.03425,0.032589 -0.06326,0.060759 -0.08522,0.082892 0.110334,0.089397 0.397487,0.3444726 0.456371,0.3967638 l 0.476396,0.4233078 0.0019,0.3180629 c 5.25e-4,0.086633 4.29e-4,0.2498906 -0.0047,0.2873276 -3.33e-4,0.0025 -0.01181,0.08196 -0.09034,0.08196 -0.03999,0 -0.06833,-0.0293 -0.06892,-0.0298 -0.06082,-0.05135 -0.385506,-0.3390279 -0.721345,-0.6384547 L 2.3148005,8.7882884 V 8.6029458 c 0,-0.1518286 0.01924,-0.2034803 0.09407,-0.2612495 0.04077,-0.031473 0.500731,-0.4363258 1.031958,-0.9136742 0.13623,-0.1224119 0.308364,-0.2733758 0.351592,-0.3045578 0.0018,-0.00133 0.02444,-0.021421 0.05914,-0.021421 z m 0.566739,0.9648995 h 0.226323 0.226323 V 8.3305298 8.5941075 H 4.6446225 4.4182995 V 8.3305298 Z m 4.065431,1.7891621 v 0.2943037 0.203504 l -0.225857,0.127598 c -0.253348,0.144451 -0.677622,0.343689 -0.875954,0.40794 -0.093,0.03013 -0.279787,0.07732 -0.412131,0.104313 -0.59151,0.120664 -1.281679,0.07094 -1.832937,-0.132254 -0.220169,-0.08116 -0.630242,-0.275939 -0.841027,-0.399097 l -0.174632,-0.101985 v -0.199313 c 0,-0.01901 -0.0014,-0.104885 0.0084,-0.156936 v -0.081029 h 4.77e-4 v -4.772e-4 h 0.09034 4.77e-4 c 0.02236,0 0.03722,0.00781 0.03865,0.00838 0.03072,0.012255 0.185775,0.08499 0.290588,0.1350489 0.324434,0.15495 0.696083,0.282409 1.044997,0.358112 0.160065,0.03473 0.414218,0.05546 0.668258,0.05775 0.25404,0.0023 0.511274,-0.01371 0.678038,-0.04564 0.308536,-0.05906 0.837311,-0.23801 1.146517,-0.388382 z m -3.348275,1.2792327 h 0.325513 0.325514 v 0.289656 c 0,0.143222 0.02048,0.270184 0.09547,0.560685 0.04292,0.166303 0.09036,0.352836 0.09872,0.39071 2.63e-4,0.0012 0.0037,0.0147 0.0037,0.02608 v 4.77e-4 0.09034 h -0.0773 c -0.04974,0.01136 -0.127216,0.01025 -0.147157,0.01025 H 5.5703745 L 5.3454495,12.0672 5.1354255,11.659726 v -0.228185 z" />
</svg>
