<?xml version='1.0' encoding='UTF-8'?>
<svg xmlns:inkscape="http://www.inkscape.org/namespaces/inkscape" xmlns:sodipodi="http://sodipodi.sourceforge.net/DTD/sodipodi-0.dtd" xmlns="http://www.w3.org/2000/svg" xmlns:svg="http://www.w3.org/2000/svg" xmlns:rdf="http://www.w3.org/1999/02/22-rdf-syntax-ns#" xmlns:cc="http://creativecommons.org/ns#" xmlns:dc="http://purl.org/dc/elements/1.1/" width="64" height="64" version="1.1" viewBox="0 0 16.933 16.933" id="svg7" sodipodi:docname="flameshot.svg" inkscape:version="1.4 (e7c3feb100, 2024-10-09)">
  <sodipodi:namedview id="namedview7" pagecolor="#9c4444" bordercolor="#000000" borderopacity="0.25" inkscape:showpageshadow="2" inkscape:pageopacity="0.0" inkscape:pagecheckerboard="0" inkscape:deskcolor="#d1d1d1" inkscape:zoom="6.15625" inkscape:cx="16" inkscape:cy="27.77665" inkscape:window-width="1183" inkscape:window-height="941" inkscape:window-x="35" inkscape:window-y="32" inkscape:window-maximized="0" inkscape:current-layer="svg7" showgrid="false"/>
  <defs id="defs2">
    <style id="current-color-scheme" type="text/css">.ColorScheme-Text {color:#d8dee9} .ColorScheme-Highlight {color:#3b4252}</style></defs>
  <metadata id="metadata2">
    <rdf:RDF>
      <cc:Work rdf:about="">
        <dc:format>image/svg+xml</dc:format>
        <dc:type rdf:resource="http://purl.org/dc/dcmitype/StillImage"/>
      </cc:Work>
    </rdf:RDF>
  </metadata>
  <path id="path99" style="fill:currentColor;stroke-width:0.0812183;stroke-opacity:0.6" d="M 36.589844 5.279297 L 36.480469 6.091797 C 36.053153 9.2657568 35.503081 11.118644 34.337891 13.3125 C 32.35179 17.051989 28.951884 20.530611 24.644532 23.230469 C 23.859693 23.722408 23.5684 23.995786 23.625 24.183594 C 24.072701 25.669077 24.169264 29.349762 23.810547 31.22461 C 23.509531 32.797879 22.733514 34.778158 21.970704 35.919923 C 21.634807 36.42269 20.718412 37.590904 19.933594 38.517579 C 14.656046 44.749061 12.247085 50.852518 12.992188 56.101564 C 13.103031 56.882428 13.22179 57.493055 13.25586 57.458985 C 13.289925 57.42492 13.42935 56.75274 13.566407 55.966798 C 14.394949 51.215589 17.460705 46.774764 22.292969 43.32422 C 24.282438 41.903612 26.681448 40.604059 29.732422 39.292969 C 32.800943 37.974337 33.79863 37.369942 35.304688 35.916016 C 37.581733 33.71779 38.852204 31.141147 39.582032 27.246094 C 39.97111 25.169752 39.966924 19.988113 39.574219 17.298828 C 39.04794 13.694821 38.051944 9.512946 36.982423 6.4160157 L 36.589844 5.279297 z M 14.212891 7.4238283 L 14.111328 10.167969 C 13.994372 13.324802 13.640792 15.291121 12.658203 18.230469 C 11.194565 22.608841 8.9996798 26.585868 5.1445313 31.84961 C 3.8067512 33.676188 3.3919049 34.890976 3.2890626 37.279298 C 3.1975657 39.404145 3.4784117 41.133593 4.3300782 43.685548 C 5.3691868 46.799158 7.0394088 50.039023 9.6308596 53.968751 C 10.440385 55.19633 11.131206 56.17153 11.166016 56.13672 C 11.200822 56.101914 11.134876 55.755903 11.019531 55.367189 C 10.886697 54.919552 10.815219 53.796492 10.824219 52.304688 C 10.836117 50.330237 10.90433 49.697771 11.25 48.392579 C 12.346883 44.250936 14.160518 41.025521 17.955078 36.462891 C 19.97531 34.033737 20.985422 32.274776 21.546875 30.212891 C 21.955713 28.711462 21.96013 24.489544 21.554688 22.578125 C 20.668176 18.398746 18.527384 13.740021 15.367188 9.1132814 L 14.212891 7.4238283 z M 60.742189 16.16211 L 60.23047 17.105469 C 59.176229 19.048779 57.04874 21.179749 54.416017 22.927735 C 51.859797 24.624928 46.862982 26.8006 43.269532 27.781251 L 41.94922 28.140626 L 41.765626 29.251954 C 41.364332 31.68189 40.374194 34.144936 39.060548 35.980469 C 37.498838 38.162617 35.628903 39.535143 32.324219 40.927735 C 23.727555 44.550359 18.473286 49.30853 16.388672 55.357423 C 16.043623 56.358645 15.59375 58.702615 15.59375 59.498048 C 15.59375 59.955872 15.639725 59.91891 16.263672 58.94922 C 17.121004 57.616822 19.216345 55.554098 20.851563 54.433595 C 25.832043 51.020813 32.108298 48.998572 40.847657 47.990235 C 44.960896 47.515653 47.496881 46.410529 50.19336 43.914063 C 54.339775 40.075214 57.801807 32.74446 59.619142 23.958985 C 60.078821 21.736775 60.750895 17.424216 60.746095 16.730469 L 60.742189 16.16211 z " transform="scale(0.26457812)" class="ColorScheme-Text"/>
</svg>
