<?xml version="1.0" encoding="UTF-8" standalone="no"?>
<svg
   width="64"
   height="64"
   version="1.1"
   viewBox="0 0 16.933 16.933"
   id="svg7"
   sodipodi:docname="fluxer.svg"
   inkscape:version="1.4.3 (0d15f75042, 2025-12-25)"
   xmlns:inkscape="http://www.inkscape.org/namespaces/inkscape"
   xmlns:sodipodi="http://sodipodi.sourceforge.net/DTD/sodipodi-0.dtd"
   xmlns="http://www.w3.org/2000/svg"
   xmlns:svg="http://www.w3.org/2000/svg"
   xmlns:rdf="http://www.w3.org/1999/02/22-rdf-syntax-ns#"
   xmlns:cc="http://creativecommons.org/ns#"
   xmlns:dc="http://purl.org/dc/elements/1.1/">
  <sodipodi:namedview
     id="namedview7"
     pagecolor="#9c4444"
     bordercolor="#000000"
     borderopacity="0.25"
     inkscape:showpageshadow="2"
     inkscape:pageopacity="0.0"
     inkscape:pagecheckerboard="0"
     inkscape:deskcolor="#d1d1d1"
     inkscape:zoom="4.3531262"
     inkscape:cx="89.935366"
     inkscape:cy="34.457995"
     inkscape:window-width="2560"
     inkscape:window-height="1388"
     inkscape:window-x="0"
     inkscape:window-y="0"
     inkscape:window-maximized="1"
     inkscape:current-layer="svg7"
     showgrid="false" />
  <defs
     id="defs2">
    <style
       id="current-color-scheme"
       type="text/css">.ColorScheme-Text {color:#d8dee9} .ColorScheme-Highlight {color:#3b4252}</style>
  </defs>
  <metadata
     id="metadata2">
    <rdf:RDF>
      <cc:Work
         rdf:about="">
        <dc:format>image/svg+xml</dc:format>
        <dc:type
           rdf:resource="http://purl.org/dc/dcmitype/StillImage" />
      </cc:Work>
    </rdf:RDF>
  </metadata>
  <path
     d="m 8.4664995,1.4551795 c 3.8722475,0 7.0113205,3.139072 7.0113205,7.01132 0,3.8722475 -3.139073,7.0113215 -7.0113205,7.0113215 -3.872248,0 -7.01132,-3.139074 -7.01132,-7.0113215 0,-3.872248 3.139072,-7.01132 7.01132,-7.01132 z m -1.875254,7.286761 c -0.425691,0 -0.830513,0.096 -1.214465,0.287957 -0.379761,0.19199 -0.688615,0.498735 -0.92648,0.920236 -0.153811,0.2774135 -0.255201,0.6135735 -0.304173,1.0084795 -0.04531,0.365384 0.262269,0.66298 0.630419,0.66298 0.377351,0 0.659091,-0.316988 0.750485,-0.683083 0.05179,-0.207573 0.135269,-0.372175 0.25038,-0.493805 0.221186,-0.233729 0.500817,-0.350566 0.838867,-0.350566 0.225375,0 0.431963,0.05634 0.619762,0.169011 0.187799,0.108511 0.431936,0.294229 0.732409,0.557154 0.459077,0.404821 0.863926,0.69905 1.214492,0.882659 0.350566,0.179473 0.738681,0.269196 1.1643725,0.269196 0.425692,0 0.830513,-0.09599 1.214465,-0.287957 0.383952,-0.191989 0.69486,-0.498735 0.932752,-0.920235 0.157152,-0.278481 0.258762,-0.616148 0.304801,-1.0129985 0.04226,-0.364315 -0.265773,-0.658462 -0.632553,-0.658462 -0.379679,2.8e-5 -0.662843,0.320549 -0.763795,0.686617 -0.04922,0.178432 -0.123575,0.3293395 -0.223075,0.4527225 -0.208669,0.258761 -0.494545,0.388142 -0.857627,0.388142 -0.225376,0 -0.4298825,-0.05428 -0.6134915,-0.162767 -0.179473,-0.112701 -0.425691,-0.3005 -0.738708,-0.5634245 -0.46324,-0.388115 -0.870171,-0.676072 -1.220737,-0.863899 -0.346375,-0.191962 -0.732409,-0.287957 -1.1581,-0.287957 z m 0,-3.781101 c -0.425691,0 -0.830513,0.096 -1.214465,0.287957 -0.379761,0.19199 -0.688615,0.498735 -0.92648,0.920236 -0.153811,0.277413 -0.255201,0.613573 -0.304173,1.008453 -0.04531,0.365382 0.262269,0.66298 0.630419,0.663008 0.377351,0 0.659091,-0.316989 0.750485,-0.683084 0.05179,-0.207573 0.135269,-0.372175 0.25038,-0.493832 0.221186,-0.233702 0.500817,-0.350566 0.838867,-0.350566 0.225375,0 0.431963,0.05636 0.619762,0.169038 0.187799,0.108511 0.431936,0.294229 0.732409,0.557154 0.459077,0.404821 0.863926,0.69905 1.214492,0.882659 0.350566,0.179474 0.738681,0.269197 1.1643725,0.269197 0.425692,0 0.830513,-0.096 1.214465,-0.287958 0.383952,-0.191989 0.69486,-0.498735 0.932752,-0.920235 0.157152,-0.278481 0.258762,-0.616148 0.304801,-1.012999 0.04226,-0.364342 -0.265773,-0.658462 -0.632553,-0.658462 -0.379679,0 -0.662843,0.320549 -0.763795,0.686617 -0.04922,0.178432 -0.123575,0.32934 -0.223075,0.452723 -0.208669,0.258761 -0.494545,0.388115 -0.857627,0.388115 -0.225376,0 -0.4298825,-0.05426 -0.6134915,-0.16274 -0.179473,-0.112701 -0.425691,-0.3005 -0.738708,-0.563425 -0.46324,-0.388115 -0.870171,-0.676099 -1.220737,-0.863899 -0.346375,-0.191962 -0.732409,-0.287957 -1.1581,-0.287957 z"
     id="path5"
     style="fill:currentColor"
     class="ColorScheme-Text" />
</svg>
