<?xml version="1.0" encoding="UTF-8" standalone="no"?>
<svg
   width="64"
   height="64"
   version="1.1"
   viewBox="0 0 16.933 16.933"
   id="svg7"
   sodipodi:docname="foot.svg"
   inkscape:version="1.4.3 (0d15f75042, 2025-12-25)"
   xmlns:inkscape="http://www.inkscape.org/namespaces/inkscape"
   xmlns:sodipodi="http://sodipodi.sourceforge.net/DTD/sodipodi-0.dtd"
   xmlns="http://www.w3.org/2000/svg"
   xmlns:svg="http://www.w3.org/2000/svg"
   xmlns:rdf="http://www.w3.org/1999/02/22-rdf-syntax-ns#"
   xmlns:cc="http://creativecommons.org/ns#"
   xmlns:dc="http://purl.org/dc/elements/1.1/">
  <sodipodi:namedview
     id="namedview7"
     pagecolor="#9c4444"
     bordercolor="#000000"
     borderopacity="0.25"
     inkscape:showpageshadow="2"
     inkscape:pageopacity="0.0"
     inkscape:pagecheckerboard="0"
     inkscape:deskcolor="#d1d1d1"
     inkscape:zoom="4.3531262"
     inkscape:cx="89.935366"
     inkscape:cy="34.457995"
     inkscape:window-width="2560"
     inkscape:window-height="1388"
     inkscape:window-x="0"
     inkscape:window-y="0"
     inkscape:window-maximized="1"
     inkscape:current-layer="svg7"
     showgrid="false" />
  <defs
     id="defs2">
    <style
       id="current-color-scheme"
       type="text/css">.ColorScheme-Text {color:#d8dee9} .ColorScheme-Highlight {color:#3b4252}</style>
  </defs>
  <metadata
     id="metadata2">
    <rdf:RDF>
      <cc:Work
         rdf:about="">
        <dc:format>image/svg+xml</dc:format>
        <dc:type
           rdf:resource="http://purl.org/dc/dcmitype/StillImage" />
      </cc:Work>
    </rdf:RDF>
  </metadata>
  <path
     id="path5"
     style="fill:currentColor;stroke-width:0.146069"
     d="m 2.5338655,1.4551797 c -0.59758,0 -1.078686,0.481106 -1.078686,1.078686 V 14.399133 c 0,0.597581 0.481106,1.078687 1.078686,1.078687 H 14.399133 c 0.59758,0 1.078687,-0.481106 1.078687,-1.078687 V 2.5338657 c 0,-0.59758 -0.481107,-1.078686 -1.078687,-1.078686 z m 0.989961,0.876415 a 0.47698896,0.56340918 0 0 1 0.477008,0.56345 0.47698896,0.56340918 0 0 1 -0.477008,0.563451 0.47698896,0.56340918 0 0 1 -0.476721,-0.563451 0.47698896,0.56340918 0 0 1 0.476721,-0.56345 z m 0.915215,0.375729 a 0.31300509,0.37560612 0 0 1 0.31325,0.375443 0.31300509,0.37560612 0 0 1 -0.31325,0.375729 0.31300509,0.37560612 0 0 1 -0.312964,-0.375729 0.31300509,0.37560612 0 0 1 0.312964,-0.375443 z m 0.688694,0.431646 a 0.25040408,0.2849728 0 0 1 0.250485,0.285005 0.25040408,0.2849728 0 0 1 -0.250485,0.284721 0.25040408,0.2849728 0 0 1 -0.250486,-0.284721 0.25040408,0.2849728 0 0 1 0.250486,-0.285005 z m 0.547759,0.444769 a 0.20336054,0.22367247 0 0 1 0.203413,0.223668 0.20336054,0.22367247 0 0 1 -0.203413,0.223669 0.20336054,0.22367247 0 0 1 -0.203127,-0.223669 0.20336054,0.22367247 0 0 1 0.203127,-0.223668 z m -2.090615,0.06162 c 0.09196,-0.0014 0.199089,0.0051 0.3278,0.0174 0.104556,0.01 0.220066,0.03186 0.339497,0.06219 0.517485,0.131463 1.114402,0.427204 1.275537,0.657311 0.258192,0.36868 0.30132,0.981843 0.124673,1.7699474 -0.05847,0.2609286 -0.132032,0.5213966 -0.218534,0.7737101 -0.02882,0.084108 -0.05959,0.1673047 -0.09101,0.2493446 -0.376908,0.9844173 -0.92949,1.8075371 -1.417327,2.0483921 -0.520052,0.2567969 -1.11617,0.083051 -1.272685,-0.37202 -0.124275,-0.3613206 0.164519,-1.0510933 0.56345,-1.3445781 0.968989,-0.7129255 0.952638,-1.3454143 -0.0602,-2.2883221 -0.467141,-0.434904 -0.539442,-0.942194 -0.183442,-1.299502 0.194723,-0.195473 0.336353,-0.269722 0.612235,-0.273879 z m 2.377618,0.439063 a 0.166848,0.18780305 0 0 1 0.166896,0.187722 0.166848,0.18780305 0 0 1 -0.166896,0.188007 0.166848,0.18780305 0 0 1 -0.166896,-0.188007 0.166848,0.18780305 0 0 1 0.166896,-0.187722 z m 0.166896,4.3820754 h 3.213521 v 0.5842767 h -3.213521 z"
     class="ColorScheme-Text" />
</svg>
