<?xml version='1.0' encoding='UTF-8'?>
<svg xmlns:inkscape="http://www.inkscape.org/namespaces/inkscape" xmlns:sodipodi="http://sodipodi.sourceforge.net/DTD/sodipodi-0.dtd" xmlns="http://www.w3.org/2000/svg" xmlns:svg="http://www.w3.org/2000/svg" xmlns:rdf="http://www.w3.org/1999/02/22-rdf-syntax-ns#" xmlns:cc="http://creativecommons.org/ns#" xmlns:dc="http://purl.org/dc/elements/1.1/" width="64" height="64" version="1.1" viewBox="0 0 16.933 16.933" id="svg7" sodipodi:docname="fr.free.Homebank.svg" inkscape:version="1.4 (e7c3feb100, 2024-10-09)">
  <sodipodi:namedview id="namedview7" pagecolor="#9c4444" bordercolor="#000000" borderopacity="0.25" inkscape:showpageshadow="2" inkscape:pageopacity="0.0" inkscape:pagecheckerboard="0" inkscape:deskcolor="#d1d1d1" inkscape:zoom="6.15625" inkscape:cx="15.51269" inkscape:cy="29.807107" inkscape:window-width="1183" inkscape:window-height="940" inkscape:window-x="35" inkscape:window-y="32" inkscape:window-maximized="0" inkscape:current-layer="svg7" showgrid="false"/>
  <defs id="defs2">
    <style id="current-color-scheme" type="text/css">.ColorScheme-Text {color:#d8dee9} .ColorScheme-Highlight {color:#3b4252}</style></defs>
  <metadata id="metadata2">
    <rdf:RDF>
      <cc:Work rdf:about="">
        <dc:format>image/svg+xml</dc:format>
        <dc:type rdf:resource="http://purl.org/dc/dcmitype/StillImage"/>
      </cc:Work>
    </rdf:RDF>
  </metadata>
  <path id="path99" style="fill:currentColor;stroke-width:0.0816569" d="M 8.5401882,1.4359932 C 7.4178818,1.4323262 7.1436679,1.4572599 6.5971412,1.6156686 2.2515866,2.8752041 0.11267988,7.6687171 2.0856188,11.72462 c 1.0560242,2.17094 3.0301088,3.608461 5.4747001,3.98624 0.1347328,0.02082 0.6676127,0.02527 1.1840906,0.0099 1.9400975,-0.05801 3.6005185,-0.820319 4.9484365,-2.270979 1.263263,-1.359546 1.910648,-3.011681 1.910648,-4.873818 0,-1.4605862 -0.387706,-2.7855218 -1.158563,-3.9597319 C 13.5056,3.1853103 12.245159,2.23386 10.541164,1.6696691 9.8997406,1.4572956 9.7475723,1.4399143 8.5401882,1.4359932 Z m -0.04811,1.4256211 c 0.9757461,0.0015 1.6484368,0.1564289 2.5390198,0.5841904 0.575655,0.2764952 0.819461,0.4600137 1.431513,1.0780528 0.591524,0.5973107 0.806391,0.8830194 1.080016,1.4393668 0.491588,0.9995309 0.614169,1.6168441 0.570444,2.8581157 -0.03131,0.8887592 -0.06869,1.1073982 -0.288659,1.695625 -0.69981,1.871369 -2.301611,3.263575 -4.1983169,3.64751 C 7.7154018,14.551239 5.8355325,13.97938 4.4675452,12.594524 3.7441938,11.862252 3.3478925,11.187806 3.0173784,10.125214 2.7750712,9.3462022 2.7568806,7.9256118 2.978105,7.1060781 3.6638713,4.5656394 5.8829153,2.8575928 8.4920782,2.8616143 Z m 0.00589,2.1639598 -1.7339168,1.7348988 -1.7348988,1.7339166 h 0.4693162 0.4693158 v 1.8370095 1.83799 h 2.5321484 2.531165 v -1.83799 -1.8370095 h 0.466371 0.467352 L 11.497469,8.0231097 11.031098,7.5508482 V 6.5120689 5.4732899 H 10.541164 10.051229 V 6.0231163 6.5719609 L 9.2745994,5.7992583 Z" class="ColorScheme-Text"/>
  <g id="g9" transform="matrix(0.46959567,0,0,0.46959567,4.7471229,3.7470598)" style="fill:#999999;fill-opacity:1;stroke:none;stroke-width:0.58349;stroke-dasharray:none;stroke-opacity:0.3"/>
  </svg>
