<?xml version="1.0" encoding="UTF-8" standalone="no"?>
<svg
   width="64"
   height="64"
   version="1.1"
   viewBox="0 0 16.933 16.933"
   id="svg7"
   sodipodi:docname="gajim.svg"
   inkscape:version="1.4.3 (0d15f75042, 2025-12-25)"
   xmlns:inkscape="http://www.inkscape.org/namespaces/inkscape"
   xmlns:sodipodi="http://sodipodi.sourceforge.net/DTD/sodipodi-0.dtd"
   xmlns="http://www.w3.org/2000/svg"
   xmlns:svg="http://www.w3.org/2000/svg"
   xmlns:rdf="http://www.w3.org/1999/02/22-rdf-syntax-ns#"
   xmlns:cc="http://creativecommons.org/ns#"
   xmlns:dc="http://purl.org/dc/elements/1.1/">
  <sodipodi:namedview
     id="namedview7"
     pagecolor="#9c4444"
     bordercolor="#000000"
     borderopacity="0.25"
     inkscape:showpageshadow="2"
     inkscape:pageopacity="0.0"
     inkscape:pagecheckerboard="0"
     inkscape:deskcolor="#d1d1d1"
     inkscape:zoom="4.3531262"
     inkscape:cx="89.935366"
     inkscape:cy="34.457995"
     inkscape:window-width="2560"
     inkscape:window-height="1388"
     inkscape:window-x="0"
     inkscape:window-y="0"
     inkscape:window-maximized="1"
     inkscape:current-layer="svg7"
     showgrid="false" />
  <defs
     id="defs2">
    <style
       id="current-color-scheme"
       type="text/css">.ColorScheme-Text {color:#d8dee9} .ColorScheme-Highlight {color:#3b4252}</style>
  </defs>
  <metadata
     id="metadata2">
    <rdf:RDF>
      <cc:Work
         rdf:about="">
        <dc:format>image/svg+xml</dc:format>
        <dc:type
           rdf:resource="http://purl.org/dc/dcmitype/StillImage" />
      </cc:Work>
    </rdf:RDF>
  </metadata>
  <path
     id="path5"
     style="fill:currentColor"
     d="M 10.278652,7.0449694 9.356523,7.5816204 H 7.564014 l -0.980346,-0.481789 0.292044,0.509819 c 0.08629,0.150636 0.09078,0.325301 0.152131,0.856245 0.0056,0.270623 0.212359,0.490016 0.475558,0.52635 0.334913,0.249699 0.671786,0.380238 1.001189,0.37278 0.325342,-0.0074 0.628738,-0.149015 0.906077,-0.371822 0.264151,-0.03315 0.493934,-0.235545 0.501434,-0.517965 0.06909,-0.495255 0.108114,-0.818952 0.156683,-0.933868 z m -2.913247,0.882599 h 0.08792 l 0.02731,0.01342 h 1.97267 l 0.023,-0.01342 h 0.105893 l -0.08289,0.65045 c -0.04054,0.04108 -0.09928,0.06924 -0.159078,0.06924 H 9.27435 9.25015 c -0.183921,0.148157 -0.387611,0.295696 -0.650929,0.33349 -0.268402,0.03852 -0.570907,-0.07009 -0.893379,-0.331094 h -0.06756 l -0.0031,-0.0024 h -0.06158 c -0.08323,0 -0.152733,-0.05339 -0.177047,-0.131048 -4.5e-5,-1.23e-4 4.6e-5,-3.68e-4 0,-5.1e-4 z m 0.37901,0.359364 2.45e-4,0.0033 h 0.0769 l 0.05103,0.0448 c 0.302693,0.266493 0.504399,0.314221 0.675605,0.289647 0.171206,-0.02457 0.342688,-0.142249 0.529943,-0.296117 l 0.04959,-0.04073 h 0.046 l 2.45e-4,-9.74e-4 z M 8.466737,1.4551772 c -1.785318,0 -3.236196,1.4523892 -3.236196,3.2371532 0,0.9476851 0.410192,1.7999034 1.061323,2.39169 L 5.97227,6.5260473 6.482567,6.7768833 C 5.932544,6.2527861 5.589906,5.5131155 5.589906,4.6923304 c 0,-1.5903848 1.286041,-2.8777898 2.876831,-2.8777898 1.590283,0 2.876352,1.287405 2.876352,2.8777898 0,0.6963571 -0.246789,1.3342243 -0.657636,1.8318008 l 0.105653,-0.061331 -0.324387,0.7671232 c 0.751482,-0.592695 1.235735,-1.5082556 1.235735,-2.5375925 0,-1.784764 -1.45085,-3.2371532 -3.235717,-3.2371537 z m 0,0.1796817 c -1.688054,0 -3.056513,1.3698971 -3.056513,3.0574715 0,0.70461 0.238261,1.3539595 0.63871,1.8713302 l 0.387874,0.190703 C 5.916616,6.208518 5.589906,5.5765412 5.589906,4.7924741 c 0,-1.6380202 1.286298,-2.9774539 2.876831,-2.9774539 1.590087,0 2.876352,1.3394337 2.876352,2.9774539 0,0.6547053 -0.211324,1.2182351 -0.561327,1.6758357 l 0.0093,-0.00551 -0.167224,0.3955394 c 0.555424,-0.553951 0.89889,-1.3200969 0.89889,-2.1660082 0,-1.6875748 -1.368459,-3.0574718 -3.056034,-3.0574718 z m 0,0.539526 c -1.388837,0 -2.517467,1.167492 -2.517467,2.6180892 0,0.9216581 0.490417,1.580751 1.302816,2.2115273 l 0.01485,0.01174 0.01222,0.01438 c 0.07357,0.08705 0.134438,0.161867 0.184473,0.228795 l 0.157402,0.07738 h 1.669367 l 0.262097,-0.152609 c 0.05045,-0.0665 0.109931,-0.140981 0.18088,-0.2350253 l 0.01941,-0.025633 0.02707,-0.017488 c 0.729218,-0.4672257 1.20387,-1.1679154 1.20387,-2.1130621 0,-1.450597 -1.128662,-2.618089 -2.516987,-2.618089 z m 0,4.3147677 c -0.561917,0 -1.115228,0.04719 -1.649243,0.1312877 0.110004,0.1057293 0.226555,0.2103423 0.354573,0.3131267 0.423134,-0.054591 0.85672,-0.08505 1.29467,-0.08505 0.432811,0 0.861401,0.029259 1.279817,0.082653 l 0.0062,-0.00815 0.02707,-0.017488 C 9.91301,6.8202218 10.037558,6.7271414 10.152396,6.626191 9.607194,6.5384528 9.041381,6.4891531 8.466738,6.4891531 Z M 6.383622,6.6973437 c -0.01488,0.00297 -0.02972,0.00586 -0.04456,0.00887 l 0.09799,0.048155 c -0.01804,-0.01893 -0.03586,-0.037882 -0.05343,-0.05702 z m 4.297039,0.026834 -0.143027,0.3382827 c 0.925225,0.189002 1.775665,0.488096 2.477458,0.835642 0.601626,0.297939 1.09371,0.632137 1.427395,0.953992 0.333685,0.321856 0.496162,0.628413 0.496162,0.845945 0,0.0089 0.0058,0.0063 -0.02635,0.03114 -0.03219,0.02483 -0.101571,0.05818 -0.195016,0.08553 -0.186884,0.05471 -0.463822,0.09035 -0.747476,0.120267 -0.283658,0.02991 -0.574537,0.05511 -0.81408,0.1018186 -0.119774,0.02336 -0.22674,0.05086 -0.321512,0.09583 -0.09477,0.04497 -0.194968,0.11651 -0.227358,0.244129 l -0.0024,0.0089 -0.564681,3.818601 v 0.01318 c 0,0.148157 -0.04316,0.275837 -0.0999,0.356968 -0.05674,0.08113 -0.115598,0.111164 -0.16986,0.111164 h -0.02348 l -0.02276,0.006 c -2.12565,0.565327 -4.303262,0.573982 -6.526775,-5.1e-4 l -0.02228,-0.0055 h -0.02276 c -0.05464,0 -0.108543,-0.02801 -0.162912,-0.108527 -0.05437,-0.08052 -0.09583,-0.209551 -0.09583,-0.359605 v -0.01318 l -0.563483,-3.81046 -2.46e-4,-0.0012 C 4.30873,10.263293 4.213498,10.170489 4.117226,10.116353 4.020956,10.062213 3.91219,10.030633 3.791163,10.004951 c -0.242054,-0.05136 -0.534951,-0.0737 -0.821267,-0.09895 -0.286317,-0.02525 -0.566365,-0.05401 -0.755384,-0.103497 -0.09451,-0.02475 -0.164875,-0.05619 -0.196453,-0.0793 -0.01677,-0.01228 -0.02259,-0.01663 -0.0242,-0.01893 v -2.46e-4 l -2.46e-4,-2.45e-4 v -2.45e-4 l -2.45e-4,-2.46e-4 v -2.45e-4 -2.45e-4 l 2.45e-4,-2.46e-4 c 1.97e-4,-9.73e-4 7.42e-4,-0.0022 7.42e-4,-0.0045 0,-0.217532 0.162471,-0.524089 0.496163,-0.845944 0.333691,-0.321856 0.825739,-0.656054 1.427395,-0.953992 0.675502,-0.33451 1.488823,-0.624289 2.373961,-0.814081 L 6.104275,6.7564531 c -0.87065,0.1959224 -1.670803,0.4852673 -2.34593,0.8195903 -0.62719,0.310584 -1.146619,0.659298 -1.517476,1.017001 -0.370857,0.357702 -0.605888,0.727349 -0.605888,1.104926 0,0.130352 0.07854,0.247753 0.170818,0.3152816 0.09228,0.06753 0.198927,0.106008 0.317438,0.137038 0.237022,0.06206 0.526791,0.08838 0.815038,0.113798 0.288248,0.02542 0.574631,0.04953 0.778144,0.09272 0.101756,0.02159 0.182256,0.04909 0.224483,0.07283 0.02336,0.01314 0.0316,0.02015 0.03402,0.02252 l 0.558938,3.778677 c 0.0022,0.207893 0.0563,0.397817 0.157162,0.547192 0.09828,0.145552 0.253338,0.256269 0.434592,0.266169 2.266253,0.582312 4.499114,0.57401 6.67076,0 0.181269,-0.0097 0.336769,-0.118525 0.438185,-0.263534 0.104067,-0.148798 0.162206,-0.340064 0.164589,-0.549827 l 0.555337,-3.753921 c 0.0044,-0.003 0.0142,-0.01 0.03402,-0.01941 0.04726,-0.02243 0.131758,-0.04748 0.235981,-0.0678 0.208449,-0.04065 0.495264,-0.06669 0.782936,-0.09703 0.287672,-0.03034 0.575614,-0.06414 0.810726,-0.132964 0.117556,-0.03441 0.223493,-0.0762 0.313844,-0.145902 0.09035,-0.0697 0.166027,-0.1861086 0.166027,-0.3157606 0,-0.377577 -0.235039,-0.747224 -0.605888,-1.104926 C 14.321283,8.2354184 13.801815,7.8867034 13.174656,7.5761194 12.46136,7.2228764 11.608724,6.9198528 10.680667,6.7241853 Z M 8.466737,6.6688347 c -0.505784,0 -1.005302,0.038939 -1.489685,0.1092473 0.06299,0.055016 0.128524,0.1097712 0.196453,0.1641094 0.423264,-0.05993 0.856608,-0.093674 1.293232,-0.093674 0.434497,0 0.862876,0.029639 1.279577,0.082893 l 0.0065,-0.00839 0.02707,-0.017488 C 9.842914,6.8651464 9.904072,6.8229204 9.96316,6.7790362 9.476689,6.7081002 8.974865,6.6688307 8.466767,6.6688307 Z m 2.142291,0.2244831 -0.07139,0.1691406 c 0.881054,0.179382 1.686198,0.454988 2.353358,0.761852 0.582233,0.267803 1.059045,0.558504 1.393614,0.838757 0.167285,0.140128 0.299521,0.277341 0.392187,0.415425 0.09266,0.138085 0.151994,0.283213 0.132006,0.438424 -0.01626,0.125588 -0.106559,0.207373 -0.19166,0.257306 -0.0851,0.04993 -0.181124,0.08228 -0.289409,0.110924 -0.216572,0.05728 -0.482143,0.09493 -0.746041,0.1332026 -0.263896,0.03827 -0.526059,0.07711 -0.715374,0.126496 -0.09466,0.02469 -0.170882,0.05286 -0.213702,0.07667 -0.02067,0.01149 -0.03002,0.0196 -0.03354,0.02252 l -0.5769,3.721097 c -3.19e-4,0.175923 -0.0067,0.339341 -0.0575,0.487537 -0.02612,0.07624 -0.06641,0.152029 -0.135121,0.211068 -0.06268,0.05386 -0.147968,0.08585 -0.233587,0.09104 -2.00825,0.47664 -4.110678,0.493074 -6.30924,-2.45e-4 -0.09824,-0.0074 -0.192748,-0.05844 -0.250836,-0.125539 -0.06291,-0.07267 -0.09456,-0.15566 -0.116674,-0.240773 -0.04302,-0.16557 -0.04815,-0.350546 -0.04839,-0.526349 L 4.284461,10.195636 c -9.27e-4,-0.0013 -0.0077,-0.01445 -0.04097,-0.03785 -0.04165,-0.02933 -0.116049,-0.06471 -0.210108,-0.09583 C 3.845266,9.9997164 3.580993,9.9510834 3.316331,9.9150964 3.05167,9.8791064 2.78563,9.8545064 2.581072,9.8336364 c -0.102279,-0.01043 -0.188619,-0.01966 -0.256586,-0.03019 -0.03398,-0.0053 -0.06247,-0.01032 -0.09296,-0.01892 -0.01524,-0.0043 -0.03089,-0.0088 -0.05343,-0.02036 -0.02254,-0.01152 -0.06568,-0.02529 -0.09535,-0.105174 l -2.45e-4,-2.45e-4 v -2.46e-4 c -0.05697,-0.154918 -0.0014,-0.308011 0.08505,-0.443695 0.08642,-0.135684 0.215188,-0.270948 0.381644,-0.41303 0.332913,-0.284161 0.819103,-0.591283 1.415417,-0.879484 0.665652,-0.321709 1.467728,-0.618895 2.338504,-0.818632 L 6.198184,6.9203766 H 6.19795 C 3.722858,7.4643624 1.814663,8.7758414 1.814663,9.6980414 c 0,0.5543806 2.259204,0.236701 2.337306,0.7230406 l 0.561567,3.796324 c 0,0.363198 0.191182,0.647815 0.438425,0.647815 2.251537,0.581691 4.463305,0.573066 6.618053,0 0.246764,0 0.449445,-0.284617 0.449445,-0.647815 l 0.561567,-3.796324 c 0.103976,-0.409676 2.337306,-0.16866 2.337306,-0.7230406 0,-0.937804 -1.973456,-2.278295 -4.509304,-2.8047192 z M 8.466737,7.2078804 c -0.283164,0 -0.550493,0.04677 -0.787487,0.128414 H 9.253985 C 9.017021,7.2546344 8.749806,7.2078804 8.466737,7.2078804 Z m 1.927631,0.193339 -0.0908,0.214661 c 0.200216,0.24412 0.320314,0.535484 0.320314,0.850734 0,0.464012 -0.260042,0.87654 -0.653085,1.162425 -0.393043,0.285886 -0.922725,0.4556726 -1.50406,0.4556726 -0.581559,0 -1.111191,-0.1697886 -1.504299,-0.4556726 -0.393108,-0.285886 -0.653324,-0.698413 -0.653324,-1.162425 0,-0.304965 0.112283,-0.587832 0.300907,-0.827017 L 6.490473,7.4309264 c -0.883275,0.193156 -1.70059,0.491799 -2.369409,0.815038 -0.574794,0.2778 -1.040426,0.574739 -1.338513,0.829174 -0.149043,0.127218 -0.25566,0.244807 -0.311688,0.332771 -0.02154,0.03383 -0.01254,0.02847 -0.01964,0.04863 0.04931,0.0062 0.09611,0.01223 0.166506,0.01941 0.201359,0.02054 0.472075,0.04551 0.746999,0.08289 0.274924,0.03738 0.553036,0.08612 0.781497,0.161714 0.114231,0.03779 0.216503,0.08147 0.304262,0.143267 0.08776,0.06179 0.169636,0.1516426 0.189026,0.2750316 l 0.61068,3.693308 v 0.01485 c 0,0.171032 0.0093,0.344519 0.03689,0.450884 0.01382,0.05318 0.03285,0.08673 0.04073,0.09583 8.81e-4,9.74e-4 0.0015,0.0018 0.0019,0.0024 4.29e-4,-4e-5 8.81e-4,0 0.0014,0 h 0.02013 l 0.01941,0.0043 c 2.160628,0.486993 4.21414,0.469452 6.17891,5.1e-4 l 0.0206,-0.0048 h 0.02108 c 0.02321,0 0.01989,-0.0015 0.02396,-0.005 0.0041,-0.0035 0.01677,-0.0185 0.02923,-0.05486 0.02491,-0.07273 0.03833,-0.217213 0.03833,-0.386197 v -0.01389 l 0.586003,-3.779554 0.0019,-0.0079 c 0.03,-0.120713 0.119425,-0.1925686 0.206994,-0.2412516 0.08757,-0.04868 0.186894,-0.08152 0.297793,-0.110445 0.221798,-0.05786 0.490536,-0.09613 0.754426,-0.134403 0.26389,-0.03827 0.523229,-0.07677 0.705791,-0.125059 0.09128,-0.02414 0.163264,-0.05201 0.199568,-0.07331 0.008,-0.0047 0.01361,-0.0084 0.01725,-0.01102 -0.0027,-0.03394 -0.02096,-0.09461 -0.07451,-0.17441 -0.06474,-0.09646 -0.174899,-0.21474 -0.324386,-0.33996 -0.298976,-0.250437 -0.753111,-0.530496 -1.312878,-0.787966 -0.65937,-0.303281 -1.465746,-0.576357 -2.34641,-0.749633 z m -3.654017,0.713218 c -0.04719,0.112616 -0.07187,0.23077 -0.07187,0.352177 0,0.330424 0.18252,0.637103 0.505266,0.871818 0.322746,0.234714 0.782085,0.386916 1.292993,0.386916 0.510654,0 0.969823,-0.152202 1.292514,-0.386916 0.322691,-0.234713 0.505266,-0.541394 0.505266,-0.871818 0,-0.110064 -0.02022,-0.217536 -0.05917,-0.320553 -0.01456,0.10405 -0.03062,0.221456 -0.04863,0.350741 -0.01732,0.380641 -0.305995,0.655427 -0.643502,0.727593 -0.2949,0.224946 -0.630199,0.377517 -1.003106,0.385956 C 8.128468,9.6189514 7.756129,9.4750604 7.403989,9.2234354 7.059853,9.1463054 6.79634,8.8490644 6.783008,8.4836244 6.765378,8.3308904 6.751868,8.2104954 6.740368,8.1144374 Z"
     class="ColorScheme-Text" />
</svg>
