<?xml version="1.0" encoding="UTF-8" standalone="no"?>
<svg
   width="64"
   height="64"
   version="1.1"
   viewBox="0 0 16.933 16.933"
   id="svg7"
   sodipodi:docname="gnucash-icon.svg"
   inkscape:version="1.4.3 (0d15f75042, 2025-12-25)"
   xmlns:inkscape="http://www.inkscape.org/namespaces/inkscape"
   xmlns:sodipodi="http://sodipodi.sourceforge.net/DTD/sodipodi-0.dtd"
   xmlns="http://www.w3.org/2000/svg"
   xmlns:svg="http://www.w3.org/2000/svg"
   xmlns:rdf="http://www.w3.org/1999/02/22-rdf-syntax-ns#"
   xmlns:cc="http://creativecommons.org/ns#"
   xmlns:dc="http://purl.org/dc/elements/1.1/">
  <sodipodi:namedview
     id="namedview7"
     pagecolor="#9c4444"
     bordercolor="#000000"
     borderopacity="0.25"
     inkscape:showpageshadow="2"
     inkscape:pageopacity="0.0"
     inkscape:pagecheckerboard="0"
     inkscape:deskcolor="#d1d1d1"
     inkscape:zoom="6.15625"
     inkscape:cx="57.258883"
     inkscape:cy="38.010152"
     inkscape:window-width="2560"
     inkscape:window-height="1388"
     inkscape:window-x="0"
     inkscape:window-y="0"
     inkscape:window-maximized="1"
     inkscape:current-layer="svg7"
     showgrid="false" />
  <defs
     id="defs2">
    <style
       id="current-color-scheme"
       type="text/css">.ColorScheme-Text {color:#d8dee9} .ColorScheme-Highlight {color:#3b4252}</style>
  </defs>
  <metadata
     id="metadata2">
    <rdf:RDF>
      <cc:Work
         rdf:about="">
        <dc:format>image/svg+xml</dc:format>
        <dc:type
           rdf:resource="http://purl.org/dc/dcmitype/StillImage" />
      </cc:Work>
    </rdf:RDF>
  </metadata>
  <path
     id="path5"
     style="fill:currentColor"
     d="m 4.5641585,1.4551797 c -1.722523,0 -3.108979,1.3864548 -3.108979,3.108978 v 0.9754567 6.8292286 c 0,1.722523 1.386456,3.108977 3.108979,3.108977 h 7.8046845 c 1.722523,0 3.108978,-1.386454 3.108978,-3.108977 V 5.5396144 4.5641577 c 0,-1.7225232 -1.386455,-3.108978 -3.108978,-3.108978 z m 6.7972445,6.4789719 h 1.959168 c 0.230617,0 0.416284,0.1856666 0.416284,0.4162843 V 13.12094 c 0,0.230617 -0.185667,0.416284 -0.416284,0.416284 h -1.959168 c -0.230617,0 -0.416283,-0.185667 -0.416283,-0.416284 V 8.3504359 c 0,-0.2306177 0.185666,-0.4162843 0.416283,-0.4162843 z m -7.6700485,1.489235 h 1.95865 c 0.230618,0 0.416285,0.1856666 0.416285,0.4162842 V 13.12094 c 0,0.230617 -0.185667,0.416284 -0.416285,0.416284 h -1.95865 c -0.230619,0 -0.416285,-0.185667 -0.416285,-0.416284 V 9.8396708 c 0,-0.2306176 0.185666,-0.4162842 0.416285,-0.4162842 z m 3.834766,0.9176824 h 1.959167 c 0.230618,0 0.416285,0.185667 0.416285,0.416284 v 2.363587 c 0,0.230617 -0.185667,0.416284 -0.416285,0.416284 h -1.959167 c -0.230618,0 -0.416284,-0.185667 -0.416284,-0.416284 v -2.363587 c 0,-0.230617 0.185666,-0.416284 0.416284,-0.416284 z"
     class="ColorScheme-Text" />
</svg>
