<?xml version="1.0" encoding="UTF-8" standalone="no"?>
<svg
   width="64"
   height="64"
   version="1.1"
   viewBox="0 0 16.933 16.933"
   id="svg7"
   sodipodi:docname="gwenview.svg"
   inkscape:version="1.4.2 (ebf0e940d0, 2025-05-08)"
   xmlns:inkscape="http://www.inkscape.org/namespaces/inkscape"
   xmlns:sodipodi="http://sodipodi.sourceforge.net/DTD/sodipodi-0.dtd"
   xmlns="http://www.w3.org/2000/svg"
   xmlns:svg="http://www.w3.org/2000/svg"
   xmlns:rdf="http://www.w3.org/1999/02/22-rdf-syntax-ns#"
   xmlns:cc="http://creativecommons.org/ns#"
   xmlns:dc="http://purl.org/dc/elements/1.1/">
  <sodipodi:namedview
     id="namedview7"
     pagecolor="#9c4444"
     bordercolor="#000000"
     borderopacity="0.25"
     inkscape:showpageshadow="2"
     inkscape:pageopacity="0.0"
     inkscape:pagecheckerboard="0"
     inkscape:deskcolor="#d1d1d1"
     inkscape:zoom="4.3531262"
     inkscape:cx="89.935366"
     inkscape:cy="34.457995"
     inkscape:window-width="2560"
     inkscape:window-height="1388"
     inkscape:window-x="0"
     inkscape:window-y="0"
     inkscape:window-maximized="1"
     inkscape:current-layer="svg7"
     showgrid="false" />
  <defs
     id="defs2">
    <style
       id="current-color-scheme"
       type="text/css">.ColorScheme-Text {color:#d8dee9} .ColorScheme-Highlight {color:#3b4252}</style>
  </defs>
  <metadata
     id="metadata2">
    <rdf:RDF>
      <cc:Work
         rdf:about="">
        <dc:format>image/svg+xml</dc:format>
        <dc:type
           rdf:resource="http://purl.org/dc/dcmitype/StillImage" />
      </cc:Work>
    </rdf:RDF>
  </metadata>
  <path
     id="path5"
     style="fill:currentColor"
     d="m 8.4665385,2.8715394 a 7.2009996,7.2009996 0 0 0 -3.374827,0.8596433 c -0.03993,0.021068 -0.08138,0.039272 -0.120874,0.061064 a 7.2009996,7.2009996 0 0 0 -0.407628,0.2501177 c -0.121248,0.077853 -0.239346,0.1593601 -0.35555,0.2443238 A 7.2009996,7.2009996 0 0 0 3.9176915,4.5065533 C 3.7035575,4.6803649 3.4965695,4.862505 3.3036765,5.0601499 2.4456535,5.9392483 1.8092155,7.0458818 1.4937815,8.3038106 a 7.2009996,7.2009996 0 0 0 -0.03858,0.1568585 7.2009996,7.2009996 0 0 0 0.0012,0.0033 h -6.42e-4 a 7.2009996,7.2009996 0 0 0 1.813752,3.3703329 7.2009996,7.2009996 0 0 0 1.508353,1.204863 7.2009996,7.2009996 0 0 0 6.59e-4,0 7.2009996,7.2009996 0 0 0 3.687941,1.022296 7.2009996,7.2009996 0 0 0 5.1956515,-2.222649 7.2009996,7.2009996 0 0 0 1.135444,-1.559795 7.2009996,7.2009996 0 0 0 0.680238,-1.8060612 7.2009996,7.2009996 0 0 0 -0.02958,-0.097703 C 15.392478,8.1486721 15.325515,7.9277537 15.249547,7.7110816 A 7.2009996,7.2009996 0 0 0 15.133812,7.400525 C 15.056132,7.2079167 14.970979,7.0193904 14.877919,6.8360323 A 7.2009996,7.2009996 0 0 0 14.644529,6.4168105 C 14.579099,6.3068616 14.511625,6.1986901 14.440715,6.09279 A 7.2009996,7.2009996 0 0 0 13.810041,5.274949 7.2009996,7.2009996 0 0 0 13.418487,4.8750506 c -0.02554,-0.02436 -0.05191,-0.047502 -0.0778,-0.071367 A 7.2009996,7.2009996 0 0 0 8.4665075,2.8728931 Z m -0.05722,1.4459942 a 4.0697597,4.0697597 0 0 1 0.02379,0 4.0696359,4.0696359 0 0 1 0.009,0 4.1276034,4.1276034 0 0 1 0.02507,0 v 0 a 4.1276034,4.1276034 0 0 1 0.02121,0 4.1276034,4.1276034 0 0 1 0.0051,0 4.0697597,4.0697597 0 0 1 0.04758,0 4.0697597,4.0697597 0 0 1 0.101589,0.00888 4.1276034,4.1276034 0 0 1 0.139519,0.015472 4.0696359,4.0696359 0 0 1 0.261679,0.028311 4.0696359,4.0696359 0 0 1 0.002,0 4.0696359,4.0696359 0 0 1 0.002,0 4.0696359,4.0696359 0 0 1 0.0058,0 4.1276034,4.1276034 0 0 1 0.0045,0 4.1276034,4.1276034 0 0 1 3.5362065,4.0685746 4.1276034,4.1276034 0 0 1 -4.1270735,4.1277298 4.1276034,4.1276034 0 0 1 -4.127717,-4.1277298 4.1276034,4.1276034 0 0 1 0.0012,-0.023702 4.0696359,4.0696359 0 0 0 0.009,0.1266718 4.0696359,4.0696359 0 0 1 -0.01033,-0.1600845 4.0696359,4.0696359 0 0 1 1.192024,-2.8778333 4.0697597,4.0697597 0 0 1 1.31997,-0.8821269 4.0696359,4.0696359 0 0 1 0.504069,-0.1710135 4.0697597,4.0697597 0 0 1 1.05379,-0.1388847 z m 3.0134905,1.3476326 a 4.0697597,4.0697597 0 0 1 0.280967,0.3503885 4.0696359,4.0696359 0 0 0 -0.271966,-0.3426854 4.0696359,4.0696359 0 0 0 -0.009,-0.00758 z m -0.79404,0.6750673 A 0.85918244,0.85918244 0 0 0 9.7691505,7.1998768 0.85918244,0.85918244 0 0 0 10.628769,8.0588289 0.85918244,0.85918244 0 0 0 11.487747,7.1998768 0.85918244,0.85918244 0 0 0 10.628769,6.3402335 Z M 6.2168695,6.5710606 4.8133175,9.2000602 c 0.370048,1.7099378 1.881174,2.9308988 3.63072,2.9331368 1.514446,0.01679 3.0483105,-1.226886 3.5143455,-2.3229856 L 10.810081,9.7517154 9.0349055,7.9958229 7.7329385,9.1653646 Z"
     class="ColorScheme-Text" />
</svg>
