<?xml version="1.0" encoding="UTF-8" standalone="no"?>
<svg
   width="64"
   height="64"
   version="1.1"
   viewBox="0 0 16.933 16.933"
   id="svg7"
   sodipodi:docname="htop.svg"
   inkscape:version="1.4.3 (0d15f75042, 2025-12-25)"
   xmlns:inkscape="http://www.inkscape.org/namespaces/inkscape"
   xmlns:sodipodi="http://sodipodi.sourceforge.net/DTD/sodipodi-0.dtd"
   xmlns="http://www.w3.org/2000/svg"
   xmlns:svg="http://www.w3.org/2000/svg"
   xmlns:rdf="http://www.w3.org/1999/02/22-rdf-syntax-ns#"
   xmlns:cc="http://creativecommons.org/ns#"
   xmlns:dc="http://purl.org/dc/elements/1.1/">
  <sodipodi:namedview
     id="namedview7"
     pagecolor="#9c4444"
     bordercolor="#000000"
     borderopacity="0.25"
     inkscape:showpageshadow="2"
     inkscape:pageopacity="0.0"
     inkscape:pagecheckerboard="0"
     inkscape:deskcolor="#d1d1d1"
     inkscape:zoom="6.15625"
     inkscape:cx="15.837563"
     inkscape:cy="27.28934"
     inkscape:window-width="2560"
     inkscape:window-height="1388"
     inkscape:window-x="0"
     inkscape:window-y="0"
     inkscape:window-maximized="1"
     inkscape:current-layer="svg7"
     showgrid="false" />
  <defs
     id="defs2">
    <style
       id="current-color-scheme"
       type="text/css">.ColorScheme-Text {color:#d8dee9} .ColorScheme-Highlight {color:#3b4252}</style>
  </defs>
  <metadata
     id="metadata2">
    <rdf:RDF>
      <cc:Work
         rdf:about="">
        <dc:format>image/svg+xml</dc:format>
        <dc:type
           rdf:resource="http://purl.org/dc/dcmitype/StillImage" />
      </cc:Work>
    </rdf:RDF>
  </metadata>
  <g
     id="g7"
     transform="matrix(0.30484001,0,0,0.30484001,-1.2883803,-1.2883803)"
     style="fill:currentColor;fill-opacity:1;stroke:none;stroke-opacity:1"
     class="ColorScheme-Text">
    <path
       style="fill:currentColor;fill-opacity:1;stroke:none;stroke-opacity:1"
       d="m 55,11 v 12 h -3 v -2 h 1 v -8 h -1 v -2 z m 0,15 v 12 h -3 v -2 h 1 v -8 h -1 v -2 z m 0,15 v 12 h -3 v -2 h 1 V 43 H 52 V 41 Z M 9,11 v 12 h 3 v -2 h -1 v -8 h 1 v -2 z m 0,15 v 12 h 3 v -2 h -1 v -8 h 1 v -2 z m 0,15 v 12 h 3 v -2 h -1 v -8 h 1 v -2 z"
       id="path3-3"
       class="ColorScheme-Text" />
    <path
       style="fill:currentColor;fill-opacity:1;stroke:none;stroke-opacity:1"
       d="m 15,41 v 12 h 3 V 41 Z m 6,0 v 12 h 3 V 41 Z M 15,26 v 12 h 3 V 26 Z m 6,0 v 12 h 3 V 26 Z M 15,11 v 12 h 3 V 11 Z m 6,0 v 12 h 3 V 11 Z"
       id="path4"
       class="ColorScheme-Text" />
    <path
       style="fill:currentColor;fill-opacity:1;stroke:none;stroke-opacity:1"
       d="m 27,26 v 12 h 3 V 26 Z m 7,0 v 12 h 3 V 26 Z"
       id="path5"
       class="ColorScheme-Text" />
    <path
       style="fill:currentColor;fill-opacity:1;stroke:none;stroke-opacity:1"
       d="m 40,41 v 12 h 3 V 41 Z m 6,0 v 12 h 3 V 41 Z M 40,26 v 12 h 3 V 26 Z m 6,0 v 12 h 3 V 26 Z M 40,11 v 12 h 3 V 11 Z m 6,0 v 12 h 3 V 11 Z"
       id="path6"
       class="ColorScheme-Text" />
  </g>
  <g
     aria-label="Terminal"
     id="text2284"
     style="font-size:1.76385px;opacity:1;fill:#999999;stroke-width:0.529156"
     transform="matrix(0.9525522,0,0,0.9525522,0.05247431,0.0828432)" />
</svg>
