<?xml version="1.0" encoding="UTF-8" standalone="no"?>
<svg
   width="64"
   height="64"
   version="1.1"
   viewBox="0 0 16.933 16.933"
   id="svg7"
   sodipodi:docname="huiontablet.svg"
   inkscape:version="1.4.3 (0d15f75042, 2025-12-25)"
   xmlns:inkscape="http://www.inkscape.org/namespaces/inkscape"
   xmlns:sodipodi="http://sodipodi.sourceforge.net/DTD/sodipodi-0.dtd"
   xmlns="http://www.w3.org/2000/svg"
   xmlns:svg="http://www.w3.org/2000/svg"
   xmlns:rdf="http://www.w3.org/1999/02/22-rdf-syntax-ns#"
   xmlns:cc="http://creativecommons.org/ns#"
   xmlns:dc="http://purl.org/dc/elements/1.1/">
  <sodipodi:namedview
     id="namedview7"
     pagecolor="#9c4444"
     bordercolor="#000000"
     borderopacity="0.25"
     inkscape:showpageshadow="2"
     inkscape:pageopacity="0.0"
     inkscape:pagecheckerboard="0"
     inkscape:deskcolor="#d1d1d1"
     inkscape:zoom="3.0781251"
     inkscape:cx="81.380708"
     inkscape:cy="63.999998"
     inkscape:window-width="2560"
     inkscape:window-height="1388"
     inkscape:window-x="0"
     inkscape:window-y="0"
     inkscape:window-maximized="1"
     inkscape:current-layer="svg7"
     showgrid="false" />
  <defs
     id="defs2">
    <style
       id="current-color-scheme"
       type="text/css">.ColorScheme-Text {color:#d8dee9} .ColorScheme-Highlight {color:#3b4252}</style>
  </defs>
  <metadata
     id="metadata2">
    <rdf:RDF>
      <cc:Work
         rdf:about="">
        <dc:format>image/svg+xml</dc:format>
        <dc:type
           rdf:resource="http://purl.org/dc/dcmitype/StillImage" />
      </cc:Work>
    </rdf:RDF>
  </metadata>
  <path
     id="path5"
     style="fill:currentColor;stroke-width:0.219104;paint-order:fill markers stroke"
     d="M 8.4664998,1.4551795 A 7.0113206,7.0113206 0 0 0 1.4551795,8.4664998 7.0113206,7.0113206 0 0 0 8.4664998,15.47782 7.0113206,7.0113206 0 0 0 15.47782,8.4664998 7.0113206,7.0113206 0 0 0 8.4664998,1.4551795 Z m 0,4.0089141 1.9620912,2.9878564 v 2.035696 H 6.5044085 V 8.45195 Z M 8.0094631,7.0538796 7.0427533,8.5255551 h 2.847493 L 8.9235365,7.0538796 Z m -5.3492129,0.080452 3.3533145,1.2196206 v 2.1336936 h -2.133694 z m 11.6124988,0 -1.219621,3.3533142 H 10.919435 V 8.3539524 Z M 4.0232297,8.1519661 3.6590552,8.4459588 4.1982559,9.9291888 5.523149,8.7446589 v -0.047929 z m 8.8865393,0 -1.499918,0.5447638 v 0.047929 l 1.324892,1.1845299 0.539201,-1.48323 z M 3.8999838,10.978062 h 0.2452079 8.6426153 0.245209 v 0.490843 H 12.787807 4.1451917 3.8999838 Z"
     class="ColorScheme-Text" />
</svg>
