<?xml version="1.0" encoding="UTF-8" standalone="no"?>
<svg
   width="64"
   height="64"
   version="1.1"
   viewBox="0 0 16.933 16.933"
   id="svg7"
   sodipodi:docname="hwloc.svg"
   inkscape:version="1.4.3 (0d15f75042, 2025-12-25)"
   xmlns:inkscape="http://www.inkscape.org/namespaces/inkscape"
   xmlns:sodipodi="http://sodipodi.sourceforge.net/DTD/sodipodi-0.dtd"
   xmlns="http://www.w3.org/2000/svg"
   xmlns:svg="http://www.w3.org/2000/svg"
   xmlns:rdf="http://www.w3.org/1999/02/22-rdf-syntax-ns#"
   xmlns:cc="http://creativecommons.org/ns#"
   xmlns:dc="http://purl.org/dc/elements/1.1/">
  <sodipodi:namedview
     id="namedview7"
     pagecolor="#9c4444"
     bordercolor="#000000"
     borderopacity="0.25"
     inkscape:showpageshadow="2"
     inkscape:pageopacity="0.0"
     inkscape:pagecheckerboard="0"
     inkscape:deskcolor="#d1d1d1"
     inkscape:zoom="8.7062522"
     inkscape:cx="86.661859"
     inkscape:cy="32.390516"
     inkscape:window-width="2560"
     inkscape:window-height="1388"
     inkscape:window-x="0"
     inkscape:window-y="0"
     inkscape:window-maximized="1"
     inkscape:current-layer="svg7"
     showgrid="false" />
  <defs
     id="defs2">
    <style
       id="current-color-scheme"
       type="text/css">.ColorScheme-Text {color:#d8dee9} .ColorScheme-Highlight {color:#3b4252}</style>
  </defs>
  <metadata
     id="metadata2">
    <rdf:RDF>
      <cc:Work
         rdf:about="">
        <dc:format>image/svg+xml</dc:format>
        <dc:type
           rdf:resource="http://purl.org/dc/dcmitype/StillImage" />
      </cc:Work>
    </rdf:RDF>
  </metadata>
  <path
     id="path5"
     style="fill:currentColor"
     d="m 8.4632928,1.4551819 c -0.164295,0 -0.328625,0.06294 -0.454516,0.188835 -0.125892,0.125892 -0.457258,0.445071 -0.825634,0.82082 0.368374,-0.375748 0.825633,0.08814 0.825633,0.08814 l 6.8112562,6.811256 c 0,0 0.20873,-0.196736 0.460513,-0.448519 0.251783,-0.251783 0.251784,-0.657179 0,-0.908962 L 8.9177378,1.6440139 c -0.125891,-0.125891 -0.290151,-0.188835 -0.454446,-0.188835 z m -1.090685,1.109583 c -0.164296,0 -0.328625,0.06294 -0.454516,0.188835 l -5.265637,5.265637 c -0.251783,0.251783 -0.251783,0.657179 0,0.908963 l 6.360784,6.3607841 c 0.251784,0.251783 0.65718,0.251783 0.908963,0 L 14.187839,10.023347 C 14.439622,9.7715639 14.625968,9.5524439 14.625968,9.5524439 L 7.8270538,2.7535999 c -0.125891,-0.125891 -0.290151,-0.188835 -0.454446,-0.188835 z m 0.129563,0.902268 0.317143,0.317073 -0.321327,0.321327 c -0.06301,0.06301 -0.119675,0.116905 -0.170078,0.16171 -0.049,0.0434 -0.08893,0.07634 -0.11973,0.09874 l 0.01681,0.0168 c 0.09661,-0.021 0.186212,-0.01678 0.268819,0.01262 0.08401,0.0308 0.161018,0.08117 0.231023,0.15118 0.123211,0.12321 0.189012,0.256197 0.197413,0.399009 0.0098,0.141412 -0.05884,0.285677 -0.20585,0.43269 l -0.747672,0.747671 -0.317073,-0.317143 0.667828,-0.667897 c 0.165213,-0.165214 0.18694,-0.308718 0.06513,-0.430528 -0.09381,-0.09381 -0.191162,-0.12529 -0.29197,-0.09449 -0.09941,0.0294 -0.209977,0.10503 -0.331787,0.22684 l -0.537637,0.537637 -0.317143,-0.317143 z m 0.783374,1.682225 0.310867,0.310798 -0.375927,0.640562 c -0.0252,0.0448 -0.05883,0.09525 -0.100834,0.15125 -0.0406,0.0574 -0.08053,0.112689 -0.11973,0.165893 -0.0378,0.05181 -0.06859,0.09242 -0.0924,0.121823 l 0.0084,0.0084 c 0.021,-0.0182 0.04972,-0.04131 0.08612,-0.06931 0.0378,-0.0294 0.07703,-0.05881 0.117638,-0.08821 0.042,-0.028 0.07909,-0.05388 0.111293,-0.07768 0.035,-0.0238 0.0588,-0.03923 0.07141,-0.04623 l 0.690979,-0.409539 0.344409,0.344478 -0.415815,0.684634 c -0.014,0.0252 -0.03919,0.06298 -0.07559,0.113384 -0.035,0.05181 -0.07216,0.102938 -0.111362,0.153342 -0.0378,0.0518 -0.06998,0.09104 -0.09658,0.117639 l 0.0084,0.0084 c 0.0266,-0.021 0.06583,-0.05041 0.117639,-0.08821 0.05321,-0.0392 0.109181,-0.07982 0.167985,-0.121823 0.0602,-0.0406 0.112722,-0.07347 0.157526,-0.09867 l 0.644746,-0.371744 0.3066842,0.306614 -1.4764462,0.816986 -0.340225,-0.340225 0.31289,-0.489383 c 0.0182,-0.0294 0.04484,-0.07278 0.07984,-0.13019 0.0378,-0.0574 0.07696,-0.118986 0.117569,-0.184791 0.042,-0.06721 0.07985,-0.128856 0.113454,-0.184861 0.035,-0.05741 0.06088,-0.09871 0.07768,-0.123914 l -0.0084,-0.0084 c -0.0252,0.0168 -0.06651,0.04268 -0.123915,0.07768 -0.05461,0.035 -0.115563,0.07354 -0.182769,0.115546 -0.06581,0.0406 -0.128078,0.07908 -0.186883,0.115478 -0.0588,0.0364 -0.103641,0.06442 -0.134444,0.08403 l -0.489312,0.304522 -0.336041,-0.336041 z m -3.044937,0.209338 c 0.07018,0 0.140361,0.02684 0.194135,0.08061 l 2.717822,2.717822 c 0.107547,0.107548 0.107547,0.280723 0,0.38827 -0.107547,0.107547 -0.196716,0.191554 -0.196716,0.191554 l -2.909378,-2.909377 c 0,0 -0.195289,-0.198154 -0.352637,-0.03766 0.157349,-0.160497 0.298863,-0.296841 0.352637,-0.350615 0.05377,-0.05377 0.123957,-0.08061 0.194135,-0.08061 z m -0.465883,0.473901 c 0.07018,0 0.140362,0.02691 0.194136,0.08068 l 2.904077,2.904077 c 0,0 -0.07954,0.09363 -0.187092,0.201178 l -2.24922,2.2491511 c -0.107547,0.107546 -0.280653,0.107547 -0.388201,0 L 2.3314398,8.5505969 c -0.107547,-0.107547 -0.107547,-0.280723 0,-0.38827 l 2.24915,-2.24915 c 0.05377,-0.05377 0.123958,-0.08068 0.194135,-0.08068 z m 0.229141,0.433875 c -0.02524,0 -0.05047,0.0097 -0.0698,0.02901 -0.01934,0.01934 -0.07019,0.06836 -0.126789,0.126062 0.05658,-0.05772 0.126774,0.0136 0.126774,0.0136 l 1.046266,1.046196 c 0,0 0.03203,-0.03022 0.07071,-0.0689 0.03867,-0.03867 0.03868,-0.10093 1e-6,-0.139604 l -0.977301,-0.97737 c -0.01934,-0.01934 -0.04464,-0.02901 -0.06987,-0.02901 z m -0.167499,0.170495 c -0.02524,0 -0.05047,0.0097 -0.0698,0.02901 l -0.808827,0.808757 c -0.03867,0.03868 -0.03867,0.100931 0,0.139605 l 0.977022,0.977091 c 0.03867,0.03867 0.10093,0.03867 0.139604,0 l 0.808827,-0.808827 c 0.03867,-0.03867 0.06729,-0.07231 0.06729,-0.07231 l -1.04431,-1.04431 c -0.01934,-0.01934 -0.04457,-0.02901 -0.0698,-0.02901 z m 5.8286572,0.193019 0.317143,0.317143 -1.5961062,1.596107 -0.317143,-0.317144 z m -6.9109042,0.886299 c -0.02524,1e-6 -0.05046,0.0097 -0.0698,0.02901 -0.01934,0.01934 -0.07026,0.06836 -0.126841,0.126078 0.05658,-0.05772 0.126843,0.01353 0.126843,0.01353 l 1.046196,1.046266 c 0,0 0.03203,-0.03022 0.07071,-0.0689 0.03867,-0.03867 0.03867,-0.10093 10e-7,-0.139604 l -0.977301,-0.977371 c -0.01934,-0.01934 -0.04457,-0.02901 -0.0698,-0.02901 z m 2.509183,0.0096 c -0.02524,-10e-7 -0.05046,0.0097 -0.0698,0.02901 -0.01934,0.01934 -0.07019,0.06836 -0.126788,0.126062 0.05658,-0.05772 0.126773,0.0136 0.126773,0.0136 l 1.046266,1.046196 c 0,0 0.03203,-0.03022 0.07071,-0.0689 0.03868,-0.03868 0.03868,-0.10093 1e-6,-0.139605 l -0.977353,-0.977352 c -0.01934,-0.01934 -0.04457,-0.02901 -0.0698,-0.02901 z m -2.67675,0.160802 c -0.02524,1e-6 -0.05047,0.0097 -0.0698,0.02901 l -0.808826,0.808827 c -0.03867,0.03867 -0.03867,0.10093 0,0.139605 l 0.977021,0.977021 c 0.03867,0.03867 0.101,0.03867 0.139674,0 l 0.808757,-0.808757 c 0.03867,-0.03867 0.06729,-0.07238 0.06729,-0.07238 l -1.044313,-1.044313 c -0.01934,-0.01934 -0.04457,-0.02901 -0.0698,-0.02901 z m 2.509252,0.0096 c -0.02524,0 -0.05047,0.0097 -0.0698,0.02901 l -0.808827,0.808827 c -0.03867,0.03867 -0.03867,0.10093 0,0.139605 l 0.977021,0.977021 c 0.03867,0.03867 0.100931,0.03867 0.139605,0 l 0.808827,-0.808757 c 0.03867,-0.03867 0.06729,-0.07238 0.06729,-0.07238 l -1.044314,-1.044314 c -0.01934,-0.01934 -0.04457,-0.02901 -0.0698,-0.02901 z m 4.7078472,0.235765 c 0.203017,-0.0014 0.391358,0.08467 0.564972,0.258289 0.107809,0.107809 0.179907,0.226127 0.216311,0.354938 0.0378,0.127411 0.03642,0.259014 -0.0042,0.394826 -0.0406,0.135811 -0.124602,0.267414 -0.252013,0.394825 -0.190416,0.190416 -0.38782,0.287077 -0.592238,0.289877 -0.203017,0.0042 -0.390666,-0.07987 -0.56288,-0.252082 -0.107809,-0.10781 -0.1805992,-0.22682 -0.2184022,-0.357031 -0.0364,-0.12881 -0.03433,-0.261106 0.0063,-0.396917 0.042,-0.137211 0.1266942,-0.269506 0.2541052,-0.396917 0.190416,-0.190416 0.386436,-0.287008 0.588054,-0.289808 z m 0.121544,0.399567 c -0.02328,-7e-4 -0.04697,0.0019 -0.07113,0.0079 -0.09661,0.0238 -0.201641,0.09237 -0.315051,0.20578 -0.112009,0.112009 -0.18127,0.217735 -0.207872,0.317143 -0.0252,0.09801 0.0042,0.188996 0.08821,0.273003 0.08121,0.08121 0.17081,0.10923 0.268818,0.08403 0.09941,-0.0266 0.205134,-0.09593 0.317143,-0.207941 0.11341,-0.11341 0.181979,-0.218374 0.20578,-0.314982 0.0238,-0.09661 -0.0056,-0.186281 -0.08821,-0.268888 -0.06196,-0.06195 -0.127861,-0.09392 -0.197691,-0.09602 z m -2.3573762,0.354171 c 0.07018,0 0.140362,0.02691 0.194136,0.08068 l 2.7177522,2.7178221 c 0.107547,0.107547 0.107547,0.280723 0,0.38827 -0.107547,0.107547 -0.196645,0.191555 -0.196645,0.191555 L 8.3736858,9.1546399 c 0,0 -0.195361,-0.198153 -0.352708,-0.03766 0.157349,-0.160497 0.298935,-0.29684 0.352709,-0.350613 0.05377,-0.05377 0.123957,-0.08068 0.194134,-0.08068 z m -3.554262,0.08989 c -0.02524,0 -0.05053,0.0097 -0.06987,0.02901 -0.01934,0.01934 -0.07019,0.06836 -0.126789,0.126061 0.05658,-0.05772 0.126773,0.01353 0.126773,0.01353 l 1.046266,1.046266 c 0,0 0.03203,-0.03022 0.07071,-0.0689 0.03867,-0.03867 0.03867,-0.10093 0,-0.139604 l -0.9773,-0.97737 c -0.01934,-0.01934 -0.04457,-0.02901 -0.0698,-0.02901 z m -0.167568,0.170426 c -0.02524,0 -0.05046,0.0097 -0.0698,0.02901 l -0.808827,0.808826 c -0.03867,0.03867 -0.03867,0.100931 0,0.139605 l 0.977021,0.9770211 c 0.03868,0.03868 0.100931,0.03867 0.139605,0 l 0.808827,-0.808757 c 0.03867,-0.03867 0.06729,-0.07238 0.06729,-0.07238 L 4.9157928,8.9750179 c -0.01934,-0.01934 -0.04457,-0.02901 -0.0698,-0.02901 z m 3.255948,0.21366 c 0.07018,0 0.140361,0.02691 0.194135,0.08068 L 11.20015,12.144423 c 0,0 -0.07961,0.09356 -0.187162,0.201109 l -2.2491502,2.24922 c -0.107547,0.107547 -0.280723,0.107547 -0.38827,0 l -2.716916,-2.716986 c -0.107547,-0.107547 -0.107547,-0.280723 0,-0.38827 l 2.24915,-2.2491501 c 0.05377,-0.05377 0.123958,-0.08068 0.194136,-0.08068 z m 4.0411352,0.08961 c 0.06686,0.0018 0.132103,0.0142 0.195808,0.03731 0.128811,0.0448 0.248513,0.122507 0.359122,0.233116 0.06581,0.06581 0.121851,0.135758 0.168056,0.209964 0.0462,0.07421 0.08052,0.146374 0.102925,0.21638 L 12.635035,10.09095 c -0.0238,-0.06021 -0.05183,-0.1176351 -0.08403,-0.1722391 -0.0294,-0.0546 -0.06511,-0.1029 -0.107109,-0.144904 -0.08121,-0.08121 -0.172886,-0.115526 -0.275094,-0.102925 -0.100809,0.014 -0.20861,0.07842 -0.323419,0.193229 -0.11341,0.113409 -0.175752,0.2191341 -0.186953,0.3171431 -0.0098,0.09941 0.02452,0.188319 0.102925,0.266726 0.0588,0.0588 0.123223,0.107793 0.193229,0.146996 0.07141,0.0378 0.143504,0.06652 0.21631,0.08612 l -0.258359,0.258289 c -0.07141,-0.0182 -0.142051,-0.04692 -0.212056,-0.08612 -0.06861,-0.0378 -0.140013,-0.09378 -0.214219,-0.167985 -0.110609,-0.110609 -0.187619,-0.228236 -0.231023,-0.352846 -0.0406,-0.124611 -0.0406,-0.253377 0,-0.3863881 0.0406,-0.133011 0.128753,-0.267451 0.264565,-0.403263 0.140011,-0.140011 0.279364,-0.228923 0.417976,-0.266727 0.07001,-0.0196 0.138437,-0.02853 0.205293,-0.02678 z"
     class="ColorScheme-Text" />
</svg>
