<?xml version='1.0' encoding='UTF-8'?>
<svg xmlns:inkscape="http://www.inkscape.org/namespaces/inkscape" xmlns:sodipodi="http://sodipodi.sourceforge.net/DTD/sodipodi-0.dtd" xmlns="http://www.w3.org/2000/svg" xmlns:svg="http://www.w3.org/2000/svg" xmlns:rdf="http://www.w3.org/1999/02/22-rdf-syntax-ns#" xmlns:cc="http://creativecommons.org/ns#" xmlns:dc="http://purl.org/dc/elements/1.1/" width="64" height="64" version="1.1" viewBox="0 0 16.933 16.933" id="svg7" sodipodi:docname="identity.svg" inkscape:version="1.4 (e7c3feb100, 2024-10-09)">
  <sodipodi:namedview id="namedview7" pagecolor="#9c4444" bordercolor="#000000" borderopacity="0.25" inkscape:showpageshadow="2" inkscape:pageopacity="0.0" inkscape:pagecheckerboard="0" inkscape:deskcolor="#d1d1d1" inkscape:zoom="6.15625" inkscape:cx="15.837563" inkscape:cy="29.725888" inkscape:window-width="1183" inkscape:window-height="941" inkscape:window-x="35" inkscape:window-y="32" inkscape:window-maximized="0" inkscape:current-layer="svg7" showgrid="false"/>
  <defs id="defs2">
    <style id="current-color-scheme" type="text/css">.ColorScheme-Text {color:#d8dee9} .ColorScheme-Highlight {color:#3b4252}</style></defs>
  <metadata id="metadata2">
    <rdf:RDF>
      <cc:Work rdf:about="">
        <dc:format>image/svg+xml</dc:format>
        <dc:type rdf:resource="http://purl.org/dc/dcmitype/StillImage"/>
      </cc:Work>
    </rdf:RDF>
  </metadata>
  <g id="g1" transform="matrix(1.539,0,0,1.539,-4.6167501,-4.5199248)" style="fill:currentColor" class="ColorScheme-Text">
    <path id="path60" style="fill:currentColor;fill-opacity:1;stroke:none;stroke-width:0.251611;stroke-dasharray:none;stroke-dashoffset:2.2;stroke-opacity:0.3" d="M 7.0280264,6.7029643 C 6.9640704,6.7022572 6.9000285,6.7071358 6.8363698,6.7181956 6.3014905,6.811165 5.8844505,7.2202377 5.795525,7.7393831 5.6890504,8.3609778 6.1726046,9.0355979 6.8029526,9.1448675 7.3209042,9.2346527 7.865411,8.9479221 8.1072028,8.4583426 8.2122375,8.2456658 8.2162993,8.2276525 8.2162993,7.9334972 c 0,-0.2829804 -0.00648,-0.3189306 -0.092388,-0.500274 C 7.9150241,6.9922457 7.4757188,6.7079003 7.0280264,6.7029611 Z M 10.659188,7.9084371 C 10.240592,7.9268907 9.8323284,8.2126473 9.7131894,8.632802 l -0.047176,0.1661029 -0.2044338,9.9e-4 C 9.1232753,8.8009559 8.8601108,8.9651483 8.7023217,9.273626 8.5898147,9.4935779 8.5999774,9.7030428 8.7372134,9.9734192 l 0.1081142,0.2127898 -0.1803543,0.296332 c -0.6714163,1.102821 -1.1133374,1.81337 -1.127827,1.81337 -0.0093,0 -0.1522755,-0.217817 -0.3174631,-0.484058 C 7.0544964,11.545612 6.8025315,11.147374 6.6594558,10.926792 l -0.2604575,-0.401006 -0.053074,0.06585 c -0.099871,0.123337 -1.583381,2.535972 -1.583381,2.575082 0,0.0117 0.029595,0.02652 0.06536,0.03341 0.035764,0.0068 1.6364257,0.01454 3.5574479,0.0167 3.3034668,0.0036 3.4920968,0.0013 3.4739048,-0.04619 -0.01057,-0.02758 -0.384173,-0.652451 -0.830022,-1.388775 -0.445847,-0.73632 -0.802048,-1.347456 -0.791691,-1.357811 0.01036,-0.01036 0.366209,-0.02804 0.790709,-0.03932 0.801262,-0.02129 0.872947,-0.03218 1.038879,-0.158733 0.187608,-0.143081 0.267495,-0.4510585 0.167083,-0.6452309 C 12.167544,9.4518566 11.96123,9.291583 11.83665,9.2716602 c -0.06068,-0.00971 -0.119643,-0.032344 -0.131212,-0.050126 -0.01157,-0.017784 -0.02842,-0.1702617 -0.03735,-0.3385938 -0.01378,-0.2600511 -0.02745,-0.3252934 -0.0914,-0.4344229 -0.100442,-0.171392 -0.339729,-0.3909906 -0.50568,-0.4643984 -0.13156,-0.058196 -0.272284,-0.081831 -0.411816,-0.07568 z" class="ColorScheme-Text"/>
    <path id="path9" style="fill:currentColor;fill-opacity:1;stroke:none;stroke-width:0.0266845;stroke-dasharray:none;stroke-opacity:1" d="m 9.7749084,3.5535488 v 0.7391963 0.739196 l 1.2151116,-0.0046 1.21511,-0.00502 0.133944,-0.066134 c 0.163938,-0.081036 0.280399,-0.1996303 0.359133,-0.3658309 0.05194,-0.1096323 0.0565,-0.1345414 0.0565,-0.2976039 0,-0.1630623 -0.0045,-0.1875532 -0.0565,-0.2971854 -0.07873,-0.1661979 -0.19478,-0.2847948 -0.358716,-0.3658311 l -0.134361,-0.066134 -1.21511,-0.00502 z m -2.6148127,0.00125 v 0.7379391 0.738359 H 8.3517671 9.5438568 V 4.2927387 3.5547982 H 8.3517671 Z m -0.3382053,0.1586385 -1.0095929,0.00502 -1.009593,0.00502 -0.088737,0.04395 c -0.1143706,0.056454 -0.2385306,0.1812829 -0.2929996,0.2942553 -0.05751,0.1192817 -0.0602,0.3336252 -0.00544,0.4554049 0.06848,0.1522944 0.1960008,0.266678 0.3620637,0.3248111 0.0672,0.023525 0.2216638,0.027734 1.0614957,0.028462 l 0.9828044,8.262e-4 V 4.2923096 Z" class="ColorScheme-Text"/>
  </g>
  </svg>
