<?xml version="1.0" encoding="UTF-8" standalone="no"?>
<svg
   width="64"
   height="64"
   version="1.1"
   viewBox="0 0 16.933 16.933"
   id="svg7"
   sodipodi:docname="inspector.svg"
   inkscape:version="1.4.3 (0d15f75042, 2025-12-25)"
   xmlns:inkscape="http://www.inkscape.org/namespaces/inkscape"
   xmlns:sodipodi="http://sodipodi.sourceforge.net/DTD/sodipodi-0.dtd"
   xmlns="http://www.w3.org/2000/svg"
   xmlns:svg="http://www.w3.org/2000/svg"
   xmlns:rdf="http://www.w3.org/1999/02/22-rdf-syntax-ns#"
   xmlns:cc="http://creativecommons.org/ns#"
   xmlns:dc="http://purl.org/dc/elements/1.1/">
  <sodipodi:namedview
     id="namedview7"
     pagecolor="#9c4444"
     bordercolor="#000000"
     borderopacity="0.25"
     inkscape:showpageshadow="2"
     inkscape:pageopacity="0.0"
     inkscape:pagecheckerboard="0"
     inkscape:deskcolor="#d1d1d1"
     inkscape:zoom="6.15625"
     inkscape:cx="15.837563"
     inkscape:cy="27.370558"
     inkscape:window-width="1183"
     inkscape:window-height="941"
     inkscape:window-x="0"
     inkscape:window-y="0"
     inkscape:window-maximized="0"
     inkscape:current-layer="svg7"
     showgrid="false" />
  <defs
     id="defs2">
    <style
       id="current-color-scheme"
       type="text/css">.ColorScheme-Text {color:#d8dee9} .ColorScheme-Highlight {color:#3b4252}</style>
  </defs>
  <metadata
     id="metadata2">
    <rdf:RDF>
      <cc:Work
         rdf:about="">
        <dc:format>image/svg+xml</dc:format>
        <dc:type
           rdf:resource="http://purl.org/dc/dcmitype/StillImage" />
      </cc:Work>
    </rdf:RDF>
  </metadata>
  <path
     id="path72"
     style="fill:currentColor;fill-opacity:1;stroke:none;stroke-width:0.45217;stroke-dasharray:none;stroke-dashoffset:2.2;stroke-opacity:0.3"
     d="m 2.0862719,8.4806304 c 0,4.3170636 6.457e-4,4.3349426 0.1086308,4.4722666 0.2427515,0.308605 -0.1216402,0.292321 6.247396,0.292321 3.5148083,0 5.8938183,-0.02013 5.9709703,-0.04946 0.172906,-0.06573 0.338204,-0.251103 0.394771,-0.442451 0.02611,-0.08828 0.04305,-2.016929 0.03795,-4.3901354 -0.0088,-4.0634777 -0.01318,-4.2389955 -0.107727,-4.3786559 -0.21213,-0.3129818 0.148845,-0.2958549 -6.2924399,-0.2958549 -5.3706274,0 -5.9151938,0.00753 -6.0460403,0.084796 -0.3308307,0.195424 -0.3135232,-0.061812 -0.3135232,4.707182 z M 3.1248546,15.47782 H 3.7739684 4.423967 V 14.803094 14.127485 H 3.7739684 3.1248546 v 0.675609 z m 0,-12.6202005 H 3.7739684 4.423967 V 2.1563987 1.4551798 H 3.7739684 3.1248546 V 2.1563987 Z M 3.644146,10.907524 v -0.311752 -0.310867 h 0.8054311 0.80455 v 0.310867 0.311752 h -0.80455 z m 0,-2.1292717 V 8.4665001 8.1547487 h 2.1557679 2.1548825 v 0.2773084 c 0,0.1523487 -0.015381,0.2927068 -0.034442,0.3117518 -0.019044,0.019042 -0.9884913,0.034442 -2.1548842,0.034442 z m 0,-2.1813781 V 6.3116178 6.025475 H 5.2541271 6.8649909 V 6.3116178 6.5968742 H 5.2541271 Z M 5.5137719,15.47782 H 6.1637701 6.8128846 V 14.803094 14.127485 H 6.1637701 5.5137719 v 0.675609 z m 0,-12.6202005 H 6.1637701 6.8128846 V 2.1563987 1.4551798 H 6.1637701 5.5137719 v 0.7012189 z m 0.2605292,8.0499045 v -0.312635 -0.312634 l 0.8177966,0.01414 0.8177955,0.01414 0.015005,0.261412 c 0.00843,0.143903 -8.308e-4,0.278161 -0.021188,0.298486 -0.020325,0.02032 -0.3956998,0.03709 -0.8336925,0.03709 z M 7.3842823,6.5968742 V 6.3116178 6.025475 H 8.1888312 8.9942634 V 6.3116178 6.5968742 H 8.1888312 Z M 7.903574,10.907524 v -0.311752 -0.310867 h 1.609981 1.60998 v 0.310867 0.311752 H 9.513555 Z M 7.954798,15.47782 H 8.5783002 9.2018034 V 14.803094 14.127485 H 8.5782998 7.9547964 v 0.675609 z m 0,-12.6202005 H 8.5783013 9.2018042 V 2.1563987 1.4551798 H 8.5782998 7.9547964 V 2.1563987 Z M 8.4175663,8.1547487 H 10.5751 12.733518 V 8.4673831 8.7791347 L 10.590998,8.7658994 8.4484772,8.7526641 8.4334723,8.4541598 Z M 9.513555,6.5968742 V 6.3116178 6.025475 h 1.895239 1.896122 v 0.2861428 0.2852564 h -1.896122 z m 0.831043,8.8809458 h 0.649114 0.649116 v -0.674726 -0.675609 h -0.649116 -0.649114 v 0.675609 z m 0,-12.6202005 h 0.649114 0.649116 V 2.1563987 1.4551798 h -0.649116 -0.649114 v 0.7012189 z m 2.38892,12.6202005 h 0.649115 0.649114 v -0.674726 -0.675609 h -0.649114 -0.649115 v 0.675609 z m 0,-12.6202005 h 0.649115 0.649114 V 2.1563987 1.4551798 h -0.649114 -0.649115 v 0.7012189 z"
     class="ColorScheme-Text" />
</svg>
