<?xml version="1.0" encoding="UTF-8" standalone="no"?>
<svg
   width="64"
   height="64"
   version="1.1"
   viewBox="0 0 16.933 16.933"
   id="svg7"
   sodipodi:docname="io.github.cboxdoerfer.FSearch.svg"
   inkscape:version="1.4.3 (0d15f75042, 2025-12-25)"
   xmlns:inkscape="http://www.inkscape.org/namespaces/inkscape"
   xmlns:sodipodi="http://sodipodi.sourceforge.net/DTD/sodipodi-0.dtd"
   xmlns="http://www.w3.org/2000/svg"
   xmlns:svg="http://www.w3.org/2000/svg"
   xmlns:rdf="http://www.w3.org/1999/02/22-rdf-syntax-ns#"
   xmlns:cc="http://creativecommons.org/ns#"
   xmlns:dc="http://purl.org/dc/elements/1.1/">
  <sodipodi:namedview
     id="namedview7"
     pagecolor="#9c4444"
     bordercolor="#000000"
     borderopacity="0.25"
     inkscape:showpageshadow="2"
     inkscape:pageopacity="0.0"
     inkscape:pagecheckerboard="0"
     inkscape:deskcolor="#d1d1d1"
     inkscape:zoom="4.3531262"
     inkscape:cx="89.935366"
     inkscape:cy="34.457995"
     inkscape:window-width="2560"
     inkscape:window-height="1388"
     inkscape:window-x="0"
     inkscape:window-y="0"
     inkscape:window-maximized="1"
     inkscape:current-layer="svg7"
     showgrid="false" />
  <defs
     id="defs2">
    <style
       id="current-color-scheme"
       type="text/css">.ColorScheme-Text {color:#d8dee9} .ColorScheme-Highlight {color:#3b4252}</style>
  </defs>
  <metadata
     id="metadata2">
    <rdf:RDF>
      <cc:Work
         rdf:about="">
        <dc:format>image/svg+xml</dc:format>
        <dc:type
           rdf:resource="http://purl.org/dc/dcmitype/StillImage" />
      </cc:Work>
    </rdf:RDF>
  </metadata>
  <path
     d="m 6.9592267,1.4551747 c -3.028229,0 -5.504052,2.4758239 -5.504052,5.5040546 0,3.0282307 2.475823,5.5040537 5.504052,5.5040537 a 5.4640248,5.4640248 0 0 0 3.1142943,-0.975718 l 3.683717,3.684714 a 1.0007372,1.0007372 0 1 0 1.41504,-1.415042 l -3.683713,-3.684715 a 5.4640248,5.4640248 0 0 0 0.974718,-3.1132927 c 0,-3.0282307 -2.4758233,-5.5040546 -5.5040563,-5.5040546 z m 0,1.2509213 A 4.2531329,4.2531329 0 0 1 11.21236,6.9592293 4.2531329,4.2531329 0 0 1 6.9592267,11.212362 4.2531329,4.2531329 0 0 1 2.7060937,6.9592293 4.2531329,4.2531329 0 0 1 6.9592267,2.706096 Z"
     style="fill:currentColor"
     id="path5"
     class="ColorScheme-Text" />
</svg>
