<?xml version="1.0" encoding="UTF-8" standalone="no"?>
<svg
   width="64"
   height="64"
   version="1.1"
   viewBox="0 0 16.933 16.933"
   id="svg7"
   sodipodi:docname="io.gitlab.theevilskeleton.Upscaler.svg"
   inkscape:version="1.4.2 (ebf0e940d0, 2025-05-08)"
   xmlns:inkscape="http://www.inkscape.org/namespaces/inkscape"
   xmlns:sodipodi="http://sodipodi.sourceforge.net/DTD/sodipodi-0.dtd"
   xmlns="http://www.w3.org/2000/svg"
   xmlns:svg="http://www.w3.org/2000/svg"
   xmlns:rdf="http://www.w3.org/1999/02/22-rdf-syntax-ns#"
   xmlns:cc="http://creativecommons.org/ns#"
   xmlns:dc="http://purl.org/dc/elements/1.1/">
  <sodipodi:namedview
     id="namedview7"
     pagecolor="#9c4444"
     bordercolor="#000000"
     borderopacity="0.25"
     inkscape:showpageshadow="2"
     inkscape:pageopacity="0.0"
     inkscape:pagecheckerboard="0"
     inkscape:deskcolor="#d1d1d1"
     inkscape:zoom="11.313709"
     inkscape:cx="45.917745"
     inkscape:cy="17.854445"
     inkscape:window-width="2560"
     inkscape:window-height="1388"
     inkscape:window-x="0"
     inkscape:window-y="0"
     inkscape:window-maximized="1"
     inkscape:current-layer="svg7"
     showgrid="false">
    <inkscape:grid
       id="grid1"
       units="px"
       originx="0"
       originy="0"
       spacingx="0.26457812"
       spacingy="0.26457812"
       empcolor="#0099e5"
       empopacity="0.30196078"
       color="#0099e5"
       opacity="0.14902"
       empspacing="5"
       enabled="true"
       visible="false" />
  </sodipodi:namedview>
  <defs
     id="defs2">
    <style
       id="current-color-scheme"
       type="text/css">.ColorScheme-Text {color:#d8dee9} .ColorScheme-Highlight {color:#3b4252}</style>
  </defs>
  <metadata
     id="metadata2">
    <rdf:RDF>
      <cc:Work
         rdf:about="">
        <dc:format>image/svg+xml</dc:format>
        <dc:type
           rdf:resource="http://purl.org/dc/dcmitype/StillImage" />
      </cc:Work>
    </rdf:RDF>
  </metadata>
  <path
     id="path5"
     style="fill:currentColor;fill-opacity:1;stroke-width:0.126351"
     d="m 2.9443096,1.4551797 c -0.5499854,0 -0.9927534,0.458939 -0.9927534,1.029109 V 13.934157 c 0,0.57017 0.442768,1.029109 0.9927534,1.029109 H 8.4187527 V 13.211163 H 2.7625309 c -0.1737954,0 -0.3136283,-0.145089 -0.3136286,-0.325262 V 2.3798266 c 0,-0.1801739 0.1398332,-0.3252629 0.3136286,-0.3252629 h 5.6562218 v -0.599384 z m 5.7182691,0 V 14.963266 h 0.241159 V 1.4551797 Z m 0.484985,0 v 0.599384 h 5.0229053 c 0.173796,0 0.313629,0.145089 0.313629,0.3252629 V 12.885901 c 0,0.180173 -0.139833,0.325262 -0.313629,0.325262 H 9.1475637 v 1.752103 h 4.8411273 c 0.549985,0 0.992753,-0.458939 0.992753,-1.029109 V 2.4842887 c 0,-0.57017 -0.442768,-1.029109 -0.992753,-1.029109 z m 0.764924,1.4864639 V 3.9850525 H 10.919299 V 2.9416436 Z m -0.761289,0.2508543 v 2.6224589 h 0.516251 V 4.7746986 H 10.674019 V 4.2390578 H 9.6674497 V 3.1924979 Z M 8.4187528,4.6481807 a 1.0915792,1.514397 15.855548 0 0 -0.0099,1.1158781 1.0915792,1.514397 15.855548 0 0 0.0099,0.029085 z m -2.31901,0.081437 -1.2903851,0.024722 0.39555,1.2736619 a 1.4846901,1.1134204 39.051973 0 0 1.685693,1.2486975 1.4846901,1.1134204 39.051973 0 0 0.894836,-1.297899 h 2.48e-4 A 1.4846901,1.1134204 39.051973 0 0 6.0997428,4.7296177 Z m 3.8127449,0.2990862 v 1.0402583 h -0.764924 v 1.0436513 h 0.764924 v 0.00291 h 3.0199483 v 1.0407429 h 1.006569 V 7.1128579 h -1.006569 v -1.040743 h -2.013137 v -1.043409 z m 3.0199483,3.1275609 h -1.006568 v 1.043409 h 1.006568 z M 8.4187527,6.8763014 a 0.73538206,0.76237056 0 0 0 -0.478683,0.920769 0.73538206,0.76237056 0 0 0 0.478683,0.5261883 z m 0.732446,0.4905597 v 0.5351561 h 0.516251 V 7.3668611 Z m 1.0063263,0 v 1.5785651 h 1.523063 v -1.043409 h 1.00681 V 7.366861 H 10.919299 Z M 6.9017497,7.9805455 a 1.1121651,1.4863659 49.085168 0 0 -1.646913,1.3039583 l -0.356286,1.2860232 1.290627,-0.01794 a 1.1121651,1.4863659 49.085168 0 0 1.64643,-1.3037162 1.1121651,1.4863659 49.085168 0 0 -0.933858,-1.2680873 z m 2.245814,0.1723261 v 1.0436513 h 0.764924 V 8.1528716 Z m 0.764924,1.0436513 v 2.0873031 h -0.764924 v 1.043408 H 10.919299 V 9.1965228 Z m -1.493735,0.027388 a 1.5156742,1.0906594 76.617976 0 0 -0.09428,0.1972904 1.5156742,1.0906594 76.617976 0 0 0.09428,1.4930077 z m 0.732446,0.2268597 v 1.5788074 h 0.516251 V 9.4507705 Z M 1.9968796,14.75822 c 0.1262143,0.417904 0.5016324,0.7196 0.94743,0.7196 H 13.988691 c 0.445797,0 0.821215,-0.301696 0.94743,-0.7196 -0.22675,0.279832 -0.566919,0.457597 -0.94743,0.457597 H 2.9443096 c -0.380511,0 -0.7206803,-0.177765 -0.94743,-0.457597 z"
     class="ColorScheme-Text" />
</svg>
