<?xml version="1.0" encoding="UTF-8" standalone="no"?>
<svg
   width="64"
   height="64"
   version="1.1"
   viewBox="0 0 16.933 16.933"
   id="svg7"
   sodipodi:docname="io.github.TheWisker.Cavasik.svg"
   inkscape:version="1.4.2 (ebf0e940d0, 2025-05-08)"
   xmlns:inkscape="http://www.inkscape.org/namespaces/inkscape"
   xmlns:sodipodi="http://sodipodi.sourceforge.net/DTD/sodipodi-0.dtd"
   xmlns="http://www.w3.org/2000/svg"
   xmlns:svg="http://www.w3.org/2000/svg"
   xmlns:rdf="http://www.w3.org/1999/02/22-rdf-syntax-ns#"
   xmlns:cc="http://creativecommons.org/ns#"
   xmlns:dc="http://purl.org/dc/elements/1.1/">
  <sodipodi:namedview
     id="namedview7"
     pagecolor="#9c4444"
     bordercolor="#000000"
     borderopacity="0.25"
     inkscape:showpageshadow="2"
     inkscape:pageopacity="0.0"
     inkscape:pagecheckerboard="0"
     inkscape:deskcolor="#d1d1d1"
     inkscape:zoom="4.3531261"
     inkscape:cx="36.295755"
     inkscape:cy="40.660435"
     inkscape:window-width="2560"
     inkscape:window-height="1376"
     inkscape:window-x="0"
     inkscape:window-y="0"
     inkscape:window-maximized="1"
     inkscape:current-layer="svg7"
     showgrid="false" />
  <defs
     id="defs2">
    <style
       id="current-color-scheme"
       type="text/css">.ColorScheme-Text {color:#d8dee9} .ColorScheme-Highlight {color:#3b4252}</style>
  </defs>
  <metadata
     id="metadata2">
    <rdf:RDF>
      <cc:Work
         rdf:about="">
        <dc:format>image/svg+xml</dc:format>
        <dc:type
           rdf:resource="http://purl.org/dc/dcmitype/StillImage" />
      </cc:Work>
    </rdf:RDF>
  </metadata>
  <path
     id="rect2751"
     class="ColorScheme-Text"
     style="fill:currentColor;fill-opacity:1;stroke-width:0.379094"
     d="m 2.468368,3.3846295 c -0.630055,0 -1.137283,0.5072286 -1.137283,1.1372837 v 6.4046248 l -0.0082,7.58e-4 v 1.315724 c 0,0.633452 0.429655,1.1682 1.013633,1.300916 l 0.02073,0.0044 h 11.988124 c 0.134485,0 0.264536,-0.01627 0.387979,-0.04665 l 0.01032,-0.0022 0.01032,-0.0037 c 0.501359,-0.186346 0.853824,-0.678712 0.853824,-1.252794 V 5.0883279 h 0.0023 V 4.5219073 c 0,-0.6300551 -0.507229,-1.1372837 -1.137283,-1.1372837 z m 12.764084,1.9036176 v 6.9547559 c 0,0.41842 -0.254616,0.762858 -0.604181,0.895907 -0.08954,0.02083 -0.1837,0.03406 -0.28284,0.03406 H 2.413578 C 2.007002,13.076586 1.698333,12.704539 1.698333,12.243001 V 11.264908 C 4.123174,11.060026 5.886748,10.373766 7.386972,8.2425172 8.435699,6.7525355 9.452045,6.0296392 10.701828,5.6599356 11.907077,5.3034064 13.365264,5.2890694 15.232452,5.2882457 Z m -1.984323,1.29055 A 1.1905962,1.1905962 0 0 0 12.059757,7.6050182 1.1905962,1.1905962 0 0 0 12.208581,8.3609858 1.1905962,1.1905962 0 0 0 11.60662,8.0914734 1.1905962,1.1905962 0 0 0 10.26276,9.1058474 1.1905962,1.1905962 0 0 0 10.387888,9.81739 1.1905962,1.1905962 0 0 0 9.819245,9.5730519 1.1905962,1.1905962 0 0 0 8.475386,10.588166 a 1.1905962,1.1905962 0 0 0 1.015114,1.34312 1.1905962,1.1905962 0 0 0 1.343121,-1.014374 1.1905962,1.1905962 0 0 0 -0.123653,-0.710802 1.1905962,1.1905962 0 0 0 0.567161,0.243598 1.1905962,1.1905962 0 0 0 1.343859,-1.0151144 1.1905962,1.1905962 0 0 0 -0.148823,-0.7552276 1.1905962,1.1905962 0 0 0 0.6027,0.2695128 1.1905962,1.1905962 0 0 0 1.343861,-1.0151147 1.1905962,1.1905962 0 0 0 -1.015115,-1.3431203 1.1905962,1.1905962 0 0 0 -0.155487,-0.011849 z m 0.0148,0.6175098 a 0.5738445,0.5738445 0 0 1 0.05554,0.00519 0.5738445,0.5738445 0 0 1 0.04072,0.00666 0.5738445,0.5738445 0 0 1 0.03998,0.010359 0.5738445,0.5738445 0 0 1 0.0385,0.01185 0.5738445,0.5738445 0 0 1 0.0385,0.01629 0.5738445,0.5738445 0 0 1 0.03628,0.018511 0.5738445,0.5738445 0 0 1 0.0348,0.020733 0.5738445,0.5738445 0 0 1 0.03406,0.022954 0.5738445,0.5738445 0 0 1 0.03184,0.025176 0.5738445,0.5738445 0 0 1 0.03036,0.027397 0.5738445,0.5738445 0 0 1 0.02814,0.030357 0.5738445,0.5738445 0 0 1 0.02592,0.031836 0.5738445,0.5738445 0 0 1 0.0237,0.033319 0.5738445,0.5738445 0 0 1 0.02073,0.03554 0.5738445,0.5738445 0 0 1 0.01851,0.036279 0.5738445,0.5738445 0 0 1 0.01629,0.037762 0.5738445,0.5738445 0 0 1 0.01261,0.039242 0.5738445,0.5738445 0 0 1 0.01118,0.039242 0.5738445,0.5738445 0 0 1 0.0067,0.039983 0.5738445,0.5738445 0 0 1 0.0052,0.041463 0.5738445,0.5738445 0 0 1 0.0014,0.039983 0.5738445,0.5738445 0 0 1 -0.0014,0.041463 0.5738445,0.5738445 0 0 1 -0.0044,0.040724 0.5738445,0.5738445 0 0 1 -0.02592,0.1095811 0.5738445,0.5738445 0 0 1 -0.04813,0.101437 0.5738445,0.5738445 0 0 1 -0.06515,0.091072 0.5738445,0.5738445 0 0 1 -0.08366,0.077003 0.5738445,0.5738445 0 0 1 -0.09551,0.058494 0.5738445,0.5738445 0 0 1 -0.105886,0.038502 0.5738445,0.5738445 0 0 1 -0.110328,0.017768 0.5738445,0.5738445 0 0 1 -0.113279,-0.00444 0.5738445,0.5738445 0 0 1 -0.108837,-0.026653 0.5738445,0.5738445 0 0 1 -0.102175,-0.047386 0.5738445,0.5738445 0 0 1 -0.09107,-0.065897 0.5738445,0.5738445 0 0 1 -0.07627,-0.082928 0.5738445,0.5738445 0 0 1 -0.05849,-0.096254 0.5738445,0.5738445 0 0 1 -0.03925,-0.1058802 0.5738445,0.5738445 0 0 1 -0.01702,-0.1103219 0.5738445,0.5738445 0 0 1 0.0044,-0.1125442 0.5738445,0.5738445 0 0 1 0.02592,-0.1088418 0.5738445,0.5738445 0 0 1 0.04738,-0.1029185 0.5738445,0.5738445 0 0 1 0.06664,-0.091072 0.5738445,0.5738445 0 0 1 0.08219,-0.075523 0.5738445,0.5738445 0 0 1 0.097,-0.059233 0.5738445,0.5738445 0 0 1 0.105141,-0.038502 0.5738445,0.5738445 0 0 1 0.111058,-0.017029 0.5738445,0.5738445 0 0 1 0.05627,-7.582e-4 z M 11.465191,8.697136 a 0.5738445,0.5738445 0 0 1 0.05627,0.00519 0.5738445,0.5738445 0 0 1 0.04072,0.00666 0.5738445,0.5738445 0 0 1 0.03998,0.010359 0.5738445,0.5738445 0 0 1 0.0385,0.01185 0.5738445,0.5738445 0 0 1 0.03777,0.01629 0.5738445,0.5738445 0 0 1 0.03628,0.018511 0.5738445,0.5738445 0 0 1 0.03553,0.019989 0.5738445,0.5738445 0 0 1 0.03406,0.023693 0.5738445,0.5738445 0 0 1 0.03184,0.025176 0.5738445,0.5738445 0 0 1 0.03036,0.027397 0.5738445,0.5738445 0 0 1 0.02814,0.030357 0.5738445,0.5738445 0 0 1 0.02517,0.031836 0.5738445,0.5738445 0 0 1 0.0237,0.033319 0.5738445,0.5738445 0 0 1 0.02148,0.03554 0.5738445,0.5738445 0 0 1 0.01777,0.036279 0.5738445,0.5738445 0 0 1 0.01629,0.037762 0.5738445,0.5738445 0 0 1 0.01261,0.039242 0.5738445,0.5738445 0 0 1 0.01118,0.039242 0.5738445,0.5738445 0 0 1 0.0074,0.039983 0.5738445,0.5738445 0 0 1 0.0044,0.041463 0.5738445,0.5738445 0 0 1 0.0014,0.039983 0.5738445,0.5738445 0 0 1 -0.0014,0.041463 0.5738445,0.5738445 0 0 1 -0.0044,0.040722 0.5738445,0.5738445 0 0 1 -0.02517,0.1095826 0.5738445,0.5738445 0 0 1 -0.04813,0.1014372 0.5738445,0.5738445 0 0 1 -0.0659,0.091071 0.5738445,0.5738445 0 0 1 -0.08293,0.077004 0.5738445,0.5738445 0 0 1 -0.09551,0.058493 0.5738445,0.5738445 0 0 1 -0.105886,0.038502 0.5738445,0.5738445 0 0 1 -0.111058,0.017768 0.5738445,0.5738445 0 0 1 -0.112549,-0.00444 0.5738445,0.5738445 0 0 1 -0.109582,-0.026654 0.5738445,0.5738445 0 0 1 -0.10143,-0.047387 0.5738445,0.5738445 0 0 1 -0.09107,-0.065897 0.5738445,0.5738445 0 0 1 -0.077,-0.082927 0.5738445,0.5738445 0 0 1 -0.05849,-0.096254 0.5738445,0.5738445 0 0 1 -0.0385,-0.1058801 0.5738445,0.5738445 0 0 1 -0.01702,-0.1103234 0.5738445,0.5738445 0 0 1 0.0044,-0.1125442 0.5738445,0.5738445 0 0 1 0.02665,-0.1088418 0.5738445,0.5738445 0 0 1 0.04665,-0.1029185 0.5738445,0.5738445 0 0 1 0.06589,-0.091072 0.5738445,0.5738445 0 0 1 0.08293,-0.075523 0.5738445,0.5738445 0 0 1 0.09626,-0.059233 0.5738445,0.5738445 0 0 1 0.105885,-0.038501 0.5738445,0.5738445 0 0 1 0.110328,-0.017029 0.5738445,0.5738445 0 0 1 0.05627,-7.582e-4 z M 9.62155,10.179455 a 0.5738445,0.5738445 0 0 1 0.112548,0.0044 0.5738445,0.5738445 0 0 1 0.04072,0.0074 0.5738445,0.5738445 0 0 1 0.03998,0.01037 0.5738445,0.5738445 0 0 1 0.0385,0.01185 0.5738445,0.5738445 0 0 1 0.0385,0.01555 0.5738445,0.5738445 0 0 1 0.03628,0.01851 0.5738445,0.5738445 0 0 1 0.0348,0.02073 0.5738445,0.5738445 0 0 1 0.03406,0.02369 0.5738445,0.5738445 0 0 1 0.03184,0.02518 0.5738445,0.5738445 0 0 1 0.03036,0.02739 0.5738445,0.5738445 0 0 1 0.02814,0.03036 0.5738445,0.5738445 0 0 1 0.02517,0.03184 0.5738445,0.5738445 0 0 1 0.0237,0.03332 0.5738445,0.5738445 0 0 1 0.02148,0.0348 0.5738445,0.5738445 0 0 1 0.01777,0.03702 0.5738445,0.5738445 0 0 1 0.01702,0.03776 0.5738445,0.5738445 0 0 1 0.01261,0.0385 0.5738445,0.5738445 0 0 1 0.01032,0.03998 0.5738445,0.5738445 0 0 1 0.0074,0.03998 0.5738445,0.5738445 0 0 1 0.0044,0.04072 0.5738445,0.5738445 0 0 1 0.0023,0.04072 0.5738445,0.5738445 0 0 1 -0.0023,0.04072 0.5738445,0.5738445 0 0 1 -0.0044,0.04146 0.5738445,0.5738445 0 0 1 -0.02517,0.109582 0.5738445,0.5738445 0 0 1 -0.04813,0.101437 0.5738445,0.5738445 0 0 1 -0.0659,0.09107 0.5738445,0.5738445 0 0 1 -0.08293,0.07626 0.5738445,0.5738445 0 0 1 -0.09551,0.05849 0.5738445,0.5738445 0 0 1 -0.105886,0.03924 0.5738445,0.5738445 0 0 1 -0.111058,0.01777 0.5738445,0.5738445 0 0 1 -0.112549,-0.0052 0.5738445,0.5738445 0 0 1 -0.109582,-0.02591 0.5738445,0.5738445 0 0 1 -0.101445,-0.04739 0.5738445,0.5738445 0 0 1 -0.09107,-0.06664 0.5738445,0.5738445 0 0 1 -0.077,-0.08219 0.5738445,0.5738445 0 0 1 -0.05776,-0.09625 0.5738445,0.5738445 0 0 1 -0.03924,-0.105879 0.5738445,0.5738445 0 0 1 -0.01777,-0.111063 0.5738445,0.5738445 0 0 1 0.0044,-0.111803 0.5738445,0.5738445 0 0 1 0.02665,-0.109582 0.5738445,0.5738445 0 0 1 0.04738,-0.102178 0.5738445,0.5738445 0 0 1 0.06664,-0.09107 0.5738445,0.5738445 0 0 1 0.08219,-0.07626 0.5738445,0.5738445 0 0 1 0.09626,-0.05849 0.5738445,0.5738445 0 0 1 0.105886,-0.0385 0.5738445,0.5738445 0 0 1 0.110328,-0.01777 z" />
</svg>
