<?xml version="1.0" encoding="UTF-8" standalone="no"?>
<svg
   width="64"
   height="64"
   version="1.1"
   viewBox="0 0 16.933 16.933"
   id="svg7"
   sodipodi:docname="io.github.thetumultuousunicornofdarkness.cpu-x.svg"
   inkscape:version="1.4.2 (ebf0e940d0, 2025-05-08)"
   xmlns:inkscape="http://www.inkscape.org/namespaces/inkscape"
   xmlns:sodipodi="http://sodipodi.sourceforge.net/DTD/sodipodi-0.dtd"
   xmlns="http://www.w3.org/2000/svg"
   xmlns:svg="http://www.w3.org/2000/svg"
   xmlns:rdf="http://www.w3.org/1999/02/22-rdf-syntax-ns#"
   xmlns:cc="http://creativecommons.org/ns#"
   xmlns:dc="http://purl.org/dc/elements/1.1/">
  <sodipodi:namedview
     id="namedview7"
     pagecolor="#9c4444"
     bordercolor="#000000"
     borderopacity="0.25"
     inkscape:showpageshadow="2"
     inkscape:pageopacity="0.0"
     inkscape:pagecheckerboard="0"
     inkscape:deskcolor="#d1d1d1"
     inkscape:zoom="8.7062522"
     inkscape:cx="83.847789"
     inkscape:cy="47.207454"
     inkscape:window-width="2560"
     inkscape:window-height="1392"
     inkscape:window-x="0"
     inkscape:window-y="0"
     inkscape:window-maximized="1"
     inkscape:current-layer="svg7"
     showgrid="false" />
  <defs
     id="defs2">
    <style
       id="current-color-scheme"
       type="text/css">.ColorScheme-Text {color:#d8dee9} .ColorScheme-Highlight {color:#3b4252}</style>
  </defs>
  <metadata
     id="metadata2">
    <rdf:RDF>
      <cc:Work
         rdf:about="">
        <dc:format>image/svg+xml</dc:format>
        <dc:type
           rdf:resource="http://purl.org/dc/dcmitype/StillImage" />
      </cc:Work>
    </rdf:RDF>
  </metadata>
  <path
     id="path1"
     class="ColorScheme-Text"
     d="m 6.1428015,1.4551798 c -0.39448,0 -0.713046,0.3200381 -0.713046,0.7145179 v 1.153684 h 1.427564 v -1.153684 c 0,-0.3944798 -0.320038,-0.7145179 -0.714518,-0.7145179 z m 2.323698,0 c -0.394479,0 -0.714517,0.3200381 -0.714517,0.7145179 v 1.153684 h 1.429035 v -1.153684 c 0,-0.3944798 -0.320038,-0.7145179 -0.714518,-0.7145179 z m 2.3222265,0 c -0.39448,0 -0.713046,0.3200381 -0.713046,0.7145179 v 1.153684 h 1.427564 v -1.153684 c 0,-0.3944798 -0.320038,-0.7145179 -0.714518,-0.7145179 z M 4.7539235,4.0096215 c -0.410854,0 -0.744302,0.333448 -0.744302,0.7443025 v 7.425152 c 0,0.410855 0.333448,0.744303 0.744302,0.744303 h 7.4251525 c 0.410854,0 0.744302,-0.333448 0.744302,-0.744303 V 4.753924 c 0,-0.4108545 -0.333448,-0.7443025 -0.744302,-0.7443025 z m 3.84195,0.9428653 h 6.9e-5 c 0.508709,0.014499 1.065471,0.3375918 1.101236,1.0595719 0.01806,0.3685401 -0.04744,0.749203 0.04769,1.1057894 0.221531,0.8316961 1.1725465,1.4318782 1.1862755,2.2920649 0.003,0.196359 -0.01626,0.4011989 -0.05714,0.605035 -0.02927,-0.01036 -0.06019,-0.016976 -0.0924,-0.021362 -0.07149,-0.00964 -0.148796,-0.00787 -0.224547,-0.00993 -0.0092,0.01962 -0.02093,0.038298 -0.03478,0.056145 -0.09698,0.124947 -0.297573,0.201768 -0.441118,0.161931 -0.08669,-0.02413 -0.1734075,-0.09459 -0.2339615,-0.181308 v -4.5e-4 c -0.03634,-0.052117 -0.06351,-0.1097974 -0.07552,-0.1669294 -0.0011,9.887e-4 -0.0024,0.00198 -0.0034,0.00301 -0.01437,-0.086536 5.84e-4,-0.1778952 0.05909,-0.2598092 0.06028,-0.084192 0.1894005,-0.091344 0.3005485,-0.073537 C 10.060996,9.2637967 9.9280155,9.0315058 9.8611285,8.8366811 9.7451505,8.4968807 9.6101795,8.4021406 9.4870775,8.1004924 9.3691385,7.8120892 9.4832105,7.2890201 9.1900205,7.0538269 c 0.01859,-0.034299 0.02713,-0.071267 0.02184,-0.1122908 -0.009,-0.070322 -0.06145,-0.1138115 -0.130162,-0.1465255 a 0.37693368,0.48731777 0 0 0 0.133654,-0.3725792 0.37693368,0.48731777 0 0 0 -0.377064,-0.4873004 0.37693368,0.48731777 0 0 0 -0.37703,0.4873004 0.37693368,0.48731777 0 0 0 0.01041,0.1143105 c -0.04879,-0.014706 -0.09853,-0.022607 -0.149504,-0.01989 -0.04097,0.00216 -0.08056,0.011246 -0.11924,0.025334 a 0.26629529,0.39677228 0 0 0 0.0089,-0.1023282 0.26629529,0.39677228 0 0 0 -0.266246,-0.3969202 0.26629529,0.39677228 0 0 0 -0.266279,0.3969202 0.26629529,0.39677228 0 0 0 0.139096,0.3482381 c -0.09454,0.06792 -0.18477,0.1451139 -0.181308,0.2493674 0.0028,0.090164 0.08006,0.1525994 0.16443,0.2071558 -0.227739,0.2283386 -0.08421,0.4547939 -0.196234,0.7759695 -0.116743,0.3347128 -0.410736,0.7725843 -0.498735,1.1902126 -0.03561,0.1686294 -0.08075,0.3373215 -0.111777,0.5067118 l 0.837455,1.0238311 c 0.138469,0.169074 -0.143556,0.142848 -0.474394,-0.02383 -0.02061,-0.02036 -0.0401,-0.04173 -0.05765,-0.0646 -0.172443,-0.225347 -0.205732,-0.557622 -0.424719,-0.7376953 -0.06233,-0.051257 -0.141504,-0.098093 -0.222562,-0.1172206 -0.0101,-0.00239 -0.02016,-0.00395 -0.0303,-0.00544 -0.0023,-3.371e-4 -0.0046,-0.00124 -0.0069,-0.00155 a 0.26807566,0.26807566 0 0 0 -0.0064,-0.00103 c -0.0087,-9.213e-4 -0.01767,-0.00144 -0.02633,-0.00155 -0.02031,-2.472e-4 -0.04035,0.00189 -0.06012,0.00647 -0.07732,0.017933 -0.130532,0.077235 -0.179837,0.1445401 -0.0039,0.00534 -0.0076,0.010547 -0.0114,0.01592 -0.01236,-0.1875494 -0.01208,-0.3719099 -8.98e-4,-0.5454657 0.05596,-0.8657772 0.989786,-1.4670688 1.20216,-2.3084292 0.09157,-0.3626916 0.0032,-0.7483065 0.01589,-1.1221879 0.02798,-0.8164366 0.481161,-1.00114 0.945844,-1.0253028 0.03329,-0.0018 0.06737,-0.0024 0.101267,-0.00151 z m -6.426176,0.4772695 c -0.39448,0 -0.714518,0.3200382 -0.714518,0.714518 0,0.3944798 0.320038,0.7145177 0.714518,0.7145177 h 1.153684 V 5.4297563 Z m 11.4399215,0 v 1.4275638 h 1.153683 c 0.394481,0 0.714518,-0.3200382 0.714518,-0.714518 0,-0.3944798 -0.320037,-0.7130458 -0.714518,-0.7130458 z M 8.7916635,6.2470474 a 0.15438512,0.25510425 0 0 1 0.154502,0.2548453 0.15438512,0.25510425 0 0 1 -0.07402,0.2180766 c -0.02738,-0.00953 -0.05308,-0.020008 -0.07652,-0.031291 -0.04702,-0.022521 -0.09467,-0.048137 -0.142554,-0.073023 a 0.15438512,0.25510425 0 0 1 -0.01592,-0.1137627 0.15438512,0.25510425 0 0 1 0.154503,-0.2548453 z m -0.844508,0.065081 a 0.11750565,0.18999288 0 0 1 0.117255,0.1897644 0.11750565,0.18999288 0 0 1 -0.03328,0.1331397 c -0.02694,0.018441 -0.05345,0.037897 -0.07898,0.057104 a 0.11750565,0.18999288 0 0 1 -0.005,0 0.11750565,0.18999288 0 0 1 -0.117734,-0.1902437 0.11750565,0.18999288 0 0 1 0.117734,-0.1897644 z m 0.405068,0.3063001 c 0.05415,0.0018 0.111293,0.019405 0.173674,0.047381 0.07129,0.031975 0.14698,0.076923 0.228039,0.1157484 0.06878,0.033131 0.205252,0.07163 0.260768,0.094386 0.03612,0.014805 0.06412,0.03142 0.07949,0.045224 0.01541,0.013801 0.01932,0.020521 0.02136,0.036255 0.0028,0.021854 -8.76e-4,0.037409 -0.01493,0.060117 -0.01406,0.022706 -0.04062,0.049613 -0.07549,0.076995 -0.06975,0.054764 -0.169206,0.1076337 -0.253339,0.1668954 -0.06804,0.047976 -0.136443,0.096635 -0.202705,0.1316332 -0.06627,0.034997 -0.12881,0.05527 -0.188258,0.054673 -0.05976,-6.291e-4 -0.121824,-0.022704 -0.188259,-0.060117 -0.06643,-0.037412 -0.135226,-0.088855 -0.20517,-0.138104 -0.06423,-0.045257 -0.134039,-0.082651 -0.182814,-0.120233 -0.04878,-0.037579 -0.06665,-0.064385 -0.06755,-0.091373 -0.0011,-0.032119 0.01803,-0.064576 0.06755,-0.1087988 0.04952,-0.044223 0.121134,-0.089048 0.185793,-0.1381039 0.05754,-0.043659 0.115956,-0.086626 0.173366,-0.1182474 0.0574,-0.031622 0.11282,-0.051365 0.165423,-0.054126 0.0076,-4.045e-4 0.0153,-4.719e-4 0.02304,-2.054e-4 z m -6.182526,1.133554 c -0.39448,0 -0.714518,0.320038 -0.714518,0.7145178 0,0.3944798 0.320038,0.7145178 0.714518,0.7145178 h 1.153684 V 7.7519824 Z m 11.4399215,0 v 1.4290356 h 1.153683 c 0.394481,0 0.714518,-0.320038 0.714518,-0.7145178 0,-0.3944798 -0.320037,-0.7145178 -0.714518,-0.7145178 z M 6.5820705,9.8937558 v 1.712e-4 c 0.0051,0 0.01032,-3.1e-6 0.0154,4.494e-4 l 0.002,4.494e-4 h 4.49e-4 v 4.494e-4 h 0.0015 c 0.0014,3.371e-4 0.0039,0.00106 0.0075,0.00151 0.0091,0.00126 0.0158,0.00226 0.02136,0.00346 0.05998,0.014153 0.129354,0.053405 0.182814,0.097364 0.08839,0.072685 0.145772,0.1838518 0.201678,0.3144478 0.05416,0.126513 0.111571,0.282453 0.207156,0.407362 0.05251,0.06843 0.120968,0.125473 0.179323,0.172852 0.06024,0.04891 0.116148,0.09363 0.158473,0.14009 0.01177,0.0129 0.02235,0.02523 0.03081,0.03677 0.0088,0.01198 0.01674,0.02448 0.02434,0.03824 0.0097,0.01771 0.01994,0.03676 0.0303,0.05614 0.04256,0.0797 0.08303,0.164789 0.102808,0.240946 0.01979,0.07616 0.01904,0.137493 -0.0064,0.187778 -0.03577,0.07056 -0.100229,0.125482 -0.187265,0.167888 -0.130554,0.06361 -0.307539,0.09309 -0.45803,0.09887 -0.05445,0.0022 -0.11387,-0.01881 -0.184286,-0.05217 -0.065994,-0.03128 -0.154678,-0.07992 -0.242397,-0.104319 -0.123648,-0.03445 -0.257985,-0.04176 -0.369087,-0.05416 -0.114684,-0.0128 -0.215233,-0.03232 -0.296098,-0.08045 -0.072017,-0.04277 -0.148123,-0.09579 -0.206129,-0.15351 -0.054113,-0.05385 -0.0903,-0.109804 -0.102328,-0.164909 l 0.07946,-0.110785 c 0.01403,-0.01958 0.02687,-0.04301 0.03379,-0.07056 0.0283,-0.112004 -0.0043,-0.223692 -0.02931,-0.309963 -0.01292,-0.04453 -0.02516,-0.08561 -0.03228,-0.121705 -0.0072,-0.03609 -0.0085,-0.0662 -0.0045,-0.09141 8.54e-4,-0.0058 0.0016,-0.01098 0.003,-0.01589 0.0016,-0.0058 0.0042,-0.01188 0.0075,-0.01838 0.03537,-0.07093 0.12678,-0.114976 0.249881,-0.165937 0.0183,-0.0076 0.0398,-0.01784 0.05265,-0.02335 0.0123,-0.0053 0.03089,-0.01242 0.04868,-0.02037 h 8.99e-4 l 0.01493,-0.0079 0.005,-0.002 4.49e-4,-4.49e-4 0.05464,-0.02684 v -0.0025 c 0.02299,-0.01362 0.04542,-0.02889 0.06707,-0.04618 0.01087,-0.0087 0.02091,-0.01778 0.02879,-0.02533 0.0089,-0.0085 0.01796,-0.01762 0.02633,-0.02684 0.04619,-0.05066 0.08741,-0.114912 0.11972,-0.158953 0.04565,-0.062312 0.08236,-0.096943 0.122698,-0.1063 0.01201,-0.00279 0.02408,-0.00415 0.03677,-0.00401 z m 3.161496,0.1549472 c 0.0015,0.0025 0.003,0.005 0.0045,0.0075 v 0.0015 l 0.01787,0.02533 v 4.5e-4 c 0.06928,0.09921 0.174103,0.187709 0.2885995,0.219583 0.187048,0.05191 0.426936,-0.0435 0.545432,-0.196201 0.0043,-0.0055 0.0084,-0.0112 0.01243,-0.01691 0.05712,9.21e-4 0.110084,0.0018 0.155461,0.008 0.0305,0.0041 0.05682,0.01007 0.07949,0.01886 0.02266,0.0088 0.0418,0.02025 0.05861,0.03526 0.01949,0.01745 0.03243,0.0393 0.04273,0.07354 0.01027,0.03408 0.01587,0.07903 0.02085,0.129134 0.0058,0.05864 0.01226,0.138049 0.03133,0.206163 0.01219,0.04357 0.03039,0.08758 0.06012,0.128655 0.0064,0.0089 0.01296,0.01637 0.01835,0.02188 0.0021,0.0022 0.0095,0.01041 0.0189,0.01787 l 0.02732,0.02136 h 0.0045 l 0.01243,0.0079 h 0.0034 l 0.01342,0.0075 h 0.0025 c 0.02407,0.0111 0.05047,0.02123 0.0596,0.02581 0.0038,0.0019 0.0061,0.0038 0.008,0.005 8.53e-4,0.0034 0.0021,0.0072 0.003,0.01191 0.01223,0.05651 -2.92e-4,0.126048 -0.0328,0.200686 -0.03251,0.07463 -0.08344,0.151538 -0.134133,0.217597 -0.05721,0.07441 -0.14351,0.129519 -0.245396,0.183808 -0.0987,0.05259 -0.220983,0.109025 -0.322904,0.186786 -0.07259,0.05519 -0.136599,0.13324 -0.186273,0.186751 -0.05298,0.05708 -0.10045,0.0985 -0.152003,0.116742 -0.141774,0.05028 -0.3170765,0.08868 -0.4620015,0.07802 -0.09662,-0.0071 -0.177167,-0.03426 -0.236461,-0.08644 -0.04733,-0.0418 -0.07135,-0.109271 -0.07847,-0.200686 -0.0071,-0.09141 0.0048,-0.19961 0.01688,-0.297091 0.0088,-0.0709 0.04442,-0.144123 0.0899,-0.226019 v -4.49e-4 c 0.0041,-0.0073 0.0082,-0.01429 0.01243,-0.02184 0.03042,-0.05421 0.06526,-0.115642 0.09141,-0.178844 v -6.08e-4 l 0.0075,-0.01787 v -0.001 c 0.0072,-0.01889 0.0136,-0.03825 0.01938,-0.05864 0.01084,-0.03851 0.01918,-0.07821 0.02482,-0.117221 v -4.53e-4 c 2.92e-4,-0.0022 6.29e-4,-0.0042 9.21e-4,-0.0064 v -4.49e-4 c 0.0152,-0.110951 0.01384,-0.229378 0.01637,-0.330368 0.0018,-0.071 0.0055,-0.13865 0.01592,-0.200206 0.0068,-0.03978 0.01607,-0.07651 0.02931,-0.111263 l 8.99e-4,-0.002 c 0.0019,-0.0049 0.0039,-0.01007 0.006,-0.01493 l 4.49e-4,-4.5e-4 c 0.0058,-0.01359 0.01166,-0.026 0.01838,-0.03824 0.0035,-0.0063 0.0071,-0.01255 0.01092,-0.01886 z m -7.573869,0.02698 c -0.39448,0 -0.714518,0.318566 -0.714518,0.713046 0,0.39448 0.320038,0.714518 0.714518,0.714518 h 1.153684 V 10.07568 Z m 11.4399215,0 v 1.427564 h 1.153683 c 0.394481,0 0.714518,-0.320038 0.714518,-0.714518 0,-0.39448 -0.320037,-0.713046 -0.714518,-0.713046 z m -4.1105585,0.852827 v 6.9e-5 c -0.0269,0.06379 -0.06284,0.124509 -0.09689,0.185793 v 4.49e-4 c -0.04655,0.08384 -0.08978,0.168342 -0.101335,0.261795 -0.01202,0.0971 -0.02509,0.209547 -0.01739,0.313935 -0.225152,-0.03497 -0.459504,-0.09914 -0.676585,-0.08446 -0.370057,0.0253 -0.773341,0.290274 -1.125646,0.282678 0.149965,-0.04817 0.282585,-0.128905 0.348204,-0.258337 0.07504,-0.14816 -1.6e-4,-0.333583 -0.08244,-0.491785 0.249948,0.150763 0.536771,0.245727 0.821639,0.226532 0.308528,-0.02071 0.646304,-0.198993 0.930438,-0.436667 z m -4.069305,2.681111 v 1.153685 c 0,0.394479 0.320039,0.714517 0.714518,0.714517 0.39448,0 0.714518,-0.320038 0.714518,-0.714517 v -1.153685 z m 2.322227,0 v 1.153685 c 0,0.394479 0.320038,0.714517 0.714517,0.714517 0.39448,0 0.714518,-0.320038 0.714518,-0.714517 v -1.153685 z m 2.3251705,0 v 1.153685 h -0.0015 c 0,0.394479 0.320038,0.714517 0.714517,0.714517 0.394481,0 0.714552,-0.320038 0.714552,-0.714517 v -1.153685 z"
     style="fill:currentColor;fill-opacity:1;stroke-width:0.014886" />
</svg>
