<?xml version='1.0' encoding='UTF-8'?>
<svg xmlns:inkscape="http://www.inkscape.org/namespaces/inkscape" xmlns:sodipodi="http://sodipodi.sourceforge.net/DTD/sodipodi-0.dtd" xmlns="http://www.w3.org/2000/svg" xmlns:svg="http://www.w3.org/2000/svg" xmlns:rdf="http://www.w3.org/1999/02/22-rdf-syntax-ns#" xmlns:cc="http://creativecommons.org/ns#" xmlns:dc="http://purl.org/dc/elements/1.1/" width="64" height="64" version="1.1" viewBox="0 0 16.933 16.933" id="svg7" sodipodi:docname="io.github.diegoivan.pdf_metadata_editor.svg" inkscape:version="1.4 (e7c3feb100, 2024-10-09)">
  <sodipodi:namedview id="namedview7" pagecolor="#9c4444" bordercolor="#000000" borderopacity="0.25" inkscape:showpageshadow="2" inkscape:pageopacity="0.0" inkscape:pagecheckerboard="0" inkscape:deskcolor="#d1d1d1" inkscape:zoom="6.15625" inkscape:cx="22.822335" inkscape:cy="29.725888" inkscape:window-width="1183" inkscape:window-height="941" inkscape:window-x="35" inkscape:window-y="32" inkscape:window-maximized="0" inkscape:current-layer="svg7" showgrid="false"/>
  <defs id="defs2">
    <style id="current-color-scheme" type="text/css">.ColorScheme-Text {color:#d8dee9} .ColorScheme-Highlight {color:#3b4252}</style></defs>
  <metadata id="metadata2">
    <rdf:RDF>
      <cc:Work rdf:about="">
        <dc:format>image/svg+xml</dc:format>
        <dc:type rdf:resource="http://purl.org/dc/dcmitype/StillImage"/>
      </cc:Work>
    </rdf:RDF>
  </metadata>
  <path style="fill:currentColor;fill-opacity:1;stroke-width:0.0292317" d="m 7.2913632,15.409311 c -0.1291126,-0.06734 -0.188822,-0.129143 -0.246878,-0.255558 -0.064615,-0.140714 -0.067668,-0.269194 -0.00971,-0.408973 0.031179,-0.07522 1.0805864,-1.144591 3.5748668,-3.642912 2.69475,-2.69912 3.562081,-3.5844771 3.663155,-3.739298 0.70171,-1.0748408 0.712668,-2.3969482 0.02842,-3.4285705 C 13.481589,2.698278 11.869764,2.2204902 10.509411,2.8100072 9.967225,3.0449652 10.059758,2.9592503 6.3216418,6.6892136 4.418134,8.5885703 2.7854923,10.236051 2.693549,10.350283 c -0.3097771,0.384868 -0.4582328,0.809268 -0.4582328,1.309974 0,0.968371 0.6289663,1.780154 1.5768062,2.035124 0.2800999,0.07534 0.7544654,0.07024 1.0412241,-0.01121 0.2622477,-0.0745 0.5163539,-0.195076 0.7024874,-0.33333 0.072542,-0.05383 1.5513378,-1.519331 3.2862117,-3.256618 C 10.971889,7.9614036 12.015576,6.8968785 12.055517,6.8165769 12.17896,6.5684088 12.182019,6.2331866 12.063117,5.9648 11.995759,5.8122276 11.793492,5.6015719 11.63934,5.5232731 11.356834,5.3797752 10.981865,5.3856802 10.713129,5.5378628 10.632682,5.5834187 9.4601252,6.7325214 7.591891,8.5966741 5.946083,10.238889 4.5679268,11.598623 4.529322,11.618313 4.4321788,11.667853 4.1860234,11.663128 4.083408,11.609848 3.9688264,11.550257 3.8812613,11.452496 3.8277278,11.324372 3.768197,11.181891 3.7719248,11.05774 3.8399448,10.917674 3.8784369,10.838501 4.871189,9.8287348 6.9397678,7.7647409 10.23868,4.4731391 10.103967,4.5960372 10.584332,4.439835 c 0.165828,-0.053922 0.312101,-0.07817 0.52975,-0.087816 0.393175,-0.017423 0.648765,0.036345 1.002161,0.2108323 0.225922,0.1115509 0.313316,0.1758887 0.516247,0.3800745 0.781455,0.7862836 0.801339,1.9557825 0.04778,2.8096689 C 12.562639,7.8859035 11.089361,9.3679368 9.4063507,11.046005 6.188665,14.254238 6.207368,14.236874 5.703561,14.483285 4.0177229,15.307799 1.945824,14.438479 1.3506268,12.656858 1.250609,12.357472 1.1780469,11.926601 1.1779673,11.631617 1.1776893,11.023887 1.4148019,10.299299 1.7782565,9.7962984 1.8454804,9.7032687 3.5193191,8.0086559 5.4979004,6.0304923 8.7069447,2.8221263 9.1245262,2.4145566 9.3658305,2.2552902 9.8561006,1.9317006 10.355406,1.7203387 10.899341,1.6061328 c 0.361648,-0.075932 1.2668,-0.077115 1.61789,-0.00215 1.444192,0.3085102 2.621187,1.3369025 3.086696,2.6969852 0.158897,0.4642209 0.214121,0.8038389 0.216554,1.3315371 0.0044,0.9524588 -0.24265,1.7160977 -0.80594,2.4912642 -0.190893,0.2626969 -7.1338704,7.2234827 -7.2689241,7.2875697 -0.1176385,0.05582 -0.3452123,0.0548 -0.4542501,-0.0023 z" id="path99" class="ColorScheme-Text"/>
  <g id="g9" transform="matrix(0.46959567,0,0,0.46959567,4.7471229,3.7470598)" style="fill:#999999;fill-opacity:1;stroke:none;stroke-width:0.58349;stroke-dasharray:none;stroke-opacity:0.3"/>
  </svg>
