<?xml version='1.0' encoding='UTF-8'?>
<svg xmlns:inkscape="http://www.inkscape.org/namespaces/inkscape" xmlns:sodipodi="http://sodipodi.sourceforge.net/DTD/sodipodi-0.dtd" xmlns="http://www.w3.org/2000/svg" xmlns:svg="http://www.w3.org/2000/svg" xmlns:rdf="http://www.w3.org/1999/02/22-rdf-syntax-ns#" xmlns:cc="http://creativecommons.org/ns#" xmlns:dc="http://purl.org/dc/elements/1.1/" width="64" height="64" version="1.1" viewBox="0 0 16.933 16.933" id="svg7" sodipodi:docname="io.github.OpenToonz.svg" inkscape:version="1.4.2 (ebf0e940d0, 2025-05-08)">
  <sodipodi:namedview id="namedview7" pagecolor="#9c4444" bordercolor="#000000" borderopacity="0.25" inkscape:showpageshadow="2" inkscape:pageopacity="0.0" inkscape:pagecheckerboard="0" inkscape:deskcolor="#d1d1d1" inkscape:zoom="6.15625" inkscape:cx="15.918782" inkscape:cy="27.28934" inkscape:window-width="2560" inkscape:window-height="1376" inkscape:window-x="0" inkscape:window-y="0" inkscape:window-maximized="1" inkscape:current-layer="svg7" showgrid="false"/>
  <defs id="defs2">
    <style id="current-color-scheme" type="text/css">.ColorScheme-Text {color:#d8dee9} .ColorScheme-Highlight {color:#3b4252}</style>
  </defs>
  <metadata id="metadata2">
    <rdf:RDF>
      <cc:Work rdf:about="">
        <dc:format>image/svg+xml</dc:format>
        <dc:type rdf:resource="http://purl.org/dc/dcmitype/StillImage"/>
      </cc:Work>
    </rdf:RDF>
  </metadata>
  <path id="rect3" class="ColorScheme-Text" style="fill:currentColor;fill-opacity:1" d="M 14.000105 -22.000499 A 14 14 0 0 0 28.000102 -8.0005016 A 14 14 0 0 0 42.000099 -22.000499 A 14 14 0 0 0 28.000102 -36.000496 A 14 14 0 0 0 25.999854 -35.856004 L 25.999854 -43.000494 L 45.863068 -43.000494 L 45.863068 -46.99925 L 25.999854 -46.99925 L 25.999854 -55.999497 L 21.999357 -55.999497 L 21.999357 -34.649588 A 14 14 0 0 0 14.000105 -22.000499 z M 18.200801 -22.000499 A 9.8 9.8 0 0 1 28.000102 -31.7998 A 9.8 9.8 0 0 1 37.799404 -22.000499 A 9.8 9.8 0 0 1 28.000102 -12.199456 A 9.8 9.8 0 0 1 18.200801 -22.000499 z " transform="matrix(0,0.2968384,-0.2968384,0,-1.0323289,-0.43152179)"/>
</svg>
