<?xml version="1.0" encoding="UTF-8" standalone="no"?>
<svg
   width="64"
   height="64"
   version="1.1"
   viewBox="0 0 16.933 16.933"
   id="svg7"
   sodipodi:docname="jack-plug.svg"
   inkscape:version="1.4.3 (0d15f75042, 2025-12-25)"
   xmlns:inkscape="http://www.inkscape.org/namespaces/inkscape"
   xmlns:sodipodi="http://sodipodi.sourceforge.net/DTD/sodipodi-0.dtd"
   xmlns="http://www.w3.org/2000/svg"
   xmlns:svg="http://www.w3.org/2000/svg"
   xmlns:rdf="http://www.w3.org/1999/02/22-rdf-syntax-ns#"
   xmlns:cc="http://creativecommons.org/ns#"
   xmlns:dc="http://purl.org/dc/elements/1.1/">
  <sodipodi:namedview
     id="namedview7"
     pagecolor="#9c4444"
     bordercolor="#000000"
     borderopacity="0.25"
     inkscape:showpageshadow="2"
     inkscape:pageopacity="0.0"
     inkscape:pagecheckerboard="0"
     inkscape:deskcolor="#d1d1d1"
     inkscape:zoom="4.3531262"
     inkscape:cx="90.165086"
     inkscape:cy="34.457995"
     inkscape:window-width="2560"
     inkscape:window-height="1388"
     inkscape:window-x="0"
     inkscape:window-y="0"
     inkscape:window-maximized="1"
     inkscape:current-layer="svg7"
     showgrid="false" />
  <defs
     id="defs2">
    <style
       id="current-color-scheme"
       type="text/css">.ColorScheme-Text {color:#d8dee9} .ColorScheme-Highlight {color:#3b4252}</style>
  </defs>
  <metadata
     id="metadata2">
    <rdf:RDF>
      <cc:Work
         rdf:about="">
        <dc:format>image/svg+xml</dc:format>
        <dc:type
           rdf:resource="http://purl.org/dc/dcmitype/StillImage" />
      </cc:Work>
    </rdf:RDF>
  </metadata>
  <path
     id="path5"
     d="m 8.4664995,1.4551795 a 7.0113204,7.0113204 0 0 0 -7.01132,7.01132 7.0113204,7.0113204 0 0 0 7.01132,7.0113215 7.0113204,7.0113204 0 0 0 7.0113205,-7.0113215 7.0113204,7.0113204 0 0 0 -7.0113205,-7.01132 z m 3.2884815,1.950002 h 0.652284 v 0.652283 L 11.914067,4.2218455 11.5906,3.8983795 Z m -0.63784,0.577448 0.71273,0.712729 -0.216911,0.21691 -0.712729,-0.712729 z m -0.495765,0.495765 0.712729,0.712729 -0.960665,0.960611 -0.7126745,-0.712729 z m -1.2394655,1.239466 0.7127285,0.712675 -0.7127285,0.71273 -0.712729,-0.71273 z m -1.239413,0.743647 1.208495,1.208441 -2.802346,2.8023465 -0.58392,0.194658 -0.819179,-0.8192325 0.194658,-0.58392 z m 3.7733885,3.077724 5.4e-5,5.4e-5 a 1.8310063,1.8310063 0 0 1 0.146622,0.0075 c 0.388493,0.03576 0.752976,0.210367 1.041492,0.5434265 0.349405,0.40337 0.35558,0.959776 0.204179,1.515379 -0.1514,0.555559 -0.459661,1.138938 -0.801419,1.67778 a 12.439638,12.439638 0 0 1 -0.263502,0.39782 h -0.48282 c 0.138583,-0.192614 0.278979,-0.397188 0.413334,-0.60906 0.329773,-0.519977 0.620199,-1.07947 0.753918,-1.570262 0.133741,-0.49077 0.111532,-0.884173 -0.121748,-1.153451 -0.22881,-0.264152 -0.479795,-0.3813405 -0.779594,-0.4089475 -0.299822,-0.02763 -0.652255,0.04487 -1.039192,0.1963165 -0.773874,0.302932 -1.6730895,0.915218 -2.5711525,1.530088 -0.89804,0.614893 -1.794324,1.232568 -2.616621,1.544265 -0.411148,0.155849 -0.807852,0.237092 -1.182015,0.184442 -0.374142,-0.05265 -0.717941,-0.250619 -0.979441,-0.604034 -0.15701,-0.212225 -0.121471,-0.481323 -0.02375,-0.704064 0.09772,-0.222785 0.258385,-0.434787 0.428365,-0.62773 0.213495,-0.242328 0.445128,-0.453168 0.588093,-0.576699 l 0.279924,0.279871 c -0.130586,0.111831 -0.362767,0.319974 -0.572098,0.557548 -0.155126,0.176029 -0.293921,0.367633 -0.363158,0.525454 -0.06926,0.15782 -0.06828,0.246333 -0.02038,0.311056 0.208456,0.281746 0.438749,0.408831 0.717383,0.44805 0.278635,0.0392 0.613435,-0.02093 0.987358,-0.162669 0.747823,-0.283477 1.635617,-0.886024 2.533548,-1.500829 0.897953,-0.614805 1.806545,-1.241708 2.6501605,-1.5719185 0.369102,-0.144477 0.728208,-0.233416 1.072464,-0.229428 z m -6.9959145,0.6406215 0.712676,0.712676 -0.216911,0.21691 -0.712675,-0.712675 z"
     style="fill:currentColor"
     class="ColorScheme-Text" />
</svg>
