<?xml version="1.0" encoding="UTF-8" standalone="no"?>
<svg
   width="64"
   height="64"
   version="1.1"
   viewBox="0 0 16.933 16.933"
   id="svg7"
   sodipodi:docname="jan.svg"
   inkscape:version="1.4.3 (0d15f75042, 2025-12-25)"
   xmlns:inkscape="http://www.inkscape.org/namespaces/inkscape"
   xmlns:sodipodi="http://sodipodi.sourceforge.net/DTD/sodipodi-0.dtd"
   xmlns="http://www.w3.org/2000/svg"
   xmlns:svg="http://www.w3.org/2000/svg"
   xmlns:rdf="http://www.w3.org/1999/02/22-rdf-syntax-ns#"
   xmlns:cc="http://creativecommons.org/ns#"
   xmlns:dc="http://purl.org/dc/elements/1.1/">
  <sodipodi:namedview
     id="namedview7"
     pagecolor="#9c4444"
     bordercolor="#000000"
     borderopacity="0.25"
     inkscape:showpageshadow="2"
     inkscape:pageopacity="0.0"
     inkscape:pagecheckerboard="0"
     inkscape:deskcolor="#d1d1d1"
     inkscape:zoom="4.3531262"
     inkscape:cx="90.165086"
     inkscape:cy="34.457995"
     inkscape:window-width="2560"
     inkscape:window-height="1388"
     inkscape:window-x="0"
     inkscape:window-y="0"
     inkscape:window-maximized="1"
     inkscape:current-layer="svg7"
     showgrid="false" />
  <defs
     id="defs2">
    <style
       id="current-color-scheme"
       type="text/css">.ColorScheme-Text {color:#d8dee9} .ColorScheme-Highlight {color:#3b4252}</style>
  </defs>
  <metadata
     id="metadata2">
    <rdf:RDF>
      <cc:Work
         rdf:about="">
        <dc:format>image/svg+xml</dc:format>
        <dc:type
           rdf:resource="http://purl.org/dc/dcmitype/StillImage" />
      </cc:Work>
    </rdf:RDF>
  </metadata>
  <path
     id="path5"
     style="fill:currentColor"
     d="m 9.2532725,1.8316528 c 0.245508,0.3611829 0.7510185,1.2787786 1.9963035,3.5172979 l 1.380753,2.4819681 a 0.14938869,0.14938869 0 0 1 0.01881,0.072473 v 0.2221255 c 0,0.1200349 -0.01694,0.2914548 -0.05648,0.3858955 -0.04302,0.1029757 -0.287561,0.3954401 -0.405661,0.5299005 -0.530359,0.6038285 -0.732232,0.9426093 -0.880972,1.4616977 -0.104056,0.363173 -0.13624,0.819988 -0.09693,1.267808 0.03905,0.445142 0.148716,0.882106 0.311541,1.210395 -0.0053,-0.01887 -0.01093,-0.03856 -0.01694,-0.0593 -0.09506,-0.324488 -0.177895,-0.913325 -0.177895,-1.264044 0,-0.763709 0.290562,-1.483538 0.86309,-2.1647806 0.365239,-0.4345933 0.448248,-0.5510043 0.571314,-0.8047338 0.0714,-0.147199 0.1191,-0.2988578 0.141175,-0.4367209 0.02208,-0.1378626 0.01749,-0.2618948 -0.0075,-0.3510706 0.0017,0.00596 -0.0089,-0.023401 -0.02728,-0.061179 C 12.839051,7.7827246 12.793051,7.6954 12.731101,7.583381 12.576229,7.3033326 12.320286,6.8624937 11.97531,6.2845123 11.485845,5.4644386 10.715005,4.1703236 10.263257,3.4081779 9.9926005,2.9515531 9.7384115,2.529608 9.5695855,2.255197 9.5020455,2.145433 9.4484085,2.0591153 9.4133475,2.0048355 c -0.0029,-0.00452 -0.03728,-0.055414 -0.03577,-0.053649 -0.0391,-0.045806 -0.0806,-0.085971 -0.124236,-0.1195339 z m -2.714447,0.5251945 c 0.145402,0.1564535 0.36672,0.5207601 1.12851,1.7864147 0.798492,1.3266346 1.271821,2.0912372 1.561465,2.5102042 0.09655,0.1396548 0.172813,0.2407151 0.231536,0.3096575 0.05872,0.068943 0.10167,0.1045057 0.118591,0.1148275 0.03909,0.023835 0.09943,0.038466 0.157186,0.035766 0.01184,-5.783e-4 0.02364,-0.00188 0.03482,-0.00375 C 9.5798615,6.9520332 9.3172135,6.5349445 8.2988805,4.9018827 7.0268585,2.8619906 6.8772715,2.6390733 6.6941185,2.4716814 6.6436985,2.4256114 6.5911925,2.3872164 6.5388275,2.3568539 Z m -1.849475,2.1958404 c 0.175909,0.2006327 0.694651,0.8485958 1.002387,1.2376902 1.017836,1.2869289 1.506039,1.9003434 1.748766,2.1930167 0.08091,0.097557 0.1346,0.1596354 0.169425,0.1967124 0.03085,0.032856 0.04601,0.044191 0.04706,0.045178 h 9.63e-4 c 0.0035,0.00164 0.02814,0.013096 0.05741,0.019768 0.03089,0.00703 0.06817,0.011129 0.09695,0.011293 0.04506,2.473e-4 0.06491,-0.00164 0.07435,-0.00375 C 7.8405615,8.227523 7.7972315,8.196834 7.7661945,8.17071 7.6756745,8.094549 6.6320865,6.8269233 6.3665945,6.5028784 5.6596995,5.6400855 4.9707215,4.8173415 4.8945425,4.7371706 4.8196825,4.6583886 4.7517455,4.5979293 4.6893595,4.5526935 Z M 15.094415,6.9555941 c -0.177785,0.7069092 -0.219338,1.2070413 -0.247537,2.7492712 -0.03213,1.7570867 -0.08415,2.1619177 -0.370838,2.8951587 -0.293442,0.750528 -0.873061,1.48312 -1.600995,2.033953 0.281251,-0.173458 0.543538,-0.369511 0.759555,-0.575079 0.600759,-0.5717 0.973738,-1.246901 1.160511,-2.102661 0.12236,-0.560664 0.148862,-0.950691 0.175071,-2.6325609 0.02076,-1.3321525 0.02619,-1.6726193 0.124237,-2.368082 z M 3.4055405,7.0581855 c 0.123126,0.102595 0.263695,0.2521507 0.453664,0.469663 0.837579,0.9590286 1.335795,1.5144263 1.636761,1.8193572 0.100322,0.1016442 0.178533,0.1757546 0.238126,0.2258901 0.0596,0.050136 0.101488,0.07558 0.119538,0.083767 0.02878,0.013059 0.06209,0.026224 0.08941,0.034827 0.0062,0.00193 0.03486,0.00911 0.03577,0.010346 l 0.03295,-0.00942 c 0.0243,-0.0084 0.05595,-0.022336 0.08754,-0.03859 8.19e-4,-4.269e-4 0.0011,-5.3e-4 0.0018,-9.637e-4 l -9.63e-4,-9.639e-4 C 5.7593215,9.4668775 5.1918375,8.8988481 4.2591755,7.8742032 3.8924005,7.4712553 3.6841145,7.2521772 3.5523275,7.1466491 3.4864305,7.0938836 3.4434455,7.0708958 3.4055065,7.0581753 Z m 4.597806,1.0842727 c -1.75e-4,0.00106 -8.2e-4,0.00255 -9.64e-4,0.00375 l 9.64e-4,-9.639e-4 c 4.64e-4,-5.783e-4 4.82e-4,-0.0013 9.63e-4,-0.00188 z m 0.699128,-6.5296144 c -0.0436,0.00231 -0.08783,0.017522 -0.138353,0.043294 -0.137824,0.070311 -0.277502,0.2035459 -0.314364,0.3002457 -0.04603,0.1207269 -0.02961,0.41329 0.03577,0.6249628 0.03462,0.1121263 0.287088,0.6926131 0.560959,1.2903972 0.859004,1.8749598 1.2658605,2.8348135 1.2960465,3.0598704 0.0133,0.09946 0.0027,0.1160077 -0.129883,0.2193016 -0.1158225,0.090239 -0.1682785,0.1120043 -0.2748335,0.1120043 -0.253981,0 -0.332926,-0.075329 -0.783087,-0.7529671 C 8.6413405,6.0381967 8.3311695,5.5368113 7.5391525,4.2209322 6.5764745,2.6215168 6.4877225,2.4849388 6.3419345,2.3846335 6.2699145,2.3350825 6.1499315,2.277709 6.0746295,2.2575717 6.0150695,2.2416347 5.9673865,2.2193757 5.9550925,2.2039227 l -9.64e-4,-9.637e-4 v -9.639e-4 l -9.65e-4,-9.637e-4 V 2.2000675 2.1991039 2.19814 2.1971761 2.1962124 2.1952485 l 9.65e-4,-9.637e-4 9.64e-4,-9.639e-4 v -9.636e-4 -9.639e-4 -9.637e-4 l -9.64e-4,-9.639e-4 h -9.65e-4 -9.64e-4 -9.63e-4 c -0.03428,0.0077 -0.231158,0.130557 -0.299305,0.1901241 -0.246532,0.2154975 -0.22493,0.6499313 0.06118,1.2198067 0.153069,0.3049004 1.035784,1.8858434 1.799591,3.2245816 0.358711,0.6287176 0.65916,1.1732052 0.66826,1.2094537 0.0208,0.082869 -0.05275,0.2284461 -0.157186,0.3105988 -0.10034,0.07893 -0.312798,0.084019 -0.439544,0.010346 -0.0904,-0.052239 -0.28492,-0.2920795 -2.00845,-2.4712713 C 5.0738915,5.2485293 4.6063965,4.6749559 4.5376285,4.6087087 4.4688485,4.5424607 4.3320595,4.4499439 4.2336175,4.4025837 l -0.178824,-0.086591 -0.12706,0.087532 c -0.0816,0.056137 -0.153834,0.1426109 -0.204243,0.2437729 -0.146694,0.2943859 -0.08784,0.6253386 0.184477,1.0287414 0.08043,0.1191606 0.666008,0.9822459 1.300751,1.9181839 0.634744,0.9359379 1.172552,1.7446637 1.195335,1.7977087 0.05581,0.1299176 0.01658,0.2245847 -0.141175,0.3388352 C 5.9976245,9.9229189 5.8035235,9.8720554 5.4487375,9.5171131 5.1742595,9.2425151 4.5636815,8.5672787 3.9418605,7.8492906 3.3390545,7.1532595 3.2347295,7.0609068 2.9884155,7.0078502 c -0.080978,-0.017449 -0.118845,-0.00632 -0.206124,0.060237 -0.317954,0.2425161 -0.299615,0.6189307 0.05648,1.1652162 0.414872,0.63647 1.973086,2.7349077 2.813275,3.7883667 1.420447,1.781009 2.206635,2.587191 2.901747,2.974219 0.361294,0.201165 0.869596,0.371268 1.325221,0.44331 0.1408115,0.02226 0.4593105,0.03946 0.7077895,0.03859 0.248481,-8.68e-4 0.414509,-0.0072 0.368954,-0.01412 -0.03843,-0.0058 -0.07078,-0.01957 -0.07999,-0.032 l -9.63e-4,-9.64e-4 c -2.12e-4,-4.55e-4 -8.2e-4,-0.0024 -9.64e-4,-0.0028 v -9.64e-4 l -9.63e-4,-9.63e-4 v -9.64e-4 l 9.63e-4,-9.64e-4 v -9.65e-4 -9.64e-4 -9.63e-4 c 1.75e-4,-4.33e-4 7.23e-4,-0.0024 9.64e-4,-0.0028 0.01585,-0.02584 0.119592,-0.065 0.510135,-0.19389 0.3533,-0.116597 1.146534,-0.518872 1.397696,-0.70873 0.711388,-0.537754 1.271338,-1.247159 1.553935,-1.96995 0.279966,-0.71606 0.328648,-1.102306 0.360482,-2.8433923 0.02552,-1.3949495 0.05178,-1.7693513 0.168478,-2.3982004 0.09189,-0.4952071 0.356152,-1.3719177 0.528958,-1.7553547 0.0477,-0.1058244 0.08659,-0.2389076 0.08659,-0.2964807 0,-0.1541986 -0.112799,-0.3319956 -0.270128,-0.4244854 -0.114857,-0.067522 -0.171411,-0.079684 -0.362365,-0.079061 -0.18582,6.023e-4 -0.256437,0.015354 -0.400954,0.085651 -0.334008,0.1624822 -0.71596,0.5932894 -0.904503,1.0202707 -0.151903,0.3440056 -0.385771,1.1632476 -0.458368,1.60382 -0.05643,0.3424899 -0.05555,0.3159253 -0.0273,0.4997817 0.03213,0.2090551 -0.03543,0.5354056 -0.165655,0.8019098 -0.125092,0.2559789 -0.224985,0.396956 -0.588255,0.8292054 -0.553013,0.6580229 -0.828264,1.3450249 -0.828264,2.0678359 0,0.336478 0.08092,0.91127 0.171301,1.222631 0.110832,0.381828 0.116751,0.432413 0.05648,0.455544 -0.09448,0.03625 -0.18589,-0.04162 -0.293663,-0.249421 -0.369175,-0.711827 -0.474725,-1.831232 -0.247539,-2.624091 0.154216,-0.5381809 0.376369,-0.9081739 0.912973,-1.5191109 0.185066,-0.2107025 0.356974,-0.4305362 0.381189,-0.4884874 0.02515,-0.060206 0.04329,-0.2011866 0.04329,-0.3284822 V 7.9029439 L 11.187267,5.5423917 C 9.2390365,2.0385149 9.1697455,1.9189708 8.9998955,1.7662614 8.8862595,1.6640943 8.8041385,1.6154324 8.7212985,1.6128442 c -0.0062,-1.942e-4 -0.01257,-3.295e-4 -0.01882,0 z M 3.4615735,12.914717 c -0.807036,-0.352379 -1.550045,-1.24411 -1.895323,-2.274696 -0.124474,-0.371546 -0.144017,-0.530549 -0.074623,-0.607224 0.06679,-0.073797 0.171593,-0.076982 0.229674,-0.007 0.02406,0.02899 0.07575,0.134028 0.114874,0.233419 0.361788,0.919016 0.97257,1.715973 1.711517,2.233211 0.292343,0.204629 0.337871,0.251181 0.337871,0.345478 0,0.0797 -0.09134,0.177676 -0.164817,0.176802 -0.01694,-2.02e-4 -0.133636,-0.04521 -0.25916,-0.100012 z m 0.897987,-0.6382 c -0.858224,-0.315125 -1.667655,-1.255252 -2.028088,-2.3555566 -0.11635,-0.3551909 -0.1293,-0.5165889 -0.04736,-0.5907339 0.06526,-0.059068 0.166001,-0.064929 0.209669,-0.012203 0.01712,0.020707 0.07408,0.1460752 0.126495,0.2785978 0.373128,0.9431447 1.014986,1.7505837 1.826228,2.2973447 0.18373,0.12383 0.222136,0.171991 0.222136,0.278559 0,0.05614 -0.106624,0.151706 -0.164817,0.147715 -0.01694,-0.0012 -0.08194,-0.02085 -0.144254,-0.04373 z M 12.464312,5.1917687 C 12.439812,5.1627797 12.383282,5.025589 12.338636,4.8869021 12.042322,3.9660788 11.497177,3.1664944 10.763206,2.5761583 10.52928,2.3880109 10.481543,2.3353867 10.481543,2.2656611 c 0,-0.094927 0.08156,-0.1838562 0.168023,-0.1832231 0.08058,5.879e-4 0.46651,0.2154015 0.674434,0.3753943 0.507609,0.3905974 1.000549,1.116077 1.236148,1.8192913 0.0975,0.2909911 0.180299,0.6521869 0.180299,0.7864585 0,0.1604841 -0.178751,0.2434647 -0.276141,0.1281873 z M 13.28781,4.5730977 C 13.27014,4.5517107 13.21315,4.406011 13.161333,4.2493218 13.03063,3.8540366 12.774239,3.3285243 12.53761,2.9708756 12.324125,2.6482083 11.73055,2.0233928 11.468194,1.8451751 11.270513,1.7108916 11.241462,1.5633793 11.393774,1.4673019 c 0.0718,-0.045292 0.274565,0.037195 0.57274,0.2329998 0.696353,0.4572798 1.268654,1.3173002 1.511844,2.2719038 0.08688,0.3410606 0.09557,0.5248546 0.02798,0.5924491 -0.0573,0.057297 -0.174215,0.061814 -0.218517,0.00845 z"
     class="ColorScheme-Text" />
</svg>
