<?xml version="1.0" encoding="UTF-8" standalone="no"?>
<svg
   width="64"
   height="64"
   version="1.1"
   viewBox="0 0 16.933 16.933"
   id="svg7"
   sodipodi:docname="com.github.iwalton3.jellyfin-media-player.svg"
   inkscape:version="1.4.2 (ebf0e940d0, 2025-05-08)"
   xmlns:inkscape="http://www.inkscape.org/namespaces/inkscape"
   xmlns:sodipodi="http://sodipodi.sourceforge.net/DTD/sodipodi-0.dtd"
   xmlns="http://www.w3.org/2000/svg"
   xmlns:svg="http://www.w3.org/2000/svg"
   xmlns:rdf="http://www.w3.org/1999/02/22-rdf-syntax-ns#"
   xmlns:cc="http://creativecommons.org/ns#"
   xmlns:dc="http://purl.org/dc/elements/1.1/">
  <sodipodi:namedview
     id="namedview7"
     pagecolor="#9c4444"
     bordercolor="#000000"
     borderopacity="0.25"
     inkscape:showpageshadow="2"
     inkscape:pageopacity="0.0"
     inkscape:pagecheckerboard="0"
     inkscape:deskcolor="#d1d1d1"
     inkscape:zoom="6.15625"
     inkscape:cx="74.395939"
     inkscape:cy="-11.532995"
     inkscape:window-width="2560"
     inkscape:window-height="1392"
     inkscape:window-x="0"
     inkscape:window-y="0"
     inkscape:window-maximized="1"
     inkscape:current-layer="svg7"
     showgrid="false" />
  <defs
     id="defs2">
    <style
       id="current-color-scheme"
       type="text/css">.ColorScheme-Text {color:#d8dee9} .ColorScheme-Highlight {color:#3b4252}</style>
  </defs>
  <metadata
     id="metadata2">
    <rdf:RDF>
      <cc:Work
         rdf:about="">
        <dc:format>image/svg+xml</dc:format>
        <dc:type
           rdf:resource="http://purl.org/dc/dcmitype/StillImage" />
      </cc:Work>
    </rdf:RDF>
  </metadata>
  <path
     id="path5"
     style="fill:currentColor;fill-opacity:1;stroke-width:0.0301326"
     d="m 8.4673187,1.4551796 c -1.856174,0 -7.82844605,10.8296944 -6.918438,12.6587484 0.910007,1.829055 12.9359083,1.807962 13.8368763,0 C 16.286724,12.305966 10.323493,1.4551796 8.4673187,1.4551796 Z m 0,2.7783 c 1.214347,0 5.1255883,7.1083384 4.5349873,8.2955664 -0.590601,1.184215 -8.4703133,1.199281 -9.0669403,0 -0.596627,-1.199281 3.317605,-8.2955664 4.531953,-8.2955664 z m 0,2.594356 c -0.614707,0 -2.597358,3.5949294 -2.296031,4.2005974 0.301327,0.605667 4.2938643,0.59964 4.5921783,0 C 11.06178,10.428792 9.0850387,6.8278356 8.4673187,6.8278356 Z"
     class="ColorScheme-Text" />
</svg>
