<?xml version="1.0" encoding="UTF-8" standalone="no"?>
<svg
   width="64"
   height="64"
   version="1.1"
   viewBox="0 0 16.933 16.933"
   id="svg7"
   sodipodi:docname="jockey.svg"
   inkscape:version="1.4.3 (0d15f75042, 2025-12-25)"
   xmlns:inkscape="http://www.inkscape.org/namespaces/inkscape"
   xmlns:sodipodi="http://sodipodi.sourceforge.net/DTD/sodipodi-0.dtd"
   xmlns="http://www.w3.org/2000/svg"
   xmlns:svg="http://www.w3.org/2000/svg"
   xmlns:rdf="http://www.w3.org/1999/02/22-rdf-syntax-ns#"
   xmlns:cc="http://creativecommons.org/ns#"
   xmlns:dc="http://purl.org/dc/elements/1.1/">
  <sodipodi:namedview
     id="namedview7"
     pagecolor="#9c4444"
     bordercolor="#000000"
     borderopacity="0.25"
     inkscape:showpageshadow="2"
     inkscape:pageopacity="0.0"
     inkscape:pagecheckerboard="0"
     inkscape:deskcolor="#d1d1d1"
     inkscape:zoom="6.15625"
     inkscape:cx="15.675127"
     inkscape:cy="27.614213"
     inkscape:window-width="2560"
     inkscape:window-height="1388"
     inkscape:window-x="0"
     inkscape:window-y="0"
     inkscape:window-maximized="1"
     inkscape:current-layer="svg7"
     showgrid="false" />
  <defs
     id="defs2">
    <style
       id="current-color-scheme"
       type="text/css">.ColorScheme-Text {color:#d8dee9} .ColorScheme-Highlight {color:#3b4252}</style>
  </defs>
  <metadata
     id="metadata2">
    <rdf:RDF>
      <cc:Work
         rdf:about="">
        <dc:format>image/svg+xml</dc:format>
        <dc:type
           rdf:resource="http://purl.org/dc/dcmitype/StillImage" />
      </cc:Work>
    </rdf:RDF>
  </metadata>
  <path
     id="path72"
     style="fill:currentColor;fill-opacity:1;stroke:none;stroke-width:0.496733;stroke-dasharray:none;stroke-dashoffset:2.2;stroke-opacity:0.3"
     d="m 8.4509712,1.4553641 c -4.7439517,0 -4.7635969,6.845e-4 -4.9145004,0.1193694 -0.3391211,0.2667571 -0.321228,-0.1336876 -0.321228,6.8651614 0,3.8623671 0.022114,6.4766211 0.054345,6.5614011 0.072234,0.189997 0.2759387,0.371646 0.4862089,0.433809 0.097001,0.02868 2.2163684,0.0473 4.8242462,0.04173 4.4652941,-0.0097 4.6581621,-0.01481 4.8116331,-0.11839 0.343931,-0.233111 0.325111,0.163574 0.325111,-6.9146596 0,-5.9016917 -0.0083,-6.5001077 -0.09317,-6.6438923 C 13.408878,1.4363317 13.691549,1.4553497 8.4509827,1.4553515 Z M 0.76187455,2.5966464 V 3.3099479 4.02422 H 1.5033198 2.2457352 V 3.3099479 2.5966464 H 1.5033198 Z m 13.86813045,0 V 3.3099479 4.02422 h 0.770562 0.770558 V 3.3099479 2.5966464 H 15.400567 Z M 5.7840979,3.1672881 H 6.1266764 6.4682845 V 4.052364 4.9364694 H 6.1266764 5.7840979 V 4.052364 Z m 2.3398219,0 h 0.342579 0.3425787 V 5.5362247 7.9041909 H 8.5043476 c -0.1674107,0 -0.3216502,-0.016904 -0.3425789,-0.037848 -0.020925,-0.020926 -0.037847,-1.0862378 -0.037847,-2.3679672 z m 2.3970812,0 h 0.313464 0.314437 V 4.9364694 6.7066213 H 10.834465 10.521001 V 4.9364694 Z M 0.76187455,5.221789 V 5.9360611 6.6493627 H 1.5033198 2.2457352 V 5.9360611 5.221789 H 1.5033198 Z m 13.86813045,0 v 0.7142721 0.7133016 h 0.770562 0.770558 V 5.9360611 5.221789 H 15.400567 Z M 5.7840979,5.5080807 H 6.1276469 6.471196 L 6.455654,6.4067435 6.440112,7.3054056 6.1528501,7.3218756 C 5.9947373,7.3311591 5.8472034,7.3209833 5.8248685,7.2986162 5.8025345,7.2762822 5.7841107,6.8637887 5.7841107,6.3824851 Z m 4.7369031,1.7691816 h 0.313464 0.314437 V 8.1613676 9.0464434 H 10.834465 10.521001 V 8.1613676 Z M 5.7840979,7.8479031 H 6.1266764 6.4682845 V 9.6170848 11.386265 H 6.1266764 5.7840979 V 9.6170848 Z m -5.02222335,0.05629 v 0.6851565 0.685157 H 1.5033198 2.2457352 V 8.5893482 7.9041909 H 1.5033198 Z m 13.86813045,0 v 0.6851576 0.6851569 h 0.770562 0.770558 V 8.5893482 7.9041909 h -0.770558 z m -5.8209275,0.508528 v 2.3708779 2.371847 H 8.4655281 8.1229496 l 0.014554,-2.354378 0.014535,-2.35438 0.3280216,-0.01647 z m 1.7119235,1.2043637 h 0.313464 0.314437 v 2.0826442 2.083618 H 10.834465 10.521001 V 11.699729 Z M 0.76187455,10.530305 v 0.713299 0.713303 H 1.5033198 2.2457352 V 11.243604 10.530305 H 1.5033198 Z m 13.86813045,0 v 0.713299 0.713303 h 0.770562 0.770558 V 11.243604 10.530305 H 15.400567 Z M 0.76187455,13.155446 v 0.713304 0.7133 H 1.5033198 2.2457352 v -0.7133 -0.713304 H 1.5033198 Z m 13.86813045,0 v 0.713304 0.7133 h 0.770562 0.770558 v -0.7133 -0.713304 h -0.770558 z"
     class="ColorScheme-Text" />
</svg>
