<?xml version="1.0" encoding="UTF-8" standalone="no"?>
<svg
   width="64"
   height="64"
   version="1.1"
   viewBox="0 0 16.933 16.933"
   id="svg7"
   sodipodi:docname="k3b.svg"
   inkscape:version="1.4.3 (0d15f75042, 2025-12-25)"
   xmlns:inkscape="http://www.inkscape.org/namespaces/inkscape"
   xmlns:sodipodi="http://sodipodi.sourceforge.net/DTD/sodipodi-0.dtd"
   xmlns="http://www.w3.org/2000/svg"
   xmlns:svg="http://www.w3.org/2000/svg"
   xmlns:rdf="http://www.w3.org/1999/02/22-rdf-syntax-ns#"
   xmlns:cc="http://creativecommons.org/ns#"
   xmlns:dc="http://purl.org/dc/elements/1.1/">
  <sodipodi:namedview
     id="namedview7"
     pagecolor="#9c4444"
     bordercolor="#000000"
     borderopacity="0.25"
     inkscape:showpageshadow="2"
     inkscape:pageopacity="0.0"
     inkscape:pagecheckerboard="0"
     inkscape:deskcolor="#d1d1d1"
     inkscape:zoom="4.3531262"
     inkscape:cx="89.705646"
     inkscape:cy="35.147155"
     inkscape:window-width="2560"
     inkscape:window-height="1388"
     inkscape:window-x="0"
     inkscape:window-y="0"
     inkscape:window-maximized="1"
     inkscape:current-layer="svg7"
     showgrid="false" />
  <defs
     id="defs2">
    <style
       id="current-color-scheme"
       type="text/css">.ColorScheme-Text {color:#d8dee9} .ColorScheme-Highlight {color:#3b4252}</style>
  </defs>
  <metadata
     id="metadata2">
    <rdf:RDF>
      <cc:Work
         rdf:about="">
        <dc:format>image/svg+xml</dc:format>
        <dc:type
           rdf:resource="http://purl.org/dc/dcmitype/StillImage" />
      </cc:Work>
    </rdf:RDF>
  </metadata>
  <path
     id="path5"
     d="M 1.585605,7.0821696 C 1.501135,7.5297985 1.45484,7.9908913 1.45484,8.4637586 c 0,0.4728672 0.04629,0.9346435 0.130765,1.3822725 L 5.661219,9.1648218 c 0.383832,-0.058889 0.701063,-0.3126741 0.701063,-0.7010632 0,-0.3883892 -0.317231,-0.642174 -0.701063,-0.7010634 z M 5.662591,8.1159645 A 0.35053166,0.35053166 0 0 1 6.013122,8.4664963 0.35053166,0.35053166 0 0 1 5.662591,8.8170279 0.35053166,0.35053166 0 0 1 5.312058,8.4664963 0.35053166,0.35053166 0 0 1 5.662591,8.1159645 Z m 5.774872,-5.9960088 c 0.219058,0.201454 0.502213,0.4906357 0.677101,0.8037586 0.306714,0.5478809 0.263073,1.5007137 -0.679156,1.6759796 -0.942229,0.1752658 -0.978071,-0.1454707 -0.974915,-0.5257976 -0.500911,0.069055 -0.725075,1.1791009 0.153356,1.5664384 0.744881,0.3287987 1.018734,0.1978576 2.42086,0.1102247 1.402127,-0.087633 1.566439,1.6212089 0.909192,1.8841077 -0.657247,0.2628987 -0.90814,-0.2062704 -0.865376,-0.4607564 -0.526849,0.2057621 -0.590821,0.7795824 -0.328624,1.051595 2.04956,2.1242223 1.066493,3.7642723 0.50389,3.9325273 -0.697207,0.208216 -1.188653,-0.204115 -0.832513,-0.755151 0.290241,-0.449031 0.03976,-1.19024 -0.312877,-1.4527886 -0.354037,-0.2621977 -1.037546,-0.1993369 -1.33024,-0.0048 0.422041,0.1594916 1.040729,0.4051266 0.87633,0.9530076 -0.126896,0.423092 -0.543062,0.690004 -1.06255,0.679839 -1.184446,-0.02314 -0.809289,-1.093906 -0.646293,-1.216592 -0.636564,-0.07887 -1.062022,1.083388 -0.646291,1.479489 0.408719,0.389791 0.983065,0.607296 0.635337,1.204952 C 9.569792,13.67274 9.058365,14.009951 8.182037,13.834685 7.305707,13.659419 6.823902,13.100847 6.933267,12.585916 7.042983,12.070985 7.298346,12.001773 7.743872,11.993711 7.46625,11.405168 6.100579,11.401925 6.122662,12.420921 6.13388,12.947069 5.252906,13.034159 4.884848,12.44353 4.468416,11.775417 4.820788,11.489295 5.29015,11.600064 5.321698,10.856235 4.687762,11.216757 4.523363,10.395111 4.451025,10.033569 4.675598,9.7100213 4.949889,9.4612735 L 1.628051,10.016509 c 0.701761,3.13316 3.488649,5.461312 6.839475,5.461312 3.883892,0 7.010634,-3.126743 7.010634,-7.0106342 0,-2.8208404 -1.65206,-5.2334413 -4.040697,-6.347224 z M 8.532568,4.6106479 A 3.8558483,3.8558483 0 0 0 8.259398,4.6202139 3.8558483,3.8558483 0 0 0 7.877375,4.6667712 3.8558483,3.8558483 0 0 0 7.500827,4.7509799 3.8558483,3.8558483 0 0 0 7.135233,4.8728455 3.8558483,3.8558483 0 0 0 6.783334,5.0296242 3.8558483,3.8558483 0 0 0 6.449232,5.2220065 3.8558483,3.8558483 0 0 0 6.135671,5.4458806 3.8558483,3.8558483 0 0 0 5.846072,5.7005629 3.8558483,3.8558483 0 0 0 5.583858,5.9826322 3.8558483,3.8558483 0 0 0 5.350396,6.2893474 3.8558483,3.8558483 0 0 0 5.149117,6.6179708 3.8558483,3.8558483 0 0 0 4.981381,6.9650813 3.8558483,3.8558483 0 0 0 4.848561,7.3272506 3.8558483,3.8558483 0 0 0 4.814351,7.4436376 L 5.689994,7.5901493 C 5.984111,7.6352633 6.256565,7.7848592 6.409544,8.0207845 6.492204,7.6397776 6.68197,7.2770264 6.979157,6.9794566 7.391031,6.5675819 7.928127,6.3626051 8.465492,6.3626051 c 0.537365,0 1.074079,0.2049768 1.487706,0.6168515 0.823048,0.8244505 0.823048,2.1506589 0,2.9733568 -0.123862,0.1238606 -0.258795,0.2289886 -0.401878,0.3156156 0.123332,-0.06704 0.26279,-0.09972 0.415573,-0.08078 a 0.17526583,0.17526583 0 0 1 0.08695,0.312874 c -0.0032,0.0035 -0.0087,0.01031 -0.01438,0.01917 -0.01192,0.01861 -0.02678,0.04666 -0.04108,0.08079 -0.04293,0.102372 -0.07643,0.255376 -0.06093,0.386131 0.01298,0.108963 0.05127,0.199071 0.141721,0.27317 0.09045,0.0741 0.246672,0.137822 0.516213,0.143087 0.228834,0.0045 0.428041,-0.05228 0.580568,-0.149933 0.03137,-0.02008 0.06088,-0.04169 0.08832,-0.06504 a 3.8558483,3.8558483 0 0 0 0.104744,-0.110225 c 0.05227,-0.06779 0.09213,-0.144623 0.117755,-0.230037 0.03137,-0.104556 0.02409,-0.174649 -0.0028,-0.24099 -0.02682,-0.06634 -0.07996,-0.131606 -0.157469,-0.193749 C 11.171496,10.288616 10.926177,10.188157 10.7165,10.108919 A 0.17526583,0.17526583 0 0 1 10.6809,9.799463 c 0.338725,-0.225143 1.054406,-0.2931356 1.479489,-0.02601 a 3.8558483,3.8558483 0 0 0 0.05614,-0.1677363 3.8558483,3.8558483 0 0 0 0.09516,-0.3731235 3.8558483,3.8558483 0 0 0 0.05751,-0.3806564 3.8558483,3.8558483 0 0 0 0.01917,-0.3854481 3.8558483,3.8558483 0 0 0 -0.0095,-0.2731693 A 3.8558483,3.8558483 0 0 0 12.332309,7.811296 3.8558483,3.8558483 0 0 0 12.247429,7.4347478 3.8558483,3.8558483 0 0 0 12.126243,7.0691538 3.8558483,3.8558483 0 0 0 11.969465,6.7172551 3.8558483,3.8558483 0 0 0 11.777083,6.3831529 3.8558483,3.8558483 0 0 0 11.553209,6.0695918 3.8558483,3.8558483 0 0 0 11.518299,6.0264589 C 11.187319,6.0233045 10.9219,5.9676294 10.543347,5.8005308 10.085308,5.5985794 9.873926,5.2138989 9.847037,4.841361 A 3.8558483,3.8558483 0 0 0 9.671771,4.7824824 3.8558483,3.8558483 0 0 0 9.298648,4.6873196 3.8558483,3.8558483 0 0 0 8.917991,4.629811 3.8558483,3.8558483 0 0 0 8.532543,4.6106375 Z M 6.408841,8.9087691 C 6.255599,9.1440599 5.983008,9.292759 5.687923,9.3380336 l -0.56551,0.094479 a 0.17526583,0.17526583 0 0 1 -0.05477,0.158833 c -0.06073,0.055083 -0.11684,0.1123132 -0.166365,0.171161 a 3.8558483,3.8558483 0 0 0 0.03765,0.1013247 3.8558483,3.8558483 0 0 0 0.156778,0.3518987 3.8558483,3.8558483 0 0 0 0.192383,0.334102 3.8558483,3.8558483 0 0 0 0.224562,0.313561 3.8558483,3.8558483 0 0 0 0.253995,0.289599 3.8558483,3.8558483 0 0 0 0.282068,0.262215 3.8558483,3.8558483 0 0 0 0.266324,0.205391 c 0.13981,-0.102454 0.307641,-0.164995 0.481294,-0.189645 0.424511,-0.06026 0.925207,0.104094 1.106366,0.488144 a 0.17526583,0.17526583 0 0 1 -0.155409,0.24989 c -0.0911,0.0018 -0.169187,0.0064 -0.235515,0.01574 a 3.8558483,3.8558483 0 0 0 0.254682,0.06093 3.8558483,3.8558483 0 0 0 0.380657,0.05751 3.8558483,3.8558483 0 0 0 0.385448,0.01917 3.8558483,3.8558483 0 0 0 0.27317,-0.0096 3.8558483,3.8558483 0 0 0 0.382022,-0.04656 3.8558483,3.8558483 0 0 0 0.275225,-0.05819 C 9.372319,12.136121 9.269262,12.054584 9.178177,11.967715 8.895881,11.698749 8.918209,11.219586 9.065211,10.857241 9.155382,10.634983 9.306794,10.421236 9.504746,10.295844 8.701945,10.754269 7.667017,10.639849 6.979138,9.9528416 6.680899,9.6548582 6.491029,9.2910834 6.408841,8.9087795 Z m 2.057319,-7.4535897 7.01e-4,7.011e-4 c -3.349474,0 -6.134491,2.324761 -6.838105,5.455149 L 1.97107,6.9678545 C 2.242596,5.7927953 2.838083,4.6761241 3.757275,3.7569283 5.061737,2.4528209 6.763929,1.8004709 8.466178,1.8002501 h 7e-4 c 1.113661,3.15e-5 2.227124,0.2791985 3.22941,0.8373044 C 11.571856,2.4912777 11.436635,2.3568137 11.319056,2.2486853 a 0.17526583,0.17526583 0 0 1 -0.0404,-0.2019658 C 10.418097,1.6696841 9.469197,1.4551973 8.46619,1.4551973 Z M 6.215772,1.6379747 C 5.050789,1.8070571 4.863017,2.0306717 4.58635,2.1713051 4.047582,2.4440188 3.385245,2.5975621 3.454651,2.1562321 3.225403,2.2400091 2.961266,2.5590141 3.184906,2.9586201 3.408545,3.3582262 2.961618,3.8240828 2.746741,3.5720505 2.334866,3.0900695 1.325416,3.4682549 1.47264,4.0848398 1.617759,3.9397197 2.292978,3.6225482 2.199035,4.3306221 2.165425,4.5838813 2.138255,4.8159718 2.149735,5.0316854 3.014847,3.4378985 4.464682,2.2117282 6.215763,1.6379641 Z m 2.249701,4.8999138 c -0.492795,0 -0.983856,0.1869421 -1.362419,0.5655058 -0.75691,0.7578774 -0.756773,1.9693885 0,2.7255203 0.758761,0.7577894 1.968516,0.7576914 2.726208,0 0.756464,-0.7561458 0.756651,-1.9675798 0,-2.7255203 C 9.449117,6.7248621 8.958267,6.5378885 8.465473,6.5378885 Z m 0.0015,0.8612668 A 1.0524888,1.0524888 0 0 1 9.519154,8.4521175 1.0524888,1.0524888 0 0 1 8.466874,9.5043994 1.0524888,1.0524888 0 0 1 7.413909,8.4521175 1.0524888,1.0524888 0 0 1 8.466874,7.3991553 Z M 9.8691,8.4664963 h 0.350532 c 0,0.4476288 -0.17134,0.8956785 -0.51416,1.2384984 C 9.362652,10.048165 8.914603,10.219155 8.466973,10.219155 V 9.8686228 c 0.358244,0 0.716196,-0.1369982 0.990662,-0.4114645 C 9.732102,9.1826919 9.8691,8.8247396 9.8691,8.4664963 Z"
     style="fill:currentColor"
     class="ColorScheme-Text" />
</svg>
