<?xml version="1.0" encoding="UTF-8" standalone="no"?>
<svg
   width="64"
   height="64"
   version="1.1"
   viewBox="0 0 16.933 16.933"
   id="svg7"
   sodipodi:docname="k3b.svg"
   inkscape:version="1.4.3 (0d15f75042, 2025-12-25)"
   xmlns:inkscape="http://www.inkscape.org/namespaces/inkscape"
   xmlns:sodipodi="http://sodipodi.sourceforge.net/DTD/sodipodi-0.dtd"
   xmlns="http://www.w3.org/2000/svg"
   xmlns:svg="http://www.w3.org/2000/svg"
   xmlns:rdf="http://www.w3.org/1999/02/22-rdf-syntax-ns#"
   xmlns:cc="http://creativecommons.org/ns#"
   xmlns:dc="http://purl.org/dc/elements/1.1/">
  <sodipodi:namedview
     id="namedview7"
     pagecolor="#9c4444"
     bordercolor="#000000"
     borderopacity="0.25"
     inkscape:showpageshadow="2"
     inkscape:pageopacity="0.0"
     inkscape:pagecheckerboard="0"
     inkscape:deskcolor="#d1d1d1"
     inkscape:zoom="12.3125"
     inkscape:cx="60.263958"
     inkscape:cy="38.822334"
     inkscape:window-width="2560"
     inkscape:window-height="1388"
     inkscape:window-x="0"
     inkscape:window-y="0"
     inkscape:window-maximized="1"
     inkscape:current-layer="svg7"
     showgrid="false" />
  <defs
     id="defs2">
    <style
       id="current-color-scheme"
       type="text/css">.ColorScheme-Text {color:#d8dee9} .ColorScheme-Highlight {color:#3b4252}</style>
  </defs>
  <metadata
     id="metadata2">
    <rdf:RDF>
      <cc:Work
         rdf:about="">
        <dc:format>image/svg+xml</dc:format>
        <dc:type
           rdf:resource="http://purl.org/dc/dcmitype/StillImage" />
      </cc:Work>
    </rdf:RDF>
  </metadata>
  <path
     id="path5"
     style="fill:currentColor"
     d="m 1.5854902,7.0821149 c -0.08447,0.4476289 -0.1307388,0.9089333 -0.1307388,1.3818006 0,0.4728672 0.046264,0.9346884 0.1307388,1.3823174 l 4.07564,-0.6815987 c 0.383832,-0.058889 0.7012354,-0.3123296 0.7012354,-0.7007187 0,-0.3883892 -0.3174034,-0.642346 -0.7012354,-0.7012354 z M 5.6626805,8.11614 A 0.35053166,0.35053166 0 0 1 6.0130398,8.4664993 0.35053166,0.35053166 0 0 1 5.6626805,8.8168586 0.35053166,0.35053166 0 0 1 5.3123212,8.4664993 0.35053166,0.35053166 0 0 1 5.6626805,8.11614 Z M 11.437552,2.119955 c 0.219058,0.201454 0.502213,0.4906357 0.677101,0.8037586 0.306714,0.5478809 0.263073,1.5007137 -0.679156,1.6759796 -0.942229,0.1752658 -0.978071,-0.1454707 -0.974915,-0.5257976 -0.5009114,0.069055 -0.7250754,1.1791009 0.153356,1.5664384 0.744881,0.3287987 1.018734,0.1978576 2.42086,0.1102247 1.402127,-0.087633 1.566439,1.6212089 0.909192,1.8841077 C 13.286743,7.8975651 13.03585,7.428396 13.078614,7.17391 12.551765,7.3796721 12.487793,7.9534924 12.74999,8.225505 c 2.04956,2.124222 1.066493,3.764272 0.50389,3.932527 -0.697207,0.208216 -1.188653,-0.204115 -0.832513,-0.755151 0.290241,-0.449031 0.03976,-1.19024 -0.312877,-1.4527883 -0.354037,-0.2621977 -1.037546,-0.1993369 -1.33024,-0.0048 0.422041,0.1594913 1.040729,0.4051263 0.87633,0.9530073 -0.126896,0.423092 -0.543062,0.690004 -1.06255,0.679839 -1.1844464,-0.02314 -0.8092894,-1.093906 -0.6462934,-1.216592 -0.636564,-0.07887 -1.0620221,1.083388 -0.646291,1.479489 0.4087189,0.389791 0.9830654,0.607296 0.635337,1.204952 -0.3649021,0.626751 -0.8763291,0.963962 -1.7526571,0.788696 -0.87633,-0.175266 -1.358135,-0.733838 -1.24877,-1.248769 0.109716,-0.514931 0.365079,-0.584143 0.810605,-0.592205 -0.277622,-0.588543 -1.643293,-0.591786 -1.62121,0.42721 0.011218,0.526148 -0.869756,0.613238 -1.237814,0.02261 -0.416432,-0.668113 -0.06406,-0.954235 0.405302,-0.843466 0.031548,-0.743829 -0.602388,-0.383307 -0.766787,-1.204953 -0.072338,-0.361542 0.152235,-0.6850894 0.426526,-0.9338372 l -3.321838,0.5552352 c 0.701761,3.13316 3.488649,5.461312 6.839475,5.461312 3.8838925,0 7.0106345,-3.126743 7.0106345,-7.0106339 0,-2.8208404 -1.65206,-5.2334413 -4.040697,-6.347224 z m -2.9713034,-0.6647763 7.009e-4,7.011e-4 c -3.349474,0 -6.134491,2.324761 -6.838105,5.455149 l 0.342314,0.056825 c 0.271526,-1.1750592 0.867013,-2.2917304 1.786205,-3.2109262 1.304462,-1.3041074 3.006654,-1.9564574 4.708903,-1.9566782 h 7e-4 c 1.113661,3.15e-5 2.2271245,0.2791985 3.2294105,0.8373044 C 11.571945,2.491277 11.436724,2.356813 11.319145,2.2486846 a 0.17526583,0.17526583 0 0 1 -0.0404,-0.2019658 C 10.418186,1.6696834 9.4692855,1.4551966 8.4662785,1.4551966 Z M 6.2158605,1.637974 c -1.164983,0.1690824 -1.352755,0.392697 -1.629422,0.5333304 -0.538768,0.2727137 -1.201105,0.426257 -1.131699,-0.015073 -0.229248,0.083777 -0.493385,0.402782 -0.269745,0.802388 0.223639,0.3996061 -0.223288,0.8654627 -0.438165,0.6134304 -0.411875,-0.481981 -1.421325,-0.1037956 -1.274101,0.5127893 0.145119,-0.1451201 0.820338,-0.4622916 0.726395,0.2457823 -0.03361,0.2532592 -0.06078,0.4853497 -0.0493,0.7010633 0.865112,-1.5937869 2.314947,-2.8199572 4.066028,-3.3937213 z M 8.465555,6.5379728 c -0.492795,0 -0.9836009,0.1867654 -1.3621639,0.5653291 -0.75691,0.7578774 -0.756773,1.9692295 0,2.7253613 0.758761,0.7577888 1.9681861,0.7576908 2.7258781,0 0.7564648,-0.7561458 0.7566518,-1.9674208 0,-2.7253613 C 9.4491242,6.7247697 8.958349,6.5379728 8.465555,6.5379728 Z M 8.467105,7.399402 A 1.0524888,1.0524888 0 0 1 9.5192168,8.4520302 1.0524888,1.0524888 0 0 1 8.4671053,9.5041416 1.0524888,1.0524888 0 0 1 7.4139603,8.4520302 1.0524888,1.0524888 0 0 1 8.467105,7.399402 Z m 1.4019543,1.0670973 h 0.3508767 c 0,0.4476288 -0.171351,0.8958398 -0.514171,1.2386597 -0.34282,0.34317 -0.7910297,0.51417 -1.2386597,0.51417 V 9.8684533 c 0.358244,0 0.7161517,-0.13687 0.9906177,-0.4113363 C 9.7321901,9.1826506 9.8690593,8.8247426 9.8690593,8.4664993 Z"
     class="ColorScheme-Text" />
</svg>
