<?xml version="1.0" encoding="UTF-8" standalone="no"?>
<svg
   width="64"
   height="64"
   version="1.1"
   viewBox="0 0 16.933 16.933"
   id="svg7"
   sodipodi:docname="kajongg.svg"
   inkscape:version="1.4.3 (0d15f75042, 2025-12-25)"
   xmlns:inkscape="http://www.inkscape.org/namespaces/inkscape"
   xmlns:sodipodi="http://sodipodi.sourceforge.net/DTD/sodipodi-0.dtd"
   xmlns="http://www.w3.org/2000/svg"
   xmlns:svg="http://www.w3.org/2000/svg"
   xmlns:rdf="http://www.w3.org/1999/02/22-rdf-syntax-ns#"
   xmlns:cc="http://creativecommons.org/ns#"
   xmlns:dc="http://purl.org/dc/elements/1.1/">
  <sodipodi:namedview
     id="namedview7"
     pagecolor="#9c4444"
     bordercolor="#000000"
     borderopacity="0.25"
     inkscape:showpageshadow="2"
     inkscape:pageopacity="0.0"
     inkscape:pagecheckerboard="0"
     inkscape:deskcolor="#d1d1d1"
     inkscape:zoom="4.3531262"
     inkscape:cx="90.165086"
     inkscape:cy="34.457995"
     inkscape:window-width="2560"
     inkscape:window-height="1388"
     inkscape:window-x="0"
     inkscape:window-y="0"
     inkscape:window-maximized="1"
     inkscape:current-layer="svg7"
     showgrid="false" />
  <defs
     id="defs2">
    <style
       id="current-color-scheme"
       type="text/css">.ColorScheme-Text {color:#d8dee9} .ColorScheme-Highlight {color:#3b4252}</style>
  </defs>
  <metadata
     id="metadata2">
    <rdf:RDF>
      <cc:Work
         rdf:about="">
        <dc:format>image/svg+xml</dc:format>
        <dc:type
           rdf:resource="http://purl.org/dc/dcmitype/StillImage" />
      </cc:Work>
    </rdf:RDF>
  </metadata>
  <path
     id="path5"
     style="fill:currentColor"
     d="m 8.9770786,11.344019 c -0.358869,-0.04553 -0.738,-0.01957 -1.075308,-0.152983 -0.3898937,-0.151877 -0.01498,-0.394354 0.244432,-0.376902 0.472195,-0.06297 0.950628,-0.08883 1.426071,-0.122101 1.0083524,0.03585 2.0173114,0.06415 3.0252854,0.104732 0.356654,-0.0023 0.529579,0.348694 0.398821,0.620672 -0.168228,0.450924 -0.447147,0.859517 -0.671175,1.288829 -0.08378,0.150749 -0.167559,0.3015 -0.251339,0.452249 0.670853,0.229721 1.37154,0.424142 1.973845,0.784319 0.28252,0.205733 0.130761,0.579584 0.04745,0.842833 -0.09864,0.230841 -0.206895,0.581789 -0.536124,0.58903 -0.234368,-0.06522 -0.423816,-0.222153 -0.637421,-0.329394 -0.559273,-0.319253 -1.118546,-0.638506 -1.677815,-0.957761 -0.187203,0.23115 -0.45472,0.395581 -0.67886,0.596043 -0.440571,0.346538 -1.0042834,0.531716 -1.5399754,0.724907 -0.484741,0.02171 -0.970369,0.05458 -1.4545549,0.06933 -0.2615045,-0.05829 -0.541974,-0.06915 -0.7832339,-0.182732 0.061412,-0.09766 0.2117929,-0.125024 0.3289741,-0.1596 0.6069677,-0.194335 1.2413277,-0.314261 1.8410817,-0.526011 0.438935,-0.175168 0.841585,-0.423802 1.1615474,-0.747259 0.222049,-0.116733 0.141531,-0.364999 -0.08117,-0.44876 -0.4849904,-0.24792 -0.9653254,-0.505108 -1.4153934,-0.80342 -0.410751,-0.278524 -0.852288,-0.527722 -1.2222449,-0.850451 -0.1008737,-0.238158 0.4195529,-0.03119 0.5524229,-0.01426 1.011841,0.287624 1.990653,0.660209 2.9721484,1.021266 0.182027,-0.275122 0.409634,-0.540833 0.494848,-0.856442 0.03376,-0.194262 -0.157161,-0.29162 -0.340415,-0.297734 -0.382155,-0.07413 -0.764554,-0.146872 -1.1551954,-0.172735 -0.315568,-0.03188 -0.631137,-0.06377 -0.946702,-0.09566 z M 8.1949006,6.336014 c 0.246362,-0.116626 0.53441,-0.145769 0.806621,-0.190059 0.581175,-0.08197 1.1676834,-5.14e-4 1.7315744,0.129493 0.27721,0.05403 0.61638,0.125075 0.732251,0.387685 0.04768,0.219261 -0.103478,0.4189 -0.162684,0.625608 -0.147597,0.435749 -0.358429,0.878665 -0.321424,1.34305 0.05117,0.419476 0.476031,0.748625 0.922522,0.813078 0.29792,0.01893 0.51612,-0.191621 0.761264,-0.309927 0.09141,-0.04865 0.174936,-0.125393 0.289272,-0.09226 0.126879,0.0074 0.253758,0.0149 0.380638,0.02234 0.267419,0.179902 0.17866,0.526693 0.09726,0.774322 -0.135376,0.417785 -0.635779,0.634421 -1.092193,0.610817 -0.625168,-0.03575 -1.288869,-0.26307 -1.656661,-0.741758 -0.200585,-0.290426 -0.30585,-0.626918 -0.404293,-0.954568 -0.01367,-0.246067 0.06108,-0.490725 0.101921,-0.733861 0.03555,-0.200038 0.09919,-0.410588 0.03277,-0.609772 C 10.044516,7.341252 9.6741306,7.183753 9.2921326,7.279076 9.0435126,7.343936 8.7706796,7.41637 8.5805096,7.576681 8.3817386,7.839539 8.4119786,8.171323 8.3374156,8.470759 8.2711656,8.789002 8.2439956,9.115242 8.1447716,9.426785 8.0364826,9.763523 7.7229136,10.0528 7.3244344,10.088852 7.1867846,10.132512 6.7770134,10.158162 6.9454828,9.943842 7.0484485,9.711702 7.3206369,9.587494 7.4436571,9.364697 7.6997816,8.936078 7.6803966,8.431336 7.7019296,7.958719 7.7303796,7.529326 7.5791115,7.07328 7.7851096,6.665578 7.8620196,6.502434 8.0417126,6.428537 8.1949056,6.336021 Z M 6.470919,6.306984 C 6.6150715,6.862456 6.557056,7.438167 6.562573,8.003545 6.506275,8.44303 6.505216,8.89018 6.4018275,9.323182 c -0.084572,0.400146 -0.4567047,0.704971 -0.9041453,0.751147 -0.7503618,0.146498 -1.518235,0.04211 -2.2736685,0.0013 -0.1893611,-0.109802 -0.1819145,0.0834 -0.2202757,0.206073 -0.091853,0.347985 -0.1488687,0.702209 -0.2521594,1.047861 0.7698224,0.06945 1.5479203,0.163097 2.3200755,0.09349 0.2483731,-0.07864 0.4754988,-0.191828 0.6809348,-0.340265 0.2581943,-0.02791 0.5836706,-0.195213 0.7806827,0.0431 0.2841325,0.444151 0.094696,0.964295 0.059001,1.442375 -0.097933,0.713653 -0.1140137,1.463966 -0.5284083,2.102697 -0.2431979,0.504694 -0.8673162,0.785851 -1.4622337,0.755989 -0.3072283,0.006 -0.6161508,0.02989 -0.9154256,-0.04867 -0.4148458,-0.04632 -0.8075619,-0.193822 -1.1279357,-0.437392 -0.3209899,-0.171566 -0.537513,-0.48235 -0.6048312,-0.808095 -0.052607,-0.180529 0.1966479,-0.0717 0.2913522,-0.02718 0.39599,0.1542 0.778602,0.344334 1.1878187,0.466079 0.3284784,0.09176 0.6880115,0.119442 1.006635,-0.01699 0.2581468,-0.07802 0.553585,-0.147858 0.6608635,-0.40676 0.1751233,-0.357848 0.2451106,-0.750549 0.3172625,-1.13451 0.051495,-0.264186 0.049364,-0.52958 0.01823,-0.795629 -0.066926,-0.07358 -0.275496,-0.01103 -0.397407,-0.03178 -0.8739393,0 -1.7478811,0 -2.6218232,0 -0.238985,0.264737 -0.4557125,0.547967 -0.7094093,0.800474 -0.3815058,0.166921 -0.1908005,-0.494623 -0.1807663,-0.675957 0.1926404,-0.956544 0.3664923,-1.918798 0.598855,-2.867128 0.092568,-0.26781 0.4238941,-0.267492 0.6774284,-0.24301 0.6909772,0.0039 1.3865641,0.08573 2.0736011,-0.0084 0.2857374,-0.006 0.4599,-0.204513 0.4879694,-0.441878 C 5.5095899,8.323924 5.6026867,7.883903 5.6081308,7.437172 5.6691478,7.063282 5.200491,6.976643 4.884864,6.964184 4.4679908,6.994984 4.0458357,6.990264 3.6360309,7.06649 3.1325495,6.99073 3.6277109,6.309383 3.994133,6.318976 4.6576599,6.16521 5.346237,6.139453 6.0247773,6.073959 6.2055464,6.068659 6.4141105,6.136129 6.4709297,6.307012 Z M 3.6135714,2.982825 C 3.8789687,3.003655 4.1110315,3.230972 4.3464553,3.354951 4.755882,3.618935 5.1754548,3.870379 5.5770009,4.144103 5.8943642,3.858143 6.2304517,3.587987 6.5348289,3.291061 6.7224005,3.062582 6.936826,2.743673 6.7742096,2.46025 6.616595,2.349364 6.4871953,2.198246 6.3096189,2.115813 6.1292641,2.046753 5.9489067,1.977699 5.768552,1.908641 5.8901551,1.606714 6.3117445,1.52363 6.6235598,1.46137 7.0665196,1.41219 7.4319423,1.664819 7.7496756,1.905326 c 0.182331,0.142916 0.398006,0.255666 0.55522,0.421332 0.226224,0.248917 0.146071,0.606929 -0.06971,0.837884 C 7.7060406,3.84289 6.989848,4.380862 6.2143321,4.818002 5.208596,5.377705 4.1713041,5.932091 3.0223899,6.214274 2.5324097,6.323883 2.0108596,6.348333 1.5147128,6.261564 1.1496683,6.14327 1.5657458,5.795564 1.8181604,5.821299 2.3612603,5.70176 2.9161,5.620887 3.4479615,5.463966 3.9373311,5.304401 4.3865361,5.056956 4.7948229,4.76829 4.4431734,4.454142 4.0907198,4.137335 3.7379723,3.826567 3.5222614,3.593161 3.4398427,3.257461 3.6135744,2.982826 Z M 10.222179,2.358636 c -0.05301,-0.0843 -0.220133,-0.179352 -0.05685,-0.243267 0.246433,-0.23679 0.663376,-0.15826 0.890163,0.06018 0.312731,0.251393 0.596612,0.676227 0.367892,1.049797 -0.18805,0.285843 -0.508063,0.469779 -0.76542,0.701457 -0.115624,0.09503 -0.229643,0.19177 -0.355968,0.275369 0.372085,0.242399 0.747273,0.481006 1.117398,0.725798 0.383525,-0.308937 0.762667,-0.622005 1.117405,-0.958056 0.05897,-0.258664 -0.581021,-0.473826 -0.09379,-0.617835 0.388179,-0.180414 0.77584,0.136011 0.968993,0.418807 0.205974,0.267074 0.286239,0.657594 0.02212,0.918136 -0.291568,0.267793 -0.64224,0.478192 -0.960231,0.720288 -0.106743,0.06016 0.149687,0.10097 0.206996,0.147603 0.538101,0.242242 1.078975,0.479027 1.637192,0.681675 0.297802,0.120265 0.609018,0.218825 0.899499,0.350443 0.146219,0.106613 0.365986,0.18821 0.342655,0.3934 -0.03666,0.213559 -0.299987,0.242882 -0.493277,0.215776 -0.566952,-0.02524 -1.137339,-0.0356 -1.702152,-0.07009 C 13.036897,7.006635 12.695587,6.909194 12.376059,6.772686 11.52885,6.280041 10.626934,5.839723 9.9217016,5.178638 9.7185596,5.003146 9.5154206,4.827655 9.3122786,4.652163 8.8746136,4.878466 8.4504596,5.150853 7.9599756,5.273383 7.6874336,5.194903 8.1390886,4.863965 8.2231406,4.736871 8.3801026,4.532569 8.7062176,4.342529 8.7922066,4.146798 8.6525436,3.983616 8.4686036,3.845224 8.3592476,3.665075 c -0.09214,-0.209166 0.03367,-0.48493 0.306559,-0.400071 0.139271,0.01416 0.303038,-0.03167 0.400778,0.08422 0.119145,0.08593 0.238289,0.171861 0.357433,0.257791 0.20172,-0.18794 0.426387,-0.352837 0.6488244,-0.519028 0.128476,-0.116867 0.253742,-0.235732 0.316014,-0.393822 0.07939,-0.119309 -0.09026,-0.253307 -0.166697,-0.335526 z"
     class="ColorScheme-Text" />
</svg>
