<?xml version="1.0" encoding="UTF-8" standalone="no"?>
<svg
   width="64"
   height="64"
   version="1.1"
   viewBox="0 0 16.933 16.933"
   id="svg7"
   sodipodi:docname="kalm.svg"
   inkscape:version="1.4.3 (0d15f75042, 2025-12-25)"
   xmlns:inkscape="http://www.inkscape.org/namespaces/inkscape"
   xmlns:sodipodi="http://sodipodi.sourceforge.net/DTD/sodipodi-0.dtd"
   xmlns="http://www.w3.org/2000/svg"
   xmlns:svg="http://www.w3.org/2000/svg"
   xmlns:rdf="http://www.w3.org/1999/02/22-rdf-syntax-ns#"
   xmlns:cc="http://creativecommons.org/ns#"
   xmlns:dc="http://purl.org/dc/elements/1.1/">
  <sodipodi:namedview
     id="namedview7"
     pagecolor="#9c4444"
     bordercolor="#000000"
     borderopacity="0.25"
     inkscape:showpageshadow="2"
     inkscape:pageopacity="0.0"
     inkscape:pagecheckerboard="0"
     inkscape:deskcolor="#d1d1d1"
     inkscape:zoom="6.15625"
     inkscape:cx="15.837563"
     inkscape:cy="29.725888"
     inkscape:window-width="2560"
     inkscape:window-height="1388"
     inkscape:window-x="0"
     inkscape:window-y="0"
     inkscape:window-maximized="1"
     inkscape:current-layer="svg7"
     showgrid="false" />
  <defs
     id="defs2">
    <style
       id="current-color-scheme"
       type="text/css">.ColorScheme-Text {color:#d8dee9} .ColorScheme-Highlight {color:#3b4252}</style>
    <filter
       id="filter934"
       x="-4.9624441e-08"
       y="-4.9624441e-08"
       width="1.0000001"
       height="1.0000001"
       color-interpolation-filters="sRGB">
      <feGaussianBlur
         id="feGaussianBlur936"
         stdDeviation="8.4775089e-07" />
    </filter>
  </defs>
  <metadata
     id="metadata2">
    <rdf:RDF>
      <cc:Work
         rdf:about="">
        <dc:format>image/svg+xml</dc:format>
        <dc:type
           rdf:resource="http://purl.org/dc/dcmitype/StillImage" />
      </cc:Work>
    </rdf:RDF>
  </metadata>
  <path
     id="path5"
     d="M 15.47782,7.4016319 C 15.153724,11.108181 12.765236,13.342556 8.7527775,13.998974 8.8851552,9.4055735 11.948069,8.0969313 15.47782,7.4016319 Z M 5.7756443,8.034034 C 6.039256,5.9182871 6.3941714,4.3194791 8.4984825,2.9340257 10.004851,4.1254126 10.800253,4.8409535 11.172261,8.0580495 10.063021,8.3239441 9.0736295,9.5210376 8.4859411,11.350355 7.918761,9.550733 7.0058369,8.4654707 5.7756443,8.0340718 Z M 11.923177,7.7976935 11.518042,5.8964833 c 0.68356,-0.5865835 1.871516,-0.9061007 3.040107,-1.213077 0.02739,0.6995305 -0.0776,1.4687058 -0.152917,2.2264457 -0.907244,0.1517767 -1.725479,0.4599114 -2.482074,0.8878415 z m -6.8836203,0 0.4051342,-1.9012102 C 4.7611319,5.3098998 3.5731757,4.9903826 2.4045841,4.6834063 2.3771951,5.3829368 2.4821841,6.1521121 2.5575005,6.909852 3.4647448,7.0616287 4.2840854,7.3697634 5.0395758,7.7976935 Z M 1.4551798,7.4016319 C 1.7792756,11.108181 4.1677637,13.342556 8.1802226,13.998974 8.047845,9.4055735 4.9849316,8.0969313 1.4551798,7.4016319 Z"
     style="fill:currentColor"
     class="ColorScheme-Text" />
</svg>
