<?xml version='1.0' encoding='UTF-8'?>
<svg xmlns:inkscape="http://www.inkscape.org/namespaces/inkscape" xmlns:sodipodi="http://sodipodi.sourceforge.net/DTD/sodipodi-0.dtd" xmlns="http://www.w3.org/2000/svg" xmlns:svg="http://www.w3.org/2000/svg" xmlns:rdf="http://www.w3.org/1999/02/22-rdf-syntax-ns#" xmlns:cc="http://creativecommons.org/ns#" xmlns:dc="http://purl.org/dc/elements/1.1/" width="64" height="64" version="1.1" viewBox="0 0 16.933 16.933" id="svg7" sodipodi:docname="kalzium.svg" inkscape:version="1.4 (e7c3feb100, 2024-10-09)">
  <sodipodi:namedview id="namedview7" pagecolor="#9c4444" bordercolor="#000000" borderopacity="0.25" inkscape:showpageshadow="2" inkscape:pageopacity="0.0" inkscape:pagecheckerboard="0" inkscape:deskcolor="#d1d1d1" inkscape:zoom="6.15625" inkscape:cx="15.837563" inkscape:cy="29.725888" inkscape:window-width="1183" inkscape:window-height="941" inkscape:window-x="35" inkscape:window-y="32" inkscape:window-maximized="0" inkscape:current-layer="svg7" showgrid="false"/>
  <defs id="defs2">
    <style id="current-color-scheme" type="text/css">.ColorScheme-Text {color:#d8dee9} .ColorScheme-Highlight {color:#3b4252}</style></defs>
  <metadata id="metadata2">
    <rdf:RDF>
      <cc:Work rdf:about="">
        <dc:format>image/svg+xml</dc:format>
        <dc:type rdf:resource="http://purl.org/dc/dcmitype/StillImage"/>
      </cc:Work>
    </rdf:RDF>
  </metadata>
  <path id="path5" style="fill:currentColor;fill-opacity:1;stroke:none;stroke-width:0.109512;stroke-opacity:1" d="m 14.065799,3.6689058 c -0.284819,0.00171 -0.569566,0.078609 -0.818753,0.2267513 -0.352237,0.2094049 -0.656462,0.614321 -0.756271,1.00621 -0.05329,0.2092692 -0.05272,0.5872391 6.54e-4,0.796207 0.155154,0.6076971 0.690401,1.1051167 1.308977,1.2162132 0.213822,0.038401 0.528834,0.011628 0.772372,-0.065706 C 15.386286,6.5902556 15.864066,5.7300716 15.653069,4.9050878 15.512545,4.35563 15.110938,3.9260476 14.571488,3.7481394 14.407955,3.694206 14.236701,3.6678739 14.065807,3.6689056 Z M 2.8461075,3.6714708 C 2.67848,3.6743778 2.5083381,3.7004496 2.3603955,3.748778 1.2329627,4.1170562 0.85837524,5.5144467 1.6517968,6.3912068 1.8940042,6.6588541 2.1698229,6.815823 2.5523611,6.9039744 2.76094,6.9520387 3.1038317,6.9334681 3.3369731,6.8614581 3.816684,6.7132904 4.2410296,6.3014575 4.405669,5.8249715 4.497253,5.5599154 4.497253,5.0393694 4.405669,4.7743129 4.2386669,4.2909907 3.8168542,3.8865276 3.318936,3.7320384 3.1791667,3.6886713 3.0137377,3.6685967 2.8461075,3.6714862 Z m 1.9228789,2.2030975 c -0.00688,-4e-7 -0.012882,0.016454 -0.012882,0.036073 0,0.075994 -0.2177962,0.4809041 -0.3381951,0.6287201 L 4.2916505,6.6946089 4.7631906,6.972895 C 5.0227679,7.1258773 5.3339333,7.310396 5.454397,7.3832379 5.5748589,7.4560801 5.6752053,7.516122 5.6772831,7.5165837 5.6793541,7.517055 5.7250852,7.4241145 5.7790642,7.3104456 5.8330432,7.1967819 5.9408777,7.0120356 6.0186981,6.8994638 6.0965183,6.7868926 6.1553689,6.6901359 6.1494675,6.6843078 6.1304865,6.6655738 4.7819683,5.8745788 4.7689864,5.8745795 Z m 7.3958366,0 c -0.0114,0 -1.363419,0.7918586 -1.382413,0.8097348 -0.0058,0.00557 0.05294,0.1025867 0.130768,0.215156 0.07783,0.1125731 0.185584,0.2978125 0.239636,0.4116318 l 0.09857,0.2067817 0.08567,-0.05218 c 0.04718,-0.028724 0.332072,-0.196605 0.633232,-0.3729852 0.301156,-0.1763808 0.575584,-0.3382353 0.609393,-0.3594528 l 0.06118,-0.038006 -0.122379,-0.1507384 c -0.114228,-0.1402333 -0.342705,-0.5654486 -0.342705,-0.637739 0,-0.017727 -0.0049,-0.032209 -0.01102,-0.032209 z M 8.4659388,5.9982526 c -0.5159131,2.396e-4 -0.746681,0.049993 -1.1498624,0.2473707 -0.9000875,0.440632 -1.4648665,1.347594 -1.4648667,2.3531914 0,1.2533645 0.8684943,2.3141673 2.1084034,2.5754343 0.2367962,0.04991 0.9126538,0.03443 1.1292486,-0.02576 0.4981778,-0.138455 0.8863238,-0.360115 1.2258743,-0.700226 0.34155,-0.342113 0.572341,-0.7437122 0.700223,-1.219434 0.0786,-0.2923942 0.07409,-0.9879565 -0.0083,-1.289005 C 10.753133,7.0144245 10.05207,6.3116506 9.1320221,6.0601001 8.9385362,6.0071993 8.8372879,5.9980885 8.4659395,5.9982593 Z m -2.7854369,3.6815048 -0.085676,0.052178 c -0.047194,0.02872 -0.3320706,0.1966002 -0.6332292,0.3729816 -0.3011589,0.17638 -0.5755858,0.338236 -0.6093948,0.359453 l -0.061197,0.03801 0.1269029,0.155891 c 0.1205436,0.147997 0.3381951,0.552676 0.3381951,0.62872 0,0.01963 0.00485,0.03608 0.010944,0.03608 0.011533,0 1.3634166,-0.791859 1.3824113,-0.809735 0.00589,-0.0056 -0.052949,-0.102583 -0.1307694,-0.215157 C 5.9408743,10.18559 5.8331122,10.000351 5.7790593,9.886531 Z m 5.5708711,0 -0.09856,0.2067818 c -0.05405,0.1138218 -0.162887,0.3007468 -0.242212,0.4154958 -0.07932,0.114749 -0.132179,0.213839 -0.117247,0.219667 0.01493,0.0059 0.322727,0.187165 0.684117,0.403257 0.361392,0.216091 0.666384,0.394143 0.677679,0.395528 0.0114,0.0014 0.02061,-0.01102 0.02061,-0.0277 0,-0.07524 0.2214,-0.491599 0.336904,-0.633232 l 0.128174,-0.157181 -0.06118,-0.03865 c -0.0338,-0.0215 -0.308221,-0.183715 -0.609377,-0.36009 C 11.66912,9.9272512 11.384248,9.7597242 11.337049,9.7312905 Z m 2.798966,0.5810506 c -0.03346,2.5e-5 -0.06574,0.0016 -0.09661,0.0045 -0.644476,0.0599 -1.213268,0.496389 -1.422995,1.092532 -0.08354,0.237445 -0.103816,0.68253 -0.04252,0.921821 0.163267,0.637279 0.682284,1.116112 1.336674,1.232317 0.209375,0.03718 0.525067,0.0076 0.760135,-0.07087 0.961075,-0.320509 1.399561,-1.419243 0.925042,-2.318407 -0.131575,-0.249302 -0.450101,-0.556609 -0.706021,-0.68154 -0.22986,-0.112218 -0.519365,-0.18054 -0.75369,-0.180371 z m -11.2048759,0.002 c -0.032841,3.63e-4 -0.065922,0.0019 -0.098559,0.0045 -0.4141075,0.03304 -0.7423012,0.187639 -1.0435728,0.49214 -0.2224489,0.224834 -0.3483509,0.446231 -0.4245152,0.744028 -0.2339877,0.914886 0.382153,1.85016 1.3231472,2.007267 0.206193,0.03443 0.3081523,0.03245 0.5443327,-0.0097 0.3348771,-0.05972 0.5971094,-0.201026 0.8593366,-0.463809 0.3397196,-0.34044 0.4766937,-0.672496 0.4766937,-1.15566 0,-0.381799 -0.097622,-0.666757 -0.3375506,-0.983666 C 3.8458178,10.50305 3.338065,10.257551 2.8454631,10.262765 Z" class="ColorScheme-Text"/>
  <g id="g9" transform="matrix(0.46959567,0,0,0.46959567,4.7471229,3.7470598)" style="fill:#999999;fill-opacity:1;stroke:none;stroke-width:0.58349;stroke-dasharray:none;stroke-opacity:0.3"/>
  <g aria-label="Science" id="text2284" style="font-size:1.76385px;text-align:center;text-anchor:middle;opacity:1;fill:#999999;stroke-width:0.529156"/>
  </svg>
