<?xml version='1.0' encoding='UTF-8'?>
<svg xmlns:inkscape="http://www.inkscape.org/namespaces/inkscape" xmlns:sodipodi="http://sodipodi.sourceforge.net/DTD/sodipodi-0.dtd" xmlns="http://www.w3.org/2000/svg" xmlns:svg="http://www.w3.org/2000/svg" xmlns:rdf="http://www.w3.org/1999/02/22-rdf-syntax-ns#" xmlns:cc="http://creativecommons.org/ns#" xmlns:dc="http://purl.org/dc/elements/1.1/" width="64" height="64" version="1.1" viewBox="0 0 16.933 16.933" id="svg7" sodipodi:docname="kasts.svg" inkscape:version="1.4.2 (ebf0e940d0, 2025-05-08)">
  <sodipodi:namedview id="namedview7" pagecolor="#9c4444" bordercolor="#000000" borderopacity="0.25" inkscape:showpageshadow="2" inkscape:pageopacity="0.0" inkscape:pagecheckerboard="0" inkscape:deskcolor="#d1d1d1" inkscape:zoom="4.3531261" inkscape:cx="36.295755" inkscape:cy="40.430715" inkscape:window-width="2560" inkscape:window-height="1376" inkscape:window-x="0" inkscape:window-y="0" inkscape:window-maximized="1" inkscape:current-layer="svg7" showgrid="false"/>
  <defs id="defs2">
    <style id="current-color-scheme" type="text/css">.ColorScheme-Text {color:#d8dee9} .ColorScheme-Highlight {color:#3b4252}</style>
    </defs>
  <metadata id="metadata2">
    <rdf:RDF>
      <cc:Work rdf:about="">
        <dc:format>image/svg+xml</dc:format>
        <dc:type rdf:resource="http://purl.org/dc/dcmitype/StillImage"/>
      </cc:Work>
    </rdf:RDF>
  </metadata>
  <path fill="currentColor" class="ColorScheme-Text" d="m 5.2404915,15.885668 h 1.290621 v -1.290627 h -1.290621 z m 3.22601,-7.0967876 c 1.070548,0 1.9287495,-0.8637357 1.9287495,-1.9353871 l 0.0066,-3.870774 c 0,-1.0705454 -0.8648395,-1.935387 -1.9353895,-1.935387 -1.070544,0 -1.935386,0.8648417 -1.935386,1.935387 v 3.870774 c 0,1.0716514 0.864842,1.9353871 1.935386,1.9353871 z m -0.644759,7.0967876 h 1.289521 v -1.290627 h -1.289521 z m 2.5801465,0 h 1.290623 v -1.290627 h -1.290623 z m 2.580144,-9.0321747 h -1.095977 c 0,1.9353871 -1.638997,3.2901587 -3.4195525,3.2901587 -1.780557,0 -3.419554,-1.3547716 -3.419554,-3.2901587 h -1.095983 c 0,2.2008118 1.754014,4.0200757 3.870776,4.3352677 v 2.116759 h 1.289521 V 11.188761 C 11.228025,10.873568 12.982035,9.0543051 12.982033,6.8534933 Z" id="path24-5" style="stroke-width:1.10594"/>
</svg>
