<?xml version="1.0" encoding="UTF-8" standalone="no"?>
<svg
   width="64"
   height="64"
   version="1.1"
   viewBox="0 0 16.933 16.933"
   id="svg7"
   sodipodi:docname="kcachegrind.svg"
   inkscape:version="1.4.2 (ebf0e940d0, 2025-05-08)"
   xmlns:inkscape="http://www.inkscape.org/namespaces/inkscape"
   xmlns:sodipodi="http://sodipodi.sourceforge.net/DTD/sodipodi-0.dtd"
   xmlns="http://www.w3.org/2000/svg"
   xmlns:svg="http://www.w3.org/2000/svg"
   xmlns:rdf="http://www.w3.org/1999/02/22-rdf-syntax-ns#"
   xmlns:cc="http://creativecommons.org/ns#"
   xmlns:dc="http://purl.org/dc/elements/1.1/">
  <sodipodi:namedview
     id="namedview7"
     pagecolor="#9c4444"
     bordercolor="#000000"
     borderopacity="0.25"
     inkscape:showpageshadow="2"
     inkscape:pageopacity="0.0"
     inkscape:pagecheckerboard="0"
     inkscape:deskcolor="#d1d1d1"
     inkscape:zoom="4.3531262"
     inkscape:cx="89.935366"
     inkscape:cy="34.457995"
     inkscape:window-width="2560"
     inkscape:window-height="1388"
     inkscape:window-x="0"
     inkscape:window-y="0"
     inkscape:window-maximized="1"
     inkscape:current-layer="svg7"
     showgrid="false" />
  <defs
     id="defs2">
    <style
       id="current-color-scheme"
       type="text/css">.ColorScheme-Text {color:#d8dee9} .ColorScheme-Highlight {color:#3b4252}</style>
  </defs>
  <metadata
     id="metadata2">
    <rdf:RDF>
      <cc:Work
         rdf:about="">
        <dc:format>image/svg+xml</dc:format>
        <dc:type
           rdf:resource="http://purl.org/dc/dcmitype/StillImage" />
      </cc:Work>
    </rdf:RDF>
  </metadata>
  <path
     id="path5"
     d="M 8.4671962,1.455188 A 7.0139613,7.0139613 0 0 0 7.7489622,1.490791 L 7.5812142,2.5780701 A 5.9618672,5.9618672 0 0 0 6.2885302,2.9238358 L 5.6024752,2.06798 a 7.0139613,7.0139613 0 0 0 -1.135891,0.6497657 c -0.03646,0.023149 -0.07283,0.046707 -0.10886,0.070523 l 0.397801,1.0208649 A 5.9618672,5.9618672 0 0 0 3.8058682,4.7539981 L 2.7911662,4.3589354 a 7.0139613,7.0139613 0 0 0 -0.592253,0.9975853 c -0.04384,0.081971 -0.08611,0.1648922 -0.126667,0.2485407 l 0.849009,0.6805764 a 5.9618672,5.9618672 0 0 0 -0.213622,0.6374412 5.9618672,5.9618672 0 0 0 -0.12941,0.6579819 l -1.085224,0.1670632 a 7.0139613,7.0139613 0 0 0 -0.0048,1.4063422 c 9.01e-4,0.01007 0.0019,0.020065 0.0028,0.030127 l 1.08728,0.1670633 c 8.2e-4,0.00516 0.0019,0.010471 0.0028,0.015747 a 5.9618672,5.9618672 0 0 0 0.342344,1.2762522 l 6.84e-4,7.01e-4 -0.728504,0.584035 -0.127356,0.102019 c 0.19676,0.438395 0.438268,0.855697 0.720287,1.244756 l 1.020864,-0.397801 c 0.0044,0.0055 0.0085,0.01089 0.01299,0.01643 a 5.9618672,5.9618672 0 0 0 0.925009,0.928432 c 0.0023,0.0019 0.0046,0.0036 0.0069,0.0055 l -0.286198,0.733982 -0.10886,0.280036 c 0.389639,0.281719 0.80721,0.522627 1.246127,0.718918 l 0.680576,-0.849008 c 0.208516,0.08316 0.421565,0.154485 0.638126,0.213621 0.21668,0.05544 0.436448,0.09865 0.657982,0.129406 l 0.166378,1.085225 c 0.477717,0.04989 0.959296,0.05053 1.437153,0.0021 l 0.166357,-1.087287 c 0.442508,-0.06638 0.8761308,-0.182367 1.2926848,-0.345765 l 0.685923,0.855849 c 0.438435,-0.196795 0.855671,-0.438219 1.244757,-0.720288 l -0.10886,-0.279351 -0.288937,-0.740829 c 0.0016,-0.0013 0.0032,-0.0028 0.0048,-0.0041 a 5.9618672,5.9618672 0 0 0 0.922972,-0.91337 c 0.0077,-0.0093 0.0151,-0.01884 0.02259,-0.02807 l 1.014703,0.395062 c 0.281686,-0.389632 0.522594,-0.807203 0.718889,-1.246123 l -0.127356,-0.102018 -0.722341,-0.578559 c 0.04428,-0.119311 0.177101,-0.516395 0.213621,-0.638125 0.05545,-0.2167263 0.09864,-0.4364017 0.12941,-0.6579823 l 1.085225,-0.1663786 c 0.03123,-0.2992732 0.04305,-0.6002417 0.0356,-0.9010448 a 7.0139613,7.0139613 0 0 0 -0.03355,-0.536108 L 14.354793,7.5810907 A 5.9618672,5.9618672 0 0 0 14.009028,6.2884062 l 0.85654,-0.6860538 c -0.0408,-0.083685 -0.08326,-0.1665447 -0.127356,-0.2485405 A 7.0139613,7.0139613 0 0 0 14.145284,4.3575953 L 13.124419,4.7553968 A 5.9618672,5.9618672 0 0 0 12.178871,3.8050254 l 0.395748,-1.0140179 a 7.0139613,7.0139613 0 0 0 -7.01e-4,0 c -0.03616,-0.023757 -0.07224,-0.04743 -0.108846,-0.070523 A 7.0139613,7.0139613 0 0 0 11.32781,2.0720884 L 10.647919,2.9210972 A 5.9618672,5.9618672 0 0 0 10.009793,2.7074756 5.9618672,5.9618672 0 0 0 9.3518112,2.5780709 l -0.166378,-1.085225 a 7.0139613,7.0139613 0 0 0 -0.718234,-0.037658 z m 0.156108,2.1040356 c 0.368839,0.012097 0.742181,0.065402 1.113982,0.1650089 a 4.9097728,4.9097728 0 0 1 0.5936208,0.204721 c 0.03094,0.01272 0.06253,0.024346 0.09312,0.037657 a 4.9097728,4.9097728 0 0 1 0.525152,0.2690813 c 0.03677,0.021605 0.07343,0.043221 0.109549,0.065729 a 4.9097728,4.9097728 0 0 1 0.263603,0.1855496 c 0.128483,0.092382 0.254069,0.1878468 0.372469,0.2916755 a 4.9097728,4.9097728 0 0 1 0.195819,0.1841799 c 0.114319,0.1119164 0.22319,0.2289288 0.32591,0.3512433 a 4.9097728,4.9097728 0 0 1 0.160902,0.2006126 c 0.09908,0.1313855 0.190375,0.2685629 0.275927,0.4094415 a 4.9097728,4.9097728 0 0 1 0.124613,0.2108827 c 0.08142,0.1505501 0.151499,0.3071854 0.217045,0.4662705 a 4.9097728,4.9097728 0 0 1 0.100645,0.243063 c 0.01689,0.048236 0.03252,0.096971 0.04792,0.1458375 a 4.9097728,4.9097728 0 0 1 0.141046,0.5463784 c 0.0089,0.046081 0.01366,0.093189 0.02123,0.1396759 a 4.9097728,4.9097728 0 0 1 0.05409,0.4779097 c 0.0032,0.049175 0.0093,0.097703 0.011,0.1472072 4.56e-4,-0.012322 9.82e-4,-0.024662 0.0013,-0.036973 A 4.9097728,4.9097728 0 0 1 13.209311,9.7371315 4.9097728,4.9097728 0 0 1 7.1957262,13.209167 4.9097728,4.9097728 0 0 1 3.5764842,8.0288435 c -1.22e-4,0.045844 2.04e-4,0.091753 0.0013,0.1376215 0.01627,-0.327709 0.06536,-0.6529647 0.146522,-0.9708826 0.04122,-0.1537799 0.08926,-0.3036419 0.143783,-0.4498377 0.07326,-0.1964085 0.159203,-0.3852183 0.254703,-0.566919 a 4.9097728,4.9097728 0 0 1 0.228685,-0.3765763 4.9097728,4.9097728 0 0 1 0.09107,-0.1492615 4.9097728,4.9097728 0 0 1 0.274558,-0.3443961 c 0.0382,-0.045283 0.0712,-0.095234 0.110914,-0.1389911 a 4.9097728,4.9097728 0 0 1 0.438197,-0.4265586 4.9097728,4.9097728 0 0 1 0.440252,-0.3327564 c 0.04804,-0.032662 0.09737,-0.062867 0.146523,-0.093803 a 4.9097728,4.9097728 0 0 1 0.340973,-0.1958195 c 0.05357,-0.028031 0.106991,-0.056791 0.161585,-0.082847 a 4.9097728,4.9097728 0 0 1 0.505982,-0.2115677 4.9097728,4.9097728 0 0 1 0.575135,-0.1602161 4.9097728,4.9097728 0 0 1 0.588145,-0.089694 h 7.01e-4 7.01e-4 7e-4 a 4.9097728,4.9097728 0 0 1 0.0671,-0.00207 4.9097728,4.9097728 0 0 1 0.529261,-0.015064 z M 8.4665112,3.9084128 V 7.7953674 A 0.52583776,0.52583776 0 0 0 8.1159532,8.2910787 0.52583776,0.52583776 0 0 0 8.6417902,8.8169165 0.52583776,0.52583776 0 0 0 9.1676282,8.2910787 0.52583776,0.52583776 0 0 0 8.8170702,7.7953674 V 3.9214217 c -0.06858,-0.00531 -0.137062,-0.00939 -0.205405,-0.011633 -0.04818,-0.00123 -0.09659,-0.00164 -0.145154,-0.00136 z m -0.353982,0.015747 -0.01034,7.012e-4 c -0.01891,4.558e-4 -0.03748,7.012e-4 -0.05614,0.00136 -0.002,7.18e-5 -0.0042,5.958e-4 -0.0062,7.01e-4 -0.177916,0.016844 -0.35454,0.044564 -0.52926,0.082163 -0.18126,0.038795 -0.359898,0.088197 -0.534739,0.1485765 -0.157629,0.055799 -0.31412,0.1216297 -0.466955,0.1958199 -0.04641,0.022159 -0.09666,0.048742 -0.152685,0.078054 -0.108184,0.056491 -0.213251,0.1166253 -0.316323,0.1814413 -0.05146,0.032388 -0.09737,0.060519 -0.136253,0.086955 -0.122149,0.081935 -0.239492,0.1687367 -0.351925,0.2608348 h 1.161908 V 5.311325 h -1.538485 c -0.02957,0.030853 -0.05892,0.062131 -0.08765,0.093801 -0.0078,0.00864 -0.07471,0.096231 -0.102699,0.129406 l -0.0013,0.00207 -0.0021,0.00273 c -0.03515,0.04025 -0.06965,0.081105 -0.103375,0.1225492 h 0.08285 v 0.3505585 h -0.328649 c -0.07109,0.1069226 -0.137441,0.2167907 -0.199244,0.3293332 -4.56e-4,8.765e-4 -9.11e-4,0.00185 -0.0013,0.00273 l -0.0013,0.00273 c -0.0028,0.00525 -0.0054,0.010494 -0.0082,0.015747 h 1.590519 v 0.3505585 h -1.754847 c -0.02132,0.0511 -0.04153,0.1026773 -0.06094,0.1547387 -0.02403,0.064469 -0.0471,0.1297478 -0.06846,0.1958293 h 0.131464 v 0.3505585 h -0.227315 c -0.05662,0.2528438 -0.0919,0.5098576 -0.104752,0.7689006 h -0.01166 c -0.006,0.094675 -0.0087,0.1889658 -0.0089,0.282775 h 1.754847 v 0.3505584 h -1.741838 c 0.009,0.1179146 0.02248,0.2348367 0.0404,0.3505585 h 1.000324 v 0.3505598 h -0.931856 c 0.02802,0.1184871 0.06071,0.2354204 0.09792,0.3505585 h 0.483388 v 0.3505583 h -0.353982 c 0.157122,0.377224 0.364022,0.730921 0.614162,1.051676 h 1.492612 v 0.350558 h -1.189297 c 0.11832,0.123513 0.243728,0.240597 0.375892,0.350559 h 0.112291 v 0.09038 c 0.112464,0.08769 0.229406,0.170592 0.350558,0.247856 v -0.338218 h 1.752793 v 0.350559 h -1.732937 c 0.380019,0.239614 0.800836,0.426208 1.254343,0.547747 0.394399,0.105704 0.790323,0.156814 1.179711,0.157478 v -1.055784 h 1.051675 v 0.93391 c 0.240199,-0.0569 0.474637,-0.133743 0.7010098,-0.228 v -0.70591 h 0.350559 v 0.54227 c 0.246665,-0.128181 0.481443,-0.278724 0.701117,-0.449837 v -0.09243 h 0.115021 c 0.03507,-0.02919 0.06985,-0.05875 0.104076,-0.08901 l -0.9202,-0.920216 v 0.658667 H 9.5181862 v -1.402234 h 0.308109 L 8.8170702,9.2099255 v 0.308108 H 5.3114852 V 9.167475 h 3.330305 c -0.483617,0 -0.876395,-0.3927791 -0.876395,-0.8763963 0,-0.2864083 0.137757,-0.5411424 0.350558,-0.7011169 V 6.0124484 H 5.3114852 V 5.66189 h 2.804468 V 3.9241606 Z m 0.529261,5.2433152 h 0.132829 l -0.0089,-0.0089 c -0.04054,0.00575 -0.0818,0.0089 -0.123925,0.0089 z M 7.0642772,4.9607733 h 0.701118 v 0.3505584 h -0.701118 z m -2.453909,2.103351 h 1.752792 v 0.3505585 h -1.752792 z m 4.031422,1.0516755 a 0.17527925,0.17527925 0 0 1 0.17528,0.1752792 0.17527925,0.17527925 0 0 1 -0.17528,0.1752793 0.17527925,0.17527925 0 0 1 -0.175279,-0.1752793 0.17527925,0.17527925 0 0 1 0.175279,-0.1752792 z m -2.629188,0.3505585 h 0.701116 v 0.3505585 h -0.701116 z m 3.360431,0.308108 c -0.06514,0.09829 -0.149565,0.1827145 -0.247856,0.2478561 l 2.6182338,2.6182336 c 0.08123,-0.08385 0.159259,-0.171185 0.234163,-0.261549 z m -4.412106,1.094126 h 1.752791 v 0.3505587 h -1.752791 z m 2.10335,0 h 0.701118 v 0.3505587 h -0.701118 z m 1.402234,0.3505587 h 0.350559 v 1.402234 h -0.350559 z m 1.402234,0.350558 v 0.701117 H 10.219303 V 10.61216 l -0.04245,-0.04245 z m -3.155027,0.701117 h 0.701118 v 0.350559 h -0.701118 z m 2.103352,1.051676 v 0.692216 c 0.117776,-0.0089 0.2347,-0.02244 0.350558,-0.0404 v -0.65182 z"
     style="fill:currentColor;stroke-width:0.350558"
     class="ColorScheme-Text" />
</svg>
