<?xml version="1.0" encoding="UTF-8" standalone="no"?>
<svg
   width="64"
   height="64"
   version="1.1"
   viewBox="0 0 16.933 16.933"
   id="svg7"
   sodipodi:docname="org.kde.kclock.svg"
   inkscape:version="1.4.3 (0d15f75042, 2025-12-25)"
   xmlns:inkscape="http://www.inkscape.org/namespaces/inkscape"
   xmlns:sodipodi="http://sodipodi.sourceforge.net/DTD/sodipodi-0.dtd"
   xmlns="http://www.w3.org/2000/svg"
   xmlns:svg="http://www.w3.org/2000/svg"
   xmlns:rdf="http://www.w3.org/1999/02/22-rdf-syntax-ns#"
   xmlns:cc="http://creativecommons.org/ns#"
   xmlns:dc="http://purl.org/dc/elements/1.1/">
  <sodipodi:namedview
     id="namedview7"
     pagecolor="#9c4444"
     bordercolor="#000000"
     borderopacity="0.25"
     inkscape:showpageshadow="2"
     inkscape:pageopacity="0.0"
     inkscape:pagecheckerboard="0"
     inkscape:deskcolor="#d1d1d1"
     inkscape:zoom="6.15625"
     inkscape:cx="57.258883"
     inkscape:cy="38.010152"
     inkscape:window-width="2560"
     inkscape:window-height="1388"
     inkscape:window-x="0"
     inkscape:window-y="0"
     inkscape:window-maximized="1"
     inkscape:current-layer="svg7"
     showgrid="false" />
  <defs
     id="defs2">
    <style
       id="current-color-scheme"
       type="text/css">.ColorScheme-Text {color:#d8dee9} .ColorScheme-Highlight {color:#3b4252}</style>
  </defs>
  <metadata
     id="metadata2">
    <rdf:RDF>
      <cc:Work
         rdf:about="">
        <dc:format>image/svg+xml</dc:format>
        <dc:type
           rdf:resource="http://purl.org/dc/dcmitype/StillImage" />
      </cc:Work>
    </rdf:RDF>
  </metadata>
  <path
     id="path5"
     style="fill:currentColor"
     d="m 8.4665,1.4551797 c -3.872252,0 -7.01132,3.1390683 -7.01132,7.0113203 0,3.872252 3.139068,7.01132 7.01132,7.01132 3.872252,0 7.01132,-3.139068 7.01132,-7.01132 0,-3.872252 -3.139068,-7.0113203 -7.01132,-7.0113203 z m 0,1.0016172 c 0.276697,0 0.500808,0.2241118 0.500808,0.5008086 v 1.0016172 c 0,0.2766967 -0.224111,0.5008086 -0.500808,0.5008086 0.276697,0 0.500808,0.2371804 0.500808,0.5301535 V 7.5993775 C 8.819906,7.513937 8.648819,7.4648828 8.4665,7.4648828 c -0.182319,0 -0.353406,0.049054 -0.500808,0.1344947 V 4.9901848 c 0,-0.2929731 0.224111,-0.5301535 0.500808,-0.5301535 -0.276697,0 -0.500808,-0.2241119 -0.500808,-0.5008086 V 2.9576055 c 0,-0.2766968 0.224111,-0.5008086 0.500808,-0.5008086 z M 4.22381,5.7120528 c 0.04155,10e-4 0.08377,0.012671 0.122267,0.035212 L 7.767616,7.7495226 C 7.643005,7.8710262 7.549727,8.024787 7.501562,8.1970225 L 4.088336,6.1996576 C 3.965137,6.1275406 3.922832,5.9675853 3.993946,5.8426336 4.042836,5.7567296 4.132399,5.7096564 4.22381,5.7120528 Z M 8.4665,7.7152871 c 0.41492,0 0.751213,0.336293 0.751213,0.7512129 0,0.41492 -0.336293,0.7512129 -0.751213,0.7512129 -0.41492,0 -0.751213,-0.3362929 -0.751213,-0.7512129 0,-0.4149199 0.336293,-0.7512129 0.751213,-0.7512129 z M 2.957605,7.9656914 h 1.001618 c 0.276697,0 0.500808,0.2241119 0.500808,0.5008086 0,0.2766968 -0.224111,0.5008086 -0.500808,0.5008086 H 2.957605 c -0.276697,0 -0.500808,-0.2241118 -0.500808,-0.5008086 0,-0.2766967 0.224111,-0.5008086 0.500808,-0.5008086 z m 5.508895,0 c -0.275845,0 -0.500808,0.2249633 -0.500808,0.5008086 0,0.2758454 0.224963,0.5008086 0.500808,0.5008086 0.275845,0 0.500808,-0.2249632 0.500808,-0.5008086 0,-0.2758453 -0.224963,-0.5008086 -0.500808,-0.5008086 z m 4.507277,0 h 1.001618 c 0.276696,0 0.500808,0.2241119 0.500808,0.5008086 0,0.2766968 -0.224112,0.5008086 -0.500808,0.5008086 h -1.001618 c -0.276697,0 -0.500808,-0.2241118 -0.500808,-0.5008086 0,-0.2766967 0.224111,-0.5008086 0.500808,-0.5008086 z M 8.4665,8.2160957 c 0.138223,0 0.250404,0.1121812 0.250404,0.2504043 0,0.1382232 -0.112181,0.2504043 -0.250404,0.2504043 -0.138223,0 -0.250404,-0.1121811 -0.250404,-0.2504043 0,-0.1382231 0.112181,-0.2504043 0.250404,-0.2504043 z m 0.978142,0.4665734 2.870357,2.8703569 c 0.210339,0.21059 0.210339,0.551383 0,0.761973 -0.21059,0.210339 -0.551383,0.210339 -0.761973,0 L 8.682669,9.4446419 C 9.061822,9.3609449 9.360944,9.0618212 9.444642,8.6826691 Z M 8.4665,12.472969 c 0.276697,0 0.500808,0.224112 0.500808,0.500808 v 1.001618 c 0,0.276696 -0.224111,0.500808 -0.500808,0.500808 -0.276697,0 -0.500808,-0.224112 -0.500808,-0.500808 v -1.001618 c 0,-0.276696 0.224111,-0.500808 0.500808,-0.500808 z"
     class="ColorScheme-Text" />
</svg>
