<?xml version='1.0' encoding='UTF-8'?>
<svg xmlns:inkscape="http://www.inkscape.org/namespaces/inkscape" xmlns:sodipodi="http://sodipodi.sourceforge.net/DTD/sodipodi-0.dtd" xmlns="http://www.w3.org/2000/svg" xmlns:svg="http://www.w3.org/2000/svg" xmlns:rdf="http://www.w3.org/1999/02/22-rdf-syntax-ns#" xmlns:cc="http://creativecommons.org/ns#" xmlns:dc="http://purl.org/dc/elements/1.1/" width="64" height="64" version="1.1" viewBox="0 0 16.933 16.933" id="svg7" sodipodi:docname="kde.svg" inkscape:version="1.4.2 (ebf0e940d0, 2025-05-08)">
  <sodipodi:namedview id="namedview7" pagecolor="#9c4444" bordercolor="#000000" borderopacity="0.25" inkscape:showpageshadow="2" inkscape:pageopacity="0.0" inkscape:pagecheckerboard="0" inkscape:deskcolor="#d1d1d1" inkscape:zoom="4.3531261" inkscape:cx="36.295755" inkscape:cy="40.890155" inkscape:window-width="2560" inkscape:window-height="1376" inkscape:window-x="0" inkscape:window-y="0" inkscape:window-maximized="1" inkscape:current-layer="svg7" showgrid="false"/>
  <defs id="defs2">
    <style id="current-color-scheme" type="text/css">.ColorScheme-Text {color:#d8dee9} .ColorScheme-Highlight {color:#3b4252}</style>
    </defs>
  <metadata id="metadata2">
    <rdf:RDF>
      <cc:Work rdf:about="">
        <dc:format>image/svg+xml</dc:format>
        <dc:type rdf:resource="http://purl.org/dc/dcmitype/StillImage"/>
      </cc:Work>
    </rdf:RDF>
  </metadata>
  <path id="path24-3" style="fill:currentColor;stroke-width:0.264578" class="ColorScheme-Text" d="M 30.993474 -8.7310414 L 30.237476 -8.6611617 L 30.237476 -5.7073442 L 30.993474 -5.8584554 L 30.993474 -7.0680817 L 31.900583 -5.7073442 L 32.656433 -6.009714 L 31.673842 -7.2818487 L 32.657023 -8.5799303 L 31.865496 -8.7310414 L 30.993474 -7.4459333 L 30.993474 -8.7310414 z M 29.354987 -8.0331291 C 29.338884 -8.0325941 29.32357 -8.0265633 29.310611 -8.0135215 L 28.989666 -7.6925761 C 28.960056 -7.6629771 28.960056 -7.6153025 28.989666 -7.5856926 L 29.321226 -7.0648383 C 29.294686 -7.0112973 29.271648 -6.9559975 29.252378 -6.8994269 L 28.649998 -6.765712 C 28.608118 -6.7657066 28.574516 -6.7319727 28.574516 -6.6900827 L 28.574516 -6.2364544 C 28.574516 -6.1945694 28.609118 -6.1699101 28.649998 -6.1608251 L 29.252673 -6.0268153 C 29.271343 -5.9708163 29.293677 -5.915997 29.319457 -5.8628782 L 28.987307 -5.3408444 C 28.964827 -5.3055304 28.957697 -5.2635708 28.987307 -5.2339609 L 29.307958 -4.9130156 C 29.337568 -4.8834166 29.385226 -4.8834166 29.414841 -4.9130156 L 29.936875 -5.2454601 C 29.990885 -5.2185461 30.046665 -5.1953893 30.103761 -5.1758753 L 30.237476 -4.5734947 C 30.237476 -4.5316097 30.271225 -4.4978654 30.313105 -4.4978654 L 30.766733 -4.4978654 C 30.808613 -4.4978654 30.833135 -4.5325867 30.842215 -4.5734947 L 30.976372 -5.1761701 C 31.033222 -5.1951401 31.088662 -5.2177239 31.142521 -5.2439859 L 31.662196 -4.9130156 C 31.691806 -4.8834166 31.739612 -4.8834166 31.769227 -4.9130156 L 32.090172 -5.2339609 C 32.119782 -5.2635599 32.112652 -5.3055135 32.090172 -5.3408444 L 31.948349 -5.563457 L 31.842645 -5.5212933 L 31.504008 -6.0291741 C 31.33332 -5.6496328 30.955998 -5.405397 30.539845 -5.4049745 C 29.955355 -5.4049745 29.481625 -5.8787027 29.481625 -6.4631948 C 29.482093 -6.8715238 29.717434 -7.2432149 30.086365 -7.4182173 L 30.086365 -7.7435854 C 30.035495 -7.7261574 29.985625 -7.7058472 29.93717 -7.6825512 L 29.417495 -8.0135215 C 29.399825 -8.0247775 29.380516 -8.0321246 29.361916 -8.0329816 C 29.359591 -8.0331241 29.357287 -8.0332055 29.354987 -8.0331291 z " transform="matrix(3.5051881,0,0,3.5051881,-98.847533,31.651404)"/>
</svg>
