<?xml version="1.0" encoding="UTF-8" standalone="no"?>
<!-- Created with Inkscape (http://www.inkscape.org/) -->

<svg
   width="64"
   version="1.1"
   height="64"
   id="svg1"
   sodipodi:docname="kdeconnect.svg"
   inkscape:version="1.4.2 (ebf0e940d0, 2025-05-08)"
   xmlns:inkscape="http://www.inkscape.org/namespaces/inkscape"
   xmlns:sodipodi="http://sodipodi.sourceforge.net/DTD/sodipodi-0.dtd"
   xmlns="http://www.w3.org/2000/svg"
   xmlns:svg="http://www.w3.org/2000/svg">
  <sodipodi:namedview
     id="namedview1"
     pagecolor="#9c4444"
     bordercolor="#000000"
     borderopacity="0.25"
     inkscape:showpageshadow="2"
     inkscape:pageopacity="0.0"
     inkscape:pagecheckerboard="0"
     inkscape:deskcolor="#d1d1d1"
     inkscape:zoom="16"
     inkscape:cx="16.34375"
     inkscape:cy="29.25"
     inkscape:window-width="2560"
     inkscape:window-height="1388"
     inkscape:window-x="0"
     inkscape:window-y="0"
     inkscape:window-maximized="1"
     inkscape:current-layer="svg1" />
  <defs
     id="defs5455">
    <style
       id="current-color-scheme"
       type="text/css">.ColorScheme-Text {color:#d8dee9} .ColorScheme-Highlight {color:#3b4252}</style>
  </defs>
  <metadata
     id="metadata5458" />
  <path
     id="path5"
     style="fill:currentColor;fill-opacity:1;stroke-width:4.45077"
     d="m 34.282155,5.5 -8.192179,0.789607 v 33.750909 l 8.110329,-1.227744 V 24.426508 l 4.229698,6.191679 v -2.051054 c 0,-1.50483 1.225092,-2.729924 2.729923,-2.729924 h 3.873412 L 42.481555,22.329715 53.73587,7.854378 45.023706,5.851471 34.200305,20.331622 34.28215,5.507221 Z m -18.53411,8.221067 c -0.01179,4.89e-4 -0.02461,0.0013 -0.03611,0.0024 v 0.01206 c -0.09299,0.01379 -0.185978,0.03287 -0.255177,0.10111 l -3.225836,3.225835 c -0.135159,0.136059 -0.149063,0.336995 -0.05055,0.500727 l 3.765079,6.21816 c -0.668291,1.123336 -1.216402,2.331062 -1.598472,3.608604 l -6.913882,1.432366 c -0.192398,0.04123 -0.332213,0.2243 -0.332213,0.421285 v 4.547465 c 0,0.192399 0.145754,0.353808 0.332213,0.399619 l 6.702034,1.634585 c 0.358703,1.479156 0.913593,2.894778 1.646622,4.183956 l -3.88304,5.912427 c -0.108133,0.165368 -0.09054,0.392481 0.05055,0.532022 l 3.218614,3.213799 c 0.135129,0.135127 0.349079,0.146655 0.512763,0.04815 l 6.095385,-3.680822 c 1.194851,0.689872 2.481823,1.235242 3.844523,1.603288 l 1.422738,6.827215 c 0.04123,0.192849 0.202638,0.337028 0.399619,0.337028 h 4.554686 c 0.191049,0 0.361945,-0.132811 0.40684,-0.320175 l 1.677917,-6.863327 c 1.405399,-0.379315 2.719944,-0.94444 3.945631,-1.66588 l 0.402025,0.264808 v -4.376544 c -2.297411,2.006485 -5.306828,3.221021 -8.594203,3.221021 -7.200029,0 -13.040561,-5.838079 -13.040561,-13.038155 0,-5.296109 3.175476,-9.846455 7.710709,-11.887444 v -3.363056 c -0.825428,0.2886 -1.622957,0.63911 -2.38086,1.052009 v -0.0073 -0.01206 l -6.148346,-4.020259 c -0.06185,-0.04019 -0.127385,-0.06116 -0.194995,-0.06499 -0.01126,-6.39e-4 -0.02194,-4.91e-4 -0.03371,0 z m 25.411881,13.964979 c -0.487762,0 -0.881087,0.393325 -0.881087,0.881087 v 29.05178 c 0,0.487762 0.393325,0.881087 0.881087,0.881087 h 14.858103 c 0.48776,0 0.881087,-0.393325 0.881087,-0.881087 v -29.05178 c 0,-0.487762 -0.393327,-0.881087 -0.881087,-0.881087 z m 4.756905,1.100155 h 5.341887 c 0.246653,0 0.445357,0.196296 0.445357,0.44295 v 0.211846 c 0,0.246654 -0.198704,0.445358 -0.445357,0.445358 h -5.341887 c -0.246652,0 -0.445357,-0.198704 -0.445357,-0.445358 v -0.211846 c 0,-0.246654 0.198705,-0.44295 0.445357,-0.44295 z m -4.600427,2.200308 H 55.861552 V 55.199538 H 41.316403 Z m 1.848837,1.848837 v 4.71598 l 1.940317,2.840662 8.541242,-2.713072 -3.524347,-4.84357 z m 0,7.607195 v 8.880679 l 0.876272,0.575353 c 0.165365,0.107656 0.384799,0.08964 0.524801,-0.05055 l 3.201762,-3.230651 c 0.136058,-0.136058 0.16685,-0.33746 0.0674,-0.500726 l -2.185864,-3.608603 -0.719794,0.231105 c -0.103549,0.02757 -0.214988,-0.02605 -0.276845,-0.113142 0,0 -0.58336,-0.857924 -1.487736,-2.183458 z"
     class="ColorScheme-Text" />
</svg>
