<?xml version="1.0" encoding="UTF-8" standalone="no"?>
<svg
   width="64"
   height="64"
   version="1.1"
   viewBox="0 0 16.933 16.933"
   id="svg7"
   sodipodi:docname="kdenlive.svg"
   inkscape:version="1.4.2 (ebf0e940d0, 2025-05-08)"
   xmlns:inkscape="http://www.inkscape.org/namespaces/inkscape"
   xmlns:sodipodi="http://sodipodi.sourceforge.net/DTD/sodipodi-0.dtd"
   xmlns="http://www.w3.org/2000/svg"
   xmlns:svg="http://www.w3.org/2000/svg"
   xmlns:rdf="http://www.w3.org/1999/02/22-rdf-syntax-ns#"
   xmlns:cc="http://creativecommons.org/ns#"
   xmlns:dc="http://purl.org/dc/elements/1.1/">
  <sodipodi:namedview
     id="namedview7"
     pagecolor="#9c4444"
     bordercolor="#000000"
     borderopacity="0.25"
     inkscape:showpageshadow="2"
     inkscape:pageopacity="0.0"
     inkscape:pagecheckerboard="0"
     inkscape:deskcolor="#d1d1d1"
     inkscape:zoom="6.15625"
     inkscape:cx="109.07614"
     inkscape:cy="58.152284"
     inkscape:window-width="2560"
     inkscape:window-height="1392"
     inkscape:window-x="0"
     inkscape:window-y="0"
     inkscape:window-maximized="1"
     inkscape:current-layer="svg7"
     showgrid="false" />
  <defs
     id="defs2">
    <style
       id="current-color-scheme"
       type="text/css">.ColorScheme-Text {color:#d8dee9} .ColorScheme-Highlight {color:#3b4252}</style>
  </defs>
  <metadata
     id="metadata2">
    <rdf:RDF>
      <cc:Work
         rdf:about="">
        <dc:format>image/svg+xml</dc:format>
        <dc:type
           rdf:resource="http://purl.org/dc/dcmitype/StillImage" />
      </cc:Work>
    </rdf:RDF>
  </metadata>
  <path
     id="path10"
     style="fill:currentColor;fill-opacity:1;stroke-width:0.719109;stroke-linejoin:round"
     d="M 6.309171,1.4551797 7.387836,2.8933993 8.466501,4.3316187 9.545165,2.8933993 10.62383,1.4551797 H 8.466501 Z M 1.275402,2.5338443 V 14.75871 H 7.848515 L 7.837915,3.9460803 7.17007,3.0563225 6.778211,2.5338443 Z m 8.879321,0 L 9.762864,3.0563225 9.097828,3.9425692 V 14.75871 h 6.55977 V 2.5338443 Z M 8.826055,4.3295122 8.466501,4.8084503 8.109755,4.332321 8.121035,15.47782 H 8.8261 Z M 6.309171,4.6911737 H 7.387836 V 5.4102834 H 6.309171 Z m 4.349771,0.7191097 c 0.05104,0.00104 0.100143,0.016626 0.142558,0.049861 l 3.632067,2.8469444 c 0.193931,0.1520662 0.194375,0.5073212 0,0.6587157 l -3.638388,2.8666067 c -0.193113,0.153289 -0.530905,-0.07132 -0.530905,-0.329358 l 0.0064,-5.7135513 c -4.32e-4,-0.1935099 0.19003,-0.3678085 0.366577,-0.3785161 0.0073,-4.315e-4 0.01447,-8.629e-4 0.02177,-7.19e-4 z M 5.230507,6.1293932 H 7.387836 V 6.848503 H 5.230507 Z M 3.432732,7.5676128 H 7.387836 V 8.2867225 H 3.432732 Z M 1.994513,9.0058323 H 7.387836 V 9.724942 H 1.994513 Z m 1.438219,1.4382197 h 3.955104 v 0.71911 H 3.432732 Z m 1.797775,1.438219 h 2.157329 v 0.71911 H 5.230507 Z"
     class="ColorScheme-Text" />
</svg>
