<?xml version="1.0" encoding="UTF-8" standalone="no"?>
<svg
   width="64"
   height="64"
   version="1.1"
   viewBox="0 0 16.933 16.933"
   id="svg7"
   sodipodi:docname="kfontview.svg"
   inkscape:version="1.4.2 (ebf0e940d0, 2025-05-08)"
   xmlns:inkscape="http://www.inkscape.org/namespaces/inkscape"
   xmlns:sodipodi="http://sodipodi.sourceforge.net/DTD/sodipodi-0.dtd"
   xmlns="http://www.w3.org/2000/svg"
   xmlns:svg="http://www.w3.org/2000/svg"
   xmlns:rdf="http://www.w3.org/1999/02/22-rdf-syntax-ns#"
   xmlns:cc="http://creativecommons.org/ns#"
   xmlns:dc="http://purl.org/dc/elements/1.1/">
  <sodipodi:namedview
     id="namedview7"
     pagecolor="#9c4444"
     bordercolor="#000000"
     borderopacity="0.25"
     inkscape:showpageshadow="2"
     inkscape:pageopacity="0.0"
     inkscape:pagecheckerboard="0"
     inkscape:deskcolor="#d1d1d1"
     inkscape:zoom="5.6568543"
     inkscape:cx="80.875338"
     inkscape:cy="24.218407"
     inkscape:window-width="2560"
     inkscape:window-height="1392"
     inkscape:window-x="0"
     inkscape:window-y="0"
     inkscape:window-maximized="1"
     inkscape:current-layer="svg7"
     showgrid="true">
    <inkscape:grid
       id="grid1"
       units="px"
       originx="0"
       originy="0"
       spacingx="0.26457812"
       spacingy="0.26457812"
       empcolor="#0099e5"
       empopacity="0.30196078"
       color="#0099e5"
       opacity="0.14902"
       empspacing="5"
       enabled="true"
       visible="true" />
  </sodipodi:namedview>
  <defs
     id="defs2">
    <style
       id="current-color-scheme"
       type="text/css">.ColorScheme-Text {color:#d8dee9} .ColorScheme-Highlight {color:#3b4252}</style>
  </defs>
  <metadata
     id="metadata2">
    <rdf:RDF>
      <cc:Work
         rdf:about="">
        <dc:format>image/svg+xml</dc:format>
        <dc:type
           rdf:resource="http://purl.org/dc/dcmitype/StillImage" />
      </cc:Work>
    </rdf:RDF>
  </metadata>
  <path
     id="path6"
     d="M 2.8574445,1.4551797 V 15.47782 H 14.075556 V 4.9608399 l -3.50566,-3.5056602 z m 7.7124515,0.701132 2.804529,2.8045282 H 10.569896 Z M 6.3685795,5.6585468 h 0.806579 l 1.992474,5.6104272 h -0.68196 L 7.8653355,9.4942334 h -2.248555 l -0.674426,1.7747406 h -0.681963 z m 0.410138,0.6463561 -0.953101,2.6744365 h 1.813765 z m 4.4293175,0.7264674 c 0.820472,0 1.463204,0.2644004 1.463204,1.1715215 v 2.9791242 h -0.51832 l -0.09312,-0.445738 c -0.363894,0.399407 -0.858967,0.535434 -1.292029,0.535434 -0.681341,0 -1.2619015,-0.3478 -1.2619015,-1.103733 0,-1.0657521 1.0524925,-1.2093124 2.1211985,-1.3604975 l 0.417672,-0.045192 v -0.460801 c 0,-0.4912411 -0.248243,-0.7483778 -0.820955,-0.7483778 -0.456928,0 -0.952039,0.1131978 -1.2927135,0.2718254 L 9.7530505,7.3415406 C 10.070376,7.175467 10.619605,7.0313703 11.208036,7.0313703 Z m 0.836019,2.1622807 c 0,0 -0.371701,0.052722 -0.379322,0.052722 -1.176868,0.151185 -1.524826,0.3326274 -1.524826,0.899696 0,0.453559 0.293816,0.642931 0.688807,0.642931 0.394513,0 0.944232,-0.234893 1.215341,-0.597743 z"
     style="fill:currentColor;stroke-width:0.350566"
     class="ColorScheme-Text" />
</svg>
