<?xml version="1.0" encoding="UTF-8" standalone="no"?>
<svg
   width="64"
   height="64"
   version="1.1"
   viewBox="0 0 16.933 16.933"
   id="svg7"
   sodipodi:docname="kid3.svg"
   inkscape:version="1.4.3 (0d15f75042, 2025-12-25)"
   xmlns:inkscape="http://www.inkscape.org/namespaces/inkscape"
   xmlns:sodipodi="http://sodipodi.sourceforge.net/DTD/sodipodi-0.dtd"
   xmlns="http://www.w3.org/2000/svg"
   xmlns:svg="http://www.w3.org/2000/svg"
   xmlns:rdf="http://www.w3.org/1999/02/22-rdf-syntax-ns#"
   xmlns:cc="http://creativecommons.org/ns#"
   xmlns:dc="http://purl.org/dc/elements/1.1/">
  <sodipodi:namedview
     id="namedview7"
     pagecolor="#9c4444"
     bordercolor="#000000"
     borderopacity="0.25"
     inkscape:showpageshadow="2"
     inkscape:pageopacity="0.0"
     inkscape:pagecheckerboard="0"
     inkscape:deskcolor="#d1d1d1"
     inkscape:zoom="6.15625"
     inkscape:cx="15.51269"
     inkscape:cy="30.050761"
     inkscape:window-width="2560"
     inkscape:window-height="1388"
     inkscape:window-x="0"
     inkscape:window-y="0"
     inkscape:window-maximized="1"
     inkscape:current-layer="svg7"
     showgrid="false" />
  <defs
     id="defs2">
    <style
       id="current-color-scheme"
       type="text/css">.ColorScheme-Text {color:#d8dee9} .ColorScheme-Highlight {color:#3b4252}</style>
  </defs>
  <metadata
     id="metadata2">
    <rdf:RDF>
      <cc:Work
         rdf:about="">
        <dc:format>image/svg+xml</dc:format>
        <dc:type
           rdf:resource="http://purl.org/dc/dcmitype/StillImage" />
      </cc:Work>
    </rdf:RDF>
  </metadata>
  <path
     id="path5"
     style="fill:currentColor;fill-opacity:1;stroke-width:0.310416"
     d="m 3.3868458,1.4551807 c -1.066394,0 -1.931851,0.8663917 -1.931851,1.9342965 v 9.5927418 c 0,1.067903 0.865457,1.934785 1.931851,1.934785 h 4.901033 l -1.312191,-2.27665 c -0.268327,-0.465629 -0.10926,-1.058245 0.355558,-1.326864 l 1.323929,-0.765404 C 8.4421978,10.399873 8.2858198,10.192106 8.2203868,9.9416315 8.0506698,9.2929654 8.5460008,8.5915443 9.3369478,8.3741422 9.7750258,8.2537565 10.198181,8.3272672 10.527359,8.5096162 V 4.3099186 l -4.1013932,1.1610671 -0.01859,5.3221273 c -0.0693,0.51695 -0.504015,1.007487 -1.135146,1.18063 -0.790947,0.217048 -1.569929,-0.144969 -1.739645,-0.793281 -0.169362,-0.648312 0.326458,-1.3504416 1.11705,-1.5674896 0.438432,-0.1203857 0.860745,-0.04701 1.189923,0.134985 V 4.1162445 c 0,-0.3551377 0.261821,-0.7211392 0.586402,-0.8128447 L 10.746949,2.1227697 c 0.210376,0.037532 0.366318,0.2366407 0.366318,0.5032595 l -0.0176,6.5110718 0.508151,-0.2934458 a 0.50045978,0.50116858 0 0 1 0.0063,-0.00392 c 0.412292,-0.2300127 1.283447,-0.3577844 1.979292,-0.3438207 0.4157,0.00834 0.89026,0.06491 1.308278,0.2308439 v -5.337283 c 0,-1.0679048 -0.865457,-1.9342965 -1.931851,-1.9342965 z M 13.579195,8.9967361 C 12.843617,8.9819751 12.116006,9.1311476 11.853733,9.2774659 L 7.5816528,11.74779 c -0.22551,0.130322 -0.302293,0.416817 -0.172154,0.642646 l 1.644273,2.851804 c 0.130138,0.225593 0.416159,0.302476 0.641669,0.172154 L 13.968011,12.94456 c 0.332156,-0.199247 1.97135,-2.226439 1.384085,-3.2450214 C 15.058464,9.1902474 14.314773,9.0114975 13.579195,8.9967361 Z m 0.552166,0.9380484 c 0.167489,0 0.323051,0.089868 0.406912,0.2352455 0.128728,0.223477 0.051,0.5135 -0.172155,0.642646 -0.07141,0.0414 -0.152305,0.06309 -0.234757,0.06309 -0.167722,0 -0.323049,-0.08987 -0.406911,-0.235246 -0.04134,-0.07151 -0.06309,-0.152677 -0.06309,-0.235245 0,-0.167961 0.09007,-0.323421 0.235245,-0.4074008 0.07141,-0.041402 0.152305,-0.063091 0.234756,-0.063092 z m -1.604658,0.040104 0.234756,0.4074005 -0.813823,0.470491 0.704759,1.222202 0.406911,-0.235246 -0.117378,-0.203455 -0.203456,0.117377 -0.234756,-0.4074 0.813823,-0.470491 0.234757,0.4074 -0.203456,0.117868 0.352624,0.610856 -0.813823,0.470491 -0.406912,0.235246 -1.17476,-2.037002 z m -1.627157,0.9409825 1.174272,2.037003 -0.406912,0.235245 -0.470001,-0.8148 -0.406423,0.235245 0.469513,0.814801 -0.406912,0.235246 -1.1742712,-2.037003 0.4069112,-0.235245 z m -0.172155,0.642647 -0.406911,0.235244 0.234756,0.407401 0.406912,-0.235245 z m -1.4554912,0.298335 0.234757,0.407402 -0.406911,0.235246 0.9395152,1.629601 -0.4064222,0.235246 -0.940004,-1.629602 -0.406912,0.235245 -0.234757,-0.4074 z m 5.6258442,0.827029 c -0.222926,0.288452 -0.478823,0.574409 -0.67248,0.690576 a 0.50045978,0.50116858 0 0 1 -0.0074,0.0044 l -2.660575,1.538145 h 1.40854 c 1.066394,0 1.931851,-0.866881 1.931851,-1.934785 z"
     class="ColorScheme-Text" />
</svg>
