<?xml version="1.0" encoding="UTF-8" standalone="no"?>
<svg
   width="64"
   height="64"
   version="1.1"
   viewBox="0 0 16.933 16.933"
   id="svg7"
   sodipodi:docname="kitty.svg"
   inkscape:version="1.4.2 (ebf0e940d0, 2025-05-08)"
   xmlns:inkscape="http://www.inkscape.org/namespaces/inkscape"
   xmlns:sodipodi="http://sodipodi.sourceforge.net/DTD/sodipodi-0.dtd"
   xmlns="http://www.w3.org/2000/svg"
   xmlns:svg="http://www.w3.org/2000/svg"
   xmlns:rdf="http://www.w3.org/1999/02/22-rdf-syntax-ns#"
   xmlns:cc="http://creativecommons.org/ns#"
   xmlns:dc="http://purl.org/dc/elements/1.1/">
  <sodipodi:namedview
     id="namedview7"
     pagecolor="#9c4444"
     bordercolor="#000000"
     borderopacity="0.25"
     inkscape:showpageshadow="2"
     inkscape:pageopacity="0.0"
     inkscape:pagecheckerboard="0"
     inkscape:deskcolor="#d1d1d1"
     inkscape:zoom="4.3531261"
     inkscape:cx="36.295755"
     inkscape:cy="41.349595"
     inkscape:window-width="2560"
     inkscape:window-height="1376"
     inkscape:window-x="0"
     inkscape:window-y="0"
     inkscape:window-maximized="1"
     inkscape:current-layer="svg7"
     showgrid="false" />
  <defs
     id="defs2">
    <style
       id="current-color-scheme"
       type="text/css">.ColorScheme-Text {color:#d8dee9} .ColorScheme-Highlight {color:#3b4252}</style>
  </defs>
  <metadata
     id="metadata2">
    <rdf:RDF>
      <cc:Work
         rdf:about="">
        <dc:format>image/svg+xml</dc:format>
        <dc:type
           rdf:resource="http://purl.org/dc/dcmitype/StillImage" />
      </cc:Work>
    </rdf:RDF>
  </metadata>
  <path
     id="path5"
     class="ColorScheme-Text"
     style="fill:currentColor;fill-opacity:1;fill-rule:evenodd;stroke-width:0.176706"
     d="m 3.8201654,1.8520701 c -0.088577,6.134e-4 -0.1633328,0.010405 -0.2182393,0.026873 -0.054906,0.016434 -0.087762,0.038409 -0.1053175,0.059055 l -0.00101,0.00137 -0.00128,0.00115 c -0.025193,0.027994 -0.04996,0.086259 -0.058173,0.1765428 -0.012319,0.1354197 0.012471,0.332706 0.070973,0.5549774 0.1462552,0.5556799 0.4974642,1.2721627 0.8751123,1.7417337 l 0.0384,0.047907 -0.014955,0.059317 C 4.3787805,4.6285751 4.3569494,4.7350222 4.3421809,4.8430306 4.7517713,5.1785359 5.0881332,5.6036832 5.2932082,6.0861844 L 5.0939858,6.2230585 c -0.05742,-0.055565 -0.11529,-0.109858 -0.173375,-0.1627279 0.071891,0.070877 0.1407066,0.1444988 0.2059461,0.2203933 0.3332009,0.087976 0.6212896,0.3200447 0.6954007,0.6316522 h 1.9568048 c 0.011316,-0.098608 0.082796,-0.1815865 0.2203931,-0.2277613 0.1147106,-0.0385 0.2807006,-0.055003 0.4924964,-0.055003 h 0.00203 0.00203 c 0.2105147,0.00699 0.3723275,0.025384 0.4836245,0.062602 0.135945,0.04547 0.20451,0.1245335 0.217986,0.2201403 h 1.9309506 c 0.09821,-0.2712146 0.394461,-0.4756997 0.635963,-0.5818449 0.07752,-0.09364 0.160407,-0.1838045 0.247896,-0.2700746 -0.05805,0.052828 -0.115866,0.1070769 -0.173247,0.162602 L 11.639654,6.0861937 C 11.852258,5.5859794 12.205967,5.1475562 12.63618,4.806539 12.62167,4.71109 12.60175,4.6164744 12.57788,4.5210036 l -0.01444,-0.057407 0.03586,-0.047141 c 0.357118,-0.4693891 0.694018,-1.1927594 0.832277,-1.7502258 0.0553,-0.2229855 0.0778,-0.4202787 0.06438,-0.5538363 -0.0089,-0.08904 -0.03402,-0.1448775 -0.05741,-0.1695729 -0.02483,-0.026209 -0.07866,-0.054477 -0.164757,-0.069835 -0.129141,-0.023038 -0.321131,-0.015759 -0.541035,0.021676 -0.549762,0.093561 -1.277143,0.3685748 -1.790401,0.6867826 l -0.05932,0.036875 -0.06197,-0.031805 C 10.14987,2.2423172 9.3379674,2.0345772 8.4741734,2.0345772 c -0.8818295,0 -1.6934416,0.2077411 -2.3646409,0.5519365 l -0.061969,0.031806 -0.059312,-0.036875 C 5.6673215,2.3824755 5.2606804,2.1973023 4.8660032,2.0639817 4.4713266,1.9306599 4.0858413,1.8501897 3.8201777,1.8520781 Z m 2.9929983,2.2860652 c 0.6865585,0 1.2541798,0.567603 1.2541798,1.2541797 0,0.6865767 -0.5675852,1.2543057 -1.2541798,1.2543057 -0.6864913,0 -1.2543064,-0.5677622 -1.2543064,-1.2543057 0,-0.6865767 0.5677477,-1.2541797 1.2543064,-1.2541797 z m 3.3220053,0 c 0.686559,0 1.25418,0.567603 1.25418,1.2541797 0,0.6862859 -0.54979,1.2543057 -1.25418,1.2543057 -0.6865946,0 -1.2543066,-0.567729 -1.2543066,-1.2543057 0,-0.6865767 0.567748,-1.2541797 1.2543066,-1.2541797 z M 2.1949029,4.2235587 C 2.014734,4.2232131 1.8359012,4.2409548 1.6608372,4.2783103 2.9335503,4.4910115 4.0042757,4.9989463 4.9723228,5.8576938 4.7225761,5.4243122 4.3569003,5.0503091 3.9302993,4.7700463 3.4077547,4.4267494 2.7944338,4.2247638 2.1949029,4.2235599 Z m 12.5430661,0 c -0.599532,0.00126 -1.212853,0.2031895 -1.735397,0.5464864 -0.4266,0.2802628 -0.792277,0.654266 -1.042024,1.0876477 0.968049,-0.8587486 2.038768,-1.3666837 3.311486,-1.5793837 -0.175067,-0.037355 -0.353895,-0.055117 -0.534065,-0.05475 z M 6.811136,4.9672456 c -0.1301239,0 -0.2342082,0.2473856 -0.2342082,0.5654962 0,0.3180418 0.1040156,0.5653689 0.2342082,0.5653689 0.1301929,0 0.2343349,-0.2473843 0.2343349,-0.5654959 0,-0.318042 -0.1041422,-0.5653692 -0.2343349,-0.5653692 z m 3.284744,0 c -0.1301236,0 -0.2343346,0.2473856 -0.2343346,0.5654962 0,0.3180418 0.104139,0.5653689 0.2343346,0.5653689 0.130194,0 0.234335,-0.2473843 0.234335,-0.5654959 0,-0.318042 -0.104149,-0.5653692 -0.234335,-0.5653692 z m 4.903165,0.072616 c -0.578223,-0.012006 -1.176117,0.1239016 -1.719302,0.3741254 -0.291961,0.1344949 -0.568057,0.3019495 -0.816812,0.496805 0.187247,-0.1227297 0.42104,-0.1918787 0.668658,-0.1918787 0.01549,0 0.03083,3.467e-4 0.04601,8.859e-4 C 14.131316,5.3563798 15.12855,5.19496 16.187957,5.3058799 15.81939,5.1331425 15.414393,5.0484814 14.999047,5.0398612 Z M 1.9169707,5.0402092 c -0.4094198,0.010524 -0.8083574,0.095255 -1.1719281,0.2656387 1.0594221,-0.1109446 2.0566198,0.050357 3.0103608,0.413793 0.015335,-5.551e-4 0.030632,-7.611e-4 0.046006,-7.611e-4 0.2468591,0 0.4800365,0.068702 0.6670118,0.1907376 C 4.2105778,5.7078448 3.9235111,5.5354954 3.6197962,5.3987447 3.0802735,5.1558225 2.4885961,5.025482 1.9169707,5.0402092 Z M 12.623884,5.5623607 c -0.02597,0.018746 -0.05188,0.037813 -0.07768,0.057028 0.02536,-0.017556 0.05102,-0.034815 0.0768,-0.051833 3.43e-4,-0.00171 5.64e-4,-0.00355 8.83e-4,-0.00514 z m -8.2576128,0.041819 c 9.68e-5,4.853e-4 2.843e-4,0.00103 3.801e-4,0.00149 0.00772,0.00526 0.015509,0.010524 0.023192,0.015839 -0.00779,-0.00584 -0.015765,-0.011588 -0.023572,-0.017362 z M 3.8014086,5.9036571 c -0.3976419,0 -0.7249072,0.2055803 -0.8798015,0.5153087 l -0.109754,0.067798 h -0.052975 c -0.4169479,0 -0.7609231,0.3056381 -0.7609231,0.672589 0,0.5264901 0.5451554,0.8121457 1.0546973,0.6268363 l 0.1428315,0.045618 c 0.3042556,0.4411894 0.9485025,0.473729 1.1861225,0.013436 L 4.4855297,7.7789549 C 4.8932665,7.761984 5.4978208,7.7007089 5.5887672,7.1399532 5.644773,6.7898227 5.2629965,6.4867551 4.8263231,6.4867551 H 4.7733479 L 4.6594123,6.4096978 C 4.5395957,6.110098 4.2021829,5.903641 3.8014093,5.903641 Z m 9.3301804,0 c -0.399214,0 -0.738653,0.2076219 -0.858003,0.5060567 l -0.03092,0.077058 h -0.135989 c -0.03267,0 -0.116162,0.017041 -0.206834,0.053355 -0.09066,0.036315 -0.192171,0.090231 -0.282368,0.155378 -0.180392,0.1302936 -0.2977,0.2915565 -0.273242,0.4444636 0.02316,0.1428118 0.07562,0.2461932 0.147014,0.328119 0.07141,0.081933 0.163923,0.142759 0.270328,0.1880768 0.212809,0.09063 0.477927,0.1141502 0.685895,0.1228074 l 0.07122,0.00286 0.03269,0.06337 c 0.06019,0.1165943 0.142693,0.1983266 0.238897,0.2525848 0.0962,0.05426 0.206992,0.080582 0.321658,0.078706 0.229331,-0.00378 0.471396,-0.1212064 0.625568,-0.3447218 l 0.05373,-0.077938 0.08911,0.03232 c 0.258574,0.094042 0.526198,0.065075 0.724805,-0.050311 0.09931,-0.057693 0.181298,-0.1364371 0.238769,-0.2326871 0.05748,-0.096249 0.09112,-0.2102476 0.09112,-0.3438349 0,-0.1620422 -0.127577,-0.3349044 -0.300365,-0.4655012 C 14.548272,6.6285154 14.453328,6.5751 14.368655,6.5392002 14.283995,6.5032982 14.20676,6.4867262 14.174114,6.4867262 h -0.128761 l -0.03397,-0.067798 C 13.855881,6.1079841 13.530784,5.903618 13.131582,5.903618 Z M 2.5505241,5.9151975 C 1.9603232,5.9179401 1.4342796,6.0728032 1.1133375,6.4061682 1.708705,6.2383303 2.2754314,6.1776344 2.8355534,6.2030108 2.9027431,6.1063373 2.9853121,6.02139 3.0799006,5.9508058 2.9009759,5.9264972 2.723192,5.9143773 2.5505241,5.9151899 Z m 11.8320759,0 c -0.172654,-8.17e-4 -0.35058,0.011328 -0.529502,0.035616 0.09459,0.07058 0.177157,0.1555257 0.244347,0.252205 0.560082,-0.025362 1.126765,0.03533 1.722089,0.2031575 C 15.498615,6.0728157 14.972775,5.9179824 14.3826,5.9151975 Z m -2.100522,0.1463803 c -0.05343,0.047439 -0.105342,0.096181 -0.155506,0.1462532 0.02203,-0.012039 0.04407,-0.024022 0.06616,-0.035868 0.02679,-0.039003 0.05671,-0.075788 0.08934,-0.1103842 z m -7.6296368,0.0016 c 0.032104,0.034185 0.061674,0.070534 0.088081,0.1089995 0.021897,0.011742 0.043673,0.023541 0.065522,0.035489 C 4.7564769,6.1581985 4.7051963,6.1100856 4.65244,6.0631826 Z M 5.836916,7.1367587 c -0.00137,0.013962 -0.00307,0.028016 -0.00532,0.042082 -0.1151399,0.7099272 -0.8206564,0.817962 -1.2672342,0.8426677 -0.02146,0.034574 -0.044904,0.066872 -0.069958,0.097075 V 14.71532 c 2.28e-5,0.203449 0.1623368,0.365663 0.3657602,0.365634 h 0.1231873 v 0 h 7.0893597 c 0.203407,-2.1e-5 0.365792,-0.162336 0.36576,-0.365758 V 8.118456 C 12.413401,8.088185 12.390051,8.055933 12.368641,8.021381 11.922048,7.996672 11.216505,7.8886372 11.101406,7.1789661 c -0.0024,-0.014169 -0.0039,-0.028256 -0.0048,-0.042209 z m 0.00596,1.6337541 c 0.097638,0.00492 0.1903022,0.044108 0.2619634,0.1105107 l 0.00176,0.00161 1.8343772,1.8333635 c 0.1628415,0.163017 0.1627724,0.426248 0,0.589195 l -1.8342492,1.834118 -0.00151,0.0015 c -0.2993272,0.279155 -0.7366084,0.01052 -0.7040185,-0.342188 0.00808,-0.08744 0.045734,-0.172412 0.1149495,-0.246628 l 0.00151,-0.0015 1.5397208,-1.539963 -1.5398427,-1.5388275 -0.00164,-0.0017 C 5.2617256,9.1958225 5.4695366,8.7514073 5.84287,8.770512 Z m 2.8803296,3.6560802 h 2.5916194 c 0.104527,0 0.194536,0.03178 0.264752,0.08796 0.283677,0.226963 0.157562,0.745587 -0.264752,0.745587 H 8.7232028 c -0.4223133,0 -0.5485555,-0.518624 -0.2648789,-0.745587 0.070215,-0.05618 0.1603492,-0.08796 0.2648789,-0.08796 z" />
</svg>
