<?xml version="1.0" encoding="UTF-8" standalone="no"?>
<svg
   width="64"
   height="64"
   version="1.1"
   viewBox="0 0 16.933 16.933"
   id="svg7"
   sodipodi:docname="kmag.svg"
   inkscape:version="1.4.3 (0d15f75042, 2025-12-25)"
   xmlns:inkscape="http://www.inkscape.org/namespaces/inkscape"
   xmlns:sodipodi="http://sodipodi.sourceforge.net/DTD/sodipodi-0.dtd"
   xmlns="http://www.w3.org/2000/svg"
   xmlns:svg="http://www.w3.org/2000/svg"
   xmlns:rdf="http://www.w3.org/1999/02/22-rdf-syntax-ns#"
   xmlns:cc="http://creativecommons.org/ns#"
   xmlns:dc="http://purl.org/dc/elements/1.1/">
  <sodipodi:namedview
     id="namedview7"
     pagecolor="#9c4444"
     bordercolor="#000000"
     borderopacity="0.25"
     inkscape:showpageshadow="2"
     inkscape:pageopacity="0.0"
     inkscape:pagecheckerboard="0"
     inkscape:deskcolor="#d1d1d1"
     inkscape:zoom="4.3531262"
     inkscape:cx="89.935366"
     inkscape:cy="34.457995"
     inkscape:window-width="2560"
     inkscape:window-height="1388"
     inkscape:window-x="0"
     inkscape:window-y="0"
     inkscape:window-maximized="1"
     inkscape:current-layer="svg7"
     showgrid="false" />
  <defs
     id="defs2">
    <style
       id="current-color-scheme"
       type="text/css">.ColorScheme-Text {color:#d8dee9} .ColorScheme-Highlight {color:#3b4252}</style>
  </defs>
  <metadata
     id="metadata2">
    <rdf:RDF>
      <cc:Work
         rdf:about="">
        <dc:format>image/svg+xml</dc:format>
        <dc:type
           rdf:resource="http://purl.org/dc/dcmitype/StillImage" />
      </cc:Work>
    </rdf:RDF>
  </metadata>
  <path
     id="path5"
     d="M 1.2898712,2.6568238 V 4.3655519 H 1.6316164 V 2.9985696 H 2.9985996 V 2.6568238 Z m 12.6445878,0 v 0.3417458 h 1.366982 v 1.3669823 h 0.341746 V 2.6568238 Z M 7.7830386,4.7072977 c -1.1359626,0 -2.0504737,0.9145113 -2.0504737,2.0504737 0,1.1359625 0.9145111,2.0504737 2.0504737,2.0504737 0.5061254,0 0.9674811,-0.1828339 1.3242641,-0.4845954 L 10.95888,10.175228 11.200494,9.9336138 9.3489167,8.0820356 c 0.301762,-0.3567824 0.484594,-0.818139 0.484594,-1.3242642 0,-1.1359624 -0.914511,-2.0504737 -2.0504721,-2.0504737 m 0,0.3417456 c 0.9466351,0 1.7087271,0.7620927 1.7087271,1.7087281 0,0.9466354 -0.7620919,1.7087281 -1.7087271,1.7087281 -0.9466363,0 -1.7087285,-0.7620927 -1.7087285,-1.7087281 0,-0.9466354 0.7620922,-1.7087281 1.7087285,-1.7087281 M 1.2898712,10.516974 v 1.708727 H 2.9985996 V 11.883956 H 1.6316164 v -1.366982 z m 14.0115698,0 v 1.366982 h -1.366982 v 0.341745 h 1.708728 V 10.516974 Z M 4.7073304,14.617918 h 7.5184036 v 0.683491 H 4.7073304 Z M 3.1694722,2.6561564 v 0.513286 H 1.8024902 V 4.5364248 H 1.2912071 v 5.8096762 h 0.5112831 v 0.140169 l 3.8459726,-2.2200123 0.014014,0.00801 0.00129,6.836e-4 0.333739,-0.1929161 C 5.7234568,7.7126268 5.5616443,7.2548031 5.5616443,6.7577741 c 0,-1.2300683 0.9912785,-2.2213465 2.2213475,-2.2213465 0.9157124,0 1.6992019,0.5493454 2.0397929,1.3376139 L 14.50777,3.169445 H 13.76354 V 2.6561591 Z m 2.494342,5.6187786 -0.00129,0.00133 0.00737,0.004 0.00211,-6.834e-4 z m 0.00795,0.00468 6.8522658,3.945427 h 0.593383 0.646113 v -0.511958 h 1.366982 v -1.366982 h 0.513953 V 5.3347214 L 9.9910297,7.0040685 c -0.0435,0.3960042 -0.190761,0.7597412 -0.413832,1.0646178 L 11.442114,9.9336028 10.958864,10.416852 9.0939477,8.5519358 C 8.7268206,8.8205585 8.2745145,8.9791179 7.7830386,8.9791179 c -0.6954634,0 -1.3146098,-0.3165678 -1.7214103,-0.8143156 z M 7.7829824,5.2199236 c -0.854928,0 -1.5378558,0.6829277 -1.5378558,1.5378553 0,0.373815 0.1306675,0.7145128 0.3490869,0.9798485 L 9.2253877,6.2191291 C 9.0089437,5.6332567 8.4479314,5.2199195 7.7829848,5.2199195 Z m 1.4671023,2.0030835 -2.4482865,0.722872 c 0.2654703,0.2188854 0.6069277,0.349755 0.9811842,0.349755 0.6925261,0 1.2718663,-0.447968 1.4671023,-1.072627 z m -3.6016781,1.0612798 -0.00866,0.00468 -6.831e-4,6.834e-4 h 0.00129 l 0.00795,-0.00266 z M 0.26457825,1.6315946 V 13.934434 H 16.668422 V 1.6315912 Z m 0.6848275,0.6828248 H 15.986213 v 0.00133 2.9181898 7.3328458 h -2.868799 -0.02136 l 0.0021,0.0013 h -2.27478 -2.2747454 l 0.00211,-0.0013 h -0.62945 l 0.00129,6.67e-4 H 5.6484716 V 12.56676 H 0.94946195 V 10.978863 Z M 6.4159992,12.909201 v 1.537854 h 4.1009478 v -1.537862 z"
     style="fill:currentColor;stroke-width:1.16981"
     class="ColorScheme-Text" />
</svg>
