<?xml version="1.0" encoding="UTF-8" standalone="no"?>
<svg
   width="64"
   height="64"
   version="1.1"
   viewBox="0 0 16.933 16.933"
   id="svg7"
   sodipodi:docname="kmplot.svg"
   inkscape:version="1.4.3 (0d15f75042, 2025-12-25)"
   xmlns:inkscape="http://www.inkscape.org/namespaces/inkscape"
   xmlns:sodipodi="http://sodipodi.sourceforge.net/DTD/sodipodi-0.dtd"
   xmlns="http://www.w3.org/2000/svg"
   xmlns:svg="http://www.w3.org/2000/svg"
   xmlns:rdf="http://www.w3.org/1999/02/22-rdf-syntax-ns#"
   xmlns:cc="http://creativecommons.org/ns#"
   xmlns:dc="http://purl.org/dc/elements/1.1/">
  <sodipodi:namedview
     id="namedview7"
     pagecolor="#9c4444"
     bordercolor="#000000"
     borderopacity="0.25"
     inkscape:showpageshadow="2"
     inkscape:pageopacity="0.0"
     inkscape:pagecheckerboard="0"
     inkscape:deskcolor="#d1d1d1"
     inkscape:zoom="4.3531262"
     inkscape:cx="90.165086"
     inkscape:cy="34.457995"
     inkscape:window-width="2560"
     inkscape:window-height="1388"
     inkscape:window-x="0"
     inkscape:window-y="0"
     inkscape:window-maximized="1"
     inkscape:current-layer="svg7"
     showgrid="false" />
  <defs
     id="defs2">
    <style
       id="current-color-scheme"
       type="text/css">.ColorScheme-Text {color:#d8dee9} .ColorScheme-Highlight {color:#3b4252}</style>
  </defs>
  <metadata
     id="metadata2">
    <rdf:RDF>
      <cc:Work
         rdf:about="">
        <dc:format>image/svg+xml</dc:format>
        <dc:type
           rdf:resource="http://purl.org/dc/dcmitype/StillImage" />
      </cc:Work>
    </rdf:RDF>
  </metadata>
  <path
     id="path5"
     style="fill:currentColor"
     d="m 7.9638857,11.050098 -0.391046,0.03593 c -0.0033,0.0098 -0.0067,0.01968 -0.0099,0.02971 l 0.395883,-0.03639 c 0.0016,-0.0094 0.0032,-0.01914 0.0051,-0.02925 z m 1.40413,0.165815 c -0.0087,0.009 -0.01747,0.01776 -0.02602,0.02672 l 0.02671,0.242504 c 0.0078,-0.01553 0.01568,-0.03085 0.02372,-0.04606 z m -1.857587,0.09281 c -0.03609,0.156831 -0.06611,0.355901 -0.09005,0.597164 v 2.28e-4 l 0.06725,0.708628 -0.116761,0.01082 -0.0018,0.02902 0.121367,-0.01129 0.108701,1.143431 c -0.180632,0.05145 -0.313576,0.206793 -0.322878,0.382065 -9.81e-4,0.01832 -5.35e-4,0.03623 0.0012,0.05389 l -0.03915,0.0037 -0.0088,0.116992 c -0.0154,0.205866 -0.02799,0.346976 -0.03777,0.423058 -0.0098,0.07608 -0.02764,0.149938 -0.05343,0.221547 -0.0662,0.156639 -0.149202,0.268408 -0.249183,0.335545 -0.104454,0.06713 -0.22385,0.10064 -0.358114,0.100641 -0.107408,-10e-7 -0.200499,-0.01786 -0.279352,-0.05366 -0.08522,-0.03133 -0.143327,-0.07388 -0.174335,-0.127586 -0.02067,-0.0358 -0.02539,-0.06711 -0.01405,-0.09396 l 0.01428,-0.03362 c -7.13e-4,-0.009 -0.01267,-0.03342 -0.03592,-0.0737 -0.05338,-0.0537 -0.111448,-0.08061 -0.174105,-0.0806 -0.01342,-4e-6 -0.03986,0.0044 -0.07945,0.01336 l -0.05343,0.04698 c -0.02269,0.0537 -0.01724,0.109703 0.01635,0.167887 0.0491,0.08503 0.13594,0.154484 0.260928,0.208189 0.06215,0.02238 0.115995,0.03803 0.161439,0.04698 0.04803,0.01342 0.08994,0.02003 0.125743,0.02004 l 0.07784,0.0067 h 0.107319 l 0.1315,0.0067 c 0.06266,-5e-6 0.132293,-0.01101 0.208881,-0.03339 0.07656,-0.02238 0.155842,-0.05148 0.238104,-0.08728 0.213572,-0.102939 0.365062,-0.244039 0.454149,-0.423058 0.06586,-0.132333 0.120826,-0.334413 0.164893,-0.606146 a 0.16453438,0.1785037 68.760544 0 1 -0.159366,-0.165354 0.16453438,0.1785037 68.760544 0 1 0.18539,-0.167196 0.16453438,0.1785037 68.760544 0 1 0.01819,7.17e-4 l 0.02119,-0.226614 c -0.0075,-3.59e-4 -0.01499,-4.81e-4 -0.02257,-4.81e-4 0.0066,-3.1e-5 0.01311,-1.7e-5 0.01957,2.39e-4 l -0.10824,-1.139516 0.204044,-0.01888 0.0021,-0.02879 -0.20888,0.01934 z m 5.6084573,0.783706 -0.368018,0.03408 c 4.91e-4,0.0095 9.81e-4,0.01893 0.0014,0.02856 l 0.372618,-0.03454 c -0.0019,-0.0094 -0.004,-0.01872 -0.006,-0.0281 z m -1.231176,0.114228 -0.341993,0.03155 h -2.27e-4 c -0.01635,0.01006 -0.03287,0.02139 -0.04974,0.03362 l 0.427204,-0.03961 c -0.01092,-0.0096 -0.0226,-0.0181 -0.03501,-0.02556 -5.8e-5,-3.5e-5 -1.68e-4,3.5e-5 -2.28e-4,0 z m -0.403482,0.07369 c -0.0086,0.0064 -0.01728,0.01304 -0.02602,0.02004 l 0.03086,0.233753 c 0.0098,-0.0041 0.01912,-0.0073 0.02764,-0.0099 z m 3.78242,0.0097 c 0.04166,0.0057 0.08497,0.0058 0.128737,0 z m 0.229377,0 0.04675,0.261849 h 0.176869 v -0.261849 z m -4.750825,0.02257 -0.42421,0.03938 0.0028,0.02856 0.421676,-0.03892 z m -0.428125,0.03961 -0.09281,0.0088 -0.0032,0.0088 -0.006,0.02096 0.09258,-0.0085 z m -1.2486783,0.11584 -0.421906,0.03915 c -0.0022,0.0098 -0.0043,0.0196 -0.0064,0.02948 l 0.423749,-0.03915 c 0.0015,-0.0098 0.003,-0.01971 0.0046,-0.02948 z m 2.8545493,0.975543 -0.03731,0.05389 -0.09672,0.120907 c -0.0041,0.0059 -0.0082,0.01159 -0.01221,0.01727 a 0.16453438,0.1785037 68.760544 0 1 0.05596,0.06586 c 0.0035,-0.0053 0.0071,-0.01068 0.01059,-0.01612 l 0.08337,-0.120677 0.0532,-0.07715 c -0.01731,-0.0163 -0.03637,-0.03098 -0.05688,-0.04399 z m 2.042056,0.03454 v 0.26185 h 1.754643 v -0.243656 a 0.1616509,0.19392035 74.894609 0 1 -0.0813,0.02741 0.1616509,0.19392035 74.894609 0 1 -0.160978,-0.0456 h -0.490075 l -0.909908,0.08797 c 0.0011,-0.03024 -0.0014,-0.05974 -0.0074,-0.08797 z m -0.943302,0.189996 -0.401641,0.03869 c -0.07508,0.274623 -0.154547,0.492911 -0.238359,0.654738 -0.06071,0.111888 -0.106117,0.192356 -0.135876,0.241584 -0.03682,0.04476 -0.07,0.07606 -0.09995,0.09396 l -0.10018,0.09396 -0.01243,0.01359 -0.0018,0.02004 0.0088,0.02694 c 0.0026,0.0045 0.0097,0.0089 0.02119,0.01336 0.009,0 0.02171,-0.009 0.03823,-0.02694 l 0.120216,-0.09396 0.0631,-0.05366 0.102943,-0.100641 c 0.143671,-0.138735 0.257245,-0.275204 0.340842,-0.409471 0.123693,-0.165587 0.215828,-0.320145 0.276358,-0.463359 0.0064,-0.01621 0.01264,-0.0324 0.01866,-0.04882 z m -3.1732823,0.05758 c -0.02685,4e-6 -0.06679,0.01565 -0.119755,0.04698 -0.0155,0.0085 -0.02862,0.01791 -0.03961,0.02833 a 0.16453438,0.1785037 68.760544 0 1 0.0039,0 0.16453438,0.1785037 68.760544 0 1 0.167657,0.165584 0.16453438,0.1785037 68.760544 0 1 -0.11607,0.153839 c 0.03238,0.01882 0.07261,0.02833 0.120676,0.02833 0.107411,0 0.2165333,-0.03815 0.3272543,-0.114229 0.04116,-0.02947 0.07981,-0.06434 0.116301,-0.104554 l -0.201741,0.01958 c 3.47e-4,-0.01497 -1.8e-4,-0.02971 -0.0016,-0.04422 -0.0921,-0.02247 -0.1477563,-0.05772 -0.1669663,-0.105708 l -0.01243,-0.0403 c -0.02035,-0.02238 -0.04628,-0.03362 -0.07761,-0.03362 z m -2.167338,0.04537 c -0.01162,0.0012 -0.02319,0.0028 -0.03454,0.0048 0.0015,-2.39e-4 0.0029,-7.17e-4 0.0044,-9.58e-4 0.0099,-0.0016 0.02004,-0.0029 0.03017,-0.0039 z m 3.3787083,0.08636 -0.40095,0.03869 c 0.124181,0.186228 0.289758,0.279352 0.496754,0.279352 0.09398,0 0.191718,-0.03131 0.29317,-0.09396 0.08443,-0.05215 0.150123,-0.09948 0.197135,-0.142324 a 0.16453438,0.1785037 68.760544 0 1 -0.105246,-0.04537 c -0.0082,0.0047 -0.01635,0.009 -0.02487,0.01313 -0.08323,0.04923 -0.158561,0.07392 -0.225692,0.07392 -0.08975,0 -0.166516,-0.04116 -0.230298,-0.12344 z m -2.0102753,0.194142 -0.27014,0.02625 c 0.05209,0.128154 0.115085,0.256214 0.189075,0.384368 0.0801,0.138735 0.155604,0.2461 0.226383,0.322187 0.0341,0.0358 0.05819,0.0583 0.07231,0.06725 0.01153,0.0045 0.02544,0.0089 0.04146,0.01336 0.009,0 0.0118,-0.0068 0.0085,-0.02027 l 0.0016,-0.02004 -0.0426,-0.07393 c -0.06976,-0.120836 -0.133095,-0.288611 -0.18999,-0.503432 -0.0141,-0.05778 -0.02622,-0.123073 -0.03662,-0.195753 z M 13.596985,1.4551978 a 0.11455112,0.15596275 85.818992 0 0 -0.1619,0.11561 0.11455112,0.15596275 85.818992 0 0 0.149694,0.113997 0.11455112,0.15596275 85.818992 0 0 0.161669,-0.115379 0.11455112,0.15596275 85.818992 0 0 -0.149463,-0.114228 z m -1.747274,0.106858 a 0.11455112,0.15596275 85.818992 0 0 -0.16167,0.11561 0.11455112,0.15596275 85.818992 0 0 0.149464,0.113998 0.11455112,0.15596275 85.818992 0 0 0.1619,-0.11561 0.11455112,0.15596275 85.818992 0 0 -0.149694,-0.113998 z m 1.338955,0.03477 -0.942842,0.06978 c -4.8e-5,0.0011 -1.67e-4,0.0023 -2.27e-4,0.0035 -0.0094,0.176989 -0.15847,0.296311 -0.317812,0.334624 l 0.180551,1.233709 1.303029,-0.09972 c 0.05699,-0.435406 0.09798,-0.853875 0.13196,-1.227951 -0.175429,-0.0089 -0.352877,-0.122308 -0.354659,-0.313896 z m -3.087611,0.101101 a 0.11455112,0.15596275 85.818992 0 0 -0.1616693,0.11561 0.11455112,0.15596275 85.818992 0 0 0.1494633,0.113998 0.11455112,0.15596275 85.818992 0 0 0.1619,-0.11561 0.11455112,0.15596275 85.818992 0 0 -0.149694,-0.113998 z m 1.341258,0.0281 -0.945144,0.06978 c -7.5e-5,0.0034 -2.76e-4,0.0067 -4.46e-4,0.01013 -0.01011,0.190416 -0.181704,0.314156 -0.353968,0.341993 l 0.162815,1.228872 1.773988,-0.135876 -0.180093,-1.230254 c -0.02645,0.0047 -0.05298,0.0072 -0.07899,0.0074 -0.176044,8.47e-4 -0.362646,-0.1054 -0.37815,-0.292019 z m -3.0899133,0.107779 a 0.11455112,0.15596275 85.818992 0 0 -0.16167,0.11561 0.11455112,0.15596275 85.818992 0 0 0.149464,0.113998 0.11455112,0.15596275 85.818992 0 0 0.1619,-0.11561 0.11455112,0.15596275 85.818992 0 0 -0.149694,-0.113998 z m 1.341027,0.02142 -0.944914,0.07001 c -8e-6,0.0055 -1.68e-4,0.01099 -4.46e-4,0.01658 -0.01025,0.193113 -0.186758,0.317828 -0.361798,0.343144 l 0.135179,1.228412 1.7553343,-0.134494 -0.16259,-1.22726 c -0.01422,0.0014 -0.02836,0.0022 -0.04237,0.0023 -0.1786713,8.47e-4 -0.3667333,-0.108482 -0.3783803,-0.298697 z m -3.089683,0.114458 a 0.11455112,0.15596275 85.818992 0 0 -0.161669,0.11538 0.11455112,0.15596275 85.818992 0 0 0.149463,0.114228 0.11455112,0.15596275 85.818992 0 0 0.16167,-0.11561 0.11455112,0.15596275 85.818992 0 0 -0.149464,-0.113998 z m 1.340567,0.01497 -0.944454,0.06978 c 1.68e-4,0.0077 -3.5e-5,0.01534 -4.45e-4,0.02326 -0.0097,0.183059 -0.168611,0.304463 -0.333933,0.338308 l 0.116986,1.230484 1.710196,-0.13104 -0.134955,-1.22726 c -0.01158,9.36e-4 -0.02311,0.0016 -0.03454,0.0016 -0.1803,8.46e-4 -0.371015,-0.110748 -0.37884,-0.305146 z m -3.088532,0.106168 a 0.11455112,0.15596275 85.818992 0 0 -0.161669,0.115609 0.11455112,0.15596275 85.818992 0 0 0.149463,0.113998 0.11455112,0.15596275 85.818992 0 0 0.1619,-0.115379 0.11455112,0.15596275 85.818992 0 0 -0.149694,-0.114228 z m 1.339876,0.02303 -0.943532,0.06978 c -2.7e-5,0.0051 -1.92e-4,0.01003 -4.46e-4,0.0152 -0.01063,0.200289 -0.200069,0.326484 -0.380913,0.345217 0.0043,-4.14e-4 0.0086,-5.79e-4 0.0129,-0.0012 l 0.08705,1.24246 1.665978,-0.127816 -0.117222,-1.23509 c -0.164393,-0.01972 -0.320565,-0.130174 -0.323799,-0.3086 z m -3.084616,0.124361 a 0.11455112,0.15596275 85.818992 0 0 -0.161669,0.11561 0.11455112,0.15596275 85.818992 0 0 0.149463,0.113998 0.11455112,0.15596275 85.818992 0 0 0.161669,-0.11538 0.11455112,0.15596275 85.818992 0 0 -0.149463,-0.114228 z m 1.336882,0.0051 -0.175948,0.0129 -0.764591,0.0707 c 5.9e-5,0.0064 -1.11e-4,0.01296 -4.45e-4,0.01957 -0.01128,0.212562 -0.224024,0.342026 -0.414076,0.347751 l 0.06563,1.230023 1.783431,-0.136566 -0.08682,-1.241769 c 0.0019,-1.34e-4 0.0038,-5.35e-4 0.0058,-7.13e-4 -0.01151,9.36e-4 -0.02295,0.0016 -0.03432,0.0016 -0.180187,8.47e-4 -0.369896,-0.110323 -0.37861,-0.303533 z m -3.162458,0.13933 a 0.13137971,0.15734547 75.318876 0 0 -0.0205,0.0012 0.13137971,0.15734547 75.318876 0 0 -0.148311,0.149924 0.13137971,0.15734547 75.318876 0 0 0.16282,0.113998 0.13137971,0.15734547 75.318876 0 0 0.148311,-0.149925 0.13137971,0.15734547 75.318876 0 0 -0.142324,-0.115149 z m 1.418178,0.01865 -1.029204,0.09511 c -0.0052,0.193261 -0.180533,0.352578 -0.382294,0.375847 -0.006,7.13e-4 -0.01218,0.0012 -0.01819,0.0016 0.0044,0.10246 0.01,0.206808 0.01244,0.310903 l 0.01842,0.528765 c 0.0046,-5.35e-4 0.0092,-9.36e-4 0.01382,-0.0014 0.01493,-0.0014 0.02878,-0.0022 0.04168,-0.0023 0.205984,-9.8e-4 0.378559,0.133435 0.397035,0.321727 l 1.372348,-0.105246 -0.06564,-1.232096 c -0.171098,-0.0061 -0.34586,-0.112248 -0.360417,-0.29294 z m 11.0223113,0.0083 c -0.0079,0.10871 -0.017,0.224721 -0.02763,0.34706 0.027,-0.01221 0.05533,-0.02221 0.08452,-0.02948 z m -7.0936513,0.01152 c -0.01937,0.0026 -0.03875,0.0045 -0.0578,0.0046 0.016,-7.7e-5 0.03215,-0.0012 0.04836,-0.003 0.0032,-3.59e-4 0.0063,-0.0012 0.0094,-0.0016 z m 7.2438053,0.517941 a 0.15372808,0.18441649 74.89448 0 0 -0.02395,0.0021 0.15372808,0.18441649 74.89448 0 0 -0.168808,0.179172 0.15372808,0.18441649 74.89448 0 0 0.195063,0.128507 0.15372808,0.18441649 74.89448 0 0 0.169038,-0.179173 0.15372808,0.18441649 74.89448 0 0 -0.171342,-0.130579 z m -0.468657,0.228686 -1.294968,0.09926 0.213027,1.454334 0.815486,-0.06817 c 0.117163,-0.489293 0.201901,-0.997483 0.266455,-1.485424 z m -1.323755,0.101331 -1.774449,0.136107 0.194372,1.468152 1.793103,-0.149694 z m -1.803236,0.13841 -1.7560263,0.134494 0.163052,1.483122 1.7873463,-0.149464 z m 3.347617,0.02165 c -0.04713,0.381427 -0.111266,0.790864 -0.20082,1.200085 l 0.216019,-0.01797 c -4.9e-4,0.0051 -8.46e-4,0.01011 -0.0012,0.0152 0.01118,-0.195915 0.188302,-0.358992 0.396344,-0.388052 0.0049,-6.69e-4 0.0098,-0.0013 0.01474,-0.0018 l -0.137487,-0.766893 c -0.0061,0.0011 -0.01204,0.0019 -0.01819,0.0028 -0.09653,0.01349 -0.191268,-0.003 -0.269449,-0.0433 z m -5.1321993,0.114918 -1.710887,0.13104 0.142324,1.49717 1.731383,-0.144858 z m -1.856436,0.142095 -1.666669,0.127815 0.105707,1.512369 1.703287,-0.142094 z m -1.695456,0.130118 -1.784122,0.136567 0.08129,1.526878 1.808533,-0.150845 z m -3.600717,0.119986 a 0.15381727,0.17816897 79.728298 0 0 -0.185388,0.155681 0.15381727,0.17816897 79.728298 0 0 0.169038,0.15361 0.15381727,0.17816897 79.728298 0 0 0.18539,-0.155452 0.15381727,0.17816897 79.728298 0 0 -0.16904,-0.153839 z m 1.788038,0.01888 -1.372347,0.105016 c 4.2e-5,0.0079 -7.4e-5,0.01589 -4.46e-4,0.02395 -0.01127,0.212366 -0.207017,0.376158 -0.427205,0.387131 l 0.0281,0.801668 c 0.01105,-0.0018 0.02216,-0.0033 0.03339,-0.0044 0.01431,-0.0013 0.02819,-0.002 0.04214,-0.0021 0.209759,-9.81e-4 0.38579,0.137595 0.40118,0.330708 l 1.376263,-0.114919 z m 10.9499973,0.504814 a 0.15372808,0.18441649 74.89448 0 0 -0.02395,0.0018 0.15372808,0.18441649 74.89448 0 0 -0.168808,0.179403 0.15372808,0.18441649 74.89448 0 0 0.195062,0.128506 0.15372808,0.18441649 74.89448 0 0 0.168809,-0.179402 0.15372808,0.18441649 74.89448 0 0 -0.171112,-0.130349 z m -0.439639,0.180093 -0.220856,0.01842 c -0.11725,0.528581 -0.277077,1.055434 -0.497676,1.518818 l 0.975775,-0.07876 c -1.19e-4,0.0096 2.4e-4,0.01933 9.81e-4,0.02902 l -0.991205,0.07991 c -0.08739,0.1803 -0.184148,0.350583 -0.291327,0.507347 l 0.141633,0.967944 1.39722,-0.113077 c -0.0047,-0.209541 0.179568,-0.388578 0.400029,-0.419373 0.0062,-8.65e-4 0.01247,-0.0015 0.01866,-0.0021 l -0.128275,-0.715307 c -0.02738,0.0089 -0.05578,0.01576 -0.08475,0.0198 -0.226901,0.0317 -0.442994,-0.101896 -0.461519,-0.319424 -0.01852,-0.217527 0.170401,-0.407323 0.396805,-0.438948 0.0056,-7.58e-4 0.01123,-0.0015 0.01681,-0.0021 L 14.18546,4.9741338 c -0.02672,0.0086 -0.05445,0.01517 -0.08268,0.01912 -0.225682,0.03153 -0.441413,-0.100645 -0.459906,-0.317812 -9.81e-4,-0.01191 -0.0013,-0.02375 -0.0012,-0.03547 z m -0.507578,0.04237 -0.804432,0.06725 0.213256,1.458249 0.04813,-0.0039 c 0.234326,-0.445022 0.409496,-0.970848 0.543044,-1.521582 z m -0.833219,0.06955 -1.793564,0.149694 0.192529,1.454795 1.814291,-0.14624 z m -1.822352,0.152227 -1.7880363,0.149463 0.159597,1.451802 1.8209693,-0.146701 z m -1.8165933,0.151767 -1.731844,0.144627 0.137488,1.448577 1.753952,-0.141403 z m -1.877393,0.156833 -1.704208,0.142324 0.101331,1.446044 1.740365,-0.140482 z m -1.732995,0.144627 -1.808994,0.151076 0.07715,1.442589 1.833175,-0.147621 z m -3.633647,0.135416 a 0.15693998,0.18178649 79.728574 0 0 -0.189076,0.158675 0.15693998,0.18178649 79.728574 0 0 0.172494,0.156834 0.15693998,0.18178649 79.728574 0 0 0.189074,-0.158446 0.15693998,0.18178649 79.728574 0 0 -0.172492,-0.157063 z m 1.796096,0.01819 -1.376724,0.114919 c 2.6e-5,0.0059 -9.9e-5,0.01177 -4.46e-4,0.01773 -0.01163,0.219056 -0.222086,0.389229 -0.450694,0.391277 l 0.02602,0.743403 c 0.005,-5.79e-4 0.0098,-0.0012 0.01474,-0.0016 0.0135,-0.0012 0.02765,-0.0022 0.04237,-0.0023 0.197974,-9.35e-4 0.365639,0.121507 0.398186,0.297085 -1.97e-4,-0.0011 -2.79e-4,-0.0022 -4.46e-4,-0.0032 l 1.423934,-0.114919 z m 11.1264073,0.404864 a 0.15528112,0.18627912 74.894679 0 0 -0.02418,0.0021 0.15528112,0.18627912 74.894679 0 0 -0.170651,0.181246 0.15528112,0.18627912 74.894679 0 0 0.197135,0.129657 0.15528112,0.18627912 74.894679 0 0 0.170651,-0.181014 0.15528112,0.18627912 74.894679 0 0 -0.172953,-0.131961 z m -1.765469,0.318273 -0.02764,0.0023 0.0055,0.03823 c 0.0074,-0.01345 0.0148,-0.02693 0.02211,-0.04053 z m -0.05642,0.0046 -1.814752,0.14624 0.191839,1.448346 0.08959,-0.0071 h 2.27e-4 v -2.27e-4 c 0.367188,-0.249473 0.72101,-0.532031 1.056149,-0.859474 0.185314,-0.181049 0.346889,-0.401341 0.488233,-0.650353 z m -1.843309,0.148543 -1.8218903,0.1467 0.159596,1.451571 1.8539033,-0.149925 z m -1.8506783,0.149003 -1.754182,0.141403 0.138179,1.454104 1.7756,-0.143706 z m -1.899731,0.153148 -1.741286,0.140252 0.102022,1.457558 1.777443,-0.143706 z m 5.6685653,0.06011 c -0.10004,0.142348 -0.209036,0.27279 -0.327715,0.388744 -0.240174,0.234659 -0.49631,0.448705 -0.764591,0.645987 l 1.229103,-0.09926 z m -7.4386383,0.08245 -1.833636,0.147851 0.07784,1.460092 1.857817,-0.150385 z m -1.862193,0.150155 -1.421172,0.114688 c -6.24e-4,-0.0057 -0.0016,-0.01124 -0.0025,-0.01681 0.0037,0.02356 0.0052,0.04801 0.0039,0.07323 -0.01136,0.214096 -0.211499,0.381333 -0.433881,0.392199 l 0.02441,0.699185 c 0.0092,-6.59e-4 0.01876,-0.0011 0.02902,-0.0011 0.213647,-10e-4 0.391245,0.141339 0.404403,0.338078 -4.22e-4,-0.0066 -8.03e-4,-0.0133 -0.0016,-0.01981 l 1.475062,-0.119527 z m -1.840084,0.01865 a 0.15852551,0.1836231 79.728716 0 0 -0.191148,0.160288 0.15852551,0.1836231 79.728716 0 0 0.174106,0.158675 0.15852551,0.1836231 79.728716 0 0 0.191148,-0.160287 0.15852551,0.1836231 79.728716 0 0 -0.174106,-0.158676 z m 13.1470443,0.371241 a 0.15684971,0.18816093 74.894415 0 0 -0.02441,0.0021 0.15684971,0.18816093 74.894415 0 0 -0.172263,0.182857 0.15684971,0.18816093 74.894415 0 0 0.199209,0.13127 0.15684971,0.18816093 74.894415 0 0 0.172263,-0.183087 0.15684971,0.18816093 74.894415 0 0 -0.174797,-0.133112 z m -0.442174,0.219474 c 2.4e-4,0.0021 2.4e-4,0.0043 4.91e-4,0.0064 l -1.394687,0.113077 0.201049,1.374421 1.452263,-0.126665 c -4.9e-4,0.0027 -4.9e-4,0.0054 -9.8e-4,0.0081 0.02796,-0.184137 0.199126,-0.333833 0.399337,-0.361799 0.0069,-9.58e-4 0.01366,-0.0019 0.0205,-0.0025 l -0.127354,-0.710931 c -0.02807,0.0093 -0.05708,0.01611 -0.08682,0.02027 -0.227603,0.03179 -0.445176,-0.101516 -0.463822,-0.320344 z m -1.423243,0.121828 -1.277235,0.103404 c -0.168095,0.121856 -0.340939,0.237174 -0.517481,0.34706 l 0.143937,1.085857 1.85206,-0.16167 z m -1.797479,0.145549 -0.03731,0.003 0.0028,0.02004 c 0.01155,-0.0077 0.02302,-0.01532 0.03454,-0.02303 z m -0.06586,0.0053 -1.8548243,0.149924 0.09028,0.820553 c 0.607364,-0.266021 1.2033103,-0.563381 1.7691523,-0.935242 z m -1.8833803,0.152457 -1.776062,0.143937 0.132191,1.391002 c 0.577699,-0.231606 1.161313,-0.454444 1.735068,-0.704713 z m -1.92161,0.155682 -1.778134,0.143706 0.09995,1.430844 1.812678,-0.158215 z m 0.134494,1.416335 0.0018,0.01981 c 0.02057,-0.0083 0.04114,-0.01658 0.06172,-0.02487 v -4.54e-4 z m 3.7124103,-1.408275 c -0.564457,0.348818 -1.1668833,0.642035 -1.7783643,0.909218 l 0.03592,0.327024 1.8843023,-0.164433 z m -5.6538253,0.137949 -1.858509,0.150385 0.07715,1.444892 1.881307,-0.164203 z m -3.783572,0.151767 a 0.16012641,0.1854775 79.728331 0 0 -0.193221,0.161899 0.16012641,0.1854775 79.728331 0 0 0.175948,0.160058 0.16012641,0.1854775 79.728331 0 0 0.19322,-0.1619 0.16012641,0.1854775 79.728331 0 0 -0.175947,-0.160057 z m 1.896507,9.22e-4 -1.474371,0.119525 c -7.5e-5,-0.0019 -3.46e-4,-0.0037 -4.46e-4,-0.0055 7.58e-4,0.01282 9.36e-4,0.02589 2.31e-4,0.03915 -0.01091,0.205501 -0.195178,0.368415 -0.406938,0.391507 l 0.02649,0.756531 h 2.3e-4 l -10e-7,-2.28e-4 h 2.3e-4 c 0.01281,-0.0012 0.02702,-0.0022 0.04261,-0.0023 0.19253,-9.09e-4 0.356509,0.114541 0.397494,0.2811942 -2.82e-4,-0.0014 -6.24e-4,-0.0029 -9.36e-4,-0.0044 l 1.492334,-0.1303532 z m 11.4868223,0.35535 a 0.1600344,0.19198129 74.894544 0 0 -0.02464,0.0023 0.1600344,0.19198129 74.894544 0 0 -0.175947,0.186541 0.1600344,0.19198129 74.894544 0 0 0.203123,0.133804 0.1600344,0.19198129 74.894544 0 0 0.175948,-0.186772 0.1600344,0.19198129 74.894544 0 0 -0.178481,-0.135877 z m -0.443093,0.140713 c -0.0012,0.0082 -0.0026,0.01632 -0.0032,0.02464 -2.4e-4,0.0041 -2.4e-4,0.0083 -4.9e-4,0.01244 5.79e-4,-0.01249 0.0018,-0.02486 0.0037,-0.03708 z m -0.0041,0.04422 c -5e-5,9.09e-4 -2.4e-4,0.0019 -2.4e-4,0.0028 -1.2e-4,0.01164 3.59e-4,0.02341 0.0014,0.03524 -0.0011,-0.01272 -0.0015,-0.02549 -0.0012,-0.038 z m 0.0081,0.08268 c 8.47e-4,0.0037 0.0014,0.0074 0.0023,0.01106 l -1.43614,0.125283 0.196214,1.3403362 1.491181,-0.137027 c 0.02361,-0.188258 0.197068,-0.342531 0.40095,-0.371011 0.0075,-0.0011 0.01509,-0.0018 0.02257,-0.0025 L 14.969637,9.3517528 c -0.02883,0.0096 -0.05875,0.01668 -0.08936,0.02096 -0.214051,0.0299 -0.418421,-0.08485 -0.460827,-0.278661 z m -5.3127533,0.0076 c -0.323373,0.140825 -0.649342,0.274519 -0.973241,0.405555 l 1.008016,-0.08797 z m 3.8498983,0.13127 -1.854132,0.161899 0.178942,1.3507002 1.871634,-0.172032 z m -1.88292,0.164433 -1.8875253,0.164663 0.149694,1.3619852 1.9167733,-0.175948 z m -1.9160823,0.167196 -1.487958,0.129889 h -2.28e-4 c -0.100701,0.0406 -0.200972,0.08097 -0.300769,0.121597 l 0.121367,1.2776962 0.08291,-0.0076 c 0.04256,-0.125238 0.09557,-0.229802 0.159136,-0.313896 0.155342,-0.219292 0.328635,-0.364806 0.520014,-0.436416 0.102057,-0.04028 0.20231,-0.06056 0.30077,-0.06057 0.05818,3e-6 0.119048,0.0046 0.182396,0.01359 0.06782,0.009 0.121069,0.04687 0.159827,0.113998 0.0052,0.009 0.01095,0.02681 0.0175,0.05366 0.01915,0.102938 -0.01546,0.174594 -0.104095,0.214869 -0.01532,0.0045 -0.0334,0.0045 -0.05389,0 l -0.0088,-0.02672 -0.01865,-0.06725 c -0.004,-0.02237 -0.03031,-0.06029 -0.07922,-0.113997 -0.05149,-0.05818 -0.119703,-0.08728 -0.204735,-0.08728 -0.05371,4e-6 -0.109663,0.01566 -0.167657,0.04698 -0.06058,0.02686 -0.113554,0.07822 -0.159136,0.1543 -0.04558,0.07609 -0.08713,0.190293 -0.124592,0.342454 -0.01143,0.04862 -0.02079,0.09205 -0.02787,0.130349 l 1.343335,-0.123431 z m -2.345819,0.204505 -1.413802,0.12344 0.03685,0.5278442 c 0.445926,-0.243661 0.907816,-0.4542682 1.376955,-0.6512842 z m 0.415688,0.104786 c -0.625119,0.2564842 -1.227372,0.5186122 -1.773528,0.8205532 l 0.04077,0.582655 1.849756,-0.17019 z m -1.858508,0.02119 -1.883841,0.1644332 0.07439,1.395148 0.421906,-0.03869 c 0.44664,-0.387905 0.925759,-0.705425 1.425317,-0.98038 z m -3.825719,0.10133 a 0.16174397,0.18735105 79.728388 0 0 -0.195062,0.1635122 0.16174397,0.18735105 79.728388 0 0 0.177789,0.16167 0.16174397,0.18735105 79.728388 0 0 0.195062,-0.163512 0.16174397,0.18735105 79.728388 0 0 -0.177789,-0.1616702 z m 1.913319,0.06563 -1.493945,0.130349 c 0.0016,-0.01022 0.0029,-0.02063 0.0037,-0.03109 -0.01628,0.207888 -0.205838,0.368573 -0.422367,0.385289 l 0.02533,0.724979 c 8.03e-4,-7.4e-5 0.0017,-1.56e-4 0.0025,-2.27e-4 0.01792,-0.0017 0.03583,-0.002 0.04261,-0.0021 0.215514,-10e-4 0.395257,0.142057 0.408319,0.341072 -3e-4,-0.0048 -3.6e-4,-0.0097 -9.36e-4,-0.01451 l 1.509144,-0.138409 z m 11.6611593,0.222238 a 0.1600344,0.19198129 74.894544 0 0 -0.02464,0.0021 0.1600344,0.19198129 74.894544 0 0 -0.175948,0.186772 0.1600344,0.19198129 74.894544 0 0 0.203124,0.133804 0.1600344,0.19198129 74.894544 0 0 0.175947,-0.186772 0.1600344,0.19198129 74.894544 0 0 -0.178481,-0.135876 z m -0.447009,0.178481 -1.484965,0.136567 0.214869,1.467001 1.526878,-0.141403 c 0.0061,-0.203855 0.188486,-0.375957 0.405325,-0.406247 0.0083,-0.0012 0.0164,-0.002 0.02464,-0.0028 l -0.126895,-0.707246 c -0.02941,0.01 -0.05995,0.01728 -0.0912,0.02165 -0.229469,0.03205 -0.448964,-0.102447 -0.467735,-0.322879 -0.0013,-0.01504 -0.0016,-0.02995 -9.81e-4,-0.04468 z m -1.513752,0.139101 -1.871865,0.172033 0.194602,1.470685 0.06586,-0.0062 h 2.28e-4 c 0.07583,-0.04664 0.146113,-0.06978 0.210723,-0.06978 0.05042,0.0031 0.09412,0.01592 0.13127,0.03823 5.8e-5,3.5e-5 1.68e-4,-3.5e-5 2.28e-4,0 l 0.862928,-0.08013 c -0.01184,-0.254242 -0.03686,-0.455887 -0.0753,-0.604764 -0.0569,-0.214816 -0.117567,-0.378186 -0.182166,-0.490075 l -0.03892,-0.06702 -0.0088,-0.02695 c 0.01204,-0.0179 0.02857,-0.0201 0.04974,-0.0067 0.04236,0.02686 0.08725,0.06941 0.134263,0.127586 0.05149,0.05818 0.111937,0.147695 0.181707,0.268528 0.02325,0.04028 0.04653,0.08063 0.06978,0.120906 0.02464,0.05818 0.04616,0.102939 0.06425,0.134264 0.07722,0.161123 0.134952,0.331148 0.173416,0.510111 l 0.252867,-0.02349 z m -7.7308873,0.10824 c -0.360017,0.200643 -0.695245,0.418878 -0.99627,0.664641 l 1.036112,-0.0951 z m 5.8302343,0.06633 -1.9172343,0.176178 0.02902,0.263461 c 0.0074,-0.0076 0.01482,-0.01539 0.02234,-0.02303 l 0.0935,-0.09396 0.07254,-0.06034 0.113537,-0.09396 0.04191,-0.02027 0.03178,0.02027 0.0051,0.02004 -0.01244,0.01336 -0.0018,0.02027 -0.100181,0.09396 c -0.03562,0.03133 -0.06638,0.06704 -0.09235,0.107319 -0.02856,0.03581 -0.07639,0.111869 -0.143476,0.228226 -0.002,0.0037 -0.004,0.0075 -0.006,0.01128 l 0.108701,0.988901 0.7231373,-0.06702 0.03731,-0.09857 0.09604,0.0067 c 0.07608,2e-6 0.144985,-0.009 0.206578,-0.02694 0.06159,-0.0179 0.123476,-0.04237 0.18539,-0.0737 l -0.0046,0.09396 2.28e-4,0.05021 0.705864,-0.0654 z m -1.9457903,0.178711 -1.351622,0.124362 c -0.0012,0.0074 -0.0024,0.01466 -0.0035,0.02165 -0.02473,0.143216 -0.04489,0.328848 -0.0608,0.557091 l -0.01935,0.315509 -7.13e-4,0.20819 h 0.624339 l 0.01013,0.08728 h -0.644605 l -0.02234,0.312975 0.804432,-0.07485 c 0.03635,-0.160246 0.07888,-0.302891 0.127627,-0.428116 0.05227,-0.134256 0.140873,-0.291019 0.265764,-0.470038 0.06657,-0.09398 0.117301,-0.160999 0.152227,-0.201281 0.04733,-0.05502 0.09731,-0.1101 0.149925,-0.165124 z m -1.747505,0.160749 -0.07024,0.0064 0.01773,0.186311 c 0.0094,-0.04073 0.01905,-0.07851 0.02925,-0.113537 0.0073,-0.02723 0.01511,-0.05363 0.02326,-0.07922 z m -0.21579,0.01958 -1.850677,0.17019 0.103864,1.484043 1.770534,-0.163972 0.02372,-0.356502 h -0.429737 l -0.0099,-0.08728 h 0.442863 l 0.02234,-0.275207 c 1.4e-5,-1.43e-4 2.15e-4,-3.11e-4 2.27e-4,-4.54e-4 v -2.28e-4 z m -1.879464,0.172724 -1.077336,0.09903 c -0.178012,0.148263 -0.343682,0.306459 -0.494912,0.476727 -0.105447,0.118721 -0.203275,0.239407 -0.294091,0.360878 l 0.03869,0.726822 1.931513,-0.178942 z m -1.523194,0.140021 -0.383677,0.03524 0.01681,0.317121 c 0.06941,-0.07399 0.142083,-0.146512 0.217862,-0.217172 0.04925,-0.04598 0.0989,-0.09106 0.149003,-0.135185 z m 5.424218,0.03708 c -0.112613,0.224237 -0.199791,0.482697 -0.261619,0.775185 -0.01438,0.06803 -0.02737,0.137243 -0.03869,0.207729 l 0.404174,-0.03754 z m -5.836452,6.95e-4 -1.508684,0.13864 c -1.32e-4,-0.0034 -4.9e-4,-0.0067 -7.13e-4,-0.01013 7.57e-4,0.01261 8.91e-4,0.02542 2.27e-4,0.03846 -0.01128,0.212578 -0.206695,0.379786 -0.426744,0.396343 l 0.02602,0.74087 c 0.0021,-2.15e-4 0.0041,-4.9e-4 0.0062,-6.95e-4 0.0186,-0.0017 0.03462,-0.002 0.04284,-0.0021 0.216376,-10e-4 0.396679,0.142837 0.410161,0.342223 -3e-4,-0.0044 -3.96e-4,-0.009 -9.36e-4,-0.01336 l 0.621805,-0.05757 c 0.215707,-0.413779 0.489927,-0.840981 0.847959,-1.229102 z m -1.934738,0.0097 a 0.16337765,0.18924352 79.72836 0 0 -0.197135,0.165129 0.16337765,0.18924352 79.72836 0 0 0.179632,0.163282 0.16337765,0.18924352 79.72836 0 0 0.196906,-0.165124 0.16337765,0.18924352 79.72836 0 0 -0.179403,-0.163281 z m 13.7794443,0.244582 a 0.1616509,0.19392035 74.894609 0 0 -0.0251,0.0023 0.1616509,0.19392035 74.894609 0 0 -0.177789,0.188384 0.1616509,0.19392035 74.894609 0 0 0.205195,0.135186 0.1616509,0.19392035 74.894609 0 0 0.17779,-0.188615 0.1616509,0.19392035 74.894609 0 0 -0.180094,-0.137258 z m -0.449082,0.213487 -1.523194,0.141173 0.161901,1.105892 c 0.02275,-0.0058 0.04621,-0.01003 0.07024,-0.01244 0.01698,-0.0017 0.03218,-0.0023 0.04353,-0.0023 0.199537,-9.45e-4 0.354218,0.124304 0.389666,0.292249 h 0.917278 l 0.204965,-0.01981 c -0.0022,-0.01153 -0.0038,-0.02318 -0.0048,-0.03524 -0.01888,-0.221668 0.173311,-0.4145 0.404404,-0.44678 0.0089,-0.0012 0.01767,-0.0022 0.02648,-0.003 l -0.07554,-0.421446 -1.577774,-10e-7 v -0.261846 h 1.301646 c -0.176798,-0.02399 -0.322901,-0.146484 -0.338077,-0.324721 -3.6e-4,-0.0039 -4.91e-4,-0.0078 -7.13e-4,-0.01175 z m -1.55198,0.143706 -0.251025,0.02326 c 0.01327,0.06552 0.02388,0.132239 0.03201,0.200129 0.03627,0.29538 0.02882,0.604258 -0.02234,0.926491 -0.02645,0.147413 -0.06402,0.28776 -0.112846,0.420985 l 0.211875,-0.0205 c -0.0024,-0.0201 -0.0029,-0.04075 -0.0018,-0.06172 0.0095,-0.178707 0.146915,-0.335987 0.332321,-0.384598 -0.0086,0.0023 -0.01717,0.0047 -0.02556,0.0074 z m -0.623648,0.05781 -0.829305,0.07715 c 0.0037,0.0032 0.0073,0.0064 0.01083,0.0099 0.04826,0.04028 0.07107,0.08503 0.0684,0.134264 l -0.01336,0.08728 c -0.04424,0.102938 -0.08882,0.15453 -0.133573,0.15453 -0.02686,0 -0.06284,-0.02249 -0.10801,-0.06725 -0.02068,-0.0089 -0.0355,-0.01336 -0.04445,-0.01336 -0.05339,-0.01342 -0.102408,-0.02027 -0.147161,-0.02027 -0.01106,0 -0.02396,0.0024 -0.03892,0.0069 l 0.113998,0.860856 c -0.0089,0.0013 -0.01774,0.0028 -0.02649,0.0046 0.01553,-0.0032 0.03137,-0.0055 0.04744,-0.0071 0.0086,-8.51e-4 0.02494,-0.0022 0.04353,-0.0023 0.08632,-4.07e-4 0.164219,0.02303 0.227764,0.06333 l 0.0046,-0.0064 0.06011,-0.08728 0.138409,-0.268528 c 0.0099,-0.04028 0.0202,-0.06498 0.03086,-0.07393 0.0045,0 0.0084,-0.0022 0.01152,-0.0067 l 0.03501,0.02694 0.0016,0.02671 -0.01888,0.04698 -0.0051,0.02694 -0.08659,0.1543 -0.05827,0.09419 -0.04928,0.100639 -0.0071,0.01013 c 0.07292,0.0687 0.115513,0.164596 0.112386,0.27014 l 0.527844,-0.0509 c 0.01213,-0.04435 0.02403,-0.09019 0.03592,-0.137487 0.07423,-0.313275 0.108632,-0.680364 0.102942,-1.101056 -3.59e-4,-0.111839 -0.0026,-0.216233 -0.0067,-0.313206 z m 2.739628,0.112155 c -0.03012,0.01034 -0.06143,0.01786 -0.0935,0.02234 -9.8e-4,1.44e-4 -0.002,3.24e-4 -0.003,4.55e-4 h 0.100641 z m -3.996136,0.0046 -0.01244,0.0012 9.36e-4,0.0074 c 0.0038,-0.0029 0.0077,-0.0058 0.01152,-0.0085 z m -0.04076,0.0039 -0.709549,0.06587 9.36e-4,0.142324 c 0.0037,0.156639 0.0096,0.284068 0.01773,0.382526 0.0081,0.09846 0.02293,0.197015 0.04445,0.295473 l 0.06539,-0.114226 0.06287,-0.100641 0.08383,-0.140942 c 0.182031,-0.250626 0.32708,-0.418398 0.435034,-0.503432 8.91e-4,-7.09e-4 0.0016,-0.0016 0.0025,-0.0023 z m -7.8803493,0.0051 c -0.181695,0.247064 -0.334937,0.496896 -0.465203,0.739949 l 0.502051,-0.04652 z m 6.7454403,0.06218 -0.003,0.0092 0.0039,-2.27e-4 z m 0.0037,0.03754 -0.01612,0.0016 -0.02142,0.06817 -0.04099,0.127585 -0.04537,0.113998 -0.08337,0.20819 c -0.03326,0.08056 -0.05452,0.127516 -0.06379,0.140943 -0.0093,0.01343 -0.03016,0.01783 -0.06287,0.01336 l 4.46e-4,-0.02004 -0.0016,-0.02695 0.06586,-0.134264 0.117682,-0.335545 0.04284,-0.14693 -0.7107013,0.06587 0.12367,1.125699 c -8.47e-4,1.2e-4 -0.0017,4.81e-4 -0.0025,7.17e-4 0.01339,-0.0025 0.02698,-0.0046 0.04076,-0.006 0.01697,-0.0017 0.03241,-0.0023 0.04375,-0.0023 0.214462,-0.0011 0.3769563,0.143853 0.3954233,0.330708 0.0024,5.97e-4 0.0047,0.0011 0.0071,0.0016 0.03271,0.0045 0.0659,-0.0043 0.09926,-0.02671 0.02888,-0.02237 0.06938,-0.06493 0.121598,-0.127586 l 0.06748,-0.107318 0.06494,-0.09419 0.02556,-0.04698 c -0.02631,-0.08504 -0.04338,-0.147648 -0.05136,-0.187924 -0.0094,-0.04476 -0.02931,-0.181227 -0.05965,-0.409471 l -0.0281,-0.221547 -0.0152,-0.113998 -0.0044,-0.10087 z m -0.8481893,0.07876 -0.411774,0.03823 c -0.03848,0.250202 -0.05776,0.515688 -0.05804,0.796602 8.91e-4,0.307524 0.01551,0.559936 0.04376,0.757451 l 0.213257,-0.0205 c -0.0019,-0.01854 -0.0024,-0.03763 -0.0014,-0.05688 0.0099,-0.187322 0.161459,-0.351328 0.360648,-0.390585 -0.0075,0.0015 -0.01497,0.003 -0.02234,0.0048 z m 2.0134993,0.07485 c -0.01477,0.0061 -0.03095,0.01399 -0.04859,0.02349 -0.04678,0.02238 -0.08907,0.04488 -0.126895,0.06725 -0.07289,0.05371 -0.140706,0.116315 -0.203583,0.187924 -0.07833,0.09398 -0.153273,0.205755 -0.225002,0.335545 l -0.05205,0.114227 c 0.0132,0.07161 0.02875,0.136428 0.04675,0.194604 0.0069,0.02238 0.0138,0.04487 0.02073,0.06725 0.02003,0.0358 0.03292,0.0627 0.03846,0.0806 0.03311,0.107027 0.07337,0.191083 0.120907,0.252407 l 0.188615,-0.01819 c -0.0021,-0.01932 -0.0027,-0.03906 -0.0016,-0.05919 0.0099,-0.185714 0.158919,-0.348827 0.355581,-0.389894 z m -2.8490223,0.0025 -0.800057,0.07416 -0.003,0.04076 -0.02487,0.329096 -0.01221,0.187924 -0.0085,0.194602 -0.01566,0.100641 -0.02856,0.305606 c 0.217822,0.0096 0.378115,0.172289 0.374925,0.371701 l 0.657253,-0.06333 c -0.06797,-0.167222 -0.117181,-0.334593 -0.147852,-0.50182 -0.05676,-0.299848 -0.05426,-0.644448 0.0074,-1.033809 4.08e-4,-0.0018 7.58e-4,-0.0037 0.0012,-0.0055 z m -1.271016,0.117913 -1.76662,0.163742 0.08038,1.148729 c 0.0045,-5.97e-4 0.0089,-0.0012 0.01336,-0.0016 0.01697,-0.0017 0.03218,-0.002 0.04353,-0.0021 0.229158,-0.0011 0.399079,0.164108 0.397265,0.369398 l 1.101286,-0.106398 0.0028,-0.03731 0.02625,-0.443094 0.07669,-0.785548 0.01819,-0.201281 z m -1.795176,0.166736 -1.932204,0.179172 0.06172,1.160013 c 0.0025,-2.39e-4 0.0051,-7.17e-4 0.0076,-9.58e-4 0.01698,-0.0017 0.03218,-0.002 0.04353,-0.0021 0.22814,-0.0011 0.397556,0.162842 0.397265,0.366865 l 1.140207,-0.110083 c -0.0015,-0.01679 -0.0019,-0.03397 -9.36e-4,-0.05136 0.01,-0.18849 0.162843,-0.353073 0.36318,-0.391507 z m -1.96053,0.181705 -0.520015,0.04813 c -0.350622,0.662306 -0.532215,1.270605 -0.659344,1.627979 l -0.251024,0.02695 c -7.6e-5,0.0028 -1.56e-4,0.0057 -2.28e-4,0.0085 l 1.123856,-0.108471 c -0.0013,-0.01608 -0.0015,-0.03247 -7.13e-4,-0.04905 0.0101,-0.190365 0.165894,-0.356155 0.369168,-0.392428 z m -1.958919,0.01059 a 0.16502829,0.19115507 79.72818 0 0 -0.198977,0.166736 0.16502829,0.19115507 79.72818 0 0 0.181475,0.165124 0.16502829,0.19115507 79.72818 0 0 0.198978,-0.166736 0.16502829,0.19115507 79.72818 0 0 -0.181476,-0.165124 z m 1.032427,0.07531 -0.604302,0.05596 c -1.44e-4,-0.0035 -4.43e-4,-0.0071 -7.13e-4,-0.01059 5.79e-4,0.01264 8.91e-4,0.02542 2.27e-4,0.03846 -0.0114,0.214706 -0.209903,0.383189 -0.4325,0.398186 l 0.02718,0.777948 c 0.0038,-8.38e-4 0.0079,-0.0014 0.01175,-0.0021 0.01339,-0.0024 0.02688,-0.0043 0.04053,-0.0055 0.0186,-0.0017 0.03463,-0.002 0.04284,-0.0021 0.135925,-5.97e-4 0.257736,0.05591 0.33278,0.147391 0.134707,-0.370686 0.311565,-0.872436 0.582194,-1.397681 z M 15.635912,13.19795 a 0.1616509,0.19392035 74.894609 0 0 -0.0251,0.0021 0.1616509,0.19392035 74.894609 0 0 -0.17756,0.188615 0.1616509,0.19392035 74.894609 0 0 0.04422,0.08959 h 0.242274 v 0.01819 a 0.1616509,0.19392035 74.894609 0 0 0.09627,-0.161209 0.1616509,0.19392035 74.894609 0 0 -0.180094,-0.137258 z m -1.972505,0.214638 a 0.16453438,0.1785037 68.760544 0 0 -0.185391,0.167196 0.16453438,0.1785037 68.760544 0 0 0.167658,0.165586 0.16453438,0.1785037 68.760544 0 0 0.18539,-0.167197 0.16453438,0.1785037 68.760544 0 0 -0.167657,-0.165585 z m -3.144725,0.178942 -0.02372,0.05389 -0.0304,0.05366 c -0.04603,0.09048 -0.09797,0.167387 -0.155682,0.23099 l 0.350054,-0.03385 c -0.02617,-0.03925 -0.05051,-0.0826 -0.073,-0.130118 -0.02003,-0.0358 -0.03475,-0.06931 -0.04445,-0.10064 -0.01108,-0.0358 -0.01865,-0.0605 -0.0228,-0.07393 z m 1.159553,0.0152 a 0.16453438,0.1785037 68.760544 0 0 -0.18539,0.167427 0.16453438,0.1785037 68.760544 0 0 0.0479,0.119755 c 0.03677,-0.02097 0.07034,-0.0479 0.10041,-0.08083 0.03435,-0.03763 0.07944,-0.09674 0.135646,-0.177328 a 0.16453438,0.1785037 68.760544 0 0 -0.09857,-0.02902 z m 0.15453,0.09488 c -0.06213,0.09481 -0.115601,0.165707 -0.160518,0.212336 -0.008,0.0083 -0.01678,0.0167 -0.02625,0.02533 a 0.16453438,0.1785037 68.760544 0 0 0.01451,4.82e-4 0.16453438,0.1785037 68.760544 0 0 0.185388,-0.16743 0.16453438,0.1785037 68.760544 0 0 -0.01313,-0.0707 z M 9.6891467,13.8011 a 0.16453438,0.1785037 68.760544 0 0 -0.181475,0.167197 0.16453438,0.1785037 68.760544 0 0 0.167658,0.165585 0.16453438,0.1785037 68.760544 0 0 0.06932,-0.01336 c -0.03998,-0.02324 -0.06799,-0.06069 -0.08406,-0.112617 -0.0041,-0.01343 -0.0079,-0.04717 -0.01106,-0.10087 -0.0033,-0.04248 0.0099,-0.07778 0.03961,-0.105937 z m -1.963063,0.195063 -0.0016,0.01842 c -0.01284,0.113206 -0.02706,0.217578 -0.04261,0.313435 a 0.16453438,0.1785037 68.760544 0 0 0.0083,2.4e-4 0.16453438,0.1785037 68.760544 0 0 0.18539,-0.167198 0.16453438,0.1785037 68.760544 0 0 -0.149464,-0.164892 z m -2.003365,0.193451 a 0.16453438,0.1785037 68.760544 0 0 -0.185391,0.167426 0.16453438,0.1785037 68.760544 0 0 0.167658,0.165585 0.16453438,0.1785037 68.760544 0 0 0.18539,-0.167197 0.16453438,0.1785037 68.760544 0 0 -0.167657,-0.165814 z m -1.985173,0.194372 a 0.16453438,0.1785037 68.760544 0 0 -0.18539,0.167196 0.16453438,0.1785037 68.760544 0 0 0.167657,0.165815 0.16453438,0.1785037 68.760544 0 0 0.185391,-0.167427 0.16453438,0.1785037 68.760544 0 0 -0.167658,-0.165584 z m -1.982639,0.181706 a 0.16502829,0.19115507 79.72818 0 0 -0.198977,0.166966 0.16502829,0.19115507 79.72818 0 0 0.181475,0.164893 0.16502829,0.19115507 79.72818 0 0 0.198978,-0.166735 0.16502829,0.19115507 79.72818 0 0 -0.181476,-0.165124 z"
     class="ColorScheme-Text" />
</svg>
