<?xml version="1.0" encoding="UTF-8" standalone="no"?>
<svg
   width="64"
   height="64"
   version="1.1"
   viewBox="0 0 16.933 16.933"
   id="svg7"
   sodipodi:docname="kmymoney.svg"
   inkscape:version="1.4.2 (ebf0e940d0, 2025-05-08)"
   xmlns:inkscape="http://www.inkscape.org/namespaces/inkscape"
   xmlns:sodipodi="http://sodipodi.sourceforge.net/DTD/sodipodi-0.dtd"
   xmlns="http://www.w3.org/2000/svg"
   xmlns:svg="http://www.w3.org/2000/svg"
   xmlns:rdf="http://www.w3.org/1999/02/22-rdf-syntax-ns#"
   xmlns:cc="http://creativecommons.org/ns#"
   xmlns:dc="http://purl.org/dc/elements/1.1/">
  <sodipodi:namedview
     id="namedview7"
     pagecolor="#9c4444"
     bordercolor="#000000"
     borderopacity="0.25"
     inkscape:showpageshadow="2"
     inkscape:pageopacity="0.0"
     inkscape:pagecheckerboard="0"
     inkscape:deskcolor="#d1d1d1"
     inkscape:zoom="8.7062524"
     inkscape:cx="78.047358"
     inkscape:cy="43.531933"
     inkscape:window-width="2560"
     inkscape:window-height="1388"
     inkscape:window-x="0"
     inkscape:window-y="0"
     inkscape:window-maximized="1"
     inkscape:current-layer="svg7"
     showgrid="false" />
  <defs
     id="defs2">
    <style
       id="current-color-scheme"
       type="text/css">.ColorScheme-Text {color:#d8dee9} .ColorScheme-Highlight {color:#3b4252}</style>
  </defs>
  <metadata
     id="metadata2">
    <rdf:RDF>
      <cc:Work
         rdf:about="">
        <dc:format>image/svg+xml</dc:format>
        <dc:type
           rdf:resource="http://purl.org/dc/dcmitype/StillImage" />
      </cc:Work>
    </rdf:RDF>
  </metadata>
  <path
     id="path5"
     style="fill:currentColor;fill-opacity:1;stroke-width:0.369017"
     d="m 8.4665,1.4551794 c -1.859103,0 -3.643367,0.7388049 -4.957944,2.0533769 C 2.193985,4.8231332 1.45518,6.6073965 1.45518,8.4664997 c 0,1.8591033 0.738805,3.6433673 2.053376,4.9579433 1.314577,1.314578 3.098842,2.053378 4.957944,2.053378 1.859102,0 3.643365,-0.7388 4.957944,-2.053378 1.314577,-1.314577 2.053376,-3.098842 2.053376,-4.9579433 0,-1.8591018 -0.738799,-3.6433658 -2.053376,-4.9579434 C 12.109866,2.1939843 10.325603,1.4551794 8.4665,1.4551794 Z M 4.791467,3.0090863 c 0.0524,0.080287 0.06808,0.1828942 0.03388,0.2803664 L 4.564439,4.0332522 5.339231,3.8876637 C 5.44074,3.8685847 5.540226,3.8993937 5.611669,3.9633407 5.565319,4.1770384 5.436441,4.3657053 5.254184,4.4865952 5.163294,4.5468922 5.05894,4.5905631 4.944987,4.612003 4.831079,4.633443 4.717896,4.630815 4.611287,4.607683 4.496123,4.5827 4.388762,4.533318 4.294884,4.4649771 4.253554,4.4349021 4.214924,4.4012711 4.179567,4.3640735 4.148127,4.3235185 4.120147,4.2804505 4.096677,4.2350617 4.043277,4.1319209 4.011727,4.0175621 4.004427,3.8999196 3.997627,3.791059 4.011427,3.6791991 4.049837,3.5698226 4.088217,3.4604459 4.147327,3.3637103 4.220651,3.2829694 4.367667,3.1210707 4.573201,3.0226659 4.791475,3.0090898 Z m 7.350066,0 c 0.218273,0.013576 0.423807,0.1119809 0.570822,0.2738797 0.07329,0.080741 0.13243,0.1774765 0.170815,0.286853 0.03838,0.1093767 0.05219,0.2212371 0.04541,0.330097 -0.0073,0.1176433 -0.03886,0.2320021 -0.09226,0.3351423 -0.0235,0.045389 -0.05144,0.088457 -0.08289,0.1290118 -0.03536,0.037198 -0.07399,0.070829 -0.115316,0.1009036 -0.09388,0.068342 -0.201197,0.1177228 -0.316403,0.1427059 -0.106572,0.023137 -0.21975,0.025765 -0.333701,0.00432 -0.113922,-0.02144 -0.218307,-0.065111 -0.309196,-0.1254077 -0.182221,-0.1208902 -0.311101,-0.3095567 -0.357485,-0.5232544 0.07148,-0.06395 0.170884,-0.094756 0.272438,-0.075677 L 12.368564,4.033249 12.107658,3.2894493 c -0.03421,-0.097472 -0.01856,-0.2000792 0.03388,-0.2803662 z M 8.4665,3.6692805 c 1.272742,0 2.492537,0.5054708 3.392505,1.4054355 0.899965,0.8999659 1.404713,2.1190393 1.404713,3.3917837 0,1.2727443 -0.505468,2.4918173 -1.405434,3.3917843 -0.899967,0.899966 -2.119039,1.405435 -3.391784,1.405435 -1.272745,0 -2.491817,-0.505469 -3.391784,-1.405435 C 4.174751,10.958316 3.66928,9.7392426 3.66928,8.4664997 3.66928,7.1937569 4.174031,5.9746831 5.073995,5.074716 5.973963,4.1747513 7.193756,3.6692805 8.4665,3.6692805 Z m 0,0.3690168 c -2.445622,0 -4.428203,1.98258 -4.428203,4.4282024 0,2.4456223 1.982581,4.4282023 4.428203,4.4282023 2.445622,0 4.428202,-1.98258 4.428202,-4.4282023 0,-2.4456224 -1.98258,-4.4282024 -4.428202,-4.4282024 z M 3.290174,4.4044315 c 0.07465,0.060186 0.121398,0.153294 0.118915,0.2565818 L 3.390349,5.448778 4.082256,5.0711121 C 4.172926,5.0216271 4.277068,5.0207971 4.364783,5.0595781 4.386623,5.2771504 4.322063,5.4959346 4.186041,5.6671585 4.118171,5.7525495 4.032638,5.8263641 3.9309,5.8819381 3.829126,5.9374751 3.720863,5.9697921 3.612335,5.9806781 3.495066,5.9924501 3.377494,5.9791981 3.267103,5.9432001 3.218513,5.9273321 3.171663,5.9071251 3.12656,5.8826591 3.08413,5.8537661 3.04399,5.8205441 3.007644,5.7846381 2.925044,5.7030111 2.859193,5.6045371 2.815928,5.4949023 2.775898,5.3934589 2.755508,5.2828386 2.758268,5.1669673 2.761068,5.0510591 2.786958,4.9406445 2.831788,4.8411945 2.921648,4.6418516 3.08676,4.4846891 3.290177,4.4044287 Z m 10.352652,0 c 0.203403,0.08026 0.368533,0.2374229 0.458389,0.4367658 0.04484,0.09945 0.07074,0.2098646 0.07352,0.3257729 0.0028,0.1158705 -0.01761,0.2264921 -0.05766,0.327935 -0.04325,0.1096346 -0.109125,0.2081092 -0.191715,0.2897358 -0.03639,0.035905 -0.0758,0.069126 -0.118204,0.098021 -0.04513,0.024465 -0.09267,0.044673 -0.141265,0.060541 -0.110379,0.036016 -0.227958,0.04925 -0.345232,0.037478 C 13.212135,5.969788 13.103832,5.937478 13.002094,5.881941 12.90036,5.826367 12.814776,5.7525522 12.746952,5.667161 12.610895,5.4959375 12.546363,5.277153 12.568209,5.0595806 c 0.08771,-0.038783 0.19186,-0.037954 0.282528,0.011535 l 0.691906,0.3776658 -0.01875,-0.7877646 c -0.0024,-0.1032873 0.04427,-0.1963952 0.118915,-0.2565818 z m -5.914359,0.556408 v 2.7676264 l 2.58672,-2.5831179 0.682537,0.6825369 -1.899859,1.900581 h 2.689786 v 0.369017 H 8.728849 L 8.361273,8.4650583 8.732451,8.8355165 h 3.0552 V 9.2045334 H 9.101468 l 0.228473,0.2284735 1.667783,1.6533681 -0.682537,0.701277 -2.58672,-2.5831186 V 11.603143 L 6.621415,11.787652 V 9.2045334 H 5.145348 V 8.8355165 H 6.621415 V 8.0974829 H 5.145348 V 7.7284659 H 6.621415 V 5.145348 Z M 2.28835,6.2033887 c 0.0896,0.034171 0.162853,0.1078801 0.192437,0.2068509 L 2.707099,7.1648502 3.24765,6.5925859 c 0.07091,-0.075095 0.16984,-0.1085203 0.265231,-0.09874 0.08805,0.2001548 0.09444,0.4279283 0.01802,0.6328064 C 3.492781,7.2288335 3.433881,7.3256181 3.354321,7.4099016 3.274721,7.4941856 3.181723,7.5584249 3.081883,7.6023379 2.973986,7.6497939 2.858531,7.6738019 2.742416,7.6736909 2.691296,7.6736174 2.640084,7.6686109 2.58962,7.6592759 2.54034,7.6449209 2.49259,7.6259739 2.446913,7.6030579 2.343131,7.5509529 2.250232,7.4777631 2.175196,7.3868371 2.105756,7.3027391 2.051274,7.203851 2.018076,7.0927769 1.984866,6.9817029 1.975916,6.8689345 1.987806,6.7605174 2.011646,6.5431295 2.119721,6.3426187 2.288353,6.2033887 Z m 12.3563,0 c 0.16864,0.1392296 0.276707,0.3397408 0.300546,0.5571287 0.01186,0.1084171 0.0029,0.2211853 -0.03027,0.3322595 -0.03321,0.1110741 -0.08767,0.2099613 -0.157121,0.2940602 -0.07502,0.090926 -0.16795,0.1641155 -0.271717,0.2162208 -0.04569,0.022915 -0.09345,0.041863 -0.142705,0.056218 -0.05048,0.00933 -0.10169,0.014339 -0.152796,0.014413 -0.116126,1.106e-4 -0.231603,-0.023897 -0.339467,-0.071353 -0.09985,-0.043913 -0.192842,-0.1081535 -0.272438,-0.1924365 -0.0796,-0.084284 -0.138455,-0.1810683 -0.176581,-0.2832491 -0.07646,-0.2048782 -0.07007,-0.4326516 0.01802,-0.6328064 0.09539,-0.00978 0.194343,0.023646 0.265232,0.09874 l 0.540555,0.5722642 0.226312,-0.7546106 c 0.02955,-0.098971 0.102834,-0.1726807 0.192437,-0.2068509 z M 3.146748,8.110456 c 0.145259,0.1634745 0.221747,0.3783117 0.211895,0.5967696 -0.0049,0.1089345 -0.03159,0.2189573 -0.08144,0.3236104 -0.04986,0.1046527 -0.11812,0.1942343 -0.199644,0.2666723 -0.0881,0.078305 -0.191441,0.1367191 -0.301988,0.1722559 -0.04866,0.015646 -0.09901,0.026547 -0.149913,0.033153 -0.0513,0.00151 -0.10229,-0.00159 -0.152797,-0.00937 C 2.358102,9.4758722 2.247134,9.4344922 2.14781,9.3710223 2.0559,9.3123123 1.974229,9.235168 1.908526,9.139666 1.842816,9.044164 1.799332,8.939463 1.777351,8.8326326 1.733281,8.6184552 1.774951,8.3942037 1.892668,8.2099166 c 0.09576,0.00502 0.187947,0.052529 0.246491,0.1376605 L 2.586014,8.9969641 2.924759,8.2855978 C 2.969199,8.1923468 3.052963,8.1304594 3.146747,8.1104587 Z m 10.639504,0 c 0.09381,0.020001 0.177557,0.081889 0.221987,0.1751391 l 0.338746,0.7113663 0.446856,-0.6493834 c 0.05857,-0.085132 0.150732,-0.1326422 0.246492,-0.1376605 0.117757,0.1842871 0.159379,0.4085382 0.115317,0.622716 -0.02195,0.1068299 -0.06477,0.2115319 -0.13045,0.3070334 -0.06572,0.095502 -0.148084,0.1726457 -0.240007,0.2313563 -0.09931,0.06347 -0.210287,0.1048494 -0.325051,0.1225249 -0.05048,0.00778 -0.101509,0.010879 -0.152797,0.00937 -0.05092,-0.00661 -0.101243,-0.017507 -0.149911,-0.033153 -0.110519,-0.035536 -0.213868,-0.093951 -0.301989,-0.1722558 -0.08152,-0.072439 -0.14979,-0.1620191 -0.199644,-0.2666723 -0.04985,-0.1046527 -0.07653,-0.2146767 -0.08144,-0.3236105 -0.0098,-0.2184579 0.06666,-0.4332951 0.211896,-0.5967695 z M 3.297381,9.7724733 c 0.188671,0.110558 0.328121,0.2915707 0.386314,0.5023537 0.02901,0.105132 0.03743,0.218068 0.02234,0.332979 -0.01505,0.114949 -0.05226,0.221547 -0.107394,0.315683 -0.0596,0.101664 -0.140067,0.188609 -0.234239,0.256582 -0.04144,0.02989 -0.08553,0.05657 -0.131901,0.07856 -0.04833,0.01727 -0.09802,0.03001 -0.148471,0.0382 -0.114605,0.01863 -0.2326,0.0131 -0.346674,-0.01658 -0.105568,-0.02742 -0.207816,-0.07579 -0.299827,-0.146309 -0.09201,-0.07056 -0.165176,-0.156016 -0.219103,-0.250817 -0.10812,-0.19008 -0.137898,-0.416813 -0.08289,-0.628481 0.09261,-0.02483 0.194775,-0.0074 0.276763,0.0555 l 0.625598,0.479289 0.102346,-0.781278 c 0.01339,-0.1024018 0.0741,-0.1876714 0.15712,-0.2356809 z m 10.338237,0 c 0.08299,0.04801 0.143688,0.1332783 0.157121,0.2356807 l 0.102346,0.781278 0.625599,-0.479289 c 0.082,-0.06284 0.184139,-0.08033 0.276762,-0.0555 0.05498,0.211668 0.02524,0.438401 -0.08289,0.628481 -0.05391,0.0948 -0.127102,0.180261 -0.219105,0.250817 -0.09204,0.07052 -0.19425,0.118891 -0.299825,0.146309 -0.114062,0.02967 -0.232058,0.03521 -0.346674,0.01658 -0.05045,-0.0082 -0.10017,-0.02093 -0.148472,-0.0382 -0.04639,-0.02199 -0.09045,-0.04867 -0.1319,-0.07856 -0.09413,-0.06797 -0.174642,-0.154918 -0.234239,-0.256582 -0.05513,-0.09414 -0.09233,-0.200734 -0.107395,-0.315683 -0.01509,-0.114912 -0.0067,-0.227847 0.02234,-0.33298 0.05816,-0.210782 0.197637,-0.3917952 0.386314,-0.502353 z M 3.948205,11.29683 c 0.213513,0.04727 0.401698,0.17691 0.521813,0.359647 0.05989,0.09115 0.103001,0.195207 0.123964,0.309197 0.02096,0.114027 0.01781,0.227202 -0.0057,0.333701 -0.0255,0.115058 -0.0754,0.22282 -0.144146,0.316403 -0.03027,0.04122 -0.06428,0.07939 -0.101621,0.114597 -0.0407,0.03129 -0.08352,0.05884 -0.129013,0.08216 -0.103322,0.05292 -0.217462,0.08471 -0.335141,0.09153 -0.108901,0.0063 -0.220906,-0.0087 -0.330098,-0.04757 C 3.439041,12.817635 3.342577,12.758615 3.262131,12.68496 3.100856,12.537279 3.003067,12.331006 2.990414,12.112695 c 0.0805,-0.0521 0.183041,-0.06777 0.280366,-0.03315 l 0.74308,0.26451 -0.142707,-0.775512 c -0.0187,-0.10159 0.01283,-0.200534 0.07711,-0.271718 z m 9.03659,0 c 0.06424,0.07118 0.09579,0.170127 0.07711,0.271718 l -0.142703,0.775512 0.743078,-0.26451 c 0.09731,-0.03461 0.199848,-0.01895 0.280367,0.03315 -0.01269,0.21831 -0.110463,0.424584 -0.271717,0.572265 -0.08045,0.07366 -0.176904,0.132677 -0.286133,0.171535 -0.109222,0.03886 -0.221199,0.05388 -0.330096,0.04757 -0.117646,-0.0068 -0.231818,-0.03862 -0.335143,-0.09153 -0.0455,-0.02332 -0.08832,-0.05087 -0.129013,-0.08216 -0.03735,-0.03521 -0.0714,-0.07338 -0.101621,-0.114597 -0.06875,-0.09358 -0.118692,-0.201344 -0.144147,-0.316403 -0.02358,-0.106498 -0.026,-0.219675 -0.005,-0.333701 0.02096,-0.113989 0.06335,-0.218049 0.123239,-0.309197 0.120115,-0.182737 0.308299,-0.312376 0.521813,-0.359647 z m -7.859627,1.254081 c 0.190101,2.68e-4 0.376768,0.06491 0.526136,0.184509 0.08513,0.06816 0.158171,0.153902 0.213338,0.255861 0.05518,0.10196 0.08678,0.210721 0.0973,0.319286 0.0113,0.11731 -0.0017,0.234971 -0.0382,0.345233 -0.01601,0.04852 -0.03658,0.09552 -0.06126,0.140543 -0.02901,0.04233 -0.06197,0.08196 -0.09802,0.118201 -0.08193,0.08225 -0.180638,0.147432 -0.290457,0.190275 -0.101592,0.03963 -0.212785,0.06011 -0.328655,0.05694 -0.115875,-0.0032 -0.225787,-0.02979 -0.325052,-0.07496 -0.199011,-0.09063 -0.355802,-0.256816 -0.435326,-0.46055 0.06049,-0.07439 0.154053,-0.120359 0.257303,-0.11748 l 0.787044,0.02162 -0.374782,-0.693348 c -0.04915,-0.09085 -0.04993,-0.194961 -0.01088,-0.282529 0.02721,-0.0026 0.05428,-0.0037 0.08144,-0.0036 z m 6.682664,0 c 0.0272,4e-6 0.05423,9.6e-4 0.08144,0.0036 0.03912,0.08757 0.03834,0.191676 -0.01088,0.282528 l -0.374783,0.693348 0.787764,-0.02162 c 0.103253,-0.0029 0.196138,0.04309 0.256583,0.11748 -0.07949,0.203734 -0.236277,0.36992 -0.435325,0.46055 -0.09926,0.04517 -0.20918,0.07175 -0.325052,0.07496 -0.115903,0.0032 -0.227028,-0.01731 -0.328656,-0.05694 -0.10978,-0.04284 -0.208534,-0.10802 -0.290457,-0.190274 -0.03605,-0.03624 -0.06898,-0.07587 -0.09802,-0.118201 -0.02464,-0.04502 -0.04522,-0.09202 -0.06126,-0.140543 -0.03642,-0.110263 -0.04953,-0.227922 -0.0382,-0.345233 0.01046,-0.108565 0.04209,-0.217327 0.0973,-0.319286 0.05518,-0.101959 0.128163,-0.187704 0.213339,-0.255861 0.128009,-0.102514 0.283345,-0.165054 0.444694,-0.180905 0.02689,-0.0027 0.05424,-0.0036 0.08144,-0.0036 z"
     class="ColorScheme-Text" />
</svg>
