<?xml version="1.0" encoding="UTF-8" standalone="no"?>
<svg
   width="64"
   height="64"
   version="1.1"
   viewBox="0 0 16.933 16.933"
   id="svg7"
   sodipodi:docname="koi.svg"
   inkscape:version="1.4.2 (ebf0e940d0, 2025-05-08)"
   xmlns:inkscape="http://www.inkscape.org/namespaces/inkscape"
   xmlns:sodipodi="http://sodipodi.sourceforge.net/DTD/sodipodi-0.dtd"
   xmlns="http://www.w3.org/2000/svg"
   xmlns:svg="http://www.w3.org/2000/svg"
   xmlns:rdf="http://www.w3.org/1999/02/22-rdf-syntax-ns#"
   xmlns:cc="http://creativecommons.org/ns#"
   xmlns:dc="http://purl.org/dc/elements/1.1/">
  <sodipodi:namedview
     id="namedview7"
     pagecolor="#9c4444"
     bordercolor="#000000"
     borderopacity="0.25"
     inkscape:showpageshadow="2"
     inkscape:pageopacity="0.0"
     inkscape:pagecheckerboard="0"
     inkscape:deskcolor="#d1d1d1"
     inkscape:zoom="6.15625"
     inkscape:cx="16"
     inkscape:cy="27.28934"
     inkscape:window-width="2560"
     inkscape:window-height="1392"
     inkscape:window-x="0"
     inkscape:window-y="0"
     inkscape:window-maximized="1"
     inkscape:current-layer="svg7"
     showgrid="false" />
  <defs
     id="defs2">
    <style
       id="current-color-scheme"
       type="text/css">.ColorScheme-Text {color:#d8dee9} .ColorScheme-Highlight {color:#3b4252}</style>
  </defs>
  <metadata
     id="metadata2">
    <rdf:RDF>
      <cc:Work
         rdf:about="">
        <dc:format>image/svg+xml</dc:format>
        <dc:type
           rdf:resource="http://purl.org/dc/dcmitype/StillImage" />
      </cc:Work>
    </rdf:RDF>
  </metadata>
  <path
     id="path5"
     style="fill:currentColor;fill-opacity:1;stroke-width:0.127922"
     class="ColorScheme-Text"
     d="m 9.6861303,1.4553304 c 0,0 1.3255587,3.8460745 -0.765532,7.318783 -2.091094,3.4727086 -3.117893,9.7087236 5.0224337,5.0224346 0,0 2.651208,-1.400449 0,-6.5535003 C 11.291823,2.0899974 9.6861303,1.4553304 9.6861303,1.4553304 Z m -2.183167,5e-4 c -1.015791,0.02013 -2.477914,0.509152 -4.512996,1.680724 0,0 -2.65120702,1.4001991 0,6.5532504 2.651209,5.1530512 4.256902,5.7879672 4.256902,5.7879672 0,0 -1.325559,-3.846075 0.765533,-7.3187831 1.56832,-2.6045311 2.5379317,-6.7635465 -0.509439,-6.7031585 z m -0.734802,0.540919 c 0.720496,0.119261 -1.220246,1.523851 -1.330688,0.858227 -0.110441,-0.665625 1.330688,-0.858227 1.330688,-0.858227 z m 2.132948,1.921578 c 0.454819,-0.01171 -0.267949,1.9474597 -0.709317,1.4943377 -0.470792,-0.48333 0.602383,-1.4643567 0.602383,-1.4643567 0.04122,-0.0196 0.07661,-0.0292 0.106934,-0.029981 z m -0.299067,7.5341516 c 0.04831,0.0015 0.09528,0.02264 0.139415,0.06796 0.470792,0.48333 -0.602383,1.464356 -0.602383,1.464356 -0.59772,0.284173 -0.004,-1.546325 0.462968,-1.532315 z m 2.6681207,2.447506 c 0.119799,0.0014 0.204655,0.05334 0.225363,0.178142 0.110442,0.665623 -1.330688,0.858225 -1.330688,0.858225 -0.5854027,-0.0969 0.586198,-1.042288 1.105325,-1.036367 z" />
</svg>
