<?xml version="1.0" encoding="UTF-8" standalone="no"?>
<svg
   width="64"
   height="64"
   version="1.1"
   viewBox="0 0 16.933 16.933"
   id="svg7"
   sodipodi:docname="konqueror.svg"
   inkscape:version="1.4.3 (0d15f75042, 2025-12-25)"
   xmlns:inkscape="http://www.inkscape.org/namespaces/inkscape"
   xmlns:sodipodi="http://sodipodi.sourceforge.net/DTD/sodipodi-0.dtd"
   xmlns="http://www.w3.org/2000/svg"
   xmlns:svg="http://www.w3.org/2000/svg"
   xmlns:rdf="http://www.w3.org/1999/02/22-rdf-syntax-ns#"
   xmlns:cc="http://creativecommons.org/ns#"
   xmlns:dc="http://purl.org/dc/elements/1.1/">
  <sodipodi:namedview
     id="namedview7"
     pagecolor="#9c4444"
     bordercolor="#000000"
     borderopacity="0.25"
     inkscape:showpageshadow="2"
     inkscape:pageopacity="0.0"
     inkscape:pagecheckerboard="0"
     inkscape:deskcolor="#d1d1d1"
     inkscape:zoom="4.3531262"
     inkscape:cx="90.165086"
     inkscape:cy="34.457995"
     inkscape:window-width="2560"
     inkscape:window-height="1388"
     inkscape:window-x="0"
     inkscape:window-y="0"
     inkscape:window-maximized="1"
     inkscape:current-layer="svg7"
     showgrid="false" />
  <defs
     id="defs2">
    <style
       id="current-color-scheme"
       type="text/css">.ColorScheme-Text {color:#d8dee9} .ColorScheme-Highlight {color:#3b4252}</style>
  </defs>
  <metadata
     id="metadata2">
    <rdf:RDF>
      <cc:Work
         rdf:about="">
        <dc:format>image/svg+xml</dc:format>
        <dc:type
           rdf:resource="http://purl.org/dc/dcmitype/StillImage" />
      </cc:Work>
    </rdf:RDF>
  </metadata>
  <path
     id="path5"
     d="m 8.4671818,1.4551909 a 7.0140947,7.0140947 0 0 0 -0.718534,0.035618 l -0.167134,1.0877327 a 5.9619804,5.9619804 0 0 0 -1.293222,0.345225 L 5.6019508,2.068239 a 7.0140947,7.0140947 0 0 0 -1.24459,0.7199037 l 0.398652,1.0212904 A 5.9619804,5.9619804 0 0 0 3.8052738,4.7540069 L 2.7908328,4.3587791 A 7.0140947,7.0140947 0 0 0 2.0716138,5.60474 l 0.849363,0.6808604 a 5.9619804,5.9619804 0 0 0 -0.213025,0.6377071 5.9619804,5.9619804 0 0 0 -0.129464,0.6582563 l -1.085677,0.1664479 a 7.0140947,7.0140947 0 0 0 -0.002,1.4370674 l 1.087732,0.166448 a 5.9619804,5.9619804 0 0 0 0.345236,1.2932239 l -0.856274,0.685655 a 7.0140947,7.0140947 0 0 0 0.720588,1.244591 l 1.020606,-0.397968 a 5.9619804,5.9619804 0 0 0 0.945258,0.950739 l -0.395227,1.014441 a 7.0140947,7.0140947 0 0 0 1.246646,0.719218 l 0.680176,-0.849363 a 5.9619804,5.9619804 0 0 0 0.637707,0.213026 5.9619804,5.9619804 0 0 0 0.658255,0.129459 l 0.166449,1.084993 a 7.0140947,7.0140947 0 0 0 1.437067,0.0027 l 0.166448,-1.087733 a 5.9619804,5.9619804 0 0 0 1.2932232,-0.345225 l 0.686341,0.856213 a 7.0140947,7.0140947 0 0 0 1.244591,-0.720583 l -0.397968,-1.020601 a 5.9619804,5.9619804 0 0 0 0.950054,-0.945259 l 1.014441,0.395228 a 7.0140947,7.0140947 0 0 0 0.719219,-1.246646 l -0.849365,-0.680175 a 5.9619804,5.9619804 0 0 0 0.213027,-0.638392 5.9619804,5.9619804 0 0 0 0.13014,-0.6575716 l 1.084993,-0.1671329 a 7.0140947,7.0140947 0 0 0 0.0021,-1.4363825 L 14.354514,7.5815641 A 5.9619804,5.9619804 0 0 0 14.009289,6.2883404 L 14.865502,5.6020003 A 7.0140947,7.0140947 0 0 0 14.1449,4.3574096 L 13.124294,4.7553773 A 5.9619804,5.9619804 0 0 0 12.179034,3.8053235 L 12.574263,2.7908828 A 7.0140947,7.0140947 0 0 0 11.328302,2.071664 L 10.648127,2.9210272 A 5.9619804,5.9619804 0 0 0 10.009734,2.7080014 5.9619804,5.9619804 0 0 0 9.3514778,2.5778574 L 9.1857148,1.4928647 a 7.0140947,7.0140947 0 0 0 -0.718533,-0.037674 z m -6.85e-4,2.1014885 A 4.9098663,4.9098663 0 0 1 9.7371158,3.723812 4.9098663,4.9098663 0 0 1 13.20923,9.7371654 4.9098663,4.9098663 0 0 1 7.1958768,13.209279 4.9098663,4.9098663 0 0 1 3.7237628,7.1959259 4.9098663,4.9098663 0 0 1 8.4664968,3.5566794 Z m 0,0.3507047 v 7.015e-4 c 0.01113,0 0.02243,5.611e-4 0.03356,7.013e-4 -0.01114,-1.802e-4 -0.02232,-0.00141 -0.03356,-0.00141 z m 0.276043,0.013698 0.180146,0.898681 -2.963865,1.5952958 -0.228095,0.684285 -0.683601,-0.4561894 -0.895255,0.3582396 c -0.0618,0.1798221 -0.115188,0.3635734 -0.153434,0.5534559 h 0.820594 l 0.45619,0.6842849 0.228095,0.6836003 0.911695,-0.4555051 3.6474672,2.0514859 -1.4596722,2.501511 C 10.767502,12.956717 12.543546,11.401148 12.940722,9.339882 L 11.429677,9.1508304 10.974172,7.55485 11.885868,6.1876493 11.657772,5.9595541 11.842714,5.4054133 C 11.067299,4.5518062 9.9735548,3.9943762 8.7425398,3.9210834 Z m -3.239225,5.0016524 -1.58913,-0.5952388 c -0.0015,0.046636 -0.0069,0.092063 -0.0069,0.1390495 0,1.8764038 1.12313,3.4792968 2.735771,4.1803728 V 11.658506 Z M 4.1518698,7.0013939 c 0.04981,-0.1449364 0.104226,-0.2877153 0.167132,-0.4260515 -0.06297,0.1385003 -0.119363,0.2810624 -0.168503,0.4267365 z M 7.5034278,4.010814 c -0.356822,0.076206 -0.695113,0.1973826 -1.01444,0.3520746 l 0.609623,0.4561901 z m -1.01444,0.3520746 -0.0013,-0.00137 c -0.0069,0.0033 -0.01299,0.00763 -0.01987,0.010962 0.0069,-0.00341 0.01426,-0.0062 0.02123,-0.00958 z m -0.02123,0.00958 c -0.129093,0.063347 -0.255991,0.1309061 -0.378103,0.2054909 0.122226,-0.074575 0.248586,-0.1424152 0.378103,-0.2054909 z M 11.84957,5.4129384 c 0.142287,0.1578189 0.277836,0.3220468 0.397282,0.4986583 C 12.127396,5.7347777 11.992113,5.5705651 11.84957,5.4129384 Z m -7.0798522,0.386323 c -0.08473,0.1174481 -0.163578,0.2388611 -0.237,0.3644042 0.07334,-0.1253574 0.152374,-0.2471674 0.237,-0.3644042 z m 7.4798742,0.1157593 -0.135624,0.2726182 0.373309,0.1239803 C 12.414267,6.1751667 12.335637,6.0426504 12.249592,5.9150207 Z"
     style="fill:currentColor"
     class="ColorScheme-Text" />
</svg>
