<?xml version="1.0" encoding="UTF-8" standalone="no"?>
<svg
   width="64"
   height="64"
   version="1.1"
   viewBox="0 0 16.933 16.933"
   id="svg7"
   sodipodi:docname="krita.svg"
   inkscape:version="1.4.2 (ebf0e940d0, 2025-05-08)"
   xmlns:inkscape="http://www.inkscape.org/namespaces/inkscape"
   xmlns:sodipodi="http://sodipodi.sourceforge.net/DTD/sodipodi-0.dtd"
   xmlns="http://www.w3.org/2000/svg"
   xmlns:svg="http://www.w3.org/2000/svg"
   xmlns:rdf="http://www.w3.org/1999/02/22-rdf-syntax-ns#"
   xmlns:cc="http://creativecommons.org/ns#"
   xmlns:dc="http://purl.org/dc/elements/1.1/">
  <sodipodi:namedview
     id="namedview7"
     pagecolor="#9c4444"
     bordercolor="#000000"
     borderopacity="0.25"
     inkscape:showpageshadow="2"
     inkscape:pageopacity="0.0"
     inkscape:pagecheckerboard="0"
     inkscape:deskcolor="#d1d1d1"
     inkscape:zoom="8.7062522"
     inkscape:cx="86.259849"
     inkscape:cy="32.390516"
     inkscape:window-width="2560"
     inkscape:window-height="1376"
     inkscape:window-x="0"
     inkscape:window-y="0"
     inkscape:window-maximized="1"
     inkscape:current-layer="svg7"
     showgrid="false" />
  <defs
     id="defs2">
    <style
       id="current-color-scheme"
       type="text/css">.ColorScheme-Text {color:#d8dee9} .ColorScheme-Highlight {color:#3b4252}</style>
    <inkscape:path-effect
       effect="offset"
       id="path-effect15"
       is_visible="true"
       lpeversion="1.3"
       linejoin_type="miter"
       unit="mm"
       offset="-0.15"
       miter_limit="4"
       attempt_force_join="false"
       update_on_knot_move="true" />
  </defs>
  <metadata
     id="metadata2">
    <rdf:RDF>
      <cc:Work
         rdf:about="">
        <dc:format>image/svg+xml</dc:format>
        <dc:type
           rdf:resource="http://purl.org/dc/dcmitype/StillImage" />
      </cc:Work>
    </rdf:RDF>
  </metadata>
  <path
     id="path15"
     style="fill:currentColor;fill-opacity:1;stroke-width:0.0111796"
     class="ColorScheme-Text"
     d="M 24.526698 -2.3813362 L 24.526182 -2.3808194 L 24.525665 -2.3808194 C 24.525275 -2.380728 24.524459 -2.3808779 24.524115 -2.3808194 C 24.522095 -2.3804752 24.519853 -2.3795281 24.517914 -2.3787524 C 24.516307 -2.3781098 24.514521 -2.376827 24.51378 -2.3761686 L 24.51378 -2.3756519 L 24.513263 -2.3756519 L 24.513263 -2.3751351 L 24.513263 -2.3746184 L 24.51378 -2.3746184 C 24.513975 -2.374505 24.515068 -2.3737025 24.51533 -2.3735848 C 24.517292 -2.3728789 24.520528 -2.3722015 24.524631 -2.3720346 C 24.530995 -2.371773 24.535729 -2.3728164 24.538067 -2.3741016 L 24.538584 -2.3746184 L 24.539101 -2.3746184 L 24.539617 -2.3746184 L 24.539617 -2.3751351 L 24.539617 -2.3756519 L 24.539617 -2.3761686 L 24.539617 -2.3766854 L 24.539617 -2.3772021 L 24.539101 -2.3772021 L 24.539101 -2.3777189 L 24.538584 -2.3782356 C 24.536032 -2.3801427 24.531575 -2.381662 24.526698 -2.3813362 z M 25.213465 -2.3813362 C 25.213275 -2.3813199 25.212102 -2.3808544 25.211914 -2.3808194 C 25.211542 -2.3807317 25.21126 -2.3808837 25.210881 -2.3808194 C 25.208861 -2.3804752 25.207136 -2.3795281 25.205197 -2.3787524 C 25.203062 -2.3778964 25.201315 -2.3768982 25.200546 -2.3761686 L 25.200029 -2.3761686 L 25.200029 -2.3756519 L 25.200029 -2.3751351 L 25.200029 -2.3746184 L 25.200546 -2.3746184 L 25.201063 -2.3741016 C 25.202899 -2.3733971 25.206707 -2.3722228 25.211398 -2.3720346 C 25.217762 -2.371773 25.222495 -2.3728164 25.224833 -2.3741016 L 25.22535 -2.3746184 L 25.225867 -2.3746184 L 25.226384 -2.3746184 L 25.226384 -2.3751351 L 25.2269 -2.3751351 L 25.2269 -2.3756519 L 25.2269 -2.3761686 L 25.2269 -2.3766854 L 25.226384 -2.3772021 L 25.225867 -2.3777189 L 25.22535 -2.3782356 C 25.225158 -2.3783901 25.224029 -2.3791269 25.2238 -2.3792691 C 25.221168 -2.3806782 25.217586 -2.3816942 25.213465 -2.3813362 z M 24.9308 -2.3730681 C 24.494883 -2.3730681 24.34045 -2.3633854 23.981006 -2.3136414 C 22.568862 -2.1182126 21.202429 -1.4508452 20.197332 -0.46624527 C 20.114277 -0.38488664 20.043005 -0.31845359 20.039205 -0.31845359 C 20.035389 -0.31845359 19.878524 -0.41153807 19.690913 -0.525672 C 19.023046 -0.93197095 18.792897 -1.0664446 18.598495 -1.1633466 C 18.387478 -1.2685337 18.264618 -1.3015488 18.182508 -1.2744488 C 18.133062 -1.2581303 18.066288 -1.1931428 18.024898 -1.1209728 C 17.92361 -0.94434946 18.020753 -0.80028217 18.721482 -0.087464482 C 18.895563 0.089620118 19.104801 0.30221317 19.186561 0.38536557 L 19.335386 0.53677453 L 19.223251 0.7073034 C 18.615303 1.6319263 18.251642 2.6694384 18.134966 3.8135126 C 18.110961 4.0486771 18.107412 4.8025445 18.129282 5.0154828 C 18.190949 5.6155572 18.282005 6.0613835 18.445019 6.5610944 C 18.972962 8.179464 20.092594 9.5459663 21.577066 10.384558 C 22.454374 10.880156 23.408451 11.167665 24.453319 11.251155 C 24.451936 11.251763 24.450484 11.253148 24.449702 11.253739 L 24.449185 11.253739 L 24.449185 11.254256 L 24.449185 11.254772 L 24.449185 11.255289 L 24.449185 11.255806 L 24.449702 11.256323 C 24.451538 11.257034 24.455346 11.257712 24.460037 11.257873 C 24.466401 11.258125 24.471134 11.257608 24.473473 11.256323 L 24.47399 11.256323 L 24.474506 11.255806 L 24.475023 11.255289 L 24.475023 11.254772 L 24.47554 11.254772 L 24.47554 11.254256 L 24.47554 11.253739 L 24.47554 11.253222 L 24.475023 11.253222 L 24.474506 11.252705 C 24.619441 11.261203 24.986779 11.25932 25.268241 11.251672 C 25.267225 11.252249 25.266272 11.252782 25.265657 11.253222 L 25.26514 11.253739 L 25.264623 11.253739 L 25.264623 11.254256 L 25.264107 11.254772 L 25.264107 11.255289 L 25.264623 11.255289 L 25.264623 11.255806 L 25.26514 11.256323 L 25.265657 11.256323 C 25.26749 11.257068 25.271205 11.257692 25.275992 11.257873 C 25.282356 11.258125 25.287089 11.257608 25.289428 11.256323 L 25.289944 11.256323 L 25.290461 11.255806 L 25.290978 11.255289 L 25.290978 11.254772 L 25.291495 11.254256 L 25.291495 11.253739 L 25.290978 11.253222 L 25.290461 11.252705 L 25.289944 11.252189 L 25.289428 11.251672 C 25.289194 11.251526 25.288654 11.25129 25.288394 11.251155 C 25.422787 11.247305 25.535206 11.242344 25.590695 11.236169 C 26.044301 11.185724 26.398512 11.118355 26.78233 11.009831 C 28.486954 10.527853 29.926731 9.412266 30.827999 7.875717 C 30.949035 7.6693651 31.164868 7.227864 31.256388 6.9993019 C 31.506982 6.3734487 31.655564 5.7649852 31.725084 5.080077 C 31.748454 4.8494518 31.757263 4.2748453 31.741103 4.0274488 C 31.67137 2.9597698 31.373895 1.9666027 30.849186 1.0499114 C 30.492944 0.42754189 30.017083 -0.16011302 29.481337 -0.63935791 C 28.477828 -1.5370342 27.23207 -2.1188977 25.907466 -2.3089906 C 25.534416 -2.3625276 25.377227 -2.3730681 24.9308 -2.3730681 z M 25.330768 -1.2083042 C 25.925843 -1.1664274 26.514598 -1.0314918 27.068612 -0.80626951 C 27.273761 -0.72287023 27.638274 -0.54198422 27.817906 -0.43420652 C 28.260503 -0.16865247 28.569607 0.072554454 28.934611 0.43755773 C 29.228567 0.73151479 29.42516 0.96868357 29.637914 1.286068 C 29.915377 1.6999784 30.161101 2.2052535 30.316929 2.6813043 C 30.692018 3.8265314 30.691588 5.0669782 30.315378 6.2122854 C 29.654513 8.224155 27.923875 9.7014854 25.83357 10.038333 C 25.645187 10.068693 25.449759 10.089951 25.241886 10.102411 C 25.151723 10.10782 25.060653 10.099544 24.970074 10.100344 C 24.968868 10.100354 24.967662 10.100334 24.966456 10.100344 C 24.816803 10.101564 24.667327 10.107878 24.517397 10.096726 L 24.517914 10.09621 L 24.517914 10.095693 L 24.51843 10.095176 L 24.51843 10.094659 L 24.517914 10.094143 L 24.517397 10.093626 L 24.51688 10.093109 C 24.514496 10.091296 24.510453 10.090229 24.506028 10.090525 C 24.503079 10.090722 24.499634 10.090905 24.496727 10.092076 L 24.496727 10.092592 C 24.49512 10.093235 24.493943 10.093569 24.493109 10.094143 L 24.492593 10.094659 C 24.492423 10.094646 24.492246 10.094673 24.492076 10.094659 C 23.638291 10.027188 22.789468 9.761272 22.043695 9.3210783 C 20.744472 8.554214 19.793056 7.2752851 19.431503 5.8097339 C 19.106101 4.4907176 19.252445 3.1472305 19.854207 1.9299437 C 19.958715 1.7185382 20.128043 1.4162568 20.160643 1.3832178 C 20.172825 1.3708717 20.777545 1.9858999 21.916573 3.1696369 C 22.510256 3.7866226 22.733423 3.9999678 23.059117 4.2605049 C 23.369218 4.5085692 23.657761 4.6971883 23.943283 4.8382361 C 24.295102 5.0120369 24.554947 5.0867625 24.819181 5.0904121 L 24.818665 5.0909289 L 24.818665 5.0914456 C 24.817058 5.0920882 24.815398 5.092468 24.814531 5.0929959 L 24.814531 5.0935126 L 24.814014 5.0935126 L 24.814014 5.0940294 L 24.814014 5.0945461 L 24.814014 5.0950629 L 24.814014 5.0955796 L 24.814531 5.0955796 C 24.816366 5.0962911 24.820175 5.097486 24.824866 5.0976467 C 24.830434 5.0978675 24.83574 5.0965821 24.838301 5.0955796 L 24.838818 5.0955796 L 24.839335 5.0955796 L 24.839852 5.0955796 L 24.839852 5.0950629 L 24.839852 5.0945461 L 24.840368 5.0945461 L 24.840368 5.0940294 L 24.840368 5.0935126 L 24.840368 5.0929959 L 24.839852 5.0929959 L 24.839852 5.0924791 L 24.839335 5.0919624 L 24.839335 5.0914456 L 24.838818 5.0914456 L 24.838301 5.0909289 L 24.839852 5.0909289 L 24.964906 5.0909289 L 25.232068 5.2914295 C 25.835204 5.7441405 26.196818 5.9921842 26.462976 6.1363225 L 26.556509 6.1869644 L 26.556509 6.2541425 C 26.556509 6.5039601 26.679247 6.7639537 26.966812 7.1243564 C 27.168259 7.3768315 27.233226 7.4628124 27.298051 7.5615305 C 27.518902 7.8978709 27.542891 8.1755564 27.376598 8.4674005 L 27.330607 8.5480141 L 27.381248 8.5190759 C 27.501984 8.4496937 27.740363 8.2837643 27.839093 8.2007553 C 28.155605 7.9346209 28.421786 7.5041999 28.524309 7.0923177 C 28.572159 6.9000589 28.579544 6.8337189 28.579085 6.6148368 C 28.578495 6.3823068 28.561594 6.2737059 28.497954 6.0923984 C 28.36297 5.7078027 28.071312 5.4168007 27.727474 5.3245017 C 27.611526 5.2933667 27.389695 5.2936535 27.27273 5.3250185 L 27.189533 5.3477557 L 26.988515 5.1457048 C 26.762417 4.9190429 26.585089 4.7619142 26.094014 4.3530039 L 25.754506 4.0708562 L 25.748305 4.0176305 C 25.738547 3.9352476 25.670772 3.7446353 25.608782 3.6259308 C 25.364839 3.1588192 24.891082 2.6766594 24.200627 2.1929716 C 23.952965 2.0194758 23.762671 1.9027753 23.052399 1.4870854 C 22.088829 0.92314949 21.062321 0.31277641 21.061862 0.30371841 C 21.061713 0.30057501 21.108156 0.25697268 21.164696 0.20708538 C 21.859316 -0.40583874 22.664099 -0.83036615 23.554684 -1.0537947 C 24.134402 -1.1992337 24.735693 -1.250181 25.330768 -1.2083042 z M 20.181313 -0.525672 C 20.17706 -0.52365248 20.1669 -0.51429774 20.157542 -0.50396833 C 20.149521 -0.49511454 20.144106 -0.48760192 20.143073 -0.48433167 L 20.143073 -0.48381492 L 20.143073 -0.48329816 L 20.143073 -0.48278141 L 20.143073 -0.48226465 L 20.14359 -0.48226465 L 20.144107 -0.48226465 C 20.148359 -0.48428418 20.159036 -0.49363891 20.168394 -0.50396833 C 20.176415 -0.51282211 20.18183 -0.52033473 20.182863 -0.52360499 L 20.182863 -0.52412174 L 20.182863 -0.52463849 L 20.182863 -0.52515525 L 20.182863 -0.525672 L 20.182346 -0.525672 L 20.18183 -0.525672 L 20.181313 -0.525672 z M 18.29516 -0.46107773 L 18.29516 -0.46056098 C 18.296149 -0.4587021 18.29997 -0.45402428 18.304979 -0.44764213 C 18.312067 -0.43860475 18.319297 -0.43079918 18.322548 -0.42903898 L 18.323065 -0.42903898 L 18.323582 -0.42903898 C 18.323995 -0.42903898 18.324746 -0.42905779 18.325132 -0.42903898 L 18.325649 -0.42903898 L 18.326165 -0.42903898 L 18.326165 -0.42955573 L 18.326682 -0.42955573 L 18.327199 -0.43007248 L 18.327716 -0.43058924 L 18.327716 -0.43110599 L 18.327716 -0.43162275 C 18.327662 -0.43181345 18.327279 -0.43296647 18.327199 -0.43317301 C 18.325271 -0.43712256 18.318652 -0.44389083 18.308596 -0.45177616 C 18.30221 -0.45678137 18.298569 -0.46008862 18.29671 -0.46107773 L 18.296194 -0.46107773 L 18.295677 -0.46107773 L 18.29516 -0.46107773 z M 18.575241 -0.17531269 L 18.571107 -0.1706619 C 18.578089 -0.1630336 18.586396 -0.15400231 18.595911 -0.14430744 C 18.607238 -0.13276631 18.618494 -0.12213159 18.627433 -0.11381894 L 18.631567 -0.11795298 C 18.624731 -0.12559734 18.616134 -0.13475967 18.606763 -0.14430744 C 18.595287 -0.15600233 18.584245 -0.16695323 18.575241 -0.17531269 z M 28.727393 0.2902828 L 28.727393 0.29079956 C 28.72838 0.29265844 28.731685 0.29733625 28.736695 0.30371841 C 28.745021 0.31433239 28.751915 0.32079085 28.755814 0.32232156 L 28.756331 0.32283831 L 28.756848 0.32283831 L 28.757365 0.32283831 L 28.757881 0.32232156 L 28.758398 0.32232156 L 28.758915 0.3218048 L 28.758915 0.32128805 L 28.759432 0.32128805 L 28.759432 0.3207713 L 28.759432 0.32025454 L 28.759432 0.31973779 L 28.759948 0.31922103 L 28.759948 0.31870428 L 28.759948 0.31818753 L 28.759948 0.31767077 L 28.759432 0.31767077 C 28.757665 0.31444871 28.749866 0.30667337 28.740829 0.29958438 C 28.734444 0.29457917 28.730802 0.2912742 28.728943 0.2902828 L 28.728426 0.2902828 L 28.72791 0.2902828 L 28.727393 0.2902828 z M 28.985253 0.54762637 L 28.985253 0.54814312 L 28.985253 0.54865988 C 28.98624 0.55051876 28.989545 0.55467752 28.994555 0.56106198 C 29.001644 0.57009935 29.008873 0.57790493 29.012125 0.57966513 L 29.012641 0.57966513 C 29.012917 0.57966513 29.013847 0.57965663 29.014192 0.57966513 L 29.014708 0.57966513 L 29.015225 0.57966513 L 29.015742 0.57966513 L 29.016259 0.57966513 L 29.016259 0.57914837 L 29.016775 0.57914837 L 29.016775 0.57863162 L 29.016775 0.57811486 L 29.017292 0.57811486 L 29.017292 0.57759811 C 29.017265 0.57742209 29.016844 0.57625439 29.016775 0.57604785 L 29.016775 0.57553109 C 29.014848 0.57158154 29.008745 0.56481327 28.998689 0.55692794 C 28.992304 0.55192273 28.988146 0.54913453 28.986287 0.54814312 L 28.98577 0.54814312 L 28.98577 0.54762637 L 28.985253 0.54762637 z M 20.983832 2.269968 L 20.987966 2.2746187 L 20.988483 2.274102 L 20.983832 2.269968 z M 21.320239 2.6172267 L 21.319722 2.6177435 L 21.320756 2.6182602 L 21.321272 2.6177435 L 21.320239 2.6172267 z M 21.606521 2.9143604 L 21.612722 2.9215949 L 21.613755 2.9205614 L 21.606521 2.9143604 z M 21.853529 3.1717039 L 21.860247 3.1794553 L 21.860764 3.1784217 L 21.853529 3.1717039 z M 22.110873 3.4398993 L 22.115007 3.4455836 L 22.11604 3.4445501 L 22.110873 3.4398993 z M 22.432811 3.7623539 L 22.438495 3.768555 L 22.439012 3.7675215 L 22.432811 3.7623539 z M 30.523114 4.0930766 L 30.523114 4.0935933 L 30.522597 4.0935933 L 30.522597 4.0941101 L 30.52208 4.0946269 C 30.521335 4.09646 30.520711 4.1001747 30.52053 4.1049619 L 30.520013 4.1049619 C 30.519761 4.1113257 30.520795 4.116059 30.52208 4.1183975 L 30.522597 4.1183975 L 30.522597 4.1189143 L 30.523114 4.1189143 L 30.523114 4.1194311 L 30.52363 4.1194311 L 30.52363 4.1199478 L 30.524147 4.1199478 L 30.524147 4.1194311 L 30.524664 4.1194311 L 30.525181 4.1194311 L 30.525697 4.1194311 L 30.525697 4.1189143 L 30.526214 4.1183975 L 30.526731 4.1178808 C 30.529295 4.1135494 30.529971 4.10506 30.527248 4.0982441 C 30.526605 4.0966377 30.525754 4.0954622 30.525181 4.0946269 L 30.524664 4.0941101 L 30.524147 4.0935933 L 30.52363 4.0935933 L 30.52363 4.0930766 L 30.523114 4.0930766 z M 18.044018 4.3767746 L 18.044018 4.3772914 L 18.043501 4.3778081 C 18.042418 4.3831599 18.041411 4.4050651 18.041434 4.4382684 C 18.041448 4.4714657 18.042422 4.4918745 18.043501 4.4956281 L 18.043501 4.4961448 L 18.044018 4.4961448 C 18.044506 4.4949285 18.044994 4.4907973 18.045568 4.4837427 C 18.047805 4.4555267 18.047863 4.4120164 18.045568 4.3871097 C 18.045155 4.3824396 18.044913 4.3792241 18.044534 4.3778081 L 18.044534 4.3772914 L 18.044534 4.3767746 L 18.044018 4.3767746 z M 30.534999 4.4196652 L 30.534999 4.420182 L 30.534482 4.420182 L 30.534482 4.4206987 C 30.533518 4.4230923 30.53253 4.42941 30.532415 4.4382684 C 30.532286 4.4481686 30.532864 4.4554269 30.533965 4.4584218 L 30.533965 4.4589385 L 30.534482 4.4594553 L 30.534482 4.459972 L 30.534999 4.459972 L 30.535516 4.459972 L 30.536033 4.459972 L 30.536549 4.4594553 L 30.536549 4.4589385 L 30.536549 4.4584218 L 30.537066 4.4584218 L 30.537066 4.457905 L 30.537066 4.4573883 C 30.540072 4.4501203 30.540279 4.4357925 30.537583 4.4253495 C 30.537193 4.4238808 30.536893 4.4221357 30.536549 4.4212155 L 30.536549 4.4206987 L 30.536033 4.4206987 L 30.536033 4.420182 L 30.535516 4.4196652 L 30.534999 4.4196652 z M 30.523114 4.7586559 L 30.522597 4.7591727 L 30.52208 4.7596894 C 30.521335 4.7615226 30.520711 4.7652373 30.52053 4.7700245 L 30.520013 4.7700245 C 30.519761 4.7763883 30.520795 4.7816384 30.52208 4.7839769 L 30.522597 4.7839769 L 30.522597 4.7844936 L 30.523114 4.7844936 L 30.52363 4.7850104 L 30.524147 4.7850104 L 30.524664 4.7850104 L 30.525181 4.7850104 L 30.525697 4.7844936 L 30.526214 4.7844936 C 30.526667 4.784049 30.527413 4.7825198 30.527764 4.7819099 C 30.529712 4.7774772 30.529767 4.7701259 30.527248 4.7638235 C 30.526605 4.762217 30.525708 4.7605569 30.525181 4.7596894 L 30.524664 4.7591727 L 30.524147 4.7591727 L 30.52363 4.7586559 L 30.523114 4.7586559 z M 24.720481 5.0888618 C 24.716887 5.0891372 24.713435 5.0903211 24.710663 5.0914456 L 24.710146 5.0914456 L 24.709629 5.0914456 L 24.709113 5.0919624 L 24.708596 5.0919624 L 24.708079 5.0924791 L 24.708079 5.0929959 L 24.707562 5.0929959 L 24.707562 5.0935126 L 24.707562 5.0940294 L 24.707562 5.0945461 L 24.708079 5.0945461 L 24.708596 5.0950629 C 24.711029 5.0960497 24.71672 5.0966132 24.724099 5.0966132 C 24.731488 5.0966132 24.736659 5.0960497 24.739084 5.0950629 L 24.739601 5.0950629 L 24.740118 5.0950629 L 24.740635 5.0945461 L 24.740635 5.0940294 L 24.740635 5.0935126 L 24.740635 5.0929959 L 24.740635 5.0924791 L 24.740118 5.0924791 C 24.739728 5.0922037 24.738177 5.0918128 24.737534 5.0914456 C 24.732928 5.0895867 24.726471 5.0884029 24.720481 5.0888618 z M 26.363759 6.4618776 C 25.677313 6.9210351 24.886063 7.209862 24.038883 7.3114214 C 23.791427 7.3411002 23.313439 7.3516357 23.059117 7.3331251 C 22.185076 7.2695466 21.349999 6.998342 20.629339 6.5461085 C 20.669703 6.6196324 20.711325 6.6911939 20.751809 6.7559107 C 21.214617 7.4957372 21.870458 8.0839693 22.671551 8.4767021 C 23.297362 8.7835019 23.964144 8.9533202 24.644002 8.9800206 C 25.492368 9.0133377 26.28034 8.8534926 27.026755 8.4968555 L 27.146642 8.4394958 L 27.173513 8.3945381 C 27.228324 8.301164 27.256602 8.2120116 27.262912 8.121692 C 27.269223 8.0313724 27.253668 7.9389013 27.21227 7.8385107 C 27.159099 7.7095688 27.088942 7.6047461 26.822637 7.2700811 C 26.551748 6.9296555 26.419101 6.7063274 26.363759 6.4618776 z M 29.070001 8.2426124 L 29.070001 8.2431292 C 29.068142 8.244116 29.063467 8.2469065 29.057082 8.251914 C 29.048047 8.259003 29.040754 8.2667485 29.038996 8.2700004 L 29.038996 8.2705171 L 29.038479 8.2710339 L 29.038479 8.2715507 L 29.038479 8.2720674 L 29.038996 8.2725842 L 29.038996 8.2731009 L 29.038996 8.2736177 L 29.039512 8.2741344 L 29.039512 8.2746512 L 29.039512 8.2751679 L 29.040029 8.2751679 L 29.040546 8.2751679 L 29.041063 8.2751679 L 29.04158 8.2751679 L 29.042096 8.2751679 L 29.042613 8.2751679 L 29.04313 8.2751679 C 29.047079 8.2732402 29.053329 8.2661043 29.061216 8.256048 C 29.066217 8.2496636 29.069526 8.2460216 29.070518 8.2441627 L 29.070518 8.2436459 L 29.070518 8.2431292 L 29.070518 8.2426124 L 29.070001 8.2426124 z M 28.705173 8.6074409 L 28.705173 8.6079576 C 28.703314 8.6089444 28.698638 8.6122517 28.692254 8.6172592 C 28.683219 8.6243482 28.675925 8.6315769 28.674167 8.6348288 L 28.674167 8.6353456 L 28.673651 8.6358623 L 28.673651 8.6363791 L 28.673651 8.6368958 L 28.674167 8.6374126 L 28.674167 8.6379293 L 28.674167 8.6384461 L 28.674167 8.6389629 L 28.674684 8.6389629 L 28.674684 8.6394796 L 28.674684 8.6399964 L 28.675201 8.6399964 L 28.675718 8.6399964 L 28.676234 8.6399964 L 28.676751 8.6399964 L 28.677268 8.6399964 L 28.677785 8.6394796 C 28.681802 8.6374406 28.688584 8.6313438 28.696388 8.6213932 C 28.701388 8.6150088 28.7047 8.61085 28.705689 8.6089911 L 28.705689 8.6084744 L 28.705689 8.6079576 L 28.705689 8.6074409 L 28.705173 8.6074409 z M 25.235685 10.090009 L 25.235685 10.090525 C 25.232736 10.090722 25.229808 10.090905 25.2269 10.092076 L 25.2269 10.092592 C 25.225294 10.093235 25.223634 10.093615 25.222766 10.094143 L 25.22225 10.094659 L 25.221733 10.094659 L 25.221733 10.095176 L 25.221733 10.095693 L 25.221216 10.095693 L 25.221216 10.09621 L 25.221733 10.09621 L 25.221733 10.096726 L 25.22225 10.097243 L 25.222766 10.097243 C 25.224602 10.097954 25.228411 10.098633 25.233101 10.098793 C 25.239465 10.099046 25.244199 10.098528 25.246537 10.097243 L 25.247054 10.097243 L 25.247571 10.096726 L 25.247571 10.09621 L 25.247571 10.095693 L 25.248087 10.095693 L 25.248087 10.095176 L 25.248087 10.094659 L 25.248087 10.094143 L 25.247571 10.094143 L 25.247571 10.093626 L 25.247571 10.093109 L 25.247054 10.092592 L 25.246537 10.092076 L 25.24602 10.091559 C 25.243569 10.090159 25.239678 10.089756 25.235685 10.090009 z M 24.724099 11.25994 C 24.7134 11.25994 24.702755 11.260274 24.694644 11.26149 C 24.691601 11.261949 24.689478 11.262604 24.688443 11.26304 L 24.687926 11.263557 L 24.687926 11.264074 L 24.688443 11.264074 L 24.688959 11.264074 C 24.693242 11.265084 24.705836 11.266141 24.724099 11.266141 C 24.74338 11.266141 24.756169 11.265153 24.759755 11.264074 L 24.760271 11.264074 L 24.760788 11.264074 L 24.760788 11.263557 L 24.760271 11.263557 C 24.759239 11.263144 24.757111 11.261949 24.75407 11.26149 C 24.745953 11.260274 24.734799 11.25994 24.724099 11.25994 z M 25.013998 11.25994 C 25.003299 11.25994 24.992138 11.260274 24.984026 11.26149 C 24.980983 11.261949 24.979379 11.262604 24.978342 11.26304 L 24.977825 11.263557 L 24.977825 11.264074 C 24.981412 11.265175 24.99472 11.266141 25.013998 11.266141 C 25.032263 11.266141 25.044339 11.2656 25.04862 11.264591 L 25.049137 11.264074 L 25.049654 11.264074 L 25.05017 11.264074 L 25.05017 11.263557 C 25.049138 11.263144 25.046496 11.261949 25.043453 11.26149 C 25.035338 11.260274 25.024698 11.25994 25.013998 11.25994 z "
     transform="translate(-16.40384,4.0240976)" />
</svg>
