<?xml version="1.0" encoding="UTF-8" standalone="no"?>
<svg
   width="64"
   height="64"
   version="1.1"
   viewBox="0 0 16.933 16.933"
   id="svg7"
   sodipodi:docname="kruler.svg"
   inkscape:version="1.4.3 (0d15f75042, 2025-12-25)"
   xmlns:inkscape="http://www.inkscape.org/namespaces/inkscape"
   xmlns:sodipodi="http://sodipodi.sourceforge.net/DTD/sodipodi-0.dtd"
   xmlns="http://www.w3.org/2000/svg"
   xmlns:svg="http://www.w3.org/2000/svg"
   xmlns:rdf="http://www.w3.org/1999/02/22-rdf-syntax-ns#"
   xmlns:cc="http://creativecommons.org/ns#"
   xmlns:dc="http://purl.org/dc/elements/1.1/">
  <sodipodi:namedview
     id="namedview7"
     pagecolor="#9c4444"
     bordercolor="#000000"
     borderopacity="0.25"
     inkscape:showpageshadow="2"
     inkscape:pageopacity="0.0"
     inkscape:pagecheckerboard="0"
     inkscape:deskcolor="#d1d1d1"
     inkscape:zoom="12.3125"
     inkscape:cx="57.218274"
     inkscape:cy="26.314721"
     inkscape:window-width="2560"
     inkscape:window-height="1388"
     inkscape:window-x="0"
     inkscape:window-y="0"
     inkscape:window-maximized="1"
     inkscape:current-layer="svg7"
     showgrid="false" />
  <defs
     id="defs2">
    <style
       id="current-color-scheme"
       type="text/css">.ColorScheme-Text {color:#d8dee9} .ColorScheme-Highlight {color:#3b4252}</style>
  </defs>
  <metadata
     id="metadata2">
    <rdf:RDF>
      <cc:Work
         rdf:about="">
        <dc:format>image/svg+xml</dc:format>
        <dc:type
           rdf:resource="http://purl.org/dc/dcmitype/StillImage" />
      </cc:Work>
    </rdf:RDF>
  </metadata>
  <path
     id="path5"
     style="fill:currentColor"
     d="M 1.4551795,4.7108558 V 12.222144 H 15.47782 V 4.7108558 Z m 0.325679,0.325679 H 15.152141 V 11.896465 H 1.7808585 Z m 0.325679,0.3256789 V 11.570786 H 14.826461 V 5.3622137 h -0.201322 v 0.5044206 l -0.362573,0.186375 V 5.3622137 h -0.944595 l 0.0038,1.7018632 -0.361936,0.4916989 V 5.3622137 h -0.940143 v 0.5044206 l -0.362573,0.186375 V 5.3622137 h -0.940143 v 0.5044206 l -0.362573,0.186375 V 5.3622137 H 9.4142595 v 0.5044206 l -0.362572,0.186375 V 5.3622137 H 8.1115435 V 7.0777529 L 7.7489715,7.5602284 V 5.3622137 h -0.940143 v 0.5044206 l -0.362573,0.186375 V 5.3622137 h -0.940143 v 0.5044206 l -0.362573,0.186375 V 5.3622137 h -0.940143 v 0.5044206 l -0.362572,0.186375 V 5.3622137 h -0.927423 v 1.6738752 l -0.362888,0.5406778 v -2.214553 z m 0.407099,3.6419427 h 1.863112 c 0.120856,5e-7 0.220088,0.1044357 0.220087,0.2318554 v 1.9512112 c 0,0.12742 -0.09889,0.233128 -0.220087,0.233128 h -1.863112 c -0.121194,-1e-6 -0.220089,-0.105712 -0.220088,-0.233128 V 9.2360118 c -2e-5,-0.1274264 0.09924,-0.2318555 0.220088,-0.2318554 z m 0,0.1049552 c -0.06671,-3e-7 -0.12055,0.056567 -0.12054,0.1269002 v 1.9512112 c 0,0.07034 0.05417,0.128172 0.12054,0.128173 h 1.863112 c 0.06638,0 0.120539,-0.05783 0.120539,-0.128173 l 3.26e-4,-1.9512112 c 0,-0.07034 -0.05414,-0.1269 -0.120857,-0.1269002 z m 1.056865,0.1555245 -0.0032,0.5820237 0.402646,-0.5683478 0.324725,0.078557 -0.418866,0.5683479 0.415685,0.6026971 -0.318363,0.106227 -0.405827,-0.62655 v 0.564849 l -0.302143,0.04802 V 9.2951685 Z m -0.691749,0.3228165 c 0.0034,-3.746e-4 0.0068,4.234e-4 0.0099,0.00255 l 0.228674,0.1580687 3.26e-4,3.257e-4 c 0.02822,-0.016207 0.05768,-0.030005 0.08842,-0.041346 v 0.1319891 c -0.168872,0.080122 -0.286241,0.2589769 -0.286241,0.4668909 -10e-7,0.282654 0.21724,0.511735 0.485338,0.511736 0.18867,0 0.351899,-0.113535 0.432224,-0.279244 0.06716,0.103663 0.119267,0.184148 0.119267,0.184148 v 3.26e-4 h 3.26e-4 l 3.25e-4,3.26e-4 c 3.42e-4,3.74e-4 0.0012,0.0013 0.0016,0.0016 0.002,0.0013 0.0049,0.0023 0.0073,0.0019 1.64e-4,-4e-5 8.01e-4,-2.61e-4 9.85e-4,-3.26e-4 l 0.02608,-0.0089 0.08174,0.141531 c 0.0037,0.0064 0.0028,0.0147 -0.0022,0.02004 l -0.119956,0.126262 c -0.0052,0.0055 -0.01324,0.0065 -0.0194,0.0022 L 3.7101575,10.85296 c -0.04564,0.02832 -0.09524,0.05064 -0.147573,0.06552 l -0.06237,0.268746 c -0.0017,0.0073 -0.0078,0.0124 -0.01495,0.0124 h -0.169519 c -0.0073,0 -0.01379,-0.0055 -0.01527,-0.01304 l -0.05279,-0.268113 c -0.05074,-0.01445 -0.09863,-0.03557 -0.14312,-0.06265 l -0.226767,0.145029 c -0.0061,0.0039 -0.01403,0.0028 -0.01909,-0.0025 l -0.1199,-0.126262 c -0.0052,-0.0055 -0.006,-0.01387 -0.0019,-0.02035 l 0.144711,-0.232809 c -0.0273,-0.05061 -0.04803,-0.105728 -0.06138,-0.163793 l -0.249986,-0.06425 c -0.0069,-0.0018 -0.01177,-0.0083 -0.01177,-0.0159 v -0.178741 c 0,-0.0077 0.0052,-0.01434 0.0124,-0.0159 l 0.257617,-0.05629 c 0.01422,-0.05016 0.03396,-0.09775 0.05884,-0.1418487 l -0.140259,-0.243622 c -0.0037,-0.00645 -0.0028,-0.014709 0.0022,-0.020037 l 0.119903,-0.1262642 c 0.0026,-0.00274 0.0061,-0.00439 0.0095,-0.00477 z M 11.79644,10.682166 h 0.152343 v 0.381973 l 0.175243,-0.18542 h 0.176834 l -0.23281,0.231855 0.250939,0.272883 h -0.184466 l -0.18574,-0.210228 v 0.210228 H 11.79644 Z m 1.631257,0 h 0.152026 v 0.701291 h -0.152026 z m -0.740411,0.184467 c 0.0051,10e-7 0.01059,3.58e-4 0.01654,9.6e-4 0.006,2.93e-4 0.01474,0.001 0.02608,0.0025 l 3.27e-4,0.145983 c -0.01332,-0.0066 -0.02675,-0.01131 -0.04007,-0.01431 -0.01304,-0.0033 -0.02611,-0.0051 -0.03944,-0.0051 -0.03912,0 -0.06938,0.01365 -0.09064,0.04039 -0.02098,0.02644 -0.03149,0.06429 -0.03149,0.11386 v 0.232491 h -0.15203 v -0.504739 h 0.152026 v 0.08301 c 0.01956,-0.03305 0.0422,-0.05717 0.06743,-0.0722 0.02551,-0.01532 0.05585,-0.0229 0.09128,-0.0229 z m 1.268049,0 c 0.07484,0 0.134588,0.02379 0.179378,0.07156 0.04507,0.04777 0.06774,0.111546 0.06774,0.191464 v 0.04612 H 13.84656 c 0.0037,0.03786 0.01637,0.06631 0.03848,0.08524 0.02211,0.01893 0.05318,0.02831 0.09287,0.02831 0.03204,0 0.06483,-0.005 0.09828,-0.01495 0.03373,-0.01022 0.06825,-0.02537 0.103683,-0.0458 v 0.124356 c -0.036,0.01442 -0.07214,0.02523 -0.108136,0.03244 -0.036,0.0075 -0.07182,0.01113 -0.107818,0.01113 -0.08618,0 -0.153415,-0.02307 -0.201323,-0.06933 -0.04763,-0.04657 -0.07124,-0.111774 -0.07124,-0.195598 0,-0.08232 0.0232,-0.147156 0.06997,-0.194326 0.04706,-0.04717 0.1118,-0.07061 0.19401,-0.07061 z m 0.674258,0 c 0.0051,10e-7 0.01059,3.58e-4 0.01654,9.6e-4 0.006,2.93e-4 0.01474,0.001 0.02608,0.0025 l 3.25e-4,0.145983 c -0.01333,-0.0066 -0.02643,-0.01131 -0.03976,-0.01431 -0.01304,-0.0033 -0.02643,-0.0051 -0.03975,-0.0051 -0.03912,0 -0.06938,0.01365 -0.09064,0.04039 -0.02097,0.02644 -0.03117,0.06429 -0.03117,0.11386 v 0.232491 h -0.15235 v -0.504739 h 0.152344 v 0.08301 c 0.01956,-0.03305 0.04188,-0.05717 0.06711,-0.0722 0.02551,-0.01532 0.05585,-0.0229 0.09128,-0.0229 z m -1.82781,0.01209 h 0.15298 v 0.05057 c -10e-7,0.02734 -3.8e-5,0.06159 -3.26e-4,0.103047 -2.77e-4,0.04116 -6.15e-4,0.06887 -6.15e-4,0.08269 0,0.04056 0.0012,0.06975 0.0032,0.08778 0.002,0.01773 0.0054,0.03069 0.01018,0.0388 0.0062,0.01052 0.01425,0.01846 0.02417,0.02417 0.0102,0.0057 0.02194,0.0086 0.03498,0.0086 0.03175,0 0.0566,-0.01296 0.07474,-0.0388 0.01814,-0.02584 0.02703,-0.06153 0.02703,-0.107499 v -0.249348 h 0.152344 v 0.504738 h -0.152381 v -0.07283 c -0.02296,0.02944 -0.04735,0.05108 -0.07315,0.0652 -0.02551,0.01382 -0.05371,0.02067 -0.0846,0.02067 -0.05499,-10e-7 -0.09671,-0.01768 -0.125628,-0.05343 -0.02863,-0.03575 -0.04293,-0.08796 -0.04293,-0.156161 z m 1.152598,0.0951 c -0.02948,0 -0.05345,0.009 -0.07188,0.02671 -0.01843,0.01743 -0.02981,0.04265 -0.03435,0.0757 h 0.197825 c 0,-0.03065 -0.0088,-0.05548 -0.02576,-0.07411 -0.01672,-0.01893 -0.03862,-0.0283 -0.06583,-0.02831 z"
     class="ColorScheme-Text" />
</svg>
