<?xml version="1.0" encoding="UTF-8" standalone="no"?>
<svg
   width="64"
   height="64"
   version="1.1"
   viewBox="0 0 16.933 16.933"
   id="svg7"
   sodipodi:docname="krusader_user.svg"
   inkscape:version="1.4.2 (ebf0e940d0, 2025-05-08)"
   xmlns:inkscape="http://www.inkscape.org/namespaces/inkscape"
   xmlns:sodipodi="http://sodipodi.sourceforge.net/DTD/sodipodi-0.dtd"
   xmlns="http://www.w3.org/2000/svg"
   xmlns:svg="http://www.w3.org/2000/svg"
   xmlns:rdf="http://www.w3.org/1999/02/22-rdf-syntax-ns#"
   xmlns:cc="http://creativecommons.org/ns#"
   xmlns:dc="http://purl.org/dc/elements/1.1/">
  <sodipodi:namedview
     id="namedview7"
     pagecolor="#9c4444"
     bordercolor="#000000"
     borderopacity="0.25"
     inkscape:showpageshadow="2"
     inkscape:pageopacity="0.0"
     inkscape:pagecheckerboard="0"
     inkscape:deskcolor="#d1d1d1"
     inkscape:zoom="4.3531261"
     inkscape:cx="36.295755"
     inkscape:cy="40.660435"
     inkscape:window-width="2560"
     inkscape:window-height="1376"
     inkscape:window-x="0"
     inkscape:window-y="0"
     inkscape:window-maximized="1"
     inkscape:current-layer="svg7"
     showgrid="false" />
  <defs
     id="defs2">
    <style
       id="current-color-scheme"
       type="text/css">.ColorScheme-Text {color:#d8dee9} .ColorScheme-Highlight {color:#3b4252}</style>
  </defs>
  <metadata
     id="metadata2">
    <rdf:RDF>
      <cc:Work
         rdf:about="">
        <dc:format>image/svg+xml</dc:format>
        <dc:type
           rdf:resource="http://purl.org/dc/dcmitype/StillImage" />
      </cc:Work>
    </rdf:RDF>
  </metadata>
  <path
     id="path5"
     class="ColorScheme-Text"
     style="fill:currentColor;fill-opacity:1;stroke-width:0.0710113"
     d="m 3.7965387,1.852048 c -1.0265907,0 -1.8550505,0.7780051 -1.9365827,1.7819398 l 13.21309,0.00611 C 14.994352,2.6332587 14.165102,1.8520573 13.136464,1.8520573 Z M 3.6154046,2.5478754 h 8.5904224 c 0.08776,-0.0012 0.169481,0.044861 0.213728,0.1206638 0.04424,0.075806 0.04424,0.1695481 0,0.245349 -0.04425,0.075805 -0.125965,0.1219055 -0.213728,0.1206638 H 3.6154046 C 3.5276406,3.035752 3.4460623,2.989691 3.401816,2.9138882 3.35757,2.8380832 3.35757,2.7443411 3.401816,2.6685392 3.446062,2.5927342 3.527641,2.5466337 3.6154046,2.5478754 Z m -1.7633542,1.572789 v 8.7507516 l 6.3674366,0.0029 9.629e-4,-1.324666 -0.8281412,0.626757 c -0.00914,0.0069 -0.017043,0.01301 -0.023716,0.01803 -0.00697,0.0052 -0.01408,0.01022 -0.021359,0.01498 0.00406,-0.0024 0.00773,-0.0046 0.010956,-0.0067 -0.00322,0.0022 -0.00698,0.0048 -0.011095,0.0078 -0.019899,0.01402 -0.040856,0.0263 -0.062829,0.03675 0.038918,-0.01829 0.060855,-0.0263 0.064909,-0.02635 h 1.423e-4 l 1.419e-4,1.43e-4 h 1.421e-4 v 1.42e-4 1.41e-4 1.43e-4 c -0.003,0.0037 -0.041767,0.02271 -0.1176126,0.04965 -0.06632,0.02355 -0.1408215,0.03424 -0.213311,0.02996 -0.072505,-0.0043 -0.1432485,-0.02255 -0.2087343,-0.05493 -0.067449,-0.03336 -0.1223223,-0.07875 -0.1644911,-0.126212 -0.042128,-0.04742 -0.080329,-0.106804 -0.1055461,-0.177805 -0.044016,-0.123119 -0.041901,-0.128746 -0.00457,-0.01429 -0.014051,-0.04307 -0.021198,-0.08798 -0.021219,-0.133285 -4.2e-6,-0.02439 5.636e-4,-0.04539 5.636e-4,-0.06311 l 0.00402,-6.4347169 c 2.274e-4,-0.032843 4.295e-4,-0.067574 6.979e-4,-0.1040203 2.628e-4,-0.036315 0.00524,-0.072528 0.014563,-0.1076268 0.00994,-0.037176 0.023788,-0.076657 0.044798,-0.1191379 0.021646,-0.043769 0.045079,-0.078315 0.066018,-0.1056851 0.02407,-0.031435 0.051905,-0.061806 0.083494,-0.08987 C 6.7599424,4.742259 6.7935774,4.718176 6.8275764,4.698009 6.8624444,4.677333 6.8999184,4.659416 6.939641,4.645305 6.975331,4.632629 7.016917,4.621481 7.063356,4.614796 7.10899,4.608226 7.151799,4.607106 7.1930347,4.609516 c 0.04123,0.00241 0.084603,0.00898 0.127737,0.020528 0.051916,0.01387 0.078441,0.026546 0.080581,0.028157 v 1.417e-4 c -2.204e-4,-4.82e-5 -7.515e-4,-1.556e-4 -0.0014,-4.287e-4 0.030858,0.012843 0.060162,0.029213 0.087239,0.048824 0.027573,0.019898 0.054796,0.039157 0.081275,0.05825 L 8.2253259,5.2386296 8.2261579,4.12367 Z m 6.8609094,0.00306 -0.0011,1.4658548 1.8474022,1.3321548 h 2.234082 c 0.03181,-0.0012 0.06135,0.044861 0.07739,0.1206638 0.01604,0.075806 0.01604,0.169549 0,0.2453499 -0.01604,0.075806 -0.04558,0.1219046 -0.07739,0.1206638 h -1.559195 l 1.611622,1.1621152 c 0.02116,0.015296 0.04282,0.030694 0.06519,0.04688 0.032,0.023 0.06071,0.050333 0.0853,0.081139 0.02463,0.031019 0.06354,0.084278 0.09223,0.1650453 0.01,0.02813 0.02143,0.064444 0.02802,0.1101231 0.0062,0.043055 0.0065,0.081759 0.0044,0.1162259 -0.002,0.034565 -0.0069,0.072917 -0.01817,0.1148379 -0.01192,0.04463 -0.02754,0.079731 -0.04078,0.1065166 -0.03311,0.066917 -0.07861,0.1264666 -0.133285,0.1750323 -0.06048,0.053759 -0.0986,0.074102 -0.103604,0.073926 h -1.43e-4 -1.41e-4 -1.42e-4 V 9.560106 h -1.43e-4 v -1.426e-4 -1.416e-4 -1.426e-4 l 1.43e-4,-1.417e-4 c 9.12e-4,-0.00157 0.0058,-0.00556 0.01512,-0.011093 -0.03681,0.021796 -0.07672,0.038074 -0.118306,0.04813 -0.03093,0.00759 -0.06042,0.014861 -0.08807,0.021639 -0.476546,0.1167906 -1.429482,0.3503405 -1.429482,0.3503405 l 1.218287,2.259046 c 0.0048,0.0087 0.0093,0.01758 0.01345,0.02663 0.04419,0.09547 0.0827,0.214323 0.05908,0.370729 -0.01265,0.08374 -0.05447,0.173793 -0.113174,0.251175 l 2.699399,0.0013 V 4.126832 Z M 7.145719,5.0390991 c -0.00719,2.685e-4 -0.014389,9.259e-4 -0.021358,0.00194 -0.013932,0.00204 -0.027389,0.00556 -0.04036,0.01012 -0.012971,0.00463 -0.025326,0.010528 -0.037031,0.017472 -0.011707,0.00694 -0.022728,0.014843 -0.03287,0.023852 -0.010134,0.00898 -0.019324,0.019009 -0.0276,0.029824 -0.00827,0.010806 -0.015805,0.022333 -0.021915,0.034676 -0.0061,0.012343 -0.010931,0.025648 -0.014563,0.03925 -2.625e-4,0.034565 -3.221e-4,0.069176 -5.636e-4,0.1037426 l -0.0043,6.4315143 c 1.4e-6,0.02107 -2.684e-4,0.04204 -2.684e-4,0.0631 2.952e-4,8.86e-4 2.413e-4,0.002 5.637e-4,0.0029 0.00485,0.01366 0.012432,0.02581 0.021915,0.03648 0.00948,0.01067 0.020717,0.01979 0.033703,0.02621 0.012995,0.0064 0.027632,0.01032 0.042995,0.01123 0.015371,9.13e-4 0.030028,-0.0014 0.043689,-0.0062 0.0035,-0.0013 0.00609,-0.0041 0.00943,-0.0056 0.00409,-0.0029 0.00842,-0.0073 0.012483,-0.0094 0.00792,-0.0059 0.015814,-0.01181 0.023716,-0.01775 l 1.7167444,-1.299416 1.4682139,2.750022 c 0.06221,0.0819 0.143846,0.115683 0.242022,0.0656 l 1.43784,-0.692914 c 0.08584,-0.04509 0.08624,-0.135006 0.0466,-0.220662 L 10.562867,9.6820523 12.531071,9.1998136 c 0.02929,-0.00713 0.05852,-0.014185 0.0878,-0.021361 0.0079,-0.00472 0.01674,-0.00796 0.02358,-0.014009 0.01388,-0.012324 0.02534,-0.027222 0.0337,-0.044102 0.0042,-0.00843 0.0078,-0.017324 0.01026,-0.02663 0.0025,-0.00931 0.0039,-0.019139 0.0044,-0.02912 5.63e-4,-0.00999 4.29e-4,-0.01987 -9.26e-4,-0.029407 -0.0014,-0.00954 -0.0039,-0.018722 -0.007,-0.027602 -0.0054,-0.015185 -0.01426,-0.028481 -0.02413,-0.040917 -0.02175,-0.015741 -0.04357,-0.031417 -0.06532,-0.047157 L 7.3164075,5.1145824 c -0.027026,-0.0195 -0.05397,-0.039028 -0.080997,-0.058528 -0.00844,-0.00352 -0.016699,-0.00759 -0.025658,-0.00999 -0.013607,-0.00361 -0.027562,-0.00583 -0.042163,-0.00667 -0.00731,-4.287e-4 -0.014577,-5.361e-4 -0.021775,-2.676e-4 z M 2.6599423,5.2848647 c 9.907e-4,-5.37e-5 0.00192,-3.89e-5 0.00292,0 h 3.1134004 c 0.031807,-0.0012 0.061355,0.044861 0.077392,0.1206629 0.016034,0.075806 0.016034,0.1695481 0,0.2453499 -0.016037,0.075806 -0.045584,0.1219055 -0.077392,0.1206638 H 2.6628553 c -0.031807,0.0012 -0.061356,-0.044861 -0.077391,-0.1206638 -0.016037,-0.075805 -0.016037,-0.1695481 0,-0.2453499 0.015534,-0.073435 0.04381,-0.1190157 0.074479,-0.1206629 z m 7.01694,0 c 9.908e-4,-5.37e-5 0.00206,-3.89e-5 0.00306,0 h 3.1133997 c 0.03181,-0.0012 0.06135,0.044861 0.07739,0.1206629 0.01604,0.075806 0.01604,0.1695481 0,0.2453499 -0.01604,0.075806 -0.04558,0.1219055 -0.07739,0.1206638 H 9.6799359 c -0.031807,0.0012 -0.061495,-0.044861 -0.07753,-0.1206638 -0.016036,-0.075805 -0.016036,-0.1695481 0,-0.2453499 0.015534,-0.073435 0.04381,-0.1190157 0.074479,-0.1206629 z m -7.01694,1.6368649 c 9.907e-4,-5.28e-5 0.00192,-3.89e-5 0.00292,0 h 3.1134004 c 0.031807,-0.0012 0.061355,0.044861 0.077392,0.1206638 0.016034,0.075806 0.016034,0.1695481 0,0.2453499 -0.016037,0.075806 -0.045584,0.1219046 -0.077392,0.1206629 H 2.6628553 c -0.031807,0.0012 -0.061356,-0.044861 -0.077391,-0.1206629 -0.016037,-0.075805 -0.016037,-0.169549 0,-0.2453499 0.015534,-0.073435 0.04381,-0.1190156 0.074478,-0.1206638 z m 0,1.6367269 c 9.907e-4,-5.37e-5 0.00192,-3.88e-5 0.00292,0 h 3.1134004 c 0.031807,-0.0012 0.061355,0.044861 0.077392,0.1206639 0.016034,0.075806 0.016034,0.169548 0,0.2453489 -0.016037,0.075806 -0.045584,0.1219055 -0.077392,0.1206638 H 2.6628553 c -0.031807,0.0012 -0.061356,-0.044861 -0.077391,-0.1206638 -0.016037,-0.075805 -0.016037,-0.169548 0,-0.2453489 0.015534,-0.073435 0.04381,-0.1190166 0.074478,-0.1206639 z m 0,1.6368645 c 9.907e-4,-5.3e-5 0.00192,-3.8e-5 0.00292,0 h 3.1134004 c 0.031807,-0.0012 0.061355,0.04486 0.077392,0.120664 0.016034,0.07581 0.016034,0.169549 0,0.24535 -0.016037,0.07581 -0.045584,0.121905 -0.077392,0.120664 H 2.6628553 c -0.031807,0.0012 -0.061356,-0.04486 -0.077391,-0.120664 -0.016037,-0.0758 -0.016037,-0.169548 0,-0.24535 0.015534,-0.07343 0.04381,-0.119016 0.074478,-0.120664 z m 6.0478861,0.985559 -4.294e-4,2.85e-4 -0.00126,1.693175 0.906226,4.29e-4 z m -6.8430182,2.177218 c 0.1085053,0.975318 0.9252822,1.722854 1.9317285,1.722854 h 9.3399253 c 1.004311,0 1.819204,-0.744472 1.930479,-1.716753 l -3.543351,-0.0017 c -0.253566,0.121972 -0.506358,0.243607 -0.767394,0.369618 -0.127044,0.06481 -0.305536,0.09114 -0.456857,0.04466 -0.151321,-0.04647 -0.255131,-0.142681 -0.3238511,-0.233144 -0.014296,-0.01891 -0.027009,-0.03906 -0.038,-0.06006 l -0.065047,-0.121771 z m 2.0892848,0.06047 c 0.057353,-0.0027 0.1137708,0.01502 0.1593593,0.04993 l 0.71677,0.53411 c 0.059828,0.04472 0.095718,0.114509 0.097502,0.189178 0.00177,0.07467 -0.030863,0.145953 -0.088487,0.193479 l -0.6911116,0.571279 c -0.1036636,0.08568 -0.2570368,0.07107 -0.3427126,-0.03259 -0.085683,-0.103652 -0.071201,-0.257174 0.032455,-0.342852 L 4.2905667,14.207596 3.8227522,13.858365 c -0.083456,-0.06075 -0.1195615,-0.16753 -0.090012,-0.266432 0.029549,-0.0989 0.1182513,-0.168355 0.2213554,-0.173367 z" />
</svg>
