<?xml version="1.0" encoding="UTF-8" standalone="no"?>
<svg
   width="64"
   height="64"
   version="1.1"
   viewBox="0 0 16.933 16.933"
   id="svg7"
   sodipodi:docname="ktnef.svg"
   inkscape:version="1.4.2 (ebf0e940d0, 2025-05-08)"
   xmlns:inkscape="http://www.inkscape.org/namespaces/inkscape"
   xmlns:sodipodi="http://sodipodi.sourceforge.net/DTD/sodipodi-0.dtd"
   xmlns="http://www.w3.org/2000/svg"
   xmlns:svg="http://www.w3.org/2000/svg"
   xmlns:rdf="http://www.w3.org/1999/02/22-rdf-syntax-ns#"
   xmlns:cc="http://creativecommons.org/ns#"
   xmlns:dc="http://purl.org/dc/elements/1.1/">
  <sodipodi:namedview
     id="namedview7"
     pagecolor="#9c4444"
     bordercolor="#000000"
     borderopacity="0.25"
     inkscape:showpageshadow="2"
     inkscape:pageopacity="0.0"
     inkscape:pagecheckerboard="0"
     inkscape:deskcolor="#d1d1d1"
     inkscape:zoom="8"
     inkscape:cx="56.0625"
     inkscape:cy="45.5"
     inkscape:window-width="2560"
     inkscape:window-height="1392"
     inkscape:window-x="0"
     inkscape:window-y="0"
     inkscape:window-maximized="1"
     inkscape:current-layer="svg7"
     showgrid="true">
    <inkscape:grid
       id="grid1"
       units="px"
       originx="0"
       originy="0"
       spacingx="0.26457812"
       spacingy="0.26457812"
       empcolor="#0099e5"
       empopacity="0.30196078"
       color="#0099e5"
       opacity="0.14902"
       empspacing="5"
       enabled="true"
       visible="true" />
  </sodipodi:namedview>
  <defs
     id="defs2">
    <style
       id="current-color-scheme"
       type="text/css">.ColorScheme-Text {color:#d8dee9} .ColorScheme-Highlight {color:#3b4252}</style>
  </defs>
  <metadata
     id="metadata2">
    <rdf:RDF>
      <cc:Work
         rdf:about="">
        <dc:format>image/svg+xml</dc:format>
        <dc:type
           rdf:resource="http://purl.org/dc/dcmitype/StillImage" />
      </cc:Work>
    </rdf:RDF>
  </metadata>
  <path
     id="path5"
     style="fill:currentColor;fill-opacity:1;stroke-width:0.350566"
     d="M 3.5583691 1.4551797 L 3.5583691 8.6416797 L 7.0640292 11.270925 L 9.8689708 11.270925 L 13.374631 8.6416797 L 13.374631 4.2596045 L 10.569689 1.4551797 L 3.5583691 1.4551797 z M 10.583125 2.1171418 L 12.69975 4.2337668 L 10.583125 4.2337668 L 10.583125 2.1171418 z M 9.0984903 4.2596045 L 9.3336135 4.4947276 L 6.2873477 7.5404766 C 5.8969587 7.9308643 5.8969587 8.5594619 6.2873477 8.9501819 C 6.6777347 9.3405697 7.3063331 9.3405697 7.6970531 8.9501819 L 10.743319 5.9044329 C 11.003465 5.6442851 11.003465 5.2251216 10.743319 4.9649739 C 10.48317 4.7048262 10.06349 4.7048262 9.803343 4.9649739 L 6.757594 8.0107228 C 6.627354 8.1409627 6.627354 8.3505448 6.757594 8.4804524 C 6.887833 8.6106925 7.0970825 8.6106925 7.2273235 8.4804524 L 10.038466 5.6693098 L 10.273073 5.9044329 L 7.4619299 8.7155755 C 7.2017819 8.9757232 6.7826189 8.9757232 6.5224709 8.7155755 C 6.2623229 8.4554278 6.2623229 8.0357474 6.5224709 7.7755997 L 9.5687366 4.7298507 C 9.9589508 4.3396369 10.587167 4.3394677 10.977925 4.729334 L 10.977925 4.7298507 L 10.978442 4.7298507 C 11.368309 5.1202766 11.368139 5.7484934 10.977925 6.1390393 L 7.9321762 9.185305 C 7.4115482 9.7059327 6.5728526 9.7059327 6.0522246 9.185305 C 5.5315976 8.6646773 5.5315976 7.8264979 6.0522246 7.3058702 L 9.0984903 4.2596045 z M 3.0286961 6.1199194 L 1.4551797 7.0640292 L 3.0286961 8.2448125 L 3.0286961 6.1199194 z M 13.904304 6.1199194 L 13.904304 8.2448125 L 15.47782 7.0640292 L 13.904304 6.1199194 z M 1.4551797 7.7265081 L 1.4551797 15.47782 L 6.6227212 11.602164 L 3.5583691 9.3046752 L 3.0286961 8.9067745 L 1.4551797 7.7265081 z M 15.47782 7.7265081 L 13.904304 8.9067745 L 13.374631 9.3046752 L 10.310279 11.602164 L 15.47782 15.47782 L 15.47782 7.7265081 z M 7.2407592 11.801115 L 2.3383125 15.47782 L 14.594687 15.47782 L 9.6922408 11.801115 L 7.2407592 11.801115 z "
     class="ColorScheme-Text" />
</svg>
