<?xml version="1.0" encoding="UTF-8" standalone="no"?>
<!-- Created with Inkscape (http://www.inkscape.org/) -->

<svg
   width="64"
   height="64"
   viewBox="0 0 16.933333 16.933333"
   version="1.1"
   id="svg896"
   inkscape:version="1.4.3 (0d15f75042, 2025-12-25)"
   sodipodi:docname="kubuntu.svg"
   xmlns:inkscape="http://www.inkscape.org/namespaces/inkscape"
   xmlns:sodipodi="http://sodipodi.sourceforge.net/DTD/sodipodi-0.dtd"
   xmlns="http://www.w3.org/2000/svg"
   xmlns:svg="http://www.w3.org/2000/svg"
   xmlns:rdf="http://www.w3.org/1999/02/22-rdf-syntax-ns#"
   xmlns:cc="http://creativecommons.org/ns#"
   xmlns:dc="http://purl.org/dc/elements/1.1/">
  <defs
     id="defs890">
    <style
       id="current-color-scheme"
       type="text/css">.ColorScheme-Text {color:#d8dee9} .ColorScheme-Highlight {color:#7f7fff}</style>
  </defs>
  <sodipodi:namedview
     id="base"
     pagecolor="#7f3232"
     bordercolor="#666666"
     borderopacity="1.0"
     inkscape:pageopacity="0.0"
     inkscape:pageshadow="2"
     inkscape:zoom="9.861792"
     inkscape:cx="31.079544"
     inkscape:cy="17.542451"
     inkscape:document-units="px"
     inkscape:current-layer="svg896"
     showgrid="false"
     inkscape:window-width="2560"
     inkscape:window-height="1388"
     inkscape:window-x="0"
     inkscape:window-y="0"
     inkscape:window-maximized="1"
     inkscape:showpageshadow="0"
     inkscape:pagecheckerboard="0"
     inkscape:deskcolor="#505050" />
  <metadata
     id="metadata893">
    <rdf:RDF>
      <cc:Work
         rdf:about="">
        <dc:format>image/svg+xml</dc:format>
        <dc:type
           rdf:resource="http://purl.org/dc/dcmitype/StillImage" />
      </cc:Work>
    </rdf:RDF>
  </metadata>
  <path
     d="m 10.816759,1.8606885 c -0.699649,-0.25676 -1.5073335,-0.40548 -2.3500925,-0.40548 -3.87239,0 -7.011458,3.139068 -7.011458,7.011458 0,3.8723895 3.139068,7.0114575 7.011458,7.0114575 3.8723895,0 7.0114585,-3.139068 7.0114585,-7.0114575 0,-0.88298 -0.16322,-1.728077 -0.461132,-2.506297 l 0.01637,0.04817 c -0.740337,-1.939931 -2.260765,-3.437911 -4.167497,-4.131951 l -0.04864,-0.0154 z m 0.0051,1.48909 0.01824,0.008 0.899349,0.49434 c 0.03648,0.021 0.0608,0.0603 0.0608,0.10476 0,0.0131 -0.0019,0.0252 -0.0056,0.0369 v -9.3e-4 l -0.39706,1.284716 c -0.0037,0.01216 -0.0061,0.02666 -0.0061,0.04116 0,0.03648 0.01356,0.07015 0.03554,0.09587 v 0 l 0.611257,0.754836 c 0.02432,0.02806 0.05986,0.04583 0.09962,0.04583 0.0023,0 0.0047,0 0.007,0 h -4.67e-4 l 1.344112,-0.11879 c 0.05565,9.35e-4 0.101954,0.03928 0.115049,0.09073 v 9.35e-4 l 0.300251,0.956406 c 0.0023,0.0089 0.0037,0.01871 0.0037,0.029 0,0.04069 -0.02011,0.0767 -0.05098,0.09868 l -4.67e-4,4.67e-4 c -0.01263,0.0089 -0.02713,0.01543 -0.04303,0.01871 h -9.35e-4 l -1.895975,0.522866 c -0.008,0.0019 -0.01684,0.0028 -0.02619,0.0028 -0.06267,0 -0.114581,-0.04396 -0.126741,-0.10289 v -9.36e-4 l -0.0014,-0.0014 c -0.352163,-1.534458 -1.706096,-2.661567 -3.3233345,-2.661567 -0.356372,0 -0.700117,0.05472 -1.022816,0.156205 l 4.68e-4,4.67e-4 c -0.008,0.0014 -0.0173,0.0023 -0.02666,0.0023 -0.06594,0 -0.122064,-0.04396 -0.139836,-0.10476 l -4.68e-4,-9.36e-4 c 0,0 -0.364322,-1.728549 -0.43728,-1.974549 -0.0033,-0.0103 -0.0051,-0.022 -0.0051,-0.0341 0,-0.0547 0.03601,-0.10055 0.08605,-0.11552 h 9.36e-4 l 0.940504,-0.16696 c 0.01029,-0.003 0.02198,-0.005 0.03367,-0.005 0.04443,0 0.08325,0.0243 0.104293,0.0599 l 4.67e-4,4.7e-4 0.580391,1.23935 c 0.02759,0.0561 0.08138,0.0954 0.144981,0.10195 h 9.35e-4 c 0.0159,0.003 0.691699,0.0968 0.886721,0.13844 0.01497,0.005 0.03227,0.007 0.05004,0.007 0.04583,0 0.08699,-0.0178 0.117388,-0.0472 v 0 l 0.9414395,-0.93021 c 0.02198,-0.022 0.05238,-0.0356 0.08558,-0.0356 0.01497,0 0.029,0.003 0.04209,0.007 l -9.35e-4,-4.7e-4 z m -6.1312855,1.02095 v 0 c 0.01497,0.007 0.02806,0.01683 0.03835,0.02853 v 0 l 1.397895,1.377318 c 0.02058,0.02292 0.03274,0.05332 0.03274,0.08605 0,0.03835 -0.01684,0.07343 -0.04349,0.09681 v 0 l -4.67e-4,0.0019 c -0.676733,0.624352 -1.099516,1.51575 -1.099516,2.505829 0,0.983531 0.416703,1.8693175 1.083147,2.4908645 l 0.0019,0.0019 0.02058,0.02292 c 0.02105,0.02385 0.03367,0.05565 0.03367,0.09026 0,0.03882 -0.01637,0.07436 -0.04209,0.09915 v 0 c 0,0 -1.31231,1.18323 -1.488626,1.368899 -0.02198,0.02292 -0.05285,0.03741 -0.08746,0.03741 -0.03227,0 -0.06173,-0.01263 -0.08325,-0.03367 v 0 l -0.614999,-0.730985 c -0.02292,-0.02198 -0.03741,-0.05285 -0.03741,-0.08699 0,-0.02245 0.0061,-0.0435 0.01684,-0.06127 l -4.67e-4,4.67e-4 0.780091,-1.125238 c 0.01964,-0.02853 0.03133,-0.06407 0.03133,-0.102422 0,-0.02712 -0.0061,-0.05285 -0.01637,-0.07623 l 4.67e-4,9.36e-4 c -0.0051,-0.01497 -0.261901,-0.6477375 -0.323634,-0.8366805 -0.01403,-0.06033 -0.05893,-0.107566 -0.11692,-0.12487 l -0.0014,-4.68e-4 -1.273493,-0.347018 c -0.05191,-0.01403 -0.08979,-0.0608 -0.08979,-0.115985 v 0 l -0.02151,-1.025622 c 0,0 0,-4.67e-4 0,-4.67e-4 0,-0.05752 0.04022,-0.105228 0.09354,-0.117855 h 9.36e-4 l 1.308101,-0.301654 c 0.04864,-0.01216 0.08699,-0.04724 0.103357,-0.09307 l 4.67e-4,-9.35e-4 0.348421,-0.906832 c 0.0047,-0.01309 0.0075,-0.02806 0.0075,-0.04396 0,-0.02666 -0.0079,-0.05098 -0.02151,-0.07156 l 4.66e-4,4.67e-4 -0.772139,-1.101854 c -0.0094,-0.01684 -0.01497,-0.03695 -0.01497,-0.05846 0,-0.03414 0.01403,-0.06501 0.03695,-0.08699 v 0 l 0.678136,-0.737999 c 0.02151,-0.02104 0.05098,-0.03367 0.08372,-0.03367 0.01871,0 0.03601,0.004 0.05144,0.0117 l -9.35e-4,-4.6e-4 z m 9.1861705,5.436309 c 0.04069,0.02011 0.06781,0.06127 0.06781,0.108502 0,0.01076 -0.0014,0.02105 -0.0042,0.03087 v -9.36e-4 L 13.603623,10.83921 c -0.01356,0.05238 -0.0608,0.09073 -0.116919,0.09073 -9.35e-4,0 -0.0014,0 -0.0023,0 v 0 l -1.365626,-0.133289 c -0.0047,-4.67e-4 -0.0098,-4.67e-4 -0.01543,-4.67e-4 -0.05986,0 -0.113179,0.029 -0.146851,0.07343 l -4.67e-4,4.67e-4 c -0.01029,0.01216 -0.436813,0.545315 -0.571972,0.691698 -0.03414,0.03133 -0.05565,0.07577 -0.05565,0.125806 0,0.01356 0.0014,0.02713 0.0047,0.03975 V 11.7264 l 0.322699,1.283313 c 0.0023,0.0089 0.0037,0.01964 0.0037,0.0304 0,0.0449 -0.02432,0.08371 -0.0608,0.10476 l -4.67e-4,4.67e-4 -0.884383,0.520527 c -0.0173,0.0098 -0.03788,0.0159 -0.0594,0.0159 -0.03554,0 -0.06781,-0.01543 -0.08979,-0.04022 v 0 L 9.6592355,12.644922 c -0.02666,-0.02853 -0.06501,-0.04677 -0.107099,-0.04677 -0.0089,0 -0.01777,9.36e-4 -0.02666,0.0023 h 9.35e-4 l -0.96155,0.139837 c -0.04069,0.007 -0.07483,0.03274 -0.09354,0.06735 l -4.67e-4,9.35e-4 -0.580858,1.215033 c -0.02151,0.03461 -0.0594,0.05706 -0.102422,0.05706 -0.01263,0 -0.02432,-0.0019 -0.03601,-0.0056 h 9.35e-4 l -0.975113,-0.230567 c -0.04724,-0.0145 -0.08184,-0.05612 -0.08559,-0.106163 v -4.67e-4 c 0,-0.0023 -4.67e-4,-0.0056 -4.67e-4,-0.0084 0,-0.01403 0.0023,-0.02759 0.0065,-0.04022 l -4.67e-4,9.35e-4 0.514916,-1.895974 c 0.01824,-0.05145 0.06594,-0.08746 0.122532,-0.08746 0.01543,0 0.02993,0.0028 0.04349,0.0075 l -9.35e-4,-4.66e-4 0.0019,-4.67e-4 c 0.316151,0.107099 0.680006,0.168365 1.05836,0.168365 1.5952565,0 2.9342235,-1.09671 3.3041585,-2.5773855 l 0.0051,-0.02338 0.0065,-0.02385 c 0.02058,-0.05612 0.07389,-0.09541 0.136095,-0.09541 0.01309,0 0.02572,0.0019 0.03788,0.0051 h -9.35e-4 c 0,0 1.676165,0.569166 1.924971,0.632303 0.0089,0.0023 0.01637,0.0051 0.02385,0.0089 l -9.35e-4,-4.67e-4 z"
     id="path5"
     style="fill:currentColor"
     class="ColorScheme-Text" />
</svg>
