<?xml version="1.0" encoding="UTF-8" standalone="no"?>
<svg
   width="64"
   height="64"
   version="1.1"
   viewBox="0 0 16.933 16.933"
   id="svg7"
   sodipodi:docname="libreoffice-draw.svg"
   inkscape:version="1.4.2 (ebf0e940d0, 2025-05-08)"
   xmlns:inkscape="http://www.inkscape.org/namespaces/inkscape"
   xmlns:sodipodi="http://sodipodi.sourceforge.net/DTD/sodipodi-0.dtd"
   xmlns="http://www.w3.org/2000/svg"
   xmlns:svg="http://www.w3.org/2000/svg"
   xmlns:rdf="http://www.w3.org/1999/02/22-rdf-syntax-ns#"
   xmlns:cc="http://creativecommons.org/ns#"
   xmlns:dc="http://purl.org/dc/elements/1.1/">
  <sodipodi:namedview
     id="namedview7"
     pagecolor="#9c4444"
     bordercolor="#000000"
     borderopacity="0.25"
     inkscape:showpageshadow="2"
     inkscape:pageopacity="0.0"
     inkscape:pagecheckerboard="0"
     inkscape:deskcolor="#d1d1d1"
     inkscape:zoom="6.15625"
     inkscape:cx="15.837563"
     inkscape:cy="29.888325"
     inkscape:window-width="2560"
     inkscape:window-height="1392"
     inkscape:window-x="0"
     inkscape:window-y="0"
     inkscape:window-maximized="1"
     inkscape:current-layer="svg7"
     showgrid="false" />
  <defs
     id="defs2">
    <style
       id="current-color-scheme"
       type="text/css">.ColorScheme-Text {color:#d8dee9} .ColorScheme-Highlight {color:#3b4252}</style>
  </defs>
  <metadata
     id="metadata2">
    <rdf:RDF>
      <cc:Work
         rdf:about="">
        <dc:format>image/svg+xml</dc:format>
        <dc:type
           rdf:resource="http://purl.org/dc/dcmitype/StillImage" />
      </cc:Work>
    </rdf:RDF>
  </metadata>
  <path
     id="path5"
     d="m 4.395412,1.4551797 c -1.002393,0 -1.809374,0.80698 -1.809374,1.809372 V 13.668447 c 0,1.002393 0.806981,1.809373 1.809374,1.809373 h 8.142178 c 1.002392,0 1.809372,-0.80698 1.809372,-1.809373 V 6.8832977 L 8.918844,1.4551797 Z m 5.880461,0 4.071089,4.071089 v -0.633458 -3.437631 h -3.437631 z m -3.618746,5.880463 a 1.809373,1.809373 0 0 1 1.809374,1.8093721 1.809373,1.809373 0 0 1 0,0.037989 L 8.310117,8.912661 C 8.194252,8.7119774 7.993122,8.6122758 7.78798,8.6122758 c -0.205145,0 -0.406244,0.1005291 -0.522139,0.3012674 L 6.132333,10.876643 A 1.809373,1.809373 0 0 1 4.847748,9.1450164 1.809373,1.809373 0 0 1 6.65712,7.3356447 Z m 2.71406,0.904686 h 2.261717 c 0.250598,0 0.452343,0.2017454 0.452343,0.4523431 v 2.2617172 c 0,0.250597 -0.201745,0.452343 -0.452343,0.452343 H 9.749318 l -0.26151,-0.452343 h 2.145096 V 8.6926718 H 9.371187 V 10.752071 L 8.918844,9.9675372 V 8.6926718 c 0,-0.2505977 0.201745,-0.4523431 0.452343,-0.4523431 z M 7.770317,8.9541823 A 0.26116038,0.26116038 0 0 1 8.014158,9.0840494 L 9.912763,12.372373 A 0.26116038,0.26116038 0 0 1 9.68659,12.763756 H 5.890265 A 0.26116038,0.26116038 0 0 1 5.664093,12.372373 L 7.561815,9.0840494 A 0.26116038,0.26116038 0 0 1 7.770317,8.9541823 Z"
     style="fill:currentColor;fill-opacity:1;stroke-width:0.452343"
     class="ColorScheme-Text" />
</svg>
