<?xml version="1.0" encoding="UTF-8" standalone="no"?>
<svg
   width="64"
   height="64"
   version="1.1"
   viewBox="0 0 16.933 16.933"
   id="svg7"
   sodipodi:docname="libreoffice-base.svg"
   inkscape:version="1.4.2 (ebf0e940d0, 2025-05-08)"
   xmlns:inkscape="http://www.inkscape.org/namespaces/inkscape"
   xmlns:sodipodi="http://sodipodi.sourceforge.net/DTD/sodipodi-0.dtd"
   xmlns="http://www.w3.org/2000/svg"
   xmlns:svg="http://www.w3.org/2000/svg"
   xmlns:rdf="http://www.w3.org/1999/02/22-rdf-syntax-ns#"
   xmlns:cc="http://creativecommons.org/ns#"
   xmlns:dc="http://purl.org/dc/elements/1.1/">
  <sodipodi:namedview
     id="namedview7"
     pagecolor="#9c4444"
     bordercolor="#000000"
     borderopacity="0.25"
     inkscape:showpageshadow="2"
     inkscape:pageopacity="0.0"
     inkscape:pagecheckerboard="0"
     inkscape:deskcolor="#d1d1d1"
     inkscape:zoom="6.15625"
     inkscape:cx="15.837563"
     inkscape:cy="29.888325"
     inkscape:window-width="2560"
     inkscape:window-height="1392"
     inkscape:window-x="0"
     inkscape:window-y="0"
     inkscape:window-maximized="1"
     inkscape:current-layer="svg7"
     showgrid="false" />
  <defs
     id="defs2">
    <style
       id="current-color-scheme"
       type="text/css">.ColorScheme-Text {color:#d8dee9} .ColorScheme-Highlight {color:#3b4252}</style>
  </defs>
  <metadata
     id="metadata2">
    <rdf:RDF>
      <cc:Work
         rdf:about="">
        <dc:format>image/svg+xml</dc:format>
        <dc:type
           rdf:resource="http://purl.org/dc/dcmitype/StillImage" />
      </cc:Work>
    </rdf:RDF>
  </metadata>
  <path
     id="path5"
     style="fill:currentColor;fill-opacity:1;stroke-width:0.452343"
     d="m 4.395412,1.45518 c -1.002393,0 -1.809374,0.8069804 -1.809374,1.809373 v 10.403894 c 0,1.002393 0.806981,1.809373 1.809374,1.809373 h 8.142178 c 1.002392,0 1.809372,-0.80698 1.809372,-1.809373 V 6.8832989 L 8.918844,1.45518 Z m 5.880461,0 4.071089,4.0710893 V 4.892812 1.45518 H 10.909331 Z M 6.657127,7.3356423 A 1.809373,0.45234325 0 0 1 8.466501,7.7879855 V 8.2403287 A 1.809373,0.45234325 0 0 1 6.657127,8.6926719 1.809373,0.45234325 0 0 1 4.847755,8.2403287 V 7.7879855 A 1.809373,0.45234325 0 0 1 6.657127,7.3356423 Z m 2.71406,0.9046864 h 2.261717 c 0.250598,0 0.452343,0.201745 0.452343,0.4523432 v 3.6187461 c 0,0.250598 -0.201745,0.452343 -0.452343,0.452343 H 9.371187 c -0.250598,0 -0.452343,-0.201745 -0.452343,-0.452343 V 8.6926719 c 0,-0.2505982 0.201745,-0.4523432 0.452343,-0.4523432 z M 4.847755,8.6926719 A 1.809373,0.45234325 0 0 0 6.657127,9.1450151 1.809373,0.45234325 0 0 0 8.466501,8.6926719 V 9.5973585 A 1.809373,0.45234325 0 0 1 6.657127,10.049701 1.809373,0.45234325 0 0 1 4.847755,9.5973585 Z m 4.523432,0 v 0.9046866 h 0.904686 V 8.6926719 Z m 1.357031,0 v 0.9046866 h 0.904686 V 8.6926719 Z M 4.847755,10.049701 a 1.809373,0.45234325 0 0 0 1.809372,0.452344 1.809373,0.45234325 0 0 0 1.809374,-0.452344 v 0.904687 A 1.809373,0.45234325 0 0 1 6.657127,11.406731 1.809373,0.45234325 0 0 1 4.847755,10.954388 Z m 4.523432,0 v 0.904687 h 0.904686 v -0.904687 z m 1.357031,0 v 0.904687 h 0.904686 v -0.904687 z m -5.880463,1.35703 a 1.809373,0.45234325 0 0 0 1.809372,0.452343 1.809373,0.45234325 0 0 0 1.809374,-0.452343 v 0.904687 A 1.809373,0.45234325 0 0 1 6.657127,12.763761 1.809373,0.45234325 0 0 1 4.847755,12.311418 Z m 4.523432,0 v 0.904687 h 0.904686 v -0.904687 z m 1.357031,0 v 0.904687 h 0.904686 v -0.904687 z"
     class="ColorScheme-Text" />
</svg>
