<?xml version='1.0' encoding='UTF-8'?>
<svg xmlns:inkscape="http://www.inkscape.org/namespaces/inkscape" xmlns:sodipodi="http://sodipodi.sourceforge.net/DTD/sodipodi-0.dtd" xmlns="http://www.w3.org/2000/svg" xmlns:svg="http://www.w3.org/2000/svg" xmlns:rdf="http://www.w3.org/1999/02/22-rdf-syntax-ns#" xmlns:cc="http://creativecommons.org/ns#" xmlns:dc="http://purl.org/dc/elements/1.1/" width="64" height="64" version="1.1" viewBox="0 0 16.933 16.933" id="svg7" sodipodi:docname="librewolf.svg" inkscape:version="1.4.2 (ebf0e940d0, 2025-05-08)">
  <sodipodi:namedview id="namedview7" pagecolor="#9c4444" bordercolor="#000000" borderopacity="0.25" inkscape:showpageshadow="2" inkscape:pageopacity="0.0" inkscape:pagecheckerboard="0" inkscape:deskcolor="#d1d1d1" inkscape:zoom="4.3531261" inkscape:cx="36.295755" inkscape:cy="40.430715" inkscape:window-width="2560" inkscape:window-height="1376" inkscape:window-x="0" inkscape:window-y="0" inkscape:window-maximized="1" inkscape:current-layer="svg7" showgrid="false"/>
  <defs id="defs2">
    <style id="current-color-scheme" type="text/css">.ColorScheme-Text {color:#d8dee9} .ColorScheme-Highlight {color:#3b4252}</style>
    </defs>
  <metadata id="metadata2">
    <rdf:RDF>
      <cc:Work rdf:about="">
        <dc:format>image/svg+xml</dc:format>
        <dc:type rdf:resource="http://purl.org/dc/dcmitype/StillImage"/>
      </cc:Work>
    </rdf:RDF>
  </metadata>
  <path d="m 8.4664995,1.0473319 c -4.097633,0 -7.419167,3.3215359 -7.419167,7.4191694 0,4.0976327 3.321534,7.4191667 7.419167,7.4191667 4.0976335,0 7.4191675,-3.321534 7.4191675,-7.4191667 0,-4.0976335 -3.321534,-7.4191694 -7.4191675,-7.4191694 z m 0,0.9272438 c 3.5855315,0 6.4919235,2.9063941 6.4919235,6.4919256 -0.0028,2.9805407 -2.034962,5.5760887 -4.927913,6.2943357 -0.041139,-0.103897 -0.057859,-0.2147 -0.04686,-0.250958 0.055409,-0.183334 0.094919,-0.430622 0.108364,-0.684434 0.02158,-0.402511 0.182917,-1.040909 0.438363,-1.331385 0.224477,-0.255847 0.267254,-0.459546 0.271735,-1.289828 0.0038,-0.687286 0.01098,-0.767543 0.09941,-1.075946 0.150336,-0.5243239 0.398845,-0.8946512 0.580954,-1.159868 0.09248,-0.1352663 0.239551,-0.376031 0.327549,-0.5353234 0.08839,-0.1597071 0.21633,-0.374401 0.284773,-0.4774742 0.178033,-0.2688838 0.743507,-0.6404336 0.931725,-0.7288386 0.209812,-0.098993 0.441215,-0.3646247 0.517806,-0.5952117 0.07862,-0.2371071 0.055,-0.610694 -0.04807,-0.7479879 -0.0603,-0.081065 -0.09899,-0.09534 -0.254216,-0.09534 -0.142195,0 -0.2037,-0.018742 -0.27459,-0.085154 -0.09737,-0.090853 -0.168264,-0.078623 -0.168264,0.029325 0,0.084738 -0.314512,0.2456622 -0.3524,0.2081814 -0.01552,-0.015903 4.07e-4,-0.1055248 0.03625,-0.1992192 C 12.615031,5.397123 12.658214,5.1775333 12.63703,4.9550926 12.6024,4.5884327 12.37385,4.0274437 12.249592,4.0034062 c -0.03016,-0.00568 -0.192701,0.1051083 -0.361363,0.2472923 -0.880393,0.7406538 -1.549346,1.0637217 -2.0154095,1.3452348 -0.222035,0.1340358 -0.222849,0.1340358 -0.597657,0.1258952 -0.443659,-0.00984 -0.36666,0.060297 -1.106907,0.5092508 -0.256254,0.1552203 -0.545509,0.4518067 -0.642062,0.4884735 -0.09697,0.03667 -0.404956,0.090039 -0.689322,0.1193638 -0.583397,0.059881 -0.739838,0.095737 -0.958205,0.2220337 -0.215924,0.1246646 -0.270514,0.2175507 -0.22448,0.3837702 0.04481,0.1629633 0.283959,0.4839923 0.571584,0.7663213 l 0.216329,0.2130696 -0.166617,0.2578845 c -0.09208,0.1421764 -0.230587,0.4045477 -0.307994,0.5833965 -0.153176,0.3548467 -0.195146,0.4216597 -0.500696,0.7976906 -0.26481,0.325921 -0.696653,0.794431 -0.970834,1.331384 -0.234256,0.459143 -0.346698,0.578101 -0.776913,0.824172 -0.107551,0.06151 -0.240366,0.164989 -0.376846,0.229366 -0.88528,-1.138684 -1.366421,-2.5393259 -1.367642,-3.9815246 0,-3.5855297 2.906394,-6.4919238 6.491924,-6.4919238 z M 9.5913325,6.1968738 9.2568565,6.62505 8.7182735,6.700417 9.0531565,6.2718318 Z" fill-rule="nonzero" id="path2-4" style="fill:currentColor;fill-opacity:1;stroke-width:0.407401" class="ColorScheme-Text"/>
</svg>
