<?xml version="1.0" encoding="UTF-8" standalone="no"?>
<svg
   width="64"
   height="64"
   version="1.1"
   viewBox="0 0 16.933 16.933"
   id="svg7"
   sodipodi:docname="libreoffice-impress.svg"
   inkscape:version="1.4.2 (ebf0e940d0, 2025-05-08)"
   xmlns:inkscape="http://www.inkscape.org/namespaces/inkscape"
   xmlns:sodipodi="http://sodipodi.sourceforge.net/DTD/sodipodi-0.dtd"
   xmlns="http://www.w3.org/2000/svg"
   xmlns:svg="http://www.w3.org/2000/svg"
   xmlns:rdf="http://www.w3.org/1999/02/22-rdf-syntax-ns#"
   xmlns:cc="http://creativecommons.org/ns#"
   xmlns:dc="http://purl.org/dc/elements/1.1/">
  <sodipodi:namedview
     id="namedview7"
     pagecolor="#9c4444"
     bordercolor="#000000"
     borderopacity="0.25"
     inkscape:showpageshadow="2"
     inkscape:pageopacity="0.0"
     inkscape:pagecheckerboard="0"
     inkscape:deskcolor="#d1d1d1"
     inkscape:zoom="6.15625"
     inkscape:cx="15.837563"
     inkscape:cy="29.888325"
     inkscape:window-width="2560"
     inkscape:window-height="1392"
     inkscape:window-x="0"
     inkscape:window-y="0"
     inkscape:window-maximized="1"
     inkscape:current-layer="svg7"
     showgrid="false" />
  <defs
     id="defs2">
    <style
       id="current-color-scheme"
       type="text/css">.ColorScheme-Text {color:#d8dee9} .ColorScheme-Highlight {color:#3b4252}</style>
  </defs>
  <metadata
     id="metadata2">
    <rdf:RDF>
      <cc:Work
         rdf:about="">
        <dc:format>image/svg+xml</dc:format>
        <dc:type
           rdf:resource="http://purl.org/dc/dcmitype/StillImage" />
      </cc:Work>
    </rdf:RDF>
  </metadata>
  <path
     id="path5"
     d="m 4.395412,1.4551797 c -1.002393,0 -1.809374,0.80698 -1.809374,1.809372 V 13.668447 c 0,1.002393 0.806981,1.809373 1.809374,1.809373 h 8.142178 c 1.002392,0 1.809372,-0.80698 1.809372,-1.809373 V 6.8832979 L 8.918844,1.4551797 Z m 5.880461,0 4.071089,4.071089 v -0.633458 -3.437631 h -3.437631 z m -5.201947,5.880463 h 6.785149 c 0.125303,0 0.226172,0.1008709 0.226172,0.2261715 0,0.1253022 -0.100871,0.2261715 -0.226172,0.2261715 H 5.073926 c -0.125302,0 -0.226171,-0.100871 -0.226171,-0.2261715 0,-0.1253023 0.100871,-0.2261715 0.226171,-0.2261715 z m 0.904687,0.904686 h 4.975776 c 0.125303,0 0.226172,0.100871 0.226172,0.2261716 0,0.1253022 -0.100871,0.2261715 -0.226172,0.2261715 H 5.978613 c -0.125303,0 -0.226172,-0.100871 -0.226172,-0.2261715 0,-0.1253023 0.100871,-0.2261716 0.226172,-0.2261716 z M 5.073926,10.049701 a 0.22617162,0.22617162 0 0 1 0.226172,0.226171 0.22617162,0.22617162 0 0 1 -0.226172,0.226172 0.22617162,0.22617162 0 0 1 -0.226171,-0.226172 0.22617162,0.22617162 0 0 1 0.226171,-0.226171 z m 0.904687,0 h 1.809373 c 0.125303,0 0.226172,0.100871 0.226172,0.226171 0,0.125303 -0.100871,0.226172 -0.226172,0.226172 H 5.978613 c -0.125303,0 -0.226172,-0.100871 -0.226172,-0.226172 0,-0.125302 0.100871,-0.226171 0.226172,-0.226171 z m 2.940231,0 h 2.71406 c 0.250598,0 0.452343,0.201745 0.452343,0.452343 v 1.809374 c 0,0.250598 -0.201745,0.452343 -0.452343,0.452343 h -2.71406 c -0.250598,0 -0.452343,-0.201745 -0.452343,-0.452343 v -1.809374 c 0,-0.250598 0.201745,-0.452343 0.452343,-0.452343 z m 2.482587,0.452343 a 0.22617162,0.22617162 0 0 0 -0.03004,0.0027 0.22617162,0.22617162 0 0 0 -0.124567,0.06362 l -0.744775,0.744757 -0.452343,-0.452343 -1.064596,1.064597 a 0.22617162,0.22617162 0 0 0 0,0.319821 0.22617162,0.22617162 0 0 0 0.319821,0 l 0.744775,-0.744777 0.452343,0.452344 1.064597,-1.064597 a 0.22617162,0.22617162 0 0 0 0,-0.319821 0.22617162,0.22617162 0 0 0 -0.165206,-0.06627 z m -6.327505,0.452344 a 0.22617162,0.22617162 0 0 1 0.226172,0.226171 0.22617162,0.22617162 0 0 1 -0.226172,0.226172 0.22617162,0.22617162 0 0 1 -0.226171,-0.226172 0.22617162,0.22617162 0 0 1 0.226171,-0.226171 z m 0.904687,0 h 1.809373 c 0.125303,0 0.226172,0.100872 0.226172,0.226171 0,0.125299 -0.100871,0.226172 -0.226172,0.226172 H 5.978613 c -0.125303,0 -0.226172,-0.100873 -0.226172,-0.226172 0,-0.125298 0.100871,-0.226171 0.226172,-0.226171 z m -0.904687,0.904686 a 0.22617162,0.22617162 0 0 1 0.226172,0.226172 0.22617162,0.22617162 0 0 1 -0.226172,0.226172 0.22617162,0.22617162 0 0 1 -0.226171,-0.226172 0.22617162,0.22617162 0 0 1 0.226171,-0.226172 z m 0.904687,0 h 1.809373 c 0.125303,0 0.226172,0.100873 0.226172,0.226172 0,0.125299 -0.100871,0.226172 -0.226172,0.226172 H 5.978613 c -0.125303,0 -0.226172,-0.100873 -0.226172,-0.226172 0,-0.125299 0.100871,-0.226172 0.226172,-0.226172 z"
     style="fill:currentColor;fill-opacity:1;stroke-width:0.452343"
     class="ColorScheme-Text" />
</svg>
