<?xml version="1.0" encoding="UTF-8" standalone="no"?>
<svg
   width="64"
   height="64"
   version="1.1"
   viewBox="0 0 16.933 16.933"
   id="svg7"
   sodipodi:docname="libreoffice-writer.svg"
   inkscape:version="1.4.2 (ebf0e940d0, 2025-05-08)"
   xmlns:inkscape="http://www.inkscape.org/namespaces/inkscape"
   xmlns:sodipodi="http://sodipodi.sourceforge.net/DTD/sodipodi-0.dtd"
   xmlns="http://www.w3.org/2000/svg"
   xmlns:svg="http://www.w3.org/2000/svg"
   xmlns:rdf="http://www.w3.org/1999/02/22-rdf-syntax-ns#"
   xmlns:cc="http://creativecommons.org/ns#"
   xmlns:dc="http://purl.org/dc/elements/1.1/">
  <sodipodi:namedview
     id="namedview7"
     pagecolor="#9c4444"
     bordercolor="#000000"
     borderopacity="0.25"
     inkscape:showpageshadow="2"
     inkscape:pageopacity="0.0"
     inkscape:pagecheckerboard="0"
     inkscape:deskcolor="#d1d1d1"
     inkscape:zoom="6.15625"
     inkscape:cx="15.837563"
     inkscape:cy="29.888325"
     inkscape:window-width="2560"
     inkscape:window-height="1392"
     inkscape:window-x="0"
     inkscape:window-y="0"
     inkscape:window-maximized="1"
     inkscape:current-layer="svg7"
     showgrid="false" />
  <defs
     id="defs2">
    <style
       id="current-color-scheme"
       type="text/css">.ColorScheme-Text {color:#d8dee9} .ColorScheme-Highlight {color:#3b4252}</style>
  </defs>
  <metadata
     id="metadata2">
    <rdf:RDF>
      <cc:Work
         rdf:about="">
        <dc:format>image/svg+xml</dc:format>
        <dc:type
           rdf:resource="http://purl.org/dc/dcmitype/StillImage" />
      </cc:Work>
    </rdf:RDF>
  </metadata>
  <path
     id="path5"
     d="m 4.395412,1.4551797 c -1.002393,0 -1.809374,0.8069804 -1.809374,1.809373 V 13.668447 c 0,1.002393 0.806981,1.809373 1.809374,1.809373 h 8.142178 c 1.002392,0 1.809372,-0.80698 1.809372,-1.809373 V 6.8832986 L 8.918844,1.4551797 Z m 5.880461,0 4.071089,4.0710892 V 4.8928117 1.4551797 H 10.909331 Z M 5.073926,7.335642 h 2.71406 c 0.125303,0 0.226172,0.1008726 0.226172,0.2261715 0,0.1252988 -0.100871,0.2261717 -0.226172,0.2261717 h -2.71406 c -0.125302,0 -0.226171,-0.1008727 -0.226171,-0.2261717 0,-0.1252989 0.100871,-0.2261715 0.226171,-0.2261715 z m 4.297261,0 h 2.261717 c 0.250598,0 0.452343,0.201745 0.452343,0.4523432 v 1.3570296 c 0,0.2505982 -0.201745,0.4523434 -0.452343,0.4523434 H 9.371187 c -0.250598,0 -0.452343,-0.2017452 -0.452343,-0.4523434 V 7.7879852 c 0,-0.2505982 0.201745,-0.4523432 0.452343,-0.4523432 z m 2.035545,0.4523432 A 0.22617162,0.22617162 0 0 0 11.180561,8.0141567 0.22617162,0.22617162 0 0 0 11.406732,8.2403284 0.22617162,0.22617162 0 0 0 11.632904,8.0141567 0.22617162,0.22617162 0 0 0 11.406732,7.7879852 Z M 9.937501,8.0256421 A 0.2795617,0.2795617 0 0 0 9.680406,8.217358 L 9.371187,9.1450148 h 1.809374 l -1.03721,-1.037209 A 0.2795617,0.2795617 0 0 0 9.975495,8.0274078 0.2795617,0.2795617 0 0 0 9.937505,8.0256478 Z M 5.073926,8.2403284 h 2.71406 c 0.125303,0 0.226172,0.1008727 0.226172,0.2261717 0,0.1252988 -0.100871,0.2261715 -0.226172,0.2261715 h -2.71406 c -0.125302,0 -0.226171,-0.1008727 -0.226171,-0.2261715 0,-0.1252989 0.100871,-0.2261717 0.226171,-0.2261717 z m 0,0.9046864 h 2.71406 c 0.125303,0 0.226172,0.1008727 0.226172,0.2261717 0,0.1252988 -0.100871,0.2261717 -0.226172,0.2261717 h -2.71406 c -0.125302,0 -0.226171,-0.1008727 -0.226171,-0.2261717 0,-0.1252988 0.100871,-0.2261717 0.226171,-0.2261717 z m 0,1.3570302 h 6.785149 c 0.125303,0 0.226172,0.100872 0.226172,0.226171 0,0.125299 -0.100871,0.226172 -0.226172,0.226172 H 5.073926 c -0.125302,0 -0.226171,-0.100873 -0.226171,-0.226172 0,-0.125299 0.100871,-0.226171 0.226171,-0.226171 z m 0,0.904686 h 6.785149 c 0.125303,0 0.226172,0.100873 0.226172,0.226172 0,0.125299 -0.100871,0.226171 -0.226172,0.226171 H 5.073926 c -0.125302,0 -0.226171,-0.100872 -0.226171,-0.226171 0,-0.125299 0.100871,-0.226172 0.226171,-0.226172 z m 0,0.904687 h 2.71406 c 0.125303,0 0.226172,0.100872 0.226172,0.226171 0,0.125299 -0.100871,0.226172 -0.226172,0.226172 h -2.71406 c -0.125302,0 -0.226171,-0.100873 -0.226171,-0.226172 0,-0.125299 0.100871,-0.226171 0.226171,-0.226171 z"
     style="fill:currentColor;fill-opacity:1;stroke-width:0.452343"
     class="ColorScheme-Text" />
</svg>
