<?xml version="1.0" encoding="UTF-8" standalone="no"?>
<svg
   width="64"
   height="64"
   version="1.1"
   viewBox="0 0 16.933 16.933"
   id="svg7"
   sodipodi:docname="littlenavmap.svg"
   inkscape:version="1.4.3 (0d15f75042, 2025-12-25)"
   xmlns:inkscape="http://www.inkscape.org/namespaces/inkscape"
   xmlns:sodipodi="http://sodipodi.sourceforge.net/DTD/sodipodi-0.dtd"
   xmlns="http://www.w3.org/2000/svg"
   xmlns:svg="http://www.w3.org/2000/svg"
   xmlns:rdf="http://www.w3.org/1999/02/22-rdf-syntax-ns#"
   xmlns:cc="http://creativecommons.org/ns#"
   xmlns:dc="http://purl.org/dc/elements/1.1/">
  <sodipodi:namedview
     id="namedview7"
     pagecolor="#9c4444"
     bordercolor="#000000"
     borderopacity="0.25"
     inkscape:showpageshadow="2"
     inkscape:pageopacity="0.0"
     inkscape:pagecheckerboard="0"
     inkscape:deskcolor="#d1d1d1"
     inkscape:zoom="12.3125"
     inkscape:cx="49.096447"
     inkscape:cy="29.64467"
     inkscape:window-width="2560"
     inkscape:window-height="1388"
     inkscape:window-x="0"
     inkscape:window-y="0"
     inkscape:window-maximized="1"
     inkscape:current-layer="svg7"
     showgrid="false" />
  <defs
     id="defs2">
    <inkscape:path-effect
       effect="offset"
       id="path-effect8"
       is_visible="true"
       lpeversion="1.3"
       linejoin_type="round"
       unit="px"
       offset="-1"
       miter_limit="4"
       attempt_force_join="false"
       update_on_knot_move="true" />
    <style
       id="current-color-scheme"
       type="text/css">.ColorScheme-Text {color:#d8dee9} .ColorScheme-Highlight {color:#3b4252}</style>
  </defs>
  <metadata
     id="metadata2">
    <rdf:RDF>
      <cc:Work
         rdf:about="">
        <dc:format>image/svg+xml</dc:format>
        <dc:type
           rdf:resource="http://purl.org/dc/dcmitype/StillImage" />
      </cc:Work>
    </rdf:RDF>
  </metadata>
  <path
     id="path5"
     style="fill:currentColor"
     d="m 8.4671705,1.4551872 c -3.872272,0 -7.012023,3.1390441 -7.012023,7.0113163 0,3.8724145 3.139752,7.0113165 7.012023,7.0113165 2.3763335,0 4.4764865,-1.18223 5.7443635,-2.990827 L 14.10419,12.248999 c -0.05911,-0.131124 -0.16548,-0.398695 -0.302261,-0.750002 -0.08433,-0.216603 -0.188972,-0.462615 -0.282487,-0.653957 -0.0182,-0.03726 -0.03638,-0.07275 -0.05367,-0.105225 v 0.680086 l 0.07768,0.322034 -0.129243,0.145481 -0.284605,0.175848 -0.296611,0.248588 0.245057,0.277543 -0.335452,0.292374 0.06426,0.189266 -0.503531,0.570622 h -0.335454 l -0.283899,0.175142 h -0.181487 v -0.233758 l -0.07698,-0.468221 c -0.09991,-0.293473 -0.203507,-0.584331 -0.309323,-0.875709 0,-0.215078 0.01257,-0.42832 0.02542,-0.643363 l 0.129241,-0.292373 -0.180792,-0.35099 0.01339,-0.482345 -0.245765,-0.277543 0.122875,-0.4011314 -0.199859,-0.2266954 h -0.34887 L 10.315309,9.4333144 9.9664385,9.6522415 9.8251955,9.491224 9.5017475,9.7687674 C 9.2825415,9.5202273 9.0631365,9.2720702 8.8435825,9.0237083 L 8.5858135,8.4100062 8.8181585,8.0590167 8.6889155,7.913536 l 0.08969,-0.2125708 -3.17868,-2.5063622 -0.11723,0.1758479 -0.463984,0.087572 -0.206921,0.2923733 -0.361583,0.1461869 -0.180791,0.4385605 -0.490114,0.4088991 -0.05226,0.5847474 -0.283899,-0.3509896 -0.387007,-0.087571 -0.05155,0.1758478 h -0.310027 l -0.387008,0.2916676 -0.05226,0.3509894 0.02613,0.3213285 0.258475,0.1454807 0.180791,-0.086865 0.180085,-0.2337575 h 0.181498 c -0.02604,0.2046357 -0.05182,0.4083246 -0.07768,0.6129957 l 0.309323,-0.028955 v 0.3220347 l 0.103809,0.2916675 c 0.125253,0.077009 0.297898,0.082988 0.43856,0.1235879 v -0.064973 l 0.465397,-0.4088992 0.438561,0.3213285 0.516244,-0.058617 0.206922,0.5550864 0.387006,0.08757 0.206921,0.4096055 c 0.420728,0.21642 0.840944,0.432452 1.264834,0.642657 l -0.05155,0.43856 -0.310029,0.438561 0.05155,0.584041 -0.206216,0.467515 -0.387713,0.08828 -0.180084,0.262712 0.07698,0.175142 -0.257768,0.643363 -0.336159,0.117232 -0.07768,0.204803 -0.206215,0.204097 0.05155,0.146186 c 0,0 -0.04349,0.03388 -0.09464,0.07274 h -7.23e-4 c -0.06255,0.03036 -0.85802,-0.410616 -0.877828,-0.477402 -0.01107,-0.03784 -0.01257,-0.05323 -0.01134,-0.05932 v -7.23e-4 l 7.24e-4,-7.23e-4 v -7.24e-4 l 7.23e-4,-7.23e-4 v -7.23e-4 h 7.23e-4 7.23e-4 v -7.23e-4 h 7.23e-4 l 0.154704,-0.671612 -0.154662,-0.350283 0.02613,-0.614408 -0.206917,-0.291672 -0.464691,-0.409605 -0.46469,-0.84746 0.128531,-0.437854 -0.051553,-0.117232 0.155367,-0.2337577 0.206215,-0.5557921 v -0.04661 L 3.7016915,9.3159796 3.4947705,9.3449352 3.1338945,9.0822226 2.9008425,8.7898489 2.3591735,8.6436621 1.8167995,8.3223338 c 0,0 -0.228347,-0.3584636 -0.241526,-0.4201988 0.332831,-2.662678 1.765552,-4.0726297 2.474583,-4.7260001 0.05551,-0.013711 0.271893,-0.056497 0.271893,-0.056497 l 0.128532,-0.3213285 0.206922,0.029661 0.154662,0.087571 -0.02613,0.3213284 -0.283967,0.2628143 -0.645483,0.3806505 0.07768,0.2627126 0.49082,0.2048027 0.07698,0.3502833 0.180791,-0.3799443 0.283899,-0.1172316 -0.02542,-0.1751416 0.2839,-0.4964702 0.361582,0.204803 -0.05155,0.2330513 0.310029,-0.1165265 0.128532,0.2634189 -0.05155,0.1751418 0.180791,0.058615 0.155368,0.1461868 -0.05226,0.1751416 -0.43856,0.1461869 H 5.4572885 L 5.0187275,5.020167 h 0.697037 l -0.10381,0.156074 h 0.591103 l -0.07415,-0.3898315 0.232345,0.1751416 -0.141949,0.2146899 h 1.774722 l 0.03955,-0.099576 0.288842,0.099576 h 1.586162 L 9.7221385,4.990506 10.070303,4.91706 10.263806,4.6981327 10.418468,4.4354204 h 0.284604 l -0.07768,-0.204803 0.180792,-0.1165251 v 0.2337576 l 0.387007,0.087572 0.387007,-0.3213286 0.02613,-0.1461868 0.335454,-0.2337574 c -0.121413,0.015096 -0.242945,0.026327 -0.361583,0.058615 V 3.5293447 l 0.12923,-0.2923736 h -0.129243 l -0.283192,0.2627126 -0.07768,0.1461868 0.07768,0.2048026 -0.12994,0.3502834 L 10.960839,4.0844314 10.780754,3.8803346 10.496149,4.0844314 10.393036,3.616916 10.88315,3.2955875 V 3.1197392 l 0.310029,-0.2040965 0.49082,-0.117232 0.335452,0.117232 0.62006,0.1165256 -0.155368,0.1751417 h -0.335454 l 0.335454,0.3509897 0.258475,-0.2923738 0.07839,-0.1285313 c 0,0 0.99002,0.8874483 1.555796,1.8580555 0.565776,0.9709268 0.831216,2.1157565 0.831216,2.3481693 L 15.014502,7.5625465 C 14.895862,7.4227366 14.762759,7.3053979 14.627495,7.1826021 l -0.29661,0.043786 -0.271894,-0.3072043 v 0.3799443 l 0.233051,0.1758481 0.154661,0.1751418 0.206217,-0.2337579 c 0.05204,0.097469 0.103687,0.1949044 0.155367,0.2923736 V 8.000401 l -0.233051,0.2634184 -0.425849,0.2923737 -0.05155,0.051554 c 0.06486,0.069529 0.128451,0.1405136 0.191385,0.2118652 h 7.23e-4 7.24e-4 l 7.23e-4,-7.231e-4 h 7.23e-4 v 0.00354 c 0.206625,0.2344528 0.402992,0.4790596 0.589689,0.7351712 0.173633,0.2381797 0.289627,0.4851226 0.370058,0.6800866 0.147269,-0.5658192 0.22599,-1.1592412 0.22599,-1.7711909 0,-3.8722721 -3.138693,-7.0113162 -7.0106105,-7.0113162 z m -0.040261,0.3495771 0.671611,0.2634187 -0.310735,0.7888437 c -0.379143,0.1753664 -0.73669,0.315232 -1.135589,0.4385604 L 7.3937215,3.7044863 7.1875065,3.8217184 6.8774765,3.20731 7.1098225,2.9735524 V 2.7397948 L 6.5158935,2.3308955 6.6966855,2.1557539 7.6521965,1.8923352 Z m -1.833339,0.058616 0.103113,0.1751417 c -0.187691,0.060705 -0.36548,0.1187713 -0.542374,0.2048027 l -0.257768,0.058616 -0.129243,0.1165257 -0.335453,-0.058616 0.06851,-0.091102 0.112283,-0.054379 0.230932,-0.1087574 0.259182,-0.03743 0.157486,-0.1567801 z m -1.523307,0.7012729 0.129243,0.2634187 0.103113,-0.2048028 0.232345,-0.058616 0.02542,0.1461868 0.49082,0.058616 0.129243,0.2627125 0.283899,0.1172319 -0.257768,0.2337576 C 6.0343665,3.2664364 5.8616835,3.1490676 5.6896215,3.0321684 l -0.257769,-0.087571 c -0.113417,0.075801 -0.224095,0.1550079 -0.335452,0.2337576 l -0.129243,0.2923736 h -0.258477 l 0.129243,-0.3213285 0.206215,-0.1758479 -0.02542,-0.2916673 z m 4.053682,0.613702 0.154661,0.1751417 -0.309324,0.2048028 -0.181497,-0.1172317 0.02613,-0.1751418 0.103113,0.029662 z m -3.408201,0.058616 0.257769,0.1165265 v 0.204802 H 5.7673055 L 5.5088295,3.3831579 Z m 4.079813,0.6723179 h 0.154661 c 0.075981,0.1550488 0.1455095,0.3058601 0.2062145,0.4675153 l 0.180791,0.1758479 -0.206215,0.2040965 -0.2846045,0.058616 0.05226,-0.3509896 V 4.2016626 L 9.7955515,4.084431 Z m -0.10381,0.3502833 0.10381,0.2634189 -0.232347,0.1165265 -0.05226,-0.3213284 z m 1.6433645,1.2203419 -0.0798,0.048729 0.170199,0.1927969 -0.103113,0.2627128 -0.206215,0.058615 0.128532,-0.2634184 -0.21822,-0.1094637 -0.285312,0.1758479 c -0.04807,0.029636 -0.134273,0.097854 -0.222458,0.1772604 0.362411,0.1635313 0.719631,0.3418324 1.009889,0.5218938 0.028,0.017367 0.05557,0.03481 0.08334,0.05226 l 0.226695,-0.02825 0.439267,0.1461868 h 0.335453 L 12.845712,6.5102838 12.949526,6.364097 12.716474,6.21791 12.328761,6.188955 C 12.22124,6.0398035 12.121676,5.8829236 11.994014,5.7503951 l -0.129243,0.058617 -0.05226,0.3799443 -0.232347,-0.2627123 -0.05085,-0.2930799 z m -3.0939335,0.050849 -0.0029,0.00707 h -1.619302 l 2.997182,2.3629999 c -0.06569,-0.2238403 -0.09029,-0.5174947 -0.08051,-0.7394086 0.454114,0.189835 0.8978505,0.3863216 1.1687875,0.5543799 1.251821,0.7764679 2.194087,1.5995843 2.955517,2.6440745 0.133944,0.183763 0.333371,0.634215 0.478814,1.007771 0.145427,0.373513 0.240504,0.61173 0.295198,0.733052 l 0.610908,-1.40538 C 14.951623,10.484045 14.853381,10.133049 14.589364,9.7708849 13.740464,8.6063713 12.680708,7.6849708 11.337944,6.8520923 10.942753,6.606936 10.408881,6.3603242 9.8958505,6.1472887 10.043306,5.9714412 10.344007,5.6655949 10.551219,5.5378238 H 8.2623715 c -0.01367,-0.00451 -0.02088,-0.00696 -0.02118,-0.00707 z m 4.6306605,1.5353142 -0.07768,0.086865 0.09393,0.3425148 c 0.184624,0.1467412 0.36355,0.2971148 0.536017,0.4519785 L 13.168453,7.4015293 Z"
     class="ColorScheme-Text" />
</svg>
