<?xml version='1.0' encoding='UTF-8'?>
<svg xmlns:inkscape="http://www.inkscape.org/namespaces/inkscape" xmlns:sodipodi="http://sodipodi.sourceforge.net/DTD/sodipodi-0.dtd" xmlns="http://www.w3.org/2000/svg" xmlns:svg="http://www.w3.org/2000/svg" xmlns:rdf="http://www.w3.org/1999/02/22-rdf-syntax-ns#" xmlns:cc="http://creativecommons.org/ns#" xmlns:dc="http://purl.org/dc/elements/1.1/" width="64" height="64" version="1.1" viewBox="0 0 16.933 16.933" id="svg7" sodipodi:docname="localsend.svg" inkscape:version="1.4.2 (ebf0e940d0, 2025-05-08)">
  <sodipodi:namedview id="namedview7" pagecolor="#9c4444" bordercolor="#000000" borderopacity="0.25" inkscape:showpageshadow="2" inkscape:pageopacity="0.0" inkscape:pagecheckerboard="0" inkscape:deskcolor="#d1d1d1" inkscape:zoom="4.3531261" inkscape:cx="36.295755" inkscape:cy="40.660435" inkscape:window-width="2560" inkscape:window-height="1376" inkscape:window-x="0" inkscape:window-y="0" inkscape:window-maximized="1" inkscape:current-layer="svg7" showgrid="false"/>
  <defs id="defs2">
    <style id="current-color-scheme" type="text/css">.ColorScheme-Text {color:#d8dee9} .ColorScheme-Highlight {color:#3b4252}</style>
    </defs>
  <metadata id="metadata2">
    <rdf:RDF>
      <cc:Work rdf:about="">
        <dc:format>image/svg+xml</dc:format>
        <dc:type rdf:resource="http://purl.org/dc/dcmitype/StillImage"/>
      </cc:Work>
    </rdf:RDF>
  </metadata>
  <path id="circle1-6" style="fill:currentColor;fill-opacity:1;stroke:none;stroke-width:0.182276;stroke-linecap:round;stroke-linejoin:round" class="ColorScheme-Text" d="M 27.025868 -1.2905897 C 26.661317 -1.2905897 26.296797 -1.2359709 25.9687 -1.1448299 C 25.9687 -1.0901499 26.078005 -0.74379284 26.442556 -0.72556584 C 26.551922 -0.70733584 26.880048 -0.72556584 27.025868 -0.72556584 C 27.189917 -0.74379584 27.481527 -0.70733584 27.590892 -0.72556584 C 27.973672 -0.76202584 28.083036 -1.0901479 28.083036 -1.1448299 C 27.75494 -1.2359699 27.39042 -1.2905897 27.025868 -1.2905897 z M 25.111884 -0.79844572 C 24.802015 -0.63439772 24.510526 -0.41566779 24.25534 -0.14225379 C 24.000154 0.11293221 23.781486 0.40442059 23.617437 0.71428959 C 23.653897 0.75074959 23.981926 0.91494913 24.25534 0.67798613 C 24.34648 0.60507613 24.565239 0.38631506 24.674604 0.25872206 C 24.78397 0.14935606 25.00267 -0.05111579 25.07558 -0.14225379 C 25.312539 -0.43389479 25.148334 -0.74376272 25.111884 -0.79844572 z M 28.939852 -0.79844572 C 28.903385 -0.74374908 28.739204 -0.43388606 28.976155 -0.14225379 C 29.049065 -0.05111579 29.267766 0.14935606 29.377131 0.25872206 C 29.486497 0.38631506 29.705255 0.60507613 29.796395 0.67798613 C 30.069808 0.91494913 30.397849 0.75074959 30.434299 0.71428959 C 30.270251 0.40442059 30.051581 0.11293221 29.796395 -0.14225379 C 29.541209 -0.41566728 29.24972 -0.63439782 28.939852 -0.79844572 z M 27.025868 0.51393814 A 2.1144004 2.1144004 0 0 0 24.911532 2.6282737 A 2.1144004 2.1144004 0 0 0 27.025868 4.7426093 A 2.1144004 2.1144004 0 0 0 29.140203 2.6282737 A 2.1144004 2.1144004 0 0 0 27.025868 0.51393814 z M 23.252764 1.5528177 C 23.161624 1.8991417 23.107004 2.2637227 23.107004 2.6282737 C 23.107004 2.9928257 23.161623 3.3573455 23.252764 3.6854415 C 23.307444 3.6854415 23.653801 3.5761378 23.672028 3.2115858 C 23.690258 3.1022208 23.672028 2.7740947 23.672028 2.6282737 C 23.653798 2.4642257 23.690258 2.1726159 23.672028 2.0632499 C 23.635568 1.6804709 23.307446 1.5528177 23.252764 1.5528177 z M 30.798971 1.5711059 C 30.744288 1.5711059 30.416157 1.6805311 30.379707 2.0815381 C 30.361477 2.1909031 30.397937 2.4825139 30.379707 2.6465619 C 30.379707 2.7923829 30.361477 3.120508 30.379707 3.229874 C 30.397935 3.594425 30.744291 3.7037297 30.798971 3.7037297 C 30.890111 3.3756327 30.944731 3.0111139 30.944731 2.6465619 C 30.944731 2.2637829 30.890111 1.9174299 30.798971 1.5711059 z M 23.939255 4.4532734 C 23.769617 4.4466869 23.640222 4.5194766 23.617437 4.5422578 C 23.781486 4.8521268 24.000215 5.1436142 24.273629 5.3988012 C 24.528815 5.6539872 24.820303 5.8726569 25.130172 6.0367049 C 25.166632 6.0002549 25.330822 5.6722142 25.093868 5.3988012 C 25.020958 5.3076612 24.802198 5.0889032 24.674604 4.9795372 C 24.565239 4.8701722 24.364767 4.6514713 24.273629 4.5785613 C 24.157428 4.4897017 24.041037 4.4572253 23.939255 4.4532734 z M 30.16216 4.4611892 C 30.049488 4.4570154 29.913675 4.4828665 29.778107 4.5785613 C 29.686969 4.6514713 29.486497 4.8701722 29.377131 4.9795372 C 29.249538 5.0889032 29.030777 5.3076612 28.957867 5.3988012 C 28.720904 5.6722142 28.885104 6.0002549 28.921564 6.0367049 C 29.231433 5.8726569 29.522921 5.6539872 29.778107 5.3988012 C 30.051521 5.1436142 30.270251 4.8521268 30.434299 4.5422578 C 30.413793 4.5217547 30.307023 4.4665556 30.16216 4.4611892 z M 26.541094 5.9744704 C 26.492677 5.975325 26.451609 5.9775558 26.424268 5.9821133 C 26.059716 6.0003413 25.950412 6.3466973 25.950412 6.4013773 C 26.278508 6.4925183 26.643028 6.5471371 27.00758 6.5471371 C 27.390359 6.5471371 27.736712 6.4925173 28.083036 6.4013773 C 28.083036 6.3466943 27.97361 6.0185733 27.572603 5.9821133 C 27.463237 5.9638833 27.171628 6.0003433 27.00758 5.9821133 C 26.898214 5.9821133 26.686345 5.9719068 26.541094 5.9744704 z " transform="matrix(1.893161,0,0,1.893161,-42.697819,3.4907546)"/>
</svg>
