<?xml version="1.0" encoding="UTF-8" standalone="no"?>
<svg
   width="64"
   height="64"
   version="1.1"
   viewBox="0 0 16.933 16.933"
   id="svg7"
   sodipodi:docname="losslesscut-alt1.svg"
   inkscape:version="1.4.2 (ebf0e940d0, 2025-05-08)"
   xmlns:inkscape="http://www.inkscape.org/namespaces/inkscape"
   xmlns:sodipodi="http://sodipodi.sourceforge.net/DTD/sodipodi-0.dtd"
   xmlns="http://www.w3.org/2000/svg"
   xmlns:svg="http://www.w3.org/2000/svg"
   xmlns:rdf="http://www.w3.org/1999/02/22-rdf-syntax-ns#"
   xmlns:cc="http://creativecommons.org/ns#"
   xmlns:dc="http://purl.org/dc/elements/1.1/">
  <sodipodi:namedview
     id="namedview7"
     pagecolor="#9c4444"
     bordercolor="#000000"
     borderopacity="0.25"
     inkscape:showpageshadow="2"
     inkscape:pageopacity="0.0"
     inkscape:pagecheckerboard="0"
     inkscape:deskcolor="#d1d1d1"
     inkscape:zoom="3.078125"
     inkscape:cx="43.695431"
     inkscape:cy="51.329949"
     inkscape:window-width="2560"
     inkscape:window-height="1392"
     inkscape:window-x="0"
     inkscape:window-y="0"
     inkscape:window-maximized="1"
     inkscape:current-layer="svg7"
     showgrid="false" />
  <defs
     id="defs2">
    <style
       id="current-color-scheme"
       type="text/css">.ColorScheme-Text {color:#d8dee9} .ColorScheme-Highlight {color:#3b4252}</style>
  </defs>
  <metadata
     id="metadata2">
    <rdf:RDF>
      <cc:Work
         rdf:about="">
        <dc:format>image/svg+xml</dc:format>
        <dc:type
           rdf:resource="http://purl.org/dc/dcmitype/StillImage" />
      </cc:Work>
    </rdf:RDF>
  </metadata>
  <path
     id="path5"
     style="fill:currentColor;stroke-width:0.0440082"
     d="m 14.884224,2.034677 -13.4290445,2.367248 0.053119,0.301267 0.01891,-0.0036 1.8836728,1.337696 -1.6171307,0.28528 0.047274,0.267917 13.4289584,-2.367247 z m 0.05278,0.300838 0.285538,1.619366 -0.01066,0.0018 -1.883672,-1.337782 z m -0.135291,0.193224 -1.051642,0.185229 1.239536,0.880337 z M 12.746649,2.721618 14.630321,4.0594 13.010956,4.344852 11.127283,3.007156 Z m -0.03962,0.176377 -1.157967,0.20414 1.50161,1.06634 1.15788,-0.204054 z M 10.502663,3.117349 12.386336,4.455044 10.766971,4.740496 8.8832973,3.4028 Z M 10.462953,3.293725 9.3050726,3.497779 10.806682,4.56412 11.964563,4.360066 Z M 8.2589313,3.512993 10.142604,4.850688 8.5232386,5.136227 6.6395658,3.798531 Z M 8.2193073,3.68937 7.0613405,3.893509 8.5628637,4.95985 9.7208304,4.75571 Z M 6.0150274,3.908466 7.8986144,5.246161 6.2792489,5.531613 4.3955758,4.193918 Z m -0.03971,0.176376 -1.1579666,0.204054 1.5016089,1.06634 1.157881,-0.204053 z M 3.7712093,4.30411 5.6548825,5.641806 4.0355167,5.927343 2.1518439,4.589562 Z M 3.7314993,4.480487 2.5736183,4.68454 4.0751415,5.750967 5.2331083,5.546827 Z M 1.7396965,5.055 1.9290525,6.129334 2.9891181,5.942299 Z M 1.8413798,6.592022 V 6.89647 H 3.4749277 L 1.8521239,8.540848 h -0.01075 V 8.814353 H 15.47782 V 6.592022 Z M 6.3439726,6.896384 H 7.9883505 L 6.3655467,8.540848 H 4.7211581 L 6.3439618,6.89647 Z m -2.2784578,8.8e-5 H 5.7098869 L 4.087083,8.540851 H 2.4427002 Z m 4.5569156,0 H 10.266808 L 8.6440047,8.540851 h -1.644378 z m 2.2784576,0 h 1.644373 L 10.922544,8.540851 H 9.2780738 Z m 2.278458,0 h 1.644378 L 13.201,8.540851 h -1.644469 z m 2.278372,0 h 0.01943 V 8.540851 H 13.834995 Z M 6.413767,7.063136 5.1200793,8.3741 h 1.175669 L 7.5895214,7.063136 Z m -4.4056374,8.8e-5 V 8.14538 L 3.0760172,7.063224 Z m 2.1271796,0 -1.2936873,1.310878 h 1.175673 L 5.3109823,7.063224 Z m 4.5569158,0 -1.2936879,1.310878 H 8.5742058 L 9.8678935,7.063224 Z m 2.278457,0 -1.2936869,1.310878 h 1.1757589 l 1.293687,-1.310878 z m 2.278458,0 -1.293687,1.310878 h 1.175758 l 1.293688,-1.310878 z m 2.061253,0.219955 -1.076569,1.090923 h 1.076569 z M 1.8411219,8.980677 v 5.021924 c 0,0.49254 0.4030961,0.895723 0.8956363,0.895722 H 14.581495 c 0.492541,0 0.895637,-0.403182 0.895637,-0.895722 V 8.980673 Z M 2.7065025,9.559488 H 14.564133 v 1.608622 h 0.0032 v 0.198552 h -0.0032 v 2.736071 H 2.7064917 Z m 0.1792134,0.179127 v 4.184909 H 4.793026 V 9.738615 Z m 2.1061209,0 V 11.16811 H 9.7361267 V 9.738615 Z m 4.9428472,0 v 1.429495 h 4.450504 V 9.738615 Z m -4.9428472,1.627961 v 2.556948 h 4.7443757 v -2.556948 z m 4.9428472,0 v 2.556948 h 4.450333 v -2.556948 z"
     class="ColorScheme-Text" />
</svg>
