<?xml version='1.0' encoding='UTF-8'?>
<svg xmlns:inkscape="http://www.inkscape.org/namespaces/inkscape" xmlns:sodipodi="http://sodipodi.sourceforge.net/DTD/sodipodi-0.dtd" xmlns="http://www.w3.org/2000/svg" xmlns:svg="http://www.w3.org/2000/svg" xmlns:rdf="http://www.w3.org/1999/02/22-rdf-syntax-ns#" xmlns:cc="http://creativecommons.org/ns#" xmlns:dc="http://purl.org/dc/elements/1.1/" width="64" height="64" version="1.1" viewBox="0 0 16.933 16.933" id="svg7" sodipodi:docname="loupe.svg" inkscape:version="1.4 (e7c3feb100, 2024-10-09)">
  <sodipodi:namedview id="namedview7" pagecolor="#9c4444" bordercolor="#000000" borderopacity="0.25" inkscape:showpageshadow="2" inkscape:pageopacity="0.0" inkscape:pagecheckerboard="0" inkscape:deskcolor="#d1d1d1" inkscape:zoom="6.15625" inkscape:cx="15.837563" inkscape:cy="27.28934" inkscape:window-width="1183" inkscape:window-height="941" inkscape:window-x="35" inkscape:window-y="32" inkscape:window-maximized="0" inkscape:current-layer="svg7" showgrid="false"/>
  <defs id="defs2">
    <style id="current-color-scheme" type="text/css">.ColorScheme-Text {color:#d8dee9} .ColorScheme-Highlight {color:#3b4252}</style></defs>
  <metadata id="metadata2">
    <rdf:RDF>
      <cc:Work rdf:about="">
        <dc:format>image/svg+xml</dc:format>
        <dc:type rdf:resource="http://purl.org/dc/dcmitype/StillImage"/>
      </cc:Work>
    </rdf:RDF>
  </metadata>
  <path style="fill:currentColor;fill-opacity:1;fill-rule:evenodd;stroke:none;stroke-width:0.465597;stroke-dasharray:none;stroke-opacity:0.3" d="M 8.5047906,3.8133225 V 3.81486 C 6.9480625,3.8292293 5.3813445,4.1634918 4.025329,4.8869284 3.4848696,5.2183264 2.836039,5.6461995 2.3471,6.07744 1.5777902,6.786528 0.9192715,7.6131823 0.47438593,8.539986 c 1.21956197,2.532608 3.89996257,4.389345 6.84937097,4.66361 1.9346847,0.206169 3.9598111,-0.10936 5.6604941,-1.010551 0.540442,-0.331396 1.189284,-0.75927 1.678223,-1.190514 0.769315,-0.710627 1.427834,-1.5372838 1.872719,-2.4625766 C 15.316178,6.0074931 12.634587,4.1515373 9.6858217,3.8778821 9.2939393,3.8340325 8.8982768,3.8132803 8.5047906,3.8132803 Z m 0.00315,1.5750445 C 10.226218,5.3510347 11.747739,6.859161 11.715406,8.5353819 11.770592,10.387985 9.8888892,11.986819 8.0281186,11.640862 6.1488727,11.424459 4.8283788,9.3562459 5.4464701,7.6048115 5.8416511,6.3162746 7.1324843,5.3748043 8.5096301,5.389907 Z m -0.00315,1.5750432 A 1.6060799,1.5741377 0 0 0 6.8987102,8.5399949 1.6060799,1.5741377 0 0 0 8.5047906,10.113501 1.6060799,1.5741377 0 0 0 10.110872,8.5399949 1.6060799,1.5741377 0 0 0 8.5047906,6.9680248 Z" id="path24" class="ColorScheme-Text"/>
</svg>
