<?xml version="1.0" encoding="UTF-8" standalone="no"?>
<svg
   width="64"
   height="64"
   version="1.1"
   viewBox="0 0 16.933 16.933"
   id="svg7"
   sodipodi:docname="luanti-2.svg"
   inkscape:version="1.4.3 (0d15f75042, 2025-12-25)"
   xmlns:inkscape="http://www.inkscape.org/namespaces/inkscape"
   xmlns:sodipodi="http://sodipodi.sourceforge.net/DTD/sodipodi-0.dtd"
   xmlns="http://www.w3.org/2000/svg"
   xmlns:svg="http://www.w3.org/2000/svg"
   xmlns:rdf="http://www.w3.org/1999/02/22-rdf-syntax-ns#"
   xmlns:cc="http://creativecommons.org/ns#"
   xmlns:dc="http://purl.org/dc/elements/1.1/">
  <sodipodi:namedview
     id="namedview7"
     pagecolor="#9c4444"
     bordercolor="#000000"
     borderopacity="0.25"
     inkscape:showpageshadow="2"
     inkscape:pageopacity="0.0"
     inkscape:pagecheckerboard="0"
     inkscape:deskcolor="#d1d1d1"
     inkscape:zoom="22.627417"
     inkscape:cx="36.305514"
     inkscape:cy="41.807688"
     inkscape:window-width="2560"
     inkscape:window-height="1388"
     inkscape:window-x="0"
     inkscape:window-y="0"
     inkscape:window-maximized="1"
     inkscape:current-layer="svg7"
     showgrid="false" />
  <defs
     id="defs2">
    <style
       id="current-color-scheme"
       type="text/css">.ColorScheme-Text {color:#d8dee9} .ColorScheme-Highlight {color:#3b4252}</style>
  </defs>
  <metadata
     id="metadata2">
    <rdf:RDF>
      <cc:Work
         rdf:about="">
        <dc:format>image/svg+xml</dc:format>
        <dc:type
           rdf:resource="http://purl.org/dc/dcmitype/StillImage" />
      </cc:Work>
    </rdf:RDF>
  </metadata>
  <path
     id="path5"
     style="fill:currentColor"
     d="m 15.459624,9.0182601 -1.33091,0.7684011 v 0.3327278 l -0.665454,0.3842 v 0.665455 l -0.665456,0.384201 v 1.33091 l 2.66182,-1.536803 z M 12.465077,7.8013834 12.999143,8.1097269 13.46326,7.8417695 V 5.0504101 L 12.999143,4.7824527 12.465077,5.139564 Z M 2.4832555,5.3656496 4.9309335,6.7788172 7.1414385,5.5025809 V 2.7314145 L 4.9309335,1.4551784 2.4832555,2.8683461 Z M 8.9649415,3.1188155 7.3078035,4.0754069 V 5.5986746 L 5.6734095,6.5422687 V 7.8731783 L 4.9306215,8.3020849 4.1878335,7.8731783 V 6.5422687 L 3.6120595,6.2095412 1.4733755,7.444272 6.1432565,10.140534 10.80144,7.5066584 8.5854235,6.2270876 11.466895,4.5634505 Z m -1.989867,1.1489494 -1.877439,1.0839637 0.575774,0.3327275 v 0.4730964 l 1.301665,-0.7512359 z m -2.044453,1.3725006 -0.410061,0.2365483 v 0.4730971 l 0.410061,0.2365483 0.410061,-0.2365483 V 5.8768138 Z m -0.742788,0.2365483 -0.243047,0.1403697 0.243047,0.140369 z M 11.633259,5.3250842 9.3282115,6.6559939 10.80144,7.5066584 v 0.4743965 l 6.66e-4,-6.655e-4 2.361584,1.3634026 0.98582,-0.5686103 1.310114,-0.7551351 V 7.5339524 l -1.83,-1.0566694 V 7.9375146 L 12.99926,8.3020849 12.298713,7.8972232 V 5.7091504 Z m 0.998181,0.5757744 v 1.8046563 l 0.36782,0.211854 0.297636,-0.1715626 V 6.2855748 Z M 3.1487095,9.7428207 v 0.6654553 l -0.665454,-0.384717 v 1.996365 l 0.142319,0.08253 1.152848,-0.665456 1.033925,0.597221 v -1.330908 z m 0.959191,1.1229553 0.07213,0.04159 -0.08318,0.144268 -0.07213,-0.04159 z m 0.216403,0.124773 0.07213,0.04159 -0.08318,0.144268 -0.07213,-0.04159 z m 4.230578,-7.4428267 -1.247078,0.7200429 v 1.3309097 l -1.634394,0.943594 V 7.8731785 L 4.9306215,8.3020852 4.1878335,7.8731785 V 6.5422687 L 3.7784225,6.3057204 1.8061025,7.444272 6.1439065,9.9488259 10.466114,7.504709 10.318595,7.4195773 9.1611985,6.7515232 8.6686055,7.0361613 C 8.5578719,7.100068 8.4194332,7.0203933 8.4190605,6.8925424 V 6.2270876 c 9.92e-5,-0.00369 3.21e-4,-0.00737 6.65e-4,-0.011042 -1.7e-6,-4.333e-4 -1.7e-6,-8.667e-4 0,-0.0013 5.065e-4,-0.00633 0.00137,-0.012619 0.0026,-0.018846 6.036e-4,-0.00262 0.00127,-0.00522 0.002,-0.0078 0.00139,-0.00616 0.00312,-0.012235 0.0052,-0.018197 0.00209,-0.00576 0.00449,-0.011401 0.0072,-0.016896 0.00104,-0.00241 0.00214,-0.00479 0.0033,-0.00714 0.00165,-0.00287 0.00338,-0.00569 0.0052,-0.00845 0.00245,-0.00378 0.00505,-0.00747 0.0078,-0.011041 0.00191,-0.00222 0.00388,-0.00439 0.0059,-0.0065 0.00267,-0.00336 0.00548,-0.00661 0.0084,-0.00975 0.00128,-0.00132 0.00258,-0.00262 0.0039,-0.0039 0.00414,-0.0039 0.00847,-0.00759 0.01299,-0.011042 0.00579,-0.00451 0.011868,-0.00864 0.0182,-0.012349 L 10.72428,4.8000142 Z m -1.579807,0.9124009 -1.711076,0.9877845 0.409411,0.2365487 V 6.1575525 L 6.9750745,5.4063166 Z M 11.466245,5.4206138 9.4939255,6.5598153 10.884622,7.3623901 c 0.0063,0.00371 0.01241,0.00784 0.0182,0.012349 4.34e-4,2.2e-4 8.68e-4,4.418e-4 0.0013,6.656e-4 0.0053,0.00424 0.01024,0.0088 0.01494,0.013648 6.72e-4,6.477e-4 0.0013,0.0013 0.002,0.00196 0.0011,0.00128 0.0022,0.00258 0.0033,0.0039 0.0042,0.00455 0.0081,0.00932 0.0117,0.014297 0.0046,0.00621 0.0087,0.01272 0.01232,0.019495 0.0035,0.00693 0.0066,0.014092 0.0091,0.021444 0.0024,0.00658 0.0044,0.013313 0.0059,0.020146 2.26e-4,6.519e-4 4.47e-4,0.00131 6.65e-4,0.00196 4e-6,6.533e-4 4e-6,0.00131 0,0.00196 0.0016,0.00707 0.0027,0.014232 0.0033,0.021444 0,2.218e-4 0,4.435e-4 0,6.653e-4 3.07e-4,0.00343 5.06e-4,0.00688 5.99e-4,0.010325 v 0.569276 l 0.129972,0.075383 1.898885,1.0963109 1.069667,-0.6167156 1.226932,-0.7070458 V 7.6301316 L 13.629624,6.669641 V 7.9375146 L 12.99926,8.3020849 12.298713,7.8972232 V 5.9015084 Z m -6.5356235,0.2196519 -0.0013,6.655e-4 -0.40876,0.2358985 v 0.4730971 l 0.410059,0.2365482 0.410061,-0.2365482 v -0.473113 z m -0.742788,0.4289067 -0.07669,0.04419 0.07669,0.04419 z M 12.63144,6.0932174 V 7.7055156 L 12.99926,7.9173695 13.296896,7.745807 V 6.477283 Z M 8.7517875,6.5149748 v 0.08903 l 0.07733,-0.04484 z m -7.278412,1.1216553 v 3.8003709 l 0.843516,0.486744 V 9.7356723 l 0.665455,0.3840667 V 9.4542838 l 1.996365,1.1528482 v 1.33091 l 0.03509,0.02015 0.630363,0.363921 0.02924,0.0169 v 0.665455 l 0.576424,0.332727 0.05979,0.03444 v 0.857163 l 2.162729,1.249028 4.1590915,-2.458414 v -1.562261 l 0.665457,-0.384066 V 10.40763 l 0.665455,-0.384067 V 9.690832 l 1.430338,-0.8259699 h -0.09942 V 8.3079337 l -1.060572,0.6115167 -0.935796,0.5393824 v 0.6674042 l -0.665461,0.384066 v 0.713545 l -4.1584415,2.450615 -1.979469,-1.1431 V 11.865908 L 5.9768925,11.567623 V 10.70916 L 10.635077,8.0746345 V 7.7912964 L 6.2251385,10.285452 c -0.051257,0.02902 -0.1140357,0.02877 -0.165063,-6.5e-4 z M 15.29326,9.3067657 14.295078,9.8825403 v 0.3327277 l -0.665454,0.384066 v 0.665455 l -0.665455,0.384716 v 0.946194 L 15.29326,11.251142 Z M 3.3150735,10.030708 v 0.665455 l -0.665455,-0.384066 v 1.584354 l 1.128804,-0.651808 0.867561,0.501041 V 10.79884 Z m 0.792827,0.835068 0.07213,0.04159 -0.08318,0.144268 -0.07213,-0.04159 z m 0.216403,0.124773 0.07213,0.04159 -0.08318,0.144268 -0.07213,-0.04159 z"
     class="ColorScheme-Text"
     sodipodi:nodetypes="cccccccccccccccccccccccccccccccccccccccccccccccccccccccccccccccccccccccccccccccccccccccccccccccccccccccccccccccccccccccccccccccccccccccccccccccccccccccccccccccccccccccccccccccccccccccccccccccccccccccccccccccccccccccccccccccccccccccccccccccccccccccccccc" />
</svg>
