<?xml version="1.0" encoding="UTF-8" standalone="no"?>
<svg
   width="64"
   height="64"
   version="1.1"
   viewBox="0 0 16.933 16.933"
   id="svg7"
   sodipodi:docname="mailspring.svg"
   inkscape:version="1.4.2 (ebf0e940d0, 2025-05-08)"
   xmlns:inkscape="http://www.inkscape.org/namespaces/inkscape"
   xmlns:sodipodi="http://sodipodi.sourceforge.net/DTD/sodipodi-0.dtd"
   xmlns="http://www.w3.org/2000/svg"
   xmlns:svg="http://www.w3.org/2000/svg"
   xmlns:rdf="http://www.w3.org/1999/02/22-rdf-syntax-ns#"
   xmlns:cc="http://creativecommons.org/ns#"
   xmlns:dc="http://purl.org/dc/elements/1.1/">
  <sodipodi:namedview
     id="namedview7"
     pagecolor="#9c4444"
     bordercolor="#000000"
     borderopacity="0.25"
     inkscape:showpageshadow="2"
     inkscape:pageopacity="0.0"
     inkscape:pagecheckerboard="0"
     inkscape:deskcolor="#d1d1d1"
     inkscape:zoom="4.3531262"
     inkscape:cx="89.935366"
     inkscape:cy="34.457995"
     inkscape:window-width="2560"
     inkscape:window-height="1388"
     inkscape:window-x="0"
     inkscape:window-y="0"
     inkscape:window-maximized="1"
     inkscape:current-layer="svg7"
     showgrid="false" />
  <defs
     id="defs2">
    <style
       id="current-color-scheme"
       type="text/css">.ColorScheme-Text {color:#d8dee9} .ColorScheme-Highlight {color:#3b4252}</style>
  </defs>
  <metadata
     id="metadata2">
    <rdf:RDF>
      <cc:Work
         rdf:about="">
        <dc:format>image/svg+xml</dc:format>
        <dc:type
           rdf:resource="http://purl.org/dc/dcmitype/StillImage" />
      </cc:Work>
    </rdf:RDF>
  </metadata>
  <path
     style="fill:currentColor"
     d="m 8.1435641,1.4824832 c -0.427979,0.0562 -0.851843,0.0746 -1.275741,0.17472 -1.189275,0.28096 -2.294737,0.86922 -3.189352,1.70257 -0.637913,0.59423 -1.139984,1.30621 -1.528507,2.08335 -1.55897895,3.11836 -0.371503,7.0387198 2.508649,8.9223398 1.417385,0.92697 3.15472,1.27055 4.822923,1.04583 3.4310819,-0.4622 6.0739919,-3.61081 5.9895319,-7.0588598 -0.07643,-3.1199 -2.243754,-5.90469 -5.28943,-6.66611 -0.6353259,-0.15883 -1.3822289,-0.28994 -2.0380739,-0.20384 m 4.0294739,3.88285 c -0.280041,0.31116 -0.185895,0.21702 -0.280041,0.31116 l -0.591197,0.5912 c -0.656242,0.65624 -1.3041149,1.31967 -1.9602839,1.97584 l -0.637871,0.63787 c -0.05316,0.0532 -0.164733,0.21341 -0.248925,0.20348 -0.09503,-0.0112 -0.187951,-0.1674 -0.251506,-0.23015 -0.218767,-0.216 -0.428862,-0.44096 -0.649455,-0.65523 -0.636933,-0.61869 -1.255975,-1.25723 -1.883888,-1.88514 -0.213698,-0.2137 -0.424952,-0.4295 -0.636057,-0.64543 -0.09341,-0.0955 -0.213946,-0.18772 -0.281854,-0.3036 h 7.4210779 m -7.9656009,0.57564 2.411461,2.41146 v 0.0156 c -0.587586,0.63838 -1.116096,1.34308 -1.672069,2.0095998 -0.232374,0.27858 -0.491646,0.55407 -0.75495,0.88416 v -3.7649998 -1.07348 l 0.01556,-0.4823 m 8.5412399,0 v 5.3207798 c -0.08538,-0.0416 -0.138515,-0.13035 -0.19841,-0.20226 l -0.36292,-0.43561 c -0.435689,-0.52295 -0.877947,-1.0418498 -1.305608,-1.5713398 -0.135529,-0.16781 -0.275333,-0.33209 -0.41329,-0.49785 -0.04008,-0.0482 -0.134385,-0.13117 -0.12912,-0.19939 0.0046,-0.0595 0.09879,-0.12339 0.137907,-0.16301 0.141014,-0.1428 0.278109,-0.2891 0.420061,-0.43105 l 1.260183,-1.26019 c 0.172003,-0.172 0.389141,-0.37398 0.591197,-0.56008 M 12.297502,11.977453 H 4.6430581 c 0.176452,-0.2492 0.401785,-0.50671 0.587307,-0.73122 0.437779,-0.52979 0.883255,-1.05365 1.316796,-1.5868998 0.148712,-0.18291 0.304025,-0.36047 0.451345,-0.54452 0.03988,-0.0498 0.107569,-0.16792 0.180475,-0.16792 0.0973,0 0.24607,0.21174 0.311157,0.27682 0.198546,0.19855 0.392645,0.40124 0.589396,0.60155 0.10624,0.10816 0.21349,0.2204798 0.375188,0.2227298 0.185776,0.003 0.298109,-0.1266898 0.420061,-0.2486398 l 0.575639,-0.57564 c 0.06395,-0.064 0.212422,-0.27698 0.310929,-0.27682 0.06841,1.1e-4 0.134158,0.12157 0.172625,0.16792 0.1505379,0.18139 0.3001349,0.36351 0.4511639,0.54452 0.440125,0.5274998 0.879629,1.0555998 1.315163,1.5868998 0.193791,0.2364 0.444238,0.46655 0.597199,0.73122 z"
     id="path5"
     class="ColorScheme-Text" />
</svg>
