<?xml version="1.0" encoding="UTF-8" standalone="no"?>
<svg
   width="64"
   height="64"
   version="1.1"
   viewBox="0 0 16.933 16.933"
   id="svg7"
   sodipodi:docname="maps.svg"
   inkscape:version="1.4.3 (0d15f75042, 2025-12-25)"
   xmlns:inkscape="http://www.inkscape.org/namespaces/inkscape"
   xmlns:sodipodi="http://sodipodi.sourceforge.net/DTD/sodipodi-0.dtd"
   xmlns="http://www.w3.org/2000/svg"
   xmlns:svg="http://www.w3.org/2000/svg"
   xmlns:rdf="http://www.w3.org/1999/02/22-rdf-syntax-ns#"
   xmlns:cc="http://creativecommons.org/ns#"
   xmlns:dc="http://purl.org/dc/elements/1.1/">
  <sodipodi:namedview
     id="namedview7"
     pagecolor="#9c4444"
     bordercolor="#000000"
     borderopacity="0.25"
     inkscape:showpageshadow="2"
     inkscape:pageopacity="0.0"
     inkscape:pagecheckerboard="0"
     inkscape:deskcolor="#d1d1d1"
     inkscape:zoom="4.3531262"
     inkscape:cx="90.165086"
     inkscape:cy="34.457995"
     inkscape:window-width="2560"
     inkscape:window-height="1388"
     inkscape:window-x="0"
     inkscape:window-y="0"
     inkscape:window-maximized="1"
     inkscape:current-layer="svg7"
     showgrid="false" />
  <defs
     id="defs2">
    <style
       id="current-color-scheme"
       type="text/css">.ColorScheme-Text {color:#d8dee9} .ColorScheme-Highlight {color:#3b4252}</style>
  </defs>
  <metadata
     id="metadata2">
    <rdf:RDF>
      <cc:Work
         rdf:about="">
        <dc:format>image/svg+xml</dc:format>
        <dc:type
           rdf:resource="http://purl.org/dc/dcmitype/StillImage" />
      </cc:Work>
    </rdf:RDF>
  </metadata>
  <path
     id="path5"
     style="fill:currentColor;fill-opacity:1;stroke-width:0.250404"
     d="m 11.471352,1.4551797 c -1.65943,0 -3.004852,1.360865 -3.004852,3.0395755 0,1.2978455 1.796334,4.0714683 2.611149,5.2628919 0.192562,0.2814549 0.594844,0.2814549 0.787405,0 0.814816,-1.1914236 2.611149,-3.9650464 2.611149,-5.2628919 0,-1.6787105 -1.345422,-3.0395755 -3.004851,-3.0395755 z m 0,2.0032344 A 1.0016172,1.0016172 0 0 1 12.472969,4.4600312 1.0016172,1.0016172 0 0 1 11.471352,5.4616484 1.0016172,1.0016172 0 0 1 10.469734,4.4600312 1.0016172,1.0016172 0 0 1 11.471352,3.4584141 Z M 2.957605,4.4600312 c -0.829839,0 -1.502425,0.672586 -1.502425,1.5024258 v 5.008086 h 6.173541 c 0.200574,0 0.319548,-0.22401 0.207367,-0.390278 L 3.709308,4.4605203 c -0.0121,-3.005e-4 -0.02454,-5.009e-4 -0.03668,-5.009e-4 z m 2.754448,0 4.31654,6.3999818 c 0.04633,0.06911 0.123981,0.11053 0.207365,0.11053 H 15.47782 V 5.962457 c 0,-0.4689236 -0.214637,-0.8874977 -0.551183,-1.1630105 -0.223013,1.5734087 -1.999292,4.2438212 -2.670816,5.2257225 -0.380332,0.555908 -1.188654,0.555838 -1.568939,0 C 9.969745,8.976571 7.993079,6.0027548 7.993079,4.4952444 c 0,-0.011684 -1.12e-4,-0.023556 0,-0.035213 z m 5.8532,8.0129378 c -0.196066,0 -0.315912,0.215171 -0.212746,0.382942 l 1.62127,2.621909 h 1.001618 c 0.82984,0 1.502425,-0.673587 1.502425,-1.502425 v -1.502426 z m -10.110073,0 v 1.502426 c 0,0.828838 0.672586,1.502425 1.502425,1.502425 h 8.012938 L 9.186412,12.590835 C 9.140588,12.518218 9.059817,12.472969 8.973178,12.472969 Z"
     class="ColorScheme-Text" />
</svg>
