<?xml version='1.0' encoding='UTF-8'?>
<svg xmlns:inkscape="http://www.inkscape.org/namespaces/inkscape" xmlns:sodipodi="http://sodipodi.sourceforge.net/DTD/sodipodi-0.dtd" xmlns="http://www.w3.org/2000/svg" xmlns:svg="http://www.w3.org/2000/svg" xmlns:rdf="http://www.w3.org/1999/02/22-rdf-syntax-ns#" xmlns:cc="http://creativecommons.org/ns#" xmlns:dc="http://purl.org/dc/elements/1.1/" width="64" height="64" version="1.1" viewBox="0 0 16.933 16.933" id="svg7" sodipodi:docname="me.timschneeberger.jdsp4linux.svg" inkscape:version="1.4.2 (ebf0e940d0, 2025-05-08)">
  <sodipodi:namedview id="namedview7" pagecolor="#9c4444" bordercolor="#000000" borderopacity="0.25" inkscape:showpageshadow="2" inkscape:pageopacity="0.0" inkscape:pagecheckerboard="0" inkscape:deskcolor="#d1d1d1" inkscape:zoom="4.3531261" inkscape:cx="36.295755" inkscape:cy="40.660435" inkscape:window-width="2560" inkscape:window-height="1376" inkscape:window-x="0" inkscape:window-y="0" inkscape:window-maximized="1" inkscape:current-layer="svg7" showgrid="false"/>
  <defs id="defs2">
    <style id="current-color-scheme" type="text/css">.ColorScheme-Text {color:#d8dee9} .ColorScheme-Highlight {color:#3b4252}</style>
    </defs>
  <metadata id="metadata2">
    <rdf:RDF>
      <cc:Work rdf:about="">
        <dc:format>image/svg+xml</dc:format>
        <dc:type rdf:resource="http://purl.org/dc/dcmitype/StillImage"/>
      </cc:Work>
    </rdf:RDF>
  </metadata>
  <path id="path23-7" style="isolation:isolate;fill:currentColor;fill-opacity:1;stroke-width:0.322582" class="ColorScheme-Text" inkscape:label="outlineTop" d="m 2.6606,1.0473327 c -0.890327,0 -1.613267,0.7229392 -1.613267,1.6132665 v 6.1282601 c 0,0.356132 0.288589,0.645698 0.64472,0.645698 0.356132,0 0.645698,-0.289566 0.645698,-0.645698 V 3.3053189 c 0,-0.5341972 0.433372,-0.9675687 0.967569,-0.9675687 h 10.322362 c 0.534197,0 0.968546,0.4333715 0.968546,0.9675687 v 1.4674952 c 0,0.3561321 0.288587,0.6456979 0.644719,0.6456979 0.35613,0 0.64472,-0.2895658 0.64472,-0.6456979 V 2.6605992 c 0,-0.8903273 -0.721958,-1.6132665 -1.612287,-1.6132665 z m 2.375386,2.3988657 c -0.615117,0 -0.59776,0.5726725 -0.59776,0.9685469 V 4.7816191 A 1.2096857,1.2096857 0 0 0 3.872751,5.8049524 1.2096857,1.2096857 0 0 0 4.438226,6.8292643 v 1.637725 4.0610477 c 0,0.395874 -0.01736,0.958763 0.59776,0.958763 h 0.04403 c 0.644112,0 0.647241,-0.562879 0.646675,-0.958763 L 5.720791,8.4669893 V 6.8331773 A 1.2096857,1.2096857 0 0 0 6.292161,5.8049524 1.2096857,1.2096857 0 0 0 5.720817,4.7777058 V 4.4059403 c 0,-0.3958744 0.0033,-0.9597419 -0.640806,-0.9597419 z m 3.508291,0 c -0.615115,0 -0.597758,0.5726725 -0.597758,0.9685469 v 4.052244 1.6377237 a 1.2096857,1.2096857 0 0 0 -0.565475,1.023334 1.2096857,1.2096857 0 0 0 0.565475,1.023333 v 0.376657 c 0,0.395874 -0.01736,0.958763 0.597758,0.958763 h 0.04305 c 0.644112,0 0.648221,-0.562879 0.647656,-0.958763 l -9.78e-4,-0.375678 a 1.2096857,1.2096857 0 0 1 9.78e-4,0 1.2096857,1.2096857 0 0 0 0.565476,-1.024312 1.2096857,1.2096857 0 0 0 -0.569389,-1.026269 l -0.002,-1.6347887 v -4.061049 c 0,-0.3958744 0.0023,-0.9597419 -0.641786,-0.9597419 z m 3.508294,0 c -0.615118,0 -0.598739,0.5726725 -0.598739,0.9685469 v 2.302011 a 1.2096857,1.2096857 0 0 0 -0.564497,1.024312 1.2096857,1.2096857 0 0 0 0.564497,1.023333 v 3.7636357 c 0,0.395874 -0.01638,0.958763 0.598739,0.958763 h 0.04305 c 0.644112,0 0.64822,-0.562879 0.647654,-0.958763 l -0.0059,-3.7597227 a 1.2096857,1.2096857 0 0 0 0.571371,-1.027246 1.2096857,1.2096857 0 0 0 -0.571344,-1.027247 v -2.307881 c 0,-0.3958744 0.0023,-0.9597419 -0.641785,-0.9597419 z m 3.188376,3.7880949 c -0.356132,0 -0.644719,0.289566 -0.644719,0.645698 V 13.62768 c 0,0.534198 -0.434349,0.968548 -0.968546,0.968548 H 3.30532 c -0.534197,0 -0.967569,-0.43435 -0.967569,-0.968548 v -1.467494 c 0,-0.356131 -0.289566,-0.64472 -0.645698,-0.64472 -0.356131,0 -0.64472,0.288589 -0.64472,0.64472 v 2.113193 c 0,0.890327 0.72294,1.612288 1.613267,1.612288 h 11.61278 c 0.890329,0 1.612287,-0.721961 1.612287,-1.612288 V 7.8799913 c 0,-0.356132 -0.28859,-0.645698 -0.64472,-0.645698 z"/>
</svg>
