<?xml version='1.0' encoding='UTF-8'?>
<svg xmlns:inkscape="http://www.inkscape.org/namespaces/inkscape" xmlns:sodipodi="http://sodipodi.sourceforge.net/DTD/sodipodi-0.dtd" xmlns="http://www.w3.org/2000/svg" xmlns:svg="http://www.w3.org/2000/svg" xmlns:rdf="http://www.w3.org/1999/02/22-rdf-syntax-ns#" xmlns:cc="http://creativecommons.org/ns#" xmlns:dc="http://purl.org/dc/elements/1.1/" width="64" height="64" version="1.1" viewBox="0 0 16.933 16.933" id="svg7" sodipodi:docname="mega.svg" inkscape:version="1.4 (e7c3feb100, 2024-10-09)">
  <sodipodi:namedview id="namedview7" pagecolor="#9c4444" bordercolor="#000000" borderopacity="0.25" inkscape:showpageshadow="2" inkscape:pageopacity="0.0" inkscape:pagecheckerboard="0" inkscape:deskcolor="#d1d1d1" inkscape:zoom="6.15625" inkscape:cx="33.543147" inkscape:cy="29.725888" inkscape:window-width="1183" inkscape:window-height="941" inkscape:window-x="35" inkscape:window-y="32" inkscape:window-maximized="0" inkscape:current-layer="svg7" showgrid="false"/>
  <defs id="defs2">
    <style id="current-color-scheme" type="text/css">.ColorScheme-Text {color:#d8dee9} .ColorScheme-Highlight {color:#3b4252}</style></defs>
  <metadata id="metadata2">
    <rdf:RDF>
      <cc:Work rdf:about="">
        <dc:format>image/svg+xml</dc:format>
        <dc:type rdf:resource="http://purl.org/dc/dcmitype/StillImage"/>
      </cc:Work>
    </rdf:RDF>
  </metadata>
  <path style="fill:currentColor;fill-opacity:1;stroke-width:0.0274504" d="M 8.0135675,15.812894 C 6.277459,15.696439 4.6169189,14.943412 3.3847185,13.713789 2.2610272,12.592447 1.5712195,11.200481 1.3252035,9.5578784 c -0.049782,-0.3323949 -0.049782,-1.534237 0,-1.8666312 C 1.4990776,6.5303206 1.8615689,5.5688015 2.4687417,4.6579692 3.2005284,3.560203 4.126885,2.7461282 5.2959709,2.1734217 6.023046,1.8172452 6.652665,1.6208055 7.464558,1.4968296 c 0.5459262,-0.083363 1.4579575,-0.083363 2.0038849,0 0.8137551,0.1242619 1.4565581,0.3246923 2.1685861,0.6761847 0.751458,0.3709571 1.336741,0.7892634 1.921358,1.3732106 1.117603,1.1163182 1.803596,2.5037747 2.049409,4.1450223 0.04978,0.3323942 0.04978,1.5342363 0,1.8666312 -0.170164,1.1361146 -0.538645,2.1218976 -1.125437,3.0107936 -1.002334,1.518377 -2.550303,2.614151 -4.300204,3.04402 -0.6346835,0.155914 -1.55805,0.241152 -2.1685875,0.200202 z M 5.9222736,11.461202 c 0.1295401,-0.06899 0.1267908,-0.03308 0.1277123,-1.6692035 l 9.063e-4,-1.5501592 1.0774313,1.0740551 c 0.9096657,0.9068146 1.0945279,1.0787066 1.1872334,1.1039356 0.1367506,0.03722 0.1654843,0.0372 0.3019551,-2.27e-4 0.092519,-0.02537 0.2793743,-0.199066 1.1872324,-1.1036265 l 1.0774316,-1.0735167 9.07e-4,1.54985 c 6.54e-4,1.1750322 0.0091,1.5603832 0.03432,1.5934012 0.07389,0.09627 0.147359,0.107426 0.706287,0.107426 h 0.552925 l 0.08026,-0.08024 0.08028,-0.08024 V 8.6245623 5.9164671 l -0.08028,-0.080237 -0.08026,-0.080237 -0.420732,5.441e-4 c -0.353298,4.71e-4 -0.438332,0.00883 -0.530535,0.052104 -0.07343,0.034436 -0.541575,0.4842352 -1.4135891,1.3581939 -0.7170818,0.7186821 -1.322414,1.3066956 -1.3451797,1.3066956 -0.02277,0 -0.6280972,-0.5875845 -1.3451815,-1.3057442 C 6.4043074,6.449623 5.7717725,5.8381635 5.7157577,5.8089839 5.6277877,5.7631578 5.5555046,5.7559302 5.1852239,5.7559302 H 4.7565366 l -0.080237,0.080237 -0.080237,0.080237 v 2.7080977 2.7080931 l 0.080237,0.08024 0.080237,0.08024 h 0.5529258 c 0.3677125,0 0.5730093,-0.01045 0.6128844,-0.03192 z" id="path5" class="ColorScheme-Text"/>
  </svg>
