<?xml version="1.0" encoding="UTF-8" standalone="no"?>
<svg
   width="64"
   height="64"
   version="1.1"
   viewBox="0 0 16.933 16.933"
   id="svg7"
   sodipodi:docname="meld.svg"
   inkscape:version="1.4.2 (ebf0e940d0, 2025-05-08)"
   xmlns:inkscape="http://www.inkscape.org/namespaces/inkscape"
   xmlns:sodipodi="http://sodipodi.sourceforge.net/DTD/sodipodi-0.dtd"
   xmlns="http://www.w3.org/2000/svg"
   xmlns:svg="http://www.w3.org/2000/svg"
   xmlns:rdf="http://www.w3.org/1999/02/22-rdf-syntax-ns#"
   xmlns:cc="http://creativecommons.org/ns#"
   xmlns:dc="http://purl.org/dc/elements/1.1/">
  <sodipodi:namedview
     id="namedview7"
     pagecolor="#9c4444"
     bordercolor="#000000"
     borderopacity="0.25"
     inkscape:showpageshadow="2"
     inkscape:pageopacity="0.0"
     inkscape:pagecheckerboard="0"
     inkscape:deskcolor="#d1d1d1"
     inkscape:zoom="6.15625"
     inkscape:cx="16"
     inkscape:cy="29.725888"
     inkscape:window-width="2560"
     inkscape:window-height="1392"
     inkscape:window-x="0"
     inkscape:window-y="0"
     inkscape:window-maximized="1"
     inkscape:current-layer="svg7"
     showgrid="false" />
  <defs
     id="defs2">
    <style
       id="current-color-scheme"
       type="text/css">.ColorScheme-Text {color:#d8dee9} .ColorScheme-Highlight {color:#3b4252}</style>
  </defs>
  <metadata
     id="metadata2">
    <rdf:RDF>
      <cc:Work
         rdf:about="">
        <dc:format>image/svg+xml</dc:format>
        <dc:type
           rdf:resource="http://purl.org/dc/dcmitype/StillImage" />
      </cc:Work>
    </rdf:RDF>
  </metadata>
  <path
     d="m 3.2073685,1.4551797 c -0.970703,0 -1.752189,0.7817623 -1.752189,1.75283 V 8.4665002 10.21933 c 0,2.913204 2.344373,5.25849 5.256482,5.25849 h 1.75219 5.2564795 c 0.970703,0 1.752189,-0.781762 1.752189,-1.75283 v -0.0873 l 0.0053,-0.0052 V 10.489785 9.0964608 c -0.0016,-0.00404 -0.0036,-0.00795 -0.0053,-0.011991 V 8.4665267 6.7136966 c 0,-2.9132036 -2.344372,-5.2584902 -5.25648,-5.2584902 H 8.4639375 Z m 4.274298,0.876415 h 0.982185 1.533177 c 2.5480495,0 4.5994425,2.0521259 4.5994425,4.6011792 V 7.4805332 C 14.427404,7.2451966 14.248787,7.0146307 14.047214,6.7975427 13.30547,5.9987433 12.203614,5.3319141 11.063064,5.0840639 10.777929,5.0221199 10.49073,4.9863249 10.205803,4.9813566 9.3510215,4.9664506 8.5203085,5.2278662 7.8479315,5.8886212 c -0.307064,0.3017323 -0.565749,0.7487565 -0.657064,1.2068236 -0.09129,0.4580234 -0.01656,0.9267213 0.345645,1.2735188 0.114908,0.1100777 0.286161,0.2034074 0.458578,0.2345118 0.171419,0.030906 0.344137,6.545e-4 0.468837,-0.1369388 -0.139123,-0.126458 -0.169763,-0.3030043 -0.138593,-0.4758668 0.03147,-0.1740387 0.125112,-0.3444838 0.236145,-0.4604597 0.348473,-0.3640805 0.820493,-0.4408457 1.279897,-0.3491988 0.4594005,0.091657 0.9071615,0.3508113 1.2097835,0.6590203 0.66178,0.6740245 0.923378,1.5073462 0.908565,2.3639544 -0.005,0.285527 -0.04064,0.573657 -0.102653,0.859298 -0.248036,1.142583 -0.916717,2.245726 -1.716259,2.988751 -0.2178275,0.202434 -0.4498475,0.380013 -0.6861515,0.549468 h -0.990714 -1.533177 c -2.548052,0 -4.599444,-2.052126 -4.599444,-4.601178 V 9.4405845 c 0.171187,0.2397091 0.352742,0.4741228 0.557822,0.6949705 0.741741,0.7988 1.843597,1.465629 2.984146,1.713479 1.140549,0.247789 2.320275,0.07644 3.216832,-0.804522 0.307097,-0.301733 0.565753,-0.748757 0.657064,-1.206824 0.09129,-0.4580233 0.01491,-0.9267212 -0.347353,-1.2735188 C 9.2849285,8.4540916 9.1153965,8.3607619 8.9429805,8.3296575 8.7716285,8.2987515 8.5988335,8.3291318 8.4741395,8.4665962 8.6132625,8.5930708 8.6439035,8.7695807 8.6127325,8.942463 8.5812625,9.1165117 8.4876215,9.2869468 8.3766215,9.4029227 8.0281285,9.7670208 7.5561405,9.8437685 7.0967245,9.7521219 6.6373035,9.660465 6.1896465,9.4013278 5.8869385,9.0931013 5.2251505,8.4190682 4.9635635,7.5857551 4.9783735,6.7291472 c 0.005,-0.2855276 0.04064,-0.5736574 0.102652,-0.8592986 0.248037,-1.1425823 0.914962,-2.245726 1.714505,-2.9887506 0.217827,-0.2024335 0.449837,-0.3800136 0.68615,-0.5494685 z"
     overflow="visible"
     stroke-width="0.876249"
     id="path5"
     style="fill:currentColor;fill-opacity:1"
     class="ColorScheme-Text" />
</svg>
