<?xml version='1.0' encoding='UTF-8'?>
<svg xmlns:inkscape="http://www.inkscape.org/namespaces/inkscape" xmlns:sodipodi="http://sodipodi.sourceforge.net/DTD/sodipodi-0.dtd" xmlns="http://www.w3.org/2000/svg" xmlns:svg="http://www.w3.org/2000/svg" xmlns:rdf="http://www.w3.org/1999/02/22-rdf-syntax-ns#" xmlns:cc="http://creativecommons.org/ns#" xmlns:dc="http://purl.org/dc/elements/1.1/" width="64" height="64" version="1.1" viewBox="0 0 16.933 16.933" id="svg7" sodipodi:docname="meridius.svg" inkscape:version="1.4 (e7c3feb100, 2024-10-09)">
  <sodipodi:namedview id="namedview7" pagecolor="#9c4444" bordercolor="#000000" borderopacity="0.25" inkscape:showpageshadow="2" inkscape:pageopacity="0.0" inkscape:pagecheckerboard="0" inkscape:deskcolor="#d1d1d1" inkscape:zoom="6.15625" inkscape:cx="15.837563" inkscape:cy="29.725888" inkscape:window-width="1183" inkscape:window-height="941" inkscape:window-x="35" inkscape:window-y="32" inkscape:window-maximized="0" inkscape:current-layer="svg7" showgrid="false"/>
  <defs id="defs2">
    <style id="current-color-scheme" type="text/css">.ColorScheme-Text {color:#d8dee9} .ColorScheme-Highlight {color:#3b4252}</style></defs>
  <metadata id="metadata2">
    <rdf:RDF>
      <cc:Work rdf:about="">
        <dc:format>image/svg+xml</dc:format>
        <dc:type rdf:resource="http://purl.org/dc/dcmitype/StillImage"/>
      </cc:Work>
    </rdf:RDF>
  </metadata>
  <path id="path5" style="fill:currentColor;fill-opacity:1;stroke:none;stroke-width:0.225807;stroke-dasharray:none;stroke-opacity:1" d="M 8.4758499,1.3078533 C 7.9512147,1.3069825 7.4276279,1.3416845 7.0956734,1.4125756 6.423019,1.5562268 5.8524014,1.756011 5.2613858,2.0545292 3.8367185,2.7741194 2.7735553,3.8372821 2.0539654,5.2619496 1.508154,6.3425656 1.3114984,7.1954167 1.3124553,8.4792313 c 7.619e-4,1.0004089 0.082649,1.5088214 0.376625,2.3424017 0.9333154,2.646453 3.341512,4.535809 6.1119438,4.794695 2.8794009,0.269071 5.6743669,-1.256787 7.0215739,-3.832938 0.553441,-1.0583 0.802115,-2.0757038 0.807256,-3.3041587 C 15.637956,6.5288268 14.935159,4.8314149 13.533995,3.4187392 12.498554,2.3747916 11.313576,1.7288608 9.861662,1.417272 9.5260386,1.3452451 9.0004859,1.308745 8.4758499,1.3078533 Z M 8.6341066,2.196351 c 0.2557514,0.00747 0.5146257,0.030776 0.7757924,0.070441 2.303043,0.3497488 4.265883,1.9869792 4.991461,4.1635409 0.528198,1.5844725 0.407881,3.3955968 -0.321681,4.8430631 -0.878456,1.742879 -2.533818,2.993368 -4.4420199,3.355346 -0.491505,0.09323 -1.7378521,0.11058 -2.2080947,0.03099 C 4.7646681,14.208713 2.671801,12.081089 2.2662285,9.4104629 1.6712997,5.4929603 4.7978499,2.0842309 8.6341066,2.196351 Z M 11.75653,4.2738948 C 11.516561,4.2774131 10.698208,4.3967296 9.1840185,4.6491118 6.712994,5.0609757 6.6691449,5.0706163 6.5025591,5.236121 L 6.333499,5.4047099 6.317064,7.7114223 6.300629,10.018604 6.0714603,9.9669488 C 5.4937771,9.8371534 4.864059,10.157727 4.5710583,10.73053 c -0.3510254,0.686238 -0.076055,1.519648 0.6147167,1.863873 0.7311298,0.364342 1.5833334,0.05597 1.9329043,-0.699246 0.1127137,-0.243506 0.1186322,-0.360352 0.135717,-2.6598575 L 7.2722421,6.8304387 9.0609777,6.5341164 C 10.044696,6.3711547 10.919301,6.2245325 11.004684,6.2082086 l 0.155441,-0.029587 V 7.6264224 9.0737533 L 11.004686,9.0314897 C 10.685626,8.9439865 10.280542,8.9951429 9.9738966,9.1620406 9.4875152,9.4267627 9.2396383,9.8497103 9.2417783,10.410728 c 0.00159,0.416669 0.1366556,0.713107 0.4606854,1.010596 0.3160693,0.290177 0.5785193,0.378835 1.0336063,0.349856 0.270014,-0.0171 0.421468,-0.06314 0.629743,-0.191599 0.308543,-0.190321 0.603678,-0.623086 0.660739,-0.968331 0.0593,-0.358798 0.04212,-5.9775651 -0.01881,-6.1377718 -0.0305,-0.080201 -0.113202,-0.1676693 -0.183616,-0.1944176 -0.01102,-0.0042 -0.03333,-0.00566 -0.06764,-0.00517 z" class="ColorScheme-Text"/>
  </svg>
