<?xml version="1.0" encoding="UTF-8" standalone="no"?>
<svg
   width="64"
   height="64"
   version="1.1"
   viewBox="0 0 16.933 16.933"
   id="svg7"
   sodipodi:docname="mpc-qt.svg"
   inkscape:version="1.4.3 (0d15f75042, 2025-12-25)"
   xmlns:inkscape="http://www.inkscape.org/namespaces/inkscape"
   xmlns:sodipodi="http://sodipodi.sourceforge.net/DTD/sodipodi-0.dtd"
   xmlns="http://www.w3.org/2000/svg"
   xmlns:svg="http://www.w3.org/2000/svg"
   xmlns:rdf="http://www.w3.org/1999/02/22-rdf-syntax-ns#"
   xmlns:cc="http://creativecommons.org/ns#"
   xmlns:dc="http://purl.org/dc/elements/1.1/">
  <sodipodi:namedview
     id="namedview7"
     pagecolor="#9c4444"
     bordercolor="#000000"
     borderopacity="0.25"
     inkscape:showpageshadow="2"
     inkscape:pageopacity="0.0"
     inkscape:pagecheckerboard="0"
     inkscape:deskcolor="#d1d1d1"
     inkscape:zoom="6.15625"
     inkscape:cx="15.837563"
     inkscape:cy="29.563452"
     inkscape:window-width="2560"
     inkscape:window-height="1388"
     inkscape:window-x="0"
     inkscape:window-y="0"
     inkscape:window-maximized="1"
     inkscape:current-layer="svg7"
     showgrid="false" />
  <defs
     id="defs2">
    <style
       id="current-color-scheme"
       type="text/css">.ColorScheme-Text {color:#d8dee9} .ColorScheme-Highlight {color:#3b4252}</style>
  </defs>
  <metadata
     id="metadata2">
    <rdf:RDF>
      <cc:Work
         rdf:about="">
        <dc:format>image/svg+xml</dc:format>
        <dc:type
           rdf:resource="http://purl.org/dc/dcmitype/StillImage" />
      </cc:Work>
    </rdf:RDF>
  </metadata>
  <path
     id="path5"
     style="fill:currentColor"
     d="m 2.2782177,1.4551795 c -0.4569732,0 -0.8248423,0.45989 -0.8248423,1.031106 v 1.649685 H 15.476016 v -1.649685 c 0,-0.571216 -0.367869,-1.031106 -0.824842,-1.031106 z m -0.3092891,0.206264 h 2.6807911 c 0.1142433,0 0.2981779,0.09191 0.412421,0.206157 l 0.6186854,0.618685 c 0.1142435,0.114244 0.1142431,0.206158 0,0.206158 H 3.000035 c -0.1142433,0 -0.2982849,-0.09191 -0.4125282,-0.206158 L 1.9689286,1.8676005 c -0.1142432,-0.114243 -0.1142433,-0.206157 0,-0.206157 z m 4.6398718,0 h 2.6807912 c 0.1142431,0 0.2981782,0.09191 0.4124209,0.206157 l 0.6185785,0.618685 c 0.114243,0.114244 0.114243,0.206158 0,0.206158 H 7.6398 c -0.1142431,0 -0.2981778,-0.09191 -0.4124213,-0.206158 L 6.6088004,1.8676005 c -0.1142431,-0.114243 -0.1142431,-0.206157 0,-0.206157 z m 4.6397646,0 h 2.680791 c 0.114244,0 0.298286,0.09191 0.412529,0.206157 l 0.618577,0.618685 c 0.114244,0.114244 0.114244,0.206158 0,0.206158 h -2.68079 c -0.114243,0 -0.298178,-0.09191 -0.412421,-0.206158 l -0.618686,-0.618685 c -0.114243,-0.114243 -0.114243,-0.206157 0,-0.206157 z m -8.24853,1.237263 h 2.6807911 c 0.1142435,0 0.1142431,0.09191 0,0.206158 l -0.6186854,0.618685 c -0.1142431,0.114243 -0.2981774,0.206264 -0.412421,0.206264 H 1.9689286 c -0.1142433,0 -0.1142432,-0.09202 0,-0.206264 L 2.5875068,3.1048645 C 2.7017501,2.9906205 2.8857917,2.8987065 3.000035,2.8987065 Z m 4.639765,0 h 2.680791 c 0.114243,0 0.114243,0.09191 0,0.206158 L 9.7020125,3.7235495 C 9.5877694,3.8377925 9.4038353,3.9298135 9.2895916,3.9298135 H 6.6088004 c -0.1142431,0 -0.1142431,-0.09202 0,-0.206264 L 7.2273787,3.1048645 C 7.3416218,2.9906205 7.5255569,2.8987065 7.6398,2.8987065 Z m 4.639872,0 h 2.68079 c 0.114244,0 0.114244,0.09191 0,0.206158 l -0.618577,0.618685 c -0.114244,0.114243 -0.298285,0.206264 -0.412529,0.206264 h -2.680791 c -0.114243,0 -0.114243,-0.09202 0,-0.206264 l 0.618686,-0.618685 c 0.114243,-0.114244 0.298178,-0.206158 0.412421,-0.206158 z M 1.4533754,4.4088855 v 6.1197735 0.206264 2.680791 c 0,1.133828 0.9196727,2.062106 2.0621058,2.062106 H 13.41391 c 1.142433,0 2.062106,-0.928279 2.062106,-2.062106 V 9.4975525 c 0,-0.07628 0.0081,-0.132085 0,-0.206157 v -4.88251 z m 7.0113735,0.259542 c 2.7995851,0 5.0771131,2.277635 5.0771131,5.07722 0,2.7995845 -2.277528,5.0771125 -5.0771131,5.0771125 -2.7995844,0 -5.0772199,-2.277528 -5.0772199,-5.0771125 0,-2.799585 2.2776355,-5.07722 5.0772199,-5.07722 z m 0,0.7522 c -2.3930806,0 -4.3250193,1.931939 -4.3250193,4.32502 0,2.3930795 1.9319387,4.3250185 4.3250193,4.3250185 2.3930811,0 4.3249121,-1.931939 4.3249121,-4.3250185 0,-2.393081 -1.931831,-4.32502 -4.3249121,-4.32502 z m -2.2566014,2.068525 h 0.7522004 v 1.755064 H 6.2081475 Z m 3.7608956,0 h 0.7522009 v 1.755064 H 9.9690431 Z m -3.1663888,3.2926285 0.265854,0.265961 c 0.3703839,0.370385 0.8724388,0.578353 1.3962406,0.578353 0.5238018,0 1.0257505,-0.207968 1.3961338,-0.578353 l 0.2658543,-0.265961 0.531922,0.531922 -0.265961,0.265962 c -0.5112392,0.511239 -1.2049478,0.798524 -1.9279491,0.798524 -0.7230012,0 -1.4168164,-0.287285 -1.9280555,-0.798524 L 6.2707327,11.313703 Z"
     class="ColorScheme-Text" />
</svg>
