<?xml version='1.0' encoding='UTF-8'?>
<svg xmlns:inkscape="http://www.inkscape.org/namespaces/inkscape" xmlns:sodipodi="http://sodipodi.sourceforge.net/DTD/sodipodi-0.dtd" xmlns="http://www.w3.org/2000/svg" xmlns:svg="http://www.w3.org/2000/svg" xmlns:rdf="http://www.w3.org/1999/02/22-rdf-syntax-ns#" xmlns:cc="http://creativecommons.org/ns#" xmlns:dc="http://purl.org/dc/elements/1.1/" width="64" height="64" version="1.1" viewBox="0 0 16.933 16.933" id="svg7" sodipodi:docname="mugshot.svg" inkscape:version="1.4 (e7c3feb100, 2024-10-09)">
  <sodipodi:namedview id="namedview7" pagecolor="#9c4444" bordercolor="#000000" borderopacity="0.25" inkscape:showpageshadow="2" inkscape:pageopacity="0.0" inkscape:pagecheckerboard="0" inkscape:deskcolor="#d1d1d1" inkscape:zoom="6.15625" inkscape:cx="15.837563" inkscape:cy="29.725888" inkscape:window-width="1183" inkscape:window-height="941" inkscape:window-x="35" inkscape:window-y="32" inkscape:window-maximized="0" inkscape:current-layer="svg7" showgrid="false"/>
  <defs id="defs2">
    <style id="current-color-scheme" type="text/css">.ColorScheme-Text {color:#d8dee9} .ColorScheme-Highlight {color:#3b4252}</style></defs>
  <metadata id="metadata2">
    <rdf:RDF>
      <cc:Work rdf:about="">
        <dc:format>image/svg+xml</dc:format>
        <dc:type rdf:resource="http://purl.org/dc/dcmitype/StillImage"/>
      </cc:Work>
    </rdf:RDF>
  </metadata>
  <path id="path19" style="fill:currentColor;fill-opacity:1;stroke:none;stroke-width:0.525867;stroke-dasharray:none;stroke-dashoffset:2.2;stroke-opacity:0.3" d="M 8.4698668,1.8884715 C 8.0621584,1.8934578 7.6491892,1.9850656 7.254826,2.174001 5.3818147,3.0713337 4.9649372,5.4794407 6.4331582,6.9232398 6.8766131,7.3593197 7.3396399,7.614684 7.9101054,7.7387451 8.3784457,7.8405984 8.5631141,7.8452732 9.0090867,7.7644208 10.094551,7.567641 11.046428,6.7140185 11.355973,5.6588989 11.501958,5.1613071 11.4811,4.3857296 11.308731,3.8974477 10.864443,2.6388757 9.6929917,1.8735428 8.4698703,1.8884707 Z M 8.6044134,9.8945991 C 8.45928,9.8947382 8.3112328,9.8973541 8.159686,9.9017811 6.8918587,9.9389907 6.2826423,10.040722 5.4153161,10.359854 3.5295167,11.053737 2.514773,12.465571 2.512775,14.398352 v 0.437538 h 5.9796865 5.9796865 v -0.621386 c 0,-1.163054 -0.329194,-1.958962 -1.141094,-2.762853 C 12.247852,10.379128 10.781417,9.8925123 8.6044146,9.8945959 Z" sodipodi:nodetypes="scsssscsssccccccssss" class="ColorScheme-Text"/>
  </svg>
