<?xml version='1.0' encoding='UTF-8'?>
<svg xmlns:inkscape="http://www.inkscape.org/namespaces/inkscape" xmlns:sodipodi="http://sodipodi.sourceforge.net/DTD/sodipodi-0.dtd" xmlns="http://www.w3.org/2000/svg" xmlns:svg="http://www.w3.org/2000/svg" xmlns:rdf="http://www.w3.org/1999/02/22-rdf-syntax-ns#" xmlns:cc="http://creativecommons.org/ns#" xmlns:dc="http://purl.org/dc/elements/1.1/" width="64" height="64" version="1.1" viewBox="0 0 16.933 16.933" id="svg7" sodipodi:docname="multimedia-volume-control.svg" inkscape:version="1.4.2 (ebf0e940d0, 2025-05-08)">
  <sodipodi:namedview id="namedview7" pagecolor="#9c4444" bordercolor="#000000" borderopacity="0.25" inkscape:showpageshadow="2" inkscape:pageopacity="0.0" inkscape:pagecheckerboard="0" inkscape:deskcolor="#d1d1d1" inkscape:zoom="6.15625" inkscape:cx="15.918782" inkscape:cy="29.725888" inkscape:window-width="2560" inkscape:window-height="1376" inkscape:window-x="0" inkscape:window-y="0" inkscape:window-maximized="1" inkscape:current-layer="svg7" showgrid="false"/>
  <defs id="defs2">
    <style id="current-color-scheme" type="text/css">.ColorScheme-Text {color:#d8dee9} .ColorScheme-Highlight {color:#3b4252}</style>
  </defs>
  <metadata id="metadata2">
    <rdf:RDF>
      <cc:Work rdf:about="">
        <dc:format>image/svg+xml</dc:format>
        <dc:type rdf:resource="http://purl.org/dc/dcmitype/StillImage"/>
      </cc:Work>
    </rdf:RDF>
  </metadata>
  <path id="rect10" d="m 8.4665,1.0473329 c -4.110218,0 -7.4191673,3.3089487 -7.4191673,7.4191674 0,4.1102187 3.3089493,7.4191667 7.4191673,7.4191667 4.110218,0 7.419167,-3.308948 7.419167,-7.4191667 0,-4.1102187 -3.308948,-7.4191674 -7.419167,-7.4191674 z m 0,1.112875 a 0.37095837,0.37095837 0 0 1 0.3709591,0.3709584 0.37095837,0.37095837 0 0 1 0,0.011567 c 1.4613539,0.089242 2.7766169,0.7019793 3.7610239,1.6548231 A 0.37095837,0.37095837 0 0 1 12.918,4.0149929 a 0.37095837,0.37095837 0 0 1 0.370958,0.3709582 0.37095837,0.37095837 0 0 1 -0.21156,0.3347308 c 0.756113,0.9309013 1.234805,2.096983 1.312842,3.374853 a 0.37095837,0.37095837 0 0 1 0.01164,0 0.37095837,0.37095837 0 0 1 0.370959,0.3709585 0.37095837,0.37095837 0 0 1 -0.370959,0.3709583 0.37095837,0.37095837 0 0 1 -0.01164,0 C 14.3122,10.115321 13.833511,11.281403 13.077398,12.212304 a 0.37095837,0.37095837 0 0 1 0.21156,0.334738 A 0.37095837,0.37095837 0 0 1 12.918,12.918 0.37095837,0.37095837 0 0 1 12.598483,12.735418 c -1.066995,1.032786 -2.522851,1.666416 -4.131983,1.666416 -1.6091328,0 -3.0649886,-0.63363 -4.1319825,-1.666416 A 0.37095837,0.37095837 0 0 1 4.015,12.918 0.37095837,0.37095837 0 0 1 3.6440418,12.547042 0.37095837,0.37095837 0 0 1 3.8556021,12.212312 C 3.0994895,11.28141 2.6207976,10.115329 2.5427589,8.8374587 a 0.37095837,0.37095837 0 0 1 -0.011639,0 0.37095837,0.37095837 0 0 1 -0.3709581,-0.3709584 0.37095837,0.37095837 0 0 1 0.3709581,-0.3709585 0.37095837,0.37095837 0 0 1 0.011639,0 C 2.6208004,6.8176719 3.0994895,5.6515903 3.8556021,4.7206888 A 0.37095837,0.37095837 0 0 1 3.6440418,4.3859582 0.37095837,0.37095837 0 0 1 4.015,4.0149998 0.37095837,0.37095837 0 0 1 4.3345175,4.1975817 C 5.3189255,3.2447382 6.6341877,2.6320003 8.0955418,2.5427588 a 0.37095837,0.37095837 0 0 1 0,-0.011567 A 0.37095837,0.37095837 0 0 1 8.4665,2.1602334 Z M 8.426657,3.6462152 c -2.6530365,0.021404 -4.7826111,2.1620196 -4.7826111,4.8202851 0,2.6716417 2.1508161,4.8224587 4.8224582,4.8224587 2.6716419,0 4.8224589,-2.150817 4.8224589,-4.8224587 0,-2.6582617 -2.12958,-4.798892 -4.7826109,-4.8202851 0.1866597,0.019735 0.3311111,0.1767245 0.3311111,0.3687846 V 5.127875 c 0,0.2055109 -0.1654476,0.3709583 -0.3709591,0.3709583 -0.2055106,0 -0.3709582,-0.1654474 -0.3709582,-0.3709583 V 4.0149998 c 0,-0.1920601 0.1444514,-0.3490459 0.3311111,-0.3687846 z" class="ColorScheme-Text" style="fill:currentColor;fill-opacity:1;stroke-width:0.370958"/>
</svg>
