<?xml version="1.0" encoding="UTF-8" standalone="no"?>
<svg
   width="64"
   height="64"
   version="1.1"
   viewBox="0 0 16.933 16.933"
   id="svg7"
   sodipodi:docname="netbeans.svg"
   inkscape:version="1.4.3 (0d15f75042, 2025-12-25)"
   xmlns:inkscape="http://www.inkscape.org/namespaces/inkscape"
   xmlns:sodipodi="http://sodipodi.sourceforge.net/DTD/sodipodi-0.dtd"
   xmlns="http://www.w3.org/2000/svg"
   xmlns:svg="http://www.w3.org/2000/svg"
   xmlns:rdf="http://www.w3.org/1999/02/22-rdf-syntax-ns#"
   xmlns:cc="http://creativecommons.org/ns#"
   xmlns:dc="http://purl.org/dc/elements/1.1/">
  <sodipodi:namedview
     id="namedview7"
     pagecolor="#9c4444"
     bordercolor="#000000"
     borderopacity="0.25"
     inkscape:showpageshadow="2"
     inkscape:pageopacity="0.0"
     inkscape:pagecheckerboard="0"
     inkscape:deskcolor="#d1d1d1"
     inkscape:zoom="4.3531262"
     inkscape:cx="89.590787"
     inkscape:cy="35.376875"
     inkscape:window-width="2560"
     inkscape:window-height="1388"
     inkscape:window-x="0"
     inkscape:window-y="0"
     inkscape:window-maximized="1"
     inkscape:current-layer="svg7"
     showgrid="false" />
  <defs
     id="defs2">
    <style
       id="current-color-scheme"
       type="text/css">.ColorScheme-Text {color:#d8dee9} .ColorScheme-Highlight {color:#3b4252}</style>
  </defs>
  <metadata
     id="metadata2">
    <rdf:RDF>
      <cc:Work
         rdf:about="">
        <dc:format>image/svg+xml</dc:format>
        <dc:type
           rdf:resource="http://purl.org/dc/dcmitype/StillImage" />
      </cc:Work>
    </rdf:RDF>
  </metadata>
  <path
     id="path5"
     style="fill:currentColor"
     d="M 8.466499,4.1274012 4.707789,6.3107694 8.466499,8.4665 12.225209,6.3107694 Z m 0,0.1243691 3.544087,2.0585674 L 8.466499,8.3425626 4.922412,6.3103377 Z m 3.75871,2.1863911 -3.64816,2.0922504 v 4.2108432 l 3.64816,-2.119024 z m -7.51742,-0.127392 v 4.3114616 l 3.75871,2.183368 V 8.4665 Z m 0.107528,0.185258 3.543654,2.0326571 V 12.619045 L 4.815317,10.560478 Z M 8.577049,1.4551935 v 2.6087277 l 3.64816,2.1190244 2.266281,-1.3179667 z M 2.330958,5.0567146 V 11.876285 L 4.597239,10.55875 V 6.3746813 l -0.11055,-0.06348 8.35e-4,-4.316e-4 z m 9.894251,5.6933394 -3.64816,2.119025 v 0.128687 2.48004 L 14.49149,12.068021 Z M 8.439869,1.4551797 2.441508,4.9136575 4.786192,6.2767271 8.439869,4.1545327 Z M 8.330803,1.6439091 V 4.0918005 L 4.786192,6.1506235 2.659159,4.9140837 Z m 6.271237,3.3639 -2.296861,1.3355911 2.75e-4,1.106e-4 -0.04831,0.027743 v 4.1907086 l 2.344898,1.363229 z m -0.109065,0.1895815 v 6.5382184 l -2.126767,-1.23638 V 6.4344099 l 0.169828,-0.097507 -0.0015,-7.517e-4 z M 4.786192,10.656273 2.441508,12.019342 8.439869,15.47782 v -2.698927 z m 5.6e-5,0.126103 3.544556,2.059249 V 15.28909 L 2.659159,12.01897 Z"
     class="ColorScheme-Text" />
</svg>
