<?xml version="1.0" encoding="UTF-8" standalone="no"?>
<svg
   width="64"
   height="64"
   version="1.1"
   viewBox="0 0 16.933 16.933"
   id="svg7"
   sodipodi:docname="notesnook-electron.svg"
   inkscape:version="1.4.3 (0d15f75042, 2025-12-25)"
   xmlns:inkscape="http://www.inkscape.org/namespaces/inkscape"
   xmlns:sodipodi="http://sodipodi.sourceforge.net/DTD/sodipodi-0.dtd"
   xmlns="http://www.w3.org/2000/svg"
   xmlns:svg="http://www.w3.org/2000/svg"
   xmlns:rdf="http://www.w3.org/1999/02/22-rdf-syntax-ns#"
   xmlns:cc="http://creativecommons.org/ns#"
   xmlns:dc="http://purl.org/dc/elements/1.1/">
  <sodipodi:namedview
     id="namedview7"
     pagecolor="#9c4444"
     bordercolor="#000000"
     borderopacity="0.25"
     inkscape:showpageshadow="2"
     inkscape:pageopacity="0.0"
     inkscape:pagecheckerboard="0"
     inkscape:deskcolor="#d1d1d1"
     inkscape:zoom="4.3531262"
     inkscape:cx="90.165086"
     inkscape:cy="34.457995"
     inkscape:window-width="2560"
     inkscape:window-height="1388"
     inkscape:window-x="0"
     inkscape:window-y="0"
     inkscape:window-maximized="1"
     inkscape:current-layer="svg7"
     showgrid="false" />
  <defs
     id="defs2">
    <style
       id="current-color-scheme"
       type="text/css">.ColorScheme-Text {color:#d8dee9} .ColorScheme-Highlight {color:#3b4252}</style>
  </defs>
  <metadata
     id="metadata2">
    <rdf:RDF>
      <cc:Work
         rdf:about="">
        <dc:format>image/svg+xml</dc:format>
        <dc:type
           rdf:resource="http://purl.org/dc/dcmitype/StillImage" />
      </cc:Work>
    </rdf:RDF>
  </metadata>
  <path
     id="path5"
     d="m 5.6619695,1.45518 c -2.33056,0 -4.20679,1.87623 -4.20679,4.20679 v 5.60906 c 0,2.33056 1.87623,4.20679 4.20679,4.20679 H 11.27103 c 2.330561,0 4.206791,-1.87623 4.206791,-4.20679 V 5.66197 c 0,-2.33056 -1.87623,-4.20679 -4.206791,-4.20679 z m -0.67958,2.00893 h 3.48411 c 0.92405,0 1.8102305,0.36708 2.4636305,1.02048 0.6534,0.6534 1.02048,1.53961 1.02048,2.46366 v 3.03604 c 0,0.0392 1e-5,0.0786 -0.002,0.11777 L 10.72587,9.59075 V 6.94825 C 10.72567,6.36471 10.49967,5.80389 10.09524,5.38324 9.6907895,4.96261 9.1392695,4.71477 8.5561995,4.69167 c -0.58309,-0.0231 -1.15247,0.18032 -1.58892,0.56764 -0.43645,0.38733 -0.70612,0.9285 -0.75248,1.51018 -0.004,0.0589 -0.007,0.11866 -0.007,0.17876 v 0.75429 l -1.22518,-0.51215 z m 0,4.81295 1.22518,0.51182 v 1.19469 c -1.1e-4,0.32177 0.0687,0.63982 0.20168,0.93278 0.13302,0.29298 0.32721,0.55407 0.56954,0.76574 0.046,0.0401 0.0937,0.0791 0.14302,0.1155 0.36168,0.26925 0.79596,0.42356 1.24645,0.44284 0.0153,0 0.0301,10e-4 0.0453,0.002 0.0152,3.5e-4 0.0349,0 0.0523,0 h 0.0523 c 0.0174,0 0.03,0 0.0453,-0.002 0.45032,-0.0193 0.88442,-0.17348 1.24607,-0.44248 0.0491,-0.0364 0.0969,-0.0753 0.14305,-0.11534 C 10.27089,11.4042 10.50471,11.04206 10.62745,10.63738 l 1.1372,0.47504 c -0.26719,0.78062 -0.80265,1.44113 -1.51113,1.86398 -0.7084705,0.42284 -1.5440105,0.58063 -2.3578905,0.44524 -0.81389,-0.13538 -1.55335,-0.55515 -2.0868,-1.18458 -0.53344,-0.62944 -0.82625,-1.42769 -0.82635,-2.25277 z"
     style="fill:currentColor"
     class="ColorScheme-Text" />
</svg>
