<?xml version='1.0' encoding='UTF-8'?>
<svg xmlns:inkscape="http://www.inkscape.org/namespaces/inkscape" xmlns:sodipodi="http://sodipodi.sourceforge.net/DTD/sodipodi-0.dtd" xmlns="http://www.w3.org/2000/svg" xmlns:svg="http://www.w3.org/2000/svg" xmlns:rdf="http://www.w3.org/1999/02/22-rdf-syntax-ns#" xmlns:cc="http://creativecommons.org/ns#" xmlns:dc="http://purl.org/dc/elements/1.1/" width="64" height="64" version="1.1" viewBox="0 0 16.933 16.933" id="svg7" sodipodi:docname="nvidia-settings.svg" inkscape:version="1.4 (e7c3feb100, 2024-10-09)">
  <sodipodi:namedview id="namedview7" pagecolor="#9c4444" bordercolor="#000000" borderopacity="0.25" inkscape:showpageshadow="2" inkscape:pageopacity="0.0" inkscape:pagecheckerboard="0" inkscape:deskcolor="#d1d1d1" inkscape:zoom="6.15625" inkscape:cx="15.837563" inkscape:cy="29.725888" inkscape:window-width="1183" inkscape:window-height="941" inkscape:window-x="35" inkscape:window-y="32" inkscape:window-maximized="0" inkscape:current-layer="svg7" showgrid="false"/>
  <defs id="defs2">
    <style id="current-color-scheme" type="text/css">.ColorScheme-Text {color:#d8dee9} .ColorScheme-Highlight {color:#3b4252}</style></defs>
  <metadata id="metadata2">
    <rdf:RDF>
      <cc:Work rdf:about="">
        <dc:format>image/svg+xml</dc:format>
        <dc:type rdf:resource="http://purl.org/dc/dcmitype/StillImage"/>
      </cc:Work>
    </rdf:RDF>
  </metadata>
  <path style="fill:currentColor;fill-opacity:1;stroke:none;stroke-width:0.838443;stroke-dasharray:none;stroke-opacity:0.3" d="M 7.4973955,12.120161 C 5.3060702,11.983717 3.5485271,10.957234 2.2472851,9.0538729 1.9066134,8.555557 1.4549501,7.7253442 1.3623857,7.427303 1.3132044,7.2689021 1.448687,7.1311614 2.2607036,6.5135949 4.2737861,4.9826621 6.4153394,4.2443379 8.2169167,4.4601376 9.810081,4.6509026 11.238024,5.369011 12.563814,6.6459635 c 0.341933,0.3293573 0.621703,0.6178609 0.621703,0.6411509 0,0.073332 -1.088041,1.1422693 -1.531537,1.5046388 C 11.081489,9.2595317 10.271022,9.7816705 9.7279254,10.03259 8.4801881,10.609086 7.1166332,10.627676 6.0788566,10.082304 5.2869497,9.6661608 4.5352459,8.8029416 4.2119225,7.9383612 L 4.0737298,7.5688319 4.3813489,7.2938368 C 5.1671106,6.5913465 6.2121908,6.1722738 7.3469368,6.1046611 8.3070432,6.0474641 9.1509277,6.3460303 9.8282001,6.9826479 L 10.192619,7.325178 9.6275136,7.8051714 C 9.3166937,8.0692066 9.0176459,8.3196253 8.9629481,8.3617517 8.8759422,8.4287406 8.8348106,8.3908519 8.6342113,8.059662 8.1184327,7.2077307 7.6731673,6.9135155 6.8995833,6.9135155 c -0.4422714,0 -0.905677,0.1950992 -1.3047935,0.5492622 L 5.335348,7.6929597 5.4215453,7.9541462 C 5.468956,8.097771 5.6068162,8.3685843 5.7278404,8.5558802 6.4133058,9.6164205 7.4822979,10.045287 8.5944184,9.705936 9.2927532,9.4928589 9.9360386,9.0484773 10.792889,8.1872555 c 0.422096,-0.4242527 0.767446,-0.799957 0.767446,-0.8349054 0,-0.034949 -0.215951,-0.2774524 -0.479844,-0.5388871 C 10.288666,6.0290567 9.4532348,5.5396184 8.4906416,5.2962024 7.8351326,5.1304295 6.723382,5.1601753 6.0226829,5.3622924 4.9019138,5.6855291 3.7983033,6.3752468 3.1358528,7.1664676 L 2.8854643,7.4655171 3.0935607,7.9457478 C 4.0124235,10.066134 5.7462468,11.323202 7.7506402,11.32228 9.5776331,11.32041 11.276527,10.606601 13.243828,9.0109025 l 0.630169,-0.5111249 0.332908,0.1866598 c 0.706405,0.3960804 1.446453,0.8353511 1.446453,0.8585828 0,0.052961 -1.018533,0.6936668 -1.426943,0.8976408 -1.282649,0.640606 -3.266095,1.267019 -4.7822009,1.510338 -0.6800126,0.109079 -1.604242,0.188442 -1.9468486,0.167124 z" id="path1-5" class="ColorScheme-Text"/>
  </svg>
