<?xml version="1.0" encoding="UTF-8" standalone="no"?>
<svg
   width="64"
   height="64"
   version="1.1"
   viewBox="0 0 16.933 16.933"
   id="svg7"
   sodipodi:docname="com.obsproject.Studio.svg"
   inkscape:version="1.4.2 (ebf0e940d0, 2025-05-08)"
   xmlns:inkscape="http://www.inkscape.org/namespaces/inkscape"
   xmlns:sodipodi="http://sodipodi.sourceforge.net/DTD/sodipodi-0.dtd"
   xmlns="http://www.w3.org/2000/svg"
   xmlns:svg="http://www.w3.org/2000/svg"
   xmlns:rdf="http://www.w3.org/1999/02/22-rdf-syntax-ns#"
   xmlns:cc="http://creativecommons.org/ns#"
   xmlns:dc="http://purl.org/dc/elements/1.1/">
  <sodipodi:namedview
     id="namedview7"
     pagecolor="#9c4444"
     bordercolor="#000000"
     borderopacity="0.25"
     inkscape:showpageshadow="2"
     inkscape:pageopacity="0.0"
     inkscape:pagecheckerboard="0"
     inkscape:deskcolor="#d1d1d1"
     inkscape:zoom="8.7062524"
     inkscape:cx="65.69991"
     inkscape:cy="24.924616"
     inkscape:window-width="2560"
     inkscape:window-height="1384"
     inkscape:window-x="0"
     inkscape:window-y="0"
     inkscape:window-maximized="1"
     inkscape:current-layer="svg7"
     showgrid="false" />
  <defs
     id="defs2">
    <style
       id="current-color-scheme"
       type="text/css">.ColorScheme-Text {color:#d8dee9} .ColorScheme-Highlight {color:#3b4252}</style>
  </defs>
  <metadata
     id="metadata2">
    <rdf:RDF>
      <cc:Work
         rdf:about="">
        <dc:format>image/svg+xml</dc:format>
        <dc:type
           rdf:resource="http://purl.org/dc/dcmitype/StillImage" />
      </cc:Work>
    </rdf:RDF>
  </metadata>
  <path
     id="path15"
     style="fill:currentColor;fill-opacity:1;stroke-width:0.0145024"
     class="ColorScheme-Text"
     d="m 8.4665145,1.250015 c -3.985569,0 -7.216515,3.23092 -7.216515,7.21649 0,3.98557 3.230946,7.21648 7.216515,7.21648 3.9855685,0 7.2164865,-3.23091 7.2164865,-7.21648 0,-3.98557 -3.230918,-7.21649 -7.2164865,-7.21649 z m -2.9e-5,0.94013 c 3.4684215,0 6.2764945,2.80808 6.2764945,6.27636 0,3.46841 -2.808218,6.27638 -6.2764945,6.27638 -3.468277,0 -6.276382,-2.80796 -6.276382,-6.27638 0,-3.46828 2.80796,-6.27636 6.276382,-6.27636 z m -1.581551,0.31846 c -1.792775,0.91598 -2.527358,3.0945 -1.655253,4.90917 0.0083,0.0173 0.01675,0.0345 0.02529,0.0515 0.003,0.006 0.0059,0.0118 0.0089,0.0175 0.0053,0.0121 0.01162,0.0239 0.01918,0.0353 l 0.0067,0.0102 0.0082,0.009 c 0.05753,0.0638 0.137368,0.06 0.140634,0.0587 l 2.9e-5,-3e-5 h 2.9e-5 v -3e-5 -3e-5 l -2.9e-5,-3e-5 -2.9e-5,-3e-5 h -2.9e-5 -2.9e-5 c -2.85e-4,-7e-5 -0.0011,-1.3e-4 -0.0024,-1.1e-4 0.03486,-6.4e-4 0.07013,-4.6e-4 0.10568,3.1e-4 0.0651,0.001 0.13007,0.005 0.194961,0.0111 h 2.9e-5 c 1.1e-5,0 7.1e-5,0 8.7e-5,0 h 2.9e-5 2.9e-5 c 6e-6,0 7.2e-5,10e-6 8.8e-5,3e-5 h 2.9e-5 c 1.235594,0.11695 2.235458,1.05063 2.436595,2.27534 v 3e-5 l 2.9e-5,3e-5 v 3e-5 3e-5 3e-5 c 4e-6,10e-6 2.9e-5,8e-5 2.9e-5,1.1e-4 v 3e-5 c 0.0441,0.27234 0.04703,0.54978 0.0087,0.82301 -0.07277,0.51515 -0.291844,0.99856 -0.631193,1.39282 -0.194741,0.22608 -0.424762,0.41917 -0.681158,0.57183 -8.7e-5,4e-5 -1.46e-4,8e-5 -2.27e-4,1.4e-4 -0.511543,0.30194 -1.107446,0.42907 -1.697683,0.36216 h -1.7e-4 c -0.106834,-0.0122 -0.212859,-0.0307 -0.317438,-0.0551 -0.06743,-0.0158 -0.134505,-0.0345 -0.201164,-0.0557 l -0.116387,0.30708 c 0.330821,0.1466 0.681441,0.24364 1.040574,0.288 0.334777,0.0413 0.673592,0.0373 1.007291,-0.0121 l 8.7e-5,-3e-5 h 1.16e-4 c 0.597177,-0.089 1.163436,-0.32288 1.649277,-0.68124 0.356428,-0.26269 0.663269,-0.5867 0.9062,-0.9569 0.0104,-0.0159 0.02071,-0.0318 0.03087,-0.0478 -8.8e-5,1.6e-4 -1.48e-4,2.9e-4 -1.7e-4,3.6e-4 v 3e-5 3e-5 3e-5 h 2.9e-5 2.9e-5 l 6e-5,-3e-5 c 0.0022,-0.001 0.04801,-0.0629 0.03481,-0.13905 l -0.0027,-0.0157 -0.0057,-0.0149 c -0.0073,-0.0191 -0.01663,-0.0374 -0.02782,-0.0546 -0.0168,-0.0318 -0.03297,-0.0638 -0.04849,-0.0962 -0.0337,-0.0703 -0.06432,-0.14201 -0.09189,-0.2151 -0.05582,-0.14805 -0.09855,-0.30071 -0.127689,-0.45609 -0.06249,-0.33456 -0.06231,-0.67783 5.38e-4,-1.01227 0.05345,-0.28389 0.152044,-0.55735 0.292001,-0.81007 l 8.8e-5,-2e-4 1.15e-4,-1.7e-4 c 0.475742,-0.8641 1.3808355,-1.40303 2.3672845,-1.4095 0.06694,-4.7e-4 0.13381,0.001 0.200625,0.006 4.4e-5,10e-6 7.1e-5,0 1.15e-4,0 h 1.43e-4 c 0.06442,0.004 0.128633,0.0108 0.192666,0.0194 h 2.9e-5 c 1.2e-5,0 7.1e-5,0 8.8e-5,0 h 2.9e-5 c 1.4e-5,0 8.7e-5,3e-5 1.15e-4,3e-5 h 2.9e-5 c 0.06324,0.009 0.126135,0.0196 0.188728,0.0327 0.0614,0.013 0.122335,0.028 0.18281,0.045 0.05912,0.0168 0.117607,0.0355 0.175359,0.0562 0.0587,0.0211 0.116589,0.0442 0.173746,0.0693 l 1.64e-4,6e-5 1.64e-4,5e-5 c 0.05809,0.0254 0.115132,0.0528 0.171225,0.0824 l 1.09e-4,3e-5 1.1e-4,6e-5 c 0.05624,0.0296 0.111424,0.0611 0.165616,0.0946 0.05114,0.0316 0.100944,0.0645 0.148819,0.0988 0.05033,0.0361 0.0995,0.0737 0.147517,0.11287 l 5.5e-5,9e-5 1.09e-4,9e-5 c 0.04856,0.0395 0.09603,0.0816 0.142758,0.12559 0.0492,0.0463 0.09663,0.0944 0.142277,0.1444 l 1.1e-4,1.2e-4 1.09e-4,1.4e-4 c 0.04548,0.0496 0.08903,0.10082 0.130635,0.15381 l 5.6e-5,8e-5 1.09e-4,9e-5 c 0.0467,0.0593 0.09092,0.12018 0.131938,0.1825 0.04279,0.065 0.08301,0.13133 0.119871,0.19881 0.05158,0.0946 0.09753,0.19211 0.137631,0.29209 0.04326,0.10891 0.07972,0.22041 0.109192,0.33384 l 0.322197,-0.0628 c -0.08836,-0.67217 -0.359677,-1.30714 -0.784289,-1.83546 -0.312117,-0.38894 -0.699118,-0.71127 -1.138096,-0.94795 -0.450403,-0.24273 -0.946417,-0.38907 -1.456384,-0.42966 -0.08224,-0.007 -0.135053,0.0451 -0.154257,0.0693 -0.0022,0.003 -0.0044,0.006 -0.0065,0.009 l -0.0086,-0.004 c -0.763583,1.32968 -2.5939075,1.7688 -3.9018395,0.96379 l -5.8e-5,-3e-5 c -7.2e-5,-4e-5 -1.48e-4,-1.2e-4 -2.26e-4,-1.7e-4 -0.228852,-0.14162 -0.435888,-0.31573 -0.614538,-0.51685 -0.470071,-0.52994 -0.714851,-1.2222 -0.682404,-1.92983 0.0039,-0.0801 0.0106,-0.15921 0.0209,-0.23734 0.01021,-0.0773 0.02385,-0.15447 0.0407,-0.2307 0.01729,-0.0782 0.03802,-0.15551 0.06223,-0.23207 0.0234,-0.0742 0.05006,-0.14732 0.08002,-0.21935 l 2.9e-5,-8e-5 6e-5,-9e-5 c 0.03096,-0.0747 0.06569,-0.14825 0.103471,-0.22099 0.03899,-0.0751 0.08254,-0.14883 0.129417,-0.22088 0.04299,-0.0661 0.08876,-0.13012 0.137348,-0.19224 l 1.16e-4,-1.7e-4 1.16e-4,-1.5e-4 c 0.05271,-0.0677 0.108614,-0.1329 0.167429,-0.19481 0.05989,-0.0631 0.122435,-0.12328 0.187709,-0.18075 0.06554,-0.0577 0.1349,-0.11228 0.207084,-0.16437 0.03667,-0.0265 0.07404,-0.0519 0.11211,-0.0764 z" />
</svg>
