<?xml version="1.0" encoding="UTF-8" standalone="no"?>
<svg
   width="64"
   height="64"
   version="1.1"
   viewBox="0 0 16.933 16.933"
   id="svg7"
   sodipodi:docname="org.openrgb.OpenRGB-alt.svg"
   inkscape:version="1.4.3 (0d15f75042, 2025-12-25)"
   xmlns:inkscape="http://www.inkscape.org/namespaces/inkscape"
   xmlns:sodipodi="http://sodipodi.sourceforge.net/DTD/sodipodi-0.dtd"
   xmlns="http://www.w3.org/2000/svg"
   xmlns:svg="http://www.w3.org/2000/svg"
   xmlns:rdf="http://www.w3.org/1999/02/22-rdf-syntax-ns#"
   xmlns:cc="http://creativecommons.org/ns#"
   xmlns:dc="http://purl.org/dc/elements/1.1/">
  <sodipodi:namedview
     id="namedview7"
     pagecolor="#9c4444"
     bordercolor="#000000"
     borderopacity="0.25"
     inkscape:showpageshadow="2"
     inkscape:pageopacity="0.0"
     inkscape:pagecheckerboard="0"
     inkscape:deskcolor="#d1d1d1"
     inkscape:zoom="4.3531262"
     inkscape:cx="89.935366"
     inkscape:cy="34.457995"
     inkscape:window-width="2560"
     inkscape:window-height="1388"
     inkscape:window-x="0"
     inkscape:window-y="0"
     inkscape:window-maximized="1"
     inkscape:current-layer="svg7"
     showgrid="false" />
  <defs
     id="defs2">
    <style
       id="current-color-scheme"
       type="text/css">.ColorScheme-Text {color:#d8dee9} .ColorScheme-Highlight {color:#3b4252}</style>
  </defs>
  <metadata
     id="metadata2">
    <rdf:RDF>
      <cc:Work
         rdf:about="">
        <dc:format>image/svg+xml</dc:format>
        <dc:type
           rdf:resource="http://purl.org/dc/dcmitype/StillImage" />
      </cc:Work>
    </rdf:RDF>
  </metadata>
  <path
     id="path5"
     style="fill:currentColor"
     d="m 7.7813775,13.438163 h 1.370245 c 0.189707,0 0.342432,0.151578 0.342432,0.339858 v 1.359941 c 0,0.188281 -0.152725,0.339858 -0.342432,0.339858 h -1.370245 c -0.189707,0 -0.342432,-0.151577 -0.342432,-0.339858 v -1.359941 c 0,-0.18828 0.152725,-0.339858 0.342432,-0.339858 z m -0.684773,-2.294364 c -0.379558,0 -0.684949,0.317924 -0.684949,0.713414 v 2.141989 c 0,0.395489 0.305391,0.713997 0.684949,0.713997 h 0.04358 v -0.935341 c 0,-0.352486 0.28564,-0.636148 0.640796,-0.636148 h 1.371058 c 0.355157,0 0.640796,0.283662 0.640796,0.636148 v 0.935341 h 0.04358 c 0.3795575,0 0.6849475,-0.318508 0.6849475,-0.713997 v -2.141989 c 0,-0.39549 -0.30539,-0.713414 -0.6849475,-0.713414 z M 2.8149515,7.0642359 c 0,1.435483 0.552194,2.8705417 1.655727,3.9657791 L 7.0144765,8.5053412 A 2.0551086,2.0396568 0 0 1 6.4113915,7.0642359 Z m 1.655727,-3.965778 c -1.103533,1.0952365 -1.655727,2.5302952 -1.655727,3.965778 h 3.59644 a 2.0551086,2.0396568 0 0 1 0.603085,-1.4411052 z m 6.0509295,3.965778 A 2.0551086,2.0396568 0 0 1 9.9185235,8.5053412 l 2.5437975,2.5246738 c 1.103533,-1.0952374 1.655727,-2.5302961 1.655727,-3.9657791 z m 1.940713,-3.965778 -2.5437975,2.5246728 a 2.0551086,2.0396568 0 0 1 0.6030845,1.4411052 h 3.59644 c 0,-1.4354828 -0.552194,-2.8705415 -1.655727,-3.965778 z M 9.9183105,8.5050921 A 2.0551086,2.0396568 0 0 1 9.3001735,8.9257058 L 10.19078,10.914901 c 0.371291,0.146586 0.628596,0.516748 0.628596,0.942312 v 0.307909 c 0.595113,-0.270474 1.152918,-0.648851 1.642945,-1.135192 z m -1.45181,-7.0499124 v 3.5693994 a 2.0551086,2.0396568 0 0 1 1.452023,0.5985516 L 12.462321,3.0984579 C 11.358788,2.0032218 9.9128585,1.4551797 8.4665005,1.4551797 Z m 0,0 c -1.446358,0 -2.892288,0.5480421 -3.995822,1.6432782 l 2.543798,2.5246728 A 2.0551086,2.0396568 0 0 1 8.4665005,5.0245791 Z M 7.0146895,8.5050921 4.4706785,11.02993 c 0.490027,0.486341 1.047832,0.864718 1.642946,1.135192 v -0.307909 c 0,-0.425621 0.257227,-0.795765 0.628596,-0.942312 L 7.6328275,8.9268659 A 2.0551086,2.0396568 0 0 1 7.0146895,8.5050921 Z"
     class="ColorScheme-Text" />
</svg>
