<?xml version="1.0" encoding="UTF-8" standalone="no"?>
<svg
   width="64"
   height="64"
   version="1.1"
   viewBox="0 0 16.933 16.933"
   id="svg7"
   sodipodi:docname="openmw-cs.svg"
   inkscape:version="1.4.2 (ebf0e940d0, 2025-05-08)"
   xmlns:inkscape="http://www.inkscape.org/namespaces/inkscape"
   xmlns:sodipodi="http://sodipodi.sourceforge.net/DTD/sodipodi-0.dtd"
   xmlns="http://www.w3.org/2000/svg"
   xmlns:svg="http://www.w3.org/2000/svg"
   xmlns:rdf="http://www.w3.org/1999/02/22-rdf-syntax-ns#"
   xmlns:cc="http://creativecommons.org/ns#"
   xmlns:dc="http://purl.org/dc/elements/1.1/">
  <sodipodi:namedview
     id="namedview7"
     pagecolor="#9c4444"
     bordercolor="#000000"
     borderopacity="0.25"
     inkscape:showpageshadow="2"
     inkscape:pageopacity="0.0"
     inkscape:pagecheckerboard="0"
     inkscape:deskcolor="#d1d1d1"
     inkscape:zoom="4.3531262"
     inkscape:cx="89.935366"
     inkscape:cy="34.457995"
     inkscape:window-width="2560"
     inkscape:window-height="1388"
     inkscape:window-x="0"
     inkscape:window-y="0"
     inkscape:window-maximized="1"
     inkscape:current-layer="svg7"
     showgrid="false" />
  <defs
     id="defs2">
    <style
       id="current-color-scheme"
       type="text/css">.ColorScheme-Text {color:#d8dee9} .ColorScheme-Highlight {color:#3b4252}</style>
  </defs>
  <metadata
     id="metadata2">
    <rdf:RDF>
      <cc:Work
         rdf:about="">
        <dc:format>image/svg+xml</dc:format>
        <dc:type
           rdf:resource="http://purl.org/dc/dcmitype/StillImage" />
      </cc:Work>
    </rdf:RDF>
  </metadata>
  <path
     id="path5"
     d="m 8.3295492,1.4551797 c -3.771035,0 -6.87438,3.1652855 -6.87438,7.0113204 0,3.8463829 3.103345,7.0113199 6.87438,7.0113199 0.4957,-0.0028 0.989651,-0.06012 1.473081,-0.171174 -0.203327,0.04456 -0.408767,0.07939 -0.61525,0.10515 -3.416263,-0.439676 -6.008007,-3.433109 -6.013616,-6.9452959 0.0042,-3.5096346 2.591591,-6.5022795 6.004323,-6.9462739 -0.281451,-0.037925 -0.564217,-0.063032 -0.848538,-0.065047 z m -0.470975,0.6426392 c -2.592051,0.9329378 -4.427016,3.4656566 -4.430493,6.3686812 0.0046,2.9026489 1.840884,5.4347849 4.433427,6.3667249 -2.237939,-1.249364 -3.711813,-3.672809 -3.714982,-6.3667249 0.002,-2.6940486 1.474436,-5.1183619 3.712048,-6.3686812 z m 2.6898888,0.8989123 c -0.09325,-6.962e-4 -0.129567,0.074575 -0.318873,0.6622019 l -0.188293,0.58444 -0.2870838,0.025921 c -0.158106,0.014621 -0.340936,0.037917 -0.40544,0.051842 -0.08554,0.018102 -0.125549,0.018245 -0.146232,4.873e-4 -0.01578,-0.013228 -0.14865,-0.2336915 -0.295888,-0.4895601 -0.293774,-0.5113887 -0.353518,-0.5932429 -0.436251,-0.5932429 -0.08694,0 -0.66918,0.2364748 -0.711598,0.289041 -0.02104,0.025761 -0.03703,0.078943 -0.03668,0.1168877 3.51e-4,0.038293 0.05246,0.3165811 0.11591,0.6201421 0.06345,0.303213 0.111664,0.5619848 0.107107,0.574169 v 4.874e-4 l -4.91e-4,4.874e-4 c -0.0086,0.014105 -0.07614,0.063249 -0.153568,0.1124864 -0.07993,0.050825 -0.225191,0.1579688 -0.322298,0.2376883 -0.09373,0.077229 -0.180625,0.1413401 -0.196118,0.145254 h -4.9e-4 c -0.01121,0 -0.238153,-0.1255974 -0.504233,-0.2787703 -0.546882,-0.3153972 -0.57334,-0.3277826 -0.650464,-0.2978442 -0.08344,0.032375 -0.492494,0.5623475 -0.492494,0.6382377 0,0.081808 0.01957,0.1072242 0.43674,0.5810162 0.05468,0.061965 0.106943,0.1215515 0.153568,0.1765545 0.1234,0.1462106 0.209323,0.2561833 0.209323,0.2704562 0,0.019495 -0.04188,0.1225673 -0.09341,0.2283959 -0.05188,0.1058287 -0.120827,0.2641229 -0.153079,0.351153 -0.03225,0.08703 -0.07038,0.167935 -0.0851,0.1804674 -0.01613,0.013925 -0.257151,0.025166 -0.624544,0.029343 -0.73759,0.00801 -0.672647,-0.028058 -0.742409,0.419623 -0.02664,0.173364 -0.04967,0.3411337 -0.05038,0.3731607 -0.0025,0.1194053 0.04688,0.1461678 0.647041,0.3477295 l 0.572212,0.192205 0.02446,0.2856172 c 0.01403,0.1576986 0.03643,0.345042 0.04939,0.4157105 0.01262,0.071016 0.01791,0.1378857 0.01125,0.1486773 -0.0066,0.010792 -0.227891,0.1491649 -0.491516,0.308604 -0.263976,0.1594392 -0.500576,0.3145746 -0.527219,0.3438166 -0.02664,0.02924 -0.04939,0.07948 -0.04939,0.111508 0,0.09364 0.23618,0.685109 0.288064,0.722358 0.06836,0.04874 0.127188,0.0414 0.716488,-0.08705 0.29728,-0.06475 0.550513,-0.112818 0.562432,-0.107596 l 4.9e-4,4.88e-4 c 0.01291,0.0071 0.0625,0.07666 0.111509,0.156502 0.04978,0.08111 0.155526,0.229864 0.234754,0.330123 0.09816,0.124975 0.13858,0.194669 0.129114,0.220082 -0.0074,0.02019 -0.129316,0.246971 -0.270945,0.504232 -0.290969,0.527054 -0.307971,0.5634 -0.28904,0.640683 0.01963,0.07902 0.554266,0.51534 0.631391,0.514992 0.07957,0 0.117978,-0.02966 0.563898,-0.441142 0.217,-0.20017 0.411378,-0.366746 0.43136,-0.370227 0.01998,-0.0035 0.122802,0.0375 0.229375,0.09146 0.106571,0.05361 0.269713,0.125039 0.361912,0.158459 0.0922,0.03307 0.16921,0.06135 0.171663,0.06309 0.0025,0.001 0.009,0.287324 0.01565,0.635792 0.01473,0.778398 -0.01987,0.710726 0.406417,0.781046 0.320068,0.05291 0.446692,0.0532 0.497875,9.75e-4 0.01823,-0.01845 0.116877,-0.295046 0.219592,-0.614273 l 0.1868258,-0.580038 0.21568,-0.01712 c 0.118141,-0.0091 0.301941,-0.03178 0.408864,-0.04988 0.193512,-0.03238 0.194789,-0.03232 0.234754,0.01712 0.02244,0.02715 0.160249,0.257723 0.307136,0.512547 0.146887,0.254824 0.287765,0.481529 0.313005,0.502764 0.06976,0.05814 0.11976,0.04873 0.456303,-0.08216 0.320768,-0.124975 0.38525,-0.171184 0.384899,-0.273879 0,-0.03203 -0.05274,-0.310663 -0.116888,-0.620142 -0.06416,-0.309131 -0.111738,-0.571128 -0.106128,-0.580527 0.0056,-0.0094 0.07976,-0.0649 0.165306,-0.123735 0.08519,-0.05883 0.227524,-0.167452 0.316918,-0.241601 0.08626,-0.07217 0.166839,-0.131829 0.181934,-0.135473 h 4.91e-4 c 0.01087,0 0.244272,0.127703 0.518415,0.283661 0.560905,0.31853 0.557071,0.316991 0.63139,0.297844 0.07888,-0.02019 0.504722,-0.566417 0.504722,-0.647529 0,-0.07589 -0.01794,-0.0995 -0.442121,-0.581995 -0.190357,-0.216531 -0.350092,-0.411385 -0.353598,-0.433317 -0.0039,-0.02193 0.0333,-0.119955 0.08168,-0.218125 0.04838,-0.09817 0.117109,-0.255834 0.153568,-0.350175 0.03646,-0.093993 0.07598,-0.1805097 0.08754,-0.192694 0.01262,-0.013228 0.265565,-0.026642 0.624545,-0.033256 0.575628,-0.010444 0.605739,-0.013357 0.648507,-0.057221 0.03541,-0.036205 0.05631,-0.117508 0.09733,-0.3751172 0.02874,-0.1806745 0.05282,-0.3498454 0.05282,-0.3756064 10e-4,-0.1047842 -0.06117,-0.1372151 -0.648019,-0.3359919 L 14.257087,8.4757824 14.233122,8.1906539 c -0.01333,-0.1570022 -0.03544,-0.3438563 -0.04842,-0.415221 -0.01333,-0.071016 -0.01854,-0.138027 -0.01223,-0.1491668 0.0066,-0.010792 0.22789,-0.1498607 0.491516,-0.3086036 0.263626,-0.159091 0.500576,-0.3132485 0.527219,-0.3428388 0.02699,-0.02959 0.04939,-0.078776 0.04939,-0.1090626 0,-0.08703 -0.23199,-0.6772346 -0.283172,-0.7204016 -0.06486,-0.055003 -0.109766,-0.050331 -0.626499,0.062112 -0.60683,0.1319377 -0.639139,0.137933 -0.661225,0.1222676 -0.01051,-0.00731 -0.06611,-0.085545 -0.123245,-0.1736199 -0.0568,-0.088423 -0.160868,-0.232126 -0.231331,-0.3198523 -0.06792,-0.084648 -0.12374,-0.1643282 -0.127159,-0.1790002 v -4.873e-4 c 0,-0.011139 0.125573,-0.2489378 0.278771,-0.5291748 0.153548,-0.2802369 0.284124,-0.5306605 0.291486,-0.5560734 0.02594,-0.089119 -0.02811,-0.1580483 -0.2998,-0.3804974 -0.289568,-0.2374181 -0.340171,-0.2592342 -0.443588,-0.1868251 -0.02944,0.020539 -0.235862,0.2043757 -0.45777,0.4083742 -0.221908,0.2036505 -0.418437,0.3712051 -0.437719,0.3712051 -0.01893,0 -0.119248,-0.043922 -0.223015,-0.096836 C 11.792562,4.63369 11.64431,4.5682213 11.567186,4.5407198 11.34072,4.4599568 11.351017,4.4936748 11.351017,3.826676 c 0,-0.5298388 -0.0037,-0.5820083 -0.04158,-0.6460625 -0.02524,-0.042123 -0.0659,-0.074505 -0.102705,-0.082164 -0.09325,-0.020539 -0.618324,-0.1013786 -0.658289,-0.1017267 z M 10.060861,5.7521568 A 2.7004075,2.7543292 0 0 1 12.76102,8.5066039 2.7004075,2.7543292 0 0 1 10.060861,11.261051 2.7004075,2.7543292 0 0 1 7.3602112,8.5066039 2.7004075,2.7543292 0 0 1 10.060861,5.7521568 Z"
     style="fill:currentColor;stroke-width:0.349341"
     class="ColorScheme-Text" />
</svg>
