<?xml version="1.0" encoding="UTF-8" standalone="no"?>
<!-- Created with Inkscape (http://www.inkscape.org/) -->

<svg
   width="64"
   height="64"
   viewBox="0 0 16.933333 16.933333"
   version="1.1"
   id="svg896"
   inkscape:version="1.4.3 (0d15f75042, 2025-12-25)"
   sodipodi:docname="opensuse.svg"
   xmlns:inkscape="http://www.inkscape.org/namespaces/inkscape"
   xmlns:sodipodi="http://sodipodi.sourceforge.net/DTD/sodipodi-0.dtd"
   xmlns="http://www.w3.org/2000/svg"
   xmlns:svg="http://www.w3.org/2000/svg"
   xmlns:rdf="http://www.w3.org/1999/02/22-rdf-syntax-ns#"
   xmlns:cc="http://creativecommons.org/ns#"
   xmlns:dc="http://purl.org/dc/elements/1.1/">
  <defs
     id="defs890">
    <style
       id="current-color-scheme"
       type="text/css">.ColorScheme-Text {color:#d8dee9} .ColorScheme-Highlight {color:#7f7fff}</style>
  </defs>
  <sodipodi:namedview
     id="base"
     pagecolor="#7f3232"
     bordercolor="#666666"
     borderopacity="1.0"
     inkscape:pageopacity="0.0"
     inkscape:pageshadow="2"
     inkscape:zoom="9.861792"
     inkscape:cx="31.180946"
     inkscape:cy="17.542451"
     inkscape:document-units="px"
     inkscape:current-layer="svg896"
     showgrid="false"
     inkscape:window-width="2560"
     inkscape:window-height="1388"
     inkscape:window-x="0"
     inkscape:window-y="0"
     inkscape:window-maximized="1"
     inkscape:showpageshadow="0"
     inkscape:pagecheckerboard="0"
     inkscape:deskcolor="#505050" />
  <metadata
     id="metadata893">
    <rdf:RDF>
      <cc:Work
         rdf:about="">
        <dc:format>image/svg+xml</dc:format>
        <dc:type
           rdf:resource="http://purl.org/dc/dcmitype/StillImage" />
      </cc:Work>
    </rdf:RDF>
  </metadata>
  <path
     d="m 8.4666665,1.4552085 c -3.872024,0 -7.011458,3.139077 -7.011458,7.011458 0,3.8723825 3.139434,7.0114585 7.011458,7.0114585 3.8720235,0 7.0114565,-3.139076 7.0114575,-7.0114585 0,-3.872381 -3.139434,-7.011458 -7.0114575,-7.011458 z m 0.03357,0.971017 c 3.3362385,0 6.0430245,2.704565 6.0430245,6.040441 0,3.3362395 -2.707142,6.0404425 -6.0430245,6.0404425 -1.801441,0 -3.417923,-0.789526 -4.524522,-2.040171 0.455007,-0.353133 1.216262,-0.266986 2.153796,-0.160107 0.449289,0.05107 0.96146,0.109613 1.490097,0.12138 1.476894,0.0082 3.0659755,-0.260978 4.0467605,-0.68953 0.634078,-0.278075 1.040053,-0.461214 1.293827,-0.692114 0.0915,-0.07502 0.139553,-0.200446 0.188521,-0.330555 l 0.03357,-0.08776 c 0.04111,-0.105055 0.100088,-0.331198 0.126541,-0.454518 0.01179,-0.05399 0.01759,-0.111949 -0.02066,-0.142028 l -0.136872,0.02583 c -0.430345,0.258056 -1.505528,0.74956 -2.512763,0.769577 C 9.3903925,10.853173 6.8747855,9.5706135 6.6124325,9.4351515 l -0.02583,-0.03097 c -0.06291,-0.150115 -0.439374,-1.043843 -0.519081,-1.231843 1.810734,1.19238 3.311981,1.8523565 4.4625415,1.9549355 1.279237,0.113702 2.277096,-0.5847565 2.703866,-0.8832105 0.08328,-0.05679 0.146935,-0.101433 0.173027,-0.111015 l 0.02841,-0.04651 C 13.364596,8.6368935 12.693427,6.4610395 12.188023,5.9384755 12.04791,5.7951495 11.936515,5.6556675 11.710262,5.5226955 9.8809435,4.4564865 5.5374735,3.8143535 5.3340975,3.7846835 l -0.03357,0.01052 -0.01291,0.0284 c 0,0 -0.01629,0.90193 -0.01808,1.002007 -0.149047,-0.04931 -0.611209,-0.200633 -1.273166,-0.382206 0.863708,-1.068722 2.187351,-2.016928 4.503861,-2.016928 z m 1.5959785,3.19712 c 0.03083,-4.64e-4 0.06193,-0.001 0.09297,0 1.024748,0.03681 1.829856,0.89992 1.79483,1.923955 -0.01823,0.495395 -0.227089,0.953115 -0.588808,1.291242 -0.362792,0.339916 -0.83431,0.517095 -1.332565,0.501004 -1.0229605,-0.03821 -1.8280705,-0.901346 -1.7948295,-1.923956 0.01752,-0.496107 0.227527,-0.956772 0.59139,-1.293824 0.33978,-0.318671 0.774657,-0.49148 1.2370125,-0.498421 z m -0.04907,0.547489 c -0.2984465,0.01811 -0.5800825,0.13933 -0.8005725,0.346051 -0.251272,0.2359 -0.399536,0.555296 -0.410615,0.901288 -0.02359,0.714865 0.535782,1.316448 1.2499235,1.342893 0.347063,0.01052 0.67628,-0.110898 0.929696,-0.346051 0.252703,-0.236975 0.399895,-0.559304 0.410618,-0.90387 0.02394,-0.715929 -0.538008,-1.315291 -1.252507,-1.340311 -0.04325,-0.0012 -0.0839,-0.0023 -0.126543,0 z m 0.340888,0.64821 c 0.317397,0 0.573313,0.17247 0.573313,0.384788 0,0.211232 -0.255916,0.384789 -0.573313,0.384789 -0.318469,0 -0.5758945,-0.173907 -0.5758945,-0.384789 0,-0.212318 0.2574245,-0.384788 0.5758945,-0.384788 z"
     id="path5"
     style="fill:currentColor"
     class="ColorScheme-Text" />
</svg>
