<?xml version="1.0" encoding="UTF-8" standalone="no"?>
<svg
   width="64"
   height="64"
   version="1.1"
   viewBox="0 0 16.933 16.933"
   id="svg7"
   sodipodi:docname="OrcaSlicer.svg"
   inkscape:version="1.4.3 (0d15f75042, 2025-12-25)"
   xmlns:inkscape="http://www.inkscape.org/namespaces/inkscape"
   xmlns:sodipodi="http://sodipodi.sourceforge.net/DTD/sodipodi-0.dtd"
   xmlns="http://www.w3.org/2000/svg"
   xmlns:svg="http://www.w3.org/2000/svg"
   xmlns:rdf="http://www.w3.org/1999/02/22-rdf-syntax-ns#"
   xmlns:cc="http://creativecommons.org/ns#"
   xmlns:dc="http://purl.org/dc/elements/1.1/">
  <sodipodi:namedview
     id="namedview7"
     pagecolor="#9c4444"
     bordercolor="#000000"
     borderopacity="0.25"
     inkscape:showpageshadow="2"
     inkscape:pageopacity="0.0"
     inkscape:pagecheckerboard="0"
     inkscape:deskcolor="#d1d1d1"
     inkscape:zoom="6.15625"
     inkscape:cx="15.837563"
     inkscape:cy="30.050761"
     inkscape:window-width="2560"
     inkscape:window-height="1388"
     inkscape:window-x="0"
     inkscape:window-y="0"
     inkscape:window-maximized="1"
     inkscape:current-layer="svg7"
     showgrid="false" />
  <defs
     id="defs2">
    <style
       id="current-color-scheme"
       type="text/css">.ColorScheme-Text {color:#d8dee9} .ColorScheme-Highlight {color:#3b4252}</style>
  </defs>
  <metadata
     id="metadata2">
    <rdf:RDF>
      <cc:Work
         rdf:about="">
        <dc:format>image/svg+xml</dc:format>
        <dc:type
           rdf:resource="http://purl.org/dc/dcmitype/StillImage" />
      </cc:Work>
    </rdf:RDF>
  </metadata>
  <path
     id="path5"
     style="fill:currentColor;stroke-width:0.219104"
     d="m 4.5226325,1.4551797 c -1.699369,0 -3.067453,1.3680839 -3.067453,3.0674526 v 7.8877357 c 0,1.699368 1.368084,3.067452 3.067453,3.067452 h 7.8877345 c 1.699369,0 3.067453,-1.368084 3.067453,-3.067452 V 4.5226323 c 0,-1.6993687 -1.368084,-3.0674526 -3.067453,-3.0674526 z m 4.90373,1.7211628 a 4.3064844,4.3064844 0 0 1 0.564877,0.036803 4.3064844,4.3064844 0 0 1 0.5541775,0.1099798 4.3148103,4.3148103 0 0 1 0.0013,4.272e-4 4.3064844,4.3064844 0 0 1 0.08002,0.02696 4.3064844,4.3064844 0 0 1 0.452329,0.1536295 4.3148103,4.3148103 0 0 1 0.220815,0.1086959 4.3064844,4.3064844 0 0 1 0.282438,0.1395075 4.3148103,4.3148103 0 0 1 0.296989,0.1972791 4.3064844,4.3064844 0 0 1 0.167323,0.1112635 v 4.383e-4 4.381e-4 a 4.3148103,4.3148103 0 0 1 0.439491,0.3834317 l -1.859386,1.869657 a 4.3741875,4.3741875 0 0 0 -4.38e-4,-4.382e-4 v 8.53e-4 L 6.3469295,10.617747 a 4.3695862,4.3695862 0 0 1 -1.077118,-1.8153091 4.3952214,4.3952214 0 0 1 -0.127953,-0.5576021 4.3695862,4.3695862 0 0 1 -0.0184,-0.1904318 4.3952214,4.3952214 0 0 1 -0.03552,-0.3787243 4.3695862,4.3695862 0 0 1 0.0073,-0.223811 4.3952214,4.3952214 0 0 1 0.0137,-0.3504806 4.3695862,4.3695862 0 0 1 0.02953,-0.1835848 4.3952214,4.3952214 0 0 1 0.06804,-0.3907065 4.3695862,4.3695862 0 0 1 0.0321,-0.1082681 4.3952214,4.3952214 0 0 1 0.141647,-0.4501899 4.3695862,4.3695862 0 0 1 0.02182,-0.049213 4.3952214,4.3952214 0 0 1 0.183584,-0.4133872 2.9622828,2.9622828 0 0 0 -1.768235,-1.1254745 0.13847357,0.13847357 0 0 1 -0.02825,-0.2610414 5.0577912,5.0577912 0 0 1 2.076778,-0.4651676 4.9828577,4.9828577 0 0 1 1.294509,0.163044 4.3023215,4.3023215 0 0 1 2.265928,-0.6410496 z m 0.31325,1.2735406 c -0.247539,-0.00839 -0.566141,0.078186 -0.876843,0.2559064 -0.55236,0.3159474 -0.870729,0.7998484 -0.711659,1.0813967 0.159069,0.2815483 0.736157,0.2538968 1.288518,-0.062051 C 9.9919895,5.4091876 10.310576,4.9248588 10.151287,4.6433105 10.081597,4.5201332 9.9321425,4.4564077 9.7396125,4.4498831 Z m 0.8819785,2.1833346 c 0.305885,0.3447746 0.552413,0.7380225 0.729205,1.1639887 C 9.5563395,9.1940029 7.6654265,10.46125 5.6926125,11.590012 Z m 0.994953,1.2371661 A 4.3698054,4.3698054 0 0 1 7.5293175,13.756658 4.3163441,4.3163441 0 0 1 4.5016635,12.500234 48.322896,48.322896 0 0 0 11.616544,7.8703838 Z"
     class="ColorScheme-Text" />
</svg>
