<?xml version='1.0' encoding='UTF-8'?>
<svg xmlns:inkscape="http://www.inkscape.org/namespaces/inkscape" xmlns:sodipodi="http://sodipodi.sourceforge.net/DTD/sodipodi-0.dtd" xmlns="http://www.w3.org/2000/svg" xmlns:svg="http://www.w3.org/2000/svg" xmlns:rdf="http://www.w3.org/1999/02/22-rdf-syntax-ns#" xmlns:cc="http://creativecommons.org/ns#" xmlns:dc="http://purl.org/dc/elements/1.1/" width="64" height="64" version="1.1" viewBox="0 0 16.933 16.933" id="svg7" sodipodi:docname="org.gnome.Photos.svg" inkscape:version="1.4 (e7c3feb100, 2024-10-09)">
  <sodipodi:namedview id="namedview7" pagecolor="#9c4444" bordercolor="#000000" borderopacity="0.25" inkscape:showpageshadow="2" inkscape:pageopacity="0.0" inkscape:pagecheckerboard="0" inkscape:deskcolor="#d1d1d1" inkscape:zoom="6.15625" inkscape:cx="15.837563" inkscape:cy="27.28934" inkscape:window-width="1183" inkscape:window-height="941" inkscape:window-x="35" inkscape:window-y="32" inkscape:window-maximized="0" inkscape:current-layer="svg7" showgrid="false"/>
  <defs id="defs2">
    <style id="current-color-scheme" type="text/css">.ColorScheme-Text {color:#d8dee9} .ColorScheme-Highlight {color:#3b4252}</style></defs>
  <metadata id="metadata2">
    <rdf:RDF>
      <cc:Work rdf:about="">
        <dc:format>image/svg+xml</dc:format>
        <dc:type rdf:resource="http://purl.org/dc/dcmitype/StillImage"/>
      </cc:Work>
    </rdf:RDF>
  </metadata>
  <path id="path60" style="fill:currentColor;stroke:none;stroke-width:0.366466;stroke-dasharray:none;stroke-dashoffset:2.2;stroke-opacity:0.3" d="M 5.6408048,2.1885989 C 5.5178457,2.1872444 5.3947221,2.1966144 5.2723342,2.2178889 4.2439983,2.3966282 3.442216,3.1830929 3.2712511,4.18118 3.0665474,5.376231 3.9962087,6.6732259 5.2080876,6.8833022 6.2038785,7.0559201 7.2507238,6.504664 7.7155816,5.5634193 7.9175172,5.1545367 7.9253271,5.1199054 7.9253271,4.5543749 7.9253271,4.0103291 7.9128631,3.9412132 7.7477056,3.5925704 7.3461078,2.7447665 6.5015188,2.1980962 5.6408048,2.1886002 Z m 6.9811142,2.31759 c -0.804778,0.035473 -1.589684,0.5848608 -1.818736,1.3926319 l -0.0907,0.3193422 -0.393036,0.00188 C 9.6690383,6.2220789 9.1630903,6.5377724 8.8597318,7.130838 8.6434304,7.5537085 8.6629689,7.9564158 8.9268116,8.4762307 L 9.1346684,8.8853246 8.7879275,9.4550381 C 7.497092,11.575272 6.6474742,12.941343 6.6196158,12.941343 c -0.017879,0 -0.2927577,-0.418763 -0.6103395,-0.930625 -0.3175816,-0.511864 -0.8019987,-1.2775 -1.0770697,-1.701582 L 4.4314631,9.5381804 4.3294251,9.6647829 C 4.1374163,9.9019039 1.2852854,14.54033 1.2852854,14.615526 c 0,0.0225 0.056899,0.05103 0.1256584,0.06426 0.068755,0.01292 3.1461205,0.02797 6.8393937,0.03211 6.3510995,0.0072 6.7137525,0.0025 6.6787775,-0.08881 -0.02031,-0.05301 -0.738594,-1.254376 -1.595764,-2.669999 -0.857168,-1.415628 -1.541979,-2.5905706 -1.522069,-2.6104811 0.01993,-0.01991 0.704056,-0.053907 1.520182,-0.075584 1.540469,-0.040913 1.678289,-0.061845 1.997303,-0.3051702 0.36069,-0.2751225 0.514273,-0.8672252 0.321227,-1.2405319 -0.128155,-0.2478402 -0.524825,-0.5559757 -0.764338,-0.594278 -0.11666,-0.018658 -0.230021,-0.062183 -0.252263,-0.09637 -0.02223,-0.034187 -0.05464,-0.3273383 -0.0718,-0.6509658 C 14.535106,5.8797462 14.50881,5.7543141 14.385842,5.5445066 14.192749,5.2150093 13.732708,4.7928185 13.413658,4.6516876 13.160728,4.5398029 12.890178,4.4943634 12.621919,4.5061889 Z" class="ColorScheme-Text"/>
</svg>
