<?xml version='1.0' encoding='UTF-8'?>
<svg xmlns:inkscape="http://www.inkscape.org/namespaces/inkscape" xmlns:sodipodi="http://sodipodi.sourceforge.net/DTD/sodipodi-0.dtd" xmlns="http://www.w3.org/2000/svg" xmlns:svg="http://www.w3.org/2000/svg" xmlns:rdf="http://www.w3.org/1999/02/22-rdf-syntax-ns#" xmlns:cc="http://creativecommons.org/ns#" xmlns:dc="http://purl.org/dc/elements/1.1/" width="64" height="64" version="1.1" viewBox="0 0 16.933 16.933" id="svg7" sodipodi:docname="org.libretro.RetroArch.svg" inkscape:version="1.4 (e7c3feb100, 2024-10-09)">
  <sodipodi:namedview id="namedview7" pagecolor="#9c4444" bordercolor="#000000" borderopacity="0.25" inkscape:showpageshadow="2" inkscape:pageopacity="0.0" inkscape:pagecheckerboard="0" inkscape:deskcolor="#d1d1d1" inkscape:zoom="6.15625" inkscape:cx="33.86802" inkscape:cy="27.28934" inkscape:window-width="1183" inkscape:window-height="941" inkscape:window-x="35" inkscape:window-y="32" inkscape:window-maximized="0" inkscape:current-layer="svg7" showgrid="false"/>
  <defs id="defs2">
    <style id="current-color-scheme" type="text/css">.ColorScheme-Text {color:#d8dee9} .ColorScheme-Highlight {color:#3b4252}</style></defs>
  <metadata id="metadata2">
    <rdf:RDF>
      <cc:Work rdf:about="">
        <dc:format>image/svg+xml</dc:format>
        <dc:type rdf:resource="http://purl.org/dc/dcmitype/StillImage"/>
      </cc:Work>
    </rdf:RDF>
  </metadata>
  <path style="fill:currentColor;fill-opacity:1;stroke:none;stroke-width:0.0248011;stroke-opacity:0.3" d="m 3.7834834,12.292975 c 0.1207735,-0.134159 1.4216752,-1.705195 1.4216752,-1.716896 0,-0.0072 -0.4631609,-0.01298 -1.0292463,-0.01298 -0.5660856,0 -1.0292467,-0.0061 -1.0292467,-0.01353 0,-0.01058 0.2689265,-0.9149414 0.3370341,-1.1335071 0.012749,-0.04088 -0.048743,-0.043407 -1.0550677,-0.043407 H 1.3600401 l 0.017309,-0.068204 C 1.3868491,9.266934 1.5858634,8.471749 1.8195667,7.537367 l 0.424915,-1.6988768 0.426293,-0.00678 c 0.2843963,-0.00454 0.4262931,0.00183 0.4262931,0.019146 0,0.014269 -0.094863,0.4048988 -0.2108092,0.8680785 C 2.770313,7.1821172 2.6754494,7.5724888 2.6754494,7.58643 c 0,0.016644 0.2323259,0.02535 0.6765581,0.02535 H 4.028566 L 4.1759167,7.0165451 4.3232674,6.4213183 h 1.1849809 c 0.6517397,0 1.1849814,-0.0057 1.1849814,-0.012673 0,-0.00697 -0.254603,-0.3947944 -0.5657841,-0.8618389 C 5.8162594,5.0797647 5.5533287,4.6836867 5.5431508,4.6666361 5.5286348,4.6423237 5.6158923,4.6356338 5.9475565,4.6356338 H 6.3704687 L 6.966037,5.5284746 7.5616049,6.4213148 H 8.4665048 9.3714043 L 9.9669723,5.5284735 10.56254,4.6356327 h 0.422912 c 0.331666,0 0.418921,0.00669 0.404407,0.031004 -0.01026,0.017043 -0.273112,0.4131288 -0.58429,0.8801733 -0.311181,0.4670443 -0.565784,0.8548719 -0.565784,0.861839 0,0.00697 0.533241,0.012673 1.18498,0.012673 h 1.184981 l 0.147345,0.5952267 0.147345,0.5952267 h 0.676558 c 0.444233,0 0.676561,-0.00868 0.676561,-0.02535 0,-0.013927 -0.09487,-0.4043128 -0.210809,-0.8674925 -0.115957,-0.4631797 -0.210812,-0.853815 -0.210812,-0.8680781 0,-0.01729 0.141892,-0.023676 0.426291,-0.019146 l 0.426296,0.00678 0.424916,1.6988765 c 0.2337,0.934382 0.4327,1.7295681 0.442217,1.7670798 l 0.01729,0.068202 h -1.068592 c -1.006326,0 -1.067802,0.00253 -1.055068,0.043402 0.06811,0.2185655 0.337035,1.1230149 0.337035,1.1335089 0,0.0074 -0.463161,0.01353 -1.029247,0.01353 -0.566086,0 -1.029245,0.0059 -1.029245,0.01298 0,0.0117 1.300901,1.582744 1.421671,1.716898 l 0.05024,0.0558 H 12.327573 11.455378 L 10.859812,11.455938 10.264244,10.563097 H 8.4702292 6.6762146 l -0.5929221,0.892197 -0.5929228,0.892194 -0.8785625,6.54e-4 -0.8785628,6.55e-4 z M 6.6932259,8.0457825 V 7.2893486 H 5.9367916 5.1803574 v 0.7564339 0.7564339 h 0.7564342 0.7564343 z m 5.0594301,0 V 7.2893486 h -0.756437 -0.756433 v 0.7564339 0.7564339 h 0.756433 0.756437 z" id="path1526" class="ColorScheme-Text"/>
</svg>
