<?xml version="1.0" encoding="UTF-8" standalone="no"?>
<svg
   width="64"
   height="64"
   version="1.1"
   viewBox="0 0 16.933 16.933"
   id="svg7"
   sodipodi:docname="org.kde.iconexplorer.svg"
   inkscape:version="1.4.2 (ebf0e940d0, 2025-05-08)"
   xmlns:inkscape="http://www.inkscape.org/namespaces/inkscape"
   xmlns:sodipodi="http://sodipodi.sourceforge.net/DTD/sodipodi-0.dtd"
   xmlns="http://www.w3.org/2000/svg"
   xmlns:svg="http://www.w3.org/2000/svg"
   xmlns:rdf="http://www.w3.org/1999/02/22-rdf-syntax-ns#"
   xmlns:cc="http://creativecommons.org/ns#"
   xmlns:dc="http://purl.org/dc/elements/1.1/">
  <sodipodi:namedview
     id="namedview7"
     pagecolor="#9c4444"
     bordercolor="#000000"
     borderopacity="0.25"
     inkscape:showpageshadow="2"
     inkscape:pageopacity="0.0"
     inkscape:pagecheckerboard="0"
     inkscape:deskcolor="#d1d1d1"
     inkscape:zoom="4.3531261"
     inkscape:cx="102.56997"
     inkscape:cy="45.025114"
     inkscape:window-width="2560"
     inkscape:window-height="1392"
     inkscape:window-x="0"
     inkscape:window-y="0"
     inkscape:window-maximized="1"
     inkscape:current-layer="svg7"
     showgrid="false" />
  <defs
     id="defs2">
    <style
       id="current-color-scheme"
       type="text/css">.ColorScheme-Text {color:#d8dee9} .ColorScheme-Highlight {color:#3b4252}</style>
  </defs>
  <metadata
     id="metadata2">
    <rdf:RDF>
      <cc:Work
         rdf:about="">
        <dc:format>image/svg+xml</dc:format>
        <dc:type
           rdf:resource="http://purl.org/dc/dcmitype/StillImage" />
      </cc:Work>
    </rdf:RDF>
  </metadata>
  <path
     id="path5"
     class="ColorScheme-Text"
     style="baseline-shift:baseline;display:inline;overflow:visible;vector-effect:none;fill:currentColor;fill-opacity:1;stroke-width:0.359136;enable-background:accumulate;stop-color:#000000"
     d="m 8.4665724,1.4551617 3.501e-4,3.33e-4 c 0.074191,0 0.1468294,0.00592 0.2197718,0.01093 -0.073074,-0.00509 -0.1457958,-0.011258 -0.220104,-0.011262 z m -0.073443,0.00398 c -0.1126926,0.00148 -0.2222846,0.014926 -0.3334013,0.022749 0.089476,0.4203884 0.08091,0.8598215 -0.08764,1.1749154 C 7.6005459,3.3509175 6.569036,3.2940486 5.9752004,2.9305696 5.7043734,2.7649118 5.5250767,2.5555884 5.4394228,2.3135705 5.219102,2.4468952 5.0072992,2.5943423 4.8052134,2.7547602 4.7272842,2.7482677 4.6466255,2.744269 4.5659527,2.744269 c -0.4369012,0 -0.8738023,0.1168778 -0.8738023,0.5844188 0,0.022922 0.00104,0.048065 0.00312,0.075316 l -0.023453,0.00674 C 2.7667893,3.6701705 1.989912,4.8030218 1.6375007,6.2100436 1.4456098,6.9761833 1.4081312,7.7324739 1.511208,8.3773263 1.6142895,9.0221829 1.8568987,9.5639062 2.2572855,9.874273 l 0.098768,0.076752 c 0.071408,0.291196 0.4321756,0.521478 0.7390305,0.668683 0.015379,0.138413 0.024796,0.276855 0.012663,0.415232 -0.012796,0.146072 -0.049583,0.292039 -0.1287146,0.438099 v 1.13e-4 c -0.047473,0.08761 -0.1102423,0.17523 -0.1921351,0.262834 -0.6826563,0.730245 -1.098611,0.604855 -1.2479437,0.737814 -0.011953,0.01063 -0.022194,0.02291 -0.030721,0.03744 -0.00852,0.0145 -0.015342,0.03125 -0.020481,0.0508 -0.00767,0.0293 -0.011565,0.06487 -0.011565,0.108668 0,0.0073 2.934e-4,0.01467 9.464e-4,0.02219 0.0017,0.02258 0.00663,0.04612 0.013979,0.07035 0.039258,0.129204 0.1535453,0.278529 0.3156775,0.41137 h 1.079e-4 c 0.081052,0.0664 0.1739673,0.128704 0.2754863,0.182325 h 1.126e-4 c 0.1015218,0.05361 0.2116278,0.0986 0.3267952,0.130314 0.1151987,0.03173 0.2354902,0.05022 0.3575145,0.05091 0.1154325,7.26e-4 0.2323376,-0.01528 0.3479347,-0.05036 0.037157,-0.01125 0.07421,-0.02394 0.1109861,-0.03943 0.060487,-0.02546 0.1202602,-0.05674 0.1790317,-0.09453 l 1.136e-4,-1.12e-4 c 0.029358,-0.01885 0.058442,-0.03935 0.087204,-0.06151 h 1.079e-4 v -1.13e-4 c 0.057562,-0.04436 0.1138869,-0.09546 0.168462,-0.153835 0.1957352,-0.209382 0.3476611,-0.395313 0.4655307,-0.557805 0.013704,0.117752 0.00521,0.26714 -0.051969,0.495408 -0.2261403,0.902978 -1.421894,0.826592 -0.8490285,1.46757 0.4426223,0.49525 1.7651505,0.518786 2.5001794,-0.120925 -0.2925069,0.660785 -0.7316274,1.055313 0.1197946,1.055313 1.3107044,0 2.6214078,-0.934768 2.6214078,-2.337022 0,1.402254 1.3107034,2.337022 2.621409,2.337022 0.853596,0 0.410086,-0.396432 0.117592,-1.060284 0.733857,0.644885 2.062122,0.622445 2.505908,0.125896 0.572865,-0.640978 -0.622779,-0.564592 -0.84892,-1.46757 -0.05648,-0.225552 -0.06543,-0.37411 -0.05241,-0.491213 0.117432,0.161489 0.268292,0.346039 0.462336,0.55361 0.873803,0.934712 2.184506,-4e-5 2.184506,-0.467582 0,-0.467172 -0.436901,-7e-6 -1.310703,-0.934719 -0.347232,-0.371436 -0.349514,-0.742897 -0.308407,-1.114398 0.308711,-0.14762 0.673597,-0.379612 0.743547,-0.6734316 l 0.09744,-0.07598 C 15.077906,9.5608188 15.319792,9.0187188 15.422309,8.374453 15.524832,7.7301911 15.486937,6.9750889 15.295357,6.2101515 14.947753,4.8222667 14.186908,3.6995043 13.295172,3.4201274 l -0.02654,-0.00828 c 0.0026,-0.031713 0.0039,-0.060677 0.0039,-0.0868 0,-0.4675408 -0.436901,-0.5844225 -0.873803,-0.5844225 -0.09281,0 -0.185647,0.00528 -0.274272,0.013583 -0.416165,-0.3312024 -0.873363,-0.6071143 -1.362235,-0.8177697 -0.0079,0.1346016 -0.0324,0.2721074 -0.09459,0.4118088 C 10.339417,3.085169 9.3013315,3.5752898 8.8259835,3.3332165 8.3846048,3.1085238 8.1612469,2.1809956 8.3931539,1.4592482 Z M 5.4394218,2.3135705 C 5.6299735,2.1982646 5.8269429,2.0934609 6.029483,1.9997166 5.82703,2.093365 5.6298164,2.1976188 5.4394218,2.3134598 Z M 8.059728,1.4818864 c -3.502e-4,-0.00148 -2.754e-4,-0.00294 -6.502e-4,-0.00464 -0.024162,0.00178 -0.047236,0.00726 -0.071238,0.0095 0.023869,-0.00206 0.047956,-0.00315 0.0719,-0.00486 z m 2.099068,0.233018 c 0.205787,0.062891 0.407174,0.1368784 0.603382,0.2214232 4.9e-5,-7.387e-4 5.5e-5,-0.0018 1.12e-4,-0.00254 C 10.566303,1.8492067 10.364508,1.7772448 10.1588,1.7149073 Z m 0.794636,0.8450498 v 4.408e-4 c 0.213907,0 0.0283,0.2833955 0.0283,0.4874604 0,0.2040648 0.07516,0.9018116 -0.138403,0.9018116 -0.213557,0 -0.663059,-0.5199484 -0.663059,-0.7240133 0,-0.2044336 0.559607,-0.6656979 0.773164,-0.6656979 z M 6.2751312,3.1878825 c 0.00909,1.867e-4 0.018011,7.261e-4 0.026869,0.00166 v -6.511e-4 c 0.040545,0.00406 0.078677,0.015485 0.1136285,0.03578 0.2796166,0.1623663 0.020235,0.7594569 -0.087753,0.9723781 C 6.2195245,4.4103359 5.9759226,4.7767449 5.6963051,4.6143787 5.4166885,4.4520123 5.4243575,3.896336 5.5323595,3.6834148 5.6208319,3.5087088 5.9707636,3.2032464 6.2477206,3.1885559 v -1.132e-4 c 0.00918,-5.509e-4 0.01837,-7.262e-4 0.027418,-5.509e-4 z m 1.7461717,0.074102 v 6.761e-4 c 0.3100253,-0.0048 0.5771263,0.095265 0.6963123,0.3690733 C 8.9563383,4.1793507 8.3470911,5.2720165 7.7661875,5.5616926 7.185284,5.8513687 6.8518581,5.6428311 6.6134852,5.0952145 6.374762,4.5475972 6.4873221,3.8092073 7.0682256,3.5195312 7.3586778,3.3745087 7.7112775,3.2664243 8.0213029,3.2619961 Z m 1.721289,0.243841 C 10.08814,3.5076803 10.379581,3.750607 10.573894,4.1404964 10.850016,4.6954937 10.9356,5.6334797 10.390346,5.9445587 9.8447441,6.2556378 9.0953634,5.9688753 8.819242,5.4142485 8.5431207,4.8596202 8.7340159,3.9515243 9.2792674,3.6404453 9.4155809,3.5629524 9.5469759,3.5200986 9.6724538,3.5090282 l 3.511e-4,-3.255e-4 c 0.023519,-0.00221 0.046773,-0.00287 0.069809,-0.00287 z M 3.5871078,3.8655106 C 3.6979908,4.4618006 3.9093734,5.2850603 3.946164,5.9491974 3.8854173,6.2376815 3.8195817,6.5270919 3.7475318,6.8154469 3.6344446,7.2656409 3.5080676,7.7104279 3.3720691,8.1423225 3.167428,8.4078906 2.9340881,8.6752821 2.7310332,8.9106173 2.5592123,9.1097443 2.4391764,9.2643173 2.3398248,9.4144212 2.1144785,9.1645838 1.9338738,8.8037729 1.8559096,8.3160357 1.805974,8.0036539 1.7920946,7.6550647 1.8177003,7.2881099 2.5366058,7.2062256 2.7236898,6.2886535 3.2945555,6.3942505 3.8578298,6.4983787 3.2826115,5.8562758 2.9032392,5.8397551 c -0.025289,-0.0011 -0.049735,5.484e-4 -0.072894,0.00541 -0.296342,0.062246 -0.3390498,0.193917 -0.7711837,0.1609048 0.3310002,-1.0623807 0.9395509,-1.8615032 1.5279444,-2.140559 z m 9.7893192,0.014468 c 0.579548,0.2924657 1.172314,1.0832041 1.497222,2.1260898 -0.431729,0.03289 -0.474496,-0.098678 -0.770743,-0.1609012 -0.02316,-0.00486 -0.0476,-0.00651 -0.07289,-0.00541 -0.379377,0.016522 -0.95459,0.6586236 -0.391317,0.5544954 0.570855,-0.105597 0.757971,0.8119561 1.476852,0.8938594 0.02577,0.365811 0.01228,0.7133632 -0.03733,1.0250546 -0.07761,0.4877637 -0.258262,0.8494528 -0.483249,1.0998175 C 14.495057,9.2623234 14.37498,9.1070382 14.202443,8.907081 13.998134,8.6703028 13.763721,8.4013098 13.558653,8.1344798 13.423577,7.7050579 13.297711,7.2630158 13.185284,6.8155563 V 6.81478 c -0.06173,-0.2470363 -0.1186,-0.494918 -0.172097,-0.7423458 0.01259,-0.6657384 0.243836,-1.5569555 0.36324,-2.1924607 z m -2.118332,0.463382 c 0.304311,0.00963 0.557035,0.4626702 0.57024,0.6971788 C 11.841965,5.2826127 11.623467,5.9090953 11.306101,5.92976 10.988737,5.950426 10.91366,5.2972991 10.900028,5.0552258 10.886398,4.8135216 10.911218,4.3648005 11.228586,4.3441356 V 4.34381 c 0.0099,-7.261e-4 0.01969,-7.011e-4 0.02951,-3.254e-4 z M 8.156952,5.6109318 h 1.136e-4 2.262e-4 c 0.1407382,0.00221 0.276534,0.040352 0.3973734,0.1258967 0.4837372,0.3420761 0.3747424,1.072333 0.097223,1.5217926 C 8.3743682,7.7080805 7.6193544,7.7660197 7.1356172,7.4239432 6.65188,7.0822359 6.7881794,6.7058859 7.0656986,6.2564266 7.2739608,5.9192326 7.7351787,5.6040909 8.1569596,5.6109322 Z M 6.7165449,5.7231343 h 3.256e-4 c 0.1730124,0 0.2031449,0.1395095 0.2031449,0.384535 0,0.2450254 -0.1685358,0.3542756 -0.3415482,0.3542756 -0.1730134,0 -0.2858384,-0.1092502 -0.2858384,-0.3542756 0,-0.2450255 0.2508961,-0.384535 0.4239095,-0.384535 z m 2.7591505,0.5321848 c 0.2670338,0 0.7322076,0.2778311 0.7322076,0.6206451 0,0.3428137 -0.3550679,0.6206449 -0.6221026,0.6206449 -0.2670337,0 -0.6211089,-0.01214 -0.6211089,-0.3549402 0,-0.342814 0.2439692,-0.8863498 0.5110039,-0.8863498 z" />
</svg>
