<?xml version="1.0" encoding="UTF-8" standalone="no"?>
<svg
   width="64"
   height="64"
   version="1.1"
   viewBox="0 0 16.933 16.933"
   id="svg7"
   sodipodi:docname="qpwgraph.svg"
   inkscape:version="1.4.2 (ebf0e940d0, 2025-05-08)"
   xmlns:inkscape="http://www.inkscape.org/namespaces/inkscape"
   xmlns:sodipodi="http://sodipodi.sourceforge.net/DTD/sodipodi-0.dtd"
   xmlns="http://www.w3.org/2000/svg"
   xmlns:svg="http://www.w3.org/2000/svg"
   xmlns:rdf="http://www.w3.org/1999/02/22-rdf-syntax-ns#"
   xmlns:cc="http://creativecommons.org/ns#"
   xmlns:dc="http://purl.org/dc/elements/1.1/">
  <sodipodi:namedview
     id="namedview7"
     pagecolor="#9c4444"
     bordercolor="#000000"
     borderopacity="0.25"
     inkscape:showpageshadow="2"
     inkscape:pageopacity="0.0"
     inkscape:pagecheckerboard="0"
     inkscape:deskcolor="#d1d1d1"
     inkscape:zoom="6.15625"
     inkscape:cx="16"
     inkscape:cy="27.28934"
     inkscape:window-width="2560"
     inkscape:window-height="1392"
     inkscape:window-x="0"
     inkscape:window-y="0"
     inkscape:window-maximized="1"
     inkscape:current-layer="svg7"
     showgrid="false" />
  <defs
     id="defs2">
    <style
       id="current-color-scheme"
       type="text/css">.ColorScheme-Text {color:#d8dee9} .ColorScheme-Highlight {color:#3b4252}</style>
  </defs>
  <metadata
     id="metadata2">
    <rdf:RDF>
      <cc:Work
         rdf:about="">
        <dc:format>image/svg+xml</dc:format>
        <dc:type
           rdf:resource="http://purl.org/dc/dcmitype/StillImage" />
      </cc:Work>
    </rdf:RDF>
  </metadata>
  <path
     d="m 2.5805124,2.2584673 c -0.6167214,0 -1.1244207,0.5076998 -1.1244207,1.1244205 0,0.6167207 0.5076993,1.1235081 1.1244207,1.1235081 0.6167196,0 1.1235079,-0.5063313 1.1235079,-1.1235081 0,-0.6171769 -0.5063314,-1.1244205 -1.1235079,-1.1244205 m 11.7737986,0 a 1.1294382,1.1294382 0 0 0 -1.124419,1.1244205 1.128982,1.128982 0 0 0 1.124419,1.1235081 c 0.61672,0 1.123509,-0.5063313 1.123509,-1.1235081 0,-0.6171769 -0.506332,-1.1244205 -1.123509,-1.1244205 M 3.8787271,2.5800561 c 0.1491675,0.2358317 0.2372005,0.5127174 0.2372005,0.8083055 0,0.2910265 -0.085754,0.5638068 -0.2308148,0.7973578 H 4.9890066 C 7.3975026,7.3965899 6.86152,7.6638964 6.86152,7.6638964 H 3.8787271 c 0.1491675,0.2353757 0.2372005,0.5122613 0.2372005,0.8078493 0,0.2910266 -0.085311,0.564263 -0.2299028,0.7973579 H 6.86152 c 0,0 0.5355257,0.2682187 -1.8729685,3.4790894 H 3.8787271 c 0.1487017,0.235832 0.2372005,0.512717 0.2372005,0.808306 0,0.291026 -0.085311,0.563806 -0.2299028,0.797358 h 1.6375955 c 5.0838397,-5.8866728 0.8028308,-5.8866728 5.8866707,0 h 1.648543 A 1.5053094,1.5053094 0 0 1 12.82893,13.556499 c 0,-0.295589 0.08803,-0.572474 0.237201,-0.808306 H 11.945816 C 9.5373228,9.5368663 10.072391,9.2691036 10.072391,9.2691036 h 2.986443 A 1.5053094,1.5053094 0 0 1 12.828475,8.4717457 c 0,-0.295588 0.08803,-0.5724736 0.237201,-0.8078493 h -2.993742 c 0,0 -0.5346112,-0.2673065 1.873426,-3.478177 h 1.113929 A 1.5053094,1.5053094 0 0 1 12.828475,3.3883616 c 0,-0.2955881 0.08803,-0.5724738 0.237201,-0.8083054 h -1.655841 c -5.0842959,5.8866719 -0.802832,5.8866719 -5.8871267,0 z M 2.5805124,2.9007326 c 0.2700429,0 0.4812427,0.2121119 0.4812427,0.4821552 0,0.2700433 -0.2111998,0.4807866 -0.4812427,0.4807866 -0.2700428,0 -0.4817004,-0.2111995 -0.4817004,-0.4807866 0,-0.2695873 0.2121127,-0.4821552 0.4817004,-0.4821552 m 11.7737986,0 c 0.270044,0 0.481244,0.2121118 0.481244,0.4821552 0,0.2700433 -0.2112,0.4807866 -0.481244,0.4807866 -0.270044,0 -0.481699,-0.2111995 -0.481699,-0.4807866 0,-0.2695873 0.212112,-0.4821552 0.481699,-0.4821552 M 2.5809675,7.34322 A 1.128982,1.128982 0 0 0 1.4560917,8.4662719 1.1294382,1.1294382 0 0 0 2.5805124,9.5906924 1.128982,1.128982 0 0 0 3.7040203,8.4662719 1.1280698,1.1280698 0 0 0 2.5805124,7.34322 m 11.7733426,0 a 1.128982,1.128982 0 0 0 -1.12442,1.1230519 1.1294382,1.1294382 0 0 0 1.12442,1.1244205 A 1.128982,1.128982 0 0 0 15.477363,8.4662719 1.1280698,1.1280698 0 0 0 14.353855,7.34322 M 2.5805124,7.9854852 c 0.2691309,0 0.4807858,0.2111994 0.4807858,0.4807868 0,0.2695872 -0.2111981,0.4821551 -0.4812427,0.4821551 -0.2700428,0 -0.4816986,-0.2121119 -0.4816986,-0.4821551 0,-0.2700434 0.2121127,-0.4807868 0.4816986,-0.4807868 m 11.7733435,0 c 0.270044,0 0.481242,0.2111994 0.481242,0.4807868 0,0.2695872 -0.211198,0.4821551 -0.481242,0.4821551 -0.270044,0 -0.481699,-0.2121119 -0.481699,-0.4821551 0,-0.2700434 0.212112,-0.4807868 0.481699,-0.4807868 M 2.5800555,12.426604 a 1.1294382,1.1294382 0 0 0 -1.1248758,1.124421 1.128982,1.128982 0 0 0 1.1244207,1.123508 1.1280698,1.1280698 0 0 0 1.1235079,-1.123508 1.128982,1.128982 0 0 0 -1.1235079,-1.124421 m 11.7733426,0 a 1.1294382,1.1294382 0 0 0 -1.12442,1.124421 1.128982,1.128982 0 0 0 1.12442,1.123508 1.1280698,1.1280698 0 0 0 1.123508,-1.123508 1.128982,1.128982 0 0 0 -1.123508,-1.124421 M 2.5796004,13.068869 c 0.2691309,0 0.4807858,0.212112 0.4807858,0.482156 0,0.270043 -0.2111998,0.481243 -0.4812427,0.481243 A 0.47668131,0.47668131 0 0 1 2.0974449,13.551025 c 0,-0.270044 0.2121109,-0.482156 0.4816986,-0.482156 m 11.7733425,0 c 0.270045,0 0.481243,0.212112 0.481243,0.482156 0,0.270043 -0.211198,0.481243 -0.481243,0.481243 -0.270043,0 -0.481698,-0.211656 -0.481698,-0.481243 0,-0.270044 0.212112,-0.482156 0.481698,-0.482156"
     id="path1-3"
     style="fill:currentColor;fill-opacity:1;stroke-width:0.456154"
     class="ColorScheme-Text" />
</svg>
