<?xml version="1.0" encoding="UTF-8" standalone="no"?>
<svg
   width="64"
   height="64"
   version="1.1"
   viewBox="0 0 16.933 16.933"
   id="svg7"
   sodipodi:docname="org.kde.ktrip.svg"
   inkscape:version="1.4.3 (0d15f75042, 2025-12-25)"
   xmlns:inkscape="http://www.inkscape.org/namespaces/inkscape"
   xmlns:sodipodi="http://sodipodi.sourceforge.net/DTD/sodipodi-0.dtd"
   xmlns="http://www.w3.org/2000/svg"
   xmlns:svg="http://www.w3.org/2000/svg"
   xmlns:rdf="http://www.w3.org/1999/02/22-rdf-syntax-ns#"
   xmlns:cc="http://creativecommons.org/ns#"
   xmlns:dc="http://purl.org/dc/elements/1.1/">
  <sodipodi:namedview
     id="namedview7"
     pagecolor="#9c4444"
     bordercolor="#000000"
     borderopacity="0.25"
     inkscape:showpageshadow="2"
     inkscape:pageopacity="0.0"
     inkscape:pagecheckerboard="0"
     inkscape:deskcolor="#d1d1d1"
     inkscape:zoom="6.15625"
     inkscape:cx="57.258883"
     inkscape:cy="38.010152"
     inkscape:window-width="2560"
     inkscape:window-height="1388"
     inkscape:window-x="0"
     inkscape:window-y="0"
     inkscape:window-maximized="1"
     inkscape:current-layer="svg7"
     showgrid="false" />
  <defs
     id="defs2">
    <style
       id="current-color-scheme"
       type="text/css">.ColorScheme-Text {color:#d8dee9} .ColorScheme-Highlight {color:#3b4252}</style>
  </defs>
  <metadata
     id="metadata2">
    <rdf:RDF>
      <cc:Work
         rdf:about="">
        <dc:format>image/svg+xml</dc:format>
        <dc:type
           rdf:resource="http://purl.org/dc/dcmitype/StillImage" />
      </cc:Work>
    </rdf:RDF>
  </metadata>
  <path
     id="path5"
     d="m 10.222114,2.1354309 a 0.1752129,0.175191 0 1 0 0,0.3503469 h 1.751954 a 0.1752129,0.175191 0 1 0 0,-0.3503469 z M 1.4551595,12.675346 v 0.348515 c 0,7e-4 -10e-7,0.0014 0,0.0021 H 15.4778 c 0,-7.01e-4 0,-0.0014 0,-0.0021 v -0.348515 z m 1.282441,-4.2040551 -0.711402,0.6292407 6.83e-4,7.008e-4 a 1.2371744,1.2370191 0 0 0 -0.315646,0.421089 c 4.610158,-7.1e-6 9.2123865,-7.1e-6 13.7665625,0 v -1.051013 c -4.232383,-3.4e-6 -8.4333045,-3.4e-6 -12.7401985,0 z m 5.802827,-4.2047345 -0.0021,0.0014 a 2.7729938,2.7726456 0 0 0 -0.01299,-7.007e-4 2.7729938,2.7726456 0 0 0 -1.865804,0.7387906 l -0.0069,0.0028 -3.716547,3.2872424 c 4.237611,-3.4e-6 8.3742195,-3.4e-6 12.5416365,0 V 7.7702433 h -3.503606 c -0.194116,0 -0.350566,-0.1557889 -0.350566,-0.3498811 V 5.318333 c 0,-0.1940887 0.15645,-0.3505641 0.350566,-0.3505641 h 3.503606 V 4.2673203 Z m -0.456011,0.7011319 a 1.1091964,1.1090571 0 0 1 0.0356,0 h 1.051014 1.4015795 c 0.194091,3.5e-6 0.350566,0.1565 0.350566,0.3505642 v 2.1020291 c 0,0.1940713 -0.156475,0.3498845 -0.350566,0.3498811 H 10.222048 5.8084745 A 0.49486927,0.49480714 0 0 1 5.3127525,7.277179 0.49486927,0.49480714 0 0 1 5.4846135,6.9005945 l 1.850056,-1.6364321 a 1.1091964,1.1090571 0 0 1 0.749747,-0.2964741 z m -6.437541,4.7299011 a 1.2371744,1.2370191 0 0 0 -0.0076,0.024665 1.2371744,1.2370191 0 0 0 -0.02191,0.1040748 1.2371744,1.2370191 0 0 0 -0.0069,0.033564 1.2371744,1.2370191 0 0 0 6.82e-4,0.00211 1.2371744,1.2370191 0 0 0 -0.01438,0.1793878 1.2371744,1.2370191 0 0 0 1.23725,1.232462 H 15.477733 V 10.923962 9.697663 c -4.554176,-7e-6 -9.1564065,-7e-6 -13.7665635,0 z M 10.345295,2.6609338 9.0813385,3.4154725 a 0.1752129,0.175191 0 0 0 0.03013,0.3156452 l 0.9907585,0.3601531 h 1.027049 L 9.5777475,3.527079 11.027941,2.6609338 Z M 5.0888585,11.449051 a 1.0511722,1.0510408 0 0 0 -0.01574,0.186237 1.0511722,1.0510408 0 0 0 1.053067,1.04759 1.0511722,1.0510408 0 0 0 1.048959,-1.051012 v -0.0075 a 1.0511722,1.0510408 0 0 0 -0.01574,-0.175283 z m 2.410142,0 a 1.0511722,1.0510408 0 0 0 -0.01574,0.186237 1.0511722,1.0510408 0 0 0 1.053067,1.04759 1.0511722,1.0510408 0 0 0 1.04896,-1.051012 v -0.0075 A 1.0511722,1.0510408 0 0 0 9.5695455,11.449057 Z M 3.5585545,1.4551797 c -0.431837,0 -0.832126,0.1291279 -1.165357,0.3505641 h 4.203369 7.9431965 C 14.206532,1.584307 13.806243,1.4551797 13.374404,1.4551797 Z m -1.566591,0.7011318 c -0.332825,0.3718339 -0.536804,0.8616434 -0.536804,1.4022637 v 0.701132 l 0.350566,-0.3505677 h 1.051013 v 0.3505677 h 0.700448 V 5.6612876 L 4.2583175,4.9601558 V 3.2086942 h 0.350566 V 2.8581265 h 0.700448 v 0.701132 l 0.350566,0.349881 v 0.3505677 l 0.700448,0.7004486 h 0.08285 l 0.116401,-0.1027076 0.0054,-0.0021 7.01e-4,-7.007e-4 c 0.12765,-0.115632 0.264207,-0.2199548 0.408765,-0.3108558 0.307702,-0.1934862 0.648724,-0.327578 1.005138,-0.3971254 0.04404,-0.00859 0.08834,-0.016011 0.132833,-0.022598 V 3.5591885 h 0.350566 V 3.2086243 h 0.622391 L 10.061088,2.626628 C 9.8902135,2.543291 9.8209495,2.325284 9.9008685,2.1562416 Z m 10.3006145,0 c 0.06622,0.1395538 0.0441,0.321114 -0.09586,0.4313612 -0.06243,0.049185 -0.140083,0.074313 -0.225266,0.073261 h -0.70524 v 0.5477604 l 0.700448,0.7004453 v 0.1821313 l 0.701131,7.007e-4 -0.0013,-0.6867501 1.248207,-1.2488924 z m 1.774741,0 0.0021,1.402947 h 0.700446 V 4.091954 h 0.70798 V 3.5585752 c 0,-0.5406203 -0.203979,-1.0304298 -0.536804,-1.4022637 z m -3.852118,1.193429 -0.2314285,0.13831 0.2314285,0.08422 z M 9.1635035,3.9365296 v 0.1547412 h 0.425883 z m -7.708344,8.7367634 v 0.0021 H 15.4778 v -0.0021 z m 0,0.351934 v 0.349198 c 0,1.165282 0.937968,2.103395 2.103395,2.103395 h 9.8158485 c 1.165428,0 2.103397,-0.938113 2.103397,-2.103395 v -0.349198 c -8.2e-5,0.119767 -0.01232,0.236372 -0.03149,0.350568 H 1.4866545 c -0.01911,-0.114144 -0.0314,-0.230858 -0.0315,-0.350568 z"
     style="fill:currentColor"
     class="ColorScheme-Text" />
</svg>
