<?xml version="1.0" encoding="UTF-8" standalone="no"?>
<svg
   width="64"
   height="64"
   version="1.1"
   viewBox="0 0 16.933 16.933"
   id="svg7"
   sodipodi:docname="org.musicbrainz.Picard.svg"
   inkscape:version="1.4.2 (ebf0e940d0, 2025-05-08)"
   xmlns:inkscape="http://www.inkscape.org/namespaces/inkscape"
   xmlns:sodipodi="http://sodipodi.sourceforge.net/DTD/sodipodi-0.dtd"
   xmlns="http://www.w3.org/2000/svg"
   xmlns:svg="http://www.w3.org/2000/svg"
   xmlns:rdf="http://www.w3.org/1999/02/22-rdf-syntax-ns#"
   xmlns:cc="http://creativecommons.org/ns#"
   xmlns:dc="http://purl.org/dc/elements/1.1/">
  <sodipodi:namedview
     id="namedview7"
     pagecolor="#9c4444"
     bordercolor="#000000"
     borderopacity="0.25"
     inkscape:showpageshadow="2"
     inkscape:pageopacity="0.0"
     inkscape:pagecheckerboard="0"
     inkscape:deskcolor="#d1d1d1"
     inkscape:zoom="12.3125"
     inkscape:cx="56.203046"
     inkscape:cy="34.517767"
     inkscape:window-width="2560"
     inkscape:window-height="1376"
     inkscape:window-x="0"
     inkscape:window-y="0"
     inkscape:window-maximized="1"
     inkscape:current-layer="svg7"
     showgrid="false" />
  <defs
     id="defs2">
    <style
       id="current-color-scheme"
       type="text/css">.ColorScheme-Text {color:#d8dee9} .ColorScheme-Highlight {color:#3b4252}</style>
  </defs>
  <metadata
     id="metadata2">
    <rdf:RDF>
      <cc:Work
         rdf:about="">
        <dc:format>image/svg+xml</dc:format>
        <dc:type
           rdf:resource="http://purl.org/dc/dcmitype/StillImage" />
      </cc:Work>
    </rdf:RDF>
  </metadata>
  <path
     id="polygon8041"
     class="ColorScheme-Text"
     style="fill:currentColor;fill-opacity:1;stroke-width:0.102891"
     d="M 8.20925,1.0582955 1.932869,4.6594975 V 12.273468 L 8.20925,15.87467 V 5.2858895 c -0.01579,-0.0033 -0.03205,-0.0069 -0.04863,-0.01065 -0.03312,-0.0074 -0.0678,-0.01558 -0.104299,-0.02412 -0.05426,-0.01266 -0.111137,-0.0259 -0.170212,-0.03858 -0.110981,-0.02376 -0.231157,-0.04331 -0.354695,-0.05506 -0.01633,-0.0016 -0.03214,-0.004 -0.04863,-0.0052 -0.03685,-0.0026 -0.07457,-0.0027 -0.112136,-0.0032 -0.0354,-5.68e-4 -0.07082,-6.57e-4 -0.106709,0.001 -0.199524,0.0096 -0.405396,0.05434 -0.607704,0.166797 -6.22e-4,3.4e-4 -0.0012,6.69e-4 -0.0018,10e-4 -0.03355,0.01872 -0.067,0.03942 -0.100279,0.0619 -0.0033,0.0022 -0.0066,0.0044 -0.0098,0.0066 -0.03238,0.02226 -0.06464,0.04645 -0.09666,0.07255 -0.0031,0.0025 -0.0061,0.0053 -0.0092,0.0078 -0.03291,0.02725 -0.06564,0.05622 -0.09807,0.08782 -0.03425,0.03338 -0.06828,0.06918 -0.101887,0.107715 L 7.192094,6.6781145 6.1885,12.071074 4.701397,11.017844 2.934758,11.465783 3.93795,6.0728225 5.787183,5.1813645 5.95398,5.3592135 c 0.446188,-0.49889 0.946977,-0.624826 1.391648,-0.622172 0.0167,6.3e-5 0.03391,-0.0018 0.05044,-0.0014 0.08333,0.0023 0.163426,0.0095 0.241553,0.01909 0.01171,0.0014 0.02399,0.0017 0.03557,0.0032 0.178449,0.02394 0.341064,0.06096 0.476878,0.09264 0.01854,0.0043 0.03657,0.0085 0.05446,0.01266 v 0.420408 c 0.0013,2.78e-4 0.0027,5.25e-4 0.004,8.01e-4 v -0.420207 c 2.68e-4,6.2e-5 5.44e-4,1.44e-4 8.17e-4,2.06e-4 z m 0.514458,0 v 3.807186 c 0.285112,0.01574 0.649642,0.0733 1.029517,0.238339 0.127174,0.0021 0.647744,-0.01739 1.022887,-0.44171 -0.140139,-0.201668 -0.154187,-0.475541 -0.01487,-0.695523 0.115342,-0.183558 0.314522,-0.2932 0.532343,-0.2932 0.118942,0 0.235172,0.03358 0.336005,0.09706 0.143122,0.09055 0.241999,0.230966 0.278732,0.39549 0.03663,0.164112 0.0071,0.332387 -0.0828,0.473863 -0.11534,0.18325 -0.314423,0.293 -0.532142,0.293 -0.06215,0 -0.123216,-0.0096 -0.182069,-0.02733 -0.244779,0.290874 -0.541647,0.444255 -0.800625,0.524305 0.208047,0.159379 0.39178,0.351107 0.550027,0.572735 0.162055,-0.03683 0.337692,-0.01205 0.480094,0.07757 0.294167,0.186337 0.38216,0.576411 0.196338,0.8697547 -0.116474,0.1838671 -0.315737,0.2934015 -0.533147,0.2934015 -0.119251,0 -0.235774,-0.033869 -0.336608,-0.097867 -0.292726,-0.1852047 -0.380528,-0.5750982 -0.195735,-0.8687502 0.01204,-0.01914 0.02539,-0.03746 0.03939,-0.05526 -0.233872,-0.320301 -0.531169,-0.563641 -0.88563,-0.724461 l -2.06e-4,-2.06e-4 c -3.81e-4,-1.44e-4 -10e-4,-2.46e-4 -0.0014,-4e-4 C 9.295071,5.3469965 8.974868,5.2911555 8.72371,5.2764425 v 2.469597 c 0.529891,0.038481 0.778491,0.3054269 0.964005,0.5168689 0.139314,0.1586587 0.218338,0.2420861 0.355698,0.2493913 0.199507,0.010598 0.351746,0.00495 0.498984,-4.006e-4 0.178723,-0.00628 0.342121,-0.011608 0.5442,0.012057 0.583909,-0.00957 0.782152,-0.138082 0.991536,-0.2743103 0.167302,-0.1088592 0.355307,-0.2305301 0.702154,-0.2807411 0.01636,-0.056076 0.04023,-0.1107239 0.07295,-0.1623757 0.01945,-0.030661 0.04175,-0.058568 0.06531,-0.084805 0.01358,-0.014919 0.0291,-0.027414 0.04381,-0.040996 -0.11421,-0.4211349 -0.134982,-1.0186225 0.0038,-1.4834865 -0.0024,-0.0023 -0.0053,-0.004 -0.0074,-0.006 -0.220703,-0.20177 -0.27044,-0.538496 -0.105504,-0.799017 0.115444,-0.183558 0.314829,-0.293201 0.532342,-0.293201 0.119045,0 0.235172,0.03378 0.336005,0.09727 0.143122,0.09055 0.241896,0.230966 0.278731,0.395489 0.03653,0.164112 0.0072,0.332187 -0.08279,0.473663 -0.115342,0.183353 -0.314625,0.2932 -0.532343,0.2932 -0.01152,0 -0.02304,-0.0015 -0.03457,-0.0026 -0.09816,0.359709 -0.07667,0.8343085 -0.0036,1.159137 0.01286,-0.00103 0.02573,-0.00181 0.03859,-0.00181 0.119046,0 0.235172,0.03358 0.336005,0.097064 0.143122,0.090545 0.241896,0.2310685 0.278732,0.3954891 0.03652,0.1640092 0.0072,0.3323878 -0.08279,0.4738636 -0.115342,0.1832498 -0.314625,0.2929996 -0.532343,0.2929996 -0.119148,0 -0.23527,-0.033771 -0.336206,-0.097666 -0.01358,-0.00885 -0.02173,-0.014143 -0.02914,-0.019493 -0.100113,-0.070686 -0.173308,-0.16621 -0.217037,-0.2727027 -0.230786,0.03879 -0.352755,0.1170342 -0.499787,0.2124147 -0.11956,0.077477 -0.246929,0.1604592 -0.433471,0.2250751 0.466819,0.3433489 1.093577,0.9883725 1.357083,1.4191791 0.05103,-0.01317 0.104431,-0.0201 0.158758,-0.0201 0.119045,0 0.235172,0.03358 0.336005,0.09706 0.143122,0.09055 0.241896,0.231064 0.278731,0.39569 0.03652,0.164009 0.0072,0.332289 -0.0828,0.473663 -0.115341,0.18325 -0.314625,0.292999 -0.532343,0.292999 -0.119149,0 -0.235269,-0.03357 -0.336205,-0.09746 -0.01358,-0.009 -0.02173,-0.01434 -0.02914,-0.01969 -0.272148,-0.191995 -0.345936,-0.565389 -0.166596,-0.848855 0.0098,-0.01564 0.02124,-0.0302 0.03236,-0.04481 -0.27514,-0.4783437 -1.251832,-1.4072803 -1.52007,-1.4734395 -0.350037,-0.086943 -0.551757,-0.080003 -0.80806,-0.070537 -0.148987,0.00525 -0.318036,0.01173 -0.53596,0 C 9.704335,8.9069295 9.530669,8.7091512 9.377669,8.534853 9.217158,8.3518092 9.062773,8.1885187 8.723746,8.1576512 v 4.3216468 c 0.05237,-0.0107 0.141125,-0.02856 0.263257,-0.0832 0.01152,-0.0069 0.02381,-0.01265 0.03698,-0.01728 0.344274,-0.165038 0.875957,-0.562364 1.292976,-1.510817 -0.117502,-0.08633 -0.200817,-0.209558 -0.236932,-0.352886 -0.04126,-0.163186 -0.01649,-0.332516 0.06973,-0.477079 0.113181,-0.1895258 0.320581,-0.3072674 0.541386,-0.3072674 0.113387,0 0.224696,0.030892 0.32234,0.089025 0.298077,0.1785167 0.396132,0.5657524 0.218644,0.8637254 -0.10927,0.183044 -0.306417,0.297841 -0.518476,0.30566 -0.264946,0.617761 -0.58113,1.036425 -0.883219,1.320508 0.178105,0.03447 0.306451,0.10831 0.42704,0.190109 0.09487,0.06441 0.144218,0.09555 0.228692,0.100077 0.110094,0.0034 0.347786,-0.06503 0.548219,-0.137054 -0.02459,-0.202491 0.04896,-0.413154 0.214826,-0.555453 0.114004,-0.09795 0.259639,-0.151927 0.409757,-0.151927 0.184176,0 0.358417,0.08012 0.478286,0.220052 0.109579,0.12738 0.162777,0.290372 0.149915,0.458188 -0.01286,0.167713 -0.09046,0.320382 -0.218041,0.429653 -0.113901,0.09795 -0.259432,0.151725 -0.409757,0.151725 -0.165553,0 -0.323199,-0.06523 -0.440907,-0.18006 -0.190246,0.07213 -0.505453,0.177447 -0.722451,0.177447 -0.0108,0 -0.02146,-3.09e-4 -0.03175,-8.16e-4 -0.202902,-0.0105 -0.333442,-0.09921 -0.438494,-0.170414 -0.161334,-0.109374 -0.314869,-0.212573 -0.865133,-0.07295 -0.24303,0.110505 -0.408592,0.119499 -0.436887,0.122586 v 2.983852 l 6.276384,-3.601209 V 4.6595255 Z m 2.569875,3.027462 c -0.07521,0 -0.14376,0.03761 -0.183476,0.100681 -0.06204,0.09816 -0.03677,0.22683 0.05727,0.293401 l 0.0098,0.0064 c 0.100216,0.06359 0.237897,0.03073 0.299632,-0.06712 0.03138,-0.04908 0.04139,-0.106898 0.02874,-0.163179 -0.01276,-0.0571 -0.04718,-0.105575 -0.09646,-0.136854 -0.03467,-0.02192 -0.0747,-0.03336 -0.115552,-0.03336 z m -5.344329,1.271272 c -0.100686,0.112567 -0.198525,0.243811 -0.292195,0.396695 -0.04517,-0.008 -0.09127,-0.01226 -0.136854,-0.01226 -0.374628,0 -0.69623,0.26778 -0.764652,0.63644 -0.03817,0.204548 0.0055,0.411465 0.123188,0.5829847 0.117605,0.171417 0.295038,0.2869853 0.499586,0.3249522 0.04723,0.00885 0.09524,0.013263 0.143084,0.013263 0.374628,0 0.696729,-0.2676771 0.765255,-0.6364399 0.05227,-0.280894 -0.05486,-0.554961 -0.256425,-0.730288 0.06567,-0.103347 0.133197,-0.193907 0.202367,-0.273306 z m 7.436322,0.154739 c -0.07501,0 -0.143554,0.03771 -0.183476,0.100882 -0.06204,0.09806 -0.03678,0.226532 0.05768,0.293 l 0.0096,0.0066 c 0.100217,0.06369 0.238103,0.03053 0.299632,-0.06732 0.03118,-0.04918 0.04129,-0.1068 0.02873,-0.162979 -0.01276,-0.0571 -0.04707,-0.105575 -0.09646,-0.136854 -0.03447,-0.02181 -0.0747,-0.03336 -0.115753,-0.03336 z m -7.865572,0.641264 c 0.02274,0 0.04539,0.0021 0.06792,0.0062 0.198992,0.03704 0.33084,0.229253 0.294005,0.428245 -0.03652,0.195906 -0.230488,0.329923 -0.428246,0.293603 C 5.254485,6.8440405 5.122942,6.6520275 5.15988,6.4530355 5.19229,6.2792515 5.343541,6.1530025 5.52,6.1530025 Z m 5.485202,0.242759 c -0.04105,0 -0.08088,0.01126 -0.115351,0.03256 -0.0286,0.01759 -0.05194,0.04045 -0.06933,0.06792 -0.0639,0.101554 -0.03352,0.236633 0.06772,0.300837 0.03488,0.02202 0.0747,0.03376 0.115552,0.03376 0.07532,0 0.144349,-0.0381 0.184682,-0.101686 0.0641,-0.101143 0.03363,-0.235922 -0.06792,-0.300435 -0.03416,-0.0215 -0.07419,-0.03296 -0.115351,-0.03296 z M 6.015571,7.1278888 c -0.0078,0.00628 -0.01653,0.011104 -0.02452,0.017082 -0.0069,0.00518 -0.013,0.011519 -0.02009,0.016479 0.01526,-0.010651 0.03014,-0.021837 0.04461,-0.03356 z M 5.30779,7.2701685 c 0.0107,0.00309 0.02148,0.00602 0.03236,0.00864 -0.006,-0.00146 -0.01174,-0.00363 -0.01768,-0.00522 -0.0048,-0.0013 -0.0099,-0.00203 -0.01467,-0.00342 z m 0.06933,0.016479 c 0.002,3.908e-4 0.004,0.00103 0.006,0.00141 0.04723,0.00885 0.09524,0.013263 0.143084,0.013263 0.02493,0 0.04954,-0.00129 0.07395,-0.00362 -0.02437,0.00231 -0.04906,0.00342 -0.07395,0.00342 -0.04785,0 -0.09586,-0.00442 -0.143084,-0.013263 -0.002,-3.807e-4 -0.004,-8.128e-4 -0.006,-0.00121 z m 8.008455,0.6392536 c -0.07501,0 -0.143554,0.037707 -0.183476,0.1008819 -0.06204,0.098056 -0.03678,0.2265317 0.05768,0.2929996 l 0.0096,0.00663 c 0.100217,0.06369 0.238103,0.030626 0.299632,-0.067121 0.03118,-0.049182 0.04129,-0.1070007 0.02873,-0.1631794 -0.01276,-0.057105 -0.04707,-0.1053738 -0.09646,-0.1366528 -0.03447,-0.022019 -0.0747,-0.03356 -0.115753,-0.03356 z m -2.694471,2.2175929 c -0.07748,0 -0.147578,0.03954 -0.187294,0.105906 -0.02963,0.05001 -0.03811,0.108403 -0.02391,0.164787 0.0142,0.05618 0.04958,0.103604 0.09927,0.133237 0.03385,0.02027 0.07254,0.03095 0.111533,0.03095 0.07748,0 0.14728,-0.03984 0.186893,-0.106308 0.06132,-0.102789 0.02733,-0.236186 -0.07556,-0.298024 -0.03354,-0.01986 -0.07204,-0.03055 -0.11093,-0.03055 z m 2.694471,0.488936 c -0.07501,0 -0.143554,0.03761 -0.183476,0.100681 -0.06204,0.09816 -0.03678,0.226629 0.05768,0.2932 l 0.0096,0.0064 c 0.100217,0.06359 0.238103,0.03073 0.299632,-0.06712 0.03118,-0.04918 0.04129,-0.106697 0.02873,-0.162978 -0.01276,-0.0571 -0.04707,-0.105575 -0.09646,-0.136854 -0.03447,-0.02192 -0.0747,-0.03336 -0.115753,-0.03336 z m -1.726647,1.535334 c -0.03653,0 -0.09065,0.0091 -0.141275,0.05265 -0.09106,0.0781 -0.101706,0.215808 -0.02371,0.306866 0.04126,0.04784 0.101495,0.07536 0.16539,0.07536 0.03653,0 0.09086,-0.0089 0.141275,-0.05225 0.04424,-0.03786 0.07094,-0.09028 0.07536,-0.148108 0.0044,-0.05783 -0.01398,-0.114113 -0.05185,-0.158356 -0.04157,-0.04846 -0.101704,-0.07616 -0.165189,-0.07616 z" />
</svg>
