<?xml version='1.0' encoding='UTF-8'?>
<svg xmlns:inkscape="http://www.inkscape.org/namespaces/inkscape" xmlns:sodipodi="http://sodipodi.sourceforge.net/DTD/sodipodi-0.dtd" xmlns="http://www.w3.org/2000/svg" xmlns:svg="http://www.w3.org/2000/svg" xmlns:rdf="http://www.w3.org/1999/02/22-rdf-syntax-ns#" xmlns:cc="http://creativecommons.org/ns#" xmlns:dc="http://purl.org/dc/elements/1.1/" width="64" height="64" version="1.1" viewBox="0 0 16.933 16.933" id="svg7" sodipodi:docname="org.siril.Siril.svg" inkscape:version="1.4 (e7c3feb100, 2024-10-09)">
  <sodipodi:namedview id="namedview7" pagecolor="#9c4444" bordercolor="#000000" borderopacity="0.25" inkscape:showpageshadow="2" inkscape:pageopacity="0.0" inkscape:pagecheckerboard="0" inkscape:deskcolor="#d1d1d1" inkscape:zoom="6.15625" inkscape:cx="15.837563" inkscape:cy="29.725888" inkscape:window-width="1183" inkscape:window-height="941" inkscape:window-x="35" inkscape:window-y="32" inkscape:window-maximized="0" inkscape:current-layer="g7" showgrid="false"/>
  <defs id="defs2">
    <style id="current-color-scheme" type="text/css">.ColorScheme-Text {color:#d8dee9} .ColorScheme-Highlight {color:#3b4252}</style></defs>
  <metadata id="metadata2">
    <rdf:RDF>
      <cc:Work rdf:about="">
        <dc:format>image/svg+xml</dc:format>
        <dc:type rdf:resource="http://purl.org/dc/dcmitype/StillImage"/>
      </cc:Work>
    </rdf:RDF>
  </metadata>
  <g id="g7" transform="matrix(0.17358971,0,0,0.17358971,3.0097669,1.7889854)" style="fill:#999999;fill-opacity:1">
    <g id="g1" transform="matrix(1.9,0,0,1.9,-28.398972,-19.290293)" style="fill:currentColor" class="ColorScheme-Text">
      <path style="fill:currentColor;fill-opacity:1" d="m 40.754233,13.25458 c 1.561594,1.89222 2.50861,4.310714 2.50861,6.955706 0,6.045478 -4.900896,10.946626 -10.946628,10.946626 -2.644992,0 -5.063436,-0.94699 -6.955704,-2.508584 1.32363,5.64203 6.383412,9.80633 12.428892,9.80633 7.053228,0 12.771108,-5.717882 12.771108,-12.771108 0,-6.045734 -4.1643,-11.10539 -9.806328,-12.428892 z" id="path3-7" class="ColorScheme-Text"/>
      <path style="fill:currentColor;fill-opacity:1" d="m 19.548316,44.789896 -1.738533,-5.261468 -5.261467,-1.738532 5.261467,-1.738533 1.738533,-5.261468 1.738533,5.261468 5.261467,1.738533 -5.261467,1.738532 z" id="path4" class="ColorScheme-Text"/>
      <path style="fill:currentColor;fill-opacity:1" d="M 29.5,49.934844 28.506552,46.92829 25.5,45.934844 28.506552,44.941397 29.5,41.934843 30.493446,44.941397 33.5,45.934844 30.493446,46.92829 Z" id="path5" class="ColorScheme-Text"/>
      <path style="fill:currentColor;fill-opacity:1" d="M 33.403368,22.5 32.906646,20.996722 31.403368,20.5 32.906646,20.003278 33.403368,18.499999 33.90009,20.003278 35.403368,20.5 33.90009,20.996722 Z" id="path6" class="ColorScheme-Text"/>
    </g>
  </g>
  <g id="g9" transform="matrix(0.46959567,0,0,0.46959567,4.7471229,3.7470598)" style="fill:#999999;fill-opacity:1;stroke:none;stroke-width:0.58349;stroke-dasharray:none;stroke-opacity:0.3"/>
  </svg>
