<?xml version='1.0' encoding='UTF-8'?>
<svg xmlns:inkscape="http://www.inkscape.org/namespaces/inkscape" xmlns:sodipodi="http://sodipodi.sourceforge.net/DTD/sodipodi-0.dtd" xmlns="http://www.w3.org/2000/svg" xmlns:svg="http://www.w3.org/2000/svg" xmlns:rdf="http://www.w3.org/1999/02/22-rdf-syntax-ns#" xmlns:cc="http://creativecommons.org/ns#" xmlns:dc="http://purl.org/dc/elements/1.1/" width="64" height="64" version="1.1" viewBox="0 0 16.933 16.933" id="svg7" sodipodi:docname="org.xfce.xfwm4.svg" inkscape:version="1.4 (e7c3feb100, 2024-10-09)">
  <sodipodi:namedview id="namedview7" pagecolor="#9c4444" bordercolor="#000000" borderopacity="0.25" inkscape:showpageshadow="2" inkscape:pageopacity="0.0" inkscape:pagecheckerboard="0" inkscape:deskcolor="#d1d1d1" inkscape:zoom="6.15625" inkscape:cx="19.573604" inkscape:cy="29.725888" inkscape:window-width="1183" inkscape:window-height="941" inkscape:window-x="35" inkscape:window-y="32" inkscape:window-maximized="0" inkscape:current-layer="svg7" showgrid="false"/>
  <defs id="defs2">
    <style id="current-color-scheme" type="text/css">.ColorScheme-Text {color:#d8dee9} .ColorScheme-Highlight {color:#3b4252}</style></defs>
  <metadata id="metadata2">
    <rdf:RDF>
      <cc:Work rdf:about="">
        <dc:format>image/svg+xml</dc:format>
        <dc:type rdf:resource="http://purl.org/dc/dcmitype/StillImage"/>
      </cc:Work>
    </rdf:RDF>
  </metadata>
  <path id="path6" style="fill:currentColor;fill-opacity:1;stroke:none;stroke-width:0.150318;stroke-dasharray:none;stroke-opacity:1" d="m 8.5782551,3.1850923 c -3.0546891,0 -6.1093086,0.010545 -6.1803133,0.031833 C 2.25825,3.2587762 2.0946423,3.4128385 2.0242173,3.5686909 l -0.059979,0.1323369 v 4.9104446 4.9104416 l 0.065579,0.139859 c 0.070874,0.151126 0.2146293,0.289917 0.351325,0.339386 0.1203061,0.04353 12.2324567,0.0483 12.3774247,0.0048 0.139688,-0.04184 0.303297,-0.195913 0.373721,-0.351763 l 0.05998,-0.132335 V 8.6114768 3.7010322 l -0.05998,-0.1323331 c -0.07042,-0.1558532 -0.234031,-0.3099158 -0.373721,-0.3517683 -0.071,-0.021271 -3.125625,-0.031832 -6.1803114,-0.031832 z m 0,0.5779774 c 2.7819939,0 5.5640009,0.00846 5.6223779,0.025202 0.139555,0.040022 0.26612,0.1445235 0.343072,0.2833882 l 0.07237,0.1305661 v 4.1086172 c 0,3.9576028 -0.0017,4.1118388 -0.04672,4.1962998 -0.0806,0.151658 -0.217873,0.274187 -0.352059,0.31404 -0.17955,0.05331 -11.1145251,0.05246 -11.2855789,-0.0011 -0.127471,-0.03975 -0.2598603,-0.157852 -0.3370423,-0.300629 L 2.5404488,12.419295 V 8.3106462 4.2020293 l 0.072356,-0.130568 C 2.6897568,3.9325979 2.8163216,3.8280976 2.955877,3.7880733 3.014253,3.7713343 5.7962615,3.7628713 8.5782555,3.7628713 Z m 2.7145139,1.0054902 c -0.392117,-7.16e-5 -0.85619,7.984e-4 -1.3992556,0.00211 l -3.0438823,0.00781 -0.1005062,0.053787 C 6.6153003,4.9039499 6.5142485,5.0070707 6.4582207,5.1292122 6.4177887,5.2173452 6.4122807,5.3010254 6.4117927,5.823761 l -0.00105,0.5944806 1.9602927,0.00676 1.9604306,0.00692 0.120108,0.059535 c 0.15862,0.078776 0.317655,0.2367124 0.394211,0.3914137 l 0.06188,0.1252613 0.0071,1.4341804 0.0071,1.4343364 1.082708,-0.00105 c 0.994441,-0.00105 1.090968,-0.00422 1.183512,-0.046273 0.124241,-0.056445 0.239949,-0.1694249 0.302694,-0.2957717 0.04556,-0.091713 0.04759,-0.1842601 0.04759,-2.2127257 V 5.2042166 L 13.467763,5.0841138 C 13.378919,4.9329175 13.233558,4.8266745 13.066654,4.790702 12.997247,4.775749 12.468707,4.7686715 11.292345,4.7684587 Z M 7.1001551,6.895522 c -3.0490478,0 -3.0824734,0.00105 -3.1647246,0.05069 -0.050206,0.030615 -0.1024613,0.094498 -0.1320386,0.1613727 -0.047477,0.1073272 -0.048775,0.1728981 -0.042146,2.1475884 0.00665,1.9746849 0.00832,2.0392149 0.055854,2.1094279 0.026963,0.0398 0.083336,0.09335 0.1252632,0.118921 0.073167,0.04461 0.2009408,0.04647 3.1775439,0.04657 h 3.10121 l 0.10552,-0.09831 0.105509,-0.09844 0.0065,-2.0874654 c 0.0063,-2.0481829 0.0055,-2.0889847 -0.04362,-2.169097 -0.02749,-0.044918 -0.08681,-0.1040801 -0.131725,-0.1314591 -0.0803,-0.048963 -0.132352,-0.04981 -3.1631038,-0.04981 z" class="ColorScheme-Text"/>
  </svg>
