<?xml version="1.0" encoding="UTF-8" standalone="no"?>
<svg
   width="64"
   height="64"
   version="1.1"
   viewBox="0 0 16.933 16.933"
   id="svg7"
   sodipodi:docname="org.coolercontrol.CoolerControl.svg"
   inkscape:version="1.4.3 (0d15f75042, 2025-12-25)"
   xmlns:inkscape="http://www.inkscape.org/namespaces/inkscape"
   xmlns:sodipodi="http://sodipodi.sourceforge.net/DTD/sodipodi-0.dtd"
   xmlns="http://www.w3.org/2000/svg"
   xmlns:svg="http://www.w3.org/2000/svg"
   xmlns:rdf="http://www.w3.org/1999/02/22-rdf-syntax-ns#"
   xmlns:cc="http://creativecommons.org/ns#"
   xmlns:dc="http://purl.org/dc/elements/1.1/">
  <sodipodi:namedview
     id="namedview7"
     pagecolor="#9c4444"
     bordercolor="#000000"
     borderopacity="0.25"
     inkscape:showpageshadow="2"
     inkscape:pageopacity="0.0"
     inkscape:pagecheckerboard="0"
     inkscape:deskcolor="#d1d1d1"
     inkscape:zoom="4.3531262"
     inkscape:cx="89.935366"
     inkscape:cy="34.457995"
     inkscape:window-width="2560"
     inkscape:window-height="1388"
     inkscape:window-x="0"
     inkscape:window-y="0"
     inkscape:window-maximized="1"
     inkscape:current-layer="svg7"
     showgrid="false" />
  <defs
     id="defs2">
    <style
       id="current-color-scheme"
       type="text/css">.ColorScheme-Text {color:#d8dee9} .ColorScheme-Highlight {color:#3b4252}</style>
  </defs>
  <metadata
     id="metadata2">
    <rdf:RDF>
      <cc:Work
         rdf:about="">
        <dc:format>image/svg+xml</dc:format>
        <dc:type
           rdf:resource="http://purl.org/dc/dcmitype/StillImage" />
      </cc:Work>
    </rdf:RDF>
  </metadata>
  <path
     d="m 0.99469645,3.8344497 c 0,-1.306517 1.07211245,-2.37895 2.37894945,-2.37895 0.3183035,0 0.5863315,0.268028 0.5863315,0.586332 0,0.318303 -0.268028,0.586331 -0.5863315,0.586331 -0.6702302,0 -1.2062865,0.536056 -1.2062865,1.206287 0,0.67023 0.5360563,1.206286 1.2062865,1.206286 a 1.2008427,1.2008427 0 0 0 1.2062867,-1.206286 c 0,-0.318304 0.2680279,-0.586332 0.5860111,-0.586332 0.3179832,0 0.5866518,0.268028 0.5866518,0.586332 0,1.105736 -0.770781,2.043994 -1.7926181,2.312022 v 8.7453373 c 0,0.317983 -0.268028,0.586011 -0.5863315,0.586011 -0.3183033,0 -0.5863314,-0.268028 -0.5863314,-0.586011 V 6.1464717 C 1.7654774,5.8784437 0.99469645,4.9401857 0.99469645,3.8344497 M 7.8635169,2.0418317 v 8.7453373 a 2.3888765,2.3888765 0 0 0 -1.7926182,2.312023 c 0,1.306516 1.0721124,2.378628 2.3789497,2.378628 1.3068372,0 2.3789496,-1.072112 2.3789496,-2.378949 0,-0.318303 -0.268028,-0.586011 -0.586331,-0.586011 -0.3183035,0 -0.5863325,0.267708 -0.5863325,0.586011 0,0.67023 -0.536056,1.206286 -1.2062862,1.206286 -0.6702305,0 -1.2062867,-0.536056 -1.2062867,-1.206286 0,-0.67023 0.5360562,-1.206286 1.2062867,-1.206286 0.3183032,0 0.5863312,-0.268028 0.5863312,-0.586012 V 2.0415107 c 0,-0.318303 -0.268028,-0.586331 -0.5863312,-0.586331 -0.3183035,0 -0.5863314,0.251376 -0.5863314,0.586331 m 5.6791861,0.586332 c 0.318303,0 0.586331,-0.268028 0.586331,-0.586011 0,-0.317984 -0.267708,-0.586332 -0.586011,-0.586332 -1.306837,0 -2.37927,1.072112 -2.37927,2.37895 0,1.105736 0.770781,2.043994 1.792618,2.312022 v 8.7453373 c 0,0.317983 0.268029,0.586011 0.586332,0.586011 0.318303,0 0.586331,-0.268028 0.586331,-0.586011 V 6.1464717 c 1.038809,-0.268028 1.80927,-1.206286 1.80927,-2.312022 0,-0.318304 -0.267708,-0.586332 -0.586011,-0.586332 -0.318304,0 -0.586652,0.268028 -0.586652,0.586332 0,0.67023 -0.536056,1.206286 -1.205966,1.206286 -0.66991,0 -1.206287,-0.536056 -1.206287,-1.206286 0,-0.670231 0.536056,-1.206287 1.189315,-1.206287"
     id="path5"
     style="fill:currentColor"
     class="ColorScheme-Text" />
</svg>
