<?xml version='1.0' encoding='UTF-8'?>
<svg xmlns:inkscape="http://www.inkscape.org/namespaces/inkscape" xmlns:sodipodi="http://sodipodi.sourceforge.net/DTD/sodipodi-0.dtd" xmlns="http://www.w3.org/2000/svg" xmlns:svg="http://www.w3.org/2000/svg" xmlns:rdf="http://www.w3.org/1999/02/22-rdf-syntax-ns#" xmlns:cc="http://creativecommons.org/ns#" xmlns:dc="http://purl.org/dc/elements/1.1/" width="64" height="64" version="1.1" viewBox="0 0 16.933 16.933" id="svg7" sodipodi:docname="org.gnome.Tour.svg" inkscape:version="1.4 (e7c3feb100, 2024-10-09)">
  <sodipodi:namedview id="namedview7" pagecolor="#9c4444" bordercolor="#000000" borderopacity="0.25" inkscape:showpageshadow="2" inkscape:pageopacity="0.0" inkscape:pagecheckerboard="0" inkscape:deskcolor="#d1d1d1" inkscape:zoom="4.3531261" inkscape:cx="16.195258" inkscape:cy="17.228998" inkscape:window-width="1183" inkscape:window-height="941" inkscape:window-x="35" inkscape:window-y="32" inkscape:window-maximized="0" inkscape:current-layer="svg7" showgrid="false"/>
  <defs id="defs2">
    <style id="current-color-scheme" type="text/css">.ColorScheme-Text {color:#d8dee9} .ColorScheme-Highlight {color:#3b4252}</style></defs>
  <metadata id="metadata2">
    <rdf:RDF>
      <cc:Work rdf:about="">
        <dc:format>image/svg+xml</dc:format>
        <dc:type rdf:resource="http://purl.org/dc/dcmitype/StillImage"/>
      </cc:Work>
    </rdf:RDF>
  </metadata>
  <path id="path40" style="fill:currentColor;fill-opacity:1;stroke:none;stroke-width:0.492695;stroke-dasharray:none;stroke-opacity:0.3" d="M 8.5935526,1.5644207 C 7.2937636,1.5459641 5.9658935,1.8193501 4.7414886,2.4227875 0.79896905,4.3658225 -0.20636864,8.89681 2.6359882,11.912935 l 0.3801066,0.403199 -0.2434607,1.216342 c -0.1337714,0.669186 -0.2442028,1.288111 -0.2453852,1.375118 -0.00128,0.09468 0.054467,0.21421 0.1376113,0.29735 0.076399,0.0764 0.1970346,0.137579 0.2684803,0.136648 0.071448,-9.37e-4 0.7265763,-0.327186 1.4559514,-0.72557 l 1.3260415,-0.724607 0.4513161,0.131822 c 1.5472177,0.449819 3.5625099,0.38797 5.1136335,-0.156845 1.523513,-0.535124 2.873007,-1.542525 3.668264,-2.737725 0.370313,-0.556543 0.596024,-1.038834 0.800627,-1.7109587 C 15.885765,8.968992 15.90087,8.8296405 15.90505,7.9867748 15.91056,6.8729602 15.814515,6.4316309 15.370977,5.5175208 14.177677,3.0582896 11.453082,1.6050273 8.593545,1.5644207 Z m 1.7985284,3.2515929 1.655147,0.015409 c 1.612556,0.01463 1.655147,0.017727 1.655147,0.1279859 0,0.094814 -0.05096,0.1193656 -0.310821,0.1510785 -0.236898,0.028912 -0.339836,0.072742 -0.437846,0.1866845 l -0.128953,0.1491557 v 2.1439856 2.1449545 l 0.128953,0.1491557 c 0.098,0.1139449 0.200948,0.157774 0.437846,0.186684 0.25988,0.03171 0.310821,0.05627 0.310821,0.151079 0,0.110261 -0.0426,0.113371 -1.655147,0.127984 l -1.655147,0.01541 v -0.142426 c 0,-0.117465 0.02649,-0.14216 0.15493,-0.142418 0.260781,-5.42e-4 0.575582,-0.1121418 0.636077,-0.225177 0.0761,-0.1421561 0.07789,-4.3846957 0.0019,-4.5266335 -0.06638,-0.1240263 -0.34211,-0.2280631 -0.603358,-0.2280631 -0.16484,0 -0.189573,-0.018696 -0.189573,-0.1424202 z m -7.1873768,0.00192 H 4.7896031 6.37354 v 0.1414588 c 0,0.1243379 -0.024577,0.1414588 -0.2011198,0.1414588 -0.2833322,0 -0.5114524,0.1352325 -0.5850748,0.346426 -0.035011,0.1004416 -0.06255,0.5509026 -0.06255,1.0200318 V 7.3074044 H 6.6285473 7.7322986 V 6.376852 c 0,-0.890499 -0.00585,-0.9372248 -0.130872,-1.0825811 C 7.5000141,5.1763721 7.405069,5.1362308 7.1770549,5.1143219 6.9135587,5.0890025 6.8825929,5.0721324 6.8825929,4.9516933 V 4.8179345 h 1.6137684 1.6128047 v 0.1414588 c 0,0.1243379 -0.02458,0.1414569 -0.2011189,0.1414569 -0.2833316,0 -0.5114525,0.1352325 -0.585075,0.346426 -0.041268,0.1183871 -0.063513,0.8548062 -0.063513,2.1536149 0,2.2549833 0.010355,2.3170703 0.3781815,2.4192079 0.1192041,0.0331 0.2735079,0.06045 0.3435394,0.06063 0.098007,2.43e-4 0.127984,0.03256 0.127984,0.141459 V 10.36364 H 8.4963613 6.8825935 v -0.13376 c 0,-0.118617 0.033961,-0.139424 0.2886881,-0.173213 C 7.3643204,10.031058 7.5043721,9.9737714 7.595654,9.8824878 7.7295527,9.7485986 7.7323001,9.7282629 7.7323001,8.7248481 V 7.7038591 H 6.6285479 5.5247959 v 0.8910846 c 4.513e-4,1.2745092 0.047717,1.3909978 0.5918111,1.4655743 0.2224719,0.03049 0.256933,0.05353 0.256933,0.169364 v 0.13376 H 4.7896031 3.2047042 v -0.13376 c 0,-0.11811 0.033507,-0.138586 0.2800275,-0.171287 0.2076147,-0.02754 0.3104372,-0.075394 0.3964654,-0.1847617 0.1123109,-0.1427907 0.1154763,-0.216162 0.1154763,-2.2662039 0,-1.4091412 -0.019948,-2.1565178 -0.060627,-2.2325228 -0.070133,-0.13105 -0.3773996,-0.2742541 -0.5879597,-0.2742541 -0.1151229,0 -0.1433816,-0.027797 -0.1433816,-0.1414569 z" class="ColorScheme-Text"/>
</svg>
