<?xml version='1.0' encoding='UTF-8'?>
<svg xmlns:inkscape="http://www.inkscape.org/namespaces/inkscape" xmlns:sodipodi="http://sodipodi.sourceforge.net/DTD/sodipodi-0.dtd" xmlns="http://www.w3.org/2000/svg" xmlns:svg="http://www.w3.org/2000/svg" xmlns:rdf="http://www.w3.org/1999/02/22-rdf-syntax-ns#" xmlns:cc="http://creativecommons.org/ns#" xmlns:dc="http://purl.org/dc/elements/1.1/" width="64" height="64" version="1.1" viewBox="0 0 16.933 16.933" id="svg7" sodipodi:docname="org.raspberrypi.rpi-imager.svg" inkscape:version="1.4 (e7c3feb100, 2024-10-09)">
  <sodipodi:namedview id="namedview7" pagecolor="#9c4444" bordercolor="#000000" borderopacity="0.25" inkscape:showpageshadow="2" inkscape:pageopacity="0.0" inkscape:pagecheckerboard="0" inkscape:deskcolor="#d1d1d1" inkscape:zoom="6.15625" inkscape:cx="15.51269" inkscape:cy="29.725888" inkscape:window-width="1183" inkscape:window-height="941" inkscape:window-x="35" inkscape:window-y="32" inkscape:window-maximized="0" inkscape:current-layer="svg7" showgrid="false"/>
  <defs id="defs2">
    <style id="current-color-scheme" type="text/css">.ColorScheme-Text {color:#d8dee9} .ColorScheme-Highlight {color:#3b4252}</style></defs>
  <metadata id="metadata2">
    <rdf:RDF>
      <cc:Work rdf:about="">
        <dc:format>image/svg+xml</dc:format>
        <dc:type rdf:resource="http://purl.org/dc/dcmitype/StillImage"/>
      </cc:Work>
    </rdf:RDF>
  </metadata>
  <path id="path5" style="fill:currentColor;fill-opacity:1;stroke-width:0.0342317" d="m 11.118544,1.5221999 c -0.03212,0 -0.198748,0.111587 -0.317926,0.2129788 -0.128885,0.1096547 -0.165076,0.101289 -0.203719,-0.047846 L 10.569109,1.5823881 10.37928,1.756012 c -0.202263,0.1848567 -0.268268,0.1868859 -0.271626,0.00773 -0.0014,-0.077976 -0.02709,-0.059899 -0.2384445,0.1682222 L 9.6330883,2.1873798 9.5860177,2.0754869 9.5389471,1.9635959 9.4185669,2.1109827 C 9.1060815,2.4927246 8.9135801,2.9400209 8.912355,3.2869974 8.9118109,3.4608227 8.929227,3.5230312 9.0227013,3.6766876 9.0866534,3.7818184 9.1860291,3.8895775 9.2565157,3.9297931 L 9.3792101,3.9992438 9.6670409,3.7901231 C 10.322903,3.3145943 10.994571,2.951565 11.786803,2.6426584 12.493122,2.3672517 12.491296,2.3830221 11.769874,2.7831007 10.890104,3.2709633 10.157371,3.7758853 9.8044478,4.1373709 9.6545568,4.2908947 9.6532572,4.293777 9.6933244,4.4275161 c 0.09416,0.3142811 0.4860016,0.6065948 0.9753836,0.726907 0.134703,0.033115 0.35908,0.061121 0.498495,0.062504 l 0.25388,0.00232 -0.06406,-0.070222 c -0.05465,-0.060382 -0.05669,-0.075572 -0.01402,-0.1026285 0.0275,-0.017385 0.09803,-0.031344 0.156653,-0.031641 0.122227,-5.44e-4 0.461975,-0.061484 0.487692,-0.0872 0.0095,-0.00948 -0.01292,-0.038815 -0.04936,-0.06559 -0.08727,-0.064404 -0.04881,-0.096398 0.225325,-0.1875129 0.12236,-0.040673 0.260826,-0.095813 0.307891,-0.1226963 l 0.08565,-0.048613 -0.08565,-0.00232 c -0.08712,-0.00181 -0.199052,-0.053531 -0.169765,-0.078709 0.0089,-0.00762 0.10849,-0.062455 0.221468,-0.121923 0.112955,-0.059468 0.251409,-0.1459257 0.307895,-0.1921457 l 0.102657,-0.084109 -0.108794,-0.00152 c -0.06008,-6.531e-4 -0.117895,-0.014402 -0.128098,-0.030865 -0.01007,-0.016492 0.08831,-0.1094989 0.219151,-0.2068053 0.130872,-0.097309 0.247386,-0.1918959 0.258505,-0.2098928 0.0114,-0.018468 -0.0331,-0.033178 -0.101859,-0.033178 -0.06701,0 -0.121923,-0.011419 -0.121923,-0.026239 0,-0.014839 0.07805,-0.1041162 0.173622,-0.1975461 0.09555,-0.093427 0.189316,-0.1983136 0.20835,-0.233042 0.02975,-0.054291 0.02514,-0.059613 -0.03625,-0.040128 -0.08457,0.026839 -0.20835,-0.00612 -0.20835,-0.05556 0,-0.019181 0.08852,-0.1212808 0.196773,-0.2268688 L 13.481363,2.570143 13.344012,2.5508466 c -0.122265,-0.017005 -0.135071,-0.027755 -0.125001,-0.1041751 0.0063,-0.047069 0.05597,-0.1666091 0.111131,-0.2654524 l 0.100301,-0.179797 -0.265452,-0.0023 c -0.146091,-0.00131 -0.29378,-0.013509 -0.327959,-0.027007 -0.05886,-0.023207 -0.05846,-0.027297 0.0078,-0.087201 0.03844,-0.034787 0.06177,-0.07706 0.0517,-0.093372 -0.02858,-0.046231 -0.245611,-0.034669 -0.485374,0.025464 -0.120118,0.030126 -0.227972,0.044431 -0.239989,0.032408 -0.01178,-0.012027 -0.0047,-0.066931 0.01634,-0.1226963 0.02105,-0.055767 0.02829,-0.1018609 0.01539,-0.1018609 -0.01292,0 -0.134976,0.031023 -0.270855,0.068679 -0.135869,0.037656 -0.255025,0.068679 -0.264681,0.068679 -0.04075,0 -0.01292,-0.1196183 0.04245,-0.1821131 0.05843,-0.066055 0.05772,-0.06761 -0.04245,-0.04476 -0.05649,0.012901 -0.194593,0.068731 -0.307122,0.1234677 -0.218073,0.1060751 -0.276268,0.091597 -0.240759,-0.059417 0.01009,-0.042362 0.0099,-0.077167 -7.97e-4,-0.077167 z m -5.6941085,0.00232 c -0.028017,0.00135 -0.021565,0.026627 0.010032,0.07485 C 5.5228655,1.7342832 5.4565395,1.7797122 5.2608436,1.717434 5.1692046,1.688271 5.0404524,1.653761 4.9745562,1.641039 4.8765732,1.622115 4.8623973,1.626105 4.8973912,1.66264 4.9435692,1.710862 4.9572832,1.8647124 4.9151372,1.8640446 4.9010395,1.8638195 4.8041661,1.8409067 4.7006146,1.8131116 4.5065115,1.7610098 4.2214108,1.7439497 4.2214108,1.7845622 c 0,0.012635 0.025838,0.051879 0.057104,0.086423 0.031259,0.034546 0.045619,0.073965 0.031641,0.08797 -0.013965,0.014003 -0.1631929,0.031236 -0.3310438,0.037808 l -0.3048066,0.011552 0.068679,0.097227 c 0.066432,0.093294 0.1705383,0.3479338 0.1705383,0.4174706 0,0.018468 -0.061159,0.027254 -0.1365853,0.02006 -0.07531,-0.00718 -0.1373567,3.213e-4 -0.1373567,0.016207 0,0.015884 0.095481,0.1196525 0.2122065,0.230728 0.1167284,0.111074 0.2002898,0.2133227 0.185972,0.2276407 -0.014307,0.014307 -0.085015,0.026239 -0.1574188,0.026239 H 3.7483802 l 0.067135,0.094145 c 0.036816,0.051701 0.1355441,0.149872 0.2191522,0.2183805 0.1673577,0.1371363 0.1693033,0.1852006 0.00771,0.1852006 H 3.9358898 l 0.082568,0.088739 c 0.045644,0.048777 0.156731,0.1425589 0.2461604,0.2083485 0.089429,0.065787 0.1620491,0.1340241 0.1620491,0.1512457 0,0.017214 -0.055265,0.031641 -0.1234677,0.031641 -0.1684274,0 -0.122284,0.049182 0.225325,0.2407595 0.1514452,0.083465 0.2702463,0.1669112 0.2639094,0.1859701 -0.00633,0.019061 -0.056962,0.0437 -0.111891,0.054017 l -0.099545,0.018525 0.1026285,0.053244 c 0.056483,0.029482 0.2097709,0.089053 0.3403035,0.1319531 l 0.2369013,0.077938 -0.079481,0.064819 c -0.043768,0.035441 -0.072088,0.071444 -0.063278,0.080252 0.027664,0.027662 0.3730354,0.084882 0.512385,0.084882 0.1460378,0 0.2034649,0.067239 0.1311817,0.1543351 -0.036653,0.044164 -0.013281,0.050671 0.17594,0.050158 0.6607826,-0.00184 1.2489253,-0.2989498 1.456133,-0.7353853 L 7.4755239,4.3125304 7.2069847,4.0555662 C 7.0593813,3.9143554 6.7935383,3.6950699 6.6158919,3.5686413 6.2653554,3.3191671 5.3934224,2.7907771 5.054044,2.6218093 4.7848556,2.4877871 4.7479141,2.4313218 4.9822803,2.5122335 5.8849214,2.8238584 6.8953817,3.3551274 7.5318578,3.8533855 l 0.212207,0.1666794 0.145844,-0.1111215 C 8.26859,3.6201151 8.3059313,3.2023038 8.007202,2.6009743 7.8395654,2.263529 7.5461577,1.8964799 7.543432,2.0206837 7.5397213,2.1909005 7.4696096,2.1684465 7.2316802,1.9211395 L 6.9963224,1.6765211 6.9955242,1.7853256 c -5.445e-4,0.06008 -0.017157,0.1196791 -0.037018,0.131955 C 6.9386382,1.9295546 6.8342294,1.8573698 6.7270064,1.7567743 6.538857,1.580251 6.5316263,1.5769507 6.5202001,1.6595456 6.4961461,1.8334298 6.4533828,1.8352025 6.2346843,1.6742136 6.0042726,1.5045911 5.9657476,1.491198 5.99161,1.5900987 6.00138,1.6274737 6.00088,1.6815667 5.99009,1.7097056 5.9739174,1.751859 5.9263148,1.739927 5.7215469,1.6417977 5.5534615,1.561242 5.4604842,1.5227342 5.424453,1.5245008 Z M 8.5141777,5.2995116 C 7.9971547,5.3082896 7.3738965,5.5980848 7.118238,5.9670004 7.0163809,6.1139825 7.0007648,6.2989473 7.07811,6.4485188 7.1968087,6.6780553 7.6097779,6.924669 8.0257136,7.0149203 8.3237736,7.0795963 8.825925,7.0789845 9.1438544,7.0133967 9.8227951,6.8732655 10.176021,6.5205037 10.027409,6.131367 9.8797199,5.7446512 9.2605199,5.3677514 8.6708234,5.3056866 8.6201485,5.3003666 8.567661,5.2985996 8.514176,5.2994926 Z M 6.2964154,5.6035293 C 6.1069864,5.6030577 5.8935134,5.6160507 5.7709127,5.6421126 5.111884,5.7822043 4.6295738,6.2048346 4.4058396,6.8389632 4.3479844,7.0029437 4.2850901,7.5275421 4.3140109,7.6029111 4.3955139,7.8153035 5.3301773,7.1844211 6.1621466,6.3559019 6.5058887,6.013585 6.7332519,5.7000618 6.6776178,5.6444281 6.6511804,5.6180054 6.485846,5.6040014 6.2964154,5.6035316 Z m 4.3884526,0.033178 c -0.06099,8.708e-4 -0.12279,0.00422 -0.185199,0.010032 -0.214371,0.020091 -0.253107,0.033161 -0.253107,0.086423 0,0.2766322 1.465111,1.6072687 2.090435,1.8982934 0.101992,0.047462 0.2011,0.080866 0.219929,0.074851 0.05748,-0.018354 0.05861,-0.4558191 0.0015,-0.682925 C 12.342771,6.1651252 11.599666,5.6239602 10.684861,5.636712 Z M 10.251193,7.1707762 C 9.8826776,7.1689294 9.5273305,7.3052742 9.2588333,7.5990491 9.0661251,7.8099066 8.9560246,8.0613586 8.9069546,8.4023518 8.8302919,8.9351073 9.0573953,9.5682281 9.4772151,9.9942942 9.7171905,10.237844 9.927594,10.371586 10.246563,10.48353 c 0.182462,0.06402 0.277495,0.07635 0.530134,0.06713 0.356562,-0.01307 0.600755,-0.105283 0.831855,-0.314067 0.50578,-0.4569428 0.612426,-1.2821008 0.256193,-1.98626 C 11.51648,7.5619435 10.865388,7.1738574 10.251193,7.1707874 Z M 6.8404392,7.2618318 C 6.5911752,7.2627022 6.488074,7.2799578 6.2995028,7.3528874 5.2484239,7.7594279 4.7072912,9.0172572 5.1829049,9.9495361 c 0.1641391,0.3217369 0.5358127,0.6025609 0.898217,0.6790649 0.078753,0.01661 0.2419228,0.02238 0.3626817,0.01324 C 7.938335,10.527255 8.7700275,8.5372526 7.7232229,7.58053 7.4662527,7.3456775 7.2293162,7.26049 6.8404392,7.2618318 Z m 5.9472138,0.9082441 c -0.02666,5.08e-4 -0.05105,0.013642 -0.09027,0.039358 -0.128345,0.084083 -0.191372,0.3418752 -0.191372,0.7793813 0,0.8147502 0.221422,1.6929868 0.49695,1.9685138 0.116451,0.116457 0.198896,0.101035 0.339532,-0.06327 0.262691,-0.306898 0.394461,-0.6992 0.395092,-1.1783318 4.72e-4,-0.380319 -0.07934,-0.6657948 -0.266995,-0.9560891 -0.141968,-0.2196402 -0.403189,-0.4698259 -0.577978,-0.5540543 -0.04957,-0.023894 -0.07828,-0.036037 -0.104937,-0.035496 z m -8.6372345,0.038583 c -0.04757,-0.00418 -0.099917,0.024558 -0.2222389,0.1088054 -0.481413,0.3315606 -0.7338522,0.8256465 -0.7338522,1.4368387 0,0.490124 0.1353902,0.891236 0.3989497,1.182961 0.067423,0.07463 0.148523,0.135818 0.1797989,0.135818 0.3395186,0 0.6838069,-1.14833 0.6481975,-2.1622038 C 4.4062445,8.4826166 4.3433906,8.2891012 4.1990341,8.2233302 4.1818201,8.2155022 4.16628,8.2100492 4.1504188,8.2086622 Z m 4.4015709,2.1814851 c -0.4307368,0.0071 -0.8664135,0.169231 -1.2061109,0.500811 -0.2419336,0.236151 -0.4158509,0.598479 -0.4429346,0.922137 -0.068153,0.814429 0.5749085,1.54014 1.4777358,1.667567 0.178505,0.02519 0.5402246,-0.01615 0.7531444,-0.08643 0.9222129,-0.303552 1.3702739,-1.27269 0.9661239,-2.090433 C 9.8015451,10.700027 9.1815248,10.379703 8.5519894,10.390144 Z m 3.7657186,0.577976 c -0.282241,0.0077 -0.611969,0.215931 -1.047147,0.650516 -0.352573,0.352089 -0.413582,0.431336 -0.555598,0.720731 -0.278213,0.566948 -0.369642,1.122031 -0.233814,1.420634 0.07387,0.162374 0.131613,0.21473 0.304036,0.276254 0.309347,0.11039 0.77571,0.02181 1.186818,-0.225323 0.218407,-0.13129 0.627721,-0.546109 0.755461,-0.766262 0.164464,-0.283431 0.232847,-0.558562 0.234584,-0.944517 0.0025,-0.547846 -0.143013,-0.963151 -0.375801,-1.074156 -0.08577,-0.04091 -0.174458,-0.06048 -0.268539,-0.05788 z m -7.6718815,0.243858 c -0.09558,6.54e-4 -0.1815165,0.01938 -0.2531054,0.05633 -0.3795096,0.195914 -0.4095159,0.990084 -0.064817,1.712325 0.2091552,0.438247 0.7541679,0.88768 1.2323464,1.01628 0.2455266,0.06602 0.4935049,0.06318 0.6782926,-0.0078 0.2094312,-0.08021 0.31092,-0.271364 0.3102089,-0.584804 C 6.5469042,12.593538 5.9891552,11.755938 5.1844484,11.355547 4.9914633,11.259528 4.8051206,11.210896 4.6458277,11.212004 Z m 3.9748409,2.824288 c -0.6282667,-1.63e-4 -1.0020157,0.07119 -1.3843651,0.26391 -0.4162317,0.209791 -0.4363946,0.359256 -0.0926,0.696043 0.2472122,0.242172 0.6668533,0.46648 1.0147378,0.54325 0.5802603,0.12806 1.2630307,-0.09449 1.7462757,-0.568714 C 10.25727,14.624778 10.245847,14.446874 9.8576449,14.257738 9.5029757,14.084933 9.2351278,14.036432 8.6206674,14.036266 Z" class="ColorScheme-Text"/>
  <g id="g9" transform="matrix(0.46959567,0,0,0.46959567,4.7471229,3.7470598)" style="fill:#999999;fill-opacity:1;stroke:none;stroke-width:0.58349;stroke-dasharray:none;stroke-opacity:0.3"/>
  </svg>
