<?xml version='1.0' encoding='UTF-8'?>
<svg xmlns:inkscape="http://www.inkscape.org/namespaces/inkscape" xmlns:sodipodi="http://sodipodi.sourceforge.net/DTD/sodipodi-0.dtd" xmlns="http://www.w3.org/2000/svg" xmlns:svg="http://www.w3.org/2000/svg" xmlns:rdf="http://www.w3.org/1999/02/22-rdf-syntax-ns#" xmlns:cc="http://creativecommons.org/ns#" xmlns:dc="http://purl.org/dc/elements/1.1/" width="64" height="64" version="1.1" viewBox="0 0 16.933 16.933" id="svg7" sodipodi:docname="org.gnome.seahorse.Application.svg" inkscape:version="1.4 (e7c3feb100, 2024-10-09)">
  <sodipodi:namedview id="namedview7" pagecolor="#9c4444" bordercolor="#000000" borderopacity="0.25" inkscape:showpageshadow="2" inkscape:pageopacity="0.0" inkscape:pagecheckerboard="0" inkscape:deskcolor="#d1d1d1" inkscape:zoom="6.15625" inkscape:cx="16.974619" inkscape:cy="29.725888" inkscape:window-width="1183" inkscape:window-height="941" inkscape:window-x="35" inkscape:window-y="32" inkscape:window-maximized="0" inkscape:current-layer="svg7" showgrid="false"/>
  <defs id="defs2">
    <style id="current-color-scheme" type="text/css">.ColorScheme-Text {color:#d8dee9} .ColorScheme-Highlight {color:#3b4252}</style></defs>
  <metadata id="metadata2">
    <rdf:RDF>
      <cc:Work rdf:about="">
        <dc:format>image/svg+xml</dc:format>
        <dc:type rdf:resource="http://purl.org/dc/dcmitype/StillImage"/>
      </cc:Work>
    </rdf:RDF>
  </metadata>
  <path style="fill:currentColor;fill-opacity:1;stroke-width:0.0768791;stroke-opacity:0.3" d="M 2.9973723,15.406814 C 2.6952182,15.284583 2.441101,14.890632 2.3888626,14.463458 2.3616525,14.241035 2.3504708,12.744441 2.3640106,11.137686 2.3864824,8.4704419 2.4007022,8.1985063 2.5276513,8.0115298 2.7343145,7.7071342 3.1074224,7.5628571 3.6879395,7.5628571 h 0.5073099 l 9.07e-4,-1.5567811 c 0.0012,-2.0834545 0.1619061,-2.6601403 0.973763,-3.494683 0.7469667,-0.7678384 1.923875,-1.1729899 3.4073752,-1.1729899 1.3905581,0 2.4695644,0.3404717 3.1933494,1.0076341 0.505676,0.4661163 0.767572,0.876839 1.004547,1.5753912 0.187207,0.5518237 0.20852,0.7376171 0.243622,2.1230866 l 0.03849,1.5183421 0.5084,2.884e-4 c 0.374228,2.115e-4 0.575552,0.04123 0.762877,0.155439 0.46731,0.2849102 0.47586,0.3533748 0.47586,3.8086255 0,3.45766 -0.007,3.512484 -0.493555,3.80912 -0.225992,0.137807 -0.485594,0.144191 -5.6951287,0.139802 -3.0020876,-0.0025 -5.5303555,-0.03374 -5.6183699,-0.06933 z M 11.268039,6.1819358 c 0,-1.2060311 -0.02004,-1.4345209 -0.158346,-1.804142 C 10.91573,3.859386 10.429668,3.4033129 9.8589018,3.2041767 9.3794395,3.0368939 7.9455456,3.0121612 7.4504759,3.1626348 6.8737109,3.3379379 6.4127295,3.712327 6.1573737,4.2128377 5.9267619,4.6648483 5.9248213,4.6791902 5.8998004,6.1155699 l -0.025203,1.4472885 h 2.6967247 2.6967229 z" id="path53" class="ColorScheme-Text"/>
  <g id="g9" transform="matrix(0.46959567,0,0,0.46959567,4.7471229,3.7470598)" style="fill:#999999;fill-opacity:1;stroke:none;stroke-width:0.58349;stroke-dasharray:none;stroke-opacity:0.3"/>
  </svg>
