<?xml version="1.0" encoding="UTF-8" standalone="no"?>
<svg
   width="64"
   height="64"
   version="1.1"
   viewBox="0 0 16.933 16.933"
   id="svg7"
   sodipodi:docname="org.xfce.mousepad.svg"
   inkscape:version="1.4.2 (ebf0e940d0, 2025-05-08)"
   xmlns:inkscape="http://www.inkscape.org/namespaces/inkscape"
   xmlns:sodipodi="http://sodipodi.sourceforge.net/DTD/sodipodi-0.dtd"
   xmlns="http://www.w3.org/2000/svg"
   xmlns:svg="http://www.w3.org/2000/svg"
   xmlns:rdf="http://www.w3.org/1999/02/22-rdf-syntax-ns#"
   xmlns:cc="http://creativecommons.org/ns#"
   xmlns:dc="http://purl.org/dc/elements/1.1/">
  <sodipodi:namedview
     id="namedview7"
     pagecolor="#9c4444"
     bordercolor="#000000"
     borderopacity="0.25"
     inkscape:showpageshadow="2"
     inkscape:pageopacity="0.0"
     inkscape:pagecheckerboard="0"
     inkscape:deskcolor="#d1d1d1"
     inkscape:zoom="12.3125"
     inkscape:cx="35.736041"
     inkscape:cy="46.213198"
     inkscape:window-width="2560"
     inkscape:window-height="1392"
     inkscape:window-x="0"
     inkscape:window-y="0"
     inkscape:window-maximized="1"
     inkscape:current-layer="svg7"
     showgrid="false" />
  <defs
     id="defs2">
    <inkscape:path-effect
       effect="offset"
       id="path-effect1"
       is_visible="true"
       lpeversion="1.3"
       linejoin_type="miter"
       unit="mm"
       offset="-0.3"
       miter_limit="4"
       attempt_force_join="false"
       update_on_knot_move="true" />
    <style
       id="current-color-scheme"
       type="text/css">.ColorScheme-Text {color:#d8dee9} .ColorScheme-Highlight {color:#3b4252}</style>
  </defs>
  <metadata
     id="metadata2">
    <rdf:RDF>
      <cc:Work
         rdf:about="">
        <dc:format>image/svg+xml</dc:format>
        <dc:type
           rdf:resource="http://purl.org/dc/dcmitype/StillImage" />
      </cc:Work>
    </rdf:RDF>
  </metadata>
  <path
     id="path5"
     class="ColorScheme-Text"
     style="opacity:1;fill:currentColor;fill-opacity:1;stroke:none;stroke-width:0.0999981;stroke-linejoin:bevel;paint-order:fill markers stroke"
     d="m 2.8529996,1.5042711 c -0.7328815,0 -1.3228906,0.5900093 -1.3228906,1.3228907 V 14.105838 c 0,0.732881 0.5900091,1.322891 1.3228906,1.322891 h 8.6576994 c 0.732882,0 1.32289,-0.59001 1.32289,-1.322891 V 8.5558983 C 12.53118,8.8614537 12.197629,9.1973972 11.830569,9.5677029 9.755268,11.661353 8.0400827,13.380367 8.0189907,13.388067 7.9978908,13.39589 7.4619766,12.88381 6.8283892,12.249657 L 5.6765442,11.096779 9.479338,7.2831328 c 1.390117,-1.3942612 2.644134,-2.636901 3.354251,-3.3268632 V 2.8271618 c 0,-0.7328814 -0.590008,-1.3228907 -1.32289,-1.3228907 z m -0.542592,0.3906662 c 0.020174,-0.00337 0.5232953,0.262215 0.8614293,0.3539766 0.6029558,0.1540856 1.153501,0.6177689 1.4195235,0.8841663 l 5.168e-4,5.168e-4 v 5.167e-4 c 1.968e-4,1.276e-4 8.147e-4,-1.046e-4 0.00103,0 l 5.168e-4,5.168e-4 c 0.032775,0.00746 0.2349069,-0.1576088 0.4449253,-0.1452079 0.2984219,0.018075 1.2217382,0.2780947 1.345111,0.1012838 0.074812,-0.103799 0.069441,-0.2310193 0.1627776,-0.2831813 0.00118,-3.296e-4 0.00223,-0.00129 0.0031,-0.00207 0.032023,-0.038343 -0.1820395,-0.449891 0.06201,-0.584449 0.179623,-0.089774 0.3316253,0.4123718 0.3777473,0.4686961 0.020662,0.0252 0.1302743,0.032091 0.1173032,-0.025321 C 7.0923452,2.6020226 6.9148179,2.1195191 7.1322406,2.0385949 7.4853752,1.8987587 7.4232841,2.655778 7.4324748,2.6773031 v 5.167e-4 h 5.167e-4 l 5.168e-4,5.168e-4 c 0.055168,0.044912 1.2299756,0.088293 1.3022207,0.624239 0.04245,0.2996218 -0.970165,0.687012 -1.0691646,0.7560113 -0.098955,0.068999 -0.090267,0.1792385 -0.051675,0.2475252 0.044362,0.074062 0.3391662,0.3243142 0.2997174,0.4433751 C 7.8874941,4.8182617 7.3373932,4.5657613 7.3022527,4.6187484 7.222116,4.7199595 7.7028704,4.9732993 7.5368591,5.1530722 7.4710472,5.196122 6.7138268,4.8361959 6.7157368,4.8404359 6.6954123,4.8481609 5.6456519,5.0321414 4.8388857,4.7882438 H 4.8383689 4.8378522 4.8373354 C 4.7953904,4.7951424 4.3200655,5.2608161 4.2652886,5.2445377 4.1892016,5.2166378 4.3771595,4.8266242 4.3562373,4.7494872 4.3220381,4.7065129 4.0099245,4.9233929 3.9919256,4.8140815 3.9704005,4.6704206 4.266129,4.5057083 4.2523697,4.4104965 4.1760577,3.8696023 4.2865966,3.5536914 4.4740573,3.2896567 4.5365687,3.1924577 3.7391752,2.590379 3.1620185,2.3527814 2.6205472,2.1298597 2.3156317,1.9383839 2.3083406,1.9001048 c -2.03e-5,-2.844e-4 -5.341e-4,-0.00129 -5.167e-4,-0.00155 v -5.17e-4 l 5.167e-4,-5.168e-4 v -5.167e-4 -5.168e-4 h 5.168e-4 5.167e-4 V 1.8959708 1.895454 h 5.168e-4 z m 6.308018,0.3570771 h 5.167e-4 5.168e-4 l 5.168e-4,5.167e-4 v 5.168e-4 c 2.372e-4,1.729e-4 8.064e-4,2.969e-4 0.00103,5.167e-4 0.026672,0.032728 -0.022617,0.4129747 -0.05736,0.4454421 -5.609e-4,4.355e-4 -0.00203,0.0013 -0.00258,0.00155 h -5.167e-4 l -5.168e-4,5.167e-4 H 8.5595156 8.5589988 L 8.5584821,2.700557 H 8.5579653 8.5574485 L 8.5569318,2.7000402 H 8.556415 C 8.517961,2.6813482 8.594429,2.2807266 8.616875,2.2535646 l 5.168e-4,-5.167e-4 5.167e-4,-5.168e-4 z m 0.2971334,0.05736 h 5.17e-4 5.171e-4 5.159e-4 5.17e-4 c 7e-4,5.63e-5 0.0014,3.666e-4 0.0021,5.168e-4 h 5.17e-4 5.17e-4 l 5.16e-4,5.167e-4 v 5.168e-4 h 5.17e-4 5.17e-4 v 5.167e-4 C 8.92651,2.3438664 8.727926,2.7458755 8.6866701,2.7413809 H 8.6861203 8.6856036 L 8.6850868,2.7408638 H 8.6845701 8.6840533 V 2.7403471 C 8.6288277,2.6994549 8.863685,2.3222267 8.915559,2.3093744 Z m 4.74122,1.3197901 c -0.0061,0.00126 -0.02173,0.00474 -0.04909,0.01757 l -0.0015,0.00155 C 13.485991,3.752632 12.838088,4.3786286 11.969059,5.2383366 11.320793,5.8796504 10.534011,6.6631413 9.697925,7.5017198 L 6.1137182,11.095745 7.0474929,12.03107 c 0.3783471,0.378685 0.7239011,0.713597 0.9394591,0.916205 0.00735,0.0069 0.014145,0.01511 0.021187,0.0217 0.5107526,-0.505936 1.944108,-1.947018 3.601776,-3.6193424 2.35563,-2.3764588 3.327222,-3.3644822 3.658103,-3.7888414 0.09198,-0.1179666 0.124714,-0.1855637 0.134873,-0.2072184 -0.0093,-0.012619 -0.02499,-0.032439 -0.04496,-0.056843 C 15.314124,5.2431816 15.248837,5.1697725 15.170351,5.0822769 15.01338,4.9072856 14.801739,4.679445 14.574534,4.447186 14.238525,4.1037063 14.009245,3.8778813 13.857796,3.7537019 13.728135,3.6473874 13.674143,3.631864 13.662463,3.6291642 h -0.0015 -0.0021 z m -0.04909,0.01757 c 0.0072,-0.00405 0.01157,-0.00664 0.01395,-0.00827 v -0.00155 h -0.0021 c -9.69e-4,6.042e-4 -0.005,0.00301 -0.0057,0.00362 l -0.0021,0.00207 c -0.0011,8.96e-4 -0.0029,0.00306 -0.0041,0.00413 z m 0.01602,-0.011885 v 0.00207 h 0.0016 v -0.00207 z m -8.4892369,8.1120065 0.8066532,0.841793 c 0.4437979,0.463052 0.9030983,0.949759 1.0211062,1.081566 l 0.2149697,0.239257 H 6.1555753 5.1344691 v -1.081566 z"
     sodipodi:nodetypes="sssssscscccccsssccsccccccccccccccccccccccccccccccccccccccccccccccccccccccccccccccccccccccccccccccccccccccccccscccscsscssssccccccccccccccccccccccccc" />
</svg>
