<?xml version="1.0" encoding="UTF-8" standalone="no"?>
<svg
   id="svg3297"
   height="64"
   width="64"
   version="1.0"
   sodipodi:docname="org.gnome.World.PikaBackup.svg"
   inkscape:version="1.4.2 (ebf0e940d0, 2025-05-08)"
   xmlns:inkscape="http://www.inkscape.org/namespaces/inkscape"
   xmlns:sodipodi="http://sodipodi.sourceforge.net/DTD/sodipodi-0.dtd"
   xmlns="http://www.w3.org/2000/svg"
   xmlns:svg="http://www.w3.org/2000/svg"
   xmlns:rdf="http://www.w3.org/1999/02/22-rdf-syntax-ns#"
   xmlns:cc="http://creativecommons.org/ns#"
   xmlns:dc="http://purl.org/dc/elements/1.1/">
  <sodipodi:namedview
     id="namedview1"
     pagecolor="#9c4444"
     bordercolor="#000000"
     borderopacity="0.25"
     inkscape:showpageshadow="2"
     inkscape:pageopacity="0.0"
     inkscape:pagecheckerboard="0"
     inkscape:deskcolor="#d1d1d1"
     inkscape:zoom="9.2586794"
     inkscape:cx="72.850562"
     inkscape:cy="37.802367"
     inkscape:window-width="2560"
     inkscape:window-height="1388"
     inkscape:window-x="0"
     inkscape:window-y="0"
     inkscape:window-maximized="1"
     inkscape:current-layer="svg3297" />
  <metadata
     id="metadata58">
    <rdf:RDF>
      <cc:Work
         rdf:about="">
        <dc:format>image/svg+xml</dc:format>
        <dc:type
           rdf:resource="http://purl.org/dc/dcmitype/StillImage" />
      </cc:Work>
    </rdf:RDF>
  </metadata>
  <defs
     id="defs3299">
    <style
       id="current-color-scheme"
       type="text/css">.ColorScheme-Text {color:#d8dee9} .ColorScheme-Highlight {color:#3b4252}</style>
  </defs>
  <path
     id="path5"
     style="fill:currentColor;fill-opacity:1;stroke-width:0.456897"
     d="m 32,5.5 c -11.608029,0 -21.017241,9.409213 -21.017241,21.017241 0,11.608028 9.409212,21.017242 21.017241,21.017242 11.608028,0 21.017241,-9.409214 21.017241,-21.017242 C 53.017241,14.909213 43.608028,5.5 32,5.5 Z m 0.387292,7.77438 c 2.064314,0.06145 4.130223,0.621754 6.009259,1.707116 5.010871,2.892437 7.458234,8.801568 5.960179,14.390456 -1.49798,5.588624 -6.57024,9.481496 -12.35673,9.481496 -5.786487,0 -10.858751,-3.892872 -12.356731,-9.481496 a 0.91379539,0.91379539 0 0 1 0.64608,-1.119039 0.91379539,0.91379539 0 0 1 1.119039,0.64608 C 22.69462,33.697627 27.031571,37.025862 32,37.025862 c 4.96843,0 9.305379,-3.328235 10.591611,-8.126869 1.286159,-4.79837 -0.806883,-9.851186 -5.108852,-12.334422 -4.224671,-2.440237 -9.528345,-1.795703 -13.045647,1.554519 l 1.355519,1.35552 a 0.91388448,0.91388448 0 0 1 -0.64608,1.559873 H 21.034482 A 0.91388448,0.91388448 0 0 1 20.120689,20.12069 v -4.112069 a 0.91388448,0.91388448 0 0 1 0.563982,-0.844188 0.91388448,0.91388448 0 0 1 0.349811,-0.0696 0.91388448,0.91388448 0 0 1 0.64608,0.267713 l 1.463497,1.463496 C 25.680481,14.39395 29.031777,13.1745 32.387292,13.274385 Z M 32,18.75 a 0.9137931,0.9137931 0 0 1 0.913792,0.913793 v 6.792767 l 4.125457,2.475451 a 0.9137931,0.9137931 0 0 1 0.31322,1.253789 0.9137931,0.9137931 0 0 1 -1.253788,0.313224 L 31.086207,27.491716 V 19.663793 A 0.9137931,0.9137931 0 0 1 32,18.75 Z M 11.282597,33.731209 C 12.973209,43.64404 21.605095,51.189655 32,51.189655 c 10.394903,0 19.026789,-7.545615 20.717403,-17.458446 C 49.734531,42.299964 41.586151,48.448276 32,48.448276 c -9.586153,0 -17.73453,-6.148312 -20.717403,-14.717067 z m 0,3.651603 C 12.971601,47.297574 21.603726,54.844828 32,54.844828 c 10.396279,0 19.028402,-7.547251 20.717403,-17.462016 C 49.734125,45.95691 41.58292,52.103448 32,52.103448 c -9.582917,0 -17.734121,-6.146541 -20.717403,-14.720636 z m -9.13e-4,3.652496 C 12.969555,50.951452 21.602742,58.5 32,58.5 42.397256,58.5 51.030445,50.951452 52.718294,41.035308 49.736089,49.611009 41.584131,55.758621 32,55.758621 c -9.58413,0 -17.736086,-6.147612 -20.718295,-14.723313 z"
     class="ColorScheme-Text" />
</svg>
