<?xml version='1.0' encoding='UTF-8'?>
<svg xmlns:inkscape="http://www.inkscape.org/namespaces/inkscape" xmlns:sodipodi="http://sodipodi.sourceforge.net/DTD/sodipodi-0.dtd" xmlns="http://www.w3.org/2000/svg" xmlns:svg="http://www.w3.org/2000/svg" xmlns:rdf="http://www.w3.org/1999/02/22-rdf-syntax-ns#" xmlns:cc="http://creativecommons.org/ns#" xmlns:dc="http://purl.org/dc/elements/1.1/" width="64" height="64" version="1.1" viewBox="0 0 16.933 16.933" id="svg7" sodipodi:docname="org.xfce.PanelProfiles.svg" inkscape:version="1.4 (e7c3feb100, 2024-10-09)">
  <sodipodi:namedview id="namedview7" pagecolor="#9c4444" bordercolor="#000000" borderopacity="0.25" inkscape:showpageshadow="2" inkscape:pageopacity="0.0" inkscape:pagecheckerboard="0" inkscape:deskcolor="#d1d1d1" inkscape:zoom="6.15625" inkscape:cx="15.837563" inkscape:cy="29.725888" inkscape:window-width="1183" inkscape:window-height="941" inkscape:window-x="35" inkscape:window-y="32" inkscape:window-maximized="0" inkscape:current-layer="svg7" showgrid="false"/>
  <defs id="defs2">
    <style id="current-color-scheme" type="text/css">.ColorScheme-Text {color:#d8dee9} .ColorScheme-Highlight {color:#3b4252}</style></defs>
  <metadata id="metadata2">
    <rdf:RDF>
      <cc:Work rdf:about="">
        <dc:format>image/svg+xml</dc:format>
        <dc:type rdf:resource="http://purl.org/dc/dcmitype/StillImage"/>
      </cc:Work>
    </rdf:RDF>
  </metadata>
  <path style="fill:currentColor;fill-opacity:1;stroke:none;stroke-width:0.395092;stroke-dasharray:none;stroke-dashoffset:2.2;stroke-opacity:0.3" d="M 2.5344226,3.0919667 C 2.4723477,3.1037467 2.3648324,3.1537775 2.2954915,3.2031338 2.0194103,3.3997201 2.0346449,3.084817 2.0346449,8.5947953 c 0,4.8681307 0.00294,5.0470517 0.086442,5.2096367 0.047544,0.09261 0.1547531,0.209213 0.2382469,0.25913 0.1497542,0.08953 0.2326599,0.09076 6.1419978,0.09076 h 5.9901924 l 0.148162,-0.105678 c 0.301817,-0.215274 0.282943,0.146186 0.282943,-5.4178163 0,-4.8409479 -0.0036,-5.0581072 -0.08455,-5.2096381 C 14.791589,3.3342306 14.684369,3.2222244 14.599834,3.172305 14.448404,3.082874 14.359579,3.081472 8.5467026,3.07604 5.3020147,3.073 2.5964844,3.08026 2.5344133,3.091962 Z M 13.581037,4.2427575 c 0.247171,0.062252 0.499755,0.2682701 0.621535,0.5069753 0.0752,0.1474115 0.09065,0.2465508 0.07672,0.4928368 -0.02126,0.3756637 -0.179208,0.6340885 -0.48696,0.7965613 L 13.59233,6.1447158 H 8.5381162 c -4.4592482,0 -5.0740065,-0.00828 -5.2223171,-0.07023 C 2.7052744,5.8193942 2.5451616,5.0471672 2.9964855,4.5344362 3.3082632,4.1802369 2.9853223,4.2000917 8.4925809,4.1965332 c 3.3858241,-0.00211 4.9527141,0.012065 5.0884561,0.046231 z" id="path90" class="ColorScheme-Text"/>
  </svg>
