<?xml version="1.0" encoding="UTF-8" standalone="no"?>
<svg
   width="64"
   height="64"
   version="1.1"
   viewBox="0 0 16.933 16.933"
   id="svg7"
   sodipodi:docname="antconc copy.svg"
   inkscape:version="1.4.2 (ebf0e940d0, 2025-05-08)"
   xmlns:inkscape="http://www.inkscape.org/namespaces/inkscape"
   xmlns:sodipodi="http://sodipodi.sourceforge.net/DTD/sodipodi-0.dtd"
   xmlns="http://www.w3.org/2000/svg"
   xmlns:svg="http://www.w3.org/2000/svg"
   xmlns:rdf="http://www.w3.org/1999/02/22-rdf-syntax-ns#"
   xmlns:cc="http://creativecommons.org/ns#"
   xmlns:dc="http://purl.org/dc/elements/1.1/">
  <sodipodi:namedview
     id="namedview7"
     pagecolor="#9c4444"
     bordercolor="#000000"
     borderopacity="0.25"
     inkscape:showpageshadow="2"
     inkscape:pageopacity="0.0"
     inkscape:pagecheckerboard="0"
     inkscape:deskcolor="#d1d1d1"
     inkscape:zoom="8.7062524"
     inkscape:cx="22.857137"
     inkscape:cy="15.965538"
     inkscape:window-width="1270"
     inkscape:window-height="1380"
     inkscape:window-x="0"
     inkscape:window-y="0"
     inkscape:window-maximized="0"
     inkscape:current-layer="svg7"
     showgrid="false" />
  <defs
     id="defs2">
    <style
       id="current-color-scheme"
       type="text/css">.ColorScheme-Text {color:#d8dee9} .ColorScheme-Highlight {color:#3b4252}</style>
  </defs>
  <metadata
     id="metadata2">
    <rdf:RDF>
      <cc:Work
         rdf:about="">
        <dc:format>image/svg+xml</dc:format>
        <dc:type
           rdf:resource="http://purl.org/dc/dcmitype/StillImage" />
      </cc:Work>
    </rdf:RDF>
  </metadata>
  <path
     id="path5"
     d="m 8.4661146,1.4551825 c -0.15544,0 -0.311155,0.6047655 -0.567194,1.8132433 C 7.3868426,5.6853814 7.2393346,5.6976684 6.7638996,5.6120651 6.2884626,5.5264611 6.1009316,4.8725219 6.1783066,3.696676 6.2556796,2.5208305 6.2550776,2.427231 4.8028306,4.4484932 3.3505846,6.4697554 3.3583456,6.1617045 2.6863216,5.8556918 2.0142976,5.5496795 1.8312466,5.4676434 1.7168906,5.4172905 c -0.01698,-0.00747 -0.02995,-0.010327 -0.0368,-0.00698 -3.27e-4,2.128e-4 -0.0016,0.00102 -0.0018,0.00127 l -6.34e-4,6.36e-4 c -0.02309,0.034341 0.154158,0.2851215 0.89774,1.1407318 0.906462,1.0430292 1.364145,2.1442492 0.738494,2.1958135 -0.625651,0.051564 -0.535724,-0.00331 0.602088,1.0201872 1.137812,1.023508 2.446093,3.27713 2.051795,3.505942 -0.394299,0.228812 -0.09272,0.82548 0.350213,1.041759 0.442929,0.216278 0.582394,0.403017 0.643328,0.607163 0.05638,0.188886 0.145083,0.414147 0.197311,0.499943 0.06473,0.10633 0.153232,0.05659 0.277888,-0.156074 0.238639,-0.407109 0.2191,-0.400007 0.654112,-0.242358 0.301174,0.109146 0.446272,0.110349 0.731515,0.007 0.48396,-0.175389 0.495275,-0.171978 0.630004,0.183989 0.154709,0.408759 0.374745,0.318151 0.495502,-0.204291 0.06859,-0.297031 0.1640574,-0.449717 0.6515114,-0.687734 0.487455,-0.238018 0.762255,-0.8191 0.36544,-1.049372 -0.396814,-0.230271 0.913981,-2.482434 2.051795,-3.5059419 1.137813,-1.0235075 1.227739,-0.968623 0.602088,-1.0201873 C 12.99283,8.6972228 13.450514,7.5960025 14.356975,6.5529733 15.100556,5.697363 15.278441,5.4472165 15.255349,5.4128759 l -6.36e-4,-6.36e-4 c -2.92e-4,-2.503e-4 -0.0016,-0.00105 -0.002,-0.00127 -0.0069,-0.00335 -0.02045,-0.00114 -0.03743,0.00634 C 15.10093,5.4676629 14.917875,5.549699 14.245852,5.8557113 13.573823,6.1617019 13.581585,6.4697528 12.129338,4.4484906 10.677092,2.4272285 10.676488,2.5208279 10.753862,3.6966734 10.831235,4.8725193 10.643708,5.5264585 10.16827,5.6120625 9.6928326,5.6976659 9.5453246,5.6853788 9.0332476,3.2684232 8.7772076,2.0599454 8.6214926,1.4551799 8.4660536,1.4551799 Z m 2.9634914,6.4687994 c 0.123875,-0.00204 0.131331,0.2160499 0.131331,0.5938405 0,0.8337449 0.388805,0.602333 -0.879975,1.1286774 C 9.4121816,10.172844 9.0400336,10.366057 10.281895,8.9974626 10.96104,8.2490129 11.280104,7.9264536 11.429606,7.9239819 Z m -5.9682234,0.023473 c 0.155866,-0.00332 0.481304,0.3250989 1.154691,1.0671364 1.197131,1.3191787 0.972245,1.2026807 -0.238552,0.7042335 -1.210796,-0.4984468 -1.055717,-0.3636419 -1.055717,-1.199735 0,-0.365791 0.01835,-0.569059 0.139578,-0.5716349 z m 2.981892,3.9392681 c 0.541181,-0.0057 0.99889,0.606222 1.38182,0.852694 0.3829324,0.246471 0.5587554,0.788564 -0.05266,0.614777 -0.611411,-0.173787 -0.96235,-0.739452 -1.32916,-0.739763 -0.399478,-3.5e-4 -0.665849,0.581029 -1.121065,0.756893 -0.455214,0.175864 -0.834468,-0.231215 -0.3997,-0.500577 0.325687,-0.201779 0.677922,-0.650025 1.088074,-0.864748 0.137374,-0.07192 0.281209,-0.117692 0.432691,-0.119276 z"
     style="fill:currentColor;stroke-width:0.318022"
     class="ColorScheme-Text" />
</svg>
