<?xml version='1.0' encoding='UTF-8'?>
<svg xmlns:inkscape="http://www.inkscape.org/namespaces/inkscape" xmlns:sodipodi="http://sodipodi.sourceforge.net/DTD/sodipodi-0.dtd" xmlns="http://www.w3.org/2000/svg" xmlns:svg="http://www.w3.org/2000/svg" xmlns:rdf="http://www.w3.org/1999/02/22-rdf-syntax-ns#" xmlns:cc="http://creativecommons.org/ns#" xmlns:dc="http://purl.org/dc/elements/1.1/" width="64" height="64" version="1.1" viewBox="0 0 16.933 16.933" id="svg7" sodipodi:docname="page.kramo.Cartridges.svg" inkscape:version="1.4 (e7c3feb100, 2024-10-09)">
  <sodipodi:namedview id="namedview7" pagecolor="#9c4444" bordercolor="#000000" borderopacity="0.25" inkscape:showpageshadow="2" inkscape:pageopacity="0.0" inkscape:pagecheckerboard="0" inkscape:deskcolor="#d1d1d1" inkscape:zoom="6.15625" inkscape:cx="15.837563" inkscape:cy="27.28934" inkscape:window-width="1183" inkscape:window-height="941" inkscape:window-x="35" inkscape:window-y="32" inkscape:window-maximized="0" inkscape:current-layer="svg7" showgrid="false"/>
  <defs id="defs2">
    <style id="current-color-scheme" type="text/css">.ColorScheme-Text {color:#d8dee9} .ColorScheme-Highlight {color:#3b4252}</style></defs>
  <metadata id="metadata2">
    <rdf:RDF>
      <cc:Work rdf:about="">
        <dc:format>image/svg+xml</dc:format>
        <dc:type rdf:resource="http://purl.org/dc/dcmitype/StillImage"/>
      </cc:Work>
    </rdf:RDF>
  </metadata>
  <path style="fill:currentColor;fill-opacity:1;stroke-width:0.0213098" d="M 8.1460084,15.638346 C 7.4798443,15.587378 6.9190494,15.483349 6.3780031,15.310379 6.0308834,15.19941 5.4818206,14.974672 5.267474,14.855835 4.9284242,14.667858 4.8224779,14.603927 4.562502,14.430457 3.4598209,13.694682 2.5612335,12.614245 2.0249583,11.379386 1.6248942,10.458172 1.4460021,9.584618 1.4460021,8.5522627 c 0,-0.8117186 0.1046463,-1.4894872 0.3399919,-2.2020305 0.7864072,-2.3809569 2.7500798,-4.1691335 5.1808767,-4.7178537 0.9886963,-0.2231848 2.1367383,-0.2231848 3.1254353,0 2.199577,0.4965251 4.043223,2.0233851 4.941914,4.0927619 0.400064,0.9212121 0.578956,1.7947664 0.578956,2.8271223 0,0.8117178 -0.104633,1.4894873 -0.339991,2.2020303 -0.858437,2.599042 -3.118636,4.478353 -5.8059582,4.827539 -0.3389062,0.04404 -1.0735646,0.07547 -1.3212184,0.05651 z M 9.3393669,15.141342 C 10.658136,14.985656 11.858586,14.443202 12.9348,13.516616 l 0.124754,-0.107426 -1.504835,-1.505032 c -0.827644,-0.827763 -1.514055,-1.505027 -1.525344,-1.505027 -0.01129,0 -0.1072282,0.05606 -0.2131995,0.124571 -0.4216965,0.272637 -0.7602045,0.369982 -1.2865882,0.369982 -0.5263829,0 -0.8648907,-0.09734 -1.2865866,-0.369982 -0.1059725,-0.06851 -0.2019114,-0.124571 -0.2132001,-0.124571 -0.011286,0 -0.6976994,0.677265 -1.5253574,1.505033 l -1.5048325,1.505033 0.1247673,0.107407 c 0.7463365,0.642573 1.4629441,1.055143 2.3318787,1.342529 0.5160792,0.170677 1.0032716,0.263538 1.7039584,0.324756 0.1923727,0.01672 0.8893482,-0.0084 1.1791514,-0.04256 z M 7.9398485,13.282986 c -0.3163627,-0.632958 -0.575206,-1.157184 -0.575206,-1.164949 0,-0.0078 0.5242258,-0.01425 1.1649448,-0.01425 0.6407204,0 1.1649464,0.0063 1.1649464,0.01425 0,0.02812 -1.1507998,2.315775 -1.1649464,2.315775 -0.00798,0 -0.2733755,-0.517871 -0.5897388,-1.150826 z M 5.1945893,11.560509 6.7042535,10.051042 6.5793627,9.872384 C 6.4308132,9.6598821 6.3341219,9.4491731 6.2494288,9.1533927 c -0.089042,-0.310967 -0.089042,-0.8912931 0,-1.2022604 C 6.3341213,7.6553519 6.4308142,7.4446429 6.5793627,7.232141 L 6.7042535,7.053483 5.1882452,5.5376723 C 4.2683799,4.6179274 3.6626288,4.0327359 3.6478034,4.0495156 2.6648289,5.1620461 2.1101766,6.3671557 1.9350353,7.7708968 c -0.045568,0.3652296 -0.045568,1.1975018 0,1.5627312 0.1402846,1.124371 0.5481101,2.175455 1.1904226,3.068066 0.1848776,0.256922 0.5191581,0.666073 0.5453583,0.66751 0.00779,4.33e-4 0.6934567,-0.678486 1.5237731,-1.508695 z M 3.7916724,9.1404033 C 3.1626728,8.8249199 2.6480367,8.5602571 2.6480367,8.5522632 c 0,-0.014136 2.2876532,-1.1649458 2.3157753,-1.1649458 0.00777,0 0.014098,0.524225 0.014098,1.1649453 0,0.6407195 -0.0096,1.1642244 -0.021308,1.1633458 C 4.9448975,9.7147741 4.4206666,9.4558865 3.7916678,9.1404033 Z m 9.8048006,3.6955377 c 0.841912,-0.993638 1.364008,-2.190582 1.52767,-3.502313 0.01949,-0.1562731 0.03547,-0.5078881 0.03547,-0.7813653 0,-0.7590795 -0.09971,-1.3978329 -0.324129,-2.0763755 -0.294633,-0.890849 -0.744283,-1.6569657 -1.42409,-2.4263716 -0.01463,-0.016777 -0.620578,0.5684118 -1.540444,1.4881567 L 10.354939,7.053483 10.47983,7.2321419 c 0.148549,0.2125019 0.24524,0.423211 0.329934,0.7189914 0.08955,0.3127896 0.08908,0.8911254 -10e-4,1.2060065 -0.08172,0.2855328 -0.19772,0.5347493 -0.340066,0.730547 l -0.11361,0.1562732 1.509425,1.513034 c 0.830182,0.832167 1.517589,1.509825 1.527572,1.505904 0.01007,-0.0038 0.101973,-0.106039 0.204415,-0.226957 z M 12.081251,8.5522627 c 0,-0.6407203 0.0063,-1.1649453 0.01425,-1.1649453 0.02812,0 2.315775,1.1507996 2.315775,1.1649453 0,0.014136 -2.287653,1.1649447 -2.315775,1.1649447 -0.0076,0 -0.01425,-0.5242252 -0.01425,-1.1649447 z M 9.1120606,10.357897 c 0.5956973,-0.199619 1.0564554,-0.6696103 1.2409174,-1.2657824 0.09363,-0.3025858 0.09363,-0.7771184 0,-1.0797048 C 10.168953,7.4176505 9.7139445,6.9525769 9.1120606,6.7440443 8.9107711,6.6743042 8.844102,6.6652902 8.5295873,6.6652902 c -0.3145135,0 -0.3811824,0.00901 -0.5824715,0.078755 -0.6018837,0.2085332 -1.0568928,0.6736066 -1.2409173,1.2683659 -0.093626,0.3025864 -0.093626,0.777119 0,1.0797048 0.2067149,0.6680955 0.7450751,1.1630331 1.4398099,1.3236831 0.2634521,0.06092 0.6872764,0.03551 0.9660522,-0.0579 z M 7.2430007,6.5808289 C 7.6646966,6.3081926 8.0032044,6.2108486 8.5295873,6.2108486 c 0.5263837,0 0.8648917,0.097343 1.2865882,0.3699803 0.1059725,0.068514 0.2019115,0.1245697 0.2131995,0.1245697 0.01129,0 0.6977,-0.6772648 1.525358,-1.5050335 L 13.059567,3.6953326 12.934813,3.5879104 C 12.188462,2.9453368 11.471857,2.5327657 10.60292,2.2453797 9.9275117,2.0220001 9.2875151,1.9222588 8.5295873,1.9222588 c -1.6637938,0 -3.1023552,0.5439334 -4.4052093,1.665651 L 3.9996107,3.695332 5.5044434,5.2003648 c 0.8276576,0.8277682 1.5140683,1.5050333 1.5253568,1.5050333 0.011286,0 0.1072265,-0.056056 0.2132005,-0.1245692 z m 0.1216418,-1.594343 c 0,-0.02812 1.1507989,-2.3157747 1.1649446,-2.3157747 0.014136,0 1.1649466,2.2876544 1.1649466,2.3157747 0,0.00779 -0.5242262,0.014117 -1.1649466,0.014117 -0.6407186,0 -1.1649446,-0.00636 -1.1649446,-0.014117 z" id="path99" class="ColorScheme-Text"/>
</svg>
