<?xml version="1.0" encoding="UTF-8" standalone="no"?>
<svg
   width="64"
   height="64"
   version="1.1"
   viewBox="0 0 16.933 16.933"
   id="svg7"
   sodipodi:docname="palapeli.svg"
   inkscape:version="1.4.3 (0d15f75042, 2025-12-25)"
   xmlns:inkscape="http://www.inkscape.org/namespaces/inkscape"
   xmlns:sodipodi="http://sodipodi.sourceforge.net/DTD/sodipodi-0.dtd"
   xmlns="http://www.w3.org/2000/svg"
   xmlns:svg="http://www.w3.org/2000/svg"
   xmlns:rdf="http://www.w3.org/1999/02/22-rdf-syntax-ns#"
   xmlns:cc="http://creativecommons.org/ns#"
   xmlns:dc="http://purl.org/dc/elements/1.1/">
  <sodipodi:namedview
     id="namedview7"
     pagecolor="#9c4444"
     bordercolor="#000000"
     borderopacity="0.25"
     inkscape:showpageshadow="2"
     inkscape:pageopacity="0.0"
     inkscape:pagecheckerboard="0"
     inkscape:deskcolor="#d1d1d1"
     inkscape:zoom="4.3531262"
     inkscape:cx="90.165086"
     inkscape:cy="34.457995"
     inkscape:window-width="2560"
     inkscape:window-height="1388"
     inkscape:window-x="0"
     inkscape:window-y="0"
     inkscape:window-maximized="1"
     inkscape:current-layer="svg7"
     showgrid="false" />
  <defs
     id="defs2">
    <style
       id="current-color-scheme"
       type="text/css">.ColorScheme-Text {color:#d8dee9} .ColorScheme-Highlight {color:#3b4252}</style>
  </defs>
  <metadata
     id="metadata2">
    <rdf:RDF>
      <cc:Work
         rdf:about="">
        <dc:format>image/svg+xml</dc:format>
        <dc:type
           rdf:resource="http://purl.org/dc/dcmitype/StillImage" />
      </cc:Work>
    </rdf:RDF>
  </metadata>
  <path
     style="fill:currentColor;stroke-width:0.243847"
     d="m 7.2368025,1.4551797 c -0.817505,0 -1.47564,0.646976 -1.47564,1.450618 v 1.450618 h -3.443158 c -0.545002,0 -0.983759,0.4313171 -0.983759,0.9670787 v 2.9012361 h 1.475639 c 0.817504,0 1.475639,0.646976 1.475639,1.4506178 0,0.8036427 -0.658135,1.4506187 -1.475639,1.4506187 h -1.475639 v 3.384775 c 0,0.535762 0.438757,0.967078 0.983759,0.967078 h 3.443158 v -0.967078 c 0,-0.803642 0.658135,-1.450618 1.47564,-1.450618 0.817502,0 1.475637,0.646976 1.475637,1.450618 v 0.967078 h 2.9512785 c 0.545002,0 0.983759,-0.431316 0.983759,-0.967078 v -3.384775 h 1.475638 c 0.817505,0 1.475639,-0.646976 1.475639,-1.4506187 0,-0.8036418 -0.658134,-1.4506178 -1.475639,-1.4506178 H 12.647477 V 5.3234944 c 0,-0.5357616 -0.438757,-0.9670787 -0.983759,-0.9670787 H 8.7124395 v -1.450618 c 0,-0.803642 -0.658135,-1.450618 -1.475637,-1.450618 z"
     id="path5"
     class="ColorScheme-Text" />
</svg>
