<?xml version="1.0" encoding="UTF-8" standalone="no"?>
<!-- Created with Inkscape (http://www.inkscape.org/) -->

<svg
   width="64"
   height="64"
   viewBox="0 0 16.933333 16.933333"
   version="1.1"
   id="svg896"
   inkscape:version="1.4.3 (0d15f75042, 2025-12-25)"
   sodipodi:docname="pclinuxos.svg"
   xmlns:inkscape="http://www.inkscape.org/namespaces/inkscape"
   xmlns:sodipodi="http://sodipodi.sourceforge.net/DTD/sodipodi-0.dtd"
   xmlns="http://www.w3.org/2000/svg"
   xmlns:svg="http://www.w3.org/2000/svg"
   xmlns:rdf="http://www.w3.org/1999/02/22-rdf-syntax-ns#"
   xmlns:cc="http://creativecommons.org/ns#"
   xmlns:dc="http://purl.org/dc/elements/1.1/">
  <defs
     id="defs890">
    <style
       id="current-color-scheme"
       type="text/css">.ColorScheme-Text {color:#d8dee9} .ColorScheme-Highlight {color:#7f7fff}</style>
  </defs>
  <sodipodi:namedview
     id="base"
     pagecolor="#7f3232"
     bordercolor="#666666"
     borderopacity="1.0"
     inkscape:pageopacity="0.0"
     inkscape:pageshadow="2"
     inkscape:zoom="9.861792"
     inkscape:cx="31.282347"
     inkscape:cy="17.542451"
     inkscape:document-units="px"
     inkscape:current-layer="svg896"
     showgrid="false"
     inkscape:window-width="2560"
     inkscape:window-height="1388"
     inkscape:window-x="0"
     inkscape:window-y="0"
     inkscape:window-maximized="1"
     inkscape:showpageshadow="0"
     inkscape:pagecheckerboard="0"
     inkscape:deskcolor="#505050" />
  <metadata
     id="metadata893">
    <rdf:RDF>
      <cc:Work
         rdf:about="">
        <dc:format>image/svg+xml</dc:format>
        <dc:type
           rdf:resource="http://purl.org/dc/dcmitype/StillImage" />
      </cc:Work>
    </rdf:RDF>
  </metadata>
  <path
     style="fill:currentColor;stroke-width:0.0274615"
     d="M 7.9798692,15.465812 C 4.8804252,15.24338 2.2867562,13.016057 1.6159732,10.000793 1.4179342,9.1105829 1.3982952,8.1171019 1.5606032,7.1997159 c 0.440477,-2.489681 2.263388,-4.587999 4.685942,-5.393898 0.74593,-0.248145 1.404073,-0.350934 2.244903,-0.35061 0.805017,3.12e-4 1.444936,0.10276 2.1899798,0.35061 3.283381,1.092267 5.280086,4.421725 4.700501,7.837975 -0.513692,3.0278571 -2.975103,5.3933161 -6.0117118,5.7773601 -0.416984,0.05274 -1.011631,0.07184 -1.390345,0.04466 z m 1.555114,-0.933558 c 2.5916948,-0.457838 4.5336818,-2.403775 5.0018658,-5.0120381 0.05613,-0.312677 0.06408,-0.44394 0.06408,-1.057269 0,-0.613329 -0.008,-0.744592 -0.06408,-1.057269 -0.468188,-2.608286 -2.409666,-4.553735 -5.0018658,-5.012095 -0.429226,-0.0759 -1.308457,-0.104508 -1.732865,-0.05639 -1.606413,0.182134 -3.050645,0.938424 -4.041476,2.116369 -0.948925,1.128124 -1.448043,2.510096 -1.448043,4.009384 0,0.987269 0.204204,1.8868321 0.622465,2.7420911 0.912375,1.865624 2.703281,3.126036 4.801189,3.379002 0.388545,0.04685 1.406231,0.01755 1.79873,-0.05179 z m -1.79873,-0.276877 C 5.7203252,13.984625 4.0572912,12.79512 3.2085312,11.01687 2.8181212,10.198916 2.6421382,9.4053889 2.6421382,8.4629469 c 0,-0.942442 0.175983,-1.735969 0.566393,-2.553923 0.856351,-1.794155 2.550318,-2.995513 4.568194,-3.239756 0.299576,-0.03626 1.07494,-0.03626 1.374517,0 1.1453308,0.13863 2.2203608,0.598256 3.0826048,1.317957 1.119389,0.934337 1.842105,2.287219 2.023816,3.788463 0.03626,0.299577 0.03626,1.074941 0,1.374518 -0.186932,1.5443861 -0.951604,2.9360061 -2.129731,3.8758811 -0.717832,0.572666 -1.630588,0.988582 -2.5579008,1.165562 -0.325916,0.0622 -0.465802,0.0734 -1.009932,0.08087 -0.347389,0.0048 -0.71812,-0.0029 -0.823846,-0.01715 z m -0.242549,-2.930209 c 0.02134,-0.01357 0.0381,-0.185704 0.0501,-0.514483 0.0099,-0.271746 0.0306,-0.527168 0.04596,-0.567603 0.07572,-0.199357 0.876785,-0.5436071 1.372083,-0.5896401 0.227315,-0.02113 0.226985,-0.0221 0.10943,0.321603 -0.184775,0.5402331 -0.183901,0.5386651 -0.311509,0.5590701 -0.06311,0.01009 -0.154852,0.04314 -0.203875,0.07344 -0.163335,0.100946 -0.264514,0.351896 -0.158311,0.39265 0.08021,0.03078 0.57242,0.0169 0.640494,-0.01806 0.03633,-0.01866 0.135188,-0.15132 0.219693,-0.294807 0.123605,-0.209879 0.227468,-0.334707 0.53124,-0.638478 0.207678,-0.2076761 0.3775968,-0.3892861 0.3775968,-0.4035771 0,-0.01429 0.06488,-0.0067 0.144173,0.01678 0.19075,0.05658 0.692543,0.4319671 1.041942,0.7794751 0.269416,0.267959 0.33447,0.37817 0.27322,0.46288 -0.01742,0.02409 -0.05214,0.08338 -0.07715,0.131738 -0.03779,0.07306 -0.0394,0.09525 -0.0095,0.131233 0.0554,0.06675 0.70896,0.04916 0.752669,-0.02025 0.03138,-0.04984 -0.04024,-0.202707 -0.316089,-0.674652 -0.146872,-0.251284 -0.242233,-0.4882911 -0.499166,-1.2406031 -0.200135,-0.586009 -0.220627,-0.665546 -0.222861,-0.865038 -0.0034,-0.303208 0.07739,-0.465316 0.36304,-0.728529 0.116156,-0.10703 0.211989,-0.203155 0.212964,-0.213612 9.75e-4,-0.01046 0.01635,-0.06844 0.03417,-0.128859 0.07539,-0.255575 0.02907,-0.410283 -0.215259,-0.718911 -0.106991,-0.135151 -0.191418,-0.268723 -0.191418,-0.302843 0,-0.07472 0.07442,-0.1179 0.203196,-0.1179 0.135033,0 0.321956,-0.06824 0.521529,-0.190391 0.09332,-0.05712 0.218679,-0.120267 0.278572,-0.140328 0.05989,-0.02006 0.131918,-0.06199 0.160058,-0.09317 0.04619,-0.05119 0.237183,-0.40572 0.237183,-0.440285 0,-0.0078 -0.05498,0.02773 -0.122182,0.07903 -0.161753,0.12347 -0.310907,0.169259 -0.763046,0.23425 -0.207454,0.02982 -0.405177,0.06896 -0.439385,0.08698 -0.03421,0.01802 -0.140047,0.110251 -0.2352,0.204957 -0.259667,0.258447 -0.257751,0.379493 0.01075,0.679063 0.142684,0.159194 0.285872,0.435967 0.285731,0.552297 -3.32e-4,0.274531 -0.412691,0.474966 -0.906128,0.440441 -0.570529,-0.03992 -1.1164068,-0.198191 -2.0321538,-0.589204 -0.748601,-0.319645 -0.964482,-0.387143 -1.29432,-0.404684 -0.571003,-0.03036 -0.925591,0.159783 -1.35504,0.726642 -0.251095,0.331436 -0.598318,0.905181 -0.745277,1.231484 -0.05758,0.12784 -0.112386,0.229195 -0.121799,0.225234 -0.05604,-0.02359 -0.438025,-0.467792 -0.438025,-0.509376 0,-0.02766 -0.01691,-0.07342 -0.03758,-0.101681 -0.03625,-0.04958 -0.03874,-0.04922 -0.07048,0.01009 -0.06725,0.125652 0.0061,0.286871 0.291423,0.640726 l 0.170738,0.211733 -0.09566,0.282574 c -0.05261,0.155416 -0.110658,0.377666 -0.128994,0.493889 -0.03333,0.211264 -0.03339,0.211362 -0.236461,0.4192751 -0.111717,0.114379 -0.230618,0.214863 -0.264223,0.223297 -0.03491,0.0088 -0.183259,-0.02602 -0.346108,-0.08115 -0.54757,-0.185374 -0.83457,-0.207916 -0.966568,-0.07592 -0.07741,0.07742 -0.03255,0.127644 0.07685,0.08605 0.09371,-0.03563 0.191392,-0.0096 0.767801,0.204668 0.240104,0.08925 0.453825,0.152121 0.517116,0.152121 0.152395,0 0.278065,-0.06826 0.416048,-0.226001 l 0.119295,-0.136372 0.141018,0.097 c 0.07756,0.05335 0.211865,0.122783 0.298455,0.154291 0.08659,0.03151 0.182152,0.06856 0.21236,0.08233 0.05014,0.02285 0.0487,0.0252 -0.01654,0.02689 -0.206806,0.0054 -0.495765,0.39158 -0.338218,0.452036 0.02389,0.0092 0.176677,0.01667 0.339524,0.01667 0.280013,0 0.299851,-0.0038 0.365445,-0.06936 0.03815,-0.03815 0.08522,-0.109204 0.1046,-0.157904 0.01938,-0.0487 0.03814,-0.09255 0.04168,-0.09744 0.0035,-0.0049 0.04702,0.0121 0.09662,0.03775 0.0728,0.03764 0.140795,0.04409 0.352687,0.03341 0.149265,-0.0075 0.306926,-0.03208 0.365483,-0.05694 0.124967,-0.05305 0.133458,-0.02445 0.01807,0.06085 -0.142467,0.10533 -0.18546,0.269232 -0.0997,0.380071 0.02946,0.03807 0.639961,0.04953 0.697249,0.01309 z"
     id="path5"
     class="ColorScheme-Text" />
</svg>
