<?xml version='1.0' encoding='UTF-8'?>
<svg xmlns:inkscape="http://www.inkscape.org/namespaces/inkscape" xmlns:sodipodi="http://sodipodi.sourceforge.net/DTD/sodipodi-0.dtd" xmlns="http://www.w3.org/2000/svg" xmlns:svg="http://www.w3.org/2000/svg" xmlns:rdf="http://www.w3.org/1999/02/22-rdf-syntax-ns#" xmlns:cc="http://creativecommons.org/ns#" xmlns:dc="http://purl.org/dc/elements/1.1/" width="64" height="64" version="1.1" viewBox="0 0 16.933 16.933" id="svg7" sodipodi:docname="PCSX2.svg" inkscape:version="1.4.2 (ebf0e940d0, 2025-05-08)">
  <sodipodi:namedview id="namedview7" pagecolor="#9c4444" bordercolor="#000000" borderopacity="0.25" inkscape:showpageshadow="2" inkscape:pageopacity="0.0" inkscape:pagecheckerboard="0" inkscape:deskcolor="#d1d1d1" inkscape:zoom="6.15625" inkscape:cx="15.837563" inkscape:cy="27.208122" inkscape:window-width="1183" inkscape:window-height="941" inkscape:window-x="0" inkscape:window-y="0" inkscape:window-maximized="0" inkscape:current-layer="svg7" showgrid="false"/>
  <defs id="defs2">
    <style id="current-color-scheme" type="text/css">.ColorScheme-Text {color:#d8dee9} .ColorScheme-Highlight {color:#3b4252}</style>
  </defs>
  <metadata id="metadata2">
    <rdf:RDF>
      <cc:Work rdf:about="">
        <dc:format>image/svg+xml</dc:format>
        <dc:type rdf:resource="http://purl.org/dc/dcmitype/StillImage"/>
      </cc:Work>
    </rdf:RDF>
  </metadata>
  <path id="path4" style="fill:currentColor;stroke:none;stroke-linecap:round;stroke-linejoin:round" class="ColorScheme-Text" d="M 31.898418 6.7071355 A 2 2 0 0 0 30.48484 7.2938054 L 21.695236 16.081668 A 2.0002 2.0002 0 0 0 21.695236 18.910566 L 27.554972 24.770302 A 2.0002 2.0002 0 0 0 30.382129 24.770302 L 37.758154 17.394277 L 40.787251 20.425114 L 36.832016 24.380349 A 2 2 0 0 0 36.832016 27.209247 A 2 2 0 0 0 39.660914 27.209247 L 45.031468 21.840434 A 2.0002 2.0002 0 0 0 45.031468 19.011536 L 39.171732 13.1518 A 2.0002 2.0002 0 0 0 36.344575 13.1518 L 28.96855 20.526084 L 25.939453 17.495246 L 33.311997 10.120962 A 2 2 0 0 0 33.311997 7.2938054 A 2 2 0 0 0 31.898418 6.7071355 z M 17.740002 20.865552 A 2.0002 2.0002 0 0 0 16.326423 21.450481 L 7.5368197 30.240084 A 2 2 0 0 0 7.5368197 33.068982 A 2 2 0 0 0 10.365718 33.068982 L 17.740002 25.694698 L 20.769099 28.723795 L 13.396555 36.09982 A 2.0002 2.0002 0 0 0 13.396555 38.926977 L 19.256291 44.786713 A 2 2 0 0 0 22.083448 44.786713 A 2 2 0 0 0 22.083448 41.959556 L 17.639032 37.513399 L 25.013316 30.139115 A 2.0002 2.0002 0 0 0 25.013316 27.310217 L 19.15358 21.450481 A 2.0002 2.0002 0 0 0 17.740002 20.865552 z M 50.165265 25.062766 C 49.522124 25.094283 48.906457 25.34321 48.433109 25.816559 L 43.549996 30.699672 L 53.803663 40.951598 C 53.973412 41.12134 54.106652 41.311529 54.22321 41.508673 L 59.174217 36.557666 C 60.256136 35.475729 60.169365 33.648074 58.97924 32.45794 L 52.532835 26.011535 C 51.863386 25.342085 50.99216 25.022244 50.165265 25.062766 z M 34.361735 27.679279 A 2.0002 2.0002 0 0 0 32.946416 28.265949 L 24.158553 37.055552 A 2 2 0 0 0 24.158553 39.882709 A 2 2 0 0 0 26.98571 39.882709 L 34.361735 32.510166 L 37.390832 35.539263 L 30.018289 42.913547 A 2.0002 2.0002 0 0 0 30.011326 45.735482 L 35.850171 51.617848 A 2.0002 2.0002 0 0 0 38.684291 51.62133 L 47.472154 42.833468 A 2 2 0 0 0 47.472154 40.00631 A 2 2 0 0 0 44.643256 40.00631 L 37.274195 47.375372 L 34.253802 44.334089 L 41.63505 36.952842 A 2.0002 2.0002 0 0 0 41.63505 34.125685 L 35.775314 28.265949 A 2.0002 2.0002 0 0 0 34.361735 27.679279 z M 27.925775 46.322151 L 25.974271 48.275397 C 24.892333 49.357341 24.977373 51.186733 26.167506 52.376863 L 32.613912 58.823269 C 33.804046 60.013406 35.63344 60.098455 36.715378 59.016504 L 38.736517 56.995366 C 38.539373 56.878871 38.349191 56.745631 38.179442 56.575818 L 27.925775 46.322151 z " transform="matrix(0.29683837,0,0,0.29683837,-1.3990422,-1.2462926)"/>
</svg>
