<?xml version='1.0' encoding='UTF-8'?>
<svg xmlns:inkscape="http://www.inkscape.org/namespaces/inkscape" xmlns:sodipodi="http://sodipodi.sourceforge.net/DTD/sodipodi-0.dtd" xmlns="http://www.w3.org/2000/svg" xmlns:svg="http://www.w3.org/2000/svg" xmlns:rdf="http://www.w3.org/1999/02/22-rdf-syntax-ns#" xmlns:cc="http://creativecommons.org/ns#" xmlns:dc="http://purl.org/dc/elements/1.1/" width="64" height="64" version="1.1" viewBox="0 0 16.933 16.933" id="svg7" sodipodi:docname="pitivi.svg" inkscape:version="1.4 (e7c3feb100, 2024-10-09)">
  <sodipodi:namedview id="namedview7" pagecolor="#9c4444" bordercolor="#000000" borderopacity="0.25" inkscape:showpageshadow="2" inkscape:pageopacity="0.0" inkscape:pagecheckerboard="0" inkscape:deskcolor="#d1d1d1" inkscape:zoom="6.15625" inkscape:cx="15.837563" inkscape:cy="29.725888" inkscape:window-width="1183" inkscape:window-height="941" inkscape:window-x="35" inkscape:window-y="32" inkscape:window-maximized="0" inkscape:current-layer="svg7" showgrid="false"/>
  <defs id="defs2">
    <style id="current-color-scheme" type="text/css">.ColorScheme-Text {color:#d8dee9} .ColorScheme-Highlight {color:#3b4252}</style></defs>
  <metadata id="metadata2">
    <rdf:RDF>
      <cc:Work rdf:about="">
        <dc:format>image/svg+xml</dc:format>
        <dc:type rdf:resource="http://purl.org/dc/dcmitype/StillImage"/>
      </cc:Work>
    </rdf:RDF>
  </metadata>
  <path style="fill:currentColor;fill-opacity:1;stroke:none;stroke-width:0.425952;stroke-dasharray:none;stroke-opacity:0.3" d="M 2.8325909,1.8488451 V 15.339394 H 14.330936 V 1.8488451 H 13.612288 V 2.6920039 H 12.893641 V 1.8488451 H 4.2698833 V 2.6920039 H 3.5512364 L 3.5510926,1.8488453 H 2.8325612 Z M 5.7071765,3.5351627 H 11.456348 V 7.7509601 H 5.7071761 Z M 3.5510926,4.3783231 H 4.2697398 V 6.0646405 H 3.5510926 Z m 9.3424044,0 h 0.718648 v 1.6863174 h -0.718648 z m -9.3424044,3.372637 h 0.7186472 v 1.686318 H 3.5510926 Z m 9.3424044,0 h 0.718648 v 1.686318 H 12.893497 Z M 5.7070326,9.4372781 H 11.456204 V 13.653074 H 5.7070326 Z m -2.156084,1.6863159 h 0.7186468 v 1.686321 H 3.5509486 Z m 9.3424074,0 h 0.718643 v 1.686321 H 12.893356 Z M 3.5509491,14.496237 H 4.269596 v 0.843157 H 3.5509491 Z m 9.3424069,0 h 0.718643 v 0.843157 h -0.718643 z" id="path4" class="ColorScheme-Text"/>
  <g id="g9" transform="matrix(0.46959567,0,0,0.46959567,4.7471229,3.7470598)" style="fill:#999999;fill-opacity:1;stroke:none;stroke-width:0.58349;stroke-dasharray:none;stroke-opacity:0.3"/>
  </svg>
