<?xml version='1.0' encoding='UTF-8'?>
<svg xmlns:inkscape="http://www.inkscape.org/namespaces/inkscape" xmlns:sodipodi="http://sodipodi.sourceforge.net/DTD/sodipodi-0.dtd" xmlns="http://www.w3.org/2000/svg" xmlns:svg="http://www.w3.org/2000/svg" xmlns:rdf="http://www.w3.org/1999/02/22-rdf-syntax-ns#" xmlns:cc="http://creativecommons.org/ns#" xmlns:dc="http://purl.org/dc/elements/1.1/" width="64" height="64" version="1.1" viewBox="0 0 16.933 16.933" id="svg7" sodipodi:docname="postman.svg" inkscape:version="1.4 (e7c3feb100, 2024-10-09)">
  <sodipodi:namedview id="namedview7" pagecolor="#9c4444" bordercolor="#000000" borderopacity="0.25" inkscape:showpageshadow="2" inkscape:pageopacity="0.0" inkscape:pagecheckerboard="0" inkscape:deskcolor="#d1d1d1" inkscape:zoom="6.15625" inkscape:cx="15.837563" inkscape:cy="29.725888" inkscape:window-width="1183" inkscape:window-height="941" inkscape:window-x="35" inkscape:window-y="32" inkscape:window-maximized="0" inkscape:current-layer="svg7" showgrid="false"/>
  <defs id="defs2">
    <style id="current-color-scheme" type="text/css">.ColorScheme-Text {color:#d8dee9} .ColorScheme-Highlight {color:#3b4252}</style></defs>
  <metadata id="metadata2">
    <rdf:RDF>
      <cc:Work rdf:about="">
        <dc:format>image/svg+xml</dc:format>
        <dc:type rdf:resource="http://purl.org/dc/dcmitype/StillImage"/>
      </cc:Work>
    </rdf:RDF>
  </metadata>
  <path style="fill:currentColor;fill-opacity:1;stroke:none;stroke-width:0.468548;stroke-dasharray:none;stroke-opacity:0.3" d="m 13.222718,2.0757734 c -0.37221,0.016131 -0.739307,0.1674166 -1.027673,0.4513087 -0.633151,0.6258557 -0.657663,1.6589216 -0.04957,2.3105855 l -0.0068,-0.013015 c 0.476426,0.5032642 1.216416,0.6319231 1.83076,0.3222216 L 12.878501,4.0311024 c -0.03762,-0.045161 -0.03762,-0.1099435 0,-0.1551046 L 14.282442,2.437006 C 13.972173,2.1789374 13.59493,2.0596441 13.222718,2.0757734 Z m 1.210464,0.5093484 -1.33491,1.374943 1.047123,1.0767395 c 0.0878,-0.058064 0.162982,-0.1281626 0.238199,-0.1991365 0.608078,-0.6194046 0.62632,-1.6137852 0.04957,-2.2525458 z m -0.07193,0.8275678 c 0.03333,-1.29e-4 0.065,0.015808 0.08459,0.044036 0.112822,0.2193721 0.08183,0.4833488 -0.07486,0.6704587 -0.01881,0.025813 -0.05715,0.045034 -0.08846,0.045034 -0.02508,0.00642 -0.05656,0.00642 -0.08164,0 l -0.0059,-0.00595 c -0.04389,-0.045163 -0.03806,-0.1229528 0.0059,-0.1681158 0.09403,-0.1096851 0.107426,-0.2702317 0.04473,-0.3992734 0,-0.00642 -0.0068,-0.00659 -0.0068,-0.013015 -0.02508,-0.058066 0.0068,-0.1292988 0.06319,-0.1551065 0.01881,-0.012065 0.03931,-0.017936 0.05932,-0.018012 z M 11.228624,4.5414633 C 10.555414,4.485513 9.4495373,5.2416317 6.5909558,8.1789569 l 0.8273905,0.852586 3.8744487,-3.987735 C 11.430707,4.9018608 11.612784,4.8241037 11.807122,4.8176541 11.630026,4.669256 11.45303,4.5601146 11.228627,4.5414633 Z m 0.590162,0.5233594 c -0.137921,0 -0.275525,0.052643 -0.382098,0.1591079 L 7.5748794,9.1726403 8.0950389,9.7340246 12.176577,6.0304851 C 12.289399,5.9272486 12.352137,5.7860623 12.358388,5.6312104 12.364468,5.4828128 12.308437,5.3336179 12.201847,5.2239326 12.095276,5.1174718 11.956691,5.0648247 11.818776,5.0648228 Z m 0.601828,0.9986854 c -0.03135,0.045163 -0.06836,0.083817 -0.105963,0.1160805 L 8.2331002,9.8761218 8.9603481,10.624636 C 10.646661,8.9664424 12.288969,7.2636003 12.420614,6.0635081 Z M 6.4402558,8.3080487 5.4184134,9.3597683 5.3999454,9.3857964 c -0.01881,0.01935 -0.02474,0.039235 -0.018468,0.065045 0.00623,0.038714 0.043086,0.064486 0.080699,0.058032 L 7.2112712,9.1216058 Z m 0.9907309,1.0517196 -0.5833548,0.600412 c -0.012559,0.019353 -0.012559,0.045684 0,0.065041 0.01881,0.01292 0.037592,0.01292 0.05639,0 L 7.8636406,9.7730481 Z m 0.6144676,0.6134194 -1.5857526,0.3482393 -3.27262,3.374314 1.0655943,1.129774 c 0.031342,0.03226 0.087808,0.03226 0.125419,0 0.037601,-0.02584 0.063095,-0.0775 0.050559,-0.129086 L 4.2526741,13.921902 c -0.01881,-0.09036 0.025454,-0.180994 0.1069491,-0.226159 h 0.00578 v -0.01292 C 5.957685,12.902014 7.4496969,11.915091 8.8037606,10.75371 Z M 3.0179055,13.856851 2.1963472,14.709436 c -0.00625,0.01936 -0.00625,0.04425 0,0.07007 0.00625,0.01934 0.03132,0.03958 0.05639,0.04608 l 1.8307583,0.122113 z" id="path8" class="ColorScheme-Text"/>
  <g id="g9" transform="matrix(0.46959567,0,0,0.46959567,4.7471229,3.7470598)" style="fill:#999999;fill-opacity:1;stroke:none;stroke-width:0.58349;stroke-dasharray:none;stroke-opacity:0.3"/>
  </svg>
