<?xml version="1.0" encoding="UTF-8" standalone="no"?>
<svg
   width="64"
   height="64"
   version="1.1"
   viewBox="0 0 16.933 16.933"
   id="svg7"
   sodipodi:docname="pragha2.svg"
   inkscape:version="1.4.2 (ebf0e940d0, 2025-05-08)"
   xmlns:inkscape="http://www.inkscape.org/namespaces/inkscape"
   xmlns:sodipodi="http://sodipodi.sourceforge.net/DTD/sodipodi-0.dtd"
   xmlns="http://www.w3.org/2000/svg"
   xmlns:svg="http://www.w3.org/2000/svg"
   xmlns:rdf="http://www.w3.org/1999/02/22-rdf-syntax-ns#"
   xmlns:cc="http://creativecommons.org/ns#"
   xmlns:dc="http://purl.org/dc/elements/1.1/">
  <sodipodi:namedview
     id="namedview7"
     pagecolor="#9c4444"
     bordercolor="#000000"
     borderopacity="0.25"
     inkscape:showpageshadow="2"
     inkscape:pageopacity="0.0"
     inkscape:pagecheckerboard="0"
     inkscape:deskcolor="#d1d1d1"
     inkscape:zoom="6.15625"
     inkscape:cx="15.837563"
     inkscape:cy="29.888325"
     inkscape:window-width="2560"
     inkscape:window-height="1392"
     inkscape:window-x="0"
     inkscape:window-y="0"
     inkscape:window-maximized="1"
     inkscape:current-layer="svg7"
     showgrid="false" />
  <defs
     id="defs2">
    <style
       id="current-color-scheme"
       type="text/css">.ColorScheme-Text {color:#d8dee9} .ColorScheme-Highlight {color:#3b4252}</style>
  </defs>
  <metadata
     id="metadata2">
    <rdf:RDF>
      <cc:Work
         rdf:about="">
        <dc:format>image/svg+xml</dc:format>
        <dc:type
           rdf:resource="http://purl.org/dc/dcmitype/StillImage" />
      </cc:Work>
    </rdf:RDF>
  </metadata>
  <path
     id="path5"
     style="fill:currentColor;stroke-width:0.126375"
     d="M 12.018558,1.4551834 C 11.751113,1.4538354 11.191181,1.8430289 10.750779,2.0722887 10.477164,2.2147242 9.0005091,1.990659 7.7872187,2.3441955 6.6173556,2.6850777 5.6955646,3.1771676 4.8902364,4.2654464 4.3440615,5.0035192 3.789448,5.8517169 3.8277857,7.24691 3.8460627,7.9120158 4.1262801,8.4523218 4.3721588,9.0271722 4.5006576,9.3275932 4.2894578,9.6367411 4.061648,9.8272271 3.5663958,10.241341 3.0270758,10.844987 2.8341511,11.325512 c -0.078061,0.194432 -0.193955,0.527017 -0.2355407,0.897404 -0.050173,0.446879 -0.00798,0.948516 0.1325965,1.329882 0.2543766,0.690088 0.856822,1.269009 1.5077958,1.611299 0.5419622,0.284942 1.2125551,0.374281 1.8166284,0.274144 0.6855233,-0.113634 1.3447233,-0.483251 1.850197,-0.960065 0.7638811,-0.720571 1.0320263,-1.7936 1.6107401,-2.707319 0.1761139,-0.278063 0.5493568,-0.515186 0.9203428,-0.64508 0.68296,-0.239125 0.935105,-0.339067 1.547519,-0.759772 C 12.716944,9.8627981 13.456597,9.2504634 13.835187,8.446433 14.310268,7.4374837 14.515239,6.1951125 14.211716,5.1220087 13.926973,4.1153094 12.408599,2.7605824 12.277037,2.65079 11.951779,2.3793541 11.527333,2.1427254 12.018558,1.4551834 Z M 8.6868608,2.9758473 c 0.215385,0.00357 0.4244517,0.0399 0.6070348,0.1415482 C 9.4905599,3.2268862 9.6466901,3.547371 9.5484585,3.753523 9.3583497,4.1524791 8.9177419,4.9851327 8.694134,5.5595213 8.2196542,6.778338 8.0839715,7.903811 7.8890438,9.0976665 7.7248479,10.103301 7.5762705,11.081583 7.1522099,11.976746 6.8881012,12.53426 6.5470614,13.094275 6.0556311,13.467198 5.6956273,13.740386 5.3566524,13.892034 4.9243646,13.913103 4.729347,13.922608 4.4233754,13.864031 4.2300512,13.762043 4.0264782,13.654644 3.8537902,13.486438 3.7763137,13.295997 3.6128768,12.894283 3.7263855,12.470657 4.0638859,12.198299 4.4061814,11.922073 4.8777993,12.097478 5.3870537,12.010874 5.6298164,11.969592 5.8762281,11.85331 6.043882,11.672948 6.2245823,11.478551 6.3630004,11.205352 6.3560713,10.940031 6.3453907,10.530029 6.1368921,10.138322 5.8156146,9.8345001 5.0292982,9.0909066 4.4752167,8.3971663 4.3246031,7.5042704 4.2165278,6.8635636 4.3794222,6.1046785 4.6502198,5.4823132 4.9428897,4.8096807 5.4081718,4.2234685 5.9868152,3.8027572 6.5788957,3.372277 7.3191303,3.1377072 8.04346,3.0317952 8.2502323,3.0015603 8.4714758,2.9722853 8.6868608,2.9758473 Z m 2.1517552,0.7099788 c 0.02027,7.117e-4 0.04043,0.00481 0.05931,0.011749 0.889505,0.3272366 1.294815,1.3714764 1.454086,2.3022561 0.154163,0.9009265 0.01355,1.981721 -0.557799,2.8712463 -0.247199,0.3848614 -0.509096,0.6447986 -0.908595,0.8364216 -0.494506,0.237192 -1.0081019,0.241538 -1.0294409,-0.145465 -0.06733,-1.220934 0.112366,-2.0882795 0.2299459,-3.1263688 0.122521,-1.081714 0.350525,-2.0950862 0.533183,-2.5926257 0.03526,-0.096032 0.117659,-0.1509809 0.199174,-0.1566541 0.0068,-4.726e-4 0.01339,-7.967e-4 0.02014,-5.595e-4 z"
     class="ColorScheme-Text" />
</svg>
