<?xml version='1.0' encoding='UTF-8'?>
<svg xmlns:inkscape="http://www.inkscape.org/namespaces/inkscape" xmlns:sodipodi="http://sodipodi.sourceforge.net/DTD/sodipodi-0.dtd" xmlns="http://www.w3.org/2000/svg" xmlns:svg="http://www.w3.org/2000/svg" xmlns:rdf="http://www.w3.org/1999/02/22-rdf-syntax-ns#" xmlns:cc="http://creativecommons.org/ns#" xmlns:dc="http://purl.org/dc/elements/1.1/" width="64" height="64" version="1.1" viewBox="0 0 16.933 16.933" id="svg7" sodipodi:docname="preferences-desktop.svg" inkscape:version="1.4.2 (ebf0e940d0, 2025-05-08)">
  <sodipodi:namedview id="namedview7" pagecolor="#9c4444" bordercolor="#000000" borderopacity="0.25" inkscape:showpageshadow="2" inkscape:pageopacity="0.0" inkscape:pagecheckerboard="0" inkscape:deskcolor="#d1d1d1" inkscape:zoom="6.15625" inkscape:cx="19.573604" inkscape:cy="29.64467" inkscape:window-width="1183" inkscape:window-height="941" inkscape:window-x="0" inkscape:window-y="0" inkscape:window-maximized="0" inkscape:current-layer="svg7" showgrid="false"/>
  <defs id="defs2">
    <style id="current-color-scheme" type="text/css">.ColorScheme-Text {color:#d8dee9} .ColorScheme-Highlight {color:#3b4252}</style>
  </defs>
  <metadata id="metadata2">
    <rdf:RDF>
      <cc:Work rdf:about="">
        <dc:format>image/svg+xml</dc:format>
        <dc:type rdf:resource="http://purl.org/dc/dcmitype/StillImage"/>
      </cc:Work>
    </rdf:RDF>
  </metadata>
  <path id="path6" style="fill:currentColor;fill-opacity:1;stroke:none;stroke-width:0.120262;stroke-dasharray:none;stroke-opacity:1" d="m 8.4664995,4.1257346 c -2.4439133,0 -4.8877708,0.00844 -4.9445783,0.025468 C 3.4101603,4.1846856 3.2792655,4.3079435 3.2229218,4.4326337 L 3.1749358,4.5385103 V 8.4671262 12.39574 l 0.052467,0.111894 c 0.056703,0.120909 0.1717148,0.231949 0.2810786,0.271527 0.096251,0.03483 9.7866136,0.03864 9.9025966,0.0038 0.111757,-0.03347 0.242653,-0.15674 0.298996,-0.281429 l 0.04799,-0.105875 V 8.4671299 4.5385139 L 13.710073,4.4326404 C 13.653733,4.3079496 13.522836,4.1846913 13.411077,4.1512071 13.354273,4.1341892 10.910411,4.1257398 8.4664999,4.1257398 Z m 0,0.4624126 c 2.2257425,0 4.4514955,0.00677 4.4982005,0.020163 0.111651,0.03202 0.21291,0.1156265 0.274476,0.2267256 l 0.0579,0.1044598 v 3.2871115 c 0,3.1662919 -0.0014,3.2896889 -0.03738,3.3572619 -0.06448,0.121334 -0.17431,0.219364 -0.281666,0.251249 -0.14365,0.04265 -8.8922092,0.04197 -9.0290613,-8.8e-4 -0.1019835,-0.0318 -0.2079019,-0.12629 -0.2696516,-0.24052 L 3.635933,11.513588 V 8.2264494 4.9393381 L 3.693823,4.8348768 C 3.7553887,4.7237787 3.8566472,4.6401729 3.9682989,4.6081514 4.0150028,4.5947593 6.2407571,4.5879884 8.4664998,4.5879884 Z m 2.1717555,0.8044454 c -0.313715,-5.73e-5 -0.6849979,6.388e-4 -1.1194792,0.00169 l -2.4352672,0.00625 -0.08041,0.043033 c -0.1070667,0.05735 -0.1879135,0.1398523 -0.2327387,0.237572 -0.032348,0.070511 -0.036754,0.1374596 -0.037145,0.5556758 l -8.401e-4,0.475616 1.5683381,0.00541 1.5684484,0.00554 0.096093,0.047631 c 0.1269047,0.063025 0.2541407,0.1893825 0.3153897,0.3131517 l 0.04951,0.1002157 0.0057,1.1474204 0.0057,1.1475451 0.866224,-8.4e-4 c 0.795605,-8.401e-4 0.872832,-0.00338 0.946872,-0.037021 0.0994,-0.045159 0.191972,-0.1355489 0.242171,-0.236633 0.03645,-0.073375 0.03807,-0.1474179 0.03807,-1.7702979 V 5.7411411 l -0.05649,-0.096089 C 12.307285,5.5240874 12.190988,5.4390874 12.057456,5.4103075 12.001927,5.3983443 11.579067,5.3926819 10.637915,5.3925117 Z M 7.2839411,7.0942751 c -2.4393999,0 -2.4661421,8.4e-4 -2.5319474,0.040555 -0.040167,0.024494 -0.081974,0.075604 -0.1056379,0.1291068 -0.037984,0.085867 -0.039023,0.1383276 -0.033719,1.7181845 0.00532,1.5798526 0.00666,1.6314796 0.044686,1.6876546 0.021572,0.03184 0.066673,0.07468 0.1002172,0.09514 0.058537,0.03569 0.1607633,0.03718 2.5422036,0.03726 h 2.4811325 l 0.084422,-0.07865 0.084413,-0.07876 0.0052,-1.6700834 C 9.9599511,7.3360284 9.9593111,7.3033848 9.9200125,7.2392907 9.898019,7.203354 9.8505599,7.1560211 9.8146255,7.1341165 9.7503813,7.0949435 9.7087369,7.0942659 7.2839748,7.0942659 Z" class="ColorScheme-Text"/>
  </svg>
