<?xml version='1.0' encoding='UTF-8'?>
<svg xmlns:inkscape="http://www.inkscape.org/namespaces/inkscape" xmlns:sodipodi="http://sodipodi.sourceforge.net/DTD/sodipodi-0.dtd" xmlns="http://www.w3.org/2000/svg" xmlns:svg="http://www.w3.org/2000/svg" xmlns:rdf="http://www.w3.org/1999/02/22-rdf-syntax-ns#" xmlns:cc="http://creativecommons.org/ns#" xmlns:dc="http://purl.org/dc/elements/1.1/" width="64" height="64" version="1.1" viewBox="0 0 16.933 16.933" id="svg7" sodipodi:docname="protonvpn-logo.svg" inkscape:version="1.4 (e7c3feb100, 2024-10-09)">
  <sodipodi:namedview id="namedview7" pagecolor="#9c4444" bordercolor="#000000" borderopacity="0.25" inkscape:showpageshadow="2" inkscape:pageopacity="0.0" inkscape:pagecheckerboard="0" inkscape:deskcolor="#d1d1d1" inkscape:zoom="6.15625" inkscape:cx="33.543147" inkscape:cy="29.725888" inkscape:window-width="1183" inkscape:window-height="941" inkscape:window-x="35" inkscape:window-y="32" inkscape:window-maximized="0" inkscape:current-layer="svg7" showgrid="false"/>
  <defs id="defs2">
    <style id="current-color-scheme" type="text/css">.ColorScheme-Text {color:#d8dee9} .ColorScheme-Highlight {color:#3b4252}</style></defs>
  <metadata id="metadata2">
    <rdf:RDF>
      <cc:Work rdf:about="">
        <dc:format>image/svg+xml</dc:format>
        <dc:type rdf:resource="http://purl.org/dc/dcmitype/StillImage"/>
      </cc:Work>
    </rdf:RDF>
  </metadata>
  <path id="path6-3" style="fill:currentColor;stroke:none;stroke-width:0.0210826" d="m 2.5374317,1.9311442 c -0.1846059,0 -0.4194997,0.060458 -0.6277089,0.1617546 C 1.7443259,2.1733657 1.6798731,2.2200734 1.5397762,2.3610971 1.1939848,2.7091754 1.0602987,3.1502079 1.1703518,3.580511 c 0.039759,0.1554523 0.1289701,0.3591821 0.1674926,0.3829908 0.010545,0.00654 2.2663366,0.2631796 5.0128004,0.5703125 2.7464641,0.3071327 5.0455582,0.5692053 5.1093322,0.5823134 0.172653,0.035488 0.325979,0.1159247 0.460214,0.2410651 0.115995,0.1081176 0.121961,0.110561 0.183141,0.084529 0.130834,-0.055655 3.375021,-1.5136392 3.419266,-1.5366601 0.04573,-0.023796 0.04518,-0.024924 -0.04226,-0.1299258 C 15.286176,3.5419638 15.074833,3.396161 14.807758,3.3117904 14.618502,3.2520038 15.110663,3.309199 8.8353913,2.6157277 6.2612206,2.3312585 3.8139919,2.0607065 3.3973354,2.0146298 2.980679,1.9685533 2.5937748,1.9311442 2.5374317,1.9311442 Z m 13.1683213,2.235854 c -0.01007,-0.00899 -0.407457,0.1585588 -0.882864,0.3725553 -0.47541,0.2139964 -1.263065,0.5684849 -1.750073,0.7873754 -0.724489,0.3256311 -0.884282,0.4045565 -0.878685,0.4351697 0.0038,0.020579 0.01254,0.1254817 0.01881,0.2327167 0.01292,0.2151194 -0.0095,0.3355626 -0.08974,0.4956969 C 12.041713,6.6529204 8.0839576,12.75987 7.7751577,13.19964 7.6204578,13.419953 7.4634836,13.627079 7.4266048,13.659858 7.3139899,13.75995 7.1612183,13.826203 7.0170028,13.837793 l -0.132012,0.01045 0.055832,0.09756 c 0.2029296,0.353303 0.2659426,0.446903 0.3976012,0.588573 0.223903,0.240933 0.4427429,0.366432 0.7591989,0.436213 0.2911807,0.0642 0.6216589,0.02126 0.9173001,-0.120004 0.3578773,-0.171 0.1712565,0.08964 3.583626,-5.0195821 1.678732,-2.5135057 3.072967,-4.6182438 3.098369,-4.677292 0.06114,-0.1421333 0.105659,-0.3572089 0.105925,-0.5134377 2.01e-4,-0.1295496 -0.06422,-0.4438976 -0.09705,-0.473229 z M 1.5507337,4.2969221 c -0.023072,0.00426 0.6860872,1.2844916 2.5087482,4.5291045 1.3975386,2.4878314 2.5638711,4.5548734 2.5917123,4.5932854 0.027843,0.03842 0.089699,0.08746 0.1372294,0.109041 0.1003067,0.04556 0.1677529,0.04965 0.2676764,0.01634 0.1308682,-0.04381 0.1995878,-0.117762 0.4743037,-0.507176 0.3641509,-0.516181 4.3244383,-6.6383408 4.3663093,-6.7498283 0.01805,-0.048152 0.03399,-0.1543028 0.03496,-0.2363693 0.0017,-0.1283127 -0.0078,-0.169404 -0.06781,-0.2911563 C 11.783398,5.5966162 11.647497,5.4748914 11.487105,5.422417 11.390473,5.3908031 1.620089,4.2841154 1.5507297,4.2969229 Z" class="ColorScheme-Text"/>
  </svg>
