<?xml version="1.0" encoding="UTF-8" standalone="no"?>
<svg
   width="64"
   height="64"
   version="1.1"
   viewBox="0 0 16.933 16.933"
   id="svg7"
   sodipodi:docname="qemu.svg"
   inkscape:version="1.4.2 (ebf0e940d0, 2025-05-08)"
   xmlns:inkscape="http://www.inkscape.org/namespaces/inkscape"
   xmlns:sodipodi="http://sodipodi.sourceforge.net/DTD/sodipodi-0.dtd"
   xmlns="http://www.w3.org/2000/svg"
   xmlns:svg="http://www.w3.org/2000/svg"
   xmlns:rdf="http://www.w3.org/1999/02/22-rdf-syntax-ns#"
   xmlns:cc="http://creativecommons.org/ns#"
   xmlns:dc="http://purl.org/dc/elements/1.1/">
  <sodipodi:namedview
     id="namedview7"
     pagecolor="#9c4444"
     bordercolor="#000000"
     borderopacity="0.25"
     inkscape:showpageshadow="2"
     inkscape:pageopacity="0.0"
     inkscape:pagecheckerboard="0"
     inkscape:deskcolor="#d1d1d1"
     inkscape:zoom="8.7062522"
     inkscape:cx="75.00357"
     inkscape:cy="42.957634"
     inkscape:window-width="2560"
     inkscape:window-height="1392"
     inkscape:window-x="0"
     inkscape:window-y="0"
     inkscape:window-maximized="1"
     inkscape:current-layer="svg7"
     showgrid="false" />
  <defs
     id="defs2">
    <style
       id="current-color-scheme"
       type="text/css">.ColorScheme-Text {color:#d8dee9} .ColorScheme-Highlight {color:#3b4252}</style>
  </defs>
  <metadata
     id="metadata2">
    <rdf:RDF>
      <cc:Work
         rdf:about="">
        <dc:format>image/svg+xml</dc:format>
        <dc:type
           rdf:resource="http://purl.org/dc/dcmitype/StillImage" />
      </cc:Work>
    </rdf:RDF>
  </metadata>
  <path
     d="m 8.4682488,1.4925772 c -3.871999,0 -7.013069,3.121789 -7.013069,6.9739224 0,3.8521344 3.14107,6.9739234 7.013069,6.9739234 1.267296,0 2.4539612,-0.333038 3.4793662,-0.917314 l 0.364589,0.917314 h 2.828482 l -1.106035,-2.733829 a 6.9207536,6.9207536 0 0 0 1.443162,-4.2400944 c 0,-3.8521335 -3.137564,-6.9739224 -7.0095642,-6.9739224 z m -1.86092,1.148688 c 0.232542,0.198069 0.189306,0.115686 0.502478,0.07829 0.356408,-0.231958 0.521759,0.5503879 0.670165,0.113934 0.437039,0.05667 0.900954,0.198653 1.314622,0.341217 a 2.0140007,2.0140007 0 0 1 1.0861692,0.6590639 l -0.0082,0.0041 0.204496,0.27052 c 0.02629,0.04674 0.04791,0.09582 0.07011,0.1449 0.08297,0.704053 0.86473,0.695289 1.388825,0.94945 0.44814,0.158923 0.987427,0.400813 1.042934,0.941269 -0.112766,-0.02454 -0.549804,-0.538119 -0.893943,-0.588367 a 2.2897791,2.2897791 0 0 1 -0.639199,-0.14899 l -1.208283,-0.223778 v -0.0041 a 1.7732788,1.7732788 0 0 1 -0.1805412,-0.03097 v 0.0076 l -1.710177,-0.211508 c 0.02804,0.01928 0.05843,0.04499 0.08647,0.07011 l 1.7528292,0.341801 v -0.0041 l 0.122113,0.03097 0.490208,0.109844 c 0.09699,0.0093 0.195149,0.02512 0.27461,0.03915 0.500141,0.137889 1.091428,0.113349 1.502175,0.462747 -0.107507,0.205665 -0.706975,0.08939 -1.004371,0.0631 -0.03623,-0.007 -0.07654,-0.01344 -0.11335,-0.01987 l -0.01987,-0.0041 c -0.406657,-0.06602 -0.824414,-0.07011 -1.21588,0.05142 h -0.0041 a 1.8655944,1.8655944 0 0 0 -0.3920502,0.176451 c -0.565579,0.3289475 -1.264374,0.4481395 -1.733548,0.9214035 -0.459825,0.494882 -0.43178,1.175564 -0.352902,1.808336 h 0.01928 v 0.160676 c 0.0076,0.05551 0.01636,0.111012 0.02337,0.164765 0.239553,1.2795664 0.876414,2.4539614 1.075068,3.7463814 0.03798,0.492545 0.118608,1.128822 0.180542,1.529635 -0.178789,-0.05317 -0.277532,-0.854212 -0.317847,-0.588366 a 22.31702,22.31702 0 0 0 -2.082945,-3.067452 c -0.498388,-0.586614 -0.991517,-1.2036104 -1.584558,-1.6908964 -0.400229,-0.308498 -0.273441,-0.905629 -0.313756,-1.345004 -0.134384,-0.54104 -0.05492,-1.079743 0.03506,-1.6201985 0.182879,-0.5626579 0.244228,-1.1498559 0.494298,-1.6903109 0.381533,-0.339465 0.390881,-0.952371 0.761312,-1.24743 0.05492,0.03389 0.09173,0.04966 0.116856,0.05843 l 0.03973,0.0047 h 0.0041 c 0.05258,-0.05551 -0.518838,-0.652052 0.01168,-0.416005 0.02045,-0.313756 0.498972,-0.07479 0.505983,-0.348813 z m 2.247711,1.2748909 c -0.188721,0.0053 -0.335374,0.07596 -0.376858,0.195732 -0.06661,0.192811 0.159508,0.441129 0.505983,0.560906 0.347061,0.119776 0.682435,0.06369 0.749043,-0.129126 0.06661,-0.192811 -0.158923,-0.445218 -0.505984,-0.564995 a 1.0762371,1.0762371 0 0 0 -0.372184,-0.06252 z"
     id="path5"
     class="ColorScheme-Text"
     style="fill:currentColor;fill-opacity:1;stroke-width:0.584276" />
</svg>
