<?xml version="1.0" encoding="UTF-8" standalone="no"?>
<svg
   width="64"
   height="64"
   version="1.1"
   viewBox="0 0 16.933 16.933"
   id="svg7"
   sodipodi:docname="QMPlay2.svg"
   inkscape:version="1.4.3 (0d15f75042, 2025-12-25)"
   xmlns:inkscape="http://www.inkscape.org/namespaces/inkscape"
   xmlns:sodipodi="http://sodipodi.sourceforge.net/DTD/sodipodi-0.dtd"
   xmlns="http://www.w3.org/2000/svg"
   xmlns:svg="http://www.w3.org/2000/svg"
   xmlns:rdf="http://www.w3.org/1999/02/22-rdf-syntax-ns#"
   xmlns:cc="http://creativecommons.org/ns#"
   xmlns:dc="http://purl.org/dc/elements/1.1/">
  <sodipodi:namedview
     id="namedview7"
     pagecolor="#9c4444"
     bordercolor="#000000"
     borderopacity="0.25"
     inkscape:showpageshadow="2"
     inkscape:pageopacity="0.0"
     inkscape:pagecheckerboard="0"
     inkscape:deskcolor="#d1d1d1"
     inkscape:zoom="6.15625"
     inkscape:cx="15.51269"
     inkscape:cy="30.050761"
     inkscape:window-width="2560"
     inkscape:window-height="1388"
     inkscape:window-x="0"
     inkscape:window-y="0"
     inkscape:window-maximized="1"
     inkscape:current-layer="svg7"
     showgrid="false" />
  <defs
     id="defs2">
    <style
       id="current-color-scheme"
       type="text/css">.ColorScheme-Text {color:#d8dee9} .ColorScheme-Highlight {color:#3b4252}</style>
  </defs>
  <metadata
     id="metadata2">
    <rdf:RDF>
      <cc:Work
         rdf:about="">
        <dc:format>image/svg+xml</dc:format>
        <dc:type
           rdf:resource="http://purl.org/dc/dcmitype/StillImage" />
      </cc:Work>
    </rdf:RDF>
  </metadata>
  <path
     id="path5"
     style="fill:currentColor;fill-opacity:1;stroke-width:0.349912"
     d="M 3.1818672,1.455525 C 2.4409042,1.439269 1.8306932,1.9991627 1.8305312,2.6958388 L 2.8781463,8.4655482 1.8305312,14.235258 c 1.86e-4,0.955207 1.1001491,1.551975 1.980296,1.074515 l 5.315351,-2.88461 5.3163308,-2.8850998 c 0.879946,-0.4777546 0.879946,-1.6717641 0,-2.1495188 L 9.1261783,4.5059342 3.8108273,1.621324 C 3.6191933,1.5173845 3.4030553,1.4603646 3.1818672,1.455525 Z m 0.7443841,2.8039116 4.19095,2.1035449 4.1909507,2.1035452 -4.1909507,2.1035453 -4.19095,2.103055 c 0,0 1.047615,-2.7849821 1.047615,-4.2066003 0,-1.4216182 -1.047615,-4.2070901 -1.047615,-4.2070901 z"
     class="ColorScheme-Text" />
</svg>
