<?xml version='1.0' encoding='UTF-8'?>
<svg xmlns:inkscape="http://www.inkscape.org/namespaces/inkscape" xmlns:sodipodi="http://sodipodi.sourceforge.net/DTD/sodipodi-0.dtd" xmlns="http://www.w3.org/2000/svg" xmlns:svg="http://www.w3.org/2000/svg" xmlns:rdf="http://www.w3.org/1999/02/22-rdf-syntax-ns#" xmlns:cc="http://creativecommons.org/ns#" xmlns:dc="http://purl.org/dc/elements/1.1/" width="64" height="64" version="1.1" viewBox="0 0 16.933 16.933" id="svg7" sodipodi:docname="qpdfview.svg" inkscape:version="1.4.2 (ebf0e940d0, 2025-05-08)">
  <sodipodi:namedview id="namedview7" pagecolor="#9c4444" bordercolor="#000000" borderopacity="0.25" inkscape:showpageshadow="2" inkscape:pageopacity="0.0" inkscape:pagecheckerboard="0" inkscape:deskcolor="#d1d1d1" inkscape:zoom="4.3531261" inkscape:cx="36.295755" inkscape:cy="39.971275" inkscape:window-width="2560" inkscape:window-height="1376" inkscape:window-x="0" inkscape:window-y="0" inkscape:window-maximized="1" inkscape:current-layer="svg7" showgrid="false"/>
  <defs id="defs2">
    <style id="current-color-scheme" type="text/css">.ColorScheme-Text {color:#d8dee9} .ColorScheme-Highlight {color:#3b4252}</style>
  </defs>
  <metadata id="metadata2">
    <rdf:RDF>
      <cc:Work rdf:about="">
        <dc:format>image/svg+xml</dc:format>
        <dc:type rdf:resource="http://purl.org/dc/dcmitype/StillImage"/>
      </cc:Work>
    </rdf:RDF>
  </metadata>
  <path id="path52" style="fill:currentColor;stroke:none;stroke-width:0.182559;stroke-dasharray:none;stroke-dashoffset:2.2;stroke-opacity:0.6" class="ColorScheme-Text" d="m 8.6473312,1.0484014 c -0.150354,-0.00246 -0.303011,-6.15e-5 -0.457327,0.0062 -3.777038,0.1537585 -6.779506,3.0257177 -7.114154,6.8051355 -0.35142202,3.9688431 2.595627,7.5277251 6.609802,7.9823021 1.994724,0.225892 4.0848038,-0.437302 5.6186678,-1.767816 L 12.319903,13.08774 c -0.502382,0.34668 -1.117104,0.549309 -1.769366,0.549309 -1.7149618,0 -3.1139608,-1.404331 -3.1139608,-3.121195 0,-1.7168638 1.398999,-3.1206781 3.1139608,-3.1206781 v -5.168e-4 c 1.714906,0 3.132047,1.4043311 3.132047,3.1211949 0,0.652549 -0.220535,1.253143 -0.566363,1.755931 l 0.990101,0.992168 C 15.482048,11.657029 16.095178,9.6247964 15.821946,7.5171298 15.495974,5.0025987 13.944146,2.8608416 11.660008,1.7734075 10.663279,1.2988837 9.6998032,1.065653 8.6473312,1.0484014 Z m -4.890044,2.2494308 h 1.328058 c 0.459455,0 0.801745,0.090545 1.025757,0.2728462 0.224001,0.1823021 0.336924,0.4400759 0.336924,0.7730642 0,0.2226646 -0.048185,0.2847049 -0.145725,0.4542269 -0.093505,0.1668298 -0.24486,0.2968457 -0.454744,0.3916997 -0.205172,0.094171 -0.475984,0.1400403 -0.812337,0.1400403 h -0.605636 v 1.3311587 h -0.672297 z m 3.363036,0 h 1.132725 c 0.47493,0 0.852879,0.1393989 1.132725,0.4185709 0.283882,0.2764821 0.425289,0.687775 0.425289,1.2340089 0,0.5495997 -0.145171,0.9733135 -0.435107,1.2686314 -0.290606,0.2953144 -0.683606,0.4418248 -1.178716,0.4418248 h -1.076916 z m 3.3640688,0 h 2.690739 V 3.9701294 H 11.15669 v 0.6728139 h 1.345111 V 5.3152404 H 11.15669 V 6.6608682 H 10.484392 Z M 4.4295842,3.9701294 v 0.6728139 h 0.500735 c 0.28388,0 0.494762,-0.029833 0.63199,-0.088365 0.141265,-0.060543 0.212386,-0.1457823 0.212386,-0.2547598 0,-0.1109915 -0.057715,-0.1940757 -0.172079,-0.2485587 -0.114359,-0.054483 -0.293489,-0.08113 -0.541042,-0.08113 z m 3.363553,0 v 2.0184417 h 0.33744 c 0.347114,0 0.601954,-0.085756 0.762729,-0.2552766 0.164142,-0.1695208 0.245459,-0.4268264 0.245459,-0.7746145 0,-0.345096 -0.078901,-0.5956049 -0.23564,-0.750327 C 8.7470572,4.0495943 8.5121132,3.9701294 8.1993062,3.9701294 Z M 10.550537,8.529968 c -1.1026208,0 -1.9817518,0.8820192 -1.9817518,1.985886 0,1.103811 0.879131,1.986403 1.9817518,1.986403 1.102616,0 1.981752,-0.882592 1.981752,-1.986403 0,-1.1038668 -0.879136,-1.985886 -1.981752,-1.985886 z"/>
</svg>
