<?xml version="1.0" encoding="UTF-8" standalone="no"?>
<svg
   width="64"
   height="64"
   version="1.1"
   viewBox="0 0 16.933 16.933"
   id="svg7"
   sodipodi:docname="qtassistant.svg"
   inkscape:version="1.4.2 (ebf0e940d0, 2025-05-08)"
   xmlns:inkscape="http://www.inkscape.org/namespaces/inkscape"
   xmlns:sodipodi="http://sodipodi.sourceforge.net/DTD/sodipodi-0.dtd"
   xmlns="http://www.w3.org/2000/svg"
   xmlns:svg="http://www.w3.org/2000/svg"
   xmlns:rdf="http://www.w3.org/1999/02/22-rdf-syntax-ns#"
   xmlns:cc="http://creativecommons.org/ns#"
   xmlns:dc="http://purl.org/dc/elements/1.1/">
  <sodipodi:namedview
     id="namedview7"
     pagecolor="#9c4444"
     bordercolor="#000000"
     borderopacity="0.25"
     inkscape:showpageshadow="2"
     inkscape:pageopacity="0.0"
     inkscape:pagecheckerboard="0"
     inkscape:deskcolor="#d1d1d1"
     inkscape:zoom="4.3531262"
     inkscape:cx="89.935366"
     inkscape:cy="34.457995"
     inkscape:window-width="2560"
     inkscape:window-height="1388"
     inkscape:window-x="0"
     inkscape:window-y="0"
     inkscape:window-maximized="1"
     inkscape:current-layer="svg7"
     showgrid="false" />
  <defs
     id="defs2">
    <style
       id="current-color-scheme"
       type="text/css">.ColorScheme-Text {color:#d8dee9} .ColorScheme-Highlight {color:#3b4252}</style>
  </defs>
  <metadata
     id="metadata2">
    <rdf:RDF>
      <cc:Work
         rdf:about="">
        <dc:format>image/svg+xml</dc:format>
        <dc:type
           rdf:resource="http://purl.org/dc/dcmitype/StillImage" />
      </cc:Work>
    </rdf:RDF>
  </metadata>
  <path
     id="path5"
     style="fill:currentColor"
     d="M 4.172273 1.4551797 C 4.044459 1.4555033 3.9223298 1.5247754 3.8343158 1.6474122 L 1.5843682 4.1267986 C 1.5323282 4.1991666 1.4966229 4.2871699 1.4758499 4.3815584 C 1.4698499 4.4085834 1.4645207 4.4357214 1.4613807 4.4637224 C 1.4575807 4.4935114 1.4551797 4.5241021 1.4551797 4.5546711 L 1.4551797 13.462479 C 1.4551797 14.574946 2.3580529 15.47782 3.4705209 15.47782 L 12.574695 15.47782 C 12.702185 15.477496 12.824639 15.407375 12.912653 15.285071 L 15.348632 12.806201 L 15.349149 12.806201 L 15.349149 12.805685 C 15.356449 12.795615 15.363219 12.785309 15.369819 12.774679 C 15.382939 12.753539 15.394298 12.730611 15.404958 12.707501 C 15.451598 12.609351 15.47782 12.495996 15.47782 12.378329 L 15.47782 3.4705209 C 15.47782 2.3580542 14.574945 1.4551797 13.462479 1.4551797 L 4.172273 1.4551797 z M 7.6024871 4.8946953 L 9.3305129 4.8946953 L 11.24457 12.038305 L 10.047251 12.038305 L 9.622479 10.450319 L 7.310521 10.450319 L 6.8857491 12.038305 L 5.6884297 12.038305 L 7.6024871 4.8946953 z M 8.4665 6.1349053 L 7.6293583 9.2602344 L 9.3036417 9.2602344 L 8.4665 6.1349053 z "
     class="ColorScheme-Text" />
</svg>
