<?xml version="1.0" encoding="UTF-8" standalone="no"?>
<svg
   width="64"
   height="64"
   version="1.1"
   viewBox="0 0 16.933 16.933"
   id="svg7"
   sodipodi:docname="qtdbusviewer.svg"
   inkscape:version="1.4.2 (ebf0e940d0, 2025-05-08)"
   xmlns:inkscape="http://www.inkscape.org/namespaces/inkscape"
   xmlns:sodipodi="http://sodipodi.sourceforge.net/DTD/sodipodi-0.dtd"
   xmlns="http://www.w3.org/2000/svg"
   xmlns:svg="http://www.w3.org/2000/svg"
   xmlns:rdf="http://www.w3.org/1999/02/22-rdf-syntax-ns#"
   xmlns:cc="http://creativecommons.org/ns#"
   xmlns:dc="http://purl.org/dc/elements/1.1/">
  <sodipodi:namedview
     id="namedview7"
     pagecolor="#9c4444"
     bordercolor="#000000"
     borderopacity="0.25"
     inkscape:showpageshadow="2"
     inkscape:pageopacity="0.0"
     inkscape:pagecheckerboard="0"
     inkscape:deskcolor="#d1d1d1"
     inkscape:zoom="4.3531262"
     inkscape:cx="89.935366"
     inkscape:cy="34.457995"
     inkscape:window-width="2560"
     inkscape:window-height="1388"
     inkscape:window-x="0"
     inkscape:window-y="0"
     inkscape:window-maximized="1"
     inkscape:current-layer="svg7"
     showgrid="false" />
  <defs
     id="defs2">
    <style
       id="current-color-scheme"
       type="text/css">.ColorScheme-Text {color:#d8dee9} .ColorScheme-Highlight {color:#3b4252}</style>
  </defs>
  <metadata
     id="metadata2">
    <rdf:RDF>
      <cc:Work
         rdf:about="">
        <dc:format>image/svg+xml</dc:format>
        <dc:type
           rdf:resource="http://purl.org/dc/dcmitype/StillImage" />
      </cc:Work>
    </rdf:RDF>
  </metadata>
  <path
     id="path5"
     style="fill:currentColor"
     d="M 5.0838273 1.4551797 L 1.4551797 4.8662738 L 1.4551797 5.349439 L 1.4551797 13.462479 C 1.4551797 13.528699 1.458698 13.593824 1.464998 13.658329 C 1.467598 13.685579 1.4727266 13.712023 1.4763666 13.738943 C 1.4810666 13.773513 1.4842657 13.808777 1.4908357 13.84281 L 1.4913525 13.842293 L 1.4918692 13.842293 L 1.492386 13.841777 C 1.670052 14.772993 2.4877749 15.47782 3.4705209 15.47782 L 13.462479 15.47782 C 14.574945 15.47782 15.47782 14.574946 15.47782 13.462479 L 15.47782 13.410287 L 15.47782 11.6187 L 15.47782 3.4705209 C 15.47782 2.3580546 14.574945 1.4551797 13.462479 1.4551797 L 5.0838273 1.4551797 z M 2.8597175 4.8946953 L 5.8357046 4.8946953 C 7.264719 4.8946953 8.4158581 6.0458335 8.4158581 7.4748488 L 8.4158581 9.4581512 C 8.4158581 10.887167 7.264719 12.038305 5.8357046 12.038305 L 2.8597175 12.038305 L 2.8597175 4.8946953 z M 8.3145743 4.8946953 L 9.5620188 4.8946953 L 11.193412 10.06172 L 12.824805 4.8946953 L 14.073283 4.8946953 L 11.817134 12.038305 L 10.569689 12.038305 L 8.3145743 4.8946953 z M 4.0508358 6.0852969 L 4.0508358 10.847703 L 5.8357046 10.847703 C 6.6258091 10.847703 7.2252565 10.248257 7.2252565 9.4581512 L 7.2252565 7.4748488 C 7.2252565 6.6847434 6.6258091 6.0852969 5.8357046 6.0852969 L 4.0508358 6.0852969 z "
     class="ColorScheme-Text" />
</svg>
