<?xml version="1.0" encoding="UTF-8" standalone="no"?>
<svg
   width="64"
   height="64"
   version="1.1"
   viewBox="0 0 16.933 16.933"
   id="svg7"
   sodipodi:docname="rapidraw.svg"
   inkscape:version="1.4.3 (0d15f75042, 2025-12-25)"
   xmlns:inkscape="http://www.inkscape.org/namespaces/inkscape"
   xmlns:sodipodi="http://sodipodi.sourceforge.net/DTD/sodipodi-0.dtd"
   xmlns="http://www.w3.org/2000/svg"
   xmlns:svg="http://www.w3.org/2000/svg"
   xmlns:rdf="http://www.w3.org/1999/02/22-rdf-syntax-ns#"
   xmlns:cc="http://creativecommons.org/ns#"
   xmlns:dc="http://purl.org/dc/elements/1.1/">
  <sodipodi:namedview
     id="namedview7"
     pagecolor="#9c4444"
     bordercolor="#000000"
     borderopacity="0.25"
     inkscape:showpageshadow="2"
     inkscape:pageopacity="0.0"
     inkscape:pagecheckerboard="0"
     inkscape:deskcolor="#d1d1d1"
     inkscape:zoom="4.3531262"
     inkscape:cx="90.165086"
     inkscape:cy="34.457995"
     inkscape:window-width="2560"
     inkscape:window-height="1388"
     inkscape:window-x="0"
     inkscape:window-y="0"
     inkscape:window-maximized="1"
     inkscape:current-layer="svg7"
     showgrid="false" />
  <defs
     id="defs2">
    <style
       id="current-color-scheme"
       type="text/css">.ColorScheme-Text {color:#d8dee9} .ColorScheme-Highlight {color:#3b4252}</style>
  </defs>
  <metadata
     id="metadata2">
    <rdf:RDF>
      <cc:Work
         rdf:about="">
        <dc:format>image/svg+xml</dc:format>
        <dc:type
           rdf:resource="http://purl.org/dc/dcmitype/StillImage" />
      </cc:Work>
    </rdf:RDF>
  </metadata>
  <path
     style="fill:currentColor;stroke:none;stroke-width:0.0144167"
     d="m 4.2093161,1.4824538 c -0.28225,0.0371 -0.5558,0.0753 -0.82451,0.17669 -0.83809,0.31634 -1.51473,1.021 -1.78116,1.87834 -0.2404,0.77358 -0.13289,1.65821 -0.13289,2.45881 v 4.4170302 1.51651 c 0,0.80407 0.0269,1.56976 0.51399,2.25268 0.49456,0.69335 1.25112,1.17812 2.10678,1.26373 0.59055,0.0591 1.20262,0.0172 1.79626,0.0172 h 3.268597 2.4146409 c 0.466481,0 0.951718,0.0383 1.413448,-0.0359 1.12472,-0.18073 2.083365,-1.03928 2.374379,-2.14317 0.207312,-0.78639 0.09916,-1.68092 0.09916,-2.48826 V 6.2465838 c 0,-1.16047 0.202038,-2.50683 -0.52475,-3.50418 -0.501575,-0.68829 -1.231554,-1.14533 -2.081296,-1.24728 -0.534465,-0.0641 -1.096104,-0.0189 -1.634299,-0.0189 h -2.9741299 -2.67967 c -0.44105,0 -0.91747,-0.0512 -1.35455,0.006 m 8.5543089,3.68933 -0.230667,0.35336 -0.389353,0.64783 -0.867045,1.79626 h -0.02945 l -0.821683,-2.16434 -0.204424,-0.55949 -0.04692,-0.20555 0.362314,-0.32795 0.931563,-0.82106 -0.55949,-0.48587 c 0.06876,-0.0702 0.201398,-0.0554 0.294469,-0.0595 0.199295,-0.009 0.405788,-0.0238 0.60366,-0.0498 0.379516,-0.0499 0.766877,-0.0573 1.148426,-0.0834 0.08722,-0.006 0.337624,-0.0702 0.403372,-0.005 0.0745,0.0745 0.0089,0.37472 0.0089,0.47699 0,0.4767 0.0035,0.96869 -0.04167,1.4429 -0.01243,0.13063 -0.0025,0.26634 -0.0025,0.39753 -3e-6,0.0356 0.01459,0.12308 -0.02339,0.14464 -0.04658,0.0264 -0.112893,-0.074 -0.138781,-0.10047 -0.130935,-0.13395 -0.264868,-0.26508 -0.397317,-0.39753 m -2.664939,0.80979 -0.5594899,-0.17045 -0.883404,-0.35505 -2.81217,-1.3591 c 0.0231,-0.0752 0.0977,-0.10714 0.16195,-0.14633 0.16269,-0.0992 0.33775,-0.18499 0.51532,-0.25399 0.63618,-0.2472 1.39018,-0.42098 2.07601,-0.34006 0.14397,0.017 0.421829,-0.0227 0.540672,0.072 0.05285,0.0421 0.07051,0.13648 0.09317,0.19726 0.05661,0.15186 0.110256,0.30478 0.167456,0.45643 0.158961,0.42143 0.3134,0.84436 0.471161,1.26621 0.07518,0.20102 0.1980169,0.42111 0.2293259,0.63311 m 0.677279,-1.92877 c -0.26351,0.18489 -0.472474,0.51193 -0.765617,0.64783 l -0.2972979,-0.76562 -0.144405,-0.42698 c 0.317536,0.0259 0.6497449,0.20616 0.9275759,0.34956 0.09097,0.0469 0.246861,0.0898 0.279744,0.19521 m -7.2733739,3.2686 c 0.005,-0.22211 0.097,-0.45381 0.16687,-0.66256 0.22431,-0.67049 0.61496,-1.29714 1.11407,-1.79625 0.14264,-0.14264 0.28409,-0.28299 0.4417,-0.40932 0.0582,-0.0466 0.13044,-0.12615 0.20613,-0.14107 0.0824,-0.0162 0.20803,0.0693 0.27975,0.10505 0.22931,0.11436 0.45913,0.2308 0.692,0.33773 0.3615,0.16599 0.71899,0.34559 1.07481,0.5235 0.0653,0.0326 0.32728,0.1124 0.3398,0.18895 0.0103,0.0631 -0.17844,0.11056 -0.22201,0.12912 -0.25669,0.10935 -0.50951,0.22661 -0.76562,0.33671 -0.76315,0.32808 -1.53088,0.64598 -2.29686,0.96741 -0.22178,0.0931 -0.44122,0.19173 -0.66255,0.28601 -0.11709,0.0499 -0.24,0.12346 -0.36809,0.13472 m 9.1726959,-1.32511 c 0.15136,0.20834 0.249904,0.46673 0.339377,0.70672 0.218768,0.58681 0.3379,1.1994 0.3379,1.82571 0,0.18802 -0.0163,0.37236 -0.02908,0.55949 -0.0049,0.0711 0.0024,0.19956 -0.04363,0.25752 -0.06848,0.0863 -0.296345,0.13212 -0.39844,0.1702 -0.339708,0.12667 -0.676707,0.26036 -1.015917,0.3883 -0.255779,0.0965 -0.511789,0.1925802 -0.765617,0.2941202 -0.100828,0.0403 -0.22873,0.12007 -0.338639,0.0972 0.256041,-1.1067302 0.836676,-2.0848802 1.30584,-3.1066402 0.129437,-0.2819 0.266989,-0.56179 0.405712,-0.83924 0.0573,-0.1146 0.100132,-0.27303 0.202493,-0.35336 m -3.4158339,2.87107 c 0.203546,0.55914 0.65318,1.02534 0.8834049,1.5754002 H 9.2152971 c -0.08499,0 -0.274758,0.0354 -0.341751,-0.0236 -0.08694,-0.0766 -0.13796,-0.24302 -0.19284,-0.34447 -0.13744,-0.2541202 -0.2651,-0.5144002 -0.40771,-0.7656202 -0.0742,-0.13069 -0.1217,-0.3366 -0.29447,-0.33864 v 1.4723402 h -1.11898 l -0.0147,-4.0342102 h 1.47234 c 0.46608,0 0.928196,-0.003 1.32511,0.28033 0.7783549,0.55649 0.5827809,1.95498 -0.382809,2.17848 m -3.342211,-2.1349 c -0.15865,1.1781 -0.85125,2.27437 -1.32716,3.3422202 -0.11936,0.26782 -0.25389,0.52861 -0.37622,0.79506 -0.0432,0.0942 -0.0671,0.24073 -0.18122,0.26502 -0.11697,-0.25053 -0.25396,-0.4913 -0.35242,-0.75089 -0.21535,-0.5677502 -0.32486,-1.1905102 -0.32486,-1.7962602 0,-0.22767 -0.05,-0.58393 0.0517,-0.79352 0.0302,-0.0621 0.10995,-0.0809 0.16911,-0.10461 0.14275,-0.0571 0.28553,-0.11423 0.42698,-0.17447 0.42608,-0.18148 0.85375,-0.35924 1.28094,-0.5385 0.19075,-0.08 0.42534,-0.23327 0.63311,-0.24405 m 2.06127,0.63311 v 0.80979 c 0.24208,0 0.58807,0.063 0.80979,-0.0462 0.255147,-0.12561 0.25643,-0.56972 0.0147,-0.70868 -0.21543,-0.12385 -0.58323,-0.0549 -0.8245,-0.0549 m -2.47353,1.72264 0.38076,1.0600802 0.64497,1.84043 0.32882,0.97175 0.14724,0.48587 c -0.21041,-0.0184 -0.44034,-0.13215 -0.63311,-0.21465 -0.5777,-0.24725 -1.10263,-0.60824 -1.54596,-1.05156 -0.13282,-0.13283 -0.25922,-0.26904 -0.38083,-0.41226 -0.0459,-0.0541 -0.12799,-0.13263 -0.13682,-0.20613 -0.008,-0.0655 0.048,-0.14807 0.0739,-0.20613 0.0731,-0.16394 0.15371,-0.32531 0.23399,-0.48587 0.29297,-0.58594 0.52746,-1.2159202 0.85759,-1.7815302 h 0.0294 m 7.6708999,0.692 c 0.04863,0.193 -0.114387,0.5126802 -0.18553,0.6920002 -0.265549,0.66935 -0.669759,1.28771 -1.198471,1.78022 -0.140482,0.13086 -0.289037,0.25467 -0.441702,0.3711 -0.0575,0.0439 -0.130954,0.11736 -0.206128,0.12517 -0.06532,0.007 -0.135533,-0.0437 -0.191405,-0.0716 l -0.412255,-0.20613 c -0.429973,-0.21499 -0.8558689,-0.43786 -1.2809379,-0.66215 -0.162969,-0.086 -0.424901,-0.16613 -0.544771,-0.30596 l 0.88341,-0.34867 0.353362,-0.12248 0.2355749,-0.11496 0.60366,-0.22667 1.590129,-0.60692 0.795064,-0.3029402 M 9.4066221,12.267874 v 0.0294 l 0.02945,-0.0147 0.323916,0.18032 0.6625539,0.33063 0.338638,0.19577 c -0.760586,0.44436 -1.5988869,0.63311 -2.4735339,0.63311 -0.2071,0 -0.41317,-0.0137 -0.61839,-0.0422 -0.0657,-0.009 -0.17513,-0.007 -0.22602,-0.0548 -0.0514,-0.0483 -0.0665,-0.14751 -0.0881,-0.21218 -0.054,-0.16194 -0.10613,-0.32462 -0.16211,-0.48587 -0.12056,-0.34727 -0.22885,-0.6996 -0.35368,-1.04535 -0.0922,-0.2554 -0.21316,-0.51593 -0.27436,-0.78036 0.0861,-0.043 0.16122,0.0279 0.23557,0.0589 0.12613,0.0526 0.25664,0.0947 0.38281,0.14723 0.14877,0.062 0.30764,0.1 0.45643,0.16196 0.40807,0.17003 0.79691,0.40581 1.19259,0.60366 0.143198,0.0716 0.284311,0.14951 0.426985,0.22085 0.05393,0.027 0.120557,0.0803 0.147235,0.0736 z"
     id="path5"
     class="ColorScheme-Text" />
</svg>
