<?xml version='1.0' encoding='UTF-8'?>
<svg xmlns:inkscape="http://www.inkscape.org/namespaces/inkscape" xmlns:sodipodi="http://sodipodi.sourceforge.net/DTD/sodipodi-0.dtd" xmlns="http://www.w3.org/2000/svg" xmlns:svg="http://www.w3.org/2000/svg" xmlns:rdf="http://www.w3.org/1999/02/22-rdf-syntax-ns#" xmlns:cc="http://creativecommons.org/ns#" xmlns:dc="http://purl.org/dc/elements/1.1/" width="64" height="64" version="1.1" viewBox="0 0 16.933 16.933" id="svg7" sodipodi:docname="org.remmina.Remmina.svg" inkscape:version="1.4.2 (ebf0e940d0, 2025-05-08)">
  <sodipodi:namedview id="namedview7" pagecolor="#9c4444" bordercolor="#000000" borderopacity="0.25" inkscape:showpageshadow="2" inkscape:pageopacity="0.0" inkscape:pagecheckerboard="0" inkscape:deskcolor="#d1d1d1" inkscape:zoom="6.15625" inkscape:cx="24.284264" inkscape:cy="29.64467" inkscape:window-width="1183" inkscape:window-height="941" inkscape:window-x="0" inkscape:window-y="0" inkscape:window-maximized="0" inkscape:current-layer="svg7" showgrid="false"/>
  <defs id="defs2">
    <style id="current-color-scheme" type="text/css">.ColorScheme-Text {color:#d8dee9} .ColorScheme-Highlight {color:#3b4252}</style>
  </defs>
  <metadata id="metadata2">
    <rdf:RDF>
      <cc:Work rdf:about="">
        <dc:format>image/svg+xml</dc:format>
        <dc:type rdf:resource="http://purl.org/dc/dcmitype/StillImage"/>
      </cc:Work>
    </rdf:RDF>
  </metadata>
  <path id="path5" class="ColorScheme-Text" style="fill:currentColor;fill-opacity:1" d="M 37.579184 2.6090206 C 16.715228 2.6090206 -0.25844849 19.581013 -0.25844849 40.444986 C -0.25844849 46.602341 1.2247427 52.416677 3.8465777 57.559959 L 10.238886 53.305728 A 30.269332 30.269333 0 0 1 7.309078 40.444986 A 30.269332 30.269333 0 0 1 37.579184 10.175124 A 30.269332 30.269333 0 0 1 60.00718 20.192449 L 66.385759 15.951836 C 59.440986 7.7956084 49.104419 2.6090206 37.579184 2.6090206 z M 20.620895 17.741228 L 20.620895 26.91969 L 29.550357 32.878882 L 20.620895 38.829903 L 20.620895 48.011089 L 43.320729 32.878882 L 20.620895 17.741228 z M 70.682994 22.180662 L 64.32089 26.415828 A 30.269332 30.269333 0 0 1 67.84929 40.444986 A 30.269332 30.269333 0 0 1 37.579184 70.714847 A 30.269332 30.269333 0 0 1 14.288995 59.697969 L 7.948858 63.919517 C 14.885081 72.658013 25.581622 78.280951 37.579184 78.280951 C 58.442159 78.280951 75.416817 61.308958 75.416817 40.444986 C 75.416817 33.820882 73.687131 27.601481 70.682994 22.180662 z M 54.542965 32.876159 L 31.843131 48.016537 L 54.542965 63.143297 L 54.542965 53.964834 L 45.613503 48.016537 L 54.542965 42.054621 L 54.542965 32.876159 z " transform="matrix(0.1881955,0,0,0.18973346,1.4547269,0.85422659)"/>
</svg>
