<?xml version="1.0" encoding="UTF-8" standalone="no"?>
<svg
   width="64"
   height="64"
   version="1.1"
   viewBox="0 0 16.933 16.933"
   id="svg7"
   sodipodi:docname="davinci-resolve.svg"
   inkscape:version="1.4.2 (ebf0e940d0, 2025-05-08)"
   xmlns:inkscape="http://www.inkscape.org/namespaces/inkscape"
   xmlns:sodipodi="http://sodipodi.sourceforge.net/DTD/sodipodi-0.dtd"
   xmlns="http://www.w3.org/2000/svg"
   xmlns:svg="http://www.w3.org/2000/svg"
   xmlns:rdf="http://www.w3.org/1999/02/22-rdf-syntax-ns#"
   xmlns:cc="http://creativecommons.org/ns#"
   xmlns:dc="http://purl.org/dc/elements/1.1/">
  <sodipodi:namedview
     id="namedview7"
     pagecolor="#9c4444"
     bordercolor="#000000"
     borderopacity="0.25"
     inkscape:showpageshadow="2"
     inkscape:pageopacity="0.0"
     inkscape:pagecheckerboard="0"
     inkscape:deskcolor="#d1d1d1"
     inkscape:zoom="6.15625"
     inkscape:cx="74.477157"
     inkscape:cy="27.28934"
     inkscape:window-width="2560"
     inkscape:window-height="1392"
     inkscape:window-x="0"
     inkscape:window-y="0"
     inkscape:window-maximized="1"
     inkscape:current-layer="svg7"
     showgrid="false" />
  <defs
     id="defs2">
    <style
       id="current-color-scheme"
       type="text/css">.ColorScheme-Text {color:#d8dee9} .ColorScheme-Highlight {color:#3b4252}</style>
  </defs>
  <metadata
     id="metadata2">
    <rdf:RDF>
      <cc:Work
         rdf:about="">
        <dc:format>image/svg+xml</dc:format>
        <dc:type
           rdf:resource="http://purl.org/dc/dcmitype/StillImage" />
      </cc:Work>
    </rdf:RDF>
  </metadata>
  <path
     id="path27"
     style="fill:currentColor;fill-opacity:1;stroke-width:0.250402"
     d="m 8.1117235,1.4551808 c -0.07565,0.019281 -0.155501,0.012409 -0.231153,0.019421 -0.42611,0.035337 -0.846903,0.1091135 -1.259025,0.2216793 -0.848924,0.2323183 -1.625985,0.6110064 -2.33237,1.1358698 -0.433191,0.3221675 -0.824006,0.6902567 -1.172816,1.1022387 -0.352141,0.4158382 -0.651973,0.8665794 -0.898559,1.3509177 -0.357645,0.702669 -0.590062,1.4444405 -0.695827,2.2262667 -0.02138,0.1618902 -0.0386,0.3254873 -0.04737,0.4893053 -0.0017,0.033409 -0.0071,0.066623 -0.01942,0.098524 v 0.7237734 c 0.01227,0.036984 0.01942,0.073856 0.01942,0.1108399 0.04414,0.685106 0.188225,1.3488983 0.429623,1.9899033 0.269618,0.721845 0.650149,1.379016 1.138238,1.974272 0.414015,0.507055 0.889327,0.947183 1.426705,1.320603 0.579517,0.401605 1.20514,0.709856 1.876222,0.924611 0.391018,0.124906 0.79269,0.214763 1.201237,0.267626 0.218401,0.0297 0.438359,0.04727 0.660301,0.05779 0.01946,0 0.03898,0.002 0.05826,0.009 h 0.415412 4.75e-4 c 0.07218,-0.01532 0.146083,-0.01375 0.215522,-0.02179 0.26415,-0.01588 0.526638,-0.04567 0.787246,-0.09142 0.6782045,-0.117791 1.3248105,-0.332949 1.9396985,-0.642777 0.533768,-0.269268 1.025441,-0.60212 1.474547,-0.996609 0.451034,-0.396102 0.843415,-0.843381 1.179921,-1.340023 0.452683,-0.667297 0.778932,-1.391143 0.981452,-2.171321 0.105765,-0.4155576 0.17225,-0.8365641 0.204153,-1.2628143 0.0052,-0.066817 0.0052,-0.1335118 0.0052,-0.200364 0.0017,-0.028186 0.002,-0.056603 0.009,-0.082893 V 8.2519248 c -0.0017,-0.022717 -0.0071,-0.046966 -0.0071,-0.070104 C 15.469116,7.8331157 15.421246,7.4879589 15.357939,7.14637 15.237906,6.5001416 15.026705,5.8855693 14.730795,5.2990421 14.480598,4.8026445 14.174475,4.3428519 13.813288,3.9201778 13.364179,3.3936681 12.849868,2.941487 12.26674,2.5664194 11.516219,2.0823966 10.704238,1.7547076 9.8287425,1.5821252 c -0.278138,-0.054513 -0.558305,-0.090089 -0.840298,-0.114629 -0.05451,-0.00526 -0.110765,0.00346 -0.165312,-0.012316 z m 0.21789,2.2556345 c 0.452655,-0.021815 0.859208,0.1317847 1.214499,0.4547269 0.343413,0.3126482 0.5355375,0.7112288 0.5930395,1.181816 0.03449,0.2851862 -0.0167,0.5564992 -0.121733,0.8194557 -0.1050345,0.2645647 -0.2478965,0.5084135 -0.4073605,0.7403522 -0.175776,0.2560143 -0.369484,0.4951165 -0.573146,0.7270893 -0.144622,0.1632663 -0.295774,0.3213916 -0.448569,0.4793579 -0.03452,0.037927 -0.07577,0.067111 -0.121733,0.087629 -0.04756,0.020533 -0.09323,0.020623 -0.13926,-0.00332 -0.04596,-0.022193 -0.089,-0.051735 -0.12505,-0.086206 C 7.7600255,7.6924033 7.3541555,7.2409556 7.0322205,6.713434 6.8908995,6.4814613 6.7710655,6.2358907 6.6987545,5.9678715 c -0.03796,-0.1408654 -0.0608,-0.2818471 -0.0559,-0.4106752 -0.0033,-0.8949906 0.624472,-1.6918495 1.490178,-1.8260125 0.06653,-0.010289 0.131909,-0.017253 0.196575,-0.020368 z m -2.6791,4.7580533 c 0.43306,-0.014595 0.857696,0.044588 1.278919,0.1368918 0.254424,0.056124 0.503972,0.1253198 0.751721,0.2027322 0.195035,0.060749 0.239444,0.1713343 0.19989,0.3476767 -0.07122,0.3147662 -0.163872,0.6260066 -0.272836,0.9307687 -0.08917,0.251951 -0.191193,0.500983 -0.313572,0.739879 -0.104097,0.202748 -0.224866,0.395261 -0.368518,0.573145 -0.236208,0.291707 -0.54379,0.456509 -0.905664,0.535725 -0.122313,0.02598 -0.244398,0.0393 -0.35336,0.036 -0.852475,0.0067 -1.602746,-0.5946 -1.749751,-1.439969 -0.10229,-0.5916138 0.06265,-1.1106123 0.477463,-1.5455972 0.242849,-0.2552967 0.540204,-0.4168921 0.890506,-0.4779367 0.120767,-0.021419 0.242857,-0.034407 0.365202,-0.039315 z m 5.4889325,0 c 0.122346,0.0049 0.244435,0.017896 0.365203,0.039315 0.350299,0.061045 0.647656,0.22264 0.890506,0.4779367 0.414811,0.434985 0.579753,0.9539834 0.477464,1.5455977 -0.147006,0.845369 -0.896803,1.446627 -1.749277,1.439968 -0.108964,0.0033 -0.231522,-0.01002 -0.353835,-0.036 -0.361875,-0.07921 -0.669456,-0.244017 -0.9056645,-0.535724 -0.143652,-0.177884 -0.264422,-0.370397 -0.368519,-0.573145 -0.122379,-0.238896 -0.224402,-0.487928 -0.313572,-0.739879 -0.108963,-0.3047621 -0.201618,-0.6160025 -0.272835,-0.9307687 -0.03955,-0.1763424 0.0049,-0.2869276 0.19989,-0.3476767 0.247749,-0.077412 0.497296,-0.1466086 0.75172,-0.2027322 C 10.28175,8.5134564 10.706387,8.4542721 11.139446,8.4688686 Z"
     class="ColorScheme-Text" />
</svg>
