<?xml version='1.0' encoding='UTF-8'?>
<svg xmlns:inkscape="http://www.inkscape.org/namespaces/inkscape" xmlns:sodipodi="http://sodipodi.sourceforge.net/DTD/sodipodi-0.dtd" xmlns="http://www.w3.org/2000/svg" xmlns:svg="http://www.w3.org/2000/svg" xmlns:rdf="http://www.w3.org/1999/02/22-rdf-syntax-ns#" xmlns:cc="http://creativecommons.org/ns#" xmlns:dc="http://purl.org/dc/elements/1.1/" width="64" height="64" version="1.1" viewBox="0 0 16.933 16.933" id="svg7" sodipodi:docname="rstudio.svg" inkscape:version="1.4 (e7c3feb100, 2024-10-09)">
  <sodipodi:namedview id="namedview7" pagecolor="#9c4444" bordercolor="#000000" borderopacity="0.25" inkscape:showpageshadow="2" inkscape:pageopacity="0.0" inkscape:pagecheckerboard="0" inkscape:deskcolor="#d1d1d1" inkscape:zoom="6.15625" inkscape:cx="17.137056" inkscape:cy="29.725888" inkscape:window-width="1183" inkscape:window-height="941" inkscape:window-x="35" inkscape:window-y="32" inkscape:window-maximized="0" inkscape:current-layer="svg7" showgrid="false"/>
  <defs id="defs2">
    <style id="current-color-scheme" type="text/css">.ColorScheme-Text {color:#d8dee9} .ColorScheme-Highlight {color:#3b4252}</style></defs>
  <metadata id="metadata2">
    <rdf:RDF>
      <cc:Work rdf:about="">
        <dc:format>image/svg+xml</dc:format>
        <dc:type rdf:resource="http://purl.org/dc/dcmitype/StillImage"/>
      </cc:Work>
    </rdf:RDF>
  </metadata>
  <path d="M 2.4048467,1.8657703 V 2.9678206 H 4.3292775 V 13.972446 H 2.4048467 v 1.102809 H 7.5900755 V 13.972446 H 5.5023776 V 9.0215374 H 7.191735 c 1.2199638,0 1.595629,0.6099828 2.510224,2.0415886 0.328802,0.516257 1.525335,2.439931 2.252474,4.012129 h 2.932755 V 13.972446 H 12.822923 C 11.907572,12.447114 10.311941,9.7962983 9.4676413,8.998105 12.189509,8.7169248 13.057243,6.7924933 13.057243,5.4085055 c 0,-1.1496687 -0.609984,-2.3462007 -1.430854,-2.9093208 C 10.804766,1.9360661 9.9370329,1.8657703 8.4351311,1.8657703 Z m 5.98342,1.1020503 c 1.6893573,0 2.0642663,0.1647775 2.4164993,0.3990967 0.609982,0.4225275 0.985644,1.1965324 0.985644,1.9712939 0,2.6273829 -2.8624555,2.5805202 -4.1058522,2.5805202 H 5.5023776 V 2.9678206 Z" fill-rule="nonzero" id="path2" style="fill:currentColor;fill-opacity:1;stroke-width:0.755862" class="ColorScheme-Text"/>
  <g id="g9" transform="matrix(0.46959567,0,0,0.46959567,4.7471229,3.7470598)" style="fill:#999999;fill-opacity:1;stroke:none;stroke-width:0.58349;stroke-dasharray:none;stroke-opacity:0.3"/>
  </svg>
