<?xml version="1.0" encoding="UTF-8" standalone="no"?>
<!-- Created with Inkscape (http://www.inkscape.org/) -->

<svg
   version="1.1"
   id="svg1"
   width="64"
   height="64"
   viewBox="0 0 64.000001 64.000001"
   sodipodi:docname="satty.svg"
   inkscape:version="1.4.2 (ebf0e940d0, 2025-05-08)"
   inkscape:export-filename="logo.png"
   inkscape:export-xdpi="96"
   inkscape:export-ydpi="96"
   xmlns:inkscape="http://www.inkscape.org/namespaces/inkscape"
   xmlns:sodipodi="http://sodipodi.sourceforge.net/DTD/sodipodi-0.dtd"
   xmlns="http://www.w3.org/2000/svg"
   xmlns:svg="http://www.w3.org/2000/svg">
  <defs
     id="defs1" />
  <style
     type="text/css"
     id="current-color-scheme">.ColorScheme-Text { color:#d8dee9; }
  </style>
  <sodipodi:namedview
     id="namedview1"
     pagecolor="#9c4444"
     bordercolor="#666666"
     borderopacity="1.0"
     inkscape:showpageshadow="2"
     inkscape:pageopacity="0.0"
     inkscape:pagecheckerboard="0"
     inkscape:deskcolor="#d1d1d1"
     showgrid="false"
     inkscape:zoom="8"
     inkscape:cx="29.25"
     inkscape:cy="20.375"
     inkscape:window-width="2560"
     inkscape:window-height="1392"
     inkscape:window-x="0"
     inkscape:window-y="0"
     inkscape:window-maximized="1"
     inkscape:current-layer="svg1" />
  <path
     id="path5"
     style="fill:currentColor;fill-opacity:1;stroke-width:1.41469"
     d="M 54.609895,5.8540366 C 53.103954,5.3742762 46.23087,5.521197 46.23087,5.521197 c -7.075819,0.00256 -8.408987,0.1126548 -9.432911,0.7907148 -0.655898,0.4343465 -4.979732,4.5796872 -9.606879,9.2093372 -9.148744,9.15369 -10.151316,10.613099 -9.369055,13.521711 0.689149,2.562414 2.267509,3.803864 5.136186,4.042045 0.923707,0.08833 1.191528,0.126847 2.249971,-0.175339 1.265996,-0.535477 3.988011,-3.252934 3.988011,-3.252934 4.751465,-4.503107 6.754347,-5.822666 10.849161,-5.91592 2.716246,-0.06186 3.312795,-7.68e-4 5.605624,0.992541 6.437503,3.153393 9.118258,10.377974 6.191038,16.68242 -0.49174,1.059073 -1.948736,3.045039 -3.239112,4.415285 -2.596199,2.756893 -3.147985,3.835983 -3.147985,6.159832 0,2.654256 1.045803,4.460001 3.225304,5.56818 3.296381,1.676062 6.451161,0.890558 8.789508,-2.189671 0.836878,-1.102394 0.885959,-2.177001 1.01343,-22.322483 C 58.571144,19.141911 58.293233,11.326281 58.137987,10.10237 58.001319,9.0249214 57.564631,8.2248089 57.091484,7.6044864 56.445368,6.7360385 55.865537,6.3418306 54.609895,5.8540366 Z M 12.353112,5.5 C 9.2583716,5.5 8.1183413,5.8860805 7.3271273,6.3939653 6.4404683,7.0112535 6.0043664,7.6401188 5.6927126,8.8411885 5.4660303,9.9729372 5.5021025,31.571466 5.5021025,31.571466 5.509511,53.211535 5.5141908,53.296763 6.5210557,55.055138 7.0768393,56.025747 8.2386801,57.197599 9.1057175,57.65952 10.455329,58.378536 11.744283,58.5 18.063669,58.5 c 5.488883,0 7.696029,-0.164577 8.604494,-0.641419 0.671936,-0.352691 5.315832,-4.787511 10.319317,-9.85352 9.726246,-9.847788 10.07586,-10.370308 9.11259,-13.671623 -0.579503,-1.986069 -1.562302,-2.996566 -4.085909,-3.4586 -2.452303,-0.448978 -4.089194,0.242219 -7.967562,3.98943 -5.277103,5.098645 -9.052388,6.382963 -14.292959,4.857641 -3.487055,-1.014942 -6.977491,-4.406704 -8.14058,-7.912675 -1.6534429,-4.984083 -0.30769,-9.822773 3.84938,-13.851331 2.386832,-2.313048 3.153507,-3.798563 3.153507,-6.115597 C 18.615947,7.9988661 16.147829,5.5 12.353112,5.5 Z"
     class="ColorScheme-Text" />
</svg>
