<?xml version='1.0' encoding='UTF-8'?>
<svg xmlns:inkscape="http://www.inkscape.org/namespaces/inkscape" xmlns:sodipodi="http://sodipodi.sourceforge.net/DTD/sodipodi-0.dtd" xmlns="http://www.w3.org/2000/svg" xmlns:svg="http://www.w3.org/2000/svg" xmlns:rdf="http://www.w3.org/1999/02/22-rdf-syntax-ns#" xmlns:cc="http://creativecommons.org/ns#" xmlns:dc="http://purl.org/dc/elements/1.1/" width="64" height="64" version="1.1" viewBox="0 0 16.933 16.933" id="svg7" sodipodi:docname="scrcpy.svg" inkscape:version="1.4.2 (ebf0e940d0, 2025-05-08)">
  <sodipodi:namedview id="namedview7" pagecolor="#9c4444" bordercolor="#000000" borderopacity="0.25" inkscape:showpageshadow="2" inkscape:pageopacity="0.0" inkscape:pagecheckerboard="0" inkscape:deskcolor="#d1d1d1" inkscape:zoom="4.3531261" inkscape:cx="36.295755" inkscape:cy="40.430715" inkscape:window-width="2560" inkscape:window-height="1376" inkscape:window-x="0" inkscape:window-y="0" inkscape:window-maximized="1" inkscape:current-layer="svg7" showgrid="false"/>
  <defs id="defs2">
    <style id="current-color-scheme" type="text/css">.ColorScheme-Text {color:#d8dee9} .ColorScheme-Highlight {color:#3b4252}</style>
    </defs>
  <metadata id="metadata2">
    <rdf:RDF>
      <cc:Work rdf:about="">
        <dc:format>image/svg+xml</dc:format>
        <dc:type rdf:resource="http://purl.org/dc/dcmitype/StillImage"/>
      </cc:Work>
    </rdf:RDF>
  </metadata>
  <path id="path7" style="fill:currentColor;fill-opacity:1;stroke-width:0.241843" d="m 2.7785663,4.1263516 c -0.06442,0.00154 -0.124562,0.028164 -0.231862,0.081479 -0.301958,0.1500314 -0.473282,0.3956143 -0.473282,0.677984 0,0.1878131 0.114881,0.4035264 0.655854,1.229223 l 0.655854,1.0008818 0.517542,-0.4149384 c 0.284672,-0.2284033 0.540149,-0.4154419 0.567333,-0.4154419 0.115353,0 0.01665,-0.1867484 -0.560796,-1.063248 -0.557027,-0.8455236 -0.633083,-0.9348571 -0.87313,-1.0265318 -0.124482,-0.04754 -0.19309,-0.071012 -0.257513,-0.069408 z m 11.3305797,0.037722 c -0.12929,0.00163 -0.256294,0.047656 -0.372188,0.1388146 -0.162321,0.127674 -1.297623,1.8011394 -1.297623,1.9127391 0,0.029531 0.102137,0.1216514 0.226832,0.204703 0.124686,0.083052 0.362449,0.2638473 0.528104,0.4013582 0.165671,0.1375115 0.31522,0.2491556 0.332455,0.24846 0.01747,-6.991e-4 0.317257,-0.4427358 0.666415,-0.9822716 0.557425,-0.8613634 0.634729,-1.0128696 0.634729,-1.2428031 0,-0.2251688 -0.03161,-0.2907914 -0.225829,-0.4687547 C 14.445886,4.2332168 14.275411,4.1619517 14.109146,4.1640736 Z M 8.3980873,5.1719967 c -0.80548,0.00502 -1.599756,0.1455813 -2.367411,0.4214767 -2.645394,0.9507556 -4.551172,3.3270707 -4.95562,6.1788076 -0.07387,0.520965 -0.0047,0.764118 0.263046,0.927954 0.183143,0.112065 0.391305,0.114983 7.191759,0.100081 l 7.0031527,-0.01501 0.176545,-0.197675 c 0.209412,-0.234386 0.225307,-0.467549 0.08349,-1.215144 C 15.246748,8.4925987 13.04528,6.105503 10.291211,5.4068756 9.6578403,5.2462086 9.0245723,5.1680959 8.3980873,5.1719967 Z m -3.497049,4.0759497 c 0.30074,0 0.532776,0.1456738 0.67748,0.425501 0.180204,0.3484926 0.04904,0.8205606 -0.284672,1.0240176 -0.550142,0.335411 -1.222394,-0.05136 -1.212627,-0.6975995 0.007,-0.4657294 0.318957,-0.7519191 0.819819,-0.7519191 z m 7.2013157,0 c 0.769262,0 1.043262,1.0489636 0.379731,1.4535426 -0.245523,0.149696 -0.563218,0.150701 -0.806237,0.0025 -0.273232,-0.166607 -0.385264,-0.357692 -0.385264,-0.65887 0,-0.4918146 0.311109,-0.7971852 0.81177,-0.7971852 z" class="ColorScheme-Text"/>
</svg>
