<?xml version="1.0" encoding="UTF-8" standalone="no"?>
<svg
   width="64"
   height="64"
   version="1.1"
   viewBox="0 0 16.933 16.933"
   id="svg7"
   sodipodi:docname="shelly.svg"
   inkscape:version="1.4.3 (0d15f75042, 2025-12-25)"
   xmlns:inkscape="http://www.inkscape.org/namespaces/inkscape"
   xmlns:sodipodi="http://sodipodi.sourceforge.net/DTD/sodipodi-0.dtd"
   xmlns="http://www.w3.org/2000/svg"
   xmlns:svg="http://www.w3.org/2000/svg"
   xmlns:rdf="http://www.w3.org/1999/02/22-rdf-syntax-ns#"
   xmlns:cc="http://creativecommons.org/ns#"
   xmlns:dc="http://purl.org/dc/elements/1.1/">
  <sodipodi:namedview
     id="namedview7"
     pagecolor="#9c4444"
     bordercolor="#000000"
     borderopacity="0.25"
     inkscape:showpageshadow="2"
     inkscape:pageopacity="0.0"
     inkscape:pagecheckerboard="0"
     inkscape:deskcolor="#d1d1d1"
     inkscape:zoom="4.3531262"
     inkscape:cx="89.935366"
     inkscape:cy="34.457995"
     inkscape:window-width="2560"
     inkscape:window-height="1388"
     inkscape:window-x="0"
     inkscape:window-y="0"
     inkscape:window-maximized="1"
     inkscape:current-layer="svg7"
     showgrid="false" />
  <defs
     id="defs2">
    <style
       id="current-color-scheme"
       type="text/css">.ColorScheme-Text {color:#d8dee9} .ColorScheme-Highlight {color:#3b4252}</style>
  </defs>
  <metadata
     id="metadata2">
    <rdf:RDF>
      <cc:Work
         rdf:about="">
        <dc:format>image/svg+xml</dc:format>
        <dc:type
           rdf:resource="http://purl.org/dc/dcmitype/StillImage" />
      </cc:Work>
    </rdf:RDF>
  </metadata>
  <path
     id="path5"
     style="fill:currentColor"
     d="m 8.5093867,1.4551919 c -0.40296,3.11e-4 -0.676162,0.177876 -0.84538,0.549297 -0.215666,0.473368 -0.222405,1.598786 -0.01685,2.796572 0.156296,0.910755 0.70311,3.45645 0.76342,3.554033 0.08272,0.133845 0.145935,-0.03863 0.389276,-1.062485 0.53181,-2.237579 0.729639,-3.504025 0.681921,-4.365138 -0.03693,-0.66642 -0.165363,-1.023022 -0.462409,-1.283831 -0.174054,-0.152821 -0.270798,-0.188637 -0.509978,-0.188448 z m -1.701993,0.383774 c -0.122168,-5.55e-4 -0.254743,0.0382 -0.426415,0.116118 -0.792057,0.359489 -0.66635,1.63269 0.386181,3.910754 0.369684,0.800133 1.170963,2.114072 1.212761,1.988677 0.01406,-0.04219 -0.03428,-0.331996 -0.10752,-0.643979 -0.215233,-0.916774 -0.484713,-2.300355 -0.56672,-2.910169 -0.07702,-0.572718 -0.05955,-1.910193 0.02751,-2.107201 0.03551,-0.08036 -0.0048,-0.138753 -0.161855,-0.234529 -0.130011,-0.07926 -0.241775,-0.119125 -0.363942,-0.119671 z m 3.3213393,3.55e-4 c -0.107894,0.0047 -0.2147153,0.03172 -0.3143093,0.08322 -0.175898,0.09096 -0.198707,0.128962 -0.163345,0.272928 0.1177,0.479189 0.106552,1.559241 -0.02442,2.358351 -0.111318,0.679212 -0.534022,2.705264 -0.669312,3.208316 -0.05685,0.211387 0.01274,0.17104 0.215615,-0.125174 0.589341,-0.8605 1.2561383,-2.215881 1.6527023,-3.359395 0.244469,-0.704938 0.305885,-1.612327 0.131479,-1.941679 -0.171989,-0.324783 -0.504733,-0.510779 -0.828415,-0.496567 z m -4.7205993,1.106384 c -0.233219,0.0091 -0.59851,0.221552 -0.75001,0.513762 -0.2330447,0.449495 0.06986,1.277413 0.778208,2.127261 0.890298,1.068142 2.117998,2.402347 2.166235,2.35411 0.01631,-0.01631 -0.138686,-0.306614 -0.344342,-0.645125 -0.910178,-1.498156 -1.642042,-3.360825 -1.642042,-4.179098 0,-0.124658 -0.08589,-0.175679 -0.208049,-0.17091 z m 5.9384043,0.0431 -0.05101,0.406814 c -0.110517,0.881481 -0.785568,2.541848 -1.5357813,3.777328 -0.24751,0.407606 -0.450029,0.752685 -0.450029,0.76686 0,0.108587 0.215084,-0.101466 0.9867153,-0.963561 1.736641,-1.940239 2.049544,-2.417303 2.049544,-3.125669 0,-0.366031 -0.01427,-0.404461 -0.230058,-0.620251 -0.19041,-0.190411 -0.276491,-0.231029 -0.499662,-0.235789 z m -6.9880508,1.72148 c -0.07841,0.0027 -0.1634502,0.04792 -0.268802,0.13079 -0.5490821,0.431908 -0.4415315,1.115758 0.2779721,1.766872 0.3923994,0.355101 1.0070434,0.73965 2.3345084,1.460587 0.772054,0.419297 0.979952,0.509638 0.979952,0.425842 0,-0.01908 -0.340587,-0.40289 -0.756772,-0.852831 -1.078475,-1.165948 -1.909739,-2.15124 -2.168183,-2.569954 -0.155919,-0.252608 -0.267992,-0.365862 -0.3986755,-0.361306 z m 8.2050528,0.0017 c -0.11963,0.0012 -0.223068,0.108362 -0.354199,0.326918 -0.247688,0.412823 -0.948357,1.251111 -2.046449,2.448334 -0.7663293,0.83551 -0.9285103,1.041737 -0.8191303,1.041737 0.0187,0 0.524881,-0.267298 1.1248423,-0.594116 1.367021,-0.744659 1.729479,-0.976279 2.149843,-1.373355 0.411268,-0.388482 0.572566,-0.690989 0.572566,-1.073603 0,-0.255221 -0.03027,-0.321764 -0.243011,-0.534509 -0.160797,-0.160798 -0.278906,-0.242425 -0.384462,-0.241406 z m -0.718371,2.761038 -0.56351,0.316029 c -0.30988,0.173806 -0.58888,0.339693 -0.620022,0.368643 -0.03261,0.03032 0.03383,0.13834 0.156582,0.254817 0.230929,0.219117 0.969517,0.663742 1.11934,0.673782 0.05084,0.0034 0.29737,-0.197368 0.547805,-0.446131 0.250436,-0.248764 0.455302,-0.483299 0.455302,-0.521098 0,-0.0378 -0.246534,-0.198632 -0.547806,-0.357409 z m -6.8255093,0.04138 c -0.0095,4.4e-5 -0.01731,0.0013 -0.02327,0.0038 -0.203892,0.08632 -0.9166493,0.464239 -0.9957712,0.527976 -0.063668,0.05129 0.026381,0.174766 0.4054382,0.556059 0.268011,0.269592 0.51367,0.490262 0.545972,0.490262 0.0323,0 0.272421,-0.11596 0.533592,-0.257682 0.261171,-0.141723 0.566062,-0.344133 0.67745,-0.449685 l 0.202547,-0.191906 -0.634579,-0.35867 c -0.365132,-0.206426 -0.619562,-0.32059 -0.71138,-0.320156 z m 5.1853003,0.890428 c -0.141131,0.0012 -1.2939483,0.622742 -1.2453153,0.671375 0.124722,0.124722 1.4013163,0.186268 1.6047883,0.07737 0.183561,-0.09826 0.264472,-0.288555 0.185468,-0.436177 -0.07572,-0.141493 -0.376609,-0.314068 -0.544941,-0.312591 z m -3.4931653,0.0015 c -0.06886,-0.0011 -0.218511,0.05485 -0.332535,0.124371 -0.175314,0.106886 -0.204374,0.157398 -0.187875,0.327033 0.0136,0.139787 0.06701,0.224467 0.176068,0.279348 0.166513,0.08379 0.856323,0.09916 1.301369,0.029 0.147616,-0.02329 0.272139,-0.07047 0.276826,-0.104904 0.01088,-0.0799 -1.067269,-0.652144 -1.233853,-0.654868 z m -0.864523,0.505948 -0.303305,0.153715 c -0.166848,0.08455 -0.302482,0.174438 -0.30147,0.199682 0.0028,0.06942 3.079811,1.7015141 3.211181,1.7032531 0.06284,8.43e-4 0.696682,-0.311605 1.408546,-0.6943 C 10.574087,9.8919339 11.28055,9.5080139 11.432165,9.4213399 l 0.275679,-0.157613 -0.244386,-0.147984 c -0.313145,-0.189552 -0.347469,-0.18646 -0.477654,0.0423 -0.05947,0.104507 -0.206506,0.231082 -0.326689,0.281297 -0.27193,0.11362 -1.0427193,0.115735 -1.6176263,0.0045 -0.37873,-0.0733 -0.430872,-0.07131 -0.481551,0.018 -0.05175,0.0912 -0.06415,0.09074 -0.1387,-0.0047 -0.0745,-0.09537 -0.121301,-0.09692 -0.520066,-0.01788 -0.241017,0.04777 -0.663581,0.08785 -0.93903,0.08907 -0.598654,0.0026 -0.895441,-0.117677 -1.02695,-0.416328 z M 4.9154637,9.3871809 4.405026,9.9000259 C 3.9271401,10.380133 3.9026511,10.417532 4.0198768,10.487264 c 0.4246332,0.252591 3.1414249,1.722674 3.1941019,1.728356 0.03524,0.0038 0.288868,-0.219355 0.56351,-0.495879 0.403333,-0.406098 0.481285,-0.514124 0.405438,-0.56202 -0.05165,-0.03261 -0.807955,-0.44438 -1.680672,-0.914958 z m 7.0881203,0.03175 c -0.05952,-0.023 -3.3198483,1.7392091 -3.3198483,1.7943831 0,0.023 0.222655,0.263224 0.494847,0.533821 l 0.494963,0.491982 0.5319883,-0.290008 c 0.563943,-0.307406 0.669196,-0.340009 0.669196,-0.207247 0,0.07417 -1.1099033,0.731096 -1.2352283,0.731096 -0.02816,0 -0.261034,-0.211282 -0.517544,-0.469516 -0.25651,-0.258233 -0.488223,-0.469515 -0.514908,-0.469515 -0.02669,0 -0.04849,0.887361 -0.04849,1.971941 0,1.08458 0.0117,1.971941 0.02602,1.971941 0.01432,0 0.753807,-0.392532 1.6433033,-0.872317 l 1.617283,-0.872317 0.01696,-1.193504 c 0.01239,-0.869699 -0.0026,-1.193618 -0.05525,-1.193618 -0.03972,0 -0.166532,0.05836 -0.281869,0.129643 -0.196354,0.121354 -0.337235,0.120261 -0.337235,-0.0026 0,-0.02941 0.394408,-0.268635 0.876443,-0.531643 0.482036,-0.263009 0.876444,-0.493885 0.876444,-0.512959 0,-0.04337 -0.87432,-0.9852741 -0.937082,-1.0095271 z M 5.0628747,11.346053 c 0.0013,0.102715 -0.002,2.092865 0.0013,2.376912 1.007827,0.64267 2.237777,1.175046 3.303385,1.751712 -0.0078,-0.914195 -0.0063,-1.513206 -0.0024,-2.266153 0.003,-0.921032 -0.0163,-1.674597 -0.04299,-1.674597 -0.02669,0 -0.258397,0.211282 -0.514907,0.469515 -0.25651,0.258234 -0.491191,0.469516 -0.521557,0.469516 -0.03037,0 -0.526609,-0.253516 -1.102719,-0.563396 -0.576101,-0.30988 -1.120651,-0.603475 -1.120133,-0.563509 z"
     class="ColorScheme-Text" />
</svg>
