<?xml version='1.0' encoding='UTF-8'?>
<svg xmlns:inkscape="http://www.inkscape.org/namespaces/inkscape" xmlns:sodipodi="http://sodipodi.sourceforge.net/DTD/sodipodi-0.dtd" xmlns="http://www.w3.org/2000/svg" xmlns:svg="http://www.w3.org/2000/svg" xmlns:rdf="http://www.w3.org/1999/02/22-rdf-syntax-ns#" xmlns:cc="http://creativecommons.org/ns#" xmlns:dc="http://purl.org/dc/elements/1.1/" width="64" height="64" version="1.1" viewBox="0 0 16.933 16.933" id="svg7" sodipodi:docname="signal-desktop.svg" inkscape:version="1.4 (e7c3feb100, 2024-10-09)">
  <sodipodi:namedview id="namedview7" pagecolor="#9c4444" bordercolor="#000000" borderopacity="0.25" inkscape:showpageshadow="2" inkscape:pageopacity="0.0" inkscape:pagecheckerboard="0" inkscape:deskcolor="#d1d1d1" inkscape:zoom="6.15625" inkscape:cx="15.837563" inkscape:cy="29.725888" inkscape:window-width="1183" inkscape:window-height="941" inkscape:window-x="35" inkscape:window-y="32" inkscape:window-maximized="0" inkscape:current-layer="svg7" showgrid="false"/>
  <defs id="defs2">
    <style id="current-color-scheme" type="text/css">.ColorScheme-Text {color:#d8dee9} .ColorScheme-Highlight {color:#3b4252}</style></defs>
  <metadata id="metadata2">
    <rdf:RDF>
      <cc:Work rdf:about="">
        <dc:format>image/svg+xml</dc:format>
        <dc:type rdf:resource="http://purl.org/dc/dcmitype/StillImage"/>
      </cc:Work>
    </rdf:RDF>
  </metadata>
  <path style="fill:currentColor;fill-opacity:1;stroke-width:0.15967" d="M 3.2181906,15.125007 C 2.3372687,14.877959 1.7711628,14.152925 1.7711628,13.271741 c 0,-0.251205 0.045866,-0.479038 0.2504994,-1.244356 l 0.2504994,-0.93685 -0.148621,-0.4414 C 1.8411432,9.8104214 1.7935826,9.493763 1.7944856,8.4582871 1.7953562,7.4337948 1.8377084,7.1495428 2.1109932,6.332843 2.7719082,4.3577267 4.3560029,2.7720817 6.3259399,2.1137704 7.1498389,1.8384411 7.4315877,1.7963644 8.4573032,1.7954695 c 1.0104911,-8.709e-4 1.3212977,0.043173 2.1022178,0.2979711 2.974032,0.9703667 4.919562,3.9663295 4.581403,7.0549923 -0.188385,1.7206221 -1.006433,3.2960421 -2.275681,4.3825611 -1.870517,1.601219 -4.354024,2.067027 -6.6666548,1.250398 L 5.8559004,14.660381 4.9411946,14.90777 c -1.0110609,0.273448 -1.3639222,0.317937 -1.723004,0.217237 z m 0.6538288,-0.709069 c -0.013243,-0.0494 -0.024314,-0.211062 -0.024615,-0.359256 -5.079e-4,-0.26205 -0.00334,-0.269441 -0.1023207,-0.269441 -0.1986853,0 -0.4948178,-0.229818 -0.5557622,-0.431307 -0.015295,-0.05062 -0.048762,-0.08371 -0.074343,-0.07361 -0.025582,0.01007 -0.176738,0.06015 -0.3359092,0.11115 -0.1591706,0.05101 -0.2894,0.107141 -0.2894,0.124792 0,0.01767 0.045522,0.121923 0.1011617,0.23171 0.2203392,0.434819 0.6911503,0.737058 1.170868,0.751642 0.1206177,0.0036 0.1319189,-0.0051 0.1103159,-0.08573 z m 5.5233399,0.003 c 0.1646578,-0.02402 0.3151129,-0.05789 0.3343416,-0.07526 0.033919,-0.03067 -0.079017,-0.589135 -0.1298764,-0.642259 -0.013642,-0.01444 -0.1865021,-0.0012 -0.3840931,0.02909 -0.1975903,0.03025 -0.4696012,0.05542 -0.6044672,0.0559 -0.2907247,10e-4 -0.2936706,0.0053 -0.2936706,0.428007 v 0.30086 l 0.3891931,-0.02633 c 0.2140559,-0.01444 0.5239136,-0.04596 0.6885726,-0.07 z m -1.7373454,-0.08279 c 0.0416,-0.181944 0.091888,-0.569588 0.077075,-0.594151 -0.0084,-0.01406 -0.095935,-0.03743 -0.1945186,-0.05221 -0.098585,-0.01463 -0.3634837,-0.08808 -0.5886646,-0.162887 -0.225181,-0.0748 -0.4213659,-0.123177 -0.4359678,-0.107464 -0.014611,0.01577 -0.080589,0.156788 -0.1466382,0.313536 l -0.1200914,0.284986 0.146034,0.06164 c 0.2751103,0.11609 1.0248826,0.33167 1.1931003,0.343055 0.02702,0.0021 0.058376,-0.03707 0.069671,-0.08649 z m -1.941686,-0.306875 c 0.1027748,-0.0281 0.166022,-0.06656 0.1558323,-0.09475 -0.00944,-0.02609 -0.049907,-0.173204 -0.089946,-0.326882 -0.040037,-0.153672 -0.076758,-0.284939 -0.081607,-0.291682 -0.00731,-0.01026 -1.1302416,0.279773 -1.2824715,0.331157 -0.041593,0.01406 0.013167,0.291999 0.1272677,0.646003 0.014079,0.04366 0.1960836,0.0025 1.1709233,-0.263851 z m 5.2158471,-0.06882 c 0.175636,-0.07701 0.423105,-0.202958 0.549927,-0.279895 l 0.230594,-0.139878 -0.08852,-0.146129 c -0.215692,-0.356086 -0.275343,-0.445529 -0.297149,-0.445529 -0.01282,0 -0.07096,0.03367 -0.129225,0.07482 -0.144835,0.102277 -0.631798,0.34254 -0.813929,0.40158 -0.08202,0.02658 -0.159469,0.06506 -0.172102,0.0855 -0.01263,0.02043 0.02742,0.172653 0.08901,0.338272 0.129922,0.349365 0.100282,0.344142 0.631398,0.111264 z M 5.3575454,12.844716 6.0499259,12.659998 6.395394,12.822106 c 0.7090633,0.33273 1.2872599,0.460471 2.0818685,0.459944 0.571806,-4.25e-4 0.838441,-0.0383 1.3874129,-0.197389 C 11.208343,12.695216 12.401717,11.617396 12.93077,10.315387 13.76255,8.268365 13.109338,5.9069388 11.347806,4.5928042 10.161268,3.7076267 8.5646681,3.4201033 7.1245452,3.8322589 6.6597203,3.9652895 5.9724625,4.3071823 5.5785933,4.6013287 3.7369962,5.9766578 3.119444,8.5148214 4.124886,10.576116 l 0.1522223,0.312078 -0.3149174,1.176678 c -0.173204,0.647171 -0.3149174,1.190339 -0.3149174,1.207038 0,0.01672 0.2290256,-0.03105 0.508945,-0.106115 0.2799196,-0.07503 0.8205163,-0.219575 1.2013261,-0.321167 z m 7.4147076,-0.182362 c 0.221685,-0.227863 0.422676,-0.450952 0.446652,-0.495752 0.03897,-0.07283 0.01387,-0.103721 -0.237228,-0.291612 l -0.280824,-0.210151 -0.06234,0.09325 c -0.0343,0.0513 -0.228828,0.261519 -0.432312,0.467194 l -0.369968,0.373953 0.203765,0.272285 c 0.157168,0.210009 0.218109,0.264607 0.266483,0.238712 0.03448,-0.01843 0.244091,-0.22001 0.465775,-0.447874 z M 3.3620949,12.240447 c 0.091641,-0.345784 0.1663507,-0.647865 0.1660239,-0.671294 -3.593e-4,-0.02345 -0.1308264,-0.07452 -0.2899959,-0.113544 -0.1591706,-0.03903 -0.3073888,-0.07824 -0.3293754,-0.08715 -0.038771,-0.01571 -0.4088124,1.284761 -0.3751495,1.318423 0.013794,0.01387 0.5592659,0.166459 0.6382947,0.178638 0.012977,0.0019 0.098562,-0.279283 0.190203,-0.625066 z M 13.836295,11.192328 c 0.145559,-0.29056 0.389052,-0.890328 0.389052,-0.9583 0,-0.03221 -0.308967,-0.135064 -0.551285,-0.183527 -0.110162,-0.02203 -0.118503,-0.01279 -0.20756,0.230264 -0.05103,0.139272 -0.162963,0.394688 -0.248735,0.567593 -0.101175,0.203973 -0.142291,0.328029 -0.117078,0.353253 0.08843,0.08843 0.470425,0.30445 0.525901,0.297409 0.03293,-0.0044 0.1273,-0.142188 0.209707,-0.306692 z M 3.3791406,10.839861 C 3.5267858,10.777574 3.6578229,10.71638 3.670333,10.703859 3.682854,10.691395 3.664044,10.624992 3.6285805,10.556391 3.5931058,10.487792 3.4945819,10.224264 3.4096367,9.9707715 3.3246904,9.7172792 3.2474614,9.5021486 3.2380163,9.4927039 3.2153873,9.4700749 2.6384955,9.5976998 2.5980243,9.6342881 c -0.065288,0.059025 0.3826209,1.3188259 0.4688946,1.3188259 0.024079,0 0.1645761,-0.05096 0.3122217,-0.113253 z M 14.402569,9.4880066 c 0.04343,-0.1131602 0.114874,-1.1534443 0.08689,-1.26498 -0.02407,-0.095904 -0.04283,-0.1040364 -0.239905,-0.1040364 -0.117591,0 -0.269929,0.011229 -0.338538,0.024953 l -0.124735,0.024951 v 0.3366401 c 0,0.1851512 -0.01957,0.4627238 -0.04347,0.6168254 -0.0239,0.1541014 -0.03236,0.2912939 -0.01881,0.3048709 0.01349,0.013585 0.154394,0.046174 0.312914,0.072436 0.158536,0.026262 0.299781,0.049685 0.313898,0.052052 0.01425,0.00236 0.03741,-0.026304 0.05176,-0.063705 z M 3.0697354,8.8967627 c 0.075238,-0.015295 0.081436,-0.048157 0.085772,-0.4548435 0.00255,-0.2410958 0.016834,-0.5267351 0.031686,-0.6347554 L 3.2142076,7.6107623 2.8903251,7.5603785 C 2.7121896,7.5326675 2.5558694,7.5205674 2.5429477,7.533491 2.4883398,7.5880991 2.4531237,7.9339196 2.451498,8.4315281 l -0.00174,0.5320811 0.2694417,-0.025179 c 0.1481924,-0.013851 0.3059348,-0.0326 0.3505378,-0.041669 z M 14.118743,7.4982367 c 0.155192,-0.01862 0.240673,-0.048703 0.256652,-0.090341 0.0574,-0.1495794 -0.336049,-1.3536873 -0.435977,-1.3342809 -0.02936,0.0057 -0.175104,0.06779 -0.323914,0.137978 -0.204942,0.096666 -0.264159,0.1425532 -0.244203,0.1892229 0.05953,0.1391864 0.294009,0.8928269 0.318635,1.0240854 0.02223,0.1186075 0.0402,0.138149 0.111321,0.121315 0.04663,-0.011039 0.189506,-0.032631 0.31749,-0.047979 z M 3.4481161,6.7218868 C 3.4990836,6.5791835 3.589345,6.3636291 3.6486989,6.2428793 3.8386001,5.85654 3.8414805,5.8726761 3.5497545,5.6884333 3.4068764,5.5981985 3.2717987,5.5243683 3.2495822,5.5243683 c -0.082992,0 -0.5603221,1.0830559 -0.5603221,1.2713597 0,0.051773 0.075185,0.087964 0.3093585,0.1489106 0.1701469,0.044285 0.3200404,0.070661 0.3330947,0.058611 0.013053,-0.012046 0.065436,-0.1386601 0.1164028,-0.2813628 z M 13.396301,5.6241616 C 13.544083,5.5363436 13.66532,5.4525251 13.66574,5.4378989 13.6684,5.346032 12.924525,4.367053 12.826451,4.3333221 c -0.03521,-0.012122 -0.482209,0.3657757 -0.507566,0.4291004 -0.0057,0.014269 0.08079,0.1331748 0.192215,0.2642197 0.111416,0.1310449 0.284208,0.360362 0.383945,0.5095924 0.09975,0.1492298 0.192871,0.2659884 0.206957,0.2594617 0.01425,-0.00654 0.146528,-0.083716 0.294299,-0.1715347 z M 4.6909767,4.7459822 5.0379046,4.386727 4.7977347,4.1320291 4.5575646,3.8773313 4.2195634,4.2118639 c -0.3937699,0.3897284 -0.638351,0.703634 -0.587609,0.7541613 0.019403,0.019319 0.1430548,0.1167056 0.2747818,0.2164105 L 4.1462393,5.3637185 4.2451419,5.2344786 C 4.2995406,5.1633953 4.5001658,4.9435729 4.6909767,4.7459822 Z M 12.110614,4.0948596 C 12.229497,3.9520613 12.30499,3.8283945 12.284901,3.8094036 12.09588,3.6307713 11.128344,3.0175353 11.094459,3.0548883 c -0.02013,0.022174 -0.301996,0.5890865 -0.301996,0.60737 0,0.0088 0.157175,0.1078497 0.349277,0.2201192 0.192102,0.1122691 0.430109,0.266706 0.528901,0.3431935 0.09878,0.076486 0.191018,0.1350539 0.204932,0.1301519 0.01387,-0.0049 0.119681,-0.1222916 0.235041,-0.2608633 z M 5.7321756,3.9159966 C 5.8478628,3.8437073 6.0952001,3.7150165 6.2818129,3.6300147 6.4684252,3.5450144 6.6260449,3.4719879 6.6320774,3.4677338 6.6381194,3.4634778 6.5905738,3.3182399 6.5264412,3.144977 6.4335509,2.8940277 6.394785,2.832109 6.3358444,2.8405484 6.2412779,2.8540916 5.332466,3.3070609 5.215243,3.3990805 l -0.088599,0.069551 0.1684331,0.2887938 c 0.092638,0.1588362 0.1815545,0.2890662 0.1975947,0.2893996 0.016036,3.591e-4 0.1238173,-0.058539 0.2395038,-0.1308283 z M 10.359122,3.1280674 c 0.0627,-0.1632461 0.114001,-0.3069703 0.114001,-0.3193834 0,-0.056246 -0.6296438,-0.2243708 -1.1077028,-0.2957741 L 9.0361027,2.4637227 9.0357436,2.60692 c -1.909e-4,0.078759 -0.011533,0.2362475 -0.025188,0.3499743 l -0.024841,0.2067755 0.1549184,0.024637 c 0.2894722,0.046035 0.913091,0.1893369 0.973223,0.2236361 0.09938,0.056687 0.12651,0.025279 0.245252,-0.2838775 z M 7.4439449,3.2470967 C 7.5622028,3.2240478 7.844334,3.1898592 8.0709035,3.1711252 8.2974731,3.1523912 8.4873067,3.1308281 8.492755,3.1232167 8.498208,3.1155977 8.494997,2.9611866 8.485744,2.7800604 L 8.468815,2.4507408 8.2235582,2.450512 C 7.9680333,2.4502722 7.1602103,2.5609324 7.0869507,2.6062094 c -0.028447,0.017575 -0.015352,0.1325478 0.040364,0.3544072 0.045359,0.1806121 0.086777,0.328385 0.092042,0.328385 0.00528,0 0.1063278,-0.018867 0.2245882,-0.041905 z" id="path6" class="ColorScheme-Text"/>
  </svg>
