<?xml version="1.0" encoding="UTF-8" standalone="no"?>
<svg
   width="64"
   height="64"
   version="1.1"
   viewBox="0 0 16.933 16.933"
   id="svg7"
   sodipodi:docname="skanlite.svg"
   inkscape:version="1.4.3 (0d15f75042, 2025-12-25)"
   xmlns:inkscape="http://www.inkscape.org/namespaces/inkscape"
   xmlns:sodipodi="http://sodipodi.sourceforge.net/DTD/sodipodi-0.dtd"
   xmlns="http://www.w3.org/2000/svg"
   xmlns:svg="http://www.w3.org/2000/svg"
   xmlns:rdf="http://www.w3.org/1999/02/22-rdf-syntax-ns#"
   xmlns:cc="http://creativecommons.org/ns#"
   xmlns:dc="http://purl.org/dc/elements/1.1/">
  <sodipodi:namedview
     id="namedview7"
     pagecolor="#9c4444"
     bordercolor="#000000"
     borderopacity="0.25"
     inkscape:showpageshadow="2"
     inkscape:pageopacity="0.0"
     inkscape:pagecheckerboard="0"
     inkscape:deskcolor="#d1d1d1"
     inkscape:zoom="6.15625"
     inkscape:cx="15.837563"
     inkscape:cy="29.563452"
     inkscape:window-width="2560"
     inkscape:window-height="1388"
     inkscape:window-x="0"
     inkscape:window-y="0"
     inkscape:window-maximized="1"
     inkscape:current-layer="svg7"
     showgrid="false" />
  <defs
     id="defs2">
    <style
       id="current-color-scheme"
       type="text/css">.ColorScheme-Text {color:#d8dee9} .ColorScheme-Highlight {color:#3b4252}</style>
  </defs>
  <metadata
     id="metadata2">
    <rdf:RDF>
      <cc:Work
         rdf:about="">
        <dc:format>image/svg+xml</dc:format>
        <dc:type
           rdf:resource="http://purl.org/dc/dcmitype/StillImage" />
      </cc:Work>
    </rdf:RDF>
  </metadata>
  <path
     style="fill:currentColor;fill-opacity:1;stroke:none;stroke-width:0.453702;stroke-dasharray:none;stroke-opacity:0.3"
     d="M 3.5663961,15.438155 C 2.8162935,15.350795 2.187166,14.802639 1.9709094,14.048021 c -0.045825,-0.159893 -0.051268,-0.442452 -0.060269,-3.1273 l -0.0099,-2.9515242 h 6.5650464 6.5650452 l -0.0094,2.9515242 c -0.01105,3.291887 0.0026,3.075155 -0.219689,3.522786 -0.150755,0.303732 -0.494873,0.647862 -0.798606,0.798609 -0.296654,0.147247 -0.502229,0.194456 -0.94379,0.216805 l -0.372997,0.0189 -0.0079,-1.54981 -0.0079,-1.549816 -0.06775,-0.137562 C 12.51626,12.065059 12.339085,11.887871 12.163535,11.8014 l -0.137562,-0.06774 -3.5141704,-0.0077 c -4.0379263,-0.0087 -3.6871734,-0.03246 -3.9878671,0.268757 -0.2860871,0.286567 -0.2760023,0.214562 -0.2760023,1.970619 v 1.503503 l -0.2416879,-0.004 c -0.1329316,-0.0024 -0.3305461,-0.01435 -0.4391524,-0.02683 z m 7.9829569,-5.199396 c 0.141984,-0.09647 0.197564,-0.209247 0.197431,-0.4005164 -2.02e-4,-0.2878812 -0.17723,-0.4626414 -0.46862,-0.4626414 -0.291396,0 -0.468413,0.1747589 -0.468616,0.4626414 -1.97e-4,0.2949724 0.177154,0.4745954 0.468616,0.4745954 0.125203,0 0.187026,-0.01691 0.271192,-0.07408 z m 1.860331,0.01564 c 0.142964,-0.08716 0.211906,-0.220668 0.211906,-0.4102963 0,-0.2940339 -0.174474,-0.4685112 -0.46851,-0.4685112 -0.294032,0 -0.468507,0.1744786 -0.468507,0.4685112 0,0.2940303 0.174477,0.4685073 0.468507,0.4685073 0.109231,0 0.191885,-0.01879 0.256609,-0.05822 z m -8.6937198,4.511356 v -0.703094 h 3.7498275 3.7498293 v 0.703094 0.703094 H 8.4657917 4.7159642 Z M 1.9113752,6.6582183 C 1.9283421,5.7203018 1.9437751,5.6205876 2.1303296,5.2447081 2.2809911,4.941144 2.6251411,4.5969311 2.9289369,4.4459596 3.2888548,4.2670939 3.4525784,4.2373274 4.0861108,4.2355653 4.6011877,4.2339853 4.6514703,4.2387553 4.7599069,4.2969173 5.0166389,4.4347282 5.135463,4.6160644 5.169814,4.9224606 5.196454,5.1600598 5.249197,5.2904787 5.3692739,5.41566 5.5727986,5.6278335 5.1851908,5.6092508 9.7547953,5.6258961 l 4.1160197,0.014991 0.17343,0.065712 c 0.246234,0.093292 0.398543,0.1888513 0.557792,0.3499711 0.28315,0.2864706 0.387528,0.5581563 0.415503,1.0815385 l 0.0193,0.3623556 H 8.4665438 1.8961599 Z M 5.9957047,5.1136805 C 5.7886328,5.0411245 5.6827154,4.8941044 5.6827154,4.6792335 c 0,-0.150707 0.086747,-0.2988279 0.2198173,-0.3753531 C 5.9508157,4.2761204 7.0515493,3.8818041 8.3486103,3.4276375 9.6456692,2.9734685 11.457861,2.3389387 12.3757,2.0175696 14.199531,1.3789813 14.167865,1.386535 14.356264,1.5450611 c 0.233501,0.1964785 0.234673,0.5429236 0.0024,0.7083169 -0.04648,0.033009 -0.616825,0.2463252 -1.267571,0.4740253 -0.650766,0.2277011 -1.68415,0.589293 -2.296429,0.8035386 -3.7693153,1.318942 -4.5483424,1.5899387 -4.6140391,1.6050573 -0.040287,0.00928 -0.1235496,-9.375e-4 -0.1850358,-0.022323 z"
     id="path1-3"
     class="ColorScheme-Text" />
</svg>
