<?xml version="1.0" encoding="UTF-8" standalone="no"?>
<!-- Created with Inkscape (http://www.inkscape.org/) -->

<svg
   width="64"
   height="64"
   viewBox="0 0 16.933333 16.933333"
   version="1.1"
   id="svg896"
   inkscape:version="1.4.3 (0d15f75042, 2025-12-25)"
   sodipodi:docname="solus.svg"
   xmlns:inkscape="http://www.inkscape.org/namespaces/inkscape"
   xmlns:sodipodi="http://sodipodi.sourceforge.net/DTD/sodipodi-0.dtd"
   xmlns="http://www.w3.org/2000/svg"
   xmlns:svg="http://www.w3.org/2000/svg"
   xmlns:rdf="http://www.w3.org/1999/02/22-rdf-syntax-ns#"
   xmlns:cc="http://creativecommons.org/ns#"
   xmlns:dc="http://purl.org/dc/elements/1.1/">
  <defs
     id="defs890">
    <style
       id="current-color-scheme"
       type="text/css">.ColorScheme-Text {color:#d8dee9} .ColorScheme-Highlight {color:#7f7fff}</style>
  </defs>
  <sodipodi:namedview
     id="base"
     pagecolor="#7f3232"
     bordercolor="#666666"
     borderopacity="1.0"
     inkscape:pageopacity="0.0"
     inkscape:pageshadow="2"
     inkscape:zoom="9.861792"
     inkscape:cx="31.282347"
     inkscape:cy="17.542451"
     inkscape:document-units="px"
     inkscape:current-layer="svg896"
     showgrid="false"
     inkscape:window-width="2560"
     inkscape:window-height="1388"
     inkscape:window-x="0"
     inkscape:window-y="0"
     inkscape:window-maximized="1"
     inkscape:showpageshadow="0"
     inkscape:pagecheckerboard="0"
     inkscape:deskcolor="#505050" />
  <metadata
     id="metadata893">
    <rdf:RDF>
      <cc:Work
         rdf:about="">
        <dc:format>image/svg+xml</dc:format>
        <dc:type
           rdf:resource="http://purl.org/dc/dcmitype/StillImage" />
      </cc:Work>
    </rdf:RDF>
  </metadata>
  <path
     d="m 5.8094435,1.4552333 c -0.105167,0.34223 -0.214716,0.68227 -0.330838,1.02231 -2.444257,1.0933 -4.021325,3.52134 -4.023516,6.20091 0.0022,0.6757 0.102538,1.3443897 0.301479,1.9876597 l -0.198503,0.349243 -0.102538,0.214716 0.162133,0.08238 c 0.139346,0.05916 0.285265,0.105167 0.433814,0.130145 0.159941,0.362826 0.351433,0.707686 0.572722,1.036333 2.357495,0.200694 4.995873,0.29885 7.271425,-0.03199 1.8645245,-0.271682 3.4713895,-0.83082 4.5191155,-1.821137 0.148549,-0.13716 0.278255,-0.27607 0.394815,-0.42242 0.01139,-0.0228 0.0206,-0.0298 0.03418,-0.0434 0.007,0 0.01578,-0.0228 0.02279,-0.032 0.0092,0 0.0184,-0.0206 0.02279,-0.032 0.007,0 0.0092,-0.0228 0.01358,-0.0228 0.194121,-0.2602897 0.344422,-0.5205797 0.467994,-0.7646497 l 0.107358,-0.21472 -0.214716,-0.21208 c -0.06617,-0.0705 -0.137155,-0.13935 -0.209895,-0.20552 0,-3.75446 -3.044588,-6.79905 -6.7990515,-6.79905 -0.636699,0.002 -1.266825,0.0938 -1.875917,0.26949 -0.271682,-0.39481 -0.483769,-0.66868 -0.56834,-0.69147 z m 0.212087,0.95614 c 0.725653,1.27559 1.350959,1.99949 2.124813,3.40041 0.07756,0.88997 0.392623,5.5208267 0.424612,5.9476297 -0.2283,-0.0206 -1.451744,-0.139346 -2.98061,-0.301479 -0.835201,-0.08457 -1.693628,-0.182727 -2.391674,-0.285265 L 2.0895975,10.91238 c 1.255432,-2.2137667 3.243089,-5.6829667 3.934562,-8.5014367 z m 2.654154,3.61074 c 0,0 2.9166335,2.29352 4.1444585,5.1010397 -1.494687,0.737045 -2.8732525,0.641519 -3.7154645,0.636699 0.595508,-1.538069 0.595508,-3.6286987 -0.426803,-5.7377387 z m 2.0200835,1.27559 c 0.572722,0.15731 1.138872,0.33566 1.700201,0.52934 1.033705,0.36765 1.996859,0.87201 2.551616,1.38295 -0.383421,0.72346 -0.976739,1.3167697 -1.700202,1.7001957 0.08676,-0.874196 -0.2283,-1.7137857 -0.851415,-2.3395257 -0.460982,-0.45879 -1.065693,-0.84923 -1.700201,-1.27559 z m 3.91835,3.7864497 c -1.373745,0.972357 -2.994194,1.565675 -4.6536435,1.816761 -0.719079,0.100347 -1.444732,0.166515 -2.170385,0.198503 h -0.1893 c -0.725653,0.02498 -1.451744,0.02498 -2.177397,0 -0.814606,-0.02498 -1.62746,-0.06836 -2.439875,-0.134526 h -0.0022 c 1.492496,1.903523 4.085302,2.859667 6.479167,2.398685 0.9447515,-0.168706 1.8417385,-0.536352 2.6291765,-1.084097 0.0022,0 0.0022,0 0.0044,0 0.182727,-0.123133 0.358444,-0.258098 0.527149,-0.399197 0.007,-0.007 0.01358,-0.01358 0.02279,-0.0206 0.883403,-0.744057 1.563483,-1.702392 1.971882,-2.782107 z m -11.6919485,1.81457 c 0.0044,0.007 0.0092,0.01358 0.01358,0.0206 -0.0044,0 -0.0092,-0.0206 -0.01358,-0.0206 z"
     id="path5"
     style="fill:currentColor"
     class="ColorScheme-Text" />
</svg>
