<?xml version="1.0" encoding="UTF-8" standalone="no"?>
<svg
   width="64"
   height="64"
   version="1.1"
   viewBox="0 0 16.933 16.933"
   id="svg7"
   sodipodi:docname="songrec.svg"
   inkscape:version="1.4.3 (0d15f75042, 2025-12-25)"
   xmlns:inkscape="http://www.inkscape.org/namespaces/inkscape"
   xmlns:sodipodi="http://sodipodi.sourceforge.net/DTD/sodipodi-0.dtd"
   xmlns="http://www.w3.org/2000/svg"
   xmlns:svg="http://www.w3.org/2000/svg"
   xmlns:rdf="http://www.w3.org/1999/02/22-rdf-syntax-ns#"
   xmlns:cc="http://creativecommons.org/ns#"
   xmlns:dc="http://purl.org/dc/elements/1.1/">
  <sodipodi:namedview
     id="namedview7"
     pagecolor="#9c4444"
     bordercolor="#000000"
     borderopacity="0.25"
     inkscape:showpageshadow="2"
     inkscape:pageopacity="0.0"
     inkscape:pagecheckerboard="0"
     inkscape:deskcolor="#d1d1d1"
     inkscape:zoom="6.15625"
     inkscape:cx="15.837563"
     inkscape:cy="29.725888"
     inkscape:window-width="2560"
     inkscape:window-height="1388"
     inkscape:window-x="0"
     inkscape:window-y="0"
     inkscape:window-maximized="1"
     inkscape:current-layer="svg7"
     showgrid="false" />
  <defs
     id="defs2">
    <style
       id="current-color-scheme"
       type="text/css">.ColorScheme-Text {color:#d8dee9} .ColorScheme-Highlight {color:#3b4252}</style>
  </defs>
  <metadata
     id="metadata2">
    <rdf:RDF>
      <cc:Work
         rdf:about="">
        <dc:format>image/svg+xml</dc:format>
        <dc:type
           rdf:resource="http://purl.org/dc/dcmitype/StillImage" />
      </cc:Work>
    </rdf:RDF>
  </metadata>
  <path
     id="path5"
     style="fill:currentColor"
     d="m 11.636377,1.4551797 -0.06131,1.496623 v 1.058482 0.844985 3.3790836 2.2310017 C 11.112615,10.117778 10.51331,9.9248268 9.8915275,9.9238952 c -1.39487,0 -2.525525,0.9457808 -2.525525,2.1122488 0,1.166465 1.130655,2.112248 2.525525,2.112248 1.3948685,0 2.5255235,-0.945783 2.5255235,-2.112248 V 8.2343533 4.2224957 c 1.240876,0.212862 2.677923,1.880467 3.367508,2.5285253 V 6.1225337 5.6998267 l -0.09817,-0.673073 -0.06388,-0.941016 -0.659354,-0.728805 c -1.166986,-0.989439 -1.667281,-1.901753 -3.32678,-1.901753 z m -3.6135885,0.22593 c -3.810227,0 -6.874347,3.074768 -6.874347,6.8983546 -2e-6,3.8235867 3.06412,6.8983557 6.874347,6.8983557 3.8102265,-10e-7 6.8739185,-3.074769 6.8739185,-6.8983557 0,-1.1050493 -0.255776,-2.1474806 -0.711657,-3.0712706 -0.0072,-0.0063 -0.01425,-0.01259 -0.02143,-0.01886 -0.294303,-0.257012 -0.603217,-0.498461 -0.908006,-0.685505 -0.211445,-0.129761 -0.420913,-0.2325 -0.619484,-0.298811 v 3.7293385 3.8017908 c 0,1.309098 -1.250999,2.332177 -2.7445945,2.332177 -1.493596,0 -2.745023,-1.023079 -2.745023,-2.332177 0,-0.385431 0.108786,-0.746107 0.300095,-1.063198 -1.07679,-0.260066 -1.876887,-1.2330955 -1.876887,-2.3934818 0,-1.3594857 1.098386,-2.4616465 2.453072,-2.4616465 1.354736,0 2.4526445,1.1021596 2.4526445,2.4616465 0,0.4111819 -0.100165,0.7987919 -0.277804,1.1395079 0.411021,0.03998 0.807661,0.158881 1.158372,0.3472549 V 8.2343562 4.8548437 4.0102877 2.9475187 l 0.01629,-0.399557 C 10.382465,1.9954597 9.2409165,1.6811127 8.0227925,1.6811127 Z m 0,4.656636 c -1.236264,0 -2.234002,1.0010707 -2.234002,2.2417186 0,1.0881673 0.76743,1.9918187 1.790289,2.1975627 0.213495,-0.282292 0.496461,-0.521617 0.82655,-0.702226 -0.12243,0.0316 -0.250735,0.04844 -0.382837,0.04844 -0.848041,0 -1.538637,-0.6927657 -1.538637,-1.5437801 0,-0.8510157 0.690644,-1.5437803 1.538637,-1.5437803 0.848032,0 1.538208,0.6927773 1.538208,1.5437803 10e-7,0.5420129 -0.279822,1.0200268 -0.702226,1.2955586 0.211615,-0.07307 0.435493,-0.1243257 0.667928,-0.1504779 0.118959,-0.013379 0.241056,-0.020577 0.364833,-0.020577 0.02163,3.28e-5 0.04314,3.506e-4 0.06473,8.273e-4 0.1908985,-0.3304636 0.3000965,-0.7148517 0.3000965,-1.1253614 0,-1.2406541 -0.9972555,-2.2417188 -2.2335735,-2.2417188 z m 0,0.917866 c -0.72757,0 -1.319567,0.5937304 -1.319567,1.3238526 0,0.730121 0.591997,1.3238541 1.319567,1.3238541 0.72757,0 1.319137,-0.5937331 1.319137,-1.3238541 0,-0.7301183 -0.591521,-1.3238526 -1.319137,-1.3238526 z m 0,0.1243254 c 0.660602,0 1.19524,0.5366582 1.19524,1.1995272 0,0.6628652 -0.53469,1.199527 -1.19524,1.199527 -0.660551,0 -1.19567,-0.5366617 -1.19567,-1.199527 0,-0.6628664 0.535119,-1.1995272 1.19567,-1.1995272 z"
     class="ColorScheme-Text" />
</svg>
