<?xml version="1.0" encoding="UTF-8" standalone="no"?>
<svg
   width="64"
   height="64"
   version="1.1"
   viewBox="0 0 16.933 16.933"
   id="svg7"
   sodipodi:docname="com.spotify.Client.svg"
   inkscape:version="1.4.2 (ebf0e940d0, 2025-05-08)"
   xmlns:inkscape="http://www.inkscape.org/namespaces/inkscape"
   xmlns:sodipodi="http://sodipodi.sourceforge.net/DTD/sodipodi-0.dtd"
   xmlns="http://www.w3.org/2000/svg"
   xmlns:svg="http://www.w3.org/2000/svg"
   xmlns:rdf="http://www.w3.org/1999/02/22-rdf-syntax-ns#"
   xmlns:cc="http://creativecommons.org/ns#"
   xmlns:dc="http://purl.org/dc/elements/1.1/">
  <sodipodi:namedview
     id="namedview7"
     pagecolor="#9c4444"
     bordercolor="#000000"
     borderopacity="0.25"
     inkscape:showpageshadow="2"
     inkscape:pageopacity="0.0"
     inkscape:pagecheckerboard="0"
     inkscape:deskcolor="#d1d1d1"
     inkscape:zoom="12.3125"
     inkscape:cx="59.208122"
     inkscape:cy="30.294416"
     inkscape:window-width="2560"
     inkscape:window-height="1392"
     inkscape:window-x="0"
     inkscape:window-y="0"
     inkscape:window-maximized="1"
     inkscape:current-layer="svg7"
     showgrid="false" />
  <defs
     id="defs2">
    <style
       id="current-color-scheme"
       type="text/css">.ColorScheme-Text {color:#d8dee9} .ColorScheme-Highlight {color:#3b4252}</style>
  </defs>
  <metadata
     id="metadata2">
    <rdf:RDF>
      <cc:Work
         rdf:about="">
        <dc:format>image/svg+xml</dc:format>
        <dc:type
           rdf:resource="http://purl.org/dc/dcmitype/StillImage" />
      </cc:Work>
    </rdf:RDF>
  </metadata>
  <path
     id="path5"
     class="ColorScheme-Text"
     d="m 8.4664995,1.4551795 c -3.870362,0 -7.01132,3.140958 -7.01132,7.01132 0,3.8703615 3.140958,7.0113205 7.01132,7.0113205 3.8703625,0 7.0113215,-3.140959 7.0113215,-7.0113205 0,-3.870362 -3.140959,-7.01132 -7.0113215,-7.01132 z m -1.031908,3.658337 c 2.063816,0 4.2265945,0.429693 5.8069685,1.351342 0.220517,0.127222 0.364711,0.302549 0.364711,0.638979 0,0.384492 -0.311019,0.658692 -0.655929,0.658692 -0.147012,0 -0.237493,-0.03676 -0.364713,-0.11027 -2.012928,-1.201536 -5.6118395,-1.489883 -7.9414075,-0.83964 -0.101777,0.02827 -0.22901,0.0735 -0.364713,0.0735 -0.373183,0 -0.658747,-0.291185 -0.658747,-0.667195 0,-0.384492 0.237491,-0.602193 0.491935,-0.675699 0.995155,-0.291196 2.10905,-0.429704 3.321895,-0.429704 z m -0.135725,2.408706 c 1.834818,0 3.6074375,0.45517 5.0040465,1.286351 0.229,0.135703 0.31949,0.311019 0.31949,0.55698 -0.0028,0.305332 -0.240319,0.551294 -0.548477,0.551294 -0.147012,0 -0.245929,-0.06506 -0.347705,-0.118773 -1.7669665,-1.046044 -4.4019095,-1.4673 -6.7456135,-0.831192 -0.135703,0.03675 -0.209165,0.07355 -0.336386,0.07355 -0.302505,0 -0.548477,-0.245973 -0.548477,-0.548477 0,-0.302505 0.147011,-0.503265 0.438207,-0.585253 0.785947,-0.220517 1.588823,-0.38448 2.764915,-0.38448 z m 0.07504,2.297828 c 1.435964,-0.0056 2.8333855,0.2950275 4.0949985,1.0495225 0.172455,0.110258 0.274266,0.209209 0.274266,0.466479 0,0.25727 -0.200761,0.435391 -0.429759,0.435391 -0.118741,0 -0.192224,-0.03674 -0.302482,-0.101766 -1.7641395,-1.063007 -3.8166245,-1.108241 -5.8436875,-0.692651 -0.110259,0.02827 -0.254454,0.0735 -0.336442,0.0735 -0.274233,0 -0.446711,-0.217712 -0.446711,-0.446711 0,-0.291196 0.172445,-0.429693 0.384481,-0.474927 0.868287,-0.1918925 1.743758,-0.3054865 2.605336,-0.3088325 z"
     style="fill:currentColor;fill-opacity:1;stroke-width:0.0282714" />
</svg>
