<?xml version="1.0" encoding="UTF-8" standalone="no"?>
<svg
   width="64"
   height="64"
   version="1.1"
   viewBox="0 0 16.933 16.933"
   id="svg7"
   sodipodi:docname="spyder.svg"
   inkscape:version="1.4.3 (0d15f75042, 2025-12-25)"
   xmlns:inkscape="http://www.inkscape.org/namespaces/inkscape"
   xmlns:sodipodi="http://sodipodi.sourceforge.net/DTD/sodipodi-0.dtd"
   xmlns="http://www.w3.org/2000/svg"
   xmlns:svg="http://www.w3.org/2000/svg"
   xmlns:rdf="http://www.w3.org/1999/02/22-rdf-syntax-ns#"
   xmlns:cc="http://creativecommons.org/ns#"
   xmlns:dc="http://purl.org/dc/elements/1.1/">
  <sodipodi:namedview
     id="namedview7"
     pagecolor="#9c4444"
     bordercolor="#000000"
     borderopacity="0.25"
     inkscape:showpageshadow="2"
     inkscape:pageopacity="0.0"
     inkscape:pagecheckerboard="0"
     inkscape:deskcolor="#d1d1d1"
     inkscape:zoom="4.3531262"
     inkscape:cx="89.935366"
     inkscape:cy="34.457995"
     inkscape:window-width="2560"
     inkscape:window-height="1388"
     inkscape:window-x="0"
     inkscape:window-y="0"
     inkscape:window-maximized="1"
     inkscape:current-layer="svg7"
     showgrid="false" />
  <defs
     id="defs2">
    <style
       id="current-color-scheme"
       type="text/css">.ColorScheme-Text {color:#d8dee9} .ColorScheme-Highlight {color:#3b4252}</style>
  </defs>
  <metadata
     id="metadata2">
    <rdf:RDF>
      <cc:Work
         rdf:about="">
        <dc:format>image/svg+xml</dc:format>
        <dc:type
           rdf:resource="http://purl.org/dc/dcmitype/StillImage" />
      </cc:Work>
    </rdf:RDF>
  </metadata>
  <path
     id="path5"
     style="fill:currentColor"
     d="m 4.0571519,1.4551795 c -1.4415074,0 -2.601972,1.160465 -2.601972,2.601972 v 8.8186955 c 0,1.441508 1.1604646,2.601973 2.601972,2.601973 h 8.8186961 c 1.441508,0 2.601972,-1.160465 2.601972,-2.601973 V 4.0571515 c 0,-1.441507 -1.160464,-2.601972 -2.601972,-2.601972 z m 0.9886125,1.900826 h 6.6304026 a 1.7371866,1.7371866 0 0 1 1.099921,0.390451 1.7358117,1.7358117 0 0 1 0.642739,1.351537 v 1.801872 a 0.09418067,0.09418067 0 0 1 -0.09345,0.09412 h -0.425495 a 0.09486813,0.09486813 0 0 1 -0.09426,-0.09412 V 6.2549785 L 9.9390131,5.8163255 a 0.35541174,0.35541174 0 0 1 -0.05841,0.121781 l -3.128569,4.1459155 1.374901,2.777996 h 0.459194 a 0.09418067,0.09418067 0 0 1 0.09412,0.09426 v 0.422809 a 0.09418067,0.09418067 0 0 1 -0.09412,0.09412 H 5.0457644 A 1.7426862,1.7426862 0 0 1 3.3016282,11.730547 V 5.0979955 a 1.849241,1.849241 0 0 1 0.094927,-0.568488 c 0.013748,-0.03918 0.03093,-0.07773 0.046054,-0.11829 0.026123,-0.05775 0.054309,-0.115492 0.085931,-0.171863 a 1.766747,1.766747 0 0 1 0.7046365,-0.682616 1.7440611,1.7440611 0 0 1 0.8125876,-0.200731 z m 0,0.613201 a 1.1226061,1.1226061 0 0 0 -0.8586415,0.397298 l 0.5341166,0.08257 1.6932486,0.259137 -0.09144,-0.739009 z m 4.1198667,0 -2.27409,0.002 0.104461,0.82494 2.317458,0.354735 z m 0.568489,0 0.158839,1.269768 2.9161579,0.446037 v -0.490748 a 1.2284735,1.2284735 0 0 0 -1.224385,-1.225057 z m -5.51531,0.97344 0.9355767,1.895322 1.1810183,-1.570797 z m 2.748995,0.422137 v 0.0034 l -1.535753,2.034826 1.045005,2.1174 2.859095,-3.793328 z m -3.0529768,0.237788 v 1.62719 l 0.7561951,-0.09278 z m 7.7242817,1.983939 a 13.405278,13.405278 0 0 1 1.614165,0.09493 0.15673864,0.15673864 0 0 1 0.147694,0.169042 v 0.453825 a 0.13749003,0.13749003 0 0 1 -0.158033,0.158033 h -1.962723 c -0.48534,0 -0.769891,0.168425 -0.769891,0.54996 v 0.13749 c 0,0.295604 0.137458,0.549977 0.65442,0.738338 l 1.403097,0.5596265 c 0.969992,0.367099 1.054537,0.906033 1.054537,1.484866 v 0.116142 c 0,1.181725 -0.706698,1.413434 -2.131095,1.413434 -0.917746,0 -1.7509409,-0.07362 -1.9303659,-0.09493 -0.12649,-0.01031 -0.158167,-0.07348 -0.158167,-0.158033 v -0.464029 a 0.13749003,0.13749003 0 0 1 0.158167,-0.158167 H 11.51263 c 0.844188,0 1.107439,-0.09487 1.107439,-0.54996 v -0.12648 c 0,-0.305915 -0.126518,-0.506603 -0.611858,-0.706651 L 10.510322,10.633982 C 9.6984431,10.322567 9.4976751,9.7073045 9.4976751,9.1270965 v -0.221944 c 0,-1.160416 1.0126409,-1.318642 2.1414349,-1.318642 z M 4.9351277,7.6732505 3.9148283,7.8024155 3.9141528,10.07382 5.9916781,9.8125355 Z m 1.3205224,2.6762205 -2.3408218,0.29351 v 0.997473 a 1.2284735,1.2284735 0 0 0 1.2250578,1.22573 h 2.356665 z"
     class="ColorScheme-Text" />
</svg>
