<?xml version='1.0' encoding='UTF-8'?>
<svg xmlns:inkscape="http://www.inkscape.org/namespaces/inkscape" xmlns:sodipodi="http://sodipodi.sourceforge.net/DTD/sodipodi-0.dtd" xmlns="http://www.w3.org/2000/svg" xmlns:svg="http://www.w3.org/2000/svg" xmlns:rdf="http://www.w3.org/1999/02/22-rdf-syntax-ns#" xmlns:cc="http://creativecommons.org/ns#" xmlns:dc="http://purl.org/dc/elements/1.1/" width="64" height="64" version="1.1" viewBox="0 0 16.933 16.933" id="svg7" sodipodi:docname="steam_icon_1184370.svg" inkscape:version="1.4 (e7c3feb100, 2024-10-09)">
  <sodipodi:namedview id="namedview7" pagecolor="#9c4444" bordercolor="#000000" borderopacity="0.25" inkscape:showpageshadow="2" inkscape:pageopacity="0.0" inkscape:pagecheckerboard="0" inkscape:deskcolor="#d1d1d1" inkscape:zoom="4.3531261" inkscape:cx="35.951175" inkscape:cy="39.741555" inkscape:window-width="1183" inkscape:window-height="941" inkscape:window-x="35" inkscape:window-y="32" inkscape:window-maximized="0" inkscape:current-layer="svg7" showgrid="false"/>
  <defs id="defs2">
    <style id="current-color-scheme" type="text/css">.ColorScheme-Text {color:#d8dee9} .ColorScheme-Highlight {color:#3b4252}</style></defs>
  <metadata id="metadata2">
    <rdf:RDF>
      <cc:Work rdf:about="">
        <dc:format>image/svg+xml</dc:format>
        <dc:type rdf:resource="http://purl.org/dc/dcmitype/StillImage"/>
      </cc:Work>
    </rdf:RDF>
  </metadata>
  <path style="fill:currentColor;fill-opacity:1;stroke:none;stroke-width:0.425952;stroke-dasharray:none;stroke-dashoffset:2.2;stroke-opacity:0.3" d="m 4.7839912,15.835485 c 0,-0.01995 0.078632,-0.195408 0.174743,-0.389917 0.1009109,-0.204225 0.1935179,-0.483477 0.2191781,-0.660916 0.055305,-0.382438 0.059584,-3.611021 0.0049,-3.697213 -0.047637,-0.07509 -0.5621254,0.09549 -1.095996,0.36336 C 3.7077852,11.640986 3.7050735,11.637822 3.8313418,11.15305 3.9949128,10.525083 4.4247012,9.9040953 4.9361276,9.5567917 L 5.2243185,9.3610858 v -2.393195 c 0,-1.5743708 -0.017651,-2.4319536 -0.051615,-2.5064743 C 5.0425569,4.1757745 4.5131207,3.959176 4.0623513,4.0071569 3.8131091,4.0336849 3.75657,4.0266068 3.75657,3.9688928 c 0,-0.08144 0.7343453,-0.8958912 1.7954711,-1.9913336 L 6.2861515,1.2197081 6.5683422,1.4070728 C 6.9988678,1.6929261 7.274253,1.9701342 7.4256577,2.270065 7.6123479,2.6398985 7.6598897,2.8388412 7.7169433,3.4890106 7.7655111,4.0424407 7.7916437,4.1478483 7.856694,4.0526822 7.875409,4.0252937 8.0338329,3.8945984 8.2087395,3.7622403 8.5099661,3.5342878 9.0447879,3.1133941 10.557134,1.9140968 c 0.363267,-0.2880729 0.683757,-0.5238487 0.712204,-0.5239461 0.02844,-9.75e-5 0.153254,0.1374232 0.277375,0.3056036 0.319557,0.433036 0.791168,0.8943454 1.034968,1.012368 0.248186,0.1201427 0.660033,0.1330741 0.952449,0.0299 0.110276,-0.038927 0.210283,-0.055077 0.222135,-0.035899 0.03986,0.064505 -0.0635,0.4932769 -0.168568,0.6992196 -0.132981,0.2607226 -0.483535,0.6361586 -0.705596,0.755749 l -0.172273,0.092771 9.07e-4,3.1322985 9.08e-4,3.1323006 0.145882,0.264671 c 0.08026,0.145565 0.145882,0.274282 0.145882,0.286028 0,0.0117 -0.226054,0.006 -0.502354,-0.01292 -1.087908,-0.07416 -2.212509,0.278715 -3.4500095,1.082525 -0.2229224,0.14478 -0.4186219,0.263268 -0.434887,0.263268 -0.016264,0 -0.2081501,-0.17062 -0.4264094,-0.379168 l -0.3968344,-0.379181 -0.013243,1.051506 c -0.014497,1.15222 0.015504,1.390798 0.2329127,1.85047 l 0.143108,0.302602 h -0.450642 c -0.6613657,0 -1.5410893,0.284903 -2.4384838,0.789718 -0.4330429,0.24357 -0.4825331,0.264235 -0.4825331,0.201415 z m 5.3395898,-5.70542 c 0.01862,-1.0952106 0.01493,-3.6616468 -0.0068,-4.7007739 L 10.092358,4.258108 9.9216336,4.2139618 C 9.8277352,4.1896833 9.6514627,4.096819 9.5299178,4.0075966 9.3198785,3.8534131 9.3038883,3.8493896 9.2072663,3.9264132 9.1513531,3.9709834 9.0324245,4.0624931 8.9429793,4.129765 8.8535368,4.1970364 8.7563195,4.2740928 8.7269453,4.3010025 8.6975732,4.3279065 8.469512,4.5134788 8.2201484,4.7133761 l -0.4533875,0.3634493 0.027506,1.8381713 c 0.015143,1.0109946 0.038143,1.9268899 0.051137,2.0353239 0.02336,0.1949816 0.027655,0.1986879 0.3889462,0.33663 0.484127,0.1848377 0.9989791,0.5314192 1.412251,0.9506784 0.1971436,0.2 0.3646859,0.331326 0.4036299,0.31638 0.0478,-0.01835 0.0685,-0.137963 0.07336,-0.423947 z" id="path1-7-3" class="ColorScheme-Text"/>
</svg>
