<?xml version='1.0' encoding='UTF-8'?>
<svg xmlns:inkscape="http://www.inkscape.org/namespaces/inkscape" xmlns:sodipodi="http://sodipodi.sourceforge.net/DTD/sodipodi-0.dtd" xmlns="http://www.w3.org/2000/svg" xmlns:svg="http://www.w3.org/2000/svg" xmlns:rdf="http://www.w3.org/1999/02/22-rdf-syntax-ns#" xmlns:cc="http://creativecommons.org/ns#" xmlns:dc="http://purl.org/dc/elements/1.1/" width="64" height="64" version="1.1" viewBox="0 0 16.933 16.933" id="svg7" sodipodi:docname="steam_icon_268500.svg" inkscape:version="1.4 (e7c3feb100, 2024-10-09)">
  <sodipodi:namedview id="namedview7" pagecolor="#9c4444" bordercolor="#000000" borderopacity="0.25" inkscape:showpageshadow="2" inkscape:pageopacity="0.0" inkscape:pagecheckerboard="0" inkscape:deskcolor="#d1d1d1" inkscape:zoom="4.3531261" inkscape:cx="35.951175" inkscape:cy="39.741555" inkscape:window-width="1183" inkscape:window-height="941" inkscape:window-x="35" inkscape:window-y="32" inkscape:window-maximized="0" inkscape:current-layer="svg7" showgrid="false"/>
  <defs id="defs2">
    <style id="current-color-scheme" type="text/css">.ColorScheme-Text {color:#d8dee9} .ColorScheme-Highlight {color:#3b4252}</style></defs>
  <metadata id="metadata2">
    <rdf:RDF>
      <cc:Work rdf:about="">
        <dc:format>image/svg+xml</dc:format>
        <dc:type rdf:resource="http://purl.org/dc/dcmitype/StillImage"/>
      </cc:Work>
    </rdf:RDF>
  </metadata>
  <path id="path7-62" style="fill:currentColor;fill-opacity:1;stroke:none;stroke-width:0.463862;stroke-dasharray:none;stroke-opacity:0.3" d="M 8.5050481,0.99547606 C 6.9374776,0.98375002 5.3673275,1.5927375 4.135502,2.8246515 2.3388212,4.6214617 1.6886157,7.3341303 2.4694025,9.776244 c 0.4262705,1.333271 1.3932084,2.696323 2.4008504,3.382932 0.1684141,0.11476 0.3062215,0.230494 0.3062215,0.257301 0,0.115007 0.3973704,0.82594 0.6196915,1.108918 0.5206397,0.662694 1.3866922,1.164639 2.2314308,1.294647 0.261867,0.0403 0.9911369,-0.01444 1.3028006,-0.09785 0.9567957,-0.255833 1.7673737,-0.951264 2.2441127,-1.926119 0.188499,-0.385465 0.255683,-0.467199 0.609726,-0.738373 1.024014,-0.784325 1.811425,-1.907127 2.235059,-3.1881453 C 15.228186,7.4235566 14.616889,4.6926082 12.857383,2.8898846 11.637114,1.6396418 10.07262,1.0071899 8.5050481,0.99547606 Z M 12.531229,7.6589664 c 0.251794,-0.010678 0.494745,9.069e-4 0.664082,0.037141 0.15314,0.032695 0.16169,0.048984 0.205658,0.4058798 0.05875,0.4769045 -0.02379,1.1766386 -0.198407,1.678783 C 12.789623,10.968175 11.766251,11.877428 10.593335,12.099177 9.9816605,12.214811 9.3110327,12.17911 9.2334585,12.027623 9.1501679,11.864945 9.1202297,11.284306 9.1736623,10.861628 9.3684505,9.3208056 10.39024,8.1186352 11.815503,7.7541143 c 0.202904,-0.051893 0.46393,-0.08448 0.715726,-0.095131 z m -8.0396768,0.00276 c 0.842657,0.030022 1.5233787,0.3447864 2.1834148,0.9983929 0.3718712,0.3682481 0.5001801,0.5397523 0.6785795,0.9068874 0.350355,0.7209993 0.477366,1.3731493 0.4095036,2.0973473 -0.028099,0.299761 -0.058927,0.406995 -0.1259339,0.433057 -0.048993,0.01906 -0.2926968,0.04402 -0.5417765,0.05525 C 5.4498128,12.226927 3.9764916,11.055572 3.6027836,9.3758287 3.5171533,8.9909428 3.505215,7.8105866 3.5864683,7.7296605 c 0.019283,-0.0192 0.2598697,-0.048043 0.5336234,-0.063416 0.1274045,-0.00714 0.2510728,-0.00882 0.3714523,-0.00454 z" class="ColorScheme-Text"/>
</svg>
