<?xml version="1.0" encoding="UTF-8" standalone="no"?>
<svg
   width="64"
   height="64"
   version="1.1"
   viewBox="0 0 16.933 16.933"
   id="svg7"
   sodipodi:docname="steam_icon_391220.svg"
   inkscape:version="1.4.2 (ebf0e940d0, 2025-05-08)"
   xmlns:inkscape="http://www.inkscape.org/namespaces/inkscape"
   xmlns:sodipodi="http://sodipodi.sourceforge.net/DTD/sodipodi-0.dtd"
   xmlns="http://www.w3.org/2000/svg"
   xmlns:svg="http://www.w3.org/2000/svg"
   xmlns:rdf="http://www.w3.org/1999/02/22-rdf-syntax-ns#"
   xmlns:cc="http://creativecommons.org/ns#"
   xmlns:dc="http://purl.org/dc/elements/1.1/">
  <sodipodi:namedview
     id="namedview7"
     pagecolor="#9c4444"
     bordercolor="#000000"
     borderopacity="0.25"
     inkscape:showpageshadow="2"
     inkscape:pageopacity="0.0"
     inkscape:pagecheckerboard="0"
     inkscape:deskcolor="#d1d1d1"
     inkscape:zoom="4.3531262"
     inkscape:cx="89.935366"
     inkscape:cy="34.457995"
     inkscape:window-width="2560"
     inkscape:window-height="1388"
     inkscape:window-x="0"
     inkscape:window-y="0"
     inkscape:window-maximized="1"
     inkscape:current-layer="svg7"
     showgrid="false" />
  <defs
     id="defs2">
    <style
       id="current-color-scheme"
       type="text/css">.ColorScheme-Text {color:#d8dee9} .ColorScheme-Highlight {color:#3b4252}</style>
  </defs>
  <metadata
     id="metadata2">
    <rdf:RDF>
      <cc:Work
         rdf:about="">
        <dc:format>image/svg+xml</dc:format>
        <dc:type
           rdf:resource="http://purl.org/dc/dcmitype/StillImage" />
      </cc:Work>
    </rdf:RDF>
  </metadata>
  <path
     id="path5"
     style="opacity:1;fill:currentColor;stroke-width:0.00574245;paint-order:fill markers stroke"
     d="M 14.075424,3.1803897 V 4.0699519 4.959514 l 0.07612,-0.028954 c 0.04187,-0.015923 0.08937,-0.028908 0.105595,-0.028908 0.01622,0 0.02093,0.013887 0.01041,0.030862 -0.01878,0.030388 0.02636,0.025867 0.21588,-0.021646 0.04489,-0.011216 0.126175,-0.022352 0.180626,-0.024653 0.05445,-0.00231 0.109839,-0.021739 0.123111,-0.043212 0.01585,-0.025647 0.04298,-0.030654 0.07908,-0.014523 0.03022,0.013506 0.156183,0.025635 0.279959,0.026954 0.174728,0.00185 0.236973,0.014315 0.278349,0.055688 0.02931,0.029313 0.07271,0.045836 0.09642,0.036736 0.02372,-0.00913 0.06283,-0.016559 0.08694,-0.016559 0.02411,0 0.03633,-0.012188 0.02713,-0.027081 -0.0093,-0.014893 0.01671,-0.023404 0.0576,-0.018906 0.04695,0.0052 0.07434,-0.00671 0.07434,-0.032261 0,-0.022236 0.0267,-0.040425 0.05934,-0.040425 0.04945,0 0.05934,-0.019796 0.05934,-0.1187215 V 4.575184 h -0.534182 -0.53418 V 4.4416397 4.3080943 h 0.460017 0.459974 V 4.0855182 3.8629432 H 15.277322 14.817305 V 3.7442657 3.6255442 h 0.53418 0.534182 v -0.222576 -0.222575 h -0.905126 z m -3.754133,0.016697 c -0.6072085,0 -0.9051255,0.1880381 -0.9051255,0.571348 0,0.2679373 0.187069,0.3998651 0.7506275,0.5293566 0.378731,0.087024 0.489537,0.1392299 0.434979,0.2049687 -0.101051,0.1217614 -0.401947,0.1115153 -0.518879,-0.017692 -0.0465,-0.051387 -0.09255,-0.058255 -0.3913775,-0.058255 -0.337433,0 -0.338622,2.441e-4 -0.318474,0.066766 0.05007,0.165307 0.214407,0.3481394 0.32969,0.3667711 0.01887,0.00301 0.05888,0.019299 0.08894,0.036123 0.0415,0.02323 0.0779,0.016211 0.151195,-0.029081 l 0.09651,-0.059643 v 0.06177 c 0,0.073495 0.05117,0.079069 0.142022,0.015437 0.05711,-0.040009 0.06842,-0.040436 0.08269,-0.00324 0.0094,0.024341 0.04008,0.036898 0.07064,0.028908 0.02975,-0.00775 0.06231,-8.164e-4 0.07239,0.015472 0.02319,0.037534 0.08779,0.028538 0.146847,-0.020478 0.02516,-0.020883 0.06992,-0.035453 0.09947,-0.032388 0.102843,0.010638 0.129372,-0.00173 0.16341,-0.076421 0.02325,-0.05104 0.05401,-0.072478 0.09581,-0.066777 0.04451,0.00613 0.05912,-0.00601 0.05282,-0.043559 -0.0059,-0.03536 0.01064,-0.051907 0.05195,-0.051907 0.03413,0 0.06064,0.019461 0.06064,0.044518 0,0.063216 0.0375,0.055364 0.134763,-0.028214 0.07336,-0.063042 0.08486,-0.094367 0.08625,-0.2351823 0.0012,-0.1183503 -0.01487,-0.1851646 -0.05908,-0.2462679 C 11.150475,4.0456899 10.898991,3.9347332 10.515539,3.849774 10.162114,3.7714682 10.05533,3.7164656 10.123772,3.648022 c 0.02053,-0.020513 0.102323,-0.037303 0.181799,-0.037303 0.109017,0 0.161957,0.016397 0.215577,0.066777 0.06502,0.061077 0.09955,0.066777 0.405025,0.066777 0.332638,0 0.333905,-2.602e-4 0.313389,-0.066777 C 11.133678,3.3342663 10.871452,3.19709 10.321308,3.19709 Z m -9.2739585,0.012997 v 0.884346 c 0,0.6482721 0.00948,0.8938879 0.035603,0.9199928 0.045663,0.045651 0.061562,0.045235 0.046079,-0.00127 -0.014408,-0.043212 0.04638,-0.1115499 0.099201,-0.1115499 0.020212,0 0.028307,-0.00844 0.017992,-0.018732 -0.010291,-0.010291 -0.00428,-0.045836 0.013471,-0.078942 0.029162,-0.054486 0.03484,-0.055492 0.059909,-0.010638 0.015229,0.02722 0.01953,0.062707 0.00948,0.078907 -0.01006,0.016189 0.00856,0.029475 0.041165,0.029475 0.032643,0 0.067737,0.01354 0.077994,0.030122 0.010291,0.016593 0.033522,0.02101 0.051687,0.00983 0.048843,-0.030191 0.2002742,-0.034331 0.2002742,-0.00543 0,0.013702 0.013321,0.024907 0.029648,0.024907 0.017588,0 0.029694,-0.1088095 0.029694,-0.2670909 v -0.267098 h 0.2760026 c 0.1750919,0 0.2890123,0.013009 0.3116056,0.035603 0.019588,0.019588 0.035603,0.1047624 0.035603,0.1892765 0,0.1442807 0.051364,0.2480232 0.099154,0.2002303 0.010754,-0.010754 0.019565,0.00278 0.019565,0.029949 0,0.05881 0.032458,0.063378 0.087464,0.01235 0.032631,-0.030284 0.036609,-0.027567 0.021692,0.014824 -0.018316,0.052046 0.022259,0.073692 0.050994,0.027208 0.00844,-0.013598 0.055954,-0.018767 0.1056412,-0.011448 0.066338,0.00971 0.090332,0.0015 0.090332,-0.031174 0,-0.079855 0.1091679,-0.080989 0.1453699,-0.0015 0.018108,0.039743 0.044749,0.064927 0.059203,0.055989 C 3.095088,4.9278696 3.067476,4.4314032 3.02934,4.3576569 3.0138472,4.3277042 2.9480412,4.2793934 2.8831024,4.2503235 L 2.7650331,4.1974682 2.8720156,4.1343448 C 2.9878752,4.0659833 3.0932145,3.8772412 3.0943292,3.7360131 3.0953572,3.6058475 3.0212846,3.4623485 2.9087923,3.3765451 2.7385696,3.2467103 2.4853291,3.2113258 1.7224485,3.2107442 Z m 4.8041494,0 0.00913,0.8086614 c 0.00509,0.44478 0.01997,0.8253843 0.033175,0.8457874 0.029278,0.045247 0.079855,0.048854 0.079855,0.00567 0,-0.017287 0.012986,-0.023416 0.028862,-0.01361 0.069969,0.043246 0.2438535,0.043628 0.2868697,6.047e-4 0.057319,-0.057319 0.099721,-0.056937 0.099721,9.135e-4 0,0.03314 0.022201,0.041882 0.081601,0.032122 0.044888,-0.0074 0.09165,-0.014523 0.1038951,-0.015865 0.012245,-0.00139 0.022259,-0.3763756 0.022259,-0.8333963 V 3.2100492 H 6.2241272 Z m -4.0622167,0.445151 0.1558022,1.342e-4 c 0.3084894,3.284e-4 0.4818943,0.099212 0.409895,0.233745 -0.041974,0.078433 -0.09461,0.092552 -0.3455563,0.092552 H 1.7892652 V 3.8184297 Z m 1.0757512,1.8700246 c -1.2988569,-3.538e-4 -1.4912543,0.00532 -1.4912543,0.043651 0,0.037129 0.074224,0.043928 0.4727547,0.043292 0.3399458,-5.307e-4 0.4775095,-0.010869 0.4896658,-0.036644 0.013043,-0.027694 0.020895,-0.027416 0.03425,0.00127 0.00948,0.020397 0.066928,0.037129 0.1275892,0.037129 0.06066,0 0.1283015,-0.01672 0.150282,-0.037129 0.017483,-0.016235 0.026595,-0.023519 0.02848,-0.021993 0.00139,0.0015 -0.00197,0.00879 -0.00948,0.021993 -0.016558,0.029324 0.1720092,0.037129 0.9007784,0.037129 0.8351631,0 1.0510985,-0.017773 0.8549592,-0.070339 -0.036725,-0.00983 -0.737837,-0.018073 -1.5580281,-0.018305 z m 7.2356996,2.186e-4 c -4.7058998,8.325e-4 -5.4589944,0.00682 -5.4730506,0.043431 -0.014107,0.036748 0.7189,0.042599 5.4397496,0.043339 4.811227,7.574e-4 5.458103,-0.00439 5.473094,-0.043431 0.01503,-0.039188 -0.613033,-0.044194 -5.439793,-0.043339 z M 1.0473325,5.9403233 V 7.0188185 8.097265 L 1.6753251,8.11683 C 2.020723,8.127584 2.5402507,8.136395 2.8298482,8.136395 h 0.5265731 l 0.021785,0.3190385 c 0.011991,0.1754642 0.00994,0.3657652 -0.00451,0.4228931 -0.0145,0.057134 -0.02286,0.5612756 -0.018559,1.1203106 l 0.00786,1.0164118 h 0.075554 c 0.044784,0 0.067783,0.01256 0.056475,0.03086 -0.010523,0.01699 -0.044669,0.02279 -0.075947,0.01287 -0.055376,-0.01758 -0.056775,0.01087 -0.053422,1.089402 0.00185,0.609101 0.0096,1.084067 0.017044,1.055494 0.010407,-0.03975 0.032204,-0.04747 0.092991,-0.03291 0.106705,0.02557 0.1061846,0.02429 0.047733,0.113504 -0.035869,0.05474 -0.060695,0.06889 -0.082515,0.04707 -0.063355,-0.06335 -0.078688,-0.0261 -0.078688,0.191363 v 0.222576 l 0.5119238,-1.77e-4 c 0.4018586,-1.35e-4 0.5306677,-0.0099 0.5991275,-0.04565 0.078398,-0.04088 0.0898,-0.04087 0.1127641,1.77e-4 0.037476,0.06697 0.078294,0.05577 0.09912,-0.02721 0.015367,-0.06123 0.031463,-0.07026 0.1006343,-0.05643 0.059284,0.01185 0.1166192,-0.0062 0.2048393,-0.0646 0.06739,-0.0446 0.1234427,-0.09601 0.1245898,-0.114245 0.00115,-0.01824 0.01309,-0.0065 0.026514,0.02621 l 0.024387,0.05934 0.020166,-0.05934 c 0.045362,-0.133501 0.066326,-0.14838 0.2219667,-0.157454 0.192572,-0.01122 0.2445346,0.02094 0.4173717,0.258309 l 0.1332853,0.18306 0.00775,-1.12931 0.00775,-1.129309 -0.1041148,-0.09142 c -0.1121513,-0.09847 -0.1108446,-0.158612 0.00301,-0.13685 0.057689,0.01098 0.070732,0.0011 0.070732,-0.05382 0,-0.0539 -0.0125,-0.064 -0.06273,-0.05087 -0.055677,0.01456 -0.058984,0.0095 -0.029648,-0.04534 0.043455,-0.0812 0.041755,-0.09534 -0.011448,-0.09534 -0.05733,0 -0.056625,-0.06856 0.00185,-0.181667 0.03351,-0.0648 0.037569,-0.100287 0.014651,-0.127895 -0.01812,-0.02183 -0.031475,-0.170475 -0.031128,-0.346599 3.365e-4,-0.169595 -0.00162,-0.3684407 -0.00439,-0.4418907 -0.00278,-0.07345 0.010638,-0.171699 0.029729,-0.218359 0.02892,-0.07049 0.042229,-0.07865 0.078815,-0.0483 0.057758,0.04794 0.059007,-0.0096 0.0037,-0.167323 C 5.889685,9.3582832 5.898138,9.0534095 5.948171,8.9505331 5.971367,8.9028471 5.961052,8.8573921 5.901699,8.7457816 5.84482,8.6388107 5.825405,8.5581841 5.825405,8.4286985 c 0,-0.1641485 0.00393,-0.1736257 0.0722,-0.1736257 0.044969,0 0.078965,-0.021346 0.090158,-0.056602 0.00983,-0.03114 0.034169,-0.061181 0.053954,-0.066777 0.019785,-0.00555 0.5467613,-0.00601 1.171085,-8.256e-4 l 1.1351339,0.00937 v 2.7871918 2.78719 l 0.1009465,-0.04813 c 0.096784,-0.04615 0.1048433,-0.04536 0.1952315,0.019 l 0.094286,0.06712 0.1620198,-0.08195 c 0.1475828,-0.07468 0.1784658,-0.07987 0.3463828,-0.0583 0.346785,0.04455 0.445294,0.03675 0.482971,-0.03825 0.0505,-0.100542 0.0578,-0.100206 0.05764,0.0028 -1.34e-4,0.08941 0.0061,0.09459 0.124851,0.103202 0.06874,0.005 0.1511075,-0.0049 0.1830585,-0.02199 0.04269,-0.02285 0.06217,-0.02135 0.07347,0.0058 0.0111,0.02664 0.02708,0.02249 0.0576,-0.01504 0.02323,-0.02856 0.06453,-0.05195 0.09181,-0.05195 0.02728,0 0.0573,-0.02003 0.06669,-0.04452 0.02905,-0.0757 0.153854,-0.04966 0.361076,0.07533 l 0.198666,0.119851 0.01574,-1.121441 c 0.0087,-0.616797 0.01867,-1.124794 0.02226,-1.128874 0.0036,-0.004 0.119041,-0.0074 0.256527,-0.0074 0.221943,0 0.259665,0.0081 0.33634,0.07264 0.0475,0.03996 0.130717,0.156805 0.184973,0.259657 0.278179,0.527344 1.197708,1.89418 1.272939,1.892152 0.02638,-7.07e-4 0.106532,-0.0126 0.178147,-0.02643 0.07543,-0.01457 0.169064,-0.01357 0.222576,0.0023 0.05924,0.01762 0.244175,0.01443 0.515488,-0.0089 0.384857,-0.0331 0.441765,-0.03157 0.629862,0.01722 0.289978,0.07521 0.398744,0.05091 0.554309,-0.123851 l 0.123416,-0.138675 0.145195,0.154629 c 0.133962,0.142687 0.216316,0.191829 0.216316,0.129068 0,-0.01405 0.05303,-0.01133 0.117808,0.0059 0.06478,0.01729 0.12492,0.02427 0.133676,0.01552 0.02978,-0.02978 -0.588088,-1.195083 -0.685072,-1.292067 -0.05288,-0.05287 -0.190602,-0.230209 -0.306084,-0.394115 -0.115482,-0.163904 -0.303464,-0.430725 -0.41772,-0.592911 -0.114256,-0.162186 -0.207708,-0.32082 -0.207708,-0.352513 0,-0.05607 0.145506,-0.168541 0.433805,-0.335384 0.134516,-0.07784 0.528346,-0.503014 0.69846,-0.754018 0.277093,-0.4088497 0.41159,-1.2193837 0.31104,-1.874588 C 15.51835,6.9819157 14.665418,6.244155 13.218588,6.0017642 12.855583,5.9409532 12.782994,5.9402482 6.9493985,5.9402482 Z m 8.64188,1.4352238 c 0.01385,-4.071e-4 0.01976,0.014361 0.0087,0.049247 -0.01168,0.036782 0.0051,0.09846 0.04378,0.1610635 0.05786,0.093616 0.06008,0.1165591 0.02878,0.2963469 -0.01844,0.1059187 -0.03809,0.1928183 -0.0439,0.1948407 -2.3e-5,4.6e-6 -1.1e-4,-3.5e-6 -1.36e-4,0 -0.0055,0 -0.03002,-0.028365 -0.0543,-0.063031 -0.0344,-0.049109 -0.03659,-0.07508 -0.01006,-0.1175917 0.02727,-0.043663 0.02055,-0.082399 -0.03352,-0.1936659 -0.05708,-0.1174807 -0.06224,-0.1518696 -0.03338,-0.221532 0.02574,-0.062152 0.07094,-0.1050052 0.09403,-0.1056758 z m 1.8117265,0.7369767 c 0.844348,-0.00624 1.196583,0.068928 1.433612,0.3059547 0.23383,0.2338294 0.245837,0.6127709 0.02752,0.8678257 -0.110255,0.128803 -0.366946,0.2586531 -0.597042,0.302042 -0.19098,0.03601 -0.693703,0.05535 -1.071796,0.04121 l -0.304214,-0.01145 V 8.8671795 8.1162483 Z m -1.7830795,0.083243 c 0.0136,0 0.02473,0.026699 0.02473,0.059342 0,0.068049 -0.04518,0.07967 -0.06894,0.017738 -0.01675,-0.043662 0.0024,-0.07708 0.04421,-0.07708 z M 3.6781991,8.7839836 c 0.00786,-1.596e-4 0.029648,0.014916 0.065124,0.047953 0.051491,0.047941 0.093639,0.091361 0.093639,0.09646 0,0.027659 -0.056058,0.00243 -0.094772,-0.042645 -0.055075,-0.064129 -0.07634,-0.1015131 -0.063991,-0.101768 z M 14.382813,9.2975602 h 4.5e-5 c 0.0032,-5.73e-4 0.01723,0.01391 0.04286,0.04074 0.05328,0.05575 0.168897,0.311605 0.140805,0.311605 -0.0071,0 -0.03372,-0.02967 -0.05912,-0.06594 -0.0254,-0.03627 -0.04629,-0.07969 -0.04638,-0.09646 -8.4e-5,-0.01677 -0.02086,-0.07053 -0.04613,-0.119504 -0.02307,-0.0447 -0.03431,-0.06685 -0.03252,-0.07007 1.5e-5,-2.2e-5 6.7e-5,-1.081e-4 8.4e-5,-1.34e-4 l 4.4e-5,-4.5e-5 c 2.1e-5,-1.6e-5 8.4e-5,-6.6e-5 1.69e-4,-9.2e-5 4.4e-5,-2.2e-5 8.3e-5,-6.6e-5 1.67e-4,-9.3e-5 z M 3.553348,11.383421 c 0.010754,1.1e-4 0.027798,0.01006 0.045605,0.03156 0.023404,0.0282 0.025635,0.04521 0.00601,0.04521 -0.017356,0 -0.040367,-0.01424 -0.051121,-0.03165 -0.017969,-0.02907 -0.014315,-0.04526 -4.382e-4,-0.04512 z m -0.1053752,0.195493 c 0.014581,0 0.034204,0.02003 0.043605,0.04452 0.00844,0.02199 0.013066,0.03959 0.011332,0.042 l -4.39e-5,4.4e-5 -4.51e-5,4.5e-5 -4.39e-5,4.4e-5 c -1.97e-5,1.2e-5 -1.099e-4,6.7e-5 -1.353e-4,9.3e-5 h -4.4e-5 c -4.51e-5,9e-6 -1.769e-4,10e-7 -2.185e-4,0 -6.71e-5,-8e-6 -1.769e-4,-1.3e-5 -2.613e-4,-4.4e-5 -0.00358,-0.0013 -0.023161,-0.009 -0.043558,-0.0173 -0.042448,-0.01713 -0.050439,-0.06938 -0.010638,-0.06938 z m 6.3228347,1.068361 c 2.44e-4,-2.1e-5 4.88e-4,0 7.41e-4,0 0.02749,0 0.02346,0.04359 -0.0273,0.296739 -0.01942,0.09682 -0.0224,0.09915 -0.04386,0.03412 -0.01385,-0.04196 -0.01006,-0.08275 0.0096,-0.10238 0.01795,-0.01795 0.03261,-0.07672 0.03261,-0.13059 0,-0.05302 0.01264,-0.09655 0.02821,-0.09789 z"
     class="ColorScheme-Text" />
</svg>
