<?xml version='1.0' encoding='UTF-8'?>
<svg xmlns:inkscape="http://www.inkscape.org/namespaces/inkscape" xmlns:sodipodi="http://sodipodi.sourceforge.net/DTD/sodipodi-0.dtd" xmlns="http://www.w3.org/2000/svg" xmlns:svg="http://www.w3.org/2000/svg" xmlns:rdf="http://www.w3.org/1999/02/22-rdf-syntax-ns#" xmlns:cc="http://creativecommons.org/ns#" xmlns:dc="http://purl.org/dc/elements/1.1/" width="64" height="64" version="1.1" viewBox="0 0 16.933 16.933" id="svg7" sodipodi:docname="steam_icon_489830.svg" inkscape:version="1.4 (e7c3feb100, 2024-10-09)">
  <sodipodi:namedview id="namedview7" pagecolor="#9c4444" bordercolor="#000000" borderopacity="0.25" inkscape:showpageshadow="2" inkscape:pageopacity="0.0" inkscape:pagecheckerboard="0" inkscape:deskcolor="#d1d1d1" inkscape:zoom="4.3531261" inkscape:cx="38.248375" inkscape:cy="38.248375" inkscape:window-width="1183" inkscape:window-height="940" inkscape:window-x="35" inkscape:window-y="32" inkscape:window-maximized="0" inkscape:current-layer="svg7" showgrid="false"/>
  <defs id="defs2">
    <style id="current-color-scheme" type="text/css">.ColorScheme-Text {color:#d8dee9} .ColorScheme-Highlight {color:#3b4252}</style></defs>
  <metadata id="metadata2">
    <rdf:RDF>
      <cc:Work rdf:about="">
        <dc:format>image/svg+xml</dc:format>
        <dc:type rdf:resource="http://purl.org/dc/dcmitype/StillImage"/>
      </cc:Work>
    </rdf:RDF>
  </metadata>
  <path style="fill:currentColor;stroke-width:0.15775" d="M 8.1749331,15.935104 C 7.8804439,15.799874 7.8145003,15.7005 7.6485383,15.14185 7.4304363,14.407692 7.2497807,14.044352 6.8351884,13.506009 6.3909127,12.929131 5.5262633,12.058346 5.0585143,11.716734 4.8715241,11.580168 4.7253833,11.461583 4.7337564,11.453211 c 0.00838,-0.0084 0.1670448,0.0031 0.352602,0.0254 0.185558,0.02235 0.3369063,0.02763 0.3363302,0.01163 C 5.422105,11.47433 5.291494,11.377663 5.1324247,11.275258 4.7959288,11.058579 4.334183,10.661105 4.2617085,10.525685 c -0.044158,-0.0825 -0.015287,-0.07789 0.2380181,0.03808 0.1585494,0.07258 0.4029173,0.14188 0.54304,0.153987 l 0.2547681,0.02217 -0.2271629,-0.148026 C 4.7642828,10.392424 4.2890523,9.869607 4.131848,9.5593811 3.9344392,9.1698136 3.604573,7.4582007 3.6082565,6.842564 c 0.00124,-0.2071731 0.020816,-0.170451 0.2224514,0.4172989 0.433034,1.2622512 0.757891,1.7723155 1.2079162,1.8965738 0.1888945,0.052158 0.3851126,0.027892 0.3851126,-0.047613 0,-0.024243 -0.1667729,-0.5156747 -0.3706075,-1.0920668 C 4.5122991,6.4874185 4.4455889,6.2174927 4.4447995,5.5553074 4.444011,4.8980776 4.5012076,4.7062137 4.896222,4.0408871 5.3878584,3.2128198 5.398614,3.1770863 5.3976227,2.3750251 5.396897,1.7931543 5.3765386,1.5979898 5.2823511,1.2703471 5.2194322,1.051476 5.1774883,0.86286419 5.1891424,0.85121002 5.2203379,0.82001449 5.509371,1.6390007 5.6823833,2.2488244 5.903512,3.028246 5.9158584,3.3189297 5.7576831,4.0217255 5.5338584,5.0162152 5.5890429,5.6838106 5.9553882,6.4134792 6.1349966,6.7712148 6.7419177,7.5586478 6.7703423,7.4708198 6.778841,7.4445678 6.8418186,7.1192843 6.9103007,6.7479641 6.9787811,6.376643 7.0445801,6.0630666 7.0565194,6.051127 7.0684552,6.0391912 7.165973,6.2516997 7.2732157,6.5233765 7.3808021,6.7959251 7.4740294,6.9725087 7.4811992,6.9173296 7.488347,6.8623257 7.5488092,6.2192432 7.6155625,5.4882548 7.6823123,4.7572659 7.7458867,4.1502258 7.7568358,4.139276 7.7677798,4.128332 7.945844,4.6750978 8.1525215,5.3543237 8.3591996,6.033549 8.539658,6.5891376 8.5535399,6.5889647 8.5674251,6.588791 8.7479419,6.0331229 8.9546955,5.3541462 9.161449,4.6751695 9.339509,4.1285408 9.3503842,4.1394164 c 0.019347,0.01935 0.2614092,2.5317046 0.2626308,2.7258648 9.54e-4,0.1555433 0.071957,0.038283 0.2517501,-0.415894 0.0911,-0.2301296 0.1750559,-0.408998 0.1865689,-0.3974848 0.02168,0.021685 0.269029,1.3214156 0.269029,1.4136701 0,0.1040432 0.318451,-0.2543735 0.603104,-0.6787968 0.389721,-0.5810806 0.511758,-0.9427793 0.543243,-1.610073 0.02137,-0.4533506 0.0051,-0.6177 -0.112159,-1.1358148 -0.163852,-0.7235791 -0.152788,-1.0062681 0.07015,-1.7920635 0.173013,-0.6098237 0.462048,-1.42880957 0.493243,-1.39761438 0.01163,0.0116451 -0.0303,0.20026598 -0.09319,0.41913778 -0.09417,0.3276426 -0.114553,0.5228072 -0.115272,1.1046778 -0.0011,0.8020609 0.0097,0.8377946 0.5014,1.6658623 0.395542,0.6662095 0.452351,0.8571261 0.450643,1.51442 -0.0017,0.674154 -0.07361,0.9671401 -0.600148,2.4466808 -0.207904,0.5842023 -0.378008,1.082149 -0.378008,1.1065485 0,0.075766 0.195934,0.1001359 0.385114,0.047901 0.450654,-0.1244315 0.773466,-0.6315683 1.203991,-1.8914539 0.203504,-0.5955328 0.22221,-0.6306801 0.224853,-0.4224189 0.0076,0.6020464 -0.323407,2.3247758 -0.522068,2.7168174 -0.157013,0.309842 -0.632018,0.8326182 -0.938534,1.0329222 l -0.227161,0.148447 0.283332,-0.02647 c 0.158962,-0.01486 0.39851,-0.08483 0.545729,-0.159431 0.236201,-0.119694 0.257109,-0.12309 0.209455,-0.03404 -0.07486,0.139832 -0.531899,0.534692 -0.873405,0.754545 -0.159082,0.102412 -0.28969,0.199164 -0.290264,0.215025 -5.85e-4,0.0159 0.150771,0.01043 0.336329,-0.01163 0.185558,-0.02235 0.34423,-0.03378 0.3526,-0.02541 0.0084,0.0086 -0.137757,0.12695 -0.324754,0.263526 -0.46775,0.34161 -1.332401,1.212394 -1.776676,1.789276 -0.4145915,0.53834 -0.5952485,0.901683 -0.8133499,1.635839 -0.082297,0.27702 -0.1889693,0.547967 -0.2370514,0.602102 -0.125107,0.14087 -0.4616179,0.283876 -0.6679486,0.283876 -0.097176,0 -0.2675473,-0.04172 -0.3786046,-0.09272 z m -0.00657,-1.694167 c 0.076521,-0.116793 0.073884,-0.131397 -0.050385,-0.279091 -0.1036688,-0.123206 -0.145798,-0.143674 -0.2011507,-0.09773 -0.090285,0.07492 -0.088458,0.166537 0.00699,0.351139 0.093648,0.181092 0.1395445,0.185913 0.2445288,0.02569 z m 1.0148924,-0.02569 c 0.092713,-0.179287 0.096895,-0.26532 0.016792,-0.345422 -0.046642,-0.04665 -0.086482,-0.03555 -0.1766824,0.04918 -0.1282277,0.120452 -0.1429816,0.20033 -0.064201,0.34753 0.072868,0.136151 0.1344454,0.122077 0.224091,-0.05132 z M 7.65425,11.192974 C 7.728084,11.163204 7.713057,11.118624 7.5405863,10.855778 7.2323453,10.386032 6.4472024,9.6388028 6.3568244,9.7291806 c -0.03918,0.039186 0.1237527,0.5005904 0.2808267,0.7952944 0.1906032,0.357606 0.3764823,0.543606 0.6355587,0.635963 0.2186664,0.07794 0.2597269,0.08147 0.3810402,0.03254 z m 2.1248244,-0.01197 c 0.2694076,-0.07492 0.5230906,-0.31726 0.7010716,-0.669841 0.119127,-0.235988 0.290109,-0.6887725 0.293995,-0.7785435 3e-4,-0.00693 -0.03218,-0.01262 -0.07214,-0.01262 -0.108552,0 -0.9497126,0.8423615 -1.158737,1.1603925 -0.1621371,0.24669 -0.1723833,0.280804 -0.093698,0.311953 0.1209466,0.04788 0.11516,0.04809 0.3295118,-0.01146 z" id="path99" class="ColorScheme-Text"/>
</svg>
