<?xml version='1.0' encoding='UTF-8'?>
<svg xmlns:inkscape="http://www.inkscape.org/namespaces/inkscape" xmlns:sodipodi="http://sodipodi.sourceforge.net/DTD/sodipodi-0.dtd" xmlns="http://www.w3.org/2000/svg" xmlns:svg="http://www.w3.org/2000/svg" xmlns:rdf="http://www.w3.org/1999/02/22-rdf-syntax-ns#" xmlns:cc="http://creativecommons.org/ns#" xmlns:dc="http://purl.org/dc/elements/1.1/" width="64" height="64" version="1.1" viewBox="0 0 16.933 16.933" id="svg7" sodipodi:docname="steam_icon_2071280.svg" inkscape:version="1.4 (e7c3feb100, 2024-10-09)">
  <sodipodi:namedview id="namedview7" pagecolor="#9c4444" bordercolor="#000000" borderopacity="0.25" inkscape:showpageshadow="2" inkscape:pageopacity="0.0" inkscape:pagecheckerboard="0" inkscape:deskcolor="#d1d1d1" inkscape:zoom="4.3531261" inkscape:cx="35.951175" inkscape:cy="39.741555" inkscape:window-width="1183" inkscape:window-height="941" inkscape:window-x="35" inkscape:window-y="32" inkscape:window-maximized="0" inkscape:current-layer="svg7" showgrid="false"/>
  <defs id="defs2">
    <style id="current-color-scheme" type="text/css">.ColorScheme-Text {color:#d8dee9} .ColorScheme-Highlight {color:#3b4252}</style></defs>
  <metadata id="metadata2">
    <rdf:RDF>
      <cc:Work rdf:about="">
        <dc:format>image/svg+xml</dc:format>
        <dc:type rdf:resource="http://purl.org/dc/dcmitype/StillImage"/>
      </cc:Work>
    </rdf:RDF>
  </metadata>
  <g id="g6" transform="matrix(0.11500126,0,0,0.11500126,1.6337772,1.6240066)" style="fill:currentColor;fill-opacity:1" class="ColorScheme-Text">
    <path class="ColorScheme-Text" d="M 10.05,96.6 C 6.38,105.51 1.42,113.97 0,122.88 l 5.13,-0.44 c 8.1,-23.56 15.4,-39.4 31.23,-59.21 11.88,-14.84 24.77,-26.65 41.3,-36.03 8.8,-5 20.07,-10.47 30.21,-11.85 2.77,-0.38 5.58,-0.49 8.46,-0.24 C 84.93,22.3 60.07,38.95 40.21,63.91 32.1,74.09 25.05,85.4 18.57,97.32 L 30.51,99.5 25.54,97.03 43.32,94.2 C 36.72,91.87 30.2,92.65 28.11,90.14 46.41,89.31 61.45,85.36 72.01,77.69 68.08,77.14 63.55,76.65 61.19,75.52 78.88,69.54 89.11,58.79 102.09,49.25 85.22,52.79 69.61,52.21 65.09,49 c 29.77,2.21 49,-6.02 55.59,-26.77 0.57,-2.24 0.73,-4.5 0.37,-6.78 C 118.74,0.62 92.49,-4.39 83.95,7.77 82.24,10.2 79.83,12.43 77.84,15.25 L 85.97,0 c -21.88,7.39 -23.68,15.54 -35,40.09 0.9,-7.47 2.97,-14.24 5.66,-20.63 -27.34,10.55 -36.45,37.11 -37.91,59.7 -0.79,-7.88 0.67,-17.78 3.49,-28.9 -7.98,8 -13.41,17.39 -11.47,30.79 L 7.09,79.42 9.01,86.61 3.55,84.02 Z" id="path4" style="clip-rule:evenodd;fill:currentColor;fill-opacity:1;fill-rule:evenodd"/>
  </g>
</svg>
