<?xml version='1.0' encoding='UTF-8'?>
<svg xmlns:inkscape="http://www.inkscape.org/namespaces/inkscape" xmlns:sodipodi="http://sodipodi.sourceforge.net/DTD/sodipodi-0.dtd" xmlns="http://www.w3.org/2000/svg" xmlns:svg="http://www.w3.org/2000/svg" xmlns:rdf="http://www.w3.org/1999/02/22-rdf-syntax-ns#" xmlns:cc="http://creativecommons.org/ns#" xmlns:dc="http://purl.org/dc/elements/1.1/" width="64" height="64" version="1.1" viewBox="0 0 16.933 16.933" id="svg7" sodipodi:docname="steam_icon_424370.svg" inkscape:version="1.4 (e7c3feb100, 2024-10-09)">
  <sodipodi:namedview id="namedview7" pagecolor="#9c4444" bordercolor="#000000" borderopacity="0.25" inkscape:showpageshadow="2" inkscape:pageopacity="0.0" inkscape:pagecheckerboard="0" inkscape:deskcolor="#d1d1d1" inkscape:zoom="4.3531261" inkscape:cx="35.951175" inkscape:cy="39.741555" inkscape:window-width="1183" inkscape:window-height="941" inkscape:window-x="35" inkscape:window-y="32" inkscape:window-maximized="0" inkscape:current-layer="svg7" showgrid="false"/>
  <defs id="defs2">
    <style id="current-color-scheme" type="text/css">.ColorScheme-Text {color:#d8dee9} .ColorScheme-Highlight {color:#3b4252}</style></defs>
  <metadata id="metadata2">
    <rdf:RDF>
      <cc:Work rdf:about="">
        <dc:format>image/svg+xml</dc:format>
        <dc:type rdf:resource="http://purl.org/dc/dcmitype/StillImage"/>
      </cc:Work>
    </rdf:RDF>
  </metadata>
  <path style="fill:currentColor;fill-opacity:1;stroke-width:0.0733398" d="M 6.1127014,14.890475 C 6.0730608,14.838713 5.4698706,13.096711 4.7722788,11.019366 4.0273363,8.8010207 3.4176305,7.1045585 3.2948078,6.9084115 3.0524902,6.5214358 2.6791797,6.2906723 2.1798111,6.2191724 1.8168011,6.1671945 1.6518567,6.0005751 1.8433678,5.8793124 1.8996667,5.8436634 2.1885311,5.8139894 2.4852883,5.8133736 2.8856749,5.8126116 3.0161479,5.7886049 2.9911219,5.7205748 2.9725716,5.6701551 2.7837274,5.1059286 2.5714666,4.4667399 2.1415783,3.1722023 1.9422611,2.8594138 1.4654183,2.7310131 1.1357225,2.6422358 1.0543803,2.548092 1.1783289,2.3987425 1.2515872,2.3104742 1.5802813,2.2921411 3.0731392,2.2930683 c 0.9970812,6.169e-4 1.854951,0.031962 1.9150586,0.069968 0.059882,0.037865 0.5054223,1.2584578 0.9900843,2.7124303 C 6.462945,6.5294395 6.8924901,7.7244595 6.9328267,7.731065 6.9731637,7.737675 7.2281639,7.3669812 7.4994922,6.9073121 7.7708238,6.4476399 8.0427752,6.013204 8.1038271,5.9418987 8.2007571,5.8286929 8.3521283,5.8123928 9.2973135,5.8133732 c 0.5953631,4.714e-4 1.1285405,0.030286 1.1848405,0.065938 0.160905,0.1018818 0.04127,0.2807598 -0.22575,0.3375523 -0.3225694,0.068605 -0.5002468,0.2354573 -0.4988932,0.4684946 0.00131,0.2222133 0.7144152,1.2307649 0.8018782,1.134071 0.116293,-0.1285768 1.543887,-4.4093089 1.543887,-4.629464 0,-0.2514464 -0.161405,-0.457983 -0.357924,-0.457983 -0.07009,0 -0.190238,-0.045932 -0.267015,-0.1020737 -0.118605,-0.086726 -0.124881,-0.1198064 -0.04171,-0.2200194 0.08558,-0.1030978 0.34992,-0.1179482 2.099751,-0.1179482 1.101025,0 2.054067,0.020034 2.117873,0.044515 0.224557,0.086173 0.132677,0.3120208 -0.159011,0.3908767 -0.355591,0.096129 -0.580115,0.2570645 -0.71056,0.5093203 -0.08444,0.1633164 -2.208427,6.2402642 -3.136699,8.9744772 -0.158669,0.467349 -0.250961,0.640678 -0.339656,0.637887 -0.06716,-0.0021 -0.565945,-0.560654 -1.111885,-1.245097 -0.5445531,-0.6827 -1.0222111,-1.231318 -1.0614681,-1.219151 -0.039258,0.01223 -0.2609853,0.333195 -0.4927298,0.713393 -0.5668844,0.93003 -0.5701258,1.231961 -0.015287,1.422708 0.1934428,0.06652 0.2860275,0.142082 0.2860275,0.233495 0,0.119263 -0.081945,0.139479 -0.6967266,0.171836 l -0.6967222,0.03669 -0.5991388,0.988112 c -0.3295261,0.543462 -0.6298496,0.998351 -0.6673834,1.010864 -0.037538,0.01254 -0.100681,-0.01961 -0.1403226,-0.07136 z" id="path1151" class="ColorScheme-Text"/>
</svg>
