<?xml version='1.0' encoding='UTF-8'?>
<svg xmlns:inkscape="http://www.inkscape.org/namespaces/inkscape" xmlns:sodipodi="http://sodipodi.sourceforge.net/DTD/sodipodi-0.dtd" xmlns="http://www.w3.org/2000/svg" xmlns:svg="http://www.w3.org/2000/svg" xmlns:rdf="http://www.w3.org/1999/02/22-rdf-syntax-ns#" xmlns:cc="http://creativecommons.org/ns#" xmlns:dc="http://purl.org/dc/elements/1.1/" width="64" height="64" version="1.1" viewBox="0 0 16.933 16.933" id="svg7" sodipodi:docname="steam_icon_2623190.svg" inkscape:version="1.4 (e7c3feb100, 2024-10-09)">
  <sodipodi:namedview id="namedview7" pagecolor="#9c4444" bordercolor="#000000" borderopacity="0.25" inkscape:showpageshadow="2" inkscape:pageopacity="0.0" inkscape:pagecheckerboard="0" inkscape:deskcolor="#d1d1d1" inkscape:zoom="4.3531261" inkscape:cx="19.181618" inkscape:cy="27.451536" inkscape:window-width="1189" inkscape:window-height="932" inkscape:window-x="26" inkscape:window-y="32" inkscape:window-maximized="0" inkscape:current-layer="svg7" showgrid="false"/>
  <defs id="defs2">
    <style id="current-color-scheme" type="text/css">.ColorScheme-Text {color:#d8dee9} .ColorScheme-Highlight {color:#3b4252}</style></defs>
  <metadata id="metadata2">
    <rdf:RDF>
      <cc:Work rdf:about="">
        <dc:format>image/svg+xml</dc:format>
        <dc:type rdf:resource="http://purl.org/dc/dcmitype/StillImage"/>
      </cc:Work>
    </rdf:RDF>
  </metadata>
  <path style="fill:currentColor;stroke-width:0.0269831" d="m 10.046025,16.217805 c 0,-0.02225 -0.01822,-0.04047 -0.04048,-0.04047 -0.022259,0 -0.040476,-0.01683 -0.040476,-0.03758 0,-0.02066 -0.021245,-0.04585 -0.047222,-0.0559 -0.044976,-0.01738 -0.044976,-0.01996 0,-0.0531 0.025971,-0.01912 0.047222,-0.06075 0.047222,-0.09252 0,-0.03332 0.017114,-0.05772 0.040476,-0.05772 0.02698,0 0.04048,-0.02696 0.04048,-0.08093 0,-0.05399 0.0135,-0.08093 0.04047,-0.08093 0.02226,0 0.04048,-0.01831 0.04048,-0.04047 0,-0.02225 0.01822,-0.04045 0.04048,-0.04045 0.02698,0 0.04048,-0.02696 0.04048,-0.08093 0,-0.05399 0.0135,-0.08095 0.04048,-0.08095 0.02226,0 0.04047,-0.01831 0.04047,-0.04049 0,-0.02225 0.01131,-0.04046 0.02517,-0.04046 0.01384,0 0.033,-0.02466 0.04257,-0.05484 0.0096,-0.03016 0.0471,-0.08691 0.08341,-0.126073 0.03631,-0.03918 0.07311,-0.09952 0.08179,-0.134052 0.0087,-0.03455 0.02518,-0.06282 0.03667,-0.06282 0.0115,0 0.02758,-0.02551 0.03573,-0.05669 0.0081,-0.03121 0.02776,-0.04867 0.04363,-0.03889 0.01801,0.01113 0.0288,-0.01332 0.0288,-0.06472 0,-0.05538 0.01331,-0.08253 0.04047,-0.08253 0.02518,0 0.04047,-0.02551 0.04047,-0.06747 0,-0.04199 0.01528,-0.06747 0.04047,-0.06747 0.02698,0 0.04046,-0.02699 0.04046,-0.08095 0,-0.0485 0.01291,-0.07821 0.03222,-0.07422 0.01773,0.0037 0.04057,-0.02969 0.05078,-0.07423 0.01023,-0.04449 0.02016,-0.06883 0.02214,-0.05398 0.0074,0.05443 0.05592,-0.05628 0.05634,-0.128163 2.87e-4,-0.04778 0.01482,-0.07422 0.04089,-0.07422 0.02911,0 0.04046,-0.02975 0.04046,-0.105655 0,-0.05812 0.01278,-0.109945 0.02828,-0.115131 0.01562,-0.0051 0.03545,-0.07906 0.04424,-0.164137 0.0089,-0.08507 0.02492,-0.154721 0.03585,-0.154721 0.01089,0 0.02561,-0.06921 0.03264,-0.153788 0.0069,-0.08458 0.02673,-0.158441 0.0438,-0.164134 0.01702,-0.0056 0.03105,-0.0583 0.03105,-0.116886 0,-0.0698 0.01391,-0.111877 0.04046,-0.122066 0.02638,-0.01012 0.04047,-0.05207 0.04047,-0.120601 0,-0.07537 0.01125,-0.105039 0.04049,-0.105039 0.02924,0 0.04046,-0.02999 0.04046,-0.107932 0,-0.07797 0.01113,-0.107932 0.04047,-0.107932 0.02999,0 0.04049,-0.03148 0.04049,-0.121413 0,-0.08994 0.01023,-0.121414 0.04046,-0.121414 0.02989,0 0.04047,-0.03122 0.04047,-0.119173 0,-0.07009 0.01391,-0.124782 0.03371,-0.132768 0.02316,-0.0092 0.02104,-0.01436 -0.0068,-0.01611 -0.03597,-0.0022 -0.03597,-0.0054 0,-0.02821 0.05122,-0.03251 0.05576,-0.44122 0.0055,-0.491514 -0.04464,-0.04467 -0.04353,-0.39122 0.0013,-0.406141 0.02574,-0.0086 0.03582,-0.206735 0.04252,-0.837031 0.0075,-0.6925217 0.0022,-0.8402348 -0.03193,-0.915198 -0.02259,-0.049573 -0.04476,-0.19069 -0.04973,-0.316659 -0.0058,-0.1494681 -0.02036,-0.2310456 -0.04227,-0.2383506 -0.02505,-0.00835 -0.03332,-0.1544672 -0.03332,-0.5889956 0,-0.4956909 -0.0056,-0.5778893 -0.04047,-0.5778893 -0.03298,0 -0.04046,-0.044973 -0.04046,-0.2428488 0,-0.1978768 -0.0075,-0.2428489 -0.04049,-0.2428489 -0.03325,0 -0.04047,-0.047724 -0.04047,-0.2675828 0,-0.1900857 -0.0098,-0.2708371 -0.03372,-0.278818 -0.02285,-0.00761 -0.03685,-0.093265 -0.04331,-0.2653401 -0.0054,-0.1397556 -0.02139,-0.2614565 -0.03576,-0.270448 -0.01436,-0.00901 -0.03292,-0.066669 -0.04116,-0.12817 -0.0083,-0.061503 -0.02399,-0.111821 -0.03498,-0.111821 -0.01113,0 -0.02773,-0.048572 -0.03725,-0.1079331 -0.0095,-0.05936 -0.02927,-0.107932 -0.04393,-0.107932 -0.01465,0 -0.02665,-0.029366 -0.02665,-0.065254 0,-0.088354 -0.02737,-0.1535653 -0.05679,-0.1353765 -0.01318,0.00822 -0.02432,-0.025251 -0.02452,-0.074358 -5.44e-4,-0.1204785 -0.02746,-0.2133811 -0.05666,-0.1953254 -0.01318,0.00812 -0.02391,-0.028434 -0.02391,-0.081252 0,-0.067373 -0.01211,-0.096033 -0.04046,-0.096033 -0.02924,0 -0.04046,-0.029981 -0.04046,-0.1079331 0,-0.077952 -0.01125,-0.107932 -0.04047,-0.107932 -0.02698,0 -0.04048,-0.026982 -0.04048,-0.080949 0,-0.053965 -0.01349,-0.080949 -0.04047,-0.080949 -0.02936,0 -0.04047,-0.030192 -0.04047,-0.1098603 0,-0.061674 -0.01775,-0.127611 -0.04047,-0.1503346 -0.02225,-0.022261 -0.04047,-0.075022 -0.04047,-0.1172502 0,-0.042227 -0.01291,-0.081083 -0.02872,-0.08635 -0.01581,-0.00528 -0.03561,-0.06092 -0.04403,-0.1236711 -0.0085,-0.062754 -0.02453,-0.114097 -0.0358,-0.114097 -0.01125,0 -0.02812,-0.030357 -0.03743,-0.06746 -0.0093,-0.037102 -0.02884,-0.06746 -0.04341,-0.06746 -0.01455,0 -0.02648,-0.030736 -0.02648,-0.068304 0,-0.037569 -0.01823,-0.075296 -0.04048,-0.083838 -0.02226,-0.00853 -0.04048,-0.044969 -0.04048,-0.080949 0,-0.03598 -0.01822,-0.072409 -0.04047,-0.080949 -0.02226,-0.00853 -0.04048,-0.044969 -0.04048,-0.080949 0,-0.03598 -0.01822,-0.072409 -0.04048,-0.08095 -0.02226,-0.00853 -0.04047,-0.04459 -0.04047,-0.080103 0,-0.039408 -0.01577,-0.064576 -0.04047,-0.064576 -0.02226,0 -0.04048,-0.019078 -0.04048,-0.042403 0,-0.023321 -0.01822,-0.060618 -0.04047,-0.082877 -0.022259,-0.02226 -0.040478,-0.063892 -0.040478,-0.092513 0,-0.028621 -0.011313,-0.052039 -0.025169,-0.052039 -0.013837,0 -0.033477,-0.026177 -0.04363,-0.058178 C 9.886116,2.8384816 9.850758,2.7868796 9.8177,2.7558026 9.784645,2.7247286 9.749404,2.6659116 9.739391,2.6250984 c -0.01,-0.040812 -0.030115,-0.074205 -0.044672,-0.074205 -0.014553,0 -0.026472,-0.018219 -0.026472,-0.040477 0,-0.022257 -0.018219,-0.040475 -0.040474,-0.040475 -0.022263,0 -0.040476,-0.018219 -0.040476,-0.040477 0,-0.022256 -0.018219,-0.040473 -0.040475,-0.040473 -0.022261,0 -0.040477,-0.012165 -0.040477,-0.026984 0,-0.014832 -0.01859,-0.026982 -0.041325,-0.026982 -0.022725,0 -0.048311,-0.018219 -0.056849,-0.040473 -0.00853,-0.022256 -0.043716,-0.040474 -0.078175,-0.040474 -0.034453,0 -0.079059,-0.016406 -0.099118,-0.036469 -0.020159,-0.020008 -0.1024756,-0.042753 -0.1830227,-0.050492 -0.080546,-0.00774 -0.151011,-0.027754 -0.1565865,-0.044476 -0.00642,-0.019292 -0.092035,-0.030405 -0.2343566,-0.030405 -0.1744154,0 -0.2276716,0.009 -0.2397532,0.040475 -0.010274,0.026717 -0.052509,0.040476 -0.1243128,0.040476 -0.059829,0 -0.1087801,0.012015 -0.1087801,0.026664 0,0.014655 -0.047819,0.034313 -0.1062655,0.043656 -0.058446,0.00936 -0.1127066,0.033772 -0.1205741,0.054286 -0.00786,0.020512 -0.027766,0.037291 -0.044216,0.037291 -0.038394,0 -0.1876536,0.1485823 -0.1876536,0.1868077 0,0.015975 -0.018219,0.02906 -0.040476,0.02906 -0.022262,0 -0.040475,0.023416 -0.040475,0.052039 0,0.028621 -0.017609,0.069652 -0.039141,0.091183 -0.021527,0.021527 -0.047108,0.07088 -0.056847,0.1096755 -0.00972,0.038794 -0.028546,0.063825 -0.041805,0.055632 -0.013257,-0.00819 -0.024105,0.010098 -0.024105,0.040664 0,0.031395 -0.017592,0.055559 -0.040476,0.055559 -0.022261,0 -0.040476,0.018219 -0.040476,0.040475 0,0.02226 -0.018219,0.040477 -0.040476,0.040477 -0.022261,0 -0.040477,0.018219 -0.040477,0.040475 0,0.02226 -0.011894,0.040477 -0.026472,0.040477 -0.014553,0 -0.034087,0.030359 -0.043399,0.067459 -0.00933,0.037102 -0.033825,0.06746 -0.054482,0.06746 -0.020654,0 -0.03755,0.018219 -0.03755,0.040477 0,0.02226 -0.018219,0.040476 -0.040474,0.040476 -0.022263,0 -0.040477,0.013792 -0.040477,0.030635 0,0.016865 -0.028936,0.057451 -0.064304,0.09023 -0.035366,0.032778 -0.072615,0.085775 -0.082766,0.1177753 -0.010153,0.031997 -0.029791,0.058181 -0.043632,0.058181 -0.013837,0 -0.025166,0.01859 -0.025166,0.041319 0,0.022725 -0.018219,0.048311 -0.040476,0.05685 -0.02307,0.00884 -0.040476,0.049093 -0.040476,0.093592 0,0.051401 -0.01382,0.078064 -0.040476,0.078064 -0.029232,0 -0.040475,0.029982 -0.040475,0.1079331 0,0.077952 -0.011265,0.107932 -0.040476,0.107932 -0.026982,0 -0.040476,0.026984 -0.040476,0.08095 0,0.053966 -0.013499,0.080949 -0.040476,0.080949 -0.022262,0 -0.039038,0.0091 -0.037278,0.020239 0.010296,0.065392 -0.00844,0.1146802 -0.04367,0.1146802 -0.022263,0 -0.040476,0.018219 -0.040476,0.040475 0,0.022263 -0.012165,0.040476 -0.026984,0.040476 -0.014832,0 -0.026982,0.018219 -0.026982,0.040476 0,0.022261 -0.017253,0.040476 -0.038332,0.040476 -0.021082,0 -0.046333,0.036428 -0.056109,0.080949 -0.00978,0.04452 -0.028957,0.08095 -0.042618,0.08095 -0.01366,0 -0.024838,0.030734 -0.024838,0.068306 0,0.03757 -0.018219,0.075296 -0.040476,0.083838 -0.025074,0.0096 -0.040476,0.050691 -0.040476,0.107932 0,0.057243 -0.015397,0.098315 -0.040475,0.1079287 -0.024614,0.00943 -0.040476,0.050276 -0.040476,0.1042008 0,0.053922 -0.015864,0.094753 -0.040476,0.1042008 -0.025407,0.00975 -0.040476,0.051009 -0.040476,0.1108179 0,0.06671 -0.012138,0.095288 -0.040476,0.095288 -0.029043,0 -0.040475,0.029662 -0.040475,0.1050478 0,0.068478 -0.014113,0.1104512 -0.040477,0.120574 -0.029122,0.011156 -0.040475,0.056759 -0.040475,0.1625374 0,0.08689 -0.012725,0.1512413 -0.031063,0.1573612 -0.017097,0.0057 -0.036799,0.079562 -0.043816,0.1641474 -0.00703,0.084587 -0.022519,0.1537941 -0.034453,0.1537941 -0.011906,0 -0.030045,0.066782 -0.040245,0.1484084 -0.010175,0.081624 -0.029284,0.148407 -0.042416,0.148407 -0.013124,0 -0.023875,0.035561 -0.023875,0.079023 0,0.043463 -0.01651,0.095518 -0.036656,0.1156784 -0.020162,0.020162 -0.042502,0.1071433 -0.049646,0.1932933 -0.00714,0.08615 -0.028452,0.16619 -0.047347,0.177869 -0.027375,0.016919 -0.026878,0.024205 0.00243,0.03586 0.026115,0.010406 0.027003,0.015236 0.00306,0.01676 -0.049357,0.00311 -0.049357,2.7177436 0,2.7341366 0.024515,0.0082 0.036128,0.124765 0.042517,0.426903 0.00482,0.228635 0.019952,0.422601 0.033596,0.431032 0.013645,0.0085 0.032792,0.09358 0.042548,0.189214 0.00976,0.09562 0.026818,0.179952 0.037908,0.187374 0.011108,0.0074 0.027829,0.06206 0.037198,0.121426 0.00936,0.05936 0.028796,0.111974 0.043177,0.116935 0.014377,0.005 0.02614,0.0421 0.02614,0.08254 0,0.04045 0.017831,0.09712 0.039615,0.125926 0.02179,0.02882 0.040001,0.07971 0.040475,0.113086 4.977e-4,0.03558 0.017592,0.06073 0.041331,0.06073 0.026982,0 0.040477,0.02698 0.040477,0.08096 0,0.05398 0.013499,0.08095 0.040476,0.08095 0.026984,0 0.040475,0.02699 0.040475,0.08096 0,0.05398 0.013499,0.08095 0.040476,0.08095 0.022261,0 0.040476,0.01822 0.040476,0.04047 0,0.02225 0.011156,0.04051 0.024838,0.04051 0.01366,0 0.032839,0.03643 0.042619,0.08093 0.00979,0.04449 0.032443,0.08095 0.050367,0.08095 0.017928,0 0.034585,0.02652 0.037026,0.0589 0.00246,0.03239 0.023238,0.06943 0.046219,0.08229 0.022978,0.01305 0.041778,0.05313 0.041778,0.0895 0,0.03638 0.012165,0.06614 0.026982,0.06614 0.014832,0 0.026984,0.01831 0.026984,0.04045 0,0.02225 0.018219,0.04047 0.040476,0.04047 0.025316,0 0.040476,0.02557 0.040476,0.06832 0,0.03758 0.018219,0.0753 0.040476,0.08382 0.022261,0.0086 0.040476,0.04497 0.040476,0.08095 0,0.036 0.018219,0.07244 0.040475,0.08093 0.022263,0.0085 0.040477,0.04462 0.040477,0.08009 0,0.03942 0.015767,0.06458 0.040475,0.06458 0.026982,0 0.040476,0.02696 0.040476,0.08095 0,0.05397 0.013499,0.08093 0.040477,0.08093 0.026982,0 0.040476,0.02696 0.040476,0.08093 0,0.05399 0.013499,0.08093 0.040476,0.08093 0.026984,0 0.040476,0.02699 0.040476,0.08095 0,0.05398 0.013499,0.08093 0.040476,0.08093 0.025182,0 0.040474,0.0255 0.040474,0.06747 0,0.03712 0.010802,0.06746 0.024056,0.06746 0.01323,0 0.032285,0.03276 0.04234,0.07283 0.010065,0.04007 0.047798,0.100199 0.083876,0.133628 0.036073,0.03345 0.065594,0.07349 0.065594,0.08906 0,0.01562 0.018219,0.02828 0.040476,0.02828 0.024703,0 0.040477,0.02517 0.040477,0.06457 0,0.03549 0.01822,0.07154 0.040475,0.08009 0.022263,0.0085 0.040476,0.0341 0.040476,0.05685 0,0.02273 0.018219,0.04129 0.040476,0.04129 0.025182,0 0.040477,0.0255 0.040477,0.06745 0,0.042 0.015301,0.06747 0.040476,0.06747 0.026982,0 0.040476,0.02699 0.040476,0.08095 0,0.05399 -0.013499,0.08093 -0.040476,0.08093 -0.022261,0 -0.040476,0.01832 -0.040476,0.04045 0,0.02225 -0.018219,0.04048 -0.040477,0.04048 -0.022261,0 -0.040476,0.01831 -0.040476,0.04045 0,0.02924 -0.029985,0.04046 -0.1079331,0.04046 -0.077952,0 -0.1079309,-0.01125 -0.1079309,-0.04046 0,-0.02666 -0.026661,-0.04045 -0.078062,-0.04045 -0.044498,0 -0.08474,-0.01738 -0.093595,-0.04048 -0.00855,-0.02225 -0.034126,-0.04045 -0.05685,-0.04045 -0.022725,0 -0.041319,-0.01186 -0.041319,-0.02645 0,-0.01465 -0.030356,-0.03409 -0.06746,-0.04343 C 6.7303578,14.695012 6.7,14.670537 6.7,14.649912 c 0,-0.02066 -0.018219,-0.03754 -0.040476,-0.03754 -0.022261,0 -0.040476,-0.01831 -0.040476,-0.04049 0,-0.02225 -0.011894,-0.04045 -0.026471,-0.04045 -0.014553,0 -0.034087,-0.03034 -0.043401,-0.06747 -0.00931,-0.03709 -0.033829,-0.06747 -0.05448,-0.06747 -0.020654,0 -0.037551,-0.01362 -0.037551,-0.0306 0,-0.01684 -0.030356,-0.05879 -0.067457,-0.09315 -0.037103,-0.0344 -0.06746,-0.07524 -0.06746,-0.09078 0,-0.01547 -0.018219,-0.02828 -0.040476,-0.02828 -0.022261,0 -0.040475,-0.01831 -0.040475,-0.04045 0,-0.02225 -0.018219,-0.04046 -0.040477,-0.04046 -0.022262,0 -0.040476,-0.01831 -0.040476,-0.04045 0,-0.02225 -0.018219,-0.04048 -0.040475,-0.04048 -0.02287,0 -0.040476,-0.02418 -0.040476,-0.05554 0,-0.03057 -0.011798,-0.04829 -0.026192,-0.03937 -0.014407,0.0089 -0.033936,-0.01481 -0.043399,-0.05236 -0.00948,-0.03771 -0.034104,-0.06856 -0.054757,-0.06856 -0.020654,0 -0.037551,-0.01831 -0.037551,-0.04047 0,-0.02225 -0.018219,-0.04045 -0.040477,-0.04045 -0.022261,0 -0.040476,-0.01831 -0.040476,-0.04047 0,-0.02225 -0.018219,-0.04046 -0.040477,-0.04046 -0.022261,0 -0.040476,-0.01831 -0.040476,-0.04047 0,-0.02226 -0.018219,-0.04045 -0.040477,-0.04045 -0.022262,0 -0.040477,-0.01831 -0.040477,-0.04047 0,-0.02225 -0.018222,-0.04045 -0.040476,-0.04045 -0.022263,0 -0.037439,-0.01023 -0.033727,-0.02303 0.00372,-0.01265 -0.044857,-0.07339 -0.1079331,-0.134873 -0.063082,-0.06159 -0.114685,-0.124036 -0.114685,-0.138885 0,-0.01481 -0.018219,-0.02702 -0.040475,-0.02702 -0.022263,0 -0.040476,-0.01831 -0.040476,-0.04045 0,-0.02225 -0.018219,-0.04047 -0.040476,-0.04047 -0.022261,0 -0.040476,-0.01831 -0.040476,-0.04045 0,-0.02225 -0.014158,-0.04047 -0.03148,-0.04047 -0.017307,0 -0.023703,-0.0078 -0.014188,-0.01718 0.00952,-0.0095 -0.043112,-0.07489 -0.1169247,-0.145297 -0.073817,-0.0704 -0.1342111,-0.141549 -0.1342111,-0.158086 0,-0.01647 -0.018219,-0.03008 -0.040476,-0.03008 -0.022262,0 -0.040477,-0.01683 -0.040477,-0.03758 0,-0.02066 -0.018219,-0.04462 -0.040476,-0.05313 -0.022261,-0.0085 -0.040476,-0.03282 -0.040476,-0.05399 0,-0.02111 -0.018219,-0.0454 -0.040476,-0.05399 -0.022262,-0.0085 -0.040475,-0.04021 -0.040475,-0.07034 0,-0.03074 -0.017772,-0.0548 -0.040476,-0.0548 -0.026982,0 -0.040476,-0.02697 -0.040476,-0.08095 0,-0.05399 -0.013499,-0.08095 -0.040476,-0.08095 -0.029044,0 -0.040475,-0.02964 -0.040475,-0.105039 0,-0.0685 -0.014113,-0.110461 -0.040476,-0.120589 -0.023659,-0.0091 -0.040477,-0.0495 -0.040477,-0.09732 0,-0.04498 -0.010582,-0.08181 -0.023535,-0.08181 -0.012924,0 -0.031304,-0.0486 -0.040794,-0.107932 -0.00949,-0.05936 -0.029258,-0.107932 -0.043923,-0.107932 -0.014655,0 -0.026665,-0.03556 -0.026665,-0.07902 0,-0.04345 -0.017219,-0.09624 -0.038284,-0.117297 -0.021058,-0.02105 -0.042308,-0.07352 -0.047221,-0.116608 -0.00511,-0.04486 -0.023349,-0.07544 -0.042662,-0.07157 -0.02174,0.0042 -0.033729,-0.02614 -0.033729,-0.08577 0,-0.05089 -0.018219,-0.110727 -0.040476,-0.132988 -0.022259,-0.02226 -0.040476,-0.07169 -0.040476,-0.109857 0,-0.04369 -0.015009,-0.06939 -0.040475,-0.06939 -0.029043,0 -0.040476,-0.02966 -0.040476,-0.105039 0,-0.06849 -0.014113,-0.110451 -0.040476,-0.120576 -0.026464,-0.01012 -0.040476,-0.05218 -0.040476,-0.121423 0,-0.06923 -0.014012,-0.111271 -0.040476,-0.121424 -0.02652,-0.01023 -0.040474,-0.05226 -0.040474,-0.122063 0,-0.05859 -0.013983,-0.111189 -0.031062,-0.116884 -0.017042,-0.0058 -0.036751,-0.07962 -0.043769,-0.1642122 -0.00704,-0.084588 -0.02339,-0.1537925 -0.036395,-0.1537925 -0.013004,0 -0.02375,-0.051605 -0.023876,-0.114679 -3.497e-4,-0.1759349 -0.031693,-0.3983032 -0.054164,-0.3844164 -0.011059,0.00686 -0.025516,-0.062597 -0.032149,-0.1542835 -0.00677,-0.09352 -0.025943,-0.1713294 -0.043692,-0.1772457 -0.017715,-0.00591 -0.031628,-0.062126 -0.031628,-0.1277945 0,-0.068242 -0.016919,-0.1341658 -0.040476,-0.1577237 -0.028348,-0.028348 -0.040473,-0.097655 -0.040473,-0.2312844 0,-0.1516199 -0.00834,-0.1908085 -0.040473,-0.1908085 -0.031098,0 -0.040476,-0.034574 -0.040476,-0.1492542 0,-0.1077802 -0.011277,-0.1535718 -0.040473,-0.1647851 -0.034276,-0.01331 -0.040517,-0.1047211 -0.040517,-0.5929388 0,-0.5316169 0.00373,-0.5772836 0.047221,-0.5776642 0.040355,-3.575e-4 0.041334,-0.00421 0.00677,-0.026571 -0.026982,-0.01745 -0.029232,-0.026294 -0.00677,-0.026571 0.025782,-3.155e-4 0.03373,-0.1205838 0.03373,-0.5102066 0,-0.4069888 0.00746,-0.5126569 0.037002,-0.5239919 0.027334,-0.010493 0.038277,-0.082595 0.041883,-0.2760538 0.0035,-0.187324 0.015992,-0.2729737 0.043948,-0.3009214 0.025837,-0.025843 0.039068,-0.096678 0.039068,-0.2092264 0,-0.1080277 0.013004,-0.1809539 0.03562,-0.1997208 0.019591,-0.016247 0.03853,-0.093367 0.042089,-0.171356 0.00354,-0.077986 0.018807,-0.1494167 0.033884,-0.1587367 0.015057,-0.00933 0.034163,-0.067265 0.042415,-0.1287636 0.00825,-0.061504 0.023945,-0.1118209 0.034874,-0.1118209 0.010945,0 0.026623,-0.050316 0.034877,-0.111821 0.00825,-0.061503 0.02631,-0.1191813 0.040136,-0.12817 0.01382,-0.00902 0.033509,-0.061883 0.043745,-0.1175345 0.010241,-0.055653 0.030199,-0.1011879 0.044364,-0.1011879 0.014172,0 0.025926,-0.063746 0.026128,-0.1416606 4.413e-4,-0.1677223 0.023434,-0.2682378 0.056669,-0.2476981 0.013151,0.00815 0.023914,-0.021352 0.023914,-0.065514 0,-0.044161 -0.014655,-0.085181 -0.032571,-0.091154 -0.019929,-0.00674 -0.036797,-0.086028 -0.043502,-0.2047029 -0.00801,-0.1419811 -0.020951,-0.1937667 -0.048379,-0.1937667 -0.023603,0 -0.037432,-0.02991 -0.037432,-0.080949 0,-0.044523 -0.011918,-0.080949 -0.02647,-0.080949 -0.014553,0 -0.034086,-0.03036 -0.0434,-0.06746 -0.00933,-0.037102 -0.027757,-0.06746 -0.040992,-0.06746 -0.01323,0 -0.024059,-0.01859 -0.024059,-0.041319 0,-0.022725 -0.017114,-0.047891 -0.038039,-0.055916 -0.020923,-0.00801 -0.045439,-0.044078 -0.054482,-0.080103 -0.00903,-0.03603 -0.02835,-0.065505 -0.042909,-0.065505 -0.014553,0 -0.026471,-0.018219 -0.026471,-0.040476 0,-0.022256 -0.018219,-0.040474 -0.040473,-0.040474 -0.022256,0 -0.040473,-0.018219 -0.040473,-0.040473 0,-0.022256 -0.018219,-0.040474 -0.040476,-0.040474 -0.022256,0 -0.040473,-0.018219 -0.040473,-0.040473 0,-0.022256 -0.018219,-0.040476 -0.040476,-0.040476 -0.022256,0 -0.040473,-0.018219 -0.040473,-0.040473 0,-0.022256 -0.013719,-0.040473 -0.030544,-0.040473 -0.026457,0 -0.1148302,-0.086345 -0.2325428,-0.2271954 -0.049184,-0.058862 -0.044155,-0.2315189 0.00677,-0.2315189 0.022256,0 0.037655,-0.00914 0.034211,-0.020233 -0.0096,-0.031057 0.094763,-0.1416605 0.1336855,-0.1416605 0.01896,0 0.034477,-0.010813 0.034477,-0.024058 0,-0.01323 0.030359,-0.031676 0.067459,-0.04099 0.037102,-0.00933 0.06746,-0.028842 0.06746,-0.0434 0,-0.014553 0.030735,-0.026471 0.068304,-0.026471 0.037571,0 0.075295,-0.018219 0.083838,-0.040473 0.00961,-0.025076 0.050691,-0.040473 0.107932,-0.040473 0.057244,0 0.098315,-0.015397 0.1079331,-0.0404756 0.00891,-0.0232078 0.04919,-0.0404734 0.094439,-0.0404734 0.045252,0 0.085534,-0.0172744 0.094439,-0.0404734 0.013514,-0.035255 0.194256,-0.0404745 1.4000289,-0.0404745 1.0836134,0 1.3869415,0.007337 1.3957407,0.0337315 0.00778,0.0233849 0.080198,0.0337315 0.2361027,0.0337315 0.1559022,0 0.2283079,-0.01034 0.2361029,-0.0337315 0.00869,-0.026103 0.2185821,-0.0337315 0.9280146,-0.0337315 0.537902,0 0.9105553,0.010054 0.9017295,0.0243375 -0.00825,0.0133958 0.058789,0.032912 0.1490301,0.0433807 0.1865604,0.0216546 0.5104247,-0.005544 0.5104247,-0.0428846 0,-0.0144804 0.3004685,-0.0249942 0.7218,-0.0252054 0.713938,-3.5761e-4 0.856597,-0.010131 0.827836,-0.0566654 -0.0084,-0.0134838 0.157316,-0.0239162 0.379662,-0.0239162 0.219636,0 0.387951,0.010505 0.379793,0.0237017 -0.02784,0.0450736 0.156074,0.0572506 0.864809,0.0572506 0.614615,0 0.711678,0.0055 0.711678,0.0404745 0,0.0222585 0.01831,0.0404734 0.04047,0.0404734 0.02226,0 0.04046,0.0182193 0.04046,0.0404767 0,0.0222629 0.01831,0.0404734 0.04051,0.0404734 0.02675,0 0.04046,0.026768 0.04046,0.079022 0,0.043464 -0.01831,0.097237 -0.04046,0.1194972 -0.02226,0.02226 -0.04051,0.053484 -0.04051,0.069386 0,0.015913 -0.01831,0.028911 -0.04046,0.028911 -0.02226,0 -0.04047,0.018219 -0.04047,0.040473 0,0.02226 -0.01832,0.040473 -0.04051,0.040473 -0.02226,0 -0.04047,0.018219 -0.04047,0.040476 0,0.02226 -0.01831,0.040473 -0.04047,0.040473 -0.02226,0 -0.04046,0.018219 -0.04046,0.040476 0,0.022262 -0.01831,0.040474 -0.0405,0.040474 -0.02226,0 -0.04046,0.018219 -0.04046,0.040473 0,0.02226 -0.01831,0.040475 -0.04047,0.040475 -0.02225,0 -0.04047,0.013806 -0.04047,0.030631 0,0.016848 -0.02896,0.057451 -0.06429,0.090229 -0.03532,0.032777 -0.07262,0.085775 -0.08277,0.1177753 -0.01012,0.031997 -0.02978,0.058181 -0.04364,0.058181 -0.0139,0 -0.02517,0.018219 -0.02517,0.040474 0,0.022256 -0.01831,0.040476 -0.04047,0.040476 -0.02225,0 -0.04049,0.01859 -0.04049,0.041318 0,0.022735 -0.01832,0.048311 -0.04046,0.05685 -0.02225,0.00855 -0.04047,0.04459 -0.04047,0.080101 0,0.039405 -0.0158,0.06457 -0.04049,0.06457 -0.02469,0 -0.04046,0.025168 -0.04046,0.064571 0,0.035515 -0.01831,0.071559 -0.04047,0.080101 -0.02674,0.010263 -0.04049,0.052511 -0.04049,0.1243128 0,0.05983 -0.01211,0.1087801 -0.02699,0.1087801 -0.01481,0 -0.02699,0.018219 -0.02699,0.040476 0,0.022256 0.01211,0.040475 0.02699,0.040475 0.01481,0 0.02699,0.054641 0.02699,0.121423 0,0.089945 0.01023,0.1214258 0.04049,0.1214258 0.02532,0 0.04047,0.025579 0.04047,0.068306 0,0.037569 0.01832,0.075295 0.04046,0.083838 0.02225,0.00853 0.04049,0.04459 0.04049,0.080101 0,0.039406 0.0158,0.06457 0.04047,0.06457 0.02225,0 0.04046,0.019078 0.04046,0.042404 0,0.023321 0.01831,0.060618 0.04049,0.082877 0.02225,0.022257 0.04047,0.070832 0.04047,0.107932 0,0.037102 0.01831,0.085668 0.04046,0.1079331 0.02225,0.022263 0.04049,0.082106 0.04049,0.1329883 0,0.05088 0.01137,0.09251 0.02502,0.09251 0.01362,0 0.0334,0.066783 0.04359,0.1484068 0.01023,0.081627 0.02928,0.1484086 0.04242,0.1484086 0.01332,0 0.02386,0.035561 0.02386,0.079023 0,0.043462 0.01831,0.097236 0.04051,0.1194972 0.02397,0.023984 0.04049,0.089946 0.04049,0.1618994 0,0.071955 0.01665,0.1379139 0.04051,0.1618994 0.03034,0.030338 0.04047,0.105149 0.04047,0.2987422 0,0.2115824 0.0071,0.2582678 0.04046,0.2582678 0.03236,0 0.04047,0.040476 0.04047,0.2023735 0,0.1299654 0.01078,0.2023737 0.02989,0.2023737 0.01648,0 0.02265,0.018844 0.01362,0.041875 -0.0093,0.024011 -0.0046,0.034846 0.01045,0.025387 0.01648,-0.010219 0.02669,0.05129 0.02669,0.1620906 0,0.098216 0.01078,0.1719231 0.02394,0.1637951 0.03311,-0.020449 0.05624,0.079775 0.05667,0.24545 2.6e-4,0.087275 0.01305,0.1436107 0.03411,0.1506359 0.02515,0.00835 0.03604,0.1534204 0.04287,0.5690046 0.0055,0.3262204 0.0193,0.5514744 0.0337,0.5425888 0.01436,-0.00882 0.02459,0.1260577 0.02459,0.3220962 0,0.1957534 -0.0115,0.3442877 -0.02697,0.353966 -0.01595,0.00981 -0.02699,0.1706422 -0.02699,0.3912561 0,0.2206131 0.01113,0.3814338 0.02699,0.3912561 0.0158,0.00979 0.02697,0.1672052 0.02697,0.3809488 0,0.2359775 -0.0096,0.3583992 -0.02697,0.3475967 -0.01702,-0.010516 -0.02699,0.053044 -0.02699,0.1718697 0,0.1316177 -0.01211,0.2007687 -0.04046,0.2290225 -0.02273,0.02272 -0.0405,0.08866 -0.0405,0.150336 0,0.07966 -0.01113,0.109857 -0.04046,0.109857 -0.0311,0 -0.0405,0.03457 -0.0405,0.149254 0,0.107778 -0.01125,0.153572 -0.04046,0.164786 -0.03292,0.01262 -0.04047,0.07726 -0.04047,0.347046 0,0.269788 -0.0076,0.334409 -0.04049,0.347048 -0.0306,0.01174 -0.0405,0.06125 -0.0405,0.203013 0,0.115821 -0.01174,0.191378 -0.03061,0.197684 -0.0196,0.0064 -0.03558,0.13073 -0.04444,0.34541 -0.0095,0.230166 -0.02528,0.346657 -0.05031,0.371736 -0.02009,0.02009 -0.03655,0.07816 -0.03655,0.129028 0,0.05086 -0.01186,0.0925 -0.02666,0.0925 -0.01481,0 -0.03444,0.04856 -0.04392,0.107932 -0.0096,0.05938 -0.02784,0.107932 -0.0408,0.107932 -0.01305,0 -0.02354,0.01831 -0.02354,0.04048 0,0.02225 -0.01831,0.04045 -0.04047,0.04045 -0.02226,0 -0.04049,0.0234 -0.04049,0.05204 0,0.02866 -0.01647,0.06864 -0.0369,0.08895 -0.02032,0.02031 -0.0454,0.06369 -0.05578,0.09637 -0.01023,0.03273 -0.03021,0.05944 -0.04406,0.05944 -0.01392,0 -0.02516,0.03643 -0.02516,0.08095 0,0.05398 -0.01332,0.08093 -0.04046,0.08093 -0.02699,0 -0.04047,0.02699 -0.04047,0.08095 0,0.05399 -0.01332,0.08093 -0.04048,0.08093 -0.02698,0 -0.04046,0.02699 -0.04046,0.08093 0,0.04449 -0.01186,0.08093 -0.02647,0.08093 -0.01465,0 -0.03483,0.03328 -0.04503,0.07392 -0.01012,0.04069 -0.03473,0.09007 -0.05445,0.109857 -0.01973,0.01975 -0.03591,0.05327 -0.03591,0.07446 0,0.02121 -0.01832,0.03856 -0.04049,0.03856 -0.02225,0 -0.04047,0.01831 -0.04047,0.04047 0,0.02225 -0.01211,0.04045 -0.02699,0.04045 -0.01498,0 -0.02699,0.01831 -0.02699,0.04047 0,0.02225 -0.01831,0.04045 -0.04047,0.04045 -0.02226,0 -0.04047,0.01831 -0.04047,0.04047 0,0.02225 -0.01831,0.04045 -0.04046,0.04045 -0.02226,0 -0.04047,0.01831 -0.04047,0.04045 0,0.02225 -0.01832,0.04046 -0.04047,0.04046 -0.02517,0 -0.04046,0.02551 -0.04046,0.06746 0,0.04198 -0.01531,0.06747 -0.04048,0.06747 -0.02249,0 -0.04047,0.02398 -0.04047,0.05399 0,0.02999 -0.01792,0.05399 -0.04046,0.05399 -0.02516,0 -0.04048,0.02551 -0.04048,0.06746 0,0.042 -0.0153,0.06747 -0.04047,0.06747 -0.02226,0 -0.04047,0.01291 -0.04047,0.02828 0,0.01547 -0.03036,0.05641 -0.06747,0.09078 -0.03709,0.0344 -0.06747,0.07631 -0.06747,0.09315 0,0.01683 -0.01831,0.03061 -0.04047,0.03061 -0.02225,0 -0.04049,0.01831 -0.04049,0.04047 0,0.02225 -0.01831,0.04045 -0.04046,0.04045 -0.02226,0 -0.04047,0.01831 -0.04047,0.04049 0,0.02225 -0.01831,0.04045 -0.04047,0.04045 -0.02226,0 -0.04046,0.01831 -0.04046,0.04046 0,0.02225 -0.01362,0.04047 -0.03063,0.04047 -0.01684,0 -0.05876,0.03034 -0.09315,0.06747 -0.03439,0.03708 -0.07524,0.06746 -0.09078,0.06746 -0.01562,0 -0.02829,0.01831 -0.02829,0.04045 0,0.02225 -0.01822,0.04049 -0.04046,0.04049 -0.02225,0 -0.04046,0.01831 -0.04046,0.04047 0,0.02226 -0.01822,0.04046 -0.04046,0.04046 -0.02225,0 -0.04046,0.01832 -0.04046,0.04045 0,0.02517 -0.02548,0.04049 -0.06747,0.04049 -0.04198,0 -0.06747,0.01531 -0.06747,0.04045 0,0.02225 -0.01821,0.04047 -0.04046,0.04047 -0.02225,0 -0.04046,0.01831 -0.04046,0.04045 0,0.02225 -0.01821,0.04046 -0.04046,0.04046 -0.02225,0 -0.04047,0.01831 -0.04047,0.04045 0,0.02225 -0.01822,0.04048 -0.04047,0.04048 -0.02225,0 -0.04048,0.01186 -0.04048,0.02695 0,0.01481 -0.01835,0.02699 -0.04073,0.02699 -0.0224,0 -0.06152,0.0243 -0.08694,0.05399 -0.02542,0.02969 -0.05729,0.05399 -0.07084,0.05399 -0.01357,0 -0.05277,0.03034 -0.08715,0.06746 -0.03432,0.03708 -0.08732,0.06745 -0.117697,0.06745 -0.03113,0 -0.05525,0.01773 -0.05525,0.04045 0,0.02699 -0.02698,0.04048 -0.08095,0.04048 -0.05397,0 -0.08095,0.01332 -0.08095,0.04045 0,0.02225 -0.01822,0.04049 -0.04047,0.04049 -0.02226,0 -0.04048,-0.01832 -0.04048,-0.04049 z M 8.6563918,8.8918736 c -0.00919,-0.014832 -0.064531,-0.026982 -0.123019,-0.026982 -0.076534,0 -0.1063425,-0.011313 -0.1063425,-0.040476 0,-0.022261 -0.018219,-0.040475 -0.040476,-0.040475 -0.022261,0 -0.040477,-0.018219 -0.040477,-0.040476 0,-0.022262 -0.018219,-0.040475 -0.040475,-0.040475 -0.022263,0 -0.040476,-0.018219 -0.040476,-0.040475 0,-0.022263 -0.018219,-0.040476 -0.040475,-0.040476 -0.025182,0 -0.040477,-0.025482 -0.040477,-0.06746 0,-0.041973 -0.015301,-0.067459 -0.040476,-0.067459 -0.022485,0 -0.040475,-0.023984 -0.040475,-0.053967 0,-0.029681 -0.011313,-0.053967 -0.025166,-0.053967 -0.013837,0 -0.033658,-0.026754 -0.044033,-0.059455 -0.010384,-0.032699 -0.035481,-0.076065 -0.055785,-0.096369 -0.020304,-0.020306 -0.036914,-0.060333 -0.036914,-0.088955 0,-0.028624 -0.018219,-0.052041 -0.040475,-0.052041 -0.025182,0 -0.040476,-0.025484 -0.040476,-0.06746 0,-0.037102 -0.011894,-0.067459 -0.026472,-0.067459 -0.014553,0 -0.034643,-0.033392 -0.044628,-0.074203 -0.00999,-0.04081 -0.03147,-0.082896 -0.047737,-0.093523 -0.037013,-0.024178 -0.032353,-1.0733613 0.00488,-1.0975777 0.013851,-0.00903 0.031715,-0.075576 0.039662,-0.1479046 0.00796,-0.072332 0.026956,-0.1392329 0.042237,-0.1486806 0.015268,-0.00942 0.036134,-0.050441 0.046339,-0.091102 0.010197,-0.040664 0.029386,-0.073934 0.042614,-0.073934 0.01323,0 0.024058,-0.018219 0.024058,-0.040477 0,-0.022263 0.018219,-0.040476 0.040476,-0.040476 0.022262,0 0.040475,-0.018219 0.040475,-0.040476 0,-0.024702 0.02516,-0.040476 0.064576,-0.040476 0.035514,0 0.071559,-0.018219 0.080101,-0.040477 0.00853,-0.022261 0.028923,-0.040476 0.045287,-0.040476 0.016369,0 0.04797,-0.018219 0.070232,-0.040474 0.026037,-0.026037 0.092727,-0.040477 0.1869539,-0.040477 0.098977,0 0.1466144,-0.010945 0.1468931,-0.033729 3.012e-4,-0.024698 0.00667,-0.023883 0.023718,0.00306 0.019672,0.031055 0.025915,0.031055 0.040065,0 0.012991,-0.028486 0.020307,-0.029174 0.032494,-0.00306 0.0091,0.019517 0.065956,0.033729 0.1349153,0.033729 0.095356,0 0.1192576,0.00942 0.1195916,0.047219 3.541e-4,0.040355 0.0042,0.041336 0.026572,0.00675 0.017433,-0.026982 0.026294,-0.029232 0.026571,-0.00675 2.153e-4,0.018552 0.019001,0.033729 0.041731,0.033729 0.022725,0 0.048311,0.018219 0.05685,0.040477 0.00855,0.022261 0.0389,0.040476 0.06746,0.040476 0.02856,0 0.058916,0.018219 0.06746,0.040476 0.00853,0.022262 0.032447,0.040477 0.053121,0.040477 0.020672,0 0.037588,0.018219 0.037588,0.040476 0,0.022261 0.018219,0.040476 0.040476,0.040476 0.025182,0 0.040475,0.025481 0.040475,0.06746 0,0.041973 0.015283,0.067459 0.040477,0.067459 0.022262,0 0.040475,0.016919 0.040475,0.037589 0,0.020673 0.018219,0.044576 0.040476,0.053119 0.022261,0.00854 0.040475,0.034126 0.040475,0.056849 0,0.022727 0.011894,0.041325 0.026471,0.041325 0.014553,0 0.034086,0.030356 0.043399,0.06746 0.00931,0.037102 0.02644,0.067457 0.038066,0.067457 0.011616,0 0.029484,0.033271 0.039689,0.073934 0.010197,0.040664 0.028201,0.080126 0.039988,0.087694 0.01181,0.00759 0.028751,0.074376 0.037699,0.1484664 0.00893,0.074086 0.028693,0.138845 0.043886,0.1439108 0.036687,0.012232 0.036687,0.4828883 0,0.4951175 -0.015202,0.00508 -0.034895,0.069821 -0.043782,0.1439109 -0.00889,0.074086 -0.026814,0.1387498 -0.039833,0.1436956 -0.013017,0.00495 -0.023675,0.037838 -0.023675,0.073096 0,0.084328 -0.085281,0.2536925 -0.12817,0.2545366 -0.018551,3.687e-4 -0.033729,0.031021 -0.033729,0.068122 0,0.041973 -0.015283,0.06746 -0.040476,0.06746 -0.022262,0 -0.040475,0.018219 -0.040475,0.040475 0,0.022263 -0.018219,0.040476 -0.040475,0.040476 -0.022262,0 -0.040477,0.018219 -0.040477,0.040475 0,0.022262 -0.018219,0.040476 -0.040476,0.040476 -0.022261,0 -0.040474,0.018219 -0.040474,0.040475 0,0.022262 -0.016919,0.040475 -0.037587,0.040475 -0.020675,0 -0.044578,0.018219 -0.05312,0.040476 -0.00852,0.022262 -0.040197,0.040477 -0.070346,0.040477 -0.030733,0 -0.054813,0.017772 -0.054813,0.040475 0,0.026983 -0.026982,0.040476 -0.080949,0.040476 -0.053967,0 -0.080949,0.013499 -0.080949,0.040475 0,0.030644 -0.033158,0.040477 -0.1365098,0.040477 -0.084132,0 -0.1301092,0.010351 -0.1198324,0.026983 0.00917,0.014832 0.00452,0.026982 -0.010285,0.026982 -0.014832,0 -0.034489,-0.012165 -0.043661,-0.026982 z" id="path99" class="ColorScheme-Text"/>
</svg>
