<?xml version="1.0" encoding="UTF-8" standalone="no"?>
<svg
   width="64"
   height="64"
   version="1.1"
   viewBox="0 0 16.933 16.933"
   id="svg7"
   sodipodi:docname="steam_icon_2525380.svg"
   inkscape:version="1.4.2 (ebf0e940d0, 2025-05-08)"
   xmlns:inkscape="http://www.inkscape.org/namespaces/inkscape"
   xmlns:sodipodi="http://sodipodi.sourceforge.net/DTD/sodipodi-0.dtd"
   xmlns="http://www.w3.org/2000/svg"
   xmlns:svg="http://www.w3.org/2000/svg"
   xmlns:rdf="http://www.w3.org/1999/02/22-rdf-syntax-ns#"
   xmlns:cc="http://creativecommons.org/ns#"
   xmlns:dc="http://purl.org/dc/elements/1.1/">
  <sodipodi:namedview
     id="namedview7"
     pagecolor="#9c4444"
     bordercolor="#000000"
     borderopacity="0.25"
     inkscape:showpageshadow="2"
     inkscape:pageopacity="0.0"
     inkscape:pagecheckerboard="0"
     inkscape:deskcolor="#d1d1d1"
     inkscape:zoom="4.3531262"
     inkscape:cx="89.935366"
     inkscape:cy="34.457995"
     inkscape:window-width="2560"
     inkscape:window-height="1388"
     inkscape:window-x="0"
     inkscape:window-y="0"
     inkscape:window-maximized="1"
     inkscape:current-layer="svg7"
     showgrid="false" />
  <defs
     id="defs2">
    <style
       id="current-color-scheme"
       type="text/css">.ColorScheme-Text {color:#d8dee9} .ColorScheme-Highlight {color:#3b4252}</style>
  </defs>
  <metadata
     id="metadata2">
    <rdf:RDF>
      <cc:Work
         rdf:about="">
        <dc:format>image/svg+xml</dc:format>
        <dc:type
           rdf:resource="http://purl.org/dc/dcmitype/StillImage" />
      </cc:Work>
    </rdf:RDF>
  </metadata>
  <path
     id="path5"
     style="opacity:1;fill:currentColor;stroke-width:0.00554278;paint-order:fill markers stroke"
     d="m 1.047449,3.4106857 2.6281766,0.00222 c 1.2561955,0.00105 0.8678875,0.020137 1.1904116,0.026475 h 0.2129477 v 0.00476 c 0.1875417,0.00751 1.1255673,0.00127 1.0529076,0.023417 -0.4845909,0.1478029 -0.708956,0.3668139 -0.8774299,0.8564912 -0.073499,0.213625 -0.06733,0.415313 0.021152,0.6896163 0.1146385,0.3554134 0.3015474,0.5557703 0.670104,0.7183587 0.2047503,0.090323 0.2316325,0.094842 0.5728837,0.096302 0.3114876,0.00138 0.3804428,-0.0073 0.5299568,-0.066335 0.305598,-0.1207155 0.673125,-0.4692932 0.673125,-0.6383819 0,-0.024062 0.025808,-0.076504 0.05732,-0.1165654 0.07188,-0.091381 0.076769,-0.3342833 0.012338,-0.6121155 C 7.6730701,3.8849522 7.3891377,3.5982549 6.8623437,3.4568272 6.7215499,3.4190302 7.1929383,3.4143321 11.295145,3.412639 l 4.590319,-0.0019 z m 14.838007,0 -0.002,3.544797 -0.002,3.5447973 -0.05753,-0.128901 c -0.03163,-0.0709 -0.07433,-0.174004 -0.09492,-0.229145 C 15.638656,9.9000993 15.419103,9.3760234 15.34079,9.2155015 15.29377,9.1191155 15.25531,9.0259558 15.25531,9.0084699 c 0,-0.017491 -0.02581,-0.055151 -0.05732,-0.083668 -0.0774,-0.070049 -0.07278,-0.086927 0.03583,-0.1315456 0.12963,-0.053257 0.322447,-0.2559847 0.369124,-0.388089 0.06257,-0.1770724 0.0534,-0.9555549 -0.0136,-1.1560874 C 15.482233,6.9285296 15.235082,6.6424227 14.980403,6.5441907 14.855569,6.496045 14.75707,6.4900242 14.095169,6.4900242 h -0.744793 l 0.0087,0.8736533 c 0.0048,0.480517 0.01454,1.1701545 0.02178,1.5325125 0.0072,0.3623569 0.013,0.7365059 0.01283,0.8314833 l -2.79e-4,0.172707 0.193351,0.04934 c 0.106345,0.02713 0.257832,0.05685 0.336605,0.06609 0.07877,0.0092 0.192399,0.03527 0.252516,0.05782 0.06012,0.02256 0.121842,0.03322 0.137169,0.02374 0.01586,-0.0098 0.02578,-0.1549917 0.02299,-0.3370647 -0.0026,-0.1759321 -0.0026,-0.4294439 1.24e-4,-0.5633587 l 0.0051,-0.2434943 0.04301,0.114593 c 0.02366,0.063023 0.06726,0.1872623 0.09684,0.2761403 0.0296,0.088874 0.06613,0.1855534 0.08123,0.2148354 0.0151,0.029279 0.04047,0.10482 0.05636,0.1678413 0.03786,0.150254 0.08758,0.2918217 0.145644,0.4144827 0.04248,0.08976 0.06925,0.105833 0.276224,0.166078 0.330879,0.0963 0.464352,0.135648 0.66574,0.196289 l 0.178793,0.05384 2.52e-4,1.48237 1.96e-4,1.482371 z m 0,10.1116113 -0.350871,-0.0038 c -0.251776,-0.0028 -0.314501,-0.0095 -0.222012,-0.02417 0.17627,-0.02783 0.258903,-0.06648 0.347389,-0.162471 0.111966,-0.12146 0.136813,-0.185116 0.157015,-0.402482 0.01558,-0.167638 0.0092,-0.215296 -0.04225,-0.31617 -0.07219,-0.141488 -0.204729,-0.24806 -0.361906,-0.290994 -0.06302,-0.01722 -0.258313,-0.03139 -0.434037,-0.03147 l -0.319526,-1.26e-4 -0.01951,0.293596 c -0.01073,0.161485 -0.01517,0.438662 -0.0099,0.615934 l 0.0095,0.32217 z M 5.0789849,3.4440861 c -0.037935,-0.00148 -0.1552534,-0.0036 -0.2129477,-0.00476 H 4.1660563 c -0.5021222,0 -0.9136883,0.00963 -0.9145644,0.02148 -8.761e-4,0.011819 -0.00444,0.1675755 -0.00794,0.3461292 -0.00741,0.376279 -0.015936,0.3641093 0.2775254,0.3941744 l 0.1903732,0.019512 V 5.0203 5.819935 l 0.4458691,-0.00624 0.445868,-0.00624 -0.00899,-0.7806698 c -0.00497,-0.4293736 0.0018,-0.7913867 0.01511,-0.8045024 0.013259,-0.01311 0.1246782,-0.021248 0.2476062,-0.018041 l 0.2235229,0.00582 -6.719e-4,-0.3853632 z m 3.3111636,0.00571 c -0.096492,0.00561 -0.1242032,0.055775 -0.1242032,0.1792955 0,0.051087 -0.038844,0.322577 -0.086313,0.603262 -0.047468,0.280689 -0.1178595,0.7101081 -0.1564268,0.954305 -0.038569,0.2441969 -0.078377,0.4843549 -0.08845,0.5336497 l -0.018338,0.089625 0.3537247,0.00317 c 0.1945444,0.00169 0.3770355,-0.00423 0.4055452,-0.013301 0.077583,-0.024623 0.1059659,-0.130789 0.1367485,-0.5114943 0.042717,-0.5283166 0.060378,-0.6745101 0.081488,-0.6745101 0.010645,0 0.048146,0.09991 0.083287,0.2220118 0.035141,0.1220984 0.1182691,0.3926475 0.1847503,0.6012473 L 9.2828484,5.8163394 9.497685,5.8161722 c 0.11816,-8.57e-5 0.228509,-0.00963 0.245216,-0.021237 0.01671,-0.011576 0.06025,-0.1176987 0.0968,-0.2358588 0.158278,-0.5117143 0.267615,-0.8192889 0.305135,-0.8583377 0.04439,-0.046199 0.04154,-0.05278 0.05572,0.127895 0.0847,1.079211 0.07887,1.032806 0.125922,1.0037292 0.01493,-0.00921 0.202186,-0.018295 0.416161,-0.020179 0.342489,-0.00307 0.387576,-0.00899 0.376634,-0.049511 -0.0069,-0.025332 -0.02697,-0.1362755 -0.04473,-0.2465576 -0.01777,-0.1102832 -0.04479,-0.2713955 -0.06008,-0.3580461 -0.07522,-0.4260447 -0.111217,-0.6560042 -0.183828,-1.1744664 -0.02537,-0.181179 -0.05587,-0.3745309 -0.06772,-0.429672 L 10.741395,3.453682 H 10.298547 9.855742 l -0.0754,0.2864625 C 9.674202,4.1433939 9.5357232,4.6139506 9.517958,4.6317148 9.5015673,4.6481055 9.4740238,4.5549568 9.3051362,3.9126852 9.1763354,3.4228597 9.1891485,3.4355469 8.8531828,3.4666066 c -0.094524,0.00878 -0.2484507,0.00487 -0.3420596,-0.00847 -0.048971,-0.00698 -0.08881,-0.010158 -0.1209705,-0.00825 z m 3.0669125,0.00265 c -0.05967,0.014327 -0.06012,0.022422 -0.06626,1.1899491 l -0.0061,1.1754738 0.166497,-0.010581 c 0.09158,-0.00582 0.230977,-0.00286 0.30975,0.00667 0.07878,0.00952 0.336564,0.012677 0.572883,0.00709 0.378444,-0.00899 0.450164,-0.018634 0.601541,-0.081276 0.09452,-0.03912 0.226638,-0.124238 0.293596,-0.1891564 l 0.121768,-0.1180341 -4.2e-5,-0.2160111 c -4.3e-5,-0.1611324 -0.0143,-0.2415177 -0.0561,-0.3162958 -0.03083,-0.05514 -0.06457,-0.1228149 -0.07494,-0.1503859 -0.01037,-0.027565 -0.03637,-0.050146 -0.05777,-0.050146 -0.02142,0 -0.08031,-0.025163 -0.130916,-0.055934 l -0.09202,-0.055976 0.07158,-0.027237 c 0.03938,-0.014973 0.114307,-0.075806 0.166456,-0.1351961 0.09142,-0.1041217 0.0943,-0.1149073 0.08102,-0.3004766 -0.02385,-0.3329035 -0.156363,-0.5169882 -0.451569,-0.6273508 -0.101169,-0.037818 -1.321524,-0.075806 -1.449346,-0.045109 z m 0.761871,0.58845 h 0.123153 c 0.148024,0 0.191926,0.037501 0.191926,0.1639799 0,0.1049681 -0.0705,0.1510991 -0.23099,0.1510991 -0.08281,0 -0.08409,-0.00243 -0.08409,-0.1575601 z M 6.5131003,4.1870012 c 0.066547,0.00138 0.1358491,0.018602 0.2042625,0.0535 0.1575072,0.080356 0.2309066,0.2128779 0.2309066,0.4169171 0,0.280667 -0.1724641,0.4433094 -0.4701218,0.4433094 -0.147459,0 -0.1653883,-0.00772 -0.2709373,-0.1176151 C 6.0788212,4.8494972 6.0459996,4.7333106 6.0861975,4.5544055 6.1385017,4.3216133 6.3134493,4.1829062 6.5131003,4.1870012 Z m 5.7058317,0.6774889 0.162303,0.01347 c 0.16245,0.01347 0.26737,0.084006 0.26737,0.1797991 0,0.095794 -0.104915,0.1663703 -0.26737,0.1798416 l -0.162303,0.01347 V 5.0577605 Z M 8.181774,6.4679989 8.1808217,7.933501 8.1798979,9.3990032 8.5595122,9.3894832 c 0.3175021,-0.00794 0.566502,4.751e-4 0.9502716,0.032104 0.030284,0.00254 0.1656282,-0.016158 0.3007722,-0.041458 0.4739,-0.088726 0.745648,-0.345106 0.937809,-0.8847734 0.07036,-0.1975973 0.05017,-0.7257467 -0.04108,-1.0743901 C 10.636138,7.1491722 10.384906,6.8331895 10.129401,6.6941269 9.797505,6.5134875 9.71765,6.4995803 8.9185127,6.4831515 Z m 2.919716,0.00423 0.01163,1.5179937 c 0.0063,0.8348924 0.02044,1.5323611 0.0313,1.5499264 0.01333,0.021576 0.03097,0.022623 0.05434,0.00328 0.03281,-0.027237 0.391008,0.0054 0.448386,0.040908 0.05271,0.03257 0.344278,0.07734 0.571792,0.087784 0.139922,0.00645 0.310477,0.034813 0.401014,0.066759 0.08665,0.03058 0.206212,0.0565 0.265691,0.05762 l 0.108175,0.002 -0.0079,-0.451157 -0.0079,-0.4511556 -0.15756,-0.019047 c -0.524336,-0.063372 -0.674777,-0.089212 -0.693854,-0.1192087 -0.03386,-0.053225 -0.02569,-0.2143032 0.01204,-0.2376205 0.0465,-0.028739 0.281018,-0.014465 0.524251,0.031892 0.110282,0.021015 0.210595,0.028612 0.222892,0.016909 0.0123,-0.011703 0.0123,-0.2135869 0,-0.4486382 l -0.02237,-0.4273639 -0.343738,-0.021988 c -0.189056,-0.012095 -0.360601,-0.028083 -0.381208,-0.035543 -0.02491,-0.00899 -0.03453,-0.054463 -0.02865,-0.1355729 l 0.0089,-0.1220202 h 0.401014 0.401014 l 0.0078,-0.4440237 0.0079,-0.4440226 -0.917502,-0.00889 z m -10.054041,0.00339 v 5.5523405 c 0,-0.821868 0.00804,-1.486292 0.017787,-1.476495 0.00984,0.0098 0.083943,-0.01599 0.1647365,-0.05732 0.08079,-0.04132 0.2383158,-0.09128 0.350074,-0.111027 0.1117583,-0.01974 0.2516622,-0.05616 0.3108824,-0.0809 l 0.1076706,-0.04502 -0.015026,-0.5229907 c -0.016264,-0.5663965 2.053e-4,-0.7008637 0.065457,-0.5344892 0.021015,0.053585 0.053902,0.136102 0.073054,0.1833662 0.019153,0.047267 0.06952,0.1826107 0.1119498,0.3007697 0.042432,0.1181603 0.1026931,0.2710133 0.1338947,0.339668 0.050675,0.111512 0.064991,0.123159 0.1343571,0.109264 0.2124472,-0.04256 0.35537,-0.07966 0.5642798,-0.1465247 0.1258465,-0.04028 0.2772926,-0.07327 0.3365636,-0.07327 0.1249597,0 0.129751,-0.01712 0.045775,-0.163812 C 3.4148126,9.6896178 3.3227581,9.5184394 3.2443494,9.3687698 3.1659408,9.2191003 3.0649491,9.0542919 3.0199049,9.0025411 2.9748596,8.9507872 2.9379938,8.8905638 2.9379938,8.8686887 c 0,-0.021872 -0.032411,-0.078282 -0.072007,-0.1253353 l -0.072007,-0.085562 0.093995,-0.058071 C 3.0276209,8.5134182 3.0943011,8.4313029 3.2096835,8.2035326 3.2986842,8.027839 3.3162282,7.9607462 3.3303619,7.7425998 3.349472,7.4475801 3.3149235,7.2673005 3.1921024,7.0215132 3.0943402,6.825864 3.0174066,6.7375416 2.8561271,6.6357309 2.6870163,6.5289767 2.445288,6.4723955 2.1788901,6.4772058 c -0.1260379,0.00222 -0.432165,0.00286 -0.6803014,0.00127 z m 0,5.5523405 v 1.494288 H 1.076061 C 1.0573427,13.522017 1.047449,13.00485 1.047449,12.027958 Z M 6.8116468,6.4756175 6.7990126,7.9436793 c -0.00698,0.8074261 -0.00963,1.4744922 -0.00603,1.4823701 0.00751,0.016274 0.9229842,-0.025057 0.9805262,-0.044273 0.030348,-0.010158 0.03639,-0.2885799 0.031723,-1.4593332 L 7.7995165,6.4756133 H 7.3056023 Z M 4.5589303,6.489966 4.4909126,6.7048025 C 4.4535177,6.8229626 4.3986528,7.0098418 4.368976,7.120125 4.339295,7.2304071 4.2496838,7.5397721 4.1698329,7.8076006 4.0899851,8.0754302 4.0065154,8.3654586 3.9843694,8.4521092 3.9133466,8.7299954 3.8227185,9.0624195 3.7617703,9.2684872 3.6681984,9.584856 3.6023034,9.8516313 3.6146996,9.8640283 c 0.016211,0.01621 0.404286,-0.05964 0.4630311,-0.09051 0.056949,-0.02993 0.3070043,-0.066759 0.4533375,-0.066759 0.1126683,0 0.1177347,-0.00751 0.164946,-0.2449641 0.031702,-0.1594098 0.034697,-0.1631027 0.1612107,-0.201324 0.070896,-0.021417 0.2320092,-0.04022 0.3580472,-0.041797 l 0.2291447,-0.00286 0.044559,0.138469 c 0.072303,0.2247832 0.089837,0.2286951 0.5814853,0.1300346 0.092249,-0.018507 0.2173729,-0.025279 0.2780693,-0.015026 0.1404097,0.023724 0.227383,-0.0037 0.227383,-0.071753 0,-0.0293 -0.039088,-0.1605896 -0.086853,-0.2917066 C 6.4412956,8.974714 6.3770238,8.7772109 6.3462698,8.6669277 6.3155201,8.5566456 6.2186097,8.2537543 6.1309296,7.9938027 6.0432516,7.7338499 5.957548,7.4695884 5.9404727,7.4065695 5.9233943,7.3435463 5.8545618,7.1115276 5.7874859,6.8909622 L 5.6655494,6.489949 H 5.1122202 Z M 1.0610864,6.6429105 c 0.0018,-4.201e-4 0.00392,0.00339 0.00614,0.011756 0.0072,0.027565 0.0072,0.072673 0,0.1002382 -0.0072,0.027575 -0.013132,0.00508 -0.013132,-0.050103 0,-0.038337 0.00286,-0.06096 0.00698,-0.061891 z m 8.0840517,0.7493677 0.097476,1.259e-4 c 0.2836415,4.751e-4 0.4853449,0.1513752 0.5394399,0.4036151 0.04349,0.2027663 0.03888,0.2684708 -0.03,0.4285811 -0.07464,0.1735244 -0.1946017,0.2541403 -0.411417,0.276518 L 9.1825732,8.5174032 V 8.3030714 c 0,-0.1178913 -0.00847,-0.3710317 -0.018719,-0.5625615 z m 5.1581249,0.07771 0.138301,0.015608 c 0.162066,0.018264 0.226584,0.081477 0.255034,0.2498728 0.03095,0.1831705 -0.0051,0.2860953 -0.116397,0.3326188 -0.127261,0.053172 -0.176692,0.050844 -0.208627,-0.00984 -0.01452,-0.027565 -0.03581,-0.1712028 -0.04733,-0.319191 z m -12.2962265,0.051193 0.1267205,0.00286 c 0.1032433,0.00233 0.1393473,0.018232 0.1947783,0.085932 0.054897,0.067044 0.064833,0.1044179 0.051489,0.1935202 -0.024771,0.1653079 -0.088419,0.2663513 -0.1901627,0.3018193 -0.1529244,0.053309 -0.1929001,0.041627 -0.2098855,-0.061341 -0.00847,-0.051204 -0.00582,-0.1897447 0.00593,-0.3079048 z m 3.0840324,0.00328 c 0.012687,-0.00169 0.049839,0.1440952 0.097476,0.3881324 0.037934,0.1943677 0.0839,0.3895407 0.1021323,0.4337427 0.043617,0.1057829 0.017999,0.1243184 -0.1971295,0.1425386 -0.1598087,0.013534 -0.1790448,0.00952 -0.1790448,-0.037173 0,-0.028782 0.038675,-0.2369349 0.085932,-0.4625698 0.047267,-0.2256339 0.085932,-0.4221327 0.085932,-0.4366791 0,-0.018486 0.00159,-0.027586 0.00466,-0.027988 z M 1.0621773,7.627811 c 0.00169,2.11e-5 0.00349,0.00487 0.0055,0.015153 0.00688,0.035448 0.00688,0.093455 0,0.1289013 -0.00688,0.035448 -0.012423,0.00645 -0.012423,-0.064452 0,-0.050399 0.00286,-0.079647 0.00688,-0.079594 z m -0.0018,0.3600184 c 0.00212,-2.539e-4 0.00444,0.00413 0.00698,0.013724 0.0073,0.027872 0.00677,0.066536 -0.00105,0.085932 -0.00783,0.019396 -0.013798,-0.00339 -0.013216,-0.050643 3.831e-4,-0.031014 0.00328,-0.048527 0.0073,-0.049013 z m -0.00307,0.560169 c 0.00275,-3.079e-4 0.00603,0.00413 0.00973,0.013386 0.00825,0.020676 0.0073,0.045363 -0.00222,0.054886 -0.00952,0.00952 -0.016264,-0.00741 -0.015026,-0.037596 8.169e-4,-0.019808 0.00349,-0.030242 0.00751,-0.030676 z m 3.365e-4,0.200486 c 0.00265,6.35e-5 0.00582,0.00455 0.00942,0.013428 0.00825,0.020676 0.0073,0.045363 -0.00222,0.054886 -0.00952,0.00952 -0.016264,-0.00741 -0.015026,-0.037596 8.38e-4,-0.020338 0.0037,-0.030813 0.00783,-0.030718 z M 6.660297,10.3423 c -0.1214086,-0.0036 -0.2466709,0.0043 -0.2818458,0.02664 -0.060748,0.03846 -0.014655,0.117027 0.068642,0.117027 0.040379,0 0.08062,0.01884 0.089456,0.04187 0.00889,0.02304 -0.034771,0.171757 -0.096926,0.330479 l -0.1129984,0.288602 -0.080144,-0.223061 c -0.044082,-0.122683 -0.099043,-0.260784 -0.1221471,-0.306897 -0.039987,-0.07982 -0.0384,-0.0865 0.033109,-0.138594 0.04131,-0.03009 0.067838,-0.06647 0.058949,-0.08085 -0.022062,-0.03569 -0.6143386,-0.03391 -0.6143386,0.0018 0,0.0154 0.030422,0.04789 0.067594,0.07226 0.037543,0.0246 0.1034338,0.129979 0.1482029,0.236991 0.044336,0.105978 0.1089743,0.25716 0.1436307,0.335933 0.034654,0.07878 0.090863,0.219022 0.1249152,0.311681 0.034051,0.09266 0.07479,0.192571 0.090546,0.222011 0.032993,0.06165 0.093064,0.06962 0.1334333,0.01771 0.015311,-0.01969 0.1019313,-0.222713 0.1925139,-0.451157 0.2266889,-0.571713 0.2371211,-0.591248 0.3507872,-0.658313 0.083287,-0.04914 0.094471,-0.06649 0.065415,-0.101497 -0.01984,-0.0239 -0.1374014,-0.03908 -0.258811,-0.04268 z m 4.498847,0.0074 c -0.269992,-0.0081 -0.349677,0.0171 -0.288266,0.0911 0.02061,0.02483 0.06211,0.04515 0.09218,0.04515 0.03007,0 0.06162,0.01811 0.07011,0.04024 0.01868,0.04865 -0.193505,0.598316 -0.219325,0.568182 -0.0099,-0.01166 -0.04782,-0.09858 -0.08409,-0.1931 -0.03627,-0.09452 -0.08574,-0.215586 -0.109935,-0.269049 -0.04182,-0.09241 -0.04092,-0.09971 0.01851,-0.147825 0.116572,-0.0944 0.07729,-0.113041 -0.23825,-0.113041 -0.250425,0 -0.300771,0.0073 -0.300771,0.04368 0,0.02402 0.02967,0.05498 0.06597,0.06877 0.03889,0.01478 0.0877,0.07624 0.118873,0.149672 0.110058,0.259252 0.153418,0.358552 0.226669,0.519215 0.0415,0.09102 0.07545,0.185008 0.07545,0.208836 0,0.06035 0.110079,0.270182 0.141742,0.270182 0.01431,0 0.0444,-0.01834 0.06684,-0.04078 0.02244,-0.02244 0.06983,-0.115929 0.105275,-0.207703 0.03545,-0.09177 0.08156,-0.205504 0.102471,-0.252769 0.0209,-0.04727 0.07374,-0.176179 0.117446,-0.286462 0.104133,-0.262781 0.146347,-0.326469 0.230362,-0.347556 0.0507,-0.01272 0.06726,-0.03408 0.06093,-0.07846 -0.008,-0.05604 -0.02836,-0.06155 -0.25218,-0.06827 z m -2.2878373,0.009 c -0.1247914,-1.5e-5 -0.2462074,0.0085 -0.2603633,0.02555 -0.037786,0.04553 0.00116,0.09417 0.084758,0.105907 0.099445,0.01396 0.090461,0.119731 -0.035628,0.418386 l -0.099826,0.236446 -0.079678,-0.222138 c -0.043829,-0.12216 -0.1003654,-0.258499 -0.1256297,-0.30299 -0.04459,-0.07853 -0.043627,-0.08258 0.032982,-0.138552 0.043405,-0.03171 0.071658,-0.06946 0.062769,-0.08384 -0.019279,-0.03118 -0.6142191,-0.03569 -0.6145916,-0.0047 -1.503e-4,0.01182 0.036464,0.05372 0.081361,0.09311 0.052992,0.04648 0.1289468,0.187177 0.2164724,0.401014 0.074155,0.181179 0.1470908,0.351796 0.1620922,0.379153 0.015004,0.02735 0.027554,0.06603 0.027903,0.08593 3.354e-4,0.0199 0.025501,0.09098 0.055891,0.157938 0.055542,0.122366 0.1131391,0.152397 0.164819,0.08593 0.015311,-0.01969 0.076239,-0.158276 0.1353634,-0.307946 0.059129,-0.149668 0.1255152,-0.312722 0.1475321,-0.362367 0.02202,-0.04965 0.04003,-0.117319 0.04003,-0.150386 0,-0.03307 0.011333,-0.06012 0.025173,-0.06012 0.013841,0 0.04185,-0.04026 0.06223,-0.08946 0.023152,-0.05588 0.072832,-0.104397 0.1323847,-0.129279 0.097561,-0.04076 0.1191251,-0.07827 0.064494,-0.112033 -0.027607,-0.01706 -0.1557539,-0.02558 -0.2805453,-0.0256 z M 5.229665,10.37132 c -0.237591,0 -0.2864202,0.0074 -0.2864202,0.04368 0,0.02402 0.029808,0.055 0.066251,0.06885 0.065901,0.02506 0.066187,0.0277 0.0595,0.492151 -0.00667,0.465703 -0.00688,0.467089 -0.080694,0.520851 -0.040696,0.02965 -0.066462,0.06614 -0.057235,0.08107 0.022232,0.03597 0.5546412,0.01913 0.5636926,-0.01783 0.00381,-0.01576 -0.020454,-0.04072 -0.05404,-0.05547 -0.053235,-0.02337 -0.062811,-0.0565 -0.07461,-0.257803 -0.00741,-0.127038 -0.00709,-0.344914 7.555e-4,-0.484136 0.013047,-0.231328 0.020052,-0.255756 0.081742,-0.283862 0.03712,-0.01692 0.06751,-0.04805 0.06751,-0.06915 0,-0.0295 -0.066198,-0.03835 -0.2864625,-0.03835 z m 6.573988,0 c -0.246536,0 -0.300771,0.0076 -0.300771,0.04242 0,0.02333 0.03132,0.05027 0.06957,0.05988 0.03824,0.0096 0.07478,0.03242 0.08119,0.05069 0.0065,0.01827 0.0057,0.237137 -0.0015,0.486402 -0.0129,0.445354 -0.01429,0.453669 -0.08119,0.479102 -0.03744,0.01423 -0.0681,0.04554 -0.0681,0.06957 0,0.03623 0.04888,0.04368 0.286463,0.04368 0.224256,0 0.286462,-0.0086 0.286462,-0.03949 0,-0.02171 -0.02609,-0.05714 -0.05799,-0.07876 -0.05379,-0.03645 -0.05812,-0.07048 -0.05946,-0.46899 -7.84e-4,-0.23632 -4.76e-4,-0.446062 6.99e-4,-0.466093 0.0012,-0.02003 0.03438,-0.05112 0.07376,-0.06907 0.03938,-0.01795 0.07158,-0.04989 0.07158,-0.071 0,-0.02963 -0.06854,-0.03835 -0.300771,-0.03835 z m -2.138124,0.515607 c -0.04944,0 -0.1391397,0.100259 -0.1391397,0.155504 0,0.02945 0.099561,0.128577 0.1593647,0.158694 9.79e-4,5.03e-4 0.03733,-0.03619 0.08074,-0.08149 l 0.07888,-0.08237 -0.06966,-0.07515 c -0.03833,-0.04135 -0.08792,-0.07519 -0.110187,-0.07519 z m -2.3257274,0.0041 c -0.026729,-8.12e-4 -0.054135,0.01879 -0.096302,0.05841 l -0.066589,0.06256 0.077287,0.08065 c 0.042506,0.04436 0.083033,0.08069 0.090091,0.08069 0.00709,0 0.044125,-0.03377 0.082366,-0.07502 l 0.069531,-0.07502 -0.064071,-0.06823 c -0.039511,-0.04205 -0.065584,-0.06323 -0.092313,-0.06403 z m 4.4546194,1.363287 -0.01771,0.154119 c -0.0097,0.08479 -0.01411,0.370077 -0.0097,0.633977 l 0.008,0.479773 h 0.645222 l -0.236698,-4.19e-4 c -0.165217,-3.08e-4 -0.223682,-0.009 -0.193688,-0.02861 0.02363,-0.01548 0.07781,-0.02081 0.120384,-0.01187 l 0.07741,0.01624 0.0086,-0.195325 0.0086,-0.195325 0.107754,0.207662 0.107796,0.207661 h 0.895514 l -0.352004,-0.0024 c -0.25954,-0.0018 -0.334402,-0.0095 -0.272112,-0.0282 0.04727,-0.01415 0.108506,-0.01863 0.136077,-0.0099 0.08449,0.02662 0.05744,-0.04497 -0.09693,-0.256545 -0.104969,-0.143872 -0.13572,-0.205352 -0.107418,-0.214753 0.02181,-0.0072 0.07644,-0.05255 0.121433,-0.100661 0.07338,-0.07847 0.0805,-0.103063 0.06923,-0.238963 -0.009,-0.108948 -0.03199,-0.172322 -0.08178,-0.22562 -0.12634,-0.135239 -0.218193,-0.162827 -0.589499,-0.17724 z m -10.689612,1.99e-4 v 0.633852 c 0,0.401769 -0.01037,0.631908 -0.028411,0.63385 h 0.4437718 l 0.00825,-0.150342 c 0.015142,-0.275261 0.016803,-0.276006 0.1291955,-0.05732 l 0.1067468,0.207661 h 1.7465935 l -0.00444,-0.107419 c -0.00243,-0.05908 -0.0019,-0.13642 0.00106,-0.171868 0.00529,-0.06131 -0.00434,-0.06445 -0.1980523,-0.06445 -0.1947455,0 -0.203199,-0.0029 -0.1944428,-0.06445 0.00825,-0.05801 0.027321,-0.06528 0.1907086,-0.07301 0.1492262,-0.0071 0.1785337,-0.01642 0.1646942,-0.05249 -0.00931,-0.02414 -0.016824,-0.08793 -0.016824,-0.141784 v -0.09793 H 3.2817866 c -0.1642296,0 -0.1718684,-0.0032 -0.1718684,-0.07158 0,-0.06962 0.00561,-0.07163 0.2019536,-0.07163 h 0.2019134 l -0.00857,-0.164695 -0.00857,-0.164735 H 3.0812795 2.665957 l -0.00772,0.583583 c -0.0054,0.406252 0.00212,0.595548 0.024962,0.623025 0.027597,0.03325 -0.029861,0.03862 -0.3645917,0.03416 -0.1664782,-0.0022 -0.2707067,-0.0069 -0.2743361,-0.01159 -3.92e-5,-7.2e-5 -4.98e-5,-2.23e-4 -4.13e-5,-2.81e-4 4.444e-4,-0.0014 0.00931,-0.0026 0.027353,-0.0039 0.082715,-0.0058 0.1503859,-0.01798 0.1503859,-0.02711 0,-0.02772 -0.1207007,-0.217291 -0.2109765,-0.331319 -0.08917,-0.112645 -0.088017,-0.124623 0.017121,-0.176958 0.080504,-0.04007 0.1460538,-0.226548 0.1255035,-0.357081 -0.01656,-0.10519 -0.1041745,-0.215655 -0.218067,-0.274923 -0.040379,-0.02101 -0.237174,-0.04641 -0.4511566,-0.05824 z m 3.29119,0.0073 c -0.222161,0 -0.2253143,10e-4 -0.2428235,0.07876 -0.00973,0.04333 -0.028348,0.123903 -0.041289,0.179045 -0.012941,0.05514 -0.053489,0.303263 -0.090133,0.551399 l -0.066631,0.451157 H 4.441945 l 0.00349,-0.316171 c 0.0019,-0.173907 0.00952,-0.322242 0.016909,-0.329639 0.00741,-0.0074 0.042569,0.093 0.078134,0.223101 0.035554,0.130097 0.082059,0.278438 0.1033491,0.329641 l 0.038686,0.09306 h 0.5385171 l -0.2176903,-0.0029 c -0.1302303,-0.0017 -0.1897225,-0.01066 -0.1481194,-0.02229 0.05914,-0.01653 0.085477,-0.06831 0.1761497,-0.346466 l 0.1066209,-0.327079 0.019639,0.198975 c 0.010793,0.109425 0.029459,0.266607 0.041501,0.349319 l 0.021904,0.150385 H 6.8860994 L 6.552013,13.51731 c -0.1464253,-0.0021 -0.2405379,-0.0072 -0.2424457,-0.01234 -2.01e-5,-10e-5 3.17e-5,-2.78e-4 8.36e-5,-3.64e-4 8.116e-4,-0.0012 0.00635,-0.0023 0.017121,-0.0035 0.083424,-0.0087 0.1149761,-0.0276 0.1353221,-0.08111 0.023914,-0.06291 0.042971,-0.06982 0.1928482,-0.06982 0.1584712,0 0.1678136,0.004 0.1987242,0.08593 l 0.032432,0.08593 h 0.4203571 l -0.00339,-0.07876 C 7.300319,13.378799 7.2289893,13.164051 7.1295225,12.920648 7.0781812,12.795011 6.9716947,12.49372 6.9510238,12.415574 6.9110153,12.264338 6.9051743,12.261635 6.6438756,12.273371 l -0.2442086,0.01095 -0.086398,0.239384 c -0.047521,0.131659 -0.1040687,0.301704 -0.1256708,0.377894 -0.021607,0.07619 -0.071986,0.220189 -0.1119074,0.319987 -0.039924,0.09979 -0.072589,0.208259 -0.072589,0.24102 0,0.05445 -0.016613,0.05955 -0.193353,0.0595 l -0.1933519,-4.1e-5 -0.00656,-0.09306 c -0.00656,-0.09351 -0.1411187,-0.982329 -0.1669184,-1.102757 -0.012232,-0.0571 -0.0313,-0.06445 -0.1672115,-0.06445 -0.2622192,0 -0.3240743,0.02243 -0.3442827,0.124747 -0.00984,0.04956 -0.045691,0.178752 -0.079763,0.287135 -0.070949,0.225673 -0.070515,0.226116 -0.1708621,-0.173968 l -0.059669,-0.237927 z m 3.8482543,0.0021 c -0.062653,0.0019 -0.1278738,0.01169 -0.1930588,0.02946 -0.2761529,0.07527 -0.4104508,0.365101 -0.2733711,0.589918 0.053966,0.0885 0.1133667,0.116388 0.3533892,0.165828 0.091339,0.01881 0.1339772,0.09417 0.074568,0.131796 -0.065319,0.04136 -0.1772279,0.02984 -0.288183,-0.02963 l -0.1041005,-0.05576 -0.060166,0.139854 c -0.033099,0.07694 -0.060166,0.153102 -0.060166,0.169267 0,0.01617 0.051532,0.04329 0.1145518,0.06025 0.063023,0.01697 0.114593,0.03683 0.114593,0.0441 0,0.0071 -0.1320122,0.0129 -0.2958186,0.01317 h 2.8169557 l -0.44033,-8.4e-4 c -0.331453,-6.16e-4 -0.4480215,-0.0092 -0.411672,-0.03038 0.027893,-0.01623 0.076229,-0.02144 0.107418,-0.01154 0.05475,0.01737 0.05673,0.0035 0.05673,-0.399294 V 12.66286 h 0.110859 0.110901 l 0.01947,-0.172248 c 0.01072,-0.09473 0.01204,-0.184284 0.003,-0.199016 -0.0092,-0.01483 -0.220806,-0.02668 -0.4741082,-0.02652 l -0.4575351,2.79e-4 v 0.198725 0.198765 h 0.1313784 0.1314186 l -0.00963,0.429588 -0.00973,0.429631 -0.5156072,-0.0024 c -0.2968313,-0.0014 -0.4841571,-0.01196 -0.4415053,-0.02489 0.2654868,-0.08045 0.4246067,-0.385139 0.2965741,-0.567932 -0.053331,-0.07614 -0.170078,-0.139757 -0.3600185,-0.196163 -0.1496896,-0.04445 -0.1719868,-0.07714 -0.084588,-0.123909 0.058378,-0.03125 0.2222785,-0.01071 0.248111,0.03109 0.028231,0.04568 0.063383,0.02578 0.095085,-0.05384 0.017248,-0.04332 0.04385,-0.107731 0.059119,-0.143127 0.024623,-0.05709 0.015089,-0.07083 -0.084673,-0.121726 -0.078038,-0.03981 -0.1753623,-0.05848 -0.2797908,-0.05531 z m 2.8588737,0.0021 c -0.06392,-0.0019 -0.150151,-6.3e-5 -0.265607,0.0022 l -0.408819,0.0079 3.64e-4,0.472641 c 1.93e-4,0.259952 0.0085,0.540312 0.01838,0.623024 l 0.018,0.150344 h 0.734596 c -0.282299,-4.48e-4 -0.502128,-0.0066 -0.494668,-0.01405 0.0077,-0.0077 0.13878,-0.0154 0.291203,-0.01699 l 0.277147,-0.003 v -0.154874 -0.154834 h -0.202487 c -0.193622,0 -0.202105,-0.0029 -0.193353,-0.06445 0.0083,-0.05805 0.02726,-0.06533 0.191674,-0.0731 l 0.182569,-0.0086 -0.01754,-0.105991 c -0.0096,-0.05828 -0.01766,-0.122049 -0.01783,-0.141742 -2.17e-4,-0.02468 -0.05436,-0.0358 -0.174177,-0.0358 -0.163917,0 -0.173324,-0.0037 -0.164695,-0.06445 0.0083,-0.05782 0.02744,-0.06535 0.186639,-0.07297 l 0.177451,-0.0085 0.01909,-0.127223 c 0.02464,-0.164342 0.03383,-0.203939 -0.157938,-0.209675 z m 2.66271,0.01016 c -0.196932,0 -0.38064,0.0092 -0.408231,0.02056 -0.04587,0.01883 -0.04954,0.07211 -0.04297,0.623067 l 0.0072,0.602382 h 1.308277 l -0.377349,-0.0051 c -0.166992,-0.0022 -0.27334,-0.0072 -0.275972,-0.012 -1.6e-5,-4.9e-5 -5e-6,-1.63e-4 0,-2.11e-4 2.2e-5,-7.1e-5 1.41e-4,-2.22e-4 2.1e-4,-2.79e-4 0.0014,-0.0012 0.0085,-0.0022 0.02186,-0.0033 0.122152,-0.0097 0.134178,-0.01765 0.150386,-0.09869 0.04362,-0.218115 0.0387,-0.224109 -0.182905,-0.224109 -0.194785,0 -0.200528,-0.0021 -0.200528,-0.07163 0,-0.06843 0.0076,-0.07163 0.171869,-0.07163 h 0.171869 v -0.143239 -0.143211 h -0.171869 c -0.163338,0 -0.171869,-0.0035 -0.171869,-0.07028 0,-0.06617 0.01047,-0.07073 0.179045,-0.07876 l 0.179002,-0.0086 V 12.433672 12.276155 Z M 1.5868476,12.604792 c 0.018348,-4.21e-4 0.04259,0.006 0.074229,0.01817 0.059753,0.02293 0.059753,0.171474 0,0.194403 -0.101254,0.03885 -0.1265935,0.01944 -0.1265935,-0.09718 0,-0.08017 0.011989,-0.114447 0.052368,-0.11539 z m 10.6713184,0.0069 c 0.02016,-10e-4 0.04463,0.006 0.07318,0.02131 0.109676,0.0587 0.05642,0.201703 -0.07511,0.201703 -0.05631,0 -0.06588,-0.01466 -0.06588,-0.101127 0,-0.07841 0.02346,-0.119669 0.06781,-0.121894 z m 2.922401,0.05115 c 0.124201,0 0.203717,0.09364 0.203717,0.239929 0,0.148941 -0.04206,0.203467 -0.179044,0.232124 l -0.09311,0.01947 v -0.245761 c 0,-0.240006 0.0016,-0.245762 0.06844,-0.245762 z m -8.5185495,0.04385 c 7.28e-4,-9e-5 0.00148,6.7e-5 0.00201,4.49e-4 0.01183,0.0073 0.030009,0.06803 0.040411,0.134902 0.01037,0.06687 0.025279,0.14413 0.033067,0.171701 0.01128,0.03992 -0.0037,0.05015 -0.073679,0.05015 -0.056918,0 -0.087868,-0.01437 -0.087868,-0.04078 0,-0.08338 0.063446,-0.313616 0.086017,-0.316421 z m -3.6987488,0.790069 c 0.031152,5.3e-5 0.061224,0.0017 0.082747,0.005 0.010476,0.0016 0.015883,0.0032 0.016782,0.0044 2.44e-5,4.3e-5 6.88e-5,1.66e-4 8.36e-5,2.09e-4 5.3e-6,2.1e-5 3.92e-5,1.04e-4 4.23e-5,1.26e-4 0,2.1e-5 -4.02e-5,1.05e-4 -4.23e-5,1.26e-4 -4.2e-6,2.1e-5 -3.49e-5,1.04e-4 -4.12e-5,1.26e-4 -9.6e-6,2.1e-5 -3.07e-5,1.05e-4 -4.24e-5,1.26e-4 -0.00243,0.0039 -0.043194,0.0065 -0.1103975,0.0063 -0.06314,-1.01e-4 -0.099826,-0.0025 -0.1018783,-0.0061 -9.5e-6,-2.1e-5 -3.49e-5,-1.06e-4 -4.13e-5,-1.26e-4 -5.3e-6,-2.2e-5 -4.02e-5,-1.05e-4 -4.23e-5,-1.26e-4 0,-2.1e-5 3.92e-5,-1.05e-4 4.23e-5,-1.26e-4 4.3e-6,-2.1e-5 3.5e-5,-1.05e-4 4.13e-5,-1.26e-4 9.5e-6,-2.1e-5 3.07e-5,-1.05e-4 4.23e-5,-1.26e-4 0.00106,-0.0016 0.00868,-0.0033 0.023586,-0.0052 0.025745,-0.0032 0.057976,-0.0048 0.089128,-0.0047 z m 1.2638406,2.8e-4 c 0.018168,0 0.036358,0.0018 0.050146,0.0054 0.027575,0.0072 0.00497,0.01309 -0.050146,0.01309 -0.05514,0 -0.07771,-0.0059 -0.050146,-0.01309 0.013788,-0.0036 0.031967,-0.0054 0.050146,-0.0054 z m 9.2774847,1.68e-4 c 0.01558,1.92e-4 0.03008,0.0023 0.03978,0.0062 0.0194,0.0078 -0.0034,0.01376 -0.05064,0.01317 -0.04727,-5.89e-4 -0.06316,-0.007 -0.03529,-0.01426 0.01394,-0.0036 0.03058,-0.0053 0.04616,-0.0051 z"
     class="ColorScheme-Text" />
</svg>
