<?xml version='1.0' encoding='UTF-8'?>
<svg xmlns:inkscape="http://www.inkscape.org/namespaces/inkscape" xmlns:sodipodi="http://sodipodi.sourceforge.net/DTD/sodipodi-0.dtd" xmlns="http://www.w3.org/2000/svg" xmlns:svg="http://www.w3.org/2000/svg" xmlns:rdf="http://www.w3.org/1999/02/22-rdf-syntax-ns#" xmlns:cc="http://creativecommons.org/ns#" xmlns:dc="http://purl.org/dc/elements/1.1/" width="64" height="64" version="1.1" viewBox="0 0 16.933 16.933" id="svg7" sodipodi:docname="steam_icon_750130.svg" inkscape:version="1.4 (e7c3feb100, 2024-10-09)">
  <sodipodi:namedview id="namedview7" pagecolor="#9c4444" bordercolor="#000000" borderopacity="0.25" inkscape:showpageshadow="2" inkscape:pageopacity="0.0" inkscape:pagecheckerboard="0" inkscape:deskcolor="#d1d1d1" inkscape:zoom="4.3531261" inkscape:cx="35.951175" inkscape:cy="39.741555" inkscape:window-width="1183" inkscape:window-height="941" inkscape:window-x="35" inkscape:window-y="32" inkscape:window-maximized="0" inkscape:current-layer="svg7" showgrid="false"/>
  <defs id="defs2">
    <style id="current-color-scheme" type="text/css">.ColorScheme-Text {color:#d8dee9} .ColorScheme-Highlight {color:#3b4252}</style></defs>
  <metadata id="metadata2">
    <rdf:RDF>
      <cc:Work rdf:about="">
        <dc:format>image/svg+xml</dc:format>
        <dc:type rdf:resource="http://purl.org/dc/dcmitype/StillImage"/>
      </cc:Work>
    </rdf:RDF>
  </metadata>
  <path style="fill:currentColor;fill-opacity:1;stroke-width:0.0679073" d="m 1.61475,13.57439 c 0,-0.08035 -0.1056533,-0.269536 -0.2347845,-0.420401 -0.48257761,-0.563782 -0.47856557,-1.486726 0.0088,-2.02619 C 1.5188663,10.983795 1.6840821,10.847323 1.7559139,10.824523 1.9940208,10.748958 2.0377141,10.554716 1.8776395,10.28341 1.6163247,9.840515 1.7291275,9.0391881 2.1103139,8.6305357 2.2781523,8.4506019 2.7097006,8.2117966 2.8670233,8.2117966 c 0.082781,0 0.095241,-0.058528 0.062814,-0.2951355 -0.0716,-0.5223631 0.3219694,-1.1586387 0.8579366,-1.3870156 0.285699,-0.1217349 0.8654979,-0.133817 1.0737518,-0.022361 0.184794,0.098912 0.2966631,0.040998 0.5005065,-0.2590261 0.5048786,-0.7431145 1.8482429,-0.6308465 2.1654731,0.1809731 0.073631,0.1884268 0.1978275,0.1928337 0.4858445,0.017233 0.2862876,-0.1745511 0.6807284,-0.1728316 1.0471776,0.00462 0.3642767,0.1763428 0.5928754,0.5307969 0.608793,0.9439616 0.01178,0.3061271 0.013015,0.3075831 0.2737602,0.3256017 0.4146254,0.028641 0.5430824,0.071995 0.7636754,0.257603 0.124793,0.1050206 0.224139,0.2671318 0.250811,0.4093046 0.04898,0.261098 0.190927,0.3675537 0.490088,0.3675537 0.109459,0 0.276725,0.061129 0.371689,0.1358177 0.215261,0.169328 0.277157,0.1691589 0.630147,-0.00185 0.238537,-0.1154706 0.31551,-0.1248585 0.479814,-0.058528 0.273011,0.1102076 0.45201,0.087523 0.833114,-0.1056058 0.473091,-0.239732 0.862232,-0.7110062 1.026652,-1.2433344 0.160949,-0.5210828 0.18183,-1.5012768 0.04302,-2.0201035 -0.299621,-1.1200048 -1.053518,-1.7995383 -1.996459,-1.7995383 -0.354816,0 -0.906253,0.1704167 -1.135866,0.3510334 -0.517688,0.4072125 -0.585699,1.4117268 -0.132069,1.95082 0.277109,0.3293247 0.684196,0.446372 1.26936,0.3649725 0.270425,-0.037612 0.514598,-0.055343 0.542617,-0.039414 0.138225,0.078643 0.02755,0.3061364 -0.232716,0.4783754 -0.254397,0.1683514 -0.343681,0.1877067 -0.865819,0.1877067 -0.687718,0 -0.975233,-0.1143477 -1.409891,-0.5606729 -0.422246,-0.4335439 -0.58426,-0.9207007 -0.550387,-1.6548831 0.02262,-0.4903054 0.06284,-0.6585729 0.246683,-1.0320087 0.2634,-0.53504 0.684951,-0.9299303 1.223287,-1.1459229 0.319928,-0.128364 0.512886,-0.1540577 1.164406,-0.1550552 0.739689,-0.00112 0.805277,0.010336 1.241857,0.2171297 0.918129,0.4348863 1.583627,1.2944069 1.892001,2.4436006 0.210491,0.784431 0.210237,2.2254026 -0.0011,2.9713023 -0.283807,1.0044012 -0.800574,1.768426 -1.542728,2.2808574 -0.495883,0.342396 -1.448427,0.675891 -1.937447,0.678324 -0.273564,0.0014 -0.482832,0.03903 -0.565903,0.101867 -0.191936,0.145173 -0.534121,0.122335 -0.753588,-0.05031 -0.153415,-0.120672 -0.269831,-0.147804 -0.595479,-0.138787 -0.399718,0.01108 -0.7939874,-0.116563 -0.7939874,-0.257062 0,-0.110778 -0.6942971,-0.517402 -0.9703842,-0.568301 C 8.7476388,10.052118 8.5717537,9.9388033 8.3338494,9.7021482 8.1481018,9.5173742 7.9667093,9.3661963 7.9307562,9.3661963 c -0.035954,0 -0.1654216,0.061005 -0.2877096,0.1355555 -0.1222859,0.074566 -0.3369323,0.135679 -0.4769912,0.1358177 l -0.2546515,2.244e-4 v 0.3756721 c 0,0.611679 -0.2989104,1.136411 -0.7549557,1.325309 -0.2267724,0.09393 -0.2290224,0.104175 -0.093885,0.427621 0.2623397,0.627866 0.032264,1.351646 -0.5429899,1.708151 l -0.3287244,0.20372 -1.7881008,0.02111 -1.7881003,0.02111 z m 0.9359778,-0.647168 c 0.2254443,-0.157909 0.3542573,-0.458339 0.3542573,-0.826236 0,-0.714323 -0.6115621,-1.089949 -1.0424012,-0.640251 -0.3890185,0.406051 -0.3749177,1.056786 0.030286,1.397743 0.2374875,0.199832 0.4404244,0.221038 0.6578569,0.06876 z m 2.8006589,-0.08903 C 5.6076355,12.581929 5.665944,12.328461 5.5469172,11.988198 5.4135169,11.606845 5.1049706,11.429495 4.768252,11.540622 c -0.2996171,0.09888 -0.504523,0.411136 -0.5048712,0.769366 -2.125e-4,0.206971 0.047852,0.309548 0.2306305,0.492326 0.2993853,0.299387 0.5820308,0.311208 0.8573754,0.03585 z m 0.6967982,-2.0975 C 6.3663306,10.452776 6.449888,10.034686 6.2551641,9.7050431 6.0627594,9.379327 5.7558308,9.2931476 5.4153249,9.4692312 4.9098096,9.7306427 4.8744747,10.56036 5.3571146,10.836081 c 0.1942828,0.111007 0.5113883,0.06722 0.6910703,-0.09539 z m 5.9175471,0.08067 c 0.05869,-0.05868 0.106723,-0.132892 0.106723,-0.164916 0,-0.124137 -0.22257,-0.271629 -0.409903,-0.271629 -0.129599,0 -0.222254,0.04815 -0.272192,0.141464 -0.156997,0.293371 0.328241,0.542226 0.575385,0.295082 z m 1.22572,-0.207112 c 0.216076,-0.216072 -6.9e-4,-0.490046 -0.323038,-0.409042 -0.203271,0.05102 -0.301159,0.277087 -0.182096,0.420543 0.108832,0.131153 0.368401,0.125244 0.505138,-0.01153 z M 10.7112,10.558342 c 0.130491,-0.157231 0.05591,-0.400902 -0.153307,-0.500868 -0.3797,-0.1814288 -0.7097478,0.256529 -0.371737,0.493281 0.189092,0.132447 0.418669,0.13577 0.525045,0.0075 z M 3.3578406,10.158339 C 3.5735132,9.9606879 3.6090109,9.8832485 3.6366365,9.5501165 3.66627,9.1928018 3.6545381,9.1546222 3.4532565,8.9533427 3.2681228,8.7682101 3.2044361,8.7437877 2.9952735,8.7777319 2.5724399,8.8463559 2.2938206,9.2156975 2.2938206,9.7076054 c 0,0.2191798 0.04324,0.3234656 0.1984983,0.4787216 0.2742476,0.27425 0.5452883,0.265482 0.8655217,-0.02798 z M 14.383609,10.040943 c 0.09967,-0.1862662 -0.03274,-0.3492974 -0.261288,-0.3216524 -0.225528,0.027286 -0.340111,0.2108662 -0.221113,0.3542534 0.126673,0.152638 0.392892,0.134647 0.482401,-0.03261 z M 9.4598811,9.5678842 C 9.6377886,9.371298 9.5286729,9.095577 9.2114951,8.9402549 8.768505,8.7233237 8.3942534,9.0298555 8.6414628,9.4071506 8.8415744,9.712558 9.2554011,9.793831 9.4598811,9.5678842 Z m 2.2335219,0.028734 c 0.13813,-0.053002 0.138548,-0.3253957 6.15e-4,-0.4632348 -0.126274,-0.126274 -0.443401,-0.1406038 -0.558779,-0.025224 -0.269763,0.269762 0.156268,0.6426455 0.558074,0.4884546 z M 12.9597,9.5675308 c 0.154812,-0.082844 0.171874,-0.2868824 0.03361,-0.4016471 -0.135565,-0.1125161 -0.450443,-0.062577 -0.540514,0.085722 -0.06072,0.1000046 -0.04471,0.1477592 0.08556,0.2546526 0.183654,0.1507137 0.239155,0.1587773 0.421357,0.061267 z m 1.086513,-0.1358177 c 0.170791,-0.091417 0.168359,-0.312559 -0.0044,-0.4050546 -0.274148,-0.1467123 -0.542397,0.1774201 -0.325955,0.3938615 0.09977,0.099773 0.161025,0.1018514 0.330418,0.011229 z m 1.011681,-0.028595 c 0.09211,-0.1110075 0.04089,-0.2406502 -0.09509,-0.2406502 -0.122113,0 -0.263798,0.1813892 -0.209866,0.2686545 0.06245,0.1010515 0.209017,0.087584 0.304956,-0.02801 z M 7.3819971,8.9952388 C 8.0388008,8.6555923 7.4403206,7.8136712 6.747774,8.103034 6.3582936,8.2657693 6.2519738,8.6255925 6.5210383,8.8703843 6.7890914,9.1142588 7.0723915,9.155341 7.3819971,8.9952434 Z M 10.496999,8.8772898 C 10.629147,8.7451361 10.590714,8.4894816 10.411806,8.3105744 10.203187,8.101954 9.9412304,8.0951911 9.8014061,8.294815 9.6626244,8.4929552 9.6678646,8.5655405 9.8364383,8.7798499 9.9896372,8.974609 10.346966,9.027318 10.497,8.8772838 Z m 4.347383,-0.1738576 c 0.01615,-0.1142869 -0.01216,-0.1520988 -0.114836,-0.1520988 -0.162526,0 -0.239683,0.1027121 -0.184718,0.2459463 0.05808,0.1513768 0.274225,0.083661 0.29955,-0.093833 z m 0.650995,-0.035427 c 0.05124,-0.081244 0.04771,-0.1364485 -0.01273,-0.1967691 -0.112784,-0.1127935 -0.323827,0.088861 -0.26189,0.2502555 0.05043,0.1314154 0.172919,0.1075457 0.274502,-0.053496 z M 4.5155328,8.3700182 C 4.9201946,8.1779926 5.1258174,7.6720934 4.9401847,7.3252367 4.8544609,7.1650591 4.528374,6.9893746 4.3174297,6.9897177 4.0900166,6.9901164 3.7424961,7.2240814 3.6213062,7.4584371 3.4236294,7.8407038 3.508697,8.19755 3.8404149,8.3775653 4.0828329,8.5091194 4.225761,8.5075329 4.5155328,8.3700223 Z M 8.9110967,7.6944998 C 9.2368787,7.5694868 9.1539281,7.1380004 8.7689963,6.9553376 8.4724289,6.8146115 8.1786621,6.9309291 8.1471765,7.2015689 8.1108023,7.514212 8.5844554,7.8198426 8.9110967,7.6944998 Z M 6.8806376,7.1623229 C 7.108805,6.9341549 7.0942668,6.7015104 6.8383858,6.486201 6.6017262,6.2870653 6.3221634,6.2605082 6.0335682,6.4097435 5.826693,6.516735 5.7570827,6.6371895 5.7570827,6.8882296 c 0,0.4125786 0.7918869,0.6057586 1.1235541,0.2740902 z" id="path1-47" class="ColorScheme-Text"/>
</svg>
