<?xml version="1.0" encoding="UTF-8" standalone="no"?>
<svg
   width="64"
   height="64"
   version="1.1"
   viewBox="0 0 16.933 16.933"
   id="svg7"
   sodipodi:docname="steam_icon_455910.svg"
   inkscape:version="1.4.2 (ebf0e940d0, 2025-05-08)"
   xmlns:inkscape="http://www.inkscape.org/namespaces/inkscape"
   xmlns:sodipodi="http://sodipodi.sourceforge.net/DTD/sodipodi-0.dtd"
   xmlns="http://www.w3.org/2000/svg"
   xmlns:svg="http://www.w3.org/2000/svg"
   xmlns:rdf="http://www.w3.org/1999/02/22-rdf-syntax-ns#"
   xmlns:cc="http://creativecommons.org/ns#"
   xmlns:dc="http://purl.org/dc/elements/1.1/">
  <sodipodi:namedview
     id="namedview7"
     pagecolor="#9c4444"
     bordercolor="#000000"
     borderopacity="0.25"
     inkscape:showpageshadow="2"
     inkscape:pageopacity="0.0"
     inkscape:pagecheckerboard="0"
     inkscape:deskcolor="#d1d1d1"
     inkscape:zoom="11.313709"
     inkscape:cx="44.415145"
     inkscape:cy="38.802485"
     inkscape:window-width="2560"
     inkscape:window-height="1388"
     inkscape:window-x="0"
     inkscape:window-y="0"
     inkscape:window-maximized="1"
     inkscape:current-layer="svg7"
     showgrid="false" />
  <defs
     id="defs2">
    <style
       id="current-color-scheme"
       type="text/css">.ColorScheme-Text {color:#d8dee9} .ColorScheme-Highlight {color:#3b4252}</style>
  </defs>
  <metadata
     id="metadata2">
    <rdf:RDF>
      <cc:Work
         rdf:about="">
        <dc:format>image/svg+xml</dc:format>
        <dc:type
           rdf:resource="http://purl.org/dc/dcmitype/StillImage" />
      </cc:Work>
    </rdf:RDF>
  </metadata>
  <path
     id="path5"
     style="fill:currentColor;stroke-width:0.290553"
     class="ColorScheme-Text"
     d="M 8.4665 1.4567299 C 4.66923 1.4567299 1.5900525 4.6047903 1.5900525 8.4680503 C 1.5900525 9.0619803 1.6629047 9.6391118 1.7998547 10.190392 C 1.9380147 10.110692 2.0945316 10.062095 2.2540816 10.051385 C 2.2560816 9.976085 2.2598177 9.8892225 2.2706177 9.8400325 C 2.2973177 9.7155125 2.3609579 9.6041879 2.4488979 9.5175779 C 2.3925979 9.1764579 2.3631167 8.8259003 2.3631167 8.4680503 C 2.3631167 5.0139603 5.09561 2.2292774 8.4665 2.2292774 C 11.83739 2.2292774 14.569883 5.0139603 14.569883 8.4680503 C 14.569883 8.8274003 14.540385 9.179252 14.483585 9.521712 C 14.554885 9.593512 14.606925 9.6838714 14.639645 9.7940414 C 14.660045 9.8627414 14.666583 9.947825 14.668583 10.051385 C 14.738783 10.055385 14.806199 10.06499 14.861849 10.07929 C 14.955149 10.10319 15.047139 10.141199 15.132629 10.190909 C 15.269709 9.6393986 15.342947 9.0622503 15.342947 8.4680503 C 15.342947 4.6047903 12.26378 1.4567299 8.4665 1.4567299 z M 8.4478969 2.9475657 L 7.4552121 4.0740897 C 7.9631821 4.7807797 7.9404443 5.4434882 7.9404443 5.4434882 C 7.5213743 4.8136782 6.9803151 4.5815423 6.9803151 4.5815423 L 6.3400567 5.288462 C 7.1353067 5.630552 7.3559953 6.1824467 7.3559953 6.1824467 C 8.2281453 7.8722767 7.3668472 8.9868714 7.3668472 8.9868714 C 7.2226372 9.1565414 7.0711381 9.2688675 6.9193381 9.3377475 L 9.960953 9.3377475 C 9.693403 9.2109475 9.5516837 9.0101254 9.5516837 9.0101254 C 8.9194937 8.1743854 9.1877911 6.8123421 9.5361811 6.1752121 C 9.9412711 5.4876421 10.545919 5.288462 10.545919 5.288462 L 9.9170289 4.5815423 C 9.2541289 4.9461223 8.9455311 5.4543401 8.9455311 5.4543401 C 8.9788311 4.7040101 9.43128 4.0632379 9.43128 4.0632379 L 8.4478969 2.9475657 z M 11.219249 3.861187 C 11.21786 3.861439 11.216021 3.8627148 11.215115 3.863254 L 11.214599 3.8637708 L 11.214082 3.8637708 L 11.214082 3.8642875 L 11.213565 3.8648043 L 11.213048 3.865321 C 11.207034 3.8813587 11.269375 3.9366331 11.269375 3.9366331 C 13.792365 6.9009531 11.503981 8.9512154 11.503981 8.9512154 C 11.284161 9.1388554 11.081121 9.2620675 10.895761 9.3377475 L 13.801987 9.3377475 C 13.844887 9.0462175 13.869132 8.7451648 13.874332 8.4354948 C 13.736522 5.7636148 12.401517 4.6926037 11.286427 3.8808237 C 11.252527 3.8663237 11.23275 3.860887 11.22235 3.861187 C 11.221194 3.8612161 11.220175 3.861019 11.219249 3.861187 z M 5.6749941 3.8679048 C 5.6669941 3.8679048 5.6574574 3.8699718 5.6553574 3.8699718 C 4.0213174 4.9449618 3.1278516 6.5716444 3.0612516 8.3352444 C 3.0508516 8.6761644 3.0715783 9.0115075 3.1206783 9.3377475 L 6.0222529 9.3377475 C 5.6413029 9.1940075 5.3685589 8.9315787 5.3685589 8.9315787 C 3.2265089 6.7617287 5.5537021 4.0132258 5.6832621 3.8932258 C 5.6876903 3.884857 5.6887666 3.8783765 5.6879129 3.8746226 C 5.687824 3.8743559 5.6869905 3.8733179 5.6868794 3.8730724 L 5.6868794 3.8725556 L 5.6863627 3.8720388 L 5.6858459 3.8715221 C 5.6856578 3.871354 5.6845002 3.8706392 5.6842957 3.8704886 L 5.6837789 3.8699718 C 5.6814394 3.8687926 5.6786358 3.8684216 5.6755108 3.8684216 L 5.6749941 3.8679048 z M 14.112556 9.6395319 L 2.8095923 9.6421157 C 2.8107173 9.6423657 2.8125065 9.6428699 2.8132096 9.6431492 L 2.8137263 9.6431492 L 2.8142431 9.643666 L 2.8142431 9.6441827 L 2.8142431 9.6446995 L 2.8142431 9.6452162 L 2.8137263 9.645733 L 2.8132096 9.6462497 C 2.8113639 9.6474785 2.807687 9.6485545 2.8028745 9.649867 C 2.6847445 9.686267 2.5937881 9.7846033 2.5682681 9.9035933 C 2.5622681 9.9327933 2.5568995 10.053259 2.5568995 10.171789 C 2.5568995 10.322419 2.5559053 10.368983 2.5481147 10.379524 L 2.547598 10.380041 L 2.5470812 10.380557 L 2.5465645 10.380557 L 2.5460477 10.381074 L 2.5455309 10.381074 L 2.5450142 10.381591 C 2.544805 10.381628 2.5436803 10.381574 2.5434639 10.381591 L 2.5429472 10.381591 C 2.5415607 10.381461 2.5399651 10.380675 2.5382964 10.380041 C 2.4958964 10.363641 2.4088529 10.352653 2.3207429 10.352653 C 2.1048429 10.352653 1.8907638 10.453908 1.7554138 10.619298 C 1.6990138 10.688198 1.6306054 10.822961 1.6071054 10.911781 C 1.6051054 10.918531 1.6031879 10.9239 1.6019379 10.92625 L 1.6019379 10.926767 L 1.6014211 10.926767 L 1.6014211 10.927283 L 1.6009044 10.927283 L 1.6003876 10.927283 L 1.6003876 10.926767 L 1.5998708 10.926767 L 1.5998708 10.92625 C 1.5997439 10.925992 1.5994796 10.925578 1.5993541 10.925216 L 1.5993541 11.242503 L 1.6158902 11.298313 C 1.6945902 11.562063 1.8856913 11.745463 2.1538313 11.814033 C 2.2705213 11.843833 2.4319529 11.841332 2.5372629 11.807832 C 2.5392004 11.807207 2.5419018 11.807084 2.5434639 11.807316 L 2.5439807 11.807316 L 2.5444974 11.807832 L 2.5450142 11.807832 L 2.5455309 11.808349 L 2.5460477 11.808349 L 2.5465645 11.808866 L 2.5470812 11.809383 C 2.5545343 11.81808 2.5565583 11.852251 2.5594833 11.950456 C 2.5634833 12.085166 2.5666226 12.104743 2.5946226 12.165943 C 2.6290226 12.241743 2.6857107 12.298801 2.7605007 12.333371 L 2.8101091 12.356108 L 4.6786921 12.359209 L 6.5477918 12.36231 L 6.5808641 12.331304 C 6.5989641 12.314304 6.6233233 12.294914 6.6351233 12.288414 C 6.6508233 12.279414 6.1683661 12.276412 4.8404361 12.276012 C 3.6941961 12.275672 2.9974162 12.27236 2.9506662 12.26516 C 2.8562662 12.25156 2.7972516 12.224894 2.7460316 12.173694 C 2.6776316 12.105294 2.6607163 12.054211 2.6561163 11.898781 L 2.6519823 11.763391 L 2.7098588 11.730319 C 2.8981388 11.621769 3.0312586 11.416857 3.0633186 11.187727 L 3.0767542 11.094195 L 8.4670168 11.094195 L 13.857279 11.094195 L 13.870198 11.187727 C 13.901898 11.414127 14.028536 11.611068 14.212806 11.721018 L 14.269649 11.755123 L 14.266549 11.900331 C 14.263549 12.038081 14.261409 12.048249 14.231409 12.102899 C 14.193009 12.172299 14.144074 12.215033 14.065014 12.247073 L 14.005588 12.270844 L 12.098765 12.275495 L 10.191425 12.280662 L 10.12063 12.257925 C 9.98381 12.213525 9.8982629 12.209468 9.1331129 12.212968 L 8.4081068 12.216068 L 8.4050063 12.970529 L 8.4019057 13.72499 L 8.4313607 13.732225 C 8.4473607 13.736225 8.7990197 13.735928 9.2132097 13.731708 C 9.9085997 13.724708 9.9725647 13.722687 10.049835 13.703287 C 10.166525 13.674087 10.219854 13.648668 10.280824 13.591668 C 10.344624 13.531968 10.382841 13.450088 10.400711 13.336908 C 10.420511 13.211718 10.408908 12.634668 10.385208 12.548858 C 10.361008 12.462358 10.32251 12.397882 10.25757 12.336472 C 10.235295 12.315397 10.219183 12.296688 10.21623 12.28893 C 10.216151 12.288644 10.216264 12.287629 10.21623 12.28738 L 10.21623 12.286863 L 10.21623 12.286347 L 10.216746 12.286347 L 10.216746 12.28583 L 10.217263 12.28583 L 10.21778 12.28583 L 10.218297 12.28583 C 10.23564 12.28583 10.305259 12.333142 10.313896 12.349391 C 10.314006 12.349644 10.314339 12.350706 10.314413 12.350941 L 10.314413 12.351458 C 10.314413 12.356458 11.133504 12.359692 12.213484 12.358692 L 14.112556 12.355592 L 14.168882 12.330271 C 14.235182 12.300271 14.303547 12.230005 14.335277 12.159225 C 14.353977 12.117525 14.358765 12.081344 14.362665 11.955624 C 14.365665 11.871424 14.367866 11.802148 14.368866 11.802148 C 14.369686 11.802148 14.403946 11.809267 14.445346 11.818167 C 14.830426 11.899767 15.204567 11.676429 15.317627 11.297279 L 15.334163 11.24147 L 15.334163 10.94847 C 15.331163 10.93817 15.327228 10.923963 15.323828 10.908163 C 15.304428 10.825863 15.235226 10.688684 15.177586 10.618264 C 15.082586 10.502144 14.937963 10.411566 14.786403 10.372806 C 14.687103 10.347406 14.524561 10.345039 14.436561 10.367639 C 14.402561 10.376639 14.372499 10.383658 14.369899 10.383658 C 14.366899 10.383658 14.364732 10.282923 14.364732 10.159903 C 14.364732 9.9867334 14.360779 9.9233191 14.347679 9.8787891 C 14.310979 9.7550891 14.242769 9.6882265 14.112039 9.6467665 C 14.110039 9.6460165 14.107945 9.6448233 14.106872 9.6441827 L 14.106355 9.6441827 L 14.106355 9.643666 L 14.105838 9.6431492 L 14.105838 9.6426324 L 14.105838 9.6421157 L 14.106355 9.6421157 L 14.106872 9.6415989 L 14.107388 9.6410822 C 14.108475 9.6405666 14.110236 9.6400319 14.112556 9.6395319 z M 6.0222529 9.8477838 L 6.2744289 9.8508844 L 6.5260882 9.8539849 L 6.690416 10.353686 C 6.712916 10.422086 6.7343767 10.487302 6.7539767 10.546952 C 6.7529767 10.546992 6.7518427 10.546902 6.7498427 10.546952 C 6.7376427 10.547452 6.7242694 10.54912 6.7105694 10.55212 C 6.7165694 10.5522 6.7231725 10.55205 6.7291725 10.55212 C 6.7361725 10.5522 6.7431427 10.552587 6.7498427 10.552637 L 6.7550103 10.552637 C 6.8130103 10.729717 6.8541271 10.854761 6.8542271 10.855971 C 6.8543271 10.857971 6.7714426 10.857971 6.6702626 10.855971 L 6.4862981 10.852871 L 6.4542593 10.763989 L 6.4222206 10.675107 L 6.2656441 10.678208 L 6.1090676 10.681308 L 6.0770288 10.769673 L 6.0455068 10.858555 L 5.8708439 10.858555 L 5.696181 10.858555 L 5.7416554 10.715931 C 5.7667554 10.637631 5.8400329 10.410582 5.9044329 10.211062 L 6.0222529 9.8477838 z M 4.1867421 9.8483006 L 4.9995964 9.8483006 L 5.8124507 9.8483006 L 5.8124507 9.9878242 L 5.8124507 10.127348 L 5.5871459 10.127348 L 5.3613243 10.127348 L 5.3613243 10.492693 L 5.3613243 10.858038 L 5.2006138 10.858038 L 5.0393865 10.858038 L 5.0362859 10.495277 L 5.0331854 10.133032 L 4.7639565 10.133032 C 4.5511765 10.133032 4.4901245 10.135801 4.4761245 10.147501 C 4.4661245 10.155501 4.4585548 10.166489 4.4585548 10.171789 C 4.4585548 10.176789 4.5046121 10.230632 4.5608721 10.290642 C 4.6979221 10.436802 4.7330178 10.506063 4.7319178 10.629633 C 4.7311778 10.711133 4.727612 10.722149 4.697812 10.763989 C 4.679612 10.789089 4.6444654 10.820451 4.6192654 10.833751 C 4.5735654 10.857951 4.5733776 10.858038 4.0218976 10.858038 L 3.4700041 10.858038 L 3.4700041 10.71283 L 3.4700041 10.568139 L 3.857053 10.568139 C 4.170803 10.568139 4.2516349 10.565237 4.2818249 10.552637 C 4.2997624 10.544762 4.3150377 10.535229 4.3185144 10.529899 L 4.3185144 10.529383 L 4.3185144 10.528866 L 4.3190312 10.528349 C 4.3188812 10.509349 4.277181 10.458758 4.199661 10.383658 C 4.137461 10.323458 4.1082302 10.284707 4.0771902 10.221397 C 4.0380902 10.141697 4.0366677 10.135126 4.0425677 10.057586 C 4.0495677 9.960286 4.075151 9.9130951 4.140751 9.8746551 L 4.1867421 9.8483006 z M 6.9622287 9.8483006 L 7.3539283 9.8483006 C 7.7273483 9.8483006 7.7488217 9.8491378 7.8071217 9.8710378 C 7.8859217 9.9005378 7.9760464 9.9858742 7.9926364 10.046734 C 7.9986364 10.070334 8.0044218 10.12164 8.0045218 10.16042 C 8.0046218 10.28591 7.9316247 10.386497 7.8050547 10.434817 C 7.7821297 10.443567 7.7624844 10.454039 7.7580301 10.459621 L 7.7575133 10.460138 L 7.7575133 10.460654 L 7.7575133 10.461171 L 7.7575133 10.461688 L 7.7575133 10.462205 C 7.7575823 10.462412 7.7579279 10.463523 7.7580301 10.463755 C 7.761798 10.470896 7.7783951 10.487016 7.7978201 10.503028 C 7.8646201 10.558328 7.9181143 10.568139 8.1569643 10.568139 L 8.369867 10.568139 L 8.369867 10.71283 L 8.369867 10.858038 L 8.0928867 10.857521 C 7.7341067 10.857091 7.673806 10.850011 7.596286 10.795511 C 7.563786 10.772711 7.4910587 10.703415 7.4350587 10.642035 C 7.3790587 10.580635 7.3295601 10.528769 7.3249901 10.526799 L 7.3244733 10.526799 L 7.3244733 10.527316 L 7.3239566 10.527832 L 7.3239566 10.528349 C 7.3197731 10.538958 7.3172388 10.60718 7.3172388 10.69061 L 7.3172388 10.858038 L 7.1399921 10.858038 L 6.9627454 10.858038 L 6.9627454 10.353169 L 6.9622287 9.8483006 z M 8.743997 9.8483006 L 8.9269279 9.8483006 L 8.9770531 9.9997096 C 9.0013781 10.072685 9.0247592 10.130459 9.0328625 10.139233 L 9.0333793 10.13975 L 9.0338961 10.13975 L 9.0344128 10.13975 L 9.0349296 10.13975 L 9.0354463 10.13975 C 9.0394463 10.13275 9.0618547 10.064614 9.0850547 9.9878242 L 9.1274286 9.8483006 L 9.3268957 9.8483006 L 9.5268795 9.8483006 L 9.5671863 9.9852404 C 9.5894863 10.06054 9.6113612 10.126075 9.6157612 10.130965 L 9.616278 10.131482 L 9.6167947 10.131482 L 9.6173115 10.131482 L 9.6178282 10.131482 L 9.618345 10.130965 L 9.6188618 10.130965 L 9.6193785 10.130448 C 9.6311436 10.118993 9.6645834 10.033554 9.70671 9.9046268 L 9.7253131 9.8483006 L 9.9066938 9.8483006 L 10.087558 9.8483006 L 10.073605 9.893775 C 10.065605 9.918875 9.9926979 10.146391 9.9108279 10.399161 L 9.7620027 10.858555 L 9.6018089 10.855971 L 9.4421318 10.852871 L 9.3863224 10.680792 C 9.3585005 10.595151 9.3324015 10.527111 9.3253454 10.519564 L 9.3248286 10.519564 L 9.3243119 10.519564 C 9.3213119 10.525564 9.3022716 10.578781 9.2829716 10.637901 C 9.2636716 10.697001 9.2385621 10.770692 9.2271621 10.801712 L 9.2064919 10.858038 L 9.0478484 10.858038 L 8.8897216 10.858038 L 8.7310781 10.368672 C 8.6439781 10.099622 8.5700803 9.8724932 8.5667503 9.8638032 C 8.5665941 9.8633813 8.5663275 9.8626532 8.5662336 9.862253 L 8.5662336 9.8617362 L 8.5662336 9.8612195 C 8.566239 9.861035 8.5667258 9.8598485 8.5667503 9.8596692 L 8.5667503 9.8591524 L 8.5667503 9.8586357 L 8.5672671 9.8586357 L 8.5677838 9.8581189 L 8.5677838 9.8576022 L 8.5683006 9.8570854 C 8.5774443 9.8496608 8.6192462 9.8483006 8.743997 9.8483006 z M 10.305628 9.8483006 L 10.556771 9.8483006 L 10.807913 9.8483006 L 10.937102 10.243101 C 11.008102 10.460261 11.08252 10.6874 11.10298 10.74797 L 11.140186 10.858038 L 10.955705 10.858038 L 10.771224 10.858038 L 10.738668 10.769673 L 10.706629 10.680792 L 10.549536 10.677691 L 10.392959 10.675107 L 10.361954 10.766573 L 10.330949 10.858038 L 10.156286 10.858038 C 10.060186 10.858038 9.9816232 10.855871 9.9816232 10.852871 C 9.9816232 10.848871 10.17202 10.256998 10.27824 9.931498 L 10.305628 9.8483006 z M 11.249221 9.8483006 L 11.640404 9.8483006 C 12.015924 9.8483006 12.034094 9.8491845 12.092564 9.8715545 C 12.251994 9.9325545 12.331677 10.084587 12.286347 10.240517 C 12.262947 10.321217 12.181388 10.406353 12.099798 10.435333 C 12.073111 10.444783 12.050225 10.455578 12.045022 10.460654 L 12.044506 10.461171 L 12.044506 10.461688 L 12.044506 10.462205 L 12.044506 10.462721 C 12.046979 10.482722 12.12608 10.537133 12.174728 10.551603 C 12.255228 10.575503 12.686166 10.575413 12.732306 10.551603 C 12.747531 10.543728 12.760853 10.532521 12.763828 10.525765 L 12.763828 10.525249 C 12.763882 10.525028 12.7638 10.523907 12.763828 10.523698 L 12.763828 10.523182 C 12.761513 10.514934 12.723868 10.469347 12.678046 10.420347 C 12.526176 10.258017 12.475684 10.157734 12.488914 10.045184 C 12.496914 9.9773839 12.507724 9.9525376 12.547824 9.9092776 C 12.604724 9.8477776 12.598792 9.8483006 13.048042 9.8483006 L 13.462479 9.8483006 L 13.462479 9.9878242 L 13.462479 10.127348 L 13.218054 10.128381 C 13.083614 10.128971 12.961528 10.132649 12.946758 10.136649 C 12.894558 10.151049 12.905382 10.187445 12.987582 10.271005 C 13.125832 10.411555 13.182915 10.517554 13.182915 10.634284 C 13.182915 10.729384 13.133096 10.797075 13.033056 10.836335 C 12.975256 10.859035 12.964733 10.859154 12.479613 10.855454 C 11.928273 10.851454 11.95586 10.855331 11.85589 10.773291 C 11.82619 10.748891 11.761246 10.682672 11.711716 10.626532 C 11.662216 10.570432 11.617916 10.524732 11.613016 10.524732 L 11.612499 10.524732 L 11.611983 10.524732 L 11.611983 10.525249 C 11.607423 10.533824 11.603714 10.605308 11.603714 10.691127 L 11.603714 10.857521 L 11.426468 10.857521 L 11.249221 10.857521 L 11.249221 10.352653 L 11.249221 9.8483006 z M 10.55522 10.065854 C 10.55122 10.069854 10.411046 10.459005 10.411046 10.466855 C 10.411046 10.468855 10.474216 10.470989 10.551086 10.470989 C 10.620686 10.470989 10.679283 10.467348 10.689576 10.463755 L 10.690093 10.463755 L 10.690093 10.463238 L 10.69061 10.463238 C 10.69061 10.446938 10.55937 10.061704 10.55522 10.065854 z M 6.2759792 10.070505 L 6.2759792 10.071022 L 6.2754624 10.071022 L 6.2749456 10.071538 L 6.2744289 10.071538 L 6.2739121 10.072055 C 6.2683422 10.076505 6.2585827 10.095848 6.2475577 10.127348 C 6.2340577 10.165748 6.2011786 10.258699 6.1741786 10.334049 L 6.1250869 10.470989 L 6.2687446 10.470989 L 6.412919 10.470989 L 6.3488415 10.280307 C 6.3138415 10.175417 6.2822629 10.082465 6.2785629 10.073605 L 6.2785629 10.073089 C 6.2784584 10.07287 6.2781641 10.071726 6.2780462 10.071538 L 6.2775294 10.071538 L 6.2770127 10.071022 L 6.2764959 10.071022 L 6.2764959 10.070505 L 6.2759792 10.070505 z M 7.3224063 10.089625 L 7.3193058 10.174889 C 7.3173058 10.221689 7.3186828 10.266206 7.3213728 10.274106 L 7.3213728 10.274623 L 7.3218896 10.27514 C 7.3220738 10.275469 7.3226772 10.276375 7.3229231 10.27669 C 7.3319097 10.285401 7.3686406 10.288575 7.4619299 10.288575 C 7.5910699 10.288575 7.5979572 10.287621 7.6231572 10.262221 C 7.6568572 10.228521 7.6600583 10.153066 7.6293583 10.114946 C 7.6096583 10.090546 7.6031972 10.089625 7.4655472 10.089625 L 7.3224063 10.089625 z M 11.608882 10.089625 L 11.606298 10.174889 C 11.604298 10.221689 11.605332 10.266203 11.608882 10.274623 C 11.613882 10.286923 11.642518 10.289308 11.760808 10.286508 C 11.890548 10.283508 11.908505 10.280621 11.922035 10.262221 C 11.944635 10.231321 11.941367 10.145606 11.916867 10.114946 C 11.897167 10.090546 11.890706 10.089625 11.753056 10.089625 L 11.608882 10.089625 z M 14.61019 10.446185 C 14.79194 10.446945 14.956134 10.521375 15.085604 10.662705 C 15.198944 10.786405 15.251922 10.928697 15.249932 11.105047 C 15.246932 11.394827 15.039359 11.657098 14.761599 11.722568 C 14.669499 11.744268 14.516143 11.742334 14.432943 11.718434 C 14.319203 11.685934 14.247143 11.642576 14.154413 11.551006 C 14.054813 11.452606 13.999342 11.353871 13.973032 11.228551 C 13.894632 10.855141 14.155387 10.491439 14.531127 10.450319 C 14.557727 10.447319 14.58429 10.446185 14.61019 10.446185 z M 2.3367623 10.446702 L 2.337279 10.446702 C 2.572059 10.451702 2.7952246 10.581778 2.9015746 10.797578 C 2.9978746 10.992988 2.9991751 11.191324 2.9046751 11.384094 C 2.8749751 11.444994 2.8438703 11.485986 2.7780703 11.551006 C 2.6836703 11.644306 2.6023275 11.692081 2.4855875 11.722051 C 2.4047875 11.742751 2.2520734 11.742841 2.1662334 11.722051 C 1.9629034 11.672851 1.7829233 11.502805 1.7125233 11.293145 C 1.6789233 11.192985 1.6718871 11.042669 1.6959871 10.943819 C 1.7454871 10.740679 1.9098059 10.555278 2.1021559 10.485458 C 2.1791559 10.457458 2.2585023 10.445102 2.3367623 10.446702 z M 2.3269439 10.503545 L 2.2959387 10.533 C 2.2788387 10.5492 2.2554465 10.57571 2.2437465 10.59191 C 2.2225465 10.62141 2.22258 10.621492 2.24478 10.680792 C 2.25698 10.713492 2.2670005 10.743019 2.2670005 10.746419 L 2.2670005 10.746936 L 2.2664837 10.746936 L 2.2659669 10.746936 L 2.2654502 10.746936 C 2.2602986 10.745202 2.2438849 10.731714 2.2241099 10.713864 C 2.2018911 10.693801 2.1790577 10.677097 2.1719177 10.675107 L 2.1714009 10.675107 L 2.1708842 10.675107 C 2.159303 10.676925 2.1089257 10.7342 2.1062899 10.74797 L 2.1062899 10.748486 L 2.1062899 10.749003 L 2.1062899 10.74952 L 2.1068067 10.750037 L 2.1073234 10.750553 C 2.1113491 10.756509 2.1279427 10.770492 2.1476302 10.784142 C 2.2022302 10.821842 2.236113 10.894053 2.242713 10.986193 C 2.248713 11.074393 2.2338041 11.12689 2.1900041 11.16344 C 2.1243041 11.21874 2.0270393 11.191162 1.9646993 11.099362 C 1.8834993 10.979852 1.8951543 10.809935 1.9941543 10.662705 C 2.0120043 10.636193 2.0257226 10.611894 2.0272265 10.604829 L 2.0272265 10.604312 L 2.0272265 10.603795 L 2.0267098 10.603795 L 2.0267098 10.603278 L 2.026193 10.603278 L 2.0256763 10.603278 L 2.0251595 10.603278 L 2.0246428 10.603278 C 2.0074852 10.60703 1.9153081 10.68447 1.8815019 10.725232 C 1.8332019 10.783432 1.7762481 10.900284 1.7610981 10.973274 C 1.7429981 11.060474 1.7531683 11.22332 1.7817683 11.30348 C 1.8790683 11.57677 2.174123 11.736025 2.459233 11.668825 C 2.558333 11.645425 2.666417 11.584285 2.738797 11.511215 C 2.911497 11.336895 2.9551254 11.068436 2.8473154 10.842536 C 2.8111154 10.766736 2.7118158 10.651531 2.6530158 10.617231 C 2.6411721 10.610325 2.6327273 10.605563 2.6287284 10.604829 L 2.6282116 10.604829 L 2.6276949 10.604829 L 2.6271781 10.604829 L 2.6271781 10.605345 L 2.6266613 10.605345 L 2.6266613 10.605862 L 2.6261446 10.605862 L 2.6261446 10.606379 L 2.6261446 10.606896 L 2.6261446 10.607412 L 2.6266613 10.607929 C 2.6283238 10.614929 2.6408347 10.633923 2.6659347 10.670973 C 2.7338347 10.771323 2.7640138 10.903898 2.7393138 10.991878 C 2.7238138 11.047178 2.6728116 11.124236 2.6282116 11.159306 C 2.6116116 11.172306 2.5766985 11.185344 2.5506985 11.188244 C 2.4892985 11.195244 2.454414 11.17263 2.425644 11.10763 C 2.398144 11.04533 2.4030958 10.938514 2.4364958 10.873024 C 2.4580958 10.830724 2.517468 10.769215 2.547598 10.758305 C 2.5482355 10.758055 2.5496804 10.757075 2.5501817 10.756754 L 2.5506985 10.756238 L 2.5512152 10.755721 L 2.551732 10.755204 C 2.5518458 10.754969 2.5521692 10.753909 2.5522487 10.753654 C 2.5533316 10.747059 2.5445025 10.734339 2.5253775 10.713864 C 2.5062525 10.693801 2.4866195 10.677119 2.4804199 10.675107 L 2.4799032 10.675107 L 2.4793864 10.675107 C 2.4734752 10.676148 2.4509934 10.693229 2.4282278 10.713864 L 2.3853372 10.75262 L 2.400323 10.702495 C 2.408323 10.674995 2.4214445 10.645251 2.4287445 10.636351 C 2.4399445 10.622851 2.4331204 10.610838 2.3848204 10.561938 L 2.3269439 10.503545 z M 14.597788 10.503545 L 14.597788 10.504062 C 14.595788 10.507062 14.570929 10.534255 14.543529 10.565555 L 14.49392 10.622398 L 14.51149 10.655987 C 14.52149 10.674587 14.532528 10.703882 14.537328 10.720582 L 14.546629 10.75107 L 14.502188 10.71283 C 14.479407 10.69333 14.457717 10.677051 14.452063 10.675107 L 14.451547 10.675107 L 14.45103 10.675107 L 14.450513 10.675624 C 14.445011 10.677625 14.426654 10.694224 14.407622 10.714381 C 14.387066 10.736015 14.379139 10.747899 14.380751 10.754171 C 14.380858 10.754425 14.381641 10.755485 14.381785 10.755721 L 14.382302 10.756238 L 14.382818 10.756754 C 14.383821 10.757504 14.385402 10.758284 14.386952 10.758821 C 14.395952 10.761821 14.422913 10.78423 14.447413 10.80843 C 14.521813 10.88223 14.548176 11.018991 14.505806 11.112281 C 14.461606 11.209581 14.349919 11.218128 14.266549 11.130368 C 14.163599 11.021968 14.162732 10.82445 14.264482 10.67304 C 14.284882 10.64284 14.304806 10.613212 14.308406 10.607412 C 14.309587 10.6055 14.310111 10.603401 14.310473 10.602245 L 14.310473 10.601728 L 14.310473 10.601211 L 14.310473 10.600695 L 14.310473 10.600178 L 14.309956 10.600178 L 14.309439 10.600178 L 14.308922 10.600178 L 14.308406 10.600178 C 14.294567 10.60269 14.226339 10.657762 14.182318 10.704562 C 14.087518 10.805512 14.022217 10.964945 14.021607 11.097295 C 14.021057 11.217215 14.083748 11.388958 14.163198 11.485378 C 14.235098 11.572678 14.368283 11.649813 14.488753 11.673993 C 14.560053 11.688293 14.668408 11.686342 14.736278 11.669342 C 14.896948 11.628342 15.040248 11.519681 15.110408 11.386161 C 15.247228 11.125791 15.18633 10.818055 14.96365 10.642035 C 14.937925 10.621647 14.914243 10.605779 14.907324 10.603795 L 14.906807 10.603795 L 14.90629 10.603795 L 14.90629 10.604312 L 14.905773 10.604312 C 14.905774 10.604469 14.906259 10.605659 14.90629 10.605862 C 14.908003 10.612784 14.921083 10.636709 14.938846 10.663222 C 14.995946 10.748122 15.020493 10.824622 15.020493 10.917982 C 15.020493 11.008482 14.99953 11.06346 14.94143 11.1252 C 14.87333 11.1975 14.799766 11.211757 14.742996 11.163957 C 14.698996 11.126957 14.68377 11.075482 14.68977 10.981542 C 14.69577 10.891442 14.72972 10.821615 14.78692 10.782075 C 14.80612 10.768875 14.823893 10.756487 14.826193 10.754687 L 14.826193 10.754171 L 14.82671 10.754171 L 14.82671 10.753654 L 14.82671 10.753137 L 14.82671 10.75262 L 14.82671 10.752104 L 14.826193 10.751587 C 14.822402 10.737513 14.778294 10.683474 14.764183 10.676141 L 14.763666 10.675624 C 14.763447 10.675554 14.762829 10.67566 14.762633 10.675624 L 14.762116 10.675624 L 14.761599 10.675624 L 14.761082 10.675624 C 14.753436 10.677648 14.730873 10.694554 14.708373 10.714897 L 14.664966 10.754687 L 14.672717 10.723165 C 14.676717 10.705865 14.686838 10.678605 14.694938 10.662705 C 14.702938 10.646705 14.709407 10.627198 14.709407 10.619298 L 14.709407 10.618781 L 14.709407 10.618264 L 14.709407 10.617748 C 14.703848 10.598825 14.615852 10.507617 14.600372 10.504062 L 14.599855 10.504062 L 14.599338 10.504062 L 14.598822 10.503545 L 14.598305 10.503545 L 14.597788 10.503545 z M 13.010836 11.287978 L 13.010319 11.288494 C 13.004319 11.288644 12.998816 11.289318 12.991716 11.289528 L 12.941591 11.292628 L 12.93849 11.628519 L 12.93539 11.964926 L 13.01342 11.961825 L 13.09145 11.958725 L 13.087316 11.745305 L 13.083698 11.531369 L 13.317271 11.747889 L 13.550844 11.964409 L 13.603553 11.964409 C 13.630194 11.964409 13.647646 11.960496 13.654195 11.955107 C 13.654423 11.954884 13.655551 11.954304 13.655745 11.954074 C 13.655905 11.953836 13.656136 11.952768 13.656262 11.952523 C 13.656353 11.952272 13.656722 11.951232 13.656779 11.950973 C 13.657339 11.943973 13.656805 11.797295 13.655745 11.625935 C 13.654745 11.422195 13.64981 11.3095 13.64231 11.30038 C 13.63531 11.29138 13.612233 11.287528 13.581333 11.289528 L 13.532241 11.292628 L 13.527073 11.509665 L 13.521906 11.726702 L 13.38755 11.602164 C 13.07315 11.311054 13.049656 11.286988 13.010836 11.287978 z M 12.277562 11.289528 C 12.230543 11.291377 12.204374 11.295125 12.180929 11.30193 C 12.080379 11.33113 12.08268 11.321373 12.08998 11.637303 C 12.09498 11.840593 12.10015 11.916163 12.11065 11.928753 C 12.14385 11.968753 12.182522 11.974027 12.452742 11.974227 C 12.690832 11.974387 12.7201 11.972257 12.76176 11.953557 C 12.83846 11.918757 12.84374 11.895229 12.83514 11.610949 C 12.82814 11.361729 12.81998 11.321987 12.77778 11.302447 C 12.76718 11.297447 12.641376 11.291728 12.498216 11.289528 C 12.391996 11.288028 12.324581 11.287679 12.277562 11.289528 z M 10.069471 11.296246 L 10.040533 11.347921 C 9.9699331 11.472091 9.7340979 11.940478 9.7340979 11.956658 C 9.7340979 11.960764 9.7358236 11.964498 9.738232 11.966993 C 9.7449606 11.972705 9.7613897 11.974296 9.7961084 11.974227 L 9.8576022 11.974227 L 9.8917079 11.899298 L 9.9258137 11.823852 L 10.12063 11.823852 L 10.31493 11.823852 L 10.349552 11.896197 L 10.384175 11.96906 L 10.447735 11.971643 C 10.481448 11.973581 10.512712 11.971118 10.518531 11.966993 L 10.519047 11.966993 C 10.523047 11.961993 10.453381 11.810816 10.364021 11.630586 L 10.20176 11.302964 L 10.135616 11.299863 L 10.069471 11.296246 z M 9.1300123 11.298313 C 9.1180939 11.297834 9.1050202 11.297916 9.0938395 11.298829 L 9.0519825 11.30193 L 9.0442311 11.586662 C 9.0352311 11.899802 9.0379395 11.91893 9.0938395 11.95304 C 9.1237395 11.97134 9.1514424 11.97371 9.3863224 11.97371 L 9.645733 11.97371 L 9.679322 11.942188 L 9.712911 11.910666 L 9.7098105 11.606298 L 9.70671 11.30193 L 9.6369482 11.30193 L 9.5671863 11.30193 L 9.5713204 11.572192 L 9.5749377 11.842455 L 9.3883894 11.846589 C 9.2856394 11.848589 9.1980031 11.849636 9.1935731 11.847106 C 9.1895731 11.845106 9.185305 11.722563 9.185305 11.575293 L 9.185305 11.307614 L 9.1599841 11.301413 C 9.1531954 11.299474 9.1427135 11.298371 9.1310458 11.298313 L 9.1300123 11.298313 z M 11.424918 11.299346 C 11.387363 11.300758 11.369156 11.304028 11.363424 11.308131 L 11.362907 11.308648 L 11.36239 11.309165 L 11.36239 11.309681 L 11.361874 11.310198 C 11.358874 11.318198 11.356122 11.469912 11.354122 11.648672 L 11.351022 11.97371 L 11.405281 11.97371 C 11.435081 11.97371 11.465459 11.967692 11.472459 11.960792 L 11.472976 11.960275 C 11.480536 11.950365 11.485378 11.906795 11.485378 11.837287 L 11.485378 11.726702 L 11.559274 11.726702 L 11.633686 11.726702 L 11.755123 11.850206 L 11.876044 11.97371 L 11.954074 11.97371 C 11.994293 11.97371 12.030676 11.970309 12.037788 11.964926 L 12.037788 11.964409 L 12.038305 11.964409 L 12.038305 11.963892 L 12.038305 11.963375 L 12.038305 11.962859 L 12.038305 11.962342 C 12.034749 11.951704 11.9843 11.897673 11.920485 11.837804 C 11.787455 11.712944 11.785714 11.707722 11.877594 11.706032 C 11.925994 11.705132 11.983145 11.674904 12.001615 11.640404 C 12.009615 11.625604 12.0124 11.571682 12.0104 11.489512 C 12.0074 11.366372 12.005628 11.360572 11.977328 11.331902 L 11.947356 11.302447 L 11.65694 11.299346 C 11.54194 11.297846 11.469426 11.297673 11.424918 11.299346 z M 10.556254 11.302447 L 10.553153 11.63782 L 10.550053 11.97371 L 10.741252 11.97371 C 10.846222 11.97365 10.963286 11.968742 11.001696 11.962342 C 11.094096 11.947442 11.150331 11.912797 11.209431 11.834187 C 11.265031 11.760187 11.276874 11.711054 11.266274 11.599064 C 11.255974 11.490874 11.242144 11.453942 11.188244 11.393912 C 11.105044 11.301412 11.108067 11.302447 10.813597 11.302447 L 10.556254 11.302447 z M 6.3286881 11.306064 L 6.2666776 11.309165 L 6.2046671 11.312265 L 6.2020833 11.583561 L 6.1989828 11.854857 L 6.0041665 11.854857 L 5.8098669 11.854857 L 5.8134842 11.583561 L 5.8176182 11.312265 L 5.7576747 11.309165 C 5.7151747 11.307165 5.6939124 11.310167 5.6848124 11.321567 C 5.6846585 11.321752 5.6839295 11.322862 5.6837789 11.323117 C 5.6653672 11.363465 5.6730318 11.933424 5.6925637 11.965959 C 5.7055637 11.981559 5.7390877 11.984146 5.9721277 11.984046 C 6.2270677 11.983866 6.2381864 11.982741 6.2795964 11.959241 L 6.322487 11.934954 L 6.3255876 11.620767 L 6.3286881 11.306064 z M 7.0779816 11.307098 L 6.780848 11.310198 L 6.4842311 11.312782 L 6.4811306 11.634203 C 6.4791618 11.860619 6.4819506 11.956976 6.4909489 11.970093 C 6.5010489 11.982293 6.5569203 11.984378 6.7948003 11.981978 L 7.0862497 11.978878 L 7.0893502 11.917384 C 7.0909752 11.88139 7.0885988 11.862032 7.0826324 11.855374 C 7.0819041 11.854711 7.0803826 11.853662 7.0795319 11.853307 C 7.0792344 11.853221 7.0788099 11.85336 7.0784984 11.853307 C 7.0704984 11.852307 6.9655487 11.851206 6.8444087 11.850206 L 6.6237547 11.849689 L 6.6237547 11.769076 L 6.6237547 11.688462 L 6.7529432 11.688462 L 6.881615 11.688462 L 6.8857491 11.657457 C 6.8877491 11.640457 6.8862785 11.615231 6.8826485 11.601131 C 6.8766485 11.576031 6.8739157 11.57581 6.7477757 11.57581 L 6.6191039 11.57581 L 6.6191039 11.507081 L 6.6191039 11.43887 L 6.841825 11.431119 C 6.967255 11.427119 7.0709484 11.418199 7.0784984 11.411999 C 7.0929984 11.399999 7.0952162 11.369568 7.0852162 11.330868 L 7.0779816 11.307098 z M 8.8943724 11.307098 L 8.5993058 11.307614 C 8.1846158 11.307614 8.2085497 11.28831 8.2086397 11.6187 C 8.2087297 11.97529 8.2074966 11.97371 8.4463466 11.97371 L 8.6065404 11.97371 L 8.6406461 12.043472 L 8.6752687 12.113234 L 8.7357289 12.113234 C 8.7668539 12.113234 8.795902 12.110142 8.8023902 12.106516 L 8.8023902 12.105999 L 8.802907 12.105999 L 8.802907 12.105483 L 8.8034237 12.104966 L 8.8034237 12.104449 L 8.8034237 12.103932 C 8.8041798 12.095866 8.795616 12.072631 8.7827535 12.047606 C 8.7682535 12.019006 8.7563991 11.990146 8.7563991 11.984046 L 8.7563991 11.983529 L 8.7569158 11.983012 L 8.7569158 11.982495 L 8.7574326 11.981978 L 8.7579493 11.981462 L 8.7584661 11.980945 C 8.7642609 11.976464 8.7819152 11.973194 8.8023902 11.973194 C 8.8485902 11.973164 8.9108363 11.944383 8.9367463 11.911183 C 8.9467463 11.898483 8.9501819 11.825586 8.9501819 11.633686 L 8.9501819 11.373242 L 8.9222772 11.34017 L 8.8943724 11.307098 z M 7.5301415 11.307614 L 7.4986195 11.33862 C 7.4681195 11.36912 7.4675142 11.373169 7.4676142 11.475559 C 7.4676542 11.533659 7.4722661 11.599294 7.4784661 11.621284 C 7.4979661 11.691384 7.5087346 11.694146 7.7652646 11.694146 L 7.99367 11.694146 L 7.99367 11.768559 L 7.99367 11.842455 L 7.9161568 11.849689 C 7.8733568 11.853689 7.7776309 11.854823 7.7037709 11.853823 L 7.5694148 11.850723 L 7.5663143 11.815584 C 7.5633143 11.786484 7.5582425 11.780961 7.5363425 11.780961 C 7.5217425 11.780961 7.4932818 11.787864 7.4727818 11.796464 C 7.4419818 11.809364 7.4355755 11.817622 7.4355755 11.844522 C 7.4355755 11.862322 7.4432451 11.893584 7.4531451 11.914284 C 7.4831451 11.977084 7.5144845 11.983962 7.7843845 11.984562 C 8.0000545 11.985032 8.0239237 11.983292 8.0551637 11.963892 C 8.0739637 11.952392 8.0941046 11.934285 8.0996046 11.923585 C 8.1151046 11.893385 8.1236569 11.738993 8.1135569 11.675543 C 8.0984569 11.581543 8.1031189 11.582943 7.8298589 11.576843 L 7.5911185 11.571676 L 7.5880179 11.49933 L 7.5854342 11.426985 L 7.7781835 11.426985 L 7.9714495 11.426985 L 7.9838516 11.465224 C 7.9903516 11.485212 7.9989995 11.496575 8.0065888 11.498297 C 8.0071719 11.498371 8.0085919 11.498338 8.0091726 11.498297 C 8.0097517 11.498196 8.0106646 11.497999 8.0112396 11.49778 C 8.0192396 11.49478 8.0451161 11.487227 8.0691161 11.480727 C 8.1053161 11.470727 8.1125234 11.46417 8.1125234 11.44197 C 8.1125234 11.40807 8.088882 11.351111 8.064982 11.327251 C 8.048682 11.310951 8.0176086 11.308648 7.7885186 11.308648 L 7.5301415 11.307614 z M 5.1845944 11.314849 L 5.1845944 11.315366 L 4.9055471 11.320533 L 4.8755754 11.350505 L 4.8456037 11.380477 L 4.8456037 11.65384 C 4.8456037 11.91411 4.8465241 11.928157 4.8678241 11.955107 L 4.8900445 11.983529 L 5.1804604 11.983529 L 5.4708762 11.983529 L 5.5075657 11.947356 L 5.5442553 11.910666 L 5.5442553 11.753573 L 5.5442553 11.596997 L 5.3732097 11.596997 L 5.202164 11.596997 L 5.1954462 11.63937 C 5.1916962 11.661308 5.1913869 11.684826 5.1944127 11.692596 L 5.1949295 11.693113 L 5.1949295 11.69363 L 5.1954462 11.69363 L 5.195963 11.694146 C 5.2047158 11.699662 5.250406 11.704482 5.3086154 11.704482 L 5.4155835 11.704482 L 5.4155835 11.779928 L 5.4155835 11.855374 L 5.2031975 11.852273 L 4.9908116 11.849173 L 4.9882278 11.636787 L 4.9851273 11.424401 L 5.1975132 11.427501 L 5.4098992 11.430602 L 5.4098992 11.462641 C 5.4098992 11.492741 5.412039 11.494612 5.448139 11.492612 C 5.469039 11.491612 5.4989003 11.485893 5.5148003 11.479693 C 5.5485003 11.466893 5.5528527 11.434669 5.5287527 11.376859 C 5.5007527 11.309859 5.4945744 11.308849 5.1845944 11.314849 z M 4.3851757 11.318466 C 4.2088357 11.318466 4.0838146 11.322435 4.0637546 11.329835 C 4.0442546 11.336835 4.0265305 11.352942 4.0198305 11.370142 C 4.0138305 11.386042 4.0052274 11.50575 4.0012274 11.63627 C 3.9932274 11.904 3.9983363 11.937087 4.0539363 11.972677 C 4.0863363 11.993377 4.1035342 11.994864 4.3567542 11.993864 C 4.5044842 11.993264 4.6393716 11.989596 4.6564716 11.985596 C 4.6735716 11.981596 4.6978141 11.965606 4.7102141 11.948906 C 4.7313141 11.920606 4.7329518 11.902421 4.7360518 11.683811 C 4.7400518 11.437291 4.7323115 11.377046 4.6947115 11.339136 C 4.6750115 11.319436 4.6566857 11.318466 4.3851757 11.318466 z M 3.5289141 11.320016 L 3.5294308 11.320533 L 3.2715705 11.323117 L 3.26847 11.659007 L 3.2658862 11.994897 L 3.3247962 11.994897 L 3.3842229 11.994897 L 3.3842229 11.865709 L 3.3842229 11.737037 L 3.4638031 11.737037 L 3.5428665 11.737037 L 3.6105612 11.815067 C 3.6477612 11.857867 3.7001209 11.915669 3.7268309 11.943739 L 3.7754058 11.994897 L 3.8586032 11.994897 C 3.9000189 11.994897 3.9374562 11.991194 3.9464514 11.986113 L 3.9469682 11.985596 L 3.947485 11.985079 L 3.947485 11.984562 L 3.947485 11.984046 L 3.947485 11.983529 C 3.9437919 11.972764 3.892698 11.917222 3.827598 11.85589 L 3.7009932 11.737037 L 3.7692048 11.737037 C 3.8293048 11.736847 3.8405881 11.733149 3.8673881 11.706549 C 3.8922881 11.681649 3.8991279 11.662951 3.9056279 11.602681 C 3.9165279 11.501031 3.9053239 11.38463 3.8823739 11.35929 C 3.8489739 11.32239 3.7960341 11.316716 3.5289141 11.320016 z M 12.675463 11.412515 L 12.675979 11.412515 L 12.676496 11.413032 L 12.677013 11.413549 L 12.67753 11.413549 L 12.678046 11.414066 L 12.678563 11.414582 C 12.686745 11.426199 12.688399 11.479058 12.686314 11.622834 L 12.683214 11.828503 L 12.46256 11.831603 C 12.34104 11.833603 12.238215 11.831039 12.234155 11.827469 L 12.233638 11.826952 L 12.233121 11.826435 C 12.224947 11.808709 12.225316 11.653727 12.233638 11.521551 L 12.240872 11.4182 L 12.451191 11.413032 C 12.567051 11.410032 12.667953 11.410152 12.675463 11.413032 L 12.675463 11.412515 z M 10.69061 11.413549 L 10.855454 11.416649 C 11.018074 11.419649 11.020576 11.420355 11.060606 11.450755 C 11.113306 11.490955 11.130884 11.535985 11.130884 11.629035 C 11.130884 11.705035 11.122126 11.731687 11.082826 11.778377 C 11.041526 11.826777 11.012574 11.83367 10.853904 11.83367 C 10.771904 11.83367 10.701774 11.830435 10.697844 11.826435 C 10.693844 11.822435 10.69061 11.727777 10.69061 11.616117 L 10.69061 11.413549 z M 11.485378 11.415616 L 11.672443 11.415616 C 11.885053 11.415616 11.872427 11.409566 11.872427 11.512766 C 11.872427 11.564266 11.868556 11.578078 11.851756 11.587178 C 11.839856 11.593178 11.756464 11.59803 11.657974 11.59803 L 11.485378 11.59803 L 11.485378 11.506565 L 11.485378 11.415616 z M 8.804974 11.420267 L 8.8127253 11.597513 C 8.8177253 11.695013 8.8187923 11.790699 8.8147923 11.809899 C 8.8087923 11.844299 8.8079813 11.845039 8.7496813 11.845039 L 8.6902545 11.845039 L 8.647364 11.75254 C 8.601164 11.65252 8.6035935 11.653895 8.5264435 11.683295 C 8.4875435 11.698095 8.4870084 11.704527 8.5161084 11.773727 C 8.5375084 11.824427 8.5399105 11.838872 8.5285105 11.846072 L 8.5279937 11.846589 C 8.5095659 11.856165 8.3832897 11.857294 8.3610822 11.848139 L 8.3605654 11.847622 L 8.3600486 11.847106 L 8.3595319 11.847106 C 8.3508472 11.837515 8.3476465 11.78262 8.3476465 11.63937 C 8.3476465 11.4672 8.3508827 11.434868 8.3641827 11.429568 C 8.3731827 11.426568 8.475998 11.4223 8.592588 11.4213 L 8.804974 11.420267 z M 3.3816392 11.436803 L 3.5635366 11.436803 C 3.6868101 11.436803 3.7460837 11.440879 3.7578362 11.449205 L 3.7583529 11.449205 C 3.7764529 11.467205 3.7746859 11.578124 3.7562859 11.603714 C 3.7433859 11.621314 3.7268448 11.624518 3.6513848 11.625418 C 3.6021848 11.625978 3.5245889 11.624994 3.4787889 11.622834 C 3.4001889 11.618834 3.3955915 11.616379 3.3955915 11.593379 C 3.3955915 11.579679 3.392357 11.539247 3.388357 11.502947 L 3.3816392 11.436803 z M 4.1417845 11.441454 L 4.3676061 11.441454 L 4.5934276 11.441454 L 4.5960114 11.645055 C 4.5979489 11.795695 4.5953554 11.847297 4.5856763 11.856407 L 4.5851596 11.856924 C 4.5771596 11.861924 4.476238 11.865709 4.359338 11.865709 C 4.2064505 11.865831 4.1518035 11.862901 4.1423013 11.853823 L 4.1417845 11.853307 L 4.1417845 11.85279 L 4.1412678 11.852273 C 4.1382678 11.844273 4.1372007 11.749017 4.1392007 11.639887 L 4.1417845 11.441454 z M 10.121147 11.451789 L 10.121664 11.451789 L 10.12218 11.451789 L 10.12218 11.452305 L 10.122697 11.452305 L 10.123214 11.452822 L 10.123731 11.453339 C 10.142772 11.472165 10.249819 11.670162 10.249819 11.688462 C 10.249819 11.691462 10.192067 11.694663 10.121147 11.694663 C 10.050247 11.694663 9.9919583 11.692529 9.9919583 11.690529 C 9.9919583 11.680329 10.112837 11.456929 10.121147 11.451789 z M 13.96063 11.915834 C 13.96062 11.916204 13.96063 11.916867 13.96063 11.916867 C 13.96063 11.916627 13.960608 11.916013 13.96063 11.915834 z M 2.9620348 11.924619 C 2.9620948 11.925589 2.9619748 11.926719 2.9620348 11.927719 L 2.9620348 11.924619 z M 7.3549618 12.201599 C 7.0079218 12.205599 6.898822 12.209486 6.843892 12.222786 C 6.618572 12.276186 6.5399903 12.373847 6.5384903 12.601567 L 6.5379735 12.709052 L 6.726072 12.712152 C 6.939292 12.715152 6.9410417 12.714972 6.9410417 12.632572 C 6.9410417 12.573772 6.9790153 12.526361 7.0407753 12.508551 C 7.0953753 12.492851 7.640216 12.495451 7.714106 12.511651 C 7.820856 12.535251 7.8694749 12.637445 7.8257249 12.746775 C 7.8148249 12.773875 7.7964332 12.796418 7.7766332 12.806718 C 7.7346332 12.828418 7.5239771 12.843956 7.3859671 12.835656 C 7.2293071 12.826656 7.2309408 12.825227 7.2309408 12.977247 C 7.2309408 13.060172 7.2352609 13.099877 7.2438597 13.107469 L 7.2443764 13.107986 C 7.2513764 13.112986 7.3732356 13.115771 7.5151556 13.116771 C 7.8044056 13.117341 7.8249336 13.121983 7.8577636 13.191183 C 7.8795636 13.237183 7.8805306 13.326261 7.8598306 13.376181 C 7.8326306 13.441381 7.8096005 13.445093 7.4650305 13.444393 C 7.0839405 13.443663 7.0025724 13.436402 6.9648124 13.398402 C 6.9424124 13.376002 6.9360569 13.358019 6.9322569 13.303319 C 6.9292569 13.266119 6.9222543 13.229588 6.9167543 13.222188 L 6.9162375 13.221672 C 6.9160583 13.221552 6.9149056 13.220756 6.9146873 13.220638 C 6.8828412 13.206174 6.5578775 13.203329 6.5343562 13.218054 C 6.5341672 13.218174 6.5329905 13.218942 6.532806 13.219088 C 6.5101172 13.240824 6.5233544 13.470048 6.5514091 13.532241 C 6.5988091 13.637421 6.6656254 13.687903 6.8051354 13.724473 C 6.8119479 13.726348 6.8184699 13.728649 6.8216715 13.730158 C 6.8219359 13.730305 6.8225002 13.73053 6.822705 13.730675 L 6.8232218 13.730675 L 6.8232218 13.731191 L 6.8232218 13.731708 L 6.8232218 13.732225 L 6.822705 13.732742 C 6.8195257 13.734493 6.8077567 13.736167 6.7834317 13.737392 L 7.9652485 13.737392 C 7.8315585 13.736472 7.7704264 13.735292 7.7952364 13.734292 C 8.0130464 13.726292 8.0815091 13.711445 8.1657491 13.655745 C 8.2460491 13.602545 8.2936718 13.448012 8.2799518 13.283682 C 8.2639518 13.092202 8.2162442 13.030834 8.0582642 12.998434 C 8.0248939 12.9916 8.0056067 12.983685 8.0014213 12.97518 C 7.9972854 12.963733 8.0190115 12.94986 8.067049 12.933323 C 8.209499 12.884223 8.2486544 12.805562 8.2365444 12.591232 C 8.2254444 12.394522 8.1832842 12.316089 8.0582642 12.258959 C 7.9391542 12.204459 7.8411586 12.196399 7.3554786 12.201599 L 7.3549618 12.201599 z M 8.128026 12.273945 L 8.1626486 12.295132 C 8.1816486 12.306732 8.2033067 12.326022 8.2107067 12.338022 C 8.2219067 12.355822 8.2355528 12.359726 8.2861528 12.359726 L 8.3481633 12.359726 L 8.3481633 12.316835 L 8.3481633 12.273945 L 8.2380947 12.273945 L 8.128026 12.273945 z M 8.8421803 12.573662 L 9.3232784 12.576763 L 9.8038597 12.579863 L 9.8524346 12.606734 C 9.8881346 12.626534 9.907564 12.647648 9.927364 12.687348 C 9.953564 12.739648 9.9542352 12.747169 9.9542352 12.972079 C 9.9542352 13.252999 9.9491636 13.269585 9.8462336 13.321405 L 9.7826728 13.353444 L 9.3175941 13.356545 C 9.0620241 13.358545 8.8532789 13.355727 8.8535489 13.351377 C 8.8538289 13.346377 8.8513813 13.169617 8.8483813 12.958127 L 8.8421803 12.573662 z M 2.9584175 12.659443 C 4.2125875 14.368123 6.21319 15.47627 8.4665 15.47627 C 10.71982 15.47627 12.719896 14.368123 13.974066 12.659443 L 12.986549 12.65996 C 11.870009 13.91596 10.25845 14.703206 8.4665 14.703206 C 6.67457 14.703206 5.0629914 13.916457 3.9464514 12.660477 L 2.9584175 12.659443 z M 10.704562 12.660477 C 10.722419 12.914254 10.715952 13.293135 10.701462 13.383416 C 10.690962 13.449716 10.674386 13.513775 10.649786 13.574615 C 11.192526 13.351715 11.679512 13.04318 12.100832 12.66151 C 11.529527 12.6622 11.029779 12.661566 10.704562 12.660477 z M 4.9427534 12.662027 C 5.3276734 12.997657 5.7605815 13.280205 6.2310215 13.496585 C 6.2010215 13.327235 6.1954449 13.074351 6.3689949 12.962261 C 6.2837469 12.905371 6.2324138 12.809471 6.2330886 12.706985 L 6.2336053 12.664094 L 4.9427534 12.662027 z M 8.2231088 13.970448 C 8.2161088 13.973448 8.2092386 13.9762 8.2024386 13.9782 C 8.2140386 13.97879 8.2259779 13.979267 8.2375779 13.980267 C 8.2326479 13.977067 8.2278488 13.973948 8.2231088 13.970448 z " />
</svg>
