<?xml version='1.0' encoding='UTF-8'?>
<svg xmlns:inkscape="http://www.inkscape.org/namespaces/inkscape" xmlns:sodipodi="http://sodipodi.sourceforge.net/DTD/sodipodi-0.dtd" xmlns="http://www.w3.org/2000/svg" xmlns:svg="http://www.w3.org/2000/svg" xmlns:rdf="http://www.w3.org/1999/02/22-rdf-syntax-ns#" xmlns:cc="http://creativecommons.org/ns#" xmlns:dc="http://purl.org/dc/elements/1.1/" width="64" height="64" version="1.1" viewBox="0 0 16.933 16.933" id="svg7" sodipodi:docname="steam_icon_1934680.svg" inkscape:version="1.4 (e7c3feb100, 2024-10-09)">
  <sodipodi:namedview id="namedview7" pagecolor="#9c4444" bordercolor="#000000" borderopacity="0.25" inkscape:showpageshadow="2" inkscape:pageopacity="0.0" inkscape:pagecheckerboard="0" inkscape:deskcolor="#d1d1d1" inkscape:zoom="4.3531261" inkscape:cx="35.951175" inkscape:cy="39.741555" inkscape:window-width="1183" inkscape:window-height="941" inkscape:window-x="35" inkscape:window-y="32" inkscape:window-maximized="0" inkscape:current-layer="svg7" showgrid="false"/>
  <defs id="defs2">
    <style id="current-color-scheme" type="text/css">.ColorScheme-Text {color:#d8dee9} .ColorScheme-Highlight {color:#3b4252}</style></defs>
  <metadata id="metadata2">
    <rdf:RDF>
      <cc:Work rdf:about="">
        <dc:format>image/svg+xml</dc:format>
        <dc:type rdf:resource="http://purl.org/dc/dcmitype/StillImage"/>
      </cc:Work>
    </rdf:RDF>
  </metadata>
  <path style="fill:currentColor;fill-opacity:1;stroke:none;stroke-width:0.438991;stroke-dasharray:none;stroke-opacity:0.3" d="m 6.9129021,2.3530262 c -1.4551283,0 -2.987734,0.3783989 -4.5628483,1.1258576 C 1.0679536,4.0872945 0.51976766,4.589263 0.82293014,4.877911 0.92987164,4.9797339 0.85592554,5.0009341 2.6517744,4.3346593 3.8790661,3.8793255 5.3885281,3.4951709 6.2045148,3.4294973 7.4644664,3.3280924 8.9650792,3.6434179 11.621595,4.5669305 c 0.953959,0.3316357 2.051017,0.6799798 2.437685,0.7739782 0.826961,0.2010336 0.914052,0.1698524 1.603516,0.1720811 l 0.486921,7.391e-4 V 5.1194086 c 0,-0.4497766 -0.05616,-0.4136116 -0.652054,-0.4136116 -1.328446,0 -1.659821,-0.2038618 -3.659229,-1.047148 C 9.6968876,2.7554016 8.3995246,2.3529932 6.9129021,2.3529932 Z M 6.0193148,5.518392 C 5.7934542,5.526695 5.5918929,5.5474962 5.4297642,5.5808963 4.6819951,5.7349236 3.6804032,6.2946393 3.0661574,6.8626301 2.1140512,7.7430399 1.0377918,9.389176 1.1431713,9.8042133 c 0.047456,0.1868954 0.097865,0.1995417 0.9367992,0.2345857 0.4870126,0.02033 1.4407972,0.130706 2.1884392,0.244618 l 1.3758768,0.206035 v 0.57952 c -0.2345004,1.062123 -0.06719,1.635708 -0.025462,2.022531 0.156275,1.399983 0.1583061,1.552355 0.5201013,1.501655 0.5588951,-0.90854 0.5438313,-2.651199 0.547881,-3.655368 l 0.5702603,0.552511 c 1.5623945,1.378056 2.1410157,1.476991 3.4809739,2.121304 1.108291,0.451723 2.058497,0.651877 3.129097,0.574115 0.65812,0 1.489042,-0.729417 1.488542,-1.572649 -2.72e-4,-0.650206 -0.183578,-1.199395 -0.62891,-1.408287 -0.818681,-0.384021 -1.726212,0.0714 -1.726212,0.923683 0,0.836488 0.806204,1.301234 1.341153,0.772432 0.223151,-0.220583 0.278074,-0.592684 0.119605,-0.816419 -0.07032,-0.09933 -0.07788,-0.08273 -0.03395,0.071 0.151563,0.530499 -0.261697,0.898079 -0.73694,0.655145 -0.496669,-0.253884 -0.402612,-1.069451 0.138909,-1.2038 0.267484,-0.06637 0.735956,0.362219 0.911337,0.716106 0.09449,0.190709 0.098,0.306859 0.01691,0.574117 -0.265749,0.876772 -1.459892,0.881241 -3.257195,0.01463 -0.4356,-0.210029 -1.019796,-0.526831 -1.297882,-0.704502 C 9.7232132,11.900957 9.0990723,11.525496 8.2625416,10.79889 7.8193908,10.413966 7.7943157,10.466709 8.9500941,10.28033 9.2823799,10.226751 10.253993,9.9477347 11.108439,9.6606844 c 1.517963,-0.5099558 1.57563,-0.6300259 2.503273,-0.6366225 0.522167,-0.00374 -0.345443,-0.03648 0.520875,7.389e-4 l 1.622038,0.067118 V 8.3248984 7.4806991 L 13.874081,7.4343999 C 11.251879,7.3663451 12.530188,7.3058702 9.8236198,6.2722966 9.3068014,6.0749366 8.755866,5.8363519 8.394498,5.7429352 7.7536567,5.5772707 6.6968968,5.4935197 6.0193167,5.5183812 Z m 3.0704506,1.3450102 c 0.031422,0 0.4787017,0.2510162 1.1999376,0.5563696 0.721237,0.3053526 1.404973,0.5775555 1.518633,0.6057553 0.113639,0.028204 0.206038,0.081907 0.206038,0.118066 0,0.036163 -0.436722,0.2803602 -0.970755,0.5424801 C 9.9545521,9.2206192 9.308674,9.4446753 8.2563687,9.49632 L 7.9970892,9.5071095 8.2772034,9.2887288 C 8.4315081,9.1685158 8.6644775,8.8908616 8.79499,8.6713951 9.0020528,8.3232106 9.0326626,8.1828616 9.0326626,7.5686875 c 0,-0.3871191 0.025678,-0.7053014 0.057104,-0.7053009 z M 4.5485246,7.0493723 c 0.1293482,-0.024236 0.1284267,0.1741217 0.1296389,0.5702596 0.00241,0.7795663 0.1917765,1.2043602 0.736167,1.651361 L 5.7700681,9.5626828 3.9396808,9.409121 C 3.0506566,9.3252913 2.3602705,9.2384927 2.3361629,9.2146617 2.2497566,9.1292516 2.8850693,8.4765528 3.5839442,7.8133201 4.1043084,7.3194947 4.4191734,7.0735996 4.5485246,7.0493723 Z" id="path3-8" class="ColorScheme-Text"/>
</svg>
