<?xml version="1.0" encoding="UTF-8" standalone="no"?>
<svg
   width="64"
   height="64"
   version="1.1"
   viewBox="0 0 16.933 16.933"
   id="svg7"
   sodipodi:docname="steam_icon_291550.svg"
   inkscape:version="1.4.3 (0d15f75042, 2025-12-25)"
   xmlns:inkscape="http://www.inkscape.org/namespaces/inkscape"
   xmlns:sodipodi="http://sodipodi.sourceforge.net/DTD/sodipodi-0.dtd"
   xmlns="http://www.w3.org/2000/svg"
   xmlns:svg="http://www.w3.org/2000/svg"
   xmlns:rdf="http://www.w3.org/1999/02/22-rdf-syntax-ns#"
   xmlns:cc="http://creativecommons.org/ns#"
   xmlns:dc="http://purl.org/dc/elements/1.1/">
  <sodipodi:namedview
     id="namedview7"
     pagecolor="#9c4444"
     bordercolor="#000000"
     borderopacity="0.25"
     inkscape:showpageshadow="2"
     inkscape:pageopacity="0.0"
     inkscape:pagecheckerboard="0"
     inkscape:deskcolor="#d1d1d1"
     inkscape:zoom="4.3531262"
     inkscape:cx="89.935366"
     inkscape:cy="34.457995"
     inkscape:window-width="2560"
     inkscape:window-height="1388"
     inkscape:window-x="0"
     inkscape:window-y="0"
     inkscape:window-maximized="1"
     inkscape:current-layer="svg7"
     showgrid="false" />
  <defs
     id="defs2">
    <style
       id="current-color-scheme"
       type="text/css">.ColorScheme-Text {color:#d8dee9} .ColorScheme-Highlight {color:#3b4252}</style>
  </defs>
  <metadata
     id="metadata2">
    <rdf:RDF>
      <cc:Work
         rdf:about="">
        <dc:format>image/svg+xml</dc:format>
        <dc:type
           rdf:resource="http://purl.org/dc/dcmitype/StillImage" />
      </cc:Work>
    </rdf:RDF>
  </metadata>
  <path
     id="path5"
     style="fill:currentColor;fill-opacity:1;stroke-width:0.00629251"
     d="m 8.5348791,1.4556073 c -0.0696,0.003 -0.12657,0.0239 -0.17048,0.0622 -0.0307,0.0267 -0.0644,0.0888 -0.0864,0.15888 -0.0616,0.19651 -0.0547,0.43484 0.019,0.65859 0.0122,0.0372 0.0247,0.066 0.0278,0.0641 0.003,-0.002 0.006,-0.006 0.006,-0.0102 0,-0.0163 0.059,-0.12915 0.0954,-0.18246 0.0445,-0.0652 0.14282,-0.17067 0.20974,-0.2251 0.13035,-0.10603 0.28735,-0.18899 0.47689,-0.252 0.0443,-0.0147 0.0796,-0.0275 0.0787,-0.0284 -0.0125,-0.0112 -0.13922,-0.0827 -0.20561,-0.11582 -0.18374,-0.0918 -0.33469,-0.13513 -0.45066,-0.12982 z m 1.05781,0.76212 c -0.0751,0.005 -0.15071,0.0142 -0.21602,0.0282 l -0.0313,0.007 -0.004,0.0705 c -0.008,0.14438 -0.0439,0.28419 -0.10357,0.40398 -0.0807,0.16207 -0.21224,0.2728 -0.38099,0.32074 -0.18721,0.0532 -0.33269,0.032 -0.44975,-0.0654 -0.0382,-0.0318 -0.0945,-0.10828 -0.10881,-0.14773 l -0.008,-0.0217 -0.0666,0.0628 c -0.18101,0.17087 -0.43654,0.34599 -0.69896,0.47901 -0.2845,0.14422 -0.43824,0.1903 -0.77083,0.231 -0.0865,0.0106 -0.18719,0.0248 -0.22371,0.0317 -0.25334,0.0474 -0.3881,0.16573 -0.49955,0.43861 -0.0914,0.22375 -0.0961,0.42562 -0.0158,0.67195 0.0435,0.13328 0.1339,0.30336 0.22728,0.42745 0.0236,0.0314 0.0429,0.0608 0.043,0.0653 5e-5,0.0186 -0.0685,0.1771 -0.13522,0.31269 -0.19947,0.40536 -0.43378,0.71778 -0.6007,0.80095 -0.0433,0.0215 -0.0509,0.0233 -0.0975,0.0225 -0.21222,-0.004 -0.36841,-0.16417 -0.41578,-0.42729 l -0.0106,-0.0591 -0.022,0.009 c -0.075,0.0313 -0.25168,0.15585 -0.38557,0.27172 -0.20816,0.18016 -0.52231,0.50515 -0.69079,0.71465 -0.11677,0.14519 -0.23277,0.34632 -0.28069,0.48664 -0.0404,0.11831 -0.051,0.18522 -0.0507,0.32016 2.2e-4,0.0992 0.003,0.13048 0.0142,0.18366 0.0477,0.21985 0.17357,0.43641 0.39246,0.67526 0.10209,0.11141 0.22882,0.22936 0.4803,0.44699 0.35181,0.30448 0.42715,0.43154 0.45025,0.75933 0.009,0.12605 0.003,0.22234 -0.0169,0.2839197 -0.0715,0.21923 -0.24707,0.36551 -0.47766,0.39806 -0.14614,0.0206 -0.29196,-0.0352 -0.4257,-0.16297 l -0.0494,-0.0472 0.003,0.034 c 0.0232,0.2312 0.0378,0.36028 0.0509,0.44934 0.10402,0.70729 0.30409,1.31103 0.60884,1.83734 0.065,0.11232 0.20781,0.32708 0.27334,0.41118 0.17328,0.22236 0.37627,0.40583 0.65428,0.59132 0.25373,0.16929 0.47674,0.28778 1.01486,0.53922 0.33865,0.15824 0.44913,0.21327 0.58791,0.29279 0.43542,0.24951 0.93978,0.63955 1.3406,1.03673 0.0415,0.0411 0.077,0.0753 0.0789,0.0758 0.002,5.7e-4 0.008,-0.007 0.0144,-0.0177 0.0201,-0.034 0.10888,-0.14459 0.17614,-0.21939 0.1292,-0.14368 0.30735,-0.28905 0.45947,-0.37491 0.25976,-0.14663 0.67641,-0.32283 1.1233699,-0.47507 0.29265,-0.0997 0.38258,-0.13192 0.51054,-0.18303 0.62242,-0.24858 1.05347,-0.55633 1.41857,-1.01278 0.43288,-0.54121 0.69311,-1.29844 0.76775,-2.23408 0.0347,-0.43496 0.0258,-0.9669497 -0.0227,-1.3540697 l -0.007,-0.0546 -0.0323,0.0131 c -0.11112,0.0452 -0.1364,0.0514 -0.2116,0.0517 -0.0599,2.6e-4 -0.0788,-0.002 -0.10954,-0.0136 -0.0988,-0.0371 -0.20351,-0.12529 -0.24112,-0.203 -0.10114,-0.20901 -0.0748,-0.50856 0.0714,-0.81173 0.0648,-0.13449 0.13869,-0.24895 0.24736,-0.38338 0.11139,-0.13778 0.23507,-0.3166 0.30804,-0.44535 0.15462,-0.27282 0.24792,-0.55318 0.2812,-0.84508 0.0129,-0.11276 0.009,-0.39088 -0.006,-0.50025 -0.0477,-0.33422 -0.17111,-0.68899 -0.32373,-0.93063 -0.21432,-0.33934 -0.53314,-0.61216 -0.96359,-0.82455 -0.18818,-0.0929 -0.41045,-0.17652 -0.60093,-0.22619 -0.045,-0.0117 -0.0856,-0.0224 -0.0903,-0.0236 -0.0113,-0.003 -0.0147,0.004 -0.0416,0.0896 -0.0566,0.17928 -0.16371,0.29364 -0.29381,0.31378 -0.10848,0.0168 -0.24696,-0.0314 -0.38015,-0.13226 -0.18823,-0.14253 -0.37197,-0.39485 -0.44212,-0.60714 -0.0396,-0.11981 -0.0483,-0.17658 -0.0478,-0.31132 5.1e-4,-0.14106 0.009,-0.18517 0.053,-0.27465 0.0507,-0.10316 0.12465,-0.14573 0.24142,-0.13897 0.0931,0.005 0.18479,0.0403 0.29101,0.11061 0.11452,0.0759 0.23403,0.18909 0.3429,0.32489 l 0.0453,0.0565 -0.005,-0.0313 c -0.0306,-0.20979 -0.0917,-0.4503 -0.15901,-0.62596 -0.22434,-0.58555 -0.61128,-0.91142 -1.1439699,-0.96339 -0.0635,-0.006 -0.13819,-0.007 -0.21332,-0.002 z m -1.05289,1.96774 0.63488,0.0956 c 0.34918,0.0526 0.63743,0.0982 0.64056,0.1014 0.004,0.004 0.5732799,0.9965 0.6045099,1.05403 0.005,0.008 -0.061,0.0368 -0.4269199,0.18432 -0.23779,0.0959 -0.43629,0.17677 -0.44113,0.17976 -0.007,0.005 6.9e-4,0.0526 0.0468,0.28134 0.0306,0.15174 0.0559,0.27648 0.0564,0.27722 4.1e-4,7.4e-4 0.27527,0.044 0.6108199,0.0962 0.33554,0.0522 0.61378,0.0969 0.6183,0.0993 0.007,0.004 0.9388,1.76034 0.9388,1.77007 0,0.002 -0.30711,0.0982 -0.68247,0.21346 -0.37536,0.1153 -0.68527,0.21137 -0.68869,0.21348 -0.004,0.002 0.11186,0.37884 0.28301,0.92239 0.15907,0.5052097 0.34765,1.1053597 0.41908,1.3336797 0.0714,0.22833 0.14185,0.44374 0.1565,0.4787 0.0598,0.14273 0.1118,0.3274 0.13635,0.48423 0.0116,0.0741 0.0139,0.11515 0.0141,0.25799 3.3e-4,0.18736 -0.007,0.25158 -0.041,0.38522 -0.0284,0.11009 -0.0263,0.10909 -0.0668,0.0329 -0.0612,-0.11524 -0.11695,-0.19081 -0.20641,-0.27968 -0.059,-0.0586 -0.0981,-0.0915 -0.13786,-0.11598 -0.0572,-0.0352 -0.14099,-0.072 -0.18057,-0.0792 l -0.0225,-0.004 0.003,0.0849 c 0.005,0.13812 -0.0173,0.24438 -0.0743,0.35971 -0.0407,0.0823 -0.0974,0.15666 -0.17801,0.23346 -0.17571,0.1674 -0.43285,0.30216 -0.7972599,0.41781 -0.18962,0.0602 -0.22814,0.0737 -0.3072,0.1075 -0.35144,0.15045 -0.70782,0.46186 -0.94501,0.82577 -0.0329,0.0504 -0.0618,0.0919 -0.0643,0.0921 -0.0151,10e-4 -0.27358,-0.2303 -0.34717,-0.3109 -0.19922,-0.21817 -0.2715,-0.36898 -0.39084,-0.8155 -0.0744,-0.27825 -0.0888,-0.31965 -0.15707,-0.45068 -0.0819,-0.15718 -0.1767,-0.28378 -0.31734,-0.42381 -0.0977,-0.0973 -0.18188,-0.16742 -0.28314,-0.23592 -0.0597,-0.0404 -0.0762,-0.0455 -0.0762,-0.0238 0,0.0213 -0.0457,0.14483 -0.0736,0.19879 -0.12115,0.23457 -0.31954,0.30411 -0.59457,0.20838 -0.10704,-0.0373 -0.21434,-0.0954 -0.37781,-0.20463 -0.17771,-0.11877 -0.24017,-0.1785 -0.20394,-0.19501 0.01,-0.005 0.018,-0.0172 0.0248,-0.0391 0.192,-0.61198 0.99704,-3.2361997 0.99376,-3.2393897 -0.003,-0.003 -1.27861,-0.48729 -1.39372,-0.52895 -0.01,-0.003 -0.0173,-0.009 -0.0173,-0.012 0,-0.004 0.91485,-1.60807 0.92085,-1.61436 5.5e-4,-5.8e-4 0.26576,-0.0523 0.58935,-0.11488 0.32359,-0.0626 0.59225,-0.11602 0.59703,-0.11871 0.0103,-0.006 0.16631,-0.55576 0.15952,-0.56222 -0.003,-0.002 -0.18794,-0.0858 -0.41204,-0.18526 -0.22409,-0.0995 -0.40744,-0.18272 -0.40744,-0.18494 0,-0.005 0.55364,-1.04624 0.56025,-1.05338 0.003,-0.003 0.29734,-0.0486 0.65456,-0.10141 z m 10e-4,0.23696 -0.49396,0.076 c -0.27168,0.0418 -0.51182,0.079 -0.53363,0.0827 l -0.0397,0.007 -0.14455,0.28902 -0.14454,0.28903 0.0332,0.0147 c 0.11938,0.0531 0.72618,0.33234 0.72977,0.33588 0.004,0.003 -0.28748,1.11992 -0.29351,1.12611 -9.1e-4,9.3e-4 -0.28128,0.0576 -0.62304,0.12598 l -0.62137,0.12427 -0.2702,0.50013 c -0.1486,0.27507 -0.2811,0.52032 -0.29443,0.54498 l -0.0242,0.0448 0.67103,0.25025 c 0.36908,0.13763 0.68596,0.2559 0.70418,0.26282 0.0306,0.0116 0.082,0.0628 0.66544,0.662 l 0.63234,0.64943 0.12162,-0.12334 c 0.0669,-0.0678 0.33911,-0.34703 0.60493,-0.62044 0.26581,-0.27341 0.51194,-0.52602 0.54694,-0.56136 l 0.0636,-0.0643 0.6937499,-0.19329 c 0.38156,-0.10631 0.69375,-0.1954 0.69375,-0.19797 0,-0.003 -0.13313,-0.27176 -0.29583,-0.59823 -0.23196,-0.46543 -0.29885,-0.59461 -0.3099,-0.59839 -0.008,-0.003 -0.29867,-0.0504 -0.6464799,-0.10611 -0.34782,-0.0557 -0.63472,-0.10344 -0.63756,-0.10606 -0.007,-0.006 -0.2199,-1.13189 -0.21623,-1.14144 0.002,-0.004 0.17599,-0.0792 0.38772,-0.16717 0.21174,-0.088 0.38633,-0.16218 0.38799,-0.16486 0.003,-0.005 -0.29367,-0.56212 -0.30481,-0.57326 -0.003,-0.003 -0.23847,-0.0419 -0.52373,-0.0869 z m -0.0222,2.5112 0.64483,0.22495 c 0.48855,0.17042 0.64299,0.22667 0.63721,0.2321 -0.004,0.004 -0.28763,0.17879 -0.62986,0.38856 -0.34223,0.20977 -0.62552,0.3814 -0.62953,0.3814 -0.0124,0 -1.31233,-0.76403 -1.30752,-0.7685 0.002,-0.002 0.2926,-0.10642 0.64469,-0.23135 z"
     class="ColorScheme-Text" />
</svg>
