<?xml version='1.0' encoding='UTF-8'?>
<svg xmlns:inkscape="http://www.inkscape.org/namespaces/inkscape" xmlns:sodipodi="http://sodipodi.sourceforge.net/DTD/sodipodi-0.dtd" xmlns="http://www.w3.org/2000/svg" xmlns:svg="http://www.w3.org/2000/svg" xmlns:rdf="http://www.w3.org/1999/02/22-rdf-syntax-ns#" xmlns:cc="http://creativecommons.org/ns#" xmlns:dc="http://purl.org/dc/elements/1.1/" width="64" height="64" version="1.1" viewBox="0 0 16.933 16.933" id="svg7" sodipodi:docname="steam_icon_2186680.svg" inkscape:version="1.4 (e7c3feb100, 2024-10-09)">
  <sodipodi:namedview id="namedview7" pagecolor="#9c4444" bordercolor="#000000" borderopacity="0.25" inkscape:showpageshadow="2" inkscape:pageopacity="0.0" inkscape:pagecheckerboard="0" inkscape:deskcolor="#d1d1d1" inkscape:zoom="4.3531261" inkscape:cx="35.951175" inkscape:cy="39.741555" inkscape:window-width="1183" inkscape:window-height="941" inkscape:window-x="35" inkscape:window-y="32" inkscape:window-maximized="0" inkscape:current-layer="svg7" showgrid="false"/>
  <defs id="defs2">
    <style id="current-color-scheme" type="text/css">.ColorScheme-Text {color:#d8dee9} .ColorScheme-Highlight {color:#3b4252}</style></defs>
  <metadata id="metadata2">
    <rdf:RDF>
      <cc:Work rdf:about="">
        <dc:format>image/svg+xml</dc:format>
        <dc:type rdf:resource="http://purl.org/dc/dcmitype/StillImage"/>
      </cc:Work>
    </rdf:RDF>
  </metadata>
  <path style="fill:currentColor;fill-opacity:1;stroke-width:0.035078" d="m 6.3301364,15.56394 c -0.051224,-1.249003 -0.053909,-1.230538 0.1761053,-1.210566 l 0.1052334,0.0091 -0.00847,0.908079 c -0.00887,0.951068 -0.017556,1.00368 -0.165775,1.00368 -0.077036,0 -0.078305,-0.0084 -0.1070916,-0.710332 z m 1.1607976,0.58505 c -0.068123,-0.06812 -0.06847,-0.116622 -0.00317,-0.440988 0.028582,-0.141949 0.073862,-0.474719 0.100624,-0.739516 0.05632,-0.557253 0.099598,-0.658593 0.2812576,-0.658593 0.2143023,0 0.282591,0.188195 0.1973017,0.543711 -0.018506,0.0772 -0.074702,0.368587 -0.1248661,0.647585 -0.1080131,0.600761 -0.1507764,0.702926 -0.294211,0.702926 -0.056006,0 -0.1266331,-0.0248 -0.1569514,-0.05514 z m 2.764541,0.02877 c -0.02226,-0.01482 -0.05634,-0.238535 -0.07884,-0.51736 -0.0218,-0.270099 -0.05546,-0.546237 -0.0748,-0.613632 -0.05084,-0.177194 -0.04317,-0.474413 0.0159,-0.615782 0.05888,-0.140904 0.174828,-0.1987 0.291794,-0.145407 0.100287,0.0457 0.129502,0.15884 0.09521,0.368816 -0.04099,0.251021 -0.05019,0.364629 -0.07856,0.970541 -0.0214,0.45707 -0.03601,0.562543 -0.07888,0.569976 -0.02894,0.0049 -0.07026,-0.0027 -0.09182,-0.0171 z M 6.9819875,16.065998 c -0.075536,-0.07554 -0.076606,-0.09601 -0.08854,-1.690891 -0.00163,-0.213819 0.05906,-0.276076 0.2154136,-0.221088 0.1540425,0.05417 0.1681348,0.154033 0.1194074,0.84626 -0.083775,1.190152 -0.090921,1.22108 -0.246281,1.065719 z m 1.9839612,-0.01102 c -0.069331,-0.109459 -0.2375544,-1.010245 -0.2423389,-1.297671 -0.00452,-0.271079 0.077609,-0.429927 0.2222591,-0.429927 0.069546,0 0.091369,0.03158 0.1454697,0.210465 0.035007,0.115748 0.071197,0.289395 0.080423,0.385862 0.00921,0.09646 0.043694,0.376065 0.076597,0.621336 0.057697,0.430116 0.057526,0.448487 -0.00486,0.517402 -0.085705,0.0947 -0.2150464,0.09122 -0.277563,-0.0076 z m 0.6615009,0.04265 c -0.012331,-0.02001 -0.037531,-0.323851 -0.055995,-0.675284 -0.018468,-0.35144 -0.042429,-0.722303 -0.053257,-0.824146 -0.0249,-0.234246 0.022676,-0.303193 0.1904251,-0.27597 0.2272299,0.03686 0.2637874,0.144742 0.1692957,0.499622 -0.034133,0.128174 -0.042606,0.317998 -0.029925,0.67052 0.016834,0.467603 0.014003,0.4954 -0.057209,0.566618 -0.082593,0.08259 -0.1293197,0.09363 -0.1633335,0.03859 z M 10.75354,15.914682 c -0.0089,-0.04342 -0.02609,-0.149967 -0.03837,-0.236776 -0.01233,-0.08683 -0.03579,-0.23678 -0.05223,-0.333245 -0.01643,-0.09646 -0.03098,-0.301672 -0.03231,-0.456015 -0.0018,-0.221945 0.0122,-0.304707 0.0678,-0.395806 0.07187,-0.117876 0.159346,-0.175313 0.202017,-0.13262 0.02723,0.02723 0.01807,0.908521 -0.014,1.344014 -0.01548,0.210475 -0.03432,0.289393 -0.06909,0.289393 -0.02629,0 -0.05502,-0.03551 -0.06383,-0.07891 z M 5.8653525,15.160985 c 0.00847,-0.650889 0.015732,-0.728618 0.068839,-0.738823 0.1659973,-0.0319 0.2424258,0.462279 0.1577285,1.019859 -0.052159,0.34338 -0.095315,0.446379 -0.1870151,0.446379 -0.040721,0 -0.047426,-0.123329 -0.039552,-0.727415 z M 8.2281872,14.1318 c -0.049947,-0.05936 -0.091316,-0.13433 -0.09193,-0.16663 -0.00247,-0.129827 -0.16853,-0.251626 -0.3430649,-0.251626 -0.1434842,0 -0.1887878,0.06792 -0.1610402,0.241438 0.047855,0.299267 -0.1182522,0.326114 -0.4594274,0.07427 -0.1306782,-0.09646 -0.2587529,-0.175389 -0.2846102,-0.175389 -0.056658,0 -0.1372009,0.12198 -0.1678992,0.254315 -0.012312,0.05305 -0.036809,0.09646 -0.054441,0.09646 -0.017632,0 -0.088996,-0.06948 -0.1585797,-0.154394 -0.069586,-0.08491 -0.1652202,-0.164103 -0.2125218,-0.175978 -0.098709,-0.02476 -0.2913705,0.04594 -0.3641228,0.133665 -0.070241,0.08472 -0.1071239,0.01292 -0.1077946,-0.210229 -7.612e-4,-0.262403 0.049194,-0.369044 0.225137,-0.480354 C 6.2273113,13.203842 6.441953,12.977098 6.4902665,12.850024 6.6285694,12.486277 6.3026947,11.90307 5.8924568,11.780157 5.4451622,11.64615 4.5760971,12.078124 4.3400553,12.551798 L 4.2555205,12.72143 4.1292902,12.656659 C 3.9261512,12.552452 3.5784443,12.207942 3.3977939,11.931898 3.2212607,11.662142 3.0605769,11.283959 2.9643674,10.911784 2.9086282,10.696163 2.9089995,10.6856 2.9748525,10.613621 3.1816808,10.387545 3.2781932,10.007531 3.2512782,9.5252079 3.2274893,9.0988635 3.1376305,8.8147761 2.92742,8.5012964 L 2.7779588,8.278411 3.1156934,8.0406553 c 0.447508,-0.315032 1.0711729,-0.9327786 1.3024632,-1.2900991 0.2436425,-0.376405 0.2713353,-0.403399 0.4138494,-0.403399 0.098669,0 0.1608369,0.036495 0.3318059,0.1947817 0.7132515,0.6603437 1.4319559,0.9886466 2.4123109,1.101936 0.1832835,0.021177 0.3602022,0.046746 0.3931545,0.056814 0.090674,0.027704 0.3434861,0.3632454 0.3434861,0.4558907 0,0.1332052 -0.3518657,0.7828232 -0.5241796,0.9677456 C 7.5955661,9.3314678 7.451596,9.3830231 7.2998092,9.2993583 7.241681,9.2673194 7.0661786,9.1306085 6.9098033,8.9955573 6.1653561,8.3526305 5.4082245,8.0370686 4.6997153,8.0744263 4.3970012,8.0903863 4.0706901,8.1999365 3.9202028,8.336125 3.8856665,8.36738 3.8503037,8.3858442 3.8416188,8.3771612 3.8275208,8.3630632 3.999239,8.2184029 4.1910822,8.0827485 c 0.065691,-0.046451 0.061782,-0.049681 -0.061387,-0.050726 -0.072348,-6.168e-4 -0.1315427,-0.010849 -0.1315427,-0.022722 0,-0.011875 0.056023,-0.097928 0.1244975,-0.1912079 0.1434424,-0.19541 0.3734477,-0.3741041 0.6482018,-0.5035969 L 4.9628,7.2240287 4.8224869,7.2437237 c -0.3475157,0.048784 -0.857721,0.3986789 -1.0195704,0.699215 -0.036448,0.067678 -0.092957,0.1230516 -0.1255767,0.1230516 -0.1486769,0 -0.1603847,0.025418 -0.1144256,0.248433 0.076484,0.3711599 0.094177,1.0072521 0.049575,1.7826757 l -0.043018,0.747911 0.076241,0.07501 0.076239,0.07501 -0.020292,-0.08771 c -0.013167,-0.05687 0.04746,-0.291197 0.172406,-0.666493 0.105982,-0.318335 0.1930102,-0.5393263 0.1933908,-0.4910941 3.988e-4,0.048233 -0.023053,0.3235811 -0.052073,0.6118861 -0.029021,0.288304 -0.040827,0.534394 -0.026231,0.546866 0.014592,0.01246 0.089678,0.06016 0.1668504,0.105976 l 0.140315,0.08331 -0.08961,-0.121536 -0.08961,-0.121535 0.165452,-0.666484 C 4.3735484,9.8216483 4.4493903,9.5621815 4.451087,9.6116216 c 0.00171,0.04944 -0.021441,0.3471951 -0.05142,0.6616774 -0.029978,0.31448 -0.049708,0.575831 -0.043848,0.580781 0.00587,0.0049 0.1425342,0.09112 0.3037189,0.191508 0.3431495,0.213706 0.5708476,0.26625 1.0048276,0.23187 0.5289227,-0.04189 1.0485828,-0.236286 1.5079211,-0.564064 0.2354788,-0.168034 0.2925339,-0.258544 0.081208,-0.128828 -0.1390097,0.08534 -0.7311739,0.332989 -0.7503448,0.313816 -0.016112,-0.01611 0.7231361,-0.557886 1.0147963,-0.743714 0.1126985,-0.07181 0.2567293,-0.152209 0.3200655,-0.1786722 0.1080435,-0.045142 0.12179,-0.071501 0.2225156,-0.4265768 l 0.1073595,-0.378461 0.00224,0.2075459 c 0.00127,0.1141501 0.010222,0.1996036 0.019937,0.1898974 0.00971,-0.00971 0.048594,-0.1583498 0.086422,-0.3303188 l 0.06878,-0.3126712 -0.020176,0.4647852 c -0.018981,0.4370905 -0.016283,0.4647885 0.045119,0.4648324 0.060486,2.66e-5 0.064817,-0.031629 0.058748,-0.4297063 l -0.00656,-0.4297555 0.059168,0.2693801 c 0.077216,0.3515395 0.1242486,0.3908427 0.097411,0.081402 L 8.557693,9.1008011 8.6737393,9.5013293 8.7897856,9.9018563 9.0079957,10.017538 c 0.1200154,0.06363 0.2928669,0.166575 0.3841152,0.228774 0.1847332,0.125928 0.8127511,0.58527 0.8674691,0.634483 0.05184,0.04662 -0.3141773,-0.09787 -0.595749,-0.235179 -0.1347328,-0.06571 -0.250245,-0.114186 -0.256694,-0.10773 -0.023754,0.02375 0.4392297,0.330043 0.684366,0.452752 0.411756,0.206117 0.733442,0.280644 1.220421,0.282749 0.452416,0.002 0.516225,-0.01742 0.941683,-0.286006 l 0.138073,-0.08717 -0.02299,-0.373533 C 12.35596,10.321234 12.33825,10.034755 12.32911,9.8900578 12.31619,9.68135 12.33861,9.76473 12.439025,10.293457 c 0.06958,0.366564 0.131404,0.671966 0.137427,0.678672 0.0059,0.0068 0.05939,-0.01642 0.118598,-0.05142 0.126597,-0.07478 0.126673,-0.0759 0.05504,-0.679878 C 12.7215,9.9996689 12.6994,9.7865691 12.70096,9.7672768 c 0.0017,-0.019291 0.0715,0.2328542 0.155344,0.5603272 0.111929,0.43718 0.142386,0.607528 0.114589,0.641025 -0.07667,0.09235 0.004,0.0809 0.112404,-0.01598 l 0.111872,-0.09996 -0.04207,-0.735641 c -0.0444,-0.7767938 -0.02419,-1.4972603 0.05117,-1.8213285 0.04805,-0.2067223 0.03601,-0.227745 -0.132582,-0.2313865 -0.05024,-0.00105 -0.117743,-0.060578 -0.198831,-0.1752693 -0.206937,-0.2926449 -0.579742,-0.5259178 -0.977809,-0.6118348 -0.07822,-0.016872 -0.110808,-0.0133 -0.09605,0.010564 0.01235,0.01987 0.06963,0.046518 0.127433,0.059213 0.166174,0.036499 0.518552,0.2913169 0.673681,0.4871712 l 0.141911,0.1791662 -0.136287,0.017537 -0.136268,0.017537 0.122778,0.076467 c 0.06751,0.042058 0.170126,0.1270777 0.228008,0.1889322 l 0.105241,0.112461 -0.15485,-0.1103824 c -0.20242,-0.1442966 -0.551737,-0.2499293 -0.826479,-0.2499293 -0.120878,0 -0.373722,0.039039 -0.561827,0.086758 C 10.796076,8.3014506 10.40907,8.5250211 9.6956676,9.1270969 9.4917725,9.2991731 9.4360714,9.3287958 9.3164008,9.3287958 c -0.1232549,0 -0.161842,-0.022342 -0.3180602,-0.1841594 C 8.8089712,8.9484787 8.4530568,8.3035607 8.4530568,8.1565777 c 0,-0.092956 0.253224,-0.4286102 0.3434856,-0.4552995 0.032954,-0.00977 0.2493345,-0.041979 0.4808505,-0.071636 0.9568911,-0.1225766 1.6274731,-0.4339461 2.3103781,-1.0727719 0.184737,-0.1728145 0.245588,-0.2097155 0.345825,-0.2097155 0.142747,0 0.170354,0.026877 0.414067,0.4033987 0.231714,0.3579805 0.855186,0.9752249 1.304737,1.2917112 L 13.992409,8.2816323 13.8478,8.493492 c -0.216357,0.3169663 -0.311841,0.6117498 -0.334178,1.0317138 -0.02569,0.4828842 0.07119,0.8630742 0.277351,1.0884112 0.06585,0.07198 0.06625,0.08255 0.01045,0.298166 -0.0962,0.372173 -0.256893,0.750357 -0.433428,1.020112 -0.183882,0.280996 -0.530189,0.621946 -0.740877,0.729431 l -0.135033,0.06889 -0.04307,-0.130967 c -0.105355,-0.320232 -0.717556,-0.741377 -1.197131,-0.823521 -0.297057,-0.0509 -0.470205,-0.0027 -0.678337,0.189278 -0.272787,0.251446 -0.39751,0.62327 -0.297395,0.886589 0.04842,0.127338 0.302585,0.393547 0.460497,0.4823 0.08125,0.04568 0.14823,0.116413 0.170411,0.180063 0.04028,0.11552 0.04768,0.382531 0.014,0.507963 -0.02081,0.07765 -0.0231,0.07811 -0.06846,0.01311 -0.06725,-0.09601 -0.282133,-0.189696 -0.374744,-0.163381 -0.04291,0.01216 -0.142823,0.09439 -0.222026,0.182666 -0.0792,0.08829 -0.160285,0.150442 -0.180182,0.138149 -0.0199,-0.01216 -0.04628,-0.07619 -0.05862,-0.142006 C 9.990293,13.90794 9.91944,13.839928 9.8279553,13.868971 c -0.03664,0.01159 -0.1576867,0.09186 -0.2689902,0.178296 -0.2265499,0.175921 -0.3417144,0.19681 -0.4206706,0.0763 -0.043219,-0.06595 -0.045374,-0.100947 -0.011723,-0.19012 0.054038,-0.143165 -0.00593,-0.220137 -0.1715396,-0.220137 -0.17974,0 -0.250204,0.05394 -0.3422309,0.262044 -0.075401,0.170506 -0.1674337,0.264132 -0.2596109,0.264132 -0.018848,0 -0.075132,-0.04855 -0.1250808,-0.107939 z m -0.092338,-1.697789 c 0.055459,-0.02869 0.129105,-0.114456 0.1648801,-0.192025 0.03556,-0.0771 0.072544,-0.140182 0.082192,-0.140182 0.00965,0 0.046632,0.06308 0.082192,0.140182 0.074134,0.160759 0.2083096,0.243856 0.393748,0.243856 0.1026608,0 0.1561458,-0.02751 0.2648281,-0.136192 0.1302849,-0.130283 0.1361863,-0.146072 0.1361863,-0.364396 0,-0.300962 -0.1329734,-0.757254 -0.3499104,-1.200708 -0.2394412,-0.489462 -0.4289453,-0.671869 -0.473759,-0.456025 -0.059592,0.287024 -0.062992,0.290413 -0.096744,0.09646 -0.038546,-0.221495 -0.086882,-0.232615 -0.2342115,-0.05388 -0.2836638,0.344134 -0.5617628,1.063449 -0.590156,1.526465 l -0.018772,0.306237 0.1410123,0.140999 c 0.1133616,0.113373 0.1662367,0.140999 0.2696535,0.140999 0.070752,0 0.1737455,-0.02333 0.2288695,-0.05183 z M 6.9107438,9.2424321 C 6.750387,9.0492142 5.7936754,8.5516683 5.2109658,8.3584481 4.8830512,8.2497153 4.8714796,8.2428727 5.0504975,8.2635614 c 0.7108838,0.082158 1.4192422,0.4313423 1.8229236,0.8986135 0.062502,0.07235 0.1060466,0.1315427 0.096765,0.1315427 -0.00931,0 -0.036033,-0.023076 -0.059442,-0.051286 z M 9.8887023,9.1709438 C 10.301064,8.6789614 10.954166,8.3569274 11.732883,8.2616089 c 0.147744,-0.018088 0.119681,-0.00291 -0.178011,0.096277 -0.588108,0.1959451 -1.390296,0.6109821 -1.6973785,0.878189 -0.055881,0.048625 -0.044859,0.025618 0.031206,-0.06513 z M 2.5862026,7.706835 C 2.5978122,7.2739994 2.6616301,6.5679094 2.7189106,6.2385182 2.8401317,5.5414437 3.3818209,4.515206 3.9980981,3.8150785 4.0988139,3.7006599 4.1744605,3.6002875 4.1662021,3.5920293 4.1359083,3.5617351 3.4533113,4.2682332 3.2552321,4.5349018 3.1429282,4.6860932 3.0510433,4.8018894 3.0510433,4.7922276 c 0,-0.060219 0.2662092,-0.697217 0.413781,-0.9901123 C 4.2724885,2.1990895 5.576803,1.2240781 7.3078723,0.92933148 7.4979614,0.89696688 7.6573256,0.87543988 7.6620155,0.88149518 7.8026573,1.0631143 8.3591998,1.8853505 8.3593397,1.9117212 8.3594653,1.9320854 8.2686432,2.1092759 8.1575528,2.3054775 l -0.2019835,0.35673 0.1714826,0.4415127 0.1714826,0.4415134 -0.066833,0.4450817 -0.066831,0.4450824 0.1310848,0.2731789 C 8.3680523,4.8588267 8.4337034,4.9750959 8.441843,4.9669561 8.449973,4.9588261 8.423318,4.8216536 8.382601,4.6621536 L 8.3085565,4.3721507 8.4007382,3.9397798 8.4929203,3.507408 8.3494188,3.1158323 C 8.1839841,2.6644058 8.1593782,2.7663161 8.5672588,2.2136177 8.7002126,2.033458 8.8003536,1.8677145 8.7897942,1.845297 8.779233,1.8228794 8.6192954,1.5851672 8.4343737,1.3170455 L 8.0981514,0.82955279 8.6176262,0.84972091 c 0.8736582,0.0339226 1.5850258,0.19999419 2.2782818,0.53187289 1.088967,0.5213136 1.866418,1.3143225 2.431661,2.4803198 0.18069,0.3727204 0.420217,0.952202 0.374013,0.9048106 -0.0084,-0.00859 -0.09033,-0.1182275 -0.182115,-0.2436322 C 13.33093,4.2655096 12.925263,3.834551 12.715408,3.66892 12.597779,3.57608 12.615335,3.606045 12.825399,3.8566077 c 0.354302,0.4226261 0.61851,0.8293318 0.854555,1.3154302 0.271658,0.5594427 0.333,0.756903 0.403201,1.297891 0.0559,0.4306409 0.125229,1.5257239 0.09871,1.5586749 -0.01625,0.020146 -0.391347,-0.2421102 -0.679322,-0.474939 C 13.125036,7.2484609 12.608555,6.6906177 12.396669,6.3592391 12.287571,6.1886033 12.166701,6.0037099 12.128083,5.9483654 l -0.0702,-0.1006259 0.100605,-0.085479 c 0.17366,-0.1475787 0.587769,-0.3299912 0.798494,-0.3517402 0.243075,-0.025088 0.258868,-0.080632 0.02293,-0.080632 -0.515251,0 -0.833689,0.163533 -1.348865,0.6927024 -0.211261,0.2169975 -0.495758,0.4712509 -0.632221,0.5650081 -0.37479,0.2575074 -0.448328,0.2862597 -0.257939,0.1008538 0.09106,-0.088674 0.223208,-0.2513461 0.293668,-0.361492 C 11.156306,6.136632 11.383563,5.5827213 11.3526,5.5517599 11.3446,5.5437399 11.29437,5.6116649 11.24104,5.7026913 11.105114,5.9346031 10.627806,6.4242399 10.29469,6.6734646 9.9014006,6.9677023 9.3694701,7.2213546 9.0628698,7.2608582 8.7460014,7.3016843 8.0106976,7.3007041 7.6898294,7.2590441 7.240613,7.2006972 6.5868551,6.8380697 6.0727326,6.3620716 5.811373,6.1200935 5.5405871,5.7938477 5.4669381,5.6322056 5.3817269,5.4451867 5.3731085,5.5483947 5.4540561,5.7864077 5.5722722,6.1339766 5.7048434,6.3637303 5.9274444,6.6068148 L 6.1203806,6.8174856 5.9800683,6.7335588 C 5.7145815,6.5747585 5.453105,6.3536932 5.1021034,5.9912834 4.7264724,5.6034468 4.5292087,5.4720563 4.1898565,5.3836662 3.9668017,5.3255678 3.612294,5.3110815 3.612294,5.3600623 c 0,0.016587 0.088464,0.039301 0.1965878,0.05046 0.2166633,0.022359 0.6362804,0.2094005 0.7946578,0.3542092 l 0.096754,0.088464 -0.1007608,0.150518 C 4.5441114,6.0864948 4.4301551,6.2647241 4.3462936,6.3997756 4.1474123,6.7200569 3.374285,7.4952346 2.9678879,7.7818375 2.7967473,7.9025312 2.638896,8.0081252 2.6171059,8.0164932 2.5890543,8.0272662 2.5800312,7.9368794 2.5862026,7.706835 Z" id="path482" class="ColorScheme-Text"/>
</svg>
