<?xml version="1.0" encoding="UTF-8" standalone="no"?>
<svg
   width="64"
   height="64"
   version="1.1"
   viewBox="0 0 16.933 16.933"
   id="svg7"
   sodipodi:docname="steam_icon_1590910.svg"
   inkscape:version="1.4.2 (ebf0e940d0, 2025-05-08)"
   xmlns:inkscape="http://www.inkscape.org/namespaces/inkscape"
   xmlns:sodipodi="http://sodipodi.sourceforge.net/DTD/sodipodi-0.dtd"
   xmlns="http://www.w3.org/2000/svg"
   xmlns:svg="http://www.w3.org/2000/svg"
   xmlns:rdf="http://www.w3.org/1999/02/22-rdf-syntax-ns#"
   xmlns:cc="http://creativecommons.org/ns#"
   xmlns:dc="http://purl.org/dc/elements/1.1/">
  <sodipodi:namedview
     id="namedview7"
     pagecolor="#9c4444"
     bordercolor="#000000"
     borderopacity="0.25"
     inkscape:showpageshadow="2"
     inkscape:pageopacity="0.0"
     inkscape:pagecheckerboard="0"
     inkscape:deskcolor="#d1d1d1"
     inkscape:zoom="8.7062525"
     inkscape:cx="50.251242"
     inkscape:cy="66.159349"
     inkscape:window-width="2560"
     inkscape:window-height="1392"
     inkscape:window-x="0"
     inkscape:window-y="0"
     inkscape:window-maximized="1"
     inkscape:current-layer="svg7"
     showgrid="false" />
  <defs
     id="defs2">
    <style
       id="current-color-scheme"
       type="text/css">.ColorScheme-Text {color:#d8dee9} .ColorScheme-Highlight {color:#3b4252}</style>
  </defs>
  <metadata
     id="metadata2">
    <rdf:RDF>
      <cc:Work
         rdf:about="">
        <dc:format>image/svg+xml</dc:format>
        <dc:type
           rdf:resource="http://purl.org/dc/dcmitype/StillImage" />
      </cc:Work>
    </rdf:RDF>
  </metadata>
  <path
     style="fill:currentColor;stroke:none;stroke-width:0.00940695"
     d="m 13.52126,4.3972539 0.0855,0.5017 -0.11062,0.16306 -0.38877,0.30102 v 0.0125 c 0.13371,-8e-5 0.26701,-0.0126 0.40136,-0.0125 0.0525,0 0.12746,0.0171 0.1751,-0.008 0.0701,-0.0363 0.11433,-0.12241 0.1402,-0.19311 0.10334,-0.28241 -0.11637,-0.5598 -0.30276,-0.7651 m -1.56782,0.47662 v 0.0125 c 0.1337,0.0822 0.25539,0.19475 0.2628,0.36374 0.008,0.18048 -0.10428,0.37687 0.0431,0.53552 0.0798,0.0858 0.20308,0.0776 0.30866,0.0588 0.26063,-0.0465 0.48585,-0.0996 0.75256,-0.0926 v -0.0125 h -0.0251 v -0.0125 h 0.10034 c 0.006,0.0512 0.15191,0.0639 0.20068,0.0933 0.11645,0.0701 0.18769,0.1994 0.18814,0.3332 0.12473,-0.0707 0.29853,-0.20822 0.33865,-0.3512 h 0.0125 l 0.0125,0.0251 c 0.0691,-0.10585 -0.15117,-0.33997 -0.26126,-0.34526 -0.29402,-0.0141 -0.5712,-0.0511 -0.86752,0.009 -0.11313,0.023 -0.31887,0.1366 -0.4265,0.083 -0.20963,-0.10448 -0.15359,-0.33255 -0.25686,-0.49928 -0.0796,-0.12855 -0.24954,-0.15825 -0.38281,-0.20086 m 0.22576,0.11288 0.0251,0.0502 h -0.0125 l -0.0125,-0.0502 m 0.23831,0.47662 0.0125,0.0376 -0.0125,-0.0376 m 0.90307,0 v 0.0125 l -0.0878,0.0125 0.0878,-0.0251 m 0.0251,0.004 0.004,0.004 c -0.006,0.002 -0.0139,-0.004 -0.004,-0.004 m 0.11288,-0.004 v 0.0125 h -0.0502 l 0.0502,-0.0125 m 0.10034,0.0125 0.0627,0.0125 v 0.0125 l -0.0752,-0.0125 0.0125,-0.0125 m 0.31357,0.0251 -0.0126,0.0125 0.0126,-0.0125 m -1.64309,0.0251 0.0126,0.0376 -0.0126,-0.0376 m 1.4424,0.13796 v 0.0126 h -0.0627 l 0.0627,-0.0126 m -0.0251,0.0376 -0.0125,0.0125 0.0125,-0.0125 m 0.43899,0.0753 0.0125,0.0502 -0.0502,-0.0125 0.0126,-0.0376 h 0.0251 m -0.82781,0.68984 0.0125,-0.0376 c -0.13712,-0.10121 -0.18812,-0.30162 -0.18814,-0.46407 h 0.0125 v 0.10034 h 0.0125 l 0.0251,-0.18814 c -0.0921,0.004 -0.32382,-9.1e-4 -0.38959,0.072 -0.069,0.0765 -0.0164,0.27837 7.7e-4,0.36702 h -0.0125 l -0.0126,-0.0376 h -0.0125 c 0.005,0.10318 0.0564,0.18511 0.12061,0.2634 0.2432,0.29669 0.59778,0.31144 0.94551,0.20423 0.11063,-0.0341 0.27088,-0.17322 0.38881,-0.14474 0.0725,0.0175 0.10866,0.0884 0.0668,0.1516 -0.0687,0.10389 -0.17997,0.19358 -0.28003,0.26553 -0.0304,0.1056 -0.27709,0.18944 -0.37628,0.21322 v 0.0125 h 0.0376 v 0.0126 c -0.41971,0.0866 -0.92086,0.0748 -1.32952,-0.0346 -0.27218,-0.0729 -0.49747,-0.25266 -0.79018,-0.26595 -0.2389,-0.0108 -0.49853,0.006 -0.72747,0.0791 -0.20394,0.0654 -0.38728,0.20164 -0.58951,0.2646 -0.10218,0.0318 -0.24446,0.007 -0.35119,0.007 0.0627,0.064 0.19171,0.0376 0.27594,0.0376 0.25056,0 0.51564,0.006 0.7651,-0.0251 v -0.0125 h -0.0753 c 0.28153,-0.23306 0.65134,-0.19934 0.97832,-0.0868 0.0844,0.029 0.15337,0.0975 0.23832,0.11853 0.36298,0.0899 0.74996,0.002 1.12883,0.006 0.18651,0.002 0.3794,0.0325 0.53933,-0.0753 v 0.12542 l 0.21323,-0.0403 0.48916,0.0492 0.31356,-0.10926 v 0.13797 l 0.16306,-0.084 0.28848,-0.0289 v -0.0125 h -0.27594 c 0.30823,-0.30824 0.56995,-0.74047 0.3676,-1.17901 -0.0393,-0.0853 -0.0764,-0.16953 -0.15438,-0.22577 l 0.0125,0.0376 c -0.21555,-0.20567 -0.53113,-0.18165 -0.77765,-0.0463 -0.33789,0.18557 -0.61351,0.61308 -1.05358,0.57305 m 0.76511,-0.65221 -0.0251,0.0251 0.0251,-0.0251 m 1.11629,0.45153 -0.0376,-0.12543 c 0.0876,0.01 0.1093,0.0702 0.0376,0.12543 m -2.34547,0.0376 -0.0125,-0.10034 c 0.0678,0.0118 0.0698,0.0687 0.0125,0.10034 m -5.15501,0.40136 c 0.19406,0.26977 0.70284,0.35938 1.0034,0.24499 0.17698,-0.0674 0.30065,-0.21404 0.46408,-0.30379 0.33174,-0.18219 0.8032,-0.16076 1.0912,0.0892 0.0835,0.0725 0.16772,0.16941 0.21323,0.2706 0.15421,-0.0109 0.38213,-0.0427 0.47662,-0.17559 h -0.0502 c 0.0453,-0.11621 -0.0736,-0.17025 -0.15051,-0.22933 -0.20161,-0.15484 -0.38584,-0.26065 -0.63967,-0.30881 -0.29491,-0.056 -0.68513,-0.0306 -0.95324,0.11226 -0.26918,0.14347 -0.48025,0.38972 -0.79019,0.4568 -0.0545,0.0118 -0.12109,-0.014 -0.17559,-0.0218 -0.17282,-0.0247 -0.32756,-0.0674 -0.48916,-0.13457 m 7.49186,-0.4061 c 0.0661,-0.0294 0.0724,0.0542 0.0212,0.0821 -0.0532,0.0291 -0.0636,-0.0632 -0.0212,-0.0821 m -2.24905,0.08 c -0.004,0.0485 -0.0137,0.0671 -0.0627,0.0753 v -0.0753 h 0.0627 m 0.0878,0.0125 -0.0502,0.0627 -0.0125,-0.0753 0.0627,0.0125 m 2.23258,0.11288 v -0.0878 c 0.0718,0.012 0.0545,0.0603 0,0.0878 m -2.19496,0 c -0.0351,0.0722 -0.0938,0.0725 -0.10034,-0.0125 l 0.10034,0.0125 m 2.15733,-0.0125 -0.0753,0.10034 v -0.10034 h 0.0753 m -2.06953,0.0251 -0.0627,0.0753 v -0.0753 h 0.0627 m 2.15733,0.11289 -0.0878,0.11288 c -0.0207,-0.0763 0.0119,-0.1104 0.0878,-0.11288 m -2.13224,0.0251 -0.0627,0.0502 0.0627,-0.0502 m 0.97832,0.0878 c -0.10471,-0.0439 -0.21224,0.0163 -0.31357,0.0502 -0.0331,0.011 -0.10183,0.0217 -0.10607,0.0655 -0.003,0.035 0.0258,0.0708 0.047,0.0954 0.10622,0.12296 0.2068,0.0411 0.29572,-0.0606 0.0383,-0.0438 0.0611,-0.0951 0.0769,-0.15051 m -0.0878,0.0125 -0.0376,0.0376 0.0376,-0.0376 m 0.92816,0.15051 c 1.7e-4,-0.0449 0.0581,-0.21289 0.12434,-0.11606 0.0421,0.0616 -0.0851,0.10895 -0.12434,0.11606 m -4.45263,-0.0585 0.004,0.004 c -0.006,0.002 -0.0139,-0.004 -0.004,-0.004 m 4.2394,0.24667 c -0.004,-0.0249 -0.01,-0.0501 -0.004,-0.0753 0.0391,-0.17403 0.25745,-0.0245 0.0795,0.0563 -0.0234,0.0106 -0.0503,0.0141 -0.0753,0.019 m 0.36374,-0.15051 c -0.01,0.0288 -0.02,0.0515 -0.0405,0.0748 -0.15653,0.17817 -0.16731,-0.13564 0.0405,-0.0748 m -9.78324,0.11288 v 0.0126 c 0.18712,0.0242 0.2957,0.0247 0.33865,0.22576 l -1.11629,0.0125 c 0.0427,0.0697 0.1279,0.0498 0.20068,0.0502 0.17923,8.6e-4 0.34907,-0.003 0.52679,-0.012 0.24298,-0.0118 0.48509,0.012 0.72747,0.012 0.47325,0 0.9435,-0.0126 1.41732,-0.0126 v -0.0376 c -0.52523,0 -1.0517,-0.0213 -1.56777,-0.10097 -0.0851,-0.0131 -0.10968,-0.10688 -0.17678,-0.14977 -0.0902,-0.0576 -0.25275,-0.0236 -0.35007,-1.2e-4 m 9.53219,0.0559 c 0.11001,-0.0166 0.0243,0.1519 -0.0481,0.15304 -0.0842,10e-4 -0.0152,-0.14345 0.0481,-0.15304 m -0.57677,0.007 -0.0502,0.0376 0.0502,-0.0376 m 0.439,0.0251 c -0.0288,0.0846 -0.0965,0.14554 -0.18814,0.13797 0.0132,-0.0966 0.0908,-0.16589 0.18814,-0.13797 m -0.22577,0 -0.0376,0.0251 v -0.0126 l 0.0376,-0.0125 m -13.01923,0.1756 v 0.0125 c 0.2398,0.0709 0.56501,0.0125 0.81527,0.0125 v -0.0376 c -0.26399,0 -0.55659,-0.0639 -0.81527,0.0126 m 0.87798,0.0251 c 0.17686,0 0.35141,1.3e-4 0.52729,-9.4e-4 0.0635,-3.8e-4 0.16181,0.0225 0.20018,-0.0367 -0.18018,0 -0.35992,-0.0125 -0.53933,-0.0125 -0.068,0 -0.14946,-0.016 -0.18814,0.0502 m 0.8529,0 h 0.50171 c 0.0615,0 0.15102,0.0196 0.18813,-0.0376 H 3.3742 c -0.0615,0 -0.15102,-0.0196 -0.18814,0.0376 m 0.74001,-0.0251 v 0.0125 c 0.0746,0.022 0.29261,0.046 0.33866,-0.0251 l -0.33866,0.0126 m 3.58719,0.0251 0.87798,-0.007 0.37628,0.0444 0.25086,-0.0371 0.71492,-5e-4 c -0.11066,-0.0823 -0.34384,-0.0376 -0.47662,-0.0376 H 8.01497 7.65123 c -0.0527,10e-6 -0.10683,-0.0104 -0.13797,0.0376 m 7.651,0 h 0.31356 c -0.0439,-0.0621 -0.27217,-0.0639 -0.31356,0 m -4.89162,0.0376 v 0.0125 h 0.0376 l -0.0376,-0.0125 m -6.7103,0.36924 c -0.12441,0.0194 -0.24514,0.0656 -0.35119,0.1336 -0.77012,0.4939001 -0.27565,1.72531 0.61458,1.58627 0.121,-0.0189 0.23564,-0.0624 0.33865,-0.1286799 C 4.93322,8.8480539 4.4696,7.6094339 3.56234,7.7511239 M 7.68886,8.611064 H 7.36275 c 0,0.13381 0.0304,0.30922 -0.004,0.43845 -0.0505,0.1897 -0.42338,0.0724 -0.52279,0.003 -0.42165,-0.2929201 -0.218,-1.02769 0.3261,-0.97339 0.14666,0.0146 0.23516,0.1009399 0.36373,0.15529 0.0309,-0.0661 0.16567,-0.21403 0.14492,-0.2863 -0.0352,-0.12264 -0.31535,-0.17898 -0.42085,-0.19546 -0.43953,-0.0687 -0.87933,0.23334 -0.9682,0.6699 -0.1113,0.54672 0.29532,1.05361 0.85531,1.05358 0.16336,-10e-6 0.42796,-0.046 0.53177,-0.19045 0.0364,-0.0507 0.0201,-0.13923 0.0201,-0.19837 v -0.47662 m 4.40246,0.82781 h 0.33865 V 8.3849239 c 0,-0.11899 -0.006,-0.3041199 0.16305,-0.3085699 0.16337,-0.004 0.1756,0.17981 0.1756,0.29603 v 1.06612 h 0.3261 V 8.3849239 c 0,-0.12077 0.007,-0.30892 0.1756,-0.30892 0.17087,0 0.16305,0.1903 0.16305,0.30892 V 9.438504 h 0.33866 v -0.95324 c 0,-0.16906 0.0229,-0.35066 -0.0685,-0.5017 -0.11372,-0.18778 -0.3435,-0.28387 -0.5586,-0.22877 -0.0689,0.0176 -0.14163,0.0878 -0.2079,0.0944 -0.0457,0.005 -0.11201,-0.0593 -0.15583,-0.0759 -0.10468,-0.0399 -0.24519,-0.0441 -0.35119,-0.007 -0.1469,0.0518 -0.27642,0.17678 -0.31658,0.32988 -0.0409,0.15586 -0.0221,0.32956 -0.0221,0.48916 v 0.8529 M 1.60568,7.7575239 v 1.68071 h 0.33865 v -0.66476 h 0.50171 v -0.33865 H 1.94433 v -0.33865 h 0.84036 v -0.33865 H 1.60568 m 3.17328,1.68071 h 0.33865 c 0,-0.077 -0.0316,-0.24349 0.0129,-0.30813 0.0312,-0.0453 0.11571,-0.0305 0.16271,-0.0305 0.0533,0 0.13787,-0.0157 0.18532,0.0129 0.0751,0.0452 0.13092,0.24383 0.15333,0.32576 h 0.36374 c -0.0348,-0.10227 -0.0809,-0.20174 -0.12354,-0.30102 -0.0151,-0.0351 -0.0472,-0.0847 -0.0344,-0.12431 0.0224,-0.0697 0.127,-0.12688 0.16932,-0.18926 0.13642,-0.20107 0.15623,-0.47153 0.05,-0.68984 -0.18379,-0.37764 -0.56486,-0.37628 -0.92677,-0.37628 -0.0645,0 -0.31183,-0.0355 -0.34363,0.0291 -0.0542,0.11025 -0.008,0.34957 -0.008,0.47263 v 1.17901 m 3.17328,-1.68071 v 1.68071 h 0.33865 v -1.21663 -0.31357 c 0,-0.0365 0.0114,-0.0997 -0.0129,-0.1304 -0.0434,-0.0548 -0.25948,-0.0201 -0.32576,-0.0201 m 0.48917,0 c 0.11304,0.42289 0.27172,0.83875 0.40972,1.25426 0.0332,0.1 0.0628,0.20105 0.0962,0.30102 0.0126,0.0378 0.0218,0.0993 0.062,0.11786 0.0513,0.0237 0.28219,0.0302 0.32155,-0.0125 0.0924,-0.1005 0.12364,-0.35169 0.16443,-0.48159 0.0857,-0.27294 0.18172,-0.54267 0.26841,-0.81527 0.0375,-0.11783 0.0968,-0.23988 0.10756,-0.36374 H 9.49462 c -0.084,0.36307 -0.19124,0.77421 -0.33865,1.11629 -0.0774,-0.27266 -0.15814,-0.54472 -0.24258,-0.81527 -0.0225,-0.0722 -0.0379,-0.24278 -0.10246,-0.28813 -0.0735,-0.0516 -0.28109,-0.0129 -0.36988,-0.0129 m 1.60545,0 v 1.68071 h 1.15392 v -0.32611 h -0.5895 c -0.0554,0 -0.17569,0.0224 -0.2182,-0.0201 -0.0541,-0.0541 -0.0201,-0.2457 -0.0201,-0.31854 h 0.56442 v -0.33865 h -0.56442 c 0,-0.0728 -0.0339,-0.26448 0.0201,-0.31854 0.0425,-0.0425 0.1628,-0.0201 0.2182,-0.0201 h 0.5895 c 0,-0.0738 0.0338,-0.25955 -0.0129,-0.31854 -0.0403,-0.0509 -0.22776,-0.0201 -0.28813,-0.0201 h -0.8529 m 4.02618,0 v 1.68071 h 1.15392 v -0.32611 h -0.81527 v -0.33865 h 0.55187 v -0.33865 h -0.55187 v -0.33865 h 0.81527 v -0.33865 h -1.15392 m -10.42291,0.31716 c 0.35829,-0.0435 0.64818,0.32142 0.56567,0.66116 -0.0573,0.23608 -0.25674,0.38231 -0.49042,0.40839 -0.37923,0.0423 -0.65096,-0.36666 -0.54057,-0.70941 0.0665,-0.20639 0.25659,-0.33483 0.46532,-0.36014 M 5.11724,8.773604 V 8.0963039 c 0.15787,0 0.3752,-0.0393 0.51425,0.0498 0.22315,0.1430001 0.20841,0.4858 -0.0376,0.5980001 -0.13676,0.0624 -0.32949,0.0295 -0.47662,0.0295 m 1.45495,1.39223 v 1.216636 0.313565 c 0,0.0365 -0.0114,0.09969 0.0129,0.130401 0.0434,0.05476 0.25948,0.02011 0.32576,0.02011 v -0.677302 h 0.5017 v -0.32611 H 7.04885 l -0.12508,-0.0291 -0.0129,-0.30958 h 0.84035 v -0.33865 h -1.179 m 1.30443,1.680712 h 0.32611 v -0.338651 h 0.6773 v 0.338651 h 0.33865 v -0.790185 c 0,-0.195517 0.009,-0.388677 -0.092,-0.564417 -0.25426,-0.4435 -0.95836,-0.4292 -1.18115,0.0376 -0.0829,0.1738 -0.0689,0.35209 -0.0689,0.539329 v 0.777643 M 9.3316,10.165774 v 0.33865 h 0.50171 v 1.342062 h 0.3261 v -1.342062 h 0.36374 l 0.13762,-0.0201 0.0129,-0.31854 H 9.33161 m 1.51766,0 v 1.680712 h 0.33865 v -0.677302 h 0.47662 l 0.18057,0.02011 0.0201,0.180571 v 0.47662 h 0.32611 v -1.680711 h -0.32611 v 0.47662 l -0.0201,0.18057 -0.18057,0.0201 h -0.47662 v -0.6773 h -0.33865 m 1.65562,0 v 1.680711 h 1.15392 v -0.338651 h -0.81527 v -0.338651 h 0.55188 v -0.326109 h -0.55188 v -0.33865 h 0.81527 v -0.33865 h -1.15392 m 1.39223,0 v 1.680711 h 0.33865 v -0.338651 c 0.092,0 0.28109,-0.03621 0.36029,0.01289 0.0938,0.05816 0.0787,0.229688 0.15388,0.305649 0.0584,0.05903 0.28355,0.02011 0.36382,0.02011 l -0.18814,-0.451535 c 0.44349,-0.171818 0.37267,-0.854304 0.0502,-1.094204 -0.29087,-0.21637 -0.73687,-0.13497 -1.07867,-0.13497 m -5.01704,1.003407 h -0.6773 c 0,-0.167267 -0.0346,-0.380167 0.0641,-0.526597 0.14165,-0.21021 0.47734,-0.1745 0.58404,0.05 0.0638,0.13426 0.0292,0.33092 0.0292,0.476617 m 5.35569,0 v -0.664757 c 0.15118,0 0.36692,-0.0396 0.50171,0.0404 0.23224,0.13793 0.21101,0.495422 -0.0376,0.60318 -0.12951,0.05613 -0.32474,0.02113 -0.46408,0.02113 m -2.05699,1.066122 v 0.01254 c 0.17406,0.05431 0.31696,0.0094 0.49029,0.005 0.0537,-0.0014 0.10614,0.0354 0.16193,0.03862 0.0846,0.0049 0.17636,-0.01858 0.26339,-0.01858 -0.0436,-0.06734 -0.17884,-0.03509 -0.25085,-0.03786 -0.0576,-0.0022 -0.10558,-0.04752 -0.16092,-0.045 -0.0481,0.0022 -0.0912,0.03803 -0.1401,0.04362 -0.11841,0.01353 -0.24455,0.0016 -0.36374,0.0016 m -2.6214,0 v 0.03763 h 0.56442 1.14137 c -0.0539,-0.0832 -0.33233,-0.03763 -0.42645,-0.03763 H 9.55748 m -2.9726,0.02508 v 0.01254 h 0.82781 v -0.03763 H 6.86082 l -0.27594,0.02508 m 0.91561,0.01254 h 0.81527 c -0.0428,-0.03242 -0.0983,-0.02545 -0.15051,-0.03231 -0.15509,-0.02036 -0.32028,-0.0053 -0.47662,-0.0053 -0.0615,0 -0.14883,-0.01801 -0.18814,0.03763 m 0.86544,-0.01254 c 0.22245,0.13981 0.42681,0.04429 0.66476,0.01612 0.15536,-0.01839 0.3202,-0.0036 0.47662,-0.0036 -0.0667,-0.05464 -0.16922,-0.03763 -0.25086,-0.03763 -0.12273,0 -0.25463,-0.01218 -0.37627,0.0036 -0.0806,0.01047 -0.15873,0.05038 -0.23831,0.05765 -0.1086,0.0099 -0.15597,-0.09393 -0.27594,-0.0362 m 2.9726,0 v 0.01254 h 0.56442 v -0.03763 c -0.16428,0 -0.41522,-0.04672 -0.56442,0.02508 m 1.91902,0 v 0.01254 c 0.0614,0 0.28363,-0.03417 0.29466,0.05154 0.008,0.06496 -0.0533,0.141224 -0.0563,0.21186 0.17062,-0.01605 0.26579,-0.231255 0.42645,-0.260531 0.28158,-0.05131 0.61648,-0.0029 0.90306,-0.0029 0.12833,0 0.2425,0.01795 0.36374,-0.02509 -0.12577,-0.05278 -0.33995,-0.01254 -0.47662,-0.01254 h -1.00341 c -0.13585,0 -0.32757,-0.03457 -0.45153,0.02509 m 0.47662,0.03763 -0.0251,0.02509 v -0.02509 h 0.0251 m -0.31357,0.112884 0.0753,-0.07526 c -0.0548,0.0043 -0.071,0.02051 -0.0753,0.07526 z"
     id="path5"
     class="ColorScheme-Text" />
</svg>
