<?xml version='1.0' encoding='UTF-8'?>
<svg xmlns:inkscape="http://www.inkscape.org/namespaces/inkscape" xmlns:sodipodi="http://sodipodi.sourceforge.net/DTD/sodipodi-0.dtd" xmlns="http://www.w3.org/2000/svg" xmlns:svg="http://www.w3.org/2000/svg" xmlns:rdf="http://www.w3.org/1999/02/22-rdf-syntax-ns#" xmlns:cc="http://creativecommons.org/ns#" xmlns:dc="http://purl.org/dc/elements/1.1/" width="64" height="64" version="1.1" viewBox="0 0 16.933 16.933" id="svg7" sodipodi:docname="steam_icon_2816950.svg" inkscape:version="1.4 (e7c3feb100, 2024-10-09)">
  <sodipodi:namedview id="namedview7" pagecolor="#9c4444" bordercolor="#000000" borderopacity="0.25" inkscape:showpageshadow="2" inkscape:pageopacity="0.0" inkscape:pagecheckerboard="0" inkscape:deskcolor="#d1d1d1" inkscape:zoom="4.3531261" inkscape:cx="55.362513" inkscape:cy="14.242638" inkscape:window-width="1226" inkscape:window-height="669" inkscape:window-x="344" inkscape:window-y="117" inkscape:window-maximized="0" inkscape:current-layer="svg7" showgrid="false"/>
  <defs id="defs2">
    <style id="current-color-scheme" type="text/css">.ColorScheme-Text {color:#d8dee9} .ColorScheme-Highlight {color:#3b4252}</style></defs>
  <metadata id="metadata2">
    <rdf:RDF>
      <cc:Work rdf:about="">
        <dc:format>image/svg+xml</dc:format>
        <dc:type rdf:resource="http://purl.org/dc/dcmitype/StillImage"/>
      </cc:Work>
    </rdf:RDF>
  </metadata>
  <g id="path1-5" style="fill:currentColor;fill-opacity:1" transform="matrix(1.771561,0,0,1.771561,-6.585909,-6.6472662)" class="ColorScheme-Text">
    <path d="M 7.3716545,12.626141 C 5.4941995,12.598353 5.1913489,12.557768 4.7816843,12.279052 4.5815452,12.142887 4.2438421,11.775114 4.1513779,11.592621 3.9324065,11.160448 4.0093731,10.412402 4.3424801,9.7352775 4.6052825,9.2010649 5.2480985,8.424491 5.6653945,8.1370873 l 0.210111,-0.1447083 0.02561,-0.2498886 c 0.113828,-1.1110307 0.642485,-2.3858166 1.224498,-2.9527153 0.301894,-0.2940532 0.495407,-0.2453786 0.555889,0.1398234 0.05764,0.3671774 -0.205279,1.3620956 -0.565015,2.1379841 -0.08257,0.1780854 -0.150125,0.3292415 -0.150125,0.3359019 0,0.00667 0.08251,-0.013756 0.183351,-0.045371 0.456045,-0.1429739 1.25487,-0.2218848 1.669201,-0.1648894 0.260737,0.035866 0.293089,0.033079 0.328099,-0.028265 0.02136,-0.03743 0.244018,-0.3249905 0.494787,-0.6390237 0.6968505,-0.8726417 1.3844825,-1.4794397 2.0059835,-1.7701708 0.375784,-0.1757859 0.496035,-0.209647 0.627422,-0.1766719 0.290727,0.072968 0.124392,0.5788142 -0.496032,1.5085003 -0.315566,0.4728642 -0.474048,0.6648269 -0.943034,1.1422526 l -0.401626,0.4088559 0.437167,0.2147298 c 0.342289,0.1681281 0.54198,0.3018776 0.920134,0.6162861 0.265633,0.2208561 0.55841,0.49608 0.650615,0.611609 0.600294,0.7521418 0.659121,1.6786696 0.151804,2.3909426 -0.302429,0.424611 -0.925478,0.840143 -1.497688,0.998856 -0.292265,0.08107 -1.6199035,0.207842 -1.9701365,0.188129 -0.09468,-0.0053 -0.884321,-0.02023 -1.754747,-0.03312 z m 2.616631,-0.114416 c 0.7709415,-0.04797 1.1115295,-0.110591 1.4432075,-0.265336 1.041499,-0.485914 1.534586,-1.283938 1.363485,-2.206694 C 12.659309,9.3080346 11.838463,8.4253515 10.842872,7.9405289 10.288186,7.6704145 10.324045,7.6757683 10.107924,7.8308029 10.00415,7.9052469 9.8323925,8.0082769 9.7262445,8.0597597 9.5221015,8.1587697 9.5416765,8.1418117 9.8950075,7.9135596 10.19154,7.7219989 10.714276,7.2589796 11.008293,6.9274542 11.571468,6.292433 12.098022,5.4916025 12.250629,5.0379989 12.355585,4.7260351 12.331909,4.6628911 12.120834,4.6918229 11.287283,4.8060738 9.7169585,6.2786428 9.0475075,7.5738301 c -0.131991,0.2553636 -0.24715,0.4571306 -0.255911,0.4483707 -0.0087,-0.00876 0.05607,-0.1591233 0.144068,-0.3341411 0.111861,-0.2224812 0.146501,-0.326554 0.115138,-0.3459365 -0.149873,-0.092627 -1.021589,-0.068854 -1.582649,0.043161 -0.247637,0.049441 -0.645053,0.2076175 -0.745047,0.2965381 -0.03825,0.034016 0.03403,-0.1370698 0.160631,-0.3801922 0.407532,-0.7826219 0.700014,-1.7221592 0.700163,-2.2491197 1.47e-4,-0.4818347 -0.212139,-0.4360502 -0.648451,0.1398618 -0.113393,0.1496741 -0.238605,0.3357129 -0.278247,0.4134193 -0.114647,0.2247264 -0.353615,0.8161951 -0.336626,0.8331834 0.0085,0.0085 0.08833,-0.053847 0.177374,-0.1385586 0.134751,-0.1281875 0.182759,-0.1512973 0.286207,-0.1377781 0.06836,0.00893 0.137325,0.017417 0.153249,0.018851 0.01592,0.00141 0.02896,0.038371 0.02896,0.082083 0,0.050248 -0.01639,0.069348 -0.04457,0.051936 -0.02861,-0.017676 -0.03404,-0.010516 -0.01518,0.019986 0.03292,0.053289 -0.07093,0.3571624 -0.172546,0.5047954 -0.03653,0.053075 -0.155127,0.2701988 -0.263547,0.4824977 -0.10842,0.2122991 -0.197538,0.3632611 -0.198041,0.3354704 -4.96e-4,-0.027789 -0.01912,-0.039271 -0.04138,-0.025512 -0.02759,0.017049 -0.02584,0.042652 0.0055,0.08041 0.02529,0.030469 0.03512,0.066247 0.02186,0.079511 -0.05076,0.050757 -0.171301,-0.3057039 -0.157095,-0.4645467 l 0.01429,-0.1597309 -0.03636,0.1350997 c -0.02,0.074305 -0.04823,0.2699897 -0.06274,0.4348559 l -0.02638,0.2997562 -0.235647,0.1682374 C 5.0968954,8.6758332 4.4147472,9.6235487 4.2480234,10.299318 c -0.090888,0.368392 -0.1018706,0.525942 -0.03487,0.500231 0.1636765,-0.06281 0.3975542,0.31362 0.3982377,0.640969 3.15e-4,0.151147 -0.016909,0.194197 -0.1057724,0.264368 l -0.1061494,0.08382 0.1986992,0.183072 c 0.4169616,0.384171 0.8521369,0.498301 2.0207899,0.529981 0.456444,0.01237 0.837135,0.02898 0.84598,0.0369 0.03541,0.03172 1.900817,0.0118 2.523348,-0.02694 z m -3.765397,-0.813692 -0.299569,-0.116806 -0.170503,0.09992 c -0.184527,0.10814 -0.214654,0.117516 -0.214654,0.0668 0,-0.01821 0.08715,-0.07833 0.193653,-0.133591 l 0.193652,-0.100471 0.308146,0.11767 c 0.169479,0.06472 0.308144,0.133518 0.308144,0.15289 0,0.01937 -0.0043,0.03413 -0.0097,0.03281 -0.0053,-0.0013 -0.144456,-0.05498 -0.309219,-0.119221 z m 1.978719,0.03853 c -0.219678,-0.04041 -0.356426,-0.141844 -0.401067,-0.297503 -0.06491,-0.226328 0.183523,-0.39621 0.579411,-0.39621 0.290595,0 0.456243,0.07738 0.565274,0.264071 0.08659,0.148264 0.04565,0.236567 -0.162494,0.350429 -0.17307,0.09468 -0.359159,0.120042 -0.581124,0.07921 z M 5.023047,10.552485 C 4.901375,10.418038 4.974778,10.239652 5.1276357,10.29831 c 0.087132,0.03344 0.1503908,0.208229 0.098143,0.271184 -0.060447,0.07283 -0.1264334,0.0673 -0.2027317,-0.01701 z m 2.2381455,0.01826 c -0.07755,-0.061 -0.01686,-0.205483 0.11076,-0.263625 0.08144,-0.03711 0.11015,-0.03403 0.161484,0.0173 0.05715,0.05715 0.05725,0.07034 0.0011,0.156093 -0.0729,0.111278 -0.195204,0.151657 -0.273293,0.09023 z m 2.380748,-2.9644886 c 0.02514,-0.040717 0.0856,-0.084157 0.134351,-0.096534 0.142578,-0.036193 0.129687,9.18e-4 -0.03087,0.088854 -0.140521,0.076972 -0.146524,0.077416 -0.103472,0.00768 z m 0.06162,-0.1806433 c 0.02086,-0.038983 0.108375,-0.134518 0.19447,-0.2122987 0.08609,-0.077781 0.1325565,-0.1414203 0.1032495,-0.1414203 -0.0293,0 -0.07491,0.026055 -0.1013365,0.057901 -0.05701,0.068689 -0.1544,0.076804 -0.1544,0.012865 0,-0.024768 0.01039,-0.034642 0.02309,-0.021943 0.01269,0.012698 0.121261,-0.056173 0.2412495,-0.1530499 0.277154,-0.2237725 0.288623,-0.2371391 0.112713,-0.1313628 -0.07923,0.047639 -0.1644165,0.074027 -0.1893135,0.058639 -0.02619,-0.016183 -0.035,-0.011364 -0.02092,0.011428 0.01339,0.021674 -0.0087,0.069381 -0.04925,0.1060164 -0.07027,0.063601 -0.07267,0.063019 -0.05282,-0.012876 0.02183,-0.083492 0.08252,-0.1486727 0.147544,-0.1584657 0.02122,-0.0032 0.03344,-0.030963 0.02713,-0.061699 -0.0062,-0.030738 0.015318,-0.066157 0.048018,-0.078713 0.03272,-0.012555 0.04961,-0.038809 0.03754,-0.058339 -0.01207,-0.019532 -0.0076,-0.033025 0.0099,-0.029984 0.07343,0.012754 0.128318,-0.00628 0.128318,-0.044493 0,-0.022483 -0.02171,-0.028878 -0.04825,-0.014211 -0.02654,0.014667 0.01255,-0.026989 0.08685,-0.092571 0.179551,-0.1584687 0.644418,-0.4044285 0.673978,-0.3565988 0.04713,0.076251 -0.02464,0.2274125 -0.119241,0.2511554 -0.08533,0.021418 -0.08885,0.029705 -0.03533,0.083225 0.04473,0.04472 0.04956,0.077892 0.01956,0.1339585 -0.02192,0.040986 -0.04897,0.074519 -0.06011,0.074519 -0.01112,0 -0.0078,-0.020054 0.0073,-0.044563 0.01729,-0.027968 0.01056,-0.034072 -0.01805,-0.016389 -0.02507,0.015497 -0.04079,0.056873 -0.03492,0.091947 0.0059,0.035076 -0.01104,0.066334 -0.03758,0.069464 -0.02653,0.00311 -0.06664,0.00787 -0.08913,0.010515 -0.02248,0.00265 -0.02997,0.022478 -0.01664,0.044053 0.01333,0.021576 0.04384,0.027126 0.06776,0.012332 0.02394,-0.014795 0.0041,0.028551 -0.04421,0.096324 -0.04826,0.067772 -0.10647,0.1116502 -0.129355,0.097505 -0.02288,-0.014146 -0.03207,-0.010005 -0.0204,0.0092 0.01166,0.019202 -0.04357,0.1098972 -0.122761,0.2015438 -0.120992,0.1400328 -0.171177,0.1693045 -0.314394,0.1833857 l -0.170424,0.016755 0.107294,-0.059768 c 0.05901,-0.032873 0.09701,-0.076405 0.08445,-0.096738 -0.01256,-0.020334 -0.08027,0.023918 -0.150454,0.098333 -0.139339,0.1477438 -0.200766,0.1757746 -0.14117,0.064422 z M 10.285941,6.6363412 c 0,-0.018098 -0.05211,0.00419 -0.115799,0.049551 -0.06368,0.045351 -0.1158,0.090941 -0.1158,0.1013102 0,0.010367 0.05212,-0.011928 0.1158,-0.049551 0.06368,-0.037623 0.115799,-0.083212 0.115799,-0.1013102 z M 10.80704,6.4156928 c -0.01312,-0.021229 -0.0055,-0.0386 0.01703,-0.0386 0.02248,0 0.04087,0.01737 0.04087,0.0386 0,0.021229 -0.0076,0.038601 -0.01703,0.038601 -0.0094,0 -0.02777,-0.01737 -0.04087,-0.038601 z M 6.3017985,7.4675381 c -5.79e-4,-0.1307221 -0.004,-0.1356421 -0.03613,-0.05077 -0.01952,0.05169 -0.02672,0.1168262 -0.016,0.1447496 0.03408,0.08884 0.0528,0.055115 0.05215,-0.09398 z m -0.159076,-0.443898 c -0.01071,-0.026538 -0.01948,-0.00482 -0.01948,0.04825 0,0.053075 0.0087,0.074786 0.01948,0.048249 0.01071,-0.026537 0.01071,-0.069962 0,-0.096499 z m 0.08481,-0.2605488 c 0,-0.036495 -0.01227,-0.02936 -0.03317,0.0193 -0.01825,0.04246 -0.03317,0.1032543 -0.03317,0.1350991 0,0.036496 0.01227,0.02936 0.03317,-0.0193 0.01825,-0.04246 0.03317,-0.1032547 0.03317,-0.1350991 z m 0.06622,-0.1450634 c -0.01185,-0.011843 -0.0022,-0.044844 0.02146,-0.073334 0.02703,-0.032568 0.02844,-0.051801 0.0038,-0.051801 -0.02155,0 -0.04974,0.027475 -0.06263,0.061057 -0.03558,0.092703 -0.02812,0.1393946 0.01774,0.1110549 0.02263,-0.013994 0.03147,-0.035133 0.01964,-0.046976 z" id="path5" style="fill:currentColor;fill-opacity:1" class="ColorScheme-Text"/>
    <path d="m 12.308594,4.4492187 c -0.08548,-0.021454 -0.182702,-0.018781 -0.291016,0.011719 -0.108313,0.030499 -0.235919,0.085014 -0.425781,0.1738281 -0.290655,0.1359652 -0.610688,0.5499696 -0.916016,0.8066406 -0.08616,0.074193 -0.157959,0.069575 -0.24414,0.1503907 -0.06369,0.059721 -0.09921,0.1441454 -0.16211,0.2070312 C 10.021982,6.044355 9.7882956,6.1288076 9.5371094,6.4433594 9.4113485,6.6008473 9.2933657,6.7506411 9.203125,6.8671875 9.158005,6.9254605 9.120318,6.9755742 9.0917969,7.0136719 9.0697439,7.0431299 9.0581359,7.0596139 9.0449219,7.0800779 9.0234549,7.0807334 8.9600929,7.0773579 8.8378906,7.0605469 8.4061712,7.0011595 7.681522,7.0847639 7.1933594,7.2226562 7.2091387,7.1881618 7.2205769,7.1612312 7.2382812,7.1230469 7.4220875,6.7266084 7.5780034,6.27846 7.6835937,5.8789062 7.7891841,5.4793525 7.8490065,5.1407561 7.8125,4.9082031 7.7957545,4.8015531 7.7703703,4.7123353 7.7265625,4.6367187 7.6827547,4.5611022 7.6142527,4.4964697 7.5273437,4.4746094 7.4404348,4.4527491 7.3513847,4.4737232 7.2714844,4.5136719 7.191584,4.5536206 7.1151009,4.6135886 7.0332031,4.6933594 6.4084836,5.3018555 5.8846217,6.586099 5.7675781,7.7285156 L 5.7480469,7.9179687 5.5898437,8.0273438 c -0.4570635,0.3147927 -1.088946,1.082841 -1.3671875,1.6484375 -0.090773,0.1845193 0.00586,0.3298467 -0.048828,0.5175777 -0.0074,0.02567 -0.048475,0.04904 -0.054687,0.07422 -0.046204,0.187279 -0.073126,0.320184 -0.080078,0.419922 -0.00348,0.04987 -0.00815,0.08881 0.015625,0.146484 0.00721,0.0175 0.031662,0.03612 0.050781,0.05469 -8.83e-4,0.254803 -0.169903,0.57097 -0.072266,0.763672 0.1190083,0.234882 0.4390066,0.576567 0.6738281,0.736328 0.2149889,0.146268 0.4257719,0.24076 0.8007813,0.291016 0.3750094,0.05025 0.9217453,0.06617 1.8613281,0.08008 0.435048,0.0064 0.8501649,0.01353 1.1679688,0.01953 0.3178039,0.006 0.5483864,0.01179 0.5820312,0.01367 0.2005935,0.01129 0.6122918,-0.01701 1.0273433,-0.05664 0.415052,-0.03963 0.8073,-0.08706 0.986329,-0.136719 0.132733,-0.03682 0.211685,-0.171666 0.34375,-0.230468 0.0027,-0.0013 0.009,-6.72e-4 0.01172,-0.002 0.01492,-0.007 0.01849,-0.02024 0.0332,-0.02734 0.451678,-0.21071 0.934183,-0.443585 1.181641,-0.791016 0.541878,-0.760797 0.47473,-1.7601908 -0.15625,-2.5507811 C 12.433209,8.8556279 12.147429,8.5920704 11.876953,8.3671875 11.495346,8.0499076 11.278681,7.9057962 10.929688,7.734375 L 10.658203,7.6015625 10.931641,7.3242187 C 11.402627,6.8447571 11.572864,6.6382632 11.890625,6.1621094 12.203984,5.69255 12.40546,5.3303183 12.496094,5.0546875 12.541411,4.9168721 12.561238,4.7992227 12.537109,4.6875 12.51298,4.5757773 12.419509,4.4770567 12.308594,4.4492187 Z m -0.138672,0.3730469 c -0.0056,0.0106 -0.0036,0.050875 -0.04492,0.1738281 -0.138158,0.4106554 -0.663181,1.2195075 -1.216797,1.84375 -0.13117,0.1479041 -0.316868,0.277516 -0.503906,0.4453125 0.0357,-0.043017 0.07012,-0.086202 0.09375,-0.125 0.0071,-0.011605 0.01164,-0.023628 0.01758,-0.035156 0.01902,-0.00869 0.03646,-0.016552 0.05078,-0.027344 0.03862,-0.029107 0.07257,-0.065921 0.103516,-0.109375 0.02695,-0.037806 0.045,-0.06765 0.06055,-0.1015625 0.0039,-0.00848 0.008,-0.015851 0.01172,-0.029297 0.0019,-0.00672 0.0047,-0.016023 0.0059,-0.027344 3.59e-4,-0.0034 -9.5e-5,-0.00703 0,-0.011719 0.01226,-0.012446 0.03556,-0.015615 0.04297,-0.029297 0.0044,-0.00811 7.68e-4,-0.017095 0.0039,-0.025391 0.0137,-0.00739 0.02212,-0.015373 0.0293,-0.021484 0.01436,-0.012224 0.02231,-0.022124 0.03125,-0.033203 0.01755,-0.021752 0.03448,-0.045604 0.04883,-0.072266 v -0.00195 c 0.0096,-0.018045 0.0092,-0.045833 0.01563,-0.068359 0.0094,-0.00579 0.02046,-0.012907 0.02734,-0.019531 0.01955,-0.0188 0.02858,-0.035841 0.03516,-0.050781 0.01315,-0.029881 0.01563,-0.053535 0.01563,-0.080078 0,-0.023328 -0.03266,-0.021109 -0.04102,-0.041016 0.02233,-0.026435 0.0639,-0.038403 0.07813,-0.068359 0.03678,-0.077464 0.06024,-0.1740276 0,-0.2714844 -4.62e-4,-7.473e-4 -0.01584,-0.022639 -0.02539,-0.03125 -0.0096,-0.00861 -0.01986,-0.016464 -0.0293,-0.021484 -0.01887,-0.010042 -0.03536,-0.013535 -0.04883,-0.015625 -0.02693,-0.00418 -0.04446,-0.00249 -0.06055,0 -0.03217,0.00497 -0.05793,0.014241 -0.08789,0.025391 -0.05992,0.022298 -0.130475,0.056231 -0.205078,0.095703 -0.145012,0.076725 -0.301263,0.1735972 -0.408203,0.265625 0.112965,-0.1270951 0.184491,-0.2690841 0.302734,-0.3867187 0.123086,-0.120498 0.239394,-0.2175011 0.359375,-0.3183594 0.491581,-0.4169691 1.005601,-0.7829566 1.306641,-0.8242188 0.0184,-0.00252 0.01883,-0.00147 0.03125,-0.00195 z m -4.7421876,0.050781 c 0.00962,0.02805 0.023467,0.081852 0.023437,0.1796875 -7.11e-5,0.2512242 -0.2282948,0.7350165 -0.3613282,1.1503906 -0.00252,-0.013419 -9.921e-4,-0.02722 -0.00586,-0.041016 -0.00604,-0.017108 -0.014132,-0.035145 -0.03125,-0.056641 -0.017118,-0.021496 -0.050083,-0.051908 -0.1035157,-0.056641 -0.00336,-3.022e-4 -0.08074,-0.00873 -0.1484375,-0.017578 -0.018299,-0.00239 -0.038837,0.00779 -0.058594,0.00781 C 6.8733162,5.7669718 6.9251268,5.4282792 7.0742187,5.234375 7.1643624,5.1185485 7.2484339,5.0183341 7.3125,4.9570312 7.3730988,4.8990461 7.4082117,4.8823135 7.4277344,4.8730466 Z M 7.0195312,6.265625 c -0.00198,-0.0032 9e-5,-0.00468 0.00391,0.00586 0.00168,0.00463 0.00447,0.013677 0.00586,0.027344 -0.00384,-0.011974 -6.314e-4,-0.018417 -0.00977,-0.033203 z M 6.7636719,6.294922 c -0.00102,0.00937 -0.00236,0.018915 -0.00195,0.025391 0.00131,0.020956 0.00616,0.033014 0.00977,0.042969 0.00223,0.00615 0.00366,0.00889 0.00586,0.013672 -3.901e-4,0.00459 -4.673e-4,0.00713 -0.00195,0.015625 -0.00485,0.027738 -0.015605,0.071414 -0.03125,0.1171875 C 6.7128508,6.6013122 6.6635983,6.7075942 6.625,6.7636719 6.5967878,6.8046618 6.5601949,6.868282 6.5117187,6.9570312 6.4657023,7.0412773 6.411592,7.1442093 6.359375,7.2460937 6.344819,7.2412437 6.301101,7.2265777 6.300781,7.2265627 c -3.059e-4,-1.51e-5 -0.037328,0.00675 -0.052734,0.00977 0.073785,-0.3289758 0.2261005,-0.5372235 0.3496093,-0.8457031 0.057512,-0.053761 0.097243,-0.084076 0.1132813,-0.091797 0.015937,-0.00767 0.020867,-0.00796 0.052734,-0.00391 z m 3.8515621,0.085937 c 0.0014,0.038885 7.37e-4,0.083429 0.01172,0.099609 0.0036,0.00531 0.0064,0.00736 0.0098,0.011719 -0.01468,0.011115 -0.0074,0.028659 -0.01758,0.041016 -2.92e-4,4.737e-4 2.89e-4,0.00148 0,0.00195 2.56e-4,-8.239e-4 -9e-6,-0.00241 -0.0039,0.00977 -0.01683,0.023608 -0.02884,0.048932 -0.0332,0.076172 -0.01574,0.00186 -0.03208,0.00263 -0.04297,0.00391 -0.04797,0.00565 -0.111291,0.044587 -0.132813,0.1015625 -0.02039,0.05398 -0.0027,0.1029719 0.01758,0.1386719 -3.3e-4,3.316e-4 3.24e-4,0.00163 0,0.00195 -2.87e-4,2.85e-4 -0.0017,-2.775e-4 -0.002,0 -0.0082,-6.282e-4 -0.0287,-7.74e-5 -0.0293,0 -5.95e-4,7.74e-5 -0.0386,0.01151 -0.03906,0.011719 -4.63e-4,2.085e-4 -0.04264,0.028959 -0.04297,0.029297 -3.26e-4,3.38e-4 -0.02716,0.044456 -0.02734,0.044922 -1.85e-4,4.659e-4 -0.0097,0.040423 -0.0098,0.041016 -2.9e-5,4.072e-4 -3.98e-4,0.012275 0,0.021484 -0.0017,0.00307 -0.0017,0.00228 -0.0039,0.00586 -0.01685,0.027666 -0.04664,0.070371 -0.08203,0.1113281 -0.03802,0.044007 -0.05492,0.054185 -0.07617,0.072266 -0.0021,-0.00435 6.87e-4,-0.00745 -0.002,-0.011719 -0.0013,-0.00206 -0.0044,-0.00191 -0.0059,-0.00391 0.01385,-0.018646 0.02703,-0.032319 0.03711,-0.078125 0.0026,-0.011797 0.0039,-0.027077 0.002,-0.046875 -8.39e-4,-0.00859 -0.0045,-0.022353 -0.0059,-0.027344 0.04456,-0.036099 0.08898,-0.074159 0.117187,-0.097656 0.03848,-0.032048 0.05659,-0.042288 0.08399,-0.074219 0.0034,-0.00399 0.0063,-0.00933 0.01172,-0.017578 0.0027,-0.00412 0.0096,-0.015298 0.0098,-0.015625 1.56e-4,-3.271e-4 0.01167,-0.032954 0.01172,-0.033203 2.3e-5,-1.245e-4 0.002,-0.029192 0.002,-0.029297 -2e-6,-5.01e-5 -0.0021,-0.00993 -0.0039,-0.019531 0.0039,-0.00428 0.0078,-0.0068 0.01172,-0.011719 0.0068,-0.00861 0.01414,-0.018737 0.02149,-0.033203 0.0037,-0.00723 0.0085,-0.016373 0.01172,-0.027344 0.0033,-0.010971 0.0059,-0.039885 0.0059,-0.041016 0,-0.00113 -0.01328,-0.059727 -0.01367,-0.060547 -2.72e-4,-5.621e-4 -0.01915,-0.02303 -0.0332,-0.039063 0.05868,-0.046872 0.149429,-0.1019376 0.242187,-0.15625 z m 0.306641,0.025391 c 1.66e-4,0.013801 0.0097,0.017571 0.002,0.035156 -0.0012,0.00279 -0.0044,0.0013 -0.0059,0.00391 -0.0035,-0.00899 -0.0092,-0.015285 -0.01367,-0.023437 0.0066,-0.00477 0.0115,-0.010387 0.01758,-0.015625 z m -0.78125,0.017578 c -1.85e-4,1.9e-5 0.01462,0.0024 0.0293,0.00391 -0.0216,0.00334 -0.04786,-7.883e-4 -0.06445,0.00781 3.48e-4,-4.027e-4 -3.49e-4,-0.00155 0,-0.00195 6.29e-4,-2.642e-4 0.0012,-0.00166 0.002,-0.00195 0.0024,-9.53e-4 0.0038,-0.00268 0.0078,-0.00391 0.0053,-0.00161 0.02572,-0.00394 0.02539,-0.00391 z M 9.9472656,6.6386719 c 2.63e-4,0.00126 -2.971e-4,0.00268 0,0.00391 -0.031416,0.027803 -0.050528,0.061074 -0.058594,0.1035156 0.013957,-0.014759 0.022492,-0.033138 0.048828,-0.037109 -0.024436,0.00368 -0.023826,0.036144 -0.044922,0.044922 -7.031e-4,6.29e-5 -0.00383,-1.25e-5 -0.00391,0 -8.06e-5,1.31e-5 -0.00453,0.00151 -0.00586,0.00195 -0.00103,0.00835 -0.011775,0.010767 -0.011719,0.019531 -0.00679,0.0038 -0.00924,0.011316 -0.015625,0.015625 5.1e-5,-0.00705 -0.00114,-0.011973 0.00391,-0.023437 8.384e-4,-0.00191 0.00659,-0.00373 0.00781,-0.00586 -0.011328,0.00388 -0.023196,0.00768 -0.023437,0.00781 0.034985,-0.045203 0.067296,-0.086134 0.1035156,-0.1308593 z m 0.6210934,0.015625 c -6e-6,0.014471 -0.01779,0.023883 -0.01563,0.039063 3.9e-5,2.722e-4 -0.002,-2.725e-4 -0.002,0 -5.43e-4,-0.00851 -0.0016,-0.017448 0.0059,-0.03125 0.0016,-0.00288 0.0092,-0.00464 0.01172,-0.00781 z M 6.9101562,6.7773437 C 6.837482,6.9492661 6.8501137,7.0779828 6.765625,7.2402344 6.7012068,7.363942 6.6508005,7.4680328 6.6191406,7.5429687 c -0.01583,0.037468 -0.027321,0.064665 -0.035156,0.099609 -0.00196,0.00874 -0.00339,0.017123 -0.00391,0.033203 -2.572e-4,0.00804 0.00179,0.032365 0.00195,0.033203 1.589e-4,8.384e-4 0.025031,0.056166 0.025391,0.056641 1.796e-4,2.372e-4 0.034926,0.033059 0.035156,0.033203 2.304e-4,1.447e-4 0.048547,0.01948 0.048828,0.019531 2.816e-4,5.11e-5 0.042636,4.34e-5 0.042969,0 3.332e-4,-4.35e-5 0.026959,-0.00767 0.027344,-0.00781 7.705e-4,-2.781e-4 0.025852,-0.010632 0.033203,-0.015625 0.00735,-0.00499 0.013143,-0.00973 0.017578,-0.013672 0.013748,-0.012225 0.1406733,-0.084275 0.2773437,-0.1386719 0.1366705,-0.054396 0.2938357,-0.1048994 0.4042969,-0.1269531 0.2692923,-0.053764 0.6240377,-0.087527 0.9238282,-0.095703 0.1498952,-0.00409 0.2863137,-6.46e-4 0.390625,0.00781 0.055624,0.00451 0.060064,0.00637 0.091797,0.013672 -0.017979,0.04601 -0.039846,0.099712 -0.083984,0.1875 -0.044986,0.089473 -0.083689,0.1722042 -0.1113282,0.2363282 -0.01382,0.032062 -0.02499,0.058193 -0.033203,0.082031 -0.00411,0.011919 -0.00851,0.021831 -0.011719,0.037109 -0.0016,0.00764 -0.00177,0.016856 -0.00195,0.033203 -9.03e-5,0.00817 0.00182,0.03461 0.00195,0.035156 6.49e-5,2.733e-4 0.011618,0.027138 0.011719,0.027344 1.003e-4,2.056e-4 0.025255,0.036973 0.025391,0.037109 1.369e-4,1.369e-4 0.070124,0.037075 0.070312,0.037109 1.885e-4,3.47e-5 0.060308,-0.00384 0.060547,-0.00391 2.394e-4,-6.63e-5 0.03096,-0.011553 0.03125,-0.011719 2.897e-4,-1.662e-4 0.013409,-0.00847 0.017578,-0.011719 0.016677,-0.013014 0.020146,-0.020947 0.025391,-0.027344 0.01049,-0.012794 0.017001,-0.022251 0.025391,-0.035156 0.01678,-0.025811 0.038604,-0.059695 0.0625,-0.1015625 0.047792,-0.083735 0.1090994,-0.1991153 0.1757812,-0.328125 0.1148994,-0.222296 0.3490142,-0.4269743 0.5117188,-0.6542969 -0.00267,0.010193 -0.00572,0.021767 -0.00781,0.033203 -0.0043,0.00324 -0.00698,0.00517 -0.00977,0.00781 -0.054334,0.051635 -0.048828,0.090045 -0.048828,0.1210937 0,0.039513 0.027414,0.079766 0.056641,0.1132813 -0.012469,0.01358 -0.020712,0.028439 -0.03125,0.041016 l -0.015625,0.00195 -0.035156,0.064453 c -0.018301,0.034195 -0.036372,0.050362 -0.039063,0.1152344 -3.363e-4,0.00811 3.205e-4,0.016231 0.00195,0.027344 5.692e-4,0.00387 0.00219,0.00779 0.00391,0.013672 -0.0062,0.00853 -0.017582,0.00809 -0.023437,0.017578 -0.011459,0.018562 -0.02121,0.029381 -0.033203,0.060547 -0.003,0.00779 -0.00733,0.016057 -0.00977,0.03125 -0.00122,0.0076 -0.00198,0.028649 -0.00195,0.029297 2.43e-5,6.481e-4 0.00763,0.040509 0.00781,0.041016 1.801e-4,5.066e-4 0.028956,0.048464 0.029297,0.048828 3.41e-4,3.646e-4 0.044415,0.031028 0.044922,0.03125 5.073e-4,2.223e-4 0.040337,0.00969 0.041016,0.00977 6.787e-4,7.96e-5 0.019784,0.00251 0.027344,0.00195 0.060481,-0.00449 0.06445,-0.017636 0.087891,-0.029297 0.02344,-0.011661 0.050503,-0.027465 0.085937,-0.046875 0.042948,-0.023523 0.078915,-0.042296 0.1074218,-0.0625 0.014254,-0.010102 0.025664,-0.02037 0.039063,-0.033203 0.013398,-0.012833 0.030108,-0.025717 0.044922,-0.068359 0.002,-0.00584 0.0024,-0.012547 0.0039,-0.021484 0.06424,-0.00743 0.125273,-0.02221 0.181641,-0.050781 -0.130139,0.1078177 -0.271438,0.2629346 -0.3632814,0.3222656 -0.088494,0.057167 -0.15567,0.1019097 -0.2050781,0.1347657 -0.049408,0.032856 -0.075864,0.048311 -0.1035156,0.072266 -0.00346,0.00299 -0.00691,0.00677 -0.011719,0.011719 -0.00481,0.00495 -0.019135,0.024743 -0.019531,0.025391 -1.98e-4,3.235e-4 -0.015559,0.036862 -0.015625,0.037109 -3.29e-5,1.234e-4 -0.00391,0.035052 -0.00391,0.035156 10e-8,1.044e-4 0.00778,0.046789 0.00781,0.046875 3.29e-5,8.55e-5 0.029231,0.046808 0.029297,0.046875 6.56e-5,6.67e-5 0.037011,0.025343 0.037109,0.025391 1.964e-4,9.59e-5 0.050455,0.013651 0.050781,0.013672 3.263e-4,2.14e-5 0.019321,6.972e-4 0.025391,0 0.00607,-6.972e-4 0.00987,-0.00114 0.013672,-0.00195 0.00761,-0.00163 0.013092,-0.00442 0.017578,-0.00586 0.00897,-0.00288 0.01621,-0.00485 0.023437,-0.00781 0.028908,-0.011869 0.065559,-0.029648 0.1171875,-0.054687 0.1181935,-0.057325 0.2873316,-0.1591298 0.4003906,-0.2402344 0.05575,-0.03999 0.09335,-0.067063 0.111328,-0.076172 0.01798,-0.00911 0.01062,-0.00894 0.03125,-0.00586 0.04125,0.00616 0.178982,0.067724 0.457031,0.203125 0.964221,0.4695461 1.757325,1.3482211 1.878907,2.0039062 0.160204,0.863992 -0.28368,1.591483 -1.289063,2.060547 -0.312454,0.145776 -0.628344,0.206232 -1.3945311,0.253906 -0.3044319,0.01894 -0.9273166,0.03322 -1.4746094,0.03906 -0.2736464,0.0029 -0.5307621,0.0039 -0.71875,0.002 -0.093994,-9.86e-4 -0.1697952,-0.0036 -0.2226563,-0.0059 -0.02555,-0.0011 -0.045303,-8.57e-4 -0.056641,-0.002 -7.06e-4,-2.43e-4 -0.00117,2.68e-4 -0.00195,0 -0.00374,-0.0013 -0.00574,-0.0034 -0.00781,-0.0039 -0.00795,-0.0021 -0.013394,-0.0013 -0.017578,-0.002 -0.00837,-0.0014 -0.013889,-0.0031 -0.021484,-0.0039 -0.015191,-0.0015 -0.033736,-0.0024 -0.056641,-0.0039 -0.045809,-0.003 -0.1102878,-0.0064 -0.1875,-0.0098 -0.1544243,-0.0067 -0.3629621,-0.01333 -0.5917968,-0.01953 C 6.0426121,12.353406 5.6503002,12.316021 5.3613281,12.240234 5.072356,12.164447 4.8857597,12.053916 4.6894531,11.873047 l -0.087891,-0.08008 c 0.045285,-0.0381 0.091498,-0.0813 0.1152344,-0.140625 0.026643,-0.06659 0.027512,-0.132221 0.027344,-0.212891 -4.079e-4,-0.195356 -0.065688,-0.388204 -0.1582031,-0.537109 -0.046258,-0.07445 -0.097336,-0.13673 -0.1640625,-0.183594 -0.015773,-0.01108 -0.041892,-0.0011 -0.060547,-0.0098 0.01191,-0.146802 0.00529,-0.261325 0.046875,-0.419921 C 4.5799545,9.6672889 5.2213332,8.750439 5.8320312,8.3144531 l 0.2851563,-0.203125 0.021484,-0.2324219 c 0.00896,0.00919 0.010289,0.017681 0.025391,0.027344 0.019572,0.012523 0.051036,0.026857 0.089844,0.025391 0.038807,-0.00147 0.077958,-0.023271 0.099609,-0.044922 0.057776,-0.057793 0.045072,-0.1159222 0.035156,-0.1542968 9.596e-4,-0.00148 0.00471,-0.00432 0.00586,-0.00586 0.016451,-0.022047 0.031668,-0.045748 0.050781,-0.078125 0.038227,-0.064755 0.089412,-0.1576957 0.1445312,-0.265625 0.053627,-0.1050076 0.1091902,-0.2107189 0.15625,-0.296875 0.04706,-0.086156 0.089338,-0.1578368 0.097656,-0.1699219 0.027252,-0.039593 0.043479,-0.0919 0.066407,-0.1386718 z m 2.8671876,0.078125 c -5.77e-5,2.214e-4 -0.00111,0.00825 -0.00195,0.015625 -0.014138,0.020714 -0.040786,0.027295 -0.050781,0.050781 0.016957,-0.023161 0.035404,-0.043315 0.052734,-0.066406 z m 0.7304692,0.035156 c 0.05682,0.027545 0.114722,0.070041 0.167968,0.037109 -0.0029,0.00182 -0.0077,0.00454 -0.01563,0.00781 -0.004,0.00164 -0.01612,0.00599 -0.01563,0.00586 4.96e-4,-1.309e-4 -0.0258,0.00393 -0.02539,0.00391 4.13e-4,-2.46e-5 -0.03744,-0.00399 -0.03711,-0.00391 3.33e-4,7.98e-5 -0.04713,-0.021666 -0.04687,-0.021484 1.98e-4,1.426e-4 -0.018,-0.019254 -0.02734,-0.029297 z m -0.226563,0.15625 c 0.005,0.014875 0.01032,0.032294 0.01563,0.041016 3.64e-4,6.001e-4 -0.0091,-0.019151 -0.01172,-0.027344 -0.0017,-0.00523 -0.0031,-0.00924 -0.0039,-0.013672 z m 0.08008,0.074219 c 0.03133,0.019364 0.05378,0.00929 0.08008,0.00781 -0.0068,0.00193 -0.0139,0.00394 -0.01367,0.00391 5.96e-4,-7.74e-5 -0.01859,5.177e-4 -0.02539,0 -0.01359,-0.00104 -0.02179,-0.00401 -0.02734,-0.00586 -0.0111,-0.00371 -0.01351,-0.00576 -0.01367,-0.00586 z m -0.6874999,0.09375 c 1.762e-4,1.764e-4 0.00975,0.00715 0.019531,0.013672 -6.025e-4,6.422e-4 -0.00135,0.00131 -0.00195,0.00195 -0.0076,-0.00499 -0.01361,-0.011657 -0.017578,-0.015625 z m -2.9960937,0.34375 c -0.011529,0.00865 -0.032466,0.014098 -0.042969,0.023437 0.00204,-0.00182 0.00438,-0.00415 0.00977,-0.00781 0.00539,-0.00366 0.028114,-0.01395 0.027344,-0.013672 -8.46e-5,3.05e-5 0.00383,-0.00147 0.00586,-0.00195 z m 0.8007812,2.5917973 c -0.065934,-0.0071 -0.1147358,0.01357 -0.1621094,0.03516 -0.094506,0.04306 -0.1629733,0.114896 -0.1992187,0.201172 -0.018123,0.04314 -0.028845,0.09191 -0.021484,0.144531 0.00736,0.05262 0.035869,0.108221 0.082031,0.144531 h 0.00195 c 0.07683,0.06044 0.178675,0.06843 0.2617187,0.04102 0.083044,-0.02742 0.1539331,-0.08599 0.2050782,-0.164063 0.029813,-0.04553 0.063073,-0.08129 0.0625,-0.162109 -2.865e-4,-0.04041 -0.016601,-0.07894 -0.033203,-0.103516 -0.016602,-0.02458 -0.032739,-0.04055 -0.048828,-0.05664 -0.033521,-0.03352 -0.082503,-0.07301 -0.1484375,-0.08008 z m -0.2988281,0.52539 0.037109,0.0293 H 7.265625 Z M 4.9804687,10.169922 c -0.061819,0.02469 -0.1078856,0.07698 -0.1308593,0.132812 -0.045947,0.111663 -0.015286,0.240942 0.074219,0.339844 0.050021,0.05527 0.1106655,0.102276 0.1953125,0.109375 0.084647,0.0071 0.1624562,-0.0416 0.2089844,-0.09766 0.081801,-0.09856 0.054575,-0.196703 0.025391,-0.277344 -0.029185,-0.08064 -0.071626,-0.162402 -0.1777344,-0.203125 -0.062678,-0.02405 -0.1334935,-0.0286 -0.1953125,-0.0039 z m 3.4003907,0.740234 c -0.2170368,0 -0.4028477,0.04357 -0.5390625,0.136719 -0.1362149,0.09315 -0.2172574,0.264638 -0.1699219,0.429688 0.060318,0.210323 0.256787,0.344807 0.5058594,0.390625 0.2446943,0.04501 0.4703147,0.0174 0.6699219,-0.0918 0.1135851,-0.06214 0.2008002,-0.122716 0.2480468,-0.22461 0.047247,-0.101893 0.018579,-0.218539 -0.035156,-0.310547 -0.065311,-0.11183 -0.1574888,-0.201693 -0.2734375,-0.255859 -0.1159487,-0.05417 -0.2491048,-0.07422 -0.40625,-0.07422 z m -4.0527344,0.09766 c 0.011318,0.01436 0.020121,0.0192 0.03125,0.03711 0.065513,0.105445 0.118865,0.264491 0.1191406,0.396484 1.469e-4,0.07048 -0.00566,0.101066 -0.00977,0.111328 -0.00411,0.01026 -0.00762,0.01742 -0.044922,0.04687 l -0.052734,0.04297 c -0.026119,-0.03534 -0.09019,-0.08693 -0.1015625,-0.109375 -0.055979,-0.110484 0.069694,-0.361482 0.058594,-0.52539 z m 4.0527344,0.167968 c 0.1334498,0 0.2261869,0.01958 0.2929687,0.05078 0.066782,0.0312 0.1125301,0.07358 0.15625,0.148437 0.032855,0.05626 0.027049,0.05666 0.023437,0.06445 -0.00361,0.0078 -0.040207,0.04984 -0.1347656,0.101563 -0.1465318,0.08016 -0.2929507,0.101104 -0.4921875,0.06445 -0.1902836,-0.035 -0.2679111,-0.102131 -0.296875,-0.203125 -0.017575,-0.06128 -0.00825,-0.08834 0.0625,-0.136719 0.070746,-0.04838 0.2098206,-0.08984 0.3886719,-0.08984 z m -2.4628907,0.191407 -0.2480468,0.128906 c -0.057605,0.02989 -0.1088533,0.06119 -0.1503907,0.08984 -0.020769,0.01433 -0.039054,0.02677 -0.056641,0.04297 -0.00879,0.0081 -0.016811,0.01704 -0.027344,0.03125 -0.00527,0.0071 -0.011564,0.01613 -0.017578,0.0293 -0.00301,0.0066 -0.00764,0.02279 -0.00781,0.02344 -1.681e-4,6.49e-4 -0.00586,0.03459 -0.00586,0.03516 0,0.02589 -0.00222,0.08224 0.058594,0.130859 0.060814,0.04862 0.1209952,0.03319 0.1523438,0.02344 0.062697,-0.01951 0.1115325,-0.05065 0.2050781,-0.105469 l 0.1152344,-0.06836 0.2382812,0.09375 c 0.082508,0.03217 0.1585633,0.06228 0.2148438,0.08398 0.02814,0.01085 0.051621,0.01903 0.068359,0.02539 0.00837,0.0032 0.016219,0.0059 0.021484,0.0078 0.00527,0.002 0.020822,0.0076 0.021484,0.0078 3.375e-4,8.2e-5 0.0485,0.002 0.048828,0.002 3.281e-4,-4.1e-5 0.044605,-0.01156 0.044922,-0.01172 6.344e-4,-3.15e-4 0.046294,-0.04026 0.046875,-0.04102 5.812e-4,-7.5e-4 0.013885,-0.02112 0.017578,-0.0293 0.00369,-0.0082 0.00598,-0.01525 0.00781,-0.02149 0.00733,-0.02492 0.00977,-0.04099 0.00977,-0.06055 0,-6.05e-4 -0.0095,-0.05008 -0.00977,-0.05078 -2.675e-4,-7e-4 -0.010833,-0.02016 -0.015625,-0.02734 -0.00958,-0.01436 -0.016491,-0.02279 -0.023437,-0.0293 -0.013893,-0.01301 -0.02545,-0.01975 -0.037109,-0.02734 -0.023318,-0.01518 -0.049379,-0.02969 -0.080078,-0.04492 -0.061397,-0.03046 -0.1403846,-0.064 -0.2285156,-0.09766 z" id="path6" style="fill:currentColor;fill-opacity:1" class="ColorScheme-Text"/>
  </g>
</svg>
