<?xml version="1.0" encoding="UTF-8" standalone="no"?>
<svg
   width="64"
   height="64"
   version="1.1"
   viewBox="0 0 16.933 16.933"
   id="svg7"
   sodipodi:docname="steam_icon_1145360.svg"
   inkscape:version="1.4.2 (ebf0e940d0, 2025-05-08)"
   xmlns:inkscape="http://www.inkscape.org/namespaces/inkscape"
   xmlns:sodipodi="http://sodipodi.sourceforge.net/DTD/sodipodi-0.dtd"
   xmlns="http://www.w3.org/2000/svg"
   xmlns:svg="http://www.w3.org/2000/svg"
   xmlns:rdf="http://www.w3.org/1999/02/22-rdf-syntax-ns#"
   xmlns:cc="http://creativecommons.org/ns#"
   xmlns:dc="http://purl.org/dc/elements/1.1/">
  <sodipodi:namedview
     id="namedview7"
     pagecolor="#9c4444"
     bordercolor="#000000"
     borderopacity="0.25"
     inkscape:showpageshadow="2"
     inkscape:pageopacity="0.0"
     inkscape:pagecheckerboard="0"
     inkscape:deskcolor="#d1d1d1"
     inkscape:zoom="3.0781251"
     inkscape:cx="190.86294"
     inkscape:cy="-5.1979695"
     inkscape:window-width="2560"
     inkscape:window-height="1392"
     inkscape:window-x="0"
     inkscape:window-y="0"
     inkscape:window-maximized="1"
     inkscape:current-layer="svg7"
     showgrid="false" />
  <defs
     id="defs2">
    <style
       id="current-color-scheme"
       type="text/css">.ColorScheme-Text {color:#d8dee9} .ColorScheme-Highlight {color:#3b4252}</style>
  </defs>
  <metadata
     id="metadata2">
    <rdf:RDF>
      <cc:Work
         rdf:about="">
        <dc:format>image/svg+xml</dc:format>
        <dc:type
           rdf:resource="http://purl.org/dc/dcmitype/StillImage" />
      </cc:Work>
    </rdf:RDF>
  </metadata>
  <path
     style="fill:currentColor;stroke-width:0.0427756"
     d="m 8.1234115,15.363902 c -0.219582,-0.07095 -0.492829,-0.169094 -0.607216,-0.218098 -0.22905,-0.09812 -1.037647,-0.721018 -1.193988,-0.919774 -0.117251,-0.149059 -0.459441,-1.316008 -0.618731,-2.110017 -0.06212,-0.309661 -0.120525,-0.570595 -0.129782,-0.579852 -0.0093,-0.0093 -0.255924,-0.04353 -0.548147,-0.07615 -0.817076,-0.09122 -1.426044,-0.435231 -1.954962,-1.104363 l -0.234918,-0.297193 0.185627,-0.0481 c 0.102095,-0.02645 0.412857,-0.03996 0.690582,-0.03001 0.277724,0.0099 0.504895,0.01 0.504823,2.4e-5 -7.3e-5,-0.0099 -0.06906,-0.108435 -0.153308,-0.218889 -0.128565,-0.168558 -0.178947,-0.195672 -0.313559,-0.168749 -0.455635,0.09113 -1.361222,-0.271183 -1.646913,-0.658903 -0.242546,-0.329167 -0.491512,-0.873403 -0.539881,-1.180173 l -0.03919,-0.24858 0.305488,0.03907 c 0.168018,0.02149 0.393873,0.06207 0.5019,0.09019 0.108027,0.02812 0.204396,0.04314 0.214153,0.03338 0.0098,-0.0098 -0.008,-0.153724 -0.03957,-0.319927 -0.03152,-0.166203 -0.05731,-0.411558 -0.05731,-0.545234 0,-0.154403 -0.05175,-0.333579 -0.141899,-0.491265 -0.07804,-0.136519 -0.141073,-0.273883 -0.140065,-0.305251 0.001,-0.03137 0.05179,0.03755 0.112848,0.153148 0.162819,0.308264 0.207405,0.305131 0.250215,-0.01758 0.03331,-0.25111 0.0534,-0.286111 0.149789,-0.260907 0.06122,0.01601 0.111317,0.02318 0.111317,0.01592 0,-0.0073 -0.06416,-0.201836 -0.142586,-0.432406 -0.21341,-0.627452 -0.174378,-0.960043 0.06907,-0.588502 l 0.100212,0.152943 0.04185,-0.245148 c 0.03687,-0.215993 0.02146,-0.27478 -0.129566,-0.494293 -0.146733,-0.213269 -0.318652,-0.364924 -0.413684,-0.364924 -0.02188,0 -0.09732,0.26528 -0.235177,0.826996 -0.0154,0.06274 -0.01573,-0.01426 -7.44e-4,-0.171103 0.03141,-0.328637 0.184264,-0.826995 0.253647,-0.826995 0.02594,0 0.161698,0.127388 0.301684,0.283086 0.26906,0.29926 0.326394,0.30869 0.326394,0.05369 0,-0.147647 0.125154,-0.336773 0.22286,-0.336773 0.02398,0 0.08511,-0.149258 0.135825,-0.331684 0.140489,-0.505309 0.779136,-1.40052 1.127743,-1.580792 0.150541,-0.07785 0.167757,-0.07586 0.222075,0.02563 0.03239,0.06051 0.08732,0.242614 0.122073,0.404669 l 0.06319,0.294647 0.170979,-0.16194 c 0.09404,-0.08907 0.249325,-0.274913 0.345081,-0.41299 0.160432,-0.231338 0.179995,-0.242993 0.249139,-0.148433 0.07105,0.09716 0.109236,0.09023 0.718491,-0.13039 0.895079,-0.324126 0.836105,-0.324824 0.742226,0.0088 -0.02646,0.09405 -0.01525,0.09844 0.09739,0.03816 0.07001,-0.03747 0.143513,-0.05191 0.163332,-0.03209 0.02996,0.02996 -0.04891,0.464139 -0.199745,1.099632 -0.02603,0.109683 -0.0074,0.128327 0.128589,0.128327 0.08748,0 0.374069,-0.04029 0.636872,-0.08954 0.396565,-0.07431 0.562209,-0.0785 0.974026,-0.02465 0.866461,0.113305 1.095062,0.125859 1.095062,0.06014 0,-0.03381 -0.05133,-0.246698 -0.114069,-0.473095 -0.143327,-0.517213 -0.150775,-0.7539 -0.02217,-0.70455 0.07366,0.02826 0.08506,0.008 0.05744,-0.10202 -0.05017,-0.199879 0.07036,-0.217335 0.4268115,-0.06182 0.169335,0.07388 0.471847,0.198393 0.672248,0.276699 0.362067,0.141475 0.364943,0.141659 0.456273,0.02914 0.08905,-0.109703 0.100794,-0.101264 0.37708,0.270864 0.348792,0.469785 0.427757,0.507576 0.427757,0.204714 0,-0.256402 0.09977,-0.583606 0.177956,-0.583606 0.09905,0 0.576543,0.482644 0.832886,0.841877 0.269279,0.377361 0.474674,0.840236 0.468198,1.055122 -0.0021,0.07024 -0.03604,0.0082 -0.07538,-0.137871 -0.119414,-0.443359 -0.953765,-1.588025 -1.157516,-1.588025 -0.180058,0 -0.178272,0.767037 0.0026,1.128321 0.07409,0.147959 0.178804,0.403746 0.23271,0.568415 0.05391,0.16467 0.146773,0.333553 0.206372,0.375297 0.0596,0.04174 0.151036,0.176501 0.203199,0.29946 0.144782,0.341287 0.154162,0.154419 0.02615,-0.520891 -0.06803,-0.358853 -0.09619,-0.646234 -0.06823,-0.696197 0.05866,-0.104822 0.08484,-0.0095 0.180333,0.65643 0.03711,0.258793 0.08888,0.470533 0.115042,0.470533 0.02616,0 0.114385,-0.0876 0.196048,-0.194665 0.249782,-0.327481 0.456519,-0.327261 0.518017,5.49e-4 0.02003,0.106762 0.04572,0.194113 0.05708,0.194113 0.01137,0 0.141051,-0.120382 0.288184,-0.267515 l 0.267516,-0.267516 0.102704,0.367325 c 0.05649,0.202029 0.101916,0.418657 0.100954,0.481394 -9.7e-4,0.06274 -0.03962,-0.02687 -0.0859,-0.19912 -0.120771,-0.449486 -0.163122,-0.46822 -0.425142,-0.188069 -0.233522,0.249679 -0.25783,0.349892 -0.187742,0.773989 0.03395,0.205459 0.04064,0.211177 0.140888,0.120456 0.234282,-0.212022 0.365221,0.172844 0.196329,0.577062 -0.04857,0.11625 -0.06884,0.278696 -0.04957,0.397407 0.03083,0.190002 -0.05605,0.293344 -0.110157,0.131024 -0.0369,-0.110701 -0.471928,0.267241 -0.588422,0.511208 l -0.102398,0.214446 -0.05084,-0.194061 c -0.04153,-0.158521 -0.02313,-0.255812 0.100483,-0.531254 0.08323,-0.185456 0.174289,-0.495943 0.202358,-0.68997 0.06686,-0.462141 0.06753,-1.278333 0.0011,-1.319396 -0.08867,-0.0548 -0.446321,0.418276 -0.595191,0.787293 -0.08385,0.207839 -0.153309,0.315619 -0.170707,0.264879 -0.20972,-0.61163 -0.3632,-0.96846 -0.416774,-0.968964 -0.209854,-0.002 -0.32493,1.218578 -0.161823,1.716375 0.123497,0.37691 0.388122,0.914613 0.600543,1.220269 0.0872,0.125475 0.201944,0.407794 0.254984,0.627376 0.05304,0.219582 0.115544,0.43387 0.138899,0.476197 0.06884,0.124759 0.381896,-0.305485 0.553036,-0.760058 0.08294,-0.220302 0.168487,-0.426215 0.190103,-0.457584 0.02162,-0.03137 0.04587,-0.185361 0.0539,-0.342205 0.02006,-0.391973 0.06155,-0.403075 0.06155,-0.01647 0,0.173925 -0.0385,0.408367 -0.08555,0.520981 -0.105596,0.252728 -0.113273,0.511694 -0.01426,0.480977 0.17025,-0.05282 0.299278,-0.464177 0.30911,-0.985487 0.0064,-0.337177 0.04303,-0.591588 0.106877,-0.741445 0.05346,-0.125475 0.117985,-0.471958 0.143394,-0.769961 l 0.0462,-0.541825 -0.01959,0.570342 c -0.01077,0.313688 -0.05042,0.647338 -0.0881,0.741444 -0.03768,0.09411 -0.06521,0.299921 -0.06117,0.457367 0.0065,0.255526 -0.02181,0.45349 -0.146164,1.020293 l -0.03639,0.165874 0.386036,-0.03605 0.386037,-0.03605 -0.0253,0.305119 c -0.05007,0.603812 -0.533688,1.322361 -1.041013,1.546725 -0.354033,0.15657 -0.889736,0.272575 -1.022848,0.221495 -0.06598,-0.02532 -0.154544,0.01546 -0.266519,0.122744 -0.09223,0.08837 -0.167698,0.181528 -0.167698,0.207028 0,0.0255 0.202115,0.04636 0.449144,0.04636 0.515991,0 0.805608,0.04621 0.805608,0.1285301 0,0.03148 -0.211739,0.267285 -0.470532,0.524009 -0.618535,0.61359 -0.830417,0.711348 -1.892338,0.873085 l -0.281122,0.04282 -0.155931,0.741445 c -0.201473,0.957991 -0.464782,1.824871 -0.600499,1.976994 -0.202123,0.226557 -0.8944105,0.75076 -1.1619215,0.879811 -0.222672,0.107421 -0.455938,0.186895 -0.99849,0.340187 -0.03137,0.0089 -0.236692,-0.04194 -0.456274,-0.112885 z m 1.071105,-0.380377 c 0.287406,-0.09707 0.692968,-0.286735 0.9012475,-0.42147 0.353963,-0.228978 0.390091,-0.272382 0.553325,-0.664757 0.214407,-0.515381 0.582687,-1.717582 0.582687,-1.902103 0,-0.0859 -0.06374,-0.180777 -0.174387,-0.259563 -0.09591,-0.0683 -0.184048,-0.114512 -0.195858,-0.102702 -0.01181,0.01181 -0.08544,0.303345 -0.163631,0.647857 -0.217131,0.956729 -0.370987,1.33921 -0.600984,1.494031 -0.2226085,0.149847 -0.3416405,0.172949 -0.2093165,0.04062 0.04941,-0.04941 0.1667325,-0.201605 0.2607285,-0.338223 0.255708,-0.371659 0.217422,-0.594203 -0.089,-0.517297 -0.1009285,0.02533 -0.1393445,0.07398 -0.1393445,0.176472 0,0.07782 -0.02567,0.141498 -0.05703,0.141498 -0.03137,0 -0.05703,-0.02518 -0.05703,-0.05595 0,-0.08761 -0.262355,-0.13138 -0.387154,-0.06459 -0.0837,0.04479 -0.122355,0.144877 -0.150579,0.38983 -0.04229,0.367012 -0.133511,0.643254 -0.212421,0.643254 -0.114442,0 -0.111941,-0.188456 0.0061,-0.462955 0.06852,-0.159273 0.110763,-0.325589 0.09388,-0.36959 -0.03561,-0.09278 -0.407926,-0.110521 -0.462612,-0.02204 -0.0197,0.03188 -0.05435,0.04651 -0.077,0.03252 -0.02265,-0.014 -0.0309,0.06258 -0.01834,0.170172 0.01389,0.118974 -0.002,0.195619 -0.04044,0.195619 -0.0348,0 -0.06327,-0.07186 -0.06327,-0.159695 0,-0.200675 -0.09365,-0.296579 -0.289595,-0.296579 -0.266551,0 -0.313021,0.128136 -0.176166,0.485758 0.127944,0.334339 0.115497,0.538437 -0.02569,0.421262 -0.04339,-0.03601 -0.0798,-0.145744 -0.08091,-0.243851 -0.0011,-0.09811 -0.0387,-0.242541 -0.08353,-0.320963 -0.04483,-0.07842 -0.08242,-0.19943 -0.08353,-0.268906 -0.0033,-0.205253 -0.368562,-0.338942 -0.437221,-0.16002 -0.01781,0.04641 0.02149,0.195674 0.08734,0.331696 0.126733,0.261797 0.15045,0.413712 0.07214,0.462108 -0.0766,0.04734 -0.514392,-0.193658 -0.638568,-0.351522 -0.12815,-0.162917 -0.341353,-0.83346 -0.489341,-1.539021 -0.05428,-0.258793 -0.124748,-0.470532 -0.156595,-0.470532 -0.113391,0 -0.32191,0.250299 -0.32191,0.386412 0,0.316251 0.579051,2.050656 0.764335,2.289378 0.211741,0.27281 1.462936,0.843147 1.876859,0.855535 0.08811,0.0026 0.395356,-0.07463 0.682763,-0.171702 z m -0.698056,-0.701412 c -0.0565,-0.148605 -0.01934,-0.376843 0.06136,-0.376843 0.02771,0 0.05038,0.115494 0.05038,0.256654 0,0.286585 -0.03441,0.323594 -0.111742,0.120189 z m 1.024289,-0.39267 c 0,-0.137863 0.144758,-0.383413 0.226031,-0.383413 0.05617,0 0.0203,0.199215 -0.06933,0.384981 -0.07971,0.165213 -0.156704,0.164442 -0.156704,-0.0016 z m -2.260595,-0.226568 c -0.08729,-0.649538 -0.09951,-0.676543 -0.322024,-0.711198 -0.229928,-0.03581 -0.182332,0.25111 0.113247,0.68268 0.179957,0.262754 0.241381,0.271144 0.208777,0.02852 z m 1.717641,-0.638674 c 0.167888,-0.07679 0.321068,-0.185872 0.340402,-0.242396 0.01933,-0.05652 0.116729,-0.154102 0.216437,-0.216839 0.104035,-0.06546 0.21605,-0.205572 0.262868,-0.328803 0.07398,-0.194717 0.07214,-0.225161 -0.01966,-0.326601 -0.05568,-0.06153 -0.123474,-0.09813 -0.15065,-0.08133 -0.02718,0.0168 -0.04941,0.0034 -0.04941,-0.02986 0,-0.114316 -0.223207,-0.06015 -0.374156,0.0908 -0.131836,0.131835 -0.139474,0.157769 -0.05963,0.202453 0.137382,0.07688 0.114748,0.123673 -0.152751,0.315777 -0.319401,0.229376 -0.612144,0.224157 -0.913489,-0.01629 -0.236078,-0.188367 -0.251022,-0.225844 -0.119426,-0.29949 0.07985,-0.04468 0.07221,-0.07062 -0.05963,-0.202453 -0.174033,-0.174034 -0.373717,-0.201398 -0.37503,-0.05139 -7.44e-4,0.08563 -0.009,0.08765 -0.05812,0.01426 -0.04942,-0.07386 -0.06927,-0.06997 -0.145253,0.02852 -0.13634,0.17671 -0.05895,0.42665 0.203561,0.657449 0.125852,0.110646 0.22882,0.226816 0.22882,0.258154 0,0.08322 0.571681,0.355948 0.759358,0.362265 0.08827,0.003 0.297862,-0.05743 0.465749,-0.134222 z m -0.540696,-0.776289 c 0,-0.02952 -0.0385,-0.05367 -0.08555,-0.05367 -0.0882,0 -0.11331,0.0673 -0.04908,0.131529 0.04557,0.04557 0.13463,-0.0059 0.13463,-0.07786 z m 0.386169,0.01406 c 0.01261,-0.03783 -0.02987,-0.06773 -0.09625,-0.06773 -0.118479,0 -0.153989,0.05989 -0.07961,0.134268 0.05284,0.05284 0.148074,0.01681 0.175856,-0.06654 z m -0.129515,-0.295864 c 0.01939,-0.03137 0.0081,-0.05703 -0.02515,-0.05703 -0.03322,0 -0.0604,0.02567 -0.0604,0.05703 0,0.03137 0.01132,0.05703 0.02515,0.05703 0.01383,0 0.04101,-0.02567 0.0604,-0.05703 z m -1.029228,-0.550027 c 0.206626,-0.27061 0.244133,-0.362521 0.147938,-0.362521 -0.06356,0 -0.40198,0.476817 -0.40198,0.56636 0,0.10554 0.04599,0.06864 0.254042,-0.203839 z m 1.944874,0.05996 c -0.28321,-0.438643 -0.289286,-0.371609 0.05887,-0.649423 0.3450995,-0.275374 0.3658805,-0.379891 0.134115,-0.674531 -0.127719,-0.1623701 -0.140432,-0.2395771 -0.03924,-0.2383181 0.03921,4.88e-4 0.13409,0.1288141 0.210843,0.2851701 0.1426325,0.290565 0.2120335,0.329065 0.4060245,0.225244 0.08421,-0.04507 0.110319,-0.120348 0.110319,-0.318075 0,-0.2110631 0.0313,-0.2903381 0.169025,-0.4280601 0.162617,-0.162617 0.186172,-0.168396 0.62133,-0.152457 0.431258,0.0158 0.462539,0.0084 0.67223,-0.15942 0.120958,-0.09679 0.284088,-0.192352 0.362509,-0.212353 0.09453,-0.02411 0.234866,-0.176241 0.416387,-0.451388 0.220657,-0.334468 0.267539,-0.447683 0.241537,-0.58329 -0.03259,-0.169942 -0.114558,-0.257016 -0.243465,-0.258616 -0.03868,-4.79e-4 -0.133597,0.123974 -0.21092,0.276566 -0.320221,0.631923 -0.904716,0.994418 -1.609694,0.998307 -0.305377,0.0017 -0.394389,-0.02483 -0.684519,-0.20391 -0.3629795,-0.224043 -0.7610355,-0.336487 -0.7610355,-0.214979 0,0.03909 -0.05465,0.0016 -0.121439,-0.08331 -0.106226,-0.135045 -0.115953,-0.19495 -0.07765,-0.478224 0.02409,-0.178112 0.04701,-0.472015 0.05095,-0.653119 0.0069,-0.315961 -0.0027,-0.338934 -0.236043,-0.567959 -0.24023,-0.235767 -0.317255,-0.443066 -0.164629,-0.443066 0.04321,0 0.110518,0.0385 0.149569,0.08555 0.116301,0.140134 0.230428,0.100665 0.574655,-0.198734 0.318909,-0.277379 0.340831,-0.286385 0.9023375,-0.370722 0.817765,-0.122827 1.325795,-0.113715 1.605127,0.02879 0.179213,0.09143 0.225865,0.09848 0.225865,0.03415 0,-0.09574 -0.258857,-0.254911 -0.655894,-0.403298 -0.421397,-0.157492 -1.060459,-0.526748 -1.370952,-0.79215 -0.3458295,-0.295605 -0.7219015,-0.867295 -0.6990915,-1.062731 0.01554,-0.133172 0.04173,-0.145347 0.346775,-0.161215 l 0.3299625,-0.01716 -0.123565,-0.219856 c -0.08051,-0.143243 -0.175614,-0.230263 -0.2729295,-0.249723 -0.08215,-0.01643 -0.316187,-0.06928 -0.520085,-0.11744 -0.539815,-0.127515 -1.271998,-0.11514 -1.882529,0.03182 -0.467434,0.112512 -0.522717,0.140464 -0.626845,0.316948 -0.06281,0.106454 -0.114199,0.203638 -0.114199,0.215964 0,0.01233 0.147576,0.03011 0.327946,0.03952 l 0.327947,0.0171 -0.01609,0.19962 c -0.03137,0.388995 -0.648575,1.095106 -1.20248,1.375679 -0.08263,0.04186 -0.241899,0.131858 -0.35392,0.2 -0.112021,0.06814 -0.330177,0.166843 -0.484791,0.219335 -0.364423,0.123723 -0.651839,0.303011 -0.651839,0.406614 0,0.06581 0.04474,0.05924 0.225865,-0.03317 0.276043,-0.140827 0.744515,-0.149506 1.58918,-0.02944 0.582708,0.08283 0.592134,0.08666 0.909674,0.369677 0.349388,0.311405 0.392924,0.327181 0.558106,0.202245 0.06089,-0.04606 0.142792,-0.08455 0.182003,-0.08555 0.138083,-0.0035 0.06861,0.162571 -0.179392,0.428872 -0.245272,0.263366 -0.250362,0.27671 -0.235729,0.617916 0.0082,0.191805 0.03361,0.477063 0.05641,0.633908 0.03575,0.245939 0.02393,0.307409 -0.08588,0.446822 -0.08497,0.107866 -0.140956,0.139612 -0.168273,0.09541 -0.05662,-0.09161 -0.501509,0.02926 -0.664998,0.180655 -0.454787,0.421159 -1.475815,0.275188 -2.005875,-0.286769 -0.135667,-0.14383 -0.296717,-0.371377 -0.35789,-0.505659 -0.06117,-0.134282 -0.147246,-0.244149 -0.191274,-0.244149 -0.122385,0 -0.259303,0.163922 -0.259303,0.310444 0,0.20309 0.544289,1.001343 0.682766,1.001343 0.0631,0 0.232404,0.08983 0.376233,0.199613 0.256255,0.195604 0.269394,0.198879 0.654207,0.163115 0.319995,-0.02974 0.420752,-0.01812 0.544207,0.06277 0.132393,0.08675 0.147737,0.127369 0.121631,0.322006 -0.03602,0.2685071 0.07423,0.4239101 0.338695,0.4774491 0.168803,0.03417 0.187599,0.0206 0.309539,-0.223565 0.0714,-0.14297 0.149424,-0.2599451 0.173382,-0.2599451 0.101336,0 0.09803,0.1105021 -0.0073,0.2444261 -0.245347,0.311907 -0.236185,0.384092 0.08076,0.636322 0.159791,0.127164 0.354693,0.238822 0.433115,0.248129 0.417025,0.04949 1.290784,0.05357 1.378855,0.0064 0.07788,-0.04168 0.09426,-0.03552 0.07045,0.02652 -0.03503,0.09129 0.322247,0.604177 0.393146,0.564378 0.02523,-0.01416 0.006,-0.08754 -0.04278,-0.163055 z m -1.135582,-0.693388 c -0.01616,-0.08626 -0.04544,-0.278755 -0.06506,-0.427756 -0.03431,-0.260522 -0.03021,-0.270913 0.107034,-0.270913 0.07849,0 0.15371,0.01925 0.167149,0.04278 0.03767,0.06594 -0.08791,0.812737 -0.136668,0.812737 -0.02369,0 -0.05629,-0.07058 -0.07245,-0.156844 z M 7.8097235,10.28697 c 0,-0.212885 0.05526,-0.279007 0.189969,-0.227314 0.07406,0.02842 0.06998,0.06055 -0.029,0.228322 -0.06336,0.107385 -0.125496,0.195246 -0.138082,0.195246 -0.01259,0 -0.02288,-0.08831 -0.02288,-0.196254 z m 1.330549,0.01527 c -0.09154,-0.154875 -0.105059,-0.216705 -0.05186,-0.237118 0.131892,-0.05061 0.213065,0.05515 0.194174,0.252984 l -0.01849,0.193639 z M 7.7709715,9.7641969 c -0.01989,-0.05183 0.0605,-0.287879 0.18502,-0.543275 0.348166,-0.714106 0.588957,-0.864518 0.863198,-0.539203 0.303143,0.359598 0.60782,1.237768 0.40213,1.159054 -0.03921,-0.01501 -0.214745,-0.07247 -0.390074,-0.127697 -0.312154,-0.09833 -0.325541,-0.09789 -0.643775,0.02118 -0.388916,0.145512 -0.3726,0.14434 -0.416499,0.029941 z m -1.653821,1.7114691 c -0.02195,-0.05719 -0.05299,-0.06817 -0.0895,-0.03166 -0.06531,0.06532 -0.0021,0.196583 0.07249,0.150492 0.02783,-0.0172 0.03548,-0.07067 0.017,-0.118832 z m 4.9720395,0.04368 c 0,-0.103155 -0.111633,-0.08432 -0.133774,0.02257 -0.01232,0.05947 0.0091,0.08554 0.05703,0.06955 0.04221,-0.01407 0.07674,-0.05552 0.07674,-0.09212 z M 8.6082025,11.399138 c 0,-0.02952 -0.02567,-0.06953 -0.05704,-0.08892 -0.03137,-0.01939 -0.05703,0.0048 -0.05703,0.05367 0,0.0489 0.02567,0.08892 0.05703,0.08892 0.03137,0 0.05704,-0.02415 0.05704,-0.05367 z m -2.931479,-0.949927 c -0.01842,-0.04801 -0.05941,-0.07127 -0.09109,-0.05169 -0.03796,0.02346 -0.03485,0.07809 0.0092,0.160307 0.07269,0.135817 0.140986,0.04528 0.08193,-0.108616 z m 5.8402235,-0.0012 c 0,-0.04705 -0.02567,-0.06969 -0.05703,-0.0503 -0.03137,0.01939 -0.05703,0.07375 -0.05703,0.120801 0,0.04705 0.02567,0.06969 0.05703,0.0503 0.03137,-0.01939 0.05703,-0.07375 0.05703,-0.120801 z m -7.4081595,-0.07632 c 0.106333,0.0014 0.295011,0.03872 0.419286,0.08298 0.124274,0.04426 0.234051,0.07238 0.243947,0.06249 0.0099,-0.0099 -0.07731,-0.09069 -0.193786,-0.179528 -0.197518,-0.150654 -0.255241,-0.163196 -0.857066,-0.186233 -0.395027,-0.01512 -0.645284,-0.0033 -0.645284,0.03052 0,0.03037 0.160408,0.11975 0.356464,0.198621 0.295684,0.118953 0.36726,0.130211 0.419785,0.06603 0.03483,-0.04256 0.150321,-0.07625 0.256654,-0.07487 z m 9.1019455,-0.01676 0.502031,-0.185361 -0.370723,-0.01815 c -0.449338,-0.022 -0.731961,0.05406 -0.911646,0.245324 l -0.134853,0.143545 h 0.20658 c 0.113619,0 0.432494,-0.08341 0.708611,-0.185361 z M 3.7602945,9.3444209 c 0,-0.06951 -0.113949,-0.195654 -0.299429,-0.331461 -0.684258,-0.501009 -1.131361,-0.811113 -1.170413,-0.811782 -0.02286,-3.84e-4 -0.153401,-0.10457 -0.290091,-0.23151 -0.136691,-0.12694 -0.261896,-0.217432 -0.278234,-0.201093 -0.06304,0.06304 0.112871,0.574539 0.296107,0.860983 0.349542,0.546422 0.822015,0.800203 1.528182,0.820835 0.176799,0.0052 0.213878,-0.01321 0.213878,-0.105972 z m 10.2874595,-0.004 c 0.55913,-0.209197 1.051661,-0.712056 1.184608,-1.209445 0.102841,-0.384758 0.04823,-0.423859 -0.464094,-0.332301 -0.343063,0.06131 -0.431618,0.102595 -0.597745,0.278682 -0.216018,0.228967 -0.223841,0.291266 -0.02069,0.164781 0.0733,-0.04564 0.261603,-0.113526 0.418447,-0.150859 0.156844,-0.03733 0.342918,-0.105297 0.413497,-0.151029 0.116019,-0.07518 0.128328,-0.07349 0.128328,0.01754 0,0.05538 -0.196262,0.290071 -0.436136,0.52154 -0.392922,0.379154 -0.771685,0.615662 -1.232115,0.76936 -0.05489,0.01832 -0.09981,0.07262 -0.09981,0.120659 0,0.126062 0.327328,0.112646 0.705713,-0.02893 z M 6.3346795,8.9861559 c 0.215661,-0.11393 0.356934,-0.230591 0.49278,-0.406931 0.108866,-0.14132 0.126494,-0.233866 0.124937,-0.655893 -0.0015,-0.415642 -0.01325,-0.476306 -0.07602,-0.393679 -0.059,0.07767 -0.184238,0.101036 -0.611303,0.114068 l -0.537096,0.01639 -0.01564,-0.171103 c -0.0086,-0.09411 -0.02822,-0.228388 -0.0436,-0.298403 l -0.02797,-0.127301 -0.31354,0.153775 c -0.172447,0.08458 -0.305455,0.17803 -0.295573,0.207675 0.0099,0.02965 0.153433,0.105375 0.319002,0.168287 0.232796,0.08845 0.280592,0.125824 0.210851,0.164854 -0.0496,0.02776 -0.09018,0.121057 -0.09018,0.207331 0,0.08627 -0.03022,0.187087 -0.06717,0.224028 -0.05153,0.05153 -0.0043,0.09497 0.202894,0.186626 0.4407,0.194943 0.612919,0.201149 0.881253,0.03176 0.272185,-0.171823 0.294806,-0.177034 0.294806,-0.06791 0,0.04442 -0.09994,0.159911 -0.222086,0.256653 -0.263502,0.208699 -0.471496,0.223912 -0.920787,0.06735 -0.286601,-0.09987 -0.320698,-0.131025 -0.426588,-0.389779 -0.135778,-0.33179 -0.286784,-0.569623 -0.333394,-0.525093 -0.01826,0.01744 -6.95e-4,0.207846 0.03904,0.423118 0.05171,0.280159 0.103949,0.408933 0.183806,0.453077 0.06136,0.03392 0.124399,0.07708 0.140084,0.09591 0.08525,0.102356 0.661488,0.324418 0.863252,0.332669 0.05131,0.0021 0.154019,-0.02827 0.228244,-0.06748 z m 5.0667505,-0.04583 c 0.55589,-0.149995 0.716443,-0.326529 0.776038,-0.853282 0.03081,-0.272291 0.02411,-0.348249 -0.02785,-0.316132 -0.0775,0.0479 -0.347497,0.632041 -0.347497,0.751813 0,0.04315 -0.01925,0.0788 -0.04278,0.07923 -0.02353,4.27e-4 -0.106939,0.01619 -0.185361,0.03502 -0.142084,0.03412 -0.142159,0.03392 -0.02122,-0.05617 0.128622,-0.09582 0.210689,-0.360788 0.12764,-0.412115 -0.02716,-0.01679 -0.04939,-0.104728 -0.04939,-0.195424 0,-0.09104 -0.04039,-0.187508 -0.09018,-0.215372 -0.06974,-0.03903 -0.02194,-0.0764 0.210851,-0.164854 0.165569,-0.06291 0.30912,-0.138641 0.319002,-0.168287 0.02142,-0.06425 -0.583514,-0.371749 -0.633326,-0.321936 -0.01896,0.01896 -0.03483,0.100782 -0.03526,0.181817 -0.0021,0.397035 -0.0063,0.399404 -0.689459,0.386873 -0.367168,-0.0067 -0.622137,-0.03473 -0.623207,-0.06843 -10e-4,-0.03137 -0.02984,-0.0088 -0.06409,0.05019 -0.03781,0.06509 -0.04799,0.22879 -0.02592,0.4166 0.029901,0.254426 0.0742,0.348378 0.249377,0.528943 0.201893,0.208101 0.549814,0.445796 0.665405,0.454596 0.02923,0.0022 0.248484,-0.04866 0.487227,-0.11308 z m -0.625928,-0.208507 c -0.130148,-0.04785 -0.285171,-0.196972 -0.285171,-0.274308 0,-0.04451 0.0944,-0.02116 0.26632,0.06587 0.146476,0.07416 0.358216,0.136632 0.470532,0.138837 0.166077,0.0033 0.182911,0.01316 0.09014,0.05303 -0.128615,0.05527 -0.412936,0.06396 -0.541825,0.01657 z M 3.4384865,8.1484329 c 0.04767,-0.512885 0.106225,-0.656351 0.396067,-0.970366 0.238637,-0.258539 0.473038,-0.713212 0.618881,-1.200461 0.109137,-0.364617 0.09554,-1.284536 -0.02298,-1.554182 -0.106963,-0.243367 -0.188951,-0.272085 -0.244242,-0.08555 -0.02092,0.07058 -0.105319,0.303832 -0.187552,0.518339 -0.136107,0.355037 -0.154466,0.378052 -0.204726,0.256654 -0.227071,-0.548471 -0.533651,-1.017388 -0.665173,-1.017388 -0.07449,0 -0.06598,1.130354 0.01125,1.494341 0.03527,0.16623 0.119783,0.417731 0.187806,0.55889 0.0904,0.187593 0.115103,0.318042 0.09181,0.484791 -0.03183,0.227928 -0.03193,0.228006 -0.108915,0.08555 -0.104942,-0.194197 -0.527718,-0.627376 -0.61231,-0.627376 -0.04484,0 -0.08252,0.16758 -0.108902,0.48435 -0.032,0.384128 -0.02022,0.546399 0.0569,0.78422 0.155129,0.478384 0.582055,1.183901 0.716408,1.183901 0.0214,0 0.05545,-0.17807 0.07568,-0.395712 z m 2.90657,-3.865203 c 0.507318,-0.233722 0.933457,-0.436011 0.946977,-0.449531 0.116562,-0.116561 -1.023596,0.228881 -1.358854,0.411702 -0.138087,0.0753 -0.265506,0.122474 -0.283154,0.104827 -0.06926,-0.06926 0.09883,-0.233621 0.392708,-0.384008 0.382937,-0.195959 0.549622,-0.353595 0.780815,-0.738429 0.190666,-0.317373 0.464886,-1.155503 0.399464,-1.220925 -0.052,-0.052 -0.409783,0.191024 -0.891025,0.605217 -0.31191,0.268452 -0.456461,0.449189 -0.664505,0.83085 -0.269227,0.493904 -0.37101,0.589275 -0.259675,0.243316 0.204886,-0.636658 0.296215,-1.401663 0.18773,-1.572501 -0.03086,-0.04861 -0.1368,0.05059 -0.335011,0.313688 -0.355455,0.471823 -0.483816,0.727449 -0.617178,1.229089 -0.08859,0.333213 -0.09379,0.438908 -0.03683,0.74802 0.03648,0.197988 0.06633,0.465236 0.06633,0.593886 v 0.23391 l 0.374909,-0.262081 c 0.2062,-0.144144 0.789988,-0.453308 1.297305,-0.68703 z m 6.0501885,0.710536 c 0.155515,-0.799584 0.159109,-0.94119 0.03537,-1.393541 -0.132685,-0.485055 -0.311438,-0.829839 -0.597037,-1.151588 -0.100948,-0.113725 -0.200471,-0.253313 -0.221166,-0.310196 -0.02069,-0.05688 -0.06347,-0.08745 -0.09506,-0.06793 -0.100793,0.06229 -0.059,0.723919 0.08107,1.283518 0.07459,0.298004 0.128225,0.549568 0.119185,0.559032 -0.009,0.0095 -0.113662,-0.157361 -0.232492,-0.370722 -0.309146,-0.555071 -0.40266,-0.668781 -0.850943,-1.034709 -0.48052,-0.392242 -0.7119415,-0.543669 -0.7589815,-0.496628 -0.0192,0.0192 -0.0054,0.145277 0.03069,0.280173 0.2328205,0.87049 0.5854085,1.39207 1.1119085,1.644839 0.281836,0.135307 0.498923,0.349814 0.426905,0.421831 -0.01345,0.01346 -0.137445,-0.03797 -0.275533,-0.114288 -0.297498,-0.164413 -1.044753,-0.398189 -1.148098,-0.359178 -0.0399,0.01506 0.402258,0.258732 0.982581,0.541487 0.580323,0.282755 1.106463,0.554261 1.169201,0.603348 0.154708,0.121045 0.19316,0.114915 0.222405,-0.03545 z M 4.1646065,3.9814079 c 0.06052,-0.04837 0.131472,-0.21498 0.163264,-0.383355 0.03093,-0.163792 0.123443,-0.43044 0.205591,-0.592551 0.134583,-0.265586 0.145473,-0.333462 0.110065,-0.686037 -0.02637,-0.26257 -0.06365,-0.391288 -0.113336,-0.391288 -0.185509,0 -0.984779,1.041195 -1.142559,1.488392 -0.115211,0.326542 -0.106047,0.40981 0.06253,0.568183 0.08038,0.07551 0.200025,0.224476 0.265879,0.331029 l 0.119733,0.193733 0.110898,-0.221277 c 0.06099,-0.121703 0.159062,-0.259775 0.217931,-0.306829 z m 1.853353,-1.305092 c 0.137705,-0.153163 0.381321,-0.377735 0.541367,-0.49905 0.160046,-0.121314 0.329612,-0.294539 0.376812,-0.384943 0.08519,-0.163166 0.08474,-0.164099 -0.06219,-0.127223 -0.08141,0.02043 -0.366138,0.116076 -0.632733,0.212541 l -0.484719,0.175392 -7.76e-4,0.322553 c -4.21e-4,0.177404 -0.01625,0.3803 -0.03517,0.45088 -0.05193,0.193775 0.02155,0.15668 0.297414,-0.15015 z m 5.2877835,-0.579338 c -0.08112,-0.07474 -1.214718,-0.472916 -1.248939,-0.438695 -0.061951,0.06195 0.06176,0.197178 0.506446,0.553579 0.244003,0.195561 0.513489,0.447351 0.598859,0.559533 l 0.155218,0.203967 0.01693,-0.418256 c 0.0093,-0.230041 -0.0035,-0.437098 -0.02852,-0.460128 z m -9.2519715,3.505153 c 0.0027,-0.06644 0.01625,-0.07996 0.03446,-0.03446 0.01648,0.04117 0.01445,0.09036 -0.0045,0.109316 -0.01895,0.01895 -0.03243,-0.01473 -0.02996,-0.07486 z m -0.046,-0.480038 c 0,-0.14116 0.01112,-0.198907 0.02472,-0.128327 0.01359,0.07058 0.01359,0.186074 0,0.256654 -0.01359,0.07058 -0.02472,0.01283 -0.02472,-0.128327 z"
     id="path5"
     class="ColorScheme-Text" />
</svg>
