<?xml version='1.0' encoding='UTF-8'?>
<svg xmlns:inkscape="http://www.inkscape.org/namespaces/inkscape" xmlns:sodipodi="http://sodipodi.sourceforge.net/DTD/sodipodi-0.dtd" xmlns="http://www.w3.org/2000/svg" xmlns:svg="http://www.w3.org/2000/svg" xmlns:rdf="http://www.w3.org/1999/02/22-rdf-syntax-ns#" xmlns:cc="http://creativecommons.org/ns#" xmlns:dc="http://purl.org/dc/elements/1.1/" width="64" height="64" version="1.1" viewBox="0 0 16.933 16.933" id="svg7" sodipodi:docname="steam_icon_2807150.svg" inkscape:version="1.4 (e7c3feb100, 2024-10-09)">
  <sodipodi:namedview id="namedview7" pagecolor="#9c4444" bordercolor="#000000" borderopacity="0.25" inkscape:showpageshadow="2" inkscape:pageopacity="0.0" inkscape:pagecheckerboard="0" inkscape:deskcolor="#d1d1d1" inkscape:zoom="4.3531261" inkscape:cx="35.491735" inkscape:cy="39.741555" inkscape:window-width="1183" inkscape:window-height="941" inkscape:window-x="35" inkscape:window-y="32" inkscape:window-maximized="0" inkscape:current-layer="svg7" showgrid="false"/>
  <defs id="defs2">
    <style id="current-color-scheme" type="text/css">.ColorScheme-Text {color:#d8dee9} .ColorScheme-Highlight {color:#3b4252}</style></defs>
  <metadata id="metadata2">
    <rdf:RDF>
      <cc:Work rdf:about="">
        <dc:format>image/svg+xml</dc:format>
        <dc:type rdf:resource="http://purl.org/dc/dcmitype/StillImage"/>
      </cc:Work>
    </rdf:RDF>
  </metadata>
  <path d="m 12.524696,1.8076547 c -0.08552,-0.00247 -0.171228,0.00883 -0.250908,0.033678 -0.155344,0.049221 -0.316122,0.1458269 -0.394288,0.2887248 -0.158593,0.2899396 -0.173128,0.6787748 -0.06192,0.9899465 0.305149,0.8536974 1.187596,1.3804815 1.851952,1.9918259 0.22652,0.208438 2.362002,1.7194576 1.269757,3.3725211 -0.04132,0.062634 -0.08879,0.1207412 -0.142291,0.174762 0.145369,0.208814 0.2831,0.4223785 0.393199,0.6501948 0.05105,-0.039454 0.100206,-0.079405 0.147725,-0.1193637 0.80181,-0.6745574 0.749592,-2.01177 0.421451,-2.6854214 C 15.468082,5.9065191 15.016526,5.3912697 14.548265,4.9186654 14.1257,4.4921538 12.680278,3.6643952 12.513835,3.1460999 c -0.07887,-0.2455871 -0.148523,-0.6361281 0.07169,-0.7706818 0.117648,-0.071883 0.425316,0.01254 0.576765,0.2138359 0.08748,0.11647 0.230712,0.2896146 0.210722,-0.00376 C 13.351462,2.2702648 12.99772,1.9197919 12.7756,1.8495527 12.69589,1.8243817 12.610224,1.8094707 12.524692,1.8072127 Z m -0.624559,4.1887989 c -0.02679,0.0012 -0.03718,0.036697 -0.03367,0.1216171 0.02922,0.7069571 -0.500567,0.9090599 -0.578941,0.8379682 -0.08887,-0.08067 -0.120384,-0.03294 -0.108619,0.063996 0.01556,0.1284628 0.02736,0.1513882 0.142289,0.3527759 0.01924,0.033677 0.03016,0.1092177 -0.02391,0.026068 -0.322138,-0.4959865 -0.160605,-0.8961195 -0.05322,-1.1679621 0.06139,-0.1553953 -0.01043,-0.1702495 -0.09342,-0.070509 -0.403343,0.4861689 -0.80186,0.8564424 -1.15027,1.5120346 -0.049383,0.092946 -0.050728,0.15656 0.08038,0.042342 0.323541,-0.2818489 0.57507,-0.057237 0.470334,0.1693382 C 10.273588,8.484378 9.7854494,8.6280767 9.6104594,8.7036378 8.9554408,8.9864526 8.8833788,8.9652239 8.5959566,10.129928 c -0.1789154,0.725036 0.059757,2.497298 0.2791528,3.462631 0.021206,0.09331 0.043953,0.183065 0.068423,0.270288 C 9.1348464,13.679915 9.3274076,13.485222 9.57461,13.392839 9.5169448,13.127473 9.466211,12.798969 9.4301433,12.383353 9.4012291,11.004035 9.4209283,9.6681099 11.315768,9.9595146 12.79313,10.164485 13.729214,10.03404 14.386426,9.7717395 14.292908,9.5338519 14.179047,9.3051476 14.04864,9.0846488 13.161781,9.3705042 11.975546,9.2628004 11.530853,9.0183901 10.733261,8.5800905 11.353059,8.2685082 11.509117,8.2737547 c 0.379474,0.012806 0.54253,0.3145898 0.569166,0.3799089 0.07813,0.1916561 0.124906,0.1300436 0.227016,0.030423 0.714119,-0.6968377 0.468814,-2.0098623 -0.311742,-2.6354949 -0.04199,-0.033677 -0.07258,-0.053103 -0.09342,-0.052109 z m 1.363167,4.4254194 c -0.298705,0.01009 -0.64156,0.112478 -0.903709,0.424422 -0.436226,0.519006 -0.609871,1.159241 -0.687558,1.734567 0.219127,0.08206 0.445538,0.13718 0.677783,0.163913 0.07792,-0.820028 0.2913,-1.321431 0.581109,-1.584776 0.29404,-0.267197 0.593328,-0.198422 0.654972,-0.167158 0.100662,0.05099 0.165129,0.258913 0.170544,0.399444 0.01463,0.384917 0.287422,0.220774 0.337807,-0.06513 0.02546,-0.144419 0.0615,-0.676435 -0.273722,-0.815172 -0.119054,-0.04922 -0.324887,-0.09782 -0.557215,-0.09005 z m -1.66513,3.122878 c -0.0082,0.150195 -0.01786,0.277816 -0.03583,0.372315 -0.15181,0.792991 -0.550853,1.654871 -1.564111,0.549248 -0.041817,-0.06688 -0.09368,-0.147478 -0.1488099,-0.255088 -0.2456132,0.07452 -0.4627461,0.232879 -0.6082656,0.443961 0.1507213,0.308725 0.3126653,0.537307 0.4540269,0.672976 0.6920446,0.664195 1.5032816,0.507272 1.8975726,0.193211 0.299138,-0.238263 0.59736,-0.627676 0.700593,-1.856134 -0.235921,-0.0152 -0.468642,-0.05487 -0.695162,-0.120479 z M 13.956291,3.3859209 c -0.253831,0.00754 -0.539209,0.1033239 -0.830933,0.3571099 0.175636,0.1524655 0.368942,0.2864953 0.559389,0.422252 0.159391,-0.1048306 0.349512,-0.1538924 0.564814,-0.1302621 0.600993,0.066014 0.811082,0.4511598 0.901541,0.8661975 0.04991,0.2290197 0.226431,0.4020122 0.225927,-0.024932 -3.99e-4,-0.3254343 -0.0093,-0.6998662 -0.5583,-1.1755517 -0.143659,-0.1244956 -0.441431,-0.3097304 -0.81247,-0.3147888 -0.01653,-2.498e-4 -0.03302,-5.078e-4 -0.04995,0 z m -1.318633,0.941085 c -0.01824,0.028559 -0.03718,0.055757 -0.05538,0.0858 -0.180785,0.2983199 -0.328282,1.435369 0.188993,2.4944011 0.240854,0.4930945 0.601337,1.0806763 1.075328,1.742155 1.187257,1.656872 1.095073,3.31594 -0.141208,3.93154 0.106799,0.228179 0.181203,0.472589 0.205288,0.722912 0.757621,-0.337408 1.153822,-0.855878 1.345787,-1.41326 C 15.76206,10.422543 15.110394,9.2453223 14.921923,8.9706532 L 13.697781,7.1871984 C 13.142783,6.3784268 13.030413,5.4608123 13.229634,4.8241566 13.03059,4.6601703 12.829804,4.4981957 12.63766,4.3270064 Z M 9.8276864,10.682392 c -0.1494445,0.005 -0.1517416,0.06002 -0.1911693,0.142196 -0.1293995,0.269815 -0.1429807,0.559804 -0.1531552,0.840145 -0.010032,0.276076 0.068508,0.375891 0.1574986,0.418987 0.1390477,0.06737 0.6579565,0.574269 1.0633805,0.912879 0.709133,0.592255 1.613621,0.661981 2.273392,0.574207 0.03367,-0.260855 -0.05299,-0.522941 -0.186827,-0.751148 -0.02421,0.0025 -0.04811,0.0038 -0.07275,0.0049 -1.108507,0.06531 -2.545575,-0.760287 -2.388544,-1.888755 0.0207,-0.148652 -0.09917,-0.156251 -0.133601,-0.182349 -0.08608,-0.0652 -0.195298,-0.0652 -0.2943494,-0.07044 -0.027878,-0.0012 -0.052512,-0.0012 -0.073867,-9.43e-4 z M 2.8891121,3.3859209 C 2.5180725,3.3909129 2.220286,3.5762365 2.0766373,3.7007098 1.5276141,4.1763942 1.5198098,4.5508257 1.5194239,4.8762605 1.518952,5.3032358 1.6943514,5.1302413 1.7442657,4.9011885 1.8347075,4.4861506 2.0459008,4.1009473 2.6468915,4.0349913 3.7590594,3.9128729 4.1996219,5.7269462 3.1975892,7.1871631 L 2.2058953,8.6319132 C 2.3779365,8.7965672 2.5933077,8.9141126 2.8185067,8.9966277 2.8891144,8.8810232 2.9657018,8.7652151 3.0487805,8.6492857 3.522772,7.9878071 3.8832525,7.4002247 4.1241075,6.9071304 4.6413819,5.8480999 4.4938802,4.7110487 4.3131047,4.4127305 3.8239411,3.6054849 3.3096195,3.380149 2.8891121,3.3858851 Z M 1.7420937,9.3993758 C 1.5110362,9.9264372 1.2747691,10.833209 1.638902,11.890509 c 0.2272947,0.659953 0.7412008,1.265593 1.8019872,1.580433 0.2830804,0.08404 0.6869191,0.148675 1.1274649,0.125913 C 4.5505891,13.337474 4.5446478,13.076709 4.5248935,12.81749 4.4070726,12.8287 4.2903444,12.83193 4.1773138,12.82509 2.4636842,12.724016 1.8358976,11.380484 2.4231169,9.8008899 2.1811738,9.6935504 1.9538679,9.5575672 1.7420766,9.3992647 Z m 5.3255869,1.2830162 c -0.021362,-5.8e-4 -0.04598,-3.98e-4 -0.073874,9.44e-4 -0.09906,0.005 -0.2082772,0.005 -0.2943569,0.0705 -0.03443,0.02607 -0.1542895,0.03368 -0.1336004,0.182351 0.1040269,0.747488 -0.4913757,1.361872 -1.2273964,1.67269 0.034637,0.274799 0.052406,0.551323 0.066261,0.828215 0.2733277,-0.09483 0.54163,-0.236261 0.786402,-0.440691 0.4054233,-0.338613 0.9243284,-0.845521 1.0633785,-0.912882 0.089011,-0.04307 0.1675173,-0.142918 0.1574967,-0.41898 C 7.4018331,11.384192 7.3882381,11.094201 7.2588386,10.82439 7.2194046,10.74223 7.2171436,10.686752 7.0676714,10.682194 Z m 3.4920984,-0.666474 c -0.238914,0.005 -0.472001,0.07753 -0.6875587,0.34843 -0.058628,0.07376 -0.1684654,0.181586 0.032587,0.20516 0.5064347,0.05938 0.6545297,0.15805 0.8613467,0.309349 0.352885,0.258152 0.718655,0.506709 1.054693,0.777186 0.09413,-0.25665 0.222018,-0.500835 0.382337,-0.721825 -0.164369,-0.142481 -0.384078,-0.325848 -0.727748,-0.611117 -0.01501,-0.01254 -0.03065,-0.07866 -0.02713,-0.117228 0.0087,-0.0977 -0.03585,-0.135639 -0.166178,-0.134588 -0.239158,0.0025 -0.483403,-0.0605 -0.722317,-0.05536 z m 2.209308,1.453427 c -0.148846,0.250612 -0.229161,0.533013 -0.285667,0.818446 0.01425,0.01672 0.02856,0.03395 0.04233,0.051 0.387587,0.479528 0.880128,1.156323 0.16511,1.861565 -0.131081,0.129314 -0.284369,0.182495 -0.44208,0.186694 -2.1e-5,7.6e-5 -9.43e-4,-6.1e-5 -9.43e-4,0 -0.05582,0.24009 -0.132373,0.473968 -0.242223,0.692527 0.548501,0.143754 1.073158,0.06838 1.464185,-0.500397 0.54477,-0.792399 0.618086,-1.776206 -0.578939,-2.987194 -0.04912,-0.0497 -0.08088,-0.08153 -0.121657,-0.122607 z M 9.9373929,13.39821 c -0.5094297,0.0012 -0.7653679,0.362698 -1.0079842,0.574214 -0.3478799,0.303282 -0.4329665,0.928464 -0.2519983,1.430637 0.061039,0.169366 0.1945013,0.620212 0.6039241,0.675156 0.3433692,0.04609 0.5145407,0.01786 0.2302707,-0.172577 -0.1916025,-0.128345 -0.2843418,-0.282828 -0.3693051,-0.411405 -0.2553509,-0.386409 -0.011533,-0.91402 0.2585144,-1.120195 0.8272795,-0.631381 1.2222575,0.05248 1.7292135,0.333253 0.01471,0.0087 0.0297,0.01577 0.04455,0.0239 0.143212,-0.185915 0.227989,-0.408236 0.28023,-0.639335 -0.01311,-0.01007 -0.02658,-0.01881 -0.03908,-0.0282 C 10.753336,13.564511 10.28595,13.397256 9.9373924,13.398282 Z M 6.3616585,10.015918 c -0.2389151,-0.005 -0.4842441,0.05723 -0.7234043,0.05536 -0.1303058,-9.44e-4 -0.1750185,0.03695 -0.1661873,0.13459 0.00352,0.03858 -0.012027,0.104713 -0.027143,0.117228 -0.9369065,0.777685 -0.9611462,0.80945 -1.4153022,1.2689 -0.3358811,0.339801 -0.5720855,0.661255 -0.7255762,0.966062 0.2494613,0.108338 0.5178271,0.166573 0.7896598,0.192132 0.091977,-0.148561 0.2000008,-0.286583 0.3008735,-0.411397 0.4675269,-0.578421 1.1345079,-1.002646 1.7596263,-1.459941 0.2068197,-0.151302 0.3549126,-0.249997 0.8613475,-0.309353 0.2010531,-0.02353 0.091223,-0.131451 0.032598,-0.205158 C 6.832594,10.093416 6.6005928,10.021084 6.3616805,10.01591 Z m 0.6093497,3.383379 c -0.3472143,0.0025 -0.8114945,0.17081 -1.4663557,0.664302 -0.3230793,0.243468 -0.8929073,0.513817 -1.2751852,0.136762 -0.193147,-0.190494 -0.2971872,-0.379242 -0.3399748,-0.562269 -0.2799322,-0.04034 -0.5532994,-0.116356 -0.8157318,-0.221427 -0.011514,0.426772 0.1367563,0.813205 0.3769066,1.162524 0.5981776,0.87008 1.5091803,0.588058 2.3396551,0.128098 0.4009982,-0.222104 0.7318433,-0.69501 1.2621506,-0.570961 0.1042511,-0.220203 0.1747639,-0.453414 0.229186,-0.69035 -0.092577,-0.03019 -0.1949104,-0.04748 -0.3106508,-0.0467 z m 1.0557761,0.605695 c -0.070389,0.230333 -0.1560337,0.456196 -0.2606842,0.672989 0.1307751,0.245076 0.18069,0.560917 0.011913,0.816252 -0.084957,0.128573 -0.1777013,0.283035 -0.3693021,0.411405 -0.2842742,0.190441 -0.1130994,0.21866 0.2302705,0.172577 0.4094177,-0.05499 0.5428882,-0.505793 0.6039213,-0.675156 0.1747088,-0.4848 0.1021231,-1.084297 -0.2161514,-1.398069 z M 4.4141197,1.8152448 c -0.08553,0.00247 -0.1712052,0.017157 -0.2509109,0.042341 C 3.9410889,1.9278558 3.5873203,2.2782973 3.5658071,2.593524 3.5458061,2.8863955 3.6879752,2.713262 3.7754408,2.597234 3.9268898,2.3956492 4.2345334,2.3114821 4.3522071,2.383387 4.5724042,2.5179374 4.502765,2.9084818 4.4239017,3.1540741 4.3671259,3.330852 4.1601171,3.5436771 3.8971008,3.7640885 4.0461406,3.909828 4.1747541,4.0751822 4.2903011,4.2492919 4.648528,3.924687 4.9629476,3.5697804 5.1212359,3.1269376 5.2324583,2.8157687 5.2179178,2.4280214 5.0593223,2.1380816 4.9811582,1.9951845 4.8203718,1.8986174 4.665039,1.849346 4.585353,1.8240483 4.4996615,1.8134035 4.4141273,1.8156419 Z M 3.2366931,4.2683886 C 2.8889215,4.5207527 2.5579343,4.7550573 2.3894628,4.9251092 1.9212036,5.3977115 1.4696473,5.9140502 1.178361,6.5120418 0.85021961,7.1857062 0.79908472,8.5229191 1.6008889,9.1974739 2.2676257,9.758416 3.2430562,10.296034 5.6219628,9.9659898 7.5168442,9.6745728 7.537586,11.011574 7.5086716,12.390902 7.3868443,13.795139 7.0959101,14.223916 6.93951,14.473912 c -0.5810378,0.634 -0.9593932,0.620213 -1.2056725,0.344084 -0.2348868,0.124488 -0.4784951,0.235859 -0.7331773,0.310447 0.1067249,0.186238 0.2262343,0.30453 0.3454093,0.399443 0.3942903,0.314062 1.2055291,0.472077 1.8975741,-0.192119 C 7.516654,15.073732 7.8655203,14.467401 8.0626297,13.600115 8.2820225,12.634778 8.5217825,10.862516 8.3428658,10.137483 8.0554444,8.9727626 7.9833831,8.9929151 7.3283625,8.7101012 7.1533746,8.6345711 6.6652353,8.4919305 6.387725,7.891662 6.2829951,7.6651109 6.534519,7.4404888 6.8580439,7.7223378 6.9891515,7.8365658 6.9867252,7.7729443 6.9373537,7.6799963 6.5889446,7.0244055 6.1915125,6.6530406 5.7881657,6.1668739 c -0.082705,-0.099702 -0.1558798,-0.084786 -0.094506,0.070509 0.1073728,0.2718404 0.2689119,0.6719747 -0.05321,1.167949 -0.054044,0.083305 -0.043132,0.00739 -0.023894,-0.026064 C 5.7314735,7.1778787 5.7443555,7.1549592 5.7599355,7.0264905 5.7715825,6.9295525 5.7391115,6.8829417 5.6502295,6.963496 5.5718602,7.0346396 5.0431472,6.8314118 5.0723772,6.1244526 5.0784762,5.9735261 5.0412932,5.9791121 4.9452938,6.0560564 4.1647415,6.6816913 3.9194348,7.9947142 4.6335574,8.6915641 4.735671,8.7912666 4.7824395,8.8528247 4.8605703,8.6611394 4.8871931,8.5957623 5.0502644,8.2929327 5.4297356,8.2801438 5.5858054,8.2752038 6.204515,8.5875693 5.4069261,9.0258662 4.772564,9.3744473 2.6291147,9.446276 1.9984586,8.4918152 0.90621109,6.838738 3.0416918,5.3277287 3.2682155,5.1192766 3.373389,5.0224619 3.4843319,4.9280342 3.59733,4.833809 3.5243347,4.617916 3.411405,4.4130723 3.2367127,4.2682712 Z m 0.4008001,6.1599984 c -0.020474,-1.37e-4 -0.040882,4.35e-4 -0.060821,0.0011 -0.1914322,0.0061 -0.3563137,0.04784 -0.4583725,0.09005 -0.3352505,0.138753 -0.3002536,0.670774 -0.2748041,0.815173 0.050382,0.285907 0.3240865,0.450059 0.3388909,0.06513 0.00538,-0.140526 0.068799,-0.349482 0.1694477,-0.400521 0.061627,-0.03134 0.3620197,-0.100081 0.6560569,0.167158 0.057139,0.05185 0.1111291,0.113485 0.161842,0.184518 C 4.3189382,11.202296 4.4711234,11.05673 4.630276,10.917905 4.613081,10.895995 4.59622,10.874325 4.57815,10.852775 4.305078,10.527879 3.9444447,10.430572 3.6375118,10.428355 Z m 1.440288,1.334041 c -0.1977583,0.16359 -0.3833615,0.337725 -0.5528712,0.529706 7.07e-5,3.52e-4 -6.93e-5,7.26e-4 0,0.0011 0.047034,0.251664 0.078293,0.543333 0.090161,0.878136 0.01672,0.471888 0.056367,0.844716 0.1129626,1.144062 0.242798,-0.01406 0.4749761,-0.125799 0.6745257,-0.26485 -0.0095,-0.04246 -0.01904,-0.08468 -0.027168,-0.126977 -0.073386,-0.38327 -0.00232,-1.294808 -0.2976194,-2.161159 z M 8.1679877,1.068457 C 8.12375,1.0689756 8.079157,1.075905 8.0365514,1.0836 7.3858983,1.1993363 6.7676096,1.4876487 6.1943758,1.8162894 5.9041795,1.9826705 5.826377,2.052985 5.684952,2.3666229 5.3761118,3.0515496 5.1203786,3.9130624 4.9409143,4.49412 c -0.096298,0.3117942 -0.029163,0.3655397 0.069519,0.4960619 1.0412188,1.3772157 2.3673373,2.8800572 3.0663099,4.0759108 0.065653,0.1123394 0.151259,0.3241084 0.3635028,-0.071516 0.02333,-0.05498 0.028259,-0.038692 0.050569,0.00376 0.2107632,0.3904676 0.2960259,0.1796716 0.3614674,0.06775 C 9.5512561,7.8702322 10.877376,6.3673901 11.918594,4.9901744 12.017284,4.8596482 12.084407,4.8059067 11.988094,4.4941129 11.808645,3.9130517 11.552909,3.0515368 11.244068,2.3666129 11.102641,2.0529743 11.024838,1.9826614 10.734644,1.8162786 10.16141,1.4876377 9.5431213,1.1992764 8.8924663,1.0835957 c -0.085171,-0.015143 -0.1797894,-0.026794 -0.259598,0.00642 -0.050232,0.021044 -0.085633,0.076534 -0.1380901,0.096566 -0.017461,0.00642 -0.037561,0.011286 -0.055666,0.00642 -0.056937,-0.014649 -0.090225,-0.081284 -0.1429655,-0.1033239 -0.039917,-0.016663 -0.083938,-0.0223 -0.128174,-0.021658 z" id="path339" style="fill:currentColor;fill-opacity:1;stroke:none;stroke-width:0.438993;stroke-dasharray:none;stroke-opacity:0.3" class="ColorScheme-Text"/>
</svg>
