<?xml version='1.0' encoding='UTF-8'?>
<svg xmlns:inkscape="http://www.inkscape.org/namespaces/inkscape" xmlns:sodipodi="http://sodipodi.sourceforge.net/DTD/sodipodi-0.dtd" xmlns="http://www.w3.org/2000/svg" xmlns:svg="http://www.w3.org/2000/svg" xmlns:rdf="http://www.w3.org/1999/02/22-rdf-syntax-ns#" xmlns:cc="http://creativecommons.org/ns#" xmlns:dc="http://purl.org/dc/elements/1.1/" width="64" height="64" version="1.1" viewBox="0 0 16.933 16.933" id="svg7" sodipodi:docname="stoken-gui.svg" inkscape:version="1.4.2 (ebf0e940d0, 2025-05-08)">
  <sodipodi:namedview id="namedview7" pagecolor="#9c4444" bordercolor="#000000" borderopacity="0.25" inkscape:showpageshadow="2" inkscape:pageopacity="0.0" inkscape:pagecheckerboard="0" inkscape:deskcolor="#d1d1d1" inkscape:zoom="4.3531261" inkscape:cx="36.295755" inkscape:cy="39.971275" inkscape:window-width="2560" inkscape:window-height="1376" inkscape:window-x="0" inkscape:window-y="0" inkscape:window-maximized="1" inkscape:current-layer="svg7" showgrid="false"/>
  <defs id="defs2">
    <style id="current-color-scheme" type="text/css">.ColorScheme-Text {color:#d8dee9} .ColorScheme-Highlight {color:#3b4252}</style>
  </defs>
  <metadata id="metadata2">
    <rdf:RDF>
      <cc:Work rdf:about="">
        <dc:format>image/svg+xml</dc:format>
        <dc:type rdf:resource="http://purl.org/dc/dcmitype/StillImage"/>
      </cc:Work>
    </rdf:RDF>
  </metadata>
  <path id="path4-2" style="fill:currentColor;fill-opacity:1;stroke-width:0.0199976;stroke-opacity:0.66" d="m 3.3648798,2.1528263 c -0.08662,9.056e-4 -0.169301,0.00889 -0.236854,0.024735 -0.485482,0.1138634 -0.874493,0.5229791 -0.961634,1.0111074 -0.09548,0.5348778 0.173553,1.0675468 0.67098,1.3277357 0.1507,0.078826 0.261747,0.1126168 0.430417,0.1304852 0.222131,0.02353 0.461761,-0.014885 0.661704,-0.1063675 l 0.101423,-0.04638 -6.26e-4,-0.1280122 c -0.001,-0.1739885 0.05114,-0.3145118 0.16203,-0.4378374 0.09937,-0.1105109 0.18933,-0.1647268 0.333325,-0.2009849 0.11529,-0.029027 0.122582,-0.051473 0.120597,-0.3487859 C 4.6445418,3.130727 4.5974818,2.9597253 4.4743308,2.7551604 4.3298058,2.5150979 4.0474188,2.2922489 3.7779968,2.2060081 3.6644918,2.169674 3.5092588,2.1513267 3.3648948,2.1528252 Z m 0.02473,0.6159408 c 0.20865,-2.33e-5 0.315787,0.044102 0.459482,0.1886164 0.09104,0.091556 0.128906,0.1480081 0.154604,0.2288136 0.10139,0.3188764 -0.02722,0.642572 -0.311063,0.7816757 -0.339721,0.1664906 -0.722434,0.031613 -0.878148,-0.3092072 -0.06276,-0.1373702 -0.06414,-0.3796975 -0.0032,-0.5126657 0.106596,-0.2321633 0.329095,-0.3772049 0.578218,-0.3772328 z m 3.827986,0.6462432 c -0.558801,-0.00275 -1.118518,0.1190913 -1.6388,0.365483 -1.176649,0.5572293 -1.980276,1.6800961 -2.142186,2.9943625 -0.03067,0.2489646 -0.01352,0.8394024 0.03092,1.0803697 0.143041,0.7748008 0.507896,1.4709101 1.059963,2.0228336 0.815714,0.8155009 1.972039,1.2206499 3.103822,1.0871729 l 0.190472,-0.02226 1.682704,1.678994 c 1.4179362,1.415098 1.7095202,1.696977 1.8546252,1.792164 0.27036,0.177353 0.551961,0.291052 0.854033,0.344459 0.219808,0.03886 0.665436,0.02348 0.881238,-0.0303 0.735784,-0.183352 1.313953,-0.703357 1.567678,-1.410603 0.236145,-0.658241 0.129108,-1.425046 -0.279522,-2.008615 C 14.326909,11.229613 13.62967,10.514785 12.612022,9.4952584 11.293708,8.174507 10.935149,7.8049354 10.94416,7.7754477 10.950501,7.754791 10.965485,7.6197319 10.977567,7.4748984 11.031532,6.8273697 10.88996,6.1162083 10.586729,5.5114327 10.207056,4.7542124 9.6160628,4.1710142 8.8489838,3.7965713 8.3337818,3.5450791 7.7764078,3.4177621 7.2176068,3.4150096 Z m -2.560855,0.3160095 c -0.219548,0.00254 -0.430473,0.1246665 -0.541112,0.3494042 -0.0552,0.1121045 -0.06558,0.1550167 -0.06431,0.2659184 0.0017,0.1474692 0.04219,0.2764404 0.11811,0.3759958 0.02783,0.036501 0.05463,0.06617 0.05937,0.06617 0.0048,0 0.123,-0.1156322 0.263446,-0.256642 0.217534,-0.2184212 0.363253,-0.3404961 0.62831,-0.5287443 l 0.04699,-0.034015 -0.07791,-0.06988 C 4.9608098,3.7834787 4.8069588,3.7292866 4.6567408,3.7310198 Z m 5.8192802,5.3969027 c 0.0065,0 0.661131,0.6499656 1.45451,1.4446155 1.116033,1.117823 1.45374,1.467441 1.492235,1.5448 0.294304,0.591435 -0.0018,1.251966 -0.627691,1.39947 -0.269172,0.06344 -0.555116,0.0045 -0.773018,-0.158926 -0.06323,-0.04742 -0.743585,-0.715176 -1.511404,-1.484193 l -1.3957622,-1.398235 0.145943,-0.09709 c 0.443277,-0.293597 0.8283902,-0.6755723 1.0976872,-1.0890283 0.0578,-0.088755 0.110902,-0.1614061 0.117493,-0.1614061 z" class="ColorScheme-Text"/>
</svg>
