<?xml version='1.0' encoding='UTF-8'?>
<svg xmlns:inkscape="http://www.inkscape.org/namespaces/inkscape" xmlns:sodipodi="http://sodipodi.sourceforge.net/DTD/sodipodi-0.dtd" xmlns="http://www.w3.org/2000/svg" xmlns:svg="http://www.w3.org/2000/svg" xmlns:rdf="http://www.w3.org/1999/02/22-rdf-syntax-ns#" xmlns:cc="http://creativecommons.org/ns#" xmlns:dc="http://purl.org/dc/elements/1.1/" width="64" height="64" version="1.1" viewBox="0 0 16.933 16.933" id="svg7" sodipodi:docname="studio-3t.svg" inkscape:version="1.4 (e7c3feb100, 2024-10-09)">
  <sodipodi:namedview id="namedview7" pagecolor="#9c4444" bordercolor="#000000" borderopacity="0.25" inkscape:showpageshadow="2" inkscape:pageopacity="0.0" inkscape:pagecheckerboard="0" inkscape:deskcolor="#d1d1d1" inkscape:zoom="6.15625" inkscape:cx="15.837563" inkscape:cy="29.725888" inkscape:window-width="1183" inkscape:window-height="941" inkscape:window-x="35" inkscape:window-y="32" inkscape:window-maximized="0" inkscape:current-layer="svg7" showgrid="false"/>
  <defs id="defs2">
    <style id="current-color-scheme" type="text/css">.ColorScheme-Text {color:#d8dee9} .ColorScheme-Highlight {color:#3b4252}</style></defs>
  <metadata id="metadata2">
    <rdf:RDF>
      <cc:Work rdf:about="">
        <dc:format>image/svg+xml</dc:format>
        <dc:type rdf:resource="http://purl.org/dc/dcmitype/StillImage"/>
      </cc:Work>
    </rdf:RDF>
  </metadata>
  <path style="fill:currentColor;fill-opacity:1;stroke-width:0.344312" d="M 8.480574,3.3269996 C 8.3403597,3.3235606 8.1999028,3.3237696 8.0596458,3.3276889 6.3765596,3.3746018 4.4769672,3.9526652 3.161096,5.13355 2.226831,5.9785829 1.2292098,7.0290842 1.2374974,8.4571364 1.1527042,8.9599343 1.4213091,9.2073892 1.7567068,9.2411733 l 0.00454,-0.00348 C 2.1874868,8.9076666 2.7064543,8.7077692 3.2574395,8.6963494 3.8095823,8.6849084 4.4225609,8.9005181 4.8389939,9.4356231 l 0.016815,0.020982 0.014877,0.022382 c 0.2706854,0.4083894 0.4362258,0.8624849 0.5256761,1.3288729 0.6863801,0.09631 1.3893459,0.0446 2.0794265,0.0049 0.1989114,-0.0044 0.3841798,-0.03729 0.5657575,-0.079 0.3368369,-0.389249 0.7885498,-0.8360782 1.493613,-0.9511863 l 0.01615,-0.00211 0.016169,-0.00211 c 0.527304,-0.057523 0.980971,0.094686 1.406974,0.4560133 0.09306,0.07893 0.189109,0.184536 0.270922,0.310538 0.231311,-0.6095505 0.931765,-0.385852 0.808881,0.262977 0.583195,0.580765 0.462942,-0.80349 0.903283,-0.632964 0.387316,0.517916 0.829739,1.198121 1.447062,1.365244 0.466785,0.06483 0.996575,-0.102343 1.225282,-0.590999 C 15.992862,10.175827 15.346985,9.4666945 15.069954,8.8012437 14.703919,7.8015892 14.522195,6.7067479 13.912561,5.8315617 12.93139,4.3891417 11.300048,3.7431566 9.7336641,3.4549858 9.3206256,3.380328 8.9012217,3.3372598 8.4805769,3.3269942 Z m 5.105459,5.0112578 c 0.274252,0 0.496578,0.2404879 0.496578,0.5371452 0,0.2966582 -0.222326,0.537145 -0.496578,0.537145 -0.274256,0 -0.49658,-0.2404868 -0.49658,-0.5371447 0,-0.2966576 0.222324,-0.5371455 0.49658,-0.5371455 z M 3.2703691,9.4125476 C 2.8705681,9.4208316 2.4601453,9.5775436 2.1465993,9.8203024 1.563708,10.352404 1.0844304,11.236274 1.1851235,12.111563 c 0.2382372,0.840508 1.082388,1.023931 1.7451405,1.182001 0.6257171,0.130245 1.5341695,0.100453 1.7826429,-0.723189 C 4.9113817,11.67952 4.8310943,10.648458 4.3327129,9.896538 4.0595324,9.5455293 3.6701711,9.4042622 3.2703691,9.4125476 Z m 6.3637181,1.0784874 c -0.690551,0.112743 -1.1003628,0.819004 -1.5977185,1.277819 -0.2793,0.428232 -1.2320355,1.01027 -0.7907776,1.544292 1.304351,0.244837 2.4477605,-0.722409 3.2516909,-1.721245 0.788768,-0.590047 -0.318283,-1.16031 -0.8631948,-1.100866 z" id="path8" class="ColorScheme-Text"/>
  <g id="g9" transform="matrix(0.46959567,0,0,0.46959567,4.7471229,3.7470598)" style="fill:#999999;fill-opacity:1;stroke:none;stroke-width:0.58349;stroke-dasharray:none;stroke-opacity:0.3"/>
  </svg>
