<?xml version='1.0' encoding='UTF-8'?>
<svg xmlns:inkscape="http://www.inkscape.org/namespaces/inkscape" xmlns:sodipodi="http://sodipodi.sourceforge.net/DTD/sodipodi-0.dtd" xmlns="http://www.w3.org/2000/svg" xmlns:svg="http://www.w3.org/2000/svg" xmlns:rdf="http://www.w3.org/1999/02/22-rdf-syntax-ns#" xmlns:cc="http://creativecommons.org/ns#" xmlns:dc="http://purl.org/dc/elements/1.1/" width="64" height="64" version="1.1" viewBox="0 0 16.933 16.933" id="svg7" sodipodi:docname="sublime-merge.svg" inkscape:version="1.4 (e7c3feb100, 2024-10-09)">
  <sodipodi:namedview id="namedview7" pagecolor="#9c4444" bordercolor="#000000" borderopacity="0.25" inkscape:showpageshadow="2" inkscape:pageopacity="0.0" inkscape:pagecheckerboard="0" inkscape:deskcolor="#d1d1d1" inkscape:zoom="6.15625" inkscape:cx="15.837563" inkscape:cy="29.725888" inkscape:window-width="1183" inkscape:window-height="941" inkscape:window-x="35" inkscape:window-y="32" inkscape:window-maximized="0" inkscape:current-layer="svg7" showgrid="false"/>
  <defs id="defs2">
    <style id="current-color-scheme" type="text/css">.ColorScheme-Text {color:#d8dee9} .ColorScheme-Highlight {color:#3b4252}</style></defs>
  <metadata id="metadata2">
    <rdf:RDF>
      <cc:Work rdf:about="">
        <dc:format>image/svg+xml</dc:format>
        <dc:type rdf:resource="http://purl.org/dc/dcmitype/StillImage"/>
      </cc:Work>
    </rdf:RDF>
  </metadata>
  <path id="path7" style="fill:currentColor;fill-opacity:1;stroke:none;stroke-width:0.0496916;stroke-opacity:1" d="m 3.0647782,1.5058406 c -0.010355,9.069e-4 -0.019849,0.00399 -0.028059,0.00857 -0.082253,0.046031 -2.34069668,3.2943188 -2.3298017,3.3508925 0.005472,0.028491 1.058531,0.7790817 2.3407137,1.6680408 1.2821833,0.8889592 2.3382044,1.6158175 2.3461702,1.6158175 0.00796,-2e-7 0.6880973,-0.4743692 1.5113696,-1.0546079 C 7.7284442,6.5143201 8.4454461,6.0107273 8.4991644,5.9760352 8.5751435,5.9269715 8.679919,5.9094193 8.9691777,5.8965297 L 9.3409792,5.8801633 6.308886,3.7436669 C 4.6414989,2.5684705 3.2347434,1.5795774 3.1824775,1.5463739 3.1361693,1.5169507 3.095869,1.5030851 3.0647795,1.5058423 Z M 8.7517073,6.327571 4.7499668,9.1476518 C 2.549403,10.698683 0.73822873,11.983915 0.72484342,12.004367 c -0.013376,0.02044 -0.0246639,0.05447 -0.0249413,0.0756 -5.8026e-4,0.0468 2.23791048,3.257413 2.31187398,3.315815 0.028842,0.02278 0.062841,0.04131 0.075607,0.04131 0.012768,0 1.5861273,-1.080653 3.496651,-2.401509 l 3.4740469,-2.401513 2.053873,0.0015 2.053871,7.99e-4 1.000829,-1.0203108 c 0.550269,-0.560895 1.017718,-1.0518918 1.039015,-1.0912334 0.03046,-0.056249 0.02915,-0.085536 -0.0068,-0.1371857 C 16.173521,8.3515382 15.71337,7.8730543 15.17696,7.324478 L 14.20168,6.3275529 h -2.724987 z" class="ColorScheme-Text"/>
  </svg>
