<?xml version="1.0" encoding="UTF-8" standalone="no"?>
<svg
   width="64"
   height="64"
   version="1.1"
   viewBox="0 0 16.933 16.933"
   id="svg7"
   sodipodi:docname="sunshine.svg"
   inkscape:version="1.4.3 (0d15f75042, 2025-12-25)"
   xmlns:inkscape="http://www.inkscape.org/namespaces/inkscape"
   xmlns:sodipodi="http://sodipodi.sourceforge.net/DTD/sodipodi-0.dtd"
   xmlns="http://www.w3.org/2000/svg"
   xmlns:svg="http://www.w3.org/2000/svg"
   xmlns:rdf="http://www.w3.org/1999/02/22-rdf-syntax-ns#"
   xmlns:cc="http://creativecommons.org/ns#"
   xmlns:dc="http://purl.org/dc/elements/1.1/">
  <sodipodi:namedview
     id="namedview7"
     pagecolor="#9c4444"
     bordercolor="#000000"
     borderopacity="0.25"
     inkscape:showpageshadow="2"
     inkscape:pageopacity="0.0"
     inkscape:pagecheckerboard="0"
     inkscape:deskcolor="#d1d1d1"
     inkscape:zoom="4.3531262"
     inkscape:cx="89.590787"
     inkscape:cy="36.295755"
     inkscape:window-width="2560"
     inkscape:window-height="1388"
     inkscape:window-x="0"
     inkscape:window-y="0"
     inkscape:window-maximized="1"
     inkscape:current-layer="svg7"
     showgrid="false" />
  <defs
     id="defs2">
    <style
       id="current-color-scheme"
       type="text/css">.ColorScheme-Text {color:#d8dee9} .ColorScheme-Highlight {color:#3b4252}</style>
  </defs>
  <metadata
     id="metadata2">
    <rdf:RDF>
      <cc:Work
         rdf:about="">
        <dc:format>image/svg+xml</dc:format>
        <dc:type
           rdf:resource="http://purl.org/dc/dcmitype/StillImage" />
      </cc:Work>
    </rdf:RDF>
  </metadata>
  <path
     id="path5"
     class="ColorScheme-Text"
     d="m 5.2854615,3.3536095 c 0,0 2.0249919,-1.89843 4.7695785,-1.89843 2.744587,0 4.002977,1.4355749 4.563465,2.585481 0.560488,1.149906 1.262005,4.0499849 -0.705132,7.1164015 -1.967135,3.066416 -4.3175716,3.898109 -5.4168537,4.144001 -1.0992809,0.245892 -2.4549349,0.247001 -3.4200029,-0.07116 0,0 2.036259,0.485805 3.8635731,-0.430263 1.8273145,-0.916067 2.9892745,-1.861064 4.2862335,-3.982485 1.296958,-2.1214203 1.499458,-4.2090904 1.282495,-5.4337284 -0.216964,-1.2246341 -0.703926,-2.4540941 -2.111779,-3.2592691 -1.40785,-0.805176 -3.2821736,-0.609306 -4.3091325,-0.262165 -1.0269601,0.347142 -1.704972,0.726828 -2.802445,1.491624 z m 5.3850255,-1.526417 c 1.695262,0.37642 2.754728,1.738659 3.025962,2.922227 0.318213,1.388565 0.34714,3.1315049 -0.665355,5.0697119 -1.012495,1.9382066 -2.162403,3.2399886 -4.5779287,4.4043586 -2.4155248,1.16437 -4.8961408,0.159106 -4.8961408,0.159106 0,0 0.4558869,0.454072 1.3012159,0.771465 a 0.23142768,0.23142768 0 0 1 0.271995,-0.149276 c 0.07202,0.01719 0.07146,0.01714 0.210183,0.03988 0.5548731,0.09099 2.1067911,0.24451 3.4959369,-0.451895 0.9027242,-0.452548 1.6289787,-0.905598 2.2905457,-1.503936 0.661567,-0.59834 1.261633,-1.344845 1.902047,-2.392361 C 14.296253,8.6235594 14.485662,6.5796144 14.280894,5.4238135 14.17528,4.8276806 14.005624,4.2416735 13.699273,3.7125144 13.392923,3.1833555 12.951959,2.7081725 12.282118,2.3250786 11.791319,2.0443815 11.231792,1.8906065 10.670487,1.8271925 Z M 7.9324155,2.2591494 c 0,0 -2.3793661,0.212142 -4.816589,3.531683 -2.43722202,3.319541 -1.627225,8.0493446 1.9815999,8.6423776 3.608825,0.593034 6.7041696,-2.596329 7.7238986,-4.7659636 1.019728,-2.1696349 0.877497,-3.55579 0.564105,-4.5056079 0,0 0.03857,2.106957 -0.771426,3.4521299 -0.809997,1.345173 -1.721243,2.6807036 -3.7655206,3.5967726 -2.044277,0.916068 -4.291055,0.795532 -5.5205139,-1.113746 -1.22946,-1.9092786 -0.34232,-4.4019475 -0.01687,-4.9371246 0.3254449,-0.535176 1.9382059,-3.1435599 4.621321,-3.900521 z m -2.641492,1.8132761 c -0.1358151,0.125974 -0.2645621,0.253329 -0.3861271,0.3802509 -0.760915,0.79445 -1.234643,1.5620431 -1.395911,1.827239 -0.06417,0.1055321 -0.179631,0.3541751 -0.285103,0.679818 -0.105473,0.325644 -0.2050669,0.7332801 -0.257419,1.1801911 -0.1047029,0.893824 -0.01999,1.9368085 0.5561951,2.8315985 0.581189,0.902554 1.382059,1.367794 2.296423,1.513095 0.914363,0.1453 1.945073,-0.04168 2.9348829,-0.485229 C 9.7494116,11.55327 10.460098,11.010801 11.026103,10.41386 11.426915,9.9911432 11.755066,9.5399734 12.055437,9.0751275 11.29289,10.091178 10.211066,10.947105 8.6267365,11.468054 5.7821054,12.403408 3.0242205,10.45552 3.6317184,7.1094615 3.8627655,5.8368706 4.5401275,4.8307654 5.2909235,4.0724255 Z"
     style="fill:currentColor;stroke-width:0.0578569" />
</svg>
