<?xml version="1.0" encoding="UTF-8" standalone="no"?>
<svg
   width="64"
   height="64"
   version="1.1"
   viewBox="0 0 16.933 16.933"
   id="svg7"
   sodipodi:docname="supertuxkart-v2.svg"
   inkscape:version="1.4.2 (ebf0e940d0, 2025-05-08)"
   xmlns:inkscape="http://www.inkscape.org/namespaces/inkscape"
   xmlns:sodipodi="http://sodipodi.sourceforge.net/DTD/sodipodi-0.dtd"
   xmlns="http://www.w3.org/2000/svg"
   xmlns:svg="http://www.w3.org/2000/svg"
   xmlns:rdf="http://www.w3.org/1999/02/22-rdf-syntax-ns#"
   xmlns:cc="http://creativecommons.org/ns#"
   xmlns:dc="http://purl.org/dc/elements/1.1/">
  <sodipodi:namedview
     id="namedview7"
     pagecolor="#9c4444"
     bordercolor="#000000"
     borderopacity="0.25"
     inkscape:showpageshadow="2"
     inkscape:pageopacity="0.0"
     inkscape:pagecheckerboard="0"
     inkscape:deskcolor="#d1d1d1"
     inkscape:zoom="12.3125"
     inkscape:cx="35.167513"
     inkscape:cy="48"
     inkscape:window-width="2560"
     inkscape:window-height="1392"
     inkscape:window-x="0"
     inkscape:window-y="0"
     inkscape:window-maximized="1"
     inkscape:current-layer="svg7"
     showgrid="false" />
  <defs
     id="defs2">
    <style
       id="current-color-scheme"
       type="text/css">.ColorScheme-Text {color:#d8dee9} .ColorScheme-Highlight {color:#3b4252}</style>
  </defs>
  <metadata
     id="metadata2">
    <rdf:RDF>
      <cc:Work
         rdf:about="">
        <dc:format>image/svg+xml</dc:format>
        <dc:type
           rdf:resource="http://purl.org/dc/dcmitype/StillImage" />
      </cc:Work>
    </rdf:RDF>
  </metadata>
  <path
     id="path28"
     style="fill:currentColor;fill-opacity:1;stroke-width:0.011827;stroke-linejoin:bevel;paint-order:fill markers stroke"
     class="ColorScheme-Text"
     d="M 9.7496006 3.1144773 C 9.7052606 3.114421 9.6884636 3.1238627 9.6886236 3.1723537 L 9.6891403 3.3521842 C 9.6892973 3.4013552 9.7166108 3.4053279 9.7511508 3.4054099 L 10.930901 3.4079936 C 10.948421 3.4080343 11.004821 3.4107437 11.010481 3.3511507 C 11.010058 3.3098887 11.012031 3.1790715 11.012031 3.1790715 C 11.012 3.1512655 11.003111 3.1160625 10.975341 3.1160275 L 9.7496006 3.1144773 z M 7.064546 3.1258459 L 7.0764313 4.0663384 L 6.3271378 4.0802908 L 6.2997498 3.1315302 L 6.0041665 3.1346307 L 6.0062335 4.0554866 L 6.1323215 4.0074284 A 0.14785237 0.14785237 0 0 1 6.1907147 3.9981269 A 0.14785237 0.14785237 0 0 1 6.3173195 4.0792573 L 6.4542593 4.3515867 L 7.1487769 4.3500364 C 7.2885099 4.3496925 7.4146913 4.2706089 7.4128383 4.138684 C 7.4022183 3.3819755 7.3988859 3.1320469 7.3988859 3.1320469 L 7.064546 3.1258459 z M 11.423367 3.1335972 C 11.367117 3.1388972 11.32706 3.1612042 11.34172 3.241082 L 11.341203 4.3562375 C 11.457494 4.3595875 11.573692 4.3577213 11.690012 4.3588213 L 11.683295 3.924231 L 11.920485 3.924231 L 12.389698 4.3583045 L 12.762794 4.3469359 L 12.75711 4.2327332 L 12.340606 3.8875415 L 12.543173 3.8823739 C 12.625823 3.8334379 12.632491 3.7903229 12.648591 3.7263142 L 12.650142 3.2891402 C 12.632696 3.188607 12.530708 3.1452249 12.42122 3.1516836 L 11.423367 3.1335972 z M 4.3495197 3.1449658 C 4.2665897 3.144778 4.1667272 3.2130386 4.1634882 3.26847 C 4.1560882 3.3943466 4.1510971 3.5074039 4.1572871 3.6343319 C 4.1631871 3.7563283 4.2285751 3.8319193 4.3066291 3.8348326 C 4.6087571 3.8461096 4.8900775 3.8374504 5.1928625 3.8415504 L 5.1882117 4.0534196 L 4.451837 4.0513525 L 4.4482197 3.9438677 L 4.1464353 3.9412839 C 4.1464673 4.0209919 4.1303155 4.1008335 4.1671055 4.1805411 C 4.1875855 4.2249141 4.23377 4.3262657 4.325749 4.3262657 L 5.2936295 4.3262657 L 5.4476223 4.2678725 C 5.4751423 4.2260885 5.475317 4.1750969 5.475527 4.1603877 L 5.4812113 3.7526686 C 5.4795113 3.6605016 5.3523638 3.6024645 5.2698588 3.6012597 L 4.4601051 3.5893743 L 4.4580381 3.396625 L 5.1944127 3.3878402 L 5.1949295 3.516512 L 5.4703594 3.512378 C 5.4629594 3.2687794 5.4907949 3.3614302 5.4631249 3.26847 C 5.4461149 3.211305 5.3857623 3.1472487 5.2962133 3.1470328 L 4.3495197 3.1449658 z M 7.9321762 3.1490998 C 7.9321762 3.1490998 7.9289081 3.894993 7.9239081 4.2678725 C 7.9235111 4.2971455 7.9270485 4.3442634 7.9652485 4.3438354 L 8.2179413 4.3407349 C 8.2502313 4.3403645 8.2628089 4.2960285 8.2628989 4.2637385 L 8.2639324 3.9185467 L 9.0757531 3.9195802 C 9.1658031 3.9196991 9.3135405 3.7943255 9.3124265 3.6932419 L 9.3088093 3.358902 C 9.3086213 3.342335 9.268446 3.1523021 9.090739 3.1542673 C 8.693295 3.1586673 8.3296212 3.1487798 7.9321762 3.1490998 z M 12.314768 3.4090271 L 12.316318 3.6462173 L 11.67761 3.6462173 L 11.67606 3.4110941 L 12.314768 3.4090271 z M 8.2897701 3.4100606 L 8.9600002 3.4234962 L 8.9656845 3.6410497 L 8.2897701 3.6420833 L 8.2897701 3.4100606 z M 10.601211 3.5800728 L 9.7496006 3.581623 C 9.7052606 3.58172 9.6884636 3.5910085 9.6886236 3.6394995 L 9.6891403 3.8193299 C 9.6892973 3.8685009 9.7166108 3.8725826 9.7511508 3.8725556 L 10.556771 3.8720388 C 10.574291 3.8720231 10.636041 3.8738821 10.636351 3.8146791 C 10.641951 3.7629061 10.637901 3.6431168 10.637901 3.6431168 C 10.637869 3.6153108 10.628981 3.5800098 10.601211 3.5800728 z M 9.7496006 4.0492855 C 9.7052606 4.0492292 9.6884636 4.058671 9.6886236 4.107162 L 9.6891403 4.2864757 C 9.6892973 4.3356467 9.7166108 4.3396194 9.7511508 4.3397014 L 10.930901 4.3428019 C 10.948421 4.3428424 11.014821 4.3379652 11.010481 4.2854422 C 11.008281 4.2546602 11.012031 4.1138798 11.012031 4.1138798 C 11.012 4.0860738 11.003111 4.0508698 10.975341 4.0508358 L 9.7496006 4.0492855 z M 6.1126848 4.3407349 L 5.4517563 4.5923941 L 5.4269521 4.5918774 L 4.7954785 4.8321681 L 4.8202827 4.8321681 L 2.2086072 5.8248528 C 2.4211822 6.4909533 2.5623869 7.1947694 2.7935729 7.8143563 L 3.857053 7.2841665 A 0.14785237 0.14785237 0 0 1 4.0616876 7.3647802 L 4.4389182 8.378135 L 4.4384014 8.3786518 L 4.4384014 8.3791685 L 4.4384014 8.3796853 L 4.4384014 8.3802021 L 4.4384014 8.3807188 L 4.4384014 8.3812356 L 4.579992 8.7579493 L 4.579992 8.7584661 L 4.579992 8.7589828 L 4.6916109 9.0576667 L 4.6916109 9.0581835 L 4.6916109 9.0587003 L 4.6921277 9.059217 L 4.6983287 9.0747196 L 4.7252 9.1470652 L 6.1979493 8.5486639 L 5.4171338 6.7121197 A 0.14785237 0.14785237 0 0 1 5.4936134 6.5193704 L 6.0331047 6.2811467 L 6.3276546 6.1514414 L 6.3307551 6.6397741 L 6.3307551 6.6413243 L 6.3312719 6.7374406 L 6.5198871 8.5496974 L 6.532806 8.5807027 A 0.14785237 0.14785237 0 0 1 6.5446913 8.6292776 C 6.8560903 8.8810342 7.1726758 9.1626371 7.4748488 9.4106098 C 7.5082588 9.4277698 7.5294895 9.4332905 7.5384095 9.4343805 L 9.8896409 9.2090757 L 10.076189 9.0840212 L 10.124764 9.0328625 A 0.14785237 0.14785237 0 0 1 10.328365 9.0240777 L 10.544885 9.2121762 L 10.550569 9.2095925 L 11.678127 8.2758177 A 0.14785237 0.14785237 0 0 1 11.908599 8.3316272 L 12.451191 9.6049094 L 14.151312 9.0674851 L 13.133307 7.2252565 A 0.14785237 0.14785237 0 0 1 13.17103 7.0381915 L 14.896472 5.6718936 L 14.905257 5.6181511 L 13.396335 5.0517886 L 12.515786 5.8103837 A 0.14785237 0.14785237 0 0 1 12.290481 5.7705936 L 11.775277 4.8476707 L 11.780961 4.8476707 L 11.684328 4.6750748 L 10.970174 4.8456037 L 11.009447 4.8456037 L 10.684409 4.9236335 A 0.14785237 0.14785237 0 0 1 10.51698 4.8445702 L 10.522148 4.8445702 A 0.14785237 0.14785237 0 0 1 10.504578 4.7980623 L 10.496827 4.758789 L 9.0375133 4.8270005 L 9.0375133 4.8368188 L 9.0369966 4.8368188 L 9.0943563 7.2939848 A 0.14785237 0.14785237 0 0 1 9.0344128 7.4159388 L 8.8013567 7.5880179 A 0.14785237 0.14785237 0 0 1 8.7191928 7.6169562 L 8.1936538 7.6371096 A 0.14785237 0.14785237 0 0 1 8.0716998 7.5813001 L 7.8205573 7.2634963 A 0.14785237 0.14785237 0 0 1 7.7890353 7.184433 C 7.7397453 6.605543 7.7164179 6.3158699 7.7058379 6.1695278 C 7.7005379 6.0963568 7.6980698 6.0605065 7.6975698 6.0356885 C 7.6973188 6.0232795 7.6955703 6.0175964 7.7006703 5.9896974 C 7.7007643 5.9891417 7.7011081 5.9877236 7.7011871 5.9871136 C 7.7006581 5.9722996 7.6990693 5.9444139 7.6944693 5.8801455 C 7.6855693 5.7573884 7.659894 5.4412935 7.623674 5.0125153 C 7.351229 5.0279273 7.0765551 5.0458233 6.7994511 5.0543723 L 6.4749295 5.0631572 L 6.4728625 5.0595399 C 6.4720955 5.0595389 6.4714955 5.0595412 6.4707955 5.0595399 L 6.322487 4.7551717 C 6.323587 4.7551958 6.3250043 4.7551485 6.3261043 4.7551717 L 6.2449739 4.5944612 L 6.2403231 4.5944612 L 6.1126848 4.3407349 z M 3.1165443 4.5794753 L 3.114994 4.8285508 L 3.9681551 4.830101 L 4.6006622 4.5898104 L 3.2658862 4.5861931 L 3.1165443 4.5794753 z M 6.5767301 4.5949779 L 6.656827 4.7546549 C 7.017906 4.7467249 7.38297 4.718573 7.751829 4.699879 A 0.14785237 0.14785237 0 0 1 7.8965202 4.8388859 L 7.9042715 4.8388859 L 7.9063385 4.8347518 C 7.9064525 4.8360718 7.9067383 4.8375659 7.9068553 4.8388859 L 8.74193 4.8409529 L 8.7383127 4.6895439 A 0.14785237 0.14785237 0 0 1 8.7657007 4.601179 L 6.5767301 4.5949779 z M 11.986629 4.609447 L 12.119435 4.8481874 L 13.165862 4.8502545 L 13.26973 4.760856 A 0.14785237 0.14785237 0 0 1 13.418038 4.7345015 L 13.708454 4.8435367 L 13.70587 4.6140978 L 11.986629 4.609447 z M 10.570206 5.8134842 L 11.1221 6.936391 L 10.617231 7.3373922 L 10.570206 5.8134842 z M 3.8177797 8.7688012 L 2.5171095 8.7956724 L 1.5171902 12.416569 C 1.4967502 12.490539 1.4675697 12.580037 1.4551797 12.644457 L 3.4457167 12.667194 L 3.5092774 11.853823 A 0.14785237 0.14785237 0 0 1 3.7893582 11.800081 L 4.7779089 13.813872 L 5.1148326 13.633525 L 5.1143158 13.633008 L 5.4992977 13.42734 L 6.0821964 13.463513 L 6.5839646 13.497618 L 6.7172872 12.992233 L 6.8650789 12.882164 L 7.4479776 12.900767 L 7.5869844 13.01342 L 7.720307 13.562213 L 8.8654342 13.651094 L 8.8948892 13.66608 L 8.9930725 13.674348 L 9.0581835 13.810771 L 10.269972 13.655228 L 10.360921 13.636109 L 10.347485 13.204619 L 10.306145 12.638773 L 10.618781 13.11522 L 10.655987 13.171547 L 10.71283 13.258361 L 11.053371 13.7808 L 12.397449 13.263529 L 12.372128 13.244409 L 12.575729 13.103335 L 12.574179 13.390134 L 12.579346 13.394268 L 14.305305 13.196351 L 14.038143 11.323634 L 14.179217 11.155172 L 15.47782 11.105563 L 15.362067 9.370303 L 14.442245 9.3914899 L 14.441728 9.3920067 L 14.102221 9.401825 L 14.088785 9.4023418 L 14.058297 9.4033753 L 14.05778 9.4033753 L 14.009722 9.4183611 L 14.010239 9.4188779 L 13.68365 9.5222287 L 12.181446 9.996609 L 12.027453 9.5873398 L 11.697764 9.622479 L 11.678644 9.620412 L 11.610949 9.6064597 L 11.49623 9.5434156 L 11.086444 9.3067422 L 10.705079 9.4659025 L 10.638418 9.5211952 A 0.14785237 0.14785237 0 0 1 10.447219 9.5186115 L 10.377974 9.458668 L 9.9402828 9.5273963 L 9.8855069 9.5470329 C 8.7286889 9.6562783 9.3044721 9.5961286 8.6091241 9.6467665 L 8.8189263 11.879144 L 8.1476627 9.6824225 C 7.9878397 9.6950715 7.7963543 9.7105441 7.5663143 9.7294471 C 7.5613143 9.7298439 7.5566752 9.7297787 7.5518452 9.7299639 L 7.5513284 9.7299639 L 7.474332 9.7377152 A 0.14785237 0.14785237 0 0 1 7.3673639 9.7056765 C 7.3463039 9.6886935 7.3254699 9.671304 7.3043199 9.654001 C 7.2559899 9.627002 7.2146071 9.602084 7.1756481 9.582689 L 6.5436578 9.5330806 L 6.5374568 9.5516837 L 6.53694 9.5522005 L 6.5364232 9.5527172 L 6.5359065 9.553234 L 6.5353897 9.5537507 L 6.3808802 10.050868 L 6.3798467 10.051902 L 5.9338879 11.468842 L 5.8393219 11.790779 L 5.8424224 11.796464 L 5.7261527 12.187647 L 5.7240857 12.183513 L 5.7230522 12.18558 L 5.5194511 11.831086 L 5.5199678 11.828503 L 5.1179331 11.129851 A 0.14785237 0.14785237 0 0 1 5.1380865 10.955188 L 6.1178524 9.8994593 L 6.1679775 9.7408157 L 5.5210013 9.1594673 L 4.3831087 9.6219623 L 3.9841745 10.020896 A 0.14785237 0.14785237 0 0 1 3.7319985 9.9056603 L 3.8177797 8.7688012 z M 10.404845 10.329915 L 10.658054 10.499411 L 10.802746 11.001179 L 10.658054 11.189278 L 10.069988 11.302447 L 9.9573357 10.461688 L 10.404845 10.329915 z M 12.154058 11.217699 L 12.560226 11.221316 C 12.560226 11.221316 12.587692 12.840466 12.575212 13.102818 L 11.451272 11.968026 L 11.838838 11.91015 L 12.202116 11.516383 L 12.154058 11.217699 z M 7.1766816 11.302447 L 7.3859671 12.081712 L 6.9859994 12.02797 C 6.9760994 11.97684 7.1766816 11.302447 7.1766816 11.302447 z " />
</svg>
