<?xml version="1.0" encoding="UTF-8" standalone="no"?>
<svg
   width="64"
   height="64"
   version="1.1"
   viewBox="0 0 16.933 16.933"
   id="svg7"
   sodipodi:docname="swappy.svg"
   inkscape:version="1.4.3 (0d15f75042, 2025-12-25)"
   xmlns:inkscape="http://www.inkscape.org/namespaces/inkscape"
   xmlns:sodipodi="http://sodipodi.sourceforge.net/DTD/sodipodi-0.dtd"
   xmlns="http://www.w3.org/2000/svg"
   xmlns:svg="http://www.w3.org/2000/svg"
   xmlns:rdf="http://www.w3.org/1999/02/22-rdf-syntax-ns#"
   xmlns:cc="http://creativecommons.org/ns#"
   xmlns:dc="http://purl.org/dc/elements/1.1/">
  <sodipodi:namedview
     id="namedview7"
     pagecolor="#9c4444"
     bordercolor="#000000"
     borderopacity="0.25"
     inkscape:showpageshadow="2"
     inkscape:pageopacity="0.0"
     inkscape:pagecheckerboard="0"
     inkscape:deskcolor="#d1d1d1"
     inkscape:zoom="6.15625"
     inkscape:cx="15.837563"
     inkscape:cy="27.28934"
     inkscape:window-width="2560"
     inkscape:window-height="1388"
     inkscape:window-x="0"
     inkscape:window-y="0"
     inkscape:window-maximized="1"
     inkscape:current-layer="svg7"
     showgrid="false" />
  <defs
     id="defs2">
    <filter
       style="color-interpolation-filters:sRGB;"
       inkscape:label="Blur"
       id="filter1283"
       x="-0.082344266"
       y="-0.082344266"
       width="1.1646885"
       height="1.1646885">
      <feGaussianBlur
         stdDeviation="0.5 0.5"
         result="blur"
         id="feGaussianBlur1281" />
    </filter>
    <style
       id="current-color-scheme"
       type="text/css">.ColorScheme-Text {color:#d8dee9} .ColorScheme-Highlight {color:#3b4252}</style>
  </defs>
  <metadata
     id="metadata2">
    <rdf:RDF>
      <cc:Work
         rdf:about="">
        <dc:format>image/svg+xml</dc:format>
        <dc:type
           rdf:resource="http://purl.org/dc/dcmitype/StillImage" />
      </cc:Work>
    </rdf:RDF>
  </metadata>
  <path
     id="path5"
     style="fill:currentColor"
     d="m 8.873064,1.45518 c -1.495336,0 -2.673487,0.32213 -3.534438,0.96642 -0.860951,0.64428 -1.291403,1.52228 -1.291403,2.63398 0,1.81915 1.238543,3.10141 3.715666,3.84676 l 1.925824,0.56849 c 0.679698,0.20213 1.2159,0.51793 1.608614,0.94745 0.392715,0.41689 0.589083,0.90329 0.589083,1.45914 0,0.64428 -0.27189,1.15592 -0.815649,1.53491 -0.543759,0.36635 -1.298975,0.54952 -2.265657,0.54952 -0.748366,0 -1.380989,-0.12503 -1.897853,-0.37512 h -3.1e-5 l -2.123036,0.70146 c 0.07584,0.0638 0.154937,0.12561 0.237262,0.18528 0.453133,0.31583 0.996883,0.56219 1.631268,0.73906 0.634385,0.17686 1.336758,0.26529 2.107083,0.26529 1.616171,0 2.884942,-0.32216 3.80631,-0.96645 0.936474,-0.65691 1.404702,-1.55384 1.404702,-2.69081 0,-0.94748 -0.309636,-1.76231 -0.928916,-2.44449 C 12.437717,8.68125 11.561653,8.16332 10.413718,7.82223 L 8.397279,7.21584 C 7.581642,6.96318 6.992566,6.65365 6.63006,6.28729 6.267554,5.92094 6.086314,5.45984 6.086314,4.90398 c 0,-0.59375 0.249213,-1.06115 0.747658,-1.40224 0.498446,-0.35372 1.170592,-0.53059 2.016439,-0.53059 0.65887,0.006 1.14546,0.19766 1.584147,0.39006 h 2.800089 C 13.022193,3.00633 12.747216,2.70183 12.384849,2.44056 11.961925,2.12474 11.448372,1.8847 10.844196,1.72047 10.255124,1.54361 9.598076,1.45518 8.873064,1.45518 Z m 1.215728,2.08446 v 3.8882 h 4.728281 V 3.53964 Z M 3.100786,7.77889 2.115927,14.98433 9.469279,12.55475 Z"
     class="ColorScheme-Text" />
</svg>
