<?xml version='1.0' encoding='UTF-8'?>
<svg xmlns:inkscape="http://www.inkscape.org/namespaces/inkscape" xmlns:sodipodi="http://sodipodi.sourceforge.net/DTD/sodipodi-0.dtd" xmlns="http://www.w3.org/2000/svg" xmlns:svg="http://www.w3.org/2000/svg" style="clip-rule:evenodd;fill-rule:evenodd;stroke-linejoin:round;stroke-miterlimit:2" viewBox="0 0 16 16" version="1.1" id="svg2" sodipodi:docname="system-log-out.svg" inkscape:version="1.4.2 (ebf0e940d0, 2025-05-08)">
  <defs id="defs2"><style id="current-color-scheme" type="text/css">.ColorScheme-Text {color:#d8dee9} .ColorScheme-Highlight {color:#3b4252}</style></defs>
  <sodipodi:namedview id="namedview2" pagecolor="#505050" bordercolor="#eeeeee" borderopacity="1" inkscape:showpageshadow="0" inkscape:pageopacity="0" inkscape:pagecheckerboard="0" inkscape:deskcolor="#505050" inkscape:zoom="74.125" inkscape:cx="8" inkscape:cy="8" inkscape:window-width="2560" inkscape:window-height="1391" inkscape:window-x="0" inkscape:window-y="0" inkscape:window-maximized="1" inkscape:current-layer="svg2"/>
  <path d="M 8,1.5 C 4.4336667,1.5 1.5,4.4336667 1.5,8 c 0,3.566333 2.9336667,6.5 6.5,6.5 3.566333,0 6.5,-2.933667 6.5,-6.5 C 14.5,4.4336667 11.566333,1.5 8,1.5 Z m 0,1.2306667 c 2.890333,0 5.269333,2.379 5.269333,5.2693333 0,2.890333 -2.379,5.269333 -5.269333,5.269333 -2.8903333,0 -5.2693333,-2.379 -5.2693333,-5.269333 0,-2.8903333 2.379,-5.2693333 5.2693333,-5.2693333 z" fill="currentColor" id="path99" style="stroke-width:1.08333" class="ColorScheme-Text"/>
  <path style="fill:currentColor;fill-opacity:1;stroke:currentColor;stroke-width:0.764706;stroke-dasharray:none;stroke-opacity:1" d="M 9.2590761,4.9411764 6.7409238,7.4593291 6.2002529,7.9999999 6.7409238,8.5406706 9.2590761,11.058824 9.7997471,10.518153 7.2815947,7.9999999 9.7997471,5.4818473 Z" class="ColorScheme-Text" id="path1-6" sodipodi:nodetypes="ccccccccc"/>
</svg>
