<?xml version='1.0' encoding='UTF-8'?>
<svg xmlns:inkscape="http://www.inkscape.org/namespaces/inkscape" xmlns:sodipodi="http://sodipodi.sourceforge.net/DTD/sodipodi-0.dtd" xmlns="http://www.w3.org/2000/svg" xmlns:svg="http://www.w3.org/2000/svg" xmlns:serif="http://www.serif.com/" style="clip-rule:evenodd;fill-rule:evenodd;stroke-linejoin:round;stroke-miterlimit:2" viewBox="0 0 16 16" version="1.1" id="svg2" sodipodi:docname="system-reboot.svg" inkscape:version="1.4.2 (ebf0e940d0, 2025-05-08)">
  <defs id="defs2"><style id="current-color-scheme" type="text/css">.ColorScheme-Text {color:#d8dee9} .ColorScheme-Highlight {color:#3b4252}</style></defs>
  <sodipodi:namedview id="namedview2" pagecolor="#505050" bordercolor="#eeeeee" borderopacity="1" inkscape:showpageshadow="0" inkscape:pageopacity="0" inkscape:pagecheckerboard="0" inkscape:deskcolor="#505050" inkscape:zoom="74.125" inkscape:cx="8" inkscape:cy="8" inkscape:window-width="2560" inkscape:window-height="1391" inkscape:window-x="0" inkscape:window-y="0" inkscape:window-maximized="1" inkscape:current-layer="svg2"/>
  <path d="M 8,1.5 C 4.4336667,1.5 1.5,4.4336667 1.5,8 c 0,3.566333 2.9336667,6.5 6.5,6.5 3.566333,0 6.5,-2.933667 6.5,-6.5 C 14.5,4.4336667 11.566333,1.5 8,1.5 Z m 0,1.2306667 c 2.890333,0 5.269333,2.379 5.269333,5.2693333 0,2.890333 -2.379,5.269333 -5.269333,5.269333 -2.8903333,0 -5.2693333,-2.379 -5.2693333,-5.269333 0,-2.8903333 2.379,-5.2693333 5.2693333,-5.2693333 z" fill="currentColor" id="path99" style="stroke-width:1.08333" class="ColorScheme-Text"/>
  <g id="Reload-Icon" transform="matrix(0.20833333,0.20833333,-0.20833333,0.20833333,582.58332,-874.91665)" serif:id="Reload Icon" style="clip-rule:evenodd;fill-rule:evenodd;stroke-linejoin:round;stroke-miterlimit:2">
    <path d="m 752,3495 h -9.039 l 3.378,-3.36 c -1.636,-1.63 -3.895,-2.64 -6.392,-2.64 -4.601,0 -8.397,3.42 -8.963,7.85 0,0 -0.173,1.15 -1.478,1.15 -0.831,0 -1.505,-0.67 -1.505,-1.5 0,-0.11 0.013,-0.22 0.037,-0.33 0.886,-5.76 5.878,-10.17 11.909,-10.17 3.329,0 6.342,1.34 8.523,3.51 L 752,3486 Z m -24,6 h 9.039 l -3.378,3.36 c 1.635,1.63 3.895,2.64 6.392,2.64 4.601,0 8.397,-3.42 8.963,-7.85 0,0 0.173,-1.15 1.478,-1.15 0.831,0 1.505,0.67 1.505,1.5 0,0.11 -0.013,0.22 -0.037,0.33 -0.886,5.76 -5.878,10.17 -11.909,10.17 -3.329,0 -6.342,-1.34 -8.523,-3.51 L 728,3510 Z" fill="currentColor" id="path1-3" style="" class="ColorScheme-Text"/>
  </g>
</svg>
