<?xml version='1.0' encoding='UTF-8'?>
<svg xmlns:inkscape="http://www.inkscape.org/namespaces/inkscape" xmlns:sodipodi="http://sodipodi.sourceforge.net/DTD/sodipodi-0.dtd" xmlns="http://www.w3.org/2000/svg" xmlns:svg="http://www.w3.org/2000/svg" style="clip-rule:evenodd;fill-rule:evenodd;stroke-linejoin:round;stroke-miterlimit:2" viewBox="0 0 16 16" version="1.1" id="svg2" sodipodi:docname="system-shutdown.svg" inkscape:version="1.4.2 (ebf0e940d0, 2025-05-08)">
  <defs id="defs2"><style id="current-color-scheme" type="text/css">.ColorScheme-Text {color:#d8dee9} .ColorScheme-Highlight {color:#3b4252}</style></defs>
  <sodipodi:namedview id="namedview2" pagecolor="#505050" bordercolor="#eeeeee" borderopacity="1" inkscape:showpageshadow="0" inkscape:pageopacity="0" inkscape:pagecheckerboard="0" inkscape:deskcolor="#505050" inkscape:zoom="74.125" inkscape:cx="8" inkscape:cy="8" inkscape:window-width="2560" inkscape:window-height="1391" inkscape:window-x="0" inkscape:window-y="0" inkscape:window-maximized="1" inkscape:current-layer="svg2"/>
  <path d="M 8,1.5 C 4.4336667,1.5 1.5,4.4336667 1.5,8 c 0,3.566333 2.9336667,6.5 6.5,6.5 3.566333,0 6.5,-2.933667 6.5,-6.5 C 14.5,4.4336667 11.566333,1.5 8,1.5 Z m 0,1.2306667 c 2.890333,0 5.269333,2.379 5.269333,5.2693333 0,2.890333 -2.379,5.269333 -5.269333,5.269333 -2.8903333,0 -5.2693333,-2.379 -5.2693333,-5.269333 0,-2.8903333 2.379,-5.2693333 5.2693333,-5.2693333 z" fill="currentColor" id="path99" style="stroke-width:1.08333" class="ColorScheme-Text"/>
  <path d="M 11.062065,6.757373 C 10.823087,6.2791713 10.48688,5.8783074 10.053439,5.5547821 9.928356,5.459538 9.787361,5.4224873 9.630197,5.4433768 9.472787,5.4640128 9.347704,5.5383718 9.255941,5.6659418 9.160691,5.7907758 9.12464,5.9310303 9.146769,6.0869479 c 0.02188,0.1559207 0.09574,0.2812536 0.220573,0.3762444 0.290699,0.2198287 0.516,0.4886453 0.674654,0.8064522 0.158903,0.3175559 0.238232,0.6562522 0.238232,1.0153387 0,0.3088517 -0.05993,0.6035339 -0.180533,0.884287 C 9.979336,9.4497755 9.816952,9.6927315 9.612292,9.8976395 9.407135,10.1023 9.164677,10.264934 8.883924,10.385289 8.603422,10.505649 8.30849,10.56583 7.999885,10.56583 c -0.308851,0 -0.6035336,-0.06018 -0.8842875,-0.180541 C 6.8350919,10.264932 6.5921393,10.102299 6.3874798,9.8976395 6.1828195,9.6927315 6.0201853,9.4497765 5.8998285,9.1692706 5.7794713,8.8887635 5.7195409,8.5938371 5.7195409,8.2849836 c 0,-0.3590854 0.079325,-0.6977817 0.2382312,-1.0153391 C 6.1166747,6.9518391 6.3414776,6.6830202 6.6326751,6.4631923 6.7572597,6.3681977 6.8308698,6.2428686 6.8529989,6.0869479 6.8753737,5.9310273 6.8390524,5.7907766 6.7438272,5.6659418 6.6518184,5.5383714 6.5279784,5.4640205 6.3720616,5.4433768 6.2161409,5.4225138 6.0741479,5.4595531 5.9465779,5.5547859 5.5128907,5.8783135 5.1766801,6.2791754 4.937704,6.7573772 4.6987283,7.2353298 4.57911,7.7446158 4.57911,8.2849862 c 0,0.4632794 0.09052,0.9056731 0.2717972,1.3274253 0.1810356,0.4217535 0.4244893,0.7855635 0.7303574,1.0914325 0.3056239,0.305624 0.6694329,0.549324 1.0914338,0.730359 0.4217534,0.181036 0.8641448,0.271796 1.3274256,0.271796 0.462785,0 0.905674,-0.09076 1.327177,-0.271796 0.421754,-0.181035 0.785564,-0.424736 1.091434,-0.730359 0.30587,-0.305869 0.549322,-0.66968 0.730358,-1.0914325 0.181285,-0.4217529 0.271797,-0.8641444 0.271797,-1.3274256 0,-0.5403701 -0.119361,-1.0496561 -0.35859,-1.5276091 z m -3.06243,1.5278574 c 0.154424,0 0.288215,-0.056447 0.400864,-0.1693455 C 8.513393,8.0029904 8.569848,7.8694446 8.569848,7.7150203 V 4.8642106 C 8.569848,4.7097829 8.513398,4.5762484 8.400499,4.463346 8.28785,4.3504477 8.154059,4.2940005 7.999635,4.2940005 7.845207,4.2940005 7.711672,4.3504477 7.59877,4.463346 7.4858759,4.5762405 7.4294249,4.7097863 7.4294249,4.8642106 v 2.850807 c 0,0.1544239 0.056447,0.2879622 0.1693451,0.4008646 0.112649,0.1128983 0.246184,0.1693493 0.400865,0.1693482 z" id="path5" style="fill:currentColor;fill-opacity:1;stroke-width:0.248674" class="ColorScheme-Text"/>
</svg>
