<?xml version='1.0' encoding='UTF-8'?>
<svg xmlns:inkscape="http://www.inkscape.org/namespaces/inkscape" xmlns:sodipodi="http://sodipodi.sourceforge.net/DTD/sodipodi-0.dtd" xmlns="http://www.w3.org/2000/svg" xmlns:svg="http://www.w3.org/2000/svg" xmlns:rdf="http://www.w3.org/1999/02/22-rdf-syntax-ns#" xmlns:cc="http://creativecommons.org/ns#" xmlns:dc="http://purl.org/dc/elements/1.1/" width="64" height="64" version="1.1" viewBox="0 0 16.933 16.933" id="svg7" sodipodi:docname="system-software-update.svg" inkscape:version="1.4 (e7c3feb100, 2024-10-09)">
  <sodipodi:namedview id="namedview7" pagecolor="#9c4444" bordercolor="#000000" borderopacity="0.25" inkscape:showpageshadow="2" inkscape:pageopacity="0.0" inkscape:pagecheckerboard="0" inkscape:deskcolor="#d1d1d1" inkscape:zoom="6.15625" inkscape:cx="31.431472" inkscape:cy="40.446701" inkscape:window-width="1183" inkscape:window-height="941" inkscape:window-x="35" inkscape:window-y="32" inkscape:window-maximized="0" inkscape:current-layer="svg7" showgrid="false"/>
  <defs id="defs2">
    <style id="current-color-scheme" type="text/css">.ColorScheme-Text {color:#d8dee9} .ColorScheme-Highlight {color:#3b4252}</style></defs>
  <metadata id="metadata2">
    <rdf:RDF>
      <cc:Work rdf:about="">
        <dc:format>image/svg+xml</dc:format>
        <dc:type rdf:resource="http://purl.org/dc/dcmitype/StillImage"/>
      </cc:Work>
    </rdf:RDF>
  </metadata>
  <path d="m 8.5371038,2.7533798 c -3.1057761,0 -5.6399809,2.4272356 -5.8286084,5.4857496 H 0.88870375 L 3.816196,12.617182 6.7436869,8.2391294 H 4.6601566 C 4.8399232,6.2547661 6.5052689,4.7050403 8.5371038,4.7050403 c 0.7515497,0 1.4627982,0.2124692 2.0571582,0.5802254 L 11.596463,3.6237178 C 10.70672,3.0766173 9.6574654,2.7533798 8.5371038,2.7533798 Z M 13.152522,4.441303 10.22503,8.8193548 h 2.083531 c -0.179759,1.9843632 -1.845114,3.5340892 -3.8769498,3.5340892 -0.7515495,0 -1.4627971,-0.212469 -2.0571558,-0.580225 l -1.0022077,1.661548 c 0.8897482,0.547101 1.9390042,0.870337 3.0593635,0.870337 3.1057758,0 5.6399818,-2.427233 5.8286068,-5.485749 h 1.819793 z" style="clip-rule:evenodd;fill:currentColor;fill-opacity:1;fill-rule:evenodd;stroke-width:0.210989;stroke-linejoin:round;stroke-miterlimit:1.41421" id="path2" class="ColorScheme-Text"/>
</svg>
