<?xml version='1.0' encoding='UTF-8'?>
<svg xmlns:inkscape="http://www.inkscape.org/namespaces/inkscape" xmlns:sodipodi="http://sodipodi.sourceforge.net/DTD/sodipodi-0.dtd" xmlns="http://www.w3.org/2000/svg" xmlns:svg="http://www.w3.org/2000/svg" xmlns:rdf="http://www.w3.org/1999/02/22-rdf-syntax-ns#" xmlns:cc="http://creativecommons.org/ns#" xmlns:dc="http://purl.org/dc/elements/1.1/" width="64" height="64" version="1.1" viewBox="0 0 16.933 16.933" id="svg7" sodipodi:docname="ktip.svg" inkscape:version="1.4.2 (ebf0e940d0, 2025-05-08)">
  <sodipodi:namedview id="namedview7" pagecolor="#9c4444" bordercolor="#000000" borderopacity="0.25" inkscape:showpageshadow="2" inkscape:pageopacity="0.0" inkscape:pagecheckerboard="0" inkscape:deskcolor="#d1d1d1" inkscape:zoom="6.15625" inkscape:cx="15.837563" inkscape:cy="27.208122" inkscape:window-width="1183" inkscape:window-height="941" inkscape:window-x="0" inkscape:window-y="0" inkscape:window-maximized="0" inkscape:current-layer="svg7" showgrid="false"/>
  <defs id="defs2">
    <style id="current-color-scheme" type="text/css">.ColorScheme-Text {color:#d8dee9} .ColorScheme-Highlight {color:#3b4252}</style>
  </defs>
  <metadata id="metadata2">
    <rdf:RDF>
      <cc:Work rdf:about="">
        <dc:format>image/svg+xml</dc:format>
        <dc:type rdf:resource="http://purl.org/dc/dcmitype/StillImage"/>
      </cc:Work>
    </rdf:RDF>
  </metadata>
  <path id="path5" style="opacity:1;fill:currentColor;fill-opacity:1" class="ColorScheme-Text" d="M 22.698434 7.4320001 C 20.603434 7.4320001 18.903466 9.1309687 18.903466 11.226969 C 18.903466 13.321969 20.603434 15.020503 22.698434 15.020503 C 24.791434 15.020503 26.490534 13.321969 26.490534 11.226969 C 26.490534 9.1309687 24.791434 7.4320001 22.698434 7.4320001 z M 22.682658 16.976791 C 20.654658 16.976791 19.217562 18.622416 19.217562 20.648416 L 19.217562 33.133375 C 19.217562 35.161375 20.654658 36.805 22.682658 36.805 C 24.709658 36.805 26.14632 35.161375 26.14632 33.133375 L 26.14632 20.648416 C 26.14632 18.620416 24.709658 16.976791 22.682658 16.976791 z " transform="matrix(0.36030114,0,0,0.36030114,0.28874525,0.49717947)"/>
</svg>
