<?xml version='1.0' encoding='UTF-8'?>
<svg xmlns:inkscape="http://www.inkscape.org/namespaces/inkscape" xmlns:sodipodi="http://sodipodi.sourceforge.net/DTD/sodipodi-0.dtd" xmlns="http://www.w3.org/2000/svg" xmlns:svg="http://www.w3.org/2000/svg" xmlns:rdf="http://www.w3.org/1999/02/22-rdf-syntax-ns#" xmlns:cc="http://creativecommons.org/ns#" xmlns:dc="http://purl.org/dc/elements/1.1/" width="64" height="64" version="1.1" viewBox="0 0 16.933 16.933" id="svg7" sodipodi:docname="tauonmb.svg" inkscape:version="1.4.2 (ebf0e940d0, 2025-05-08)">
  <sodipodi:namedview id="namedview7" pagecolor="#9c4444" bordercolor="#000000" borderopacity="0.25" inkscape:showpageshadow="2" inkscape:pageopacity="0.0" inkscape:pagecheckerboard="0" inkscape:deskcolor="#d1d1d1" inkscape:zoom="4.3531261" inkscape:cx="36.295755" inkscape:cy="40.430715" inkscape:window-width="2560" inkscape:window-height="1376" inkscape:window-x="0" inkscape:window-y="0" inkscape:window-maximized="1" inkscape:current-layer="svg7" showgrid="false"/>
  <defs id="defs2">
    <style id="current-color-scheme" type="text/css">.ColorScheme-Text {color:#d8dee9} .ColorScheme-Highlight {color:#3b4252}</style>
    </defs>
  <metadata id="metadata2">
    <rdf:RDF>
      <cc:Work rdf:about="">
        <dc:format>image/svg+xml</dc:format>
        <dc:type rdf:resource="http://purl.org/dc/dcmitype/StillImage"/>
      </cc:Work>
    </rdf:RDF>
  </metadata>
  <path fill="currentColor" class="ColorScheme-Text" d="m 8.4665,1.0473323 c -4.097234,0 -7.419167,3.3219314 -7.419167,7.4191674 0,4.0972343 3.321933,7.4191683 7.419167,7.4191683 4.097236,0 7.419167,-3.321934 7.419167,-7.4191683 0,-4.097236 -3.321931,-7.4191674 -7.419167,-7.4191674 z m 0,1.1063822 c 3.482373,0 6.313713,2.8304122 6.313713,6.3127852 0,3.4823723 -2.83134,6.3137113 -6.313713,6.3137113 -3.482371,0 -6.313711,-2.831339 -6.313711,-6.3137113 0,-3.482373 2.832268,-6.3137129 6.313711,-6.3137129 z M 7.450073,3.1525197 c -2.17474,0.421967 -3.874658,2.12281 -4.297553,4.296626 l 1.532987,0.285638 c 0.298607,-1.544113 1.506091,-2.751582 3.050205,-3.049277 z m 0.730789,2.495624 c -1.421696,0.144676 -2.532718,1.355854 -2.532718,2.817429 -9.3e-4,0.748408 0.294926,1.466213 0.824454,1.9948273 0.528618,0.528616 1.246422,0.825382 1.993902,0.824457 0.747483,9.25e-4 1.465284,-0.295843 1.993902,-0.824457 0.528614,-0.5286143 0.82538,-1.2464193 0.824454,-1.9939003 9.26e-4,-0.747482 -0.295836,-1.465285 -0.824454,-1.993901 C 9.931784,5.9439827 9.213983,5.6472167 8.4665,5.6481437 c -0.09829,0 -0.189165,-0.0083 -0.285638,0 z M 8.4665,7.7876467 c 0.371887,0 0.677928,0.306041 0.677928,0.677926 0,0.372812 -0.306037,0.677926 -0.677928,0.677926 -0.37374,-9.28e-4 -0.67607,-0.303258 -0.677928,-0.676999 0,-0.371886 0.306041,-0.677925 0.677928,-0.677925 z m 3.780993,1.40964 C 11.948888,10.741402 10.741404,11.948872 9.197292,12.246565 l 0.285635,1.533913 c 2.174742,-0.421964 3.875588,-2.122809 4.297553,-4.2984803 z" id="path24-1" style="stroke-width:0.927395"/>
</svg>
