<?xml version='1.0' encoding='UTF-8'?>
<svg xmlns:inkscape="http://www.inkscape.org/namespaces/inkscape" xmlns:sodipodi="http://sodipodi.sourceforge.net/DTD/sodipodi-0.dtd" xmlns="http://www.w3.org/2000/svg" xmlns:svg="http://www.w3.org/2000/svg" xmlns:rdf="http://www.w3.org/1999/02/22-rdf-syntax-ns#" xmlns:cc="http://creativecommons.org/ns#" xmlns:dc="http://purl.org/dc/elements/1.1/" width="64" height="64" version="1.1" viewBox="0 0 16.933 16.933" id="svg7" sodipodi:docname="telegram.svg" inkscape:version="1.4 (e7c3feb100, 2024-10-09)">
  <sodipodi:namedview id="namedview7" pagecolor="#9c4444" bordercolor="#000000" borderopacity="0.25" inkscape:showpageshadow="2" inkscape:pageopacity="0.0" inkscape:pagecheckerboard="0" inkscape:deskcolor="#d1d1d1" inkscape:zoom="6.15625" inkscape:cx="15.837563" inkscape:cy="29.725888" inkscape:window-width="1183" inkscape:window-height="941" inkscape:window-x="35" inkscape:window-y="32" inkscape:window-maximized="0" inkscape:current-layer="svg7" showgrid="false"/>
  <defs id="defs2">
    <style id="current-color-scheme" type="text/css">.ColorScheme-Text {color:#d8dee9} .ColorScheme-Highlight {color:#3b4252}</style></defs>
  <metadata id="metadata2">
    <rdf:RDF>
      <cc:Work rdf:about="">
        <dc:format>image/svg+xml</dc:format>
        <dc:type rdf:resource="http://purl.org/dc/dcmitype/StillImage"/>
      </cc:Work>
    </rdf:RDF>
  </metadata>
  <path d="M 13.92896,14.225869 C 14.158959,13.779677 15.480532,6.1535389 15.669633,4.1823332 15.87414,2.2281253 14.808059,2.5914514 13.827502,2.9218449 11.421796,3.7345488 3.8142472,7.0273284 1.7320245,8.1141212 1.2199684,8.3265929 0.99793514,8.6872632 1.3713539,8.9995966 1.6921866,9.2641234 2.8676858,9.6279815 3.8147782,9.8123009 4.6232324,10.056643 5.2510868,9.8223899 5.8300721,9.4951869 7.2217613,8.6702658 11.369738,6.0451781 11.593364,5.8985726 c 0.223096,-0.1460758 0.46744,0.1258902 0.343142,0.2570905 -0.125362,0.1312026 -3.0627777,2.7658504 -4.0279308,3.9572849 -0.5109936,0.654412 -0.4950581,1.004459 0.029745,1.417716 1.177625,0.923191 4.3237988,3.028254 4.7917658,3.155737 0.597579,0.162013 0.947093,0.02763 1.198874,-0.460532 z" fill-rule="nonzero" id="path2" style="fill:currentColor;fill-opacity:1;stroke-width:0.531179" class="ColorScheme-Text"/>
  </svg>
