<?xml version="1.0" encoding="UTF-8" standalone="no"?>
<svg
   width="64"
   height="64"
   version="1.1"
   viewBox="0 0 16.933 16.933"
   id="svg7"
   sodipodi:docname="termius.svg"
   inkscape:version="1.4.3 (0d15f75042, 2025-12-25)"
   xmlns:inkscape="http://www.inkscape.org/namespaces/inkscape"
   xmlns:sodipodi="http://sodipodi.sourceforge.net/DTD/sodipodi-0.dtd"
   xmlns="http://www.w3.org/2000/svg"
   xmlns:svg="http://www.w3.org/2000/svg"
   xmlns:rdf="http://www.w3.org/1999/02/22-rdf-syntax-ns#"
   xmlns:cc="http://creativecommons.org/ns#"
   xmlns:dc="http://purl.org/dc/elements/1.1/">
  <sodipodi:namedview
     id="namedview7"
     pagecolor="#9c4444"
     bordercolor="#000000"
     borderopacity="0.25"
     inkscape:showpageshadow="2"
     inkscape:pageopacity="0.0"
     inkscape:pagecheckerboard="0"
     inkscape:deskcolor="#d1d1d1"
     inkscape:zoom="4.3531262"
     inkscape:cx="90.165086"
     inkscape:cy="34.457995"
     inkscape:window-width="2560"
     inkscape:window-height="1388"
     inkscape:window-x="0"
     inkscape:window-y="0"
     inkscape:window-maximized="1"
     inkscape:current-layer="svg7"
     showgrid="false" />
  <defs
     id="defs2">
    <style
       id="current-color-scheme"
       type="text/css">.ColorScheme-Text {color:#d8dee9} .ColorScheme-Highlight {color:#3b4252}</style>
  </defs>
  <metadata
     id="metadata2">
    <rdf:RDF>
      <cc:Work
         rdf:about="">
        <dc:format>image/svg+xml</dc:format>
        <dc:type
           rdf:resource="http://purl.org/dc/dcmitype/StillImage" />
      </cc:Work>
    </rdf:RDF>
  </metadata>
  <path
     id="path5"
     style="fill:currentColor;stroke-width:0.0547759;paint-order:fill markers stroke"
     d="m 5.5633755,1.4551795 c -2.275941,0 -4.108196,1.832255 -4.108196,4.108196 v 5.8062495 c 0,2.275939 1.832255,4.108196 4.108196,4.108196 h 5.8062495 c 2.275939,0 4.108196,-1.832257 4.108196,-4.108196 V 5.5633755 c 0,-2.275941 -1.832257,-4.108196 -4.108196,-4.108196 z m 1.900468,2.908153 c 0.348992,0.01323 0.699891,0.106263 1.007524,0.260079 0.187893,0.09395 0.389498,0.325851 0.590339,0.366635 0.147157,0.02988 0.34188,-0.08932 0.486137,-0.121641 0.269669,-0.06043 0.5578075,-0.06569 0.8333545,-0.04638 0.871511,0.06108 1.642851,0.696074 1.963482,1.48997 0.113299,0.280535 0.0693,0.646567 0.200435,0.90284 0.138575,0.270812 0.370065,0.478031 0.498921,0.763868 0.333538,0.73987 0.289337,1.639523 -0.152292,2.3264795 -0.333454,0.518689 -0.834263,0.910926 -1.434124,1.071073 -0.225981,0.06033 -0.596003,-0.0016 -0.788207,0.110515 -0.177057,0.10324 -0.303504,0.339171 -0.461852,0.474743 -0.3809085,0.326121 -0.8576425,0.529782 -1.3542065,0.590767 -0.75628,0.09288 -1.517179,-0.158667 -2.082074,-0.66464 -0.176965,-0.158507 -0.299866,-0.455145 -0.498814,-0.574506 -0.139134,-0.08347 -0.384776,-0.03527 -0.544229,-0.06184 -0.328939,-0.0548 -0.656417,-0.178628 -0.937556,-0.358933 -1.096807,-0.703417 -1.454829,-2.2521235 -0.777294,-3.3650295 0.144454,-0.237279 0.320279,-0.450514 0.534226,-0.627677 0.129078,-0.106885 0.328003,-0.197547 0.410551,-0.347859 0.131434,-0.239327 0.124385,-0.572583 0.245422,-0.830091 0.355735,-0.756822 1.093661,-1.243563 1.913574,-1.344257 0.114229,-0.01402 0.230352,-0.01853 0.346683,-0.01412 z m 0.007,0.669882 c -0.587967,-0.0077 -1.194293,0.248745 -1.52704,0.723214 -0.167211,0.238429 -0.26373,0.51186 -0.304905,0.798637 -0.02036,0.141808 0.02686,0.355015 -0.0705,0.47164 -0.128076,0.15341 -0.407797,0.217664 -0.56937,0.344971 -0.428003,0.337231 -0.643876,0.83819 -0.688444,1.37095 -0.07078,0.846168 0.605834,1.6773915 1.417649,1.8518445 0.254759,0.05475 0.716195,-0.07718 0.923969,0.03012 0.175098,0.09042 0.27457,0.464065 0.405952,0.618155 0.36083,0.423198 0.888834,0.681777 1.447979,0.692563 0.512541,0.0099 1.064252,-0.218011 1.413583,-0.591516 0.1371635,-0.146654 0.2289655,-0.409171 0.3895295,-0.521601 0.151406,-0.106018 0.60075,0.0015 0.801152,-0.03375 0.667065,-0.117354 1.223579,-0.596059 1.422302,-1.2471155 0.165039,-0.5407 0.05963,-1.132644 -0.254194,-1.597329 -0.111646,-0.165315 -0.310786,-0.286163 -0.403117,-0.457304 -0.05929,-0.109901 -0.0114,-0.256208 -0.02247,-0.37605 -0.02348,-0.254281 -0.07726,-0.501863 -0.198242,-0.729204 -0.607232,-1.141093 -1.8128285,-1.015146 -2.7666135,-0.486137 -0.259603,-0.58247 -0.829254,-0.854356 -1.41722,-0.862079 z m -0.352192,2.438385 c 0.09149,-8.7e-4 0.200606,0.05365 0.276287,0.07885 0.227583,0.07577 0.857173,0.16811 0.926483,0.429862 0.117975,0.445539 -0.559534,0.509189 -0.856997,0.598417 -0.108389,0.03251 -0.359589,0.151188 -0.450457,0.03867 -0.299016,-0.370239 0.432514,-0.480545 0.624039,-0.534494 -0.124839,-0.04779 -0.253034,-0.08177 -0.381934,-0.117201 -0.146986,-0.0404 -0.480157,-0.374919 -0.197279,-0.483622 0.01861,-0.0072 0.03874,-0.01029 0.05986,-0.01049 z m 1.464881,1.426421 c 0.177582,-0.0055 0.411367,0.116103 0.582315,0.116185 0.181985,8.2e-5 0.482277,-0.147445 0.648699,-0.07564 0.169557,0.07316 0.0597,0.346512 -0.06045,0.406434 -0.323851,0.161515 -0.888565,0.142011 -1.209457,-0.01583 -0.13476,-0.06629 -0.229381,-0.362575 -0.03338,-0.420288 0.02273,-0.0067 0.0469,-0.01008 0.07227,-0.01086 z"
     class="ColorScheme-Text" />
</svg>
