<?xml version="1.0" encoding="UTF-8" standalone="no"?>
<svg
   width="64"
   height="64"
   version="1.1"
   viewBox="0 0 16.933 16.933"
   id="svg7"
   sodipodi:docname="tokodon.svg"
   inkscape:version="1.4.3 (0d15f75042, 2025-12-25)"
   xmlns:inkscape="http://www.inkscape.org/namespaces/inkscape"
   xmlns:sodipodi="http://sodipodi.sourceforge.net/DTD/sodipodi-0.dtd"
   xmlns="http://www.w3.org/2000/svg"
   xmlns:svg="http://www.w3.org/2000/svg"
   xmlns:rdf="http://www.w3.org/1999/02/22-rdf-syntax-ns#"
   xmlns:cc="http://creativecommons.org/ns#"
   xmlns:dc="http://purl.org/dc/elements/1.1/">
  <sodipodi:namedview
     id="namedview7"
     pagecolor="#9c4444"
     bordercolor="#000000"
     borderopacity="0.25"
     inkscape:showpageshadow="2"
     inkscape:pageopacity="0.0"
     inkscape:pagecheckerboard="0"
     inkscape:deskcolor="#d1d1d1"
     inkscape:zoom="6.15625"
     inkscape:cx="57.258883"
     inkscape:cy="38.010152"
     inkscape:window-width="2560"
     inkscape:window-height="1388"
     inkscape:window-x="0"
     inkscape:window-y="0"
     inkscape:window-maximized="1"
     inkscape:current-layer="svg7"
     showgrid="false" />
  <defs
     id="defs2">
    <style
       id="current-color-scheme"
       type="text/css">.ColorScheme-Text {color:#d8dee9} .ColorScheme-Highlight {color:#3b4252}</style>
  </defs>
  <metadata
     id="metadata2">
    <rdf:RDF>
      <cc:Work
         rdf:about="">
        <dc:format>image/svg+xml</dc:format>
        <dc:type
           rdf:resource="http://purl.org/dc/dcmitype/StillImage" />
      </cc:Work>
    </rdf:RDF>
  </metadata>
  <path
     id="path5"
     style="fill:currentColor"
     d="M 8.466501,1.4551799 A 7.0113201,7.0113201 0 0 0 1.45518,8.4664999 7.0113201,7.0113201 0 0 0 8.466501,15.47782 7.0113201,7.0113201 0 0 0 15.47782,8.4664999 7.0113201,7.0113201 0 0 0 8.466501,1.4551799 Z M 4.906065,4.2096271 h 6.299232 c 0.82164,0 1.643279,0.8193713 1.643279,1.6388765 v 1.0925842 c 0,0.4064743 -0.389731,0.819683 -0.821639,0.819683 h -1.917158 l -0.0029,1.3918955 0.0029,1.3400547 c 8.01e-4,0.343099 0.07629,0.585907 0.07629,0.585907 0.178843,0.39664 0.490712,0.83116 1.029983,0.889619 0.27114,0.0295 0.694266,-0.09347 0.769308,-0.174598 0.043,-0.04644 0.04157,-0.132402 0.04157,-0.208344 0,-0.136584 10e-7,-0.273391 0.273879,-0.273391 0.03643,0 0.08696,0.0098 0.133517,0.01712 0.100513,0.01556 0.142557,0.04394 0.140364,0.119333 -0.0044,0.146964 -0.154802,0.388911 -0.211768,0.471954 0.32619,0.05709 0.485647,0.06377 0.485647,0.211279 0,0.15434 -0.0786,0.272901 -0.273879,0.272901 -0.1342,0 -0.154176,-0.09827 -0.358489,-0.03326 -0.538996,0.17155 -1.010909,0.579549 -2.654188,0.579549 -0.821639,0 -2.084499,-0.874005 -2.464918,-1.638877 C 6.825413,10.76585 6.833903,9.9712678 6.83007,9.1580463 L 6.82327,7.7607708 H 5.727704 c -0.82164,0 -1.641753,-0.8193636 -1.642301,-1.6506142 L 4.084457,5.02931 c 0,-0.3988255 0.437659,-0.8196829 0.821639,-0.8196829 z M 7.220348,5.575602 A 0.61677155,0.46696118 44.724032 0 0 7.030099,5.617662 0.61677155,0.46696118 44.724032 0 0 6.942059,6.3331727 0.61677155,0.46696118 44.724032 0 0 7.711856,6.6256372 0.61677155,0.46696118 44.724032 0 0 7.799896,5.9106156 0.61677155,0.46696118 44.724032 0 0 7.220347,5.5756018 Z m 2.766185,0 A 0.46696115,0.61677155 45.275963 0 0 9.406984,5.9106157 0.46696115,0.61677155 45.275963 0 0 9.495024,6.6256373 0.46696115,0.61677155 45.275963 0 0 10.264821,6.3331728 0.46696115,0.61677155 45.275963 0 0 10.176781,5.6181512 0.46696115,0.61677155 45.275963 0 0 9.986533,5.575602 Z M 6.21922,8.011175 h 0.354576 l 0.0059,1.145893 c -0.80853,0.7918311 -1.578884,1.071728 -1.947479,1.062262 -0.182954,-0.0046 -0.277991,-0.104765 -0.27388,-0.136451 0.0039,-0.0295 0.10955,-0.06428 0.27388,-0.1369396 C 5.025134,9.7718853 5.711133,9.2876893 6.219252,8.011175 Z m 4.140474,0 h 0.362891 c 0.515083,1.2423697 1.227759,1.7501405 1.578231,1.9347644 0.162958,0.086049 0.269773,0.1052506 0.27388,0.1369396 0.0044,0.03196 -0.09312,0.132626 -0.27388,0.136451 -0.358201,0.0079 -1.135593,-0.2735814 -1.943568,-1.0598167 v -0.00636 z"
     class="ColorScheme-Text" />
</svg>
