<?xml version='1.0' encoding='UTF-8'?>
<svg xmlns:inkscape="http://www.inkscape.org/namespaces/inkscape" xmlns:sodipodi="http://sodipodi.sourceforge.net/DTD/sodipodi-0.dtd" xmlns="http://www.w3.org/2000/svg" xmlns:svg="http://www.w3.org/2000/svg" xmlns:rdf="http://www.w3.org/1999/02/22-rdf-syntax-ns#" xmlns:cc="http://creativecommons.org/ns#" xmlns:dc="http://purl.org/dc/elements/1.1/" width="64" height="64" version="1.1" viewBox="0 0 16.933 16.933" id="svg7" sodipodi:docname="tor.svg" inkscape:version="1.4 (e7c3feb100, 2024-10-09)">
  <sodipodi:namedview id="namedview7" pagecolor="#9c4444" bordercolor="#000000" borderopacity="0.25" inkscape:showpageshadow="2" inkscape:pageopacity="0.0" inkscape:pagecheckerboard="0" inkscape:deskcolor="#d1d1d1" inkscape:zoom="6.15625" inkscape:cx="15.756345" inkscape:cy="29.563452" inkscape:window-width="1226" inkscape:window-height="669" inkscape:window-x="35" inkscape:window-y="32" inkscape:window-maximized="0" inkscape:current-layer="svg7" showgrid="false"/>
  <defs id="defs2">
    <style id="current-color-scheme" type="text/css">.ColorScheme-Text {color:#d8dee9} .ColorScheme-Highlight {color:#3b4252}</style></defs>
  <metadata id="metadata2">
    <rdf:RDF>
      <cc:Work rdf:about="">
        <dc:format>image/svg+xml</dc:format>
        <dc:type rdf:resource="http://purl.org/dc/dcmitype/StillImage"/>
      </cc:Work>
    </rdf:RDF>
  </metadata>
  <path style="fill:currentColor;stroke-width:0.0401255" d="M 8.0050436,15.174002 C 7.2729026,15.113297 6.6733403,14.978918 6.0444976,14.734591 4.2907456,14.0532 2.9038769,12.674681 2.2109013,10.924074 1.5922554,9.3612405 1.5921136,7.5764194 2.210511,6.0087091 2.5757098,5.082887 3.1804895,4.1986019 3.9005466,3.5376041 5.4378318,2.1264078 7.4488123,1.5137699 9.514601,1.8273029 c 1.387439,0.2105772 2.694864,0.8803225 3.716779,1.9039659 1.710344,1.7132345 2.359901,4.2204688 1.702341,6.5708612 -0.329728,1.178584 -1.055647,2.342489 -1.966484,3.152969 -1.136558,1.011326 -2.4585,1.581535 -3.9690888,1.712029 -0.2128263,0.01843 -0.8048577,0.0225 -0.9931046,0.0068 z m 1.2338581,-0.980411 c 0.7089411,-0.09832 1.4089113,-0.327346 1.9980243,-0.653692 0.830649,-0.460147 1.533081,-1.106632 2.057435,-1.893566 0.343376,-0.515324 0.676022,-1.295977 0.807879,-1.8959275 C 14.394585,8.420241 14.238185,7.1107965 13.643359,5.9083956 13.35051,5.3164278 13.022378,4.8539469 12.574754,4.4022829 11.54988,3.3681505 10.1926,2.7636917 8.7423485,2.6955343 L 8.4564551,2.6821013 v 0.5217691 0.5217694 l 0.275862,0.011704 c 1.6591969,0.07034 3.2212089,1.097513 3.9727309,2.6124432 0.34592,0.6973111 0.494794,1.3339129 0.494994,2.1166164 1.4e-4,0.5635964 -0.06154,0.9553055 -0.23276,1.4778202 -0.517125,1.5782544 -1.843423,2.7854644 -3.455968,3.1456514 -0.2935486,0.06559 -0.6533157,0.11134 -0.8753222,0.11134 H 8.4564551 v 0.52475 0.524751 l 0.2758629,-0.01273 c 0.1517245,-0.0068 0.3796877,-0.02694 0.5065837,-0.04455 z m -0.276891,-1.905087 c 0.4404542,-0.05814 0.8329809,-0.176567 1.2093023,-0.364836 1.127674,-0.564161 1.881756,-1.579431 2.098462,-2.8253007 0.03608,-0.2074258 0.04537,-0.3367921 0.04537,-0.6319755 0,-0.4279705 -0.04425,-0.7393749 -0.158859,-1.1176997 C 11.761759,6.0462852 10.705904,5.0443789 9.3893711,4.7231621 9.1462627,4.6638469 8.7853128,4.6143506 8.5958665,4.6143506 H 8.4564559 v 0.5289129 0.5289132 l 0.1956112,0.014307 c 0.704263,0.051532 1.3273714,0.3445973 1.8213519,0.8566293 0.508311,0.5268873 0.771754,1.1834076 0.771754,1.9232721 0,0.7699207 -0.270373,1.4173565 -0.82132,1.9667409 C 9.9270682,10.9285 9.3437829,11.19495 8.6420355,11.247075 l -0.1855806,0.01385 v 0.528785 0.528783 h 0.1394106 c 0.076676,0 0.2414408,-0.01349 0.3661443,-0.02994 z M 8.8404451,10.360613 C 9.1953585,10.293327 9.5164292,10.126884 9.7889724,9.8689003 10.072575,9.6004469 10.252511,9.2919615 10.346381,8.913275 c 0.06147,-0.2479724 0.06147,-0.6457938 0,-0.8937666 C 10.259185,7.6677427 10.101983,7.3827306 9.8530104,7.1250159 9.520785,6.7811247 9.0941966,6.5774637 8.642035,6.546874 L 8.4564544,6.534315 v 1.9290469 1.9290471 h 0.1081271 c 0.05947,0 0.1836084,-0.01431 0.2758621,-0.0318 z" id="path6" class="ColorScheme-Text"/>
  </svg>
