<?xml version='1.0' encoding='UTF-8'?>
<svg xmlns:inkscape="http://www.inkscape.org/namespaces/inkscape" xmlns:sodipodi="http://sodipodi.sourceforge.net/DTD/sodipodi-0.dtd" xmlns="http://www.w3.org/2000/svg" xmlns:svg="http://www.w3.org/2000/svg" xmlns:rdf="http://www.w3.org/1999/02/22-rdf-syntax-ns#" xmlns:cc="http://creativecommons.org/ns#" xmlns:dc="http://purl.org/dc/elements/1.1/" width="64" height="64" version="1.1" viewBox="0 0 16.933 16.933" id="svg7" sodipodi:docname="turbowarp.svg" inkscape:version="1.4 (e7c3feb100, 2024-10-09)">
  <sodipodi:namedview id="namedview7" pagecolor="#9c4444" bordercolor="#000000" borderopacity="0.25" inkscape:showpageshadow="2" inkscape:pageopacity="0.0" inkscape:pagecheckerboard="0" inkscape:deskcolor="#d1d1d1" inkscape:zoom="6.15625" inkscape:cx="15.837563" inkscape:cy="29.725888" inkscape:window-width="1183" inkscape:window-height="941" inkscape:window-x="35" inkscape:window-y="32" inkscape:window-maximized="0" inkscape:current-layer="svg7" showgrid="false"/>
  <defs id="defs2">
    <style id="current-color-scheme" type="text/css">.ColorScheme-Text {color:#d8dee9} .ColorScheme-Highlight {color:#3b4252}</style></defs>
  <metadata id="metadata2">
    <rdf:RDF>
      <cc:Work rdf:about="">
        <dc:format>image/svg+xml</dc:format>
        <dc:type rdf:resource="http://purl.org/dc/dcmitype/StillImage"/>
      </cc:Work>
    </rdf:RDF>
  </metadata>
  <path style="fill:currentColor;fill-opacity:1;stroke-width:0.362803" d="m 11.842954,1.5732098 c -1.4e-5,-1.1e-6 -0.447916,0.057137 -0.774499,0.1190426 C 10.300478,1.7930037 9.5635259,1.8840251 8.8618792,1.9140457 H 6.8459161 5.4138385 C 5.3263511,1.9010687 5.2626669,1.8856996 5.0389895,1.8856996 4.9121436,1.8857353 4.7853202,1.8951996 4.6598892,1.9140457 4.2990788,1.9680646 3.8417268,2.0159515 3.1937988,2.4532893 2.545904,2.8906554 1.9360365,4.0257572 1.9360365,4.8178828 c 0.028139,0.5455181 0.1602555,1.0237145 0.2607626,1.376805 0.043596,0.3014386 0.087467,0.6027539 0.1310905,0.8992122 0.00519,0.03531 0.01102,0.070522 0.017708,0.1055811 0.084301,0.4427266 0.164331,0.8314772 0.4053188,1.3463372 0.1204961,0.25743 0.2758607,0.5644406 0.6476591,0.927556 0.3467614,0.338657 1.018561,0.7019167 1.765127,0.7532407 -0.2413625,0.202332 -0.4640516,0.420333 -0.5966401,0.617898 -0.00718,0.01077 -0.01425,0.02167 -0.021257,0.03261 -0.4810503,0.741237 -0.5010743,2.394334 0.052436,3.181608 0.306091,0.435362 1.0591864,0.998638 1.6552863,1.164936 0.5960999,0.166288 0.9940796,0.142367 1.3831846,0.121866 l 0.00283,-7.26e-4 c 0.4747767,-0.02548 0.8817218,-0.06388 1.2747693,-0.108414 0.1740571,-0.0055 0.3001745,5.3e-5 0.3443786,0.0044 0.00733,7.62e-4 0.01463,0.0015 0.021964,0.0023 0.2015769,0.01748 0.3937281,0.03745 0.7093076,0.01843 0.3155792,-0.01902 0.7391892,-0.128573 0.9112572,-0.19132 0.02887,-0.01045 0.05727,-0.02168 0.08574,-0.03331 0.875891,-0.355943 1.891957,-1.729646 1.891957,-2.77983 0,-0.627893 -0.252299,-1.675822 -1.091242,-2.3468806 -0.12198,-0.097565 -0.246605,-0.1551388 -0.370595,-0.2267519 -2.87e-4,-0.081658 -0.0011,-0.151468 -0.0014,-0.2288772 0.148751,0.022726 0.343346,0.1077072 0.4613,0.1077072 0.473031,0 1.131702,-0.041253 1.868572,-0.5746731 0.736871,-0.5334204 1.174855,-1.6223946 1.174855,-2.3234954 0,-0.3540636 -0.01902,-0.4970593 -0.06378,-0.7957564 0.02706,-0.2148585 0.0563,-0.4221105 0.09496,-0.5824676 l -0.0055,0.023383 C 15.161841,4.4490947 14.67494,2.8387468 13.822104,2.2067008 13.248785,1.7902229 12.489991,1.577732 11.842986,1.5732133 Z m 0.0028,1.4512102 c 0.372793,8.344e-4 0.781209,0.1185714 1.098329,0.3493389 0.45121,0.3247927 0.690952,1.105123 0.570422,1.5858436 l 0.0029,-0.00992 c -0.063,0.2616799 -0.112936,0.556452 -0.147383,0.8814962 0.0011,-6.528e-4 0.0021,0.037873 0.01425,0.1041656 0.0021,0.00965 0.0036,0.01935 0.0049,0.029053 0.04619,0.2924682 0.0567,0.483056 0.0567,0.7022212 0,0.3689768 -0.210038,0.8872548 -0.57255,1.1500556 -0.362511,0.2627983 -0.715829,0.2969035 -1.012586,0.2969035 -0.415479,0 -1.060746,-0.1826375 -1.371848,-0.7312747 -0.0839,-0.1481829 -0.13153,-0.3139598 -0.139595,-0.4839724 -0.0093,-0.1952379 0.0023,-0.468573 0.0099,-0.7263139 -0.134887,0.00806 -0.264168,0.016625 -0.3961063,0.025509 -0.00163,0.022981 -0.00401,0.045902 -0.00709,0.068734 -0.025418,0.1870398 -0.04628,0.5688621 -0.047477,1.0827391 0.024529,0.2518148 0.025188,0.5093305 0.031886,0.9778654 0.00747,0.5230311 0.011324,1.2375327 0.011324,2.1484709 v 0.268559 c 0.2928923,0.0072 0.6103523,0.06054 0.9098403,0.300447 0.411791,0.329861 0.545623,0.849387 0.545623,1.215954 0,0.566006 -0.492174,1.235653 -0.983537,1.435623 -0.01222,0.0049 -0.02446,0.0097 -0.03685,0.01425 -0.109703,0.04009 -0.320765,0.09483 -0.498854,0.105602 -0.1780889,0.01064 -0.3168014,-9.45e-4 -0.4946021,-0.01634 -0.00308,-2.53e-4 -0.00614,-4.72e-4 -0.00921,-7.28e-4 -0.1303685,-0.01235 -0.3152945,-0.01729 -0.5427867,-0.0093 -0.3773656,0.04562 -0.7961908,0.08252 -1.2910667,0.109136 H 7.5495549 C 7.2332475,13.915061 6.9627055,13.920058 6.6368799,13.82901 6.311123,13.738095 5.9480837,13.462943 5.783796,13.228933 5.5025215,12.828291 5.5108576,12.05478 5.7611214,11.668602 c 0.00304,-0.0044 0.00608,-0.0091 0.0092,-0.0133 0.16492,-0.246094 0.4965734,-0.526482 0.8311865,-0.646952 0.1306953,-0.04705 0.2610234,-0.03404 0.3876035,-0.05528 0.00181,-0.04286 0.00127,-0.09565 0.00353,-0.136762 -1.4e-6,-9.45e-4 -1.4e-6,-0.0019 0,-0.0029 0.025631,-0.438538 0.027844,-1.1179425 -7.127e-4,-2.003254 -2.544e-4,-9.431e-4 -4.714e-4,-0.00188 -7.256e-4,-0.00283 -0.027546,-0.9285224 0.00642,-1.7150779 0.031886,-2.5211938 -0.1186816,-0.00203 -0.197076,0.00138 -0.3309154,-0.00215 0.02824,0.2479876 0.088914,0.6170438 0.098496,0.8035513 0.00232,0.046998 9.433e-4,0.094105 -0.00283,0.1410104 L 6.7594053,7.5934417 C 6.7332697,7.9656903 6.4354629,8.4349565 6.1138714,8.6180754 5.7922808,8.8011961 5.5320509,8.8129398 5.3074867,8.8129398 4.9333511,8.8129398 4.5951999,8.6188657 4.411818,8.4395089 4.2284478,8.2601548 4.1383557,8.0934676 4.0646156,7.935698 3.9171349,7.6201597 3.8426846,7.311002 3.7705475,6.931614 3.7676025,6.916566 3.7650375,6.9014325 3.7627575,6.8862629 3.7043173,6.4886352 3.6461241,6.0862162 3.5877219,5.6795193 c -0.00188,0.00213 -0.00581,0.00353 -0.00568,0.00638 -0.00388,-0.018582 -0.00901,-0.038528 -0.01843,-0.06023 -0.010319,-0.023754 -0.019719,-0.047866 -0.028325,-0.072285 -0.077726,-0.2215545 -0.148045,-0.4003994 -0.148045,-0.7333827 0,-0.4053572 0.2878758,-0.9404295 0.6178981,-1.1635188 0.3300393,-0.2230913 0.6039609,-0.2664507 0.8637819,-0.3054062 0.053819,-0.00806 0.1085565,-0.012065 0.1629763,-0.012046 0.1412023,0 0.2015659,0.01121 0.2912349,0.023383 0.024552,0.00334 0.043565,0.0045 0.053145,0.00496 H 6.8366973 8.8951771 C 9.708505,3.3333956 10.51992,3.2311018 11.332757,3.1236112 c 0.250611,-0.051608 0.315466,-0.078671 0.513026,-0.099205 z m 0,1.0884072 c -0.02453,2.968e-4 -0.04967,0.00196 -0.07513,0.00424 -0.116261,0.027655 -0.202633,0.054541 -0.260764,0.082198 C 10.676787,4.309899 9.8142181,4.4203327 8.9228913,4.4572067 H 6.8296525 5.318212 c -0.029064,0 -0.076737,-0.00566 -0.1445539,-0.014877 -0.067819,-0.0092 -0.1162002,-0.013471 -0.1452626,-0.013471 -0.3681529,0.055313 -0.5527026,0.1621023 -0.5527026,0.3925649 0,0.082965 0.028319,0.2074977 0.08645,0.3734319 0.067819,0.1567139 0.1027463,0.2670946 0.1027463,0.3316237 0.05813,0.4056147 0.1161869,0.8068052 0.1743155,1.2032011 0.1259491,0.6637325 0.2807623,0.9962889 0.4648407,0.9962889 0.2325209,0 0.3538218,-0.069342 0.3635109,-0.2076191 l 0.02901,-0.373433 C 5.6771853,6.7669581 5.5990743,6.1358098 5.4634373,5.2508335 6.0156731,5.2139585 6.31185,5.1948535 6.350603,5.1948535 c 0.8235092,0.027655 1.4215556,0.031901 1.7218943,0.013471 l 0.043932,0.042516 c -0.067819,1.0416919 -0.082686,2.2169572 -0.043932,3.5259868 0.029062,0.9034139 0.029062,1.6031937 0,2.1009947 -0.00967,0.175152 -0.014877,0.378223 -0.014877,0.608686 0.00967,0.07374 0.014877,0.151582 0.014877,0.234546 0,0.156712 -0.1864679,0.235963 -0.4868071,0.235963 -0.571611,0 -0.7798723,0.101897 -0.9155093,0.304697 -0.077505,0.119852 -0.077505,0.234466 0,0.34509 0.116261,0.165927 0.2903014,0.235273 0.8134713,0.207618 0.513482,-0.02764 0.9503125,-0.06445 1.3087817,-0.110542 0.2615852,-0.0093 0.4886139,-0.0049 0.6823805,0.0133 0.3197151,0.02764 0.3977051,0.01843 0.523654,-0.02764 0.2034546,-0.08295 0.3046976,-0.225188 0.3046976,-0.427994 0,-0.341086 -0.18384,-0.489677 -0.5519981,-0.443583 H 8.9235245 C 8.8750878,11.75353 8.8505417,11.64314 8.8505417,11.48643 v -1.009687 c 0,-1.8160477 -0.014858,-2.8441409 -0.043934,-3.0838218 0,-0.5623295 0.019353,-0.9854524 0.058106,-1.2712261 L 8.8066084,5.6235464 c -0.019372,-0.1751515 -0.019372,-0.3223249 0,-0.4421655 0.7944438,-0.073747 1.7144216,-0.1296465 2.6154386,-0.1665198 0.01938,0.01843 0.03426,0.028346 0.04393,0.028346 0,0.1382801 -0.01045,0.4149366 -0.02975,0.8297688 -0.01938,0.3503037 -0.02386,0.7722249 -0.01425,0.9750317 0.06779,0.1198425 0.208472,0.1785677 0.421614,0.1785677 0.329406,0 0.493893,-0.1188697 0.493893,-0.3585505 0,-0.073748 -0.01482,-0.3484954 -0.04393,-0.5328664 -0.02907,-0.1567139 -0.03874,-0.2861995 -0.02905,-0.3876038 0.03872,-0.3779588 0.0968,-0.7282037 0.174325,-1.0508511 0.04843,-0.1935891 6.1e-5,-0.3407627 -0.145255,-0.4421659 -0.127167,-0.096792 -0.276157,-0.1438034 -0.447834,-0.141721 z" id="path4" class="ColorScheme-Text"/>
  <g id="g9" transform="matrix(0.46959567,0,0,0.46959567,4.7471229,3.7470598)" style="fill:#999999;fill-opacity:1;stroke:none;stroke-width:0.58349;stroke-dasharray:none;stroke-opacity:0.3"/>
  </svg>
