<?xml version='1.0' encoding='UTF-8'?>
<svg xmlns:inkscape="http://www.inkscape.org/namespaces/inkscape" xmlns:sodipodi="http://sodipodi.sourceforge.net/DTD/sodipodi-0.dtd" xmlns="http://www.w3.org/2000/svg" xmlns:svg="http://www.w3.org/2000/svg" xmlns:rdf="http://www.w3.org/1999/02/22-rdf-syntax-ns#" xmlns:cc="http://creativecommons.org/ns#" xmlns:dc="http://purl.org/dc/elements/1.1/" width="64" height="64" version="1.1" viewBox="0 0 16.933 16.933" id="svg7" sodipodi:docname="viber.svg" inkscape:version="1.4 (e7c3feb100, 2024-10-09)">
  <sodipodi:namedview id="namedview7" pagecolor="#9c4444" bordercolor="#000000" borderopacity="0.25" inkscape:showpageshadow="2" inkscape:pageopacity="0.0" inkscape:pagecheckerboard="0" inkscape:deskcolor="#d1d1d1" inkscape:zoom="6.15625" inkscape:cx="15.837563" inkscape:cy="29.725888" inkscape:window-width="1183" inkscape:window-height="941" inkscape:window-x="35" inkscape:window-y="32" inkscape:window-maximized="0" inkscape:current-layer="svg7" showgrid="false"/>
  <defs id="defs2">
    <style id="current-color-scheme" type="text/css">.ColorScheme-Text {color:#d8dee9} .ColorScheme-Highlight {color:#3b4252}</style></defs>
  <metadata id="metadata2">
    <rdf:RDF>
      <cc:Work rdf:about="">
        <dc:format>image/svg+xml</dc:format>
        <dc:type rdf:resource="http://purl.org/dc/dcmitype/StillImage"/>
      </cc:Work>
    </rdf:RDF>
  </metadata>
  <path style="fill:currentColor;fill-opacity:1;stroke-width:0.0885904" d="M 5.2772492,14.590457 V 13.170952 L 5.1584688,13.141141 C 4.9909895,13.099105 4.3797982,12.789204 4.1333586,12.621362 3.2365561,12.010582 2.532261,11.004406 2.2324437,9.9056603 L 2.1115748,9.4627095 2.1110307,7.2701044 2.1104863,5.077499 2.2319712,4.6345484 C 2.464212,3.787768 2.8840276,3.0563771 3.4798186,2.4605865 4.0497608,1.8906444 4.7195752,1.4958554 5.4861777,1.2780385 5.8244992,1.1819099 5.8803548,1.1800745 8.466517,1.1800745 c 2.586162,0 2.642018,0.00185 2.980336,0.097964 0.766605,0.2178169 1.436419,0.6126059 2.006362,1.182548 0.595791,0.5957906 1.015605,1.3271815 1.247846,2.1739619 l 0.121486,0.4429506 -5.45e-4,2.1926054 -5.43e-4,2.1926051 -0.118066,0.4299191 c -0.366415,1.3344124 -1.245304,2.4396784 -2.399877,3.0180214 -0.815174,0.408338 -1.206123,0.472173 -2.8916922,0.472173 H 8.1096816 l -1.3182614,1.229186 c -0.725044,0.676054 -1.3623308,1.267159 -1.4161935,1.31357 l -0.097934,0.0844 z m 5.3169228,-3.360501 c 0.194422,-0.05774 0.299379,-0.131308 0.562026,-0.39395 0.504764,-0.504767 0.64899,-0.9171352 0.434993,-1.243737 C 11.490468,9.4385495 10.826563,8.9166446 10.416066,8.6684884 10.007596,8.4215574 9.7255301,8.3639792 9.4987697,8.4812417 9.4250332,8.5193718 9.2602978,8.6710868 9.1326912,8.8183853 8.927133,9.0556639 8.8822385,9.0860645 8.7389553,9.0850024 8.5325908,9.0834786 8.0741415,8.8881723 7.7328202,8.6563856 7.2287295,8.3140637 6.7342387,7.6939839 6.4879569,7.095353 6.3370329,6.7285063 6.3501461,6.5831459 6.5494546,6.413644 7.0108364,6.0212615 7.0948513,5.8670608 7.0314352,5.529023 6.9732317,5.2187699 6.1346669,4.0401253 5.8408074,3.8555353 5.6300533,3.7231483 5.3411785,3.7600012 5.0451074,3.9570453 4.5361511,4.2957716 4.1698731,4.7925173 4.1698731,5.144037 c 0,0.2459545 0.159923,0.6674678 0.5293416,1.395198 0.8594422,1.6930465 1.7301073,2.6979924 3.1230545,3.604717 0.7810199,0.508398 2.1363573,1.149836 2.4412088,1.155346 0.05039,9.06e-4 0.199206,-0.03029 0.330694,-0.06933 z m 0.560393,-4.8534748 c 0.08454,-0.079414 0.102532,-0.1418331 0.102532,-0.3557581 0,-0.8047532 -0.583188,-1.5275546 -1.4016891,-1.7372512 -0.5718181,-0.1464976 -0.8573615,-0.061364 -0.8573615,0.2556203 0,0.2009754 0.1218109,0.2995119 0.4300011,0.3478408 0.6859605,0.1075685 1.0438905,0.460917 1.1239415,1.1095537 0.02989,0.2421683 0.0628,0.3403593 0.133661,0.3987893 0.129521,0.106799 0.344407,0.098183 0.468926,-0.018791 z m 1.499824,-0.012388 C 12.786135,6.2323624 12.796243,6.0100401 12.696569,5.4384481 12.509664,4.3665764 11.910963,3.5476679 10.980225,3.0907747 10.474975,2.842751 10.160992,2.7582924 9.6181651,2.724391 9.2288145,2.7000767 9.1899127,2.7052162 9.0976981,2.7932261 c -0.065837,0.062833 -0.099665,0.1471512 -0.099665,0.2484229 0,0.2473677 0.1018229,0.30937 0.6020006,0.3665739 0.5336833,0.061037 0.9044213,0.1815545 1.2544543,0.407792 0.46055,0.2976666 0.799391,0.6971849 0.98109,1.1567753 0.111188,0.2812312 0.218814,0.811047 0.218814,1.0771205 0,0.3848627 0.347396,0.5667574 0.599997,0.3141545 z" id="path7" class="ColorScheme-Text"/>
  </svg>
