<?xml version="1.0" encoding="UTF-8" standalone="no"?>
<svg
   width="64"
   height="64"
   version="1.1"
   viewBox="0 0 16.933 16.933"
   id="svg7"
   sodipodi:docname="vmware-player.svg"
   inkscape:version="1.4.2 (ebf0e940d0, 2025-05-08)"
   xmlns:inkscape="http://www.inkscape.org/namespaces/inkscape"
   xmlns:sodipodi="http://sodipodi.sourceforge.net/DTD/sodipodi-0.dtd"
   xmlns="http://www.w3.org/2000/svg"
   xmlns:svg="http://www.w3.org/2000/svg"
   xmlns:rdf="http://www.w3.org/1999/02/22-rdf-syntax-ns#"
   xmlns:cc="http://creativecommons.org/ns#"
   xmlns:dc="http://purl.org/dc/elements/1.1/">
  <sodipodi:namedview
     id="namedview7"
     pagecolor="#9c4444"
     bordercolor="#000000"
     borderopacity="0.25"
     inkscape:showpageshadow="2"
     inkscape:pageopacity="0.0"
     inkscape:pagecheckerboard="0"
     inkscape:deskcolor="#d1d1d1"
     inkscape:zoom="6.15625"
     inkscape:cx="16"
     inkscape:cy="29.725888"
     inkscape:window-width="2560"
     inkscape:window-height="1392"
     inkscape:window-x="0"
     inkscape:window-y="0"
     inkscape:window-maximized="1"
     inkscape:current-layer="svg7"
     showgrid="false" />
  <defs
     id="defs2">
    <style
       id="current-color-scheme"
       type="text/css">.ColorScheme-Text {color:#d8dee9} .ColorScheme-Highlight {color:#3b4252}</style>
  </defs>
  <metadata
     id="metadata2">
    <rdf:RDF>
      <cc:Work
         rdf:about="">
        <dc:format>image/svg+xml</dc:format>
        <dc:type
           rdf:resource="http://purl.org/dc/dcmitype/StillImage" />
      </cc:Work>
    </rdf:RDF>
  </metadata>
  <path
     d="m 2.456902,1.4552709 c -0.554899,0 -1.001641,0.4467214 -1.001641,1.0016421 v 4.5073196 c 0,0.5548998 0.446721,1.0016422 1.001641,1.0016422 0.5549,0 1.001642,-0.4467215 1.001642,-1.0016422 V 4.8670663 L 4.960937,6.3695996 V 7.965945 H 6.964151 V 7.4651378 c 0,-0.2774532 0.223369,-0.500814 0.500815,-0.500814 H 7.965773 V 4.9611097 H 6.369427 L 4.867034,3.4586463 h 2.097167 c 0.5549,0 1.001641,-0.4467214 1.001641,-1.0016421 0,-0.5548995 -0.44672,-1.0016422 -1.001641,-1.0016422 h -4.50732 z m 7.511966,0 c -0.554899,0 -1.001641,0.4467214 -1.001641,1.0016421 0,0.5548998 0.44672,1.0016422 1.001641,1.0016422 h 2.097167 L 10.563502,4.9609483 H 8.967155 v 2.0032143 h 0.500808 c 0.277453,0 0.500815,0.2233617 0.500815,0.5008141 v 0.5008069 h 2.003214 V 6.3694385 l 1.502462,-1.5024634 v 2.0971663 c 0,0.5548998 0.446723,1.0016422 1.001644,1.0016422 0.554899,0 1.001641,-0.4467215 1.001641,-1.0016422 V 2.4568219 c 0,-0.5548995 -0.446721,-1.0016422 -1.001641,-1.0016422 H 9.968778 Z M 4.960656,8.9672365 v 2.0031445 c 0,0.555299 0.446625,1.001922 1.001925,1.001922 H 7.965795 V 9.9690891 H 7.464987 c -0.277453,0 -0.500815,-0.2233617 -0.500815,-0.5008141 V 8.9674679 H 4.960958 Z m 5.008143,0 v 0.5008072 c 0,0.2774532 -0.223369,0.500814 -0.500815,0.500814 H 8.967176 v 2.0032143 h 1.596347 l 1.502393,1.502463 H 9.968749 c -0.5549,0 -1.001642,0.446722 -1.001642,1.001642 0,0.5549 0.446721,1.001642 1.001642,1.001642 h 4.50732 c 0.554597,7.01e-4 1.00122,-0.445922 1.00122,-1.001221 V 9.9692783 c 0,-0.5548998 -0.446721,-1.0016422 -1.001642,-1.0016422 -0.554899,0 -1.001641,0.4467215 -1.001641,1.0016422 V 12.066445 L 11.971472,10.564612 V 8.9682671 H 9.968259 Z"
     id="path5"
     style="fill:currentColor;fill-opacity:1;stroke-width:0.701135"
     class="ColorScheme-Text" />
</svg>
