<?xml version='1.0' encoding='UTF-8'?>
<svg xmlns:inkscape="http://www.inkscape.org/namespaces/inkscape" xmlns:sodipodi="http://sodipodi.sourceforge.net/DTD/sodipodi-0.dtd" xmlns="http://www.w3.org/2000/svg" xmlns:svg="http://www.w3.org/2000/svg" xmlns:rdf="http://www.w3.org/1999/02/22-rdf-syntax-ns#" xmlns:cc="http://creativecommons.org/ns#" xmlns:dc="http://purl.org/dc/elements/1.1/" width="64" height="64" version="1.1" viewBox="0 0 16.933 16.933" id="svg7" sodipodi:docname="warmux.svg" inkscape:version="1.4 (e7c3feb100, 2024-10-09)">
  <sodipodi:namedview id="namedview7" pagecolor="#9c4444" bordercolor="#000000" borderopacity="0.25" inkscape:showpageshadow="2" inkscape:pageopacity="0.0" inkscape:pagecheckerboard="0" inkscape:deskcolor="#d1d1d1" inkscape:zoom="6.15625" inkscape:cx="15.837563" inkscape:cy="27.28934" inkscape:window-width="1183" inkscape:window-height="941" inkscape:window-x="35" inkscape:window-y="32" inkscape:window-maximized="0" inkscape:current-layer="svg7" showgrid="false"/>
  <defs id="defs2">
    <style id="current-color-scheme" type="text/css">.ColorScheme-Text {color:#d8dee9} .ColorScheme-Highlight {color:#3b4252}</style></defs>
  <metadata id="metadata2">
    <rdf:RDF>
      <cc:Work rdf:about="">
        <dc:format>image/svg+xml</dc:format>
        <dc:type rdf:resource="http://purl.org/dc/dcmitype/StillImage"/>
      </cc:Work>
    </rdf:RDF>
  </metadata>
  <path id="path99" style="fill:currentColor;stroke-width:0.0812183;stroke-opacity:0.6" d="M 49.326173 5.8476564 C 49.203502 5.8476564 48.279519 7.0871583 47.273438 8.6015627 L 45.445313 11.355469 L 43.679688 10.46875 C 42.70865 9.981757 41.769715 9.5839846 41.593751 9.5839846 C 40.921176 9.5839846 40.494675 9.9776989 39.472657 11.539063 C 38.891947 12.42623 38.305886 13.152423 38.171876 13.152344 C 38.037866 13.152264 37.30822 13.049776 36.548829 12.925781 C 25.055258 11.049075 13.222505 16.544753 8.3593752 26.019532 C 7.4070624 27.874913 6.6811799 29.914369 6.3164064 31.75586 C 6.0304599 33.199408 6.0243597 37.737681 6.3066407 39.066407 C 7.2564101 43.537073 9.2811653 47.270994 12.511719 50.509767 C 16.832303 54.841346 22.446542 57.412141 29.320313 58.208985 C 30.640394 58.362016 34.135523 58.288515 35.785157 58.072267 C 41.812532 57.282148 47.078038 54.8327 51.138673 50.929688 C 55.755906 46.491686 58.033317 41.39756 58.041017 35.492188 C 58.04833 29.861986 56.045613 25.048063 51.841798 20.591797 L 50.804688 19.494141 L 51.878907 17.847657 C 52.469886 16.942201 52.955079 16.042011 52.955079 15.845703 C 52.955079 15.332118 52.433134 14.920424 50.646485 14.027344 L 49.06836 13.238282 L 50.857423 10.496094 C 51.842002 8.9880335 52.610324 7.6566511 52.564454 7.5371095 C 52.473634 7.3004338 49.688907 5.8476564 49.326173 5.8476564 z M 29.562501 18.228516 C 31.7078 18.161162 34.380586 18.433411 37.216798 19.009766 C 41.02409 19.783457 45.730614 21.750143 47.134767 23.154297 C 47.987177 24.006707 48.07571 24.257001 48.97461 28.425782 C 49.292467 29.899894 49.764928 31.87443 50.025392 32.812501 C 50.285856 33.750572 50.546007 34.851384 50.603517 35.259766 C 50.85749 37.06321 49.932581 38.342689 47.458985 39.609376 C 45.348122 40.690311 44.501958 40.914239 41.828126 41.097657 C 39.170892 41.279941 33.224627 41.273135 31.611329 41.085938 C 30.330976 40.937374 29.062909 40.55865 28.320313 40.103516 C 28.039073 39.931145 27.161936 39.273497 26.371094 38.640626 C 24.485113 37.131371 23.948285 36.836377 22.009766 36.244141 C 19.393214 35.444762 17.683097 34.237489 16.400391 32.283204 C 15.585581 31.041787 15.465737 30.164918 15.914063 28.718751 C 16.945164 25.392723 22.082238 20.452899 26.210938 18.816407 C 27.398807 18.345571 27.739254 18.285756 29.562501 18.228516 z M 28.021485 25.990235 C 26.677079 25.990235 25.752213 26.474559 25.107422 27.515626 C 24.707412 28.161474 24.6207 28.496474 24.5625 29.613282 C 24.460175 31.577007 24.942985 32.919845 25.890625 33.302735 C 27.033959 33.764694 29.094671 33.273174 29.941407 32.335938 C 30.6365 31.566553 30.860129 30.828722 30.861329 29.314454 C 30.863046 27.14802 29.874455 25.990235 28.021485 25.990235 z M 40.207032 26 C 40.045305 25.995496 39.86584 26.003664 39.646485 26.019532 C 38.471295 26.104537 37.767195 26.589898 36.841798 27.951172 C 36.152369 28.965333 35.41211 31.047407 35.41211 31.968751 C 35.41211 33.314133 36.643224 34.773523 38.126954 35.187501 C 39.602119 35.599089 41.14613 35.179628 42.175782 34.085938 C 43.310017 32.88116 43.999518 30.68757 43.88672 28.642579 C 43.845156 27.889043 43.179588 27.210876 41.82422 26.541016 C 41.021346 26.144186 40.692214 26.013514 40.207032 26 z M 20.640625 37.335938 C 21.872577 37.332022 22.599097 37.589759 23.451172 38.337891 C 24.346709 39.124182 24.584768 39.68658 24.47461 40.753907 C 24.36644 41.801968 23.672524 43.277404 22.283204 45.416016 C 21.05993 47.299029 20.230076 48.217314 19.41211 48.589845 C 18.647893 48.937891 18.015629 48.955496 17.179688 48.648438 C 15.099314 47.884271 13.482422 45.728281 13.482422 43.718751 C 13.482422 42.647225 14.025831 41.686932 15.50586 40.144532 C 17.61221 37.949418 18.723923 37.342038 20.640625 37.335938 z M 29.384766 43.070313 C 29.546704 43.062985 29.711753 43.062821 29.878907 43.072266 C 31.678143 43.173932 32.410752 43.947322 32.900391 46.257813 C 33.176797 47.562079 33.208267 50.254155 32.958985 51.244142 C 32.860889 51.633717 32.62048 52.102249 32.425782 52.285157 C 31.268602 53.372272 25.204573 52.181771 24.546875 50.738282 C 23.948032 49.423964 24.993054 45.902735 26.417969 44.435548 C 27.247432 43.581475 28.251203 43.121611 29.384766 43.070313 z M 39.044923 43.078126 C 39.742405 43.049251 40.424694 43.110199 40.744141 43.275391 C 41.56494 43.699842 43.630375 46.718202 44.013673 48.054688 C 44.311892 49.094517 43.201925 49.970603 40.996095 50.437501 C 40.381031 50.567688 39.102042 50.722251 38.154298 50.781251 C 36.548937 50.881196 36.408035 50.865066 36.093751 50.550782 C 35.632427 50.089458 35.422237 49.252992 35.304688 47.427735 C 35.2173 46.070835 35.244912 45.801348 35.535157 45.232423 C 35.924783 44.46869 36.596574 43.762874 37.259766 43.419923 C 37.634811 43.225979 38.347441 43.107001 39.044923 43.078126 z " transform="scale(0.26457812)" class="ColorScheme-Text"/>
</svg>
