<?xml version='1.0' encoding='UTF-8'?>
<svg xmlns:inkscape="http://www.inkscape.org/namespaces/inkscape" xmlns:sodipodi="http://sodipodi.sourceforge.net/DTD/sodipodi-0.dtd" xmlns="http://www.w3.org/2000/svg" xmlns:svg="http://www.w3.org/2000/svg" xmlns:rdf="http://www.w3.org/1999/02/22-rdf-syntax-ns#" xmlns:cc="http://creativecommons.org/ns#" xmlns:dc="http://purl.org/dc/elements/1.1/" width="64" height="64" version="1.1" viewBox="0 0 16.933 16.933" id="svg7" sodipodi:docname="warpinator.svg" inkscape:version="1.4 (e7c3feb100, 2024-10-09)">
  <sodipodi:namedview id="namedview7" pagecolor="#9c4444" bordercolor="#000000" borderopacity="0.25" inkscape:showpageshadow="2" inkscape:pageopacity="0.0" inkscape:pagecheckerboard="0" inkscape:deskcolor="#d1d1d1" inkscape:zoom="6.15625" inkscape:cx="15.837563" inkscape:cy="29.725888" inkscape:window-width="1183" inkscape:window-height="941" inkscape:window-x="35" inkscape:window-y="32" inkscape:window-maximized="0" inkscape:current-layer="svg7" showgrid="false"/>
  <defs id="defs2">
    <style id="current-color-scheme" type="text/css">.ColorScheme-Text {color:#d8dee9} .ColorScheme-Highlight {color:#3b4252}</style></defs>
  <metadata id="metadata2">
    <rdf:RDF>
      <cc:Work rdf:about="">
        <dc:format>image/svg+xml</dc:format>
        <dc:type rdf:resource="http://purl.org/dc/dcmitype/StillImage"/>
      </cc:Work>
    </rdf:RDF>
  </metadata>
  <path style="fill:currentColor;fill-opacity:1;stroke-width:0.363035" d="m 14.178216,1.3269776 a 1.3909033,1.5160656 0 0 0 -1.390907,1.5160652 1.3909033,1.5160656 0 0 0 0.06519,0.4560042 L 10.46461,6.1535148 A 2.7818069,3.0321311 0 0 0 9.3100524,5.875174 2.7818069,3.0321311 0 0 0 6.5309625,8.8081103 L 3.1555766,9.3322181 C 2.9673901,9.070722 2.6794616,8.9178967 2.3745525,8.917669 c -0.5487724,3.591e-4 -0.9933493,0.4855962 -0.992921,1.08375 3.086e-4,0.597575 0.4446785,1.081919 0.992921,1.08227 0.405098,-2.42e-4 0.7694924,-0.268543 0.9209296,-0.678085 L 6.677659,9.8785348 A 2.7818069,3.0321311 0 0 0 9.3100524,11.939437 2.7818069,3.0321311 0 0 0 12.091862,8.9073053 2.7818069,3.0321311 0 0 0 11.605585,7.19581 l 2.385183,-2.8529868 a 1.3909033,1.5160656 0 0 0 0.187454,0.016283 1.3909033,1.5160656 0 0 0 1.3909,-1.5160657 1.3909033,1.5160656 0 0 0 -1.3909,-1.516067 z M 6.1805198,2.0850103 A 1.0431775,1.1370491 0 0 0 5.1373425,3.2220594 1.0431775,1.1370491 0 0 0 6.1805198,4.3591085 1.0431775,1.1370491 0 0 0 7.2236977,3.2220594 1.0431775,1.1370491 0 0 0 6.1805198,2.0850103 Z m 7.9976962,0 A 0.69545172,0.75803282 0 0 1 14.873667,2.8430428 0.69545172,0.75803282 0 0 1 14.178216,3.6010759 0.69545172,0.75803282 0 0 1 13.482763,2.8430428 0.69545172,0.75803282 0 0 1 14.178216,2.0850103 Z M 7.1258992,4.1858859 6.611103,4.5989546 6.9561116,5.1363888 7.470909,4.7218398 Z M 7.6406968,4.9883353 7.1272577,5.4028841 7.5795734,6.1090985 8.0943706,5.6945499 Z M 9.3100524,7.3912398 A 1.3909033,1.5160656 0 0 1 10.700955,8.9073053 1.3909033,1.5160656 0 0 1 9.3100524,10.423371 1.3909033,1.5160656 0 0 1 7.9191494,8.9073053 1.3909033,1.5160656 0 0 1 9.3100524,7.3912398 Z M 2.3745525,9.4595443 C 2.6492032,9.45931 2.871905,9.7020529 2.8716913,10.001419 2.8719064,10.300785 2.6492032,10.543527 2.3745525,10.543293 2.1004311,10.542713 1.878556,10.300208 1.8787709,10.001419 1.8785564,9.7026311 2.1004315,9.460128 2.3745525,9.4595443 Z m 9.3464905,1.4213127 -0.484914,0.528547 0.626177,0.685489 0.487631,-0.531513 z m 0.854373,0.929773 -0.486273,0.53003 0.726693,0.790606 0.484914,-0.528551 z m -4.4878367,0.08143 -0.4332992,1.179987 0.6221037,0.236885 0.4319403,-1.178504 z m 5.9167717,0.805412 a 1.2170404,1.3265573 0 0 0 -1.217042,1.326557 1.2170404,1.3265573 0 0 0 1.217042,1.326557 1.2170404,1.3265573 0 0 0 1.217041,-1.326557 1.2170404,1.3265573 0 0 0 -1.217041,-1.326557 z m -6.4329282,0.758029 a 1.0431775,1.1370491 0 0 0 -1.0431769,1.13705 1.0431775,1.1370491 0 0 0 1.0431769,1.137049 1.0431775,1.1370491 0 0 0 1.0431783,-1.137049 1.0431775,1.1370491 0 0 0 -1.0431783,-1.13705 z" id="path8" class="ColorScheme-Text"/>
  </svg>
