<?xml version="1.0" encoding="UTF-8" standalone="no"?>
<svg
   width="64"
   height="64"
   version="1.1"
   viewBox="0 0 16.933 16.933"
   id="svg7"
   sodipodi:docname="waydroid.svg"
   inkscape:version="1.4.3 (0d15f75042, 2025-12-25)"
   xmlns:inkscape="http://www.inkscape.org/namespaces/inkscape"
   xmlns:sodipodi="http://sodipodi.sourceforge.net/DTD/sodipodi-0.dtd"
   xmlns="http://www.w3.org/2000/svg"
   xmlns:svg="http://www.w3.org/2000/svg"
   xmlns:rdf="http://www.w3.org/1999/02/22-rdf-syntax-ns#"
   xmlns:cc="http://creativecommons.org/ns#"
   xmlns:dc="http://purl.org/dc/elements/1.1/">
  <sodipodi:namedview
     id="namedview7"
     pagecolor="#9c4444"
     bordercolor="#000000"
     borderopacity="0.25"
     inkscape:showpageshadow="2"
     inkscape:pageopacity="0.0"
     inkscape:pagecheckerboard="0"
     inkscape:deskcolor="#d1d1d1"
     inkscape:zoom="6.15625"
     inkscape:cx="15.837563"
     inkscape:cy="29.725888"
     inkscape:window-width="2560"
     inkscape:window-height="1388"
     inkscape:window-x="0"
     inkscape:window-y="0"
     inkscape:window-maximized="1"
     inkscape:current-layer="svg7"
     showgrid="false" />
  <defs
     id="defs2">
    <style
       id="current-color-scheme"
       type="text/css">.ColorScheme-Text {color:#d8dee9} .ColorScheme-Highlight {color:#3b4252}</style>
  </defs>
  <metadata
     id="metadata2">
    <rdf:RDF>
      <cc:Work
         rdf:about="">
        <dc:format>image/svg+xml</dc:format>
        <dc:type
           rdf:resource="http://purl.org/dc/dcmitype/StillImage" />
      </cc:Work>
    </rdf:RDF>
  </metadata>
  <path
     id="path5"
     style="fill:currentColor"
     d="M 13.025249,1.4553688 A 0.72187431,0.7252925 0 0 0 12.459247,1.7520549 L 11.168883,3.5219071 C 10.350788,3.1275713 9.434441,2.9060514 8.466449,2.9060514 c -0.967272,0 -1.882846,0.221095 -2.700479,0.6148783 L 4.47756,1.7520549 A 0.72187431,0.7252925 0 0 0 4.004427,1.4641668 0.72187431,0.7252925 0 0 0 3.86366,1.4563468 0.72187431,0.7252925 0 0 0 3.467752,1.5951587 0.72187431,0.7252925 0 0 0 3.311834,2.6093657 L 4.542079,4.2971038 C 3.480103,5.1578056 2.70324,6.3602125 2.378274,7.7380757 c 0.735982,0.159148 1.503965,0.2936646 2.250807,0.4022614 0.213451,0.030707 0.425041,0.059308 0.634429,0.086025 v 5.005e-4 c 0.856147,0.1098956 1.662585,0.1843215 2.333898,0.2209262 l 0.002,-0.00245 c 0.27262,0.014652 0.530377,0.025485 0.754179,0.028349 0.03843,3.754e-4 0.0762,5.005e-4 0.112907,5.005e-4 0.03785,0 0.07692,-4.754e-4 0.116817,-9.742e-4 0.221735,-0.00334 0.479702,-0.015136 0.754668,-0.032259 l 0.0015,0.00195 c 0.668651,-0.04222 1.481636,-0.1264455 2.354427,-0.2478088 v -5.004e-4 c 0.131528,-0.018166 0.26422,-0.037051 0.397862,-0.056697 0.80005,-0.1192706 1.637854,-0.2682454 2.452181,-0.4438073 C 14.213192,6.3354003 13.442588,5.1505051 12.392775,4.2990609 L 13.623998,2.6093676 A 0.72187431,0.7252925 0 0 0 13.468079,1.5951606 0.72187431,0.7252925 0 0 0 13.02525,1.4553711 Z m 1.577274,6.4684413 c -0.0023,5.004e-4 -0.0046,0.00145 -0.0068,0.00195 -4.9e-5,-2.394e-4 4.8e-5,-7.257e-4 0,-9.742e-4 -0.299823,0.065131 -0.603137,0.1264915 -0.906676,0.184268 l -1.536749,4.7958551 c -0.223865,0.785447 -0.670635,0.752092 -0.991724,0.314771 L 8.493331,10.398964 5.735178,13.304239 C 5.397011,13.584801 5.080782,13.677152 4.835832,13.17618 L 3.192084,8.1432698 H 3.191595 C 2.902535,8.0890723 2.615134,8.0308181 2.332818,7.9692662 c -0.0016,0.0083 -0.0033,0.016612 -0.0049,0.024928 -0.05808,0.324938 -0.103941,0.7590172 -0.113885,1.103164 -2.43e-4,-0.010553 -6.26e-4,-0.021256 -9.46e-4,-0.03177 -0.0015,0.04358 -0.0026,0.086185 -0.0029,0.1265923 0,3.4715865 2.801082,6.2856385 6.256313,6.2856385 3.455226,0 6.256313,-2.814052 6.256313,-6.2856385 -6e-5,-0.045296 -9.26e-4,-0.092765 -0.0025,-0.1417446 -3.75e-4,0.011274 -7.25e-4,0.022403 -9.46e-4,0.033725 -0.0055,-0.2366002 -0.02734,-0.5124283 -0.05865,-0.7693311 -0.01651,-0.135492 -0.03573,-0.2648545 -0.0567,-0.3812442 -5.5e-4,-0.00303 -9.26e-4,-0.00677 -0.0015,-0.00977 z m -2.970282,0.5215223 c -0.773527,0.106346 -1.498045,0.1832871 -2.114438,0.22728 L 11.083836,10.690762 11.63273,8.4453324 Z M 5.324118,8.4761244 5.84955,10.65166 7.414606,8.6784771 C 6.798274,8.6400303 6.08152,8.5721949 5.324118,8.4761244 Z"
     class="ColorScheme-Text" />
</svg>
