<?xml version="1.0" encoding="UTF-8" standalone="no"?>
<svg
   width="64"
   height="64"
   version="1.1"
   viewBox="0 0 16.933 16.933"
   id="svg7"
   sodipodi:docname="whatsapp.svg"
   inkscape:version="1.4.3 (0d15f75042, 2025-12-25)"
   xmlns:inkscape="http://www.inkscape.org/namespaces/inkscape"
   xmlns:sodipodi="http://sodipodi.sourceforge.net/DTD/sodipodi-0.dtd"
   xmlns="http://www.w3.org/2000/svg"
   xmlns:svg="http://www.w3.org/2000/svg"
   xmlns:rdf="http://www.w3.org/1999/02/22-rdf-syntax-ns#"
   xmlns:cc="http://creativecommons.org/ns#"
   xmlns:dc="http://purl.org/dc/elements/1.1/">
  <sodipodi:namedview
     id="namedview7"
     pagecolor="#9c4444"
     bordercolor="#000000"
     borderopacity="0.25"
     inkscape:showpageshadow="2"
     inkscape:pageopacity="0.0"
     inkscape:pagecheckerboard="0"
     inkscape:deskcolor="#d1d1d1"
     inkscape:zoom="3.0781251"
     inkscape:cx="81.380708"
     inkscape:cy="63.999998"
     inkscape:window-width="2560"
     inkscape:window-height="1388"
     inkscape:window-x="0"
     inkscape:window-y="0"
     inkscape:window-maximized="1"
     inkscape:current-layer="svg7"
     showgrid="false" />
  <defs
     id="defs2">
    <style
       id="current-color-scheme"
       type="text/css">.ColorScheme-Text {color:#d8dee9} .ColorScheme-Highlight {color:#3b4252}</style>
  </defs>
  <metadata
     id="metadata2">
    <rdf:RDF>
      <cc:Work
         rdf:about="">
        <dc:format>image/svg+xml</dc:format>
        <dc:type
           rdf:resource="http://purl.org/dc/dcmitype/StillImage" />
      </cc:Work>
    </rdf:RDF>
  </metadata>
  <path
     d="m 13.412164,3.491145 c -1.257867,-1.257867 -2.9955,-2.035967 -4.915032,-2.035967 -3.838597,0 -6.950999,3.111934 -6.950999,6.950999 0,1.277506 0.344627,2.474116 0.945504,3.502855 l -0.01777,-0.03273 -0.986186,3.60152 3.684287,-0.966547 c 0.959064,0.532606 2.103302,0.845904 3.320955,0.845904 h 0.0028 c 3.838598,-0.0014 6.949596,-3.113804 6.949596,-6.952402 0,-1.918597 -0.777165,-3.655295 -2.033628,-4.913161 v 0 z M 8.495729,14.183011 h -0.0023 c 0,0 -4.66e-4,0 -4.66e-4,0 -1.084384,0 -2.099094,-0.299269 -2.965573,-0.819717 L 5.55358,13.377784 5.342689,13.252933 3.15662,13.826689 3.739727,11.694862 3.60225,11.476489 C 3.048133,10.605802 2.718937,9.544798 2.718937,8.40664 c 0,-3.190025 2.586342,-5.776367 5.776367,-5.776367 3.190024,0 5.776366,2.586342 5.776366,5.776367 0,3.190024 -2.585874,5.776366 -5.776366,5.776366 v 0 z M 11.664244,9.857166 C 11.490761,9.770196 10.636908,9.350746 10.477921,9.292295 10.318467,9.234315 10.2025,9.205785 10.086533,9.379735 9.971501,9.553217 9.638564,9.944138 9.537093,10.060105 9.43609,10.176539 9.334151,10.190568 9.160668,10.104065 8.622919,9.88616 8.160922,9.595775 7.759246,9.238054 l 0.0047,0.0042 C 7.390327,8.896224 7.070015,8.500159 6.811428,8.063413 L 6.798338,8.039093 C 6.697334,7.865611 6.787588,7.771621 6.874088,7.685114 6.952178,7.607494 7.048039,7.482172 7.134546,7.381168 7.202816,7.297468 7.261268,7.201607 7.305691,7.098733 l 0.0028,-0.008 c 0.02011,-0.04068 0.0318,-0.08791 0.0318,-0.138412 0,-0.06126 -0.0173,-0.118305 -0.04723,-0.166936 l 9.35e-4,0.0014 C 7.250046,6.699815 6.903075,5.845022 6.758584,5.497121 6.617367,5.158572 6.473811,5.204866 6.367664,5.199254 6.26666,5.194554 6.150693,5.193654 6.034726,5.193654 5.850021,5.198354 5.685891,5.281564 5.572729,5.410157 l -4.67e-4,9.35e-4 c -0.375022,0.35585 -0.607891,0.857594 -0.607891,1.41358 0,0.01216 0,0.02478 4.67e-4,0.03694 v -0.0019 c 0.06126,0.685981 0.318441,1.301822 0.714038,1.803565 l -0.0056,-0.007 c 0.750044,1.112441 1.74979,2.0023 2.92302,2.601774 l 0.04395,0.02011 c 0.25625,0.115967 0.584511,0.239883 0.920253,0.34603 l 0.06967,0.01917 c 0.206683,0.06547 0.444696,0.103341 0.691593,0.103341 0.141685,0 0.281033,-0.01262 0.415704,-0.03647 l -0.0145,0.0019 c 0.499873,-0.104276 0.914642,-0.405884 1.167618,-0.817847 l 0.0042,-0.0079 c 0.07715,-0.171145 0.122045,-0.370813 0.122045,-0.58077 0,-0.08651 -0.0075,-0.171144 -0.02198,-0.253443 l 0.0014,0.0089 C 11.953229,9.988592 11.837263,9.945573 11.663312,9.85813 Z"
     id="path5"
     style="fill:currentColor"
     class="ColorScheme-Text" />
</svg>
