<?xml version="1.0" encoding="UTF-8" standalone="no"?>
<svg
   width="64"
   height="64"
   version="1.1"
   viewBox="0 0 16.933 16.933"
   id="svg7"
   sodipodi:docname="winboat.svg"
   inkscape:version="1.4.3 (0d15f75042, 2025-12-25)"
   xmlns:inkscape="http://www.inkscape.org/namespaces/inkscape"
   xmlns:sodipodi="http://sodipodi.sourceforge.net/DTD/sodipodi-0.dtd"
   xmlns="http://www.w3.org/2000/svg"
   xmlns:svg="http://www.w3.org/2000/svg"
   xmlns:rdf="http://www.w3.org/1999/02/22-rdf-syntax-ns#"
   xmlns:cc="http://creativecommons.org/ns#"
   xmlns:dc="http://purl.org/dc/elements/1.1/">
  <sodipodi:namedview
     id="namedview7"
     pagecolor="#9c4444"
     bordercolor="#000000"
     borderopacity="0.25"
     inkscape:showpageshadow="2"
     inkscape:pageopacity="0.0"
     inkscape:pagecheckerboard="0"
     inkscape:deskcolor="#d1d1d1"
     inkscape:zoom="4.3531262"
     inkscape:cx="89.590787"
     inkscape:cy="35.836315"
     inkscape:window-width="2560"
     inkscape:window-height="1388"
     inkscape:window-x="0"
     inkscape:window-y="0"
     inkscape:window-maximized="1"
     inkscape:current-layer="svg7"
     showgrid="false" />
  <defs
     id="defs2">
    <style
       id="current-color-scheme"
       type="text/css">.ColorScheme-Text {color:#d8dee9} .ColorScheme-Highlight {color:#3b4252}</style>
  </defs>
  <metadata
     id="metadata2">
    <rdf:RDF>
      <cc:Work
         rdf:about="">
        <dc:format>image/svg+xml</dc:format>
        <dc:type
           rdf:resource="http://purl.org/dc/dcmitype/StillImage" />
      </cc:Work>
    </rdf:RDF>
  </metadata>
  <path
     id="path5"
     d="m 8.4973828,14.259292 c -0.290444,-0.01 -0.598611,0.10757 -0.892775,0.39819 -0.351503,0.34729 -0.608375,0.25694 -0.886013,-0.01 -0.79627,-0.76544 -1.488851,-0.20178 -1.715278,0.0297 -0.349333,0.35707 -0.65929,0.16021 -0.784267,0.0497 -0.291431,-0.25763 -0.566011,-0.36959 -0.908695,-0.37048 -0.296657,-7.7e-4 -0.561982,0.083 -0.785676,0.248 -0.230006,0.16968 -0.285739,0.29189 -0.20862,0.45751 0.04858,0.10436 0.15314,0.17377 0.261733,0.17377 0.08992,0 0.133599,-0.0202 0.252955,-0.11689 0.399657,-0.32382 0.785873,-0.1447 0.979348,0.0327 0.437117,0.40092 1.07643,0.46424 1.592372,-0.0411 0.268734,-0.27684 0.560826,-0.35825 0.860287,-0.0792 0.271087,0.26771 0.406617,0.35121 0.672012,0.41401 0.09362,0.0222 0.365563,0.0198 0.475283,-0.004 0.236176,-0.0514 0.369254,-0.1317 0.630648,-0.38044 0.365366,-0.3477 0.617279,-0.22278 0.883843,0.036 0.147223,0.14291 0.171342,0.16256 0.273398,0.22273 0.166199,0.098 0.33516,0.14163 0.548091,0.14163 0.3557012,-0.009 0.6175602,-0.13003 0.8566952,-0.38174 0.341458,-0.32737 0.570773,-0.28796 0.885872,0.0152 0.815388,0.78457 1.532538,0.14912 1.692286,-0.0139 0.206323,-0.22879 0.501515,-0.29485 0.762529,-0.102 0.142742,0.11655 0.208493,0.13611 0.33254,0.0989 0.08068,-0.0242 0.171384,-0.11538 0.192221,-0.19332 0.04076,-0.15236 -0.01123,-0.26386 -0.183261,-0.39299 -0.365493,-0.27437 -0.851158,-0.29891 -1.243207,-0.0628 -0.06886,0.0415 -0.169229,0.12302 -0.259422,0.21079 -0.297306,0.28937 -0.542343,0.36199 -0.901341,0.009 -0.477086,-0.46862 -0.937534,-0.40818 -1.160143,-0.33629 -0.214283,0.0692 -0.341402,0.15123 -0.538934,0.34783 -0.3774252,0.37562 -0.6452012,0.2098 -0.8980722,-0.0367 -0.223257,-0.21761 -0.495979,-0.35442 -0.786409,-0.36418 m 0,-1.21958 c -0.290444,-0.01 -0.598611,0.10756 -0.892775,0.39819 -0.351503,0.34729 -0.608375,0.25694 -0.886013,-0.01 -0.79627,-0.76544 -1.488851,-0.20179 -1.715278,0.0297 -0.349333,0.35705 -0.65929,0.16021 -0.784267,0.0497 -0.291431,-0.25763 -0.566011,-0.36959 -0.908695,-0.37048 -0.296657,-7.8e-4 -0.561982,0.083 -0.785676,0.24799 -0.230006,0.16968 -0.285739,0.2919 -0.20862,0.45752 0.04859,0.10435 0.15314,0.17377 0.261733,0.17377 0.08992,0 0.133599,-0.0202 0.252955,-0.11689 0.399657,-0.32381 0.785873,-0.1447 0.979362,0.0327 0.437103,0.40092 1.076416,0.46422 1.592358,-0.0411 0.268734,-0.27684 0.560826,-0.35825 0.860287,-0.0792 0.271101,0.26769 0.406617,0.35121 0.672012,0.41401 0.09362,0.0222 0.365563,0.0198 0.475283,-0.004 0.236176,-0.0514 0.369254,-0.1317 0.630648,-0.38044 0.365366,-0.3477 0.617279,-0.22278 0.883843,0.036 0.147223,0.14292 0.171342,0.16257 0.273398,0.22274 0.166199,0.098 0.33516,0.14163 0.548091,0.14163 0.3557012,-0.009 0.6175602,-0.13004 0.8566952,-0.38174 0.341458,-0.32737 0.570773,-0.28796 0.885872,0.0153 0.815388,0.78457 1.532538,0.14912 1.692286,-0.014 0.206323,-0.22879 0.501515,-0.29485 0.762529,-0.102 0.142742,0.11655 0.208493,0.13611 0.33254,0.0989 0.08068,-0.0242 0.171384,-0.11538 0.192221,-0.19332 0.04076,-0.15236 -0.01123,-0.26386 -0.183261,-0.39299 -0.365493,-0.27437 -0.851158,-0.29891 -1.243207,-0.0628 -0.06886,0.0415 -0.169229,0.12301 -0.259422,0.21078 -0.297306,0.28938 -0.542343,0.362 -0.901341,0.009 -0.477086,-0.46862 -0.937534,-0.40818 -1.160143,-0.33629 -0.214283,0.0692 -0.341402,0.15123 -0.538934,0.34783 -0.3774252,0.37562 -0.6452012,0.2098 -0.8980722,-0.0367 -0.223257,-0.21761 -0.495979,-0.35442 -0.786409,-0.36418 M 4.7575748,1.4549118 c -0.225159,0.003 -0.411533,0.0637 -0.557178,0.19859 -0.161353,0.14938 -0.18829,0.24374 -0.169933,0.59526 0.01161,0.22252 0.05682,1.13877 0.127527,2.58457 l 0.03154,0.64454 h 4.854756 v -0.0419 c 0,-0.0811 -0.08042,-1.46745 -0.135515,-2.52215 -0.02863,-0.54797 -0.02154,-0.75218 -0.03949,-0.75574 -1.412831,-0.2796 -2.559308,-0.50943 -3.873703,-0.68733 -0.0836,-0.0113 -0.16296,-0.0168 -0.238008,-0.0158 m 5.081028,0.88546 c -0.0027,0.003 0.1727512,3.12755 0.1759912,3.13397 9.86e-4,0.002 0.682705,0.004 1.514942,0.004 H 13.0427 l -0.0058,-0.0528 c -0.03494,-0.31983 -0.07109,-1.83556 -0.159733,-2.09302 -0.06696,-0.19444 -0.270073,-0.44001 -0.487836,-0.51479 -0.391866,-0.13461 -1.149661,-0.20047 -2.4499542,-0.46011 -0.05397,-0.0108 -0.09932,-0.0183 -0.100802,-0.0167 m 3.2419002,3.91471 c -0.0075,-0.008 -3.008809,0.0503 -3.016727,0.0583 -0.01014,0.0101 0.16427,3.08017 0.164044,3.13539 -8.5e-5,0.0251 0.0056,0.031 0.02311,0.0243 0.02968,-0.0114 2.114794,-0.43449 2.209059,-0.45198 0.226624,-0.0421 0.366155,-0.11163 0.508559,-0.25338 0.113735,-0.11322 0.174695,-0.22219 0.211437,-0.37799 0.02403,-0.10193 0.02346,-0.12027 -0.03522,-1.11679 -0.03281,-0.55724 -0.06173,-1.01526 -0.06424,-1.01783 m -3.9856912,0.0681 c -1.242109,0.002 -3.065754,0.0663 -4.852897,0.0928 -0.0076,0.007 0.151139,3.23728 0.167848,3.4166 0.01092,0.11697 0.0228,0.1675802 0.05479,0.2336402 0.103055,0.21273 0.334216,0.36212 0.613883,0.39668 0.144616,0.0179 0.223638,0.008 0.690326,-0.0858 6.8846822,-1.3843702 -1.577466,0.31715 3.500942,-0.7065902 0,-0.0999 -0.02592,-0.62461 -0.09801,-1.91031 -0.0266,-0.47896 -0.05127,-0.958 -0.07688,-1.437 m 5.2954652,3.02898 c -0.03577,0 -0.132683,0.0156 -0.215395,0.0346 -2.683271,0.6174202 -10.2648022,2.1409902 -10.4759442,2.3214802 -0.07875,0.0673 -0.108761,0.13212 -0.110227,0.23794 -9.01e-4,0.0654 0.01423,0.11831 0.08667,0.3029 l 0.151421,0.38563 c 0.115989,0.29529 0.11179,0.28828 0.193615,0.32219 0.332864,0.13797 0.471634,0.4445 0.646878,0.35187 0.01692,-0.009 0.09538,-0.0778 0.174371,-0.15307 0.815191,-0.7766 1.722984,-0.36954 2.054158,-0.0275 0.247447,0.25552 0.302166,0.2586 0.529339,0.0297 0.544626,-0.54869 1.425778,-0.64198 2.073995,-0.0158 0.0714,0.069 0.156042,0.13953 0.188135,0.15684 0.09138,0.0493 0.146856,0.0255 0.3134362,-0.1343 0.456165,-0.43773 1.310367,-0.761 2.094648,-0.006 0.234823,0.22614 0.264282,0.22527 0.5107,-0.015 0.126598,-0.12345 0.233472,-0.19906 0.423326,-0.29965 0.106084,-0.0562 0.06796,0.008 0.423099,-0.7167 0.366353,-0.74792 0.733268,-1.49556 1.09993,-2.2433302 0.05159,-0.10477 0.09124,-0.20514 0.09532,-0.24133 0.01792,-0.15908 -0.09867,-0.29074 -0.257478,-0.29074"
     style="fill:currentColor"
     class="ColorScheme-Text" />
</svg>
