<?xml version='1.0' encoding='UTF-8'?>
<svg xmlns:inkscape="http://www.inkscape.org/namespaces/inkscape" xmlns:sodipodi="http://sodipodi.sourceforge.net/DTD/sodipodi-0.dtd" xmlns="http://www.w3.org/2000/svg" xmlns:svg="http://www.w3.org/2000/svg" xmlns:rdf="http://www.w3.org/1999/02/22-rdf-syntax-ns#" xmlns:cc="http://creativecommons.org/ns#" xmlns:dc="http://purl.org/dc/elements/1.1/" width="64" height="64" version="1.1" viewBox="0 0 16.933 16.933" id="svg7" sodipodi:docname="wine.svg" inkscape:version="1.4 (e7c3feb100, 2024-10-09)">
  <sodipodi:namedview id="namedview7" pagecolor="#9c4444" bordercolor="#000000" borderopacity="0.25" inkscape:showpageshadow="2" inkscape:pageopacity="0.0" inkscape:pagecheckerboard="0" inkscape:deskcolor="#d1d1d1" inkscape:zoom="6.15625" inkscape:cx="15.51269" inkscape:cy="29.725888" inkscape:window-width="1183" inkscape:window-height="941" inkscape:window-x="35" inkscape:window-y="32" inkscape:window-maximized="0" inkscape:current-layer="svg7" showgrid="false"/>
  <defs id="defs2">
    <style id="current-color-scheme" type="text/css">.ColorScheme-Text {color:#d8dee9} .ColorScheme-Highlight {color:#3b4252}</style></defs>
  <metadata id="metadata2">
    <rdf:RDF>
      <cc:Work rdf:about="">
        <dc:format>image/svg+xml</dc:format>
        <dc:type rdf:resource="http://purl.org/dc/dcmitype/StillImage"/>
      </cc:Work>
    </rdf:RDF>
  </metadata>
  <g id="g9" transform="matrix(0.46959567,0,0,0.46959567,4.7471229,3.7470598)" style="fill:#999999;fill-opacity:1;stroke:none;stroke-width:0.58349;stroke-dasharray:none;stroke-opacity:0.3"/>
  <path style="fill:currentColor;stroke-width:0.0200629" d="m 6.0266141,14.695534 v -0.173907 l 0.3544453,-5.19e-4 c 0.6993629,-9.5e-4 1.4071862,-0.15789 1.75717,-0.389456 0.054636,-0.03616 0.1285521,-0.116698 0.1642132,-0.178961 l 0.064864,-0.113221 0.00762,-1.524781 C 8.38339,10.642949 8.3784825,10.573776 8.2220399,10.170856 8.0562784,9.7438171 7.7168155,9.3673078 6.8812724,8.6838062 6.5193359,8.3877326 6.312162,8.1338856 6.1174426,7.7478934 5.7037554,6.9278486 5.6302427,5.5779957 5.92036,4.1290046 6.0590807,3.436108 6.3970118,2.314976 6.4806067,2.2702357 6.5137875,2.2524893 7.3274745,2.2430809 8.8330172,2.2430809 h 2.3016908 l 0.04152,0.063367 c 0.09538,0.1455837 0.391311,1.1119004 0.518481,1.6931041 0.154622,0.7065636 0.216984,1.2549789 0.216984,1.9070475 0,0.5142017 -0.0078,0.6256664 -0.06566,0.9153552 C 11.72317,7.4391958 11.573009,7.8103498 11.299079,8.173887 11.124507,8.4055594 11.015502,8.5113257 10.594832,8.8572112 9.8080379,9.5041308 9.5367444,9.8594008 9.3641172,10.468877 c -0.060012,0.211889 -0.060582,0.229632 -0.058321,1.792285 0.00255,1.743621 -0.0049,1.66642 0.1746271,1.817482 0.1662595,0.139878 0.4847324,0.273096 0.7994917,0.334381 0.131223,0.02563 1.220216,0.135337 1.342489,0.135337 0.0415,0 0.04855,0.02303 0.04855,0.160512 v 0.16055 H 8.8487677 6.0265818 Z m 3.4457493,-0.187891 c -0.00762,-0.0076 -0.070804,-0.05438 -0.1402732,-0.103778 -0.069443,-0.04936 -0.1723927,-0.151145 -0.2287744,-0.226176 -0.093818,-0.124887 -0.10393,-0.155173 -0.1194986,-0.357679 -0.00927,-0.121695 -0.019359,-0.853237 -0.022629,-1.625663 -0.006,-1.524055 -8.87e-5,-1.603827 0.1512856,-2.048825 C 9.2865299,9.6337912 9.4981421,9.3688713 10.293227,8.6673718 10.99904,8.0447188 11.202359,7.7968596 11.377596,7.3455727 11.6699,6.5927954 11.6545,5.2839441 11.337556,3.9418111 11.224756,3.464153 10.998098,2.7266463 10.942295,2.6557068 l -0.05171,-0.065755 -2.0732173,0.00714 -2.0732186,0.00714 -0.050958,0.062955 C 6.6291706,2.7462684 6.5432602,3.0231759 6.3765485,3.6876517 6.0002263,5.1876829 5.9797887,6.4905573 6.3188018,7.3696197 6.4949831,7.8265 6.7018408,8.0928522 7.2106367,8.5180112 7.6767614,8.9075156 8.0793742,9.2934634 8.2383334,9.5031686 8.3755799,9.6842405 8.572455,10.08226 8.6169479,10.268628 c 0.090353,0.378444 0.1114844,0.752985 0.1091645,1.933758 -0.00119,0.650284 -0.01064,1.337549 -0.021001,1.527239 l -0.018544,0.344909 -0.2343642,0.223542 -0.2343641,0.223547 h 0.6342882 c 0.3488615,0 0.6279937,-0.0061 0.6202997,-0.01387 z M 8.7802499,9.5944887 C 8.7352824,9.4582426 8.5882353,9.229087 8.4362448,9.0584045 8.3742812,8.9888155 8.0541219,8.7145332 7.7247767,8.4488773 7.3954314,8.1832196 7.064235,7.8970753 6.9887837,7.8130003 6.5708383,7.3472932 6.3690767,6.4934885 6.4453731,5.5134056 l 0.017176,-0.2206924 h 2.3616555 2.3616584 l 0.01767,0.055759 c 0.03152,0.099307 0.0221,0.9945586 -0.01254,1.2148957 -0.07544,0.4772773 -0.248545,0.9151337 -0.474254,1.1996568 C 10.649419,7.8478577 10.366295,8.09903 10.058187,8.3472129 9.7609157,8.58667 9.4469099,8.8490387 9.3604004,8.9302535 9.1670408,9.1117732 8.9633812,9.3960761 8.8995583,9.573561 c -0.026174,0.073146 -0.055567,0.1329962 -0.064997,0.1329962 -0.0095,0 -0.033835,-0.050426 -0.054175,-0.1120639 z" id="path99" class="ColorScheme-Text"/>
</svg>
