<?xml version="1.0" encoding="UTF-8" standalone="no"?>
<svg
   width="64"
   height="64"
   version="1.1"
   viewBox="0 0 16.933 16.933"
   id="svg7"
   sodipodi:docname="xyz.z3ntu.razergenie.svg"
   inkscape:version="1.4.3 (0d15f75042, 2025-12-25)"
   xmlns:inkscape="http://www.inkscape.org/namespaces/inkscape"
   xmlns:sodipodi="http://sodipodi.sourceforge.net/DTD/sodipodi-0.dtd"
   xmlns="http://www.w3.org/2000/svg"
   xmlns:svg="http://www.w3.org/2000/svg"
   xmlns:rdf="http://www.w3.org/1999/02/22-rdf-syntax-ns#"
   xmlns:cc="http://creativecommons.org/ns#"
   xmlns:dc="http://purl.org/dc/elements/1.1/">
  <sodipodi:namedview
     id="namedview7"
     pagecolor="#9c4444"
     bordercolor="#000000"
     borderopacity="0.25"
     inkscape:showpageshadow="2"
     inkscape:pageopacity="0.0"
     inkscape:pagecheckerboard="0"
     inkscape:deskcolor="#d1d1d1"
     inkscape:zoom="6.15625"
     inkscape:cx="57.258883"
     inkscape:cy="38.010152"
     inkscape:window-width="2560"
     inkscape:window-height="1388"
     inkscape:window-x="0"
     inkscape:window-y="0"
     inkscape:window-maximized="1"
     inkscape:current-layer="svg7"
     showgrid="false" />
  <defs
     id="defs2">
    <style
       id="current-color-scheme"
       type="text/css">.ColorScheme-Text {color:#d8dee9} .ColorScheme-Highlight {color:#3b4252}</style>
  </defs>
  <metadata
     id="metadata2">
    <rdf:RDF>
      <cc:Work
         rdf:about="">
        <dc:format>image/svg+xml</dc:format>
        <dc:type
           rdf:resource="http://purl.org/dc/dcmitype/StillImage" />
      </cc:Work>
    </rdf:RDF>
  </metadata>
  <path
     id="path5"
     style="fill:currentColor"
     d="M 8.4664997,1.4551797 A 7.0113689,7.0113679 0 0 0 1.4551784,8.4665007 7.0113689,7.0113679 0 0 0 8.4664997,15.47782 7.0113689,7.0113679 0 0 0 15.477822,8.4665007 7.0113689,7.0113679 0 0 0 8.4664997,1.4551797 Z m 3.9706503,2.597551 -0.213448,0.229269 -0.08425,0.0384 a 0.20123336,0.20123336 0 0 1 -0.08818,0.208711 c -0.05034,0.03249 -0.103815,0.05973 -0.159733,0.08123 -0.136131,0.05233 -0.245953,0.06646 -0.311202,0.09564 -0.03189,0.01426 -0.05417,0.03103 -0.0651,0.04384 -0.008,0.0093 -0.0105,0.01932 -0.01108,0.02026 0.0011,0.0035 0.0088,0.03016 0.03336,0.07387 0.01697,0.03018 0.04168,0.07041 0.06299,0.125569 0.02174,0.05627 0.03926,0.127209 0.02741,0.210324 -0.01482,0.103963 -0.07011,0.187922 -0.145624,0.245999 -0.07397,0.05689 -0.15902,0.08263 -0.242169,0.08606 -0.08196,0.0034 -0.157195,-0.01503 -0.22282,-0.04384 -0.06507,-0.02857 -0.119254,-0.0666 -0.165175,-0.106019 -0.09146,-0.07851 -0.150981,-0.159469 -0.203975,-0.216571 -0.05196,-0.05599 -0.09999,-0.09066 -0.133833,-0.101081 -0.03334,-0.01027 -0.08409,-0.0049 -0.12305,0.01693 -0.04086,0.02292 -0.07982,0.06707 -0.102592,0.119321 -0.02693,0.06179 -0.0356,0.141077 -0.02469,0.222014 0.01106,0.08206 0.04137,0.168673 0.08435,0.256178 0.155682,0.316973 0.440415,0.582178 0.736889,0.858829 0.297662,0.277762 0.62193,0.587881 0.794835,1.01312 0.08198,0.201617 0.130891,0.439114 0.07034,0.679848 -0.05881,0.233809 -0.213541,0.429205 -0.417322,0.547628 -0.202687,0.117787 -0.440639,0.153067 -0.665739,0.11146 -0.210873,-0.03898 -0.391569,-0.13928 -0.545813,-0.250333 -0.153591,-0.110582 -0.282933,-0.231898 -0.4094608,-0.336497 -0.1262884,-0.1044 -0.2518272,-0.193392 -0.3808398,-0.245394 -0.1266636,-0.05106 -0.2626059,-0.06487 -0.3707621,-0.03154 -0.067901,0.02092 -0.1320787,0.06231 -0.1790823,0.115592 -0.047003,0.05328 -0.080123,0.122102 -0.092414,0.192083 a 0.20123336,0.20123336 0 0 1 -6.045e-4,0.0023 0.20123336,0.20123336 0 0 1 -0.011994,0.08203 c -0.086083,0.23096 -0.2208531,0.442287 -0.3939405,0.617768 -0.3567502,0.36168 -0.8410001,0.541294 -1.3133383,0.616459 -0.4700898,0.07481 -0.9335286,0.05468 -1.378037,0.0524 -0.4705832,-0.0024 -0.9410167,0.01643 -1.410387,0.05029 V 12.492565 H 12.552448 V 9.7457627 c -0.709096,-0.02782 -1.419363,-0.02886 -2.128228,0.0043 -0.02974,0.0014 -0.06396,0.0032 -0.102793,0.0025 -0.213836,-0.0037 -0.4199829,-0.08544 -0.5782639,-0.229269 C 9.5848813,9.3794657 9.4839055,9.1821217 9.4597755,8.9696197 a 0.20123336,0.20123336 0 0 1 0.087476,-0.189563 l -0.1119647,-0.312311 0.2082074,0.234006 0.015218,0.04394 a 0.20123336,0.20123336 0 0 1 0.200951,0.178478 c 0.012784,0.112571 0.070343,0.225034 0.1541908,0.301225 0.08385,0.07619 0.201251,0.122787 0.314528,0.124763 0.02116,3.71e-4 0.0469,-7.02e-4 0.07709,-0.0021 0.785317,-0.03677 1.572288,-0.03671 2.357599,2.15e-4 a 0.20125348,0.20125348 0 0 1 0.19178,0.201052 v 3.1444723 a 0.20125348,0.20125348 0 0 1 -0.201254,0.201254 H 4.1794055 A 0.20125348,0.20125348 0 0 1 3.978152,12.693791 V 9.5454887 a 0.20125348,0.20125348 0 0 1 0.1847259,-0.200548 c 0.5421638,-0.04462 1.0862961,-0.06567 1.6302846,-0.06289 0.4541536,0.0023 0.8953156,0.01906 1.3127329,-0.04737 0.4151691,-0.06607 0.8155807,-0.223447 1.0899134,-0.501571 0.1086753,-0.110177 0.1985059,-0.240078 0.2637359,-0.380739 l -0.073568,-0.07709 c 0.00458,0.0036 0.00916,0.0072 0.013807,0.01068 l -0.024288,-0.02157 0.010379,0.01088 C 8.3138907,8.2188907 8.2499,8.1528267 8.195808,8.0790567 8.0692663,7.9064817 8.0064752,7.7065587 7.9800424,7.5128867 c -0.026293,-0.192664 -0.017702,-0.378619 -0.00463,-0.553472 0.013057,-0.174744 0.030543,-0.339817 0.030233,-0.495828 -3.095e-4,-0.155567 -0.018871,-0.303746 -0.067723,-0.43143 -0.044278,-0.11573 -0.1166173,-0.215389 -0.2034705,-0.272403 -0.043269,-0.0284 -0.091288,-0.04726 -0.1373603,-0.05422 -0.045618,-0.0069 -0.092515,-0.0022 -0.1309102,0.01229 -0.042305,0.01594 -0.087704,0.04881 -0.1277867,0.09393 -0.040661,0.04577 -0.077583,0.105015 -0.1127702,0.173237 -0.1648493,0.319605 -0.2323486,0.699757 -0.2894344,1.093541 -0.057179,0.394425 -0.1075587,0.815421 -0.2747206,1.219312 -0.042665,0.103086 -0.097015,0.216402 -0.1866408,0.319164 -0.091406,0.104804 -0.2183941,0.194708 -0.3789251,0.219494 -0.1339078,0.02068 -0.2697874,-0.0086 -0.3834598,-0.08465 -0.1139142,-0.0762 -0.1940107,-0.191792 -0.2239285,-0.326823 -0.033116,-0.149468 7.996e-4,-0.281639 0.035071,-0.38598 0.033752,-0.102765 0.0671,-0.18218 0.078304,-0.244285 0.00554,-0.03073 0.00621,-0.05731 0.00332,-0.0772 -0.00164,-0.01131 -0.00533,-0.01649 -0.00857,-0.02399 -0.00534,0.01223 -0.00983,0.02134 -0.017636,0.04253 -0.010086,0.02738 -0.022998,0.06401 -0.046056,0.10622 -0.023389,0.04282 -0.056948,0.0906 -0.110855,0.130809 -0.091778,0.06846 -0.1970441,0.08254 -0.2914497,0.06682 -0.091033,-0.01516 -0.1634563,-0.05628 -0.2205021,-0.100678 -0.1123258,-0.08741 -0.1679782,-0.17597 -0.2125407,-0.215463 -0.018312,-0.01623 -0.038645,-0.03048 -0.060164,-0.04213 a 0.20123336,0.20123336 0 0 1 -0.094832,-0.241464 l -0.2674645,-0.225138 0.2975972,0.09765 0.037691,0.03255 h 1.031e-4 a 0.20123336,0.20123336 0 0 1 0.2184866,-0.01753 c 0.04866,0.02634 0.094138,0.05823 0.1355462,0.09493 0.1002285,0.08883 0.1524298,0.167529 0.1927882,0.198936 0.013531,0.01053 0.020259,0.01218 0.027613,0.01502 0.00442,-0.0097 0.00899,-0.01954 0.016427,-0.03971 0.011976,-0.0325 0.026914,-0.07631 0.055226,-0.126174 0.028864,-0.05084 0.07118,-0.106847 0.1396782,-0.14895 0.094582,-0.05814 0.200691,-0.06666 0.2976978,-0.0391 0.094746,0.02692 0.1686836,0.0848 0.2208045,0.155601 0.051261,0.06963 0.077858,0.146827 0.088685,0.221611 0.01072,0.07404 0.00577,0.143619 -0.00554,0.206292 -0.022498,0.124706 -0.066529,0.220821 -0.092011,0.298404 -0.024963,0.07601 -0.032435,0.137474 -0.024489,0.173338 0.00648,0.02926 0.028764,0.06205 0.054722,0.07941 0.026201,0.01753 0.065959,0.02637 0.098359,0.02136 0.041123,-0.0063 0.094247,-0.0373 0.1369573,-0.08627 0.044491,-0.05101 0.082646,-0.123162 0.1180109,-0.20861 0.1396545,-0.337429 0.1904916,-0.723491 0.2484176,-1.12307 0.058019,-0.400221 0.127117,-0.826882 0.3300479,-1.22032 0.043519,-0.08437 0.096233,-0.173385 0.1696088,-0.255976 0.073954,-0.08324 0.168347,-0.158673 0.2867137,-0.203268 0.054285,-0.02045 0.1101396,-0.03294 0.1660818,-0.0383 0.055943,-0.0054 0.1119514,-0.0035 0.1667874,0.0047 0.1092171,0.01649 0.2101806,0.05791 0.2982016,0.115694 0.1757272,0.115353 0.290405,0.287357 0.3583666,0.464989 0.073183,0.19128 0.093967,0.388491 0.094328,0.574434 3.706e-4,0.1855 -0.01895,0.360746 -0.031342,0.526565 -0.012384,0.165709 -0.01777,0.323409 0.00212,0.469121 0.019749,0.144702 0.066192,0.279822 0.1415928,0.382654 0.02696,0.03677 0.058252,0.07062 0.092917,0.100374 0.019991,-0.03011 0.042131,-0.05897 0.066211,-0.08626 0.096913,-0.109863 0.2222941,-0.190862 0.3622964,-0.234007 0.2210425,-0.06812 0.4470048,-0.03479 0.6398394,0.04293 0.1904854,0.07678 0.3475447,0.193398 0.4867577,0.308482 0.138971,0.114886 0.262231,0.229378 0.388196,0.32007 0.125312,0.09022 0.255999,0.157564 0.383863,0.181199 0.133244,0.02463 0.277924,0.0016 0.390313,-0.06369 0.111295,-0.06468 0.199189,-0.1783 0.22927,-0.2979 0.03178,-0.12637 0.0078,-0.280875 -0.05281,-0.429919 -0.131265,-0.322831 -0.403925,-0.597339 -0.696678,-0.87052 -0.293943,-0.27429 -0.623133,-0.567767 -0.823456,-0.97563 -0.055729,-0.113465 -0.1031879,-0.239997 -0.1220424,-0.379833 -0.019005,-0.140955 -0.0079,-0.293205 0.054622,-0.43667 0.054632,-0.125364 0.1464994,-0.237612 0.2746194,-0.309489 0.130013,-0.07294 0.286557,-0.09734 0.438384,-0.05059 0.141344,0.04352 0.237667,0.13367 0.310396,0.212036 0.0717,0.07725 0.123601,0.143948 0.171222,0.184827 0.02362,0.02028 0.04585,0.03466 0.0647,0.04293 0.01784,0.0078 0.03363,0.01024 0.04333,0.01 -0.0061,-0.01462 -0.01741,-0.03592 -0.03557,-0.06823 -0.03257,-0.05792 -0.08334,-0.143352 -0.08516,-0.265651 -0.0017,-0.115035 0.04401,-0.212709 0.10753,-0.287116 0.06191,-0.07252 0.13627,-0.118417 0.206796,-0.149958 0.139591,-0.06243 0.25784,-0.07572 0.331156,-0.103902 0.03002,-0.01154 0.05894,-0.0262 0.08596,-0.04364 a 0.20123336,0.20123336 0 0 1 0.09917,-0.03185 0.20123336,0.20123336 0 0 1 0.0523,0.0042 0.20123336,0.20123336 0 0 1 0.100174,0.05462 z m -0.933002,0.717337 c -5.1e-5,-1.55e-4 -5.1e-5,-3.61e-4 -1.03e-4,-4.13e-4 1e-6,1.03e-4 -6e-6,3.6e-4 0,4.13e-4 z M 8.9601102,10.086003 h 0.3056595 c 0.1583485,0 0.2959848,0.132559 0.2959848,0.29407 v 0.309287 c 0,0.161511 -0.1376363,0.294171 -0.2959848,0.294171 H 8.9601102 c -0.1583491,0 -0.2959848,-0.13266 -0.2959848,-0.294171 v -0.309287 c 0,-0.161511 0.1376357,-0.29407 0.2959848,-0.29407 z m -3.87088,0.0012 h 0.3055585 c 0.1583475,0 0.296086,0.132297 0.296086,0.29407 v 0.309287 c 0,0.161773 -0.1377385,0.294171 -0.296086,0.294171 H 5.0892302 c -0.1583474,0 -0.2960854,-0.132398 -0.2960854,-0.294171 v -0.309287 c 0,-0.161773 0.137738,-0.29407 0.2960854,-0.29407 z m 5.1608378,7.99e-4 h 0.305659 c 0.158347,0 0.295985,0.132559 0.295985,0.29407 v 0.309288 c 0,0.161511 -0.137379,0.294272 -0.295985,0.294272 h -0.305659 c -0.158606,0 -0.2959852,-0.132761 -0.2959852,-0.294272 v -0.309284 c 0,-0.161511 0.1376372,-0.29407 0.2959852,-0.29407 z m 1.288143,0 h 0.305559 c 0.158347,0 0.296085,0.132297 0.296085,0.29407 v 0.309288 c 0,0.161773 -0.13748,0.294272 -0.296085,0.294272 h -0.305559 c -0.158606,0 -0.296086,-0.132499 -0.296086,-0.294272 v -0.309284 c 0,-0.161773 0.137738,-0.29407 0.296086,-0.29407 z m -5.1594264,3.12e-4 h 0.3056592 c 0.1583473,0 0.2959848,0.13256 0.2959848,0.29407 v 0.309288 c 0,0.16151 -0.1376349,0.29417 -0.2959848,0.29417 H 6.3787846 c -0.1583498,0 -0.2959847,-0.13266 -0.2959847,-0.29417 v -0.309288 c 0,-0.16151 0.1376374,-0.29407 0.2959847,-0.29407 z m 1.2904612,0 h 0.3056593 c 0.1583475,0 0.295985,0.13256 0.295985,0.29407 v 0.309288 c 0,0.161511 -0.1376349,0.29417 -0.295985,0.29417 H 7.6692458 c -0.1583501,0 -0.295985,-0.132661 -0.295985,-0.29417 v -0.309288 c 0,-0.161509 0.1376374,-0.29407 0.295985,-0.29407 z m 1.2908644,1.031966 h 0.3056595 c 0.1583485,0 0.2959848,0.132559 0.2959848,0.29407 v 0.309288 c 0,0.16151 -0.1376363,0.29417 -0.2959848,0.29417 H 8.9601102 c -0.1583491,0 -0.2959848,-0.13266 -0.2959848,-0.29417 v -0.309287 c 0,-0.161511 0.1376357,-0.29407 0.2959848,-0.29407 z m -3.87088,0.0012 h 0.3055585 c 0.1583475,0 0.296086,0.132298 0.296086,0.29407 v 0.309288 c 0,0.161773 -0.1377371,0.29417 -0.296086,0.29417 H 5.0892302 c -0.1583485,0 -0.2960854,-0.132397 -0.2960854,-0.29417 V 11.41555 c 0,-0.161772 0.137738,-0.29407 0.2960854,-0.29407 z m 5.1608378,8e-4 h 0.305659 c 0.158604,0 0.295985,0.132661 0.295985,0.294171 v 0.309186 c 0,0.161511 -0.137379,0.294272 -0.295985,0.294272 h -0.305659 c -0.158606,0 -0.2959852,-0.132761 -0.2959852,-0.294272 v -0.309186 c 0,-0.16151 0.1373802,-0.294171 0.2959852,-0.294171 z m 1.288143,0 h 0.305559 c 0.158604,0 0.296085,0.132399 0.296085,0.294171 v 0.309186 c 0,0.161773 -0.13748,0.294272 -0.296085,0.294272 h -0.305559 c -0.158606,0 -0.296086,-0.132499 -0.296086,-0.294272 v -0.309186 c 0,-0.161772 0.137481,-0.294171 0.296086,-0.294171 z m -5.1594264,3.12e-4 h 0.3056592 c 0.1583489,0 0.2959848,0.13256 0.2959848,0.29407 v 0.309287 c 0,0.161511 -0.1376359,0.294171 -0.2959848,0.294171 H 6.3787846 c -0.1583489,0 -0.2959847,-0.13266 -0.2959847,-0.294171 v -0.309287 c 0,-0.16151 0.1376358,-0.29407 0.2959847,-0.29407 z m 1.2904612,0 h 0.3056593 c 0.1583491,0 0.295985,0.132559 0.295985,0.29407 v 0.309287 c 0,0.161511 -0.1376359,0.294171 -0.295985,0.294171 H 7.6692458 c -0.1583485,0 -0.295985,-0.132661 -0.295985,-0.294171 v -0.309287 c 0,-0.161509 0.1376365,-0.29407 0.295985,-0.29407 z"
     class="ColorScheme-Text" />
</svg>
