<?xml version="1.0" encoding="UTF-8" standalone="no"?>
<svg
   width="64"
   height="64"
   version="1.1"
   viewBox="0 0 16.933 16.933"
   id="svg7"
   sodipodi:docname="yazi.svg"
   inkscape:version="1.4.3 (0d15f75042, 2025-12-25)"
   xmlns:inkscape="http://www.inkscape.org/namespaces/inkscape"
   xmlns:sodipodi="http://sodipodi.sourceforge.net/DTD/sodipodi-0.dtd"
   xmlns="http://www.w3.org/2000/svg"
   xmlns:svg="http://www.w3.org/2000/svg"
   xmlns:rdf="http://www.w3.org/1999/02/22-rdf-syntax-ns#"
   xmlns:cc="http://creativecommons.org/ns#"
   xmlns:dc="http://purl.org/dc/elements/1.1/">
  <sodipodi:namedview
     id="namedview7"
     pagecolor="#9c4444"
     bordercolor="#000000"
     borderopacity="0.25"
     inkscape:showpageshadow="2"
     inkscape:pageopacity="0.0"
     inkscape:pagecheckerboard="0"
     inkscape:deskcolor="#d1d1d1"
     inkscape:zoom="4.3531262"
     inkscape:cx="90.165086"
     inkscape:cy="34.457995"
     inkscape:window-width="2560"
     inkscape:window-height="1388"
     inkscape:window-x="0"
     inkscape:window-y="0"
     inkscape:window-maximized="1"
     inkscape:current-layer="svg7"
     showgrid="false" />
  <defs
     id="defs2">
    <style
       id="current-color-scheme"
       type="text/css">.ColorScheme-Text {color:#d8dee9} .ColorScheme-Highlight {color:#3b4252}</style>
  </defs>
  <metadata
     id="metadata2">
    <rdf:RDF>
      <cc:Work
         rdf:about="">
        <dc:format>image/svg+xml</dc:format>
        <dc:type
           rdf:resource="http://purl.org/dc/dcmitype/StillImage" />
      </cc:Work>
    </rdf:RDF>
  </metadata>
  <path
     id="path5"
     style="fill:currentColor;stroke-width:0.0166936;paint-order:fill markers stroke"
     d="M 8.4665,1.45518 A 7.0113206,7.0113352 0 0 0 1.45518,8.4665 7.0113206,7.0113352 0 0 0 8.4665,15.47782 7.0113206,7.0113352 0 0 0 15.47782,8.4665 7.0113206,7.0113352 0 0 0 8.4665,1.45518 Z M 7.76529,3.30635 h 10e-6 c 0.42879,0 0.76876,0.0951 1.14945,0.28529 0.51099,0.28528 0.87881,0.70053 1.07819,1.25208 0.08,0.22188 0.11602,0.42792 0.11633,0.66566 4.7e-4,0.35502 -0.0618,0.63396 -0.20146,0.90973 C 9.70372,6.81851 9.40335,7.09112 8.89085,7.3447 8.76843,7.4081 8.65846,7.47149 8.64648,7.47149 c -0.012,0.009 -0.0275,0.0143 -0.0345,0.0114 -0.0126,-0.005 -0.0717,0.0634 -0.0717,0.0951 0,0.006 -0.0102,0.0193 -0.0226,0.0308 -0.0279,0.025 -0.11845,0.15849 -0.13479,0.19019 -0.0721,0.19019 -0.0525,0.43109 0.0457,0.5769 0.0293,0.0317 0.0289,0.0317 -0.0124,0.0634 -0.0396,0.0139 -0.334,0.0143 -0.43793,6.3e-4 C 7.94156,8.43491 7.84388,8.42561 7.76124,8.41871 7.67864,8.41171 7.57845,8.40131 7.53867,8.39491 7.49887,8.38891 7.43127,8.37841 7.38843,8.37181 7.28359,8.35631 7.15244,8.34011 7.03786,8.30841 6.98586,8.29701 6.89818,8.27951 6.8431,8.27671 6.788,8.26651 6.70036,8.24911 6.64833,8.24501 6.59633,8.23361 6.51742,8.21841 6.47305,8.21331 c -0.0444,-0.007 -0.0807,-0.0159 -0.0808,-0.0197 -8e-5,-0.004 0.0314,-0.0317 0.0699,-0.0634 0.11481,-0.0951 0.19607,-0.19019 0.22748,-0.25358 0.025,-0.0634 0.0301,-0.0634 0.033,-0.15849 0.003,-0.0951 0.001,-0.1268 -0.0291,-0.19019 C 6.66303,7.46455 6.66123,7.46455 6.52595,7.33776 6.39799,7.21097 6.11496,7.05247 6.00717,6.96055 6.17231,6.95755 6.2066,6.95045 6.28925,6.92885 6.40273,6.89715 6.4598,6.86545 6.54699,6.77036 6.65922,6.67526 6.71021,6.58017 6.70969,6.43436 6.70931,6.33926 6.68519,6.24417 6.62899,6.14908 c -5.1e-4,-9.5e-4 -0.001,-10e-4 -0.002,-0.002 -4.8e-4,-6.4e-4 -9.6e-4,-9.5e-4 -0.001,-0.002 -2.2e-4,-3.2e-4 -4.4e-4,-6.4e-4 -6.5e-4,-9.6e-4 -0.007,-0.0257 -0.0206,-0.0634 -0.0402,-0.0634 -0.0221,-0.0317 -0.0532,-0.0634 -0.0588,-0.0951 -0.0257,-0.0317 -0.0635,-0.0951 -0.0707,-0.0951 -0.0329,-0.0634 -0.0332,-0.0634 -0.21353,-0.28528 -0.0339,-0.0317 -0.1327,-0.1585 -0.16027,-0.19019 -5.5e-4,-3.2e-4 -10e-4,-9.5e-4 -0.002,-0.002 -5e-4,-6.3e-4 -9.7e-4,-9.5e-4 -0.001,-9.5e-4 l -2.1e-4,-3.1e-4 c -0.0236,-0.0317 -0.0637,-0.0951 -0.0677,-0.0951 -0.0241,-0.026 -0.0485,-0.0634 -0.063,-0.0634 -0.0278,-0.0317 -0.0669,-0.0634 -0.0953,-0.0951 a 0.126188,0.12618823 0 0 0 -0.009,-0.006 l -0.0618,-0.0317 a 0.126188,0.12618823 0 0 0 -0.002,-9.5e-4 c -0.0345,-0.0181 -0.0736,-0.0209 -0.0955,-0.0216 -0.004,0 -0.008,-3.1e-4 -0.0126,0 C 5.75283,4.60662 5.95375,4.20723 6.27732,3.89658 6.41531,3.76979 6.56148,3.6747 6.74316,3.57326 7.08819,3.41477 7.37371,3.35138 7.76553,3.35138 Z M 7.25354,4.90077 c -0.0228,6.4e-4 -0.0377,0.004 -0.0519,0.01 -0.0197,0.008 -0.0395,0.0139 -0.0441,0.0124 -0.005,-9.5e-4 -0.008,0.002 -0.008,0.008 0,0.006 -0.01,0.0111 -0.0222,0.0111 -0.0122,0 -0.0223,0.004 -0.0223,0.009 0,0.005 -0.0138,0.0165 -0.0306,0.025 -0.0396,0.0203 -0.11545,0.0951 -0.13554,0.1268 -0.009,0.0168 -0.0198,0.0307 -0.0249,0.0307 -0.005,0 -0.009,0.01 -0.009,0.0222 0,0.012 -0.005,0.0222 -0.0118,0.0222 -0.006,0 -0.009,0.004 -0.006,0.009 0.003,0.005 -0.002,0.0231 -0.0105,0.0317 -0.0306,0.0634 -0.0142,0.32967 0.02,0.32967 0.005,0 0.008,0.0101 0.008,0.0225 0,0.012 0.004,0.0222 0.009,0.0222 0.005,0 0.0162,0.0136 0.0247,0.0304 0.0198,0.0317 0.11799,0.12679 0.15799,0.15849 0.0168,0.009 0.0306,0.02 0.0306,0.025 0,0.005 0.01,0.009 0.0222,0.009 0.0122,0 0.0223,0.004 0.0223,0.009 0,0.0279 0.12951,0.0317 0.21702,0.019 0.0399,-0.009 0.14461,-0.0634 0.1685,-0.0634 0.0423,-0.0317 0.12373,-0.12679 0.14504,-0.15849 0.0129,-0.0184 0.0365,-0.0634 0.0525,-0.0951 C 7.80175,5.40035 7.78885,5.24185 7.72335,5.1531 7.64905,5.02631 7.64485,5.02631 7.53261,4.96291 7.49161,4.93311 7.45621,4.93121 7.3532,4.89951 7.3072,4.89551 7.2765,4.89251 7.2536,4.89351 Z m -1.5729,0.28529 c 0.018,6.3e-4 0.0329,0.003 0.0404,0.007 l 0.0618,0.0317 c 0.0186,0.0124 0.0456,0.0317 0.0692,0.0634 0.009,0.0105 0.0378,0.0317 0.0659,0.0634 0.0282,0.0307 0.0512,0.0634 0.0513,0.0634 6e-5,0.005 0.012,0.0196 0.0265,0.0317 0.0145,0.0133 0.0808,0.0951 0.14745,0.19019 0.16973,0.22189 0.17357,0.22189 0.20409,0.25359 0.015,0.025 0.0513,0.0634 0.0807,0.12679 0.0293,0.0317 0.0533,0.0634 0.0533,0.0951 0,0.008 0.005,0.0146 0.0111,0.0146 0.006,0 0.0111,0.005 0.0111,0.0124 0,0.007 0.0101,0.0263 0.0225,0.0317 0.0375,0.0634 0.057,0.12679 0.0573,0.22189 C 6.58365,6.48802 6.55068,6.55141 6.4643,6.6465 6.3878,6.7099 6.34703,6.7416 6.24644,6.77329 6.17084,6.80019 6.14784,6.80309 5.96925,6.80499 5.82497,6.80699 5.73411,6.80199 5.61869,6.78659 5.21173,6.72319 4.79118,6.5647 4.41127,6.31428 4.20442,6.18749 4.0899,6.0924 3.94197,5.92123 3.93187,5.91013 3.84397,5.79443 3.84737,5.79443 l -1.9e-4,-0.0101 c 0.007,-0.0317 0.0477,-0.0634 0.0546,-0.0634 0.0345,-0.0216 0.25898,-0.0951 0.5929,-0.15849 0.12455,-0.0184 0.19539,-0.0311 0.25598,-0.0317 0.0367,-0.009 0.11684,-0.0263 0.17805,-0.0317 0.1732,-0.0317 0.43145,-0.1268 0.58428,-0.19019 l 0.10816,-0.0634 c 0.0201,-0.005 0.0413,-0.007 0.0593,-0.007 z m 1.98874,0.9446 c -0.0332,3.2e-4 -0.0691,0.002 -0.10895,0.007 -0.1478,0.0152 -0.24263,0.0634 -0.29541,0.0951 -0.0318,0.0317 -0.0371,0.0634 -0.0375,0.0951 -2.6e-4,0.0317 0.006,0.0634 0.0146,0.0951 0.0294,0.0634 0.13796,0.15849 0.25207,0.15849 0.0795,0.019 0.27913,0.0111 0.35179,-0.0136 0.12705,-0.0317 0.223,-0.1268 0.23467,-0.22189 0.004,-0.0314 -0.002,-0.0634 -0.0292,-0.0951 C 8.02385,6.21916 8.00025,6.18746 7.93093,6.15576 7.84473,6.12406 7.7691,6.09236 7.66944,6.09236 Z m 3.73797,1.19819 c 0.15372,6.4e-4 0.39194,0.19019 0.54893,0.47548 0.0969,0.15849 0.22119,0.48181 0.25034,0.62762 0.004,0.0212 0.0144,0.0634 0.0225,0.0951 0.008,0.0276 0.0249,0.0951 0.0374,0.1268 0.0585,0.19019 0.0767,0.62445 0.0349,0.81147 -0.0125,0.0634 -0.0276,0.0951 -0.0335,0.12679 -0.006,0.0108 -0.0129,0.0317 -0.0155,0.0634 -0.0136,0.0951 -0.16776,0.48815 -0.19486,0.48815 -0.005,0 -0.0216,0.0238 -0.0362,0.0634 -0.0465,0.0951 -0.17505,0.28528 -0.25922,0.35819 -0.13938,0.15849 -0.31013,0.31698 -0.38374,0.35185 -0.0458,0.0301 -0.0923,0.0634 -0.10339,0.0634 -0.0111,0.0111 -0.0312,0.025 -0.0448,0.0314 -0.0457,0.0206 -0.0757,0.0317 -0.0984,0.0634 -0.0228,0.0244 -0.20336,0.12679 -0.32682,0.15849 -0.12353,0.0634 -0.30751,0.0951 -0.40622,0.12679 -0.17218,0.0289 -0.53006,0.0634 -0.54624,0.0317 -0.003,-0.002 -0.0697,-0.0105 -0.14932,-0.0178 -0.168,-0.0155 -0.26549,-0.0317 -0.38953,-0.0634 C 8.97797,11.21598 8.78323,11.0892 8.57713,10.9212 8.40492,10.76271 8.21023,10.48693 8.15067,10.29991 c -0.008,-0.0244 -0.0182,-0.0634 -0.023,-0.0634 -0.0282,-0.0634 -0.0437,-0.19019 -0.0435,-0.31699 2e-4,-0.15849 0.0177,-0.25358 0.0775,-0.37086 C 8.20307,9.45356 8.34,9.26337 8.38912,9.2285 8.40192,9.2174 8.44182,9.1968 8.47802,9.1651 8.60325,9.07 8.70111,9.00661 8.9264,8.91151 9.013,8.87981 9.08933,8.84811 9.09604,8.84811 c 0.007,0 0.0215,-0.006 0.033,-0.013 0.0159,-0.01 0.04,-0.01 0.1028,9.5e-4 0.21523,0.0317 0.58092,0.0247 0.78393,-0.0269 0.27577,-0.0634 0.58168,-0.25359 0.78211,-0.45012 0.104,-0.0951 0.20494,-0.22188 0.25171,-0.32015 0.0427,-0.0634 0.11612,-0.28528 0.15031,-0.3994 0.0414,-0.15849 0.0728,-0.22188 0.13192,-0.25358 0.0216,-0.0143 0.0472,-0.0209 0.0756,-0.0209 z m 1.41273,0.8717 v 0 c 0.0342,3.2e-4 0.0531,0.007 0.0928,0.0285 0.0708,0.0317 0.12507,0.0951 0.15419,0.19019 0.0164,0.0634 0.0192,0.0951 0.0184,0.34234 -0.002,0.63396 -0.10912,1.30914 -0.29624,1.87019 -0.13497,0.40574 -0.24621,0.63397 -0.46406,0.96046 -0.17533,0.25358 -0.33985,0.45011 -0.54634,0.62128 -0.12492,0.0951 -0.34152,0.25359 -0.36281,0.25359 -0.005,0 -0.0164,0.007 -0.0264,0.0162 -0.01,0.009 -0.0279,0.0181 -0.0398,0.02 -0.0217,0.003 -0.11825,0.0317 -0.14966,0.0634 -0.009,0.006 -0.0242,0.0133 -0.0334,0.0168 -0.009,0.003 -0.0367,0.0159 -0.0612,0.0276 -0.0245,0.012 -0.0645,0.0263 -0.089,0.0317 -0.0478,0.0114 -0.24157,0.0634 -0.27823,0.0951 -0.0356,0.0159 -0.18193,0.0634 -0.27266,0.0634 -0.0459,0.008 -0.1085,0.0209 -0.1391,0.0279 -0.0306,0.007 -0.0807,0.0168 -0.1113,0.0219 -0.0306,0.005 -0.0957,0.0171 -0.14468,0.026 -0.049,0.009 -0.13912,0.0197 -0.20033,0.0238 -0.0612,0.004 -0.13633,0.0127 -0.16693,0.0184 -0.0306,0.006 -0.2109,0.0136 -0.40065,0.0165 -0.18975,0.003 -0.35077,0.007 -0.35782,0.0101 -0.007,0.002 -0.0148,0.002 -0.0173,-3.2e-4 -0.002,-0.002 -0.22177,-0.007 -0.48731,-0.0111 -0.26554,-0.004 -0.48752,-0.009 -0.49328,-0.013 -0.006,-0.004 -0.11374,-0.0111 -0.23995,-0.0165 -0.56472,-0.025 -0.75409,-0.0317 -0.85827,-0.0634 -0.0275,-0.007 -0.0851,-0.0165 -0.12798,-0.0216 -0.0428,-0.005 -0.10545,-0.0165 -0.13912,-0.026 -0.0337,-0.009 -0.0863,-0.0203 -0.11686,-0.0247 -0.0306,-0.004 -0.0682,-0.013 -0.0835,-0.019 -0.0426,-0.0168 -0.17806,-0.0634 -0.17806,-0.0317 0,0.003 -0.0146,-0.005 -0.0323,-0.0181 -0.0178,-0.0127 -0.04,-0.0228 -0.0494,-0.0228 -0.009,0 -0.0202,-0.005 -0.024,-0.0111 -0.004,-0.006 -0.0217,-0.0111 -0.0398,-0.0111 -0.0181,0 -0.0416,-0.004 -0.0522,-0.0101 -0.0828,-0.0317 -0.11819,-0.0634 -0.13167,-0.0634 -0.009,0 -0.0157,-0.004 -0.0157,-0.008 -10e-5,-0.01 -0.054,-0.0317 -0.0745,-0.0317 -0.008,0 -0.0145,-0.005 -0.0145,-0.012 0,-0.007 -0.006,-0.0102 -0.0139,-0.007 -0.0219,0.008 -0.20693,-0.12679 -0.28411,-0.19019 -0.0384,-0.0317 -0.0749,-0.0634 -0.081,-0.0634 -0.006,0 -0.0141,-0.008 -0.0178,-0.0171 C 5.36335,12.23039 5.26978,12.1258 5.256,12.1258 5.25,12.1258 5.2423,12.1178 5.2386,12.108 5.2346,12.098 5.2075,12.0763 5.1777,12.0446 5.148,12.0135 5.1236,11.9812 5.1236,11.9812 c 0,-0.005 -0.006,-0.0149 -0.0142,-0.0231 C 5.1014,11.9501 5.0782,11.9264 5.0573,11.8947 5.0365,11.863 4.9982,11.7996 4.9724,11.76791 4.85632,11.57772 4.75421,11.33998 4.6909,11.07689 4.6459,10.8867 4.6293,10.72504 4.6385,10.55387 c 0.008,-0.1585 0.0344,-0.35819 0.0499,-0.39623 0.005,-0.0124 0.0154,-0.0634 0.0228,-0.0951 0.0238,-0.12679 0.11657,-0.36453 0.20064,-0.50717 0.0246,-0.0317 0.0447,-0.0951 0.0447,-0.0951 0,-0.007 0.004,-0.0149 0.009,-0.0171 0.005,-0.002 0.0327,-0.0317 0.062,-0.0951 0.0293,-0.0317 0.0704,-0.0951 0.0914,-0.1268 0.021,-0.0254 0.0382,-0.0634 0.0382,-0.0634 0,-0.006 0.008,-0.01 0.0167,-0.01 0.009,0 0.0167,-0.006 0.0168,-0.0139 7e-5,-0.008 0.0214,-0.0317 0.0473,-0.0634 0.0259,-0.0285 0.0746,-0.0951 0.10812,-0.1268 0.0335,-0.0317 0.065,-0.0634 0.0699,-0.0634 0.005,0 0.0259,-0.0165 0.0466,-0.0317 0.0549,-0.0634 0.10598,-0.0951 0.11143,-0.0951 0.003,0 0.0238,-0.0174 0.0471,-0.0317 0.0233,-0.0216 0.0483,-0.0317 0.0555,-0.0317 0.007,0 0.0201,-0.007 0.0285,-0.0155 0.0187,-0.0187 0.14782,-0.0951 0.32478,-0.22189 0.072,-0.0317 0.16981,-0.0951 0.21734,-0.12679 0.0183,-0.0121 0.0377,-0.0235 0.0571,-0.0317 0.0298,0.0279 0.0665,0.0317 0.0697,0.0317 0.0207,0.006 0.0531,0.0124 0.0796,0.0165 0.0392,0.006 0.11895,0.0212 0.16733,0.0317 0.0532,0.0117 0.14388,0.0298 0.19979,0.0317 0.0526,0.009 0.14067,0.0273 0.18997,0.0317 0.11672,0.0257 0.25135,0.0634 0.35914,0.0634 0.0424,0.006 0.11011,0.0165 0.14938,0.0228 0.0436,0.007 0.15715,0.0187 0.23154,0.0247 0.0812,0.007 0.18154,0.0168 0.21118,0.0206 0.0547,0.007 0.40541,0.025 0.4958,-0.007 0.0127,-0.004 0.0564,-0.0171 0.0869,-0.0634 0.009,0.006 0.0184,0.0136 0.0288,0.0222 0.0375,0.0301 0.1066,0.0634 0.15357,0.0951 0.0528,0.0301 0.148,0.0634 0.22474,0.0951 -0.0372,0.0143 -0.0676,0.0273 -0.0723,0.0288 -0.2375,0.0951 -0.34689,0.15849 -0.48488,0.28528 -0.0359,0.0317 -0.0764,0.0634 -0.0881,0.0634 -0.074,0.0634 -0.21814,0.28528 -0.25825,0.36135 -0.0685,0.1268 -0.09,0.25359 -0.0902,0.42793 -1.6e-4,0.12679 0.0149,0.25359 0.0525,0.35502 0.001,0.003 0.013,0.0317 0.02,0.0634 0.068,0.22188 0.28007,0.51668 0.46375,0.67834 0.22111,0.19019 0.43096,0.31698 0.78088,0.41524 0.13569,0.0317 0.23849,0.0634 0.41658,0.0634 0.0388,0.004 0.0748,0.007 0.10023,0.0105 0.003,3.2e-4 0.005,6.3e-4 0.007,9.5e-4 0.002,0 0.003,3.2e-4 0.005,6.4e-4 -0.006,-0.003 -0.0155,-0.009 -0.026,-0.0181 0.0126,0.009 0.0256,0.0155 0.0372,0.0193 5e-4,0 9.9e-4,0 10e-4,3.2e-4 8.5e-4,0 0.002,0 0.002,3.2e-4 6.4e-4,0 10e-4,0 0.002,3.1e-4 -1.3e-4,0 -4.8e-4,3.2e-4 -10e-4,3.2e-4 0.0176,0.005 0.0314,0.006 0.0352,0.006 0.1013,0.0101 0.43474,-0.0222 0.56447,-0.0317 0.10989,-0.0184 0.30593,-0.0634 0.4311,-0.1268 0.0534,-0.0209 0.31562,-0.12679 0.37337,-0.19019 0.008,-0.009 0.0212,-0.0193 0.0583,-0.0317 0.0272,-0.0124 0.0609,-0.0317 0.0813,-0.0634 l 0.0844,-0.0634 c 0.0895,-0.0634 0.27948,-0.22188 0.4054,-0.37087 0.0891,-0.0951 0.22699,-0.28528 0.2807,-0.38988 10e-4,-0.002 0.002,-0.004 0.003,-0.006 6.6e-4,-9.5e-4 10e-4,-0.002 0.002,-0.004 -0.0106,0.0117 -0.0335,0.0263 -0.0817,0.0263 0.0355,0 0.0635,-0.0139 0.085,-0.0317 5.6e-4,-9.5e-4 10e-4,-0.002 0.002,-0.003 5.3e-4,-6.3e-4 10e-4,-0.002 10e-4,-0.002 4e-4,-6.3e-4 7.7e-4,-9.5e-4 10e-4,-0.002 2.8e-4,-3.2e-4 5.3e-4,-9.5e-4 7e-4,-9.5e-4 1.6e-4,-3.2e-4 2.2e-4,-6.3e-4 3.2e-4,-6.3e-4 0,3.1e-4 -6.5e-4,0.002 -0.003,0.006 0.033,-0.0288 0.0496,-0.0634 0.0534,-0.0634 0.0489,-0.0951 0.1642,-0.37721 0.17899,-0.48815 2.5e-4,-0.002 10e-4,-0.007 0.002,-0.0111 1.6e-4,-6.4e-4 3.2e-4,-9.6e-4 4.8e-4,-0.002 7.2e-4,-0.003 0.002,-0.006 0.003,-0.006 -2.6e-4,6.4e-4 -10e-4,0.003 -0.004,0.008 0.0185,-0.0317 0.041,-0.1268 0.0461,-0.1585 0.0475,-0.22188 0.0263,-0.65615 -0.0369,-0.87486 -0.008,-0.0289 -0.0188,-0.0634 -0.0271,-0.0951 0.0137,-0.0181 0.0291,-0.0317 0.0458,-0.0634 0.0313,-0.0317 0.0843,-0.0951 0.11767,-0.12679 0.0741,-0.0951 0.1484,-0.12679 0.25543,-0.12679 0.0162,-9.5e-4 0.0293,-0.002 0.0407,-0.002 z m -7.03385,4.49227 c 0,0 2e-5,3.2e-4 2e-5,3.2e-4 v 0 h -2e-5 z m 2e-5,3.2e-4 c 0,0 2e-5,0 3e-5,0 0.0212,0.0146 0.0449,0.0222 0.0639,0.0257 -2e-4,0 -3e-4,0 -3.6e-4,0 9e-5,0 2.8e-4,0 5.2e-4,0 2.2e-4,0 5.1e-4,0 8.8e-4,3.2e-4 3.7e-4,0 8.2e-4,3.2e-4 0.001,3.2e-4 0.008,10e-4 0.0156,0.002 0.0213,0.002 -0.009,0 -0.0152,-6.3e-4 -0.0188,-9.5e-4 9e-4,3.2e-4 0.002,6.4e-4 0.003,9.5e-4 0.001,3.2e-4 0.003,9.5e-4 0.004,0.002 0.002,6.3e-4 0.004,0.002 0.006,0.002 0.002,9.5e-4 0.005,0.002 0.007,0.003 0.017,0.008 0.0415,0.0196 0.0739,0.0317 0.0286,0.0146 0.0636,0.0206 0.09,0.0225 0.017,0.0105 0.0351,0.0168 0.0522,0.02 -0.002,-9.5e-4 -0.001,-0.002 -0.001,-0.002 h 1e-5 2e-5 c 10e-6,0 3e-5,0 3e-5,0 h 2e-5 2e-5 3e-5 c 10e-5,0 2.6e-4,0 4.4e-4,0 2.1e-4,3.2e-4 4.5e-4,3.2e-4 7.4e-4,6.3e-4 3.1e-4,0 6.6e-4,3.2e-4 0.001,3.2e-4 4.2e-4,3.2e-4 8.7e-4,6.3e-4 0.001,9.5e-4 4.9e-4,3.2e-4 10e-4,3.2e-4 10e-4,6.4e-4 0.009,0.002 0.0185,0.002 0.0268,0.002 -0.0131,0 -0.0209,-9.5e-4 -0.0255,-0.002 1.2e-4,3.1e-4 2.3e-4,3.1e-4 3.4e-4,3.1e-4 5.5e-4,3.2e-4 0.001,6.4e-4 0.001,9.5e-4 0.008,0.005 0.0417,0.0308 0.0755,0.0317 0.004,9.5e-4 0.014,0.003 0.0269,0.003 -4.7e-4,-3.2e-4 -7.7e-4,-6.3e-4 -9e-4,-6.3e-4 8.1e-4,3.1e-4 0.002,3.1e-4 0.003,6.3e-4 0.0204,0 0.0449,0.005 0.0453,0.008 0,0 0,0 0,0 0,0 0,0 0,3.1e-4 v 0 0 h -2e-5 -10e-6 -2e-5 c -4.7e-4,3.2e-4 -0.003,6.4e-4 -0.009,6.4e-4 0.002,3.1e-4 0.005,9.5e-4 0.007,0.002 0.0363,0.009 0.0836,0.0238 0.09,0.0263 0.0322,0.0127 0.0824,0.0222 0.11154,0.0263 0.0211,0.003 0.0751,0.0146 0.10152,0.0219 0.0403,0.0111 0.11307,0.0244 0.15787,0.0295 0.0373,0.004 0.0976,0.0149 0.1124,0.0187 0.12412,0.0307 0.33501,0.0317 0.88294,0.0634 0.0747,0.003 0.14321,0.007 0.18514,0.0105 0.003,3.1e-4 0.005,3.1e-4 0.008,6.3e-4 0.002,3.2e-4 0.004,3.2e-4 0.007,6.4e-4 0.002,0 0.004,3.1e-4 0.005,3.1e-4 0.001,3.2e-4 0.003,3.2e-4 0.004,6.4e-4 10e-4,0 0.002,0 0.003,3.1e-4 7.9e-4,0 0.002,0 0.002,0 -0.005,-6.3e-4 -0.0173,-0.004 -0.0356,-0.0152 0.0297,0.0184 0.062,0.0193 0.0638,0.0197 0.0416,0.003 0.23475,0.008 0.40208,0.0108 -0.0114,0.0127 -0.024,0.026 -0.0376,0.0317 -0.2628,0.28528 -0.51874,0.38671 -1.09856,0.48815 -0.0591,0.0105 -0.38518,0.02 -0.45073,0.013 -0.0979,-0.0101 -0.19033,-0.0288 -0.2677,-0.0634 -0.0838,-0.0276 -0.23772,-0.0951 -0.27219,-0.12679 -0.01,-0.0102 -0.0216,-0.0184 -0.0257,-0.0184 -0.0147,-3.2e-4 -0.15594,-0.12679 -0.19641,-0.19019 -0.0598,-0.0951 -0.1214,-0.22189 -0.1604,-0.336 -0.0231,-0.0634 -0.0411,-0.12679 -0.0509,-0.19019 0,0 -2e-5,0 -3e-5,0 z m 5.29347,0.0951 c 0,0.008 -3.1e-4,0.0171 -7.7e-4,0.0276 -0.006,0.12679 -0.0422,0.28528 -0.097,0.38355 -0.10334,0.22188 -0.31579,0.37086 -0.5241,0.39622 -0.0233,0.003 -0.0698,0.0102 -0.10351,0.0165 -0.0729,0.0139 -0.68984,0.013 -0.71472,-9.6e-4 -0.009,-0.005 -0.0665,-0.0149 -0.12695,-0.0212 -0.11292,-0.0117 -0.24638,-0.0317 -0.26511,-0.0634 -0.006,-0.005 -0.0234,-0.009 -0.0391,-0.009 -0.0157,0 -0.046,-0.009 -0.0673,-0.0206 -0.0213,-0.0114 -0.0457,-0.0181 -0.0542,-0.0152 -0.009,0.003 -0.0124,3.1e-4 -0.008,-0.007 0.005,-0.007 -0.009,-0.0152 -0.0346,-0.02 -0.0231,-0.004 -0.0445,-0.0108 -0.0476,-0.0143 -0.003,-0.004 -0.0444,-0.0266 -0.0918,-0.0634 -0.0474,-0.0241 -0.0863,-0.0317 -0.0863,-0.0634 0,-0.005 -0.0164,-0.0162 -0.0364,-0.0257 -0.02,-0.009 -0.0957,-0.0634 -0.16823,-0.15849 l -0.0686,-0.0634 c 0.11494,0.002 0.21497,0.004 0.28285,0.006 0.006,3.1e-4 0.0115,3.1e-4 0.0169,3.1e-4 0.005,3.2e-4 0.009,3.2e-4 0.0139,6.4e-4 0.004,0 0.008,3.1e-4 0.0114,3.1e-4 0.003,0 0.005,0 0.008,3.2e-4 -0.009,-0.006 -0.0218,-0.0165 -0.0399,-0.0317 0.0423,0.0317 0.0948,0.0317 0.12559,0.0317 5e-5,0 9e-5,0 1.3e-4,0 h 2e-5 2e-5 10e-6 1.2e-4 c 0.004,-6.3e-4 0.008,-0.002 0.0111,-0.002 -0.005,9.5e-4 -0.009,0.002 -0.0109,0.002 1.5e-4,0 3.2e-4,0 4.7e-4,0 6.5e-4,0 10e-4,0 0.002,0 8.3e-4,0 0.002,0 0.003,-3.2e-4 10e-4,0 0.002,0 0.003,0 10e-4,0 0.003,0 0.004,-3.1e-4 0.002,0 0.003,0 0.005,0 0.018,-9.5e-4 0.0444,-0.002 0.0764,-0.002 0.0642,-0.002 0.15153,-0.004 0.246,-0.005 0.10785,-0.002 0.36492,-0.007 0.4228,-0.0184 0.014,-0.003 0.0944,-0.0127 0.15126,-0.0165 0.0633,-0.004 0.1598,-0.0155 0.21459,-0.0257 0.0485,-0.009 0.1139,-0.0206 0.14344,-0.0257 0.0318,-0.006 0.0856,-0.0162 0.11734,-0.0231 0.0267,-0.006 0.0902,-0.0187 0.13434,-0.0269 0.0691,-0.0127 0.24268,-0.0634 0.30195,-0.0951 -0.003,9.5e-4 0.0646,-0.0238 0.12223,-0.0317 0.0576,-0.019 0.12368,-0.0317 0.13259,-0.0317 0.0107,-0.002 0.0224,-0.006 0.0345,-0.0101 z"
     class="ColorScheme-Text" />
</svg>
