<?xml version="1.0" encoding="UTF-8" standalone="no"?>
<svg
   width="64"
   height="64"
   version="1.1"
   viewBox="0 0 16.933 16.933"
   id="svg7"
   sodipodi:docname="youtube-music.svg"
   inkscape:version="1.4.2 (ebf0e940d0, 2025-05-08)"
   xmlns:inkscape="http://www.inkscape.org/namespaces/inkscape"
   xmlns:sodipodi="http://sodipodi.sourceforge.net/DTD/sodipodi-0.dtd"
   xmlns="http://www.w3.org/2000/svg"
   xmlns:svg="http://www.w3.org/2000/svg"
   xmlns:rdf="http://www.w3.org/1999/02/22-rdf-syntax-ns#"
   xmlns:cc="http://creativecommons.org/ns#"
   xmlns:dc="http://purl.org/dc/elements/1.1/">
  <sodipodi:namedview
     id="namedview7"
     pagecolor="#9c4444"
     bordercolor="#000000"
     borderopacity="0.25"
     inkscape:showpageshadow="2"
     inkscape:pageopacity="0.0"
     inkscape:pagecheckerboard="0"
     inkscape:deskcolor="#d1d1d1"
     inkscape:zoom="6.15625"
     inkscape:cx="16"
     inkscape:cy="27.28934"
     inkscape:window-width="2560"
     inkscape:window-height="1392"
     inkscape:window-x="0"
     inkscape:window-y="0"
     inkscape:window-maximized="1"
     inkscape:current-layer="svg7"
     showgrid="false" />
  <defs
     id="defs2">
    <style
       id="current-color-scheme"
       type="text/css">.ColorScheme-Text {color:#d8dee9} .ColorScheme-Highlight {color:#3b4252}</style>
  </defs>
  <metadata
     id="metadata2">
    <rdf:RDF>
      <cc:Work
         rdf:about="">
        <dc:format>image/svg+xml</dc:format>
        <dc:type
           rdf:resource="http://purl.org/dc/dcmitype/StillImage" />
      </cc:Work>
    </rdf:RDF>
  </metadata>
  <path
     style="fill:currentColor;stroke-width:0.876415"
     class="ColorScheme-Text"
     d="m 8.4664995,1.4551794 a 7.0113205,7.0113205 0 0 0 -7.01132,7.0113203 7.0113205,7.0113205 0 0 0 7.01132,7.0113213 A 7.0113205,7.0113205 0 0 0 15.477821,8.4664997 7.0113205,7.0113205 0 0 0 8.4664995,1.4551794 Z m 0,2.629245 A 4.3820752,4.3820752 0 0 1 12.848577,8.4664997 4.3820752,4.3820752 0 0 1 8.4664995,12.848575 4.3820752,4.3820752 0 0 1 4.0844265,8.4664997 4.3820752,4.3820752 0 0 1 8.4664995,4.0844244 Z m -0.05307,0.8764152 A 3.5056602,3.5056592 0 0 0 4.9608375,8.4664997 3.5056602,3.5056592 0 0 0 8.4664955,11.97216 3.5056602,3.5056592 0 0 0 11.972158,8.4664997 3.5056602,3.5056592 0 0 0 8.4664955,4.9608396 a 3.5056602,3.5056592 0 0 0 -0.007,0 3.5056602,3.5056592 0 0 0 -0.04621,0 z m -0.823348,1.75283 1.314625,0.876415 1.3146215,0.8764151 -1.3146215,0.876415 -1.314625,0.8764153 V 8.4664997 Z"
     id="path1" />
</svg>
