<?xml version="1.0" encoding="UTF-8" standalone="no"?>
<svg
   width="64"
   height="64"
   version="1.1"
   viewBox="0 0 16.933 16.933"
   id="svg7"
   sodipodi:docname="zathura.svg"
   inkscape:version="1.4.3 (0d15f75042, 2025-12-25)"
   xmlns:inkscape="http://www.inkscape.org/namespaces/inkscape"
   xmlns:sodipodi="http://sodipodi.sourceforge.net/DTD/sodipodi-0.dtd"
   xmlns="http://www.w3.org/2000/svg"
   xmlns:svg="http://www.w3.org/2000/svg"
   xmlns:rdf="http://www.w3.org/1999/02/22-rdf-syntax-ns#"
   xmlns:cc="http://creativecommons.org/ns#"
   xmlns:dc="http://purl.org/dc/elements/1.1/">
  <sodipodi:namedview
     id="namedview7"
     pagecolor="#9c4444"
     bordercolor="#000000"
     borderopacity="0.25"
     inkscape:showpageshadow="2"
     inkscape:pageopacity="0.0"
     inkscape:pagecheckerboard="0"
     inkscape:deskcolor="#d1d1d1"
     inkscape:zoom="4.3531262"
     inkscape:cx="90.165086"
     inkscape:cy="34.457995"
     inkscape:window-width="2560"
     inkscape:window-height="1388"
     inkscape:window-x="0"
     inkscape:window-y="0"
     inkscape:window-maximized="1"
     inkscape:current-layer="svg7"
     showgrid="false" />
  <defs
     id="defs2">
    <style
       id="current-color-scheme"
       type="text/css">.ColorScheme-Text {color:#d8dee9} .ColorScheme-Highlight {color:#3b4252}</style>
  </defs>
  <metadata
     id="metadata2">
    <rdf:RDF>
      <cc:Work
         rdf:about="">
        <dc:format>image/svg+xml</dc:format>
        <dc:type
           rdf:resource="http://purl.org/dc/dcmitype/StillImage" />
      </cc:Work>
    </rdf:RDF>
  </metadata>
  <path
     id="path5"
     d="M 8.4665925,1.4551797 A 7.0113101,7.0113101 0 0 0 1.4551795,8.4664077 7.0113101,7.0113101 0 0 0 8.4665925,15.47782 7.0113101,7.0113101 0 0 0 15.47782,8.4664077 7.0113101,7.0113101 0 0 0 8.4665925,1.4551797 Z m 2.0144455,1.296812 c 0.310065,-0.0078 0.475696,0.594283 0.336698,1.584644 -0.10109,0.694989 -0.08838,0.897168 0.07589,1.137256 0.189543,0.290632 0.265236,0.303379 1.64258,0.303379 1.339434,0 1.453222,0.01262 1.453222,0.240075 0,0.379086 -0.27807,0.517973 -1.40269,0.644334 -0.581264,0.07582 -1.187751,0.151634 -1.339385,0.189543 -0.328541,0.07582 -0.54327,0.64447 -0.54327,1.415277 0,0.75817 0.404308,1.124731 1.339386,1.251092 0.366449,0.03791 0.770868,0.05054 0.884594,0 0.277997,-0.113725 0.682279,0.138986 0.682279,0.429618 0,0.4043583 -0.859234,0.7581713 -1.806947,0.7581713 -1.099348,0 -1.187838,0.113651 -0.985659,1.250907 0.138998,0.758171 0.126374,0.922503 -0.05053,1.26368 -0.240087,0.480175 -0.467526,0.492749 -0.8087035,0.06312 -0.214815,-0.277996 -0.265433,-0.518132 -0.265433,-1.314212 0,-1.225709 -0.100954,-1.326823 -1.124485,-1.225734 -1.263617,0.138998 -1.276266,0.151745 -1.276266,1.819721 0,1.175165 -0.06318,1.427864 -0.379085,1.427864 -0.416994,0 -0.619321,-0.416945 -0.720411,-1.528929 l -0.101064,-1.06155 -1.64258,-0.07571 c -0.909805,-0.03791 -1.655488,-0.08843 -1.668124,-0.101065 0,0 -0.07578,-0.189629 -0.151597,-0.404444 -0.26536,-0.770807 0.240137,-1.0362163 2.072383,-1.1246693 l 1.389918,-0.06312 0.03794,-0.720225 c 0.03791,-0.644445 0.01261,-0.745633 -0.27802,-0.92254 -0.202179,-0.138998 -0.530633,-0.202179 -0.922355,-0.189543 -0.328541,0.02527 -0.682304,0.02541 -0.770758,0.01277 -0.202178,-0.01264 -0.417006,-0.581387 -0.328553,-0.821475 0.08845,-0.240087 0.871749,-0.707638 1.175017,-0.707638 0.505447,0 0.695014,-0.303145 0.657106,-1.073952 -0.02527,-0.606536 0.0254,-0.783517 0.252847,-1.023605 0.619173,-0.669717 1.276242,-0.12641 1.377331,1.149843 l 0.06312,0.758171 1.048779,0.03795 c 1.02353,0.03791 1.036252,0.0253 1.162614,-0.290608 0.07582,-0.189542 0.126239,-0.77072 0.126239,-1.301439 0,-0.783444 0.05052,-1.03634 0.290607,-1.377517 0.1855945,-0.276416 0.3564265,-0.405894 0.4973645,-0.409442 z m -1.6723805,4.541621 c -0.619172,0 -0.808715,0.05051 -1.137256,0.341139 -0.379085,0.315905 -0.404505,0.379036 -0.341325,0.960301 0.07582,0.821351 0.290669,0.973072 1.364745,0.973072 0.657081,0 0.859359,-0.05068 0.922539,-0.202315 0.10109,-0.252723 0.10109,-1.617344 0,-1.870068 -0.06318,-0.151634 -0.252711,-0.202129 -0.808703,-0.202129 z"
     style="fill:currentColor"
     class="ColorScheme-Text" />
</svg>
