<?xml version='1.0' encoding='UTF-8'?>
<svg xmlns:inkscape="http://www.inkscape.org/namespaces/inkscape" xmlns:sodipodi="http://sodipodi.sourceforge.net/DTD/sodipodi-0.dtd" xmlns:xlink="http://www.w3.org/1999/xlink" xmlns="http://www.w3.org/2000/svg" xmlns:svg="http://www.w3.org/2000/svg" xmlns:rdf="http://www.w3.org/1999/02/22-rdf-syntax-ns#" xmlns:cc="http://creativecommons.org/ns#" xmlns:dc="http://purl.org/dc/elements/1.1/" width="64" height="64" version="1.1" id="svg73" sodipodi:docname="accessories-ebook-reader.svg" inkscape:version="1.4 (e7c3feb100, 2024-10-09)">
  <metadata id="metadata77">
    <rdf:RDF>
      <cc:Work rdf:about="">
        <dc:format>image/svg+xml</dc:format>
        <dc:type rdf:resource="http://purl.org/dc/dcmitype/StillImage"/>
      </cc:Work>
    </rdf:RDF>
  </metadata>
  <sodipodi:namedview pagecolor="#f5f7fa" bordercolor="#666666" borderopacity="1" objecttolerance="10" gridtolerance="10" guidetolerance="10" inkscape:pageopacity="0" inkscape:pageshadow="2" inkscape:window-width="1183" inkscape:window-height="669" id="namedview75" showgrid="false" inkscape:zoom="4.4470387" inkscape:cx="19.451146" inkscape:cy="8.3201435" inkscape:window-x="38" inkscape:window-y="201" inkscape:window-maximized="0" inkscape:current-layer="g877" inkscape:document-rotation="0" inkscape:pagecheckerboard="0" inkscape:showpageshadow="2" inkscape:deskcolor="#d1d1d1"/>
  <defs id="defs29">
    <style id="current-color-scheme" type="text/css">.ColorScheme-Text {color:#d8dee9} .ColorScheme-Highlight {color:#3b4252}</style></defs>
  <g id="g877" transform="matrix(1.1,0,0,1.1,-3.1845928,-3.2065454)" style="">
    <path style="opacity:1;baseline-shift:baseline;display:inline;overflow:visible;vector-effect:none;fill:currentColor;enable-background:accumulate;stop-color:#000000;stop-opacity:1" d="m 19.662109,8.8378906 c -3.322035,0 -6.02539,2.6861674 -6.02539,5.9980474 v 34.572265 c 0,3.31188 2.703355,6 6.02539,6 h 24.738282 c 3.322035,0 6.027343,-2.68812 6.027343,-6 V 14.835938 c 0,-3.31188 -2.705308,-5.9980474 -6.027343,-5.9980474 z m 0,1.6347654 h 24.738282 c 2.448644,0 4.390625,1.933707 4.390625,4.363282 v 34.572265 c 0,2.429575 -1.941981,4.363281 -4.390625,4.363281 H 19.662109 c -2.448644,0 -4.390625,-1.933706 -4.390625,-4.363281 V 14.835938 c 0,-2.429575 1.941981,-4.363282 4.390625,-4.363282 z" class="ColorScheme-Text" id="rect246"/>
  <path style="fill:currentColor;stroke-width:0.818181" d="m 32.531449,21.459019 c -1.253857,0.0019 -2.396438,0.719922 -2.941939,1.848899 -0.36714,-0.139195 -0.756331,-0.211188 -1.14897,-0.212536 -1.807477,0 -3.272727,1.46525 -3.272727,3.272728 3.27e-4,0.392443 0.07123,0.781629 0.209338,1.14897 -1.127733,0.54641 -1.844445,1.688805 -1.845703,2.941937 0.0019,1.253858 0.719922,2.39644 1.8489,2.941942 -0.139196,0.367141 -0.211187,0.756332 -0.212534,1.148971 0,1.807479 1.46525,3.272728 3.272727,3.272728 0.27622,-0.0016 0.551133,-0.03807 0.818182,-0.108667 v 5.835938 c 2.86e-4,0.728704 0.881211,1.093573 1.396661,0.578482 l 1.876066,-1.876067 1.876066,1.876067 c 0.51545,0.515091 1.396375,0.150222 1.396661,-0.578482 v -5.83434 c 0.267118,0.07007 0.54203,0.106038 0.818182,0.107059 1.807481,0 3.272734,-1.465249 3.272734,-3.272728 -3.3e-4,-0.392444 -0.07126,-0.781629 -0.209322,-1.14897 1.127734,-0.546412 1.844443,-1.688808 1.845704,-2.941942 -0.0019,-1.253856 -0.719922,-2.396437 -1.848899,-2.941937 0.139192,-0.367141 0.211176,-0.756332 0.212551,-1.148971 0,-1.807477 -1.465252,-3.272727 -3.272733,-3.272727 -0.392479,3.36e-4 -0.781666,0.07124 -1.149006,0.209348 -0.546411,-1.127732 -1.688805,-1.844444 -2.941939,-1.845702 z m 0,3.272727 c 3.163085,0 5.727279,2.564187 5.727279,5.727271 0,3.16309 -2.564194,5.727276 -5.727279,5.727276 -3.163085,0 -5.727273,-2.564186 -5.727273,-5.727276 0,-3.163084 2.564188,-5.727271 5.727273,-5.727271 z m 0,0.818182 c -2.711216,0 -4.909091,2.197875 -4.909091,4.909089 0,2.711218 2.197875,4.909095 4.909091,4.909095 2.711215,0 4.909094,-2.197877 4.909094,-4.909095 0,-2.711214 -2.197879,-4.909089 -4.909094,-4.909089 z" id="path7" class="ColorScheme-Text"/>
  </g>
</svg>
