<?xml version='1.0' encoding='UTF-8'?>
<svg xmlns:inkscape="http://www.inkscape.org/namespaces/inkscape" xmlns:sodipodi="http://sodipodi.sourceforge.net/DTD/sodipodi-0.dtd" xmlns:xlink="http://www.w3.org/1999/xlink" xmlns="http://www.w3.org/2000/svg" xmlns:svg="http://www.w3.org/2000/svg" xmlns:rdf="http://www.w3.org/1999/02/22-rdf-syntax-ns#" xmlns:cc="http://creativecommons.org/ns#" xmlns:dc="http://purl.org/dc/elements/1.1/" width="64" height="64" version="1.1" id="svg73" sodipodi:docname="application-x-m4.svg" inkscape:version="1.4 (e7c3feb100, 2024-10-09)">
  <metadata id="metadata77">
    <rdf:RDF>
      <cc:Work rdf:about="">
        <dc:format>image/svg+xml</dc:format>
        <dc:type rdf:resource="http://purl.org/dc/dcmitype/StillImage"/>
      </cc:Work>
    </rdf:RDF>
  </metadata>
  <sodipodi:namedview pagecolor="#f5f7fa" bordercolor="#666666" borderopacity="1" objecttolerance="10" gridtolerance="10" guidetolerance="10" inkscape:pageopacity="0" inkscape:pageshadow="2" inkscape:window-width="1183" inkscape:window-height="669" id="namedview75" showgrid="false" inkscape:zoom="6.2890624" inkscape:cx="37.60497" inkscape:cy="23.055901" inkscape:window-x="169" inkscape:window-y="168" inkscape:window-maximized="0" inkscape:current-layer="g877" inkscape:document-rotation="0" inkscape:pagecheckerboard="0" inkscape:showpageshadow="2" inkscape:deskcolor="#d1d1d1"/>
  <defs id="defs29">
    <style id="current-color-scheme" type="text/css">.ColorScheme-Text {color:#d8dee9} .ColorScheme-Highlight {color:#3b4252}</style></defs>
  <g id="g877" transform="matrix(1.1,0,0,1.1,-3.1845928,-3.2065454)" style="">
    <path style="opacity:1;baseline-shift:baseline;display:inline;overflow:visible;vector-effect:none;fill:currentColor;enable-background:accumulate;stop-color:#000000;stop-opacity:1" d="m 19.662109,8.8378906 c -3.322035,0 -6.02539,2.6861674 -6.02539,5.9980474 v 34.572265 c 0,3.31188 2.703355,6 6.02539,6 h 24.738282 c 3.322035,0 6.027343,-2.68812 6.027343,-6 V 14.835938 c 0,-3.31188 -2.705308,-5.9980474 -6.027343,-5.9980474 z m 0,1.6347654 h 24.738282 c 2.448644,0 4.390625,1.933707 4.390625,4.363282 v 34.572265 c 0,2.429575 -1.941981,4.363281 -4.390625,4.363281 H 19.662109 c -2.448644,0 -4.390625,-1.933706 -4.390625,-4.363281 V 14.835938 c 0,-2.429575 1.941981,-4.363282 4.390625,-4.363282 z" class="ColorScheme-Text" id="rect246"/>
  <g id="g7" transform="matrix(2.2543608,0,0,2.2543608,14.555786,16.110743)" style="fill:currentColor;fill-opacity:1" class="ColorScheme-Text">
      <path d="m 12.383,7.263 c -0.301,0.026 -0.3,0.28 -0.409,0.904 A 5.486,5.459 0 0 0 11.368,8.252 C 11.101,7.609 11.008,7.384 10.755,7.469 10.465,7.567 10.533,7.815 10.578,8.466 A 5.486,5.459 0 0 0 10.015,8.699 C 9.565,8.156 9.41,7.967 9.193,8.123 8.947,8.299 9.079,8.517 9.308,9.108 A 5.486,5.459 0 0 0 8.818,9.483 C 8.251,9.065 8.055,8.92 7.882,9.123 7.686,9.355 7.869,9.533 8.238,10.058 A 5.486,5.459 0 0 0 7.87,10.535 C 7.274,10.314 7.054,10.185 6.881,10.432 6.728,10.65 6.918,10.802 7.466,11.243 A 5.486,5.459 0 0 0 7.23,11.808 c -0.626,-0.059 -0.871,-0.124 -0.974,0.158 -0.09,0.248 0.13,0.348 0.76,0.625 a 5.486,5.459 0 0 0 -0.078,0.6 c -0.617,0.118 -0.872,0.123 -0.891,0.422 -0.017,0.26 0.222,0.297 0.884,0.383 a 5.486,5.459 0 0 0 0.087,0.638 c -0.568,0.248 -0.812,0.312 -0.764,0.606 0.042,0.262 0.284,0.24 0.978,0.175 a 5.486,5.459 0 0 0 0.246,0.589 L 7.302,16.139 H 8.435 C 8.125,15.615 7.864,14.931 7.838,14.677 7.608,13.638 7.644,12.537 8.408,11.188 8.551,10.937 8.706,10.726 8.874,10.577 a 0.96,0.96 0 0 1 0.583,-0.248 1,1 0 0 1 0.095,0.003 c 0.21,0.029 0.425,0.09 0.551,0.271 0.393,0.566 0.82,1.394 1.173,2.036 0.06,0.108 0.074,0.235 0.057,0.285 -0.013,0.257 -0.2,0.53 -0.155,0.782 0.034,0.425 0.243,0.488 0.116,0.81 a 38,38 0 0 1 -0.946,1.623 h 1.125 c 0.22,-0.369 0.452,-0.739 0.652,-1.068 0.064,-0.105 0.168,-0.18 0.22,-0.19 0.228,-0.118 0.56,-0.092 0.756,-0.258 0.352,-0.241 0.302,-0.453 0.645,-0.504 0.266,-0.007 0.533,-0.007 0.8,-0.008 V 13.139 C 14.299,13.135 14.042,13.13 13.818,13.128 a 0.45,0.45 0 0 1 -0.276,-0.09 C 13.324,12.901 13.177,12.604 12.934,12.52 12.547,12.341 12.389,12.49 12.171,12.223 a 38,38 0 0 1 -1.15,-1.965 c -0.26,-0.45 -0.09,-0.902 0.301,-1.145 0.153,-0.118 0.477,-0.166 0.841,-0.172 0.608,-0.01 1.329,0.097 1.563,0.199 q 0.42,0.127 0.82,0.328 V 8.597 A 5.486,5.459 0 0 0 14.197,8.456 C 14.257,7.754 14.28,7.511 14.015,7.47 13.718,7.426 13.657,7.671 13.411,8.245 A 5.486,5.459 0 0 0 12.789,8.169 C 12.684,7.481 12.649,7.241 12.384,7.263 Z m 0.012,5.895 a 0.454,0.454 0 0 1 0.454,0.454 0.454,0.454 0 0 1 -0.454,0.453 0.454,0.454 0 0 1 -0.453,-0.453 0.454,0.454 0 0 1 0.453,-0.454" id="path6" style="fill:currentColor;fill-opacity:1" class="ColorScheme-Text"/>
      <path d="M 6.175,3.856 C 6.05,3.866 6.05,3.972 6.005,4.232 A 2.286,2.275 0 0 0 5.752,4.268 C 5.641,4 5.602,3.906 5.497,3.942 5.376,3.982 5.404,4.086 5.423,4.357 A 2.286,2.275 0 0 0 5.188,4.454 C 5,4.228 4.936,4.149 4.846,4.214 4.744,4.287 4.798,4.378 4.894,4.624 A 2.286,2.275 0 0 0 4.69,4.781 C 4.453,4.607 4.372,4.546 4.3,4.631 4.218,4.727 4.294,4.801 4.448,5.021 A 2.286,2.275 0 0 0 4.294,5.219 C 4.046,5.127 3.954,5.073 3.883,5.176 3.819,5.267 3.898,5.331 4.126,5.514 A 2.286,2.275 0 0 0 4.028,5.75 C 3.767,5.725 3.665,5.698 3.622,5.815 3.584,5.919 3.676,5.96 3.939,6.075 A 2.286,2.275 0 0 0 3.906,6.325 C 3.649,6.375 3.543,6.377 3.535,6.502 3.528,6.61 3.627,6.625 3.903,6.662 A 2.286,2.275 0 0 0 3.939,6.927 C 3.703,7.03 3.601,7.057 3.621,7.18 3.639,7.289 3.74,7.28 4.029,7.253 A 2.286,2.275 0 0 0 4.131,7.498 C 3.93,7.654 3.838,7.705 3.887,7.818 3.931,7.92 4.027,7.886 4.303,7.788 a 2.286,2.275 0 0 0 0.15,0.193 C 4.3,8.204 4.224,8.279 4.308,8.375 4.38,8.458 4.461,8.397 4.692,8.222 A 2.286,2.275 0 0 0 4.897,8.379 C 4.804,8.636 4.749,8.729 4.854,8.801 4.946,8.864 5.009,8.783 5.193,8.551 L 5.148,8.525 A 2.286,2.275 0 0 0 5.416,8.639 C 5.399,8.903 5.373,9.006 5.492,9.046 5.596,9.08 5.635,8.989 5.742,8.731 A 2.286,2.275 0 0 0 6,8.765 C 6.05,9.057 6.065,9.157 6.177,9.146 6.302,9.134 6.3,9.028 6.341,8.768 A 2.286,2.275 0 0 0 6.601,8.734 C 6.709,8.996 6.749,9.089 6.853,9.054 6.973,9.014 6.947,8.911 6.929,8.647 A 2.286,2.275 0 0 0 7.166,8.55 C 7.344,8.776 7.408,8.855 7.499,8.792 7.602,8.722 7.549,8.63 7.46,8.384 A 2.286,2.275 0 0 0 7.671,8.223 C 7.893,8.39 7.973,8.448 8.045,8.367 8.126,8.273 8.055,8.197 7.911,7.987 A 2.286,2.275 0 0 0 8.065,7.791 C 8.335,7.886 8.43,7.919 8.474,7.818 8.522,7.705 8.432,7.654 8.234,7.501 A 2.286,2.275 0 0 0 8.337,7.253 C 8.621,7.279 8.722,7.288 8.739,7.18 8.759,7.058 8.659,7.03 8.427,6.93 A 2.286,2.275 0 0 0 8.461,6.661 C 8.734,6.626 8.833,6.61 8.826,6.501 8.818,6.378 8.713,6.375 8.462,6.327 A 2.286,2.275 0 0 0 8.427,6.073 C 8.685,5.959 8.777,5.918 8.739,5.815 8.696,5.699 8.595,5.725 8.339,5.749 a 2.286,2.275 0 0 0 -0.1,-0.24 C 8.463,5.329 8.541,5.266 8.479,5.176 8.406,5.073 8.315,5.126 8.069,5.218 A 2.286,2.275 0 0 0 7.911,5.015 C 8.077,4.781 8.135,4.698 8.049,4.629 7.953,4.551 7.879,4.624 7.674,4.776 A 2.286,2.275 0 0 0 7.464,4.616 C 7.574,4.349 7.613,4.256 7.514,4.207 7.399,4.151 7.346,4.244 7.168,4.45 A 2.286,2.275 0 0 0 6.931,4.353 C 6.956,4.06 6.965,3.959 6.855,3.943 6.731,3.923 6.706,4.026 6.603,4.265 A 2.286,2.275 0 0 0 6.344,4.233 C 6.3,3.947 6.286,3.847 6.175,3.856 m -0.091,0.7 c 0.253,-0.005 0.553,0.04 0.65,0.082 0.425,0.129 0.818,0.367 1.153,0.92 Q 7.982,5.713 8.015,5.851 A 0.38,0.38 0 0 1 7.965,6.148 C 7.912,6.218 7.845,6.283 7.754,6.291 7.468,6.318 7.079,6.303 6.773,6.3 6.721,6.299 6.673,6.278 6.658,6.262 6.568,6.205 6.506,6.082 6.405,6.046 6.243,5.972 6.178,6.034 6.087,5.922 A 16,16 0 0 1 5.607,5.104 C 5.499,4.916 5.57,4.728 5.733,4.627 5.797,4.577 5.932,4.557 6.083,4.555 Z m -1.128,0.577 0.04,0.002 c 0.087,0.012 0.177,0.037 0.23,0.113 0.163,0.235 0.34,0.58 0.488,0.848 0.025,0.045 0.03,0.098 0.023,0.119 C 5.732,6.322 5.654,6.435 5.673,6.54 5.687,6.717 5.774,6.744 5.721,6.878 5.569,7.155 5.407,7.432 5.241,7.696 5.13,7.882 4.931,7.912 4.763,7.82 4.565,7.737 4.299,7.114 4.281,6.945 4.185,6.512 4.201,6.053 4.519,5.491 A 1,1 0 0 1 4.713,5.237 0.4,0.4 0 0 1 4.956,5.133 M 6.18,6.313 A 0.19,0.19 0 0 1 6.37,6.501 0.19,0.19 0 0 1 6.18,6.691 0.19,0.19 0 0 1 5.991,6.501 0.19,0.19 0 0 1 6.181,6.312 Z m 1.04,0.395 q 0.239,0 0.473,0.01 C 7.91,6.72 8.036,6.878 8.04,7.068 8.067,7.282 7.659,7.823 7.52,7.923 7.193,8.222 6.788,8.438 6.14,8.444 A 1,1 0 0 1 5.822,8.404 0.38,0.38 0 0 1 5.592,8.211 C 5.559,8.13 5.536,8.039 5.576,7.955 5.698,7.696 5.909,7.371 6.067,7.109 A 0.2,0.2 0 0 1 6.159,7.029 C 6.254,6.981 6.392,6.992 6.474,6.923 6.621,6.822 6.6,6.733 6.743,6.713 Q 6.981,6.707 7.22,6.708" class="ColorScheme-Text" id="path7-2" style="fill:currentColor;fill-opacity:1"/>
    </g>
  </g>
</svg>
