<?xml version='1.0' encoding='UTF-8'?>
<svg xmlns:inkscape="http://www.inkscape.org/namespaces/inkscape" xmlns:sodipodi="http://sodipodi.sourceforge.net/DTD/sodipodi-0.dtd" xmlns:xlink="http://www.w3.org/1999/xlink" xmlns="http://www.w3.org/2000/svg" xmlns:svg="http://www.w3.org/2000/svg" xmlns:rdf="http://www.w3.org/1999/02/22-rdf-syntax-ns#" xmlns:cc="http://creativecommons.org/ns#" xmlns:dc="http://purl.org/dc/elements/1.1/" width="64" height="64" version="1.1" id="svg73" sodipodi:docname="asd.svg" inkscape:version="1.4 (e7c3feb100, 2024-10-09)">
  <metadata id="metadata77">
    <rdf:RDF>
      <cc:Work rdf:about="">
        <dc:format>image/svg+xml</dc:format>
        <dc:type rdf:resource="http://purl.org/dc/dcmitype/StillImage"/>
      </cc:Work>
    </rdf:RDF>
  </metadata>
  <sodipodi:namedview pagecolor="#f5f7fa" bordercolor="#666666" borderopacity="1" objecttolerance="10" gridtolerance="10" guidetolerance="10" inkscape:pageopacity="0" inkscape:pageshadow="2" inkscape:window-width="1183" inkscape:window-height="669" id="namedview75" showgrid="false" inkscape:zoom="4.4470387" inkscape:cx="19.451146" inkscape:cy="8.3201435" inkscape:window-x="422" inkscape:window-y="153" inkscape:window-maximized="0" inkscape:current-layer="g877" inkscape:document-rotation="0" inkscape:pagecheckerboard="0" inkscape:showpageshadow="2" inkscape:deskcolor="#d1d1d1"/>
  <defs id="defs29">
    <style id="current-color-scheme" type="text/css">.ColorScheme-Text {color:#d8dee9} .ColorScheme-Highlight {color:#3b4252}</style></defs>
  <g id="g877" transform="matrix(1.1,0,0,1.1,-3.1845928,-3.2065454)" style="">
    <path style="opacity:1;baseline-shift:baseline;display:inline;overflow:visible;vector-effect:none;fill:currentColor;enable-background:accumulate;stop-color:#000000;stop-opacity:1" d="m 19.662109,8.8378906 c -3.322035,0 -6.02539,2.6861674 -6.02539,5.9980474 v 34.572265 c 0,3.31188 2.703355,6 6.02539,6 h 24.738282 c 3.322035,0 6.027343,-2.68812 6.027343,-6 V 14.835938 c 0,-3.31188 -2.705308,-5.9980474 -6.027343,-5.9980474 z m 0,1.6347654 h 24.738282 c 2.448644,0 4.390625,1.933707 4.390625,4.363282 v 34.572265 c 0,2.429575 -1.941981,4.363281 -4.390625,4.363281 H 19.662109 c -2.448644,0 -4.390625,-1.933706 -4.390625,-4.363281 V 14.835938 c 0,-2.429575 1.941981,-4.363282 4.390625,-4.363282 z" class="ColorScheme-Text" id="rect246"/>
  <path style="fill:currentColor;fill-opacity:1;stroke:none;stroke-width:0.899999;stroke-dasharray:none;stroke-opacity:0.3" d="m 32.640898,21.599587 c -4.484276,0 -8.119278,1.466291 -8.119278,3.276492 v 2.689708 c 0,1.810431 3.635002,3.276491 8.119278,3.276491 4.484067,0 8.11928,-1.46629 8.11928,-3.276491 v -2.689708 c 0,-1.810201 -3.635213,-3.276492 -8.11928,-3.276492 z m -8.119278,7.136491 c -0.01471,0.081 0,4.692647 0,4.692647 0,1.810665 3.635002,3.276498 8.119278,3.276498 4.484067,0 8.11928,-1.46629 8.11928,-3.276498 0,0 0.0096,-4.611888 -0.0052,-4.692647 -0.309068,1.696864 -3.833137,3.033911 -8.114275,3.033911 -4.281335,0 -7.81062,-1.337277 -8.119272,-3.033911 z m -0.0016,5.874415 0.0016,4.692646 c 0,1.810428 3.635002,3.276491 8.119278,3.276491 4.484067,0 8.11928,-1.46652 8.11928,-3.276491 l -0.0069,-4.692646 c -0.30845,1.695716 -3.831254,3.033913 -8.112599,3.033913 -4.28134,0 -7.812292,-1.338424 -8.120946,-3.033913 z" id="path10" class="ColorScheme-Text"/>
  </g>
</svg>
