<?xml version='1.0' encoding='UTF-8'?>
<svg xmlns:inkscape="http://www.inkscape.org/namespaces/inkscape" xmlns:sodipodi="http://sodipodi.sourceforge.net/DTD/sodipodi-0.dtd" xmlns:xlink="http://www.w3.org/1999/xlink" xmlns="http://www.w3.org/2000/svg" xmlns:svg="http://www.w3.org/2000/svg" xmlns:rdf="http://www.w3.org/1999/02/22-rdf-syntax-ns#" xmlns:cc="http://creativecommons.org/ns#" xmlns:dc="http://purl.org/dc/elements/1.1/" width="64" height="64" version="1.1" id="svg73" sodipodi:docname="apk.svg" inkscape:version="1.4 (e7c3feb100, 2024-10-09)">
  <metadata id="metadata77">
    <rdf:RDF>
      <cc:Work rdf:about="">
        <dc:format>image/svg+xml</dc:format>
        <dc:type rdf:resource="http://purl.org/dc/dcmitype/StillImage"/>
      </cc:Work>
    </rdf:RDF>
  </metadata>
  <sodipodi:namedview pagecolor="#f5f7fa" bordercolor="#666666" borderopacity="1" objecttolerance="10" gridtolerance="10" guidetolerance="10" inkscape:pageopacity="0" inkscape:pageshadow="2" inkscape:window-width="1226" inkscape:window-height="669" id="namedview75" showgrid="false" inkscape:zoom="4.4470387" inkscape:cx="19.338712" inkscape:cy="24.735562" inkscape:window-x="413" inkscape:window-y="134" inkscape:window-maximized="0" inkscape:current-layer="g877" inkscape:document-rotation="0" inkscape:pagecheckerboard="0" inkscape:showpageshadow="2" inkscape:deskcolor="#d1d1d1"/>
  <defs id="defs29">
    <style id="current-color-scheme" type="text/css">.ColorScheme-Text {color:#d8dee9} .ColorScheme-Highlight {color:#3b4252}</style></defs>
  <g id="g877" transform="matrix(1.1,0,0,1.1,-3.1845928,-3.2065454)" style="">
    <path style="opacity:1;baseline-shift:baseline;display:inline;overflow:visible;vector-effect:none;fill:currentColor;enable-background:accumulate;stop-color:#000000;stop-opacity:1" d="m 16.486328,9.1230469 c -4.114093,0 -7.455078,3.3390311 -7.455078,7.4531251 v 31.091797 c 0,4.114093 3.340985,7.455078 7.455078,7.455078 h 31.089844 c 4.114093,0 7.455078,-3.340985 7.455078,-7.455078 V 16.576172 c 0,-4.114094 -3.340985,-7.4531251 -7.455078,-7.4531251 z m 0,1.8183591 h 31.089844 c 3.13827,0 5.636719,2.496495 5.636719,5.634766 v 31.091797 c 0,3.13827 -2.498449,5.636718 -5.636719,5.636718 H 16.486328 c -3.13827,0 -5.636719,-2.498448 -5.636719,-5.636718 V 16.576172 c 0,-3.138271 2.498449,-5.634766 5.636719,-5.634766 z" class="ColorScheme-Text" id="rect246"/>
  <path style="fill:currentColor;stroke:none;stroke-width:0.0287772" d="M 29.616729,41.845956 C 29.386891,41.73219 29.374701,41.69649 29.113864,40.374096 l -0.235658,-1.194732 -0.230178,-0.09411 C 28.09945,38.860959 27.386617,38.454549 26.880092,38.07729 l -0.26105,-0.194409 -1.138815,0.386529 c -0.791027,0.268455 -1.178065,0.38653 -1.267335,0.38653 -0.135526,0 -0.31014,-0.07284 -0.389257,-0.16242 -0.02594,-0.02955 -0.542792,-0.913296 -1.148519,-1.964162 -1.210076,-2.099317 -1.18654,-2.048595 -1.070941,-2.308064 0.04631,-0.10398 0.221885,-0.270699 0.981691,-0.932366 0.923456,-0.804166 0.925261,-0.805962 0.911836,-0.906484 -0.105216,-0.787812 -0.105282,-1.590435 -1.88e-4,-2.388508 0.01322,-0.100447 0.01089,-0.102775 -0.911803,-0.906481 -0.759306,-0.661382 -0.935179,-0.82845 -0.981502,-0.932368 -0.115226,-0.258476 -0.138662,-0.207982 1.070927,-2.307137 0.605841,-1.05139 1.122715,-1.935658 1.148612,-1.965041 0.07879,-0.08939 0.253519,-0.162406 0.388674,-0.162406 0.08874,0 0.477702,0.118793 1.266821,0.38689 l 1.138765,0.386894 0.261562,-0.194811 c 0.506909,-0.377538 1.219206,-0.783705 1.768387,-1.008369 l 0.230113,-0.09414 0.226762,-1.155513 c 0.12472,-0.63553 0.244997,-1.200363 0.267287,-1.255179 0.05279,-0.129829 0.114872,-0.196275 0.245822,-0.263108 0.10208,-0.05209 0.20571,-0.05449 2.35784,-0.05449 2.235112,0 2.251965,4.36e-4 2.377166,0.06104 0.231507,0.112072 0.24333,0.146528 0.505065,1.472173 l 0.235936,1.195 0.230113,0.09418 c 0.549738,0.224993 1.261563,0.630939 1.768844,1.008755 l 0.262022,0.195154 1.140018,-0.387239 c 0.780811,-0.265222 1.17982,-0.387239 1.266355,-0.387239 0.133626,0 0.308382,0.07333 0.387069,0.162406 0.02577,0.02941 0.542792,0.913223 1.148522,1.964091 1.209837,2.098935 1.186369,2.048371 1.071204,2.308086 -0.04618,0.104146 -0.220247,0.269493 -0.981301,0.932367 -0.922275,0.803263 -0.925109,0.806073 -0.912097,0.906485 0.105073,0.810481 0.105038,1.582462 -7.9e-5,2.388509 -0.01306,0.100448 -0.01031,0.103067 0.911836,0.906483 0.759353,0.661489 0.93507,0.828427 0.981373,0.932362 0.115622,0.259556 0.139158,0.208833 -1.070723,2.308187 -0.605592,1.050815 -1.122429,1.934613 -1.148511,1.963997 -0.07934,0.08934 -0.253886,0.16242 -0.388066,0.16242 -0.08758,0 -0.481978,-0.120603 -1.267221,-0.387443 l -1.14011,-0.387444 -0.194368,0.147679 c -0.496089,0.37692 -1.2256,0.8013 -1.764038,1.026214 l -0.300849,0.125655 -0.235937,1.194443 c -0.26173,1.325012 -0.273585,1.359561 -0.505066,1.471616 -0.125187,0.06061 -0.142188,0.06106 -2.368826,0.06106 -2.235022,-1.7e-5 -2.243158,-2.3e-4 -2.367386,-0.06171 z m 4.313467,-6.82957 c 1.035749,-1.243115 1.887498,-2.273074 1.892773,-2.288802 0.0062,-0.01873 -0.392473,-0.02869 -1.143535,-0.02869 h -1.153123 l -0.0075,-3.275519 -0.0076,-3.275517 -0.07657,-0.115697 c -0.149518,-0.225917 -0.14626,-0.225415 -1.448623,-0.225415 -1.302367,0 -1.299107,-5.21e-4 -1.448624,0.225415 l -0.07657,0.115697 -0.0076,3.275517 -0.0075,3.275519 h -1.150736 c -0.6329,0 -1.150533,0.0096 -1.150296,0.02161 2.35e-4,0.01206 0.862211,1.055236 1.915502,2.318582 1.442053,1.729648 1.923936,2.289645 1.950954,2.267221 0.01976,-0.01615 0.883312,-1.046871 1.919062,-2.289988 z" id="path5" class="ColorScheme-Text"/>
    <g id="g8737" style="fill:currentColor;fill-opacity:1;stroke:none;stroke-width:0.36872;stroke-dasharray:none;stroke-opacity:0.6" transform="matrix(0.89868555,0,0,0.89868565,-38.804621,4.6195857)" class="ColorScheme-Text">
      <path style="fill:currentColor;fill-opacity:1;stroke:none;stroke-width:0.36872;stroke-dasharray:none;stroke-opacity:0.6" d="m 32.877806,16.65545 c -2.43174,0 -4.4,1.98 -4.4,4.4 v 8.8 c 0,2.42 1.969,4.4 4.4,4.4 2.430997,0 4.399997,-1.98 4.399997,-4.4 v -8.8 c 0,-2.42 -1.968267,-4.4 -4.399997,-4.4 z m 0,2.2 c 1.214397,0 2.199997,0.88 2.199997,2.2 0,1.099998 -0.9856,2.2 -2.199997,2.2 -1.2144,0 -2.2,-1.100002 -2.2,-2.2 0,-1.32 0.9856,-2.2 2.2,-2.2 z m 0,6.6 c 1.215024,0 2.199997,0.984973 2.199997,2.2 v 2.2 c 0,1.215027 -0.984973,2.2 -2.199997,2.2 -1.21503,0 -2.2,-0.984973 -2.2,-2.2 v -2.2 c 0,-1.215027 0.98497,-2.2 2.2,-2.2 z" id="path20-1" class="ColorScheme-Text"/>
      <path style="fill:currentColor;fill-opacity:1;stroke:none;stroke-width:0.36872;stroke-dasharray:none;stroke-opacity:0.6" d="m 31.838426,9.51125 h 1.1 c 0.0454,-0.404282 0,-1.1 0,-1.1 h -1.1 z m 1.1,0 v 1.1 h 1.1 v -1.1 z m 0,1.1 h -1.1 v 1.1 h 1.1 z m 0,1.1 v 1.1 h 1.1 v -1.1 z m 0,1.1 h -1.1 v 1.1 h 1.1 z m 0,1.1 v 1.1 h 1.1 v -1.1 z m 0,1.1 h -1.1 v 1.1 h 1.1 z m 0,1.1 c -0.13647,1.751109 1.101015,0.886361 1.1,0 z" id="path16" sodipodi:nodetypes="cccccccccccccccccccccccccccccccccccccc" class="ColorScheme-Text"/>
    </g>
  </g>
</svg>
