<?xml version='1.0' encoding='UTF-8'?>
<svg xmlns:inkscape="http://www.inkscape.org/namespaces/inkscape" xmlns:sodipodi="http://sodipodi.sourceforge.net/DTD/sodipodi-0.dtd" xmlns:xlink="http://www.w3.org/1999/xlink" xmlns="http://www.w3.org/2000/svg" xmlns:svg="http://www.w3.org/2000/svg" xmlns:rdf="http://www.w3.org/1999/02/22-rdf-syntax-ns#" xmlns:cc="http://creativecommons.org/ns#" xmlns:dc="http://purl.org/dc/elements/1.1/" width="64" height="64" version="1.1" id="svg73" sodipodi:docname="application-x-bittorrent.svg" inkscape:version="1.4 (e7c3feb100, 2024-10-09)">
  <metadata id="metadata77">
    <rdf:RDF>
      <cc:Work rdf:about="">
        <dc:format>image/svg+xml</dc:format>
        <dc:type rdf:resource="http://purl.org/dc/dcmitype/StillImage"/>
      </cc:Work>
    </rdf:RDF>
  </metadata>
  <sodipodi:namedview pagecolor="#f5f7fa" bordercolor="#666666" borderopacity="1" objecttolerance="10" gridtolerance="10" guidetolerance="10" inkscape:pageopacity="0" inkscape:pageshadow="2" inkscape:window-width="1183" inkscape:window-height="669" id="namedview75" showgrid="false" inkscape:zoom="4.4470387" inkscape:cx="19.451146" inkscape:cy="25.859905" inkscape:window-x="80" inkscape:window-y="161" inkscape:window-maximized="0" inkscape:current-layer="g877" inkscape:document-rotation="0" inkscape:pagecheckerboard="0" inkscape:showpageshadow="2" inkscape:deskcolor="#d1d1d1"/>
  <defs id="defs29">
    <style id="current-color-scheme" type="text/css">.ColorScheme-Text {color:#d8dee9} .ColorScheme-Highlight {color:#3b4252}</style></defs>
  <g id="g877" transform="matrix(1.1,0,0,1.1,-3.1845928,-3.2065454)" style="">
    <path style="opacity:1;baseline-shift:baseline;display:inline;overflow:visible;vector-effect:none;fill:currentColor;enable-background:accumulate;stop-color:#000000;stop-opacity:1" d="m 19.662109,8.8378906 c -3.322035,0 -6.02539,2.6861674 -6.02539,5.9980474 v 34.572265 c 0,3.31188 2.703355,6 6.02539,6 h 24.738282 c 3.322035,0 6.027343,-2.68812 6.027343,-6 V 14.835938 c 0,-3.31188 -2.705308,-5.9980474 -6.027343,-5.9980474 z m 0,1.6347654 h 24.738282 c 2.448644,0 4.390625,1.933707 4.390625,4.363282 v 34.572265 c 0,2.429575 -1.941981,4.363281 -4.390625,4.363281 H 19.662109 c -2.448644,0 -4.390625,-1.933706 -4.390625,-4.363281 V 14.835938 c 0,-2.429575 1.941981,-4.363282 4.390625,-4.363282 z" class="ColorScheme-Text" id="rect246"/>
  <path id="path72" style="fill:currentColor;stroke:none;stroke-width:0.643044;stroke-dasharray:none;stroke-dashoffset:2.2;stroke-opacity:0.3" d="m 31.971998,22.912608 c -6.139389,0 -6.164812,8.91e-4 -6.360104,0.154483 -0.438873,0.345224 -0.415718,-0.173009 -0.415718,8.884551 0,4.998481 0.02862,8.381722 0.07034,8.491441 0.09348,0.245881 0.357107,0.480965 0.629229,0.561412 0.12553,0.03711 2.868314,0.06122 6.2433,0.05398 5.778757,-0.0125 6.028362,-0.01898 6.226975,-0.153193 0.445098,-0.301675 0.420742,0.211687 0.420742,-8.948607 0,-7.637678 -0.01072,-8.412118 -0.120584,-8.598197 -0.277909,-0.470493 0.08789,-0.445881 -6.694172,-0.445881 z m -9.950849,1.476991 v 0.923119 0.924376 h 0.959542 0.960797 v -0.924376 -0.923119 h -0.960797 z m 17.947449,0 v 0.923119 0.924376 h 0.997221 0.997218 v -0.924376 -0.923119 h -0.997218 z m -11.447935,0.738497 h 0.443348 0.442091 v 1.145421 1.144165 h -0.442091 -0.443348 v -1.144165 z m 3.02808,0 h 0.443349 0.443349 v 3.06576 3.064504 h -0.394367 c -0.216655,0 -0.416263,-0.0219 -0.443348,-0.04897 -0.02708,-0.02708 -0.04898,-1.405754 -0.04898,-3.064505 z m 3.102185,0 h 0.405669 0.406928 v 2.289586 2.290843 h -0.406928 -0.405669 v -2.290843 z m -12.629779,2.658833 v 0.924375 0.92312 h 0.959542 0.960797 v -0.92312 -0.924375 h -0.960797 z m 17.947449,0 v 0.924375 0.92312 h 0.997221 0.997218 v -0.92312 -0.924375 h -0.997218 z m -11.447935,0.370505 h 0.444603 0.444605 l -0.02011,1.163004 -0.02012,1.163004 -0.371761,0.02134 c -0.204647,0.01199 -0.395577,-0.0012 -0.424482,-0.03013 -0.02891,-0.02891 -0.05275,-0.562733 -0.05275,-1.185612 z m 6.130265,2.289586 h 0.405669 0.406928 v 1.144166 1.145421 h -0.406928 -0.405669 v -1.145421 z m -6.130265,0.738494 h 0.443348 0.442091 v 2.289589 2.289586 h -0.442091 -0.443348 v -2.289586 z m -6.499514,0.07286 v 0.886697 0.886696 h 0.959542 0.960797 V 32.14507 31.258373 h -0.960797 z m 17.947449,0 v 0.886698 0.886696 h 0.997221 0.997218 V 32.14507 31.258373 h -0.997218 z m -7.533157,0.658113 v 3.068273 3.069528 h -0.444605 -0.443348 l 0.01884,-3.046921 0.01884,-3.046921 0.42451,-0.02134 z m 2.215487,1.558629 h 0.405669 0.406928 v 2.695257 2.696512 h -0.406928 -0.405669 v -2.696512 z m -12.629779,1.18184 v 0.923121 0.923118 h 0.959542 0.960797 v -0.923118 -0.923121 h -0.960797 z m 17.947449,0 v 0.923121 0.923118 h 0.997221 0.997218 v -0.923118 -0.923121 h -0.997218 z m -17.947449,3.39733 v 0.92312 0.923121 h 0.959542 0.960797 v -0.923121 -0.92312 h -0.960797 z m 17.947449,0 v 0.92312 0.923121 h 0.997221 0.997218 v -0.923121 -0.92312 h -0.997218 z" class="ColorScheme-Text"/>
  </g>
</svg>
