<?xml version='1.0' encoding='UTF-8'?>
<svg xmlns:inkscape="http://www.inkscape.org/namespaces/inkscape" xmlns:sodipodi="http://sodipodi.sourceforge.net/DTD/sodipodi-0.dtd" xmlns:xlink="http://www.w3.org/1999/xlink" xmlns="http://www.w3.org/2000/svg" xmlns:svg="http://www.w3.org/2000/svg" xmlns:rdf="http://www.w3.org/1999/02/22-rdf-syntax-ns#" xmlns:cc="http://creativecommons.org/ns#" xmlns:dc="http://purl.org/dc/elements/1.1/" width="64" height="64" version="1.1" id="svg73" sodipodi:docname="application-x-nintendo-ds-rom.svg" inkscape:version="1.4 (e7c3feb100, 2024-10-09)">
  <metadata id="metadata77">
    <rdf:RDF>
      <cc:Work rdf:about="">
        <dc:format>image/svg+xml</dc:format>
        <dc:type rdf:resource="http://purl.org/dc/dcmitype/StillImage"/>
      </cc:Work>
    </rdf:RDF>
  </metadata>
  <sodipodi:namedview pagecolor="#f5f7fa" bordercolor="#666666" borderopacity="1" objecttolerance="10" gridtolerance="10" guidetolerance="10" inkscape:pageopacity="0" inkscape:pageshadow="2" inkscape:window-width="1183" inkscape:window-height="669" id="namedview75" showgrid="false" inkscape:zoom="4.4470387" inkscape:cx="19.451146" inkscape:cy="21.812268" inkscape:window-x="77" inkscape:window-y="123" inkscape:window-maximized="0" inkscape:current-layer="g877" inkscape:document-rotation="0" inkscape:pagecheckerboard="0" inkscape:showpageshadow="2" inkscape:deskcolor="#d1d1d1"/>
  <defs id="defs29">
    <style id="current-color-scheme" type="text/css">.ColorScheme-Text {color:#d8dee9} .ColorScheme-Highlight {color:#3b4252}</style></defs>
  <g id="g877" transform="matrix(1.1,0,0,1.1,-3.1845928,-3.2065454)" style="">
    <path style="opacity:1;baseline-shift:baseline;display:inline;overflow:visible;vector-effect:none;fill:currentColor;enable-background:accumulate;stop-color:#000000;stop-opacity:1" d="m 19.662109,8.8378906 c -3.322035,0 -6.02539,2.6861674 -6.02539,5.9980474 v 34.572265 c 0,3.31188 2.703355,6 6.02539,6 h 24.738282 c 3.322035,0 6.027343,-2.68812 6.027343,-6 V 14.835938 c 0,-3.31188 -2.705308,-5.9980474 -6.027343,-5.9980474 z m 0,1.6347654 h 24.738282 c 2.448644,0 4.390625,1.933707 4.390625,4.363282 v 34.572265 c 0,2.429575 -1.941981,4.363281 -4.390625,4.363281 H 19.662109 c -2.448644,0 -4.390625,-1.933706 -4.390625,-4.363281 V 14.835938 c 0,-2.429575 1.941981,-4.363282 4.390625,-4.363282 z" class="ColorScheme-Text" id="rect246"/>
  <g id="g9420" style="fill:currentColor;fill-opacity:1;stroke:none;stroke-width:1;stroke-dasharray:none;stroke-opacity:0.2" transform="matrix(0.72900004,0,0,0.72900001,11.832088,7.4622104)" class="ColorScheme-Text">
      <path style="fill:currentColor;fill-opacity:1;stroke:none;stroke-width:1;stroke-dasharray:none;stroke-opacity:0.2" d="m 12.959006,28.172827 v -1.587089 l 4.233736,-2.203371 c 2.328554,-1.211855 4.221249,-2.274391 4.205988,-2.361192 -0.01526,-0.0868 -1.920442,-1.14953 -4.233735,-2.361619 l -4.205989,-2.203798 v -1.585476 -1.585477 l 1.311801,0.716002 c 0.721491,0.393801 3.243727,1.782845 5.604969,3.086766 l 4.293168,2.370764 v 1.566274 1.566273 l -4.293168,2.368852 c -2.361242,1.302869 -4.883478,2.690901 -5.604969,3.084516 l -1.311801,0.715663 z" id="path9414" class="ColorScheme-Text"/>
      <path style="fill:currentColor;fill-opacity:1;stroke:none;stroke-width:1;stroke-dasharray:none;stroke-opacity:0.2" d="M 29.17764,32.993789 V 31.48323 h 6.439751 6.439752 v 1.510559 1.510559 H 35.617391 29.17764 Z" id="path9416" class="ColorScheme-Text"/>
    </g>
  </g>
</svg>
