<?xml version='1.0' encoding='UTF-8'?>
<svg xmlns:inkscape="http://www.inkscape.org/namespaces/inkscape" xmlns:sodipodi="http://sodipodi.sourceforge.net/DTD/sodipodi-0.dtd" xmlns:xlink="http://www.w3.org/1999/xlink" xmlns="http://www.w3.org/2000/svg" xmlns:svg="http://www.w3.org/2000/svg" xmlns:rdf="http://www.w3.org/1999/02/22-rdf-syntax-ns#" xmlns:cc="http://creativecommons.org/ns#" xmlns:dc="http://purl.org/dc/elements/1.1/" width="64" height="64" version="1.1" id="svg73" sodipodi:docname="application-x-bittorrent.svg" inkscape:version="1.4 (e7c3feb100, 2024-10-09)">
  <metadata id="metadata77">
    <rdf:RDF>
      <cc:Work rdf:about="">
        <dc:format>image/svg+xml</dc:format>
        <dc:type rdf:resource="http://purl.org/dc/dcmitype/StillImage"/>
      </cc:Work>
    </rdf:RDF>
  </metadata>
  <sodipodi:namedview pagecolor="#f5f7fa" bordercolor="#666666" borderopacity="1" objecttolerance="10" gridtolerance="10" guidetolerance="10" inkscape:pageopacity="0" inkscape:pageshadow="2" inkscape:window-width="1183" inkscape:window-height="669" id="namedview75" showgrid="false" inkscape:zoom="6.2890624" inkscape:cx="37.604969" inkscape:cy="23.214907" inkscape:window-x="169" inkscape:window-y="168" inkscape:window-maximized="0" inkscape:current-layer="g877" inkscape:document-rotation="0" inkscape:pagecheckerboard="0" inkscape:showpageshadow="2" inkscape:deskcolor="#d1d1d1"/>
  <defs id="defs29">
    <style id="current-color-scheme" type="text/css">.ColorScheme-Text {color:#d8dee9} .ColorScheme-Highlight {color:#3b4252}</style></defs>
  <g id="g877" transform="matrix(1.1,0,0,1.1,-3.1845928,-3.2065454)" style="">
    <path style="opacity:1;baseline-shift:baseline;display:inline;overflow:visible;vector-effect:none;fill:currentColor;enable-background:accumulate;stop-color:#000000;stop-opacity:1" d="m 19.662109,8.8378906 c -3.322035,0 -6.02539,2.6861674 -6.02539,5.9980474 v 34.572265 c 0,3.31188 2.703355,6 6.02539,6 h 24.738282 c 3.322035,0 6.027343,-2.68812 6.027343,-6 V 14.835938 c 0,-3.31188 -2.705308,-5.9980474 -6.027343,-5.9980474 z m 0,1.6347654 h 24.738282 c 2.448644,0 4.390625,1.933707 4.390625,4.363282 v 34.572265 c 0,2.429575 -1.941981,4.363281 -4.390625,4.363281 H 19.662109 c -2.448644,0 -4.390625,-1.933706 -4.390625,-4.363281 V 14.835938 c 0,-2.429575 1.941981,-4.363282 4.390625,-4.363282 z" class="ColorScheme-Text" id="rect246"/>
  <path d="m 23.33365,27.278677 c -0.74419,0 -1.347657,0.624152 -1.347657,1.368963 v 7.262077 c 0,0.744813 0.603467,1.368967 1.347657,1.368967 h 5.486505 c 0.74419,0 1.347657,-0.624155 1.347657,-1.368967 V 33.18777 h 3.636363 v 2.721947 c 0,0.744813 0.603467,1.368967 1.347657,1.368967 h 5.486506 c 0.74419,0 1.347655,-0.624155 1.347655,-1.368967 V 28.64764 c 0,-0.744812 -0.603465,-1.368963 -1.347655,-1.368963 h -5.486506 c -0.74419,0 -1.347657,0.624152 -1.347657,1.368963 v 2.721948 H 30.167812 V 28.64764 c 0,-0.744812 -0.603467,-1.368963 -1.347657,-1.368963 z m 0,0.891336 h 5.486505 c 0.253962,0 0.456321,0.200326 0.456321,0.477627 v 2.721948 h -1.381392 c -0.503636,0 -0.90909,0.405455 -0.90909,0.90909 0,0.503637 0.405454,0.909092 0.90909,0.909092 h 1.381392 v 2.721947 c 0,0.277319 -0.20236,0.477629 -0.456321,0.477629 H 23.33365 c -0.253962,0 -0.456321,-0.200319 -0.456321,-0.477629 V 28.64764 c 0,-0.277302 0.20236,-0.477627 0.456321,-0.477627 z m 11.818182,0 h 5.486506 c 0.253955,0 0.456321,0.200326 0.456321,0.477627 v 7.262077 c 0,0.277319 -0.202346,0.477629 -0.456321,0.477629 h -5.486506 c -0.253962,0 -0.456321,-0.200319 -0.456321,-0.477629 V 33.18777 h 1.381391 c 0.503637,0 0.909091,-0.405455 0.909091,-0.909092 0,-0.503635 -0.405454,-0.90909 -0.909091,-0.90909 H 34.695511 V 28.64764 c 0,-0.277302 0.202359,-0.477627 0.456321,-0.477627 z" color="#000000" color-rendering="auto" dominant-baseline="auto" image-rendering="auto" opacity="0.6" shape-rendering="auto" solid-color="#000000" style="font-variant-ligatures:normal;font-variant-position:normal;font-variant-caps:normal;font-variant-numeric:normal;font-variant-alternates:normal;font-feature-settings:normal;text-indent:0;text-decoration-line:none;text-decoration-style:solid;text-transform:none;text-orientation:mixed;white-space:normal;shape-padding:0;isolation:auto;mix-blend-mode:normal;fill:currentColor;stroke-width:0.909091;opacity:1" id="path7" class="ColorScheme-Text"/>
  </g>
</svg>
