<?xml version='1.0' encoding='UTF-8'?>
<svg xmlns:inkscape="http://www.inkscape.org/namespaces/inkscape" xmlns:sodipodi="http://sodipodi.sourceforge.net/DTD/sodipodi-0.dtd" xmlns:xlink="http://www.w3.org/1999/xlink" xmlns="http://www.w3.org/2000/svg" xmlns:svg="http://www.w3.org/2000/svg" xmlns:rdf="http://www.w3.org/1999/02/22-rdf-syntax-ns#" xmlns:cc="http://creativecommons.org/ns#" xmlns:dc="http://purl.org/dc/elements/1.1/" width="64" height="64" version="1.1" id="svg73" sodipodi:docname="application-x-iso9660-appimage.svg" inkscape:version="1.4 (e7c3feb100, 2024-10-09)">
  <metadata id="metadata77">
    <rdf:RDF>
      <cc:Work rdf:about="">
        <dc:format>image/svg+xml</dc:format>
        <dc:type rdf:resource="http://purl.org/dc/dcmitype/StillImage"/>
      </cc:Work>
    </rdf:RDF>
  </metadata>
  <sodipodi:namedview pagecolor="#f5f7fa" bordercolor="#666666" borderopacity="1" objecttolerance="10" gridtolerance="10" guidetolerance="10" inkscape:pageopacity="0" inkscape:pageshadow="2" inkscape:window-width="1226" inkscape:window-height="669" id="namedview75" showgrid="false" inkscape:zoom="4.4470387" inkscape:cx="19.338712" inkscape:cy="24.735562" inkscape:window-x="273" inkscape:window-y="135" inkscape:window-maximized="0" inkscape:current-layer="g877" inkscape:document-rotation="0" inkscape:pagecheckerboard="0" inkscape:showpageshadow="2" inkscape:deskcolor="#d1d1d1"/>
  <defs id="defs29">
    <style id="current-color-scheme" type="text/css">.ColorScheme-Text {color:#d8dee9} .ColorScheme-Highlight {color:#3b4252}</style></defs>
  <g id="g877" transform="matrix(1.1,0,0,1.1,-3.1845928,-3.2065454)" style="">
    <path style="opacity:1;baseline-shift:baseline;display:inline;overflow:visible;vector-effect:none;fill:currentColor;enable-background:accumulate;stop-color:#000000;stop-opacity:1" d="m 16.486328,9.1230469 c -4.114093,0 -7.455078,3.3390311 -7.455078,7.4531251 v 31.091797 c 0,4.114093 3.340985,7.455078 7.455078,7.455078 h 31.089844 c 4.114093,0 7.455078,-3.340985 7.455078,-7.455078 V 16.576172 c 0,-4.114094 -3.340985,-7.4531251 -7.455078,-7.4531251 z m 0,1.8183591 h 31.089844 c 3.13827,0 5.636719,2.496495 5.636719,5.634766 v 31.091797 c 0,3.13827 -2.498449,5.636718 -5.636719,5.636718 H 16.486328 c -3.13827,0 -5.636719,-2.498448 -5.636719,-5.636718 V 16.576172 c 0,-3.138271 2.498449,-5.634766 5.636719,-5.634766 z" class="ColorScheme-Text" id="rect246"/>
  <path style="fill:currentColor;fill-opacity:1;stroke-width:0.801901" d="m 32.067054,20.620258 c -6.20029,0 -11.2266,5.02631 -11.2266,11.2266 0,6.200285 5.02631,11.226596 11.2266,11.226596 6.200295,0 11.226605,-5.026311 11.226605,-11.226596 0,-6.20029 -5.02631,-11.2266 -11.226605,-11.2266 z m -1.12454,2.14571 c 0.130888,-0.01364 0.297084,0.0079 0.429142,0 0.0157,0.06261 -0.09504,0.284817 -0.244331,0.610822 -0.95056,2.076591 -1.004371,4.510769 -0.122164,5.810643 0.159644,0.235676 0.303846,0.459499 0.303846,0.488657 0,0.02914 -0.171828,0.05951 -0.366495,0.05951 -0.456989,0 -0.889353,-0.277626 -1.77295,-0.977317 -0.392522,-0.310823 -0.901777,-0.571303 -1.099477,-0.610821 -0.310452,-0.06202 -0.394013,-0.03517 -0.795634,0.366494 -0.373675,0.373607 -0.488659,0.575772 -0.488659,0.9178 0,1.297019 1.538903,2.325247 4.401053,2.93195 3.886908,0.823804 4.845148,1.564668 4.952358,3.608541 0.134609,2.562967 -1.230674,4.496218 -4.219373,5.992325 -0.356719,0.178638 -0.583318,0.246121 -0.732985,0.303811 -0.06632,-0.0062 -0.115553,0.0062 -0.181679,0 -0.02546,-0.07927 -0.06264,-0.26251 -0.06264,-0.610821 0,-1.361269 -0.5353,-2.762341 -1.343808,-3.545907 -0.217034,-0.210304 -0.826566,-0.655149 -1.346946,-0.977279 -0.520361,-0.322111 -1.045133,-0.695508 -1.16213,-0.85515 -0.193884,-0.264928 -0.208478,-0.428391 -0.05951,-0.917798 0.271478,-0.893848 0.593465,-1.392989 1.221646,-1.957762 0.32933,-0.296086 0.660029,-0.542238 0.732985,-0.548174 0.07297,-0.0061 -0.418276,-0.155452 -1.158995,-0.306977 -0.740677,-0.151816 -1.826711,-0.470723 -2.386905,-0.67347 -1.024364,-0.370652 -2.40468,-1.147155 -2.931948,-1.710302 -0.0223,-0.02388 -0.04328,-0.04151 -0.06264,-0.06264 0.755449,-3.009237 2.874887,-5.47411 5.685345,-6.662662 0.588055,-0.248725 1.195681,-0.42042 1.8356,-0.551306 0.318747,-0.06515 0.648199,-0.08871 0.977315,-0.122163 z m 9.171734,4.585866 c 0.229765,0.142034 1.096143,2.019455 1.34381,2.935079 0.319754,1.182075 0.29663,3.226781 0,4.401049 -0.112873,0.446934 -0.255707,0.865757 -0.303846,0.9178 -0.0481,0.05205 -0.223821,-0.246977 -0.429143,-0.610822 -0.205339,-0.363785 -0.861402,-1.138331 -1.406451,-1.713433 -1.573274,-1.660117 -1.821147,-2.524828 -1.162128,-3.849745 0.332343,-0.668111 1.779917,-2.189692 1.957758,-2.079928 z" id="path14" class="ColorScheme-Text"/>
  </g>
</svg>
