<?xml version='1.0' encoding='UTF-8'?>
<svg xmlns:inkscape="http://www.inkscape.org/namespaces/inkscape" xmlns:sodipodi="http://sodipodi.sourceforge.net/DTD/sodipodi-0.dtd" xmlns:xlink="http://www.w3.org/1999/xlink" xmlns="http://www.w3.org/2000/svg" xmlns:svg="http://www.w3.org/2000/svg" xmlns:rdf="http://www.w3.org/1999/02/22-rdf-syntax-ns#" xmlns:cc="http://creativecommons.org/ns#" xmlns:dc="http://purl.org/dc/elements/1.1/" width="64" height="64" version="1.1" id="svg73" sodipodi:docname="application-vnd.sun.xml.draw.template.svg" inkscape:version="1.4 (e7c3feb100, 2024-10-09)">
  <metadata id="metadata77">
    <rdf:RDF>
      <cc:Work rdf:about="">
        <dc:format>image/svg+xml</dc:format>
        <dc:type rdf:resource="http://purl.org/dc/dcmitype/StillImage"/>
      </cc:Work>
    </rdf:RDF>
  </metadata>
  <sodipodi:namedview pagecolor="#f5f7fa" bordercolor="#666666" borderopacity="1" objecttolerance="10" gridtolerance="10" guidetolerance="10" inkscape:pageopacity="0" inkscape:pageshadow="2" inkscape:window-width="1183" inkscape:window-height="669" id="namedview75" showgrid="false" inkscape:zoom="4.4470387" inkscape:cx="19.451146" inkscape:cy="8.3201435" inkscape:window-x="107" inkscape:window-y="141" inkscape:window-maximized="0" inkscape:current-layer="g877" inkscape:document-rotation="0" inkscape:pagecheckerboard="0" inkscape:showpageshadow="2" inkscape:deskcolor="#d1d1d1"/>
  <defs id="defs29">
    <style id="current-color-scheme" type="text/css">.ColorScheme-Text {color:#d8dee9} .ColorScheme-Highlight {color:#3b4252}</style></defs>
  <g id="g877" transform="matrix(1.1,0,0,1.1,-3.1845928,-3.2065454)" style="">
    <path style="opacity:1;baseline-shift:baseline;display:inline;overflow:visible;vector-effect:none;fill:currentColor;enable-background:accumulate;stop-color:#000000;stop-opacity:1" d="m 19.662109,8.8378906 c -3.322035,0 -6.02539,2.6861674 -6.02539,5.9980474 v 34.572265 c 0,3.31188 2.703355,6 6.02539,6 h 24.738282 c 3.322035,0 6.027343,-2.68812 6.027343,-6 V 14.835938 c 0,-3.31188 -2.705308,-5.9980474 -6.027343,-5.9980474 z m 0,1.6347654 h 24.738282 c 2.448644,0 4.390625,1.933707 4.390625,4.363282 v 34.572265 c 0,2.429575 -1.941981,4.363281 -4.390625,4.363281 H 19.662109 c -2.448644,0 -4.390625,-1.933706 -4.390625,-4.363281 V 14.835938 c 0,-2.429575 1.941981,-4.363282 4.390625,-4.363282 z" class="ColorScheme-Text" id="rect246"/>
  <g id="g250" style="fill:currentColor;fill-opacity:1;stroke:none;stroke-width:1.51593;stroke-dasharray:none;stroke-opacity:0.3" transform="matrix(0.40276878,0,0,0.38436436,19.144652,18.197414)" class="ColorScheme-Text">
      <path style="fill:currentColor;fill-opacity:1;stroke:none;stroke-width:1.51593;stroke-dasharray:none;stroke-opacity:0.3" d="M 19.832685,42.052513 C 17.959162,37.336267 16.234889,32.996355 16.000967,32.408262 L 15.575654,31.339004 H 11.6566 7.7375456 V 28.7339 26.128797 l 5.5018224,0.001 5.501823,0.001 2.838396,7.113347 c 1.561118,3.912339 2.856321,7.113814 2.878228,7.114387 0.02191,5.45e-4 1.715365,-5.799198 3.763239,-12.888384 2.047873,-7.089186 3.772252,-13.05565 3.831952,-13.258809 l 0.108548,-0.369381 h 9.639757 9.639758 v 2.605104 2.605103 l -7.873633,6.3e-4 -7.873633,6.3e-4 -4.54936,15.766079 -4.549361,15.766075 -1.677995,0.02092 -1.677996,0.02092 z" id="path90" class="ColorScheme-Text"/>
      <path style="fill:currentColor;fill-opacity:1;stroke:none;stroke-width:1.51593;stroke-dasharray:none;stroke-opacity:0.3" d="m 34.149327,50.527339 c 0.0483,-0.07975 8.665482,-11.544961 8.91231,-11.857878 0.0545,-0.06909 -1.066629,-1.561744 -3.995981,-5.32021 -2.239452,-2.873297 -4.099716,-5.27091 -4.133919,-5.328026 -0.05128,-0.08564 0.32409,-0.10385 2.141083,-0.10385 h 2.20327 l 3.073581,3.946538 c 1.690469,2.170595 3.11471,3.946537 3.164979,3.946537 0.05027,0 1.468281,-1.767194 3.151138,-3.927096 l 3.059741,-3.927096 2.237235,-0.02065 L 56.2,27.914958 55.814363,28.40219 c -2.756836,3.483121 -8.028358,10.367403 -7.998414,10.445435 0.02148,0.05598 2.000719,2.709016 4.398309,5.895642 2.39759,3.186625 4.359254,5.813531 4.359254,5.837568 0,0.02404 -0.988579,0.04328 -2.196841,0.04277 l -2.196841,-9.33e-4 -3.415632,-4.596787 c -2.712043,-3.649893 -3.432885,-4.573723 -3.499392,-4.484816 -0.04607,0.06159 -1.585148,2.13056 -3.420177,4.597721 l -3.336415,4.485747 h -2.208879 c -1.746657,0 -2.196559,-0.02034 -2.150008,-0.09721 z" id="path129" class="ColorScheme-Text"/>
    </g>
  </g>
</svg>
