<?xml version='1.0' encoding='UTF-8'?>
<svg xmlns:inkscape="http://www.inkscape.org/namespaces/inkscape" xmlns:sodipodi="http://sodipodi.sourceforge.net/DTD/sodipodi-0.dtd" xmlns:xlink="http://www.w3.org/1999/xlink" xmlns="http://www.w3.org/2000/svg" xmlns:svg="http://www.w3.org/2000/svg" xmlns:rdf="http://www.w3.org/1999/02/22-rdf-syntax-ns#" xmlns:cc="http://creativecommons.org/ns#" xmlns:dc="http://purl.org/dc/elements/1.1/" width="64" height="64" version="1.1" id="svg73" sodipodi:docname="application-bitwig-preset.svg" inkscape:version="1.4 (e7c3feb100, 2024-10-09)">
  <metadata id="metadata77">
    <rdf:RDF>
      <cc:Work rdf:about="">
        <dc:format>image/svg+xml</dc:format>
        <dc:type rdf:resource="http://purl.org/dc/dcmitype/StillImage"/>
      </cc:Work>
    </rdf:RDF>
  </metadata>
  <sodipodi:namedview pagecolor="#f5f7fa" bordercolor="#666666" borderopacity="1" objecttolerance="10" gridtolerance="10" guidetolerance="10" inkscape:pageopacity="0" inkscape:pageshadow="2" inkscape:window-width="1183" inkscape:window-height="669" id="namedview75" showgrid="false" inkscape:zoom="4.4470387" inkscape:cx="19.451146" inkscape:cy="8.3201435" inkscape:window-x="241" inkscape:window-y="144" inkscape:window-maximized="0" inkscape:current-layer="g877" inkscape:document-rotation="0" inkscape:pagecheckerboard="0" inkscape:showpageshadow="2" inkscape:deskcolor="#d1d1d1"/>
  <defs id="defs29">
    <style id="current-color-scheme" type="text/css">.ColorScheme-Text {color:#d8dee9} .ColorScheme-Highlight {color:#3b4252}</style></defs>
  <g id="g877" transform="matrix(1.1,0,0,1.1,-3.1845928,-3.2065454)" style="">
    <path style="opacity:1;baseline-shift:baseline;display:inline;overflow:visible;vector-effect:none;fill:currentColor;enable-background:accumulate;stop-color:#000000;stop-opacity:1" d="m 19.662109,8.8378906 c -3.322035,0 -6.02539,2.6861674 -6.02539,5.9980474 v 34.572265 c 0,3.31188 2.703355,6 6.02539,6 h 24.738282 c 3.322035,0 6.027343,-2.68812 6.027343,-6 V 14.835938 c 0,-3.31188 -2.705308,-5.9980474 -6.027343,-5.9980474 z m 0,1.6347654 h 24.738282 c 2.448644,0 4.390625,1.933707 4.390625,4.363282 v 34.572265 c 0,2.429575 -1.941981,4.363281 -4.390625,4.363281 H 19.662109 c -2.448644,0 -4.390625,-1.933706 -4.390625,-4.363281 V 14.835938 c 0,-2.429575 1.941981,-4.363282 4.390625,-4.363282 z" class="ColorScheme-Text" id="rect246"/>
  <path id="path19" style="fill:currentColor;fill-opacity:1;stroke:none;stroke-width:0.785941;stroke-dasharray:none;stroke-dashoffset:2.2;stroke-opacity:0.3" d="m 29.121398,21.488998 c -0.609346,0.0075 -1.226555,0.144366 -1.815957,0.426742 -2.799334,1.341122 -3.422383,4.940191 -1.228035,7.09804 0.662773,0.651748 1.354796,1.033407 2.207392,1.218825 0.699966,0.152225 0.975963,0.159211 1.642498,0.03838 1.622296,-0.294101 3.044938,-1.569894 3.507573,-3.146839 0.218183,-0.743681 0.187005,-1.902831 -0.07061,-2.632598 -0.664014,-1.881021 -2.414823,-3.02486 -4.242855,-3.00255 z m 7.464918,2.905837 c -0.334409,0.005 -0.671254,0.05471 -1.003921,0.153503 l -0.466651,0.138155 0.05527,0.790549 c 0.103506,1.458317 -0.440606,3.190761 -1.314003,4.182992 -0.202961,0.23058 -0.369945,0.455159 -0.369945,0.498888 0,0.104451 0.881385,0.949518 1.186589,1.137467 0.131059,0.08071 0.476554,0.230195 0.767522,0.333107 0.817123,0.289009 1.952804,0.225082 2.764615,-0.15504 0.810075,-0.379308 1.524777,-1.065416 1.895772,-1.819025 0.273094,-0.554692 0.291648,-0.653999 0.291648,-1.544255 0,-0.888089 -0.01924,-0.990773 -0.28859,-1.536576 -0.679603,-1.378172 -2.069194,-2.20182 -3.518303,-2.179765 z m -0.60174,9.04294 0.442095,0.291658 c 1.02103,0.676305 1.942167,1.720536 2.508262,2.839829 0.305563,0.604205 0.69077,1.934435 0.69077,2.38546 v 0.349989 h 2.221203 2.221204 l -0.03058,-1.065322 c -0.03078,-1.018923 -0.04819,-1.095672 -0.371586,-1.749948 -0.962208,-1.946608 -3.419547,-3.051666 -6.783366,-3.051666 z m -6.662088,0.0169 c -0.216908,2.08e-4 -0.438177,0.0041 -0.664673,0.01075 -1.894849,0.0556 -2.805363,0.207642 -4.101636,0.684603 -2.818448,1.037055 -4.335049,3.147129 -4.338033,6.035796 v 0.653924 h 8.937022 8.937023 v -0.9287 c 0,-1.738262 -0.492004,-2.927794 -1.705436,-4.129264 -1.618915,-1.602962 -3.810596,-2.330239 -7.064266,-2.327127 z" class="ColorScheme-Text"/>
  </g>
</svg>
