<?xml version="1.0" encoding="UTF-8" standalone="no"?>
<svg
   width="64"
   height="64"
   version="1.1"
   id="svg73"
   sodipodi:docname="org.rncbc.qpwgraph.application-x-qpwgraph-patchbay.svg"
   inkscape:version="1.4.2 (ebf0e940d0, 2025-05-08)"
   xmlns:inkscape="http://www.inkscape.org/namespaces/inkscape"
   xmlns:sodipodi="http://sodipodi.sourceforge.net/DTD/sodipodi-0.dtd"
   xmlns="http://www.w3.org/2000/svg"
   xmlns:svg="http://www.w3.org/2000/svg"
   xmlns:rdf="http://www.w3.org/1999/02/22-rdf-syntax-ns#"
   xmlns:cc="http://creativecommons.org/ns#"
   xmlns:dc="http://purl.org/dc/elements/1.1/">
  <metadata
     id="metadata77">
    <rdf:RDF>
      <cc:Work
         rdf:about="">
        <dc:format>image/svg+xml</dc:format>
        <dc:type
           rdf:resource="http://purl.org/dc/dcmitype/StillImage" />
      </cc:Work>
    </rdf:RDF>
  </metadata>
  <sodipodi:namedview
     pagecolor="#f5f7fa"
     bordercolor="#666666"
     borderopacity="1"
     objecttolerance="10"
     gridtolerance="10"
     guidetolerance="10"
     inkscape:pageopacity="0"
     inkscape:pageshadow="2"
     inkscape:window-width="2560"
     inkscape:window-height="1392"
     id="namedview75"
     showgrid="false"
     inkscape:zoom="4.4470387"
     inkscape:cx="19.451146"
     inkscape:cy="8.3201435"
     inkscape:window-x="0"
     inkscape:window-y="0"
     inkscape:window-maximized="1"
     inkscape:current-layer="g877"
     inkscape:document-rotation="0"
     inkscape:pagecheckerboard="0"
     inkscape:showpageshadow="2"
     inkscape:deskcolor="#d1d1d1" />
  <defs
     id="defs29">
    <style
       id="current-color-scheme"
       type="text/css">.ColorScheme-Text {color:#d8dee9} .ColorScheme-Highlight {color:#3b4252}</style>
  </defs>
  <g
     id="g877"
     transform="matrix(1.1,0,0,1.1,-3.1845928,-3.2065454)"
     style="">
    <path
       style="opacity:1;baseline-shift:baseline;display:inline;overflow:visible;vector-effect:none;fill:currentColor;enable-background:accumulate;stop-color:#000000;stop-opacity:1"
       d="m 19.662109,8.8378906 c -3.322035,0 -6.02539,2.6861674 -6.02539,5.9980474 v 34.572265 c 0,3.31188 2.703355,6 6.02539,6 h 24.738282 c 3.322035,0 6.027343,-2.68812 6.027343,-6 V 14.835938 c 0,-3.31188 -2.705308,-5.9980474 -6.027343,-5.9980474 z m 0,1.6347654 h 24.738282 c 2.448644,0 4.390625,1.933707 4.390625,4.363282 v 34.572265 c 0,2.429575 -1.941981,4.363281 -4.390625,4.363281 H 19.662109 c -2.448644,0 -4.390625,-1.933706 -4.390625,-4.363281 V 14.835938 c 0,-2.429575 1.941981,-4.363282 4.390625,-4.363282 z"
       class="ColorScheme-Text"
       id="rect246" />
    <path
       d="m 22.935714,22.460496 c -0.948269,0 -1.728906,0.780638 -1.728906,1.728906 0,0.948268 0.780637,1.727503 1.728906,1.727503 0.948267,0 1.727503,-0.778534 1.727503,-1.727503 0,-0.94897 -0.778533,-1.728906 -1.727503,-1.728906 m 18.103361,0 a 1.7366211,1.7366211 0 0 0 -1.728905,1.728906 1.7359197,1.7359197 0 0 0 1.728905,1.727503 c 0.948267,0 1.727505,-0.778534 1.727505,-1.727503 0,-0.94897 -0.778535,-1.728906 -1.727505,-1.728906 M 24.931846,22.95497 c 0.22936,0.362614 0.364719,0.788353 0.364719,1.242849 0,0.447481 -0.131855,0.866907 -0.3549,1.226015 h 1.697344 c 3.703297,4.937026 2.879171,5.348035 2.879171,5.348035 h -4.586334 c 0.22936,0.361914 0.364719,0.787652 0.364719,1.242147 0,0.447482 -0.131174,0.86761 -0.353498,1.226016 h 4.575113 c 0,0 0.823423,0.412412 -2.879871,5.349438 h -1.706463 c 0.228644,0.362615 0.364719,0.788353 0.364719,1.24285 0,0.44748 -0.131174,0.866906 -0.353498,1.226015 h 2.517962 c 7.816897,-9.051332 1.234431,-9.051332 9.051328,0 h 2.534797 A 2.3145597,2.3145597 0 0 1 38.693655,39.83232 c 0,-0.454497 0.135354,-0.880235 0.364718,-1.24285 h -1.722592 c -3.703294,-4.937727 -2.880572,-5.349438 -2.880572,-5.349438 h 4.591945 a 2.3145597,2.3145597 0 0 1 -0.354198,-1.226016 c 0,-0.454495 0.135355,-0.880233 0.364719,-1.242147 h -4.603169 c 0,0 -0.822019,-0.411009 2.880573,-5.348035 h 1.712773 a 2.3145597,2.3145597 0 0 1 -0.354896,-1.226015 c 0,-0.454496 0.135355,-0.880235 0.364719,-1.242849 h -2.546016 c -7.817601,9.051332 -1.234436,9.051332 -9.052032,0 z m -1.996132,0.493071 c 0.415218,0 0.739958,0.326143 0.739958,0.741361 0,0.415218 -0.32474,0.739256 -0.739958,0.739256 -0.415216,0 -0.740661,-0.32474 -0.740661,-0.739256 0,-0.414517 0.326144,-0.741361 0.740661,-0.741361 m 18.103361,0 c 0.415219,0 0.739962,0.326143 0.739962,0.741361 0,0.415218 -0.324743,0.739256 -0.739962,0.739256 -0.415218,0 -0.740659,-0.32474 -0.740659,-0.739256 0,-0.414517 0.326144,-0.741361 0.740659,-0.741361 m -18.102661,6.830757 a 1.7359197,1.7359197 0 0 0 -1.729606,1.726802 1.7366211,1.7366211 0 0 0 1.728906,1.728906 1.7359197,1.7359197 0 0 0 1.727503,-1.728906 1.7345171,1.7345171 0 0 0 -1.727503,-1.726802 m 18.102659,0 a 1.7359197,1.7359197 0 0 0 -1.728906,1.726802 1.7366211,1.7366211 0 0 0 1.728906,1.728906 1.7359197,1.7359197 0 0 0 1.727505,-1.728906 1.7345171,1.7345171 0 0 0 -1.727505,-1.726802 m -18.102659,0.987546 c 0.413816,0 0.739255,0.324739 0.739255,0.739256 0,0.414517 -0.324737,0.74136 -0.739957,0.74136 -0.415217,0 -0.740658,-0.326142 -0.740658,-0.74136 0,-0.415218 0.326144,-0.739256 0.740658,-0.739256 m 18.102663,0 c 0.415218,0 0.739957,0.324739 0.739957,0.739256 0,0.414517 -0.324739,0.74136 -0.739957,0.74136 -0.415218,0 -0.74066,-0.326142 -0.74066,-0.74136 0,-0.415218 0.326144,-0.739256 0.74066,-0.739256 m -18.102663,6.828652 a 1.7366211,1.7366211 0 0 0 -1.729606,1.728907 1.7359197,1.7359197 0 0 0 1.728906,1.727502 1.7345171,1.7345171 0 0 0 1.727503,-1.727502 1.7359197,1.7359197 0 0 0 -1.727503,-1.728907 m 18.10266,0 a 1.7366211,1.7366211 0 0 0 -1.728905,1.728907 1.7359197,1.7359197 0 0 0 1.728905,1.727502 1.7345171,1.7345171 0 0 0 1.727505,-1.727502 1.7359197,1.7359197 0 0 0 -1.727505,-1.728907 m -18.10266,0.987545 c 0.413815,0 0.739255,0.326143 0.739255,0.741362 0,0.415217 -0.32474,0.739958 -0.739957,0.739958 a 0.73294388,0.73294388 0 0 1 -0.740659,-0.739958 c 0,-0.415219 0.326141,-0.741362 0.740659,-0.741362 m 18.10266,0 c 0.415218,0 0.739957,0.326143 0.739957,0.741362 0,0.415217 -0.324739,0.739958 -0.739957,0.739958 -0.415219,0 -0.74066,-0.325442 -0.74066,-0.739958 0,-0.415219 0.326144,-0.741362 0.74066,-0.741362"
       id="path1-3"
       style="fill:currentColor;fill-opacity:1;stroke-width:0.701383"
       class="ColorScheme-Text" />
  </g>
</svg>
