<?xml version='1.0' encoding='UTF-8'?>
<svg xmlns:inkscape="http://www.inkscape.org/namespaces/inkscape" xmlns:sodipodi="http://sodipodi.sourceforge.net/DTD/sodipodi-0.dtd" xmlns:xlink="http://www.w3.org/1999/xlink" xmlns="http://www.w3.org/2000/svg" xmlns:svg="http://www.w3.org/2000/svg" xmlns:rdf="http://www.w3.org/1999/02/22-rdf-syntax-ns#" xmlns:cc="http://creativecommons.org/ns#" xmlns:dc="http://purl.org/dc/elements/1.1/" width="64" height="64" version="1.1" id="svg73" sodipodi:docname="application-x-partial-download.svg" inkscape:version="1.4 (e7c3feb100, 2024-10-09)">
  <metadata id="metadata77">
    <rdf:RDF>
      <cc:Work rdf:about="">
        <dc:format>image/svg+xml</dc:format>
        <dc:type rdf:resource="http://purl.org/dc/dcmitype/StillImage"/>
      </cc:Work>
    </rdf:RDF>
  </metadata>
  <sodipodi:namedview pagecolor="#f5f7fa" bordercolor="#666666" borderopacity="1" objecttolerance="10" gridtolerance="10" guidetolerance="10" inkscape:pageopacity="0" inkscape:pageshadow="2" inkscape:window-width="1183" inkscape:window-height="669" id="namedview75" showgrid="false" inkscape:zoom="4.4470387" inkscape:cx="19.451146" inkscape:cy="25.635037" inkscape:window-x="80" inkscape:window-y="161" inkscape:window-maximized="0" inkscape:current-layer="g877" inkscape:document-rotation="0" inkscape:pagecheckerboard="0" inkscape:showpageshadow="2" inkscape:deskcolor="#d1d1d1"/>
  <defs id="defs29">
    <style id="current-color-scheme" type="text/css">.ColorScheme-Text {color:#d8dee9} .ColorScheme-Highlight {color:#3b4252}</style></defs>
  <g id="g877" transform="matrix(1.1,0,0,1.1,-3.1845928,-3.2065454)" style="">
    <path style="opacity:1;baseline-shift:baseline;display:inline;overflow:visible;vector-effect:none;fill:currentColor;enable-background:accumulate;stop-color:#000000;stop-opacity:1" d="m 19.662109,8.8378906 c -3.322035,0 -6.02539,2.6861674 -6.02539,5.9980474 v 34.572265 c 0,3.31188 2.703355,6 6.02539,6 h 24.738282 c 3.322035,0 6.027343,-2.68812 6.027343,-6 V 14.835938 c 0,-3.31188 -2.705308,-5.9980474 -6.027343,-5.9980474 z m 0,1.6347654 h 24.738282 c 2.448644,0 4.390625,1.933707 4.390625,4.363282 v 34.572265 c 0,2.429575 -1.941981,4.363281 -4.390625,4.363281 H 19.662109 c -2.448644,0 -4.390625,-1.933706 -4.390625,-4.363281 V 14.835938 c 0,-2.429575 1.941981,-4.363282 4.390625,-4.363282 z" class="ColorScheme-Text" id="rect246"/>
  <path d="m 28.154839,35.025935 -7.40727,-3.268362 v -1.069091 l 7.40727,-3.695998 v 1.786908 l -5.101089,2.367272 5.101089,2.092363 z m 2.733825,-2.657453 q 0,-0.763636 0.320727,-1.282909 0.320727,-0.519273 1.099636,-1.084363 0.687273,-0.488727 0.977454,-0.84 0.305455,-0.366545 0.305455,-0.855272 0,-0.488728 -0.366545,-0.733091 -0.351273,-0.259638 -0.992727,-0.259638 -0.641454,0 -1.267636,0.198546 -0.626182,0.198546 -1.282909,0.534545 l -0.809455,-1.63418 q 0.748364,-0.412364 1.618909,-0.672 0.870545,-0.259634 1.90909,-0.259634 1.588363,0 2.458909,0.763636 0.885817,0.763636 0.885817,1.939635 0,0.626182 -0.198546,1.084363 -0.198545,0.458181 -0.595635,0.855271 -0.397091,0.381818 -0.992727,0.824727 -0.442909,0.320727 -0.687272,0.549818 -0.244364,0.229091 -0.336001,0.442909 -0.07636,0.213818 -0.07636,0.534546 V 32.9183 h -1.970181 z m -0.244365,3.100362 q 0,-0.702545 0.381818,-0.977454 0.381818,-0.290181 0.931636,-0.290181 0.534545,0 0.916363,0.290181 0.381819,0.274907 0.381819,0.977454 0,0.672 -0.381819,0.977454 -0.381818,0.290181 -0.916363,0.290181 -0.549818,0 -0.931636,-0.290181 -0.381817,-0.305454 -0.381818,-0.977454 z m 6.124352,-2.229817 5.101095,-2.092363 -5.101095,-2.367272 v -1.786908 l 7.407274,3.695998 v 1.069091 l -7.407274,3.268362 z" id="text68" style="font-weight:bold;font-size:4.93879px;font-family:'Noto Sans';-inkscape-font-specification:'Noto Sans Bold';fill:currentColor;stroke-width:0.818181" aria-label="&lt;?&gt;" class="ColorScheme-Text"/>
  </g>
</svg>
