<?xml version='1.0' encoding='UTF-8'?>
<svg xmlns:inkscape="http://www.inkscape.org/namespaces/inkscape" xmlns:sodipodi="http://sodipodi.sourceforge.net/DTD/sodipodi-0.dtd" xmlns:xlink="http://www.w3.org/1999/xlink" xmlns="http://www.w3.org/2000/svg" xmlns:svg="http://www.w3.org/2000/svg" xmlns:rdf="http://www.w3.org/1999/02/22-rdf-syntax-ns#" xmlns:cc="http://creativecommons.org/ns#" xmlns:dc="http://purl.org/dc/elements/1.1/" width="64" height="64" version="1.1" id="svg73" sodipodi:docname="application-x-bittorrent.svg" inkscape:version="1.4 (e7c3feb100, 2024-10-09)">
  <metadata id="metadata77">
    <rdf:RDF>
      <cc:Work rdf:about="">
        <dc:format>image/svg+xml</dc:format>
        <dc:type rdf:resource="http://purl.org/dc/dcmitype/StillImage"/>
      </cc:Work>
    </rdf:RDF>
  </metadata>
  <sodipodi:namedview pagecolor="#f5f7fa" bordercolor="#666666" borderopacity="1" objecttolerance="10" gridtolerance="10" guidetolerance="10" inkscape:pageopacity="0" inkscape:pageshadow="2" inkscape:window-width="1183" inkscape:window-height="669" id="namedview75" showgrid="false" inkscape:zoom="4.4470387" inkscape:cx="19.451146" inkscape:cy="25.859905" inkscape:window-x="80" inkscape:window-y="161" inkscape:window-maximized="0" inkscape:current-layer="g877" inkscape:document-rotation="0" inkscape:pagecheckerboard="0" inkscape:showpageshadow="2" inkscape:deskcolor="#d1d1d1"/>
  <defs id="defs29">
    <style id="current-color-scheme" type="text/css">.ColorScheme-Text {color:#d8dee9} .ColorScheme-Highlight {color:#3b4252}</style></defs>
  <g id="g877" transform="matrix(1.1,0,0,1.1,-3.1845928,-3.2065454)" style="">
    <path style="opacity:1;baseline-shift:baseline;display:inline;overflow:visible;vector-effect:none;fill:currentColor;enable-background:accumulate;stop-color:#000000;stop-opacity:1" d="m 19.662109,8.8378906 c -3.322035,0 -6.02539,2.6861674 -6.02539,5.9980474 v 34.572265 c 0,3.31188 2.703355,6 6.02539,6 h 24.738282 c 3.322035,0 6.027343,-2.68812 6.027343,-6 V 14.835938 c 0,-3.31188 -2.705308,-5.9980474 -6.027343,-5.9980474 z m 0,1.6347654 h 24.738282 c 2.448644,0 4.390625,1.933707 4.390625,4.363282 v 34.572265 c 0,2.429575 -1.941981,4.363281 -4.390625,4.363281 H 19.662109 c -2.448644,0 -4.390625,-1.933706 -4.390625,-4.363281 V 14.835938 c 0,-2.429575 1.941981,-4.363282 4.390625,-4.363282 z" class="ColorScheme-Text" id="rect246"/>
  <path style="fill:currentColor;stroke-width:0.909091" d="m 25.128721,23.377769 c -0.857273,0.526363 -2.580909,1.264545 -4.000909,1.676363 l 0.04454,0.124545 c 0.675456,-0.06727 1.397274,-0.162727 2.074547,-0.277272 v 1.726364 h -2.108182 l 0.05727,0.19 h 1.723638 c -0.338182,1.38909 -0.958182,2.866363 -1.848182,3.94 l 0.134547,0.125448 c 0.835453,-0.60454 1.509999,-1.303629 2.039089,-2.099994 v 3.586365 h 0.214548 c 0.574545,0 0.947272,-0.220901 0.957272,-0.289105 v -4.04726 c 0.428182,0.386364 0.832728,0.999091 0.912727,1.479092 0.145453,0.123627 0.304547,0.18362 0.45091,0.18362 0.303636,0 0.562727,-0.220901 0.562727,-0.527274 0,-0.415454 -0.473637,-0.96 -1.926364,-1.286364 v -1.06271 h 1.57818 c 0.304547,0 0.45091,-0.04909 0.529091,-0.172728 l -1.091818,-0.738181 -0.588182,0.717273 h -0.427272 v -1.955455 c 0.507272,-0.115453 0.979999,-0.229092 1.363636,-0.344546 0.145453,0.03909 0.271819,0.05909 0.383636,0.05909 0.136365,0 0.247272,-0.03 0.315456,-0.08727 z m 5.191818,1.331818 -0.495455,0.566363 h -1.958181 l -1.253637,-0.461818 v 7.36182 c 1.059091,0 1.194546,-0.382729 1.194546,-0.402727 v -0.7 h 2.129091 v 0.920001 c 0.891818,0 1.205454,-0.258181 1.205454,-0.277285 v -5.981809 c 0.236362,-0.04727 0.417273,-0.123637 0.484546,-0.210908 z m -2.512727,0.758182 h 2.129091 v 5.415455 h -2.129091 z m 12.647274,8.65091 c -1.245455,0 -2.150003,0.290926 -2.712731,0.871821 -0.467272,0.479999 -0.729089,1.213634 -0.80818,2.176364 h -2.139091 v -1.824548 c 0,-0.239077 0.03727,-0.409998 0.11,-0.513635 0.07182,-0.102737 0.188183,-0.159087 0.351818,-0.170013 l 0.331819,-0.01993 c 0.122727,-0.011 0.184544,-0.07181 0.184544,-0.182727 0,-0.08181 -0.0091,-0.133626 -0.02818,-0.15273 -0.02093,-0.01924 -0.07182,-0.02989 -0.154545,-0.02989 -0.02,0 -0.07818,0.0018 -0.172728,0.0089 -0.37,0.01649 -0.726363,0.0244 -1.07,0.0244 -0.359999,0 -0.732727,-0.0082 -1.111818,-0.0244 -0.09091,-0.0072 -0.145456,-0.0089 -0.161818,-0.0089 -0.08,0 -0.130908,0.01168 -0.152727,0.02989 -0.02092,0.01924 -0.03182,0.06999 -0.03182,0.15273 0,0.111808 0.06455,0.172728 0.195453,0.182727 l 0.31091,0.01993 c 0.171817,0.01 0.29182,0.06453 0.363637,0.166371 0.07182,0.102736 0.108182,0.274536 0.108182,0.517274 v 4.892728 c 0,0.239077 -0.03546,0.411818 -0.106365,0.515455 -0.07,0.102736 -0.187272,0.156372 -0.353636,0.168192 l -0.322726,0.01993 c -0.0082,0.0027 -0.01728,0.0055 -0.03,0.0055 -0.11,0.0065 -0.165454,0.06092 -0.165454,0.166371 0,0.08727 0.01271,0.139983 0.03545,0.15998 0.02271,0.02199 0.07364,0.03196 0.149092,0.03196 0.02,0 0.07182,-0.0018 0.154544,-0.0055 0.385455,-0.01821 0.757273,-0.02817 1.117273,-0.02817 0.343636,0 0.700909,0.0082 1.071818,0.0244 0.09091,0.0065 0.146363,0.0089 0.17091,0.0089 0.08,0 0.130908,-0.01 0.152727,-0.03195 0.02092,-0.01993 0.03182,-0.07363 0.03182,-0.159981 0,-0.105451 -0.05091,-0.160014 -0.154544,-0.166371 -0.01364,-0.0027 -0.02092,-0.0055 -0.02817,-0.0055 l -0.32182,-0.01993 c -0.171817,-0.011 -0.291816,-0.06546 -0.363636,-0.166372 -0.07273,-0.100915 -0.11,-0.274536 -0.11,-0.517272 v -2.019658 h 2.125455 c 0.05364,1.062728 0.297272,1.865457 0.756365,2.377273 0.519091,0.57909 1.35909,0.868182 2.513635,0.868182 1.257274,0 2.175456,-0.29182 2.752728,-0.875456 0.576362,-0.584543 0.866364,-1.516362 0.866364,-2.794545 0,-1.294543 -0.263644,-2.229999 -0.79182,-2.807271 -0.527288,-0.579091 -1.381832,-0.864547 -2.562741,-0.864547 z m -0.109987,0.348184 c 0.862725,0 1.483635,0.258181 1.866364,0.775455 0.379998,0.516362 0.569998,1.367271 0.569998,2.546362 0,1.169999 -0.190904,2.014545 -0.573637,2.531818 -0.383636,0.518183 -1.002725,0.776364 -1.862725,0.776364 -0.86,0 -1.482727,-0.258181 -1.866364,-0.776364 -0.380908,-0.517273 -0.570909,-1.367271 -0.570909,-2.548181 0,-1.156365 0.192726,-1.998182 0.580001,-2.520908 0.388179,-0.52273 1.006363,-0.784546 1.857272,-0.784546 z" id="path6" class="ColorScheme-Text"/>
  </g>
</svg>
