<?xml version='1.0' encoding='UTF-8'?>
<svg xmlns:inkscape="http://www.inkscape.org/namespaces/inkscape" xmlns:sodipodi="http://sodipodi.sourceforge.net/DTD/sodipodi-0.dtd" xmlns:xlink="http://www.w3.org/1999/xlink" xmlns="http://www.w3.org/2000/svg" xmlns:svg="http://www.w3.org/2000/svg" xmlns:rdf="http://www.w3.org/1999/02/22-rdf-syntax-ns#" xmlns:cc="http://creativecommons.org/ns#" xmlns:dc="http://purl.org/dc/elements/1.1/" width="64" height="64" version="1.1" id="svg73" sodipodi:docname="application-x-partial-download.svg" inkscape:version="1.4 (e7c3feb100, 2024-10-09)">
  <metadata id="metadata77">
    <rdf:RDF>
      <cc:Work rdf:about="">
        <dc:format>image/svg+xml</dc:format>
        <dc:type rdf:resource="http://purl.org/dc/dcmitype/StillImage"/>
      </cc:Work>
    </rdf:RDF>
  </metadata>
  <sodipodi:namedview pagecolor="#f5f7fa" bordercolor="#666666" borderopacity="1" objecttolerance="10" gridtolerance="10" guidetolerance="10" inkscape:pageopacity="0" inkscape:pageshadow="2" inkscape:window-width="1183" inkscape:window-height="669" id="namedview75" showgrid="false" inkscape:zoom="4.4470387" inkscape:cx="19.451146" inkscape:cy="25.635037" inkscape:window-x="80" inkscape:window-y="161" inkscape:window-maximized="0" inkscape:current-layer="g877" inkscape:document-rotation="0" inkscape:pagecheckerboard="0" inkscape:showpageshadow="2" inkscape:deskcolor="#d1d1d1"/>
  <defs id="defs29">
    <style id="current-color-scheme" type="text/css">.ColorScheme-Text {color:#d8dee9} .ColorScheme-Highlight {color:#3b4252}</style></defs>
  <g id="g877" transform="matrix(1.1,0,0,1.1,-3.1845928,-3.2065454)" style="">
    <path style="opacity:1;baseline-shift:baseline;display:inline;overflow:visible;vector-effect:none;fill:currentColor;enable-background:accumulate;stop-color:#000000;stop-opacity:1" d="m 19.662109,8.8378906 c -3.322035,0 -6.02539,2.6861674 -6.02539,5.9980474 v 34.572265 c 0,3.31188 2.703355,6 6.02539,6 h 24.738282 c 3.322035,0 6.027343,-2.68812 6.027343,-6 V 14.835938 c 0,-3.31188 -2.705308,-5.9980474 -6.027343,-5.9980474 z m 0,1.6347654 h 24.738282 c 2.448644,0 4.390625,1.933707 4.390625,4.363282 v 34.572265 c 0,2.429575 -1.941981,4.363281 -4.390625,4.363281 H 19.662109 c -2.448644,0 -4.390625,-1.933706 -4.390625,-4.363281 V 14.835938 c 0,-2.429575 1.941981,-4.363282 4.390625,-4.363282 z" class="ColorScheme-Text" id="rect246"/>
  <path d="m 30.622358,22.642314 c -1.359818,0 -2.454546,1.094728 -2.454546,2.454546 v 1.636363 h 4.090909 v 0.818182 h -5.727272 c -1.813091,0 -3.272728,1.459637 -3.272728,3.272728 v 1.636363 c 0,1.813091 1.459637,3.272728 3.272728,3.272728 V 34.09686 c 0,-1.506273 1.012909,-2.756455 2.394,-3.140182 0.120272,-0.03354 0.243001,-0.0589 0.367363,-0.08182 0.167729,-0.02619 0.336273,-0.05072 0.511364,-0.05072 h 5.911365 c 0.390272,-0.434455 0.634091,-1.00391 0.634091,-1.636364 v -4.090909 c 0,-1.359819 -1.094728,-2.454546 -2.454547,-2.454546 z m -0.818182,1.636364 c 0.453273,0 0.818182,0.364909 0.818182,0.818182 0,0.453273 -0.364909,0.818182 -0.818182,0.818182 -0.453273,0 -0.818182,-0.364909 -0.818182,-0.818182 0,-0.453273 0.364909,-0.818182 0.818182,-0.818182 m 8.181821,3.272727 v 1.636365 c 0,1.506272 -1.01291,2.756453 -2.394002,3.140181 -0.120273,0.03354 -0.243001,0.05891 -0.367363,0.08182 -0.16773,0.02619 -0.336273,0.05072 -0.511364,0.05072 h -5.911365 c -0.390272,0.434454 -0.634091,1.003909 -0.634091,1.636363 v 4.09091 c 0,1.359818 1.094728,2.454547 2.454546,2.454547 h 3.272727 c 1.359819,0 2.454546,-1.094729 2.454546,-2.454547 V 36.5514 h -4.09091 v -0.818182 h 5.727276 c 1.813091,0 3.272726,-1.459636 3.272726,-3.272728 v -1.63636 c 0,-1.81309 -1.459635,-3.272726 -3.272726,-3.272726 m -3.272729,9.818181 c 0.453273,0 0.818181,0.364908 0.818181,0.818182 0,0.453273 -0.364908,0.818181 -0.818181,0.818181 -0.453274,0 -0.818183,-0.364908 -0.818183,-0.818181 0,-0.453274 0.364909,-0.818182 0.818183,-0.818182" id="path11" style="fill:currentColor;fill-opacity:1;stroke-width:0.818182" class="ColorScheme-Text"/>
  </g>
</svg>
