<?xml version='1.0' encoding='UTF-8'?>
<svg xmlns:inkscape="http://www.inkscape.org/namespaces/inkscape" xmlns:sodipodi="http://sodipodi.sourceforge.net/DTD/sodipodi-0.dtd" xmlns:xlink="http://www.w3.org/1999/xlink" xmlns="http://www.w3.org/2000/svg" xmlns:svg="http://www.w3.org/2000/svg" xmlns:rdf="http://www.w3.org/1999/02/22-rdf-syntax-ns#" xmlns:cc="http://creativecommons.org/ns#" xmlns:dc="http://purl.org/dc/elements/1.1/" width="64" height="64" version="1.1" id="svg73" sodipodi:docname="application-x-partial-download.svg" inkscape:version="1.4 (e7c3feb100, 2024-10-09)">
  <metadata id="metadata77">
    <rdf:RDF>
      <cc:Work rdf:about="">
        <dc:format>image/svg+xml</dc:format>
        <dc:type rdf:resource="http://purl.org/dc/dcmitype/StillImage"/>
      </cc:Work>
    </rdf:RDF>
  </metadata>
  <sodipodi:namedview pagecolor="#f5f7fa" bordercolor="#666666" borderopacity="1" objecttolerance="10" gridtolerance="10" guidetolerance="10" inkscape:pageopacity="0" inkscape:pageshadow="2" inkscape:window-width="1183" inkscape:window-height="669" id="namedview75" showgrid="false" inkscape:zoom="4.4470387" inkscape:cx="19.451146" inkscape:cy="25.635037" inkscape:window-x="80" inkscape:window-y="161" inkscape:window-maximized="0" inkscape:current-layer="g877" inkscape:document-rotation="0" inkscape:pagecheckerboard="0" inkscape:showpageshadow="2" inkscape:deskcolor="#d1d1d1"/>
  <defs id="defs29">
    <style id="current-color-scheme" type="text/css">.ColorScheme-Text {color:#d8dee9} .ColorScheme-Highlight {color:#3b4252}</style></defs>
  <g id="g877" transform="matrix(1.1,0,0,1.1,-3.1845928,-3.2065454)" style="">
    <path style="opacity:1;baseline-shift:baseline;display:inline;overflow:visible;vector-effect:none;fill:currentColor;enable-background:accumulate;stop-color:#000000;stop-opacity:1" d="m 19.662109,8.8378906 c -3.322035,0 -6.02539,2.6861674 -6.02539,5.9980474 v 34.572265 c 0,3.31188 2.703355,6 6.02539,6 h 24.738282 c 3.322035,0 6.027343,-2.68812 6.027343,-6 V 14.835938 c 0,-3.31188 -2.705308,-5.9980474 -6.027343,-5.9980474 z m 0,1.6347654 h 24.738282 c 2.448644,0 4.390625,1.933707 4.390625,4.363282 v 34.572265 c 0,2.429575 -1.941981,4.363281 -4.390625,4.363281 H 19.662109 c -2.448644,0 -4.390625,-1.933706 -4.390625,-4.363281 V 14.835938 c 0,-2.429575 1.941981,-4.363282 4.390625,-4.363282 z" class="ColorScheme-Text" id="rect246"/>
  <g id="g11814" style="fill:currentColor;stroke:none;stroke-width:1.52416;stroke-dasharray:none;stroke-opacity:0.3" transform="matrix(0.53680913,0,0,0.53680907,16.114512,15.365401)" class="ColorScheme-Text">
      <path style="fill:currentColor;fill-opacity:1;stroke:none;stroke-width:1.88168;stroke-linecap:round;stroke-linejoin:round;stroke-dasharray:none;stroke-opacity:0.3" d="m 16.902344,30.023437 a 1.3384,1.3384 0 0 0 -1.337891,1.337891 1.3384,1.3384 0 0 0 1.337891,1.337891 h 6.796875 a 1.3384,1.3384 0 0 0 1.339843,-1.337891 1.3384,1.3384 0 0 0 -1.339843,-1.337891 z" id="path8" transform="matrix(0.81,0,0,0.81,3.6056889,4.5238577)" class="ColorScheme-Text"/>
      <path style="fill:currentColor;fill-opacity:1;stroke:none;stroke-width:1.88168;stroke-dasharray:none;stroke-opacity:0.3" d="m 44.517578,17.908203 c -3.365299,0 -6.06875,1.935804 -8.189453,4.224609 -2.120703,2.288806 -3.885116,5.084129 -5.630859,7.767579 -1.745744,2.68345 -3.472368,5.252373 -5.179688,6.996093 -1.70732,1.743721 -3.184881,2.5625 -4.791016,2.5625 -4.155201,0 -5.522471,-1.78527 -6.501953,-3.855468 -0.979481,-2.070199 -1.017578,-4.242188 -1.017578,-4.242188 H 7.8535156 c 0,0 -0.038335,3.213829 1.53125,6.53125 1.5695854,3.317421 5.3007304,6.919922 11.3417964,6.919922 3.492,0 6.368144,-1.872928 8.617188,-4.169922 2.249044,-2.296994 4.080621,-5.118096 5.839844,-7.822266 1.759223,-2.704169 3.447073,-5.296918 5.070312,-7.048828 1.62324,-1.751909 2.955681,-2.509765 4.263672,-2.509765 3.644636,0 4.813535,1.681175 5.722656,3.777343 0.909122,2.096169 0.947266,4.322266 0.947266,4.322266 h 5.353516 c 0,0 0.03885,-3.161674 -1.388672,-6.453125 -1.427524,-3.291451 -4.932822,-7 -10.634766,-7 z" id="path10" transform="matrix(0.81,0,0,0.81,3.6056889,4.5238577)" class="ColorScheme-Text"/>
      <path style="fill:currentColor;fill-opacity:1;stroke:none;stroke-width:1.88168;stroke-linecap:round;stroke-linejoin:round;stroke-dasharray:none;stroke-opacity:0.3" d="m 44.091797,26.275391 a 1.3384,1.3384 0 0 0 -1.337891,1.33789 v 2.410156 h -2.082031 a 1.3384,1.3384 0 0 0 -1.337891,1.337891 1.3384,1.3384 0 0 0 1.337891,1.337891 h 2.082031 v 2.410156 a 1.3384,1.3384 0 0 0 1.337891,1.337891 1.3384,1.3384 0 0 0 1.339844,-1.337891 v -2.410156 h 2.060546 a 1.3384,1.3384 0 0 0 1.337891,-1.337891 1.3384,1.3384 0 0 0 -1.337891,-1.337891 h -2.060546 v -2.410156 a 1.3384,1.3384 0 0 0 -1.339844,-1.33789 z" id="path12" transform="matrix(0.81,0,0,0.81,3.6056889,4.5238577)" class="ColorScheme-Text"/>
      <path style="fill:currentColor;fill-opacity:1;stroke:none;stroke-width:1.88168;stroke-dasharray:none;stroke-opacity:0.3" d="m 20.726562,17.908203 c -6.041066,0 -9.772211,3.602501 -11.3417964,6.919922 -1.5695851,3.317421 -1.53125,6.533203 -1.53125,6.533203 h 5.3535154 c 0,0 0.0381,-2.171988 1.017578,-4.242187 0.979482,-2.0702 2.346753,-3.857422 6.501953,-3.857422 1.606135,0 3.083696,0.820733 4.791016,2.564453 1.70732,1.74372 3.433944,4.310691 5.179688,6.99414 1.745743,2.68345 3.510156,5.478773 5.630859,7.767579 2.120703,2.288805 4.824154,4.224609 8.189453,4.224609 5.701944,0 9.207242,-3.706596 10.634766,-6.998047 1.427523,-3.291451 1.388672,-6.453125 1.388672,-6.453125 H 51.1875 c 0,0 -0.03814,2.226098 -0.947266,4.322266 -0.909121,2.096168 -2.07802,3.77539 -5.722656,3.77539 -1.307991,0 -2.640432,-0.757856 -4.263672,-2.509765 -1.623239,-1.75191 -3.311089,-4.344659 -5.070312,-7.048828 -1.759223,-2.70417 -3.5908,-5.523319 -5.839844,-7.820313 -2.249044,-2.296994 -5.125188,-4.171875 -8.617188,-4.171875 z" id="path16-5-9" transform="matrix(0.81,0,0,0.81,3.6056889,4.5238577)" class="ColorScheme-Text"/>
    </g>
  </g>
</svg>
