<?xml version='1.0' encoding='UTF-8'?>
<svg xmlns:inkscape="http://www.inkscape.org/namespaces/inkscape" xmlns:sodipodi="http://sodipodi.sourceforge.net/DTD/sodipodi-0.dtd" xmlns:xlink="http://www.w3.org/1999/xlink" xmlns="http://www.w3.org/2000/svg" xmlns:svg="http://www.w3.org/2000/svg" xmlns:rdf="http://www.w3.org/1999/02/22-rdf-syntax-ns#" xmlns:cc="http://creativecommons.org/ns#" xmlns:dc="http://purl.org/dc/elements/1.1/" width="64" height="64" version="1.1" id="svg73" sodipodi:docname="x-office-contact.svg" inkscape:version="1.4 (e7c3feb100, 2024-10-09)">
  <metadata id="metadata77">
    <rdf:RDF>
      <cc:Work rdf:about="">
        <dc:format>image/svg+xml</dc:format>
        <dc:type rdf:resource="http://purl.org/dc/dcmitype/StillImage"/>
      </cc:Work>
    </rdf:RDF>
  </metadata>
  <sodipodi:namedview pagecolor="#f5f7fa" bordercolor="#666666" borderopacity="1" objecttolerance="10" gridtolerance="10" guidetolerance="10" inkscape:pageopacity="0" inkscape:pageshadow="2" inkscape:window-width="1183" inkscape:window-height="669" id="namedview75" showgrid="false" inkscape:zoom="4.4470387" inkscape:cx="19.451146" inkscape:cy="8.3201435" inkscape:window-x="214" inkscape:window-y="126" inkscape:window-maximized="0" inkscape:current-layer="g877" inkscape:document-rotation="0" inkscape:pagecheckerboard="0" inkscape:showpageshadow="2" inkscape:deskcolor="#d1d1d1"/>
  <defs id="defs29">
    <style id="current-color-scheme" type="text/css">.ColorScheme-Text {color:#d8dee9} .ColorScheme-Highlight {color:#3b4252}</style></defs>
  <g id="g877" transform="matrix(1.1,0,0,1.1,-3.1845928,-3.2065454)" style="">
    <path style="opacity:1;baseline-shift:baseline;display:inline;overflow:visible;vector-effect:none;fill:currentColor;enable-background:accumulate;stop-color:#000000;stop-opacity:1" d="m 19.662109,8.8378906 c -3.322035,0 -6.02539,2.6861674 -6.02539,5.9980474 v 34.572265 c 0,3.31188 2.703355,6 6.02539,6 h 24.738282 c 3.322035,0 6.027343,-2.68812 6.027343,-6 V 14.835938 c 0,-3.31188 -2.705308,-5.9980474 -6.027343,-5.9980474 z m 0,1.6347654 h 24.738282 c 2.448644,0 4.390625,1.933707 4.390625,4.363282 v 34.572265 c 0,2.429575 -1.941981,4.363281 -4.390625,4.363281 H 19.662109 c -2.448644,0 -4.390625,-1.933706 -4.390625,-4.363281 V 14.835938 c 0,-2.429575 1.941981,-4.363282 4.390625,-4.363282 z" class="ColorScheme-Text" id="rect246"/>
  <path id="path6" style="fill:currentColor;stroke:none;stroke-width:0.721712;stroke-dasharray:none;stroke-dashoffset:2.2;stroke-opacity:0.3" d="m 32.038534,20.545989 c -0.909474,5.97e-4 -1.594009,0.172656 -2.455506,0.599077 -1.510045,0.747432 -2.571585,1.982948 -3.13634,3.648019 -0.163911,0.48323 -0.173212,0.711465 -0.200168,5.477666 -0.03202,5.664317 -0.03288,5.645691 0.618811,7.001441 0.32349,0.672975 0.484966,0.892223 1.133309,1.536454 0.954427,0.948353 1.831544,1.425776 3.125063,1.698553 0.201748,0.0425 0.776982,0.06432 1.2785,0.04937 0.721176,-0.02165 1.050018,-0.07387 1.574514,-0.250931 1.628022,-0.549509 2.845477,-1.623532 3.57472,-3.154653 0.580186,-1.218157 0.570885,-1.11112 0.570885,-6.589835 0,-5.589036 0.0213,-5.375694 -0.676604,-6.795634 -0.316864,-0.645112 -0.506363,-0.904542 -1.057189,-1.450496 -1.163587,-1.153295 -2.352345,-1.683415 -3.945443,-1.759167 -0.140288,-0.0067 -0.274626,-0.01 -0.404552,-0.0099 z m 8.653471,13.579993 c -0.313776,0 -0.431281,0.239727 -0.490538,1.003628 -0.143522,1.85059 -0.827272,3.478132 -2.058,4.902558 -0.881183,1.019868 -2.523039,2.019312 -3.929936,2.392074 -0.815973,0.216193 -2.405292,0.295874 -3.261793,0.163519 -0.895163,-0.138344 -2.135176,-0.585832 -2.917852,-1.05298 -0.740076,-0.441732 -2.017034,-1.629961 -2.465374,-2.294814 -0.736272,-1.091845 -1.283593,-2.593802 -1.372941,-3.763609 -0.08107,-1.06123 -0.114183,-1.184073 -0.336891,-1.285547 -0.151471,-0.06902 -0.258132,-0.06735 -0.421467,0.0071 l -0.218492,0.100073 0.04792,0.928921 c 0.15292,3.026654 1.981402,5.856108 4.730584,7.318591 0.831388,0.442272 1.433984,0.661619 2.373753,0.865487 0.875762,0.190011 2.551328,0.212655 3.419667,0.04649 1.721955,-0.329443 3.185944,-1.077399 4.489543,-2.294812 1.671924,-1.561393 2.655991,-3.644787 2.837505,-6.006269 0.04656,-0.606223 0.03367,-0.722514 -0.0959,-0.865484 -0.08222,-0.09084 -0.230006,-0.164932 -0.329856,-0.164932 z" class="ColorScheme-Text"/>
  </g>
</svg>
