<svg width="517" height="512" viewBox="0 0 517 512" fill="none" xmlns="http://www.w3.org/2000/svg">
<g filter="url(#filter0_d_19_2)">
<path d="M373.145 357.098C366.818 360.084 360.719 363.08 354.501 365.801C353.247 366.349 351.34 366.308 350.075 365.758C345.369 363.716 340.803 361.349 336.188 359.1C334.504 358.28 332.827 357.451 330.993 356.549C330.838 364.156 332.625 366.821 339.375 368.966C343.462 370.264 347.627 371.314 351.774 372.42C352.364 372.577 353.075 372.551 353.668 372.388C357.534 371.325 361.406 370.274 365.235 369.084C371.249 367.214 373.587 363.677 373.145 357.098ZM328.946 319.708C328.833 319.772 328.723 319.835 328.611 319.899C328.611 328.241 328.397 336.591 328.74 344.921C328.843 347.455 329.75 350.872 331.545 352.253C337.307 356.684 343.572 360.498 349.849 364.201C351.166 364.978 353.762 364.935 355.079 364.136C361.06 360.5 366.827 356.504 372.584 352.511C373.409 351.938 374.159 350.707 374.249 349.717C375.121 340.106 375.845 330.48 376.611 320.859C376.283 320.829 375.954 320.801 375.626 320.773C374.487 327.745 373.347 334.718 372.221 341.612C358.698 339.374 345.513 339.432 332.327 341.661C331.182 334.228 330.063 326.969 328.946 319.708ZM291.418 392.705C265.797 368.969 248.345 340.128 233.793 308.774C228.151 314.947 225.687 322.019 224.955 329.789C224.225 337.555 225.361 345.078 228.464 352.286C211.669 329.677 205.761 291.353 239.348 257.357C234.531 257.551 224.062 262.617 215.993 269.67C209.243 275.569 203.141 282.206 197.012 288.258C201.371 268.136 206.842 247.719 216.087 228.123C213.22 227.793 210.579 227.49 207.434 227.129C216.248 218.283 227.105 212.821 236.571 205.447C220.673 209.039 206.21 215.699 193 225.256C206.575 204.705 223.784 188.149 246.55 177.729C246.479 177.46 246.41 177.188 246.341 176.919C239.744 175.983 233.148 175.047 226.052 174.041C233.277 126.114 244.018 79.0381 259.887 33.0854C259.887 33.7198 259.975 34.371 259.874 34.9885C257.835 47.4161 260.674 58.9436 265.857 70.2016C275.337 90.792 287.413 109.5 304.291 124.854C306.372 126.748 308.636 128.438 310.728 130.32C311.823 131.305 312.815 132.437 313.702 133.616C316.432 137.243 316.191 140.774 314.478 145.042C311.735 151.882 309.978 159.119 307.801 166.187C307.669 166.621 307.515 167.049 307.186 168.037C284.95 143.83 265.59 118.503 258.974 85.4213C258.22 88.2975 257.395 91.1607 256.732 94.0594C256.044 97.0704 255.385 100.1 254.936 103.156C253.162 115.243 251.921 127.341 252.986 139.614C253.953 150.756 256.448 161.443 261.328 171.503C262.326 173.558 261.946 174.658 260.314 175.948C254.938 180.196 249.631 184.533 244.303 188.845C243.465 189.522 242.666 190.247 241.992 191.237C252.969 187.846 264.001 185.17 275.414 184.466C275.633 184.679 275.85 184.893 276.067 185.108C274.316 187.557 272.893 190.355 270.747 192.385C265.984 196.892 260.956 201.136 255.86 205.272C242.589 216.045 231.92 229.047 222.783 243.393C221.325 245.683 219.884 247.987 217.969 251.02C219.09 250.289 219.581 250.042 219.985 249.695C228.382 242.523 237.837 237.371 248.542 234.513C250.688 233.941 252.44 234.073 254.337 235.35C258.841 238.379 263.482 241.205 268.09 244.13C266.675 235.009 265.27 225.946 263.862 216.883C264.092 216.872 264.321 216.861 264.551 216.85C267.072 220.65 269.233 224.765 272.201 228.181C276.368 232.979 281.189 237.204 285.613 241.789C287.185 243.417 288.802 245.206 289.713 247.229C291.65 251.537 293.585 255.768 297.142 259.026C301.882 263.366 307.641 264.679 313.82 264.337C316.052 264.213 317.304 265.263 318.958 266.457C325.577 271.235 325.972 278.316 327.116 285.468C329.139 298.133 331.775 310.703 334.345 323.275C335.262 327.764 336.691 328.709 341.169 328.73C348.591 328.764 356.015 328.764 363.437 328.683C367.902 328.634 369.442 327.648 370.34 323.286C372.969 310.538 375.391 297.748 377.775 284.952C378.39 281.645 378.477 278.241 378.991 274.91C379.152 273.869 379.74 272.773 380.432 271.961C382.382 269.678 384.396 267.432 386.579 265.377C387.36 264.642 388.739 264.049 389.77 264.15C402.581 265.407 410.044 258.998 414.345 248.29C415.625 245.101 417.634 242.786 420.191 240.621C428.191 233.845 435.219 226.219 439.993 216.743C440.27 216.775 440.547 216.807 440.824 216.836C440.347 221.348 440.049 225.89 439.348 230.366C438.625 234.97 437.512 239.512 436.539 244.231C441.056 241.299 445.521 238.55 449.814 235.554C452.093 233.965 454.157 233.783 456.85 234.521C466.331 237.116 474.71 241.783 482.645 247.409C483.244 247.833 483.848 248.253 484.992 249.054C484.576 248.116 484.453 247.716 484.237 247.371C474.128 231.19 462.549 216.264 447.481 204.31C443.951 201.51 440.375 198.756 437.01 195.767C433.513 192.661 430.453 189.154 428.993 184.183C441.125 185.198 452.565 187.716 463.812 191.489C458.368 187.2 452.907 182.933 447.484 178.616C442.437 174.6 442.449 174.574 445.022 168.668C449.266 158.933 451.476 148.695 452.06 138.15C453.057 120.11 450.939 102.396 445.617 84.2685C442.456 101.03 436.281 115.834 427.757 129.718C419.272 143.536 409.198 156.078 397.692 168.116C397.297 166.372 397.095 164.948 396.651 163.602C394.186 156.139 391.61 148.714 389.216 141.229C388.836 140.042 388.846 138.502 389.263 137.334C390.762 133.15 393.91 130.307 397.218 127.412C409.745 116.452 420.449 103.85 428.43 89.2276C433.485 79.9645 437.716 70.2391 442.05 60.5998C445.757 52.3546 445.227 43.5686 444.546 34.8295C444.475 33.9069 444.354 32.9881 444.572 32C460.348 78.1773 471.475 125.481 479.383 173.927C472.339 174.935 465.546 175.908 458.754 176.883C458.636 177.104 458.516 177.327 458.398 177.549C481.163 188.162 498.759 204.534 512.409 225.413C498.78 215.873 483.951 209.05 467.386 204.946C477.804 212.216 487.842 219.221 497.88 226.225C497.732 226.538 497.582 226.852 497.434 227.164C494.627 227.473 491.82 227.78 488.747 228.119C497.741 247.74 503.402 268.231 508.097 289.77C496.798 274.622 483.794 262.791 465.721 256.964C469.961 262.565 474.186 267.593 477.802 273.029C486.732 286.458 491.283 301.234 489.921 317.474C488.847 330.266 484.198 341.805 476.687 352.277C482.231 336.958 482.273 322.362 471.812 309.152C463.104 324.138 454.895 339.159 445.819 353.637C436.72 368.15 425.554 381.105 412.795 392.743C413.033 392.254 413.25 391.757 413.51 391.281C422.354 375.152 426.009 357.85 423.172 339.743C422.277 334.035 423.402 330.042 426.437 325.869C428.359 323.228 430.26 320.575 432.519 317.446C435.597 320.973 438.397 324.182 441.41 327.633C444.666 322.15 447.894 316.712 451.126 311.276C452.516 308.938 454.124 306.702 455.25 304.245C456.298 301.958 457.859 301.389 460.151 301.524C462.653 301.668 465.17 301.556 467.947 301.556C467.025 292.211 464.577 283.612 459.839 275.81C456.388 270.131 454.266 264.112 455.692 257.606C456.761 252.738 459.001 248.124 460.776 243.417C461.132 242.48 461.755 241.643 462.457 240.402C458.845 239.845 455.55 239.244 452.226 238.898C451.504 238.823 450.405 239.472 449.954 240.12C444.397 248.099 440.252 256.664 440.452 266.652C440.506 269.384 441.524 272.116 442.274 274.801C442.465 275.486 443.214 276.306 443.882 276.525C452.239 279.244 456.28 285.762 459.019 293.468C459.113 293.728 459.214 293.988 459.429 294.567C447.572 297.926 436.483 302.967 426.121 309.64C415.527 316.463 407.602 325.622 401.923 336.829C401.691 336.758 401.46 336.685 401.228 336.614C401.898 333.133 402.346 329.591 403.279 326.183C407.645 310.269 415.771 296.754 428.988 286.557C429.63 286.059 430.41 285.433 430.612 284.721C433.812 273.458 433.372 262.378 428.829 251.544C434.173 274.582 426.516 279.671 409.648 287.401C406.547 282.921 403.42 278.404 400.295 273.888C400.139 273.922 399.986 273.956 399.83 273.989C399.995 275.269 400.147 276.551 400.324 277.831C402.396 292.828 400.001 307.127 393.939 320.954C392.742 323.687 392.143 326.86 392.04 329.856C391.782 337.458 392.053 345.076 391.926 352.683C391.86 356.56 389.948 359.942 387.27 362.455C384.008 365.517 380.039 367.811 376.573 370.676C374.575 372.33 372.664 374.26 371.261 376.421C369.7 378.828 367.658 380.036 365.022 380.072C356.672 380.186 348.316 380.166 339.964 380.1C337.507 380.081 335.731 378.925 334.126 376.844C331.863 373.913 329.112 371.322 326.343 368.84C324.258 366.971 321.758 365.575 319.54 363.846C314.926 360.241 312.47 355.584 312.613 349.597C312.772 342.93 312.942 336.253 312.742 329.591C312.658 326.785 312.081 323.816 310.964 321.254C306.203 310.331 303.643 298.998 304.019 287.087C304.158 282.698 304.841 278.327 305.339 273.304C301.852 278.344 298.645 282.981 295.456 287.592C277.677 279.223 271.825 274.281 275.556 251.14C274.493 255.53 273.137 259.874 272.439 264.322C271.456 270.58 271.789 276.884 273.53 283.013C273.938 284.45 274.782 286.056 275.923 286.946C290.207 298.092 298.183 313.003 302.156 330.352C302.55 332.076 302.872 333.818 303.058 335.686C297.11 324.922 289.137 316.147 278.67 309.62C268.438 303.238 257.713 298.038 245.706 294.844C248.199 286.786 251.757 280.004 260.091 276.854C261.231 276.424 262.416 275.292 262.94 274.182C265.352 269.086 265.238 263.603 263.499 258.517C261.488 252.628 258.555 247.047 255.896 241.39C254.766 238.988 252.866 238.095 250.097 238.894C247.69 239.59 245.154 239.841 242.402 240.337C243.626 242.665 244.775 244.678 245.765 246.767C250.598 256.956 250.926 266.77 244.344 276.617C239.432 283.967 237.478 292.536 236.266 301.758C239.617 301.758 242.755 301.846 245.886 301.724C247.623 301.655 248.536 302.323 249.399 303.818C258.967 320.384 268.494 336.973 278.328 353.379C280.762 357.442 281.247 361.748 282.143 366.134C283.077 370.706 284.325 375.248 285.866 379.653C287.366 383.944 289.408 388.046 291.418 392.705Z" fill="white"/>
<path d="M337.735 480C326.592 469.586 315.579 459.295 304.364 448.814C307.212 446.314 309.931 443.926 312.86 441.355C320.847 448.741 328.744 456.047 336.878 463.571C348.58 452.149 360.223 440.784 372.202 429.09C369.853 437.126 367.655 444.75 365.37 452.345C365.115 453.191 364.488 454.007 363.841 454.64C355.246 463.031 346.615 471.384 337.735 480Z" fill="white"/>
<path d="M409.724 356.4C406.926 376.258 396.621 391.733 383.196 405.261C370.171 418.384 356.583 430.948 343.207 443.722C342.578 444.321 341.613 444.882 340.787 444.905C336.51 445.023 332.226 444.959 327.231 444.959C331.994 440.745 336.321 437.077 340.467 433.217C356.954 417.868 373.592 402.672 389.749 386.981C398.328 378.65 405.261 368.921 409.026 357.3C409.107 357.049 409.363 356.854 409.724 356.4Z" fill="white"/>
<path d="M379.06 261.038C378.81 251.197 380.662 243.047 388.293 236.845C392.712 233.254 396.924 229.235 400.478 224.805C403.994 220.426 406.567 215.287 409.333 210.837C409.994 216.528 408.835 222.715 406.651 229.218C420.084 222.861 432.077 215.098 441.363 203.552C441.602 203.78 441.842 204.009 442.082 204.237C438.509 208.972 435.231 213.968 431.306 218.394C421.326 229.656 410.166 239.373 395.335 243.882C389.132 245.768 385.08 250.199 382.034 255.701C381.151 257.293 380.26 258.882 379.06 261.038Z" fill="white"/>
<path d="M265.309 206.602C274.547 216.702 285.811 223.798 298.663 229.869C295.991 222.939 294.853 216.247 295.724 209.233C298.188 219.879 305.522 227.039 313.193 233.961C314.377 235.03 315.513 236.16 316.771 237.137C324.138 242.865 325.731 250.777 325.339 260.31C324.467 258.759 323.902 257.866 323.446 256.921C320.053 249.901 314.776 245.534 307.21 242.914C289.123 236.649 275.914 224.189 265.935 208.099C265.739 207.783 265.574 207.444 265.421 207.106C265.352 206.952 265.344 206.771 265.309 206.602Z" fill="white"/>
<path d="M295.37 357.975C304.019 379.228 320.734 393.497 337.56 407.663C340.775 410.371 344.074 412.975 347.56 415.812C345.125 417.981 342.852 420.008 340.093 422.465C331.622 413.926 323.025 405.707 314.954 397.002C306.913 388.324 300.986 378.24 297.571 366.819C296.703 363.911 296.096 360.924 295.37 357.975Z" fill="white"/>
<path d="M368.633 285.206C368.633 268.607 368.611 252.008 368.693 235.409C368.699 234.438 369.38 233.311 370.055 232.524C377.932 223.36 386.098 214.424 392.038 203.78C392.803 202.41 393.526 201.018 394.432 199.698C393.902 205.866 391.847 211.578 389.128 217.046C387.631 220.055 386.119 223.165 384.008 225.734C379.156 231.64 376.603 238.36 375.486 245.812C373.697 257.742 371.764 269.647 369.883 281.562C369.696 282.752 369.453 283.933 369.236 285.12C369.036 285.148 368.833 285.178 368.633 285.206Z" fill="white"/>
<path d="M310.444 199.974C316.578 212.301 325.755 222.221 334.614 232.386C335.346 233.226 336.061 234.456 336.063 235.506C336.109 251.376 336.035 267.247 335.982 283.12C335.98 283.352 335.9 283.586 335.52 283.848C334.584 277.287 333.838 270.694 332.672 264.175C330.958 254.597 328.991 245.061 327.005 235.534C326.734 234.231 325.856 232.987 325.04 231.877C318.781 223.37 313.215 214.524 311.054 203.972C310.784 202.652 310.644 201.307 310.444 199.974Z" fill="white"/>
<path d="M418.956 176.99C417.734 173.058 416.558 169.636 415.671 166.138C415.473 165.36 416.055 164.106 416.676 163.447C419.111 160.861 421.598 158.303 424.261 155.956C430.678 150.299 435.253 143.504 437.62 135.257C437.697 134.993 437.819 134.733 437.963 134.501C438.053 134.359 438.229 134.271 438.461 134.08C437.665 150.909 429.721 164.33 418.956 176.99Z" fill="white"/>
<path d="M266.985 135.86C270.425 145.608 276.544 153.247 284.563 159.487C285.005 159.83 285.362 160.283 285.789 160.646C288.463 162.927 289.505 165.549 288.094 169.05C287.194 171.284 286.767 173.712 285.98 176.605C275.532 164.669 268.426 151.592 266.985 135.86Z" fill="white"/>
<path d="M353.198 137.632C353.198 169.748 353.198 201.862 353.198 233.978C352.961 233.978 352.723 233.978 352.485 233.978C350.816 201.862 350.521 169.746 352.323 137.632C352.615 137.632 352.907 137.632 353.198 137.632Z" fill="white"/>
<path d="M386.63 257.08C388.017 255.345 389.379 253.637 390.741 251.93C395.756 255.512 399.11 254.234 400.68 248.236C400.865 247.527 401.312 246.644 401.902 246.322C404.475 244.918 407.144 243.693 409.724 242.428C407.046 254.676 400.891 258.617 386.63 257.08Z" fill="white"/>
<path d="M318.377 257.542C315.049 257.335 311.602 257.046 308.148 256.923C303.367 256.753 300.428 253.897 298.233 250.115C297.083 248.131 296.36 245.899 295.194 243.202C298.374 244.49 300.949 245.532 303.72 246.653C303.829 249.522 304.371 252.538 307.658 253.803C310.193 254.78 312.42 253.824 314.099 251.803C315.575 253.783 316.982 255.671 318.377 257.542Z" fill="white"/>
<path d="M345.58 358.214C345.747 352.222 341.151 351.565 337.131 350.285C346.671 349.374 347.919 352.686 345.58 358.214Z" fill="white"/>
<path d="M367.937 350.402C363.959 351.768 359.426 352.215 359.565 358.342C359.215 358.172 358.865 358.003 358.513 357.833C358.691 355.866 358.146 353.271 359.196 352.062C361.397 349.524 364.825 350.013 367.937 350.402Z" fill="white"/>
</g>
<defs>
<filter id="filter0_d_19_2" x="189" y="32" width="327.409" height="456" filterUnits="userSpaceOnUse" color-interpolation-filters="sRGB">
<feFlood flood-opacity="0" result="BackgroundImageFix"/>
<feColorMatrix in="SourceAlpha" type="matrix" values="0 0 0 0 0 0 0 0 0 0 0 0 0 0 0 0 0 0 127 0" result="hardAlpha"/>
<feOffset dy="4"/>
<feGaussianBlur stdDeviation="2"/>
<feComposite in2="hardAlpha" operator="out"/>
<feColorMatrix type="matrix" values="0 0 0 0 0 0 0 0 0 0 0 0 0 0 0 0 0 0 0.25 0"/>
<feBlend mode="normal" in2="BackgroundImageFix" result="effect1_dropShadow_19_2"/>
<feBlend mode="normal" in="SourceGraphic" in2="effect1_dropShadow_19_2" result="shape"/>
</filter>
</defs>
</svg>
