<svg id="Capa_1" enable-background="new 0 0 512 512" height="512" viewBox="0 0 512 512" width="512" xmlns="http://www.w3.org/2000/svg"><path d="m455.015 512c8.251 0 14.997-6.695 14.997-15v-65.333h26.988c8.284 0 15-6.716 15-15v-289.2c0-8.284-6.716-15-15-15h-257.066c-8.284 0-15 6.716-15 15v289.2c0 8.284 6.716 15 15 15h128.533l75.939 75.939c2.869 2.871 6.706 4.394 10.609 4.394z" fill="#00b6ff"/><path d="m455.015 512c8.251 0 14.997-6.695 14.997-15v-65.333h26.988c8.284 0 15-6.716 15-15v-289.2c0-8.284-6.716-15-15-15h-128.533v319.2l75.939 75.939c2.869 2.871 6.706 4.394 10.609 4.394z" fill="#4893ff"/><path d="m431.22 332.695-28.238-112.957c-3.966-15.861-18.155-26.938-34.522-26.938-16.353 0-30.543 11.078-34.508 26.939l-28.237 112.956c-2.009 8.037 2.878 16.181 10.915 18.19s16.181-2.878 18.19-10.914l5.192-20.771h56.912l5.192 20.771c2.009 8.037 10.153 12.923 18.19 10.914s12.923-10.153 10.914-18.19zm-83.709-43.495 15.546-62.186c.62-2.481 2.842-4.215 5.418-4.215 2.561 0 4.782 1.733 5.402 4.215l15.546 62.186z" fill="#f5faff"/><path d="m56.985 399.533c-8.251 0-14.997-6.695-14.997-15v-65.333h-26.988c-8.284 0-15-6.716-15-15v-289.2c0-8.284 6.716-15 15-15h257.066c8.284 0 15 6.716 15 15v289.2c0 8.284-6.716 15-15 15h-128.533l-75.939 75.94c-2.869 2.87-6.706 4.393-10.609 4.393z" fill="#ffcb00"/><path d="m272.066 0h-128.533v319.2h128.533c8.284 0 15-6.716 15-15v-289.2c0-8.284-6.715-15-15-15z" fill="#ff9d22"/><path d="m212.06 225.551c-17.098-5.064-32.95-13.35-46.766-24.254 18.476-21.182 31.894-46.749 38.678-74.896h3.828c8.284 0 15-6.716 15-15s-6.716-15-15-15h-49.267v-17.134c0-8.284-6.716-15-15-15s-15 6.716-15 15v17.133h-49.266c-8.284 0-15 6.716-15 15s6.716 15 15 15h93.647c-5.886 20.03-16.161 38.276-29.38 53.804-3.113-3.795-5.732-7.719-8.444-11.852l-11.15-16.984c-4.547-6.925-13.847-8.854-20.771-4.307-6.926 4.547-8.854 13.847-4.307 20.771l11.147 16.98c3.718 5.666 7.766 11.073 12.1 16.213-20.912 16.242-40.137 22.199-47.564 24.67-7.863 2.607-12.123 11.096-9.516 18.959 2.088 6.297 7.945 10.282 14.235 10.282 4.586 0 35.634-9.388 64.269-32.651 28.617 23.717 59.609 32.651 64.272 32.651 6.473 0 12.445-4.223 14.377-10.744 2.353-7.942-2.179-16.289-10.122-18.641z" fill="#f5faff"/><g fill="#dfe9ee"><path d="m212.06 225.551c-17.098-5.064-32.95-13.35-46.766-24.254 18.476-21.182 31.894-46.749 38.678-74.896h3.828c8.284 0 15-6.716 15-15s-6.716-15-15-15h-49.267v-17.134c0-8.284-6.716-15-15-15v62.134h29.38c-5.886 20.03-16.161 38.276-29.38 53.804v42.083c28.617 23.717 59.609 32.651 64.272 32.651 6.473 0 12.445-4.223 14.377-10.744 2.353-7.945-2.179-16.292-10.122-18.644z"/><path d="m402.115 339.971c2.009 8.037 10.153 12.923 18.19 10.914s12.924-10.153 10.915-18.19l-28.238-112.957c-3.965-15.859-18.151-26.935-34.515-26.938v30c.003 0 .005-.001.008-.001 2.561 0 4.782 1.733 5.402 4.215l15.546 62.186h-20.956v30h28.456z"/></g></svg>