<?xml version="1.0" encoding="UTF-8" standalone="no"?>
<svg
   viewBox="0 0 64 64"
   version="1.1"
   id="svg1"
   sodipodi:docname="edit-find.svg"
   width="64"
   height="64"
   inkscape:version="1.4.3 (0d15f75042, 2025-12-25)"
   xmlns:inkscape="http://www.inkscape.org/namespaces/inkscape"
   xmlns:sodipodi="http://sodipodi.sourceforge.net/DTD/sodipodi-0.dtd"
   xmlns="http://www.w3.org/2000/svg"
   xmlns:svg="http://www.w3.org/2000/svg">
  <sodipodi:namedview
     id="namedview1"
     pagecolor="#9c4444"
     bordercolor="#eeeeee"
     borderopacity="1"
     inkscape:showpageshadow="0"
     inkscape:pageopacity="0"
     inkscape:pagecheckerboard="0"
     inkscape:deskcolor="#505050"
     inkscape:zoom="13.12567"
     inkscape:cx="24.036868"
     inkscape:cy="32.988792"
     inkscape:window-width="2560"
     inkscape:window-height="1388"
     inkscape:window-x="0"
     inkscape:window-y="0"
     inkscape:window-maximized="1"
     inkscape:current-layer="svg1" />
  <defs
     id="defs3051">
    <style
       type="text/css"
       id="current-color-scheme">.ColorScheme-Text { color: #d8dee9; } </style>
  </defs>
  <path
     class="ColorScheme-Text"
     d="M 28.142858,14 A 14.142858,14.142858 0 0 0 14,28.142858 14.142858,14.142858 0 0 0 28.142858,42.285714 14.142858,14.142858 0 0 0 36.158514,39.794 l 9.41606,9.416572 A 2.5714286,2.5714286 0 0 0 47.428574,50 2.5714286,2.5714286 0 0 0 50,47.428572 2.5714286,2.5714286 0 0 0 49.220861,45.584858 l -9.437147,-9.436372 a 14.142858,14.142858 0 0 0 2.502,-8.005628 A 14.142858,14.142858 0 0 0 28.142858,14 Z m 0,5.142858 a 9,9 0 0 1 9,9 9,9 0 0 1 -9,9 9,9 0 0 1 -9,-9 9,9 0 0 1 9,-9 z"
     style="fill:currentColor;stroke-width:2.57142"
     id="path5" />
</svg>
