<?xml version="1.0" encoding="UTF-8" standalone="no"?>
<svg
   width="64"
   height="64"
   version="1.1"
   viewBox="0 0 16.933 16.933"
   id="svg7"
   sodipodi:docname="preferences-system-windows-actions.svg"
   inkscape:version="1.4.2 (ebf0e940d0, 2025-05-08)"
   xmlns:inkscape="http://www.inkscape.org/namespaces/inkscape"
   xmlns:sodipodi="http://sodipodi.sourceforge.net/DTD/sodipodi-0.dtd"
   xmlns="http://www.w3.org/2000/svg"
   xmlns:svg="http://www.w3.org/2000/svg"
   xmlns:rdf="http://www.w3.org/1999/02/22-rdf-syntax-ns#"
   xmlns:cc="http://creativecommons.org/ns#"
   xmlns:dc="http://purl.org/dc/elements/1.1/">
  <sodipodi:namedview
     id="namedview7"
     pagecolor="#9c4444"
     bordercolor="#000000"
     borderopacity="0.25"
     inkscape:showpageshadow="2"
     inkscape:pageopacity="0.0"
     inkscape:pagecheckerboard="0"
     inkscape:deskcolor="#d1d1d1"
     inkscape:zoom="4.353126"
     inkscape:cx="-64.206733"
     inkscape:cy="18.147878"
     inkscape:window-width="2560"
     inkscape:window-height="1388"
     inkscape:window-x="0"
     inkscape:window-y="0"
     inkscape:window-maximized="1"
     inkscape:current-layer="svg7"
     showgrid="false" />
  <defs
     id="defs2">
    <style
       id="current-color-scheme"
       type="text/css">.ColorScheme-Text {color:#d8dee9} .ColorScheme-Highlight {color:#3b4252}</style>
  </defs>
  <metadata
     id="metadata2">
    <rdf:RDF>
      <cc:Work
         rdf:about="">
        <dc:format>image/svg+xml</dc:format>
        <dc:type
           rdf:resource="http://purl.org/dc/dcmitype/StillImage" />
      </cc:Work>
    </rdf:RDF>
  </metadata>
  <path
     id="path5"
     style="opacity:1;fill:currentColor;fill-opacity:1;stroke-width:0.0629793;stroke-linejoin:bevel;paint-order:fill markers stroke"
     d="M 4.8414696 4.1221479 C 3.9183248 4.1221479 3.1749375 4.8655351 3.1749375 5.78868 L 3.1749375 11.14432 C 3.1749375 12.067465 3.9183248 12.810852 4.8414696 12.810852 L 12.09153 12.810852 C 13.014675 12.810852 13.758062 12.067465 13.758062 11.14432 L 13.758062 5.78868 C 13.758062 4.8655351 13.014675 4.1221479 12.09153 4.1221479 L 4.8414696 4.1221479 z M 10.445152 7.1332743 L 10.445152 7.133791 L 10.59036 7.5105048 C 10.736517 7.5071648 10.88126 7.5178571 11.021333 7.5435771 L 11.2239 7.1942513 L 11.224417 7.1942513 L 11.224417 7.1932178 C 11.311435 7.2139878 11.396107 7.2397406 11.479177 7.2691806 C 11.56218 7.2985736 11.643111 7.3321577 11.722051 7.3699477 L 11.722568 7.3699477 L 11.668309 7.71824 L 11.659524 7.7724992 C 11.742479 7.8180203 11.822164 7.8689357 11.898264 7.9249417 C 11.937751 7.9539027 11.97601 7.9840894 12.0135 8.0158904 L 12.36696 7.8138395 L 12.367477 7.8143563 C 12.495031 7.9352304 12.610115 8.0686909 12.710085 8.2138072 L 12.454809 8.5300608 C 12.491843 8.5908633 12.525609 8.6546725 12.556609 8.7197095 C 12.587609 8.7847469 12.61636 8.8513871 12.64084 8.9202101 L 12.843924 8.9212437 L 13.048042 8.9222772 L 13.048042 8.9227939 C 13.066702 8.9858888 13.083177 9.0495337 13.096617 9.1145097 C 13.118767 9.220229 13.133592 9.3285404 13.142092 9.4390313 L 13.141575 9.4390313 L 12.763828 9.5837225 C 12.765838 9.6709928 12.761359 9.7573193 12.752459 9.8426163 C 12.746609 9.9003618 12.738601 9.9577057 12.728171 10.014179 L 12.728171 10.014695 L 13.081115 10.217263 L 13.081115 10.21778 L 13.081631 10.218297 C 13.040189 10.390935 12.981115 10.557137 12.905935 10.713864 L 12.500283 10.65082 C 12.43095 10.776681 12.349038 10.897408 12.255858 11.006863 L 12.459459 11.35929 C 12.399563 11.422205 12.336417 11.481617 12.270327 11.538087 C 12.202454 11.595769 12.131591 11.650374 12.057941 11.700864 L 11.741688 11.445588 C 11.665449 11.491848 11.585311 11.533159 11.502431 11.569609 C 11.452712 11.591679 11.401301 11.611709 11.349471 11.630069 L 11.349471 11.631102 L 11.348438 12.038305 L 11.347921 12.038305 L 11.347921 12.038821 C 11.243238 12.069601 11.136343 12.092867 11.0265 12.109617 C 10.962296 12.119527 10.897254 12.127354 10.831684 12.132354 L 10.683375 11.75254 C 10.618741 11.75404 10.55496 11.752489 10.49166 11.747889 C 10.411339 11.742319 10.331866 11.732347 10.253436 11.717917 L 10.047251 12.07086 C 9.9829865 12.05535 9.9195154 12.037221 9.8570854 12.016601 C 9.7519024 11.982247 9.6499937 11.94127 9.5516837 11.89413 L 9.6152445 11.490545 C 9.5561855 11.458138 9.4982086 11.422461 9.4426486 11.384611 C 9.3793896 11.341691 9.3186144 11.295621 9.2602344 11.246121 L 9.0835045 11.346888 L 8.9062578 11.448171 C 8.7785428 11.326775 8.6641065 11.192366 8.5641665 11.046653 L 8.8209933 10.732467 C 8.7468493 10.610728 8.6839519 10.479612 8.6349619 10.341801 L 8.2277596 10.340251 C 8.2144796 10.295177 8.20175 10.249411 8.19107 10.203311 C 8.16225 10.07967 8.1429936 9.9526043 8.1331936 9.8229796 L 8.5119744 9.6782885 C 8.5100544 9.595925 8.5132592 9.5144848 8.5207592 9.4338638 C 8.5263592 9.3712226 8.5347801 9.3089983 8.5460801 9.2478323 L 8.1962376 9.0426809 L 8.1952041 9.0426809 C 8.2368661 8.8705132 8.296704 8.7044377 8.371934 8.5481472 L 8.3724507 8.5481472 L 8.773452 8.6101577 C 8.806853 8.5495085 8.8435038 8.4903737 8.8830038 8.4334277 C 8.9254548 8.3720232 8.9711069 8.3129531 9.0194269 8.2561811 L 8.8168593 7.905305 L 8.8173761 7.9047882 C 8.9385101 7.7777101 9.0740708 7.662267 9.2194108 7.562697 L 9.5330806 7.8174568 C 9.6550746 7.7434331 9.7877027 7.6813588 9.9258137 7.6324588 L 9.9268472 7.2268068 L 9.927364 7.2268068 C 10.000654 7.2052668 10.075505 7.1870576 10.151635 7.1725476 C 10.247663 7.1540476 10.345642 7.1408743 10.445152 7.1332743 z M 10.682342 8.1037386 A 1.5256272 1.5227854 0 0 0 9.1563668 9.6260963 A 1.5256272 1.5227854 0 0 0 10.682342 11.148971 A 1.5256272 1.5227854 0 0 0 12.2078 9.6260963 A 1.5256272 1.5227854 0 0 0 10.682342 8.1037386 z M 10.185741 8.7786195 C 10.217341 8.7800815 10.248356 8.789574 10.275656 8.807041 C 10.577428 9.0003035 11.054114 9.3058602 11.332419 9.4839889 C 11.381859 9.5156704 11.411999 9.5689303 11.411999 9.6260963 C 11.411999 9.6832621 11.381859 9.7370395 11.332419 9.7687205 C 11.054115 9.9468777 10.577428 10.251891 10.275656 10.445152 C 10.22106 10.480112 10.150625 10.48316 10.092725 10.45342 C 10.034905 10.423676 9.9991928 10.366094 9.9991928 10.303044 L 9.9991928 8.9496651 C 9.9991928 8.8866126 10.034905 8.8285169 10.092725 8.7987729 C 10.121675 8.7839029 10.154141 8.7771595 10.185741 8.7786195 z "
     class="ColorScheme-Text" />
</svg>
