<?xml version="1.0" encoding="UTF-8" standalone="no"?>
<svg
   id="svg3297"
   height="64"
   width="64"
   version="1.0"
   sodipodi:docname="system-run.svg"
   inkscape:version="1.4.2 (ebf0e940d0, 2025-05-08)"
   xmlns:inkscape="http://www.inkscape.org/namespaces/inkscape"
   xmlns:sodipodi="http://sodipodi.sourceforge.net/DTD/sodipodi-0.dtd"
   xmlns="http://www.w3.org/2000/svg"
   xmlns:svg="http://www.w3.org/2000/svg"
   xmlns:rdf="http://www.w3.org/1999/02/22-rdf-syntax-ns#"
   xmlns:cc="http://creativecommons.org/ns#"
   xmlns:dc="http://purl.org/dc/elements/1.1/">
  <sodipodi:namedview
     id="namedview1"
     pagecolor="#9c4444"
     bordercolor="#000000"
     borderopacity="0.25"
     inkscape:showpageshadow="2"
     inkscape:pageopacity="0.0"
     inkscape:pagecheckerboard="0"
     inkscape:deskcolor="#d1d1d1"
     inkscape:zoom="13.09375"
     inkscape:cx="35.398568"
     inkscape:cy="31.00716"
     inkscape:window-width="2560"
     inkscape:window-height="1388"
     inkscape:window-x="0"
     inkscape:window-y="0"
     inkscape:window-maximized="1"
     inkscape:current-layer="svg3297" />
  <metadata
     id="metadata58">
    <rdf:RDF>
      <cc:Work
         rdf:about="">
        <dc:format>image/svg+xml</dc:format>
        <dc:type
           rdf:resource="http://purl.org/dc/dcmitype/StillImage" />
      </cc:Work>
    </rdf:RDF>
  </metadata>
  <defs
     id="defs3299">
    <style
       id="current-color-scheme"
       type="text/css">.ColorScheme-Text {color:#d8dee9} .ColorScheme-Highlight {color:#3b4252}</style>
  </defs>
  <path
     id="path5"
     style="fill:currentColor;fill-opacity:1;fill-rule:nonzero;stroke:none;stroke-width:0.245014;stroke-linecap:round;stroke-linejoin:round;stroke-miterlimit:4;stroke-dasharray:none;stroke-dashoffset:4;stroke-opacity:0.990826"
     d="m 30.458786,12 c -0.79617,0.06055 -1.580963,0.165506 -2.349304,0.313535 -0.609111,0.116086 -1.206477,0.260407 -1.79289,0.432767 h -0.0045 l -0.0088,3.245749 c -1.105062,0.391255 -2.163732,0.891487 -3.139835,1.483771 l -2.512573,-2.040186 c -1.162901,0.796681 -2.245614,1.721126 -3.214837,2.737912 l -0.0045,0.0044 1.620664,2.808567 c -0.386601,0.454248 -0.751049,0.926217 -1.090746,1.417531 -0.316018,0.455638 -0.611542,0.927844 -0.878782,1.413115 L 13.87665,23.322586 h -0.0045 c -0.601915,1.250523 -1.079765,2.579161 -1.413116,3.956722 h 0.0045 l 2.799735,1.63833 c -0.09044,0.489407 -0.158292,0.986978 -0.203127,1.488188 -0.06003,0.645071 -0.08581,1.297268 -0.07066,1.956281 l -3.02926,1.156989 c 0.07852,1.037163 0.233098,2.057745 0.463679,3.04703 0.08544,0.36889 0.185197,0.734507 0.291454,1.095164 l 3.258996,0.01324 c 0.391951,1.102662 0.894934,2.148041 1.488186,3.122105 l -2.053432,2.517111 c 0.799645,1.165887 1.716033,2.239094 2.737912,3.210421 l 1.417531,-0.808125 1.413116,-0.808123 c 0.467085,0.396063 0.955536,0.76497 1.461689,1.108411 0.444526,0.302877 0.905235,0.58855 1.377787,0.847871 l -0.507836,3.228085 c 0.786616,0.377213 1.604855,0.705479 2.446455,0.980349 0.499523,0.164962 1.004901,0.308703 1.519098,0.432766 l 1.651579,-2.821817 c 0.627528,0.115468 1.260619,0.193856 1.90329,0.238462 0.506464,0.03674 1.019607,0.05161 1.536762,0.03975 L 33.549976,52 c 0.524639,-0.04009 1.045124,-0.101767 1.558843,-0.18106 0.878881,-0.134053 1.736924,-0.32342 2.574523,-0.569666 v -0.0045 h 0.0045 l 0.0088,-3.254581 v -0.0088 c 0.414695,-0.146896 0.825419,-0.309158 1.223231,-0.485758 0.663147,-0.291613 1.302113,-0.62346 1.91212,-0.993597 l 2.530393,2.044581 c 0.589283,-0.403959 1.157087,-0.841184 1.700151,-1.302713 0.528838,-0.451843 1.035434,-0.927381 1.514687,-1.430781 l -1.629502,-2.817399 c 0.745517,-0.875779 1.401532,-1.84568 1.956279,-2.852727 l 3.245751,0.507839 c 0.601509,-1.254012 1.072687,-2.584226 1.404279,-3.965555 l -0.0045,-0.0044 v -0.0044 l -2.821827,-1.620567 v -0.0044 c 0.0834,-0.451858 0.14748,-0.911333 0.19431,-1.373371 0.07147,-0.682483 0.104362,-1.372824 0.08831,-2.071097 l 3.024951,-1.156988 h 0.0045 c -0.06779,-0.884068 -0.189308,-1.750693 -0.366576,-2.596582 -0.107487,-0.519888 -0.239321,-1.031923 -0.388604,-1.536763 v -0.0044 l -1.633917,-0.0044 -1.625079,-0.0088 C 47.829719,25.748446 47.602414,25.212072 47.354368,24.69169 47.106323,24.171309 46.833712,23.663505 46.53741,23.177008 l 2.044604,-2.530361 c -0.799902,-1.161115 -1.721751,-2.230183 -2.742347,-3.19733 l -0.0045,-0.0045 -2.826226,1.616252 c -0.299932,-0.254448 -0.606891,-0.496882 -0.922838,-0.728601 -0.608868,-0.448122 -1.24837,-0.854586 -1.912121,-1.218812 l 0.07064,-0.432768 0.437185,-2.786486 h -0.0045 c -0.631603,-0.302363 -1.278954,-0.57285 -1.94309,-0.80807 -0.664671,-0.235536 -1.343929,-0.438822 -2.040186,-0.60499 v 0.0044 h -0.0045 l -1.620615,2.79532 C 33.94815,15.07524 32.789632,14.989396 31.62019,15.016118 l -1.161404,-3.011702 z m 1.898874,7.763302 A 12.206962,12.184224 0 0 1 44.563448,31.947005 12.206962,12.184224 0 0 1 32.35766,44.130709 12.206962,12.184224 0 0 1 20.147462,31.947005 12.206962,12.184224 0 0 1 32.35766,19.763302 Z m -3.974386,5.40075 c -0.25286,-0.01171 -0.510241,0.04444 -0.741883,0.163389 -0.462643,0.237991 -0.750717,0.701068 -0.750717,1.205564 V 37.361 c 0,0.504498 0.28804,0.967571 0.750717,1.205565 0.463285,0.237999 1.02485,0.213355 1.46169,-0.06623 2.414558,-1.54634 6.229826,-3.988513 8.456613,-5.413998 0.395557,-0.253492 0.635905,-0.681927 0.635905,-1.139324 0,-0.457404 -0.24034,-0.885833 -0.635905,-1.139325 -2.226791,-1.425417 -6.042058,-3.867663 -8.456615,-5.414009 -0.218413,-0.13976 -0.466943,-0.217927 -0.719805,-0.22963 z"
     class="ColorScheme-Text" />
</svg>
