<?xml version="1.0" encoding="UTF-8" standalone="no"?>
<svg
   width="64"
   height="64"
   version="1.1"
   viewBox="0 0 16.933 16.933"
   id="svg7"
   sodipodi:docname="cachy-update_updates-available-blue.svg"
   inkscape:version="1.4.3 (0d15f75042, 2025-12-25)"
   xmlns:inkscape="http://www.inkscape.org/namespaces/inkscape"
   xmlns:sodipodi="http://sodipodi.sourceforge.net/DTD/sodipodi-0.dtd"
   xmlns="http://www.w3.org/2000/svg"
   xmlns:svg="http://www.w3.org/2000/svg"
   xmlns:rdf="http://www.w3.org/1999/02/22-rdf-syntax-ns#"
   xmlns:cc="http://creativecommons.org/ns#"
   xmlns:dc="http://purl.org/dc/elements/1.1/">
  <sodipodi:namedview
     id="namedview7"
     pagecolor="#9c4444"
     bordercolor="#000000"
     borderopacity="0.25"
     inkscape:showpageshadow="2"
     inkscape:pageopacity="0.0"
     inkscape:pagecheckerboard="0"
     inkscape:deskcolor="#d1d1d1"
     inkscape:zoom="17.412505"
     inkscape:cx="51.600847"
     inkscape:cy="33.539115"
     inkscape:window-width="2560"
     inkscape:window-height="1388"
     inkscape:window-x="0"
     inkscape:window-y="0"
     inkscape:window-maximized="1"
     inkscape:current-layer="svg7"
     showgrid="false" />
  <defs
     id="defs2">
    <inkscape:path-effect
       effect="offset"
       id="path-effect1"
       is_visible="true"
       lpeversion="1.3"
       linejoin_type="miter"
       unit="px"
       offset="1"
       miter_limit="4"
       attempt_force_join="false"
       update_on_knot_move="true" />
    <style
       id="current-color-scheme"
       type="text/css">.ColorScheme-Text {color:#d8dee9} .ColorScheme-Highlight {color:#3b4252}</style>
  </defs>
  <metadata
     id="metadata2">
    <rdf:RDF>
      <cc:Work
         rdf:about="">
        <dc:format>image/svg+xml</dc:format>
        <dc:type
           rdf:resource="http://purl.org/dc/dcmitype/StillImage" />
      </cc:Work>
    </rdf:RDF>
  </metadata>
  <path
     id="path5"
     style="fill:currentColor;stroke-width:0.96173"
     class="ColorScheme-Text"
     d="M 5.6110629,3.1749402 2.6235318,8.3387856 5.7557191,13.753115 H 10.509578 C 10.374125,13.69971 10.242065,13.63564 10.113296,13.560494 9.6660594,13.299496 9.3098108,12.944964 9.0485509,12.49727 8.9101582,12.260123 8.8088756,12.01163 8.7440116,11.751911 V 11.75153 L 7.3062051,10.943359 h 1.3521548 c 8.839e-4,-0.03287 0.00228,-0.06566 0.00418,-0.09821 H 7.2472006 L 5.8425129,8.4149205 7.2281669,6.017815 H 10.6234 L 12.265247,3.178747 H 5.9186477 l 0.00571,0.00114 -0.052914,-0.00495 z m 0.070425,0.079561 0.077657,0.00838 3.0499623,1.7069382 3.0724208,-1.6917161 h 0.207848 L 7.2890748,5.9196012 H 7.1718272 Z m -0.027028,0.043778 0.1279065,5.0226152 -0.054056,0.094027 0.012562,0.022079 L 3.457589,9.5797835 2.7407795,8.3403083 5.6852944,8.4122557 5.6438009,6.7852542 2.764762,8.2953888 Z m 5.9259551,5.0024396 c -0.495077,0 -0.951576,0.1214585 -1.369666,0.3654472 C 9.7926574,8.9101552 9.4615529,9.2416371 9.2175704,9.6597255 8.9735845,10.077816 8.8513618,10.533938 8.8513618,11.02901 c 0,0.495074 0.1222227,0.951958 0.3662086,1.370047 0.2439825,0.418088 0.575087,0.749189 0.9931786,0.993178 0.41809,0.243989 0.874589,0.365828 1.369666,0.365828 0.495076,0 0.951953,-0.121839 1.370046,-0.365828 0.418089,-0.243989 0.748812,-0.57509 0.992798,-0.993178 0.243987,-0.418089 0.366209,-0.874973 0.366209,-1.370047 0,-0.495072 -0.122222,-0.951194 -0.366209,-1.3692845 C 13.699273,9.2416366 13.36855,8.9101546 12.950461,8.6661655 12.532368,8.4221768 12.075491,8.3007182 11.580415,8.3007188 Z m -0.227643,0.90943 h 0.455286 c 0.06159,0 0.114876,0.022381 0.159883,0.067379 0.045,0.045026 0.06738,0.098303 0.06738,0.1598832 v 1.783839 l 0.671509,-0.671509 c 0.045,-0.04499 0.09868,-0.06737 0.160264,-0.06737 0.06159,0 0.114495,0.02238 0.159503,0.06737 l 0.323573,0.323193 c 0.04264,0.04267 0.06395,0.09594 0.06395,0.159883 0,0.06394 -0.0213,0.117604 -0.06395,0.160264 l -1.286679,1.285917 -0.322812,0.323192 c -0.04263,0.04267 -0.0963,0.06395 -0.160263,0.06395 -0.06396,0 -0.116866,-0.02129 -0.159503,-0.06395 l -0.32357,-0.323192 -1.2862986,-1.285917 c -0.042638,-0.04267 -0.06395,-0.09632 -0.06395,-0.160264 0,-0.06394 0.021304,-0.117223 0.06395,-0.159883 l 0.3231896,-0.323193 c 0.04265,-0.04262 0.09631,-0.06395 0.160263,-0.06395 0.06396,0 0.116863,0.02131 0.159503,0.06395 l 0.671889,0.671509 V 9.4374114 c 0,-0.061581 0.02238,-0.1148573 0.06738,-0.1598832 0.045,-0.044994 0.09791,-0.067379 0.159503,-0.067379 z m -7.8700585,0.4137929 3.6655118,1.2463273 0.041874,0.07309 h 0.00418 l -1.3826042,2.708116 -0.027028,-0.04644 V 10.511674 L 3.5584677,9.7552742 Z" />
</svg>
