<?xml version="1.0" encoding="UTF-8" standalone="no"?>
<svg
   width="64"
   height="64"
   version="1.1"
   viewBox="0 0 16.933 16.933"
   id="svg7"
   sodipodi:docname="cachy-update-blue.svg"
   inkscape:version="1.4.3 (0d15f75042, 2025-12-25)"
   xmlns:inkscape="http://www.inkscape.org/namespaces/inkscape"
   xmlns:sodipodi="http://sodipodi.sourceforge.net/DTD/sodipodi-0.dtd"
   xmlns="http://www.w3.org/2000/svg"
   xmlns:svg="http://www.w3.org/2000/svg"
   xmlns:rdf="http://www.w3.org/1999/02/22-rdf-syntax-ns#"
   xmlns:cc="http://creativecommons.org/ns#"
   xmlns:dc="http://purl.org/dc/elements/1.1/">
  <sodipodi:namedview
     id="namedview7"
     pagecolor="#9c4444"
     bordercolor="#000000"
     borderopacity="0.25"
     inkscape:showpageshadow="2"
     inkscape:pageopacity="0.0"
     inkscape:pagecheckerboard="0"
     inkscape:deskcolor="#d1d1d1"
     inkscape:zoom="17.412505"
     inkscape:cx="51.514702"
     inkscape:cy="33.539115"
     inkscape:window-width="2560"
     inkscape:window-height="1388"
     inkscape:window-x="0"
     inkscape:window-y="0"
     inkscape:window-maximized="1"
     inkscape:current-layer="svg7"
     showgrid="false" />
  <defs
     id="defs2">
    <inkscape:path-effect
       effect="offset"
       id="path-effect1"
       is_visible="true"
       lpeversion="1.3"
       linejoin_type="miter"
       unit="px"
       offset="1"
       miter_limit="4"
       attempt_force_join="false"
       update_on_knot_move="true" />
    <style
       id="current-color-scheme"
       type="text/css">.ColorScheme-Text {color:#d8dee9} .ColorScheme-Highlight {color:#3b4252}</style>
  </defs>
  <metadata
     id="metadata2">
    <rdf:RDF>
      <cc:Work
         rdf:about="">
        <dc:format>image/svg+xml</dc:format>
        <dc:type
           rdf:resource="http://purl.org/dc/dcmitype/StillImage" />
      </cc:Work>
    </rdf:RDF>
  </metadata>
  <path
     id="path5"
     style="fill:currentColor;stroke-width:0.96173"
     class="ColorScheme-Text"
     d="M 5.6114431,3.1749402 2.6239121,8.3387856 5.7560993,13.753115 H 10.509959 C 10.374506,13.69971 10.242446,13.63564 10.113677,13.560494 9.6664399,13.299496 9.310191,12.944964 9.0489311,12.49727 8.9105384,12.260123 8.8092558,12.01163 8.7443918,11.751911 V 11.75153 L 7.3065853,10.943359 h 1.3521548 c 8.839e-4,-0.03287 0.00228,-0.06566 0.00418,-0.09821 H 7.2475808 L 5.8428931,8.4149205 7.2285471,6.017815 H 10.623781 L 12.265628,3.178747 H 5.9190279 l 0.00571,0.00114 -0.052914,-0.00495 z m 0.070425,0.079561 0.077657,0.00838 3.0499617,1.706943 3.0724212,-1.6917161 h 0.207849 L 7.289455,5.9196012 H 7.1722074 Z M 5.65484,3.2982789 5.7827465,8.3208941 5.7286909,8.4149207 5.7412532,8.437 3.4579692,9.5797835 2.7411597,8.3403083 5.6856746,8.4122557 5.6441811,6.7852542 2.7651422,8.2953888 Z m 5.925575,5.0024396 c -0.495035,0 -0.951604,0.1222373 -1.369666,0.3662085 C 9.7926879,8.9108987 9.4619139,9.2416717 9.2179505,9.6597252 8.9739858,10.077786 8.8517419,10.534356 8.8517419,11.029391 c 0,0.495034 0.1222439,0.951224 0.3662086,1.369285 0.2439634,0.418054 0.5747374,0.749207 0.9927985,0.993179 0.418062,0.243971 0.874631,0.366208 1.369666,0.366208 0.495042,0 0.951985,-0.122237 1.370046,-0.366208 0.418053,-0.243972 0.748835,-0.575125 0.992798,-0.993179 0.243973,-0.418061 0.365829,-0.874251 0.365829,-1.369285 0,-0.495035 -0.121856,-0.951605 -0.365829,-1.3696658 C 13.699296,9.2416712 13.368514,8.9108982 12.950461,8.6669268 12.5324,8.4229553 12.075457,8.3007185 11.580415,8.3007185 Z m 1.430192,1.3106609 c 0.07023,0 0.129755,0.024686 0.178918,0.073851 l 0.358214,0.3582146 c 0.04915,0.04915 0.07385,0.108682 0.07385,0.178917 0,0.07023 -0.0247,0.130128 -0.07385,0.179298 l -1.906416,1.906415 -0.358596,0.358215 c -0.04917,0.04917 -0.108689,0.07423 -0.178916,0.07423 -0.07023,0 -0.129764,-0.02506 -0.178918,-0.07423 L 10.56668,12.308075 9.6130907,11.354867 c -0.049165,-0.04915 -0.073851,-0.108681 -0.073851,-0.178916 0,-0.07023 0.024693,-0.129748 0.073851,-0.178918 l 0.3585948,-0.358594 c 0.049166,-0.04915 0.1086815,-0.07385 0.1789165,-0.07385 0.07023,0 0.129755,0.02471 0.178917,0.07385 l 0.774292,0.777336 1.72788,-1.7305451 c 0.04915,-0.049165 0.108681,-0.073851 0.178916,-0.07385 z m -9.5275133,0.01256 3.6655118,1.2463276 0.041874,0.07309 h 0.00418 l -1.3826042,2.708116 -0.027028,-0.04644 V 10.511674 L 3.5588479,9.7552742 Z" />
</svg>
