<?xml version="1.0" encoding="UTF-8" standalone="no"?>
<svg
   id="svg3297"
   height="64"
   width="64"
   version="1.0"
   sodipodi:docname="hwinfo.svg"
   inkscape:version="1.4.2 (ebf0e940d0, 2025-05-08)"
   xmlns:inkscape="http://www.inkscape.org/namespaces/inkscape"
   xmlns:sodipodi="http://sodipodi.sourceforge.net/DTD/sodipodi-0.dtd"
   xmlns="http://www.w3.org/2000/svg"
   xmlns:svg="http://www.w3.org/2000/svg"
   xmlns:rdf="http://www.w3.org/1999/02/22-rdf-syntax-ns#"
   xmlns:cc="http://creativecommons.org/ns#"
   xmlns:dc="http://purl.org/dc/elements/1.1/">
  <sodipodi:namedview
     id="namedview1"
     pagecolor="#9c4444"
     bordercolor="#000000"
     borderopacity="0.25"
     inkscape:showpageshadow="2"
     inkscape:pageopacity="0.0"
     inkscape:pagecheckerboard="0"
     inkscape:deskcolor="#d1d1d1"
     inkscape:zoom="13.09375"
     inkscape:cx="35.322196"
     inkscape:cy="31.00716"
     inkscape:window-width="2560"
     inkscape:window-height="1388"
     inkscape:window-x="0"
     inkscape:window-y="0"
     inkscape:window-maximized="1"
     inkscape:current-layer="svg3297" />
  <metadata
     id="metadata58">
    <rdf:RDF>
      <cc:Work
         rdf:about="">
        <dc:format>image/svg+xml</dc:format>
        <dc:type
           rdf:resource="http://purl.org/dc/dcmitype/StillImage" />
      </cc:Work>
    </rdf:RDF>
  </metadata>
  <defs
     id="defs3299">
    <style
       id="current-color-scheme"
       type="text/css">.ColorScheme-Text {color:#d8dee9} .ColorScheme-Highlight {color:#3b4252}</style>
  </defs>
  <path
     id="path5"
     style="fill:currentColor;fill-opacity:1;stroke-width:0.714286"
     d="m 19.142856,12 c -2.367143,0 -4.285713,1.918571 -4.285713,4.285714 v 22.142857 0.714286 H 49.142857 V 38.428571 16.285714 C 49.142857,13.918571 47.224285,12 44.857142,12 Z m 15.824498,4.14481 c 0.667392,0 1.318662,0.116064 1.95452,0.348773 l -0.365513,1.930803 c -0.389565,-0.121326 -0.75944,-0.184152 -1.111886,-0.184152 -0.185577,0 -0.33302,0.02448 -0.417132,0.117188 -0.09483,0.1045 -0.114397,0.316017 -0.114397,0.602678 l 1.153738,0.266463 0.368304,1.805245 -1.522042,0.281808 v 5.270647 c 0,0.225425 -0.09037,0.429844 -0.235771,0.577567 -0.145424,0.147727 -0.345908,0.238561 -0.5678,0.238561 h -0.899834 c -0.221911,0 -0.422379,-0.09084 -0.5678,-0.238561 -0.145427,-0.147724 -0.235771,-0.352142 -0.235771,-0.577567 v -5.226004 h -0.775669 l -0.364119,-1.788505 1.139788,-0.284598 v -0.361328 c 0,-0.690876 0.07867,-1.203298 0.221819,-1.542968 0.155017,-0.367849 0.436373,-0.672 0.853795,-0.904018 0.391486,-0.21761 0.886033,-0.332032 1.48577,-0.332032 z m -15.020926,0.179967 h 0.898437 c 0.221897,0 0.423781,0.09084 0.569197,0.23856 0.145414,0.147729 0.234374,0.352141 0.234374,0.577567 v 0.779854 c 0,0.225428 -0.08898,0.428445 -0.234374,0.576173 -0.145415,0.147721 -0.3473,0.239956 -0.569197,0.239956 h -0.898437 c -0.221897,0 -0.422388,-0.09224 -0.567801,-0.239956 -0.145421,-0.147728 -0.235771,-0.350745 -0.235771,-0.576173 v -0.779854 c 0,-0.225426 0.09037,-0.429838 0.235771,-0.577567 0.145413,-0.147724 0.345904,-0.23856 0.567801,-0.23856 z m 7.859933,2.73019 c 0.474153,0 0.906391,0.08873 1.298828,0.263671 0.40838,0.182048 0.714462,0.416911 0.923549,0.69894 0.206868,0.279055 0.351287,0.595802 0.432477,0.950056 0.07577,0.330479 0.115793,0.80271 0.115793,1.418806 v 4.197823 c 0,0.225425 -0.09037,0.429844 -0.23577,0.577567 -0.145426,0.147727 -0.345904,0.238561 -0.567802,0.238561 h -0.898437 c -0.221904,0 -0.423776,-0.09084 -0.569196,-0.238561 -0.145422,-0.147724 -0.234375,-0.352142 -0.234375,-0.577567 v -3.349609 c 0,-0.775617 -0.03221,-1.279936 -0.111607,-1.508091 -0.06411,-0.184143 -0.166567,-0.32869 -0.311105,-0.431083 -0.14689,-0.104051 -0.324261,-0.152065 -0.530134,-0.152065 -0.284227,0 -0.539931,0.07888 -0.765904,0.238561 -0.221396,0.15645 -0.372707,0.364003 -0.454799,0.622209 -0.09574,0.301033 -0.138113,0.857547 -0.138113,1.668527 v 2.911551 c 0,0.225425 -0.09038,0.429843 -0.235771,0.577567 -0.145417,0.147727 -0.345904,0.238561 -0.567801,0.238561 h -0.898438 c -0.2219,0 -0.422382,-0.09084 -0.5678,-0.238561 -0.145412,-0.147724 -0.235771,-0.352142 -0.235771,-0.577567 V 20.04269 c 0,-0.225421 0.09037,-0.428447 0.235771,-0.576172 0.145419,-0.147728 0.3459,-0.239957 0.5678,-0.239955 h 0.758929 c 0.221902,0 0.422382,0.09223 0.567801,0.239955 0.119301,0.121195 0.200409,0.279866 0.226005,0.457589 0.618235,-0.581469 1.351767,-0.86914 2.19587,-0.86914 z m 12.933872,0 c 1.205769,0 2.190674,0.403896 2.960381,1.205357 0.767996,0.799698 1.156528,1.809129 1.156528,3.031529 0,1.231688 -0.391365,2.251491 -1.166293,3.060825 -0.777717,0.812252 -1.755557,1.220703 -2.936665,1.220703 -0.72445,0 -1.415606,-0.16805 -2.073101,-0.503627 -0.670275,-0.342103 -1.18001,-0.843109 -1.529018,-1.503906 -0.341146,-0.645893 -0.514789,-1.431301 -0.514789,-2.359096 0,-0.713783 0.169983,-1.405074 0.513393,-2.073103 0.347928,-0.676844 0.841052,-1.193511 1.478795,-1.549943 0.629858,-0.352021 1.333789,-0.528739 2.110769,-0.528739 z m -20.793805,0.171596 h 0.898437 c 0.221897,0 0.423781,0.09223 0.569197,0.239955 0.145414,0.147725 0.234374,0.350751 0.234374,0.576172 v 6.541573 c 0,0.225425 -0.08898,0.429844 -0.234374,0.577567 -0.145415,0.147727 -0.3473,0.238561 -0.569197,0.238561 h -0.898437 c -0.221896,0 -0.422387,-0.09084 -0.567801,-0.238561 -0.14542,-0.147724 -0.23577,-0.352142 -0.23577,-0.577567 V 20.04269 c 0,-0.225421 0.09037,-0.428447 0.23577,-0.576172 0.145414,-0.147728 0.345905,-0.239957 0.567801,-0.239955 z m 20.800781,2.017298 c -0.435143,0 -0.80016,0.171879 -1.09654,0.511999 -0.314207,0.360588 -0.458985,0.883983 -0.458985,1.558314 0,0.674331 0.144778,1.197723 0.458985,1.558314 0.296382,0.340118 0.661397,0.511998 1.09654,0.511998 0.434649,0 0.798265,-0.172229 1.092356,-0.511998 0.312553,-0.361087 0.456193,-0.889935 0.456193,-1.57366 0,-0.665576 -0.144226,-1.183964 -0.456193,-1.544364 -0.29409,-0.339767 -0.657706,-0.510603 -1.092356,-0.510603 z M 14.857143,39.857143 v 7.857143 c 0,2.367143 1.91857,4.285714 4.285713,4.285714 h 25.714286 c 2.367143,0 4.285715,-1.918571 4.285715,-4.285714 V 39.857143 Z M 19.857142,42 h 1.428571 c 0.394286,0 0.714286,0.32 0.714286,0.714286 V 47 c 0,0.394286 -0.32,0.714286 -0.714286,0.714286 h -1.428571 c -0.394286,0 -0.714286,-0.32 -0.714286,-0.714286 V 42.714286 C 19.142856,42.32 19.462856,42 19.857142,42 Z m 4.285714,0 c 0.394286,0 0.714286,0.32 0.714286,0.714286 V 47 c 0,0.394286 -0.32,0.714286 -0.714286,0.714286 -0.394285,0 -0.714285,-0.32 -0.714285,-0.714286 V 42.714286 C 23.428571,42.32 23.748571,42 24.142856,42 Z m 2.857143,0 h 4.285715 c 0.394286,0 0.714285,0.32 0.714285,0.714286 V 47 c 0,0.394286 -0.32,0.714286 -0.714285,0.714286 H 27 c -0.394286,0 -0.714286,-0.32 -0.714286,-0.714286 V 42.714286 C 26.285714,42.32 26.605714,42 26.999999,42 Z m 7.142858,0 c 0.394285,0 0.714285,0.32 0.714285,0.714286 V 47 c 0,0.394286 -0.32,0.714286 -0.714285,0.714286 -0.394286,0 -0.714285,-0.32 -0.714285,-0.714286 V 42.714286 C 33.428572,42.32 33.748572,42 34.142857,42 Z m 2.857142,0 c 0.394287,0 0.714286,0.32 0.714286,0.714286 V 47 c 0,0.394286 -0.32,0.714286 -0.714286,0.714286 -0.394286,0 -0.714285,-0.32 -0.714285,-0.714286 V 42.714286 C 36.285714,42.32 36.605714,42 36.999999,42 Z m 2.857143,0 h 1.428572 c 0.394286,0 0.714285,0.32 0.714285,0.714286 V 47 c 0,0.394286 -0.32,0.714286 -0.714285,0.714286 h -1.428572 c -0.394286,0 -0.714285,-0.32 -0.714285,-0.714286 V 42.714286 C 39.142857,42.32 39.462856,42 39.857142,42 Z m 4.285715,0 c 0.394285,0 0.714285,0.32 0.714285,0.714286 V 47 c 0,0.394286 -0.32,0.714286 -0.714285,0.714286 -0.394286,0 -0.714285,-0.32 -0.714285,-0.714286 V 42.714286 C 43.428572,42.32 43.748572,42 44.142857,42 Z"
     class="ColorScheme-Text" />
</svg>
