<?xml version='1.0' encoding='UTF-8'?>
<svg xmlns:inkscape="http://www.inkscape.org/namespaces/inkscape" xmlns:sodipodi="http://sodipodi.sourceforge.net/DTD/sodipodi-0.dtd" xmlns="http://www.w3.org/2000/svg" xmlns:svg="http://www.w3.org/2000/svg" xmlns:rdf="http://www.w3.org/1999/02/22-rdf-syntax-ns#" xmlns:cc="http://creativecommons.org/ns#" xmlns:dc="http://purl.org/dc/elements/1.1/" width="64" height="64" version="1.1" viewBox="0 0 16.933 16.933" id="svg7" sodipodi:docname="preferences-sound.svg" inkscape:version="1.4.2 (ebf0e940d0, 2025-05-08)">
  <sodipodi:namedview id="namedview7" pagecolor="#9c4444" bordercolor="#000000" borderopacity="0.25" inkscape:showpageshadow="2" inkscape:pageopacity="0.0" inkscape:pagecheckerboard="0" inkscape:deskcolor="#d1d1d1" inkscape:zoom="6.15625" inkscape:cx="15.837563" inkscape:cy="29.64467" inkscape:window-width="1183" inkscape:window-height="941" inkscape:window-x="0" inkscape:window-y="0" inkscape:window-maximized="0" inkscape:current-layer="svg7" showgrid="false"/>
  <defs id="defs2">
    <style id="current-color-scheme" type="text/css">.ColorScheme-Text {color:#d8dee9} .ColorScheme-Highlight {color:#3b4252}</style>
  </defs>
  <metadata id="metadata2">
    <rdf:RDF>
      <cc:Work rdf:about="">
        <dc:format>image/svg+xml</dc:format>
        <dc:type rdf:resource="http://purl.org/dc/dcmitype/StillImage"/>
      </cc:Work>
    </rdf:RDF>
  </metadata>
  <g id="g1" style="fill:currentColor;fill-opacity:1" transform="matrix(0.26422373,0,0,0.26422373,0.02637834,-0.0042425)" class="ColorScheme-Text">
    <g id="g2" style="fill:currentColor;fill-opacity:1" class="ColorScheme-Text">
      <path d="m 30.295748,16.656055 c -0.536101,0.01625 -1.053973,0.198085 -1.481984,0.520261 l -9.098594,7.117481 h -5.199272 c -1.44021,0 -2.599636,1.154289 -2.599636,2.588262 V 37.23464 c 0,1.433974 1.159426,2.588083 2.599636,2.588083 h 5.199272 l 9.098594,7.117481 c 1.299947,1.01726 3.899581,0.64702 3.899581,-1.941061 v -25.88169 c 0,-1.778073 -1.227026,-2.510567 -2.417597,-2.461398 z" id="path2" style="fill:currentColor;fill-opacity:1;stroke-width:0.256755" class="ColorScheme-Text"/>
      <path d="m 35.280887,25.704327 5.041624,-1.604713 c 2.521071,5.135083 2.521071,10.270166 0,15.405247 l -5.041624,-1.604712 c 2.520813,-5.135083 2.520813,-7.060739 0,-12.195822 z" id="path3-6" style="fill:currentColor;fill-opacity:1;stroke-width:0.256755" class="ColorScheme-Text"/>
      <path opacity="0.35" d="m 42.726758,21.629613 5.281689,-2.408329 c 5.281954,7.702624 5.281954,17.972792 0,25.675413 l -5.281689,-2.405786 c 5.281689,-7.702625 5.281689,-13.158649 0,-20.861298 z" id="path4" style="opacity:1;fill:currentColor;fill-opacity:1;stroke-width:0.256755" class="ColorScheme-Text"/>
    </g>
  </g>
  </svg>
