<?xml version="1.0" encoding="UTF-8" standalone="no"?>
<svg
   width="64"
   height="64"
   version="1.1"
   viewBox="0 0 16.933 16.933"
   id="svg7"
   sodipodi:docname="preferences-system.svg"
   inkscape:version="1.4.2 (ebf0e940d0, 2025-05-08)"
   xmlns:inkscape="http://www.inkscape.org/namespaces/inkscape"
   xmlns:sodipodi="http://sodipodi.sourceforge.net/DTD/sodipodi-0.dtd"
   xmlns="http://www.w3.org/2000/svg"
   xmlns:svg="http://www.w3.org/2000/svg"
   xmlns:rdf="http://www.w3.org/1999/02/22-rdf-syntax-ns#"
   xmlns:cc="http://creativecommons.org/ns#"
   xmlns:dc="http://purl.org/dc/elements/1.1/">
  <sodipodi:namedview
     id="namedview7"
     pagecolor="#a9abb3"
     bordercolor="#000000"
     borderopacity="0.25"
     inkscape:showpageshadow="2"
     inkscape:pageopacity="0.0"
     inkscape:pagecheckerboard="0"
     inkscape:deskcolor="#d1d1d1"
     inkscape:zoom="4.3531261"
     inkscape:cx="36.066035"
     inkscape:cy="26.647517"
     inkscape:window-width="2560"
     inkscape:window-height="1392"
     inkscape:window-x="0"
     inkscape:window-y="0"
     inkscape:window-maximized="1"
     inkscape:current-layer="svg7"
     showgrid="false" />
  <defs
     id="defs2">
    <style
       id="current-color-scheme"
       type="text/css">.ColorScheme-Text {color:#d8dee9} .ColorScheme-Highlight {color:#3b4252}</style>
  </defs>
  <metadata
     id="metadata2">
    <rdf:RDF>
      <cc:Work
         rdf:about="">
        <dc:format>image/svg+xml</dc:format>
        <dc:type
           rdf:resource="http://purl.org/dc/dcmitype/StillImage" />
      </cc:Work>
    </rdf:RDF>
  </metadata>
  <path
     id="path24-7"
     style="fill:currentColor;stroke-width:0.662257"
     class="ColorScheme-Text"
     inkscape:label="path24"
     d="M 9.3306089,3.1749376 7.5891278,3.4365817 V 3.9727312 A 4.6235312,4.6348346 0 0 0 6.198113,4.4775317 L 5.768872,3.9646929 4.4421633,5.0952689 4.8633664,5.5992658 A 4.6235312,4.6348346 0 0 0 4.4433692,6.2093665 C 4.3165243,6.4297287 4.2166045,6.6572069 4.1294764,6.8877929 L 3.4655194,6.770033 3.1749375,8.4898105 3.8324638,8.606365 c 0.00937,0.4960009 0.095886,0.9855436 0.2584289,1.451703 l -0.5904071,0.343233 0.8797833,1.50596 0.5839771,-0.338007 c 0.3151965,0.364301 0.6907384,0.685916 1.1253509,0.945697 l -0.2339123,0.647479 1.6406015,0.585182 0.2310992,-0.637029 c 0.4904316,0.07887 0.9857276,0.0815 1.4677793,0.004 l 0.2339123,0.643479 1.6329661,-0.606082 -0.229894,-0.633412 c 0.418137,-0.248906 0.799645,-0.565792 1.127762,-0.946501 l 0.590408,0.340419 0.861697,-1.51641 -0.581565,-0.336802 C 12.994807,9.584459 13.077457,9.0947214 13.083655,8.6075705 L 13.758062,8.4886051 13.444169,6.7712384 12.781418,6.8877929 C 12.607792,6.4297035 12.358122,6.0004952 12.045117,5.6133327 L 12.486817,5.086427 11.144434,3.9727312 10.715595,4.4855694 A 4.6169167,4.628204 0 0 0 9.3306089,3.9763483 Z M 8.4560505,4.5542962 A 3.9686963,3.9783988 0 0 1 12.424923,8.5324132 3.9686963,3.9783988 0 0 1 8.4560505,12.510932 3.9686963,3.9783988 0 0 1 4.4875791,8.5324132 3.9686963,3.9783988 0 0 1 8.4560505,4.5542962 Z M 8.6156093,5.2218709 A 3.2913721,3.2994187 0 0 0 8.223344,5.2262922 3.299971,3.3080386 0 0 0 5.5896199,6.872118 3.3158457,3.3239522 0 0 0 6.8041951,11.403667 3.3085698,3.3166585 0 0 0 11.321677,10.192708 3.3138614,3.321963 0 0 0 10.107503,5.6627676 3.2913721,3.2994187 0 0 0 8.6156093,5.2218709 Z M 8.456452,5.8802017 A 2.6457975,2.6522659 0 0 1 11.102234,8.5324132 2.6457975,2.6522659 0 0 1 8.456452,11.184625 2.6457975,2.6522659 0 0 1 5.810671,8.5324132 2.6457975,2.6522659 0 0 1 8.456452,5.8802017 Z" />
</svg>
