<?xml version='1.0' encoding='UTF-8'?>
<svg xmlns:inkscape="http://www.inkscape.org/namespaces/inkscape" xmlns:sodipodi="http://sodipodi.sourceforge.net/DTD/sodipodi-0.dtd" xmlns="http://www.w3.org/2000/svg" xmlns:svg="http://www.w3.org/2000/svg" width="48" height="48" version="1.1" id="svg1" sodipodi:docname="emblem-unlocked.svg" inkscape:version="1.4.2 (ebf0e940d0, 2025-05-08)">
  <defs id="defs1">
    <style id="current-color-scheme" type="text/css">.ColorScheme-Text {color:#d8dee9} .ColorScheme-Highlight {color:#3b4252}</style>
  </defs>
  <sodipodi:namedview id="namedview1" pagecolor="#ffffff" bordercolor="#000000" borderopacity="0.25" inkscape:showpageshadow="2" inkscape:pageopacity="0.0" inkscape:pagecheckerboard="0" inkscape:deskcolor="#d1d1d1" inkscape:zoom="4" inkscape:cx="24" inkscape:cy="23.875" inkscape:window-width="1272" inkscape:window-height="669" inkscape:window-x="0" inkscape:window-y="0" inkscape:window-maximized="0" inkscape:current-layer="svg1"/>
  <path id="path3" style="baseline-shift:baseline;display:inline;overflow:visible;vector-effect:none;fill:currentColor;enable-background:accumulate;stop-color:#000000" class="ColorScheme-Text" d="M 24 2 C 11.873425 2 2 11.873425 2 24 C 2 36.126575 11.873425 46 24 46 C 36.126575 46 46 36.126575 46 24 C 46 11.873425 36.126575 2 24 2 z M 24 6 C 33.964815 6 42 14.035185 42 24 C 42 33.964815 33.964815 42 24 42 C 14.035185 42 6 33.964815 6 24 C 6 14.035185 14.035185 6 24 6 z M 24 11 C 20.279268 11 17.427462 12.734215 17.046875 17 L 20.087891 17 C 20.487569 14.775525 22.241985 14 24 14 C 26.000001 14 28 15 28 18 L 28 21 L 24 21 L 20 21 L 17 21 L 15.666016 21 C 14.742683 21 14 21.749505 14 22.699219 L 14 33.285156 C 14 34.23487 14.742683 35 15.666016 35 L 32.333984 35 C 33.257317 35 34 34.23487 34 33.285156 L 34 22.699219 C 34 21.749505 33.257317 21 32.333984 21 L 31 21 L 31 18 C 31 13.000012 28.000001 11 24 11 z "/>
</svg>
