<?xml version='1.0' encoding='UTF-8'?>
<svg xmlns:inkscape="http://www.inkscape.org/namespaces/inkscape" xmlns:sodipodi="http://sodipodi.sourceforge.net/DTD/sodipodi-0.dtd" xmlns="http://www.w3.org/2000/svg" xmlns:svg="http://www.w3.org/2000/svg" width="48" height="48" version="1.1" id="svg1" sodipodi:docname="emblem-question.svg" inkscape:version="1.4.2 (ebf0e940d0, 2025-05-08)">
  <defs id="defs1">
    <style id="current-color-scheme" type="text/css">.ColorScheme-Text {color:#d8dee9} .ColorScheme-Highlight {color:#3b4252}</style>
  </defs>
  <sodipodi:namedview id="namedview1" pagecolor="#ffffff" bordercolor="#000000" borderopacity="0.25" inkscape:showpageshadow="2" inkscape:pageopacity="0.0" inkscape:pagecheckerboard="0" inkscape:deskcolor="#d1d1d1" inkscape:zoom="4" inkscape:cx="24" inkscape:cy="23.875" inkscape:window-width="1272" inkscape:window-height="669" inkscape:window-x="0" inkscape:window-y="0" inkscape:window-maximized="0" inkscape:current-layer="svg1"/>
  <path id="path3" style="baseline-shift:baseline;display:inline;overflow:visible;vector-effect:none;fill:currentColor;enable-background:accumulate;stop-color:#000000" class="ColorScheme-Text" d="M 24 2 C 11.873425 2 2 11.873425 2 24 C 2 36.126575 11.873425 46 24 46 C 36.126575 46 46 36.126575 46 24 C 46 11.873425 36.126575 2 24 2 z M 24 6 C 33.964815 6 42 14.035185 42 24 C 42 33.964815 33.964815 42 24 42 C 14.035185 42 6 33.964815 6 24 C 6 14.035185 14.035185 6 24 6 z M 24 10 C 19.58 10 16 13.58 16 18 L 20 18 C 20 15.8 21.8 14 24 14 C 26.2 14 28 15.8 28 18 C 28 19.1 27.560312 20.100313 26.820312 20.820312 L 24.339844 23.339844 C 22.899844 24.799844 22 26.8 22 29 L 22 30 L 26 30 C 26 27 26.899844 25.799844 28.339844 24.339844 L 30.140625 22.5 C 31.280625 21.36 32 19.76 32 18 C 32 13.58 28.42 10 24 10 z M 22 34 L 22 38 L 26 38 L 26 34 L 22 34 z "/>
</svg>
