<?xml version='1.0' encoding='UTF-8'?>
<svg xmlns:inkscape="http://www.inkscape.org/namespaces/inkscape" xmlns:sodipodi="http://sodipodi.sourceforge.net/DTD/sodipodi-0.dtd" xmlns="http://www.w3.org/2000/svg" xmlns:svg="http://www.w3.org/2000/svg" width="48" height="48" version="1.1" id="svg1" sodipodi:docname="emblem-web.svg" inkscape:version="1.4.2 (ebf0e940d0, 2025-05-08)">
  <defs id="defs1">
    <style id="current-color-scheme" type="text/css">.ColorScheme-Text {color:#d8dee9} .ColorScheme-Highlight {color:#3b4252}</style>
  </defs>
  <sodipodi:namedview id="namedview1" pagecolor="#ffffff" bordercolor="#000000" borderopacity="0.25" inkscape:showpageshadow="2" inkscape:pageopacity="0.0" inkscape:pagecheckerboard="0" inkscape:deskcolor="#d1d1d1" inkscape:zoom="4" inkscape:cx="24" inkscape:cy="23.875" inkscape:window-width="1272" inkscape:window-height="669" inkscape:window-x="0" inkscape:window-y="0" inkscape:window-maximized="0" inkscape:current-layer="svg1"/>
  <path id="path3" style="baseline-shift:baseline;display:inline;overflow:visible;vector-effect:none;fill:currentColor;enable-background:accumulate;stop-color:#000000" class="ColorScheme-Text" d="M 24 2 C 11.873425 2 2 11.873425 2 24 C 2 36.126575 11.873425 46 24 46 C 36.126575 46 46 36.126575 46 24 C 46 11.873425 36.126575 2 24 2 z M 24 6 C 33.964815 6 42 14.035185 42 24 C 42 33.964815 33.964815 42 24 42 C 14.035185 42 6 33.964815 6 24 C 6 14.035185 14.035185 6 24 6 z M 23.664062 11.404297 C 21.633146 11.459552 19.586989 12.004682 17.705078 13.085938 C 13.086224 15.739705 10.796698 20.866864 11.537109 25.804688 C 11.571009 26.058011 11.61802 26.310341 11.667969 26.5625 C 11.679099 26.61423 11.687489 26.667048 11.699219 26.71875 C 11.963707 27.970953 12.414882 29.202375 13.091797 30.369141 C 16.554035 36.336845 24.265695 38.374797 30.289062 34.914062 C 34.864351 32.285323 37.158924 27.230341 36.484375 22.335938 L 36.484375 22.333984 L 36.484375 22.332031 C 36.442763 21.992229 36.377067 21.654133 36.306641 21.316406 C 36.043031 20.052305 35.585264 18.807977 34.902344 17.630859 C 32.522582 13.528974 28.132079 11.282735 23.664062 11.404297 z M 24.921875 13.222656 C 25.504423 13.271196 26.079639 13.365165 26.644531 13.505859 C 26.350049 13.893939 26.020668 14.286903 25.646484 14.681641 C 25.204233 14.340861 24.756227 14.026109 24.304688 13.757812 C 24.058145 13.611334 23.808777 13.481415 23.558594 13.357422 C 24.082759 13.281952 24.502286 13.252028 24.921875 13.222656 z M 28.341797 14.087891 C 30.115755 14.858376 31.691342 16.105134 32.857422 17.78125 L 29.919922 19.46875 C 29.042753 18.088573 28.052446 16.875741 27.001953 15.859375 C 27.515098 15.312326 27.975876 14.757626 28.367188 14.203125 C 28.362188 14.161115 28.351247 14.125578 28.341797 14.087891 z M 20.15625 14.263672 C 21.10034 14.258178 22.1959 14.589386 23.376953 15.291016 C 23.692972 15.478764 24.011268 15.701042 24.330078 15.9375 C 23.515488 16.641596 22.585844 17.328743 21.568359 17.96875 L 19.494141 14.390625 C 19.583896 14.356989 19.671692 14.317097 19.761719 14.285156 C 19.890225 14.270682 20.02138 14.264457 20.15625 14.263672 z M 17.898438 15.226562 L 20.011719 18.867188 C 18.947886 19.429824 17.886787 19.893109 16.865234 20.25 C 16.817204 19.849135 16.782804 19.457089 16.777344 19.083984 C 16.752084 17.363937 17.162102 16.046614 17.898438 15.226562 z M 25.710938 17.111328 C 26.649176 18.015243 27.551263 19.109685 28.357422 20.365234 L 24.308594 22.691406 L 22.464844 19.513672 C 23.664562 18.764988 24.75753 17.956154 25.710938 17.111328 z M 15.037109 17.943359 C 14.998471 18.326408 14.972636 18.716024 14.978516 19.117188 C 14.986316 19.651245 15.03874 20.204076 15.117188 20.767578 C 14.583623 20.897234 14.072683 20.990352 13.583984 21.054688 C 13.894156 19.953135 14.385711 18.903572 15.037109 17.943359 z M 33.751953 19.326172 C 34.631636 21.182611 34.926131 23.179364 34.699219 25.105469 L 34.697266 25.105469 L 34.695312 25.103516 C 34.692853 25.101532 34.687984 25.09766 34.685547 25.095703 L 34.683594 25.09375 C 33.995632 25.15462 33.273099 25.278469 32.529297 25.451172 C 32.171466 24.001551 31.599701 22.499158 30.816406 21.013672 L 33.751953 19.326172 z M 20.90625 20.414062 L 22.75 23.587891 L 18.701172 25.914062 C 18.016297 24.600556 17.517034 23.2821 17.199219 22.029297 C 18.410294 21.622719 19.658194 21.079899 20.90625 20.414062 z M 29.253906 21.912109 C 29.964962 23.275954 30.47917 24.643848 30.794922 25.939453 C 29.592597 26.337616 28.354165 26.871211 27.113281 27.525391 L 25.205078 24.238281 L 29.253906 21.912109 z M 15.466797 22.523438 C 15.826388 23.927214 16.383748 25.375163 17.140625 26.810547 L 14.214844 28.492188 C 13.36163 26.696094 13.057011 24.769101 13.242188 22.900391 C 13.951804 22.836821 14.698295 22.705694 15.466797 22.523438 z M 23.646484 25.134766 L 25.550781 28.417969 C 24.357429 29.154258 23.267978 29.950442 22.314453 30.783203 C 21.351726 29.866688 20.423473 28.745165 19.597656 27.458984 L 23.646484 25.134766 z M 34.318359 26.945312 C 34.007501 27.975653 33.539643 28.956203 32.927734 29.859375 C 32.963154 29.483253 32.986249 29.101675 32.980469 28.708984 C 32.973369 28.22345 32.926857 27.721161 32.861328 27.210938 C 33.368386 27.089859 33.852089 27.006964 34.318359 26.945312 z M 31.111328 27.720703 C 31.149208 28.071298 31.176791 28.415368 31.181641 28.744141 C 31.206901 30.464442 30.793311 31.779182 30.056641 32.599609 L 28.009766 29.070312 C 29.059815 28.521127 30.104741 28.068695 31.111328 27.720703 z M 18.037109 28.357422 C 18.931754 29.765024 19.943626 31.000466 21.017578 32.029297 C 20.486245 32.58636 20.011428 33.151233 19.605469 33.716797 C 17.841105 32.947028 16.273445 31.703876 15.111328 30.037109 L 18.037109 28.357422 z M 26.447266 29.962891 L 28.496094 33.494141 C 27.414475 33.718021 26.063978 33.416666 24.580078 32.535156 C 24.291037 32.363437 24.000582 32.163807 23.708984 31.951172 C 24.521184 31.260394 25.441477 30.588725 26.447266 29.962891 z M 22.380859 33.195312 C 22.800863 33.515073 23.224224 33.814004 23.652344 34.068359 C 23.988938 34.268331 24.329166 34.440414 24.671875 34.595703 C 23.567304 34.670553 22.467211 34.577728 21.404297 34.322266 C 21.69755 33.949825 22.016219 33.572528 22.380859 33.195312 z "/>
</svg>
