<?xml version='1.0' encoding='UTF-8'?>
<svg xmlns:inkscape="http://www.inkscape.org/namespaces/inkscape" xmlns:sodipodi="http://sodipodi.sourceforge.net/DTD/sodipodi-0.dtd" xmlns="http://www.w3.org/2000/svg" xmlns:svg="http://www.w3.org/2000/svg" width="48" height="48" version="1.1" id="svg1" sodipodi:docname="emblem-locked.svg" inkscape:version="1.4.2 (ebf0e940d0, 2025-05-08)">
  <defs id="defs1">
    <style id="current-color-scheme" type="text/css">.ColorScheme-Text {color:#d8dee9} .ColorScheme-Highlight {color:#3b4252}</style>
  </defs>
  <sodipodi:namedview id="namedview1" pagecolor="#ffffff" bordercolor="#000000" borderopacity="0.25" inkscape:showpageshadow="2" inkscape:pageopacity="0.0" inkscape:pagecheckerboard="0" inkscape:deskcolor="#d1d1d1" inkscape:zoom="4" inkscape:cx="24" inkscape:cy="23.875" inkscape:window-width="1272" inkscape:window-height="669" inkscape:window-x="0" inkscape:window-y="0" inkscape:window-maximized="0" inkscape:current-layer="svg1"/>
  <path id="path3" style="baseline-shift:baseline;display:inline;overflow:visible;vector-effect:none;fill:currentColor;enable-background:accumulate;stop-color:#000000" class="ColorScheme-Text" d="M 24 2 C 11.873425 2 2 11.873425 2 24 C 2 36.126575 11.873425 46 24 46 C 36.126575 46 46 36.126575 46 24 C 46 11.873425 36.126575 2 24 2 z M 24 6 C 33.964815 6 42 14.035185 42 24 C 42 33.964815 33.964815 42 24 42 C 14.035185 42 6 33.964815 6 24 C 6 14.035185 14.035185 6 24 6 z M 24 12.199219 C 20.4 12.199219 17.699219 14.00001 17.699219 18.5 L 17.699219 21.199219 L 16.5 21.199219 C 15.669001 21.199219 15 21.875726 15 22.730469 L 15 32.257812 C 15 33.112555 15.669001 33.800781 16.5 33.800781 L 31.5 33.800781 C 32.330999 33.800781 33 33.112555 33 32.257812 L 33 22.730469 C 33 21.875726 32.330999 21.199219 31.5 21.199219 L 30.300781 21.199219 L 30.300781 18.5 C 30.300781 14.00001 27.600001 12.199219 24 12.199219 z M 24 14.900391 C 25.800001 14.900391 27.599609 15.8 27.599609 18.5 L 27.599609 21.199219 L 20.400391 21.199219 L 20.400391 18.5 C 20.400391 15.8 22.2 14.900391 24 14.900391 z "/>
</svg>
