<?xml version='1.0' encoding='UTF-8'?>
<svg xmlns:inkscape="http://www.inkscape.org/namespaces/inkscape" xmlns:sodipodi="http://sodipodi.sourceforge.net/DTD/sodipodi-0.dtd" xmlns="http://www.w3.org/2000/svg" xmlns:svg="http://www.w3.org/2000/svg" width="48" height="48" version="1.1" id="svg1" sodipodi:docname="emblem-dropbox-syncing.svg" inkscape:version="1.4.2 (ebf0e940d0, 2025-05-08)">
  <defs id="defs1">
    <style id="current-color-scheme" type="text/css">.ColorScheme-Text {color:#d8dee9} .ColorScheme-Highlight {color:#3b4252}</style>
  </defs>
  <sodipodi:namedview id="namedview1" pagecolor="#ffffff" bordercolor="#000000" borderopacity="0.25" inkscape:showpageshadow="2" inkscape:pageopacity="0.0" inkscape:pagecheckerboard="0" inkscape:deskcolor="#d1d1d1" inkscape:zoom="4" inkscape:cx="24" inkscape:cy="23.875" inkscape:window-width="1272" inkscape:window-height="669" inkscape:window-x="0" inkscape:window-y="0" inkscape:window-maximized="0" inkscape:current-layer="svg1"/>
  <path id="path3" style="baseline-shift:baseline;display:inline;overflow:visible;vector-effect:none;fill:currentColor;enable-background:accumulate;stop-color:#000000" class="ColorScheme-Text" d="M 24 2 C 11.873425 2 2 11.873425 2 24 C 2 36.126575 11.873425 46 24 46 C 36.126575 46 46 36.126575 46 24 C 46 11.873425 36.126575 2 24 2 z M 24 6 C 33.964815 6 42 14.035185 42 24 C 42 33.964815 33.964815 42 24 42 C 14.035185 42 6 33.964815 6 24 C 6 14.035185 14.035185 6 24 6 z M 24.023438 12.302734 C 22.929937 12.291394 21.844016 12.453288 20.791016 12.742188 C 15.881516 14.058887 12.226081 18.894416 12.300781 23.978516 L 9.9609375 23.978516 L 13.703125 29.595703 L 17.447266 23.978516 L 15.107422 23.978516 C 15.098062 21.849116 15.897043 19.728252 17.314453 18.138672 C 19.978543 14.935482 24.972802 14.181679 28.513672 16.324219 C 29.689882 17.863849 32.300297 16.17271 30.929688 14.59375 C 28.980018 13.075261 26.484938 12.308134 24.023438 12.302734 z M 34.294922 18.386719 L 30.550781 24.001953 L 32.890625 24.001953 C 32.902325 26.253753 32.001394 28.493875 30.433594 30.109375 C 27.725404 33.082255 22.920944 33.741586 19.490234 31.660156 C 18.303044 30.106396 15.654909 31.781389 17.068359 33.386719 C 19.838469 35.540239 23.650804 36.226466 27.021484 35.285156 C 32.016754 34.037756 35.765549 29.147163 35.699219 24.001953 L 38.039062 24.001953 L 34.296875 18.386719 L 34.294922 18.386719 z "/>
</svg>
