<?xml version='1.0' encoding='UTF-8'?>
<svg xmlns:inkscape="http://www.inkscape.org/namespaces/inkscape" xmlns:sodipodi="http://sodipodi.sourceforge.net/DTD/sodipodi-0.dtd" xmlns="http://www.w3.org/2000/svg" xmlns:svg="http://www.w3.org/2000/svg" width="48" height="48" version="1.1" id="svg1" sodipodi:docname="emblem-insync-synced-shared.svg" inkscape:version="1.4.2 (ebf0e940d0, 2025-05-08)">
  <defs id="defs1">
    <style id="current-color-scheme" type="text/css">.ColorScheme-Text {color:#d8dee9} .ColorScheme-Highlight {color:#3b4252}</style>
  </defs>
  <sodipodi:namedview id="namedview1" pagecolor="#ffffff" bordercolor="#000000" borderopacity="0.25" inkscape:showpageshadow="2" inkscape:pageopacity="0.0" inkscape:pagecheckerboard="0" inkscape:deskcolor="#d1d1d1" inkscape:zoom="4" inkscape:cx="24" inkscape:cy="23.875" inkscape:window-width="1272" inkscape:window-height="669" inkscape:window-x="0" inkscape:window-y="0" inkscape:window-maximized="0" inkscape:current-layer="svg1"/>
  <path id="path3" style="baseline-shift:baseline;display:inline;overflow:visible;vector-effect:none;fill:currentColor;enable-background:accumulate;stop-color:#000000" class="ColorScheme-Text" d="M 24 2 C 11.873425 2 2 11.873425 2 24 C 2 36.126575 11.873425 46 24 46 C 36.126575 46 46 36.126575 46 24 C 46 11.873425 36.126575 2 24 2 z M 24 6 C 33.964815 6 42 14.035185 42 24 C 42 33.964815 33.964815 42 24 42 C 14.035185 42 6 33.964815 6 24 C 6 14.035185 14.035185 6 24 6 z M 28.810547 13.146484 A 4 4 0 0 0 25.535156 15.142578 A 4 4 0 0 0 25.148438 18.212891 L 19.853516 21.271484 A 4 4 0 0 0 17 20.072266 A 4 4 0 0 0 13 24.072266 A 4 4 0 0 0 17 28.072266 A 4 4 0 0 0 19.851562 26.873047 L 25.146484 29.931641 A 4 4 0 0 0 25.535156 32.998047 A 4 4 0 0 0 31 34.464844 A 4 4 0 0 0 32.464844 28.998047 A 4 4 0 0 0 27 27.535156 A 4 4 0 0 0 26.144531 28.197266 L 20.849609 25.140625 A 4 4 0 0 0 21 24.070312 A 4 4 0 0 0 20.853516 23 L 26.148438 19.945312 A 4 4 0 0 0 27 20.605469 A 4 4 0 0 0 32.464844 19.142578 A 4 4 0 0 0 31 13.677734 A 4 4 0 0 0 28.810547 13.146484 z "/>
</svg>
