<?xml version='1.0' encoding='UTF-8'?>
<svg xmlns:inkscape="http://www.inkscape.org/namespaces/inkscape" xmlns:sodipodi="http://sodipodi.sourceforge.net/DTD/sodipodi-0.dtd" xmlns="http://www.w3.org/2000/svg" xmlns:svg="http://www.w3.org/2000/svg" xmlns:rdf="http://www.w3.org/1999/02/22-rdf-syntax-ns#" xmlns:cc="http://creativecommons.org/ns#" xmlns:dc="http://purl.org/dc/elements/1.1/" width="64" height="64" version="1.1" id="svg73" sodipodi:docname="folder-science.svg" inkscape:version="1.4.2 (ebf0e940d0, 2025-05-08)">
  <metadata id="metadata77">
    <rdf:RDF>
      <cc:Work rdf:about="">
        <dc:format>image/svg+xml</dc:format>
        <dc:type rdf:resource="http://purl.org/dc/dcmitype/StillImage"/>
      </cc:Work>
    </rdf:RDF>
  </metadata>
  <sodipodi:namedview pagecolor="#f5f7fa" bordercolor="#666666" borderopacity="1" objecttolerance="10" gridtolerance="10" guidetolerance="10" inkscape:pageopacity="0" inkscape:pageshadow="2" inkscape:window-width="1337" inkscape:window-height="758" id="namedview75" showgrid="false" inkscape:zoom="6.2890628" inkscape:cx="11.845962" inkscape:cy="22.578881" inkscape:window-x="0" inkscape:window-y="0" inkscape:window-maximized="0" inkscape:current-layer="svg73" inkscape:document-rotation="0" inkscape:pagecheckerboard="0" inkscape:showpageshadow="2" inkscape:deskcolor="#d1d1d1"/>
  <defs id="defs29">
    <style id="current-color-scheme" type="text/css">.ColorScheme-Text {color:#d8dee9} .ColorScheme-Highlight {color:#3b4252}</style>
  </defs>
  <path id="path1575" style="opacity:1;fill:currentColor;fill-opacity:1;stroke:none;stroke-width:0.65048" class="ColorScheme-Text" d="M 17.726405 13.611064 C 9.0196075 13.611064 8.6529856 13.630862 8.1525417 14.131305 C 7.5130653 14.770782 7.500716 15.258714 7.612769 35.468308 C 7.6903681 49.463863 7.7096724 49.935021 8.2235645 50.784359 C 8.5290729 51.289286 9.2058244 51.865608 9.8198003 52.144445 C 10.830666 52.603533 11.974456 52.627875 32.090752 52.629175 L 53.296363 52.63095 L 54.336846 52.048564 C 55.022608 51.66494 55.577526 51.070976 55.963266 50.306732 C 56.548459 49.147329 56.549204 49.141276 56.549204 35.336916 C 56.549204 21.5295 56.548589 21.527102 55.963266 20.377754 C 55.547291 19.560941 55.045119 19.054659 54.230312 18.630595 C 53.089227 18.036679 53.031348 18.034004 42.442314 18.034004 L 31.801334 18.034004 L 29.290681 15.823422 L 26.780028 13.611064 L 17.726405 13.611064 z M 13.42953 19.827328 L 50.696931 19.827328 C 52.853188 19.827328 54.588976 21.412244 54.588976 23.38024 L 54.588976 47.204814 C 54.588976 49.17281 52.853188 50.75595 50.696931 50.75595 L 13.42953 50.75595 C 11.273273 50.75595 9.5374849 49.17281 9.5374849 47.204814 L 9.5374849 23.38024 C 9.5374849 21.412244 11.273273 19.827328 13.42953 19.827328 z M 42.419232 30.636987 C 41.256443 30.634809 40.374836 30.649489 40.269019 30.67605 C 39.519822 30.864086 39.318449 31.744327 39.91213 32.243876 C 40.102629 32.404171 40.304179 32.536845 40.361349 32.536845 L 40.363124 32.536845 L 40.3649 32.536845 L 40.366675 32.536845 L 40.366675 32.538621 L 40.368451 32.538621 L 40.370226 32.540396 C 40.424587 32.595831 40.468111 33.204733 40.467883 33.969729 C 40.467524 35.189232 40.43414 35.458443 40.249488 35.761277 C 39.787719 36.518581 37.154902 41.287236 36.904317 41.821291 C 36.711271 42.232725 36.642329 42.582593 36.643309 43.117456 C 36.64614 44.621133 37.562393 45.739243 39.042101 46.043592 C 39.29944 46.096529 41.38545 46.130636 43.676334 46.119942 L 47.841817 46.100411 L 48.495226 45.779033 C 49.608745 45.232261 50.230297 44.113163 50.125198 42.845794 C 50.066174 42.134081 49.778227 41.51309 48.39757 39.120652 C 47.861605 38.191915 47.175598 36.988557 46.872357 36.446646 L 46.321931 35.461206 L 46.321931 34.058507 L 46.321931 32.652257 L 46.629104 32.460496 C 46.799372 32.355048 47.004476 32.193616 47.081874 32.100055 C 47.290911 31.847354 47.252037 31.246611 47.0073 30.944161 L 46.792457 30.677825 L 43.658579 30.64409 C 43.227702 30.639516 42.806828 30.637641 42.419232 30.636987 z M 42.38017 32.536845 L 43.394019 32.536845 L 44.406093 32.536845 L 44.406093 34.086916 C 44.406093 35.615763 44.412081 35.648191 44.784289 36.421788 C 44.992003 36.853452 45.681751 38.093944 46.316604 39.17747 C 47.681662 41.507258 48.346079 42.798105 48.346079 43.119232 C 48.346079 43.494789 48.020307 44.018389 47.713976 44.134857 C 47.552072 44.196418 45.64676 44.243166 43.266178 44.243166 L 39.09892 44.243166 L 38.768664 43.914686 C 38.198865 43.344889 38.275353 43.06264 39.722144 40.436348 C 40.427869 39.155277 41.317 37.575859 41.6948 36.92605 L 42.38017 35.743521 L 42.38017 34.140183 L 42.38017 32.536845 z M 41.648635 39.402967 L 41.014758 40.557087 C 40.665562 41.191945 40.191054 42.051442 39.961846 42.469374 L 39.544587 43.229317 L 43.388692 43.229317 L 47.232797 43.229317 L 46.840397 42.526192 C 46.624384 42.139219 46.150983 41.290656 45.78926 40.640538 L 45.1323 39.45801 L 43.390468 39.429601 L 41.648635 39.402967 z " transform="matrix(1.1,0,0,1.1,-3.1845928,-3.2065454)"/>
</svg>
