<?xml version='1.0' encoding='UTF-8'?>
<svg xmlns:inkscape="http://www.inkscape.org/namespaces/inkscape" xmlns:sodipodi="http://sodipodi.sourceforge.net/DTD/sodipodi-0.dtd" xmlns="http://www.w3.org/2000/svg" xmlns:svg="http://www.w3.org/2000/svg" xmlns:rdf="http://www.w3.org/1999/02/22-rdf-syntax-ns#" xmlns:cc="http://creativecommons.org/ns#" xmlns:dc="http://purl.org/dc/elements/1.1/" width="64" height="64" version="1.1" viewBox="0 0 16.933 16.933" id="svg7" sodipodi:docname="network-server.svg" inkscape:version="1.4.2 (ebf0e940d0, 2025-05-08)">
  <sodipodi:namedview id="namedview7" pagecolor="#9c4444" bordercolor="#000000" borderopacity="0.25" inkscape:showpageshadow="2" inkscape:pageopacity="0.0" inkscape:pagecheckerboard="0" inkscape:deskcolor="#d1d1d1" inkscape:zoom="4.3531261" inkscape:cx="36.755195" inkscape:cy="26.073217" inkscape:window-width="1280" inkscape:window-height="669" inkscape:window-x="0" inkscape:window-y="0" inkscape:window-maximized="0" inkscape:current-layer="svg7" showgrid="false"/>
  <defs id="defs2">
    <style id="current-color-scheme" type="text/css">.ColorScheme-Text {color:#d8dee9} .ColorScheme-Highlight {color:#3b4252}</style>
  </defs>
  <metadata id="metadata2">
    <rdf:RDF>
      <cc:Work rdf:about="">
        <dc:format>image/svg+xml</dc:format>
        <dc:type rdf:resource="http://purl.org/dc/dcmitype/StillImage"/>
      </cc:Work>
    </rdf:RDF>
  </metadata>
  <path id="path59" style="fill:currentColor;fill-opacity:1;stroke:none;stroke-width:0.152321;stroke-dasharray:none;stroke-dashoffset:2.2;stroke-opacity:0.6" d="m 8.4883087,2.9103977 c -5.6564573,0 -5.4328474,-0.00848 -5.5523481,0.2148011 -0.027642,0.051648 -0.045027,0.5523255 -0.045027,1.3131649 0,1.358149 0.00246,1.3723941 0.2768059,1.491798 0.1116059,0.048576 1.045671,0.05913 5.2947344,0.060528 4.6873091,0.00161 5.1728811,-0.0049 5.3087581,-0.069386 0.272242,-0.1291916 0.281473,-0.181539 0.26721,-1.540515 L 14.025965,3.1635831 13.88424,3.0366233 13.741789,2.9103994 Z m 3.0839793,0.4753671 c 0.172854,0.00441 0.337511,0.076 0.419272,0.2007768 0.159833,0.2439384 0.05789,0.5303477 -0.232518,0.6532609 -0.172337,0.072946 -0.256729,0.072611 -0.430339,-0.00293 -0.17591,-0.076562 -0.276807,-0.2246427 -0.276807,-0.4059845 0,-0.1906722 0.06128,-0.2977788 0.216277,-0.3779317 0.0939,-0.048557 0.200407,-0.069799 0.304115,-0.067173 z m -1.5848012,0.00223 c 0.5297782,0 0.6734132,0.6504551 0.1867532,0.8451795 -0.1852889,0.074135 -0.2144143,0.075373 -0.4111496,0.01845 C 9.4888716,4.1722618 9.3707942,3.875616 9.5076903,3.6108873 9.5852649,3.4608844 9.7430308,3.3879667 9.9874868,3.3879667 Z m 2.9666142,0 c 0.551942,0 0.724341,0.6413037 0.225874,0.8407507 -0.09688,0.038772 -0.200203,0.068588 -0.229564,0.066433 -0.466249,-0.034216 -0.666615,-0.4546531 -0.361688,-0.7595764 0.128646,-0.128672 0.175273,-0.1476286 0.365378,-0.1476286 z M 8.0778986,3.6049813 c 0.1060239,0 0.2827105,0.1994523 0.2827105,0.3188804 0,0.096581 -0.5598479,0.8837607 -0.8614184,1.2112999 C 7.3013923,5.349993 6.9714143,5.2512094 6.9714143,4.977198 c 0,-0.1132675 0.088478,-0.2584841 0.4362456,-0.7137887 C 7.8349937,3.7039309 7.9365176,3.6049768 8.0778986,3.6049768 Z m -3.6316876,0.00738 c 0.05772,-0.00642 0.1105714,0.019868 0.1742028,0.067167 C 4.8398758,3.8426382 4.8044219,3.9688977 4.3849443,4.5202829 4.1775738,4.7928638 3.9579658,5.0695041 3.8970285,5.1351605 3.7638899,5.2786102 3.5800841,5.2921068 3.4556168,5.1676451 3.2908452,5.0028751 3.339909,4.8800368 3.8254283,4.2456991 4.1683817,3.7976276 4.3192242,3.6264164 4.446211,3.6123681 Z m 1.2268008,0.00147 c 0.01977,1.054e-4 0.039831,0.00365 0.060524,0.00889 0.1417514,0.035549 0.2567918,0.2126824 0.2236583,0.3446893 C 5.930204,4.0749491 5.2041032,5.0469081 5.0529663,5.1779553 4.93588,5.2794762 4.7458202,5.2744605 4.6484616,5.1668785 4.4934371,4.9955789 4.5440294,4.8674093 4.9939159,4.2825799 5.3998747,3.754857 5.5346132,3.6130786 5.6730118,3.6138178 Z m 1.1522497,0.00889 c 0.1223794,-0.00856 0.2605346,0.051525 0.2923061,0.1343236 0.071595,0.1865677 0.01771,0.3032698 -0.3897421,0.8392675 -0.2297614,0.3022434 -0.4490129,0.5739542 -0.4864392,0.6037998 -0.1755359,0.1399714 -0.484963,-0.00526 -0.484963,-0.2273503 0,-0.1508948 0.8758328,-1.3064801 1.0171678,-1.3419526 0.016461,-0.00414 0.034187,-0.00689 0.05167,-0.00812 z M 8.4418053,6.8956181 C 5.8404102,6.8963792 3.244359,6.9210555 3.1522375,6.9686938 2.8927393,7.1028807 2.8909329,7.1113231 2.8909329,8.4575395 c 0,0.7573393 0.017636,1.2619821 0.045027,1.3131648 0.02447,0.045734 0.097335,0.1123213 0.1623919,0.1476286 0.1024845,0.055622 0.8213602,0.064179 5.3810982,0.065696 l 5.262257,0.00143 0.142452,-0.1262235 0.141724,-0.12696 0.01248,-1.217206 c 0.01421,-1.3650505 0.0025,-1.4337043 -0.274589,-1.5493728 -0.113863,-0.047573 -2.720652,-0.070903 -5.3220495,-0.070123 z M 9.9742,7.3850114 c 0.073435,0.0016 0.146222,0.023773 0.237683,0.067172 0.289506,0.13738 0.351544,0.4963862 0.123275,0.7108367 -0.0772,0.072516 -0.174502,0.1068803 -0.3454465,0.1210539 C 9.7638163,8.3028143 9.743513,8.2954969 9.5984851,8.1504724 9.348332,7.9003193 9.4093952,7.576681 9.7320918,7.4418503 9.826289,7.4024897 9.9007621,7.3834122 9.9742042,7.385014 Z m 2.995402,0 c 0.07343,0.0016 0.146226,0.023773 0.237682,0.067172 0.289509,0.13738 0.35155,0.4963862 0.123261,0.7108367 -0.07719,0.072516 -0.174506,0.1068788 -0.345452,0.1210592 -0.225886,0.018732 -0.246187,0.011423 -0.391219,-0.133605 -0.250152,-0.250154 -0.189089,-0.5737922 0.133607,-0.7086221 0.09421,-0.039361 0.168665,-0.058438 0.242111,-0.056836 z m -1.376641,0.0096 c 0.02344,0.0011 0.04612,0.00405 0.06789,0.00889 0.170651,0.037489 0.373072,0.2091883 0.407454,0.3461915 0.03933,0.1566717 -0.07648,0.3962095 -0.229566,0.4753681 C 11.588674,8.3543776 11.203217,8.278196 11.09617,8.0781701 11.02394,7.9431986 11.0452,7.7059883 11.13973,7.5858252 11.23418,7.4657802 11.428751,7.3868113 11.59295,7.3946455 Z m -7.13863,0.2473083 c 0.1614642,0 0.3033779,0.1357715 0.3033779,0.290092 0,0.1446662 -0.8376396,1.262955 -0.9891179,1.3205467 C 3.6280597,9.3059973 3.61257,9.3036116 3.4829278,9.2016316 3.2870834,9.0475834 3.3263523,8.9211247 3.7405408,8.3726947 4.260787,7.6838363 4.3021602,7.641929 4.454331,7.6419273 Z m 1.2371351,0 c 0.1121003,0 0.2819722,0.183043 0.2819722,0.3041165 0,0.1042097 -0.8667091,1.2417336 -0.9898568,1.2991407 -0.1152119,0.053709 -0.1287036,0.053473 -0.2539219,0.00295 C 4.6105954,9.2001024 4.5791911,9.1473286 4.5746486,8.9875765 4.5718329,8.8880674 4.6724896,8.725552 5.0153235,8.2752636 5.4659378,7.6834131 5.5101894,7.6419332 5.6914668,7.6419332 Z m 1.1670119,0.00152 c 0.08279,-0.00346 0.1641899,0.021581 0.214801,0.077507 0.1531251,0.169209 0.096462,0.3120745 -0.3639066,0.9130963 -0.2398462,0.31312 -0.4730949,0.5892685 -0.5181808,0.6133982 -0.045082,0.024136 -0.1135929,0.044292 -0.1520573,0.044292 -0.1049786,0 -0.2827106,-0.1993966 -0.2827106,-0.3166648 0,-0.091032 0.6026454,-0.9381618 0.8791333,-1.2356605 0.05612,-0.060377 0.140131,-0.092505 0.2229216,-0.095955 z m 1.1721786,0.00371 C 8.2287517,7.6259397 8.3974996,7.7941671 8.3465838,7.997032 8.3125258,8.132742 7.5159558,9.1685835 7.3936354,9.2363732 7.2751997,9.3020022 7.2346809,9.3023812 7.1234728,9.2393232 6.8600955,9.0899721 6.904766,8.9382161 7.4076591,8.2789923 7.6477002,7.9643322 7.8892495,7.6891406 7.9442936,7.6678063 c 0.028966,-0.011246 0.058067,-0.017636 0.086363,-0.020671 z m 0.4576521,3.2936093 c -5.6564459,0 -5.4328488,-0.0085 -5.5523481,0.214801 -0.061674,0.115205 -0.060318,2.496842 0.00147,2.612307 0.025394,0.04748 0.1084645,0.12413 0.1845369,0.170509 0.1349077,0.08225 0.2656236,0.08398 5.316141,0.08413 5.6799865,1.79e-4 5.4023325,0.01295 5.5427505,-0.258353 0.06039,-0.116785 0.06861,-0.300845 0.0576,-1.352284 l -0.01248,-1.217943 -0.141725,-0.126214 -0.142451,-0.126955 z m 1.3655731,0.479063 c 0.035913,-2.73e-4 0.079353,0.0033 0.1358146,0.0082 0.1709456,0.01405 0.2682646,0.04781 0.3454536,0.120307 0.228271,0.214451 0.166236,0.573457 -0.123272,0.710839 -0.179558,0.08521 -0.3081797,0.08771 -0.4893916,0.0087 C 9.4085454,12.131292 9.3517715,11.807473 9.5984784,11.560767 9.707248,11.45199 9.7461314,11.42059 9.8538776,11.419785 Z m 1.6490222,0 c 0.239623,-0.0158 0.476577,0.10854 0.546232,0.31962 0.06016,0.182257 0.0019,0.338969 -0.173466,0.468724 -0.332667,0.245997 -0.823774,0.0396 -0.823774,-0.346195 0,-0.19067 0.06128,-0.297781 0.216277,-0.377931 0.07431,-0.03844 0.154866,-0.05896 0.234731,-0.06422 z m 1.346383,0 c 0.03591,-2.73e-4 0.07934,0.0033 0.135817,0.0082 0.170943,0.01405 0.268263,0.04781 0.345457,0.120307 0.22827,0.214452 0.166228,0.573459 -0.123277,0.710841 -0.179561,0.08521 -0.30818,0.08771 -0.489394,0.0088 -0.313942,-0.136639 -0.370714,-0.460441 -0.124003,-0.707149 0.108761,-0.108761 0.147648,-0.140177 0.255401,-0.140982 z M 8.060921,11.63536 c 0.1197989,0 0.2996881,0.191344 0.2996881,0.318882 0,0.09655 -0.5598487,0.883764 -0.8614184,1.211302 -0.205829,0.223551 -0.5277767,0.121081 -0.5277767,-0.168298 0,-0.09601 0.1017596,-0.263483 0.3941708,-0.648097 C 7.8083619,11.76676 7.9361062,11.63536 8.060921,11.63536 Z m -3.5778023,0.0109 c 0.045837,0.0044 0.090038,0.02859 0.1409869,0.06641 0.2142185,0.159185 0.1778995,0.28769 -0.237684,0.837061 -0.2065444,0.273025 -0.4261872,0.549952 -0.4879156,0.61561 -0.1347891,0.14332 -0.3185569,0.156761 -0.4428883,0.03242 C 3.2912374,13.033383 3.3405228,12.910593 3.8232147,12.28098 4.195892,11.794869 4.3456131,11.632694 4.4831196,11.646173 Z m 1.1780829,0.0074 c 0.1110389,0.0033 0.2291888,0.07266 0.2768052,0.177156 0.06895,0.151327 0.00343,0.27159 -0.4952965,0.911612 -0.3684324,0.472809 -0.4202004,0.521919 -0.5587779,0.533682 -0.1104087,0.0093 -0.1746923,-0.01184 -0.233254,-0.07678 -0.1586885,-0.175322 -0.1089886,-0.298409 0.3646444,-0.908634 0.2450063,-0.315665 0.4882075,-0.593347 0.5403243,-0.617091 0.032614,-0.01485 0.068543,-0.02102 0.1055535,-0.01996 z m 1.1611073,7.32e-4 c 0.1048569,-0.0052 0.2374753,0.05073 0.2893531,0.128442 0.1015514,0.152085 0.026132,0.315321 -0.4052427,0.872492 -0.2401703,0.31021 -0.459347,0.577977 -0.4871774,0.595684 -0.1753134,0.11151 -0.4628186,-0.04205 -0.4628186,-0.247282 0,-0.152402 0.879621,-1.30742 1.023073,-1.343427 0.01352,-0.0033 0.027835,-0.0052 0.042814,-0.0056 z" class="ColorScheme-Text"/>
</svg>
