<?xml version='1.0' encoding='UTF-8'?>
<svg xmlns:inkscape="http://www.inkscape.org/namespaces/inkscape" xmlns:sodipodi="http://sodipodi.sourceforge.net/DTD/sodipodi-0.dtd" xmlns="http://www.w3.org/2000/svg" xmlns:svg="http://www.w3.org/2000/svg" xmlns:rdf="http://www.w3.org/1999/02/22-rdf-syntax-ns#" xmlns:cc="http://creativecommons.org/ns#" xmlns:dc="http://purl.org/dc/elements/1.1/" width="64" height="64" version="1.1" viewBox="0 0 16.933 16.933" id="svg7" sodipodi:docname="user-trash-full.svg" inkscape:version="1.4.2 (ebf0e940d0, 2025-05-08)">
  <sodipodi:namedview id="namedview7" pagecolor="#9c4444" bordercolor="#000000" borderopacity="0.25" inkscape:showpageshadow="2" inkscape:pageopacity="0.0" inkscape:pagecheckerboard="0" inkscape:deskcolor="#d1d1d1" inkscape:zoom="4.3531261" inkscape:cx="36.984915" inkscape:cy="26.073217" inkscape:window-width="1280" inkscape:window-height="669" inkscape:window-x="0" inkscape:window-y="0" inkscape:window-maximized="0" inkscape:current-layer="svg7" showgrid="false"/>
  <defs id="defs2">
    <style id="current-color-scheme" type="text/css">.ColorScheme-Text {color:#d8dee9} .ColorScheme-Highlight {color:#3b4252}</style>
  </defs>
  <metadata id="metadata2">
    <rdf:RDF>
      <cc:Work rdf:about="">
        <dc:format>image/svg+xml</dc:format>
        <dc:type rdf:resource="http://purl.org/dc/dcmitype/StillImage"/>
      </cc:Work>
    </rdf:RDF>
  </metadata>
  <path style="fill:currentColor;fill-opacity:1;stroke:none;stroke-width:0.140193;stroke-dasharray:none;stroke-opacity:0.6" class="ColorScheme-Text" d="m 7.2758985,2.9103592 c -0.7937344,0 -0.7937344,0.7937344 -0.7937344,0.7937344 H 4.100961 c 0,0 -0.7937344,0 -0.7937344,0.7937344 V 5.2915623 H 13.625773 V 4.497828 c 0,-0.7937344 -0.793734,-0.7937344 -0.793734,-0.7937344 h -2.381203 c 0,0 0,-0.7937344 -0.7937347,-0.7937344 z M 4.100961,6.0852967 c 0,0 -0.7937344,1.984336 -0.7937344,3.9686723 0,1.984336 1.1747269,3.968672 1.5874688,3.968672 h 7.1436086 c 0.412742,0 1.587469,-1.984336 1.587469,-3.968672 0,-1.9843363 -0.793734,-3.9686723 -0.793734,-3.9686723 z" id="path16"/>
</svg>
