<?xml version='1.0' encoding='UTF-8'?>
<svg xmlns:inkscape="http://www.inkscape.org/namespaces/inkscape" xmlns:sodipodi="http://sodipodi.sourceforge.net/DTD/sodipodi-0.dtd" xmlns="http://www.w3.org/2000/svg" xmlns:svg="http://www.w3.org/2000/svg" xmlns:rdf="http://www.w3.org/1999/02/22-rdf-syntax-ns#" xmlns:cc="http://creativecommons.org/ns#" xmlns:dc="http://purl.org/dc/elements/1.1/" width="64" height="64" version="1.1" viewBox="0 0 16.933 16.933" id="svg7" sodipodi:docname="applications-utilities.svg" inkscape:version="1.4.2 (ebf0e940d0, 2025-05-08)">
  <sodipodi:namedview id="namedview7" pagecolor="#9c4444" bordercolor="#000000" borderopacity="0.25" inkscape:showpageshadow="2" inkscape:pageopacity="0.0" inkscape:pagecheckerboard="0" inkscape:deskcolor="#d1d1d1" inkscape:zoom="6.15625" inkscape:cx="15.837563" inkscape:cy="29.64467" inkscape:window-width="1183" inkscape:window-height="941" inkscape:window-x="0" inkscape:window-y="0" inkscape:window-maximized="0" inkscape:current-layer="svg7" showgrid="false"/>
  <defs id="defs2">
    <style id="current-color-scheme" type="text/css">.ColorScheme-Text {color:#d8dee9} .ColorScheme-Highlight {color:#3b4252}</style>
  </defs>
  <metadata id="metadata2">
    <rdf:RDF>
      <cc:Work rdf:about="">
        <dc:format>image/svg+xml</dc:format>
        <dc:type rdf:resource="http://purl.org/dc/dcmitype/StillImage"/>
      </cc:Work>
    </rdf:RDF>
  </metadata>
  <path style="fill:currentColor;fill-opacity:1;stroke:none;stroke-width:0.293581;stroke-dasharray:none;stroke-dashoffset:2.2;stroke-opacity:0.3" d="M 3.7040769,13.6902 C 3.5147159,13.59038 3.3942428,13.467034 3.3119702,13.288774 3.2432437,13.139865 3.2365662,12.997755 3.2357488,11.666889 l -8.885e-4,-1.458677 0.1734094,9.47e-4 c 0.1171708,6.38e-4 0.2395731,0.03987 0.3774193,0.120942 0.6214862,0.365532 0.8546093,0.410382 1.1471566,0.220691 0.3737346,-0.24232 0.56526,-0.7251112 0.5387376,-1.3580201 C 5.4469549,8.6051007 5.2361692,8.1954952 4.8583705,8.0011648 4.5920934,7.8641983 4.3671603,7.9118657 3.912043,8.2017068 3.661105,8.361517 3.4633926,8.4279243 3.3346986,8.395624 L 3.2348601,8.3705656 V 7.226857 c 0,-1.241524 0.00404,-1.2673602 0.23927,-1.520719 C 3.7076565,5.4545876 3.6987697,5.4559404 5.2082863,5.4420732 L 6.5900817,5.4293853 6.5730773,5.1943124 C 6.5593583,5.0046454 6.5190898,4.8970937 6.3646021,4.6375003 6.0531075,4.1140814 6.0546455,3.8755653 6.3715567,3.5586519 6.6509092,3.2792994 6.9408167,3.1749371 7.4374765,3.1749371 c 0.4966596,0 0.7865677,0.1043623 1.0659197,0.3837148 0.3169133,0.3169134 0.3184514,0.5554295 0.00696,1.0788484 C 8.3551549,4.8982861 8.315625,5.0042465 8.3016962,5.196806 L 8.284509,5.4343718 h 1.1807601 c 1.3301589,0 1.4947629,0.024411 1.7120169,0.2538957 0.241274,0.2548588 0.23675,0.2243464 0.258794,1.7454097 l 0.02041,1.4076737 0.09716,0.013745 c 0.178546,0.02525 0.349054,-0.032476 0.691802,-0.2342073 0.187071,-0.1101038 0.402854,-0.2119568 0.479522,-0.2263394 0.289405,-0.054292 0.668112,0.2257261 0.836472,0.6184981 0.336458,0.7849282 0.02113,1.8252597 -0.610642,2.0145387 -0.153498,0.04599 -0.181106,0.04003 -0.461565,-0.09949 -0.16409,-0.08163 -0.380806,-0.195181 -0.481615,-0.252356 -0.13705,-0.07773 -0.229698,-0.10093 -0.367221,-0.09193 l -0.183928,0.01209 -0.0204,1.305668 c -0.02198,1.40559 -0.02613,1.432861 -0.251136,1.637514 -0.225013,0.204671 -0.303128,0.218982 -1.1953119,0.218982 H 9.1511653 v -0.156291 c 0,-0.0909 0.045004,-0.240293 0.1075436,-0.357019 0.059149,-0.110385 0.1601348,-0.299709 0.2244119,-0.420688 0.3511985,-0.661013 -0.1542593,-1.27253 -1.1071965,-1.339522 -0.7297772,-0.05129 -1.3882451,0.327391 -1.4567013,0.837766 -0.026781,0.199652 0.029313,0.375323 0.2188721,0.685478 0.1701794,0.278446 0.2621846,0.544057 0.2304668,0.665345 -0.022077,0.08442 -0.032908,0.08493 -1.7821422,0.08328 -1.5237855,-0.0015 -1.7763581,-0.01035 -1.88234,-0.06616 z" id="path99" class="ColorScheme-Text"/>
  <g id="g9" transform="matrix(0.34199929,0,0,0.34199929,3.8121192,3.0768583)" style="fill:#999999;fill-opacity:1;stroke:none;stroke-width:0.58349;stroke-dasharray:none;stroke-opacity:0.3"/>
  </svg>
