<?xml version='1.0' encoding='UTF-8'?>
<svg xmlns:inkscape="http://www.inkscape.org/namespaces/inkscape" xmlns:sodipodi="http://sodipodi.sourceforge.net/DTD/sodipodi-0.dtd" xmlns="http://www.w3.org/2000/svg" xmlns:svg="http://www.w3.org/2000/svg" xmlns:rdf="http://www.w3.org/1999/02/22-rdf-syntax-ns#" xmlns:cc="http://creativecommons.org/ns#" xmlns:dc="http://purl.org/dc/elements/1.1/" width="64" height="64" version="1.1" viewBox="0 0 16.933 16.933" id="svg7" sodipodi:docname="device-notifier.svg" inkscape:version="1.4.2 (ebf0e940d0, 2025-05-08)">
  <sodipodi:namedview id="namedview7" pagecolor="#9c4444" bordercolor="#000000" borderopacity="0.25" inkscape:showpageshadow="2" inkscape:pageopacity="0.0" inkscape:pagecheckerboard="0" inkscape:deskcolor="#d1d1d1" inkscape:zoom="6.15625" inkscape:cx="15.675127" inkscape:cy="27.208122" inkscape:window-width="1226" inkscape:window-height="669" inkscape:window-x="0" inkscape:window-y="0" inkscape:window-maximized="0" inkscape:current-layer="svg7" showgrid="false"/>
  <defs id="defs2">
    <style id="current-color-scheme" type="text/css">.ColorScheme-Text {color:#d8dee9} .ColorScheme-Highlight {color:#3b4252}</style>
  </defs>
  <metadata id="metadata2">
    <rdf:RDF>
      <cc:Work rdf:about="">
        <dc:format>image/svg+xml</dc:format>
        <dc:type rdf:resource="http://purl.org/dc/dcmitype/StillImage"/>
      </cc:Work>
    </rdf:RDF>
  </metadata>
  <path id="path1-6" style="fill:currentColor;stroke-width:0.0399342" d="m 8.4400353,3.1749513 c -2.5591944,0 -2.5337322,-0.00164 -2.7624059,0.2118657 -0.2157822,0.2014742 -0.2064335,0.023987 -0.2064335,3.9113713 v 3.6071537 l 0.090314,0.175876 c 0.1024876,0.20057 0.2391512,0.314596 0.4339181,0.36058 0.1887106,0.04455 4.732335,0.04576 4.923845,0.0013 0.215515,-0.04999 0.346416,-0.154811 0.452253,-0.361937 L 11.461846,10.9053 V 7.3185328 c 0,-3.8599289 0.0063,-3.7371969 -0.205755,-3.9324224 C 11.029502,3.177519 10.996969,3.1749374 8.4400353,3.1749374 Z M 8.1072968,5.0919308 H 8.4665186 8.8257399 V 6.669381 8.2468316 H 8.4665186 8.1072968 V 6.669381 Z m 0.3843471,3.8339588 c 0.1939958,0 0.334407,0.1469798 0.3327377,0.3476776 C 8.8229911,9.4391195 8.7732256,9.526667 8.6389991,9.598156 8.4912693,9.6768371 8.3489274,9.6523674 8.224095,9.5275352 8.0936275,9.3970689 8.0756412,9.2623309 8.165696,9.0881846 8.2329178,8.958194 8.2982054,8.92589 8.4916439,8.9258896 Z M 6.2303815,12.280433 v 0.738817 0.738813 H 8.4665186 10.702654 V 13.01925 12.280433 H 8.4665186 Z" class="ColorScheme-Text"/>
</svg>
