<?xml version='1.0' encoding='UTF-8'?>
<svg xmlns:inkscape="http://www.inkscape.org/namespaces/inkscape" xmlns:sodipodi="http://sodipodi.sourceforge.net/DTD/sodipodi-0.dtd" xmlns="http://www.w3.org/2000/svg" xmlns:svg="http://www.w3.org/2000/svg" xmlns:rdf="http://www.w3.org/1999/02/22-rdf-syntax-ns#" xmlns:cc="http://creativecommons.org/ns#" xmlns:dc="http://purl.org/dc/elements/1.1/" width="64" height="64" version="1.1" viewBox="0 0 16.933 16.933" id="svg7" sodipodi:docname="drive-removable-media.svg" inkscape:version="1.4.2 (ebf0e940d0, 2025-05-08)">
  <sodipodi:namedview id="namedview7" pagecolor="#9c4444" bordercolor="#000000" borderopacity="0.25" inkscape:showpageshadow="2" inkscape:pageopacity="0.0" inkscape:pagecheckerboard="0" inkscape:deskcolor="#d1d1d1" inkscape:zoom="6.15625" inkscape:cx="15.675127" inkscape:cy="27.208122" inkscape:window-width="1226" inkscape:window-height="669" inkscape:window-x="0" inkscape:window-y="0" inkscape:window-maximized="0" inkscape:current-layer="svg7" showgrid="false"/>
  <defs id="defs2">
    <style id="current-color-scheme" type="text/css">.ColorScheme-Text {color:#d8dee9} .ColorScheme-Highlight {color:#3b4252}</style>
  </defs>
  <metadata id="metadata2">
    <rdf:RDF>
      <cc:Work rdf:about="">
        <dc:format>image/svg+xml</dc:format>
        <dc:type rdf:resource="http://purl.org/dc/dcmitype/StillImage"/>
      </cc:Work>
    </rdf:RDF>
  </metadata>
  <path id="path1-5" style="fill:currentColor;stroke-width:0.0399342" d="m 8.4400352,3.1749513 c -2.5591937,0 -2.5337315,-0.00164 -2.7624051,0.2118662 C 5.4618479,3.5882915 5.4711966,3.410804 5.4711966,7.2981876 V 10.90534 l 0.090314,0.175876 c 0.1024875,0.200571 0.2391511,0.314597 0.433918,0.360581 0.1887105,0.04455 4.7323334,0.04576 4.9238434,0.0013 0.215516,-0.04999 0.346416,-0.154815 0.452254,-0.361942 l 0.09032,-0.175876 V 7.3185321 c 0,-3.8599279 0.0063,-3.7371959 -0.205754,-3.9324214 C 11.029506,3.1775192 10.996972,3.1749375 8.4400391,3.1749375 Z M 8.8875341,5.6521528 9.6046186,6.3705954 10.322383,7.0890379 9.6243111,7.7877883 C 9.240413,8.1721573 8.9170938,8.4865384 8.9051897,8.4865384 c -0.011903,0 -0.1288287,-0.1077591 -0.2593998,-0.2397076 L 8.408799,8.0064447 8.8658042,7.5480807 9.3234892,7.0890379 8.875311,6.6388228 C 8.6285769,6.3913872 8.4264544,6.1708507 8.4264544,6.1485437 c 0,-0.022308 0.1034769,-0.1435061 0.2302003,-0.2689066 z m -1.1408162,0.013582 c 0.018766,5.372e-4 0.038226,0.0033 0.05772,0.00815 0.1924435,0.048303 0.2523762,0.3239405 0.094389,0.4345996 C 7.7081315,6.242052 7.508369,6.1345985 7.508369,5.8986555 c 0,-0.1376841 0.1070064,-0.2366178 0.2383496,-0.2329181 z M 7.0391394,7.0530492 c 0.085849,-0.00225 0.1723424,0.022593 0.2566846,0.074016 0.1423811,0.086816 0.2000108,0.1737242 0.2125443,0.3211942 0.018496,0.2175895 -0.0054,0.2926454 -0.135811,0.4230525 C 7.2581678,7.9857037 7.2082968,8.007124 7.0561162,8.007124 c -0.4763667,0 -0.6646068,-0.6022463 -0.2709437,-0.8671559 0.08296,-0.055825 0.1681207,-0.084663 0.2539669,-0.086919 z m 1.0002524,1.3974999 c 0.090058,6.005e-4 0.1352455,0.024559 0.2166188,0.09303 0.2422625,0.2038508 0.256192,0.5294766 0.031917,0.7401727 C 8.1517833,9.4116546 7.8854172,9.433002 7.720236,9.3292494 7.5554277,9.22573 7.5083702,9.1318831 7.5083702,8.9089128 c 0,-0.2634661 0.1517517,-0.4255044 0.4230529,-0.4515731 0.043102,-0.00414 0.077951,-0.00696 0.1079698,-0.00679 z M 6.230382,12.280434 v 0.738812 0.738816 H 8.4665186 10.702654 V 13.019247 12.280434 H 8.4665186 Z" class="ColorScheme-Text"/>
</svg>
