<?xml version='1.0' encoding='UTF-8'?>
<svg xmlns:inkscape="http://www.inkscape.org/namespaces/inkscape" xmlns:sodipodi="http://sodipodi.sourceforge.net/DTD/sodipodi-0.dtd" xmlns="http://www.w3.org/2000/svg" xmlns:svg="http://www.w3.org/2000/svg" xmlns:rdf="http://www.w3.org/1999/02/22-rdf-syntax-ns#" xmlns:cc="http://creativecommons.org/ns#" xmlns:dc="http://purl.org/dc/elements/1.1/" width="64" height="64" version="1.1" viewBox="0 0 16.933 16.933" id="svg7" sodipodi:docname="preferences-desktop-notification.svg" inkscape:version="1.4.2 (ebf0e940d0, 2025-05-08)">
  <sodipodi:namedview id="namedview7" pagecolor="#9c4444" bordercolor="#000000" borderopacity="0.25" inkscape:showpageshadow="2" inkscape:pageopacity="0.0" inkscape:pagecheckerboard="0" inkscape:deskcolor="#d1d1d1" inkscape:zoom="6.15625" inkscape:cx="15.756345" inkscape:cy="27.208122" inkscape:window-width="1226" inkscape:window-height="669" inkscape:window-x="0" inkscape:window-y="0" inkscape:window-maximized="0" inkscape:current-layer="svg7" showgrid="false"/>
  <defs id="defs2">
    <style id="current-color-scheme" type="text/css">.ColorScheme-Text {color:#d8dee9} .ColorScheme-Highlight {color:#3b4252}</style>
  </defs>
  <metadata id="metadata2">
    <rdf:RDF>
      <cc:Work rdf:about="">
        <dc:format>image/svg+xml</dc:format>
        <dc:type rdf:resource="http://purl.org/dc/dcmitype/StillImage"/>
      </cc:Work>
    </rdf:RDF>
  </metadata>
  <path id="path7" class="ColorScheme-Text" style="fill:currentColor;fill-opacity:1" d="M 16 2 C 14.015625 2 12.5 3.5470448 12.5 5.4767578 C 12.499783 5.6435058 12.513573 5.8360306 12.542383 6.0003906 C 8.9277916 7.2277166 8.0048889 10.528186 8.0005859 14.263672 C 8.0005859 19.144046 4 23.048044 2 25.000195 L 2 25.999609 L 12.535547 25.999609 A 3.5 3.5 0 0 0 12.5 26.5 A 3.5 3.5 0 0 0 16 30 A 3.5 3.5 0 0 0 19.5 26.5 A 3.5 3.5 0 0 0 19.464453 25.999609 L 30 25.999609 L 30 25.000195 C 28 23.048045 23.999414 19.144046 23.999414 14.263672 C 23.995114 10.528186 23.072207 7.2277166 19.457617 6.0003906 C 19.486427 5.8360306 19.50022 5.6435058 19.5 5.4767578 C 19.5 3.5470448 17.984375 2 16 2 z " transform="matrix(0.37796874,0,0,0.37796874,2.419,2.419)"/>
</svg>
