<?xml version='1.0' encoding='UTF-8'?>
<svg xmlns:inkscape="http://www.inkscape.org/namespaces/inkscape" xmlns:sodipodi="http://sodipodi.sourceforge.net/DTD/sodipodi-0.dtd" xmlns="http://www.w3.org/2000/svg" xmlns:svg="http://www.w3.org/2000/svg" xmlns:rdf="http://www.w3.org/1999/02/22-rdf-syntax-ns#" xmlns:cc="http://creativecommons.org/ns#" xmlns:dc="http://purl.org/dc/elements/1.1/" width="64" height="64" version="1.1" viewBox="0 0 16.933 16.933" id="svg7" sodipodi:docname="preferences-other.svg" inkscape:version="1.4.2 (ebf0e940d0, 2025-05-08)">
  <sodipodi:namedview id="namedview7" pagecolor="#9c4444" bordercolor="#000000" borderopacity="0.25" inkscape:showpageshadow="2" inkscape:pageopacity="0.0" inkscape:pagecheckerboard="0" inkscape:deskcolor="#d1d1d1" inkscape:zoom="6.15625" inkscape:cx="15.756345" inkscape:cy="29.64467" inkscape:window-width="1226" inkscape:window-height="669" inkscape:window-x="0" inkscape:window-y="0" inkscape:window-maximized="0" inkscape:current-layer="svg7" showgrid="false"/>
  <defs id="defs2">
    <style id="current-color-scheme" type="text/css">.ColorScheme-Text {color:#d8dee9} .ColorScheme-Highlight {color:#3b4252}</style>
  </defs>
  <metadata id="metadata2">
    <rdf:RDF>
      <cc:Work rdf:about="">
        <dc:format>image/svg+xml</dc:format>
        <dc:type rdf:resource="http://purl.org/dc/dcmitype/StillImage"/>
      </cc:Work>
    </rdf:RDF>
  </metadata>
  <path id="path5" style="fill:currentColor;fill-opacity:1;stroke:none;stroke-width:0.419966;stroke-dasharray:none;stroke-opacity:0.3" d="m 13.758063,8.4664995 c 0,0.8356655 -0.677686,1.5118764 -1.511875,1.5118764 -0.835666,0 -1.511876,-0.6762109 -1.511876,-1.5118764 0,-0.8356656 0.67621,-1.5118754 1.511876,-1.5118754 0.834189,0 1.511875,0.6762101 1.511875,1.5118754 z m 0,0 m -3.7796886,0 c 0,0.8356655 -0.677686,1.5118764 -1.5118746,1.5118764 -0.8356656,0 -1.511875,-0.6762109 -1.511875,-1.5118764 0,-0.8356656 0.6762094,-1.5118754 1.511875,-1.5118754 0.8341886,0 1.5118746,0.6762101 1.5118746,1.5118754 z m 0,0 m -3.7796871,0 c 0,0.8356655 -0.6776861,1.5118764 -1.5118749,1.5118764 -0.835666,0 -1.5118751,-0.6762109 -1.5118751,-1.5118764 0,-0.8356656 0.6762091,-1.5118754 1.5118751,-1.5118754 0.8341888,0 1.5118749,0.6762101 1.5118749,1.5118754 z m 0,0" class="ColorScheme-Text"/>
</svg>
