<?xml version='1.0' encoding='UTF-8'?>
<svg xmlns:inkscape="http://www.inkscape.org/namespaces/inkscape" xmlns:sodipodi="http://sodipodi.sourceforge.net/DTD/sodipodi-0.dtd" xmlns="http://www.w3.org/2000/svg" xmlns:svg="http://www.w3.org/2000/svg" xmlns:rdf="http://www.w3.org/1999/02/22-rdf-syntax-ns#" xmlns:cc="http://creativecommons.org/ns#" xmlns:dc="http://purl.org/dc/elements/1.1/" width="64" height="64" version="1.1" viewBox="0 0 16.933 16.933" id="svg7" sodipodi:docname="preferences-system-network-iscsi.svg" inkscape:version="1.4.2 (ebf0e940d0, 2025-05-08)">
  <sodipodi:namedview id="namedview7" pagecolor="#9c4444" bordercolor="#000000" borderopacity="0.25" inkscape:showpageshadow="2" inkscape:pageopacity="0.0" inkscape:pagecheckerboard="0" inkscape:deskcolor="#d1d1d1" inkscape:zoom="4.3531261" inkscape:cx="36.410615" inkscape:cy="40.200995" inkscape:window-width="1543" inkscape:window-height="1372" inkscape:window-x="0" inkscape:window-y="0" inkscape:window-maximized="0" inkscape:current-layer="svg7" showgrid="false"/>
  <defs id="defs2">
    <style id="current-color-scheme" type="text/css">.ColorScheme-Text {color:#d8dee9} .ColorScheme-Highlight {color:#3b4252}</style>
  </defs>
  <metadata id="metadata2">
    <rdf:RDF>
      <cc:Work rdf:about="">
        <dc:format>image/svg+xml</dc:format>
        <dc:type rdf:resource="http://purl.org/dc/dcmitype/StillImage"/>
      </cc:Work>
    </rdf:RDF>
  </metadata>
  <path id="path8" class="ColorScheme-Text" style="fill:currentColor;fill-opacity:1;stroke-width:0.377968" d="M 3.9308752,3.1749377 V 13.758062 h 1.1339072 v -1.133905 h 6.8034366 v 1.133905 h 1.133906 V 3.1749377 Z m 2.6457813,0.7559376 h 3.7796885 a 1.8898437,1.8898437 0 0 1 1.889843,1.8898436 v 1.802734 a 1.1339062,1.1339062 0 0 0 -0.374277,0.7655339 0.75593749,0.75593749 0 0 0 -0.0037,0.077513 0.75593749,0.75593749 0 0 0 0.0014,0.043557 1.1339062,1.1339062 0 0 0 0.376494,0.8002318 V 10.734313 L 11.112216,11.86822 H 5.8207234 L 4.6868176,10.734314 V 9.3095502 a 1.1339062,1.1339062 0 0 0 0.3742767,-0.7655346 1.1339062,1.1339062 0 0 0 0,-0.00221 0.75593749,0.75593749 0 0 0 0.00371,-0.075283 0.75593749,0.75593749 0 0 0 -0.00143,-0.043557 A 1.1339062,1.1339062 0 0 0 4.686814,7.6227318 V 5.8207189 A 1.8898437,1.8898437 0 0 1 6.5766565,3.9308753 Z m 1.8913203,0.7559374 c -0.1205713,0 -0.2371742,0.00964 -0.3543462,0.023623 a 3.0917843,3.0917843 0 0 0 -0.3425337,0.059057 c -0.035526,0.00831 -0.069654,0.02523 -0.1055714,0.035435 -0.032131,0.0087 -0.063499,0.014534 -0.0945,0.024362 -0.040055,0.012471 -0.081429,0.022206 -0.1188574,0.035435 -0.04044,0.014363 -0.078057,0.031371 -0.1181142,0.047246 -0.077857,0.031371 -0.1499584,0.068524 -0.2244188,0.1055657 -0.026832,0.013986 -0.056958,0.02181 -0.083414,0.036173 -0.086928,0.045356 -0.1660418,0.0995 -0.2473042,0.1535497 -0.030997,0.020788 -0.064255,0.036775 -0.094486,0.05832 -0.012432,0.00907 -0.022959,0.014171 -0.035426,0.023623 -0.035526,0.026836 -0.072286,0.053937 -0.1062996,0.083419 -0.04044,0.033261 -0.079186,0.070036 -0.1181142,0.1055658 -0.012146,0.011343 -0.023344,0.024096 -0.035426,0.035435 l -0.011861,0.011814 c -0.00571,0.00567 -0.00685,0.01733 -0.011854,0.023623 -0.079372,0.077106 -0.1663071,0.1508096 -0.2362313,0.2362304 v 7.346e-4 h -7.132e-4 v 7.346e-4 7.347e-4 c -9.13e-5,0.00241 0.00136,0.0062 0.00143,0.00811 h -6.089e-4 v 7.346e-4 7.346e-4 c -0.068413,0.083153 -0.1296429,0.1698792 -0.1889842,0.2605921 -0.008,0.012096 -0.015684,0.022581 -0.023629,0.035433 -0.00571,0.00907 -0.018316,0.013801 -0.024357,0.023622 -0.022674,0.037045 -0.038272,0.079185 -0.059055,0.1181156 -0.00685,0.012474 -0.016818,0.022959 -0.023629,0.035433 -0.028344,0.055182 -0.056231,0.1094214 -0.082686,0.1653613 l -7.132e-4,7.846e-4 v 7.845e-4 7.846e-4 7.845e-4 c 1.89e-4,0.00207 7.132e-4,0.00478 7.132e-4,0.00663 v 7.845e-4 7.846e-4 7.845e-4 A 3.0335771,3.0335771 0 0 0 5.6088717,6.7423068 c -0.00715,0.020413 -0.016818,0.039763 -0.023629,0.059797 l -7.132e-4,7.845e-4 v 7.846e-4 c -2.425e-4,0.00242 6.504e-4,0.00585 7.132e-4,0.00813 v 7.845e-4 7.846e-4 c -0.00757,0.023815 -0.017189,0.047793 -0.024357,0.071607 -0.027588,0.09676 -0.052729,0.1936323 -0.070874,0.2945499 -0.012859,0.072569 -0.027873,0.1499591 -0.035426,0.2244188 a 3.0630587,3.0630587 0 0 0 -0.011854,0.3076461 c 0,0.1523214 0.013573,0.3018262 0.035426,0.4480994 0.00228,0.015499 -0.00271,0.032124 0,0.047244 0.016625,0.1005402 0.044413,0.1989066 0.070874,0.295288 0.00986,0.03666 0.024827,0.070396 0.036175,0.1063046 0.015113,0.048756 0.029856,0.093755 0.047244,0.1410003 A 2.985953,2.985953 0 0 0 5.7269367,8.98576 c 0.0189,0.040069 0.037915,0.079929 0.058314,0.1188574 A 3.02375,3.02375 0 0 0 5.9742349,9.423529 c 0.00599,0.009 0.017931,0.014557 0.024357,0.023629 0.074843,0.1058282 0.14892,0.2118513 0.2362298,0.3071001 0.015113,0.016633 0.031746,0.030997 0.047244,0.047244 0.015113,0.015869 0.031746,0.03176 0.047244,0.047244 0.080886,0.080886 0.1698967,0.1529829 0.2598527,0.2244199 0.1156571,0.09223 0.2376484,0.173221 0.3661573,0.247303 0.00456,0.0037 0.00685,0.0091 0.011141,0.01186 0.020413,0.01128 0.039755,0.02447 0.059797,0.03543 0.1190571,0.05897 0.2613654,0.123386 0.3543455,0.1661 0.041574,0.01587 0.087214,0.02144 0.1299288,0.03543 0.020028,0.0069 0.039028,0.0172 0.059055,0.02363 0.051402,0.0155 0.1006572,0.03401 0.1528135,0.04724 l 0.047244,0.01185 c 0.1103714,0.02646 0.2276312,0.04583 0.3425338,0.05906 0.117172,0.01357 0.2341329,0.02363 0.3550829,0.02363 0.1285146,0 0.2532404,-0.0077 0.3779705,-0.02363 0.137957,-0.01815 0.2570184,-0.04742 0.3779684,-0.0716 A 2.9893549,2.9893549 0 0 0 10.817016,9.6007924 c 0.01057,-0.013287 0.02523,-0.021832 0.03543,-0.035426 0.0037,-0.00456 0.0084,-0.00729 0.01185,-0.011141 0.0053,-0.00715 0.0069,-0.017189 0.01185,-0.024357 a 3.010143,3.010143 0 0 0 0.5079,-1.0622971 c 0.02117,-0.082018 0.0447,-0.1633771 0.05906,-0.2480416 0.0018,-0.01134 -0.0019,-0.023715 0,-0.035433 0.0023,-0.015121 0.0096,-0.029863 0.01185,-0.047244 0.0023,-0.016254 0.0099,-0.03099 0.01185,-0.047244 h -0.01185 c 0.01625,-0.1243514 0.03543,-0.2490816 0.03543,-0.3779691 0,-0.2082606 -0.01899,-0.4172772 -0.05905,-0.6141989 -0.0034,-0.016254 -0.008,-0.03099 -0.01114,-0.047244 -0.01776,-0.07824 -0.04742,-0.1591427 -0.07161,-0.2354924 v -7.845e-4 -7.846e-4 c -2.92e-4,-0.00292 2.93e-4,-0.00685 0,-0.0096 v -7.846e-4 a 1.2998345,1.2998345 0 0 0 -0.01114,-0.035433 c -0.01511,-0.045354 -0.03136,-0.097515 -0.04799,-0.1417385 -0.0046,-0.012103 -0.0066,-0.024835 -0.01114,-0.036175 -0.01662,-0.041574 -0.04166,-0.077673 -0.0598,-0.1181157 -1.96e-4,-0.00164 9.27e-4,-0.00837 7.84e-4,-0.011069 h -7.84e-4 v -7.845e-4 c -0.0094,-0.020413 -0.0256,-0.039028 -0.03543,-0.059055 a 2.9530699,2.9530699 0 0 0 -0.11812,-0.2243507 c -0.02192,-0.037038 -0.03563,-0.081091 -0.05906,-0.1173767 -0.009,-0.013601 -0.02598,-0.022566 -0.03543,-0.036175 -0.02533,-0.037801 -0.05547,-0.06928 -0.08269,-0.1055659 -0.03024,-0.037798 -0.05283,-0.08219 -0.08269,-0.1188529 l -7.85e-4,-7.346e-4 v -7.347e-4 -7.346e-4 -7.346e-4 c 1.17e-4,-0.0022 6.04e-4,-0.00483 7.85e-4,-0.00664 V 5.7877454 5.7870108 5.7862761 C 10.740066,5.7066941 10.66468,5.63384 10.591734,5.561648 c -0.03516,-0.034773 -0.06928,-0.07306 -0.105571,-0.1055657 -0.011,-0.00983 -0.02521,-0.014911 -0.03617,-0.024361 A 3.0732639,3.0732639 0 0 0 10.20269,5.2427369 C 10.18191,5.2287509 10.1648,5.2102149 10.14363,5.1962279 10.11717,5.1788409 10.08778,5.1656129 10.06094,5.1489819 10.0103,5.1172319 9.9603112,5.0832139 9.9073904,5.0544889 A 3.058901,3.058901 0 0 0 9.7656502,4.982882 2.985953,2.985953 0 0 0 9.5176096,4.8773162 2.8910829,2.8910829 0 0 0 9.2105098,4.7828234 2.9319036,2.9319036 0 0 0 8.466382,4.6883234 Z m -0.00143,0.3794451 a 2.6544744,2.6544744 0 0 1 0.5315186,0.059057 h 0.011141 c 0.063114,0.013229 0.1281287,0.02986 0.1889842,0.047246 0.03666,0.0102 0.071514,0.023717 0.1070427,0.035435 0.065018,0.021544 0.1262429,0.044033 0.1889842,0.070868 0.073328,0.030237 0.1430612,0.057451 0.2126081,0.094493 l -0.03544,0.011815 a 0.12057203,0.12057203 0 0 0 -0.047244,0.047246 c -0.00757,0.018143 0.00185,0.043277 0,0.070868 4.544e-4,2.008e-4 0.00171,0.00123 0.00228,0.00147 0.01286,0.00837 0.021996,0.033367 0.045026,0.04577 0.003,0.00165 0.00642,0.0018 0.00886,0.00147 0.00471,-0.00103 0.00929,-0.00384 0.014757,-0.00147 0.014357,0.00794 0.026268,0.032883 0.023629,0.047246 -9.272e-4,0.00454 -0.00371,0.00833 -0.0067,0.010329 -0.01057,0.00598 -0.030112,0.00167 -0.040597,0.013285 0.00228,0.029481 -0.016069,0.039782 -0.023629,0.059058 1.412e-4,3.893e-4 5.67e-4,0.00185 7.845e-4,0.00221 l 7.846e-4,7.346e-4 7.845e-4,7.347e-4 c 0.00514,0.0065 0.01547,0.00839 0.019928,0.015503 l 7.846e-4,7.346e-4 c 4.537e-4,0.00109 5.299e-4,0.00231 7.845e-4,0.00369 -0.00185,0.011686 -0.017103,0.017202 -0.022887,0.0251 -2.146e-4,3.573e-4 -0.00128,0.00184 -0.00143,0.00221 -2.674e-4,7.845e-4 7.14e-5,0.00283 0,0.00369 5.27e-5,0.00136 1.355e-4,0.00283 7.845e-4,0.00443 0.027217,0.021166 0.056602,-0.00767 0.082686,-0.011071 0.056317,-0.00756 0.1069715,0.015024 0.1417428,-0.011815 -0.00456,-0.026836 0.037701,-0.034867 0.035426,-0.059057 -2.825e-4,-0.00227 -0.00185,-0.00548 -0.003,-0.00739 -0.00872,-0.012243 -0.033129,-0.017528 -0.044299,-0.028053 -0.00757,-0.0068 -0.014928,-0.022206 -0.023629,-0.035435 -0.00986,-0.015118 -0.0241,-0.032883 -0.035426,-0.047246 -0.015113,-0.019655 -0.047244,-0.044317 -0.047244,-0.059057 0,-0.017008 0.019471,-0.023811 0.023629,-0.047246 -0.00456,-0.021545 -0.044227,-5.482e-4 -0.047244,-0.024362 a 0.06123094,0.06123094 0 0 1 0.011141,-0.023623 c 0.056702,0.030993 0.1131858,0.067752 0.1660981,0.1063043 l 0.035426,0.023623 c 0.040818,0.030616 0.078785,0.064254 0.1188573,0.094493 -0.02533,0.00453 -0.03827,0.034112 -0.05906,0.059057 A 0.1753775,0.1753775 0 0 1 9.944135,5.715849 l -7.845e-4,7.346e-4 c -0.00914,0.00306 -0.022474,-0.00423 -0.031746,-0.00221 -3.36e-4,1.003e-4 -0.00185,6.086e-4 -0.00228,7.346e-4 L 9.90854,5.7158428 c -0.014001,0.00944 -0.019186,0.036285 -0.035426,0.047246 -0.011283,0.00733 -0.045982,0.033787 -0.059055,0.035435 -0.013002,0 -0.033828,-0.012014 -0.045026,-0.011814 -3.652e-4,3.8e-5 -0.00185,-7.11e-5 -0.00228,0 -9.272e-4,3.071e-4 -0.00285,0.00177 -0.00371,0.00221 -3.474e-4,2.563e-4 -0.00185,0.00119 -0.00228,0.00147 -2.774e-4,3.135e-4 -0.00121,0.00187 -0.00143,0.00221 -0.00442,0.00723 -0.00456,0.019656 -0.011141,0.026576 -3.651e-4,3.215e-4 -0.00185,0.00191 -0.00228,0.00221 -9.272e-4,5.33e-4 -0.00185,0.00108 -0.003,0.00147 -0.033258,0.011343 -0.094585,-0.026647 -0.1063003,0.023623 0.014357,0.028726 0.057729,0.018804 0.082686,0.035435 a 0.17953516,0.17953516 0 0 1 0.047244,0.070869 0.24341187,0.24341187 0 0 1 0,0.08268 c -0.015498,0.040062 -0.060575,0.036567 -0.1063003,0.035433 -0.01286,-3.773e-4 -0.023715,0 -0.035426,0 -0.078243,-0.00528 -0.1538345,-0.031582 -0.1889846,0.024364 0.00271,0.042708 0.00943,0.068905 0,0.1055657 -0.00685,0.027217 -0.036574,0.047059 -0.035426,0.070866 7.845e-4,0.012103 0.020598,0.03099 0.023629,0.047244 0.00171,0.00814 -0.00357,0.026047 -7.845e-4,0.034698 l 7.845e-4,7.846e-4 c 0.01286,0.024949 0.047815,-0.00378 0.070874,0 0.022303,0.00378 0.04763,0.046281 0.047244,0.071607 a 0.13077719,0.13077719 0 0 1 -0.023629,0.059055 c -0.021925,0.034014 -0.063114,0.029107 -0.094486,0.047244 -0.026461,0.014742 -0.031746,0.044791 -0.047244,0.070866 -0.016625,0.027973 -0.030426,0.041481 -0.023629,0.082682 a 0.18331484,0.18331484 0 0 1 -0.094486,0.094493 c -0.014001,0.00642 -0.03477,0.01455 -0.047244,0.023622 a 0.23812031,0.23812031 0 0 0 -0.035426,0.035433 c -0.017759,0.019656 -0.037801,0.032124 -0.047244,0.047244 -0.00757,0.01134 -0.00385,0.031753 -0.011854,0.047244 -0.011283,0.021169 -0.033258,0.037894 -0.047244,0.059055 -0.00642,0.00983 -0.016797,0.022203 -0.024357,0.035433 -0.015869,0.029107 -0.038086,0.05698 -0.035426,0.082682 0.00271,0.024949 0.033543,0.025705 0.035426,0.047244 0.00157,0.012096 -0.011854,0.022581 -0.011141,0.035433 0,0.019279 0.01,0.032502 0.011141,0.047244 0.00371,0.037794 -0.01644,0.045169 -0.023629,0.070866 -0.00371,0.012096 0.003,0.025605 0,0.035433 -0.00599,0.018901 -0.035055,0.037138 -0.035426,0.059055 -3.773e-4,0.015876 0.022117,0.03676 0.023629,0.059055 7.845e-4,0.01512 -0.014457,0.021454 -0.011854,0.035433 0.00528,0.027588 0.061873,0.061138 0.083414,0.08268 0.028344,0.028351 0.058399,0.053185 0.070873,0.083418 0.010142,0.025327 0.015028,0.063406 0.035426,0.08268 0.014742,0.013986 0.040155,0.020313 0.059055,0.035433 0.017759,0.013601 0.04054,0.020691 0.059055,0.035433 0.030241,0.024193 0.068969,0.074271 0.1181142,0.070866 0.025698,-0.00378 0.053571,-0.018708 0.082686,-0.023622 0.029856,-0.00528 0.064255,-0.015213 0.094486,-0.011811 0.022688,0.00378 0.046688,0.024756 0.070874,0.023622 0.025327,0 0.053956,-0.022959 0.082685,-0.035433 0.049512,-0.021547 0.1282293,-0.057829 0.200796,-0.047244 0.055183,0.00756 0.056702,0.082491 0.094486,0.1063045 0.0446,0.00378 0.08297,-0.020505 0.118114,-0.011811 0.02646,0.00642 0.05679,0.05044 0.05905,0.071607 0.0027,0.021925 -0.02023,0.044712 -0.02363,0.058321 -0.0069,0.029485 -0.0069,0.064162 -0.01185,0.08268 -0.0046,0.014364 -0.01215,0.032509 -0.01185,0.047244 a 0.20410312,0.20410312 0 0 0 0.03543,0.070866 c 0.01662,0.021169 0.03903,0.036382 0.05906,0.059055 a 0.68034374,0.68034374 0 0 1 0.08341,0.1417385 c 0.006,0.013986 -0.0064,0.0291 0,0.047244 -0.01128,0.084666 -0.03931,0.1424946 -0.09449,0.2362306 -0.02645,0.030234 -0.06056,0.056695 -0.0598,0.094493 -0.0019,0.090714 0.0514,0.1485413 0.04724,0.2362299 -0.009,0.1179288 0.0091,0.125857 0,0.1889842 0.03968,0.020027 0.01171,0.087972 0,0.1299288 -0.01702,0.049883 -0.0378,0.061231 -0.04724,0.094486 0.02685,0.011283 0.06463,0.00715 0.09449,0 0,0 0.03618,0.1512832 0.03543,0.1535505 A 2.6469151,2.6469151 0 0 1 9.2238022,10.252914 c -0.2078833,0.05027 -0.2697573,0.05008 -0.3668961,0.07087 a 2.4125744,2.4125744 0 0 1 -0.3890413,0.03618 c -0.091842,0 -0.1832027,-0.0038 -0.2724041,-0.01185 -0.068784,-0.0068 -0.1335285,-0.02334 -0.200057,-0.03543 a 2.7100359,2.7100359 0 0 1 -0.059055,-0.01185 C 7.8747325,10.280045 7.804063,10.26757 7.7473642,10.253584 A 2.6711051,2.6711051 0 0 1 7.55838,10.194529 c 0.00271,-0.0024 0.00599,-0.0038 0.00815,-0.0051 l 7.845e-4,-7.85e-4 v -7.8e-4 l 7.797e-4,-7.84e-4 7.845e-4,-7.85e-4 c 1.669e-4,-3.08e-4 6.041e-4,-0.0018 7.846e-4,-0.0023 1.198e-4,-4.16e-4 6.426e-4,-9.98e-4 7.845e-4,-0.0014 0.00371,-0.01511 7.846e-4,-0.02343 0,-0.04724 0.00571,-0.02457 0.030141,-0.02193 0.035426,-0.04724 -0.01057,-0.01814 -0.031375,-0.01414 -0.047244,-0.02363 a 0.05026984,0.05026984 0 0 1 -0.024357,-0.04724 c 0.026461,-0.011 0.075599,0.02486 0.094486,-0.01185 0.00943,-0.017389 -0.01286,-0.052729 0,-0.070874 2.725e-4,-3.559e-4 0.00185,-0.00185 0.00228,-0.00228 0.013287,-0.010427 0.063484,-0.019314 0.0812,-0.022146 0.026461,-0.00456 0.055746,-0.00357 0.070874,-0.011141 a 0.08428703,0.08428703 0 0 0 0.035426,-0.071614 c -0.00157,-0.014742 -0.012289,-0.022203 -0.023629,-0.035426 -0.00943,-0.010998 -0.00542,-0.024856 -0.011854,-0.035426 -0.012146,-0.017759 -0.02977,-0.021917 -0.035426,-0.047244 0.036289,-0.00714 0.0892,0.038357 0.1417428,0.023629 0.024942,-0.00714 0.059155,-0.071059 0.070874,-0.0945 v -7.846e-4 l 7.846e-4,-7.845e-4 v -7.846e-4 c 0.00114,-0.00642 -0.00399,-0.013858 -7.846e-4,-0.021418 0.00399,-0.00857 0.018587,-0.016796 0.022888,-0.022146 l 7.846e-4,-7.845e-4 v -7.846e-4 c 0.00371,-0.013573 -0.003,-0.026354 0,-0.035426 0.00914,-0.025698 0.032131,-0.028344 0.047244,-0.047244 0.011283,-0.014357 0.024471,-0.032887 0.035426,-0.047244 0.011711,-0.015113 0.016426,-0.033643 0.024357,-0.047244 0.00757,-0.045725 -0.023159,-0.077671 -0.011861,-0.1181142 0.011711,-0.045354 0.0739,-0.062629 0.1181142,-0.083414 0.015113,-0.00685 0.03477,-0.019086 0.047244,-0.023629 0.030241,-0.01057 0.066516,-0.01343 0.094486,-0.023629 0.047244,-0.017389 0.059241,-0.063213 0.082686,-0.1062996 a 0.2309389,0.2309389 0 0 0 0.023629,-0.059055 c 0.00185,-0.013287 -0.00271,-0.019942 0,-0.035426 0.00228,-0.015113 0.00772,-0.030612 0.011854,-0.047244 a 0.41576562,0.41576562 0 0 0 0.011854,-0.082686 c 0,-0.020028 -0.010998,-0.029485 -0.011854,-0.047244 -0.00342,-0.065389 0.023059,-0.082209 0.047244,-0.1181156 0.012146,-0.017767 0.014928,-0.034014 0.023629,-0.047244 C 8.5687964,8.5610881 8.6399426,8.5362361 8.634271,8.44439 8.632701,8.414149 8.621126,8.347536 8.598845,8.3380861 8.585986,8.3323761 8.558298,8.3345961 8.53979,8.3270171 8.48008,8.3043321 8.43642,8.2248668 8.3744297,8.2207079 c -0.013287,0 -0.020698,0.011069 -0.035426,0.011069 -0.024571,0 -0.055468,-0.019842 -0.082685,-0.023622 -0.016839,-0.00364 -0.047929,0.00392 -0.059055,0 -9.986e-4,-4.536e-4 -0.00285,-0.00157 -0.00371,-0.00221 -0.01,-0.00939 -0.00971,-0.03268 -0.017717,-0.042815 -6.805e-4,-7.132e-4 -0.00143,-0.00164 -0.00228,-0.00221 -0.010142,-0.00678 -0.031746,-0.00578 -0.047244,-0.011811 -0.024942,-0.00944 -0.042886,-0.020976 -0.071615,-0.023622 -0.00872,-3.78e-4 -0.025227,0 -0.035426,0 -0.015869,-0.00378 -0.032502,-0.014928 -0.047244,-0.023622 a 0.0786175,0.0786175 0 0 1 -0.035426,-0.035433 c 0.016633,-0.054426 -0.036282,-0.063121 -0.047244,-0.094493 -0.00528,-0.014742 0.00485,-0.034014 0,-0.047244 -0.00642,-0.018901 -0.026461,-0.031753 -0.047244,-0.047244 -0.03666,-0.027973 -0.065574,-0.052629 -0.1181142,-0.059055 -0.022674,-0.00378 -0.054712,0 -0.082685,0 a 0.13871453,0.13871453 0 0 1 -0.082686,-0.047244 c -0.021169,-0.024564 -0.028729,-0.047337 -0.047244,-0.059055 -0.017759,-0.01134 -0.046959,-0.011155 -0.059055,-0.023622 -0.00528,-0.00528 -0.00685,-0.011155 -0.011854,-0.023622 -0.00914,-0.018145 -0.023159,-0.037138 -0.011861,-0.059055 -0.00243,-0.00128 -0.00485,-0.00228 -0.0067,-0.00221 h -7.918e-4 l -7.845e-4,7.846e-4 h -7.846e-4 -7.845e-4 v 7.845e-4 c -3.431e-4,1.997e-4 -0.00185,0.00121 -0.00228,0.0015 l -7.845e-4,7.846e-4 c -0.00328,0.00407 -0.00599,0.011925 -0.00957,0.016975 -3.231e-4,3.78e-4 -0.00185,0.00185 -0.00228,0.00221 -7.845e-4,6.426e-4 -0.00285,0.00178 -0.00371,0.00221 -0.002,6.804e-4 -0.00456,0.00114 -0.00743,7.846e-4 -0.019657,-0.027973 -0.037701,-0.043372 -0.082686,-0.035433 -0.020413,0.00378 -0.035241,0.022488 -0.059055,0.023622 -0.019657,0 -0.033358,-0.019842 -0.059055,-0.023622 -0.019657,-0.00378 -0.045454,0.013701 -0.059055,0.011811 -0.021547,-0.00378 -0.027588,-0.022203 -0.047244,-0.035433 -0.012574,-0.00827 -0.034,-0.030498 -0.044299,-0.035433 -3.402e-4,-1.334e-4 -0.00185,-6.427e-4 -0.00228,-7.846e-4 H 7.038256 c -0.025327,0 -0.04753,0.05469 -0.082686,0.036175 -0.00243,-0.003 -0.00357,-0.00715 -0.00371,-0.0096 v -4.743e-4 -7.846e-4 c 0.00185,-0.00977 0.018572,-0.016697 0.020669,-0.02584 V 7.5330401 7.5322556 7.531471 7.5306865 l -7.846e-4,-7.846e-4 c -6.419e-4,-0.00214 -0.00185,-0.00407 -0.00442,-0.00663 -0.00143,-0.00143 -0.00385,-0.00357 -0.00514,-0.00442 -8.559e-4,-4.536e-4 -0.00285,-0.00121 -0.00371,-0.0015 -3.787e-4,-7.49e-5 -0.00185,2.85e-5 -0.00228,0 -3.716e-4,1.43e-5 -0.00185,-5.49e-5 -0.00228,0 -3.573e-4,9.2e-5 -0.00185,6.041e-4 -0.00228,7.845e-4 -0.00656,0.003 -0.012289,0.011526 -0.019928,0.01624 a 0.25172719,0.25172719 0 0 1 -0.047244,0.024364 c -0.03477,0.01286 -0.055468,0.00926 -0.082685,0.023622 -0.024942,0.01286 -0.032887,0.033358 -0.047244,0.059055 -0.011283,0.021169 -0.029856,0.057928 -0.047244,0.059055 -0.021169,0 -0.040155,-0.027117 -0.059055,-0.035433 -0.057829,-0.024949 -0.093728,0.010698 -0.1417429,0.011069 -0.044598,0 -0.1085712,-0.063991 -0.1063003,-0.1055656 0.00157,-0.025327 0.020955,-0.062743 0.024357,-0.094493 0.00228,-0.024949 0.023244,-0.047815 0.023629,-0.070866 0,-0.030619 -0.050839,-0.055653 -0.070874,-0.059055 -0.047244,-0.0087 -0.1120425,0.022681 -0.1661002,0 -0.010142,-0.017011 0.018316,-0.030619 0.024357,-0.047244 6.426e-4,-0.00178 7.133e-4,-0.00449 7.846e-4,-0.00592 -4.151e-4,-0.00549 -0.00357,-0.0095 -7.846e-4,-0.017717 0.00599,-0.015877 0.027873,-0.030241 0.035426,-0.047244 0.00571,-0.01286 0.00571,-0.03099 0.011141,-0.047244 0.00685,-0.018901 0.022845,-0.034399 0.024357,-0.047244 0.00185,-0.017011 -0.01,-0.035904 -0.023629,-0.047244 -0.041959,0.00378 -0.070688,9.48e-5 -0.094486,0.011811 -0.054426,0.024949 -0.040055,0.1003499 -0.094486,0.1181157 -0.018901,0.00606 -0.050818,0.0073 -0.071615,0.011069 -0.017759,0.00378 -0.039798,0.012931 -0.058314,0.012546 a 0.13380093,0.13380093 0 0 1 -0.0716,-0.036168 0.06576656,0.06576656 0 0 1 -0.011861,-0.023622 c 7.845e-4,-0.00378 -7.846e-4,-0.00803 0,-0.011811 C 5.897882,7.0839255 5.915734,7.0003 5.939548,6.9201709 l 7.132e-4,-7.845e-4 v -7.846e-4 c 2.432e-4,-0.00242 -6.497e-4,-0.00514 -7.132e-4,-0.00739 v -7.846e-4 -7.846e-4 -7.845e-4 c 0.015869,-0.052914 0.039028,-0.1017684 0.059055,-0.1535496 0.00485,-0.00378 0.00772,-0.00917 0.011861,-0.011811 0.029485,-0.020413 0.059341,-0.045354 0.094486,-0.047244 0.021917,0 0.061887,0.00803 0.082685,0.011811 0.0189,0.00378 0.031004,0.02211 0.047244,0.023622 0.046488,0.00378 0.056317,-0.038286 0.094486,-0.058321 0.039313,0.00571 0.058956,-0.00378 0.094486,0 0.024186,0.00378 0.051973,0.033921 0.070873,0.035433 0.002,0 0.00499,-0.0015 0.0067,-0.00221 0.008,-0.00428 0.014143,-0.016026 0.021411,-0.020669 3.773e-4,-1.975e-4 0.00185,-5.67e-4 0.00228,-7.845e-4 0.00157,-4.536e-4 0.00399,-0.00107 0.00585,-7.846e-4 0.015113,0.00378 0.044969,0.040918 0.047244,0.059055 0.00271,0.022681 -0.018244,0.046303 -0.011854,0.070866 0.023815,0.024193 0.071543,0.021069 0.1055714,0.035433 0.022688,-0.018145 0.00371,-0.044791 0,-0.070866 -3.766e-4,-0.011711 0.00185,-0.024849 0,-0.035433 -0.00185,-0.018145 -0.011141,-0.031753 -0.011141,-0.047244 -3.766e-4,-0.071814 0.057943,-0.1133905 0.1055714,-0.1417385 0.021169,-0.012474 0.040918,-0.026361 0.059055,-0.035433 0.025327,-0.012859 0.037887,-0.023715 0.059055,-0.035433 0.038172,-0.021547 0.076443,-0.03487 0.1063003,-0.059055 0.014001,-0.032509 -0.00157,-0.074177 0,-0.1063046 0.014001,-0.00832 0.020698,0 0.03544,0 0.023059,-0.00492 0.034014,-0.034392 0.047244,-0.047244 0.00757,-0.00756 0.026354,-0.016062 0.035426,-0.023622 0.023059,-0.018145 0.027217,-0.039306 0.047244,-0.047244 0.00757,-0.00378 0.0241,-0.00649 0.035426,-0.011811 0.015113,-0.00414 0.03487,-0.014928 0.059055,-0.023622 0.014885,-0.00499 0.049213,-0.00606 0.058313,-0.011069 V 6.152872 h 7.846e-4 l 7.845e-4,-7.132e-4 v -7.245e-4 c 1.719e-4,-3.131e-4 0.00136,-0.00185 0.00143,-0.00221 0.00314,-0.010641 -0.00414,-0.033636 -0.00228,-0.043557 0.012139,-0.056695 0.1028996,-0.063406 0.1535481,-0.08268 0.035526,-0.013601 0.067372,-0.042993 0.1063003,-0.035433 -0.00471,0.017011 -0.021112,0.019186 -0.030269,0.02584 -0.00471,0.00399 -0.008,0.010099 -0.00585,0.021411 0.00121,0.00642 0.00442,0.011754 0.00743,0.014764 3.417e-4,2.974e-4 0.00185,0.00121 0.00228,0.0015 3.744e-4,2.275e-4 0.00185,0.00128 0.00228,0.0015 0.020213,0.00805 0.058613,-0.024507 0.071614,-0.029528 0.030241,-0.01323 0.089486,-0.020691 0.1299288,-0.035433 0.035526,-0.012859 0.0927,-0.030048 0.059055,-0.070868 -0.027973,0 -0.03487,0.024852 -0.059055,0.035435 -0.016633,0.00379 -0.021069,-0.010671 -0.035426,-0.011814 -0.013573,0 -0.022189,0.014457 -0.036168,0.011814 l -7.838e-4,-7.41e-4 c -0.013858,-0.00504 -0.032502,-0.030763 -0.034699,-0.046507 -0.00571,-0.041577 0.041674,-0.051308 0.059055,-0.08268 -0.011283,-0.037797 -0.062743,-0.00961 -0.094486,-0.024361 a 0.05593937,0.05593937 0 0 1 0.047244,-0.046508 c 0.021547,-0.00379 0.070189,0.00352 0.083414,0.011071 l 7.846e-4,7.346e-4 v 7.346e-4 l 7.845e-4,7.346e-4 7.846e-4,7.347e-4 c 0.00371,0.00824 -0.00107,0.02396 0.00886,0.03322 0.01286,0.011343 0.030612,0.00379 0.047244,0 0.00485,-0.02334 -0.025141,-0.01998 -0.033957,-0.028053 V 5.7698209 L 7.758763,5.7690863 7.7579784,5.7683516 V 5.767617 5.7668824 5.7661478 5.7654131 5.7646785 c 4.71e-5,-5.443e-4 -1.412e-4,-8.701e-4 0,-0.00147 0.034014,-0.022679 0.1001573,-0.00614 0.1417428,-0.011814 0.023815,-0.00379 0.049327,-0.02334 0.070873,-0.035435 0.020413,-0.011343 0.037887,-0.03071 0.059055,-0.011815 0.00171,0.00574 7.132e-4,0.011043 -7.846e-4,0.014765 -0.00414,0.00869 -0.014828,0.0134 -0.022887,0.02067 a 0.82472782,0.82472782 0 0 0 -0.105571,0.1181169 c 0.018145,0.018143 0.050568,0.00841 0.081943,0.011815 0.012139,0 0.022588,0.0088 0.035426,0.011071 0.015113,0.00379 0.035526,-0.00454 0.047244,0 0.021169,0.00528 0.026461,0.036173 0.047244,0.036173 0.034399,0 0.031475,-0.047796 0.011861,-0.071607 0.00599,-0.023811 0.020127,-0.030237 0.011854,-0.047246 -0.015113,-0.030993 -0.079285,0.00538 -0.082685,-0.035435 -0.00185,-0.025325 0.026354,-0.028347 0.035426,-0.047246 -0.00371,-0.04838 0.039969,-0.050648 0.035426,-0.094493 -0.00228,-0.017764 -0.022588,-0.017689 -0.035426,-0.034696 -0.00599,-0.00814 -0.00442,-0.027595 -0.010285,-0.035435 l -7.843e-4,-7.331e-4 c -0.026461,-0.022679 -0.079643,-0.015987 -0.083414,-0.05832 -0.00157,-0.024946 0.00371,-0.044015 0,-0.071607 -0.00342,-0.024929 -0.025312,-0.09931 -0.047244,-0.1063043 -0.028344,-0.00604 -0.048656,0.043183 -0.082685,0.059057 a 0.14702985,0.14702985 0 0 1 -0.070874,0.011815 c -0.012146,-0.00379 -0.033543,-0.012 -0.035426,-0.035435 -0.00228,-0.026457 0.018715,-0.031089 0.023629,-0.059057 -4.914e-4,-0.00208 -0.00214,-0.00443 -0.003,-0.0059 -2.218e-4,-3.36e-4 -0.00121,-0.00191 -0.00143,-0.00221 l -7.766e-4,-7.341e-4 c -0.00656,-0.00611 -0.017802,-0.00541 -0.03027,-0.014765 -0.01853,-0.013986 -0.034114,-0.043844 -0.059055,-0.047246 -0.012432,0 -0.035155,0.011057 -0.047244,0.011815 -0.022688,0 -0.040155,-0.00576 -0.059055,-0.011815 0.008,-0.00379 0.015299,-0.00917 0.023629,-0.011814 0.046117,-0.015874 0.094486,-0.022206 0.1417435,-0.035435 0.00829,-0.00379 0.015313,-0.00954 0.023629,-0.011814 0.011711,0.012472 0.021818,0.03893 0.036175,0.047246 l 7.845e-4,7.346e-4 h 7.846e-4 c 0.00943,0.00339 0.022973,-0.00429 0.033957,-7.346e-4 0.037045,0.011343 0.06586,0.031938 0.1063003,0.023623 0.01,-0.017659 -0.00957,-0.025153 -0.014771,-0.034696 -3.444e-4,-8.559e-4 -6.426e-4,-0.00277 -7.845e-4,-0.00369 V 5.1918433 5.1911087 5.190374 c 4.529e-4,-0.00198 0.00157,-0.00423 0.00371,-0.00664 0.026832,0.00379 0.049698,0.015668 0.070874,0.024362 0.0291,-0.021166 0.048385,-0.02504 0.047244,-0.059057 0,-0.00163 -3.538e-4,-0.00446 -7.846e-4,-0.0059 -0.00471,-0.013043 -0.024114,-0.019276 -0.034699,-0.029528 0.023815,-0.00416 0.046688,-0.00841 0.070874,-0.011815 0.00143,0.00481 0.00613,0.00923 0.00957,0.011071 h 7.845e-4 7.846e-4 l 7.845e-4,7.346e-4 c 0.014357,0.00379 0.062172,-0.019826 0.070874,-0.024362 h 7.845e-4 v -3.703e-4 -7.347e-4 c -2.125e-4,-0.00195 -0.00143,-0.00578 -0.00143,-0.00811 V 5.07929 l 7.845e-4,-7.346e-4 v -7.346e-4 c 0.095628,-0.0102 0.1970173,-0.011072 0.2952881,-0.011072 z M 7.5223641,5.244169 h 7.845e-4 c -0.00872,0.016253 -0.017674,0.029766 -0.035426,0.035434 0.00456,0.024569 -0.03166,0.039782 -0.035426,0.059057 -0.00228,0.013228 -7.845e-4,0.035529 0,0.047246 0.00757,0.1205714 -0.0943,0.1794583 -0.212607,0.1764345 -0.022673,0.021923 -0.011569,0.064254 -0.024357,0.094493 -0.01057,0.025325 -0.045169,0.049514 -0.070873,0.047246 -0.0189,0 -0.047244,-0.02986 -0.047244,-0.047246 0,-0.021545 0.030712,-0.034112 0.011861,-0.059057 0.00271,-0.01663 0.039969,-0.031861 0.035426,-0.05832 -0.00456,-0.02797 -0.036104,-0.00766 -0.070874,-0.011814 a 0.34886514,0.34886514 0 0 1 -0.070874,-0.024362 c 0.038172,-0.025325 0.0773,-0.047435 0.1181142,-0.070869 0.035526,-0.021166 0.070018,-0.039782 0.1063003,-0.059057 0.095243,-0.047624 0.1973946,-0.091391 0.2952887,-0.1291885 z m 2.0367497,0.2827383 c -0.00171,1.54e-5 -0.00414,5.934e-4 -0.00585,7.346e-4 -0.00971,2.588e-4 -0.015113,0.00625 -0.023629,0.011071 -0.019271,0.011714 -0.020313,0.030143 -0.03544,0.035435 -0.020413,0.00794 -0.044213,0.00359 -0.047244,0.023623 -0.00228,0.015497 0.012146,0.021431 0.011141,0.036173 -0.00757,0.018899 -0.0191,0.024946 -0.022888,0.047246 0.025698,0.041577 0.086371,-0.00426 0.1181142,-0.011814 0.014358,-0.00453 0.027501,2.836e-4 0.035427,-0.011815 0.00872,-0.013228 0.00471,-0.039782 0.011141,-0.059057 0.00514,-0.014551 0.016796,-0.01739 0.022139,-0.023623 2.204e-4,-3.014e-4 0.00128,-0.0019 0.00143,-0.00221 1.698e-4,-3.469e-4 6.048e-4,-0.00184 7.847e-4,-0.00221 5.67e-4,-0.00203 3.551e-4,-0.00437 0,-0.00739 -0.00214,-0.017717 -0.035255,-0.036436 -0.064953,-0.036173 z M 6.7730711,5.8207189 c 0.00585,-2.421e-4 0.011141,1.537e-4 0.01624,0.00147 0.022674,0.00643 0.074629,0.073326 0.024357,0.094493 a 0.3518889,0.3518889 0 0 1 -0.083414,0.011814 c -0.017018,-0.00379 -0.029485,-0.032411 -0.047244,-0.035435 -0.03477,-0.00604 -0.081757,0.037797 -0.1055714,0 0.00136,-0.00496 0.00428,-0.00919 0.00742,-0.011815 0.011283,-0.00811 0.031097,-0.00614 0.050946,-0.011814 0.041346,-0.011243 0.0968,-0.047029 0.1373144,-0.048724 z m 0.1070428,0.1195915 c 0.00121,-5.34e-5 0.00243,-7.07e-5 0.00371,0 3.537e-4,0 0.00185,6.955e-4 0.00228,7.346e-4 3.488e-4,8.18e-5 0.00185,6.199e-4 0.00228,7.347e-4 0.00957,0.00429 0.018444,0.021562 0.030997,0.022884 0.012289,0 0.025569,-0.011857 0.033957,-0.012543 l 7.845e-4,7.346e-4 h 6.79e-4 c 0.021169,0.00567 0.031846,0.043561 0.011854,0.059057 -0.016625,0 -0.022588,-0.014086 -0.03544,-0.011811 -0.031888,0.00571 -0.044941,0.065054 -0.067172,0.070866 -3.766e-4,6.63e-5 -0.00185,-3.57e-5 -0.00228,0 -3.787e-4,3.5e-6 -0.00107,2.92e-5 -0.00143,0 -0.024186,-0.00378 -0.036389,-0.053107 -0.011854,-0.070866 7.846e-4,-0.01512 -0.012574,-0.020313 -0.011854,-0.035435 0.00714,-0.00886 0.02517,-0.023559 0.043557,-0.024362 z m -0.1321427,0.011815 a 0.16668421,0.16668421 0 0 1 0.018458,0 c 0.00642,6.086e-4 0.00815,0 0.010285,0 -0.003,0.027215 -0.013858,0.034396 -0.034699,0.047246 a 0.14287219,0.14287219 0 0 0 -0.0716,0.094494 c -0.00371,0.013601 -0.041317,0.050646 -0.058313,0.047244 -0.00314,-6.505e-4 -0.00685,-0.003 -0.00886,-0.00442 -3.666e-4,-3.067e-4 -0.00185,-0.00114 -0.00228,-0.0015 -5.663e-4,-7.132e-4 -0.00171,-0.00285 -0.00228,-0.00371 -0.00971,-0.022638 0.029085,-0.075506 0.036917,-0.084896 0.010142,-0.012104 0.023344,-0.021069 0.035426,-0.035433 0.01057,-0.013116 0.01343,-0.037402 0.022887,-0.046509 l 7.845e-4,-7.346e-4 a 0.16668421,0.16668421 0 0 1 0.053157,-0.011815 z m 3.6047308,0.010329 h 7.84e-4 7.85e-4 c 2.95e-4,-3.84e-5 0.0018,3.7e-6 0.0023,0 l -7.85e-4,0.00147 c 0.01815,0.00529 0.02256,0.025986 0.03618,0.035434 0.01014,0.00678 0.0241,0.00499 0.03543,0.011811 0.01329,0.0087 0.02031,0.022203 0.03543,0.035433 0.02117,0.017767 0.05319,0.033265 0.08341,0.047244 0.0057,0.00378 0.0157,0.00917 0.02289,0.011811 0.02078,0.027217 0.0394,0.054334 0.05906,0.08268 0.0023,0.01512 0.0046,0.037416 0.01185,0.047244 0.01966,0.026839 0.04933,0.04942 0.07087,0.08268 0,0.03099 0.01357,0.050361 0.03543,0.059055 0.02759,0.046866 0.05696,0.093735 0.08341,0.1417384 0.01057,0.021925 0.013,0.048571 0.02363,0.070866 -0.0071,0 -0.01641,0.00271 -0.02363,0 -0.02494,-0.043842 -0.155138,-0.0528 -0.166099,0.011069 -0.0049,0.028722 0.01909,0.066694 -0.02363,0.071607 -0.02646,0.00378 -0.05783,-0.027495 -0.09449,-0.035433 -0.01511,-0.00378 -0.03553,0.00528 -0.04724,0 -0.02759,-0.00944 -0.02343,-0.04243 -0.04724,-0.059055 a 0.2067489,0.2067489 0 0 0 -0.07087,-0.023622 h -0.03544 c -0.01701,-0.00378 -0.0447,-0.00385 -0.05906,-0.011811 -0.01314,-0.00806 -0.04237,-0.023544 -0.04724,-0.035433 -0.0053,-0.018901 0.03393,-0.043179 0.03543,-0.059055 7.84e-4,-0.01134 -0.0084,-0.016918 -0.01114,-0.035433 -0.0023,-0.010955 0.0019,-0.027873 0,-0.035433 -0.0037,-0.01286 -0.02757,-0.023979 -0.04799,-0.024364 -0.01814,0 -0.03175,0.011426 -0.04724,0.011811 -0.0223,3.78e-4 -0.0669,-0.013715 -0.09449,-0.011069 -0.01626,0 -0.03101,0.00994 -0.04652,0.011069 -0.043842,0.00378 -0.072286,-0.00378 -0.1063006,0 a 0.28725624,0.28725624 0 0 0 -0.094486,0.024357 c -0.011711,0.00528 -0.020313,0.016062 -0.035426,0.023622 a 0.23396266,0.23396266 0 0 1 -0.024357,0.011811 c -0.014357,0.00642 -0.034014,0.019842 -0.047244,0.023622 -0.019656,0.00492 -0.046403,0 -0.082686,0 -0.025327,0 -0.070488,-0.00521 -0.070874,-0.035433 -3.773e-4,-0.046488 0.0857,-0.027117 0.1299289,-0.035433 0.016625,-0.00378 0.027588,-0.023715 0.047244,-0.035433 0.00943,-0.00571 0.014557,-0.00613 0.023629,-0.011811 0.014643,-0.010613 0.043414,-0.034798 0.047244,-0.047244 7.14e-5,-3.545e-4 7.133e-4,-0.00185 7.846e-4,-0.00221 1.483e-4,-0.00963 -0.010713,-0.022866 -0.012574,-0.031004 v -7.875e-4 -7.846e-4 -7.845e-4 c 5.92e-5,-3.31e-4 6.419e-4,-0.00185 7.845e-4,-0.00221 0.00371,-0.010014 0.022331,-0.021197 0.035426,-0.033957 0.021169,-0.020791 0.032245,-0.044712 0.058314,-0.058321 0.017759,-0.00944 0.051117,-0.00961 0.059055,-0.024364 0.00185,-0.016255 -3.787e-4,-0.020691 0,-0.035433 0.010998,-0.010199 0.014914,-0.021732 0.024357,-0.023622 0.027217,-0.00606 0.050932,0.01333 0.082685,0.011811 a 0.10961093,0.10961093 0 0 0 0.04652,-0.011811 c 0.01243,-0.0087 0.02334,-0.016818 0.03543,-0.023622 0.01329,-0.00678 0.01919,-0.022852 0.03543,-0.024364 0.03968,-0.00378 0.0649,0.047415 0.08341,0.071607 0.01511,0.020034 0.05773,0.045447 0.08268,0.059055 0.014,0.00795 0.03175,0.016818 0.04724,0.023622 0.03289,0.015121 0.09336,0.062365 0.09449,0.094493 7.85e-4,0.015877 -0.01483,0.020313 -0.01185,0.035433 0.02457,0.00414 0.04649,-0.022303 0.04724,-0.047244 3.79e-4,-0.01512 -0.01521,-0.018808 -0.01185,-0.035433 0.01128,-0.024942 0.05576,-0.00428 0.07087,-0.011811 -0.0027,-0.028729 -0.04667,-0.032509 -0.07087,-0.047244 -0.01286,-0.00756 -0.02183,-0.017952 -0.03543,-0.023622 -0.01966,-0.00756 -0.04394,-0.012646 -0.05906,-0.024364 -0.01436,-0.010955 -0.02144,-0.030234 -0.03543,-0.047244 -0.02041,-0.024193 -0.05971,-0.027495 -0.04724,-0.08268 0.0048,-0.00678 0.01171,-0.020204 0.0192,-0.023623 z m -3.2651499,0.079727 c 0.00271,-1.227e-4 0.00628,7.846e-4 0.00815,0.0015 h 7.846e-4 l 7.845e-4,7.132e-4 v 7.133e-4 l 7.846e-4,7.132e-4 c -0.00829,0.03288 -0.080229,0.023166 -0.1063003,0.011069 4.7e-5,-3.894e-4 6.419e-4,-0.00185 7.845e-4,-0.00221 v -7.132e-4 l 7.846e-4,-7.133e-4 c 1.633e-4,-2.831e-4 5.677e-4,-0.00193 7.845e-4,-0.00221 h 7.846e-4 l 7.845e-4,-7.132e-4 c 2.632e-4,-1.947e-4 0.00185,-0.00128 0.00228,-0.0015 0.0067,-0.00342 0.018088,-0.00214 0.029528,-0.00292 h 0.035426 c 0.008,0 0.017588,-0.00335 0.025099,-0.00371 z m 3.1108599,0.059055 v 7.133e-4 c -7.13e-4,4.272e-4 -0.0021,9.272e-4 -0.003,0.0015 l -7.84e-4,7.132e-4 h -7.8e-4 -7.85e-4 -7.84e-4 v 7.132e-4 c -0.01625,0.00492 -0.02494,0.041974 0,0.04651 0.01128,-0.00678 0.01521,-0.025705 0.01186,-0.047244 -3.79e-4,-4.272e-4 -0.0019,-0.00185 -0.0023,-0.00221 h -7.87e-4 l -7.85e-4,-7.133e-4 h -7.84e-4 -7.85e-4 z m -3.2776969,0.0015 c 0.00371,-4.728e-4 0.00728,-4.122e-4 0.011861,0.0015 a 0.26835782,0.26835782 0 0 1 -0.094486,0.047244 c -0.013858,0.00435 -0.031097,0.00642 -0.040597,0 -0.00314,-0.0025 -0.00585,-0.00585 -0.0067,-0.011069 -0.00114,-0.00744 6.819e-4,-0.01363 0.003,-0.016975 l 7.845e-4,-7.132e-4 c 3.189e-4,-2.96e-4 0.00185,-0.00193 0.00228,-0.00221 0.00714,-0.00435 0.018986,-0.00285 0.029528,-0.00442 0.021918,-0.00378 0.057344,-0.010698 0.083414,-0.011069 L 6.909015,6.1043109 c 0.00428,0 0.00815,-9.985e-4 0.011854,-0.0015 z m 3.2644109,0.071607 c -0.0014,1.577e-4 -0.0029,3.367e-4 -0.0044,7.133e-4 -0.008,0.00378 -0.01493,0.00385 -0.02363,0.011811 0,0.028344 0.0057,0.046303 0,0.070866 0.01625,0.03099 0.05075,0.01047 0.05906,-0.011069 0.0091,-0.049256 -0.0087,-0.074707 -0.031,-0.072346 z m 0.172742,0.1380449 c -0.0027,3.102e-4 -0.0066,0.00185 -0.0089,0.00292 -8.56e-4,4.914e-4 -0.0021,8.559e-4 -0.003,0.0015 0.0189,0.030241 0.0533,0.051873 0.09449,0.059055 0.01511,-0.01134 0.01644,-0.039784 0.02363,-0.059055 h -0.05906 c -0.01672,0 -0.03408,-0.00592 -0.04724,-0.00442 z M 5.9292853,7.3326076 h 0.00143 c 0.060831,-0.00235 0.078943,0.08119 0.1284567,0.1055656 0.012432,0.00678 0.031004,0.00914 0.047244,0.012546 0.013287,0.00378 0.022588,0.0073 0.035426,0.011069 0.026454,0.00944 0.061145,0.00349 0.082685,0.011811 0.032131,0.014364 0.055083,0.077862 0.082686,0.094493 0.00157,0.015876 -0.00485,0.035148 0,0.047244 0.013287,0.017766 0.037516,0.024093 0.059055,0.035433 0.025698,0.013986 0.03487,0.0481 0.059055,0.059055 h 7.846e-4 l 7.845e-4,7.845e-4 c 0.00843,0.00228 0.021554,-0.00428 0.033957,-7.845e-4 0.033258,0.010199 0.042887,0.05556 0.0716,0.047244 0.018901,-0.00528 0.020598,-0.029485 0.023629,-0.047244 0.012432,-0.013601 0.027973,-0.035055 0.047244,-0.035433 0.031368,0 0.035904,0.028443 0.047244,0.059055 0.00642,0.017389 0.018715,0.040918 0.023629,0.059055 0.00757,0.031368 0.00642,0.1228401 0,0.1417385 -0.008,0.022681 -0.040155,0.032994 -0.059055,0.058321 -0.009,0.01134 -0.01644,0.027103 -0.023629,0.036175 -0.012146,0.01512 -0.026354,0.021454 -0.035426,0.035433 -0.00528,0.00756 -0.00685,0.024849 -0.011854,0.035433 -0.015113,0.032124 -0.036104,0.055938 -0.023629,0.094493 0.00528,0.015876 0.023244,0.028729 0.023629,0.047244 0,0.021925 -0.043471,0.035248 -0.047244,0.059055 -0.00271,0.017766 0.017959,0.047437 0.023629,0.070866 0.00371,0.017767 0.03666,0.035526 0.047244,0.047244 0.017759,0.020035 0.030983,0.045547 0.047244,0.070866 0.032131,0.049134 0.051317,0.1059259 0.082685,0.1535496 0.016254,0.024949 0.0481,0.045169 0.059055,0.070866 0.00528,0.012403 -0.00314,0.033615 0,0.045768 1.355e-4,3.78e-4 -1.654e-4,0.00107 0,0.0015 0.018145,0.040825 0.1005431,0.086271 0.1417428,0.1063046 0.0189,0.00943 0.041674,9.41e-5 0.059055,0.011861 a 0.34735327,0.34735327 0 0 1 0.0945,0.082685 c 0.012146,0.021169 0.017574,0.072686 0.023629,0.1055714 0.00757,0.044598 -0.00185,0.082657 0,0.1306713 0.00157,0.026069 0.011854,0.044784 0.011854,0.070873 0,0.009 7.845e-4,0.026361 0,0.035426 -3.766e-4,0.031368 0.003,0.062372 0,0.0945 a 0.28120874,0.28120874 0 0 0 0,0.047244 c 0.00185,0.015498 0.010713,0.02144 0.011854,0.035426 7.133e-4,0.014143 -0.011569,0.034085 -0.011854,0.045775 1.85e-5,3.723e-4 -4.71e-5,0.00114 0,0.00143 0.00342,0.031739 0.029014,0.0532 0.035426,0.082686 0.00485,0.022688 0.015213,0.078715 0.011854,0.1063003 -0.00157,0.015113 -0.00957,0.031375 -0.011854,0.047244 -0.00157,0.012432 0.00185,0.023344 0,0.035426 -0.00228,0.017759 -0.013002,0.030612 -0.011861,0.047244 0.00228,0.034014 0.030883,0.060475 0.036175,0.094486 0.00185,0.011283 -3.766e-4,0.024471 0,0.035426 0,0.010142 0.00843,0.014143 0.011141,0.023629 A 2.6378439,2.6378439 0 0 1 6.8750293,9.8122761 2.6703491,2.6703491 0 0 1 6.6277251,9.5996691 L 6.6158641,9.5885284 A 2.732714,2.732714 0 0 1 6.3914475,9.3405814 C 6.3521343,9.2906982 6.3085047,9.2395675 6.2725901,9.1870318 6.2514214,9.1556569 6.2331913,9.1250451 6.2135347,9.0925461 6.2013885,9.0732747 6.1898199,9.0531474 6.1781087,9.0334908 A 2.4859004,2.4859004 0 0 1 6.083623,8.8563177 C 6.0647224,8.8185166 6.0530112,8.7778897 6.0363787,8.7382021 A 2.5482653,2.5482653 0 0 1 5.9300784,8.4547258 C 5.9096658,8.3851789 5.8975766,8.3146884 5.8828342,8.2421181 5.8715509,8.1869356 5.8553321,8.133074 5.8474081,8.0767567 a 2.4806089,2.4806089 0 0 1 -0.011854,-0.094493 2.6866019,2.6866019 0 0 1 0.012574,-0.6023871 v -0.011069 c 0.023401,0 0.054997,-0.034271 0.0812,-0.036175 z m 1.0216971,0.2819998 c 3.445e-4,-5.42e-5 0.00185,2.5e-5 0.00228,0 h 7.846e-4 7.047e-4 c 3.109e-4,5.5e-5 0.00185,6.427e-4 0.00228,7.846e-4 0.014001,0.00499 0.016618,0.037637 0.00514,0.04651 h -7.845e-4 l -7.846e-4,7.846e-4 h -7.845e-4 l -7.846e-4,7.845e-4 H 6.958249 c -0.00357,7.133e-4 -0.00815,-9.272e-4 -0.011141,-0.00292 -0.011283,-0.00983 -0.015498,-0.037502 -7.846e-4,-0.044291 0.00157,-7.132e-4 0.003,-0.00121 0.00442,-0.0015 z M 5.8207669,13.002139 v 0.377968 h 3.401718 v -0.377968 z m 3.7796874,0 v 0.377968 H 11.11233 v -0.377968 z"/>
</svg>
