<?xml version='1.0' encoding='UTF-8'?>
<svg xmlns:inkscape="http://www.inkscape.org/namespaces/inkscape" xmlns:sodipodi="http://sodipodi.sourceforge.net/DTD/sodipodi-0.dtd" xmlns="http://www.w3.org/2000/svg" xmlns:svg="http://www.w3.org/2000/svg" xmlns:rdf="http://www.w3.org/1999/02/22-rdf-syntax-ns#" xmlns:cc="http://creativecommons.org/ns#" xmlns:dc="http://purl.org/dc/elements/1.1/" width="64" height="64" version="1.1" viewBox="0 0 16.933 16.933" id="svg7" sodipodi:docname="preferences-desktop-screensaver.svg" inkscape:version="1.4.2 (ebf0e940d0, 2025-05-08)">
  <sodipodi:namedview id="namedview7" pagecolor="#9c4444" bordercolor="#000000" borderopacity="0.25" inkscape:showpageshadow="2" inkscape:pageopacity="0.0" inkscape:pagecheckerboard="0" inkscape:deskcolor="#d1d1d1" inkscape:zoom="6.15625" inkscape:cx="15.756345" inkscape:cy="27.208122" inkscape:window-width="1226" inkscape:window-height="669" inkscape:window-x="0" inkscape:window-y="0" inkscape:window-maximized="0" inkscape:current-layer="svg7" showgrid="false"/>
  <defs id="defs2">
    <style id="current-color-scheme" type="text/css">.ColorScheme-Text {color:#d8dee9} .ColorScheme-Highlight {color:#3b4252}</style>
  </defs>
  <metadata id="metadata2">
    <rdf:RDF>
      <cc:Work rdf:about="">
        <dc:format>image/svg+xml</dc:format>
        <dc:type rdf:resource="http://purl.org/dc/dcmitype/StillImage"/>
      </cc:Work>
    </rdf:RDF>
  </metadata>
  <g id="g6" transform="matrix(0.68300186,0,0,0.68300186,2.8300216,2.8300216)" style="fill:currentColor;fill-opacity:1;stroke:none;stroke-width:0.441494;stroke-dasharray:none;stroke-opacity:0.3" class="ColorScheme-Text">
    <path d="m 12.109,5 c 0.62,0.75 0.995,1.71 0.995,2.76 A 4.344,4.344 0 0 1 8.76,12.104 C 7.71,12.104 6.75,11.728 6,11.109 A 5.055,5.055 0 0 0 10.932,15 5.068,5.068 0 0 0 16,9.932 5.055,5.055 0 0 0 12.109,5 Z M 6.511,1.79 c 0.4,0 0.721,0.322 0.721,0.721 A 0.72,0.72 0 0 1 6.512,3.232 0.72,0.72 0 0 1 5.79,2.512 c 0,-0.4 0.322,-0.722 0.721,-0.722 z m 4,1.023 a 0.699,0.699 0 1 1 0,1.398 0.697,0.697 0 0 1 -0.699,-0.7 c 0,-0.387 0.312,-0.698 0.7,-0.698 z m -3,1.977 c 0.4,0 0.721,0.322 0.721,0.721 A 0.72,0.72 0 0 1 7.512,6.232 0.72,0.72 0 0 1 6.79,5.512 c 0,-0.4 0.322,-0.722 0.721,-0.722 z" overflow="visible" id="path2-3" style="fill:currentColor;fill-opacity:1;stroke:none;stroke-width:0.441494;stroke-dasharray:none;stroke-opacity:0.3" class="ColorScheme-Text"/>
    <path d="M 3.505,7.505 2.76,5.25 0.505,4.505 2.76,3.76 3.505,1.505 4.25,3.76 6.505,4.505 4.25,5.25 Z" overflow="visible" id="path4" style="fill:currentColor;fill-opacity:1;stroke:none;stroke-width:0.441494;stroke-dasharray:none;stroke-opacity:0.3" class="ColorScheme-Text"/>
  </g>
</svg>
