<?xml version='1.0' encoding='UTF-8'?>
<svg xmlns:inkscape="http://www.inkscape.org/namespaces/inkscape" xmlns:sodipodi="http://sodipodi.sourceforge.net/DTD/sodipodi-0.dtd" xmlns="http://www.w3.org/2000/svg" xmlns:svg="http://www.w3.org/2000/svg" xmlns:rdf="http://www.w3.org/1999/02/22-rdf-syntax-ns#" xmlns:cc="http://creativecommons.org/ns#" xmlns:dc="http://purl.org/dc/elements/1.1/" width="64" height="64" version="1.1" viewBox="0 0 16.933 16.933" id="svg7" sodipodi:docname="preferences-system-startup.svg" inkscape:version="1.4.2 (ebf0e940d0, 2025-05-08)">
  <sodipodi:namedview id="namedview7" pagecolor="#9c4444" bordercolor="#000000" borderopacity="0.25" inkscape:showpageshadow="2" inkscape:pageopacity="0.0" inkscape:pagecheckerboard="0" inkscape:deskcolor="#d1d1d1" inkscape:zoom="6.15625" inkscape:cx="15.756345" inkscape:cy="29.64467" inkscape:window-width="1226" inkscape:window-height="669" inkscape:window-x="0" inkscape:window-y="0" inkscape:window-maximized="0" inkscape:current-layer="svg7" showgrid="false"/>
  <defs id="defs2">
    <style id="current-color-scheme" type="text/css">.ColorScheme-Text {color:#d8dee9} .ColorScheme-Highlight {color:#3b4252}</style>
  </defs>
  <metadata id="metadata2">
    <rdf:RDF>
      <cc:Work rdf:about="">
        <dc:format>image/svg+xml</dc:format>
        <dc:type rdf:resource="http://purl.org/dc/dcmitype/StillImage"/>
      </cc:Work>
    </rdf:RDF>
  </metadata>
  <g id="g30" transform="matrix(0.70554167,0,0,0.70554167,2.1169777,0.3527708)" style="fill:currentColor;fill-opacity:1" class="ColorScheme-Text">
    <path d="m 389.571,519.798 h 5 v 1 h -5 z m 0,6 h 4 v 1 h -4 z m 0,2 h 4 v 1 h -4 z m 0,2 h 3 v 1 h -3 z m 0,-8 h 4 v 1 h -4 z m 0,2 h 3 v 1 h -3 z m 0,8 h 5 v 1 h -5 z m 0,2 h 3 v 1 h -3 z" transform="matrix(2,0,0,1,-773.143,-515.798)" id="path21" style="fill:currentColor;fill-opacity:1" class="ColorScheme-Text"/>
    <path d="M 2,4 H 5 V 5 H 2 Z M 2,6 H 5 V 7 H 2 Z M 2,8 H 5 V 9 H 2 Z m 0,2 h 3 v 1 H 2 Z m 0,2 h 3 v 1 H 2 Z m 0,2 h 3 v 1 H 2 Z m 0,2 h 3 v 1 H 2 Z m 0,2 h 3 v 1 H 2 Z" id="path30" style="fill:currentColor;fill-opacity:1" class="ColorScheme-Text"/>
  </g>
  </svg>
