<?xml version='1.0' encoding='UTF-8'?>
<svg xmlns:inkscape="http://www.inkscape.org/namespaces/inkscape" xmlns:sodipodi="http://sodipodi.sourceforge.net/DTD/sodipodi-0.dtd" xmlns="http://www.w3.org/2000/svg" xmlns:svg="http://www.w3.org/2000/svg" xmlns:rdf="http://www.w3.org/1999/02/22-rdf-syntax-ns#" xmlns:cc="http://creativecommons.org/ns#" xmlns:dc="http://purl.org/dc/elements/1.1/" width="64" height="64" version="1.1" viewBox="0 0 16.933 16.933" id="svg7" sodipodi:docname="preferences-online-accounts.svg" inkscape:version="1.4.2 (ebf0e940d0, 2025-05-08)">
  <sodipodi:namedview id="namedview7" pagecolor="#9c4444" bordercolor="#000000" borderopacity="0.25" inkscape:showpageshadow="2" inkscape:pageopacity="0.0" inkscape:pagecheckerboard="0" inkscape:deskcolor="#d1d1d1" inkscape:zoom="6.15625" inkscape:cx="15.756345" inkscape:cy="29.64467" inkscape:window-width="1226" inkscape:window-height="669" inkscape:window-x="0" inkscape:window-y="0" inkscape:window-maximized="0" inkscape:current-layer="svg7" showgrid="false"/>
  <defs id="defs2">
    <style id="current-color-scheme" type="text/css">.ColorScheme-Text {color:#d8dee9} .ColorScheme-Highlight {color:#3b4252}</style>
  </defs>
  <metadata id="metadata2">
    <rdf:RDF>
      <cc:Work rdf:about="">
        <dc:format>image/svg+xml</dc:format>
        <dc:type rdf:resource="http://purl.org/dc/dcmitype/StillImage"/>
      </cc:Work>
    </rdf:RDF>
  </metadata>
  <path d="m 8.4665001,3.2009672 c -2.9224488,0 -5.2915628,2.357462 -5.2915628,5.2655333 0,2.9080695 2.369114,5.2655325 5.2915628,5.2655325 2.9224459,0 5.2915629,-2.357463 5.2915629,-5.2655325 0,-2.9080712 -2.369117,-5.2655333 -5.2915629,-5.2655333 z m -0.377969,1.4574247 c 0.050572,-0.00526 0.1143439,0.00301 0.1653729,0 0.006,0.024082 -0.036829,0.1097268 -0.094486,0.2350695 -0.3672798,0.7983751 -0.3881146,1.7333835 -0.047256,2.2331503 0.061685,0.09061 0.1181137,0.1768451 0.1181137,0.1880557 0,0.011204 -0.066513,0.023454 -0.1417432,0.023454 -0.1765706,0 -0.3436656,-0.107086 -0.6850684,-0.376102 C 7.2518061,6.8425139 7.0546348,6.7421381 6.9782458,6.7269451 6.858303,6.7030935 6.8263318,6.7135549 6.6711402,6.8679846 6.5267683,7.0116295 6.482169,7.0890836 6.482169,7.2205878 c 0,0.4986763 0.5949827,0.895095 1.7008604,1.1283285 1.5018194,0.3167371 1.8720416,0.6011133 1.9134646,1.3869037 0.05201,0.985391 -0.4751799,1.728426 -1.6299904,2.303669 -0.1378289,0.06867 -0.2256577,0.09534 -0.2834854,0.117531 -0.025712,-0.0023 -0.045286,0.0023 -0.07083,0 -0.00971,-0.03046 -0.023721,-0.101137 -0.023721,-0.235069 0,-0.523379 -0.207315,-1.062096 -0.519698,-1.363397 C 7.4849146,10.477677 7.2501202,10.306298 7.0490581,10.182447 6.8479999,10.058602 6.6454228,9.9147344 6.6002173,9.8533528 6.5253033,9.7514933 6.5190742,9.6889166 6.5765002,9.5007496 6.6813848,9.1570832 6.8062429,8.9656738 7.0489543,8.748531 7.1762103,8.6346904 7.3042395,8.5392253 7.3324401,8.5369679 7.360722,8.534759 7.1698112,8.4776919 6.8836027,8.4194348 6.5973916,8.3610774 6.1787604,8.238825 5.9622831,8.1608724 5.566489,8.0183659 5.0321177,7.7191997 4.8283684,7.5026818 4.8197926,7.4934978 4.8123692,7.4873261 4.8046513,7.4792272 5.0965426,6.3222689 5.915677,5.3740219 7.0015885,4.9169814 7.2287879,4.8213506 7.4630278,4.7557435 7.7102802,4.705418 7.8334223,4.6803754 7.9610792,4.6712688 8.0882478,4.6584052 Z m 3.5434569,1.7630126 c 0.08877,0.054609 0.424011,0.776328 0.519707,1.1283282 0.123543,0.4544835 0.114601,1.2409738 0,1.6924938 -0.04364,0.1718357 -0.09951,0.3325929 -0.118113,0.3526026 -0.01857,0.020018 -0.08602,-0.095179 -0.16537,-0.2350697 C 11.788875,9.2198933 11.535485,8.922684 11.324888,8.7015688 10.71701,8.0632889 10.62142,7.7300183 10.876051,7.2206378 11.00445,6.9637618 11.563274,6.3792053 11.631988,6.4214045 Z" id="path2-0" style="fill:currentColor;fill-opacity:1;stroke:none;stroke-width:0.320113;stroke-dasharray:none;stroke-opacity:0.3" class="ColorScheme-Text"/>
</svg>
