<?xml version='1.0' encoding='UTF-8'?>
<svg xmlns:inkscape="http://www.inkscape.org/namespaces/inkscape" xmlns:sodipodi="http://sodipodi.sourceforge.net/DTD/sodipodi-0.dtd" xmlns="http://www.w3.org/2000/svg" xmlns:svg="http://www.w3.org/2000/svg" xmlns:rdf="http://www.w3.org/1999/02/22-rdf-syntax-ns#" xmlns:cc="http://creativecommons.org/ns#" xmlns:dc="http://purl.org/dc/elements/1.1/" width="64" height="64" version="1.1" viewBox="0 0 16.933 16.933" id="svg7" sodipodi:docname="preferences-desktop-multimedia.svg" inkscape:version="1.4.2 (ebf0e940d0, 2025-05-08)">
  <sodipodi:namedview id="namedview7" pagecolor="#9c4444" bordercolor="#000000" borderopacity="0.25" inkscape:showpageshadow="2" inkscape:pageopacity="0.0" inkscape:pagecheckerboard="0" inkscape:deskcolor="#d1d1d1" inkscape:zoom="6.15625" inkscape:cx="15.756345" inkscape:cy="27.208122" inkscape:window-width="1226" inkscape:window-height="669" inkscape:window-x="0" inkscape:window-y="0" inkscape:window-maximized="0" inkscape:current-layer="svg7" showgrid="false"/>
  <defs id="defs2">
    <style id="current-color-scheme" type="text/css">.ColorScheme-Text {color:#d8dee9} .ColorScheme-Highlight {color:#3b4252}</style>
  </defs>
  <metadata id="metadata2">
    <rdf:RDF>
      <cc:Work rdf:about="">
        <dc:format>image/svg+xml</dc:format>
        <dc:type rdf:resource="http://purl.org/dc/dcmitype/StillImage"/>
      </cc:Work>
    </rdf:RDF>
  </metadata>
  <path style="fill:currentColor;fill-opacity:1;stroke:none;stroke-width:0.334154;stroke-dasharray:none;stroke-opacity:0.3" d="M 3.9563754,3.1749374 V 13.758063 H 12.976647 V 3.1749374 H 12.412881 V 3.8363828 H 11.849113 V 3.1749374 H 5.0839098 V 3.8363828 H 4.5201419 L 4.52003,3.1749374 H 3.9563531 Z M 6.2114435,4.4978276 H 10.721581 V 7.8050547 H 6.2114435 Z M 4.52003,5.1592735 H 5.0837969 V 6.482164 H 4.52003 Z m 7.328971,0 h 0.563767 V 6.482164 H 11.849001 Z M 4.52003,7.8050547 H 5.0837969 V 9.1279454 H 4.52003 Z m 7.328971,0 h 0.563767 V 9.1279454 H 11.849001 Z M 6.2113305,9.1279454 H 10.721466 V 12.435173 H 6.2113305 Z m -1.691414,1.3228906 h 0.5637674 v 1.322891 H 4.5199165 Z m 7.3289715,0 h 0.563767 v 1.322891 h -0.563767 z m -7.3289715,2.645781 h 0.5637674 v 0.661446 H 4.5199165 Z m 7.3289715,0 h 0.563767 v 0.661446 h -0.563767 z" id="path4" class="ColorScheme-Text"/>
</svg>
