<?xml version='1.0' encoding='UTF-8'?>
<svg xmlns:inkscape="http://www.inkscape.org/namespaces/inkscape" xmlns:sodipodi="http://sodipodi.sourceforge.net/DTD/sodipodi-0.dtd" xmlns="http://www.w3.org/2000/svg" xmlns:svg="http://www.w3.org/2000/svg" xmlns:rdf="http://www.w3.org/1999/02/22-rdf-syntax-ns#" xmlns:cc="http://creativecommons.org/ns#" xmlns:dc="http://purl.org/dc/elements/1.1/" width="64" height="64" version="1.1" viewBox="0 0 16.933 16.933" id="svg7" sodipodi:docname="preferences-web-browser-cache.svg" inkscape:version="1.4.2 (ebf0e940d0, 2025-05-08)">
  <sodipodi:namedview id="namedview7" pagecolor="#9c4444" bordercolor="#000000" borderopacity="0.25" inkscape:showpageshadow="2" inkscape:pageopacity="0.0" inkscape:pagecheckerboard="0" inkscape:deskcolor="#d1d1d1" inkscape:zoom="4.3531261" inkscape:cx="36.410615" inkscape:cy="40.200995" inkscape:window-width="1543" inkscape:window-height="1372" inkscape:window-x="0" inkscape:window-y="0" inkscape:window-maximized="0" inkscape:current-layer="svg7" showgrid="false"/>
  <defs id="defs2">
    <style id="current-color-scheme" type="text/css">.ColorScheme-Text {color:#d8dee9} .ColorScheme-Highlight {color:#3b4252}</style>
  </defs>
  <metadata id="metadata2">
    <rdf:RDF>
      <cc:Work rdf:about="">
        <dc:format>image/svg+xml</dc:format>
        <dc:type rdf:resource="http://purl.org/dc/dcmitype/StillImage"/>
      </cc:Work>
    </rdf:RDF>
  </metadata>
  <path id="rect6" class="ColorScheme-Text" style="baseline-shift:baseline;display:inline;overflow:visible;vector-effect:none;fill:currentColor;fill-opacity:1;stroke-width:0.364936;enable-background:accumulate;stop-color:#000000" d="m 8.4665001,3.1749373 c -2.9283699,0 -5.2915631,2.3631931 -5.2915631,5.2915627 0,2.928369 2.3631932,5.291563 5.2915631,5.291563 2.9283699,0 5.2915629,-2.363194 5.2915629,-5.291563 0,-2.9283696 -2.363193,-5.2915627 -5.2915629,-5.2915627 z M 8.831435,3.5527024 c 1.311559,0.094834 2.476504,0.6972925 3.300811,1.6129858 l -0.01638,0.016393 v 0.3649355 h 0.326446 c 0.05713,0.077873 0.112096,0.1574746 0.164649,0.238776 l -0.126166,0.1261584 -0.72987,0.7298707 -0.364935,0.3649353 -0.364935,1.0948067 v 0.3649348 l 0.364935,0.3649356 0.364935,0.3649355 0.72987,0.3649355 0.833223,-0.2052764 C 12.91441,11.571589 11.046854,13.259002 8.7444817,13.385288 l 0.086952,-0.174628 v -0.364935 l 0.7298752,-0.364936 0.3649356,-0.364936 v -0.72987 L 10.291181,11.021047 V 10.862813 H 6.4351258 V 8.5192447 L 6.276891,8.4665015 5.5470206,8.8314363 H 4.8171467 V 8.1015645 H 4.4522118 V 7.3716939 H 4.0872748 L 3.72234,7.7366293 H 3.5926158 C 3.6519778,7.3323429 3.7599756,6.9445378 3.9105082,6.5791 L 4.8171452,6.2768878 5.1820808,6.6418232 5.5470156,7.0067585 V 6.2768878 L 6.2768875,5.9119525 V 5.5470171 L 7.0067579,5.1820817 7.7366297,4.452211 V 4.8171464 L 8.1015645,4.452211 7.7366297,4.0872757 H 8.4665001 V 4.452211 L 9.1963705,4.0872757 8.831435,3.7223404 Z M 7.7366297,6.2768878 V 6.6418232 H 6.2768875 V 7.0067585 H 6.641823 v 3.6493535 h 3.649354 V 7.0067585 h 0.364936 V 6.6418232 H 9.1963705 V 6.2768878 Z M 8.1015645,6.6418232 H 8.831435 V 7.0067585 H 8.1015645 Z M 7.7366297,7.7366293 H 8.1015645 V 9.5613059 H 7.7366297 Z m 1.0948053,0 H 9.1963705 V 9.5613059 H 8.831435 Z M 3.5470006,8.1963626 4.0872748,8.4665 4.4522118,8.8314356 5.1820822,9.1963705 5.5470171,9.5613059 5.1820822,9.9262414 v 0.7298706 l 0.3649349,0.729871 0.7298704,0.72987 v 0.769786 C 4.6511455,12.083154 3.5398718,10.411151 3.5398718,8.4665 c 0,-0.090604 0.00235,-0.1807784 0.00718,-0.2701374 z"/>
</svg>
