<?xml version='1.0' encoding='UTF-8'?>
<svg xmlns:inkscape="http://www.inkscape.org/namespaces/inkscape" xmlns:sodipodi="http://sodipodi.sourceforge.net/DTD/sodipodi-0.dtd" xmlns="http://www.w3.org/2000/svg" xmlns:svg="http://www.w3.org/2000/svg" xmlns:rdf="http://www.w3.org/1999/02/22-rdf-syntax-ns#" xmlns:cc="http://creativecommons.org/ns#" xmlns:dc="http://purl.org/dc/elements/1.1/" width="64" height="64" version="1.1" viewBox="0 0 16.933 16.933" id="svg7" sodipodi:docname="preferences-desktop-wallpaper.svg" inkscape:version="1.4.2 (ebf0e940d0, 2025-05-08)">
  <sodipodi:namedview id="namedview7" pagecolor="#9c4444" bordercolor="#000000" borderopacity="0.25" inkscape:showpageshadow="2" inkscape:pageopacity="0.0" inkscape:pagecheckerboard="0" inkscape:deskcolor="#d1d1d1" inkscape:zoom="6.15625" inkscape:cx="15.756345" inkscape:cy="29.64467" inkscape:window-width="1226" inkscape:window-height="669" inkscape:window-x="0" inkscape:window-y="0" inkscape:window-maximized="0" inkscape:current-layer="svg7" showgrid="false"/>
  <defs id="defs2">
    <style id="current-color-scheme" type="text/css">.ColorScheme-Text {color:#d8dee9} .ColorScheme-Highlight {color:#3b4252}</style>
  </defs>
  <metadata id="metadata2">
    <rdf:RDF>
      <cc:Work rdf:about="">
        <dc:format>image/svg+xml</dc:format>
        <dc:type rdf:resource="http://purl.org/dc/dcmitype/StillImage"/>
      </cc:Work>
    </rdf:RDF>
  </metadata>
  <g id="g24" style="fill:currentColor;fill-opacity:1" transform="matrix(0.33762641,0,0,0.33762641,-2.1931354,-2.7299874)" class="ColorScheme-Text">
    <path style="fill:currentColor;fill-opacity:1;stroke:none;stroke-width:1;stroke-dasharray:none;stroke-opacity:0.3" class="ColorScheme-Text" d="m 17.85855,19.44863 c -1.959104,0 -1.959104,1.959102 -1.959104,1.959102 v 19.59104 c 0,1.959104 1.959104,1.959104 1.959104,1.959104 h 9.79552 c 0,0 -1.959104,0 -1.959104,1.959104 v 1.959103 H 37.44959 V 44.91698 c 0,-1.959104 -1.959103,-1.959104 -1.959103,-1.959104 h 9.795518 c 1.959108,0 1.959108,-1.959104 1.959108,-1.959104 v -19.59104 c 0,0 0,-1.959102 -1.959108,-1.959102 z m 1.959104,3.918207 H 43.326905 V 39.039668 H 19.817654 Z" id="path5"/>
    <g id="g7" transform="matrix(8.9121038,0,0,8.9121038,45.965162,-7.9136892)" style="fill:currentColor;fill-opacity:1" class="ColorScheme-Text">
      <path id="rect3018-5" class="ColorScheme-Text" d="m -2.6457812,3.7040938 1.3228905,1.3228906 h -1.3228905 z" fill="currentColor" style="fill:currentColor;fill-opacity:1;stroke-width:0.264578"/>
    </g>
  </g>
  </svg>
