<?xml version='1.0' encoding='UTF-8'?>
<svg xmlns:inkscape="http://www.inkscape.org/namespaces/inkscape" xmlns:sodipodi="http://sodipodi.sourceforge.net/DTD/sodipodi-0.dtd" xmlns="http://www.w3.org/2000/svg" xmlns:svg="http://www.w3.org/2000/svg" xmlns:rdf="http://www.w3.org/1999/02/22-rdf-syntax-ns#" xmlns:cc="http://creativecommons.org/ns#" xmlns:dc="http://purl.org/dc/elements/1.1/" width="64" height="64" version="1.1" viewBox="0 0 16.933 16.933" id="svg7" sodipodi:docname="preferences-desktop-text-to-speech.svg" inkscape:version="1.4.2 (ebf0e940d0, 2025-05-08)">
  <sodipodi:namedview id="namedview7" pagecolor="#9c4444" bordercolor="#000000" borderopacity="0.25" inkscape:showpageshadow="2" inkscape:pageopacity="0.0" inkscape:pagecheckerboard="0" inkscape:deskcolor="#d1d1d1" inkscape:zoom="6.15625" inkscape:cx="15.756345" inkscape:cy="27.208122" inkscape:window-width="1226" inkscape:window-height="669" inkscape:window-x="0" inkscape:window-y="0" inkscape:window-maximized="0" inkscape:current-layer="svg7" showgrid="false"/>
  <defs id="defs2">
    <style id="current-color-scheme" type="text/css">.ColorScheme-Text {color:#d8dee9} .ColorScheme-Highlight {color:#3b4252}</style>
  </defs>
  <metadata id="metadata2">
    <rdf:RDF>
      <cc:Work rdf:about="">
        <dc:format>image/svg+xml</dc:format>
        <dc:type rdf:resource="http://purl.org/dc/dcmitype/StillImage"/>
      </cc:Work>
    </rdf:RDF>
  </metadata>
  <path id="path6" style="fill:currentColor;fill-opacity:1;stroke:none;stroke-width:0.331753;stroke-dasharray:none;stroke-dashoffset:2.2;stroke-opacity:0.3" d="M 8.4012353,3.1749375 C 7.9831729,3.1752118 7.6685082,3.2543043 7.2724989,3.450318 6.5783692,3.7938945 6.0904059,4.3618304 5.8308011,5.1272228 5.7554546,5.3493513 5.751179,5.454266 5.7387903,7.6451712 c -0.014719,2.6037458 -0.015108,2.5951818 0.2844521,3.2183848 0.1486994,0.309354 0.2229271,0.410136 0.5209548,0.70627 0.4387269,0.435936 0.8419159,0.655396 1.4365143,0.780785 0.092738,0.01957 0.3571599,0.02956 0.5876944,0.02269 0.3315077,-0.0099 0.4826681,-0.03396 0.7237658,-0.115334 0.7483603,-0.252602 1.3079953,-0.746306 1.6432103,-1.450124 0.266698,-0.559955 0.262422,-0.510751 0.262422,-3.0291806 0,-2.5691424 0.0096,-2.4710738 -0.311018,-3.1237857 C 10.74113,4.358337 10.654022,4.2390836 10.400822,3.9881222 9.865949,3.4579802 9.3195064,3.2142973 8.5871981,3.1794762 8.5227105,3.1764241 8.4609583,3.1749013 8.4012353,3.1749378 Z M 12.379022,9.417325 c -0.144237,0 -0.198248,0.11019 -0.225485,0.4613433 -0.06598,0.8506707 -0.38028,1.5988097 -0.946014,2.2535817 -0.405059,0.46881 -1.159778,0.92823 -1.8064949,1.099578 -0.3750818,0.09938 -1.1056539,0.135999 -1.4993657,0.07515 C 7.4901774,13.243402 6.9201735,13.037703 6.5603971,12.822964 6.220202,12.619912 5.633216,12.073714 5.4271251,11.768095 5.088679,11.2662 4.8370896,10.575789 4.7960187,10.038058 4.758753,9.5502391 4.7435305,9.4937697 4.6411564,9.4471257 4.5715277,9.4154035 4.5225008,9.4161565 4.4474185,9.4503769 l -0.1004367,0.046006 0.022032,0.4270009 c 0.070294,1.3912762 0.9108029,2.6919072 2.1745335,3.3641732 0.3821688,0.203303 0.6591678,0.304132 1.0911558,0.397845 0.4025662,0.08734 1.1727837,0.09776 1.571937,0.02137 0.791541,-0.151446 1.4645009,-0.495253 2.0637329,-1.054868 0.768542,-0.717734 1.22089,-1.675419 1.304331,-2.7609301 0.02142,-0.2786672 0.01541,-0.3321238 -0.04406,-0.3978443 -0.03778,-0.041756 -0.105725,-0.07581 -0.151621,-0.07581 z" class="ColorScheme-Text"/>
</svg>
