<?xml version='1.0' encoding='UTF-8'?>
<svg xmlns:inkscape="http://www.inkscape.org/namespaces/inkscape" xmlns:sodipodi="http://sodipodi.sourceforge.net/DTD/sodipodi-0.dtd" xmlns="http://www.w3.org/2000/svg" xmlns:svg="http://www.w3.org/2000/svg" xmlns:rdf="http://www.w3.org/1999/02/22-rdf-syntax-ns#" xmlns:cc="http://creativecommons.org/ns#" xmlns:dc="http://purl.org/dc/elements/1.1/" width="64" height="64" version="1.1" viewBox="0 0 16.933 16.933" id="svg7" sodipodi:docname="preferences-web-browser-cookies.svg" inkscape:version="1.4.2 (ebf0e940d0, 2025-05-08)">
  <sodipodi:namedview id="namedview7" pagecolor="#9c4444" bordercolor="#000000" borderopacity="0.25" inkscape:showpageshadow="2" inkscape:pageopacity="0.0" inkscape:pagecheckerboard="0" inkscape:deskcolor="#d1d1d1" inkscape:zoom="4.3531261" inkscape:cx="36.410615" inkscape:cy="40.200995" inkscape:window-width="1543" inkscape:window-height="1372" inkscape:window-x="0" inkscape:window-y="0" inkscape:window-maximized="0" inkscape:current-layer="svg7" showgrid="false"/>
  <defs id="defs2">
    <style id="current-color-scheme" type="text/css">.ColorScheme-Text {color:#d8dee9} .ColorScheme-Highlight {color:#3b4252}</style>
  </defs>
  <metadata id="metadata2">
    <rdf:RDF>
      <cc:Work rdf:about="">
        <dc:format>image/svg+xml</dc:format>
        <dc:type rdf:resource="http://purl.org/dc/dcmitype/StillImage"/>
      </cc:Work>
    </rdf:RDF>
  </metadata>
  <path id="rect6" class="ColorScheme-Text" style="baseline-shift:baseline;display:inline;overflow:visible;vector-effect:none;fill:currentColor;fill-opacity:1;stroke-width:0.364935;enable-background:accumulate;stop-color:#000000" d="m 8.4665,3.1749377 c -2.9283691,0 -5.2915623,2.3631932 -5.2915623,5.2915623 0,2.92837 2.3631932,5.291562 5.2915623,5.291562 2.92837,0 5.291562,-2.363192 5.291562,-5.291562 0,-2.9283691 -2.363192,-5.2915623 -5.291562,-5.2915623 z m 0.3649356,0.3777658 c 1.3115584,0.094827 2.4765024,0.6972923 3.3008104,1.6129844 l -0.01638,0.016397 v 0.3649356 h 0.326445 c 0.05713,0.077875 0.112097,0.1574744 0.16465,0.2387761 l -0.126165,0.1261517 -0.72987,0.7298704 -0.364935,0.3649355 -0.364935,1.0948067 v 0.3649356 l 0.364935,0.3649348 0.364935,0.3649348 0.72987,0.3649352 0.833221,-0.2052754 C 12.914411,11.571585 11.046855,13.258996 8.7444823,13.385281 l 0.086952,-0.174627 v -0.364932 l 0.7298699,-0.364935 0.3649363,-0.364935 v -0.729871 l 0.3649365,-0.364935 v -0.364935 l -0.129728,-0.129724 c -0.4336238,0.433614 -1.0330799,0.70136 -1.6949525,0.70136 -1.3236832,0 -2.3963149,-1.072631 -2.3963134,-2.3963129 8.55e-5,-0.090758 0.00563,-0.1807834 0.015684,-0.2694249 l -0.53885,0.2694249 H 4.8171473 V 8.1015652 H 4.4522125 V 7.3716948 H 4.0872755 L 3.7223407,7.7366303 H 3.5926165 C 3.6519857,7.3323431 3.7599763,6.9445379 3.9105089,6.5791002 L 4.8171459,6.2768881 5.1820815,6.641823 5.5470163,7.0067585 V 6.2768881 L 6.2768867,5.9119526 V 5.5470177 L 7.0067571,5.1820822 7.7366289,4.4522125 V 4.8171473 L 8.1015638,4.4522125 7.7366289,4.0872755 h 0.7298704 v 0.364937 L 9.196369,4.0872755 8.8314341,3.7223407 Z M 8.4665,5.9119526 A 0.72987068,0.72987068 0 0 0 7.7366303,6.641823 0.72987068,0.72987068 0 0 0 7.7480777,6.7651338 2.189612,2.189612 0 0 0 6.2769316,8.831437 2.189612,2.189612 0 0 0 8.4665435,11.021049 2.189612,2.189612 0 0 0 10.656156,8.831437 2.189612,2.189612 0 0 0 10.242039,7.5534504 0.36493533,0.36493533 0 0 0 10.291223,7.3716962 0.36493533,0.36493533 0 0 0 9.9262868,7.0067599 0.36493533,0.36493533 0 0 0 9.7438194,7.0559442 2.189612,2.189612 0 0 0 9.1857255,6.7658491 0.72987068,0.72987068 0 0 0 9.196481,6.6418215 0.72987068,0.72987068 0 0 0 8.4666106,5.9119511 Z m 0,0.3649355 A 0.36493533,0.36493533 0 0 1 8.8314356,6.641823 0.36493533,0.36493533 0 0 1 8.8292256,6.67247 2.189612,2.189612 0 0 0 8.4664433,6.641823 2.189612,2.189612 0 0 0 8.1029327,6.67461 0.36493533,0.36493533 0 0 1 8.1015727,6.641823 0.36493533,0.36493533 0 0 1 8.4665082,6.2768881 Z m 0,0.7298704 a 1.8246766,1.8246766 0 0 1 0.1610848,0.00786 1.8246766,1.8246766 0 0 1 0.021383,0.00136 1.8246766,1.8246766 0 0 1 0.047751,0.00718 1.8246766,1.8246766 0 0 1 0.11618,0.018537 1.8246766,1.8246766 0 0 1 0.049184,0.010756 1.8246766,1.8246766 0 0 1 0.1347175,0.034927 1.8246766,1.8246766 0 0 1 0.03778,0.011447 1.8246766,1.8246766 0 0 1 7.132e-4,0 1.8246766,1.8246766 0 0 1 0.022816,0.00855 1.8246766,1.8246766 0 0 1 0.1247309,0.048471 1.8246766,1.8246766 0 0 1 0.048471,0.022096 1.8246766,1.8246766 0 0 1 0.1197382,0.060596 1.8246766,1.8246766 0 0 1 0.032067,0.018537 1.8246766,1.8246766 0 0 1 0.1332824,0.085531 1.8246766,1.8246766 0 0 1 0.00499,0.00292 1.8246766,1.8246766 0 0 1 0.022096,0.016383 1.8246766,1.8246766 0 0 1 0.017809,0.012831 1.8246766,1.8246766 0 0 1 0.3620855,0.3620855 1.8246766,1.8246766 0 0 1 7.132e-4,0.00136 1.8246766,1.8246766 0 0 1 0.096938,0.1425516 1.8246766,1.8246766 0 0 1 0.005,0.00718 1.8246766,1.8246766 0 0 1 0.0029,0.00563 1.8246766,1.8246766 0 0 1 0.08197,0.1518178 1.8246766,1.8246766 0 0 1 0.0014,0.00292 1.8246766,1.8246766 0 0 1 0.0014,0.00292 1.8246766,1.8246766 0 0 1 0.06415,0.1539575 1.8246766,1.8246766 0 0 1 0.0079,0.021383 1.8246766,1.8246766 0 0 1 0.04348,0.1418405 1.8246766,1.8246766 0 0 1 0.01145,0.044912 1.8246766,1.8246766 0 0 1 0.02351,0.1176 1.8246766,1.8246766 0 0 1 0.01145,0.073421 1.8246766,1.8246766 0 0 1 0.0092,0.1019311 1.8246766,1.8246766 0 0 1 0.0063,0.1254619 1.8246766,1.8246766 0 0 1 -0.0079,0.1610841 1.8246766,1.8246766 0 0 1 -0.0092,0.076262 1.8246766,1.8246766 0 0 1 -0.01568,0.1004967 1.8246766,1.8246766 0 0 1 -0.01924,0.086248 1.8246766,1.8246766 0 0 1 -0.0221,0.088386 1.8246766,1.8246766 0 0 1 -0.03065,0.091242 1.8246766,1.8246766 0 0 1 -0.02923,0.080538 1.8246766,1.8246766 0 0 1 -0.04348,0.095503 1.8246766,1.8246766 0 0 1 -0.03137,0.064868 1.8246766,1.8246766 0 0 1 -0.05274,0.092662 1.8246766,1.8246766 0 0 1 -0.042052,0.068427 1.8246766,1.8246766 0 0 1 -0.057736,0.080538 1.8246766,1.8246766 0 0 1 -0.04989,0.065574 1.8246766,1.8246766 0 0 1 -0.063448,0.072704 1.8246766,1.8246766 0 0 1 -0.060582,0.06485 1.8246766,1.8246766 0 0 1 -0.064868,0.06058 1.8246766,1.8246766 0 0 1 -0.072704,0.06344 1.8246766,1.8246766 0 0 1 -0.065574,0.04989 1.8246766,1.8246766 0 0 1 -0.080538,0.05774 1.8246766,1.8246766 0 0 1 -0.068427,0.04205 1.8246766,1.8246766 0 0 1 -0.092662,0.05274 1.8246766,1.8246766 0 0 1 -0.064854,0.03137 1.8246766,1.8246766 0 0 1 -0.095517,0.04348 1.8246766,1.8246766 0 0 1 -0.080538,0.02923 1.8246766,1.8246766 0 0 1 -0.091228,0.03065 1.8246766,1.8246766 0 0 1 -0.088386,0.0221 1.8246766,1.8246766 0 0 1 -0.086249,0.01924 1.8246766,1.8246766 0 0 1 -0.1004968,0.01568 1.8246766,1.8246766 0 0 1 -0.076262,0.0092 1.8246766,1.8246766 0 0 1 -0.161087,0.0079 1.8246766,1.8246766 0 0 1 -0.1610841,-0.0079 1.8246766,1.8246766 0 0 1 -0.076262,-0.0092 1.8246766,1.8246766 0 0 1 -0.1004967,-0.01568 1.8246766,1.8246766 0 0 1 -0.086248,-0.01924 1.8246766,1.8246766 0 0 1 -0.088386,-0.0221 1.8246766,1.8246766 0 0 1 -0.091228,-0.03065 1.8246766,1.8246766 0 0 1 -0.080538,-0.02923 1.8246766,1.8246766 0 0 1 -0.095503,-0.04348 1.8246766,1.8246766 0 0 1 -0.064868,-0.03137 1.8246766,1.8246766 0 0 1 -0.092663,-0.05274 1.8246766,1.8246766 0 0 1 -0.068427,-0.04205 1.8246766,1.8246766 0 0 1 -0.080538,-0.05774 1.8246766,1.8246766 0 0 1 -0.065574,-0.04989 1.8246766,1.8246766 0 0 1 -0.072704,-0.06344 1.8246766,1.8246766 0 0 1 -0.064854,-0.06058 1.8246766,1.8246766 0 0 1 -0.060582,-0.06485 1.8246766,1.8246766 0 0 1 -0.063435,-0.072704 1.8246766,1.8246766 0 0 1 -0.04989,-0.065574 1.8246766,1.8246766 0 0 1 -0.057736,-0.080538 1.8246766,1.8246766 0 0 1 -0.042052,-0.068427 1.8246766,1.8246766 0 0 1 -0.052743,-0.092662 1.8246766,1.8246766 0 0 1 -0.031368,-0.064854 1.8246766,1.8246766 0 0 1 -0.043478,-0.095503 1.8246766,1.8246766 0 0 1 -0.029228,-0.080538 1.8246766,1.8246766 0 0 1 -0.030647,-0.091228 1.8246766,1.8246766 0 0 1 -0.022096,-0.088386 1.8246766,1.8246766 0 0 1 -0.019243,-0.086249 1.8246766,1.8246766 0 0 1 -0.015684,-0.100496 1.8246766,1.8246766 0 0 1 -0.00924,-0.076262 1.8246766,1.8246766 0 0 1 -0.00786,-0.161087 1.8246766,1.8246766 0 0 1 0.00786,-0.1610841 1.8246766,1.8246766 0 0 1 0.00855,-0.069133 1.8246766,1.8246766 0 0 1 0.018537,-0.1161793 1.8246766,1.8246766 0 0 1 0.011447,-0.052743 1.8246766,1.8246766 0 0 1 0.032067,-0.1247316 1.8246766,1.8246766 0 0 1 0.017103,-0.05203 1.8246766,1.8246766 0 0 1 0.042772,-0.1176 1.8246766,1.8246766 0 0 1 0.026375,-0.058442 1.8246766,1.8246766 0 0 1 0.052743,-0.107627 1.8246766,1.8246766 0 0 1 0.024949,-0.044192 1.8246766,1.8246766 0 0 1 0.07128,-0.1161792 1.8246766,1.8246766 0 0 1 0.022816,-0.031368 1.8246766,1.8246766 0 0 1 0.089807,-0.1176 1.8246766,1.8246766 0 0 1 0.01425,-0.016383 1.8246766,1.8246766 0 0 1 0.1147585,-0.1225933 1.8246766,1.8246766 0 0 1 0.1347174,-0.1183168 1.8246766,1.8246766 0 0 1 0.00855,-0.00718 1.8246766,1.8246766 0 0 1 0.1375583,-0.097655 1.8246766,1.8246766 0 0 1 0.014964,-0.00924 1.8246766,1.8246766 0 0 1 0.1482539,-0.084814 1.8246766,1.8246766 0 0 1 0.1660746,-0.074124 1.8246766,1.8246766 0 0 1 0.4091272,-0.1062069 1.8246766,1.8246766 0 0 1 0.00924,-0.00136 1.8246766,1.8246766 0 0 1 0.00786,-7.132e-4 1.8246766,1.8246766 0 0 1 0.1354207,-0.012139 1.8246766,1.8246766 0 0 1 0.041339,-0.00292 1.8246766,1.8246766 0 0 1 0.056317,-0.00207 z m 0,0.3649363 V 8.4665 a 0.36493533,0.36493533 0 0 1 0.3649356,0.3649356 h 1.0948056 a 1.4597414,1.4597414 0 0 0 -0.00649,-0.1233101 1.4597414,1.4597414 0 0 0 -0.00924,-0.07698 1.4597414,1.4597414 0 0 0 -0.00993,-0.067707 1.4597414,1.4597414 0 0 0 -0.018537,-0.081255 1.4597414,1.4597414 0 0 0 -0.014265,-0.056302 1.4597414,1.4597414 0 0 0 -0.025655,-0.0784 1.4597414,1.4597414 0 0 0 -0.024236,-0.065574 1.4597414,1.4597414 0 0 0 -0.028508,-0.063435 1.4597414,1.4597414 0 0 0 -0.032787,-0.067707 1.4597414,1.4597414 0 0 0 -0.034206,-0.059875 1.4597414,1.4597414 0 0 0 -0.042059,-0.068427 1.4597414,1.4597414 0 0 0 -0.03564,-0.049184 1.4597414,1.4597414 0 0 0 -0.051324,-0.067707 1.4597414,1.4597414 0 0 0 -0.041339,-0.047052 1.4597414,1.4597414 0 0 0 -0.054163,-0.058442 1.4597414,1.4597414 0 0 0 -0.058442,-0.054163 1.4597414,1.4597414 0 0 0 -0.047045,-0.041339 1.4597414,1.4597414 0 0 0 -0.067707,-0.051324 1.4597414,1.4597414 0 0 0 -0.049184,-0.03564 1.4597414,1.4597414 0 0 0 -0.068427,-0.042052 1.4597414,1.4597414 0 0 0 -0.059876,-0.034206 1.4597414,1.4597414 0 0 0 -0.067707,-0.032787 1.4597414,1.4597414 0 0 0 -0.063434,-0.028508 1.4597414,1.4597414 0 0 0 -0.065574,-0.024236 1.4597414,1.4597414 0 0 0 -0.0784,-0.025655 1.4597414,1.4597414 0 0 0 -0.056302,-0.01425 1.4597414,1.4597414 0 0 0 -0.081255,-0.018537 1.4597414,1.4597414 0 0 0 -0.067714,-0.00993 1.4597414,1.4597414 0 0 0 -0.076979,-0.00924 1.4597414,1.4597414 0 0 0 -0.1233108,-0.00649 z M 3.5470013,8.1963625 4.0872755,8.4665 4.4522125,8.8314356 5.1820822,9.1963704 5.5470177,9.5613056 5.1820822,9.9262405 v 0.7298715 l 0.3649355,0.729871 0.7298704,0.72987 v 0.769786 C 4.6511462,12.083154 3.5398725,10.41115 3.5398725,8.4665 c 0,-0.090606 0.00235,-0.1807778 0.00718,-0.2701375 z M 6.8585047,8.660372 c -0.00114,0.010342 -0.00235,0.02109 -0.00357,0.032067 -0.00414,0.044812 -0.00706,0.092511 -0.00718,0.1397008 1.604e-4,0.045782 0.00278,0.093269 0.00718,0.1411287 0.00221,0.021518 0.00471,0.044263 0.00786,0.065574 l 0.00136,0.00221 v 0.00136 c 0.00385,0.02982 0.008,0.059355 0.013516,0.089089 0.00471,0.023244 0.010898,0.049377 0.017103,0.074124 l 7.132e-4,0.00292 v 0.00221 c 0.00535,0.024264 0.012139,0.049462 0.019243,0.075559 l 7.132e-4,0.00292 c 0.00786,0.025256 0.01659,0.05004 0.025655,0.074841 l 7.132e-4,0.00292 7.132e-4,0.00221 c 0.00786,0.023337 0.016219,0.046674 0.024949,0.069148 l 7.133e-4,0.00221 c 0.011312,0.026803 0.023986,0.053107 0.037059,0.079835 l 7.133e-4,0.00221 0.00136,0.00221 c 0.00924,0.019956 0.018522,0.039555 0.027794,0.057735 0.01338,0.025106 0.028729,0.052608 0.044898,0.079118 l 7.132e-4,0.00136 0.00136,0.00221 c 0.010756,0.018401 0.02196,0.037131 0.034207,0.056302 4.743e-4,7.132e-4 9.272e-4,0.0015 0.00136,0.00221 l 0.00136,0.00221 c 0.015684,0.023009 0.032045,0.045397 0.048471,0.066993 l 0.00136,0.00221 0.00136,0.00136 c 0.013658,0.018744 0.027017,0.037559 0.041339,0.055596 v 7.132e-4 h 7.132e-4 v 7.132e-4 h 7.132e-4 l 0.00136,0.00136 c 0.017638,0.021183 0.035298,0.041603 0.053464,0.061295 l 0.00136,0.00136 0.00136,0.00136 c 0.016797,0.018922 0.03462,0.037765 0.052743,0.056302 0.017652,0.017339 0.035961,0.035212 0.055596,0.052743 0.023601,0.02163 0.045383,0.0399 0.066993,0.05774 0.016426,0.0131 0.035776,0.02767 0.055596,0.04206 l 0.00136,0.0014 0.00221,0.0014 c 0.021611,0.01643 0.043999,0.03277 0.066994,0.04847 7.131e-4,4.74e-4 0.00136,9.27e-4 0.00221,0.0014 l 0.00221,0.0014 c 0.019186,0.01227 0.037901,0.0235 0.056302,0.03421 l 0.00221,0.0014 0.00136,7.13e-4 c 0.025255,0.01542 0.051516,0.0305 0.0784,0.04491 l 7.132e-4,7.13e-4 h 7.132e-4 7.132e-4 c 0.019143,0.0097 0.037295,0.01907 0.054883,0.02709 l 0.00292,0.0014 0.00292,0.0014 c 0.026183,0.01297 0.053492,0.02495 0.081972,0.03706 l 0.00292,0.0014 c 0.021946,0.0084 0.043764,0.01619 0.065574,0.02351 l 0.00292,7.14e-4 0.00292,7.13e-4 c 0.02574,0.0094 0.051459,0.01827 0.077696,0.02637 0.025669,0.0071 0.051046,0.01381 0.075559,0.01924 h 0.00292 l 0.00221,7.13e-4 c 0.024756,0.0062 0.050839,0.01186 0.076979,0.0171 0.026582,0.005 0.056345,0.0097 0.086249,0.01352 0.025198,0.0036 0.047587,0.0062 0.07128,0.0085 0.045739,0.0043 0.093228,0.0071 0.1404147,0.0072 0.045768,-1.61e-4 0.093269,-0.0028 0.1411273,-0.0072 0.021532,-0.0022 0.044263,-0.0047 0.065574,-0.0079 l 0.00221,-7.13e-4 h 0.00136 c 0.02982,-0.0038 0.059355,-0.008 0.089104,-0.01352 0.023244,-0.0047 0.049377,-0.0109 0.074124,-0.0171 l 0.00292,-7.13e-4 h 0.00221 c 0.024264,-0.0053 0.049462,-0.01214 0.075559,-0.01924 0.026204,-0.0081 0.051973,-0.01698 0.077696,-0.02637 l 0.00292,-7.14e-4 0.00221,-7.13e-4 c 0.022624,-0.0076 0.045183,-0.01581 0.066994,-0.02424 h 7.132e-4 l 7.133e-4,-7.13e-4 H 9.07332 l 0.00221,-7.13e-4 c 0.026803,-0.01131 0.053107,-0.02399 0.079834,-0.03706 l 0.00221,-7.14e-4 0.00221,-0.0014 c 0.019971,-0.0092 0.039556,-0.01852 0.057736,-0.02779 0.025106,-0.01338 0.052608,-0.02873 0.079117,-0.04491 l 0.00136,-7.13e-4 0.00221,-0.0014 c 0.019115,-0.01117 0.038471,-0.02285 0.058442,-0.03564 0.023751,-0.01614 0.046852,-0.03295 0.069133,-0.04989 l 0.00221,-0.0014 0.00136,-0.0014 7.133e-4,-7.13e-4 L 8.8315105,9.9263742 8.4665756,9.5614393 8.1016401,9.1965049 H 7.7367052 L 7.3717697,8.8315693 Z"/>
</svg>
