<?xml version='1.0' encoding='UTF-8'?>
<svg xmlns:inkscape="http://www.inkscape.org/namespaces/inkscape" xmlns:sodipodi="http://sodipodi.sourceforge.net/DTD/sodipodi-0.dtd" xmlns="http://www.w3.org/2000/svg" xmlns:svg="http://www.w3.org/2000/svg" xmlns:rdf="http://www.w3.org/1999/02/22-rdf-syntax-ns#" xmlns:cc="http://creativecommons.org/ns#" xmlns:dc="http://purl.org/dc/elements/1.1/" width="64" height="64" version="1.1" viewBox="0 0 16.933 16.933" id="svg7" sodipodi:docname="preferences-desktop-gaming.svg" inkscape:version="1.4.2 (ebf0e940d0, 2025-05-08)">
  <sodipodi:namedview id="namedview7" pagecolor="#9c4444" bordercolor="#000000" borderopacity="0.25" inkscape:showpageshadow="2" inkscape:pageopacity="0.0" inkscape:pagecheckerboard="0" inkscape:deskcolor="#d1d1d1" inkscape:zoom="6.15625" inkscape:cx="15.756345" inkscape:cy="27.208122" inkscape:window-width="1226" inkscape:window-height="669" inkscape:window-x="0" inkscape:window-y="0" inkscape:window-maximized="0" inkscape:current-layer="svg7" showgrid="false"/>
  <defs id="defs2">
    <style id="current-color-scheme" type="text/css">.ColorScheme-Text {color:#d8dee9} .ColorScheme-Highlight {color:#3b4252}</style>
  </defs>
  <metadata id="metadata2">
    <rdf:RDF>
      <cc:Work rdf:about="">
        <dc:format>image/svg+xml</dc:format>
        <dc:type rdf:resource="http://purl.org/dc/dcmitype/StillImage"/>
      </cc:Work>
    </rdf:RDF>
  </metadata>
  <path id="path99" style="fill:currentColor;fill-opacity:1;stroke:none;stroke-width:0.331769;stroke-dasharray:none;stroke-dashoffset:2.2;stroke-opacity:0.3" d="m 11.364129,4.1161275 c -0.174337,-7.27e-5 -0.360949,0.070128 -0.5945,0.206973 -0.555771,0.3256359 -1.2826136,0.4792109 -2.2807635,0.4792109 -0.998053,0 -1.7491431,-0.1568429 -2.3016034,-0.4806002 C 5.7442613,4.0621076 5.4797843,4.0586667 5.1079981,4.3093472 4.1534984,4.9525833 3.4341306,7.0149122 3.2230984,9.7098521 3.096549,11.325888 3.2147526,12.177873 3.6328577,12.657346 3.8345096,12.888513 4.3295382,12.84932 4.7760192,12.565666 5.1544934,12.325217 5.6054434,11.794636 6.1442032,10.955785 6.6310484,10.197764 7.2199193,9.948102 8.5222019,9.9459685 9.821894,9.943748 10.33266,10.189847 10.93215,11.111354 c 1.005797,1.546062 1.935471,2.084307 2.480784,1.436242 0.302099,-0.359022 0.357394,-0.705897 0.343084,-2.150197 C 13.729944,7.7737572 13.044135,5.38698 12.055864,4.4760192 11.792659,4.2334041 11.588295,4.1163563 11.364129,4.1162623 Z M 5.7177756,5.6621032 h 0.602833 0.6028336 V 6.1788191 6.6955353 H 7.4401585 7.9568722 V 7.3414292 7.9873208 H 7.4401585 6.9234422 v 0.559774 0.5597746 H 6.3775597 c -0.2998946,0 -0.5698771,-0.02688 -0.6014467,-0.058327 C 5.744559,9.0169854 5.717784,8.766377 5.717784,8.4901564 V 7.9873208 H 5.2010603 4.6843441 V 7.3414292 6.6955353 H 5.2010603 5.7177756 V 6.1788191 Z m 4.9143454,0 c 0.543837,0 0.776733,0.6025581 0.384758,0.99454 -0.249283,0.2492549 -0.476794,0.268847 -0.722289,0.061125 C 9.8687682,6.3574505 10.091031,5.6621141 10.632121,5.6621141 Z m -1.0459304,1.10427 c 0.1357953,9.52e-5 0.2725252,0.05422 0.3805893,0.1736155 0.1684551,0.1861421 0.1866511,0.6123161 0.034722,0.8111881 -0.2973071,0.3892161 -1.0112015,0.1388616 -1.0112015,-0.3541983 0,-0.3742128 0.2971333,-0.6308202 0.5958869,-0.6306156 z m 2.1349194,0.020967 c 0.156535,0.00291 0.308486,0.054696 0.397261,0.1527839 0.168446,0.186142 0.186641,0.6123132 0.03472,0.8111875 -0.316234,0.4139825 -1.011206,0.1368988 -1.011206,-0.4028158 0,-0.1635918 0.06553,-0.340909 0.156954,-0.42365 0.104491,-0.094566 0.26576,-0.1403673 0.422263,-0.1375143 z m -1.051485,1.1139896 c 0.482138,0 0.716733,0.5114106 0.425038,0.9278654 -0.09973,0.1423544 -0.221327,0.1916794 -0.472269,0.1916794 -0.288907,0 -0.355948,-0.037603 -0.472263,-0.2625337 -0.2293358,-0.4434985 0.02097,-0.857024 0.519494,-0.857024 z" class="ColorScheme-Text"/>
</svg>
