<?xml version='1.0' encoding='UTF-8'?>
<svg xmlns:inkscape="http://www.inkscape.org/namespaces/inkscape" xmlns:sodipodi="http://sodipodi.sourceforge.net/DTD/sodipodi-0.dtd" xmlns="http://www.w3.org/2000/svg" xmlns:svg="http://www.w3.org/2000/svg" xmlns:rdf="http://www.w3.org/1999/02/22-rdf-syntax-ns#" xmlns:cc="http://creativecommons.org/ns#" xmlns:dc="http://purl.org/dc/elements/1.1/" width="64" height="64" version="1.1" viewBox="0 0 16.933 16.933" id="svg7" sodipodi:docname="preferences-system-network-wakeonlan.svg" inkscape:version="1.4.2 (ebf0e940d0, 2025-05-08)">
  <sodipodi:namedview id="namedview7" pagecolor="#9c4444" bordercolor="#000000" borderopacity="0.25" inkscape:showpageshadow="2" inkscape:pageopacity="0.0" inkscape:pagecheckerboard="0" inkscape:deskcolor="#d1d1d1" inkscape:zoom="4.3531261" inkscape:cx="36.410615" inkscape:cy="40.200995" inkscape:window-width="1543" inkscape:window-height="1372" inkscape:window-x="0" inkscape:window-y="0" inkscape:window-maximized="0" inkscape:current-layer="svg7" showgrid="false"/>
  <defs id="defs2">
    <style id="current-color-scheme" type="text/css">.ColorScheme-Text {color:#d8dee9} .ColorScheme-Highlight {color:#3b4252}</style>
  </defs>
  <metadata id="metadata2">
    <rdf:RDF>
      <cc:Work rdf:about="">
        <dc:format>image/svg+xml</dc:format>
        <dc:type rdf:resource="http://purl.org/dc/dcmitype/StillImage"/>
      </cc:Work>
    </rdf:RDF>
  </metadata>
  <path id="rect6" class="ColorScheme-Text" style="baseline-shift:baseline;display:inline;overflow:visible;vector-effect:none;fill:currentColor;stroke-width:0.364936;enable-background:accumulate;stop-color:#000000" d="m 8.4664997,3.1749377 c -2.9283698,0 -5.291563,2.3631932 -5.291563,5.291563 0,2.9283693 2.3631932,5.2915613 5.291563,5.2915613 2.9283713,0 5.2915633,-2.363192 5.2915633,-5.2915613 0,-2.9283698 -2.363193,-5.291563 -5.2915633,-5.291563 z m 0.3649356,0.3777652 c 1.3115597,0.094834 2.4765047,0.6972924 3.3008117,1.6129858 l -0.01639,0.016393 v 0.3649355 h 0.326445 c 0.05713,0.077873 0.112097,0.1574746 0.164651,0.2387761 l -0.126166,0.1261586 -0.72987,0.7298711 -0.364935,0.3649348 -0.250894,0.7526795 c 0.06033,0.2269336 0.09241,0.4639616 0.09266,0.7070627 0,0.067115 -0.0023,0.1336548 -0.0072,0.1995735 l 0.165362,0.1653614 0.364935,0.3649355 0.72987,0.3649345 0.833222,-0.2052754 C 12.91436,11.571588 11.046804,13.259 8.7444307,13.385286 l 0.086952,-0.174628 v -0.364935 l 0.7298706,-0.364935 0.3649355,-0.364935 v -0.72987 l 0.3649362,-0.364936 v -0.364936 l -0.06271,-0.06272 c -0.478,0.396344 -1.0920981,0.63436 -1.7619539,0.63436 -1.4314883,0 -2.6080096,-1.088026 -2.7477061,-2.482557 L 5.5469739,8.8314413 H 4.8171435 V 8.1015616 H 4.4522086 V 7.3716912 H 4.0872717 L 3.7223368,7.7366261 H 3.5926127 C 3.6519818,7.3323403 3.7599725,6.944535 3.9105051,6.5790974 L 4.8171421,6.2768846 5.1820776,6.6418201 5.5470125,7.0067557 V 6.2768846 L 6.2768843,5.9119497 V 5.5470177 L 7.0067575,5.1820822 7.7366293,4.4522115 V 4.8171468 L 8.1015649,4.4522115 7.7366293,4.0872762 H 8.4664997 V 4.4522115 L 9.1963708,4.0872762 8.8314353,3.7223408 Z M 8.1015649,5.9119533 V 8.1015652 H 8.8314353 V 5.9119533 Z M 7.7366293,6.0195809 A 2.5545476,2.5545476 0 0 0 5.9119523,8.4665007 2.5545476,2.5545476 0 0 0 8.4664997,11.021049 2.5545476,2.5545476 0 0 0 11.021048,8.4665007 2.5545476,2.5545476 0 0 0 9.1963708,6.0210059 V 6.4051858 A 2.1896123,2.1896123 0 0 1 10.656113,8.4665007 2.1896123,2.1896123 0 0 1 8.4664997,10.656112 2.1896123,2.1896123 0 0 1 6.2768871,8.4665007 2.1896123,2.1896123 0 0 1 7.7366293,6.4044733 Z m -4.189629,2.1767824 0.5402742,0.2701374 0.364937,0.3649356 0.7298704,0.3649355 0.3649348,0.3649345 -0.3649348,0.3649356 v 0.7298701 l 0.3649348,0.729872 0.7298704,0.729871 v 0.769784 C 4.6511452,12.083155 3.5398723,10.41115 3.5398723,8.4665007 c 0,-0.090606 0.00235,-0.1807792 0.00717,-0.2701374 z M 6.4850144,8.535639 c 0.036346,1.064994 0.9072082,1.913773 1.9814853,1.913773 0.3840159,0 0.7423826,-0.108539 1.0456253,-0.29651 L 8.8314353,9.9262419 8.4664997,9.5613063 8.1015649,9.1963718 H 7.7366293 L 7.3716945,8.8314363 Z"/>
</svg>
