<?xml version='1.0' encoding='UTF-8'?>
<svg xmlns:inkscape="http://www.inkscape.org/namespaces/inkscape" xmlns:sodipodi="http://sodipodi.sourceforge.net/DTD/sodipodi-0.dtd" xmlns="http://www.w3.org/2000/svg" xmlns:svg="http://www.w3.org/2000/svg" xmlns:rdf="http://www.w3.org/1999/02/22-rdf-syntax-ns#" xmlns:cc="http://creativecommons.org/ns#" xmlns:dc="http://purl.org/dc/elements/1.1/" width="64" height="64" version="1.1" viewBox="0 0 16.933 16.933" id="svg7" sodipodi:docname="preferences-desktop-effects.svg" inkscape:version="1.4.2 (ebf0e940d0, 2025-05-08)">
  <sodipodi:namedview id="namedview7" pagecolor="#9c4444" bordercolor="#000000" borderopacity="0.25" inkscape:showpageshadow="2" inkscape:pageopacity="0.0" inkscape:pagecheckerboard="0" inkscape:deskcolor="#d1d1d1" inkscape:zoom="6.15625" inkscape:cx="15.756345" inkscape:cy="27.208122" inkscape:window-width="1226" inkscape:window-height="669" inkscape:window-x="0" inkscape:window-y="0" inkscape:window-maximized="0" inkscape:current-layer="svg7" showgrid="false"/>
  <defs id="defs2">
    <style id="current-color-scheme" type="text/css">.ColorScheme-Text {color:#d8dee9} .ColorScheme-Highlight {color:#3b4252}</style>
  </defs>
  <metadata id="metadata2">
    <rdf:RDF>
      <cc:Work rdf:about="">
        <dc:format>image/svg+xml</dc:format>
        <dc:type rdf:resource="http://purl.org/dc/dcmitype/StillImage"/>
      </cc:Work>
    </rdf:RDF>
  </metadata>
  <path d="M 10.693678,6.9310715 12.587908,5.036841 11.896159,4.3450913 10.001927,6.2393215 Z M 13.58351,5.036841 q 0,0.174553 -0.116376,0.2909225 L 5.1532125,13.641688 q -0.116369,0.116377 -0.2909223,0.116377 -0.1745544,0 -0.2909233,-0.116377 l -1.2800603,-1.28006 q -0.1163692,-0.116375 -0.1163692,-0.29092 0,-0.174553 0.1163692,-0.290924 L 11.605237,3.4658577 q 0.116375,-0.1163691 0.290922,-0.1163691 0.174554,0 0.290923,0.1163691 l 1.280061,1.2800593 q 0.116376,0.1163706 0.116376,0.290924 z M 4.8493618,3.8085001 5.4829266,4.0024485 4.8493618,4.1963979 4.6554134,4.8299615 4.4614648,4.1963979 3.8279003,4.0024485 4.4614648,3.8085001 4.6554134,3.1749347 Z m 2.2627325,1.0473225 1.26713,0.3878965 -1.26713,0.3878973 L 6.7241978,6.8987469 6.3363009,5.6316164 5.06917,5.2437191 6.3363009,4.8558226 6.7241978,3.5886918 Z M 13.124499,7.9460686 13.758063,8.1400172 13.124499,8.3339663 12.93055,8.9675307 12.736601,8.3339663 12.103039,8.1400172 12.736601,7.9460686 12.93055,7.3125037 Z M 8.986931,3.8085001 9.620495,4.0024485 8.986931,4.1963979 8.7929816,4.8299615 8.5990328,4.1963979 7.9654682,4.0024485 8.5990328,3.8085001 8.7929816,3.1749347 Z" id="path1-3-3" style="overflow:hidden;fill:currentColor;fill-opacity:1;stroke-width:0.0113137" class="ColorScheme-Text"/>
</svg>
