<?xml version='1.0' encoding='UTF-8'?>
<svg xmlns:inkscape="http://www.inkscape.org/namespaces/inkscape" xmlns:sodipodi="http://sodipodi.sourceforge.net/DTD/sodipodi-0.dtd" xmlns="http://www.w3.org/2000/svg" xmlns:svg="http://www.w3.org/2000/svg" xmlns:rdf="http://www.w3.org/1999/02/22-rdf-syntax-ns#" xmlns:cc="http://creativecommons.org/ns#" xmlns:dc="http://purl.org/dc/elements/1.1/" width="64" height="64" version="1.1" viewBox="0 0 16.933 16.933" id="svg7" sodipodi:docname="preferences-web-browser-identification.svg" inkscape:version="1.4.2 (ebf0e940d0, 2025-05-08)">
  <sodipodi:namedview id="namedview7" pagecolor="#9c4444" bordercolor="#000000" borderopacity="0.25" inkscape:showpageshadow="2" inkscape:pageopacity="0.0" inkscape:pagecheckerboard="0" inkscape:deskcolor="#d1d1d1" inkscape:zoom="4.3531261" inkscape:cx="36.410615" inkscape:cy="40.200995" inkscape:window-width="1543" inkscape:window-height="1372" inkscape:window-x="0" inkscape:window-y="0" inkscape:window-maximized="0" inkscape:current-layer="svg7" showgrid="false"/>
  <defs id="defs2">
    <style id="current-color-scheme" type="text/css">.ColorScheme-Text {color:#d8dee9} .ColorScheme-Highlight {color:#3b4252}</style>
  </defs>
  <metadata id="metadata2">
    <rdf:RDF>
      <cc:Work rdf:about="">
        <dc:format>image/svg+xml</dc:format>
        <dc:type rdf:resource="http://purl.org/dc/dcmitype/StillImage"/>
      </cc:Work>
    </rdf:RDF>
  </metadata>
  <path id="rect6" class="ColorScheme-Text" style="baseline-shift:baseline;display:inline;overflow:visible;vector-effect:none;fill:currentColor;stroke-width:0.364935;enable-background:accumulate;stop-color:#000000" d="m 8.4665,3.1749377 c -2.9283691,0 -5.2915623,2.3631932 -5.2915623,5.2915623 0,2.92837 2.3631932,5.291562 5.2915623,5.291562 2.92837,0 5.291562,-2.363192 5.291562,-5.291562 0,-2.9283691 -2.363192,-5.2915623 -5.291562,-5.2915623 z m 0.3649356,0.3777658 c 1.3115584,0.094827 2.4765024,0.6972923 3.3008104,1.6129844 l -0.0164,0.016397 v 0.3649356 h 0.326445 c 0.05713,0.077875 0.112097,0.1574744 0.16465,0.2387761 L 12.480779,5.9119483 11.750908,6.6418187 11.385974,7.0067542 11.227739,7.4814564 V 7.9433261 H 11.07378 l -0.05274,0.1582348 v 0.3649356 l 0.364936,0.3649348 0.364935,0.3649348 0.72987,0.3649352 0.833222,-0.2052754 C 12.914395,11.571585 11.04684,13.258996 8.7444673,13.385281 l 0.086952,-0.174627 V 12.845719 L 9.5612892,12.480784 9.926224,12.115849 V 11.38598 l 0.158235,-0.158235 H 9.7195218 V 10.862813 H 9.03812 8.9896489 8.2597778 V 10.497878 H 7.9433097 v 0.72987 h -2.23808 V 9.0381378 8.9896668 8.752315 L 5.546997,8.831432 H 4.8171281 V 8.1015638 H 4.4521925 V 7.3716934 H 4.0872563 L 3.7223214,7.7366289 H 3.5925973 C 3.6519593,7.3323417 3.7599571,6.9445365 3.9104897,6.5790988 L 4.8171267,6.2768867 5.1820615,6.6418215 5.546997,7.0067571 V 6.2768867 L 5.7052304,6.1977697 V 5.7052496 h 0.571637 V 5.5470177 L 7.0067378,5.1820822 7.7366097,4.4522125 V 4.8171473 L 8.1015445,4.4522125 7.7366097,4.0872755 h 0.7298696 v 0.364937 L 9.1963497,4.0872755 8.8314149,3.7223407 Z M 5.9119526,5.9119526 V 7.7366303 H 7.7366303 V 5.9119526 Z m 2.5545474,0 V 6.2768881 H 8.8314356 V 5.9119526 Z m 0.7298704,0 V 7.7366303 H 11.021048 V 5.9119526 Z M 6.2768881,6.2768881 H 7.3716948 V 7.3716948 H 6.2768881 Z m 3.2844182,0 H 10.656113 V 7.3716948 H 9.5613063 Z M 6.641823,6.641823 V 7.0067585 H 7.0067585 V 6.641823 Z m 1.4597422,0 V 7.3716948 H 8.4665 V 7.0067585 H 8.8314356 V 6.641823 H 8.4665 Z M 8.4665,7.3716948 V 7.7366303 H 8.1015652 V 8.1015652 H 7.7366303 V 8.4665 H 8.1015652 V 8.8314356 H 8.8314356 V 8.4665 H 8.4665 V 8.1015652 H 8.8314356 V 7.3716948 Z M 8.8314356,8.1015652 V 8.4665 H 9.1963704 V 8.8314356 H 9.5613063 V 8.4665 H 9.9262412 V 8.1015652 H 9.1963704 Z M 9.9262412,6.641823 V 7.0067585 H 10.291178 V 6.641823 Z M 6.2768881,8.1015652 V 8.4665 H 6.641823 V 8.1015652 Z M 6.641823,8.4665 V 8.8314356 H 7.3716948 V 8.1015652 H 7.0067585 V 8.4665 Z m -0.3649349,0 H 5.9119526 V 8.8314356 H 6.2768881 Z M 10.291178,8.1015652 V 8.4665 h 0.364935 V 8.1015652 Z m -6.7441767,0.0948 0.5402742,0.2701375 0.364937,0.3649355 0.7298697,0.3649351 0.3649355,0.3649352 -0.3649355,0.3649355 v 0.729871 l 0.3649355,0.729871 0.7298704,0.72987 v 0.769786 C 4.6511462,12.083157 3.5398725,10.411153 3.5398725,8.4665029 c 0,-0.090607 0.00235,-0.1807778 0.00718,-0.2701375 z m 6.7441767,0.635073 v 0.3649351 h 0.364935 V 8.8314384 Z m 0.364935,0.3649351 v 0.3649352 h 0.364936 V 9.1963733 Z m -4.7441604,0 V 11.02105 H 7.7366303 V 9.1963733 Z m 2.0313778,0 V 9.7195432 H 8.2597985 V 9.354608 L 8.1015652,9.1963733 Z m 0.8881052,0 V 9.5613085 H 9.1963704 V 9.1963733 Z m 0,0.3649352 H 8.4665 V 9.926244 H 8.1015652 v 0.364937 H 8.4665 v 0.364935 H 8.8314356 V 9.9262433 Z M 9.5613063,9.1963733 V 9.5613085 H 9.9262412 V 9.1963733 Z M 9.9262412,9.5613085 V 9.9262433 H 10.291177 V 9.5613085 Z M 10.291177,9.9262433 V 10.29118 h 0.364935 V 9.9262433 Z m 0,0.3649367 H 9.9262412 v 0.72987 h 0.3649358 v -0.364935 z m -0.3649358,0 V 9.9262405 H 9.1963704 V 10.656112 H 9.5613063 V 10.291177 Z M 6.2768881,9.5613085 H 7.3716948 V 10.656115 H 6.2768881 Z M 6.641823,9.926244 v 0.364937 H 7.0067585 V 9.9262433 Z m 4.014289,0.729871 v 0.364935 h 0.364936 v -0.364935 z"/>
</svg>
