<?xml version='1.0' encoding='UTF-8'?>
<svg xmlns:inkscape="http://www.inkscape.org/namespaces/inkscape" xmlns:sodipodi="http://sodipodi.sourceforge.net/DTD/sodipodi-0.dtd" xmlns="http://www.w3.org/2000/svg" xmlns:svg="http://www.w3.org/2000/svg" xmlns:rdf="http://www.w3.org/1999/02/22-rdf-syntax-ns#" xmlns:cc="http://creativecommons.org/ns#" xmlns:dc="http://purl.org/dc/elements/1.1/" width="64" height="64" version="1.1" viewBox="0 0 16.933 16.933" id="svg7" sodipodi:docname="preferences-web-browser-ssl.svg" inkscape:version="1.4.2 (ebf0e940d0, 2025-05-08)">
  <sodipodi:namedview id="namedview7" pagecolor="#9c4444" bordercolor="#000000" borderopacity="0.25" inkscape:showpageshadow="2" inkscape:pageopacity="0.0" inkscape:pagecheckerboard="0" inkscape:deskcolor="#d1d1d1" inkscape:zoom="4.3531261" inkscape:cx="36.410615" inkscape:cy="40.200995" inkscape:window-width="1543" inkscape:window-height="1372" inkscape:window-x="0" inkscape:window-y="0" inkscape:window-maximized="0" inkscape:current-layer="svg7" showgrid="false"/>
  <defs id="defs2">
    <style id="current-color-scheme" type="text/css">.ColorScheme-Text {color:#d8dee9} .ColorScheme-Highlight {color:#3b4252}</style>
  </defs>
  <metadata id="metadata2">
    <rdf:RDF>
      <cc:Work rdf:about="">
        <dc:format>image/svg+xml</dc:format>
        <dc:type rdf:resource="http://purl.org/dc/dcmitype/StillImage"/>
      </cc:Work>
    </rdf:RDF>
  </metadata>
  <path id="rect6" class="ColorScheme-Text" style="baseline-shift:baseline;display:inline;overflow:visible;vector-effect:none;fill:currentColor;stroke-width:0.364936;enable-background:accumulate;stop-color:#000000" d="m 8.4665001,3.1749376 c -2.9283696,0 -5.2915626,2.3631933 -5.2915626,5.2915622 0,2.9283702 2.363193,5.2915622 5.2915626,5.2915622 2.9283699,0 5.2915619,-2.363192 5.2915619,-5.2915622 0,-2.9283689 -2.363192,-5.2915622 -5.2915619,-5.2915622 z m 0.3649355,0.3777647 c 1.3115584,0.094842 2.4765034,0.6972921 3.3008104,1.6129863 l -0.01638,0.016383 v 0.3649355 h 0.326445 c 0.05713,0.077876 0.112097,0.1574745 0.16465,0.2387768 L 12.480795,5.9119354 11.750925,6.6418072 11.38599,7.006742 11.021055,8.101548 v 0.3649347 l 0.364935,0.3649355 0.364935,0.3649362 0.72987,0.3649358 0.833222,-0.2052774 C 12.91441,11.571573 11.046855,13.258985 8.7444824,13.38527 l 0.086952,-0.174627 V 12.84571 L 9.5613045,12.480775 9.9262394,12.11584 V 11.385969 L 10.291176,11.021034 V 10.8628 H 6.4351181 V 8.5192302 L 6.2768834,8.4664869 5.5470131,8.8314225 H 4.8171427 V 8.1015522 H 4.4522079 V 7.3716818 H 4.087271 L 3.7223362,7.7366166 H 3.592612 C 3.651974,7.3323315 3.7599718,6.9445256 3.9105044,6.5790873 L 4.8171413,6.2768759 5.1820768,6.6418115 5.5470116,7.0067463 V 6.2768759 L 6.276882,5.9119397 V 5.5470042 L 7.0067523,5.1820694 7.7366241,4.452199 V 4.8171338 L 8.1015596,4.452199 7.7366241,4.0872635 H 8.4664944 V 4.452199 L 9.1963647,4.0872635 8.8314299,3.7223287 Z M 8.4665001,5.9119518 c -0.6065224,0 -1.0948051,0.4882841 -1.0948051,1.0948073 V 8.1015643 H 6.6418232 V 10.656112 H 10.291177 V 8.1015643 H 9.561306 V 7.0067591 c 0,-0.6065232 -0.4882834,-1.0948073 -1.0948059,-1.0948073 z m 0,0.364937 c 0.4547089,0 0.7298703,0.1992532 0.7298703,0.7298703 V 8.1015643 H 7.7366298 V 7.0067591 c 0,-0.5306171 0.2751614,-0.7298703 0.7298703,-0.7298703 z M 3.547001,8.196363 4.0872752,8.4664998 4.4522122,8.8314346 5.1820825,9.1963708 5.5470173,9.5613066 5.1820825,9.9262414 v 0.7298706 l 0.3649348,0.72987 0.7298704,0.729872 v 0.769784 C 4.6511459,12.083154 3.5398723,10.411151 3.5398723,8.4664998 c 0,-0.090607 0.00235,-0.1807785 0.00718,-0.2701368 z"/>
</svg>
