<?xml version='1.0' encoding='UTF-8'?>
<svg xmlns:inkscape="http://www.inkscape.org/namespaces/inkscape" xmlns:sodipodi="http://sodipodi.sourceforge.net/DTD/sodipodi-0.dtd" xmlns="http://www.w3.org/2000/svg" xmlns:svg="http://www.w3.org/2000/svg" xmlns:rdf="http://www.w3.org/1999/02/22-rdf-syntax-ns#" xmlns:cc="http://creativecommons.org/ns#" xmlns:dc="http://purl.org/dc/elements/1.1/" width="64" height="64" version="1.1" viewBox="0 0 16.933 16.933" id="svg7" sodipodi:docname="preferences-system-network-ntp.svg" inkscape:version="1.4.2 (ebf0e940d0, 2025-05-08)">
  <sodipodi:namedview id="namedview7" pagecolor="#9c4444" bordercolor="#000000" borderopacity="0.25" inkscape:showpageshadow="2" inkscape:pageopacity="0.0" inkscape:pagecheckerboard="0" inkscape:deskcolor="#d1d1d1" inkscape:zoom="4.3531261" inkscape:cx="36.410615" inkscape:cy="40.200995" inkscape:window-width="1543" inkscape:window-height="1372" inkscape:window-x="0" inkscape:window-y="0" inkscape:window-maximized="0" inkscape:current-layer="svg7" showgrid="false"/>
  <defs id="defs2">
    <style id="current-color-scheme" type="text/css">.ColorScheme-Text {color:#d8dee9} .ColorScheme-Highlight {color:#3b4252}</style>
  </defs>
  <metadata id="metadata2">
    <rdf:RDF>
      <cc:Work rdf:about="">
        <dc:format>image/svg+xml</dc:format>
        <dc:type rdf:resource="http://purl.org/dc/dcmitype/StillImage"/>
      </cc:Work>
    </rdf:RDF>
  </metadata>
  <path id="path10" class="ColorScheme-Text" style="baseline-shift:baseline;display:inline;overflow:visible;vector-effect:none;fill:currentColor;stroke-width:0.364936;enable-background:accumulate;stop-color:#000000" d="m 8.4665001,3.1749377 c -2.920288,0 -5.2915626,2.3712743 -5.2915626,5.2915623 0,2.920288 2.3712746,5.291562 5.2915626,5.291562 2.9202879,0 5.2915619,-2.371274 5.2915619,-5.291562 0,-2.920288 -2.371274,-5.2915623 -5.2915619,-5.2915623 z m 0,0.3649354 c 1.8721419,0 3.4984179,1.0414887 4.3321809,2.5773558 l -1.047763,0.5245945 -0.364935,1.094806 -0.52317,0.5231691 h 0.364935 V 9.0381369 H 9.8777734 L 9.5613053,9.1963706 V 9.9262415 L 8.831435,10.291176 8.4665001,10.656112 H 7.7366298 L 7.3716943,10.291176 H 7.006758 l 0.3649363,1.459742 H 6.6418232 L 6.2768877,11.385983 H 5.5470174 l -0.7298704,0.364935 0.029228,0.05774 C 4.0355776,10.930712 3.5398723,9.7571984 3.5398723,8.4665 c 0,-0.3225269 0.030783,-0.6378339 0.089807,-0.942987 L 4.0872753,7.371694 4.4522123,6.6418234 V 5.6083151 C 4.5151083,5.5200917 4.5812053,5.4333405 4.6496467,5.3495818 L 4.817147,5.182082 V 5.1549965 C 4.9324162,5.0280117 5.0542449,4.9072616 5.1820825,4.7929122 v 0.024234 H 5.9119529 L 6.2768877,4.4522115 V 5.1820822 L 6.6418232,5.5470176 6.3046865,6.2212926 7.8948631,7.8121824 V 4.9753803 L 7.7366298,4.8171467 7.3716943,3.7223407 7.3225129,3.67316 C 7.6895881,3.5860334 8.072584,3.5398731 8.4665001,3.5398731 Z M 8.1037029,4.8221361 V 8.3161069 L 5.7059639,5.9183676 5.5505814,6.0737503 8.1037029,8.626872 V 8.653958 A 0.18246766,0.18246766 0 0 0 8.2861703,8.8364253 H 11.023186 V 8.4714898 H 8.4686377 V 4.8221361 Z M 8.6732023,6.1186544 V 6.5933556 L 8.831435,6.276888 Z M 5.6881446,6.5006959 5.5470174,6.6418234 V 7.371694 L 4.817147,7.7366294 V 8.1015647 L 5.9119529,8.4665 6.6418232,8.1015647 6.2768877,8.8314353 H 5.5470174 L 5.1820825,9.1963706 4.4522122,9.5613059 V 9.9262415 L 5.9119529,9.5613059 6.2768877,9.1963706 7.006758,9.5613059 7.7366298,9.1963706 H 9.1963705 L 9.2754875,9.0381369 H 8.2840327 c -0.1939204,0 -0.3529547,-0.1400888 -0.383468,-0.3250205 z M 9.1963705,6.6418234 8.831435,7.0067587 H 8.6732023 V 8.2597985 H 9.0381372 L 9.5613053,7.7366294 V 7.0067587 Z"/>
</svg>
