<?xml version="1.0" encoding="UTF-8" standalone="no"?>
<svg
   width="64"
   height="64"
   version="1.1"
   id="svg73"
   sodipodi:docname="application-pdf.svg"
   inkscape:version="1.4.2 (ebf0e940d0, 2025-05-08)"
   xmlns:inkscape="http://www.inkscape.org/namespaces/inkscape"
   xmlns:sodipodi="http://sodipodi.sourceforge.net/DTD/sodipodi-0.dtd"
   xmlns="http://www.w3.org/2000/svg"
   xmlns:svg="http://www.w3.org/2000/svg"
   xmlns:rdf="http://www.w3.org/1999/02/22-rdf-syntax-ns#"
   xmlns:cc="http://creativecommons.org/ns#"
   xmlns:dc="http://purl.org/dc/elements/1.1/">
  <metadata
     id="metadata77">
    <rdf:RDF>
      <cc:Work
         rdf:about="">
        <dc:format>image/svg+xml</dc:format>
        <dc:type
           rdf:resource="http://purl.org/dc/dcmitype/StillImage" />
      </cc:Work>
    </rdf:RDF>
  </metadata>
  <sodipodi:namedview
     pagecolor="#9c4444"
     bordercolor="#666666"
     borderopacity="1"
     objecttolerance="10"
     gridtolerance="10"
     guidetolerance="10"
     inkscape:pageopacity="0"
     inkscape:pageshadow="2"
     inkscape:window-width="2560"
     inkscape:window-height="1388"
     id="namedview75"
     showgrid="false"
     inkscape:zoom="4.4470387"
     inkscape:cx="19.451146"
     inkscape:cy="8.5450122"
     inkscape:window-x="0"
     inkscape:window-y="0"
     inkscape:window-maximized="1"
     inkscape:current-layer="svg73"
     inkscape:document-rotation="0"
     inkscape:pagecheckerboard="0"
     inkscape:showpageshadow="2"
     inkscape:deskcolor="#d1d1d1" />
  <defs
     id="defs29">
    <style
       id="current-color-scheme"
       type="text/css">.ColorScheme-Text {color:#d8dee9} .ColorScheme-Highlight {color:#3b4252}</style>
  </defs>
  <path
     id="path1"
     style="opacity:1;baseline-shift:baseline;display:inline;overflow:visible;vector-effect:none;fill:currentColor;enable-background:accumulate;stop-color:#000000;stop-opacity:1"
     d="M 19.661775 8.8383367 C 16.33974 8.8383367 13.637272 11.524326 13.637272 14.836206 L 13.637272 49.408294 C 13.637272 52.720174 16.33974 55.407939 19.661775 55.407939 L 44.400766 55.407939 C 47.722801 55.407939 50.427045 52.720174 50.427045 49.408294 L 50.427045 14.836206 C 50.427045 11.524326 47.722801 8.8383367 44.400766 8.8383367 L 19.661775 8.8383367 z M 30.957939 21.000979 L 30.966817 21.000979 L 31.307726 21.016959 C 31.891726 20.990959 32.265742 21.454312 32.454743 21.892314 L 32.515113 22.046788 C 32.565113 22.189787 32.579657 22.244535 32.605667 22.428536 C 32.789668 23.768536 32.092528 27.733933 32.092528 27.733933 C 32.059528 27.881934 32.022667 28.027029 31.980667 28.19203 C 32.625667 29.958031 33.659699 31.566281 34.899701 32.72328 C 35.3607 33.15428 35.948242 33.511112 36.517243 33.840112 C 37.789245 33.661112 38.997681 33.56844 40.002684 33.58443 C 41.486683 33.60343 42.462187 33.83225 42.902187 34.266249 L 42.902187 34.262698 C 43.058216 34.415698 43.204096 34.639224 43.227116 34.820226 C 43.305107 35.430225 43.246014 36.026074 42.959005 36.459075 C 42.812006 36.679076 42.573602 36.842172 42.289616 36.917172 C 42.104615 36.966162 41.877891 36.98997 41.6149 36.98997 C 40.132901 36.98997 37.783492 36.244237 35.874488 35.168237 C 33.368487 35.543236 30.509068 36.222687 27.998067 37.039686 C 25.823068 40.835687 24.244431 42.529743 22.884431 42.529743 C 22.630431 42.529743 22.382572 42.471954 22.14757 42.353962 L 21.606022 42.080524 C 21.267014 41.886523 21.217644 41.466477 21.284644 41.139473 C 21.493644 40.112473 22.759876 38.818891 24.668877 37.678891 C 24.893876 37.541892 25.853019 37.035043 25.894019 37.013053 L 26.455099 36.716533 C 26.997098 35.789533 27.594749 34.693322 28.253749 33.403323 L 28.335425 33.243521 C 28.961425 32.016521 29.672836 30.625179 30.238834 29.243166 L 30.441249 28.751334 C 29.64924 25.727334 29.213916 23.391169 29.636917 21.830169 C 29.775917 21.333169 30.306939 21.000979 30.957939 21.000979 z M 31.176334 21.705879 C 30.98611 21.753269 31.004104 23.270155 31.004104 23.270155 C 31.004104 24.089154 31.123648 25.340923 31.371647 26.135922 C 31.671647 25.598922 31.913664 24.873111 31.893664 23.840112 C 31.872665 22.807112 31.623989 21.705879 31.186988 21.705879 C 31.183863 21.705879 31.179354 21.705127 31.176334 21.705879 z M 31.22605 30.462982 C 30.85405 31.422983 30.35667 32.591364 29.56767 34.083365 C 29.24367 34.693363 28.927066 35.267769 28.623067 35.812769 C 30.295067 35.169769 32.193888 34.64088 34.391888 34.205879 C 34.241888 34.09188 34.098976 33.977194 33.963976 33.863195 C 32.882975 32.948193 31.96405 31.805984 31.22605 30.462982 z M 40.00801 34.807797 C 39.572009 34.807797 39.083816 34.828166 38.55382 34.868166 C 39.934818 35.460167 40.919109 35.823422 41.716107 35.823422 C 41.962107 35.823422 42.345597 35.773254 42.479601 35.690254 C 42.612601 35.606254 42.603641 35.202109 41.822641 35.003109 C 41.041642 34.807109 40.806008 34.807797 40.00801 34.807797 z M 25.792812 37.813834 C 25.587811 38.008835 25.362795 38.221013 25.270795 38.295013 C 23.819796 39.484014 22.837687 40.823685 22.589687 41.501689 C 23.258686 41.199689 24.275812 40.234834 25.792812 37.813834 z "
     transform="matrix(1.1,0,0,1.1,-3.1845928,-3.2065454)"
     class="ColorScheme-Text" />
</svg>
