<?xml version="1.0" encoding="UTF-8" standalone="no"?>
<svg
   width="64"
   height="64"
   version="1.1"
   id="svg73"
   sodipodi:docname="application-rdata2.svg"
   inkscape:version="1.4.2 (ebf0e940d0, 2025-05-08)"
   xmlns:inkscape="http://www.inkscape.org/namespaces/inkscape"
   xmlns:sodipodi="http://sodipodi.sourceforge.net/DTD/sodipodi-0.dtd"
   xmlns="http://www.w3.org/2000/svg"
   xmlns:svg="http://www.w3.org/2000/svg"
   xmlns:rdf="http://www.w3.org/1999/02/22-rdf-syntax-ns#"
   xmlns:cc="http://creativecommons.org/ns#"
   xmlns:dc="http://purl.org/dc/elements/1.1/">
  <metadata
     id="metadata77">
    <rdf:RDF>
      <cc:Work
         rdf:about="">
        <dc:format>image/svg+xml</dc:format>
        <dc:type
           rdf:resource="http://purl.org/dc/dcmitype/StillImage" />
      </cc:Work>
    </rdf:RDF>
  </metadata>
  <sodipodi:namedview
     pagecolor="#f5f7fa"
     bordercolor="#666666"
     borderopacity="1"
     objecttolerance="10"
     gridtolerance="10"
     guidetolerance="10"
     inkscape:pageopacity="0"
     inkscape:pageshadow="2"
     inkscape:window-width="2560"
     inkscape:window-height="1388"
     id="namedview75"
     showgrid="false"
     inkscape:zoom="4.4470387"
     inkscape:cx="19.451146"
     inkscape:cy="21.587399"
     inkscape:window-x="0"
     inkscape:window-y="0"
     inkscape:window-maximized="1"
     inkscape:current-layer="svg73"
     inkscape:document-rotation="0"
     inkscape:pagecheckerboard="0"
     inkscape:showpageshadow="2"
     inkscape:deskcolor="#d1d1d1" />
  <defs
     id="defs29">
    <style
       id="current-color-scheme"
       type="text/css">.ColorScheme-Text {color:#d8dee9} .ColorScheme-Highlight {color:#3b4252}</style>
  </defs>
  <path
     id="path5"
     style="fill:currentColor"
     d="M 19.661775 8.8383367 C 16.33974 8.8383367 13.637272 11.524326 13.637272 14.836206 L 13.637272 49.408294 C 13.637272 52.720174 16.33974 55.407939 19.661775 55.407939 L 44.400766 55.407939 C 47.722801 55.407939 50.427045 52.720174 50.427045 49.408294 L 50.427045 14.836206 C 50.427045 11.524326 47.722801 8.8383367 44.400766 8.8383367 L 19.661775 8.8383367 z M 23.994161 19.740325 L 29.285354 19.740325 L 29.281803 28.808152 L 31.49061 28.808152 C 32.5966 28.808222 33.396277 28.60873 33.871647 28.197357 C 34.356027 27.786056 34.594303 27.105758 34.594303 26.164331 C 34.594303 25.232065 34.356027 24.577904 33.871647 24.175695 C 33.623087 23.965463 33.3449 23.728732 33.02115 23.540041 L 34.768309 20.001334 C 36.077469 20.216083 37.213172 20.53897 37.980312 21.093308 C 39.241642 21.998207 39.860568 23.421746 39.860638 25.377754 C 39.860568 26.730483 39.535084 27.854652 38.876974 28.722925 C 38.228024 29.591268 37.242129 30.232788 35.925979 30.64409 C 36.648019 30.808652 37.305302 31.175966 37.872002 31.760922 C 39.213122 32.826069 40.162071 37.338001 39.947641 40.217953 L 34.331519 40.217953 C 34.331519 40.217953 34.706152 35.15167 32.824062 33.026902 C 32.312192 32.652177 31.627064 32.45872 30.767954 32.45872 L 29.281803 32.45872 L 29.281803 36.174984 C 27.959783 36.725881 25.850861 37.10316 23.994161 37.00595 L 23.994161 19.740325 z "
     class="ColorScheme-Text" />
</svg>
