<?xml version="1.0" encoding="UTF-8" standalone="no"?>
<svg
   width="64"
   height="64"
   version="1.1"
   id="svg73"
   sodipodi:docname="application-x-labplot2.svg"
   inkscape:version="1.4.2 (ebf0e940d0, 2025-05-08)"
   xmlns:inkscape="http://www.inkscape.org/namespaces/inkscape"
   xmlns:sodipodi="http://sodipodi.sourceforge.net/DTD/sodipodi-0.dtd"
   xmlns="http://www.w3.org/2000/svg"
   xmlns:svg="http://www.w3.org/2000/svg"
   xmlns:rdf="http://www.w3.org/1999/02/22-rdf-syntax-ns#"
   xmlns:cc="http://creativecommons.org/ns#"
   xmlns:dc="http://purl.org/dc/elements/1.1/">
  <metadata
     id="metadata77">
    <rdf:RDF>
      <cc:Work
         rdf:about="">
        <dc:format>image/svg+xml</dc:format>
        <dc:type
           rdf:resource="http://purl.org/dc/dcmitype/StillImage" />
      </cc:Work>
    </rdf:RDF>
  </metadata>
  <sodipodi:namedview
     pagecolor="#9c4444"
     bordercolor="#666666"
     borderopacity="1"
     objecttolerance="10"
     gridtolerance="10"
     guidetolerance="10"
     inkscape:pageopacity="0"
     inkscape:pageshadow="2"
     inkscape:window-width="2560"
     inkscape:window-height="1388"
     id="namedview75"
     showgrid="false"
     inkscape:zoom="4.4470387"
     inkscape:cx="19.788449"
     inkscape:cy="25.859905"
     inkscape:window-x="0"
     inkscape:window-y="0"
     inkscape:window-maximized="1"
     inkscape:current-layer="svg73"
     inkscape:document-rotation="0"
     inkscape:pagecheckerboard="0"
     inkscape:showpageshadow="2"
     inkscape:deskcolor="#d1d1d1" />
  <defs
     id="defs29">
    <style
       id="current-color-scheme"
       type="text/css">.ColorScheme-Text {color:#d8dee9} .ColorScheme-Highlight {color:#3b4252}</style>
  </defs>
  <path
     id="path1"
     style="baseline-shift:baseline;display:inline;overflow:visible;opacity:1;vector-effect:none;fill:currentColor;stroke-width:1.09999;enable-background:accumulate;stop-color:#000000;stop-opacity:1"
     d="m 18.392963,6.3864998 c -3.654214,0 -6.627885,2.9547624 -6.627885,6.5978072 v 38.029237 c 0,3.643043 2.973671,6.599956 6.627885,6.599956 h 27.211926 c 3.654215,0 6.630033,-2.956913 6.630033,-6.599956 V 12.984307 c 0,-3.6430438 -2.975819,-6.5978072 -6.630033,-6.5978072 z M 18.184566,18.604581 h 2.320297 v 11.635861 c 1.502622,-0.124339 2.658333,-0.710218 3.652319,-1.564053 1.124391,-0.96585 2.019974,-2.293099 2.827325,-3.652319 0.807361,-1.35922 1.521387,-2.744852 2.350375,-3.837083 0.828997,-1.092233 1.845885,-1.937878 3.175368,-1.937878 1.351187,0 2.369435,0.928723 3.20115,2.118345 0.831716,1.189621 1.552714,2.705853 2.369711,4.19587 0.817009,1.490018 1.726438,2.946786 2.859552,4.006809 0.523508,0.489731 1.089604,0.897332 1.723035,1.194523 h 3.08084 v 2.199986 h -3.439626 c -1.990909,0.828605 -3.410146,2.469528 -4.636297,4.178682 -0.874758,1.219348 -1.628238,2.457845 -2.41053,3.431033 -0.782293,0.973185 -1.648052,1.75139 -2.769319,1.74237 -1.118394,-0.01 -1.976011,-0.792442 -2.747832,-1.766004 -0.77181,-0.973562 -1.510389,-2.208066 -2.371859,-3.420289 -1.216592,-1.711948 -2.626263,-3.350687 -4.632001,-4.165792 h -2.232211 v 12.160075 h -2.320297 z m 14.325685,1.74452 c -0.870501,0 -1.560201,0.530745 -2.298813,1.503897 -0.738612,0.973152 -1.451095,2.339334 -2.279477,3.733959 -0.535839,0.902103 -1.121761,1.818797 -1.815417,2.651154 0.497549,-0.373808 0.952439,-0.774474 1.381436,-1.179485 0.867311,-0.818824 1.613698,-1.65736 2.391195,-2.322445 0.777485,-0.665085 1.626868,-1.177387 2.640411,-1.175187 1.037909,0.0022 1.885005,0.604544 2.661896,1.370694 0.776892,0.76615 1.529713,1.734418 2.404086,2.681232 0.389177,0.421424 0.799459,0.837742 1.241788,1.231046 -0.650149,-0.869838 -1.208169,-1.817046 -1.720887,-2.75213 -0.835796,-1.524298 -1.558542,-3.023778 -2.307406,-4.094894 -0.748854,-1.071117 -1.450014,-1.647841 -2.298812,-1.647841 z m 0.01719,4.311886 c -0.641714,-0.0014 -1.231725,0.319742 -1.92284,0.910931 -0.691102,0.591189 -1.443721,1.430079 -2.352523,2.28807 -0.658467,0.621661 -1.406996,1.252466 -2.285923,1.804676 h 1.078509 v 1.099992 h 4.39997 v -1.099992 h 2.199987 v 1.099992 h 4.399969 v -1.099992 h 0.06875 c -0.483305,-0.424281 -0.922368,-0.867308 -1.327728,-1.306241 -0.913048,-0.988704 -1.668974,-1.955754 -2.365413,-2.642561 -0.696438,-0.686806 -1.285938,-1.053555 -1.89276,-1.054875 z m -7.682761,5.624571 c -0.370049,0.177556 -0.760004,0.338138 -1.173039,0.479098 h 1.173039 z m 2.199985,2.679084 v 1.099992 h -0.801362 c 0.771535,0.757722 1.433851,1.600568 2.021666,2.427718 0.892567,1.255987 1.637207,2.491845 2.337485,3.375173 0.700277,0.883328 1.304575,1.34393 1.894908,1.34921 0.587463,0.0047 1.193931,-0.449299 1.903504,-1.332022 0.709572,-0.882723 1.468625,-2.121739 2.374006,-3.383767 0.594953,-0.829324 1.264275,-1.675067 2.041002,-2.436312 h -0.771285 v -1.099992 h -4.39997 v 1.099992 h -2.199986 v -1.099992 z"
     class="ColorScheme-Text" />
</svg>
