<?xml version="1.0" encoding="UTF-8" standalone="no"?>
<svg
   width="64"
   height="64"
   version="1.1"
   id="svg73"
   sodipodi:docname="application-x-blender.svg"
   inkscape:version="1.4.2 (ebf0e940d0, 2025-05-08)"
   xmlns:inkscape="http://www.inkscape.org/namespaces/inkscape"
   xmlns:sodipodi="http://sodipodi.sourceforge.net/DTD/sodipodi-0.dtd"
   xmlns="http://www.w3.org/2000/svg"
   xmlns:svg="http://www.w3.org/2000/svg"
   xmlns:rdf="http://www.w3.org/1999/02/22-rdf-syntax-ns#"
   xmlns:cc="http://creativecommons.org/ns#"
   xmlns:dc="http://purl.org/dc/elements/1.1/">
  <metadata
     id="metadata77">
    <rdf:RDF>
      <cc:Work
         rdf:about="">
        <dc:format>image/svg+xml</dc:format>
        <dc:type
           rdf:resource="http://purl.org/dc/dcmitype/StillImage" />
      </cc:Work>
    </rdf:RDF>
  </metadata>
  <sodipodi:namedview
     pagecolor="#9c4444"
     bordercolor="#666666"
     borderopacity="1"
     objecttolerance="10"
     gridtolerance="10"
     guidetolerance="10"
     inkscape:pageopacity="0"
     inkscape:pageshadow="2"
     inkscape:window-width="2560"
     inkscape:window-height="1388"
     id="namedview75"
     showgrid="false"
     inkscape:zoom="4.4470387"
     inkscape:cx="19.338712"
     inkscape:cy="8.5450122"
     inkscape:window-x="0"
     inkscape:window-y="0"
     inkscape:window-maximized="1"
     inkscape:current-layer="svg73"
     inkscape:document-rotation="0"
     inkscape:pagecheckerboard="0"
     inkscape:showpageshadow="2"
     inkscape:deskcolor="#d1d1d1" />
  <defs
     id="defs29">
    <style
       id="current-color-scheme"
       type="text/css">.ColorScheme-Text {color:#d8dee9} .ColorScheme-Highlight {color:#3b4252}</style>
  </defs>
  <path
     id="path1"
     style="opacity:1;baseline-shift:baseline;display:inline;overflow:visible;vector-effect:none;fill:currentColor;enable-background:accumulate;stop-color:#000000;stop-opacity:1"
     d="M 19.661775 8.8383367 C 16.33974 8.8383367 13.637272 11.524326 13.637272 14.836206 L 13.637272 49.408294 C 13.637272 52.720174 16.33974 55.407939 19.661775 55.407939 L 44.400766 55.407939 C 47.722801 55.407939 50.427045 52.720174 50.427045 49.408294 L 50.427045 14.836206 C 50.427045 11.524326 47.722801 8.8383367 44.400766 8.8383367 L 19.661775 8.8383367 z M 31.211846 22.405453 C 31.550632 22.405453 31.890088 22.536395 32.149346 22.796078 C 34.577055 25.236905 39.645795 30.294303 39.645795 30.294303 L 39.642243 30.296078 A 6.627273 6.6272727 0 0 1 41.586491 34.980027 A 6.627273 6.6272727 0 0 1 34.96007 41.606448 A 6.627273 6.6272727 0 0 1 28.404672 35.910425 C 26.832416 37.481087 25.866669 38.44363 24.651121 39.665751 C 24.131941 40.184982 23.293579 40.184982 22.774346 39.665751 C 22.255111 39.14644 22.255111 38.309983 22.774346 37.790751 L 29.564118 31.002754 C 27.368103 31.001573 26.047392 30.998663 24.356377 31.002754 C 23.622076 31.002754 23.030028 30.412486 23.030028 29.67818 C 23.030028 28.943883 23.622076 28.351831 24.356377 28.351831 L 33.955099 28.351831 L 30.274346 24.671078 C 29.755111 24.151764 29.755111 23.315297 30.274346 22.796078 C 30.533962 22.536389 30.873032 22.405453 31.211846 22.405453 z M 34.96007 31.002754 A 3.9763636 3.9763636 0 0 0 30.982797 34.980027 A 3.9763636 3.9763636 0 0 0 34.96007 38.955524 A 3.9763636 3.9763636 0 0 0 38.935567 34.980027 A 3.9763636 3.9763636 0 0 0 34.96007 31.002754 z M 34.96007 32.329104 A 2.6509091 2.6509089 0 0 1 37.610993 34.980027 A 2.6509091 2.6509089 0 0 1 34.96007 37.63095 A 2.6509091 2.6509089 0 0 1 32.309147 34.980027 A 2.6509091 2.6509089 0 0 1 34.96007 32.329104 z "
     transform="matrix(1.1,0,0,1.1,-3.1845928,-3.2065454)"
     class="ColorScheme-Text" />
</svg>
