<?xml version="1.0" encoding="UTF-8" standalone="no"?>
<svg
   width="64"
   height="64"
   version="1.1"
   id="svg73"
   sodipodi:docname="application-x-msdownload.svg"
   inkscape:version="1.4.2 (ebf0e940d0, 2025-05-08)"
   xmlns:inkscape="http://www.inkscape.org/namespaces/inkscape"
   xmlns:sodipodi="http://sodipodi.sourceforge.net/DTD/sodipodi-0.dtd"
   xmlns="http://www.w3.org/2000/svg"
   xmlns:svg="http://www.w3.org/2000/svg"
   xmlns:rdf="http://www.w3.org/1999/02/22-rdf-syntax-ns#"
   xmlns:cc="http://creativecommons.org/ns#"
   xmlns:dc="http://purl.org/dc/elements/1.1/">
  <metadata
     id="metadata77">
    <rdf:RDF>
      <cc:Work
         rdf:about="">
        <dc:format>image/svg+xml</dc:format>
        <dc:type
           rdf:resource="http://purl.org/dc/dcmitype/StillImage" />
      </cc:Work>
    </rdf:RDF>
  </metadata>
  <sodipodi:namedview
     pagecolor="#9c4444"
     bordercolor="#666666"
     borderopacity="1"
     objecttolerance="10"
     gridtolerance="10"
     guidetolerance="10"
     inkscape:pageopacity="0"
     inkscape:pageshadow="2"
     inkscape:window-width="2560"
     inkscape:window-height="1388"
     id="namedview75"
     showgrid="false"
     inkscape:zoom="6.2890624"
     inkscape:cx="37.60497"
     inkscape:cy="23.214907"
     inkscape:window-x="0"
     inkscape:window-y="0"
     inkscape:window-maximized="1"
     inkscape:current-layer="svg73"
     inkscape:document-rotation="0"
     inkscape:pagecheckerboard="0"
     inkscape:showpageshadow="2"
     inkscape:deskcolor="#d1d1d1" />
  <defs
     id="defs29">
    <style
       id="current-color-scheme"
       type="text/css">.ColorScheme-Text {color:#d8dee9} .ColorScheme-Highlight {color:#3b4252}</style>
  </defs>
  <path
     id="path1"
     style="opacity:1;baseline-shift:baseline;display:inline;overflow:visible;vector-effect:none;fill:currentColor;enable-background:accumulate;stop-color:#000000;stop-opacity:1"
     d="M 19.661775 8.8383367 C 16.33974 8.8383367 13.637272 11.524326 13.637272 14.836206 L 13.637272 49.408294 C 13.637272 52.720174 16.33974 55.407939 19.661775 55.407939 L 44.400766 55.407939 C 47.722801 55.407939 50.427045 52.720174 50.427045 49.408294 L 50.427045 14.836206 C 50.427045 11.524326 47.722801 8.8383367 44.400766 8.8383367 L 19.661775 8.8383367 z M 30.047073 23.394445 C 31.6739 23.367944 32.784179 24.023511 33.825482 24.766959 L 31.923849 31.665041 C 30.9209 30.951782 29.847446 30.277924 28.314118 30.265894 C 27.302909 30.257493 26.102042 30.568911 24.572996 31.235354 L 26.463976 24.308862 C 27.906232 23.679233 29.070977 23.410345 30.047073 23.394445 z M 34.823351 25.500269 C 36.486062 26.682682 38.331614 27.619627 42.172428 25.944161 L 40.283224 32.856448 C 36.600851 34.595523 34.595637 33.615953 32.934147 32.42676 L 34.823351 25.500269 z M 27.827613 31.595794 C 29.453051 31.554053 30.569367 32.181444 31.607797 32.925695 L 29.691959 39.880595 C 28.024355 38.696889 26.203771 37.730405 22.355312 39.41007 L 24.232087 32.510212 L 24.258721 32.510212 C 25.69616 31.885181 26.85235 31.620874 27.827613 31.595794 z M 32.618096 33.591533 C 34.284479 34.774917 35.986581 35.642561 39.903252 34.228962 L 38.077968 40.947712 C 34.233789 42.626079 32.381005 41.66864 30.716462 40.477186 L 32.618096 33.591533 z "
     transform="matrix(1.1,0,0,1.1,-3.1845928,-3.2065454)"
     class="ColorScheme-Text" />
</svg>
