<?xml version="1.0" encoding="UTF-8" standalone="no"?>
<svg
   width="64"
   height="64"
   version="1.1"
   id="svg73"
   sodipodi:docname="application-x-fusioncomp.svg"
   inkscape:version="1.4.2 (ebf0e940d0, 2025-05-08)"
   xmlns:inkscape="http://www.inkscape.org/namespaces/inkscape"
   xmlns:sodipodi="http://sodipodi.sourceforge.net/DTD/sodipodi-0.dtd"
   xmlns="http://www.w3.org/2000/svg"
   xmlns:svg="http://www.w3.org/2000/svg"
   xmlns:rdf="http://www.w3.org/1999/02/22-rdf-syntax-ns#"
   xmlns:cc="http://creativecommons.org/ns#"
   xmlns:dc="http://purl.org/dc/elements/1.1/">
  <metadata
     id="metadata77">
    <rdf:RDF>
      <cc:Work
         rdf:about="">
        <dc:format>image/svg+xml</dc:format>
        <dc:type
           rdf:resource="http://purl.org/dc/dcmitype/StillImage" />
      </cc:Work>
    </rdf:RDF>
  </metadata>
  <sodipodi:namedview
     pagecolor="#9c4444"
     bordercolor="#666666"
     borderopacity="1"
     objecttolerance="10"
     gridtolerance="10"
     guidetolerance="10"
     inkscape:pageopacity="0"
     inkscape:pageshadow="2"
     inkscape:window-width="2560"
     inkscape:window-height="1388"
     id="namedview75"
     showgrid="false"
     inkscape:zoom="4.4470387"
     inkscape:cx="19.338712"
     inkscape:cy="25.859905"
     inkscape:window-x="0"
     inkscape:window-y="0"
     inkscape:window-maximized="1"
     inkscape:current-layer="svg73"
     inkscape:document-rotation="0"
     inkscape:pagecheckerboard="0"
     inkscape:showpageshadow="2"
     inkscape:deskcolor="#d1d1d1" />
  <defs
     id="defs29">
    <style
       id="current-color-scheme"
       type="text/css">.ColorScheme-Text {color:#d8dee9} .ColorScheme-Highlight {color:#3b4252}</style>
  </defs>
  <path
     id="path1"
     style="opacity:1;baseline-shift:baseline;display:inline;overflow:visible;vector-effect:none;fill:currentColor;enable-background:accumulate;stop-color:#000000;stop-opacity:1"
     d="M 19.661775 8.8383367 C 16.33974 8.8383367 13.637272 11.524326 13.637272 14.836206 L 13.637272 49.408294 C 13.637272 52.720174 16.33974 55.407939 19.661775 55.407939 L 44.400766 55.407939 C 47.722801 55.407939 50.427045 52.720174 50.427045 49.408294 L 50.427045 14.836206 C 50.427045 11.524326 47.722801 8.8383367 44.400766 8.8383367 L 19.661775 8.8383367 z M 37.841817 21.325908 C 38.310914 21.313375 38.782245 21.381117 39.224985 21.533649 C 40.405625 21.940402 41.352897 22.936031 41.677045 24.11355 C 42.001192 25.291069 41.693337 26.617091 40.879814 27.543948 C 40.066291 28.470806 38.769501 28.973239 37.523991 28.845439 C 36.621277 28.752815 35.786873 28.359546 34.938763 28.044658 C 34.514707 27.887214 34.07986 27.748365 33.631945 27.677115 C 33.184031 27.605849 32.719131 27.603613 32.280738 27.717953 C 31.842346 27.83229 31.44241 28.059701 31.091107 28.339402 C 30.739803 28.619103 30.434646 28.948376 30.14828 29.291107 C 29.575546 29.97657 29.055414 30.726456 28.321221 31.246007 C 27.308225 31.962854 25.927642 32.158799 24.747002 31.752044 C 23.566362 31.345292 22.619088 30.347888 22.294942 29.170368 C 21.970793 27.99285 22.278649 26.668602 23.092172 25.741746 C 23.905694 24.814889 25.202485 24.310679 26.447996 24.438479 C 27.350709 24.531104 28.185115 24.926147 29.033224 25.241036 C 29.45728 25.398479 29.892128 25.537328 30.340042 25.608578 C 30.787956 25.679843 31.252857 25.682079 31.691249 25.56774 C 32.129642 25.453401 32.529575 25.224217 32.88088 24.944516 C 33.232183 24.664815 33.537341 24.335542 33.823707 23.992811 C 34.396441 23.307349 34.916573 22.557463 35.650766 22.037911 C 36.283887 21.589882 37.059989 21.346798 37.841817 21.325908 z M 38.014047 29.507726 C 38.365871 29.498086 38.7207 29.550195 39.052755 29.667527 C 39.938234 29.980415 40.64558 30.746827 40.888692 31.652612 C 41.131804 32.558395 40.902242 33.57814 40.292101 34.291107 C 39.681957 35.004074 38.70848 35.390837 37.774346 35.292527 C 37.097311 35.221277 36.473284 34.918628 35.837201 34.676405 C 35.519159 34.555295 35.193023 34.447124 34.857087 34.392314 C 34.521152 34.337504 34.173806 34.334549 33.845013 34.422499 C 33.516219 34.510452 33.21538 34.686747 32.951903 34.901902 C 32.688424 35.117056 32.460001 35.371571 32.245226 35.635212 C 31.815675 36.16249 31.425134 36.737687 30.874488 37.137342 C 30.114742 37.688763 29.07886 37.83908 28.19338 37.526192 C 27.307902 37.213306 26.598777 36.446892 26.355667 35.541107 C 26.112555 34.635325 26.342116 33.61558 26.952258 32.902612 C 27.562399 32.189646 28.53588 31.802882 29.470013 31.901192 C 30.147047 31.972441 30.771075 32.275093 31.407158 32.517314 C 31.725199 32.638425 32.051336 32.746605 32.387272 32.801405 C 32.723207 32.856215 33.070551 32.85917 33.399346 32.77122 C 33.72814 32.683267 34.030754 32.506972 34.294232 32.291817 C 34.557711 32.076663 34.784358 31.822148 34.999133 31.558507 C 35.428683 31.031228 35.819228 30.456031 36.369871 30.056376 C 36.844714 29.711737 37.427677 29.523786 38.014047 29.507726 z M 32.261207 37.69132 C 32.66207 37.666527 33.06904 37.760234 33.417101 37.961206 C 33.881181 38.22917 34.233663 38.684661 34.372357 39.202328 C 34.511052 39.719995 34.434327 40.291823 34.166391 40.75595 C 33.898453 41.220075 33.442884 41.572499 32.925269 41.711206 C 32.407654 41.849914 31.835729 41.773204 31.371647 41.50524 C 30.907568 41.237276 30.55686 40.781785 30.418167 40.264118 C 30.279472 39.746452 30.354421 39.174624 30.622357 38.710496 C 30.890295 38.246372 31.347641 37.895723 31.865255 37.757016 C 31.994659 37.722336 32.127586 37.69962 32.261207 37.69132 z "
     transform="matrix(1.1,0,0,1.1,-3.1845928,-3.2065454)"
     class="ColorScheme-Text" />
</svg>
