<?xml version="1.0" encoding="UTF-8" standalone="no"?>
<svg
   width="64"
   height="64"
   version="1.1"
   id="svg73"
   sodipodi:docname="application-x-kmymoney.svg"
   inkscape:version="1.4.2 (ebf0e940d0, 2025-05-08)"
   xmlns:inkscape="http://www.inkscape.org/namespaces/inkscape"
   xmlns:sodipodi="http://sodipodi.sourceforge.net/DTD/sodipodi-0.dtd"
   xmlns="http://www.w3.org/2000/svg"
   xmlns:svg="http://www.w3.org/2000/svg"
   xmlns:rdf="http://www.w3.org/1999/02/22-rdf-syntax-ns#"
   xmlns:cc="http://creativecommons.org/ns#"
   xmlns:dc="http://purl.org/dc/elements/1.1/">
  <metadata
     id="metadata77">
    <rdf:RDF>
      <cc:Work
         rdf:about="">
        <dc:format>image/svg+xml</dc:format>
        <dc:type
           rdf:resource="http://purl.org/dc/dcmitype/StillImage" />
      </cc:Work>
    </rdf:RDF>
  </metadata>
  <sodipodi:namedview
     pagecolor="#9c4444"
     bordercolor="#666666"
     borderopacity="1"
     objecttolerance="10"
     gridtolerance="10"
     guidetolerance="10"
     inkscape:pageopacity="0"
     inkscape:pageshadow="2"
     inkscape:window-width="2560"
     inkscape:window-height="1388"
     id="namedview75"
     showgrid="false"
     inkscape:zoom="4.4470387"
     inkscape:cx="19.338712"
     inkscape:cy="25.859905"
     inkscape:window-x="0"
     inkscape:window-y="0"
     inkscape:window-maximized="1"
     inkscape:current-layer="svg73"
     inkscape:document-rotation="0"
     inkscape:pagecheckerboard="0"
     inkscape:showpageshadow="2"
     inkscape:deskcolor="#d1d1d1" />
  <defs
     id="defs29">
    <style
       id="current-color-scheme"
       type="text/css">.ColorScheme-Text {color:#d8dee9} .ColorScheme-Highlight {color:#3b4252}</style>
  </defs>
  <path
     id="path1"
     style="opacity:1;baseline-shift:baseline;display:inline;overflow:visible;vector-effect:none;fill:currentColor;enable-background:accumulate;stop-color:#000000;stop-opacity:1"
     d="M 19.661775 8.8383367 C 16.33974 8.8383367 13.637272 11.524326 13.637272 14.836206 L 13.637272 49.408294 C 13.637272 52.720174 16.33974 55.407939 19.661775 55.407939 L 44.400766 55.407939 C 47.722801 55.407939 50.427045 52.720174 50.427045 49.408294 L 50.427045 14.836206 C 50.427045 11.524326 47.722801 8.8383367 44.400766 8.8383367 L 19.661775 8.8383367 z M 32.383721 22.336206 A 9.9999999 9.9999999 0 0 1 42.383721 32.336206 A 9.9999999 9.9999999 0 0 1 32.383721 42.336206 A 9.9999999 9.9999999 0 0 1 22.383721 32.336206 A 9.9999999 9.9999999 0 0 1 32.383721 22.336206 z M 29.656448 23.664331 A 9.090909 9.090909 0 0 0 26.929175 25.063479 L 26.929175 30.518024 L 23.475695 30.518024 A 9.090909 9.090909 0 0 0 23.337201 31.427115 L 26.929175 31.427115 L 26.929175 33.245297 L 23.337201 33.245297 A 9.090909 9.090909 0 0 0 23.475695 34.154388 L 26.929175 34.154388 L 26.929175 39.608933 A 9.090909 9.090909 0 0 0 29.656448 41.008081 L 29.656448 34.264473 L 36.046718 40.656519 L 36.048493 40.656519 A 9.090909 9.090909 0 0 0 38.399346 39.150837 L 33.402897 34.154388 L 41.289971 34.154388 A 9.090909 9.090909 0 0 0 41.428465 33.245297 L 32.493806 33.245297 L 31.584715 32.336206 L 32.493806 31.427115 L 41.428465 31.427115 A 9.090909 9.090909 0 0 0 41.289971 30.518024 L 33.402897 30.518024 L 38.399346 25.521575 A 9.090909 9.090909 0 0 1 38.399346 25.5198 A 9.090909 9.090909 0 0 0 36.048493 24.015894 L 36.046718 24.015894 L 29.656448 30.407939 L 29.656448 23.664331 z "
     transform="matrix(1.1,0,0,1.1,-3.1845928,-3.2065454)"
     class="ColorScheme-Text" />
</svg>
