<?xml version="1.0" encoding="UTF-8" standalone="no"?>
<svg
   width="64"
   height="64"
   version="1.1"
   id="svg73"
   sodipodi:docname="application-mac-binhex40.svg"
   inkscape:version="1.4.2 (ebf0e940d0, 2025-05-08)"
   xmlns:inkscape="http://www.inkscape.org/namespaces/inkscape"
   xmlns:sodipodi="http://sodipodi.sourceforge.net/DTD/sodipodi-0.dtd"
   xmlns="http://www.w3.org/2000/svg"
   xmlns:svg="http://www.w3.org/2000/svg"
   xmlns:rdf="http://www.w3.org/1999/02/22-rdf-syntax-ns#"
   xmlns:cc="http://creativecommons.org/ns#"
   xmlns:dc="http://purl.org/dc/elements/1.1/">
  <metadata
     id="metadata77">
    <rdf:RDF>
      <cc:Work
         rdf:about="">
        <dc:format>image/svg+xml</dc:format>
        <dc:type
           rdf:resource="http://purl.org/dc/dcmitype/StillImage" />
      </cc:Work>
    </rdf:RDF>
  </metadata>
  <sodipodi:namedview
     pagecolor="#9c4444"
     bordercolor="#666666"
     borderopacity="1"
     objecttolerance="10"
     gridtolerance="10"
     guidetolerance="10"
     inkscape:pageopacity="0"
     inkscape:pageshadow="2"
     inkscape:window-width="2560"
     inkscape:window-height="1388"
     id="namedview75"
     showgrid="false"
     inkscape:zoom="4.4470387"
     inkscape:cx="19.451146"
     inkscape:cy="21.587399"
     inkscape:window-x="0"
     inkscape:window-y="0"
     inkscape:window-maximized="1"
     inkscape:current-layer="svg73"
     inkscape:document-rotation="0"
     inkscape:pagecheckerboard="0"
     inkscape:showpageshadow="2"
     inkscape:deskcolor="#d1d1d1" />
  <defs
     id="defs29">
    <style
       id="current-color-scheme"
       type="text/css">.ColorScheme-Text {color:#d8dee9} .ColorScheme-Highlight {color:#3b4252}</style>
  </defs>
  <path
     id="path1"
     style="opacity:1;baseline-shift:baseline;display:inline;overflow:visible;vector-effect:none;fill:currentColor;enable-background:accumulate;stop-color:#000000;stop-opacity:1"
     d="M 19.661775 8.8383367 C 16.33974 8.8383367 13.637272 11.524326 13.637272 14.836206 L 13.637272 49.408294 C 13.637272 52.720174 16.33974 55.407939 19.661775 55.407939 L 44.400766 55.407939 C 47.722801 55.407939 50.427045 52.720174 50.427045 49.408294 L 50.427045 14.836206 C 50.427045 11.524326 47.722801 8.8383367 44.400766 8.8383367 L 19.661775 8.8383367 z M 36.089332 19.740325 C 36.115952 19.859105 36.128394 20.005071 36.128394 20.150482 C 36.128394 21.199077 35.676907 22.248101 35.039971 23.00382 C 34.36411 23.841476 33.194567 24.465112 32.264758 24.465112 C 32.158262 24.465112 32.053299 24.450749 31.987769 24.438479 C 31.975509 24.387279 31.948707 24.227135 31.948707 24.067385 C 31.948707 23.004456 32.492506 21.955739 33.076192 21.292172 C 33.819625 20.429952 35.053027 19.779265 36.089332 19.740325 z M 35.771505 24.688834 C 36.355197 24.688834 38.451847 24.743458 39.832229 26.721859 C 39.713447 26.814019 37.61632 27.995154 37.61632 30.622783 C 37.61632 33.662069 40.285026 34.736785 40.3649 34.763408 C 40.35253 34.828968 39.941717 36.236396 38.95865 37.670013 C 38.082098 38.931611 37.165945 40.19132 35.77328 40.19132 C 34.38062 40.19132 34.023386 39.381661 32.415681 39.381661 C 30.848935 39.381661 30.291128 40.217953 29.017243 40.217953 C 27.743366 40.217953 26.853845 39.050373 25.831874 37.616746 C 24.648113 35.933262 23.692314 33.318074 23.692314 30.835851 C 23.692314 26.854466 26.281281 24.742101 28.829033 24.742101 C 30.182792 24.742101 31.311842 25.631661 32.161775 25.631661 C 32.970754 25.631661 34.231381 24.688834 35.771505 24.688834 z "
     transform="matrix(1.1,0,0,1.1,-3.1845928,-3.2065454)"
     class="ColorScheme-Text" />
</svg>
