<?xml version="1.0" encoding="UTF-8" standalone="no"?>
<svg
   width="64"
   height="64"
   version="1.1"
   id="svg73"
   sodipodi:docname="application-x-marble.svg"
   inkscape:version="1.4.2 (ebf0e940d0, 2025-05-08)"
   xmlns:inkscape="http://www.inkscape.org/namespaces/inkscape"
   xmlns:sodipodi="http://sodipodi.sourceforge.net/DTD/sodipodi-0.dtd"
   xmlns="http://www.w3.org/2000/svg"
   xmlns:svg="http://www.w3.org/2000/svg"
   xmlns:rdf="http://www.w3.org/1999/02/22-rdf-syntax-ns#"
   xmlns:cc="http://creativecommons.org/ns#"
   xmlns:dc="http://purl.org/dc/elements/1.1/">
  <metadata
     id="metadata77">
    <rdf:RDF>
      <cc:Work
         rdf:about="">
        <dc:format>image/svg+xml</dc:format>
        <dc:type
           rdf:resource="http://purl.org/dc/dcmitype/StillImage" />
      </cc:Work>
    </rdf:RDF>
  </metadata>
  <sodipodi:namedview
     pagecolor="#9c4444"
     bordercolor="#666666"
     borderopacity="1"
     objecttolerance="10"
     gridtolerance="10"
     guidetolerance="10"
     inkscape:pageopacity="0"
     inkscape:pageshadow="2"
     inkscape:window-width="2560"
     inkscape:window-height="1388"
     id="namedview75"
     showgrid="false"
     inkscape:zoom="4.4470387"
     inkscape:cx="19.338712"
     inkscape:cy="8.5450122"
     inkscape:window-x="0"
     inkscape:window-y="0"
     inkscape:window-maximized="1"
     inkscape:current-layer="svg73"
     inkscape:document-rotation="0"
     inkscape:pagecheckerboard="0"
     inkscape:showpageshadow="2"
     inkscape:deskcolor="#d1d1d1" />
  <defs
     id="defs29">
    <style
       id="current-color-scheme"
       type="text/css">.ColorScheme-Text {color:#d8dee9} .ColorScheme-Highlight {color:#3b4252}</style>
  </defs>
  <path
     id="path1"
     style="opacity:1;baseline-shift:baseline;display:inline;overflow:visible;vector-effect:none;fill:currentColor;enable-background:accumulate;stop-color:#000000;stop-opacity:1"
     d="M 19.661775 8.8383367 C 16.33974 8.8383367 13.637272 11.524326 13.637272 14.836206 L 13.637272 49.408294 C 13.637272 52.720174 16.33974 55.407939 19.661775 55.407939 L 44.400766 55.407939 C 47.722801 55.407939 50.427045 52.720174 50.427045 49.408294 L 50.427045 14.836206 C 50.427045 11.524326 47.722801 8.8383367 44.400766 8.8383367 L 19.661775 8.8383367 z M 32.522215 21.469729 C 38.102485 21.469729 42.625198 25.99245 42.625198 31.572712 C 42.625198 37.152972 38.102485 41.67747 32.522215 41.67747 C 26.941953 41.67747 22.417457 37.152972 22.417457 31.572712 C 22.417457 25.99245 26.941953 21.469729 32.522215 21.469729 z M 31.602471 23.39622 C 31.570025 23.396249 31.539591 23.396704 31.510141 23.399771 C 31.213936 23.429886 30.916331 23.451227 30.629459 23.509857 C 30.053532 23.627655 29.507431 23.783163 28.978181 24.007016 C 26.448768 25.076713 24.540897 27.294796 23.860993 30.003109 C 23.878443 30.022139 23.897732 30.038448 23.917812 30.059928 C 24.392353 30.566762 25.634378 31.265758 26.556306 31.599345 C 27.060481 31.781818 28.038134 32.06818 28.704743 32.204814 C 29.28806 32.32414 29.699033 32.441649 29.748778 32.472925 L 29.750553 32.4747 L 29.752329 32.476476 L 29.754104 32.476476 L 29.754104 32.478251 L 29.754104 32.480027 L 29.752329 32.480027 C 29.751549 32.480175 29.748028 32.481717 29.747002 32.481803 C 29.681342 32.487144 29.384663 32.708935 29.088266 32.975411 C 28.522904 33.483708 28.233518 33.932311 27.989189 34.736774 C 27.855129 35.177242 27.86796 35.323978 28.042457 35.562413 C 28.147754 35.706091 28.619941 36.043108 29.088266 36.33301 C 29.556608 36.622927 30.105652 37.022609 30.300979 37.211916 C 31.028636 37.917125 31.510141 39.177469 31.510141 40.402612 C 31.510141 40.716098 31.542304 40.881708 31.565184 40.953038 C 31.624695 40.958538 31.670632 40.947538 31.730312 40.953038 C 31.865013 40.901099 32.068 40.840378 32.389047 40.679601 C 35.078876 39.333106 36.308128 37.59387 36.186988 35.2872 C 36.090498 33.447712 35.22853 32.779334 31.730312 32.037911 C 29.154379 31.491878 27.769019 30.566733 27.769019 29.399416 C 27.769019 29.091589 27.871275 28.910024 28.207584 28.573777 C 28.569044 28.212281 28.645509 28.187711 28.924914 28.243521 C 29.102844 28.279087 29.560633 28.514206 29.913905 28.793948 C 30.709144 29.42367 31.09885 29.672854 31.510141 29.672854 C 31.668917 29.672854 31.809861 29.650416 31.83507 29.626689 L 31.836846 29.626689 L 31.836846 29.624913 L 31.838621 29.623138 L 31.838621 29.621362 L 31.838621 29.619587 L 31.838621 29.617811 C 31.830873 29.581937 31.704371 29.384725 31.565184 29.179246 C 30.771195 28.009359 30.819765 25.819129 31.675269 23.950198 C 31.809626 23.656794 31.909599 23.456121 31.895439 23.399771 C 31.806302 23.405021 31.699808 23.396135 31.602471 23.39622 z M 39.734573 27.522641 C 39.484402 27.554993 38.286701 28.826302 38.001618 29.399416 C 37.408505 30.591842 37.631483 31.37122 39.047428 32.865325 C 39.537969 33.382917 40.128585 34.079113 40.313408 34.406519 C 40.477973 34.698157 40.62271 34.943405 40.682726 34.960496 C 40.683728 34.960654 40.687104 34.962257 40.688053 34.962271 L 40.689829 34.962271 L 40.691604 34.962271 L 40.691604 34.960496 L 40.69338 34.960496 L 40.695155 34.960496 L 40.696931 34.95872 L 40.698707 34.95872 L 40.700482 34.956945 C 40.74381 34.910107 40.872318 34.533545 40.97392 34.131305 C 41.240898 33.074464 41.26172 31.23388 40.97392 30.170013 C 40.751017 29.345951 39.971537 27.655796 39.764758 27.527967 C 39.757255 27.523337 39.746876 27.52105 39.734573 27.522641 z "
     transform="matrix(1.1,0,0,1.1,-3.1845928,-3.2065454)"
     class="ColorScheme-Text" />
</svg>
