<?xml version="1.0" encoding="UTF-8" standalone="no"?>
<svg
   width="64"
   height="64"
   version="1.1"
   id="svg73"
   sodipodi:docname="application-x-webarchive.svg"
   inkscape:version="1.4.2 (ebf0e940d0, 2025-05-08)"
   xmlns:inkscape="http://www.inkscape.org/namespaces/inkscape"
   xmlns:sodipodi="http://sodipodi.sourceforge.net/DTD/sodipodi-0.dtd"
   xmlns="http://www.w3.org/2000/svg"
   xmlns:svg="http://www.w3.org/2000/svg"
   xmlns:rdf="http://www.w3.org/1999/02/22-rdf-syntax-ns#"
   xmlns:cc="http://creativecommons.org/ns#"
   xmlns:dc="http://purl.org/dc/elements/1.1/">
  <metadata
     id="metadata77">
    <rdf:RDF>
      <cc:Work
         rdf:about="">
        <dc:format>image/svg+xml</dc:format>
        <dc:type
           rdf:resource="http://purl.org/dc/dcmitype/StillImage" />
      </cc:Work>
    </rdf:RDF>
  </metadata>
  <sodipodi:namedview
     pagecolor="#9c4444"
     bordercolor="#666666"
     borderopacity="1"
     objecttolerance="10"
     gridtolerance="10"
     guidetolerance="10"
     inkscape:pageopacity="0"
     inkscape:pageshadow="2"
     inkscape:window-width="2560"
     inkscape:window-height="1388"
     id="namedview75"
     showgrid="false"
     inkscape:zoom="4.4470387"
     inkscape:cx="19.451146"
     inkscape:cy="24.96043"
     inkscape:window-x="0"
     inkscape:window-y="0"
     inkscape:window-maximized="1"
     inkscape:current-layer="svg73"
     inkscape:document-rotation="0"
     inkscape:pagecheckerboard="0"
     inkscape:showpageshadow="2"
     inkscape:deskcolor="#d1d1d1" />
  <defs
     id="defs29">
    <style
       id="current-color-scheme"
       type="text/css">.ColorScheme-Text {color:#d8dee9} .ColorScheme-Highlight {color:#3b4252}</style>
  </defs>
  <path
     id="path1"
     style="opacity:1;baseline-shift:baseline;display:inline;overflow:visible;vector-effect:none;fill:currentColor;enable-background:accumulate;stop-color:#000000;stop-opacity:1"
     d="M 16.487059 9.1224276 C 12.372966 9.1224276 9.031448 12.462169 9.031448 16.576263 L 9.031448 47.668237 C 9.031448 51.78233 12.372966 55.123848 16.487059 55.123848 L 47.575482 55.123848 C 51.689575 55.123848 55.031093 51.78233 55.031093 47.668237 L 55.031093 16.576263 C 55.031093 12.462169 51.689575 9.1224276 47.575482 9.1224276 L 16.487059 9.1224276 z M 32.06767 20.621007 C 38.267965 20.621007 43.292812 25.645859 43.292812 31.846149 C 43.292812 38.046434 38.267965 43.073067 32.06767 43.073067 C 25.86738 43.073067 20.840752 38.046434 20.840752 31.846149 C 20.840752 25.645859 25.86738 20.621007 32.06767 20.621007 z M 31.046718 22.760567 C 31.010667 22.760589 30.974681 22.762484 30.941959 22.765894 C 30.612843 22.799347 30.284144 22.823258 29.965397 22.888408 C 29.325478 23.019294 28.717514 23.190109 28.129459 23.438834 C 25.319001 24.627386 23.199539 27.093304 22.44409 30.102541 C 22.46345 30.123671 22.483935 30.140806 22.506235 30.164686 C 23.033503 30.727833 24.41511 31.503906 25.439474 31.874558 C 25.999668 32.077305 27.08516 32.397458 27.825837 32.549274 C 28.473966 32.681859 28.931788 32.812825 28.987059 32.84757 L 28.988834 32.849345 L 28.99061 32.849345 L 28.99061 32.851121 L 28.992386 32.851121 L 28.992386 32.852896 L 28.99061 32.852896 L 28.99061 32.854672 L 28.988834 32.854672 L 28.987059 32.854672 L 28.985283 32.854672 C 28.912327 32.860608 28.581304 33.107237 28.251974 33.403323 C 27.623793 33.968096 27.301861 34.467926 27.030383 35.361774 C 26.881415 35.851181 26.895092 36.014815 27.088976 36.279743 C 27.205973 36.439385 27.731613 36.81168 28.251974 37.133791 C 28.772354 37.455921 29.38082 37.901825 29.597854 38.112129 C 30.406362 38.895695 30.941959 40.29667 30.941959 41.657939 C 30.941959 42.00625 30.98042 42.189464 31.00588 42.268734 C 31.072006 42.274934 31.120668 42.262534 31.186988 42.268734 C 31.336655 42.211044 31.563578 42.14375 31.920297 41.965112 C 34.908996 40.469005 36.273656 38.535537 36.139047 35.97257 C 36.031837 33.928697 35.073896 33.186644 31.186988 32.36284 C 28.324838 31.756137 26.785354 30.728395 26.785354 29.431376 C 26.785354 29.089348 26.899961 28.887015 27.273636 28.513408 C 27.675256 28.111744 27.760414 28.085621 28.070866 28.147641 C 28.268566 28.187159 28.77742 28.447613 29.169942 28.758436 C 30.053539 29.458127 30.48497 29.734999 30.941959 29.734999 C 31.118376 29.734999 31.276165 29.709873 31.304175 29.683507 L 31.305951 29.683507 L 31.307726 29.681732 L 31.307726 29.679956 L 31.307726 29.67818 L 31.309502 29.67818 L 31.309502 29.676405 L 31.309502 29.674629 C 31.300893 29.634769 31.160535 29.416435 31.00588 29.188124 C 30.123673 27.88825 30.176058 25.45328 31.126618 23.376689 C 31.275909 23.050684 31.387347 22.828504 31.371647 22.765894 C 31.272603 22.771819 31.154869 22.7605 31.046718 22.760567 z M 40.080809 27.346859 C 39.802841 27.382806 38.472857 28.794583 38.156093 29.431376 C 37.497074 30.756294 37.745816 31.620691 39.31909 33.280808 C 39.864139 33.85591 40.520001 34.630447 40.72534 34.994232 C 40.914621 35.329651 41.078649 35.611153 41.140823 35.612129 L 41.142599 35.612129 L 41.144374 35.612129 L 41.144374 35.610354 L 41.14615 35.610354 L 41.147925 35.610354 L 41.149701 35.610354 L 41.151476 35.608578 C 41.15229 35.607935 41.154276 35.60584 41.155028 35.605027 C 41.203167 35.552984 41.345777 35.135768 41.45865 34.688834 C 41.75528 33.514566 41.778404 31.469275 41.45865 30.2872 C 41.210983 29.371576 40.34431 27.49422 40.114545 27.352186 C 40.106208 27.347041 40.094479 27.345092 40.080809 27.346859 z "
     transform="matrix(1.1,0,0,1.1,-3.1845928,-3.2065454)"
     class="ColorScheme-Text" />
</svg>
