<?xml version="1.0" encoding="UTF-8" standalone="no"?>
<svg
   width="64"
   height="64"
   version="1.1"
   id="svg73"
   sodipodi:docname="application-vnd.ms-infopath.svg"
   inkscape:version="1.4.2 (ebf0e940d0, 2025-05-08)"
   xmlns:inkscape="http://www.inkscape.org/namespaces/inkscape"
   xmlns:sodipodi="http://sodipodi.sourceforge.net/DTD/sodipodi-0.dtd"
   xmlns="http://www.w3.org/2000/svg"
   xmlns:svg="http://www.w3.org/2000/svg"
   xmlns:rdf="http://www.w3.org/1999/02/22-rdf-syntax-ns#"
   xmlns:cc="http://creativecommons.org/ns#"
   xmlns:dc="http://purl.org/dc/elements/1.1/">
  <metadata
     id="metadata77">
    <rdf:RDF>
      <cc:Work
         rdf:about="">
        <dc:format>image/svg+xml</dc:format>
        <dc:type
           rdf:resource="http://purl.org/dc/dcmitype/StillImage" />
      </cc:Work>
    </rdf:RDF>
  </metadata>
  <sodipodi:namedview
     pagecolor="#9c4444"
     bordercolor="#666666"
     borderopacity="1"
     objecttolerance="10"
     gridtolerance="10"
     guidetolerance="10"
     inkscape:pageopacity="0"
     inkscape:pageshadow="2"
     inkscape:window-width="2560"
     inkscape:window-height="1388"
     id="namedview75"
     showgrid="false"
     inkscape:zoom="4.4470387"
     inkscape:cx="19.338712"
     inkscape:cy="21.587399"
     inkscape:window-x="0"
     inkscape:window-y="0"
     inkscape:window-maximized="1"
     inkscape:current-layer="svg73"
     inkscape:document-rotation="0"
     inkscape:pagecheckerboard="0"
     inkscape:showpageshadow="2"
     inkscape:deskcolor="#d1d1d1" />
  <defs
     id="defs29">
    <style
       id="current-color-scheme"
       type="text/css">.ColorScheme-Text {color:#d8dee9} .ColorScheme-Highlight {color:#3b4252}</style>
  </defs>
  <path
     id="path1"
     style="opacity:1;baseline-shift:baseline;display:inline;overflow:visible;vector-effect:none;fill:currentColor;enable-background:accumulate;stop-color:#000000;stop-opacity:1"
     d="M 19.661775 8.8383367 C 16.33974 8.8383367 13.637272 11.524326 13.637272 14.836206 L 13.637272 49.408294 C 13.637272 52.720174 16.33974 55.407939 19.661775 55.407939 L 44.400766 55.407939 C 47.722801 55.407939 50.427045 52.720174 50.427045 49.408294 L 50.427045 14.836206 C 50.427045 11.524326 47.722801 8.8383367 44.400766 8.8383367 L 19.661775 8.8383367 z M 35.94551 20.308507 L 39.906803 24.763408 L 41.131945 26.247783 L 37.925269 26.247783 L 37.925269 37.137342 L 30.006235 37.137342 L 30.006235 38.128109 L 33.234218 38.128109 L 31.985993 39.612484 L 28.026476 44.067385 L 24.065184 39.612484 L 22.840042 38.128109 L 26.046718 38.128109 L 26.046718 27.23855 L 33.965752 27.23855 L 33.965752 26.247783 L 30.737769 26.247783 L 31.985993 24.763408 L 35.94551 20.308507 z M 35.94551 21.796433 L 32.870226 25.257016 L 34.956519 25.257016 L 34.956519 34.168592 L 30.006235 34.168592 L 30.006235 36.148351 L 36.936278 36.148351 L 36.936278 25.257016 L 39.02257 25.257016 L 35.94551 21.796433 z M 27.035709 28.227541 L 27.035709 38.128109 L 27.035709 39.117101 L 24.949417 39.117101 L 28.026476 42.579459 L 31.101761 39.117101 L 29.015468 39.117101 L 29.015468 30.2073 L 33.965752 30.2073 L 33.965752 28.227541 L 27.035709 28.227541 z M 30.006235 31.198067 L 30.006235 33.177825 L 33.965752 33.177825 L 33.965752 31.198067 L 30.006235 31.198067 z "
     transform="matrix(1.1,0,0,1.1,-3.1845928,-3.2065454)"
     class="ColorScheme-Text" />
</svg>
