<?xml version="1.0" encoding="UTF-8" standalone="no"?>
<svg
   width="64"
   height="64"
   version="1.1"
   id="svg73"
   sodipodi:docname="application-x-kexiproject-sqlite3.svg"
   inkscape:version="1.4.2 (ebf0e940d0, 2025-05-08)"
   xmlns:inkscape="http://www.inkscape.org/namespaces/inkscape"
   xmlns:sodipodi="http://sodipodi.sourceforge.net/DTD/sodipodi-0.dtd"
   xmlns="http://www.w3.org/2000/svg"
   xmlns:svg="http://www.w3.org/2000/svg"
   xmlns:rdf="http://www.w3.org/1999/02/22-rdf-syntax-ns#"
   xmlns:cc="http://creativecommons.org/ns#"
   xmlns:dc="http://purl.org/dc/elements/1.1/">
  <metadata
     id="metadata77">
    <rdf:RDF>
      <cc:Work
         rdf:about="">
        <dc:format>image/svg+xml</dc:format>
        <dc:type
           rdf:resource="http://purl.org/dc/dcmitype/StillImage" />
      </cc:Work>
    </rdf:RDF>
  </metadata>
  <sodipodi:namedview
     pagecolor="#9c4444"
     bordercolor="#666666"
     borderopacity="1"
     objecttolerance="10"
     gridtolerance="10"
     guidetolerance="10"
     inkscape:pageopacity="0"
     inkscape:pageshadow="2"
     inkscape:window-width="2560"
     inkscape:window-height="1388"
     id="namedview75"
     showgrid="false"
     inkscape:zoom="4.4470387"
     inkscape:cx="19.451146"
     inkscape:cy="8.5450122"
     inkscape:window-x="0"
     inkscape:window-y="0"
     inkscape:window-maximized="1"
     inkscape:current-layer="svg73"
     inkscape:document-rotation="0"
     inkscape:pagecheckerboard="0"
     inkscape:showpageshadow="2"
     inkscape:deskcolor="#d1d1d1" />
  <defs
     id="defs29">
    <style
       id="current-color-scheme"
       type="text/css">.ColorScheme-Text {color:#d8dee9} .ColorScheme-Highlight {color:#3b4252}</style>
  </defs>
  <path
     id="path1"
     style="opacity:1;baseline-shift:baseline;display:inline;overflow:visible;vector-effect:none;fill:currentColor;enable-background:accumulate;stop-color:#000000;stop-opacity:1"
     d="M 19.661775 8.8383367 C 16.33974 8.8383367 13.637272 11.524326 13.637272 14.836206 L 13.637272 49.408294 C 13.637272 52.720174 16.33974 55.407939 19.661775 55.407939 L 44.400766 55.407939 C 47.722801 55.407939 50.427045 52.720174 50.427045 49.408294 L 50.427045 14.836206 C 50.427045 11.524326 47.722801 8.8383367 44.400766 8.8383367 L 19.661775 8.8383367 z M 32.641178 21.599345 C 37.125245 21.599345 40.760851 23.065068 40.760851 24.875269 L 40.760851 27.565254 C 40.760851 29.375455 37.125245 30.842953 32.641178 30.842953 C 28.156902 30.842953 24.521505 29.375685 24.521505 27.565254 L 24.521505 24.875269 C 24.521505 23.065068 28.156902 21.599345 32.641178 21.599345 z M 40.755525 28.735354 C 40.770325 28.816113 40.760851 33.42818 40.760851 33.42818 C 40.760851 35.238388 37.125245 36.705879 32.641178 36.705879 C 28.156902 36.705879 24.521505 35.238845 24.521505 33.42818 C 24.521505 33.42818 24.506944 28.836262 24.521505 28.737129 C 24.830818 30.433503 28.360304 31.7698 32.641178 31.7698 C 36.922316 31.7698 40.446457 30.432218 40.755525 28.735354 z M 40.753749 34.610709 L 40.760851 39.303536 C 40.760851 41.113507 37.125245 42.579459 32.641178 42.579459 C 28.156902 42.579459 24.521505 41.113964 24.521505 39.303536 L 24.519729 34.612484 C 24.830282 36.307228 28.361163 37.645155 32.641178 37.645155 C 36.922523 37.645155 40.445299 36.306425 40.753749 34.610709 z "
     transform="matrix(1.1,0,0,1.1,-3.1845928,-3.2065454)"
     class="ColorScheme-Text" />
</svg>
