<?xml version="1.0" encoding="UTF-8" standalone="no"?>
<svg
   width="64"
   height="64"
   version="1.1"
   id="svg73"
   sodipodi:docname="application-x-ms-shortcut.svg"
   inkscape:version="1.4.2 (ebf0e940d0, 2025-05-08)"
   xmlns:inkscape="http://www.inkscape.org/namespaces/inkscape"
   xmlns:sodipodi="http://sodipodi.sourceforge.net/DTD/sodipodi-0.dtd"
   xmlns="http://www.w3.org/2000/svg"
   xmlns:svg="http://www.w3.org/2000/svg"
   xmlns:rdf="http://www.w3.org/1999/02/22-rdf-syntax-ns#"
   xmlns:cc="http://creativecommons.org/ns#"
   xmlns:dc="http://purl.org/dc/elements/1.1/">
  <metadata
     id="metadata77">
    <rdf:RDF>
      <cc:Work
         rdf:about="">
        <dc:format>image/svg+xml</dc:format>
        <dc:type
           rdf:resource="http://purl.org/dc/dcmitype/StillImage" />
      </cc:Work>
    </rdf:RDF>
  </metadata>
  <sodipodi:namedview
     pagecolor="#9c4444"
     bordercolor="#666666"
     borderopacity="1"
     objecttolerance="10"
     gridtolerance="10"
     guidetolerance="10"
     inkscape:pageopacity="0"
     inkscape:pageshadow="2"
     inkscape:window-width="2560"
     inkscape:window-height="1388"
     id="namedview75"
     showgrid="false"
     inkscape:zoom="6.2890624"
     inkscape:cx="37.60497"
     inkscape:cy="23.214907"
     inkscape:window-x="0"
     inkscape:window-y="0"
     inkscape:window-maximized="1"
     inkscape:current-layer="svg73"
     inkscape:document-rotation="0"
     inkscape:pagecheckerboard="0"
     inkscape:showpageshadow="2"
     inkscape:deskcolor="#d1d1d1" />
  <defs
     id="defs29">
    <style
       id="current-color-scheme"
       type="text/css">.ColorScheme-Text {color:#d8dee9} .ColorScheme-Highlight {color:#3b4252}</style>
  </defs>
  <path
     id="path1"
     style="opacity:1;baseline-shift:baseline;display:inline;overflow:visible;vector-effect:none;fill:currentColor;enable-background:accumulate;stop-color:#000000;stop-opacity:1"
     d="M 19.661775 8.8383367 C 16.33974 8.8383367 13.637272 11.524326 13.637272 14.836206 L 13.637272 49.408294 C 13.637272 52.720174 16.33974 55.407939 19.661775 55.407939 L 44.400766 55.407939 C 47.722801 55.407939 50.427045 52.720174 50.427045 49.408294 L 50.427045 14.836206 C 50.427045 11.524326 47.722801 8.8383367 44.400766 8.8383367 L 19.661775 8.8383367 z M 23.33365 27.279388 L 28.820155 27.279388 C 29.564345 27.279388 30.167812 27.903539 30.167812 28.648351 L 30.167812 31.370297 L 33.804175 31.370297 L 33.804175 28.648351 C 33.804175 27.90354 34.407642 27.279388 35.151832 27.279388 L 40.638337 27.279388 C 41.382527 27.279388 41.985993 27.903539 41.985993 28.648351 L 41.985993 35.910425 C 41.985993 36.655237 41.382527 37.279388 40.638337 37.279388 L 35.151832 37.279388 C 34.407642 37.279388 33.804175 36.655238 33.804175 35.910425 L 33.804175 33.188479 L 30.167812 33.188479 L 30.167812 35.910425 C 30.167812 36.655237 29.564345 37.279388 28.820155 37.279388 L 23.33365 37.279388 C 22.58946 37.279388 21.985993 36.655238 21.985993 35.910425 L 21.985993 28.648351 C 21.985993 27.90354 22.58946 27.279388 23.33365 27.279388 z M 23.33365 28.170723 C 23.079689 28.170723 22.877329 28.371049 22.877329 28.648351 L 22.877329 35.910425 C 22.877329 36.187735 23.079688 36.388053 23.33365 36.388053 L 28.820155 36.388053 C 29.074116 36.388053 29.276476 36.187744 29.276476 35.910425 L 29.276476 33.188479 L 27.895084 33.188479 C 27.391448 33.188479 26.985993 32.783025 26.985993 32.279388 C 26.985993 31.775753 27.391448 31.370297 27.895084 31.370297 L 29.276476 31.370297 L 29.276476 28.648351 C 29.276476 28.37105 29.074117 28.170723 28.820155 28.170723 L 23.33365 28.170723 z M 35.151832 28.170723 C 34.89787 28.170723 34.69551 28.371049 34.69551 28.648351 L 34.69551 31.370297 L 36.076903 31.370297 C 36.58054 31.370297 36.985993 31.775753 36.985993 32.279388 C 36.985993 32.783025 36.58054 33.188479 36.076903 33.188479 L 34.69551 33.188479 L 34.69551 35.910425 C 34.695511 36.187735 34.89787 36.388053 35.151832 36.388053 L 40.638337 36.388053 C 40.892312 36.388053 41.094658 36.187744 41.094658 35.910425 L 41.094658 28.648351 C 41.094658 28.37105 40.892292 28.170723 40.638337 28.170723 L 35.151832 28.170723 z "
     transform="matrix(1.1,0,0,1.1,-3.1845928,-3.2065454)"
     class="ColorScheme-Text" />
</svg>
