<?xml version="1.0" encoding="UTF-8" standalone="no"?>
<svg
   width="64"
   height="64"
   version="1.1"
   id="svg73"
   sodipodi:docname="application-x-jaspstats-jasp.svg"
   inkscape:version="1.4.3 (0d15f75042, 2025-12-25)"
   xmlns:inkscape="http://www.inkscape.org/namespaces/inkscape"
   xmlns:sodipodi="http://sodipodi.sourceforge.net/DTD/sodipodi-0.dtd"
   xmlns="http://www.w3.org/2000/svg"
   xmlns:svg="http://www.w3.org/2000/svg"
   xmlns:rdf="http://www.w3.org/1999/02/22-rdf-syntax-ns#"
   xmlns:cc="http://creativecommons.org/ns#"
   xmlns:dc="http://purl.org/dc/elements/1.1/">
  <metadata
     id="metadata77">
    <rdf:RDF>
      <cc:Work
         rdf:about="">
        <dc:format>image/svg+xml</dc:format>
        <dc:type
           rdf:resource="http://purl.org/dc/dcmitype/StillImage" />
      </cc:Work>
    </rdf:RDF>
  </metadata>
  <sodipodi:namedview
     pagecolor="#f5f7fa"
     bordercolor="#666666"
     borderopacity="1"
     objecttolerance="10"
     gridtolerance="10"
     guidetolerance="10"
     inkscape:pageopacity="0"
     inkscape:pageshadow="2"
     inkscape:window-width="2560"
     inkscape:window-height="1388"
     id="namedview75"
     showgrid="false"
     inkscape:zoom="4.4470387"
     inkscape:cx="19.338712"
     inkscape:cy="8.5450122"
     inkscape:window-x="0"
     inkscape:window-y="0"
     inkscape:window-maximized="1"
     inkscape:current-layer="svg73"
     inkscape:document-rotation="0"
     inkscape:pagecheckerboard="0"
     inkscape:showpageshadow="2"
     inkscape:deskcolor="#d1d1d1" />
  <defs
     id="defs29">
    <style
       id="current-color-scheme"
       type="text/css">.ColorScheme-Text {color:#d8dee9} .ColorScheme-Highlight {color:#3b4252}</style>
  </defs>
  <path
     id="path5"
     style="fill:currentColor"
     d="M 19.661775 8.8383367 C 16.33974 8.8383367 13.637272 11.524326 13.637272 14.836206 L 13.637272 49.408294 C 13.637272 52.720174 16.33974 55.407939 19.661775 55.407939 L 44.400766 55.407939 C 47.722801 55.407939 50.427045 52.720174 50.427045 49.408294 L 50.427045 14.836206 C 50.427045 11.524326 47.722801 8.8383367 44.400766 8.8383367 L 19.661775 8.8383367 z M 38.960425 21.215823 L 38.962201 21.215823 C 39.025661 21.215823 39.092838 21.221013 39.155738 21.231803 L 39.155738 21.233578 C 39.762458 21.340939 40.168568 21.921152 40.061278 22.527967 C 39.984228 22.968306 39.657152 23.311758 39.230312 23.415751 L 36.421363 38.637698 C 36.506593 38.704742 36.580984 38.784474 36.645084 38.875624 C 36.816534 39.120983 36.883219 39.416459 36.831519 39.710141 C 36.737539 40.245454 36.275312 40.635212 35.732442 40.635212 C 35.667392 40.635212 35.60103 40.628356 35.53713 40.617456 C 35.29091 40.573781 35.070378 40.452135 34.905028 40.269445 L 31.705454 41.638408 C 31.702844 41.67426 31.699925 41.713194 31.693025 41.752044 C 31.586666 42.356631 31.062691 42.796078 30.448351 42.796078 C 30.374182 42.796078 30.302741 42.789867 30.228181 42.776547 C 29.896252 42.718443 29.605534 42.533497 29.41142 42.256305 C 29.248721 42.023516 29.171448 41.744288 29.187698 41.460851 L 25.498067 39.356803 C 25.27772 39.51413 24.991869 39.576818 24.734573 39.530808 C 24.466857 39.48351 24.233476 39.334503 24.077613 39.111774 C 23.921389 38.888954 23.862339 38.61757 23.910709 38.350055 C 23.98385 37.925276 24.310215 37.603733 24.727471 37.529743 L 25.006235 35.043948 C 24.645459 34.831646 24.444789 34.407342 24.519729 33.98926 C 24.604778 33.503025 25.024786 33.149416 25.519374 33.149416 C 25.581161 33.149416 25.640561 33.155146 25.696931 33.165396 C 25.963809 33.212048 26.198212 33.361241 26.353891 33.58443 C 26.362361 33.59638 26.370749 33.608767 26.378749 33.621717 L 28.145439 32.900837 C 28.145219 32.897207 28.145577 32.892308 28.145439 32.888408 L 28.143664 32.859999 C 28.143664 32.845749 28.143139 32.831115 28.145439 32.817385 C 28.148139 32.779585 28.156093 32.725055 28.156093 32.725055 C 28.225701 32.319736 28.56665 32.030808 28.969303 32.030808 C 29.425364 32.030808 29.796718 32.403373 29.796718 32.859999 C 29.796718 33.28171 29.480147 33.631377 29.072286 33.682087 L 28.779317 35.324487 L 30.730667 36.418237 L 30.599275 37.160425 L 26.121292 34.985354 C 25.999303 35.075397 25.857594 35.136636 25.707584 35.164686 L 25.427045 37.654033 C 25.551646 37.727405 25.660186 37.825572 25.743096 37.94345 C 25.899118 38.164592 25.959445 38.435882 25.911775 38.705169 C 25.908575 38.724959 25.904746 38.744888 25.899346 38.765538 L 29.4274 40.784359 C 29.649243 40.480435 29.996064 40.289179 30.373778 40.267669 L 33.220013 25.104317 C 32.774842 24.836619 32.532232 24.319707 32.623422 23.804601 C 32.729691 23.198719 33.253563 22.758791 33.868096 22.758791 C 33.942456 22.758791 34.015866 22.765373 34.088266 22.778323 C 34.394226 22.832327 34.670264 23.001071 34.862414 23.248848 L 37.847144 22.259857 C 37.849444 22.21973 37.854349 22.178188 37.861349 22.139118 C 37.955339 21.603896 38.417545 21.215823 38.960425 21.215823 z M 38.960425 21.92605 C 38.764825 21.92605 38.598098 22.066648 38.562698 22.259857 L 38.557371 22.288266 C 38.534571 22.49982 38.679478 22.696863 38.891178 22.733933 C 38.963858 22.746803 39.038246 22.739372 39.104246 22.714402 C 39.237956 22.664777 39.336604 22.54549 39.361704 22.403678 C 39.386464 22.262985 39.335905 22.121662 39.224985 22.025482 C 39.162085 21.974002 39.099724 21.944792 39.033224 21.933152 C 39.009724 21.929352 38.984525 21.92605 38.960425 21.92605 z M 38.159644 23.106803 L 35.128749 24.11355 C 35.125649 24.157216 35.120769 24.199776 35.112769 24.243166 C 35.022219 24.759851 34.617557 25.162797 34.107797 25.260567 L 31.24203 40.549984 C 31.320289 40.614145 31.390007 40.687655 31.451547 40.770155 L 34.619161 39.411845 C 34.621161 39.382525 34.624814 39.353972 34.629814 39.324842 C 34.713104 38.852663 35.079597 38.494997 35.542457 38.417527 L 38.340752 23.257726 C 38.274502 23.213399 38.214244 23.163523 38.159644 23.106803 z M 33.86632 23.469019 C 33.599099 23.469874 33.370191 23.662427 33.322996 23.927115 C 33.285407 24.142483 33.380213 24.360239 33.562698 24.482868 C 33.627272 24.526368 33.697125 24.556461 33.772215 24.569871 C 33.841365 24.582241 33.909288 24.581877 33.999488 24.559217 C 34.209888 24.508382 34.36932 24.342584 34.41142 24.133081 L 34.414971 24.106448 C 34.437021 23.955419 34.396559 23.804908 34.299559 23.682087 C 34.214139 23.573519 34.094906 23.500776 33.963976 23.477896 C 33.932252 23.471905 33.900753 23.469127 33.868096 23.469019 L 33.86632 23.469019 z M 28.947996 32.638053 C 28.835796 32.649485 28.747357 32.745034 28.747357 32.859999 C 28.747357 32.983182 28.846475 33.08372 28.969303 33.08372 C 29.092228 33.08372 29.193025 32.983189 29.193025 32.859999 C 29.193025 32.737371 29.092232 32.638053 28.969303 32.638053 C 28.961626 32.638053 28.955476 32.637291 28.947996 32.638053 z M 28.347854 33.401547 L 26.534999 34.138408 C 26.538079 34.209173 26.53374 34.277168 26.52257 34.342598 C 26.51987 34.358408 26.516792 34.373343 26.513692 34.388763 L 28.280383 35.043948 L 28.544942 33.56845 C 28.512572 33.54849 28.480872 33.525173 28.449062 33.499203 C 28.407726 33.464043 28.375434 33.432297 28.347854 33.401547 z M 25.490965 33.861419 C 25.354478 33.873621 25.243059 33.976409 25.219303 34.11355 C 25.198176 34.231429 25.248512 34.352743 25.34892 34.420723 C 25.385122 34.445313 25.426753 34.461763 25.467883 34.468663 C 25.497845 34.473723 25.535338 34.476196 25.593948 34.459786 L 25.663195 34.431376 C 25.741301 34.389474 25.794788 34.32099 25.814118 34.23784 L 25.824772 34.207655 C 25.834622 34.133258 25.816395 34.055166 25.771505 33.991036 C 25.72395 33.923361 25.654331 33.87946 25.572641 33.86497 C 25.556321 33.86187 25.537614 33.861419 25.519374 33.861419 C 25.51008 33.861419 25.500064 33.860606 25.490965 33.861419 z M 24.910354 38.220439 C 24.896034 38.220439 24.87556 38.226768 24.851761 38.232868 C 24.71674 38.267134 24.628308 38.358144 24.608508 38.474345 C 24.594028 38.555917 24.613169 38.636884 24.659999 38.703394 C 24.707275 38.771629 24.776967 38.815749 24.857087 38.829459 C 24.906775 38.837239 24.963473 38.834741 25.031093 38.804601 C 25.113168 38.768378 25.171726 38.700734 25.197996 38.611064 C 25.201466 38.598514 25.207776 38.584176 25.213976 38.570226 C 25.224916 38.493216 25.207235 38.415421 25.162485 38.351831 C 25.142695 38.323631 25.115544 38.300227 25.082584 38.277257 C 25.044896 38.251977 25.004751 38.233466 24.963621 38.225766 C 24.945521 38.222666 24.927454 38.220439 24.910354 38.220439 z M 35.735993 39.104672 C 35.507073 39.104672 35.322286 39.289315 35.322286 39.518379 C 35.322286 39.747342 35.507073 39.933862 35.735993 39.933862 C 35.964813 39.933862 36.151476 39.747342 36.151476 39.518379 C 36.151476 39.289315 35.964813 39.104672 35.735993 39.104672 z M 35.604601 39.903678 C 35.622901 39.909778 35.640544 39.914402 35.659644 39.917882 C 35.640544 39.914782 35.622901 39.909818 35.604601 39.903678 z M 30.446576 40.976121 C 30.24539 40.976753 30.060671 41.086742 29.963621 41.261987 C 29.932341 41.318041 29.911806 41.375637 29.901476 41.434217 C 29.895582 41.470435 29.89375 41.511504 29.89615 41.563834 C 29.90164 41.665886 29.935526 41.765155 29.993806 41.847925 C 30.078942 41.970007 30.205436 42.051463 30.350695 42.076973 C 30.652654 42.130607 30.93174 41.929476 30.9899 41.638408 L 30.9899 41.595794 L 30.998778 41.585141 C 31.006968 41.497241 30.994615 41.409342 30.959715 41.324132 C 30.941845 41.279346 30.917892 41.237297 30.888692 41.198067 L 30.862059 41.167882 C 30.776816 41.069739 30.66707 41.006509 30.544232 40.984999 C 30.512432 40.979399 30.478796 40.976121 30.446576 40.976121 z "
     class="ColorScheme-Text" />
</svg>
