<?xml version="1.0" encoding="UTF-8" standalone="no"?>
<svg
   width="64"
   height="64"
   version="1.1"
   id="svg73"
   sodipodi:docname="application-x-perl.svg"
   inkscape:version="1.4.2 (ebf0e940d0, 2025-05-08)"
   xmlns:inkscape="http://www.inkscape.org/namespaces/inkscape"
   xmlns:sodipodi="http://sodipodi.sourceforge.net/DTD/sodipodi-0.dtd"
   xmlns="http://www.w3.org/2000/svg"
   xmlns:svg="http://www.w3.org/2000/svg"
   xmlns:rdf="http://www.w3.org/1999/02/22-rdf-syntax-ns#"
   xmlns:cc="http://creativecommons.org/ns#"
   xmlns:dc="http://purl.org/dc/elements/1.1/">
  <metadata
     id="metadata77">
    <rdf:RDF>
      <cc:Work
         rdf:about="">
        <dc:format>image/svg+xml</dc:format>
        <dc:type
           rdf:resource="http://purl.org/dc/dcmitype/StillImage" />
      </cc:Work>
    </rdf:RDF>
  </metadata>
  <sodipodi:namedview
     pagecolor="#9c4444"
     bordercolor="#666666"
     borderopacity="1"
     objecttolerance="10"
     gridtolerance="10"
     guidetolerance="10"
     inkscape:pageopacity="0"
     inkscape:pageshadow="2"
     inkscape:window-width="2560"
     inkscape:window-height="1388"
     id="namedview75"
     showgrid="false"
     inkscape:zoom="4.4470387"
     inkscape:cx="19.338712"
     inkscape:cy="25.859905"
     inkscape:window-x="0"
     inkscape:window-y="0"
     inkscape:window-maximized="1"
     inkscape:current-layer="svg73"
     inkscape:document-rotation="0"
     inkscape:pagecheckerboard="0"
     inkscape:showpageshadow="2"
     inkscape:deskcolor="#d1d1d1" />
  <defs
     id="defs29">
    <style
       id="current-color-scheme"
       type="text/css">.ColorScheme-Text {color:#d8dee9} .ColorScheme-Highlight {color:#3b4252}</style>
  </defs>
  <path
     id="path1"
     style="opacity:1;baseline-shift:baseline;display:inline;overflow:visible;vector-effect:none;fill:currentColor;enable-background:accumulate;stop-color:#000000;stop-opacity:1"
     d="M 19.661775 8.8383367 C 16.33974 8.8383367 13.637272 11.524326 13.637272 14.836206 L 13.637272 49.408294 C 13.637272 52.720174 16.33974 55.407939 19.661775 55.407939 L 44.400766 55.407939 C 47.722801 55.407939 50.427045 52.720174 50.427045 49.408294 L 50.427045 14.836206 C 50.427045 11.524326 47.722801 8.8383367 44.400766 8.8383367 L 19.661775 8.8383367 z M 35.702258 20.022641 A 5.9971546 5.9971546 0 0 1 36.607797 20.354672 A 2.8219239 2.8219238 0 0 1 37.872002 22.197712 C 38.270602 23.511286 39.448452 24.376063 39.860638 25.67605 A 8.3525314 8.3525314 0 0 0 41.373422 27.840467 C 41.762979 28.334189 41.721554 29.006063 41.893664 29.585851 C 42.065812 29.744386 42.18864 30.10615 41.86703 30.14693 C 41.86703 30.44135 42.075389 30.771635 41.86703 31.05247 A 9.4803942 9.4803942 0 0 1 41.131945 32.833365 C 41.082119 33.041725 40.733535 33.280415 40.679175 32.945226 C 40.638422 32.469624 40.435531 31.89986 40.766178 31.478607 A 2.9940478 2.9940478 0 0 0 40.702258 29.825553 A 1.4902292 1.4902293 0 0 0 40.457229 28.847215 C 40.262476 28.946864 40.336162 29.282153 40.263692 29.463337 A 10.418017 10.418017 0 0 0 40.357797 33.38024 C 40.475587 33.883019 40.281834 34.414486 40.395084 34.903678 C 40.81181 35.361164 40.489898 36.013363 40.453678 36.547854 A 6.0288613 6.028861 0 0 0 40.652542 39.500624 A 5.0776513 5.0776506 0 0 0 40.842528 40.464757 A 0.8606187 0.86061877 0 0 1 39.810922 40.917527 C 39.584438 40.758994 39.149041 41.058128 39.040326 40.686703 C 39.004104 40.283571 39.393314 39.980285 39.361704 39.568095 A 8.4521834 8.4521834 0 0 0 39.551689 36.116391 C 39.429402 35.450544 39.479948 34.735442 39.294232 34.092243 A 4.9825294 4.9825297 0 0 1 38.450837 32.298919 A 12.750746 12.750747 0 0 1 37.91284 30.5997 A 5.4354868 5.4354862 0 0 0 37.065894 34.115325 C 37.043247 34.595456 37.34198 35.160627 36.94338 35.541107 C 36.463244 36.30661 35.8563 37.014451 35.611704 37.920368 C 35.589058 38.287271 36.081465 38.296117 36.208295 38.595084 A 2.8536311 2.8536311 0 0 1 36.503039 40.052825 C 36.226735 40.161535 35.828505 40.44679 35.597499 40.102541 A 8.9413755 8.9413755 0 0 0 35.045297 39.255595 C 34.900355 39.536429 35.036749 39.984403 34.665326 40.120297 A 2.9940478 2.9940478 0 0 1 32.966107 40.233933 C 32.685271 39.984803 33.070497 39.627694 33.310567 39.532584 A 1.2048663 1.2048663 0 0 0 34.079388 38.712271 A 0.41672067 0.41672067 0 0 0 34.052755 38.087271 C 33.477497 37.376132 32.685287 36.904754 32.078323 36.238905 C 31.71143 35.740647 31.806516 35.016669 31.946931 34.427825 A 1.5762913 1.5762913 0 0 0 32.151121 33.335851 C 32.087709 33.000666 32.300269 32.656465 32.300269 32.357513 A 2.468617 2.4686171 0 0 0 31.313053 32.456945 A 11.976191 11.97619 0 0 1 31.199417 34.065609 A 1.4539931 1.453993 0 0 0 30.831874 35.015538 C 30.6054 35.300897 30.751453 35.723228 30.688053 36.072001 A 3.0438727 3.0438727 0 0 1 30.419942 37.742811 C 30.102872 38.775557 30.234414 39.881244 29.967172 40.913976 C 29.763337 41.2084 30.108318 41.6922 29.709715 41.886987 C 29.107281 42.118006 28.27314 42.167708 27.747712 41.714757 C 27.589176 41.388629 28.061008 41.202814 28.287485 41.098635 A 0.79720482 0.79720482 0 0 0 28.916036 40.464757 A 5.7525583 5.7525583 0 0 0 29.468238 37.163976 A 7.636859 7.636859 0 0 0 29.233863 35.549984 A 9.4622779 9.4622779 0 0 0 29.00659 33.960851 C 28.920541 33.24518 29.069972 32.493009 28.875198 31.799984 A 2.3100819 2.3100819 0 0 1 27.861349 32.240325 A 0.45295726 0.45295726 0 0 1 27.222144 32.013053 C 27.022844 31.736754 26.792532 32.46971 26.611349 32.09828 A 5.353955 5.353955 0 0 0 25.837201 31.443095 A 1.2501623 1.2501623 0 0 0 25.197996 31.102186 C 25.053052 30.921009 25.288483 30.613242 25.025766 30.468308 C 24.935175 30.223709 24.718201 30.56749 24.604957 30.313834 C 24.491718 30.060178 24.508753 29.715866 24.214332 29.607158 C 23.697965 29.172316 23.856682 28.38014 23.761562 27.764118 A 8.1804073 8.180408 0 0 1 23.798849 25.9122 A 14.494631 14.494631 0 0 0 24.345724 24.525482 C 23.842942 24.099702 22.919113 24.453417 22.561278 23.751334 C 22.407273 23.239492 22.9199 22.795938 23.232442 22.492456 C 23.544983 22.188975 24.034487 22.33831 24.414971 22.188834 C 24.713923 22.089185 25.170712 22.196992 25.247712 21.789331 C 25.370011 21.463201 25.754907 21.46752 25.963266 21.222925 C 26.298454 21.028154 26.597721 21.450438 26.923849 21.482158 A 3.2929992 3.2929995 0 0 1 27.934147 22.387698 C 28.033798 22.645884 27.946464 22.980228 28.218238 23.138763 C 28.675725 23.668724 28.481887 24.458364 28.527187 25.106092 A 1.4902292 1.4902293 0 0 1 28.363834 25.944161 C 28.341187 26.306527 28.015537 26.545747 28.074417 26.917172 C 28.119712 27.166298 27.90664 27.687372 28.305241 27.574132 C 28.427543 27.370301 28.408619 27.01697 28.52186 26.776902 C 28.852517 25.712451 29.361111 24.579409 30.366675 24.058507 A 4.5295726 4.5295726 0 0 0 31.879459 21.920723 C 32.155763 21.494942 32.667813 21.22844 32.889758 20.775482 A 8.1532303 8.1532303 0 0 0 33.795297 20.530453 C 34.153135 20.367385 34.47392 20.077579 34.899701 20.127399 L 34.899701 20.122073 A 4.9281749 4.9281749 0 0 0 35.702258 20.022641 z M 35.185567 31.714757 C 34.927379 31.800822 35.0187 32.189194 34.92811 32.393024 C 34.814873 32.678394 34.909778 33.185576 34.58365 33.330524 C 34.402474 33.643059 34.515459 34.06434 34.329743 34.3497 C 34.370511 34.553532 34.406388 34.939189 34.125553 34.939189 C 33.84472 34.939189 33.768128 35.25153 33.573351 35.391959 C 33.392175 35.659198 33.196823 35.962317 33.468593 36.297499 C 33.740367 36.632691 33.926394 37.176405 34.429175 37.176405 C 34.633005 37.176405 34.918217 37.516122 35.013337 37.176405 A 3.3609429 3.3609429 0 0 0 35.606377 35.178891 A 31.61189 31.61189 0 0 0 35.217528 31.768024 L 35.212201 31.759146 C 35.214183 31.739323 35.209524 31.728132 35.203323 31.721859 C 35.201483 31.720444 35.196224 31.717329 35.194445 31.716533 L 35.19267 31.714757 L 35.190894 31.714757 L 35.189118 31.714757 L 35.187343 31.714757 L 35.185567 31.714757 z "
     transform="matrix(1.1,0,0,1.1,-3.1845928,-3.2065454)"
     class="ColorScheme-Text" />
</svg>
