<?xml version="1.0" encoding="UTF-8" standalone="no"?>
<svg
   width="64"
   height="64"
   version="1.1"
   id="svg73"
   sodipodi:docname="libreoffice-text.svg"
   inkscape:version="1.4.2 (ebf0e940d0, 2025-05-08)"
   xmlns:inkscape="http://www.inkscape.org/namespaces/inkscape"
   xmlns:sodipodi="http://sodipodi.sourceforge.net/DTD/sodipodi-0.dtd"
   xmlns="http://www.w3.org/2000/svg"
   xmlns:svg="http://www.w3.org/2000/svg"
   xmlns:rdf="http://www.w3.org/1999/02/22-rdf-syntax-ns#"
   xmlns:cc="http://creativecommons.org/ns#"
   xmlns:dc="http://purl.org/dc/elements/1.1/">
  <metadata
     id="metadata77">
    <rdf:RDF>
      <cc:Work
         rdf:about="">
        <dc:format>image/svg+xml</dc:format>
        <dc:type
           rdf:resource="http://purl.org/dc/dcmitype/StillImage" />
      </cc:Work>
    </rdf:RDF>
  </metadata>
  <sodipodi:namedview
     pagecolor="#9c4444"
     bordercolor="#666666"
     borderopacity="1"
     objecttolerance="10"
     gridtolerance="10"
     guidetolerance="10"
     inkscape:pageopacity="0"
     inkscape:pageshadow="2"
     inkscape:window-width="2560"
     inkscape:window-height="1388"
     id="namedview75"
     showgrid="false"
     inkscape:zoom="4.4470387"
     inkscape:cx="19.451146"
     inkscape:cy="8.5450122"
     inkscape:window-x="0"
     inkscape:window-y="0"
     inkscape:window-maximized="1"
     inkscape:current-layer="svg73"
     inkscape:document-rotation="0"
     inkscape:pagecheckerboard="0"
     inkscape:showpageshadow="2"
     inkscape:deskcolor="#d1d1d1" />
  <defs
     id="defs29">
    <style
       id="current-color-scheme"
       type="text/css">.ColorScheme-Text {color:#d8dee9} .ColorScheme-Highlight {color:#3b4252}</style>
  </defs>
  <path
     id="path1"
     style="opacity:1;baseline-shift:baseline;display:inline;overflow:visible;vector-effect:none;fill:currentColor;enable-background:accumulate;stop-color:#000000;stop-opacity:1"
     d="M 19.661775 8.8383367 C 16.33974 8.8383367 13.637272 11.524326 13.637272 14.836206 L 13.637272 49.408294 C 13.637272 52.720174 16.33974 55.407939 19.661775 55.407939 L 44.400766 55.407939 C 47.722801 55.407939 50.427045 52.720174 50.427045 49.408294 L 50.427045 14.836206 C 50.427045 11.524326 47.722801 8.8383367 44.400766 8.8383367 L 19.661775 8.8383367 z M 36.957584 19.726121 C 37.298493 19.726121 37.624804 19.75966 37.934147 19.829104 C 38.24349 19.898548 38.522846 20.000149 38.772215 20.132726 L 38.402897 20.871362 C 38.204022 20.770358 37.986637 20.682954 37.753039 20.610354 C 37.519453 20.537753 37.254302 20.502044 36.957584 20.502044 C 36.619832 20.502044 36.314237 20.566161 36.039616 20.695581 C 35.764994 20.821845 35.530422 21.006109 35.334715 21.246007 C 35.142161 21.485906 34.991041 21.777296 34.883721 22.121362 C 34.779564 22.465429 34.727471 22.853686 34.727471 23.286135 C 34.727471 23.731212 34.77443 24.126767 34.865965 24.47399 C 34.960661 24.818056 35.100537 25.109051 35.286775 25.345794 C 35.473006 25.582537 35.705013 25.762461 35.982797 25.885567 C 36.260575 26.008674 36.58511 26.070226 36.957584 26.070226 C 37.238518 26.070226 37.50584 26.043985 37.758366 25.990325 C 38.010891 25.933505 38.259667 25.867614 38.50588 25.795013 L 38.50588 26.562058 C 38.382779 26.609405 38.259674 26.652019 38.136562 26.689899 C 38.013461 26.724619 37.885226 26.753027 37.749488 26.775126 C 37.616904 26.797234 37.472691 26.813607 37.318025 26.823067 C 37.16652 26.835687 36.998232 26.842598 36.811988 26.842598 C 36.29431 26.842598 35.844896 26.757372 35.466107 26.586916 C 35.08732 26.416461 34.774425 26.174984 34.525056 25.862484 C 34.278843 25.549984 34.09458 25.173762 33.97463 24.734999 C 33.85469 24.296235 33.795297 23.810717 33.795297 23.277257 C 33.795297 22.753267 33.863742 22.272878 33.999488 21.837271 C 34.13837 21.401665 34.3398 21.027612 34.604957 20.715112 C 34.873265 20.402612 35.204703 20.158965 35.599275 19.985354 C 35.993845 19.811742 36.44622 19.726121 36.957584 19.726121 z M 23.829033 19.797144 L 24.633366 19.797144 L 27.181306 26.746717 L 26.281093 26.746717 L 25.522925 24.601831 L 22.943025 24.601831 L 22.175979 26.746717 L 21.28642 26.746717 L 23.829033 19.797144 z M 28.122357 19.825553 L 30.011562 19.825553 C 30.415602 19.825553 30.770714 19.856524 31.076903 19.919658 C 31.386246 19.979631 31.644097 20.079063 31.849275 20.217953 C 32.057611 20.353687 32.213861 20.533611 32.318025 20.757726 C 32.422181 20.978686 32.474275 21.251136 32.474275 21.576263 C 32.474275 21.77197 32.443303 21.956234 32.38017 22.126689 C 32.320203 22.297144 32.230639 22.446489 32.113834 22.575908 C 31.997034 22.705328 31.852423 22.814229 31.67882 22.902612 C 31.508371 22.987839 31.314242 23.044658 31.096434 23.073067 L 31.096434 23.121007 C 31.31423 23.158887 31.51783 23.213536 31.707229 23.286135 C 31.899783 23.355578 32.067671 23.45284 32.209715 23.579104 C 32.351759 23.702211 32.463223 23.85846 32.545297 24.047854 C 32.627372 24.237248 32.667812 24.468861 32.667812 24.740325 C 32.667812 25.055982 32.615718 25.337902 32.511562 25.587271 C 32.410544 25.833483 32.263371 26.043987 32.06767 26.217598 C 31.875116 26.388053 31.638769 26.518459 31.360993 26.609999 C 31.083215 26.701539 30.77032 26.746717 30.419942 26.746717 L 28.122357 26.746717 L 28.122357 19.825553 z M 29.003039 20.578394 L 29.003039 22.760567 L 30.158934 22.760567 C 30.424085 22.760567 30.646622 22.736891 30.826547 22.689544 C 31.006479 22.642197 31.15109 22.573344 31.261562 22.481803 C 31.37204 22.387107 31.45214 22.26913 31.499488 22.13024 C 31.549994 21.988193 31.574062 21.824644 31.574062 21.638408 C 31.574062 21.25962 31.453126 20.987564 31.21007 20.823422 C 30.967014 20.659279 30.583492 20.578394 30.059502 20.578394 L 29.003039 20.578394 z M 24.226761 20.743521 C 24.204654 20.841374 24.178811 20.942975 24.150411 21.047144 C 24.122004 21.151309 24.093597 21.251135 24.065184 21.34899 C 24.036777 21.443686 24.00837 21.533253 23.979957 21.615325 C 23.954703 21.694239 23.933201 21.760528 23.914261 21.814189 L 23.227116 23.820581 L 25.244161 23.820581 L 24.542812 21.814189 C 24.523865 21.757369 24.500189 21.686742 24.471789 21.604672 C 24.446536 21.522602 24.420295 21.434811 24.391888 21.340112 C 24.363482 21.245416 24.335074 21.148155 24.306661 21.047144 C 24.278254 20.942978 24.252013 20.841377 24.226761 20.743521 z M 29.003039 23.499203 L 29.003039 25.999203 L 30.263692 25.999203 C 30.541473 25.999203 30.77348 25.968231 30.959715 25.905098 C 31.149108 25.841965 31.300621 25.752398 31.414261 25.638763 C 31.531061 25.525128 31.61413 25.389987 31.664616 25.232158 C 31.715122 25.071172 31.740965 24.893813 31.740965 24.701263 C 31.740965 24.524494 31.712956 24.363115 31.659289 24.214757 C 31.608782 24.066397 31.523549 23.938951 31.403607 23.834786 C 31.286806 23.727463 31.130558 23.646577 30.934857 23.589757 C 30.739142 23.529784 30.497271 23.499203 30.206874 23.499203 L 29.003039 23.499203 z M 20.97392 31.718308 L 43.097499 31.718308 L 43.097499 32.856448 L 20.97392 32.856448 L 20.97392 31.718308 z M 20.97392 37.405453 L 43.097499 37.405453 L 43.097499 38.543592 L 20.97392 38.543592 L 20.97392 37.405453 z M 20.97392 43.094374 L 35.970368 43.094374 L 35.970368 44.230737 L 20.97392 44.230737 L 20.97392 43.094374 z "
     transform="matrix(1.1,0,0,1.1,-3.1845928,-3.2065454)"
     class="ColorScheme-Text" />
</svg>
