<?xml version="1.0" encoding="UTF-8" standalone="no"?>
<svg
   width="64"
   height="64"
   version="1.1"
   id="svg73"
   sodipodi:docname="text-x-go.svg"
   inkscape:version="1.4.2 (ebf0e940d0, 2025-05-08)"
   xmlns:inkscape="http://www.inkscape.org/namespaces/inkscape"
   xmlns:sodipodi="http://sodipodi.sourceforge.net/DTD/sodipodi-0.dtd"
   xmlns="http://www.w3.org/2000/svg"
   xmlns:svg="http://www.w3.org/2000/svg"
   xmlns:rdf="http://www.w3.org/1999/02/22-rdf-syntax-ns#"
   xmlns:cc="http://creativecommons.org/ns#"
   xmlns:dc="http://purl.org/dc/elements/1.1/">
  <metadata
     id="metadata77">
    <rdf:RDF>
      <cc:Work
         rdf:about="">
        <dc:format>image/svg+xml</dc:format>
        <dc:type
           rdf:resource="http://purl.org/dc/dcmitype/StillImage" />
      </cc:Work>
    </rdf:RDF>
  </metadata>
  <sodipodi:namedview
     pagecolor="#9c4444"
     bordercolor="#666666"
     borderopacity="1"
     objecttolerance="10"
     gridtolerance="10"
     guidetolerance="10"
     inkscape:pageopacity="0"
     inkscape:pageshadow="2"
     inkscape:window-width="2560"
     inkscape:window-height="1388"
     id="namedview75"
     showgrid="false"
     inkscape:zoom="4.4470387"
     inkscape:cx="19.338712"
     inkscape:cy="25.859905"
     inkscape:window-x="0"
     inkscape:window-y="0"
     inkscape:window-maximized="1"
     inkscape:current-layer="svg73"
     inkscape:document-rotation="0"
     inkscape:pagecheckerboard="0"
     inkscape:showpageshadow="2"
     inkscape:deskcolor="#d1d1d1" />
  <defs
     id="defs29">
    <style
       id="current-color-scheme"
       type="text/css">.ColorScheme-Text {color:#d8dee9} .ColorScheme-Highlight {color:#3b4252}</style>
  </defs>
  <path
     id="path1"
     style="opacity:1;baseline-shift:baseline;display:inline;overflow:visible;vector-effect:none;fill:currentColor;enable-background:accumulate;stop-color:#000000;stop-opacity:1"
     d="M 19.661775 8.8383367 C 16.33974 8.8383367 13.637272 11.524326 13.637272 14.836206 L 13.637272 49.408294 C 13.637272 52.720174 16.33974 55.407939 19.661775 55.407939 L 44.400766 55.407939 C 47.722801 55.407939 50.427045 52.720174 50.427045 49.408294 L 50.427045 14.836206 C 50.427045 11.524326 47.722801 8.8383367 44.400766 8.8383367 L 19.661775 8.8383367 z M 31.478181 25.787911 C 32.267103 25.770582 33.02198 25.959144 33.718948 26.432442 C 34.326448 26.83376 34.763442 27.384312 35.050624 28.049984 C 35.119106 28.153075 35.072912 28.210688 34.935212 28.245297 C 34.212839 28.428652 33.720048 28.566204 33.008721 28.749558 C 32.836412 28.795949 32.823659 28.807495 32.674914 28.635922 C 32.502605 28.440786 32.376668 28.314005 32.135141 28.199132 C 31.412768 27.844205 30.714129 27.947217 30.059502 28.371362 C 29.279693 28.876508 28.878357 29.620694 28.889403 30.549984 C 28.901184 31.46823 29.531234 32.225532 30.437698 32.352186 C 31.217507 32.455277 31.871081 32.181203 32.387272 31.595794 C 32.490363 31.469876 32.583124 31.331961 32.697996 31.171433 L 30.483863 31.171433 C 30.243072 31.171433 30.185204 31.022109 30.265468 30.826973 C 30.414213 30.471309 30.690142 29.873425 30.851405 29.575198 C 30.885278 29.506716 30.964963 29.392314 31.137272 29.392314 L 34.828678 29.392314 C 34.994511 28.866843 35.265036 28.370712 35.624133 27.900837 C 36.461378 26.799973 37.470917 26.226526 38.836135 25.984999 C 40.006954 25.778817 41.106447 25.894218 42.104957 26.570936 C 43.01142 27.190218 43.574793 28.026891 43.724275 29.127754 C 43.918675 30.677063 43.470243 31.939988 42.403252 33.018024 C 41.64627 33.786788 40.718112 34.268455 39.651121 34.486419 C 39.341112 34.543855 39.03138 34.554793 38.733153 34.589402 C 37.688989 34.566575 36.735718 34.268643 35.933082 33.580879 C 35.367783 33.092387 34.979353 32.491233 34.786064 31.792882 C 34.65189 32.063885 34.492314 32.323591 34.304885 32.570581 C 33.478685 33.660399 32.399507 34.3368 31.034289 34.520155 C 29.909862 34.669637 28.865861 34.452263 27.948351 33.763763 C 27.099324 33.120917 26.616528 32.271032 26.49061 31.215823 C 26.341128 29.965477 26.708415 28.841399 27.465397 27.854672 C 28.280551 26.787681 29.359612 26.112153 30.679175 25.871362 C 30.948684 25.822578 31.215207 25.793686 31.478181 25.787911 z M 39.493096 27.996717 C 39.359841 28.001094 39.224493 28.018413 39.088266 28.049984 C 38.021275 28.290775 37.331935 28.96695 37.080099 30.045723 C 36.87318 30.940405 37.310362 31.848022 38.136562 32.215467 C 38.767625 32.490867 39.397999 32.456229 40.006235 32.14622 C 40.911962 31.675684 41.404764 30.941896 41.462201 29.955169 C 41.451155 29.806424 41.451292 29.69007 41.428465 29.575198 C 41.247412 28.581659 40.425877 27.966082 39.493096 27.996717 z M 22.314474 28.026902 L 26.410709 28.026902 C 26.424976 28.026902 26.438592 28.031874 26.446221 28.037555 L 26.447996 28.039331 C 26.448626 28.039987 26.450985 28.043961 26.451547 28.044658 L 26.453323 28.046433 L 26.453323 28.048209 C 26.453685 28.049014 26.454803 28.052698 26.455099 28.053536 C 26.458298 28.065677 26.456208 28.08133 26.446221 28.096149 L 26.250908 28.394445 C 26.228081 28.429054 26.170105 28.463692 26.135496 28.463692 L 21.982442 28.451263 C 21.966748 28.451263 21.952814 28.447331 21.945155 28.442385 L 21.94338 28.440609 L 21.941604 28.438834 L 21.939829 28.437058 L 21.939829 28.435283 L 21.938053 28.433507 L 21.938053 28.431732 L 21.936278 28.429956 L 21.936278 28.42818 C 21.936183 28.427423 21.936305 28.423642 21.936278 28.422854 C 21.936674 28.414677 21.941573 28.40526 21.948707 28.394445 L 22.188408 28.085496 C 22.211972 28.050887 22.268083 28.026902 22.314474 28.026902 z M 20.565539 29.083365 C 20.571523 29.082674 20.577588 29.083365 20.583295 29.083365 L 25.814118 29.083365 C 25.859773 29.083365 25.883758 29.118003 25.872712 29.152612 L 25.780383 29.427825 C 25.768601 29.47348 25.723054 29.495297 25.6774 29.495297 L 20.249488 29.507726 C 20.233794 29.507726 20.21983 29.503879 20.212201 29.498848 L 20.210425 29.497073 L 20.20865 29.495297 L 20.20865 29.493521 L 20.206874 29.491746 L 20.205099 29.48997 L 20.205099 29.488195 L 20.205099 29.486419 L 20.205099 29.484644 L 20.205099 29.482868 L 20.203323 29.481092 C 20.203129 29.472423 20.207652 29.460776 20.215752 29.449132 L 20.457229 29.140183 C 20.477203 29.1099 20.523648 29.088207 20.565539 29.083365 z M 23.259076 30.138053 C 23.261929 30.137796 23.2651 30.138053 23.267954 30.138053 L 25.561988 30.138053 C 25.607642 30.138053 25.631235 30.171562 25.631235 30.217953 L 25.608153 30.494942 C 25.608153 30.540596 25.561086 30.574842 25.526476 30.574842 L 23.026476 30.562413 C 23.01198 30.562413 22.998603 30.55744 22.990965 30.55176 L 22.989189 30.549984 L 22.987414 30.548209 L 22.985638 30.546433 L 22.985638 30.544658 L 22.983863 30.544658 L 22.983863 30.542882 L 22.983863 30.541107 L 22.982087 30.539331 C 22.979025 30.527171 22.982709 30.509827 22.992741 30.494942 L 23.152542 30.2073 C 23.173942 30.174854 23.216277 30.141901 23.259076 30.138053 z "
     transform="matrix(1.1,0,0,1.1,-3.1845928,-3.2065454)"
     class="ColorScheme-Text" />
</svg>
