<?xml version="1.0" encoding="UTF-8" standalone="no"?>
<svg
   width="64"
   height="64"
   version="1.1"
   id="svg73"
   sodipodi:docname="text-x-rust.svg"
   inkscape:version="1.4.2 (ebf0e940d0, 2025-05-08)"
   xmlns:inkscape="http://www.inkscape.org/namespaces/inkscape"
   xmlns:sodipodi="http://sodipodi.sourceforge.net/DTD/sodipodi-0.dtd"
   xmlns="http://www.w3.org/2000/svg"
   xmlns:svg="http://www.w3.org/2000/svg"
   xmlns:rdf="http://www.w3.org/1999/02/22-rdf-syntax-ns#"
   xmlns:cc="http://creativecommons.org/ns#"
   xmlns:dc="http://purl.org/dc/elements/1.1/">
  <metadata
     id="metadata77">
    <rdf:RDF>
      <cc:Work
         rdf:about="">
        <dc:format>image/svg+xml</dc:format>
        <dc:type
           rdf:resource="http://purl.org/dc/dcmitype/StillImage" />
      </cc:Work>
    </rdf:RDF>
  </metadata>
  <sodipodi:namedview
     pagecolor="#9c4444"
     bordercolor="#666666"
     borderopacity="1"
     objecttolerance="10"
     gridtolerance="10"
     guidetolerance="10"
     inkscape:pageopacity="0"
     inkscape:pageshadow="2"
     inkscape:window-width="2560"
     inkscape:window-height="1388"
     id="namedview75"
     showgrid="false"
     inkscape:zoom="4.4470387"
     inkscape:cx="19.451146"
     inkscape:cy="25.859905"
     inkscape:window-x="0"
     inkscape:window-y="0"
     inkscape:window-maximized="1"
     inkscape:current-layer="svg73"
     inkscape:document-rotation="0"
     inkscape:pagecheckerboard="0"
     inkscape:showpageshadow="2"
     inkscape:deskcolor="#d1d1d1" />
  <defs
     id="defs29">
    <style
       id="current-color-scheme"
       type="text/css">.ColorScheme-Text {color:#d8dee9} .ColorScheme-Highlight {color:#3b4252}</style>
  </defs>
  <path
     id="path1"
     style="opacity:1;baseline-shift:baseline;display:inline;overflow:visible;vector-effect:none;fill:currentColor;enable-background:accumulate;stop-color:#000000;stop-opacity:1"
     d="M 19.661775 8.8383367 C 16.33974 8.8383367 13.637272 11.524326 13.637272 14.836206 L 13.637272 49.408294 C 13.637272 52.720174 16.33974 55.407939 19.661775 55.407939 L 44.400766 55.407939 C 47.722801 55.407939 50.427045 52.720174 50.427045 49.408294 L 50.427045 14.836206 C 50.427045 11.524326 47.722801 8.8383367 44.400766 8.8383367 L 19.661775 8.8383367 z M 32.531093 21.824842 A 0.28145456 0.28145456 0 0 1 32.774346 21.949132 L 33.285709 22.776547 L 33.523635 22.799629 L 34.187698 22.089402 C 34.321062 21.947038 34.591272 22.002149 34.659999 22.187058 L 34.999133 23.090823 L 35.231732 23.161845 L 36.018309 22.595439 C 36.177854 22.480075 36.433843 22.586189 36.465752 22.780098 L 36.618451 23.737129 L 36.833295 23.850766 L 37.715752 23.447712 C 37.894934 23.365894 38.125212 23.521234 38.11703 23.717598 L 38.083295 24.688834 L 38.271505 24.843308 L 39.214332 24.617811 C 39.405786 24.572811 39.600241 24.769041 39.555241 24.960496 L 39.331519 25.906874 L 39.485993 26.091533 L 40.457229 26.057797 C 40.655229 26.050433 40.807976 26.280851 40.72534 26.460851 L 40.324062 27.341533 L 40.437698 27.556376 L 41.392954 27.714402 C 41.587681 27.746311 41.694752 27.999567 41.579388 28.158294 L 41.012982 28.944871 L 41.084005 29.17747 L 41.99132 29.516604 C 42.176229 29.585331 42.22765 29.858274 42.08365 29.992456 L 41.373422 30.651192 L 41.400056 30.894445 L 42.22392 31.405808 C 42.391647 31.508899 42.391647 31.785672 42.22392 31.888763 L 41.400056 32.396575 L 41.373422 32.639828 L 42.08365 33.30034 C 42.22765 33.434521 42.175411 33.703913 41.99132 33.772641 L 41.084005 34.111774 L 41.012982 34.346149 L 41.579388 35.13095 C 41.694752 35.291314 41.587681 35.547303 41.392954 35.578394 L 40.437698 35.732868 L 40.322286 35.947712 L 40.72534 36.828394 C 40.807976 37.007575 40.653593 37.247811 40.457229 37.231448 L 39.485993 37.197712 L 39.331519 37.382371 L 39.555241 38.328749 C 39.600241 38.520203 39.405786 38.715615 39.214332 38.671433 L 38.267954 38.447712 L 38.083295 38.600411 L 38.11703 39.569871 C 38.123576 39.767871 37.894934 39.9198 37.715752 39.837982 L 36.833295 39.438479 L 36.618451 39.548564 L 36.462201 40.505595 C 36.430292 40.707686 36.178672 40.8048 36.018309 40.690254 L 35.231732 40.123848 L 34.999133 40.194871 L 34.659999 41.102186 C 34.591272 41.285459 34.320104 41.340291 34.185922 41.196291 L 33.525411 40.486064 L 33.282158 40.512698 L 32.774346 41.336561 C 32.671255 41.50347 32.394482 41.502652 32.291391 41.336561 L 31.780028 40.512698 L 31.536775 40.486064 L 30.876263 41.196291 C 30.742082 41.341109 30.470914 41.287234 30.402187 41.103962 L 30.063053 40.194871 L 29.830454 40.123848 L 29.043877 40.690254 C 28.884332 40.8048 28.631894 40.700323 28.599985 40.505595 L 28.443735 39.548564 L 28.228891 39.438479 L 27.346434 39.837982 C 27.167252 39.9198 26.936974 39.766234 26.945155 39.569871 L 26.980667 38.600411 L 26.794232 38.447712 L 25.847854 38.671433 C 25.6564 38.716433 25.461945 38.520203 25.506945 38.328749 L 25.730667 37.382371 L 25.576192 37.197712 L 24.604957 37.231448 C 24.409411 37.239629 24.255028 37.008394 24.336846 36.828394 L 24.738124 35.947712 L 24.624488 35.732868 L 23.669232 35.578394 C 23.476141 35.547303 23.370028 35.291314 23.484573 35.13095 L 24.049204 34.344374 L 23.978181 34.111774 L 23.070866 33.772641 C 22.886775 33.703913 22.835354 33.434521 22.978536 33.30034 L 23.688763 32.639828 L 23.66213 32.3948 L 22.838266 31.888763 C 22.670539 31.785672 22.670539 31.508899 22.838266 31.405808 L 23.66213 30.894445 L 23.688763 30.651192 L 22.978536 29.992456 C 22.835354 29.858274 22.887593 29.585331 23.070866 29.516604 L 23.978181 29.17747 L 24.049204 28.944871 L 23.484573 28.158294 C 23.370028 27.998749 23.475323 27.745493 23.669232 27.714402 L 24.624488 27.556376 L 24.7399 27.341533 L 24.336846 26.460851 C 24.255028 26.281669 24.408593 26.041433 24.604957 26.057797 L 25.576192 26.091533 L 25.730667 25.906874 L 25.506945 24.960496 C 25.461945 24.769041 25.6564 24.573629 25.847854 24.617811 L 26.794232 24.843308 L 26.980667 24.688834 L 26.945155 23.717598 C 26.937792 23.521234 27.167252 23.365894 27.346434 23.447712 L 28.228891 23.850766 L 28.443735 23.737129 L 28.599985 22.780098 C 28.631894 22.578825 28.885289 22.480894 29.045653 22.595439 L 29.830454 23.161845 L 30.063053 23.090823 L 30.402187 22.187058 C 30.470914 22.002149 30.744675 21.945402 30.878039 22.089402 L 31.540326 22.799629 L 31.780028 22.776547 L 32.291391 21.949132 C 32.342937 21.865678 32.436184 21.824842 32.531093 21.824842 z M 32.531093 25.093663 A 6.5454548 6.5454548 0 0 0 28.198707 26.732513 L 32.531093 26.732513 L 34.984928 26.732513 C 36.344746 26.732513 37.440539 27.828305 37.440539 29.188124 C 37.440539 30.547942 36.344746 31.641959 34.984928 31.641959 L 34.168167 31.641959 C 34.168167 31.641959 35.03192 34.914331 35.803465 34.914331 C 37.439829 34.914331 37.440539 31.641959 37.440539 31.641959 L 39.075837 31.641959 A 6.5454548 6.5454548 0 0 0 39.075837 31.638408 A 6.5454548 6.5454548 0 0 0 32.531093 25.093663 z M 26.859928 28.369587 A 6.5454548 6.5454548 0 0 0 25.986349 31.638408 A 6.5454548 6.5454548 0 0 0 26.865255 34.914331 L 27.621647 34.914331 L 27.621647 28.369587 L 26.859928 28.369587 z M 30.894019 28.369587 L 30.894019 30.006661 L 34.168167 30.006661 C 34.621439 30.006661 34.984928 29.641396 34.984928 29.188124 C 34.984928 28.734851 34.621439 28.369587 34.168167 28.369587 L 30.894019 28.369587 z M 30.894019 31.641959 L 30.894019 34.914331 L 32.531093 34.914331 L 32.531093 36.551405 L 28.205809 36.551405 A 6.5454548 6.5454548 0 0 0 32.531093 38.184928 A 6.5454548 6.5454548 0 0 0 36.856377 36.551405 L 34.168167 36.551405 C 32.531803 36.551405 32.530383 31.641959 30.894019 31.641959 z "
     transform="matrix(1.1,0,0,1.1,-3.1845928,-3.2065454)"
     class="ColorScheme-Text" />
</svg>
