<?xml version="1.0" encoding="UTF-8" standalone="no"?>
<svg
   width="64"
   height="64"
   version="1.1"
   id="svg73"
   sodipodi:docname="text-x-python3.svg"
   inkscape:version="1.4.2 (ebf0e940d0, 2025-05-08)"
   xmlns:inkscape="http://www.inkscape.org/namespaces/inkscape"
   xmlns:sodipodi="http://sodipodi.sourceforge.net/DTD/sodipodi-0.dtd"
   xmlns="http://www.w3.org/2000/svg"
   xmlns:svg="http://www.w3.org/2000/svg"
   xmlns:rdf="http://www.w3.org/1999/02/22-rdf-syntax-ns#"
   xmlns:cc="http://creativecommons.org/ns#"
   xmlns:dc="http://purl.org/dc/elements/1.1/">
  <metadata
     id="metadata77">
    <rdf:RDF>
      <cc:Work
         rdf:about="">
        <dc:format>image/svg+xml</dc:format>
        <dc:type
           rdf:resource="http://purl.org/dc/dcmitype/StillImage" />
      </cc:Work>
    </rdf:RDF>
  </metadata>
  <sodipodi:namedview
     pagecolor="#9c4444"
     bordercolor="#666666"
     borderopacity="1"
     objecttolerance="10"
     gridtolerance="10"
     guidetolerance="10"
     inkscape:pageopacity="0"
     inkscape:pageshadow="2"
     inkscape:window-width="2560"
     inkscape:window-height="1388"
     id="namedview75"
     showgrid="false"
     inkscape:zoom="4.4470387"
     inkscape:cx="19.451146"
     inkscape:cy="25.859905"
     inkscape:window-x="0"
     inkscape:window-y="0"
     inkscape:window-maximized="1"
     inkscape:current-layer="svg73"
     inkscape:document-rotation="0"
     inkscape:pagecheckerboard="0"
     inkscape:showpageshadow="2"
     inkscape:deskcolor="#d1d1d1" />
  <defs
     id="defs29">
    <style
       id="current-color-scheme"
       type="text/css">.ColorScheme-Text {color:#d8dee9} .ColorScheme-Highlight {color:#3b4252}</style>
  </defs>
  <path
     id="path1"
     style="opacity:1;baseline-shift:baseline;display:inline;overflow:visible;vector-effect:none;fill:currentColor;enable-background:accumulate;stop-color:#000000;stop-opacity:1"
     d="M 19.661775 8.8383367 C 16.33974 8.8383367 13.637272 11.524326 13.637272 14.836206 L 13.637272 49.408294 C 13.637272 52.720174 16.33974 55.407939 19.661775 55.407939 L 44.400766 55.407939 C 47.722801 55.407939 50.427045 52.720174 50.427045 49.408294 L 50.427045 14.836206 C 50.427045 11.524326 47.722801 8.8383367 44.400766 8.8383367 L 19.661775 8.8383367 z M 30.622357 22.641604 L 33.894729 22.641604 C 35.254548 22.641604 36.35034 23.737396 36.35034 25.097215 L 36.35034 29.188124 C 36.35034 29.820578 36.104959 30.388967 35.714687 30.823422 L 29.80382 30.823422 C 29.628729 30.823422 29.460186 30.848723 29.292457 30.874913 C 29.168095 30.897833 29.045186 30.92305 28.924914 30.95659 C 27.543823 31.340317 26.531448 32.591297 26.531448 34.09757 L 26.531448 35.732868 C 24.718357 35.732868 23.259076 34.273587 23.259076 32.460496 L 23.259076 30.823422 C 23.259076 29.010331 24.718357 27.55105 26.531448 27.55105 L 32.259431 27.55105 L 32.259431 26.732513 L 28.168522 26.732513 L 28.168522 25.097215 C 28.168522 23.737397 29.262539 22.641604 30.622357 22.641604 z M 29.80382 24.278678 C 29.350547 24.278678 28.985283 24.643942 28.985283 25.097215 C 28.985283 25.550488 29.350547 25.915751 29.80382 25.915751 C 30.257093 25.915752 30.622357 25.550488 30.622357 25.097215 C 30.622357 24.643942 30.257093 24.278678 29.80382 24.278678 z M 37.985638 27.55105 C 39.798729 27.55105 41.25801 29.010332 41.25801 30.823422 L 41.25801 32.460496 C 41.258011 34.273588 39.798729 35.732868 37.985638 35.732868 L 32.259431 35.732868 L 32.259431 36.551405 L 36.35034 36.551405 L 36.35034 38.188479 C 36.35034 39.548297 35.254548 40.642314 33.894729 40.642314 L 30.622357 40.642314 C 29.262539 40.642314 28.168522 39.548297 28.168522 38.188479 L 28.168522 34.09757 C 28.168522 33.465116 28.412128 32.89495 28.8024 32.460496 L 34.713266 32.460496 C 34.888357 32.460496 35.0569 32.435194 35.22463 32.409004 C 35.348992 32.386094 35.471899 32.360868 35.592172 32.327328 C 36.973264 31.9436 37.985638 30.694396 37.985638 29.188124 L 37.985638 27.55105 z M 34.713266 37.369942 C 34.259992 37.369942 33.894729 37.735205 33.894729 38.188479 C 33.894729 38.641752 34.259992 39.00524 34.713266 39.00524 C 35.166539 39.00524 35.531803 38.641752 35.531803 38.188479 C 35.531803 37.735205 35.166539 37.369942 34.713266 37.369942 z "
     transform="matrix(1.1,0,0,1.1,-3.1845928,-3.2065454)"
     class="ColorScheme-Text" />
</svg>
