<?xml version="1.0" encoding="UTF-8" standalone="no"?>
<svg
   width="64"
   height="64"
   version="1.1"
   id="svg73"
   sodipodi:docname="text-x-java.svg"
   inkscape:version="1.4.2 (ebf0e940d0, 2025-05-08)"
   xmlns:inkscape="http://www.inkscape.org/namespaces/inkscape"
   xmlns:sodipodi="http://sodipodi.sourceforge.net/DTD/sodipodi-0.dtd"
   xmlns="http://www.w3.org/2000/svg"
   xmlns:svg="http://www.w3.org/2000/svg"
   xmlns:rdf="http://www.w3.org/1999/02/22-rdf-syntax-ns#"
   xmlns:cc="http://creativecommons.org/ns#"
   xmlns:dc="http://purl.org/dc/elements/1.1/">
  <metadata
     id="metadata77">
    <rdf:RDF>
      <cc:Work
         rdf:about="">
        <dc:format>image/svg+xml</dc:format>
        <dc:type
           rdf:resource="http://purl.org/dc/dcmitype/StillImage" />
      </cc:Work>
    </rdf:RDF>
  </metadata>
  <sodipodi:namedview
     pagecolor="#9c4444"
     bordercolor="#666666"
     borderopacity="1"
     objecttolerance="10"
     gridtolerance="10"
     guidetolerance="10"
     inkscape:pageopacity="0"
     inkscape:pageshadow="2"
     inkscape:window-width="2560"
     inkscape:window-height="1388"
     id="namedview75"
     showgrid="false"
     inkscape:zoom="4.4470387"
     inkscape:cx="19.451146"
     inkscape:cy="8.5450122"
     inkscape:window-x="0"
     inkscape:window-y="0"
     inkscape:window-maximized="1"
     inkscape:current-layer="svg73"
     inkscape:document-rotation="0"
     inkscape:pagecheckerboard="0"
     inkscape:showpageshadow="2"
     inkscape:deskcolor="#d1d1d1" />
  <defs
     id="defs29">
    <style
       id="current-color-scheme"
       type="text/css">.ColorScheme-Text {color:#d8dee9} .ColorScheme-Highlight {color:#3b4252}</style>
  </defs>
  <path
     id="path1"
     style="opacity:1;baseline-shift:baseline;display:inline;overflow:visible;vector-effect:none;fill:currentColor;enable-background:accumulate;stop-color:#000000;stop-opacity:1"
     d="M 19.661775 8.8383367 C 16.33974 8.8383367 13.637272 11.524326 13.637272 14.836206 L 13.637272 49.408294 C 13.637272 52.720174 16.33974 55.407939 19.661775 55.407939 L 44.400766 55.407939 C 47.722801 55.407939 50.427045 52.720174 50.427045 49.408294 L 50.427045 14.836206 C 50.427045 11.524326 47.722801 8.8383367 44.400766 8.8383367 L 19.661775 8.8383367 z M 33.179175 19.221859 C 33.179175 19.221859 35.974397 22.017403 30.528252 26.31703 C 26.160879 29.766157 29.53061 31.733737 30.524701 33.980382 C 27.97541 31.679982 26.105138 29.655575 27.360638 27.77122 C 29.20302 25.004702 34.306548 23.663605 33.179175 19.221859 z M 36.549204 24.715467 C 30.681858 28.118204 31.766093 29.10556 33.179175 31.091533 C 34.692403 33.221833 31.396505 34.923209 31.396505 34.923209 C 31.396505 34.923209 33.034887 33.578157 31.737414 32.084075 C 27.338378 27.015684 36.549204 24.715467 36.549204 24.715467 z M 30.526476 32.774771 C 30.829122 32.774771 30.843286 32.785157 31.572286 32.822712 C 31.711459 33.271894 31.63312 33.681757 31.479957 34.02122 C 30.996166 33.99692 31.080222 33.980382 30.526476 33.980382 L 30.775056 33.980382 C 30.597592 33.5798 30.339362 33.187521 30.06838 32.794303 C 30.294443 32.790621 30.39614 32.774771 30.526476 32.774771 z M 28.845013 32.808507 C 29.233813 33.191416 29.652417 33.549609 30.086136 33.980382 C 26.668672 34.012046 25.020179 34.488209 24.397215 34.837982 C 25.020179 35.187018 27.117849 35.697357 30.526476 35.697357 C 33.933631 35.697357 36.029223 35.187018 36.652187 34.837982 C 36.167659 34.566263 35.135049 34.201623 32.946576 34.051405 C 33.286039 33.736241 33.611468 33.359371 33.788195 32.916817 C 35.637204 33.092071 37.358151 33.485417 37.868451 34.39409 C 38.247678 34.225462 38.632001 34.131305 38.99061 34.131305 C 39.433164 34.131305 39.827446 34.26836 40.1323 34.529033 C 41.080737 35.338296 40.882012 37.076638 39.67953 38.486774 C 38.740667 39.587638 37.094138 39.70659 36.428465 39.70659 C 36.379865 39.70659 36.346926 39.70555 36.313053 39.704814 C 36.057535 40.026605 35.773343 40.321486 35.471434 40.596149 C 36.907343 40.979795 37.998067 41.593605 37.998067 42.545723 C 37.998067 44.523596 33.303173 45.05105 30.530028 45.05105 C 27.756882 45.05105 23.063763 44.523596 23.063763 42.545723 C 23.063763 41.593605 24.152712 40.979795 25.588621 40.596149 C 24.040785 39.185276 23.058437 37.129545 23.058437 34.837982 C 23.059173 33.234918 26.644759 32.886562 28.845013 32.808507 z M 38.99061 35.335141 C 38.720364 35.335141 38.342609 35.458294 37.950127 35.720439 C 37.841145 36.69833 37.555261 37.619172 37.124488 38.451263 C 37.667924 38.373945 38.356128 38.182688 38.763337 37.705524 C 39.543883 36.790224 39.719535 35.757444 39.352826 35.445226 C 39.266671 35.372326 39.145246 35.335141 38.99061 35.335141 z M 34.509076 41.602896 C 34.534112 41.678742 34.553465 41.758219 34.553465 41.844374 C 34.553465 42.943028 32.365046 43.172499 30.530028 43.172499 C 28.695009 43.172499 26.508366 42.943028 26.508366 41.844374 C 26.508366 41.758955 26.525943 41.679781 26.550979 41.604672 C 25.088561 41.911736 24.335344 42.335034 24.267599 42.558152 C 24.381735 42.907188 26.413018 43.84899 30.530028 43.84899 C 34.647773 43.84899 36.679359 42.908103 36.794232 42.533294 C 36.726487 42.32564 35.97223 41.907751 34.509076 41.602896 z "
     transform="matrix(1.1,0,0,1.1,-3.1845928,-3.2065454)"
     class="ColorScheme-Text" />
</svg>
