<?xml version="1.0" encoding="UTF-8" standalone="no"?>
<svg
   width="64"
   height="64"
   version="1.1"
   id="svg73"
   sodipodi:docname="x-media-podcast.svg"
   inkscape:version="1.4.2 (ebf0e940d0, 2025-05-08)"
   xmlns:inkscape="http://www.inkscape.org/namespaces/inkscape"
   xmlns:sodipodi="http://sodipodi.sourceforge.net/DTD/sodipodi-0.dtd"
   xmlns="http://www.w3.org/2000/svg"
   xmlns:svg="http://www.w3.org/2000/svg"
   xmlns:rdf="http://www.w3.org/1999/02/22-rdf-syntax-ns#"
   xmlns:cc="http://creativecommons.org/ns#"
   xmlns:dc="http://purl.org/dc/elements/1.1/">
  <metadata
     id="metadata77">
    <rdf:RDF>
      <cc:Work
         rdf:about="">
        <dc:format>image/svg+xml</dc:format>
        <dc:type
           rdf:resource="http://purl.org/dc/dcmitype/StillImage" />
      </cc:Work>
    </rdf:RDF>
  </metadata>
  <sodipodi:namedview
     pagecolor="#9c4444"
     bordercolor="#666666"
     borderopacity="1"
     objecttolerance="10"
     gridtolerance="10"
     guidetolerance="10"
     inkscape:pageopacity="0"
     inkscape:pageshadow="2"
     inkscape:window-width="2560"
     inkscape:window-height="1388"
     id="namedview75"
     showgrid="false"
     inkscape:zoom="4.4470387"
     inkscape:cx="19.338712"
     inkscape:cy="8.5450122"
     inkscape:window-x="0"
     inkscape:window-y="0"
     inkscape:window-maximized="1"
     inkscape:current-layer="svg73"
     inkscape:document-rotation="0"
     inkscape:pagecheckerboard="0"
     inkscape:showpageshadow="2"
     inkscape:deskcolor="#d1d1d1" />
  <defs
     id="defs29">
    <style
       id="current-color-scheme"
       type="text/css">.ColorScheme-Text {color:#d8dee9} .ColorScheme-Highlight {color:#3b4252}</style>
  </defs>
  <path
     id="path1"
     style="opacity:1;baseline-shift:baseline;display:inline;overflow:visible;vector-effect:none;fill:currentColor;enable-background:accumulate;stop-color:#000000;stop-opacity:1"
     d="M 19.661775 8.8383367 C 16.33974 8.8383367 13.637272 11.524326 13.637272 14.836206 L 13.637272 49.408294 C 13.637272 52.720174 16.33974 55.407939 19.661775 55.407939 L 44.400766 55.407939 C 47.722801 55.407939 50.427045 52.720174 50.427045 49.408294 L 50.427045 14.836206 C 50.427045 11.524326 47.722801 8.8383367 44.400766 8.8383367 L 19.661775 8.8383367 z M 32.03926 20.546433 C 32.169186 20.546333 32.302026 20.548611 32.442314 20.555311 C 34.035412 20.631063 35.225816 21.161604 36.389403 22.314899 C 36.940229 22.860853 37.129002 23.120426 37.445866 23.765538 C 38.14377 25.185478 38.122357 24.971602 38.122357 30.560638 C 38.122357 36.039353 38.13081 35.93339 37.550624 37.151547 C 36.821381 38.682668 35.604427 39.755447 33.976405 40.304956 C 33.451909 40.482017 33.122652 40.535437 32.401476 40.557087 C 31.899958 40.572037 31.324815 40.549871 31.123067 40.507371 C 29.829548 40.234594 28.952494 39.756505 27.998067 38.808152 C 27.349724 38.163921 27.188745 37.945261 26.865255 37.272286 C 26.213564 35.916536 26.215337 35.935537 26.247357 30.27122 C 26.274313 25.505019 26.28231 25.276822 26.446221 24.793592 C 27.010976 23.128521 28.073605 21.892232 29.58365 21.1448 C 30.445147 20.718379 31.129787 20.54703 32.03926 20.546433 z M 40.691604 34.125979 C 40.791454 34.125979 40.93964 34.200267 41.02186 34.291107 C 41.15143 34.434077 41.164301 34.549585 41.117741 35.155808 C 40.936227 37.51729 39.952307 39.601162 38.280383 41.162555 C 36.976784 42.379968 35.511926 43.127147 33.789971 43.45659 C 32.921632 43.622755 31.245988 43.600436 30.370226 43.410425 C 29.430457 43.206557 28.829455 42.987995 27.998067 42.545723 C 25.248885 41.08324 23.419098 38.253485 23.266178 35.226831 L 23.218238 34.298209 L 23.436633 34.198777 C 23.599968 34.124327 23.707747 34.122655 23.859218 34.191675 C 24.081926 34.293149 24.11373 34.415956 24.1948 35.477186 C 24.284148 36.646993 24.832818 38.14777 25.56909 39.239615 C 26.01743 39.904468 27.293503 41.093693 28.033579 41.535425 C 28.816255 42.002573 30.05745 42.449993 30.952613 42.588337 C 31.809114 42.720692 33.398359 42.641177 34.214332 42.424984 C 35.621229 42.052222 37.262481 41.051387 38.143664 40.031519 C 39.374392 38.607093 40.058025 36.979765 40.201547 35.129175 C 40.260804 34.365274 40.377828 34.125979 40.691604 34.125979 z "
     transform="matrix(1.1,0,0,1.1,-3.1845928,-3.2065454)"
     class="ColorScheme-Text" />
</svg>
