<?xml version='1.0' encoding='UTF-8'?>
<svg xmlns:inkscape="http://www.inkscape.org/namespaces/inkscape" xmlns:sodipodi="http://sodipodi.sourceforge.net/DTD/sodipodi-0.dtd" xmlns:xlink="http://www.w3.org/1999/xlink" xmlns="http://www.w3.org/2000/svg" xmlns:svg="http://www.w3.org/2000/svg" xmlns:rdf="http://www.w3.org/1999/02/22-rdf-syntax-ns#" xmlns:cc="http://creativecommons.org/ns#" xmlns:dc="http://purl.org/dc/elements/1.1/" width="64" height="64" version="1.1" id="svg73" sodipodi:docname="application-rtf.svg" inkscape:version="1.4 (e7c3feb100, 2024-10-09)">
  <metadata id="metadata77">
    <rdf:RDF>
      <cc:Work rdf:about="">
        <dc:format>image/svg+xml</dc:format>
        <dc:type rdf:resource="http://purl.org/dc/dcmitype/StillImage"/>
      </cc:Work>
    </rdf:RDF>
  </metadata>
  <sodipodi:namedview pagecolor="#f5f7fa" bordercolor="#666666" borderopacity="1" objecttolerance="10" gridtolerance="10" guidetolerance="10" inkscape:pageopacity="0" inkscape:pageshadow="2" inkscape:window-width="1183" inkscape:window-height="943" id="namedview75" showgrid="false" inkscape:zoom="4.4470387" inkscape:cx="19.451146" inkscape:cy="8.3201435" inkscape:window-x="31" inkscape:window-y="32" inkscape:window-maximized="0" inkscape:current-layer="g877" inkscape:document-rotation="0" inkscape:pagecheckerboard="0" inkscape:showpageshadow="2" inkscape:deskcolor="#d1d1d1"/>
  <defs id="defs29">
    <style id="current-color-scheme" type="text/css">.ColorScheme-Text {color:#d8dee9} .ColorScheme-Highlight {color:#3b4252}</style></defs>
  <g id="g877" transform="matrix(1.1,0,0,1.1,-3.1845928,-3.2065454)" style="">
    <path style="opacity:1;baseline-shift:baseline;display:inline;overflow:visible;vector-effect:none;fill:currentColor;enable-background:accumulate;stop-color:#000000;stop-opacity:1" d="m 19.662109,8.8378906 c -3.322035,0 -6.02539,2.6861674 -6.02539,5.9980474 v 34.572265 c 0,3.31188 2.703355,6 6.02539,6 h 24.738282 c 3.322035,0 6.027343,-2.68812 6.027343,-6 V 14.835938 c 0,-3.31188 -2.705308,-5.9980474 -6.027343,-5.9980474 z m 0,1.6347654 h 24.738282 c 2.448644,0 4.390625,1.933707 4.390625,4.363282 v 34.572265 c 0,2.429575 -1.941981,4.363281 -4.390625,4.363281 H 19.662109 c -2.448644,0 -4.390625,-1.933706 -4.390625,-4.363281 V 14.835938 c 0,-2.429575 1.941981,-4.363282 4.390625,-4.363282 z" class="ColorScheme-Text" id="rect246"/>
  <g id="g2" transform="matrix(3.4360018,0,0,3.4360018,2.8950844,4.733223)" style="fill:currentColor;fill-opacity:1" class="ColorScheme-Text">
      <g id="g11" transform="matrix(0.22873742,0,0,0.22873742,1.545773,0.63661175)" style="fill-opacity:1">
        <path transform="matrix(0.75,0,0,0.75,-0.391143,0.805031)" d="m 29.44,17.546 c -0.768,0.215 -1.386,1.072 -1.386,1.903 V 32.64 c -0.778,-0.427 -1.777,-0.6 -2.813,-0.318 -1.87,0.509 -3.042,2.153 -2.641,3.672 0.401,1.518 2.243,2.367 4.112,1.858 1.492,-0.406 2.52,-1.554 2.684,-2.765 l 0.044,-12.465 9.696,-2.719 v 9.836 c -0.778,-0.427 -1.777,-0.6 -2.813,-0.318 -1.87,0.509 -3.042,2.153 -2.641,3.672 0.401,1.519 2.243,2.367 4.112,1.858 1.492,-0.406 2.52,-1.554 2.684,-2.765 l 0.044,-16.227 c 0,-0.624 -0.369,-1.09 -0.866,-1.178 z" fill-rule="nonzero" id="path11" style="fill:currentColor;fill-opacity:1" class="ColorScheme-Text"/>
      </g>
      <path d="M 11.700369,8.3827129 V 8.7137941 H 5.261472 V 8.3827129 Z m 0,1.6554041 v 0.331082 H 5.261472 v -0.331082 z m -2.074504,1.655405 v 0.331082 H 5.261472 v -0.331082 z" id="path42-7-2" style="fill:currentColor;fill-opacity:1;stroke:none;stroke-width:0.288126;stroke-dasharray:none;stroke-opacity:0.3" sodipodi:nodetypes="ccccccccccccccc" class="ColorScheme-Text"/>
    </g>
  </g>
</svg>
