<?xml version='1.0' encoding='UTF-8'?>
<svg xmlns:inkscape="http://www.inkscape.org/namespaces/inkscape" xmlns:sodipodi="http://sodipodi.sourceforge.net/DTD/sodipodi-0.dtd" xmlns:xlink="http://www.w3.org/1999/xlink" xmlns="http://www.w3.org/2000/svg" xmlns:svg="http://www.w3.org/2000/svg" xmlns:rdf="http://www.w3.org/1999/02/22-rdf-syntax-ns#" xmlns:cc="http://creativecommons.org/ns#" xmlns:dc="http://purl.org/dc/elements/1.1/" width="64" height="64" version="1.1" id="svg73" sodipodi:docname="application-octet-stream.svg" inkscape:version="1.4 (e7c3feb100, 2024-10-09)">
  <metadata id="metadata77">
    <rdf:RDF>
      <cc:Work rdf:about="">
        <dc:format>image/svg+xml</dc:format>
        <dc:type rdf:resource="http://purl.org/dc/dcmitype/StillImage"/>
      </cc:Work>
    </rdf:RDF>
  </metadata>
  <sodipodi:namedview pagecolor="#f5f7fa" bordercolor="#666666" borderopacity="1" objecttolerance="10" gridtolerance="10" guidetolerance="10" inkscape:pageopacity="0" inkscape:pageshadow="2" inkscape:window-width="1183" inkscape:window-height="669" id="namedview75" showgrid="false" inkscape:zoom="4.4470387" inkscape:cx="19.451146" inkscape:cy="21.587399" inkscape:window-x="77" inkscape:window-y="123" inkscape:window-maximized="0" inkscape:current-layer="g877" inkscape:document-rotation="0" inkscape:pagecheckerboard="0" inkscape:showpageshadow="2" inkscape:deskcolor="#d1d1d1"/>
  <defs id="defs29">
    <style id="current-color-scheme" type="text/css">.ColorScheme-Text {color:#d8dee9} .ColorScheme-Highlight {color:#3b4252}</style></defs>
  <g id="g877" transform="matrix(1.1,0,0,1.1,-3.1845928,-3.2065454)" style="">
    <path style="opacity:1;baseline-shift:baseline;display:inline;overflow:visible;vector-effect:none;fill:currentColor;enable-background:accumulate;stop-color:#000000;stop-opacity:1" d="m 19.662109,8.8378906 c -3.322035,0 -6.02539,2.6861674 -6.02539,5.9980474 v 34.572265 c 0,3.31188 2.703355,6 6.02539,6 h 24.738282 c 3.322035,0 6.027343,-2.68812 6.027343,-6 V 14.835938 c 0,-3.31188 -2.705308,-5.9980474 -6.027343,-5.9980474 z m 0,1.6347654 h 24.738282 c 2.448644,0 4.390625,1.933707 4.390625,4.363282 v 34.572265 c 0,2.429575 -1.941981,4.363281 -4.390625,4.363281 H 19.662109 c -2.448644,0 -4.390625,-1.933706 -4.390625,-4.363281 V 14.835938 c 0,-2.429575 1.941981,-4.363282 4.390625,-4.363282 z" class="ColorScheme-Text" id="rect246"/>
  <path d="m 39.833117,26.721339 c -0.118782,0.09216 -2.215977,1.273883 -2.215977,3.901512 0,3.039286 2.668588,4.114511 2.748462,4.141134 -0.01237,0.06556 -0.423938,1.47254 -1.407005,2.906157 -0.876552,1.261598 -1.792028,2.521142 -3.184693,2.521142 -1.39266,0 -1.75107,-0.808979 -3.358775,-0.808979 -1.566746,0 -2.123811,0.835605 -3.397696,0.835605 -1.273877,0 -2.162727,-1.167385 -3.184698,-2.601012 -1.183761,-1.683484 -2.140191,-4.298829 -2.140191,-6.781052 0,-3.981385 2.588717,-6.092906 5.136469,-6.092906 1.353759,0 2.482222,0.888845 3.332155,0.888845 0.808979,0 2.070568,-0.942097 3.610692,-0.942097 0.583692,0 2.680875,0.05325 4.061257,2.031651 z m -4.792402,-3.717188 c 0.636936,-0.755719 1.087502,-1.804315 1.087502,-2.85291 0,-0.145411 -0.01227,-0.292874 -0.03889,-0.411654 -1.036305,0.03894 -2.269229,0.690186 -3.012662,1.552406 -0.583686,0.663567 -1.128462,1.712158 -1.128462,2.775087 0,0.15975 0.02663,0.319501 0.03889,0.370701 0.06553,0.01227 0.172033,0.02663 0.278529,0.02663 0.929809,0 2.099231,-0.622603 2.775092,-1.460259 z" id="path1" style="fill:currentColor;fill-opacity:1;stroke-width:0.0204804" class="ColorScheme-Text"/>
  </g>
</svg>
