<?xml version='1.0' encoding='UTF-8'?>
<svg xmlns:inkscape="http://www.inkscape.org/namespaces/inkscape" xmlns:sodipodi="http://sodipodi.sourceforge.net/DTD/sodipodi-0.dtd" xmlns:xlink="http://www.w3.org/1999/xlink" xmlns="http://www.w3.org/2000/svg" xmlns:svg="http://www.w3.org/2000/svg" xmlns:rdf="http://www.w3.org/1999/02/22-rdf-syntax-ns#" xmlns:cc="http://creativecommons.org/ns#" xmlns:dc="http://purl.org/dc/elements/1.1/" width="64" height="64" version="1.1" id="svg73" sodipodi:docname="application-x-bittorrent.svg" inkscape:version="1.4 (e7c3feb100, 2024-10-09)">
  <metadata id="metadata77">
    <rdf:RDF>
      <cc:Work rdf:about="">
        <dc:format>image/svg+xml</dc:format>
        <dc:type rdf:resource="http://purl.org/dc/dcmitype/StillImage"/>
      </cc:Work>
    </rdf:RDF>
  </metadata>
  <sodipodi:namedview pagecolor="#f5f7fa" bordercolor="#666666" borderopacity="1" objecttolerance="10" gridtolerance="10" guidetolerance="10" inkscape:pageopacity="0" inkscape:pageshadow="2" inkscape:window-width="1183" inkscape:window-height="669" id="namedview75" showgrid="false" inkscape:zoom="4.4470387" inkscape:cx="19.451146" inkscape:cy="25.859905" inkscape:window-x="80" inkscape:window-y="161" inkscape:window-maximized="0" inkscape:current-layer="g877" inkscape:document-rotation="0" inkscape:pagecheckerboard="0" inkscape:showpageshadow="2" inkscape:deskcolor="#d1d1d1"/>
  <defs id="defs29">
    <style id="current-color-scheme" type="text/css">.ColorScheme-Text {color:#d8dee9} .ColorScheme-Highlight {color:#3b4252}</style></defs>
  <g id="g877" transform="matrix(1.1,0,0,1.1,-3.1845928,-3.2065454)" style="">
    <path style="opacity:1;baseline-shift:baseline;display:inline;overflow:visible;vector-effect:none;fill:currentColor;enable-background:accumulate;stop-color:#000000;stop-opacity:1" d="m 19.662109,8.8378906 c -3.322035,0 -6.02539,2.6861674 -6.02539,5.9980474 v 34.572265 c 0,3.31188 2.703355,6 6.02539,6 h 24.738282 c 3.322035,0 6.027343,-2.68812 6.027343,-6 V 14.835938 c 0,-3.31188 -2.705308,-5.9980474 -6.027343,-5.9980474 z m 0,1.6347654 h 24.738282 c 2.448644,0 4.390625,1.933707 4.390625,4.363282 v 34.572265 c 0,2.429575 -1.941981,4.363281 -4.390625,4.363281 H 19.662109 c -2.448644,0 -4.390625,-1.933706 -4.390625,-4.363281 V 14.835938 c 0,-2.429575 1.941981,-4.363282 4.390625,-4.363282 z" class="ColorScheme-Text" id="rect246"/>
  <path style="fill:currentColor;fill-opacity:1;stroke-width:0.818182" d="m 32.260834,37.691373 c -0.133621,0.0083 -0.266877,0.03084 -0.396281,0.06552 -0.517614,0.138707 -0.973635,0.48992 -1.241573,0.954044 -0.267936,0.464128 -0.343226,1.035653 -0.204531,1.553319 0.138693,0.517667 0.48987,0.973732 0.953949,1.241696 0.464082,0.267964 1.03555,0.34326 1.553165,0.204552 0.517615,-0.138707 0.973636,-0.489919 1.241574,-0.954044 0.267936,-0.464127 0.343226,-1.035652 0.204531,-1.553319 -0.138694,-0.517667 -0.48987,-0.973733 -0.95395,-1.241697 -0.348061,-0.200972 -0.756021,-0.294866 -1.156884,-0.270073 z m 5.754058,-8.183958 c -0.58637,0.01606 -1.169402,0.203497 -1.644245,0.548136 -0.550643,0.399655 -0.941452,0.974901 -1.371002,1.50218 -0.214775,0.263641 -0.442796,0.518358 -0.706275,0.733512 -0.263478,0.215155 -0.564434,0.391466 -0.893228,0.479419 -0.328795,0.08795 -0.677139,0.08518 -1.013074,0.03037 -0.335936,-0.0548 -0.661475,-0.161746 -0.979516,-0.282857 -0.636083,-0.242221 -1.261225,-0.545604 -1.938259,-0.616853 -0.934133,-0.09831 -1.90656,0.28902 -2.516701,1.001986 -0.610142,0.712968 -0.840728,1.732621 -0.597616,2.638403 0.24311,0.905785 0.952112,1.671909 1.83759,1.984795 0.88548,0.312888 1.921539,0.163093 2.681285,-0.388328 0.550646,-0.399655 0.941453,-0.974902 1.371004,-1.50218 0.214775,-0.263641 0.442797,-0.518358 0.706276,-0.733512 0.263477,-0.215155 0.564434,-0.391466 0.893228,-0.479419 0.328793,-0.08795 0.677137,-0.08518 1.013072,-0.03037 0.335936,0.05481 0.661473,0.161746 0.979515,0.282856 0.636083,0.242223 1.261225,0.545604 1.93826,0.616854 0.934134,0.09831 1.906559,-0.289019 2.516703,-1.001986 0.610141,-0.712967 0.840727,-1.732621 0.597615,-2.638404 -0.243112,-0.905785 -0.952111,-1.671908 -1.83759,-1.984796 -0.332055,-0.117332 -0.685218,-0.169446 -1.037042,-0.159806 z m -0.172574,-8.181816 c -0.781828,0.02089 -1.559204,0.264708 -2.192325,0.712737 -0.734193,0.519552 -1.253673,1.26897 -1.826407,1.954432 -0.286366,0.342731 -0.59146,0.672745 -0.942763,0.952446 -0.351305,0.279701 -0.752048,0.507308 -1.190441,0.621647 -0.438392,0.114339 -0.902317,0.112805 -1.350231,0.04154 -0.447914,-0.07125 -0.883031,-0.210112 -1.307087,-0.367555 -0.848109,-0.314889 -1.682697,-0.709603 -2.58541,-0.802228 -1.245511,-0.1278 -2.54208,0.375566 -3.355602,1.302423 -0.813523,0.926856 -1.121503,2.251926 -0.797354,3.429444 0.324146,1.17752 1.272144,2.174122 2.452784,2.580874 1.18064,0.406755 2.561519,0.211859 3.574515,-0.504988 0.734193,-0.519551 1.253672,-1.26897 1.826406,-1.954433 0.286366,-0.342731 0.59146,-0.672744 0.942764,-0.952445 0.351303,-0.279701 0.752047,-0.50731 1.190439,-0.621647 0.438393,-0.11434 0.902318,-0.112806 1.350232,-0.04154 0.447915,0.07125 0.883031,0.210111 1.307087,0.367555 0.84811,0.314888 1.682697,0.709603 2.585411,0.802227 1.24551,0.1278 2.542078,-0.375564 3.355601,-1.302422 0.813523,-0.926857 1.121502,-2.251926 0.797355,-3.429445 -0.324148,-1.177519 -1.272145,-2.174121 -2.452785,-2.580874 -0.44274,-0.152532 -0.913092,-0.220281 -1.382189,-0.207748 z" id="path7" class="ColorScheme-Text"/>
  </g>
</svg>
