<?xml version='1.0' encoding='UTF-8'?>
<svg xmlns:inkscape="http://www.inkscape.org/namespaces/inkscape" xmlns:sodipodi="http://sodipodi.sourceforge.net/DTD/sodipodi-0.dtd" xmlns:xlink="http://www.w3.org/1999/xlink" xmlns="http://www.w3.org/2000/svg" xmlns:svg="http://www.w3.org/2000/svg" xmlns:rdf="http://www.w3.org/1999/02/22-rdf-syntax-ns#" xmlns:cc="http://creativecommons.org/ns#" xmlns:dc="http://purl.org/dc/elements/1.1/" width="64" height="64" version="1.1" id="svg73" sodipodi:docname="accessories-ebook-reader.svg" inkscape:version="1.4 (e7c3feb100, 2024-10-09)">
  <metadata id="metadata77">
    <rdf:RDF>
      <cc:Work rdf:about="">
        <dc:format>image/svg+xml</dc:format>
        <dc:type rdf:resource="http://purl.org/dc/dcmitype/StillImage"/>
      </cc:Work>
    </rdf:RDF>
  </metadata>
  <sodipodi:namedview pagecolor="#f5f7fa" bordercolor="#666666" borderopacity="1" objecttolerance="10" gridtolerance="10" guidetolerance="10" inkscape:pageopacity="0" inkscape:pageshadow="2" inkscape:window-width="1183" inkscape:window-height="669" id="namedview75" showgrid="false" inkscape:zoom="4.4470387" inkscape:cx="19.451146" inkscape:cy="8.3201435" inkscape:window-x="334" inkscape:window-y="210" inkscape:window-maximized="0" inkscape:current-layer="g877" inkscape:document-rotation="0" inkscape:pagecheckerboard="0" inkscape:showpageshadow="2" inkscape:deskcolor="#d1d1d1"/>
  <defs id="defs29">
    <style id="current-color-scheme" type="text/css">.ColorScheme-Text {color:#d8dee9} .ColorScheme-Highlight {color:#3b4252}</style></defs>
  <g id="g877" transform="matrix(1.1,0,0,1.1,-3.1845928,-3.2065454)" style="">
    <path style="opacity:1;baseline-shift:baseline;display:inline;overflow:visible;vector-effect:none;fill:currentColor;enable-background:accumulate;stop-color:#000000;stop-opacity:1" d="m 19.662109,8.8378906 c -3.322035,0 -6.02539,2.6861674 -6.02539,5.9980474 v 34.572265 c 0,3.31188 2.703355,6 6.02539,6 h 24.738282 c 3.322035,0 6.027343,-2.68812 6.027343,-6 V 14.835938 c 0,-3.31188 -2.705308,-5.9980474 -6.027343,-5.9980474 z m 0,1.6347654 h 24.738282 c 2.448644,0 4.390625,1.933707 4.390625,4.363282 v 34.572265 c 0,2.429575 -1.941981,4.363281 -4.390625,4.363281 H 19.662109 c -2.448644,0 -4.390625,-1.933706 -4.390625,-4.363281 V 14.835938 c 0,-2.429575 1.941981,-4.363282 4.390625,-4.363282 z" class="ColorScheme-Text" id="rect246"/>
  <path style="fill:currentColor;fill-opacity:1;stroke:none;stroke-width:0.721712" d="m 32.521752,21.46952 c -5.580262,0 -10.10394,4.523678 -10.10394,10.10394 0,5.58026 4.523678,10.103937 10.10394,10.103937 5.58027,0 10.103948,-4.523677 10.103948,-10.103937 0,-5.580262 -4.523678,-10.10394 -10.103948,-10.10394 z m -1.012086,1.931138 c 0.1178,-0.01227 0.267379,0.007 0.386229,0 0.01416,0.05635 -0.08554,0.256336 -0.219897,0.54974 -0.855504,1.868931 -0.903935,4.059692 -0.109946,5.229579 0.143677,0.212108 0.273461,0.413549 0.273461,0.439791 0,0.02622 -0.154644,0.05357 -0.329845,0.05357 -0.411291,0 -0.800417,-0.249863 -1.595656,-0.879585 -0.353272,-0.279742 -0.811602,-0.514175 -0.989532,-0.549741 -0.279405,-0.05581 -0.35461,-0.03165 -0.71607,0.329846 -0.336309,0.336247 -0.439794,0.518194 -0.439794,0.826021 0,1.167317 1.385015,2.092722 3.960948,2.638755 3.498218,0.741423 4.360634,1.408202 4.457124,3.24769 0.12114,2.30667 -1.107607,4.046595 -3.797436,5.39309 -0.321047,0.160777 -0.524987,0.221522 -0.659688,0.273461 -0.05968,-0.0055 -0.103998,0.0055 -0.163509,0 -0.02288,-0.07133 -0.05638,-0.236253 -0.05638,-0.549739 0,-1.225143 -0.48177,-2.486106 -1.209427,-3.191315 -0.195327,-0.189307 -0.743906,-0.589666 -1.212248,-0.879583 -0.468325,-0.289902 -0.940619,-0.625958 -1.045916,-0.769636 -0.174497,-0.238435 -0.18763,-0.385552 -0.05357,-0.82602 0.244329,-0.804463 0.534118,-1.25369 1.09948,-1.761987 0.296397,-0.266476 0.594027,-0.488014 0.659687,-0.493355 0.06567,-0.0055 -0.376448,-0.139907 -1.043095,-0.27628 -0.666609,-0.136634 -1.64404,-0.42365 -2.148215,-0.606123 -0.921928,-0.333587 -2.164212,-1.032438 -2.638753,-1.539272 -0.02008,-0.02148 -0.03894,-0.03736 -0.05639,-0.05639 0.679904,-2.708313 2.587397,-4.926699 5.11681,-5.996396 0.52925,-0.223853 1.076112,-0.378378 1.652039,-0.496176 0.286872,-0.05863 0.58338,-0.07983 0.879585,-0.109945 z m 8.254566,4.127279 c 0.206779,0.127829 0.986525,1.81751 1.209428,2.641572 0.2878,1.063867 0.266978,2.904103 0,3.960944 -0.101602,0.40224 -0.230143,0.779182 -0.273471,0.82602 -0.04333,0.04685 -0.201453,-0.222285 -0.386227,-0.549739 -0.184823,-0.327406 -0.775269,-1.024499 -1.26581,-1.542091 -1.415945,-1.494105 -1.639031,-2.272344 -1.045918,-3.46477 0.299103,-0.6013 1.601932,-1.970724 1.761988,-1.871936 z" id="path14" class="ColorScheme-Text"/>
  </g>
</svg>
