<?xml version='1.0' encoding='UTF-8'?>
<svg xmlns:inkscape="http://www.inkscape.org/namespaces/inkscape" xmlns:sodipodi="http://sodipodi.sourceforge.net/DTD/sodipodi-0.dtd" xmlns:xlink="http://www.w3.org/1999/xlink" xmlns="http://www.w3.org/2000/svg" xmlns:svg="http://www.w3.org/2000/svg" xmlns:rdf="http://www.w3.org/1999/02/22-rdf-syntax-ns#" xmlns:cc="http://creativecommons.org/ns#" xmlns:dc="http://purl.org/dc/elements/1.1/" width="64" height="64" version="1.1" id="svg73" sodipodi:docname="application-octet-stream.svg" inkscape:version="1.4 (e7c3feb100, 2024-10-09)">
  <metadata id="metadata77">
    <rdf:RDF>
      <cc:Work rdf:about="">
        <dc:format>image/svg+xml</dc:format>
        <dc:type rdf:resource="http://purl.org/dc/dcmitype/StillImage"/>
      </cc:Work>
    </rdf:RDF>
  </metadata>
  <sodipodi:namedview pagecolor="#f5f7fa" bordercolor="#666666" borderopacity="1" objecttolerance="10" gridtolerance="10" guidetolerance="10" inkscape:pageopacity="0" inkscape:pageshadow="2" inkscape:window-width="1183" inkscape:window-height="669" id="namedview75" showgrid="false" inkscape:zoom="4.4470387" inkscape:cx="19.451146" inkscape:cy="21.587399" inkscape:window-x="77" inkscape:window-y="123" inkscape:window-maximized="0" inkscape:current-layer="g877" inkscape:document-rotation="0" inkscape:pagecheckerboard="0" inkscape:showpageshadow="2" inkscape:deskcolor="#d1d1d1"/>
  <defs id="defs29">
    <style id="current-color-scheme" type="text/css">.ColorScheme-Text {color:#d8dee9} .ColorScheme-Highlight {color:#3b4252}</style></defs>
  <g id="g877" transform="matrix(1.1,0,0,1.1,-3.1845928,-3.2065454)" style="">
    <path style="opacity:1;baseline-shift:baseline;display:inline;overflow:visible;vector-effect:none;fill:currentColor;enable-background:accumulate;stop-color:#000000;stop-opacity:1" d="m 19.662109,8.8378906 c -3.322035,0 -6.02539,2.6861674 -6.02539,5.9980474 v 34.572265 c 0,3.31188 2.703355,6 6.02539,6 h 24.738282 c 3.322035,0 6.027343,-2.68812 6.027343,-6 V 14.835938 c 0,-3.31188 -2.705308,-5.9980474 -6.027343,-5.9980474 z m 0,1.6347654 h 24.738282 c 2.448644,0 4.390625,1.933707 4.390625,4.363282 v 34.572265 c 0,2.429575 -1.941981,4.363281 -4.390625,4.363281 H 19.662109 c -2.448644,0 -4.390625,-1.933706 -4.390625,-4.363281 V 14.835938 c 0,-2.429575 1.941981,-4.363282 4.390625,-4.363282 z" class="ColorScheme-Text" id="rect246"/>
  <path style="fill:currentColor;fill-opacity:1;stroke-width:0.818181" d="m 28.355935,22.733512 c -0.348381,0.03374 -0.364827,0.02436 -0.406071,0.450445 -0.06566,5.875668 -1.468238,11.555678 -5.152578,14.264889 -0.408534,0.260373 -0.452967,0.261465 -0.200779,0.696545 l 1.276864,2.203895 c 0.233859,0.542883 0.349573,0.402856 0.726415,0.153812 2.542823,-1.732566 3.921322,-4.01548 4.735923,-6.816033 0.274856,-0.944947 0.392157,-1.949217 0.468467,-3.0147 v 9.525308 c -0.02543,0.51231 0.01883,0.525154 0.506102,0.525154 h 4.090954 c 0.505915,0.05442 0.312048,-0.100947 0.312034,-0.558114 v -8.448629 c 0.07911,0.681266 0.204023,1.340872 0.387308,1.970981 0.814604,2.800553 2.274259,5.083467 4.817086,6.816033 0.37684,0.249044 0.492558,0.389072 0.726419,-0.153813 l 1.276863,-2.203894 c 0.252168,-0.435082 0.207775,-0.436173 -0.200765,-0.696546 -3.684353,-2.70921 -5.086902,-8.38922 -5.152599,-14.264888 -0.0022,-0.362799 -0.05774,-0.456699 -0.406071,-0.450445 z" id="path7-7" class="ColorScheme-Text"/>
  </g>
</svg>
