<?xml version='1.0' encoding='UTF-8'?>
<svg xmlns:inkscape="http://www.inkscape.org/namespaces/inkscape" xmlns:sodipodi="http://sodipodi.sourceforge.net/DTD/sodipodi-0.dtd" xmlns:xlink="http://www.w3.org/1999/xlink" xmlns="http://www.w3.org/2000/svg" xmlns:svg="http://www.w3.org/2000/svg" xmlns:rdf="http://www.w3.org/1999/02/22-rdf-syntax-ns#" xmlns:cc="http://creativecommons.org/ns#" xmlns:dc="http://purl.org/dc/elements/1.1/" width="64" height="64" version="1.1" id="svg73" sodipodi:docname="application-x-bittorrent.svg" inkscape:version="1.4 (e7c3feb100, 2024-10-09)">
  <metadata id="metadata77">
    <rdf:RDF>
      <cc:Work rdf:about="">
        <dc:format>image/svg+xml</dc:format>
        <dc:type rdf:resource="http://purl.org/dc/dcmitype/StillImage"/>
      </cc:Work>
    </rdf:RDF>
  </metadata>
  <sodipodi:namedview pagecolor="#f5f7fa" bordercolor="#666666" borderopacity="1" objecttolerance="10" gridtolerance="10" guidetolerance="10" inkscape:pageopacity="0" inkscape:pageshadow="2" inkscape:window-width="1183" inkscape:window-height="669" id="namedview75" showgrid="false" inkscape:zoom="4.4470387" inkscape:cx="19.451146" inkscape:cy="25.859905" inkscape:window-x="80" inkscape:window-y="161" inkscape:window-maximized="0" inkscape:current-layer="g877" inkscape:document-rotation="0" inkscape:pagecheckerboard="0" inkscape:showpageshadow="2" inkscape:deskcolor="#d1d1d1"/>
  <defs id="defs29">
    <style id="current-color-scheme" type="text/css">.ColorScheme-Text {color:#d8dee9} .ColorScheme-Highlight {color:#3b4252}</style></defs>
  <g id="g877" transform="matrix(1.1,0,0,1.1,-3.1845928,-3.2065454)" style="">
    <path style="opacity:1;baseline-shift:baseline;display:inline;overflow:visible;vector-effect:none;fill:currentColor;enable-background:accumulate;stop-color:#000000;stop-opacity:1" d="m 19.662109,8.8378906 c -3.322035,0 -6.02539,2.6861674 -6.02539,5.9980474 v 34.572265 c 0,3.31188 2.703355,6 6.02539,6 h 24.738282 c 3.322035,0 6.027343,-2.68812 6.027343,-6 V 14.835938 c 0,-3.31188 -2.705308,-5.9980474 -6.027343,-5.9980474 z m 0,1.6347654 h 24.738282 c 2.448644,0 4.390625,1.933707 4.390625,4.363282 v 34.572265 c 0,2.429575 -1.941981,4.363281 -4.390625,4.363281 H 19.662109 c -2.448644,0 -4.390625,-1.933706 -4.390625,-4.363281 V 14.835938 c 0,-2.429575 1.941981,-4.363282 4.390625,-4.363282 z" class="ColorScheme-Text" id="rect246"/>
  <path d="m 28.981094,23.733444 c -3.363524,0.06576 -7.873534,2.701668 -8.01227,7.456459 -0.08889,3.046547 0.889604,6.328321 6.117284,6.41111 1.577995,0.02499 3.487085,-1.325455 3.487085,-1.325455 l 0.994091,-5.301818 h -4.55625 l -0.745568,1.988182 h 1.988182 l -0.396083,1.946761 c 0,0 -1.085302,0.133745 -1.639991,0.111318 -1.819235,-0.07357 -2.633497,-1.865436 -2.619844,-3.386122 0.02507,-2.796871 2.701844,-5.286731 5.819573,-5.31994 1.432417,-0.01526 2.425687,0.724858 2.425687,0.724858 l 0.436208,-2.741517 c 0,0 -0.833999,-0.612016 -3.298104,-0.563836 z m 5.237099,-0.0497 -1.988183,13.254545 6.119874,0.04531 c 1.621421,0.0092 4.41327,-2.040676 4.501885,-4.588609 -0.01822,-1.221999 -1.67494,-2.415331 -1.67494,-2.415331 0,0 1.639905,-1.254964 1.638697,-2.983567 -0.0014,-1.958525 -2.82731,-3.267038 -3.396477,-3.267038 z m 2.650909,2.650909 1.30345,0.03754 c 0,0 1.399817,-0.03963 1.413473,1.018684 -0.07844,1.527907 -1.195281,1.637163 -1.841916,1.629635 -0.578534,-0.0066 -1.537734,-0.03495 -1.537734,-0.03495 z m -0.891834,5.253925 2.133153,0.0479 c 0,0 1.392125,-0.13342 1.432889,1.210254 0.03393,1.11826 -1.053947,1.432247 -1.614104,1.440655 h -2.385558 z" style="fill:currentColor;fill-opacity:1;stroke-width:0.662728" id="path7-6" class="ColorScheme-Text"/>
  </g>
</svg>
