<?xml version="1.0" encoding="UTF-8" standalone="no"?>
<svg
   width="64"
   height="64"
   version="1.1"
   id="svg73"
   sodipodi:docname="application-rdata.svg"
   inkscape:version="1.4.2 (ebf0e940d0, 2025-05-08)"
   xmlns:inkscape="http://www.inkscape.org/namespaces/inkscape"
   xmlns:sodipodi="http://sodipodi.sourceforge.net/DTD/sodipodi-0.dtd"
   xmlns="http://www.w3.org/2000/svg"
   xmlns:svg="http://www.w3.org/2000/svg"
   xmlns:rdf="http://www.w3.org/1999/02/22-rdf-syntax-ns#"
   xmlns:cc="http://creativecommons.org/ns#"
   xmlns:dc="http://purl.org/dc/elements/1.1/">
  <metadata
     id="metadata77">
    <rdf:RDF>
      <cc:Work
         rdf:about="">
        <dc:format>image/svg+xml</dc:format>
        <dc:type
           rdf:resource="http://purl.org/dc/dcmitype/StillImage" />
      </cc:Work>
    </rdf:RDF>
  </metadata>
  <sodipodi:namedview
     pagecolor="#f5f7fa"
     bordercolor="#666666"
     borderopacity="1"
     objecttolerance="10"
     gridtolerance="10"
     guidetolerance="10"
     inkscape:pageopacity="0"
     inkscape:pageshadow="2"
     inkscape:window-width="2560"
     inkscape:window-height="1388"
     id="namedview75"
     showgrid="false"
     inkscape:zoom="4.4470387"
     inkscape:cx="19.451146"
     inkscape:cy="21.587399"
     inkscape:window-x="0"
     inkscape:window-y="0"
     inkscape:window-maximized="1"
     inkscape:current-layer="g877"
     inkscape:document-rotation="0"
     inkscape:pagecheckerboard="0"
     inkscape:showpageshadow="2"
     inkscape:deskcolor="#d1d1d1" />
  <defs
     id="defs29">
    <style
       id="current-color-scheme"
       type="text/css">.ColorScheme-Text {color:#d8dee9} .ColorScheme-Highlight {color:#3b4252}</style>
  </defs>
  <g
     id="g877"
     transform="matrix(1.1,0,0,1.1,-3.1845928,-3.2065454)"
     style="">
    <path
       style="opacity:1;baseline-shift:baseline;display:inline;overflow:visible;vector-effect:none;fill:currentColor;enable-background:accumulate;stop-color:#000000;stop-opacity:1"
       d="m 19.662109,8.8378906 c -3.322035,0 -6.02539,2.6861674 -6.02539,5.9980474 v 34.572265 c 0,3.31188 2.703355,6 6.02539,6 h 24.738282 c 3.322035,0 6.027343,-2.68812 6.027343,-6 V 14.835938 c 0,-3.31188 -2.705308,-5.9980474 -6.027343,-5.9980474 z m 0,1.6347654 h 24.738282 c 2.448644,0 4.390625,1.933707 4.390625,4.363282 v 34.572265 c 0,2.429575 -1.941981,4.363281 -4.390625,4.363281 H 19.662109 c -2.448644,0 -4.390625,-1.933706 -4.390625,-4.363281 V 14.835938 c 0,-2.429575 1.941981,-4.363282 4.390625,-4.363282 z"
       class="ColorScheme-Text"
       id="rect246" />
    <path
       style="fill:currentColor;stroke-width:1.42837;stroke-linecap:round;stroke-linejoin:round"
       d="m 23.994091,19.739587 v 17.265678 c 1.8567,0.09721 3.96654,-0.27975 5.28856,-0.830647 v -3.715117 h 1.48561 c 0.85911,0 1.54306,0.193495 2.05493,0.56822 1.88209,2.124768 1.50784,7.190048 1.50784,7.190048 h 5.6166 c 0.21443,-2.879952 -0.73494,-7.392556 -2.07606,-8.457703 -0.5667,-0.584956 -1.22281,-0.950751 -1.94485,-1.115313 1.31615,-0.411302 2.30113,-1.054267 2.95008,-1.92261 0.65811,-0.868273 0.98403,-1.990988 0.9841,-3.343717 -7e-5,-1.956008 -0.61903,-3.379551 -1.88036,-4.28445 -0.76714,-0.554338 -1.90334,-0.877213 -3.2125,-1.091962 l -1.74692,3.538313 c 0.32375,0.188691 0.60211,0.42582 0.85067,0.636052 0.48438,0.402209 0.72167,1.05595 0.72167,1.988216 0,0.941427 -0.23729,1.621393 -0.72167,2.032694 -0.47537,0.411373 -1.27587,0.611659 -2.38186,0.611589 h -2.20728 l 0.003,-9.069291 z"
       id="path6002"
       class="ColorScheme-Text" />
  </g>
</svg>
