<?xml version='1.0' encoding='UTF-8'?>
<svg xmlns:inkscape="http://www.inkscape.org/namespaces/inkscape" xmlns:sodipodi="http://sodipodi.sourceforge.net/DTD/sodipodi-0.dtd" xmlns:xlink="http://www.w3.org/1999/xlink" xmlns="http://www.w3.org/2000/svg" xmlns:svg="http://www.w3.org/2000/svg" xmlns:rdf="http://www.w3.org/1999/02/22-rdf-syntax-ns#" xmlns:cc="http://creativecommons.org/ns#" xmlns:dc="http://purl.org/dc/elements/1.1/" width="64" height="64" version="1.1" id="svg73" sodipodi:docname="application-octet-stream.svg" inkscape:version="1.4 (e7c3feb100, 2024-10-09)">
  <metadata id="metadata77">
    <rdf:RDF>
      <cc:Work rdf:about="">
        <dc:format>image/svg+xml</dc:format>
        <dc:type rdf:resource="http://purl.org/dc/dcmitype/StillImage"/>
      </cc:Work>
    </rdf:RDF>
  </metadata>
  <sodipodi:namedview pagecolor="#f5f7fa" bordercolor="#666666" borderopacity="1" objecttolerance="10" gridtolerance="10" guidetolerance="10" inkscape:pageopacity="0" inkscape:pageshadow="2" inkscape:window-width="1183" inkscape:window-height="669" id="namedview75" showgrid="false" inkscape:zoom="4.4470387" inkscape:cx="19.451146" inkscape:cy="21.587399" inkscape:window-x="77" inkscape:window-y="123" inkscape:window-maximized="0" inkscape:current-layer="g877" inkscape:document-rotation="0" inkscape:pagecheckerboard="0" inkscape:showpageshadow="2" inkscape:deskcolor="#d1d1d1"/>
  <defs id="defs29">
    <style id="current-color-scheme" type="text/css">.ColorScheme-Text {color:#d8dee9} .ColorScheme-Highlight {color:#3b4252}</style></defs>
  <g id="g877" transform="matrix(1.1,0,0,1.1,-3.1845928,-3.2065454)" style="">
    <path style="opacity:1;baseline-shift:baseline;display:inline;overflow:visible;vector-effect:none;fill:currentColor;enable-background:accumulate;stop-color:#000000;stop-opacity:1" d="m 19.662109,8.8378906 c -3.322035,0 -6.02539,2.6861674 -6.02539,5.9980474 v 34.572265 c 0,3.31188 2.703355,6 6.02539,6 h 24.738282 c 3.322035,0 6.027343,-2.68812 6.027343,-6 V 14.835938 c 0,-3.31188 -2.705308,-5.9980474 -6.027343,-5.9980474 z m 0,1.6347654 h 24.738282 c 2.448644,0 4.390625,1.933707 4.390625,4.363282 v 34.572265 c 0,2.429575 -1.941981,4.363281 -4.390625,4.363281 H 19.662109 c -2.448644,0 -4.390625,-1.933706 -4.390625,-4.363281 V 14.835938 c 0,-2.429575 1.941981,-4.363282 4.390625,-4.363282 z" class="ColorScheme-Text" id="rect246"/>
  <g id="g2" transform="matrix(0,1.1138831,-0.8703016,0,60.282541,-6.2737058)" style="fill:currentColor;fill-opacity:1;stroke:none" class="ColorScheme-Text">
      <path style="fill:currentColor;fill-opacity:1;stroke:none;stroke-width:1.01565;stroke-dasharray:none;stroke-opacity:0.3" d="m 24.569589,31.872446 c 0,3.692244 1.385267,6.855269 4.153382,6.855269 h 2.764047 v 1.762372 c 0,0.923178 0,1.665833 0.864716,1.665833 h 8.276844 c 1.234809,0 1.234809,-0.742654 1.234809,-1.665833 V 23.826059 c 0,-0.922033 0,-2.235958 -1.235676,-2.235958 h -8.276152 c -0.864713,0 -0.864496,1.313468 -0.864496,2.236536 v 1.1911 h -2.76405 c -2.767073,0 -4.154072,3.163713 -4.154072,6.855276 z m 2.594134,0 c -0.01333,-2.285098 0.86471,-3.427643 1.945601,-3.427643 h 2.378129 v 6.855277 h -2.377957 c -1.080889,0 -1.932628,-1.142551 -1.9456,-3.427634 z" id="path10-3" class="ColorScheme-Text"/>
    </g>
  </g>
</svg>
