<?xml version='1.0' encoding='UTF-8'?>
<svg xmlns:inkscape="http://www.inkscape.org/namespaces/inkscape" xmlns:sodipodi="http://sodipodi.sourceforge.net/DTD/sodipodi-0.dtd" xmlns:xlink="http://www.w3.org/1999/xlink" xmlns="http://www.w3.org/2000/svg" xmlns:svg="http://www.w3.org/2000/svg" xmlns:rdf="http://www.w3.org/1999/02/22-rdf-syntax-ns#" xmlns:cc="http://creativecommons.org/ns#" xmlns:dc="http://purl.org/dc/elements/1.1/" width="64" height="64" version="1.1" id="svg73" sodipodi:docname="application-x-cd-image.svg" inkscape:version="1.4 (e7c3feb100, 2024-10-09)">
  <metadata id="metadata77">
    <rdf:RDF>
      <cc:Work rdf:about="">
        <dc:format>image/svg+xml</dc:format>
        <dc:type rdf:resource="http://purl.org/dc/dcmitype/StillImage"/>
      </cc:Work>
    </rdf:RDF>
  </metadata>
  <sodipodi:namedview pagecolor="#f5f7fa" bordercolor="#666666" borderopacity="1" objecttolerance="10" gridtolerance="10" guidetolerance="10" inkscape:pageopacity="0" inkscape:pageshadow="2" inkscape:window-width="1183" inkscape:window-height="943" id="namedview75" showgrid="false" inkscape:zoom="4.4470387" inkscape:cx="19.451146" inkscape:cy="8.3201435" inkscape:window-x="31" inkscape:window-y="32" inkscape:window-maximized="0" inkscape:current-layer="g877" inkscape:document-rotation="0" inkscape:pagecheckerboard="0" inkscape:showpageshadow="2" inkscape:deskcolor="#d1d1d1"/>
  <defs id="defs29">
    <style id="current-color-scheme" type="text/css">.ColorScheme-Text {color:#d8dee9} .ColorScheme-Highlight {color:#3b4252}</style></defs>
  <g id="g877" transform="matrix(1.1,0,0,1.1,-3.1845928,-3.2065454)" style="">
    <path style="opacity:1;baseline-shift:baseline;display:inline;overflow:visible;vector-effect:none;fill:currentColor;enable-background:accumulate;stop-color:#000000;stop-opacity:1" d="m 19.662109,8.8378906 c -3.322035,0 -6.02539,2.6861674 -6.02539,5.9980474 v 34.572265 c 0,3.31188 2.703355,6 6.02539,6 h 24.738282 c 3.322035,0 6.027343,-2.68812 6.027343,-6 V 14.835938 c 0,-3.31188 -2.705308,-5.9980474 -6.027343,-5.9980474 z m 0,1.6347654 h 24.738282 c 2.448644,0 4.390625,1.933707 4.390625,4.363282 v 34.572265 c 0,2.429575 -1.941981,4.363281 -4.390625,4.363281 H 19.662109 c -2.448644,0 -4.390625,-1.933706 -4.390625,-4.363281 V 14.835938 c 0,-2.429575 1.941981,-4.363282 4.390625,-4.363282 z" class="ColorScheme-Text" id="rect246"/>
  <path style="fill:currentColor;fill-opacity:1;stroke:none;stroke-width:0.818181;stroke-dasharray:none;stroke-opacity:0.3" d="m 31.132249,20.501745 c -0.338814,0 -0.677521,0.131218 -0.937138,0.390907 -0.519234,0.519219 -0.519234,1.35496 0,1.874275 l 3.681244,3.681243 h -9.599192 c -0.734301,0 -1.325454,0.591154 -1.325454,1.325451 0,0.734306 0.591153,1.325456 1.325454,1.325456 1.691016,-0.0041 3.012608,-0.0012 5.208624,0 l -6.790367,6.787788 c -0.519235,0.519232 -0.519235,1.354963 0,1.874274 0.519233,0.519231 1.357683,0.519231 1.876863,0 1.215548,-1.222121 2.181474,-2.183064 3.75373,-3.753726 a 6.627273,6.6272727 0 0 0 6.554788,5.695311 6.627273,6.6272727 0 0 0 6.627279,-6.627277 6.627273,6.6272727 0 0 0 -1.944172,-4.683104 l 0.0028,-0.0026 c 0,0 -5.069403,-5.056279 -7.497112,-7.497105 -0.259258,-0.259683 -0.598348,-0.390904 -0.937135,-0.390904 z m 3.748552,8.597332 a 3.9763636,3.9763636 0 0 1 3.976369,3.97637 3.9763636,3.9763636 0 0 1 -3.976369,3.976367 3.9763636,3.9763636 0 0 1 -3.976365,-3.976367 3.9763636,3.9763636 0 0 1 3.976365,-3.97637 z m 0,1.325456 a 2.6509091,2.6509089 0 0 0 -2.650909,2.650914 2.6509091,2.6509089 0 0 0 2.650909,2.650912 2.6509091,2.6509089 0 0 0 2.650915,-2.650912 2.6509091,2.6509089 0 0 0 -2.650915,-2.650914 z" id="path14" class="ColorScheme-Text"/>
  </g>
</svg>
