<?xml version='1.0' encoding='UTF-8'?>
<svg xmlns:inkscape="http://www.inkscape.org/namespaces/inkscape" xmlns:sodipodi="http://sodipodi.sourceforge.net/DTD/sodipodi-0.dtd" xmlns:xlink="http://www.w3.org/1999/xlink" xmlns="http://www.w3.org/2000/svg" xmlns:svg="http://www.w3.org/2000/svg" xmlns:rdf="http://www.w3.org/1999/02/22-rdf-syntax-ns#" xmlns:cc="http://creativecommons.org/ns#" xmlns:dc="http://purl.org/dc/elements/1.1/" width="64" height="64" version="1.1" id="svg73" sodipodi:docname="application-x-bittorrent.svg" inkscape:version="1.4 (e7c3feb100, 2024-10-09)">
  <metadata id="metadata77">
    <rdf:RDF>
      <cc:Work rdf:about="">
        <dc:format>image/svg+xml</dc:format>
        <dc:type rdf:resource="http://purl.org/dc/dcmitype/StillImage"/>
      </cc:Work>
    </rdf:RDF>
  </metadata>
  <sodipodi:namedview pagecolor="#f5f7fa" bordercolor="#666666" borderopacity="1" objecttolerance="10" gridtolerance="10" guidetolerance="10" inkscape:pageopacity="0" inkscape:pageshadow="2" inkscape:window-width="1183" inkscape:window-height="669" id="namedview75" showgrid="false" inkscape:zoom="6.2890624" inkscape:cx="37.604969" inkscape:cy="23.214907" inkscape:window-x="169" inkscape:window-y="168" inkscape:window-maximized="0" inkscape:current-layer="g877" inkscape:document-rotation="0" inkscape:pagecheckerboard="0" inkscape:showpageshadow="2" inkscape:deskcolor="#d1d1d1"/>
  <defs id="defs29">
    <style id="current-color-scheme" type="text/css">.ColorScheme-Text {color:#d8dee9} .ColorScheme-Highlight {color:#3b4252}</style></defs>
  <g id="g877" transform="matrix(1.1,0,0,1.1,-3.1845928,-3.2065454)" style="">
    <path style="opacity:1;baseline-shift:baseline;display:inline;overflow:visible;vector-effect:none;fill:currentColor;enable-background:accumulate;stop-color:#000000;stop-opacity:1" d="m 19.662109,8.8378906 c -3.322035,0 -6.02539,2.6861674 -6.02539,5.9980474 v 34.572265 c 0,3.31188 2.703355,6 6.02539,6 h 24.738282 c 3.322035,0 6.027343,-2.68812 6.027343,-6 V 14.835938 c 0,-3.31188 -2.705308,-5.9980474 -6.027343,-5.9980474 z m 0,1.6347654 h 24.738282 c 2.448644,0 4.390625,1.933707 4.390625,4.363282 v 34.572265 c 0,2.429575 -1.941981,4.363281 -4.390625,4.363281 H 19.662109 c -2.448644,0 -4.390625,-1.933706 -4.390625,-4.363281 V 14.835938 c 0,-2.429575 1.941981,-4.363282 4.390625,-4.363282 z" class="ColorScheme-Text" id="rect246"/>
  <path d="m 30.046341,23.3946 c -0.976096,0.0159 -2.140605,0.284745 -3.582861,0.914374 l -1.88986,6.927094 c 1.529046,-0.666443 2.72914,-0.978192 3.740349,-0.969791 1.533328,0.01203 2.606158,0.686009 3.609107,1.399268 l 1.902987,-6.899383 C 32.78476,24.022714 31.673168,23.368099 30.046341,23.3946 Z m 4.777147,2.105836 -1.889861,6.927091 c 1.66149,1.189193 3.667086,2.168551 7.349459,0.429476 l 1.889863,-6.913236 c -3.840814,1.675466 -5.68675,0.739082 -7.349461,-0.443331 z m -6.995109,6.095839 c -0.975263,0.02508 -2.132297,0.289345 -3.569736,0.914376 h -0.02628 l -1.876725,6.899391 c 3.848459,-1.679665 5.668728,-0.712664 7.336332,0.471042 l 1.916128,-6.954808 c -1.03843,-0.744251 -2.154282,-1.371742 -3.77972,-1.330001 z m 4.790271,1.995002 -1.902983,6.885531 c 1.664543,1.191454 3.518402,2.149415 7.362581,0.471048 l 1.824242,-6.719282 c -3.916671,1.413599 -5.617457,0.546087 -7.28384,-0.637297 z" id="path42-3" style="fill:currentColor;fill-opacity:1;stroke:none;stroke-width:1;stroke-dasharray:none;stroke-opacity:0.3" class="ColorScheme-Text"/>
  </g>
</svg>
