<?xml version='1.0' encoding='UTF-8'?>
<svg xmlns:inkscape="http://www.inkscape.org/namespaces/inkscape" xmlns:sodipodi="http://sodipodi.sourceforge.net/DTD/sodipodi-0.dtd" xmlns:xlink="http://www.w3.org/1999/xlink" xmlns="http://www.w3.org/2000/svg" xmlns:svg="http://www.w3.org/2000/svg" xmlns:rdf="http://www.w3.org/1999/02/22-rdf-syntax-ns#" xmlns:cc="http://creativecommons.org/ns#" xmlns:dc="http://purl.org/dc/elements/1.1/" width="64" height="64" version="1.1" id="svg73" sodipodi:docname="application-bitwig-preset.svg" inkscape:version="1.4 (e7c3feb100, 2024-10-09)">
  <metadata id="metadata77">
    <rdf:RDF>
      <cc:Work rdf:about="">
        <dc:format>image/svg+xml</dc:format>
        <dc:type rdf:resource="http://purl.org/dc/dcmitype/StillImage"/>
      </cc:Work>
    </rdf:RDF>
  </metadata>
  <sodipodi:namedview pagecolor="#f5f7fa" bordercolor="#666666" borderopacity="1" objecttolerance="10" gridtolerance="10" guidetolerance="10" inkscape:pageopacity="0" inkscape:pageshadow="2" inkscape:window-width="1183" inkscape:window-height="669" id="namedview75" showgrid="false" inkscape:zoom="4.4470387" inkscape:cx="19.451146" inkscape:cy="8.3201435" inkscape:window-x="129" inkscape:window-y="146" inkscape:window-maximized="0" inkscape:current-layer="g877" inkscape:document-rotation="0" inkscape:pagecheckerboard="0" inkscape:showpageshadow="2" inkscape:deskcolor="#d1d1d1"/>
  <defs id="defs29">
    <style id="current-color-scheme" type="text/css">.ColorScheme-Text {color:#d8dee9} .ColorScheme-Highlight {color:#3b4252}</style></defs>
  <g id="g877" transform="matrix(1.1,0,0,1.1,-3.1845928,-3.2065454)" style="">
    <path style="opacity:1;baseline-shift:baseline;display:inline;overflow:visible;vector-effect:none;fill:currentColor;enable-background:accumulate;stop-color:#000000;stop-opacity:1" d="m 19.662109,8.8378906 c -3.322035,0 -6.02539,2.6861674 -6.02539,5.9980474 v 34.572265 c 0,3.31188 2.703355,6 6.02539,6 h 24.738282 c 3.322035,0 6.027343,-2.68812 6.027343,-6 V 14.835938 c 0,-3.31188 -2.705308,-5.9980474 -6.027343,-5.9980474 z m 0,1.6347654 h 24.738282 c 2.448644,0 4.390625,1.933707 4.390625,4.363282 v 34.572265 c 0,2.429575 -1.941981,4.363281 -4.390625,4.363281 H 19.662109 c -2.448644,0 -4.390625,-1.933706 -4.390625,-4.363281 V 14.835938 c 0,-2.429575 1.941981,-4.363282 4.390625,-4.363282 z" class="ColorScheme-Text" id="rect246"/>
  <g id="g2" transform="matrix(3.4360018,0,0,3.4360018,2.985748,6.5514049)" style="fill:currentColor" class="ColorScheme-Text">
      <path d="M 11.700369,7.3244003 V 7.6554815 H 5.261472 V 7.3244003 Z m 0,1.6554041 v 0.331082 H 5.261472 V 8.9798044 Z M 9.625865,10.63521 v 0.331082 H 5.261472 V 10.63521 Z" id="path42-7" style="fill:currentColor;fill-opacity:1;stroke:none;stroke-width:0.288126;stroke-dasharray:none;stroke-opacity:0.3" sodipodi:nodetypes="ccccccccccccccc" class="ColorScheme-Text"/>
      <path d="m 5.2901174,3.7593313 h 0.549829 q 0.1763863,0 0.310054,0.02756 0.1350457,0.026182 0.2246168,0.086815 0.090949,0.059255 0.1364238,0.157094 0.045475,0.096461 0.045475,0.238397 0,0.085437 -0.02756,0.15985 Q 6.502774,4.5034603 6.451787,4.559959 6.4008,4.616458 6.3250094,4.655042 6.2505964,4.692248 6.1555133,4.704651 v 0.01378 q 0.095083,0.016536 0.1777642,0.048231 0.084059,0.030316 0.1460699,0.085437 0.062011,0.053743 0.097839,0.1364238 0.035829,0.082681 0.035829,0.2011906 0,0.1378017 -0.045475,0.2466651 Q 6.5234431,5.5438641 6.4380061,5.619655 6.353947,5.694068 6.2326814,5.7340305 6.1114159,5.773993 5.9584559,5.773993 H 5.2901174 Z M 5.5464287,4.6137022 H 5.882665 q 0.1157534,0 0.1943004,-0.02067 0.078547,-0.02067 0.1267777,-0.060633 0.048231,-0.041341 0.068901,-0.1019733 0.022048,-0.062011 0.022048,-0.1433139 0,-0.1653621 -0.1061073,-0.237019 Q 6.0824775,3.9784361 5.8537266,3.9784361 H 5.5464287 Z m 0,0.2149707 v 0.7275933 h 0.3665527 q 0.1212655,0 0.2025685,-0.02756 0.082681,-0.02756 0.1322897,-0.077169 0.050987,-0.049609 0.073035,-0.1185095 0.022048,-0.070279 0.022048,-0.154338 0,-0.077169 -0.023426,-0.1419358 Q 6.2974483,4.9719868 6.2450836,4.9265122 6.1940969,4.8796596 6.1086599,4.8548553 6.0232228,4.8286729 5.8964451,4.8286729 Z m 2.6954024,0.1860324 q 0,0.1887884 -0.046853,0.3362363 -0.045475,0.1460699 -0.1322897,0.2466652 -0.085437,0.099217 -0.2080807,0.1515819 -0.1226435,0.052365 -0.2756035,0.052365 -0.1419358,0 -0.2618233,-0.052365 Q 7.1972937,5.696824 7.1091006,5.5976068 7.0222855,5.4970115 6.9726769,5.3509416 6.9244463,5.2034937 6.9244463,5.0147053 q 0,-0.1874104 0.045475,-0.3321022 Q 7.0167743,4.5365332 7.102211,4.4373159 7.187648,4.3367207 7.3102917,4.285734 7.4343133,4.233369 7.5872732,4.233369 q 0.1419358,0 0.2618234,0.052365 0.1198875,0.050987 0.2067026,0.1515819 0.088193,0.099217 0.1364237,0.2452872 0.049609,0.1446918 0.049608,0.3321022 z m -1.0583175,0 q 0,0.2880057 0.093705,0.4340756 0.095083,0.1446918 0.3072979,0.1446918 0.2122147,0 0.3045419,-0.1446918 0.093705,-0.1460699 0.093705,-0.4340756 0,-0.2880057 -0.095083,-0.4299415 Q 7.7939754,4.44145 7.5817607,4.44145 q -0.2122148,0 -0.30592,0.1433138 -0.092327,0.1419358 -0.092327,0.4299415 z m 2.6871343,0 q 0,0.1887884 -0.046853,0.3362363 -0.045475,0.1460699 -0.1322897,0.2466652 -0.085437,0.099217 -0.2080806,0.1515819 -0.1226436,0.052365 -0.2756035,0.052365 -0.1419358,0 -0.2618234,-0.052365 Q 8.8261106,5.696824 8.7379175,5.5976068 8.6511024,5.4970115 8.6014937,5.3509416 8.5532631,5.2034937 8.5532631,5.0147053 q 0,-0.1874104 0.045475,-0.3321022 Q 8.6455911,4.5365332 8.7310278,4.4373159 8.8164648,4.3367207 8.9391084,4.285734 9.06313,4.233369 9.21609,4.233369 q 0.1419358,0 0.2618233,0.052365 0.1198875,0.050987 0.2067026,0.1515819 0.088193,0.099217 0.1364238,0.2452872 0.049609,0.1446918 0.049608,0.3321022 z m -1.0583175,0 q 0,0.2880057 0.093705,0.4340756 0.095083,0.1446918 0.3072979,0.1446918 0.2122147,0 0.3045419,-0.1446918 0.093705,-0.1460699 0.093705,-0.4340756 0,-0.2880057 -0.095083,-0.4299415 Q 9.4227922,4.44145 9.2105775,4.44145 q -0.2122147,0 -0.3059199,0.1433138 -0.092327,0.1419358 -0.092327,0.4299415 z M 10.497646,4.992657 10.683679,4.758394 11.087438,4.2609297 h 0.290761 L 10.825614,4.9154881 11.415406,5.773993 H 11.1274 L 10.664386,5.0794721 10.514182,5.1924696 V 5.773993 H 10.266139 V 3.6297976 h 0.248043 v 0.9839046 l -0.02205,0.3789548 z" id="text3" style="font-size:2.82218px;font-family:'Droid Sans';-inkscape-font-specification:'Droid Sans';text-align:end;letter-spacing:0px;text-anchor:end;fill:currentColor;stroke-width:0.132289" aria-label="Book" class="ColorScheme-Text"/>
    </g>
  </g>
</svg>
