<?xml version='1.0' encoding='UTF-8'?>
<svg xmlns:inkscape="http://www.inkscape.org/namespaces/inkscape" xmlns:sodipodi="http://sodipodi.sourceforge.net/DTD/sodipodi-0.dtd" xmlns="http://www.w3.org/2000/svg" xmlns:svg="http://www.w3.org/2000/svg" xmlns:rdf="http://www.w3.org/1999/02/22-rdf-syntax-ns#" xmlns:cc="http://creativecommons.org/ns#" xmlns:dc="http://purl.org/dc/elements/1.1/" width="64" height="64" version="1.1" id="svg73" sodipodi:docname="application-x-labplot2.svg" inkscape:version="1.4.2 (ebf0e940d0, 2025-05-08)">
  <metadata id="metadata77">
    <rdf:RDF>
      <cc:Work rdf:about="">
        <dc:format>image/svg+xml</dc:format>
        <dc:type rdf:resource="http://purl.org/dc/dcmitype/StillImage"/>
      </cc:Work>
    </rdf:RDF>
  </metadata>
  <sodipodi:namedview pagecolor="#f5f7fa" bordercolor="#666666" borderopacity="1" objecttolerance="10" gridtolerance="10" guidetolerance="10" inkscape:pageopacity="0" inkscape:pageshadow="2" inkscape:window-width="2560" inkscape:window-height="1376" id="namedview75" showgrid="false" inkscape:zoom="4.4470387" inkscape:cx="19.563581" inkscape:cy="25.859905" inkscape:window-x="0" inkscape:window-y="0" inkscape:window-maximized="1" inkscape:current-layer="svg73" inkscape:document-rotation="0" inkscape:pagecheckerboard="0" inkscape:showpageshadow="2" inkscape:deskcolor="#d1d1d1"/>
  <defs id="defs29">
    <style id="current-color-scheme" type="text/css">.ColorScheme-Text {color:#d8dee9} .ColorScheme-Highlight {color:#3b4252}</style>
  </defs>
  <path style="opacity:1;baseline-shift:baseline;display:inline;overflow:visible;vector-effect:none;fill:currentColor;enable-background:accumulate;stop-color:#000000;stop-opacity:1" d="m 19.662109,8.8378906 c -3.322035,0 -6.02539,2.6861674 -6.02539,5.9980474 v 34.572265 c 0,3.31188 2.703355,6 6.02539,6 h 24.738282 c 3.322035,0 6.027343,-2.68812 6.027343,-6 V 14.835938 c 0,-3.31188 -2.705308,-5.9980474 -6.027343,-5.9980474 z m 0,1.6347654 h 24.738282 c 2.448644,0 4.390625,1.933707 4.390625,4.363282 v 34.572265 c 0,2.429575 -1.941981,4.363281 -4.390625,4.363281 H 19.662109 c -2.448644,0 -4.390625,-1.933706 -4.390625,-4.363281 V 14.835938 c 0,-2.429575 1.941981,-4.363282 4.390625,-4.363282 z" class="ColorScheme-Text" id="rect246"/>
  <path id="path33-4-5-3" class="ColorScheme-Text" style="baseline-shift:baseline;display:inline;overflow:visible;vector-effect:none;fill:currentColor;fill-opacity:1;stroke:none;stroke-opacity:1;enable-background:accumulate;stop-color:#000000" d="m 19.47266,19.945312 v 24.109376 h 2.10937 V 33.000001 h 2.0293 c 1.82341,0.74101 3.10493,2.230783 4.21093,3.787109 0.78316,1.102029 1.4546,2.224313 2.15625,3.109375 0.70166,0.885062 1.48132,1.596374 2.49805,1.605469 1.01934,0.0082 1.8064,-0.699264 2.51758,-1.583984 0.71118,-0.884722 1.39616,-2.010636 2.1914,-3.119141 1.11469,-1.553787 2.40492,-3.045545 4.21485,-3.798828 h 3.12695 v -2 H 41.72656 C 41.15071,30.729825 40.63607,30.359275 40.16015,29.914063 39.13004,28.9504 38.30328,27.626055 37.56054,26.271484 36.81781,24.916914 36.16236,23.538512 35.40625,22.457031 34.65014,21.37555 33.72445,20.53125 32.49609,20.53125 c -1.20863,0 -2.13308,0.768773 -2.88672,1.761718 -0.75363,0.992944 -1.40275,2.252619 -2.13672,3.488282 -0.73396,1.235663 -1.54813,2.442262 -2.57031,3.320313 -0.90363,0.776218 -1.95428,1.308839 -3.32031,1.421875 V 19.945312 Z m 13.02343,1.585938 c 0.77164,0 1.40906,0.524297 2.08984,1.498046 0.68079,0.973748 1.33784,2.336922 2.09766,3.722657 0.46611,0.850082 0.9734,1.711187 1.56445,2.501954 -0.40212,-0.357551 -0.7751,-0.736027 -1.1289,-1.119142 -0.79489,-0.860746 -1.47928,-1.740995 -2.18555,-2.4375 -0.70627,-0.696505 -1.47636,-1.244075 -2.41992,-1.246094 -0.92141,-0.002 -1.69358,0.463733 -2.40039,1.06836 -0.70682,0.604627 -1.38536,1.366937 -2.17383,2.111328 -0.39,0.368194 -0.80354,0.732438 -1.25586,1.072266 0.6306,-0.756693 1.16326,-1.590058 1.65039,-2.410157 0.75308,-1.267849 1.4008,-2.509841 2.07227,-3.394531 0.67147,-0.884689 1.29847,-1.367187 2.08984,-1.367187 z m 0.0156,3.919921 c 0.55166,0.0012 1.08757,0.334612 1.7207,0.958985 0.63313,0.624374 1.32034,1.503518 2.15039,2.402345 0.36851,0.399033 0.76767,0.801788 1.20704,1.1875 h -0.0625 v 1 h -4 v -1 h -2 v 1 h -4 v -1 h -0.98047 c 0.79903,-0.502012 1.47951,-1.075476 2.07812,-1.640626 0.82619,-0.779997 1.51039,-1.542631 2.13867,-2.080079 0.62829,-0.537448 1.16467,-0.829382 1.74805,-0.828125 z m -6.98437,5.113283 v 0.435547 h -1.06641 c 0.37549,-0.128147 0.73,-0.274131 1.06641,-0.435547 z m 2,2.435547 h 4 v 1 h 2 v -1 h 4 v 1 h 0.70117 c -0.70612,0.692045 -1.3146,1.460907 -1.85547,2.214843 -0.82308,1.147306 -1.51313,2.273691 -2.1582,3.076172 -0.64507,0.802481 -1.19641,1.215208 -1.73047,1.210938 -0.53667,-0.0048 -1.08604,-0.423533 -1.72266,-1.226563 -0.63662,-0.803031 -1.31357,-1.926545 -2.125,-3.068359 -0.53438,-0.75196 -1.13649,-1.518188 -1.83789,-2.207031 h 0.72852 z"/>
</svg>
