<?xml version='1.0' encoding='UTF-8'?>
<svg xmlns:inkscape="http://www.inkscape.org/namespaces/inkscape" xmlns:sodipodi="http://sodipodi.sourceforge.net/DTD/sodipodi-0.dtd" xmlns:xlink="http://www.w3.org/1999/xlink" xmlns="http://www.w3.org/2000/svg" xmlns:svg="http://www.w3.org/2000/svg" xmlns:rdf="http://www.w3.org/1999/02/22-rdf-syntax-ns#" xmlns:cc="http://creativecommons.org/ns#" xmlns:dc="http://purl.org/dc/elements/1.1/" width="64" height="64" version="1.1" id="svg73" sodipodi:docname="application-x-partial-download.svg" inkscape:version="1.4 (e7c3feb100, 2024-10-09)">
  <metadata id="metadata77">
    <rdf:RDF>
      <cc:Work rdf:about="">
        <dc:format>image/svg+xml</dc:format>
        <dc:type rdf:resource="http://purl.org/dc/dcmitype/StillImage"/>
      </cc:Work>
    </rdf:RDF>
  </metadata>
  <sodipodi:namedview pagecolor="#f5f7fa" bordercolor="#666666" borderopacity="1" objecttolerance="10" gridtolerance="10" guidetolerance="10" inkscape:pageopacity="0" inkscape:pageshadow="2" inkscape:window-width="1183" inkscape:window-height="669" id="namedview75" showgrid="false" inkscape:zoom="4.4470387" inkscape:cx="19.451146" inkscape:cy="25.635037" inkscape:window-x="80" inkscape:window-y="161" inkscape:window-maximized="0" inkscape:current-layer="g877" inkscape:document-rotation="0" inkscape:pagecheckerboard="0" inkscape:showpageshadow="2" inkscape:deskcolor="#d1d1d1"/>
  <defs id="defs29">
    <style id="current-color-scheme" type="text/css">.ColorScheme-Text {color:#d8dee9} .ColorScheme-Highlight {color:#3b4252}</style></defs>
  <g id="g877" transform="matrix(1.1,0,0,1.1,-3.1845928,-3.2065454)" style="">
    <path style="opacity:1;baseline-shift:baseline;display:inline;overflow:visible;vector-effect:none;fill:currentColor;enable-background:accumulate;stop-color:#000000;stop-opacity:1" d="m 19.662109,8.8378906 c -3.322035,0 -6.02539,2.6861674 -6.02539,5.9980474 v 34.572265 c 0,3.31188 2.703355,6 6.02539,6 h 24.738282 c 3.322035,0 6.027343,-2.68812 6.027343,-6 V 14.835938 c 0,-3.31188 -2.705308,-5.9980474 -6.027343,-5.9980474 z m 0,1.6347654 h 24.738282 c 2.448644,0 4.390625,1.933707 4.390625,4.363282 v 34.572265 c 0,2.429575 -1.941981,4.363281 -4.390625,4.363281 H 19.662109 c -2.448644,0 -4.390625,-1.933706 -4.390625,-4.363281 V 14.835938 c 0,-2.429575 1.941981,-4.363282 4.390625,-4.363282 z" class="ColorScheme-Text" id="rect246"/>
  <g transform="matrix(0.09747979,0,0,0.09761638,20.410253,23.675075)" id="g62" style="fill:currentColor;fill-opacity:1" class="ColorScheme-Text">
      <path d="m 215.77778,100.38095 c -10.80024,0 -19.55556,8.86902 -19.55556,19.80953 0,10.9405 8.75532,19.80952 19.55556,19.80952 10.80023,0 19.55555,-8.86902 19.55555,-19.80952 0,-10.94051 -8.75532,-19.80953 -19.55555,-19.80953 z m -39.11111,6.60318 c -7.20016,0 -13.03704,5.91268 -13.03704,13.20635 0,7.29366 5.83688,13.20634 13.03704,13.20634 7.20015,0 13.03703,-5.91268 13.03703,-13.20634 0,-7.29367 -5.83688,-13.20635 -13.03703,-13.20635 z m -26.07408,6.60317 c -3.60007,0 -6.51852,2.95634 -6.51852,6.60318 0,3.64683 2.91845,6.60317 6.51852,6.60317 3.60008,0 6.51852,-2.95634 6.51852,-6.60317 0,-3.64684 -2.91844,-6.60318 -6.51852,-6.60318 z" id="path48" style="fill:currentColor;fill-opacity:1" class="ColorScheme-Text"/>
      <path d="m 192.90026,53.511124 c -9.35328,5.470235 -12.55795,17.585541 -7.15783,27.060305 5.40012,9.474763 17.36011,12.721049 26.71339,7.25078 9.35328,-5.470234 12.55795,-17.585541 7.15783,-27.060304 -5.40012,-9.474763 -17.36011,-12.721049 -26.71339,-7.250781 z M 162.2883,79.039162 c -6.23551,3.646834 -8.37196,11.723705 -4.77188,18.040203 3.60008,6.316495 11.5734,8.480685 17.80892,4.833855 6.23552,-3.646835 8.37197,-11.723706 4.77189,-18.040204 -3.60008,-6.316498 -11.57341,-8.480688 -17.80893,-4.833854 z m -19.32155,18.924863 c -3.11776,1.823401 -4.18598,5.861835 -2.38594,9.020105 1.80004,3.15826 5.7867,4.24036 8.90446,2.41692 3.11776,-1.8234 4.18598,-5.86183 2.38595,-9.0201 -1.80004,-3.158263 -5.78671,-4.240325 -8.90447,-2.416925 z" id="path50" style="fill:currentColor;fill-opacity:1" class="ColorScheme-Text"/>
      <path d="m 149.95328,24.507967 c -5.40012,9.47473 -2.19545,21.59007 7.15783,27.060305 9.35328,5.470235 21.31327,2.223949 26.71339,-7.250781 5.40011,-9.474763 2.19544,-21.59007 -7.15783,-27.060305 -9.35328,-5.470268 -21.31327,-2.223982 -26.71339,7.250781 z M 136.04293,62.12064 c -3.60008,6.316498 -1.46363,14.393369 4.77188,18.040203 6.23552,3.646834 14.20885,1.482644 17.80893,-4.833854 3.60008,-6.316498 1.46363,-14.393369 -4.77189,-18.040203 -6.23552,-3.646834 -14.20884,-1.482644 -17.80892,4.833854 z m -7.39184,26.175677 c -1.80003,3.158233 -0.73181,7.196668 2.38595,9.020102 3.11776,1.823401 7.10442,0.741305 8.90446,-2.416927 1.80004,-3.158265 0.73181,-7.196701 -2.38594,-9.020102 -3.11776,-1.823433 -7.10443,-0.741338 -8.90447,2.416927 z" id="path52" style="fill:currentColor;fill-opacity:1" class="ColorScheme-Text"/>
      <path d="m 98.444448,21.142857 c -4e-6,10.940503 8.755312,19.809524 19.555552,19.809524 10.80024,0 19.55556,-8.869021 19.55556,-19.809524 0,-10.940503 -8.75532,-19.8095237 -19.55556,-19.8095237 -10.80024,0 -19.555556,8.8690207 -19.555552,19.8095237 z m 6.518512,39.619048 c 0,7.293668 5.83689,13.206349 13.03704,13.206349 7.20016,0 13.03704,-5.912681 13.03704,-13.206349 0,-7.293669 -5.83689,-13.206349 -13.03704,-13.206349 -7.20015,0 -13.03704,5.91268 -13.03704,13.206349 z m 6.51852,26.412698 c 10e-6,3.646835 2.91844,6.603175 6.51852,6.603175 3.60008,0 6.51852,-2.95634 6.51852,-6.603175 0,-3.646834 -2.91844,-6.603174 -6.51852,-6.603174 -3.60008,0 -6.51852,2.95634 -6.51852,6.603174 z" id="path54" style="fill:currentColor;fill-opacity:1" class="ColorScheme-Text"/>
      <path d="M 52.175508,44.317491 C 57.575621,53.792221 69.53561,57.03854 78.888889,51.568272 88.242168,46.098037 91.446838,33.982697 86.046718,24.507967 80.646601,15.033204 68.686612,11.786918 59.333333,17.257186 49.980055,22.727421 46.775385,34.842728 52.175508,44.317491 Z M 77.37626,75.326989 c 3.60008,6.316498 11.573408,8.480688 17.808925,4.833854 C 101.4207,76.514009 103.55715,68.437138 99.957076,62.12064 96.356993,55.804142 88.383665,53.639952 82.148148,57.286786 75.912631,60.93362 73.776183,69.010491 77.37626,75.326989 Z M 96.0585,94.899492 c 1.800044,3.158232 5.7867,4.240328 8.90446,2.416927 3.11776,-1.823434 4.18598,-5.861869 2.38595,-9.020102 -1.80004,-3.158265 -5.78671,-4.24036 -8.904466,-2.416927 -3.117758,1.823401 -4.18598,5.861837 -2.385944,9.020102 z" id="path56" style="fill:currentColor;fill-opacity:1" class="ColorScheme-Text"/>
      <path d="m 23.544186,87.822209 c 9.353276,5.470269 21.313265,2.223983 26.713385,-7.25078 5.400116,-9.474764 2.195447,-21.59007 -7.157832,-27.060305 -9.353279,-5.470268 -21.313268,-2.223982 -26.713385,7.250781 -5.40012,9.474763 -2.19545,21.59007 7.157832,27.060304 z m 37.130469,14.091011 c 6.235521,3.64683 14.208849,1.48264 17.808929,-4.833855 3.600076,-6.316498 1.463629,-14.393369 -4.771885,-18.040203 -6.235524,-3.646834 -14.208852,-1.482644 -17.808928,4.833854 -3.600077,6.316498 -1.463633,14.393369 4.771884,18.040204 z m 25.840073,7.48783 c 3.117762,1.82344 7.104422,0.74134 8.904462,-2.41692 1.80004,-3.15823 0.731815,-7.196704 -2.385944,-9.020105 -3.117758,-1.8234 -7.104422,-0.741338 -8.904462,2.416925 -1.800037,3.15827 -0.731815,7.1967 2.385944,9.0201 z" id="path58" style="fill:currentColor;fill-opacity:1" class="ColorScheme-Text"/>
      <path d="m 20.222225,140 c 10.800234,0 19.555553,-8.86902 19.555556,-19.80952 -3e-6,-10.94051 -8.755322,-19.80953 -19.555559,-19.80953 -10.8002365,0 -19.55555533,8.86902 -19.55555207,19.80953 C 0.66666667,131.13098 9.4219855,140 20.222225,140 Z m 39.111108,-6.60318 c 7.200157,0 13.037037,-5.91268 13.037041,-13.20634 -4e-6,-7.29367 -5.836884,-13.20635 -13.037041,-13.20635 -7.200156,0 -13.037037,5.91268 -13.037037,13.20635 0,7.29366 5.836881,13.20634 13.037037,13.20634 z m 26.074074,-6.60317 c 3.60008,0 6.518519,-2.95634 6.518519,-6.60317 3e-6,-3.64684 -2.918442,-6.60318 -6.518519,-6.60318 -3.600076,0 -6.518518,2.95634 -6.518518,6.60318 0,3.64683 2.918442,6.60317 6.518518,6.60317 z" id="path60" style="fill:currentColor;fill-opacity:1" class="ColorScheme-Text"/>
    </g>
  </g>
</svg>
