<?xml version='1.0' encoding='UTF-8'?>
<svg xmlns:inkscape="http://www.inkscape.org/namespaces/inkscape" xmlns:sodipodi="http://sodipodi.sourceforge.net/DTD/sodipodi-0.dtd" xmlns:xlink="http://www.w3.org/1999/xlink" xmlns="http://www.w3.org/2000/svg" xmlns:svg="http://www.w3.org/2000/svg" xmlns:rdf="http://www.w3.org/1999/02/22-rdf-syntax-ns#" xmlns:cc="http://creativecommons.org/ns#" xmlns:dc="http://purl.org/dc/elements/1.1/" width="64" height="64" version="1.1" id="svg73" sodipodi:docname="application-pkix-cerl.svg" inkscape:version="1.4 (e7c3feb100, 2024-10-09)">
  <metadata id="metadata77">
    <rdf:RDF>
      <cc:Work rdf:about="">
        <dc:format>image/svg+xml</dc:format>
        <dc:type rdf:resource="http://purl.org/dc/dcmitype/StillImage"/>
      </cc:Work>
    </rdf:RDF>
  </metadata>
  <sodipodi:namedview pagecolor="#f5f7fa" bordercolor="#666666" borderopacity="1" objecttolerance="10" gridtolerance="10" guidetolerance="10" inkscape:pageopacity="0" inkscape:pageshadow="2" inkscape:window-width="1183" inkscape:window-height="669" id="namedview75" showgrid="false" inkscape:zoom="4.4470387" inkscape:cx="19.451146" inkscape:cy="8.3201435" inkscape:window-x="38" inkscape:window-y="201" inkscape:window-maximized="0" inkscape:current-layer="g877" inkscape:document-rotation="0" inkscape:pagecheckerboard="0" inkscape:showpageshadow="2" inkscape:deskcolor="#d1d1d1"/>
  <defs id="defs29">
    <style id="current-color-scheme" type="text/css">.ColorScheme-Text {color:#d8dee9} .ColorScheme-Highlight {color:#3b4252}</style></defs>
  <g id="g877" transform="matrix(1.1,0,0,1.1,-3.1845928,-3.2065454)" style="">
    <path style="opacity:1;baseline-shift:baseline;display:inline;overflow:visible;vector-effect:none;fill:currentColor;enable-background:accumulate;stop-color:#000000;stop-opacity:1" d="m 19.662109,8.8378906 c -3.322035,0 -6.02539,2.6861674 -6.02539,5.9980474 v 34.572265 c 0,3.31188 2.703355,6 6.02539,6 h 24.738282 c 3.322035,0 6.027343,-2.68812 6.027343,-6 V 14.835938 c 0,-3.31188 -2.705308,-5.9980474 -6.027343,-5.9980474 z m 0,1.6347654 h 24.738282 c 2.448644,0 4.390625,1.933707 4.390625,4.363282 v 34.572265 c 0,2.429575 -1.941981,4.363281 -4.390625,4.363281 H 19.662109 c -2.448644,0 -4.390625,-1.933706 -4.390625,-4.363281 V 14.835938 c 0,-2.429575 1.941981,-4.363282 4.390625,-4.363282 z" class="ColorScheme-Text" id="rect246"/>
  <path d="m 22.489061,29.673218 c 0.275454,0.290909 0.68,0.290909 0.812727,0.290909 0.247272,0 0.552727,-0.04091 0.99,-0.13273 0.342727,-0.07182 0.639091,-0.143635 0.9,-0.207273 0.512727,-0.124545 0.883636,-0.214547 1.232727,-0.214547 0.196364,0 0.555455,0.08545 0.935455,0.175456 0.591818,0.14091 1.328181,0.315452 2.040909,0.315452 0.719091,0 1.476363,-0.05545 1.953636,-0.09909 0.158183,0.594546 0.535455,1.573637 1.390909,2.274546 1.162727,0.953636 2.025455,1.378182 2.061818,1.396364 0.220907,0.107272 0.486364,0.05091 0.643637,-0.137271 0.158183,-0.188183 0.167271,-0.460001 0.02364,-0.658182 -0.0055,-0.0073 -0.586364,-0.829092 -0.564546,-1.752728 0.0091,-0.367273 0.02275,-0.655455 0.03636,-0.874546 0.724546,0.213637 1.958182,0.690909 2.59455,1.59 0.963637,1.360909 1.359094,3.456365 1.253639,4.144547 -0.110914,0.716362 -0.123627,0.716362 -0.463637,0.716362 -0.740908,0 -1.362735,0.03 -2.063643,0.41182 -0.62,0.337271 -0.960909,0.706362 -0.998181,0.747271 -0.139089,0.154545 -0.176363,0.375456 -0.09455,0.566365 0.08091,0.191818 0.265455,0.31818 0.472726,0.326365 0.20091,0.0073 0.806364,0.05727 1.196364,0.199092 0.206363,0.07545 0.384549,0.162726 0.557277,0.248182 0.275464,0.135454 0.536363,0.264545 0.839999,0.300001 0.0991,0.01182 0.20001,0.01728 0.296355,0.01546 0.111808,0.259999 0.302712,0.570909 0.622728,0.816364 0.245468,0.18818 0.495454,0.304547 0.715454,0.407272 0.270895,0.125456 0.484545,0.225454 0.648181,0.42909 0.429999,0.532731 0.574545,1.110914 0.575455,1.116371 0.05635,0.230899 0.259075,0.399091 0.496365,0.40909 0.0082,9.11e-4 0.01649,9.11e-4 0.0244,9.11e-4 0.227291,0 0.431819,-0.143625 0.506363,-0.360911 0.03264,-0.09727 0.315459,-0.990912 -0.05999,-2.299096 -0.134389,-0.468184 -0.341663,-0.872729 -0.542573,-1.264548 -0.327272,-0.636363 -0.61,-1.186363 -0.490908,-1.860909 0.556364,-3.167273 0.518183,-5.743636 -0.114546,-7.655454 -0.983635,-2.973637 -3.365454,-4.63 -3.832729,-4.931819 -0.231821,-0.15 -0.440912,-0.281818 -0.617276,-0.390909 0.163636,-0.130001 0.37091,-0.267273 0.617276,-0.371818 0.56091,-0.238181 0.797276,-0.303636 0.862728,-0.319092 h 0.01168 c 0.232721,0 0.411819,-0.153637 0.48,-0.380909 0.07092,-0.235455 -0.05999,-0.489091 -0.272716,-0.613636 -0.04,-0.02457 -1.003639,-0.584546 -2.27455,-0.584546 -0.261817,0 -0.521818,0.02364 -0.773636,0.07091 -0.78351,0.148184 -1.337146,0.369093 -1.872601,0.58273 -0.522727,0.209091 -1.016363,0.405454 -1.753636,0.560909 -0.358182,0.07545 -0.688182,0.133636 -1.007273,0.19 -1.097273,0.193636 -2.044545,0.360909 -3.461818,1.084545 -1.849091,0.944546 -2.889091,1.978182 -2.928182,2.91 -0.0082,0.196364 -0.0036,0.371818 0.01364,0.525455 -0.173639,0.08636 -0.383637,0.196364 -0.596364,0.317273 -0.864546,0.491818 -1.227273,0.86 -1.251818,1.270909 -0.01636,0.286364 0.06,0.521818 0.228181,0.700001 z" style="clip-rule:evenodd;fill:currentColor;fill-rule:nonzero;stroke:none;stroke-width:0.909091;stroke-linejoin:round;stroke-miterlimit:2;stroke-opacity:1" id="path4" class="ColorScheme-Text"/>
  </g>
</svg>
