<?xml version='1.0' encoding='UTF-8'?>
<svg xmlns:inkscape="http://www.inkscape.org/namespaces/inkscape" xmlns:sodipodi="http://sodipodi.sourceforge.net/DTD/sodipodi-0.dtd" xmlns:xlink="http://www.w3.org/1999/xlink" xmlns="http://www.w3.org/2000/svg" xmlns:svg="http://www.w3.org/2000/svg" xmlns:rdf="http://www.w3.org/1999/02/22-rdf-syntax-ns#" xmlns:cc="http://creativecommons.org/ns#" xmlns:dc="http://purl.org/dc/elements/1.1/" width="64" height="64" version="1.1" id="svg73" sodipodi:docname="image-vnd.dgn.svg" inkscape:version="1.4 (e7c3feb100, 2024-10-09)">
  <metadata id="metadata77">
    <rdf:RDF>
      <cc:Work rdf:about="">
        <dc:format>image/svg+xml</dc:format>
        <dc:type rdf:resource="http://purl.org/dc/dcmitype/StillImage"/>
      </cc:Work>
    </rdf:RDF>
  </metadata>
  <sodipodi:namedview pagecolor="#f5f7fa" bordercolor="#666666" borderopacity="1" objecttolerance="10" gridtolerance="10" guidetolerance="10" inkscape:pageopacity="0" inkscape:pageshadow="2" inkscape:window-width="1183" inkscape:window-height="669" id="namedview75" showgrid="false" inkscape:zoom="4.4470387" inkscape:cx="19.451146" inkscape:cy="8.3201435" inkscape:window-x="107" inkscape:window-y="141" inkscape:window-maximized="0" inkscape:current-layer="g877" inkscape:document-rotation="0" inkscape:pagecheckerboard="0" inkscape:showpageshadow="2" inkscape:deskcolor="#d1d1d1"/>
  <defs id="defs29">
    <style id="current-color-scheme" type="text/css">.ColorScheme-Text {color:#d8dee9} .ColorScheme-Highlight {color:#3b4252}</style></defs>
  <g id="g877" transform="matrix(1.1,0,0,1.1,-3.1845928,-3.2065454)" style="">
    <path style="opacity:1;baseline-shift:baseline;display:inline;overflow:visible;vector-effect:none;fill:currentColor;enable-background:accumulate;stop-color:#000000;stop-opacity:1" d="m 19.662109,8.8378906 c -3.322035,0 -6.02539,2.6861674 -6.02539,5.9980474 v 34.572265 c 0,3.31188 2.703355,6 6.02539,6 h 24.738282 c 3.322035,0 6.027343,-2.68812 6.027343,-6 V 14.835938 c 0,-3.31188 -2.705308,-5.9980474 -6.027343,-5.9980474 z m 0,1.6347654 h 24.738282 c 2.448644,0 4.390625,1.933707 4.390625,4.363282 v 34.572265 c 0,2.429575 -1.941981,4.363281 -4.390625,4.363281 H 19.662109 c -2.448644,0 -4.390625,-1.933706 -4.390625,-4.363281 V 14.835938 c 0,-2.429575 1.941981,-4.363282 4.390625,-4.363282 z" class="ColorScheme-Text" id="rect246"/>
  <path d="m 35.80685,35.565993 c 0.07844,0.197023 0.133728,0.407422 0.163149,0.631194 0.114116,0.854968 -0.146209,1.859709 -0.752443,2.904572 -1.333713,2.299228 -3.49654,3.151522 -4.9408,2.969651 -0.03209,-0.0037 -0.06241,-0.01423 -0.08915,-0.02938 -0.04547,-0.0266 -0.08202,-0.06865 -0.101632,-0.119459 -0.0321,-0.08024 -0.01695,-0.172061 0.03923,-0.23892 0.571464,-0.673153 0.418124,-1.347142 0.223773,-2.200327 -0.203266,-0.892411 -0.434171,-1.903393 0.190784,-3.084656 0.786319,-1.487948 1.725982,-2.021966 2.375008,-2.208296 0.13462,-0.03835 0.27013,-0.06508 0.406532,-0.08202 z m 5.81806,-12.935949 c 0.498356,0.289743 0.689141,0.914701 0.43506,1.432672 -0.158702,0.325403 -3.9004,7.971075 -4.523571,9.046248 -0.312923,0.538478 -0.891519,1.271306 -1.432672,1.913199 L 33.617279,33.56453 c 0.288853,-0.788103 0.635653,-1.650203 0.943227,-2.181548 0.616041,-1.061801 5.400828,-8.119068 5.604091,-8.418618 0.323623,-0.477855 0.961059,-0.623173 1.460313,-0.33432 z M 29.683003,38.242332 c 0.02586,0.491229 0.129272,0.942338 0.221989,1.348871 0.199697,0.875473 0.278152,1.316775 -0.122141,1.789281 -0.08113,0.09627 -0.132835,0.20951 -0.155124,0.328076 -0.152449,-0.153352 -0.267456,-0.356606 -0.315598,-0.615146 -0.06241,-0.42169 -0.195242,-0.633869 -0.460914,-0.736397 -0.371763,-0.130159 -0.782753,-0.140859 -1.13847,-0.140859 -0.06686,0 -0.133731,0 -0.200592,8.04e-4 -0.814848,0.0052 -1.6083,0.0052 -2.20651,-0.772951 -0.680229,-0.88617 -0.286178,-1.684971 0.0945,-2.457917 0.201484,-0.409211 0.410098,-0.83179 0.452,-1.2615 0.0107,-0.0945 -0.008,-0.168499 -0.05884,-0.230014 -0.192568,-0.235362 -0.816631,-0.283503 -1.421082,-0.330753 -0.614255,-0.04726 -1.249019,-0.09628 -1.642178,-0.329863 -0.729263,-0.435062 -0.907569,-1.076062 -0.928072,-1.538763 -0.03923,-0.866556 0.455567,-1.84901 1.20266,-2.390164 0.04013,-0.02941 0.09628,-0.02229 0.127487,0.01605 0.0321,0.03835 0.02941,0.0945 -0.0061,0.129269 -0.583945,0.559876 -1.151843,1.904287 -0.678447,2.654945 0.254976,0.390486 0.675773,0.5572 1.407709,0.5572 0.213074,0 0.435063,-0.01336 0.649919,-0.02585 0.209508,-0.01246 0.426147,-0.02586 0.628521,-0.02586 0.245169,0 0.438628,0.01874 0.606234,0.05884 0.575922,0.109657 1.094785,0.488554 1.316773,0.964626 0.266566,0.573246 0.124816,1.176805 -0.06776,1.74381 -0.01336,0.04012 -0.03744,0.09629 -0.06776,0.167609 -0.119462,0.280827 -0.396727,0.935202 -0.204157,1.175915 0.01695,0.01516 0.07222,0.04458 0.230903,0.04458 0.226445,0 0.550068,-0.05617 0.893302,-0.115898 0.384245,-0.06776 0.781862,-0.136402 1.099244,-0.136402 0.03923,0 0.07667,8.02e-4 0.112332,0.0026 0.210397,0.01336 0.418121,0.05527 0.630303,0.125703 z" id="path8" style="fill:currentColor;stroke-width:0.891527" class="ColorScheme-Text"/>
  </g>
</svg>
