<?xml version='1.0' encoding='UTF-8'?>
<svg xmlns:inkscape="http://www.inkscape.org/namespaces/inkscape" xmlns:sodipodi="http://sodipodi.sourceforge.net/DTD/sodipodi-0.dtd" xmlns:xlink="http://www.w3.org/1999/xlink" xmlns="http://www.w3.org/2000/svg" xmlns:svg="http://www.w3.org/2000/svg" xmlns:rdf="http://www.w3.org/1999/02/22-rdf-syntax-ns#" xmlns:cc="http://creativecommons.org/ns#" xmlns:dc="http://purl.org/dc/elements/1.1/" width="64" height="64" version="1.1" id="svg73" sodipodi:docname="libreoffice-database.svg" inkscape:version="1.4 (e7c3feb100, 2024-10-09)">
  <metadata id="metadata77">
    <rdf:RDF>
      <cc:Work rdf:about="">
        <dc:format>image/svg+xml</dc:format>
        <dc:type rdf:resource="http://purl.org/dc/dcmitype/StillImage"/>
      </cc:Work>
    </rdf:RDF>
  </metadata>
  <sodipodi:namedview pagecolor="#f5f7fa" bordercolor="#666666" borderopacity="1" objecttolerance="10" gridtolerance="10" guidetolerance="10" inkscape:pageopacity="0" inkscape:pageshadow="2" inkscape:window-width="1183" inkscape:window-height="669" id="namedview75" showgrid="false" inkscape:zoom="4.4470387" inkscape:cx="19.451146" inkscape:cy="8.3201435" inkscape:window-x="422" inkscape:window-y="153" inkscape:window-maximized="0" inkscape:current-layer="g877" inkscape:document-rotation="0" inkscape:pagecheckerboard="0" inkscape:showpageshadow="2" inkscape:deskcolor="#d1d1d1"/>
  <defs id="defs29">
    <style id="current-color-scheme" type="text/css">.ColorScheme-Text {color:#d8dee9} .ColorScheme-Highlight {color:#3b4252}</style></defs>
  <g id="g877" transform="matrix(1.1,0,0,1.1,-3.1845928,-3.2065454)" style="">
    <path style="opacity:1;baseline-shift:baseline;display:inline;overflow:visible;vector-effect:none;fill:currentColor;enable-background:accumulate;stop-color:#000000;stop-opacity:1" d="m 19.662109,8.8378906 c -3.322035,0 -6.02539,2.6861674 -6.02539,5.9980474 v 34.572265 c 0,3.31188 2.703355,6 6.02539,6 h 24.738282 c 3.322035,0 6.027343,-2.68812 6.027343,-6 V 14.835938 c 0,-3.31188 -2.705308,-5.9980474 -6.027343,-5.9980474 z m 0,1.6347654 h 24.738282 c 2.448644,0 4.390625,1.933707 4.390625,4.363282 v 34.572265 c 0,2.429575 -1.941981,4.363281 -4.390625,4.363281 H 19.662109 c -2.448644,0 -4.390625,-1.933706 -4.390625,-4.363281 V 14.835938 c 0,-2.429575 1.941981,-4.363282 4.390625,-4.363282 z" class="ColorScheme-Text" id="rect246"/>
  <path d="m 26.343082,25.050827 c -1.943289,0 -3.50751,1.564221 -3.50751,3.507508 v 9.353368 c 0,1.943293 1.564221,3.507514 3.50751,3.507514 h 9.353363 c 1.943289,0 3.507512,-1.564221 3.507512,-3.507514 v -4.676684 c 0,-0.64624 -0.522928,-1.16917 -1.169172,-1.16917 -0.646241,0 -1.169169,0.52293 -1.169169,1.16917 v 4.676684 c 0,0.648532 -0.520647,1.169176 -1.169171,1.169176 h -9.353363 c -0.648523,0 -1.16917,-0.520644 -1.16917,-1.169176 v -9.353368 c 0,-0.648522 0.520647,-1.169168 1.16917,-1.169168 h 4.676681 c 0.64624,0 1.169171,-0.522929 1.169171,-1.169171 0,-0.646239 -0.522931,-1.169169 -1.169171,-1.169169 z m 8.184191,-2.338341 c -0.646241,0 -1.169168,0.522929 -1.169168,1.16917 0,0.646241 0.522927,1.169171 1.169168,1.169171 h 3.021118 l -6.186097,6.1861 c -0.458991,0.456707 -0.458991,1.198856 0,1.655564 0.456707,0.456706 1.196571,0.456706 1.653279,0 l 6.188384,-6.188385 v 3.023402 c 0,0.64624 0.522925,1.169169 1.169166,1.169169 0.646241,0 1.169172,-0.522929 1.169172,-1.169169 v -5.845852 c 0,-0.102757 -0.01391,-0.203233 -0.04113,-0.301425 -0.02722,-0.100473 -0.06624,-0.194101 -0.11643,-0.283156 -0.05025,-0.08905 -0.114171,-0.168984 -0.184956,-0.242055 -0.01824,-0.0137 -0.03668,-0.02737 -0.05476,-0.04111 -0.06395,-0.05937 -0.137024,-0.10961 -0.212386,-0.150714 -0.04339,-0.02282 -0.08906,-0.04111 -0.134736,-0.0571 -0.05941,-0.02511 -0.121036,-0.04338 -0.182668,-0.0571 -0.04796,-0.01138 -0.09361,-0.01599 -0.14157,-0.02054 -0.03442,-0.01138 -0.06624,-0.01138 -0.100441,-0.0137 z m 0,0" id="path3-4" style="fill:currentColor;fill-opacity:1;stroke:none;stroke-width:0.989991;stroke-dasharray:none;stroke-opacity:0.3" class="ColorScheme-Text"/>
  </g>
</svg>
