<?xml version='1.0' encoding='UTF-8'?>
<svg xmlns:inkscape="http://www.inkscape.org/namespaces/inkscape" xmlns:sodipodi="http://sodipodi.sourceforge.net/DTD/sodipodi-0.dtd" xmlns:xlink="http://www.w3.org/1999/xlink" xmlns="http://www.w3.org/2000/svg" xmlns:svg="http://www.w3.org/2000/svg" xmlns:rdf="http://www.w3.org/1999/02/22-rdf-syntax-ns#" xmlns:cc="http://creativecommons.org/ns#" xmlns:dc="http://purl.org/dc/elements/1.1/" width="64" height="64" version="1.1" id="svg73" sodipodi:docname="text-x-lua.svg" inkscape:version="1.4 (e7c3feb100, 2024-10-09)">
  <metadata id="metadata77">
    <rdf:RDF>
      <cc:Work rdf:about="">
        <dc:format>image/svg+xml</dc:format>
        <dc:type rdf:resource="http://purl.org/dc/dcmitype/StillImage"/>
      </cc:Work>
    </rdf:RDF>
  </metadata>
  <sodipodi:namedview pagecolor="#f5f7fa" bordercolor="#666666" borderopacity="1" objecttolerance="10" gridtolerance="10" guidetolerance="10" inkscape:pageopacity="0" inkscape:pageshadow="2" inkscape:window-width="1183" inkscape:window-height="669" id="namedview75" showgrid="false" inkscape:zoom="4.4470387" inkscape:cx="19.451146" inkscape:cy="25.635037" inkscape:window-x="98" inkscape:window-y="173" inkscape:window-maximized="0" inkscape:current-layer="g877" inkscape:document-rotation="0" inkscape:pagecheckerboard="0" inkscape:showpageshadow="2" inkscape:deskcolor="#d1d1d1"/>
  <defs id="defs29">
    <style id="current-color-scheme" type="text/css">.ColorScheme-Text {color:#d8dee9} .ColorScheme-Highlight {color:#3b4252}</style></defs>
  <g id="g877" transform="matrix(1.1,0,0,1.1,-3.1845928,-3.2065454)" style="">
    <path style="opacity:1;baseline-shift:baseline;display:inline;overflow:visible;vector-effect:none;fill:currentColor;enable-background:accumulate;stop-color:#000000;stop-opacity:1" d="m 19.662109,8.8378906 c -3.322035,0 -6.02539,2.6861674 -6.02539,5.9980474 v 34.572265 c 0,3.31188 2.703355,6 6.02539,6 h 24.738282 c 3.322035,0 6.027343,-2.68812 6.027343,-6 V 14.835938 c 0,-3.31188 -2.705308,-5.9980474 -6.027343,-5.9980474 z m 0,1.6347654 h 24.738282 c 2.448644,0 4.390625,1.933707 4.390625,4.363282 v 34.572265 c 0,2.429575 -1.941981,4.363281 -4.390625,4.363281 H 19.662109 c -2.448644,0 -4.390625,-1.933706 -4.390625,-4.363281 V 14.835938 c 0,-2.429575 1.941981,-4.363282 4.390625,-4.363282 z" class="ColorScheme-Text" id="rect246"/>
  <path id="path6" style="fill:currentColor;fill-opacity:1;stroke:none;stroke-width:0.144374;stroke-opacity:1" d="m 32.019595,20.659992 c -0.482898,0.004 -0.967358,0.02701 -1.222917,0.06623 -1.352276,0.207601 -2.506275,0.612785 -3.595719,1.263682 -0.731395,0.436978 -1.1984,0.805563 -1.856459,1.464106 -0.825619,0.826226 -1.303509,1.483991 -1.810598,2.491695 -0.134393,0.267072 -0.244583,0.498648 -0.244583,0.514645 0,0.01598 0.806568,0.02468 1.791914,0.01953 l 1.791067,-0.0094 0.148618,-0.242885 c 0.526255,-0.861336 1.350411,-1.712964 2.191911,-2.265795 1.769365,-1.162402 3.968366,-1.483611 6.028816,-0.880672 0.05293,0.01549 0.06038,-0.04405 0.07219,-0.552011 0.01508,-0.648271 0.06242,-0.802805 0.31592,-1.031839 l 0.136728,-0.123135 -0.355836,-0.132482 c -0.653511,-0.241677 -1.406412,-0.426207 -2.177473,-0.535028 -0.249163,-0.03517 -0.730678,-0.05061 -1.213577,-0.0467 z m 5.667038,1.069204 c -0.12919,5.26e-4 -0.275698,0.0019 -0.443308,0.0034 l -1.171114,0.01019 -0.09766,0.09002 c -0.188538,0.174048 -0.196696,0.234415 -0.194479,1.397863 0.0023,1.191773 0.01463,1.275424 0.210615,1.407205 0.121563,0.08172 0.133352,0.08238 1.312088,0.08238 1.158771,0 1.191525,-0.0017 1.297652,-0.07728 0.198651,-0.141453 0.208916,-0.21161 0.208916,-1.408055 0,-1.024709 -0.0045,-1.100097 -0.07389,-1.243299 -0.113473,-0.234388 -0.144497,-0.266011 -1.048822,-0.262403 z m 1.610175,2.214841 -0.02463,0.298087 c -0.03843,0.463603 -0.219849,0.741493 -0.583433,0.893408 l -0.13588,0.0569 0.168152,0.206367 c 0.50792,0.625507 1.01298,1.541714 1.260283,2.286178 0.386988,1.16496 0.474017,2.482429 0.242037,3.66366 l -0.06539,0.329508 0.454349,0.01615 c 0.377931,0.0131 0.481814,0.02956 0.625047,0.09851 0.09455,0.04551 0.181119,0.09833 0.192779,0.117197 0.0351,0.05681 0.04313,0.02676 0.109553,-0.422925 0.07985,-0.540474 0.09063,-1.954569 0.01868,-2.471314 -0.16358,-1.174816 -0.506227,-2.263985 -1.021646,-3.248377 -0.252083,-0.481451 -0.72828,-1.207067 -1.030139,-1.570261 z m -16.602813,3.031818 -0.155412,0.08322 c -0.238936,0.127578 -0.428238,0.318297 -0.538423,0.542669 l -0.100213,0.204669 -0.01019,2.30656 c -0.01113,2.554685 -0.01237,2.538155 0.219106,2.843285 0.130673,0.172247 0.405187,0.373101 0.580037,0.423775 0.06224,0.01805 1.155046,0.03389 2.428003,0.03567 2.534068,0.0036 2.459097,0.0091 2.766852,-0.212312 0.214606,-0.15442 0.389466,-0.427303 0.445854,-0.696385 0.0355,-0.16937 0.04784,-0.736328 0.0484,-2.303162 8.02e-4,-2.132833 -0.01289,-2.374928 -0.144371,-2.63267 -0.09269,-0.181685 -0.334358,-0.412826 -0.534177,-0.511249 l -0.169002,-0.08408 h -2.41866 z m 16.791347,5.180418 c -1.503682,-8.91e-4 -1.55291,0.0044 -1.752001,0.190231 -0.187118,0.174717 -0.186833,0.169496 -0.186833,1.739261 0,1.576412 0.0032,1.609439 0.19023,1.781724 0.0503,0.04636 0.153822,0.106523 0.230147,0.134181 0.111298,0.04036 0.417516,0.04908 1.546481,0.04246 1.591361,-0.0093 1.594821,-0.01025 1.780875,-0.291291 l 0.09596,-0.145222 0.01104,-1.428438 c 0.0072,-0.930289 -0.0022,-1.4734 -0.02718,-1.55837 -0.05358,-0.183215 -0.169648,-0.318597 -0.341397,-0.396599 -0.135094,-0.06136 -0.262779,-0.06719 -1.547333,-0.06794 z m -14.274173,1.732466 c -1.057084,-5.26e-4 -1.92185,0.01221 -1.92185,0.02803 0,0.0158 0.110191,0.247575 0.244583,0.514645 0.280544,0.557504 0.578581,1.040941 0.951159,1.542236 0.333639,0.4489 1.353488,1.4678 1.810598,1.8089 1.45214,1.083603 3.10001,1.729884 4.879783,1.914207 0.444166,0.04599 1.76142,0.01698 2.202102,-0.0484 2.096629,-0.311136 3.857904,-1.177207 5.340926,-2.627576 l 0.506152,-0.495111 -0.560504,-0.0017 c -0.638602,-0.0014 -0.891834,-0.05007 -1.136295,-0.21826 -0.08637,-0.05942 -0.193271,-0.160578 -0.23779,-0.22505 -0.04451,-0.06447 -0.08537,-0.123448 -0.09087,-0.130785 -0.0055,-0.0074 -0.11328,0.05194 -0.239487,0.131633 -2.266438,1.43139 -5.276107,1.433734 -7.579546,0.005 -0.802599,-0.497801 -1.633395,-1.28448 -2.120574,-2.008485 L 27.133019,33.88949 Z" class="ColorScheme-Text"/>
  </g>
</svg>
