<?xml version='1.0' encoding='UTF-8'?>
<svg xmlns:inkscape="http://www.inkscape.org/namespaces/inkscape" xmlns:sodipodi="http://sodipodi.sourceforge.net/DTD/sodipodi-0.dtd" xmlns:xlink="http://www.w3.org/1999/xlink" xmlns="http://www.w3.org/2000/svg" xmlns:svg="http://www.w3.org/2000/svg" xmlns:rdf="http://www.w3.org/1999/02/22-rdf-syntax-ns#" xmlns:cc="http://creativecommons.org/ns#" xmlns:dc="http://purl.org/dc/elements/1.1/" width="64" height="64" version="1.1" id="svg73" sodipodi:docname="accessories-ebook-reader.svg" inkscape:version="1.4 (e7c3feb100, 2024-10-09)">
  <metadata id="metadata77">
    <rdf:RDF>
      <cc:Work rdf:about="">
        <dc:format>image/svg+xml</dc:format>
        <dc:type rdf:resource="http://purl.org/dc/dcmitype/StillImage"/>
      </cc:Work>
    </rdf:RDF>
  </metadata>
  <sodipodi:namedview pagecolor="#f5f7fa" bordercolor="#666666" borderopacity="1" objecttolerance="10" gridtolerance="10" guidetolerance="10" inkscape:pageopacity="0" inkscape:pageshadow="2" inkscape:window-width="1183" inkscape:window-height="669" id="namedview75" showgrid="false" inkscape:zoom="4.4470387" inkscape:cx="19.451146" inkscape:cy="8.3201435" inkscape:window-x="126" inkscape:window-y="157" inkscape:window-maximized="0" inkscape:current-layer="g877" inkscape:document-rotation="0" inkscape:pagecheckerboard="0" inkscape:showpageshadow="2" inkscape:deskcolor="#d1d1d1"/>
  <defs id="defs29">
    <style id="current-color-scheme" type="text/css">.ColorScheme-Text {color:#d8dee9} .ColorScheme-Highlight {color:#3b4252}</style></defs>
  <g id="g877" transform="matrix(1.1,0,0,1.1,-3.1845928,-3.2065454)" style="">
    <path style="opacity:1;baseline-shift:baseline;display:inline;overflow:visible;vector-effect:none;fill:currentColor;enable-background:accumulate;stop-color:#000000;stop-opacity:1" d="m 19.662109,8.8378906 c -3.322035,0 -6.02539,2.6861674 -6.02539,5.9980474 v 34.572265 c 0,3.31188 2.703355,6 6.02539,6 h 24.738282 c 3.322035,0 6.027343,-2.68812 6.027343,-6 V 14.835938 c 0,-3.31188 -2.705308,-5.9980474 -6.027343,-5.9980474 z m 0,1.6347654 h 24.738282 c 2.448644,0 4.390625,1.933707 4.390625,4.363282 v 34.572265 c 0,2.429575 -1.941981,4.363281 -4.390625,4.363281 H 19.662109 c -2.448644,0 -4.390625,-1.933706 -4.390625,-4.363281 V 14.835938 c 0,-2.429575 1.941981,-4.363282 4.390625,-4.363282 z" class="ColorScheme-Text" id="rect246"/>
  <path d="m 26.385539,40.465049 h -0.432 c -1.008818,0 -1.808182,-0.294551 -2.398091,-0.88446 -0.576,-0.589091 -0.864,-1.375365 -0.864,-2.358 v -3.360275 c 0,-0.536728 -0.137454,-0.943364 -0.413182,-1.218273 -0.274909,-0.288 -0.621818,-0.432 -1.041545,-0.432 v -1.494 c 0.419727,0 0.766636,-0.137454 1.041545,-0.412363 0.275728,-0.288002 0.413182,-0.701182 0.413182,-1.23791 v -3.360272 c 0,-0.982636 0.288002,-1.76891 0.864,-2.358 0.589909,-0.58991 1.389273,-0.884455 2.398091,-0.884455 h 0.432 v 1.493182 h -0.432 c -0.459,0 -0.845182,0.164455 -1.159364,0.491727 -0.301908,0.327273 -0.452454,0.766636 -0.452454,1.316454 v 3.360274 c 0,1.19209 -0.451637,1.958727 -1.355728,2.29909 v 0.07854 c 0.904091,0.314182 1.355728,1.080818 1.355728,2.299092 v 3.360274 c 0,0.550636 0.150544,0.989182 0.452454,1.316454 0.314182,0.328091 0.700364,0.491726 1.159364,0.491726 h 0.432 z m 11.632907,0 h -0.431999 v -1.493188 h 0.431999 c 0.459002,0 0.838638,-0.163649 1.13973,-0.491725 0.314998,-0.327276 0.472089,-0.765821 0.472089,-1.316457 v -3.360275 c 0,-1.218272 0.451636,-1.984908 1.355727,-2.29909 v -0.07854 c -0.904091,-0.340362 -1.355727,-1.106999 -1.355727,-2.29909 v -3.360273 c 0,-0.549818 -0.157094,-0.989181 -0.472089,-1.316454 -0.301092,-0.327273 -0.680728,-0.491727 -1.13973,-0.491727 h -0.431999 v -1.493182 h 0.431999 c 1.008819,0 1.801637,0.294545 2.377637,0.884454 0.589909,0.589091 0.884455,1.375364 0.884455,2.358 v 3.360273 c 0,0.536727 0.137457,0.949909 0.413182,1.237909 0.274914,0.274909 0.62182,0.412364 1.041545,0.412364 v 1.494 c -0.419725,0 -0.766638,0.144001 -1.041545,0.432 -0.275719,0.274909 -0.413182,0.681545 -0.413182,1.218272 v 3.360276 c 0,0.982635 -0.294552,1.768909 -0.884455,2.358 -0.576,0.589911 -1.368818,0.884458 -2.377637,0.884456 z M 31.966357,30.425132 c 0.564546,0 1.022727,0.458182 1.022727,1.022728 0,0.564544 -0.458181,1.022726 -1.022727,1.022726 -0.564545,0 -1.022728,-0.458182 -1.022728,-1.022726 0,-0.564546 0.458183,-1.022728 1.022728,-1.022728 z m 4.909091,0 c 0.564546,0 1.022726,0.458182 1.022726,1.022728 0,0.564544 -0.45818,1.022726 -1.022726,1.022726 -0.564546,0 -1.022727,-0.458182 -1.022727,-1.022726 0,-0.564546 0.458181,-1.022728 1.022727,-1.022728 z m -9.818182,0 c 0.564545,0 1.022727,0.458182 1.022727,1.022728 0,0.564544 -0.458182,1.022726 -1.022727,1.022726 -0.564545,0 -1.022727,-0.458182 -1.022727,-1.022726 0,-0.564546 0.458182,-1.022728 1.022727,-1.022728 z" style="clip-rule:evenodd;fill:currentColor;fill-rule:nonzero;stroke-width:0.818182;stroke-linejoin:round;stroke-miterlimit:2" id="path6-3" class="ColorScheme-Text"/>
  </g>
</svg>
