<?xml version='1.0' encoding='UTF-8'?>
<svg xmlns:inkscape="http://www.inkscape.org/namespaces/inkscape" xmlns:sodipodi="http://sodipodi.sourceforge.net/DTD/sodipodi-0.dtd" xmlns:xlink="http://www.w3.org/1999/xlink" xmlns="http://www.w3.org/2000/svg" xmlns:svg="http://www.w3.org/2000/svg" xmlns:rdf="http://www.w3.org/1999/02/22-rdf-syntax-ns#" xmlns:cc="http://creativecommons.org/ns#" xmlns:dc="http://purl.org/dc/elements/1.1/" width="64" height="64" version="1.1" id="svg73" sodipodi:docname="text-x-lua.svg" inkscape:version="1.4 (e7c3feb100, 2024-10-09)">
  <metadata id="metadata77">
    <rdf:RDF>
      <cc:Work rdf:about="">
        <dc:format>image/svg+xml</dc:format>
        <dc:type rdf:resource="http://purl.org/dc/dcmitype/StillImage"/>
      </cc:Work>
    </rdf:RDF>
  </metadata>
  <sodipodi:namedview pagecolor="#f5f7fa" bordercolor="#666666" borderopacity="1" objecttolerance="10" gridtolerance="10" guidetolerance="10" inkscape:pageopacity="0" inkscape:pageshadow="2" inkscape:window-width="1183" inkscape:window-height="669" id="namedview75" showgrid="false" inkscape:zoom="4.4470387" inkscape:cx="19.451146" inkscape:cy="25.635037" inkscape:window-x="98" inkscape:window-y="173" inkscape:window-maximized="0" inkscape:current-layer="g877" inkscape:document-rotation="0" inkscape:pagecheckerboard="0" inkscape:showpageshadow="2" inkscape:deskcolor="#d1d1d1"/>
  <defs id="defs29">
    <style id="current-color-scheme" type="text/css">.ColorScheme-Text {color:#d8dee9} .ColorScheme-Highlight {color:#3b4252}</style></defs>
  <g id="g877" transform="matrix(1.1,0,0,1.1,-3.1845928,-3.2065454)" style="">
    <path style="opacity:1;baseline-shift:baseline;display:inline;overflow:visible;vector-effect:none;fill:currentColor;enable-background:accumulate;stop-color:#000000;stop-opacity:1" d="m 19.662109,8.8378906 c -3.322035,0 -6.02539,2.6861674 -6.02539,5.9980474 v 34.572265 c 0,3.31188 2.703355,6 6.02539,6 h 24.738282 c 3.322035,0 6.027343,-2.68812 6.027343,-6 V 14.835938 c 0,-3.31188 -2.705308,-5.9980474 -6.027343,-5.9980474 z m 0,1.6347654 h 24.738282 c 2.448644,0 4.390625,1.933707 4.390625,4.363282 v 34.572265 c 0,2.429575 -1.941981,4.363281 -4.390625,4.363281 H 19.662109 c -2.448644,0 -4.390625,-1.933706 -4.390625,-4.363281 V 14.835938 c 0,-2.429575 1.941981,-4.363282 4.390625,-4.363282 z" class="ColorScheme-Text" id="rect246"/>
  <path style="fill:currentColor;stroke-width:0.662727" d="m 32.441116,21.364125 c -0.826639,2.025136 -1.325257,3.351567 -2.245207,5.316479 0.564603,0.597752 1.256445,1.290426 2.379991,2.076597 -1.208377,-0.497282 -2.03124,-0.992961 -2.64768,-1.511079 -1.177266,2.455973 -3.023763,5.950999 -6.765866,12.67431 2.940913,-1.697512 5.381178,-2.742791 7.505739,-3.142422 -0.09144,-0.392101 -0.142333,-0.818128 -0.138561,-1.261119 l 0.0027,-0.09143 c 0.04619,-1.884134 0.868154,-3.555766 2.029398,-3.457741 1.161252,0.09802 1.838718,1.929888 1.79159,3.814014 -0.0085,0.3544 -0.04805,0.694657 -0.117819,1.010406 2.100991,0.411889 4.583963,1.454339 7.483306,3.128283 -0.572138,-1.052811 -1.084898,-2.000064 -1.572211,-2.903958 -0.76819,-0.595683 -1.567492,-1.370449 -3.201907,-2.209314 1.122601,0.29219 1.92944,0.627734 2.556251,1.004752 -4.957994,-9.23102 -5.360476,-10.457453 -7.059928,-14.447217 z" id="path6-5" class="ColorScheme-Text"/>
  </g>
</svg>
