<?xml version='1.0' encoding='UTF-8'?>
<svg xmlns:inkscape="http://www.inkscape.org/namespaces/inkscape" xmlns:sodipodi="http://sodipodi.sourceforge.net/DTD/sodipodi-0.dtd" xmlns:xlink="http://www.w3.org/1999/xlink" xmlns="http://www.w3.org/2000/svg" xmlns:svg="http://www.w3.org/2000/svg" xmlns:rdf="http://www.w3.org/1999/02/22-rdf-syntax-ns#" xmlns:cc="http://creativecommons.org/ns#" xmlns:dc="http://purl.org/dc/elements/1.1/" width="64" height="64" version="1.1" id="svg73" sodipodi:docname="x-office-contact.svg" inkscape:version="1.4 (e7c3feb100, 2024-10-09)">
  <metadata id="metadata77">
    <rdf:RDF>
      <cc:Work rdf:about="">
        <dc:format>image/svg+xml</dc:format>
        <dc:type rdf:resource="http://purl.org/dc/dcmitype/StillImage"/>
      </cc:Work>
    </rdf:RDF>
  </metadata>
  <sodipodi:namedview pagecolor="#f5f7fa" bordercolor="#666666" borderopacity="1" objecttolerance="10" gridtolerance="10" guidetolerance="10" inkscape:pageopacity="0" inkscape:pageshadow="2" inkscape:window-width="1183" inkscape:window-height="669" id="namedview75" showgrid="false" inkscape:zoom="4.4470387" inkscape:cx="19.451146" inkscape:cy="8.3201435" inkscape:window-x="253" inkscape:window-y="177" inkscape:window-maximized="0" inkscape:current-layer="g877" inkscape:document-rotation="0" inkscape:pagecheckerboard="0" inkscape:showpageshadow="2" inkscape:deskcolor="#d1d1d1"/>
  <defs id="defs29">
    <style id="current-color-scheme" type="text/css">.ColorScheme-Text {color:#d8dee9} .ColorScheme-Highlight {color:#3b4252}</style></defs>
  <g id="g877" transform="matrix(1.1,0,0,1.1,-3.1845928,-3.2065454)" style="">
    <path style="opacity:1;baseline-shift:baseline;display:inline;overflow:visible;vector-effect:none;fill:currentColor;enable-background:accumulate;stop-color:#000000;stop-opacity:1" d="m 19.662109,8.8378906 c -3.322035,0 -6.02539,2.6861674 -6.02539,5.9980474 v 34.572265 c 0,3.31188 2.703355,6 6.02539,6 h 24.738282 c 3.322035,0 6.027343,-2.68812 6.027343,-6 V 14.835938 c 0,-3.31188 -2.705308,-5.9980474 -6.027343,-5.9980474 z m 0,1.6347654 h 24.738282 c 2.448644,0 4.390625,1.933707 4.390625,4.363282 v 34.572265 c 0,2.429575 -1.941981,4.363281 -4.390625,4.363281 H 19.662109 c -2.448644,0 -4.390625,-1.933706 -4.390625,-4.363281 V 14.835938 c 0,-2.429575 1.941981,-4.363282 4.390625,-4.363282 z" class="ColorScheme-Text" id="rect246"/>
  <path d="m 42.543997,28.879314 c 0,1.414636 -0.229078,2.695909 -0.686454,3.843818 -0.45,1.140545 -1.079187,2.021727 -1.890004,2.644364 -0.803454,0.624272 -1.70591,0.936818 -2.705731,0.936818 -0.778911,0 -1.381908,-0.167728 -1.808993,-0.504 -0.424635,-0.333818 -0.637359,-0.834546 -0.637359,-1.503 l 0.03436,-0.801 h -0.07118 c -0.519546,0.936 -1.165091,1.640454 -1.935818,2.112545 -0.762546,0.463909 -1.589728,0.695455 -2.47991,0.695455 -1.23709,0 -2.198454,-0.387818 -2.885726,-1.162637 -0.675818,-0.777272 -1.013728,-1.853181 -1.013728,-3.228545 0,-1.246909 0.251182,-2.407091 0.754364,-3.478909 0.513,-1.071818 1.226454,-1.924364 2.139546,-2.557637 0.913908,-0.630818 1.926,-0.945818 3.03709,-0.945818 1.72391,0 2.908632,0.692182 3.556627,2.078182 h 0.07119 l 0.460633,-1.824545 h 1.84255 l -1.37291,5.769818 c -0.28883,1.247727 -0.432819,2.209091 -0.432819,2.885727 0,0.715091 0.318276,1.072636 0.955638,1.072636 0.628365,0 1.20682,-0.262637 1.734545,-0.788727 0.53591,-0.523636 0.958091,-1.244454 1.264909,-2.164091 0.307625,-0.922091 0.460637,-1.942363 0.460637,-3.061636 0,-1.360636 -0.302712,-2.565 -0.909001,-3.612273 -0.606282,-1.057091 -1.480102,-1.867909 -2.622288,-2.43 -1.142181,-0.571091 -2.478264,-0.856636 -4.007444,-0.856636 -1.905545,0 -3.590181,0.406636 -5.056363,1.221545 -1.463728,0.814091 -2.613274,1.989 -3.447818,3.524728 -0.835364,1.527545 -1.252637,3.242454 -1.252637,5.14309 0,1.46782 0.306818,2.764637 0.921273,3.890455 0.621,1.116818 1.514454,1.976727 2.681182,2.578909 1.174908,0.599727 2.54209,0.900002 4.100726,0.900002 1.142182,0 2.29991,-0.144827 3.472365,-0.433638 1.175719,-0.282274 2.391534,-0.753546 3.649084,-1.413 l 0.649638,1.277182 c -1.139729,0.659456 -2.380098,1.16182 -3.720272,1.506272 -1.331178,0.350183 -2.681996,0.525275 -4.050815,0.525275 -1.899,0 -3.561544,-0.365728 -4.987636,-1.097184 -1.41709,-0.721636 -2.502818,-1.752545 -3.259636,-3.092727 -0.748636,-1.344273 -1.122546,-2.890636 -1.122546,-4.638273 0,-2.129727 0.488455,-4.065545 1.465364,-5.807454 0.983454,-1.742728 2.346546,-3.096 4.088454,-4.060637 1.740274,-0.972818 3.688364,-1.459636 5.844274,-1.459636 1.90145,0 3.540263,0.345273 4.917265,1.035818 1.379455,0.684818 2.430817,1.653546 3.154095,2.907 0.733909,1.257546 1.101273,2.714727 1.101276,4.372364 z m -7.162365,0.09327 c 0,-0.777272 -0.25935,-1.402363 -0.778905,-1.874454 -0.519544,-0.477818 -1.212544,-0.717546 -2.078181,-0.717546 -0.796091,0 -1.505455,0.243818 -2.128091,0.729819 -0.613636,0.478636 -1.098818,1.147909 -1.45309,2.007 -0.354274,0.851727 -0.531819,1.775454 -0.531819,2.771181 0,0.913091 0.185726,1.628182 0.556363,2.146091 0.377182,0.515455 0.955637,0.773182 1.735364,0.773182 0.985092,0 1.886728,-0.399273 2.705728,-1.197 0.820636,-0.797727 1.387636,-1.793454 1.700996,-2.987182 0.180803,-0.701181 0.271651,-1.252636 0.271651,-1.654363 z" fill-opacity="0.5" fill-rule="nonzero" id="path3-3" style="fill:currentColor;fill-opacity:1;stroke-width:0.818181" class="ColorScheme-Text"/>
  </g>
</svg>
