<?xml version='1.0' encoding='UTF-8'?>
<svg xmlns:inkscape="http://www.inkscape.org/namespaces/inkscape" xmlns:sodipodi="http://sodipodi.sourceforge.net/DTD/sodipodi-0.dtd" xmlns="http://www.w3.org/2000/svg" xmlns:svg="http://www.w3.org/2000/svg" xmlns:rdf="http://www.w3.org/1999/02/22-rdf-syntax-ns#" xmlns:cc="http://creativecommons.org/ns#" xmlns:dc="http://purl.org/dc/elements/1.1/" width="64" height="64" version="1.1" viewBox="0 0 16.933 16.933" id="svg7" sodipodi:docname="cpu.svg" inkscape:version="1.4.2 (ebf0e940d0, 2025-05-08)">
  <sodipodi:namedview id="namedview7" pagecolor="#9c4444" bordercolor="#000000" borderopacity="0.25" inkscape:showpageshadow="2" inkscape:pageopacity="0.0" inkscape:pagecheckerboard="0" inkscape:deskcolor="#d1d1d1" inkscape:zoom="3.078125" inkscape:cx="-11.695431" inkscape:cy="47.431472" inkscape:window-width="2560" inkscape:window-height="1376" inkscape:window-x="0" inkscape:window-y="0" inkscape:window-maximized="1" inkscape:current-layer="svg7" showgrid="false"/>
  <defs id="defs2">
    <style id="current-color-scheme" type="text/css">.ColorScheme-Text {color:#d8dee9} .ColorScheme-Highlight {color:#3b4252}</style>
  </defs>
  <metadata id="metadata2">
    <rdf:RDF>
      <cc:Work rdf:about="">
        <dc:format>image/svg+xml</dc:format>
        <dc:type rdf:resource="http://purl.org/dc/dcmitype/StillImage"/>
      </cc:Work>
    </rdf:RDF>
  </metadata>
  <path id="rect4283" class="ColorScheme-Text" style="fill:currentColor;fill-opacity:1;stroke-width:0.203522" d="M 3.1749373,3.1749373 V 5.0066321 L 3.9890236,5.6171971 3.1749373,6.0242403 V 13.758063 H 13.758063 V 3.1749373 Z m 9.7690387,1.6281731 h 0.203522 V 5.0066321 H 13.35102 V 5.2101538 H 13.147498 V 5.4136754 H 13.35102 V 5.6171971 H 13.147498 V 5.8207187 H 13.35102 V 6.0242403 H 13.147498 V 6.2277619 H 13.35102 V 6.4312836 H 13.147498 V 6.6348053 H 13.35102 V 6.838327 H 13.147498 V 7.0418486 H 13.35102 V 7.2453702 H 13.147498 V 7.4488918 H 13.35102 V 7.6524135 H 13.147498 V 7.8559352 H 13.35102 V 8.0594567 H 13.147498 V 7.8559352 H 12.943976 V 7.6524135 h 0.203522 V 7.4488918 H 12.943976 V 7.2453702 h 0.203522 V 7.0418486 H 12.943976 V 6.838327 h 0.203522 V 6.6348053 H 12.943976 V 6.4312836 h 0.203522 V 6.2277619 H 12.943976 V 6.0242403 h 0.203522 V 5.8207187 H 12.943976 V 5.6171971 h 0.203522 V 5.4136754 H 12.943976 V 5.2101538 h 0.203522 V 5.0066321 H 12.943976 Z M 5.0066318,5.0066321 H 11.926368 V 11.926368 H 5.0066318 Z m 5.4950842,0.2035217 v 0.2035216 h 0.203522 0.20352 V 5.2101538 h -0.20352 z m 0.407042,0.2035216 v 0.2035217 h -0.20352 -0.203522 v 0.2035216 0.2035216 0.2035216 h 0.203522 V 6.0242403 5.8207187 h 0.203521 v 0.2035216 0.2035216 h 0.203523 0.203521 0.203523 V 6.0242403 H 11.315802 V 5.8207187 H 11.112281 V 5.6171971 h 0.203521 V 5.4136754 h -0.203521 z m 0.407044,0 h 0.203523 V 5.2101538 h -0.203523 z m 0,0.2035217 v 0.2035216 h 0.203523 V 5.6171971 Z M 7.7541739,7.0418486 c -0.098657,0 -0.178081,0.079424 -0.178081,0.1780814 0,0.098657 0.079424,0.1780814 0.178081,0.1780814 0.098657,0 0.1780811,-0.079424 0.1780811,-0.1780814 0,-0.098657 -0.079424,-0.1780814 -0.1780811,-0.1780814 z m 1.1193688,0 L 8.4664996,7.4488918 9.0770646,8.0594567 8.4664996,8.6700218 8.8735427,9.077065 9.4841078,8.4665 9.8911511,8.0594567 9.4841078,7.6524135 Z M 7.3089709,8.1103372 c -0.147985,0 -0.2671227,0.1191354 -0.2671227,0.2671222 0,0.1479846 0.1191377,0.2671221 0.2671227,0.2671221 0.1479857,0 0.267122,-0.1191375 0.267122,-0.2671221 0,-0.1479868 -0.1191363,-0.2671222 -0.267122,-0.2671222 z m 0.8013658,1.0684886 c -0.1973139,0 -0.3561628,0.1588487 -0.3561628,0.3561629 0,0.1973144 0.1588489,0.3561624 0.3561628,0.3561624 0.1973147,0 0.3561629,-0.158848 0.3561629,-0.3561624 0,-0.1973142 -0.1588482,-0.3561629 -0.3561629,-0.3561629 z m 4.8336393,0.9158482 h 0.203522 v 0.20352 h 0.203522 v 0.203522 h -0.203522 v 0.203522 h 0.203522 v 0.203521 h -0.203522 v 0.203523 h 0.203522 v 0.20352 h -0.203522 v 0.203523 h 0.203522 v 0.203522 h -0.203522 v 0.203521 h -0.203522 v -0.203521 h 0.203522 v -0.203522 h -0.203522 v -0.203523 h 0.203522 v -0.20352 h -0.203522 v -0.203523 h 0.203522 v -0.203521 h -0.203522 v -0.203522 h 0.203522 v -0.203522 h -0.203522 z m -7.530301,0.814085 v 0.203523 h 1.6281732 v -0.203523 z m 0,0.407043 v 0.203523 h 0.8140869 v -0.203523 z m -1.2211302,1.221131 h 0.2035219 v 0.203522 h 0.203522 v -0.203522 h 0.2035219 v 0.203522 h 0.2035212 v -0.203522 h 0.203522 v 0.203522 H 5.413675 v -0.203522 h 0.2035219 v 0.203522 H 5.8207181 V 12.536933 H 6.02424 v 0.203522 h 0.2035219 v -0.203522 h 0.2035219 v 0.203522 H 6.6348051 V 12.536933 H 6.838327 v 0.203522 h 0.2035212 v -0.203522 h 0.2035221 v 0.203522 h 0.2035211 v 0.203521 H 7.2453702 v -0.203521 h -0.203522 v 0.203521 H 6.838327 V 12.740455 H 6.6348051 v 0.203521 H 6.4312838 V 12.740455 H 6.2277619 v 0.203521 H 6.02424 V 12.740455 H 5.8207181 v 0.203521 H 5.6171969 V 12.740455 H 5.413675 v 0.203521 H 5.2101538 v -0.203521 h -0.203522 v 0.203521 H 4.8031106 V 12.740455 H 4.5995887 v 0.203521 H 4.3960667 V 12.740455 H 4.1925448 Z m 5.0880411,0 h 0.2035219 v 0.203522 h 0.2035216 v -0.203522 h 0.2035217 v 0.203522 h 0.2035219 v -0.203522 h 0.203521 v 0.203522 h 0.203522 v -0.203522 h 0.203522 v 0.203522 h 0.203521 v -0.203522 h 0.203523 v 0.203522 h 0.203521 v -0.203522 h 0.203523 v 0.203522 h 0.203521 v -0.203522 h 0.203522 v 0.203522 h 0.203521 v -0.203522 h 0.203522 v 0.203522 h -0.203523 v 0.203521 h -0.203521 v -0.203521 h -0.203522 v 0.203521 h -0.203521 v -0.203521 h -0.203523 v 0.203521 h -0.203521 v -0.203521 h -0.203523 v 0.203521 h -0.20352 v -0.203521 h -0.203522 v 0.203521 h -0.203522 v -0.203521 h -0.203521 v 0.203521 H 9.8911511 V 12.740455 H 9.6876294 v 0.203521 H 9.4841078 V 12.740455 H 9.2805859 v 0.203521 H 9.0770646 v -0.203521 h 0.2035213 z m 3.8669121,0 v 0.407043 h -0.407044 z"/>
</svg>
