<?xml version='1.0' encoding='UTF-8'?>
<svg xmlns:inkscape="http://www.inkscape.org/namespaces/inkscape" xmlns:sodipodi="http://sodipodi.sourceforge.net/DTD/sodipodi-0.dtd" xmlns="http://www.w3.org/2000/svg" xmlns:svg="http://www.w3.org/2000/svg" xmlns:rdf="http://www.w3.org/1999/02/22-rdf-syntax-ns#" xmlns:cc="http://creativecommons.org/ns#" xmlns:dc="http://purl.org/dc/elements/1.1/" id="svg3297" height="64" width="64" version="1.0" sodipodi:docname="multimedia-player.svg" inkscape:version="1.4.2 (ebf0e940d0, 2025-05-08)">
  <sodipodi:namedview id="namedview1" pagecolor="#9c4444" bordercolor="#000000" borderopacity="0.25" inkscape:showpageshadow="2" inkscape:pageopacity="0.0" inkscape:pagecheckerboard="0" inkscape:deskcolor="#d1d1d1" inkscape:zoom="9.2586795" inkscape:cx="71.824497" inkscape:cy="24.409528" inkscape:window-width="2560" inkscape:window-height="1380" inkscape:window-x="0" inkscape:window-y="0" inkscape:window-maximized="1" inkscape:current-layer="svg3297"/>
  <metadata id="metadata58">
    <rdf:RDF>
      <cc:Work rdf:about="">
        <dc:format>image/svg+xml</dc:format>
        <dc:type rdf:resource="http://purl.org/dc/dcmitype/StillImage"/>
      </cc:Work>
    </rdf:RDF>
  </metadata>
  <defs id="defs3299">
    <style id="current-color-scheme" type="text/css">.ColorScheme-Text {color:#d8dee9} .ColorScheme-Highlight {color:#3b4252}</style>
  </defs>
  <path id="path6189" style="fill:currentColor;stroke-width:0.0846368" d="m 24.322415,12.000027 c -5.718539,-0.0011 -5.827432,0.03184 -6.176951,0.162636 -0.585703,0.219141 -1.260883,0.818198 -1.55919,1.383614 l -0.228038,0.432293 -0.02205,17.874375 c -0.02177,17.74478 -0.02055,17.877098 0.148996,18.3301 0.309534,0.827295 1.045859,1.481807 1.940768,1.724609 0.301385,0.08178 3.340843,0.101381 13.759206,0.0889 l 13.372381,-0.01614 0.47921,-0.235374 c 0.62971,-0.309193 1.13572,-0.81148 1.41264,-1.40215 l 0.22419,-0.478432 V 31.963819 14.063213 l -0.29032,-0.535122 c -0.31868,-0.587706 -0.75828,-1.011918 -1.35357,-1.305269 l -0.38758,-0.19061 -13.514735,-0.02237 c -3.369481,-0.0056 -5.898861,-0.0094 -7.805038,-0.0097 z m 7.538185,3.479672 c 8.671097,-0.01664 11.726757,0.0029 11.902727,0.07555 0.50214,0.207284 0.48266,-0.120765 0.48266,8.139755 0,5.319437 -0.0278,7.646281 -0.094,7.835468 -0.0523,0.150533 -0.19986,0.323897 -0.33436,0.393479 -0.20832,0.107714 -1.79139,0.123931 -11.818437,0.119262 -6.368046,-0.0031 -11.659983,-0.03846 -11.75974,-0.0787 -0.476015,-0.1921 -0.453279,0.218326 -0.453279,-8.224393 v -7.763067 l 0.204256,-0.237479 0.204254,-0.237479 z m -2.703228,4.532422 c -0.137762,-0.0047 -0.321118,0.0736 -0.444183,0.189218 l -0.209505,0.196912 v 3.355855 3.355861 l 0.190265,0.173476 c 0.10474,0.09528 0.247399,0.19194 0.317221,0.215099 0.06982,0.02321 0.259207,-0.01164 0.420747,-0.0773 0.7077,-0.287764 5.779781,-3.117972 5.930035,-3.308989 0.216407,-0.275107 0.210044,-0.46761 -0.02416,-0.736576 -0.25466,-0.292509 -5.878926,-3.353388 -6.180445,-3.363557 z m 9.417745,13.406657 c 1.75696,0.08516 2.90839,1.483433 2.76689,3.360402 -0.0882,1.169031 -0.78843,2.165752 -1.78094,2.534999 -1.962293,0.730033 -3.850832,-0.470537 -4.00745,-2.547938 -0.148028,-1.963506 1.1816,-3.436653 3.0215,-3.347463 z m -13.033818,0.02662 c 0.709786,-6.21e-4 0.860666,0.02756 1.286729,0.236784 0.610472,0.299784 1.186928,0.933033 1.424888,1.565482 0.15434,0.410186 0.176559,0.615988 0.148295,1.371374 -0.0286,0.764023 -0.06588,0.951147 -0.264755,1.335675 -0.42864,0.828798 -1.151787,1.364494 -2.080671,1.540652 -0.507403,0.09625 -0.580887,0.09605 -1.076883,-0.0021 -0.850384,-0.168302 -1.713608,-0.85993 -2.090114,-1.674595 -0.153885,-0.332965 -0.182919,-0.549976 -0.182919,-1.368929 0,-0.946877 0.008,-0.98782 0.28854,-1.505328 0.326885,-0.602844 0.664082,-0.930871 1.301771,-1.266448 0.391023,-0.205775 0.532543,-0.232229 1.245116,-0.232591 z m 13.035568,8.537427 c 1.43782,0.04286 2.64698,1.201819 2.76618,2.782965 0.10555,1.400263 -0.51896,2.558999 -1.66762,3.094242 -0.67951,0.316653 -1.645818,0.348776 -2.291214,0.07627 -1.272093,-0.537108 -1.941706,-1.696724 -1.830596,-3.170493 0.107936,-1.431621 1.011216,-2.46148 2.395442,-2.731203 0.212216,-0.04176 0.422408,-0.05796 0.627808,-0.05177 z m -13.035568,0.02728 c 0.359069,0.0028 0.792732,0.06379 0.998538,0.139898 0.808735,0.29934 1.471223,0.973153 1.74176,1.771495 0.202573,0.597756 0.184448,1.79054 -0.03629,2.380747 -0.228544,0.610822 -0.813367,1.25107 -1.408095,1.54205 -0.568851,0.278296 -1.641262,0.36375 -2.155517,0.171742 -0.845034,-0.315651 -1.332935,-0.742382 -1.747708,-1.528559 -0.209376,-0.396875 -0.228043,-0.512057 -0.228043,-1.405646 0,-1.14469 0.128071,-1.514042 0.757211,-2.186646 0.558851,-0.597533 1.249355,-0.891752 2.078184,-0.885255 z" class="ColorScheme-Text"/>
</svg>
