<?xml version='1.0' encoding='UTF-8'?>
<!-- Created with Inkscape (http://www.inkscape.org/) -->
<svg xmlns:inkscape="http://www.inkscape.org/namespaces/inkscape" xmlns:sodipodi="http://sodipodi.sourceforge.net/DTD/sodipodi-0.dtd" xmlns="http://www.w3.org/2000/svg" xmlns:svg="http://www.w3.org/2000/svg" width="64" version="1.1" height="64" id="svg1" sodipodi:docname="phone.svg" inkscape:version="1.4.2 (ebf0e940d0, 2025-05-08)">
  <sodipodi:namedview id="namedview1" pagecolor="#9c4444" bordercolor="#000000" borderopacity="0.25" inkscape:showpageshadow="2" inkscape:pageopacity="0.0" inkscape:pagecheckerboard="0" inkscape:deskcolor="#d1d1d1" inkscape:zoom="16" inkscape:cx="16.3125" inkscape:cy="29.25" inkscape:window-width="2560" inkscape:window-height="1380" inkscape:window-x="0" inkscape:window-y="0" inkscape:window-maximized="1" inkscape:current-layer="svg1"/>
  <defs id="defs5455">
    <style id="current-color-scheme" type="text/css">.ColorScheme-Text {color:#d8dee9} .ColorScheme-Highlight {color:#3b4252}</style>
  </defs>
  <metadata id="metadata5458"/>
  <path id="rect4232" style="fill:currentColor;fill-opacity:1;stroke-width:1.38798" class="ColorScheme-Text" d="m 22.355038,12 c -0.633171,0 -1.142409,0.509238 -1.142409,1.142408 v 37.715184 c 0,0.63317 0.509238,1.142408 1.142409,1.142408 h 19.289925 c 0.633169,0 1.142408,-0.509238 1.142408,-1.142408 V 13.142408 C 42.787371,12.509238 42.278132,12 41.644963,12 Z m 6.178436,1.42801 h 6.933053 c 0.320185,0 0.579065,0.25626 0.579065,0.576445 v 0.275121 c 0,0.320185 -0.25888,0.576445 -0.579065,0.576445 h -6.933053 c -0.320185,0 -0.579066,-0.25626 -0.579066,-0.576445 v -0.275121 c 0,-0.320185 0.258881,-0.576445 0.579066,-0.576445 z m -5.97406,2.85602 H 41.440587 V 47.71597 H 22.559414 Z m 10.64588,8.028298 -2.554698,0.246299 v 10.52535 l 2.528494,-0.382549 v -4.485786 l 3.401023,4.978384 2.664745,-0.846325 -3.482248,-4.787109 3.50845,-4.514608 -2.717149,-0.623608 -3.374821,4.514608 0.0262,-4.622036 z m -5.790647,2.565177 v 0.0026 c -0.029,0.0043 -0.05965,0.01016 -0.08123,0.03144 l -1.006156,1.006157 c -0.04215,0.04243 -0.04644,0.106153 -0.01572,0.157214 l 1.17385,1.938949 c -0.208408,0.350314 -0.378689,0.725662 -0.497838,1.124065 l -2.156426,0.448055 c -0.06,0.01286 -0.102188,0.06958 -0.102188,0.131011 v 1.417528 c 0,0.06 0.04404,0.111484 0.102188,0.12577 l 2.090922,0.508319 c 0.111862,0.461277 0.284962,0.902828 0.513558,1.30486 l -1.210532,1.844623 c -0.03372,0.05157 -0.02828,0.121556 0.01572,0.165073 l 1.003537,1.003536 c 0.04214,0.04214 0.108788,0.04644 0.159833,0.01572 l 1.899646,-1.150269 c 0.372616,0.215138 0.775092,0.385683 1.200052,0.500459 l 0.442815,2.130224 c 0.01286,0.06014 0.06434,0.104808 0.125768,0.104808 h 1.42015 c 0.05958,0 0.111768,-0.04114 0.125769,-0.09957 l 0.524041,-2.140715 c 0.438276,-0.11829 0.849263,-0.293818 1.231495,-0.5188 l 1.873443,1.228875 c 0.05157,0.03357 0.121415,0.028 0.165075,-0.01572 l 0.998295,-1.006158 c 0.04243,-0.04243 0.05197,-0.106297 0.02096,-0.157212 l -0.681253,-1.124066 -0.225337,0.07074 c -0.03229,0.0086 -0.06718,-0.0069 -0.08647,-0.03406 0,0 -0.430561,-0.63334 -0.993057,-1.456832 -0.672714,1.316371 -2.046233,2.216691 -3.626358,2.216691 -2.245339,0 -4.066554,-1.821199 -4.066554,-4.066553 0,-1.651599 0.988406,-3.071101 2.402725,-3.707586 v -1.04808 c -0.257411,0.09 -0.505164,0.198762 -0.741517,0.327525 v -0.0026 -0.0026 l -1.91799,-1.255064 c -0.02572,-0.01671 -0.05251,-0.02106 -0.08123,-0.01834 z"/>
</svg>
