<?xml version='1.0' encoding='UTF-8'?>
<svg xmlns:inkscape="http://www.inkscape.org/namespaces/inkscape" xmlns:sodipodi="http://sodipodi.sourceforge.net/DTD/sodipodi-0.dtd" xmlns="http://www.w3.org/2000/svg" xmlns:svg="http://www.w3.org/2000/svg" xmlns:rdf="http://www.w3.org/1999/02/22-rdf-syntax-ns#" xmlns:cc="http://creativecommons.org/ns#" xmlns:dc="http://purl.org/dc/elements/1.1/" width="64" height="64" version="1.1" viewBox="0 0 16.933 16.933" id="svg7" sodipodi:docname="network-server.svg" inkscape:version="1.4.2 (ebf0e940d0, 2025-05-08)">
  <sodipodi:namedview id="namedview7" pagecolor="#9c4444" bordercolor="#000000" borderopacity="0.25" inkscape:showpageshadow="2" inkscape:pageopacity="0.0" inkscape:pagecheckerboard="0" inkscape:deskcolor="#d1d1d1" inkscape:zoom="4.3531261" inkscape:cx="36.755195" inkscape:cy="26.073217" inkscape:window-width="1280" inkscape:window-height="669" inkscape:window-x="0" inkscape:window-y="0" inkscape:window-maximized="0" inkscape:current-layer="svg7" showgrid="false"/>
  <defs id="defs2">
    <style id="current-color-scheme" type="text/css">.ColorScheme-Text {color:#d8dee9} .ColorScheme-Highlight {color:#3b4252}</style>
  </defs>
  <metadata id="metadata2">
    <rdf:RDF>
      <cc:Work rdf:about="">
        <dc:format>image/svg+xml</dc:format>
        <dc:type rdf:resource="http://purl.org/dc/dcmitype/StillImage"/>
      </cc:Work>
    </rdf:RDF>
  </metadata>
  <path id="path59" style="fill:currentColor;fill-opacity:1;stroke:none;stroke-width:0.144548;stroke-dasharray:none;stroke-dashoffset:2.2;stroke-opacity:0.6" d="m 8.4871931,3.1939229 c -5.3678111,0 -5.1556119,-0.00805 -5.2690146,0.20384 -0.026231,0.049012 -0.042729,0.5241406 -0.042729,1.2461547 0,1.2888434 0.00233,1.3023615 0.2626807,1.4156723 0.1059107,0.046097 0.9923109,0.056113 5.0245467,0.057439 4.4481171,0.00153 4.9089111,-0.00465 5.0378541,-0.065845 0.25835,-0.122599 0.26711,-0.1722751 0.253575,-1.4619033 L 13.742265,3.4341884 13.607772,3.3137073 13.472591,3.1939246 Z m 2.9266049,0.4511094 c 0.164034,0.00419 0.320288,0.072122 0.397877,0.1905313 0.151677,0.2314903 0.05494,0.5032843 -0.220653,0.6199253 -0.163542,0.069224 -0.243628,0.068906 -0.408379,-0.00278 -0.166933,-0.072655 -0.262681,-0.2131793 -0.262681,-0.3852673 0,-0.1809423 0.05815,-0.2825833 0.20524,-0.358646 0.08911,-0.046079 0.19018,-0.066237 0.288596,-0.063745 z m -1.5039291,0.00212 c 0.5027431,0 0.6390491,0.6172627 0.1772231,0.8020504 C 9.9112585,4.5195509 9.8836193,4.5207257 9.6969233,4.4667074 9.4366978,4.3913948 9.3246458,4.1098866 9.4545562,3.8586669 9.5281722,3.7163186 9.6778874,3.6471218 9.9098689,3.6471218 Z m 2.8152291,0 c 0.523777,0 0.687378,0.6085783 0.214348,0.7978476 -0.09194,0.036793 -0.189987,0.065088 -0.21785,0.063043 -0.442456,-0.03247 -0.632598,-0.4314524 -0.343231,-0.7208156 0.122081,-0.122106 0.166329,-0.1400952 0.346733,-0.1400952 z m -4.627372,0.20591 c 0.1006136,0 0.268284,0.1892743 0.268284,0.3026081 0,0.091652 -0.5312792,0.8386628 -0.8174607,1.1494879 C 7.3608444,5.5090269 7.0477051,5.4152842 7.0477051,5.1552555 7.0477051,5.047768 7.1316681,4.9099617 7.4616893,4.477891 7.8672164,3.9469625 7.9635596,3.853058 8.097726,3.853058 Z m -3.4463644,0.007 c 0.054775,-0.00609 0.104929,0.018854 0.1653133,0.063739 C 5.0249379,4.0785917 4.9912932,4.1984082 4.5932213,4.7216565 4.3964328,4.9803278 4.1880313,5.2428512 4.1302036,5.3051572 4.003859,5.4412868 3.8294327,5.4540946 3.7113169,5.3359842 3.5549535,5.1796223 3.6015136,5.0630524 4.0622571,4.4610846 4.3877098,4.035878 4.5308549,3.8734036 4.6513616,3.8600721 Z m 1.1641978,0.0014 c 0.018761,1e-4 0.037798,0.00346 0.057435,0.00844 0.1345179,0.033735 0.2436878,0.2018294 0.2122451,0.3271 C 6.0596275,4.2990479 5.370579,5.2214083 5.2271545,5.3457682 5.116043,5.4421082 4.9356819,5.4373492 4.8432915,5.3352572 4.6961778,5.1726984 4.7441884,5.0510692 5.1711174,4.4960834 5.5563603,3.9952899 5.6842232,3.8607464 5.8155594,3.8614479 Z m 1.093451,0.00844 C 7.0251448,3.8617823 7.15625,3.9187983 7.1864002,3.9973715 7.2543422,4.1744187 7.2032062,4.2851656 6.8165465,4.7938116 6.5985097,5.0806316 6.3904465,5.3384772 6.35493,5.3667998 6.1883516,5.4996285 5.8947144,5.3618098 5.8947144,5.151051 c 0,-0.1431947 0.8311395,-1.239811 0.9652623,-1.2734734 0.015621,-0.00393 0.032442,-0.00654 0.049033,-0.00771 z m 1.5340524,3.1058826 c -2.4686473,7.222e-4 -4.9322233,0.024139 -5.0196439,0.069347 -0.2462561,0.1273395 -0.2479703,0.135351 -0.2479703,1.4128707 0,0.7186927 0.016736,1.1975838 0.042729,1.2461547 0.023221,0.0434 0.092368,0.1065896 0.1541051,0.1400952 0.097255,0.052784 0.7794466,0.060904 5.1065035,0.062344 l 4.9937268,0.00136 0.135183,-0.1197823 0.134491,-0.1204813 0.01184,-1.1550926 C 13.767516,7.2171984 13.756403,7.152048 13.493454,7.042282 13.385401,6.9971366 10.911635,6.9749971 8.4429861,6.9757373 Z m 1.4541973,0.4644145 c 0.069688,0.00152 0.1387599,0.02256 0.2255539,0.063744 0.274733,0.1303696 0.333605,0.4710559 0.116985,0.6745631 -0.07326,0.068816 -0.165598,0.1014264 -0.3278189,0.1148768 C 9.6976122,8.3111673 9.678345,8.3042233 9.5407178,8.1665993 9.3033299,7.9292114 9.361277,7.6220882 9.6675066,7.4941378 c 0.08939,-0.037352 0.1600631,-0.055456 0.2297575,-0.053936 z m 2.8425479,0 c 0.06968,0.00152 0.138764,0.02256 0.225553,0.063744 0.274736,0.1303696 0.333611,0.4710559 0.116971,0.6745631 -0.07325,0.068815 -0.165601,0.1014248 -0.327824,0.1148816 -0.214359,0.017776 -0.233624,0.01084 -0.371255,-0.1267872 -0.237387,-0.2373888 -0.17944,-0.5445119 0.126789,-0.6724615 0.0894,-0.037352 0.160058,-0.055456 0.229756,-0.053936 z m -1.306392,0.00911 c 0.02224,0.00104 0.04377,0.00384 0.06443,0.00844 0.161943,0.035576 0.354034,0.1985136 0.386662,0.3285256 0.03732,0.1486768 -0.07258,0.3759911 -0.217852,0.4511103 C 11.429352,8.3601029 11.063565,8.2878093 10.96198,8.0979901 10.89344,7.9699062 10.91361,7.7448006 11.00332,7.6307693 11.09295,7.5168502 11.277593,7.441911 11.433413,7.4493454 Z M 4.6590672,7.6839978 c 0.1532248,0 0.2878967,0.1288431 0.2878967,0.2752887 0,0.137284 -0.7948952,1.1985071 -0.9386437,1.2531599 -0.13336,0.050712 -0.1480593,0.048448 -0.2710859,-0.048328 C 3.5513837,9.0179312 3.5886487,8.8979256 3.9817014,8.3774817 4.4753997,7.7237754 4.5146616,7.6840066 4.6590672,7.684005 Z m 1.1740048,0 c 0.1063798,0 0.2675833,0.1737024 0.2675833,0.2885976 0,0.098892 -0.8224814,1.1783685 -0.9393449,1.2328462 -0.1093327,0.050968 -0.122136,0.050744 -0.2409644,0.0028 C 4.8073576,9.1626672 4.7775558,9.1125864 4.7732451,8.9609864 4.7705731,8.8665552 4.8660933,8.7123329 5.1914326,8.2850225 5.6190523,7.7233738 5.6610457,7.6840106 5.8330726,7.6840106 Z m 1.1074598,0.00144 c 0.078565,-0.00328 0.1558114,0.02048 0.2038399,0.073552 C 7.2896829,7.9195641 7.2359117,8.0551393 6.799035,8.6254912 6.5714281,8.9226329 6.3500819,9.1846896 6.3072967,9.207588 6.2645147,9.230492 6.1995004,9.24962 6.1629988,9.24962 c -0.099622,0 -0.268284,-0.1892215 -0.268284,-0.3005055 0,-0.086387 0.5718927,-0.8902879 0.8342716,-1.1726054 0.053256,-0.057296 0.1329802,-0.087785 0.211546,-0.091058 z m 1.112363,0.00352 C 8.2408812,7.6688298 8.4010179,7.828473 8.3527004,8.0209858 8.3203804,8.1497706 7.5644589,9.1327536 7.4483804,9.197084 7.3359884,9.259364 7.2975373,9.259724 7.1920041,9.199884 6.9420668,9.0581568 6.9844578,8.9141448 7.4616885,8.2885609 7.6894804,7.9899577 7.9187036,7.728809 7.9709388,7.7085634 c 0.027488,-0.010672 0.055104,-0.016736 0.081956,-0.019616 z m 0.4342983,3.1255382 c -5.3678003,0 -5.1556133,-0.0081 -5.2690146,0.203839 -0.058527,0.109327 -0.05724,2.36943 0.0014,2.479003 0.024098,0.04506 0.1029296,0.117795 0.1751201,0.161808 0.1280234,0.07805 0.2520689,0.07969 5.044861,0.07984 5.3901394,1.69e-4 5.1266544,0.01229 5.2599064,-0.24517 0.05731,-0.110825 0.06511,-0.285493 0.05466,-1.283277 l -0.01185,-1.155792 -0.134493,-0.119774 -0.135182,-0.120476 z m 1.2958886,0.454616 c 0.03408,-2.59e-4 0.075304,0.0031 0.1288841,0.0078 0.1622222,0.01333 0.2545752,0.04537 0.3278252,0.114168 0.216622,0.203507 0.157753,0.544193 -0.116982,0.674565 -0.1703947,0.08086 -0.2924529,0.08323 -0.4644177,0.0083 C 9.3604706,11.944279 9.3065938,11.636985 9.5407114,11.402868 9.6439306,11.299642 9.6808298,11.269844 9.7830777,11.26908 Z m 1.5648733,0 c 0.227395,-0.01499 0.452257,0.103001 0.518358,0.30331 0.05709,0.172957 0.0018,0.321672 -0.164614,0.444805 -0.315691,0.233444 -0.781737,0.03758 -0.781737,-0.328528 0,-0.180941 0.05815,-0.282586 0.20524,-0.358646 0.07052,-0.03648 0.146963,-0.05595 0.222753,-0.06094 z m 1.277678,0 c 0.03408,-2.59e-4 0.07529,0.0031 0.128886,0.0078 0.16222,0.01333 0.254574,0.04537 0.327828,0.114168 0.216622,0.203508 0.157746,0.544195 -0.116986,0.674567 -0.170398,0.08086 -0.292454,0.08323 -0.46442,0.0084 -0.297922,-0.129667 -0.351797,-0.436945 -0.117675,-0.671064 0.103211,-0.103211 0.140113,-0.133024 0.242368,-0.133788 z m -4.5440182,0.204539 c 0.1136856,0 0.2843952,0.18158 0.2843952,0.30261 0,0.09162 -0.53128,0.838666 -0.8174607,1.14949 -0.1953257,0.212143 -0.5008445,0.114902 -0.5008445,-0.15971 0,-0.09111 0.096567,-0.250038 0.3740564,-0.615025 0.4201824,-0.55267 0.541408,-0.677365 0.6598536,-0.677365 z m -3.3952289,0.01034 c 0.043498,0.0042 0.085443,0.02713 0.1337924,0.06302 0.2032871,0.151062 0.1688214,0.27301 -0.2255551,0.794347 -0.1960045,0.2591 -0.4044391,0.521896 -0.4630175,0.584203 -0.1279109,0.136007 -0.3023011,0.148762 -0.4202879,0.03077 -0.1559921,-0.15599 -0.1092217,-0.272514 0.3488387,-0.869998 0.3536598,-0.461305 0.4957407,-0.615205 0.6262303,-0.602413 z m 1.117966,0.007 c 0.1053726,0.0031 0.2174934,0.06895 0.2626799,0.168115 0.065431,0.143605 0.00325,0.257731 -0.4700217,0.865093 -0.3496315,0.448682 -0.3987578,0.495286 -0.5302638,0.506449 -0.1047746,0.0088 -0.1657778,-0.01124 -0.2213512,-0.07286 -0.1505907,-0.166376 -0.1034269,-0.283182 0.3460368,-0.862267 0.2325038,-0.299557 0.4632945,-0.563069 0.5127518,-0.585601 0.03095,-0.01409 0.065045,-0.01995 0.1001672,-0.01894 z m 1.1018565,6.94e-4 c 0.099506,-0.0049 0.2253571,0.04814 0.2745876,0.121888 0.096369,0.144324 0.024799,0.29923 -0.3845634,0.827969 -0.2279145,0.29438 -0.4359067,0.548483 -0.462317,0.565287 -0.1663672,0.105819 -0.4392012,-0.0399 -0.4392012,-0.234664 0,-0.144625 0.8347344,-1.240703 0.9708661,-1.274872 0.01283,-0.0031 0.026415,-0.0049 0.040629,-0.0053 z" class="ColorScheme-Text"/>
</svg>
