<svg width="256" height="256" viewBox="0 0 256 256" fill="none" xmlns="http://www.w3.org/2000/svg">
<g filter="url(#filter0_d_14_221)">
<path d="M138.073 178.549C134.909 180.042 131.86 181.54 128.75 182.901C128.124 183.175 127.17 183.154 126.538 182.879C124.184 181.858 121.901 180.675 119.594 179.55C118.752 179.14 117.913 178.726 116.997 178.275C116.919 182.078 117.812 183.411 121.187 184.483C123.231 185.132 125.314 185.657 127.387 186.21C127.682 186.289 128.037 186.276 128.334 186.194C130.267 185.663 132.203 185.137 134.117 184.542C137.125 183.607 138.293 181.839 138.073 178.549ZM115.973 159.854C115.917 159.886 115.862 159.918 115.805 159.949C115.805 164.121 115.699 168.296 115.87 172.46C115.921 173.727 116.375 175.436 117.273 176.126C120.153 178.342 123.286 180.249 126.424 182.101C127.083 182.489 128.381 182.467 129.04 182.068C132.03 180.25 134.914 178.252 137.792 176.255C138.204 175.969 138.58 175.353 138.625 174.858C139.061 170.053 139.423 165.24 139.805 160.429C139.642 160.414 139.477 160.4 139.313 160.386C138.743 163.873 138.174 167.359 137.61 170.806C130.849 169.687 124.256 169.716 117.664 170.83C117.091 167.114 116.531 163.484 115.973 159.854ZM97.2089 196.353C84.3986 184.485 75.6725 170.064 68.3967 154.387C65.5757 157.474 64.3434 161.01 63.9775 164.894C63.6126 168.778 64.1806 172.539 65.7319 176.143C57.3343 164.838 54.3804 145.677 71.1738 128.678C68.7654 128.776 63.5312 131.309 59.4966 134.835C56.1216 137.784 53.0704 141.103 50.0061 144.129C52.1853 134.068 54.9212 123.86 59.5434 114.061C58.1099 113.897 56.7897 113.745 55.2168 113.564C59.6239 109.142 65.0526 106.41 69.7853 102.724C61.8367 104.519 54.6049 107.849 48 112.628C54.7874 102.352 63.3918 94.0744 74.7752 88.8646C74.7396 88.7298 74.705 88.5942 74.6704 88.4594C71.3722 87.9916 68.0739 87.5237 64.5258 87.0204C68.1385 63.0568 73.5092 39.5191 81.4437 16.5427C81.4437 16.8599 81.4877 17.1855 81.4372 17.4943C80.4173 23.7081 81.8368 29.4718 84.4286 35.1008C89.1687 45.396 95.2066 54.7499 103.645 62.4271C104.686 63.374 105.818 64.2189 106.864 65.1602C107.411 65.6524 107.907 66.2185 108.351 66.808C109.716 68.6213 109.595 70.3869 108.739 72.5212C107.368 75.941 106.489 79.5593 105.401 83.0933C105.334 83.3104 105.258 83.5247 105.093 84.0187C93.9752 71.9148 84.2948 59.2515 80.9872 42.7106C80.6101 44.1488 80.1975 45.5803 79.8662 47.0297C79.5219 48.5352 79.1925 50.0501 78.968 51.578C78.081 57.6215 77.4606 63.6706 77.993 69.8068C78.4767 75.3778 79.724 80.7214 82.1642 85.7516C82.6629 86.7789 82.473 87.3291 81.6571 87.9738C78.9689 90.0978 76.3153 92.2667 73.6515 94.4225C73.2323 94.7612 72.8328 95.1233 72.4959 95.6183C77.9846 93.9228 83.5004 92.5848 89.207 92.233C89.3165 92.3397 89.4251 92.4463 89.5336 92.5539C88.6578 93.7787 87.9467 95.1775 86.8735 96.1927C84.4922 98.4458 81.978 100.568 79.4302 102.636C72.7944 108.022 67.4601 114.524 62.8913 121.696C62.1624 122.842 61.4419 123.993 60.4847 125.51C61.0452 125.144 61.2903 125.021 61.4924 124.848C65.6908 121.261 70.4187 118.685 75.7708 117.257C76.844 116.97 77.7198 117.037 78.6686 117.675C80.9207 119.19 83.2412 120.603 85.5448 122.065C84.8374 117.505 84.1348 112.973 83.4311 108.442C83.5462 108.436 83.6604 108.43 83.7755 108.425C85.0358 110.325 86.1165 112.383 87.6005 114.09C89.6842 116.489 92.0945 118.602 94.3064 120.894C95.0924 121.709 95.9008 122.603 96.3565 123.614C97.3249 125.768 98.2924 127.884 100.071 129.513C102.441 131.683 105.32 132.34 108.41 132.168C109.526 132.107 110.152 132.632 110.979 133.229C114.289 135.617 114.486 139.158 115.058 142.734C116.069 149.067 117.388 155.352 118.672 161.637C119.131 163.882 119.846 164.355 122.085 164.365C125.796 164.382 129.507 164.382 133.218 164.342C135.451 164.317 136.221 163.824 136.67 161.643C137.985 155.269 139.195 148.874 140.387 142.476C140.695 140.822 140.738 139.12 140.996 137.455C141.076 136.935 141.37 136.386 141.716 135.98C142.691 134.839 143.698 133.716 144.79 132.689C145.18 132.321 145.87 132.024 146.385 132.075C152.791 132.704 156.522 129.499 158.672 124.145C159.312 122.551 160.317 121.393 161.595 120.311C165.595 116.923 169.11 113.11 171.497 108.371C171.635 108.387 171.774 108.403 171.912 108.418C171.673 110.674 171.525 112.945 171.174 115.183C170.813 117.485 170.256 119.756 169.769 122.116C172.028 120.649 174.261 119.275 176.407 117.777C177.547 116.982 178.579 116.892 179.925 117.26C184.665 118.558 188.855 120.892 192.822 123.704C193.122 123.917 193.424 124.126 193.996 124.527C193.788 124.058 193.726 123.858 193.619 123.686C188.564 115.595 182.774 108.132 175.24 102.155C173.476 100.755 171.688 99.3778 170.005 97.8835C168.256 96.3303 166.727 94.5768 165.997 92.0917C172.063 92.5988 177.782 93.8582 183.406 95.7446C180.684 93.6 177.954 91.4667 175.242 89.3081C172.719 87.3001 172.724 87.287 174.011 84.334C176.133 79.4667 177.238 74.3476 177.53 69.0751C178.029 60.0552 176.969 51.1981 174.308 42.1343C172.728 50.5151 169.64 57.9172 165.378 64.8589C161.136 71.768 156.099 78.0388 150.346 84.058C150.148 83.186 150.047 82.4739 149.826 81.8012C148.593 78.0697 147.305 74.357 146.108 70.6143C145.918 70.021 145.923 69.251 146.131 68.6671C146.881 66.575 148.455 65.1537 150.109 63.7062C156.372 58.226 161.724 51.9252 165.715 44.6138C168.242 39.9822 170.358 35.1195 172.525 30.2999C174.379 26.1773 174.114 21.7843 173.773 17.4147C173.738 16.9534 173.677 16.494 173.786 16C181.674 39.0887 187.237 62.7406 191.192 86.9633C187.67 87.4676 184.273 87.9541 180.877 88.4416C180.818 88.552 180.758 88.6634 180.699 88.7747C192.081 94.0809 200.88 102.267 207.704 112.706C200.89 107.936 193.476 104.525 185.193 102.473C190.402 106.108 195.421 109.61 200.44 113.113C200.366 113.269 200.291 113.426 200.217 113.582C198.814 113.737 197.41 113.89 195.874 114.059C200.371 123.87 203.201 134.116 205.549 144.885C199.899 137.311 193.397 131.396 184.36 128.482C186.481 131.282 188.593 133.796 190.401 136.515C194.866 143.229 197.142 150.617 196.46 158.737C195.923 165.133 193.599 170.902 189.843 176.138C192.616 168.479 192.636 161.181 187.406 154.576C183.052 162.069 178.947 169.579 174.409 176.819C169.86 184.075 164.277 190.553 157.898 196.371C158.016 196.127 158.125 195.878 158.255 195.641C162.677 187.576 164.504 178.925 163.086 169.871C162.639 167.018 163.201 165.021 164.719 162.934C165.68 161.614 166.63 160.287 167.76 158.723C169.299 160.487 170.699 162.091 172.205 163.817C173.833 161.075 175.447 158.356 177.063 155.638C177.758 154.469 178.562 153.351 179.125 152.123C179.649 150.979 180.429 150.695 181.576 150.762C182.827 150.834 184.085 150.778 185.474 150.778C185.012 146.105 183.789 141.806 181.419 137.905C179.694 135.065 178.633 132.056 179.346 128.803C179.88 126.369 181 124.062 181.888 121.709C182.066 121.24 182.378 120.822 182.728 120.201C180.923 119.922 179.275 119.622 177.613 119.449C177.252 119.411 176.703 119.736 176.477 120.06C173.698 124.05 171.626 128.332 171.726 133.326C171.753 134.692 172.262 136.058 172.637 137.401C172.733 137.743 173.107 138.153 173.441 138.262C177.62 139.622 179.64 142.881 181.01 146.734C181.056 146.864 181.107 146.994 181.215 147.283C175.286 148.963 169.741 151.484 164.561 154.82C159.264 158.232 155.301 162.811 152.461 168.415C152.345 168.379 152.23 168.342 152.114 168.307C152.449 166.567 152.673 164.795 153.14 163.091C155.323 155.135 159.385 148.377 165.994 143.279C166.315 143.03 166.705 142.716 166.806 142.361C168.406 136.729 168.186 131.189 165.914 125.772C168.587 137.291 164.758 139.835 156.324 143.701C154.773 141.461 153.21 139.202 151.647 136.944C151.57 136.961 151.493 136.978 151.415 136.995C151.498 137.635 151.573 138.276 151.662 138.916C152.698 146.414 151.5 153.564 148.47 160.477C147.871 161.843 147.571 163.43 147.52 164.928C147.391 168.729 147.527 172.538 147.463 176.342C147.43 178.28 146.474 179.971 145.135 181.228C143.504 182.758 141.52 183.905 139.787 185.338C138.787 186.165 137.832 187.13 137.13 188.211C136.35 189.414 135.329 190.018 134.011 190.036C129.836 190.093 125.658 190.083 121.482 190.05C120.254 190.041 119.366 189.462 118.563 188.422C117.432 186.957 116.056 185.661 114.671 184.42C113.629 183.485 112.379 182.787 111.27 181.923C108.963 180.121 107.735 177.792 107.806 174.799C107.886 171.465 107.971 168.126 107.871 164.795C107.829 163.393 107.541 161.908 106.982 160.627C104.602 155.165 103.322 149.499 103.51 143.543C103.579 141.349 103.92 139.164 104.169 136.652C102.426 139.172 100.822 141.491 99.2281 143.796C90.3383 139.612 87.4124 137.141 89.2781 125.57C88.7467 127.765 88.0683 129.937 87.7193 132.161C87.2281 135.29 87.3946 138.442 88.2648 141.506C88.4688 142.225 88.8908 143.028 89.4615 143.473C96.6035 149.046 100.591 156.502 102.578 165.176C102.775 166.038 102.936 166.909 103.029 167.843C100.055 162.461 96.0683 158.073 90.8351 154.81C85.7189 151.619 80.3565 149.019 74.3532 147.422C75.5996 143.393 77.3783 140.002 81.5457 138.427C82.1156 138.212 82.7079 137.646 82.9699 137.091C84.1759 134.543 84.1189 131.802 83.2496 129.258C82.2438 126.314 80.7776 123.524 79.448 120.695C78.8828 119.494 77.9331 119.047 76.5483 119.447C75.3451 119.795 74.0772 119.92 72.7008 120.168C73.3128 121.332 73.8873 122.339 74.3823 123.383C76.7991 128.478 76.9628 133.385 73.6721 138.308C71.2159 141.984 70.2391 146.268 69.6328 150.879C71.3086 150.879 72.8777 150.923 74.4431 150.862C75.3114 150.828 75.768 151.162 76.1993 151.909C80.9834 160.192 85.7469 168.487 90.6639 176.69C91.8812 178.721 92.1235 180.874 92.5717 183.067C93.0386 185.353 93.6627 187.624 94.4328 189.826C95.1832 191.972 96.204 194.023 97.2089 196.353Z" fill="#FFC702"/>
<path d="M120.368 240C114.796 234.793 109.289 229.648 103.682 224.407C105.106 223.157 106.465 221.963 107.93 220.677C111.923 224.371 115.872 228.023 119.939 231.786C125.79 226.074 131.612 220.392 137.601 214.545C136.427 218.563 135.327 222.375 134.185 226.173C134.058 226.596 133.744 227.004 133.42 227.32C129.123 231.515 124.807 235.692 120.368 240Z" fill="#FFC702"/>
<path d="M156.362 178.2C154.963 188.129 149.81 195.866 143.098 202.63C136.586 209.192 129.792 215.474 123.104 221.861C122.789 222.161 122.306 222.441 121.894 222.452C119.755 222.511 117.613 222.48 115.116 222.48C117.497 220.372 119.66 218.539 121.734 216.608C129.977 208.934 138.296 201.336 146.375 193.491C150.664 189.325 154.13 184.46 156.013 178.65C156.053 178.525 156.181 178.427 156.362 178.2Z" fill="#FFC702"/>
<path d="M141.03 130.519C140.905 125.598 141.831 121.524 145.647 118.423C147.856 116.627 149.962 114.617 151.739 112.403C153.497 110.213 154.784 107.644 156.166 105.419C156.497 108.264 155.918 111.357 154.826 114.609C161.542 111.43 167.539 107.549 172.181 101.776C172.301 101.89 172.421 102.004 172.541 102.119C170.755 104.486 169.115 106.984 167.153 109.197C162.163 114.828 156.583 119.687 149.168 121.941C146.066 122.884 144.04 125.1 142.517 127.851C142.075 128.647 141.63 129.441 141.03 130.519Z" fill="#FFC702"/>
<path d="M84.1543 103.301C88.7737 108.351 94.4055 111.899 100.832 114.934C99.4956 111.47 98.9267 108.124 99.3618 104.617C100.594 109.94 104.261 113.52 108.096 116.981C108.689 117.515 109.257 118.08 109.885 118.569C113.569 121.433 114.365 125.389 114.17 130.155C113.734 129.379 113.451 128.933 113.223 128.46C111.526 124.951 108.888 122.767 105.105 121.457C96.0617 118.324 89.4568 112.095 84.4677 104.05C84.3695 103.892 84.2872 103.722 84.2104 103.553C84.1758 103.476 84.1721 103.385 84.1543 103.301Z" fill="#FFC702"/>
<path d="M99.1851 178.987C103.51 189.614 111.867 196.748 120.28 203.831C121.887 205.185 123.537 206.488 125.28 207.906C124.063 208.991 122.926 210.004 121.547 211.233C117.311 206.963 113.012 202.854 108.977 198.501C104.956 194.162 101.993 189.12 100.285 183.409C99.8513 181.955 99.5481 180.462 99.1851 178.987Z" fill="#FFC702"/>
<path d="M135.817 142.603C135.817 134.304 135.805 126.004 135.847 117.705C135.849 117.219 136.19 116.656 136.528 116.262C140.466 111.68 144.549 107.212 147.519 101.89C147.902 101.205 148.263 100.509 148.716 99.8492C148.451 102.933 147.424 105.789 146.064 108.523C145.316 110.027 144.56 111.583 143.504 112.867C141.078 115.82 139.802 119.18 139.243 122.906C138.349 128.871 137.382 134.824 136.442 140.781C136.348 141.376 136.226 141.967 136.118 142.56C136.018 142.574 135.917 142.589 135.817 142.603Z" fill="#FFC702"/>
<path d="M106.722 99.9872C109.789 106.15 114.378 111.11 118.807 116.193C119.173 116.613 119.53 117.228 119.531 117.753C119.555 125.688 119.517 133.624 119.491 141.56C119.49 141.676 119.45 141.793 119.26 141.924C118.792 138.644 118.419 135.347 117.836 132.087C116.979 127.299 115.995 122.53 115.003 117.767C114.867 117.116 114.428 116.493 114.02 115.939C110.89 111.685 108.108 107.262 107.027 101.986C106.892 101.326 106.822 100.653 106.722 99.9872Z" fill="#FFC702"/>
<path d="M160.978 88.495C160.367 86.5292 159.779 84.8178 159.336 83.069C159.236 82.6798 159.527 82.0529 159.838 81.7235C161.055 80.4305 162.299 79.1514 163.63 77.9781C166.839 75.1495 169.127 71.7521 170.31 67.6286C170.349 67.4967 170.409 67.3666 170.481 67.2506C170.526 67.1795 170.614 67.1355 170.73 67.04C170.333 75.4545 166.361 82.1652 160.978 88.495Z" fill="#FFC702"/>
<path d="M84.9927 67.9299C86.7124 72.8039 89.7721 76.6233 93.7814 79.7437C94.0023 79.915 94.181 80.1414 94.3943 80.3229C95.7314 81.4635 96.2526 82.7744 95.5471 84.525C95.097 85.6422 94.8837 86.8558 94.4898 88.3023C89.2659 82.3346 85.7131 75.7961 84.9927 67.9299Z" fill="#FFC702"/>
<path d="M128.099 68.816C128.099 84.874 128.099 100.931 128.099 116.989C127.98 116.989 127.862 116.989 127.743 116.989C126.908 100.931 126.76 84.8731 127.661 68.816C127.807 68.816 127.953 68.816 128.099 68.816Z" fill="#FFC702"/>
<path d="M144.815 128.54C145.508 127.673 146.189 126.818 146.871 125.965C149.378 127.756 151.055 127.117 151.84 124.118C151.933 123.763 152.156 123.322 152.451 123.161C153.738 122.459 155.072 121.846 156.362 121.214C155.023 127.338 151.946 129.308 144.815 128.54Z" fill="#FFC702"/>
<path d="M110.688 128.771C109.025 128.667 107.301 128.523 105.574 128.462C103.183 128.376 101.714 126.949 100.617 125.058C100.041 124.066 99.6801 122.95 99.0972 121.601C100.687 122.245 101.974 122.766 103.36 123.327C103.414 124.761 103.686 126.269 105.329 126.902C106.597 127.39 107.71 126.912 108.549 125.902C109.288 126.891 109.991 127.836 110.688 128.771Z" fill="#FFC702"/>
<path d="M124.29 179.107C124.373 176.111 122.075 175.783 120.065 175.143C124.835 174.687 125.46 176.343 124.29 179.107Z" fill="#FFC702"/>
<path d="M135.469 175.201C133.479 175.884 131.213 176.108 131.282 179.171C131.107 179.086 130.932 179.002 130.757 178.916C130.845 177.933 130.573 176.635 131.098 176.031C132.198 174.762 133.913 175.006 135.469 175.201Z" fill="#FFC702"/>
</g>
<defs>
<filter id="filter0_d_14_221" x="44" y="16" width="167.704" height="232" filterUnits="userSpaceOnUse" color-interpolation-filters="sRGB">
<feFlood flood-opacity="0" result="BackgroundImageFix"/>
<feColorMatrix in="SourceAlpha" type="matrix" values="0 0 0 0 0 0 0 0 0 0 0 0 0 0 0 0 0 0 127 0" result="hardAlpha"/>
<feOffset dy="4"/>
<feGaussianBlur stdDeviation="2"/>
<feComposite in2="hardAlpha" operator="out"/>
<feColorMatrix type="matrix" values="0 0 0 0 0 0 0 0 0 0 0 0 0 0 0 0 0 0 0.25 0"/>
<feBlend mode="normal" in2="BackgroundImageFix" result="effect1_dropShadow_14_221"/>
<feBlend mode="normal" in="SourceGraphic" in2="effect1_dropShadow_14_221" result="shape"/>
</filter>
</defs>
</svg>
