<?xml version='1.0' encoding='UTF-8'?>
<svg xmlns:inkscape="http://www.inkscape.org/namespaces/inkscape" xmlns:sodipodi="http://sodipodi.sourceforge.net/DTD/sodipodi-0.dtd" xmlns="http://www.w3.org/2000/svg" xmlns:svg="http://www.w3.org/2000/svg" xmlns:rdf="http://www.w3.org/1999/02/22-rdf-syntax-ns#" xmlns:cc="http://creativecommons.org/ns#" xmlns:dc="http://purl.org/dc/elements/1.1/" width="64" height="64" viewBox="0 0 64 64" version="1.1" id="svg7" sodipodi:docname="folder-open-recent.svg" inkscape:version="1.4.2 (ebf0e940d0, 2025-05-08)">
  <metadata id="metadata11">
    <rdf:RDF>
      <cc:Work rdf:about="">
        <dc:format>image/svg+xml</dc:format>
        <dc:type rdf:resource="http://purl.org/dc/dcmitype/StillImage"/>
      </cc:Work>
    </rdf:RDF>
  </metadata>
  <sodipodi:namedview pagecolor="#9c4444" bordercolor="#666666" borderopacity="1" objecttolerance="10" gridtolerance="10" guidetolerance="10" inkscape:pageopacity="0" inkscape:pageshadow="2" inkscape:window-width="2560" inkscape:window-height="1384" id="namedview9" showgrid="false" inkscape:zoom="7.2407735" inkscape:cx="26.792718" inkscape:cy="7.8720871" inkscape:window-x="0" inkscape:window-y="0" inkscape:window-maximized="1" inkscape:current-layer="svg7" inkscape:document-rotation="0" inkscape:showpageshadow="2" inkscape:pagecheckerboard="0" inkscape:deskcolor="#ffffff"/>
  <defs id="defs3">
    <style id="current-color-scheme" type="text/css">.ColorScheme-Text {color:#d8dee9} .ColorScheme-Highlight {color:#3b4252}</style>
  </defs>
  <path id="path5" style="fill:currentColor;fill-opacity:1;stroke:none;stroke-width:0.933255;stroke-opacity:0.3" class="ColorScheme-Text" d="M 10.47152 12.845566 C 10.47152 12.845566 9.538173 12.845657 9.538173 13.778913 L 9.538173 24.045095 C 9.538173 24.045095 9.5382645 24.978443 10.47152 24.978443 L 21.670412 24.978443 C 21.670412 24.978443 22.603759 24.978351 22.603759 24.045095 L 22.603759 15.645608 C 22.603759 14.712352 21.670412 14.71226 21.670412 14.71226 L 17.004313 14.71226 L 15.137619 12.845566 L 10.47152 12.845566 z M 16.522648 16.135567 C 18.527191 16.135567 20.153962 17.736101 20.153962 19.708188 C 20.153962 21.680275 18.527191 23.28081 16.522648 23.28081 C 15.443349 23.28081 14.474066 22.818871 13.808731 22.082706 L 14.47158 21.477912 C 14.971732 22.038562 15.705568 22.393396 16.522648 22.393396 C 18.028652 22.393396 19.250599 21.190316 19.250599 19.708188 C 19.250599 18.226061 18.028652 17.022981 16.522648 17.022981 C 15.131601 17.022981 13.980507 17.873133 13.813197 19.197814 L 14.697421 19.197814 L 13.343015 20.899275 L 11.98797 19.197814 L 12.904731 19.197814 C 13.074828 17.380856 14.631655 16.135567 16.522648 16.135567 z M 16.411003 17.496353 L 16.751678 17.496353 L 16.751678 19.537851 L 17.772427 20.899275 L 17.772427 21.239312 L 16.070966 19.878526 L 16.411003 17.496353 z " transform="matrix(3.0614776,0,0,3.0614776,-17.200903,-25.898677)"/>
</svg>
