<?xml version='1.0' encoding='UTF-8'?>
<svg xmlns:inkscape="http://www.inkscape.org/namespaces/inkscape" xmlns:sodipodi="http://sodipodi.sourceforge.net/DTD/sodipodi-0.dtd" xmlns="http://www.w3.org/2000/svg" xmlns:svg="http://www.w3.org/2000/svg" xmlns:rdf="http://www.w3.org/1999/02/22-rdf-syntax-ns#" xmlns:cc="http://creativecommons.org/ns#" xmlns:dc="http://purl.org/dc/elements/1.1/" width="64" height="64" version="1.1" id="svg7" sodipodi:docname="gtk-network.svg" inkscape:version="1.4.2 (ebf0e940d0, 2025-05-08)">
  <metadata id="metadata11">
    <rdf:RDF>
      <cc:Work rdf:about="">
        <dc:format>image/svg+xml</dc:format>
        <dc:type rdf:resource="http://purl.org/dc/dcmitype/StillImage"/>
      </cc:Work>
    </rdf:RDF>
  </metadata>
  <sodipodi:namedview pagecolor="#9c4444" bordercolor="#666666" borderopacity="1" objecttolerance="10" gridtolerance="10" guidetolerance="10" inkscape:pageopacity="0" inkscape:pageshadow="2" inkscape:window-width="2560" inkscape:window-height="1376" id="namedview9" showgrid="false" inkscape:zoom="18.230097" inkscape:cx="7.350482" inkscape:cy="8.0087341" inkscape:window-x="0" inkscape:window-y="0" inkscape:window-maximized="1" inkscape:current-layer="svg7" inkscape:document-rotation="0" inkscape:showpageshadow="2" inkscape:pagecheckerboard="0" inkscape:deskcolor="#ffffff"/>
  <defs id="defs3">
    <style id="current-color-scheme" type="text/css">.ColorScheme-Text {color:#d8dee9} .ColorScheme-Highlight {color:#3b4252}</style>
  </defs>
  <path style="fill:currentColor;fill-opacity:1;stroke:none;stroke-width:2.85714;stroke-opacity:0.3" class="ColorScheme-Text" d="m 32,12.000001 c -11.045714,0 -20,8.954285 -20,20 0,11.045712 8.954286,19.999998 20,19.999998 11.045714,0 20,-8.954286 20,-19.999998 0,-11.045715 -8.954286,-20 -20,-20 z m -1.428571,5.535714 c 0.191142,-0.02 0.432142,0.01143 0.625,0 0.02286,0.09143 -0.139143,0.416771 -0.357143,0.892857 -1.388172,3.032571 -1.466915,6.584 -0.178572,8.482286 0.233143,0.344171 0.446429,0.671714 0.446429,0.714285 0,0.04257 -0.251429,0.08914 -0.535714,0.08914 -0.667372,0 -1.298915,-0.406743 -2.589286,-1.428543 -0.573229,-0.453911 -1.318429,-0.835168 -1.607143,-0.892882 -0.453371,-0.09057 -0.574229,-0.05086 -1.160743,0.535714 -0.545686,0.5456 -0.714257,0.8398 -0.714257,1.339286 0,1.894114 2.2488,3.399714 6.428571,4.285714 5.676286,1.203057 7.075429,2.2832 7.232,5.268 0.196572,3.742855 -1.796,6.565141 -6.160571,8.749998 -0.520943,0.260857 -0.852857,0.362143 -1.071429,0.446429 -0.09686,-0.0086 -0.171142,0.0086 -0.267714,0 -0.03714,-0.115714 -0.08914,-0.384172 -0.08914,-0.892857 0,-1.987943 -0.783543,-4.034286 -1.964257,-5.178572 -0.316943,-0.3072 -1.204371,-0.958143 -1.964314,-1.428568 -0.759914,-0.4704 -1.525572,-1.016859 -1.696429,-1.250001 -0.283143,-0.386886 -0.306685,-0.624572 -0.08914,-1.339286 0.396458,-1.305343 0.868315,-2.032372 1.785686,-2.857143 0.480943,-0.4324 0.964886,-0.795 1.071429,-0.803571 0.106571,-0.0086 -0.614715,-0.225143 -1.696429,-0.446429 -1.081657,-0.221714 -2.663914,-0.686057 -3.482,-0.982143 -1.495943,-0.541286 -3.515714,-1.6776 -4.285714,-2.5 -0.03258,-0.03486 -0.06086,-0.05829 -0.08915,-0.08914 1.103229,-4.394571 4.199143,-7.996285 8.303429,-9.732 0.858772,-0.363231 1.744058,-0.612431 2.678572,-0.803574 0.465486,-0.09514 0.947943,-0.129714 1.428571,-0.178571 z m 13.392857,6.696571 c 0.335571,0.207429 1.6026,2.948572 1.964285,4.285715 0.466972,1.726257 0.433172,4.713714 0,6.428571 -0.164857,0.652686 -0.376142,1.263286 -0.446428,1.339286 -0.07029,0.076 -0.325172,-0.361515 -0.625,-0.892857 -0.299857,-0.531258 -1.2576,-1.660143 -2.053572,-2.5 -2.297542,-2.424372 -2.658828,-3.690286 -1.696428,-5.625143 0.485343,-0.975686 2.597428,-3.196 2.857143,-3.035715 z" id="path5"/>
</svg>
