<?xml version="1.0" encoding="UTF-8" standalone="no"?>
<svg
   width="64"
   height="64"
   version="1.1"
   viewBox="0 0 16.933 16.933"
   id="svg7"
   sodipodi:docname="easyeffects-tray.svg"
   inkscape:version="1.4.3 (0d15f75042, 2025-12-25)"
   xmlns:inkscape="http://www.inkscape.org/namespaces/inkscape"
   xmlns:sodipodi="http://sodipodi.sourceforge.net/DTD/sodipodi-0.dtd"
   xmlns="http://www.w3.org/2000/svg"
   xmlns:svg="http://www.w3.org/2000/svg"
   xmlns:rdf="http://www.w3.org/1999/02/22-rdf-syntax-ns#"
   xmlns:cc="http://creativecommons.org/ns#"
   xmlns:dc="http://purl.org/dc/elements/1.1/">
  <sodipodi:namedview
     id="namedview7"
     pagecolor="#9c4444"
     bordercolor="#000000"
     borderopacity="0.25"
     inkscape:showpageshadow="2"
     inkscape:pageopacity="0.0"
     inkscape:pagecheckerboard="0"
     inkscape:deskcolor="#d1d1d1"
     inkscape:zoom="12.3125"
     inkscape:cx="49.137056"
     inkscape:cy="29.482234"
     inkscape:window-width="2560"
     inkscape:window-height="1388"
     inkscape:window-x="0"
     inkscape:window-y="0"
     inkscape:window-maximized="1"
     inkscape:current-layer="svg7"
     showgrid="false" />
  <defs
     id="defs2">
    <inkscape:path-effect
       effect="offset"
       id="path-effect8"
       is_visible="true"
       lpeversion="1.3"
       linejoin_type="round"
       unit="px"
       offset="-1"
       miter_limit="4"
       attempt_force_join="false"
       update_on_knot_move="true" />
    <style
       id="current-color-scheme"
       type="text/css">.ColorScheme-Text {color:#d8dee9} .ColorScheme-Highlight {color:#3b4252}</style>
  </defs>
  <metadata
     id="metadata2">
    <rdf:RDF>
      <cc:Work
         rdf:about="">
        <dc:format>image/svg+xml</dc:format>
        <dc:type
           rdf:resource="http://purl.org/dc/dcmitype/StillImage" />
      </cc:Work>
    </rdf:RDF>
  </metadata>
  <path
     id="path5"
     style="fill:currentColor;stroke-width:0.792453"
     d="M 8.4665,2.9103593 A 5.5561407,5.5561407 0 0 0 2.9103594,8.4665 5.5561407,5.5561407 0 0 0 8.4665,14.022641 5.5561407,5.5561407 0 0 0 14.022641,8.4665 5.5561407,5.5561407 0 0 0 8.4665,2.9103593 Z M 5.7371606,5.4447752 c 0.2700093,0 0.4873089,0.23903 0.4873089,0.5360398 v 0.3407068 c 0.4580876,0.190828 0.7796942,0.6428389 0.7796942,1.1703604 0,0.5275214 -0.3216066,0.979123 -0.7796942,1.1699509 v 2.6801999 c 0,0.29701 -0.2172996,0.53604 -0.4873089,0.53604 -0.2700085,0 -0.487309,-0.23903 -0.487309,-0.53604 V 8.6618331 C 4.7917647,8.4710052 4.4701573,8.0194036 4.4701573,7.4918822 c 0,-0.5275215 0.3216074,-0.9795324 0.7796943,-1.1703604 V 5.980815 c 0,-0.2970098 0.2173006,-0.5360398 0.487309,-0.5360398 z m 2.7293394,0 c 0.2700093,0 0.4873089,0.23903 0.4873089,0.5360398 v 2.4852755 c 0.4580877,0.1908279 0.7796942,0.6424296 0.7796942,1.169951 0,0.5275215 -0.3216065,0.9795325 -0.7796942,1.1703605 v 0.535631 c 0,0.29701 -0.2172995,0.53604 -0.4873089,0.53604 -0.2700091,0 -0.4873089,-0.23903 -0.4873089,-0.53604 V 10.806402 C 7.5211027,10.615574 7.1994969,10.163563 7.1994969,9.6360415 c 0,-0.5275214 0.3216058,-0.9791231 0.7796942,-1.169951 V 5.980815 c 0,-0.2970098 0.2172997,-0.5360398 0.4873089,-0.5360398 z m 2.729339,0 c 0.270009,0 0.48731,0.23903 0.48731,0.5360398 v 0.9258869 c 0.458088,0.190828 0.779694,0.6424295 0.779694,1.169951 0,0.5275215 -0.321606,0.9791231 -0.779694,1.169951 v 2.0954291 c 0,0.29701 -0.217301,0.53604 -0.48731,0.53604 -0.270008,0 -0.487308,-0.23903 -0.487308,-0.53604 V 9.2466039 C 10.250443,9.055776 9.9288363,8.6041744 9.9288363,8.0766529 c 0,-0.5275215 0.3216067,-0.979123 0.7796947,-1.169951 V 5.980815 c 0,-0.2970098 0.2173,-0.5360398 0.487308,-0.5360398 z M 5.7371606,6.4193931 A 1.0722377,1.0722377 0 0 0 4.6650809,7.4918822 1.0722377,1.0722377 0 0 0 5.7371606,8.5639618 1.0722377,1.0722377 0 0 0 6.8092402,7.4918822 1.0722377,1.0722377 0 0 0 5.7371606,6.4193931 Z m -8.19e-4,0.2178557 c 0.4745893,7e-5 0.8547446,0.379716 0.8546333,0.8542239 C 6.590905,7.9658312 6.2106359,8.3460362 5.7363416,8.3461061 5.2619831,8.3460362 4.8838256,7.9662294 4.8837557,7.4914727 4.8836443,7.0166046 5.2618164,6.6373188 5.7363416,6.6372488 Z M 11.195839,7.0041637 A 1.0722377,1.0722377 0 0 0 10.12376,8.0766529 1.0722377,1.0722377 0 0 0 11.195839,9.1487325 1.0722377,1.0722377 0 0 0 12.26792,8.0766529 1.0722377,1.0722377 0 0 0 11.195839,7.0041637 Z M 11.19543,7.222429 c 0.47459,6.98e-5 0.854336,0.3797156 0.854224,0.8542239 C 12.049585,8.5510116 11.669726,8.930807 11.19543,8.9308768 10.721072,8.9308067 10.342505,8.5514093 10.342435,8.0766529 10.342324,7.6017849 10.720906,7.2224991 11.19543,7.222429 Z M 8.4665,8.5639618 A 1.0722377,1.0722377 0 0 0 7.3944204,9.6360415 1.0722377,1.0722377 0 0 0 8.4665,10.708531 1.0722377,1.0722377 0 0 0 9.5385797,9.6360415 1.0722377,1.0722377 0 0 0 8.4665,8.5639618 Z m 4.096e-4,0.2186748 c 0.4747376,7e-5 0.8541539,0.3782084 0.8542238,0.8525858 C 9.3212447,10.109711 8.9414348,10.489786 8.4669096,10.489856 7.9923202,10.489786 7.6121649,10.10973 7.6122761,9.6352224 7.612346,9.160864 7.992236,8.7827066 8.4669096,8.7826366 Z"
     class="ColorScheme-Text" />
</svg>
