<?xml version="1.0" encoding="UTF-8" standalone="no"?>
<svg
   width="64"
   height="64"
   version="1.1"
   viewBox="0 0 16.933 16.933"
   id="svg7"
   sodipodi:docname="preferences-security-firewall copy.svg"
   inkscape:version="1.4.2 (ebf0e940d0, 2025-05-08)"
   xmlns:inkscape="http://www.inkscape.org/namespaces/inkscape"
   xmlns:sodipodi="http://sodipodi.sourceforge.net/DTD/sodipodi-0.dtd"
   xmlns="http://www.w3.org/2000/svg"
   xmlns:svg="http://www.w3.org/2000/svg"
   xmlns:rdf="http://www.w3.org/1999/02/22-rdf-syntax-ns#"
   xmlns:cc="http://creativecommons.org/ns#"
   xmlns:dc="http://purl.org/dc/elements/1.1/">
  <sodipodi:namedview
     id="namedview7"
     pagecolor="#9c4444"
     bordercolor="#000000"
     borderopacity="0.25"
     inkscape:showpageshadow="2"
     inkscape:pageopacity="0.0"
     inkscape:pagecheckerboard="0"
     inkscape:deskcolor="#d1d1d1"
     inkscape:zoom="6.15625"
     inkscape:cx="15.837563"
     inkscape:cy="29.725888"
     inkscape:window-width="2560"
     inkscape:window-height="1388"
     inkscape:window-x="0"
     inkscape:window-y="0"
     inkscape:window-maximized="1"
     inkscape:current-layer="svg7"
     showgrid="false" />
  <defs
     id="defs2">
    <style
       id="current-color-scheme"
       type="text/css">.ColorScheme-Text {color:#d8dee9} .ColorScheme-Highlight {color:#3b4252}</style>
  </defs>
  <metadata
     id="metadata2">
    <rdf:RDF>
      <cc:Work
         rdf:about="">
        <dc:format>image/svg+xml</dc:format>
        <dc:type
           rdf:resource="http://purl.org/dc/dcmitype/StillImage" />
      </cc:Work>
    </rdf:RDF>
  </metadata>
  <path
     id="path5"
     style="fill:currentColor;fill-opacity:1;stroke:none;stroke-width:0.310838;stroke-dasharray:none;stroke-dashoffset:2.2;stroke-opacity:0.3"
     d="M 8.4752848 3.1749375 C 8.3551831 3.1737417 4.6834522 4.3881575 4.483359 4.4952444 C 4.3305507 4.5770249 4.2993777 4.7435043 4.2792411 5.5824951 C 4.205149 8.669392 5.0878219 11.312393 6.6563102 12.700784 C 7.1204183 13.1116 7.8130866 13.543848 8.2970046 13.724473 C 8.4753345 13.791033 8.5397657 13.774193 9.0385468 13.52914 C 10.170536 12.97298 11.024103 12.09745 11.63472 10.86734 C 12.109193 9.9114977 12.384226 8.9605141 12.557643 7.6722489 C 12.638323 7.0735129 12.683089 5.7516356 12.643941 5.1282682 C 12.602724 4.4719957 12.806265 4.5979741 10.535584 3.8291483 C 9.4459687 3.4602178 8.5503208 3.1756722 8.4752848 3.1749375 z M 7.6350426 5.5561406 L 9.2979574 5.5561406 L 9.2979574 8.8819703 L 7.6350426 8.8819703 L 7.6350426 5.5561406 z M 7.6350426 9.7134278 L 9.2979574 9.7134278 L 9.2979574 11.376859 L 7.6350426 11.376859 L 7.6350426 9.7134278 z "
     class="ColorScheme-Text" />
</svg>
