<?xml version='1.0' encoding='UTF-8'?>
<svg xmlns="http://www.w3.org/2000/svg" width="24" height="24" version="1.1">
 <defs>
  <style id="current-color-scheme" type="text/css">.ColorScheme-Text {color:#d8dee9} .ColorScheme-Highlight {color:#3b4252}</style></defs>
 <path class="ColorScheme-Text" d="m12 4c-1.108 0-2 0.892-2 2v7c0 1.108 0.892 2 2 2h6c1.108 0 2-0.892 2-2v-7c0-1.108-0.892-2-2-2zm0 2h6v1h-6zm0 2h6v1h-6zm0 2h6v1h-6zm0 2h4v1h-4z" style="fill:currentColor;opacity:.35"/>
 <path class="ColorScheme-Text" d="m6 9c-1.108 0-2 0.892-2 2v7c0 1.108 0.892 2 2 2h6c1.108 0 2-0.892 2-2v-7c0-1.108-0.892-2-2-2zm0 2h6v1h-6zm0 2h6v1h-6zm0 2h6v1h-6zm0 2h4v1h-4z" style="fill:currentColor"/>
</svg>
