<?xml version='1.0' encoding='UTF-8'?>
<svg xmlns:inkscape="http://www.inkscape.org/namespaces/inkscape" xmlns:sodipodi="http://sodipodi.sourceforge.net/DTD/sodipodi-0.dtd" xmlns="http://www.w3.org/2000/svg" xmlns:svg="http://www.w3.org/2000/svg" xmlns:rdf="http://www.w3.org/1999/02/22-rdf-syntax-ns#" xmlns:cc="http://creativecommons.org/ns#" xmlns:dc="http://purl.org/dc/elements/1.1/" width="64" height="64" version="1.1" viewBox="0 0 16.933 16.933" id="svg7" sodipodi:docname="steam_tray_mono.svg" inkscape:version="1.4 (e7c3feb100, 2024-10-09)">
  <sodipodi:namedview id="namedview7" pagecolor="#9c4444" bordercolor="#000000" borderopacity="0.25" inkscape:showpageshadow="2" inkscape:pageopacity="0.0" inkscape:pagecheckerboard="0" inkscape:deskcolor="#d1d1d1" inkscape:zoom="4.3531261" inkscape:cx="36.525475" inkscape:cy="25.958357" inkscape:window-width="1280" inkscape:window-height="669" inkscape:window-x="180" inkscape:window-y="166" inkscape:window-maximized="0" inkscape:current-layer="svg7" showgrid="false"/>
  <defs id="defs2">
    <style id="current-color-scheme" type="text/css">.ColorScheme-Text {color:#d8dee9} .ColorScheme-Highlight {color:#3b4252}</style></defs>
  <metadata id="metadata2">
    <rdf:RDF>
      <cc:Work rdf:about="">
        <dc:format>image/svg+xml</dc:format>
        <dc:type rdf:resource="http://purl.org/dc/dcmitype/StillImage"/>
      </cc:Work>
    </rdf:RDF>
  </metadata>
  <path id="path1-3" style="opacity:1;fill:currentColor;fill-opacity:1;stroke:none;stroke-width:0.150702;stroke-dasharray:none;stroke-dashoffset:2.2;stroke-opacity:0.6" d="M 11.891915,3.3156381 C 11.687207,3.3155519 11.468083,3.3979861 11.19384,3.5586688 10.541247,3.9410369 9.6877733,4.1213674 8.5157266,4.1213674 7.3437938,4.1213674 6.4618491,3.9371999 5.8131392,3.5570377 5.2929593,3.2522057 4.9824058,3.2481657 4.5458474,3.5425153 3.4250548,4.2978147 2.58036,6.719441 2.3325617,9.8838904 2.1839652,11.781469 2.3227724,12.781885 2.8137088,13.344891 3.0504921,13.616334 3.6317645,13.570319 4.1560307,13.237242 4.6004431,12.9549 5.1299572,12.331883 5.7625786,11.346886 6.3342419,10.4568 7.0257054,10.163646 8.5548713,10.161139 c 1.5261227,-0.0023 2.1258727,0.286367 2.8298037,1.368418 1.181029,1.815413 2.272669,2.447434 2.912987,1.68646 0.354732,-0.421566 0.419657,-0.828876 0.402856,-2.524798 C 14.669906,7.6104944 13.864612,4.8078941 12.704161,3.7382282 12.395099,3.4533433 12.155137,3.3159054 11.891915,3.3157947 Z M 5.2618593,5.1309526 H 5.9697178 6.6775764 V 5.7376894 6.3444273 H 7.2843138 7.89105 V 7.1028482 7.8612676 H 7.2843138 6.6775764 V 8.518564 9.1758622 H 6.0365911 c -0.352143,0 -0.6691614,-0.031567 -0.706231,-0.068494 -0.03705,-0.037049 -0.068494,-0.3313189 -0.068494,-0.655662 V 7.8612676 H 4.6551224 4.0483842 V 7.1028482 6.3444273 H 4.6551224 5.2618593 V 5.7376894 Z m 5.7705177,0 c 0.638583,0 0.912057,0.7075347 0.45179,1.1678068 C 11.191449,6.591439 10.924311,6.614445 10.636042,6.3705317 10.136034,5.9474413 10.397021,5.1309631 11.032377,5.1309631 Z m -1.22815,1.2966547 c 0.1594533,1.106e-4 0.320005,0.06367 0.446895,0.203862 0.197804,0.2185721 0.219168,0.7189939 0.04079,0.9525128 C 9.9428066,8.0410072 9.1045369,7.7470366 9.1045369,7.168075 c 0,-0.4394077 0.3489005,-0.7407199 0.6997027,-0.7404803 z m 2.506865,0.024627 c 0.183807,0.00347 0.362225,0.064226 0.466467,0.179401 0.197796,0.2185726 0.219164,0.718991 0.04075,0.9525131 -0.37132,0.4861052 -1.187375,0.1607472 -1.187375,-0.4729949 0,-0.1920918 0.07697,-0.4003016 0.184297,-0.4974581 0.122703,-0.1110402 0.312059,-0.1648206 0.495828,-0.1614716 z m -1.234678,1.3080678 c 0.566135,0 0.8416,0.6005075 0.499089,1.089517 -0.117099,0.167156 -0.259887,0.2250745 -0.554547,0.2250745 -0.33924,0 -0.417962,-0.044152 -0.554538,-0.3082735 -0.269293,-0.520765 0.02461,-1.0063343 0.609996,-1.0063343 z" class="ColorScheme-Text"/>
</svg>
