<?xml version="1.0" encoding="UTF-8" standalone="no"?>
<svg
   viewBox="0 0 24 24"
   version="1.1"
   id="svg2"
   sodipodi:docname="temperature-warm.svg"
   width="24"
   height="24"
   inkscape:version="1.4.2 (ebf0e940d0, 2025-05-08)"
   xmlns:inkscape="http://www.inkscape.org/namespaces/inkscape"
   xmlns:sodipodi="http://sodipodi.sourceforge.net/DTD/sodipodi-0.dtd"
   xmlns="http://www.w3.org/2000/svg"
   xmlns:svg="http://www.w3.org/2000/svg">
  <defs
     id="defs2" />
  <sodipodi:namedview
     id="namedview2"
     pagecolor="#505050"
     bordercolor="#eeeeee"
     borderopacity="1"
     inkscape:showpageshadow="0"
     inkscape:pageopacity="0"
     inkscape:pagecheckerboard="0"
     inkscape:deskcolor="#505050"
     inkscape:zoom="53.818182"
     inkscape:cx="11"
     inkscape:cy="11"
     inkscape:window-width="2560"
     inkscape:window-height="1392"
     inkscape:window-x="0"
     inkscape:window-y="0"
     inkscape:window-maximized="1"
     inkscape:current-layer="svg2" />
  <style
     id="current-color-scheme"
     type="text/css">.ColorScheme-Text { color: #fcfcfc; } </style>
  <path
     fill="#da4453"
     d="M 9.6666667,4.6666667 V 17.111111 L 11.444444,18 13.222222,17.111111 V 4.6666667 Z"
     id="path1"
     style="stroke-width:0.888889"
     transform="translate(1.4444445,2)" />
  <path
     style="fill:currentColor;fill-opacity:1;stroke:none;stroke-width:0.888889"
     class="ColorScheme-Text"
     d="M 11.444444,2 C 10.459556,2 9.6666667,2.7928889 9.6666667,3.7777778 v 9.5694442 c -0.56521,0.505539 -0.8884609,1.227803 -0.8888889,1.986111 0,1.472759 1.1939075,2.666667 2.6666662,2.666667 1.47276,0 2.666667,-1.193908 2.666667,-2.666667 -8.89e-4,-0.757703 -0.324129,-1.47924 -0.888889,-1.984375 V 3.7777778 C 13.222222,2.7928889 12.429333,2 11.444444,2 Z m 0,0.8888889 c 0.492445,0 0.888889,0.3964444 0.888889,0.8888889 v 9.0434022 0.734376 0.234375 c 0.549876,0.310848 0.888692,0.885247 0.888889,1.506944 -6.26e-4,0.960925 -0.79638,1.739584 -1.777778,1.739584 -0.981397,0 -1.7771516,-0.778659 -1.7777773,-1.739584 -4.364e-4,-0.622317 0.3384653,-1.197522 0.8888893,-1.50868 V 13.555556 12.819444 3.7777778 c 0,-0.4924445 0.396444,-0.8888889 0.888888,-0.8888889 z M 7,4.6666667 V 5.5555556 H 8.7777778 V 4.6666667 Z M 7,7.3333333 V 8.2222222 H 8.7777778 V 7.3333333 Z M 7,10 v 0.888889 H 8.7777778 V 10 Z m 4.444444,4.444444 c -0.49092,0 -0.888888,0.397969 -0.888888,0.888889 0,0.49092 0.397968,0.888889 0.888888,0.888889 0.49092,0 0.888889,-0.397969 0.888889,-0.888889 0,-0.49092 -0.397969,-0.888889 -0.888889,-0.888889 z"
     id="path2"
     transform="translate(1.4444445,2)" />
</svg>
